<svg xmlns="http://www.w3.org/2000/svg" viewBox="0 0 139 200" width="139" height="200">
	<style>
		tspan { white-space:pre }
		.shp0 { fill: #c2c6c8 } 
		.shp1 { fill: #53565c } 
		.shp2 { fill: #231f20 } 
		.shp3 { fill: #a3abad } 
		.shp4 { fill: #ffffff } 
		.shp5 { fill: #b4975b } 
	</style>
	<g >
		<path class="shp0" d="M27.08 1.04C27 1.14 27.56 1.91 28.32 2.76C29.08 3.61 30.16 4.91 30.71 5.64C31.26 6.36 32.14 7.66 32.66 8.51C33.18 9.36 34.08 11.05 34.66 12.27C35.24 13.48 35.96 15.22 36.27 16.13C36.57 17.04 37.03 18.83 37.29 20.11C37.55 21.39 37.81 23.57 37.86 24.97C37.91 26.38 38.05 27.54 38.17 27.57C38.29 27.6 39.16 27.24 40.1 26.77C41.04 26.3 42.8 25.54 44.02 25.09C45.23 24.63 47.32 23.98 48.65 23.63C49.98 23.28 52.12 22.83 53.39 22.63C54.67 22.43 56.21 22.33 56.81 22.39C57.57 22.48 58.07 22.41 58.41 22.2C58.81 21.94 58.87 21.78 58.71 21.38C58.6 21.11 58.4 20.91 58.27 20.94C58.14 20.97 57.56 20.57 56.98 20.05C56.4 19.53 54.79 18.15 53.39 16.99C52 15.83 49.57 13.9 47.99 12.7C46.41 11.51 43.58 9.51 41.7 8.26C39.82 7.02 37.09 5.35 35.63 4.55C34.18 3.75 31.94 2.65 30.67 2.11C29.39 1.58 28.1 1.07 27.8 1C27.49 0.92 27.17 0.94 27.08 1.04Z" />
		<path class="shp1" d="M61.67 7.87C57.57 11.72 54.23 14.95 54.24 15.05C54.26 15.16 55.19 16.5 56.32 18.03C57.44 19.56 58.51 21.04 58.69 21.31C58.87 21.58 59.24 22.14 59.52 22.56C59.79 22.97 60.22 23.96 60.46 24.75C60.71 25.54 60.9 26.31 60.9 26.46C60.9 26.62 60.66 27.56 60.37 28.56C60.08 29.57 59.68 31.43 59.48 32.71C59.28 33.98 59.03 36.22 58.93 37.68C58.83 39.14 58.75 43.02 58.75 46.3C58.75 49.58 58.84 54.01 58.93 56.13C59.03 58.26 59.27 62.69 59.47 65.97C59.68 69.25 59.92 71.98 60.02 72.04C60.12 72.1 61.23 71.99 62.48 71.78C63.73 71.58 65.82 71.33 67.13 71.23L69.5 71.05C69.5 16.67 69.42 0.88 69.32 0.88C69.22 0.88 65.78 4.03 61.67 7.87Z" />
		<path class="shp2" d="M69.53 36L69.5 71.16C71.12 71.16 72.84 71.31 74.35 71.49C75.87 71.68 77.48 71.92 77.94 72.05C78.64 72.23 78.8 72.21 78.97 71.88C79.07 71.67 79.33 68.76 79.53 65.41C79.73 62.07 79.97 57.55 80.07 55.36C80.16 53.17 80.24 49.04 80.25 46.19C80.25 43.33 80.17 39.75 80.07 38.23C79.97 36.71 79.72 34.33 79.52 32.93C79.32 31.53 78.91 29.54 78.61 28.51C78.25 27.25 78.11 26.35 78.2 25.8C78.27 25.35 78.58 24.35 78.89 23.59C79.19 22.83 79.63 22.01 79.86 21.77C80.08 21.52 81.27 19.93 82.5 18.23C83.73 16.53 84.73 15.09 84.73 15.03C84.73 14.97 81.4 11.78 77.33 7.96C73.26 4.13 69.84 0.96 69.74 0.92C69.64 0.88 69.54 16.56 69.53 36Z" />
		<path class="shp0" d="M109.21 1.73C108.06 2.18 105.98 3.16 104.58 3.89C103.19 4.63 100.75 6.03 99.18 7.02C97.6 8 94.92 9.82 93.22 11.06C91.52 12.29 88.94 14.27 87.49 15.44C86.03 16.61 83.9 18.39 82.74 19.38C81.59 20.38 80.59 21.15 80.53 21.1C80.47 21.04 80.3 21.17 80.15 21.38C80 21.6 79.88 21.82 79.88 21.88C79.87 21.94 80.04 22 80.26 22.02C80.47 22.04 81.68 22.16 82.96 22.3C84.23 22.43 85.87 22.65 86.6 22.77C87.33 22.9 89.02 23.29 90.35 23.63C91.68 23.98 93.77 24.63 94.98 25.09C96.2 25.54 97.96 26.3 98.9 26.77C100.55 27.6 100.62 27.61 100.83 27.18C100.95 26.94 101.05 26.12 101.05 25.36C101.05 24.6 101.21 22.93 101.4 21.66C101.6 20.38 102 18.49 102.3 17.46C102.6 16.43 103.24 14.64 103.73 13.48C104.22 12.33 105.15 10.49 105.79 9.39C106.43 8.3 107.55 6.61 108.28 5.64C109.01 4.66 110.17 3.27 110.84 2.54C111.52 1.81 112 1.14 111.91 1.04C111.82 0.95 111.65 0.88 111.53 0.88C111.41 0.89 110.37 1.27 109.21 1.73Z" />
		<path class="shp2" d="M26.15 4.79C26.04 4.87 25.98 5.91 26 7.11C26.02 8.3 26.19 10.5 26.38 11.99C26.58 13.48 27.03 16.14 27.39 17.9C27.76 19.66 28.39 22.35 28.8 23.87C29.21 25.39 29.48 26.7 29.39 26.79C29.3 26.88 23.97 26.98 17.54 27.01L5.85 27.07L5.75 148.84C15.74 158.79 20.33 163.1 22.39 164.84C24.46 166.58 27.83 169.27 29.9 170.83C31.96 172.39 35.33 174.79 37.4 176.18C39.46 177.56 42.74 179.65 44.68 180.81C46.62 181.98 49.45 183.62 50.97 184.47C52.48 185.32 55.66 187.01 58.03 188.24C60.39 189.46 63.94 191.22 65.91 192.14L69.5 193.81C76.08 190.71 80.13 188.69 82.74 187.31C85.35 185.94 89.17 183.84 91.23 182.65C93.3 181.46 96.62 179.43 98.62 178.15C100.63 176.86 103.7 174.78 105.46 173.51C107.22 172.25 109.9 170.25 111.42 169.07C112.94 167.88 115.67 165.64 117.49 164.08C119.31 162.52 123.6 158.43 127.03 154.99L133.26 148.73C133.26 34.13 133.23 27.17 132.93 27.07C132.75 27.01 127.39 26.96 121.02 26.96C114.65 26.96 109.44 26.89 109.44 26.8C109.44 26.7 109.83 25.14 110.31 23.31C110.79 21.49 111.43 18.71 111.75 17.13C112.06 15.55 112.46 13.06 112.64 11.6C112.82 10.14 112.97 8.03 112.97 6.91C112.97 5.5 112.88 4.82 112.69 4.71C112.52 4.62 111.7 5.32 110.54 6.54C109.51 7.63 108.07 9.42 107.35 10.5C106.63 11.59 105.58 13.43 105 14.59C104.43 15.74 103.65 17.58 103.27 18.67C102.89 19.77 102.39 21.41 102.16 22.32C101.93 23.23 101.62 24.82 101.47 25.86C101.32 26.89 101.16 27.76 101.12 27.79C101.08 27.82 100.18 27.41 99.12 26.88C98.06 26.35 96.2 25.54 94.98 25.09C93.77 24.63 91.68 23.98 90.35 23.63C89.02 23.28 86.93 22.85 85.72 22.67C84.5 22.49 82.91 22.3 82.19 22.25L80.86 22.15C85.82 24.62 88.15 25.93 89.25 26.67C90.34 27.4 91.98 28.6 92.89 29.33C93.8 30.06 95.44 31.6 96.53 32.74C97.62 33.88 98.97 35.41 99.53 36.14C100.09 36.86 101 38.15 101.55 39.01C102.1 39.86 103.1 41.65 103.77 42.98C104.44 44.32 105.37 46.52 105.83 47.88C106.62 50.17 106.73 50.36 107.39 50.59C108.1 50.83 108.11 50.84 108.09 52.21C108.08 52.97 108 53.84 107.91 54.14C107.83 54.45 107.57 54.72 107.33 54.76C107.09 54.8 106.67 54.87 106.4 54.93C106.13 54.98 105.45 55.45 104.89 55.97C104.33 56.48 103.55 57.45 103.15 58.12C102.75 58.79 102.12 60.18 101.76 61.22C101.4 62.25 100.93 64.14 100.71 65.41C100.4 67.27 100.35 68.5 100.45 71.6C100.55 74.52 100.71 76.12 101.14 78.12C101.44 79.58 101.99 81.77 102.35 82.98C102.71 84.2 103.42 86.19 103.92 87.4C104.55 88.91 104.88 90.07 104.96 91.05C105.05 92.13 104.96 92.93 104.6 94.25C104.33 95.23 103.64 97.02 103.06 98.23C102.48 99.45 100.81 102.53 99.35 105.08C97.89 107.64 96 111.07 95.14 112.71C94.28 114.35 92.99 117.08 92.27 118.78C91.54 120.49 90.54 123.17 90.04 124.75C89.54 126.33 88.89 128.77 88.6 130.17C88.31 131.56 87.97 133.6 87.84 134.7C87.71 135.79 87.59 137.48 87.57 138.45C87.54 140.12 87.49 140.28 86.72 141.33C86.28 141.93 85.27 142.86 84.49 143.38C83.71 143.9 82.55 144.53 81.91 144.76C81.27 145 80.01 145.32 79.1 145.47C78.01 145.65 77.39 145.67 77.25 145.52C77.14 145.4 76.91 143.41 76.75 141.1C76.55 138.32 76.45 132.89 76.46 124.97C76.46 118.37 76.59 110.72 76.75 107.85C76.95 104.09 77.11 102.51 77.34 102.15C77.52 101.88 77.99 101.46 78.38 101.23C78.77 100.99 79.62 100.74 80.26 100.67C81.08 100.59 81.41 100.46 81.41 100.22C81.41 100.02 80.53 99.46 79.15 98.78C77.91 98.18 75.9 97.42 74.68 97.1C72.83 96.62 72 96.53 69.5 96.53C66.99 96.53 66.18 96.62 64.32 97.11C63.1 97.43 61.19 98.14 60.07 98.68C58.95 99.22 57.95 99.82 57.86 100C57.77 100.19 57.75 100.38 57.81 100.43C57.87 100.47 58.36 100.58 58.91 100.66C59.46 100.74 60.19 100.97 60.54 101.18C60.89 101.38 61.36 101.8 61.57 102.1C61.86 102.51 61.99 103.26 62.08 104.97C62.15 106.25 62.32 110.33 62.46 114.03C62.61 117.95 62.67 124.29 62.59 129.17C62.53 133.79 62.36 139.16 62.22 141.1C62.08 143.05 61.88 144.86 61.76 145.14C61.63 145.45 61.37 145.63 61.06 145.63C60.79 145.63 59.87 145.48 59.02 145.3C58.17 145.11 56.93 144.71 56.26 144.4C55.59 144.1 54.66 143.58 54.19 143.25C53.71 142.92 52.89 142.13 52.37 141.49C51.41 140.34 51.41 140.32 51.41 138.56C51.41 137.59 51.26 135.63 51.07 134.2C50.89 132.77 50.4 130.21 49.99 128.51C49.58 126.81 48.77 124.12 48.2 122.54C47.63 120.96 46.57 118.38 45.84 116.8C45.12 115.22 44.08 113.08 43.52 112.04C42.97 111.01 41.27 107.98 39.75 105.3C38.23 102.63 36.47 99.35 35.83 98.01C35.2 96.67 34.52 94.93 34.33 94.14C34.14 93.35 33.98 92.14 33.98 91.44C33.98 90.45 34.2 89.61 34.96 87.68C35.5 86.31 36.3 84 36.73 82.54C37.17 81.08 37.73 78.8 37.97 77.46C38.22 76.12 38.48 73.59 38.55 71.82C38.63 69.8 38.57 67.8 38.4 66.41C38.25 65.19 37.89 63.38 37.6 62.38C37.3 61.37 36.72 59.86 36.29 59.01C35.87 58.15 35.1 57 34.58 56.44C34.07 55.88 33.37 55.28 33.04 55.11C32.71 54.94 32.19 54.81 31.88 54.81C31.58 54.81 31.29 54.73 31.23 54.64C31.18 54.55 31.05 53.88 30.95 53.15C30.85 52.42 30.8 51.62 30.83 51.38C30.87 51.14 31.21 50.78 31.61 50.59C32.22 50.29 32.41 49.98 32.96 48.38C33.31 47.36 33.96 45.67 34.4 44.64C34.85 43.61 35.77 41.82 36.45 40.66C37.12 39.51 38.3 37.72 39.07 36.69C39.83 35.65 41.36 33.88 42.46 32.74C43.56 31.6 45.2 30.07 46.11 29.33C47.02 28.6 48.66 27.4 49.75 26.67C50.85 25.94 52.83 24.79 54.17 24.11C55.5 23.44 56.72 22.76 56.88 22.61C57.12 22.37 57 22.32 56.22 22.32C55.7 22.32 54.33 22.47 53.17 22.66C52.02 22.85 49.98 23.28 48.65 23.63C47.32 23.98 45.23 24.63 44.02 25.09C42.8 25.54 41.02 26.3 40.05 26.78C39.07 27.26 38.16 27.6 38 27.53C37.85 27.46 37.67 26.93 37.6 26.35C37.53 25.78 37.22 24.21 36.91 22.87C36.61 21.54 36.01 19.5 35.58 18.34C35.15 17.19 34.38 15.4 33.87 14.36C33.35 13.33 32.29 11.54 31.52 10.39C30.75 9.24 29.35 7.47 28.41 6.47C27.47 5.46 26.61 4.64 26.51 4.64C26.41 4.64 26.25 4.71 26.15 4.79Z" />
		<path class="shp3" d="M25.89 6.52C25.89 7.37 25.93 7.67 25.97 7.18C26.02 6.7 26.02 6 25.97 5.64C25.92 5.27 25.89 5.67 25.89 6.52Z" />
		<path class="shp4" d="M58.36 22.22C58.12 22.4 57.63 22.55 57.28 22.55C56.93 22.54 56.63 22.62 56.62 22.72C56.6 22.81 55.45 23.47 54.06 24.18C52.66 24.88 50.53 26.14 49.31 26.98C48.1 27.81 46.71 28.82 46.22 29.21C45.74 29.6 44.24 31.02 42.89 32.37C41.55 33.71 39.82 35.65 39.06 36.69C38.3 37.72 37.12 39.51 36.45 40.66C35.77 41.82 34.85 43.61 34.4 44.64C33.96 45.67 33.31 47.36 32.96 48.38C32.41 49.98 32.22 50.29 31.61 50.59C31.21 50.78 30.87 51.14 30.83 51.38C30.8 51.62 30.85 52.42 30.95 53.15C31.05 53.88 31.18 54.55 31.23 54.64C31.29 54.73 31.6 54.81 31.94 54.81C32.27 54.81 32.87 55.01 33.26 55.25C33.66 55.49 34.02 55.67 34.07 55.64C34.12 55.6 34.37 54.59 34.61 53.37C34.86 52.15 35.42 50.12 35.86 48.84C36.3 47.56 37.09 45.62 37.62 44.53C38.14 43.44 39.16 41.65 39.87 40.55C40.59 39.46 41.92 37.67 42.83 36.57C43.74 35.48 45.18 33.95 46.02 33.18C46.86 32.4 48.29 31.2 49.2 30.5C50.11 29.8 51.55 28.78 52.4 28.23C53.25 27.68 54.96 26.72 56.21 26.1L58.47 24.97C60.19 26.09 60.73 26.36 60.79 26.3C60.85 26.24 60.7 25.54 60.46 24.75C60.22 23.96 59.82 22.99 59.58 22.6C59.33 22.2 59.06 21.88 58.96 21.89C58.87 21.89 58.6 22.04 58.36 22.22Z" />
		<path class="shp3" d="M79.43 22.28C79.33 22.49 79.04 23.17 78.79 23.81C78.53 24.45 78.29 25.3 78.25 25.69L78.17 26.41L80.64 24.99C83.38 26.4 85.02 27.33 86.05 27.96C87.08 28.6 88.82 29.82 89.91 30.67C91 31.52 92.54 32.85 93.34 33.62C94.13 34.4 95.41 35.77 96.19 36.69C96.97 37.6 98.22 39.29 98.98 40.44C99.74 41.6 100.85 43.59 101.45 44.86C102.05 46.14 102.89 48.28 103.32 49.61C103.74 50.95 104.2 52.72 104.33 53.54C104.47 54.36 104.57 55.1 104.56 55.19C104.55 55.28 104.68 55.42 104.84 55.51C105 55.59 105.38 55.49 105.68 55.29C105.99 55.09 106.58 54.87 107 54.81C107.57 54.72 107.8 54.56 107.91 54.14C108 53.84 108.08 52.97 108.09 52.21C108.11 50.84 108.1 50.83 107.39 50.59C106.73 50.36 106.62 50.17 105.83 47.88C105.37 46.52 104.44 44.32 103.77 42.98C103.1 41.65 102.1 39.86 101.55 39.01C101 38.15 100.09 36.86 99.53 36.14C98.97 35.41 97.62 33.88 96.53 32.74C95.44 31.6 93.8 30.06 92.89 29.33C91.98 28.6 90.34 27.4 89.25 26.67C88.15 25.93 85.77 24.59 83.95 23.68C82.13 22.77 80.41 22 80.13 21.97C79.83 21.94 79.54 22.07 79.43 22.28Z" />
		<path class="shp0" d="M0.88 86.35L0.87 150.61C6.63 156.77 9.84 160.02 11.71 161.8C13.58 163.57 16.16 165.95 17.43 167.08C18.7 168.2 20.94 170.09 22.39 171.26C23.85 172.44 26.48 174.48 28.24 175.8C30 177.11 33.28 179.4 35.52 180.89C37.77 182.37 40.99 184.41 42.69 185.41C44.39 186.42 47.67 188.28 49.97 189.54C52.28 190.81 56.35 192.92 59.02 194.24C61.69 195.57 65.11 197.24 66.63 197.97L69.39 199.28C74.35 196.99 78.32 195.05 81.41 193.5C84.51 191.94 88.83 189.67 91.01 188.45C93.2 187.23 96.52 185.29 98.4 184.13C100.28 182.98 103.36 180.99 105.24 179.71C107.12 178.43 110 176.38 111.64 175.14C113.28 173.9 115.81 171.92 117.27 170.72C118.72 169.53 120.76 167.8 121.79 166.88C122.82 165.96 125.1 163.86 126.85 162.21C128.6 160.57 131.85 157.29 134.08 154.92L138.13 150.61L138.12 22.1L110.65 22.09C109.71 25.69 109.43 26.79 109.43 26.85C109.43 26.91 114.65 26.96 121.02 26.96C127.39 26.96 132.75 27.01 132.93 27.07C133.23 27.17 133.26 34.13 133.26 87.96L133.26 148.73C123.6 158.44 119.31 162.53 117.49 164.08C115.67 165.64 112.94 167.88 111.42 169.07C109.9 170.25 107.22 172.25 105.46 173.51C103.7 174.78 100.63 176.86 98.62 178.15C96.62 179.43 93.3 181.46 91.23 182.65C89.17 183.84 85.35 185.94 82.74 187.31C80.13 188.69 76.08 190.71 73.75 191.81L69.5 193.81C63.94 191.22 60.39 189.46 58.03 188.24C55.66 187.01 52.48 185.32 50.97 184.47C49.45 183.62 46.62 181.98 44.68 180.81C42.74 179.65 39.46 177.56 37.4 176.18C35.33 174.79 31.96 172.39 29.9 170.83C27.83 169.27 24.46 166.58 22.39 164.84C20.33 163.1 15.74 158.79 12.2 155.26L5.75 148.84C5.72 81.53 5.7 54.23 5.69 44.75C5.68 35.27 5.73 27.39 5.81 27.24C5.93 27.02 8.52 26.96 17.65 26.96C24.08 26.96 29.39 26.89 29.44 26.8C29.49 26.7 29.27 25.61 28.94 24.37L28.35 22.12L0.89 22.09L0.88 86.35Z" />
		<path class="shp3" d="M58.29 25.27C58.28 25.41 57.98 26.52 57.62 27.73C57.27 28.95 56.86 30.69 56.72 31.6C56.58 32.51 56.33 34.7 56.16 36.46C55.93 38.84 55.87 41.92 55.95 48.4C56 53.2 56.1 57.82 56.15 58.67C56.21 59.52 56.41 62.71 56.59 65.75C56.77 68.78 56.92 71.67 56.92 72.15L56.91 73.04C58.03 72.77 58.73 72.6 59.19 72.48C59.69 72.35 59.97 72.16 59.91 71.99C59.86 71.84 59.65 69.08 59.46 65.86C59.26 62.64 59.03 58.26 58.93 56.13C58.84 54.01 58.75 49.58 58.75 46.3C58.75 43.02 58.83 39.14 58.93 37.68C59.03 36.22 59.28 33.98 59.48 32.71C59.68 31.43 60.08 29.57 60.37 28.56C60.66 27.56 60.9 26.69 60.9 26.63C60.9 26.57 60.47 26.24 59.96 25.89C59.44 25.55 58.86 25.21 58.66 25.14C58.46 25.07 58.29 25.13 58.29 25.27Z" />
		<path class="shp0" d="M57.23 25.59C56.48 25.92 55.05 26.66 54.03 27.24C53.01 27.82 51.24 28.99 50.08 29.84C48.93 30.7 47.2 32.11 46.24 32.99C45.27 33.87 43.74 35.48 42.83 36.57C41.92 37.67 40.59 39.46 39.87 40.55C39.16 41.65 38.14 43.44 37.62 44.53C37.09 45.62 36.3 47.56 35.86 48.84C35.42 50.12 34.86 52.15 34.61 53.37C34.37 54.59 34.13 55.63 34.08 55.69C34.03 55.75 34.33 56.17 34.75 56.63C35.18 57.09 35.87 58.15 36.29 59.01C36.72 59.86 37.3 61.37 37.59 62.38C37.88 63.38 38.24 65.14 38.39 66.3C38.54 67.45 38.66 69.24 38.66 70.28C38.66 71.31 38.6 72.8 38.51 73.59C38.43 74.38 38.18 76.12 37.95 77.46C37.72 78.8 37.17 81.08 36.73 82.54C36.3 84 35.49 86.34 34.94 87.73C34.39 89.13 34.03 90.33 34.13 90.39C34.24 90.45 34.49 91.04 34.69 91.71C34.89 92.38 35.42 93.48 35.86 94.14C36.31 94.81 37.04 95.71 37.49 96.13C38 96.61 39.54 99.06 41.52 102.54C43.28 105.64 45.38 109.42 46.18 110.94C46.98 112.46 48.14 114.85 48.76 116.24C49.38 117.64 50.32 119.98 50.85 121.44C51.38 122.9 52.12 125.23 52.49 126.63C52.86 128.03 53.35 130.31 53.59 131.71C53.83 133.11 54.09 134.85 54.18 135.58C54.32 136.81 54.29 136.98 53.67 137.9C53.31 138.45 52.65 139.22 52.21 139.61L51.41 140.33C53.12 142.39 53.81 143.03 54.06 143.09C54.3 143.15 54.49 143.28 54.49 143.37C54.49 143.46 55.16 143.86 55.98 144.25C56.8 144.65 57.84 145.05 58.29 145.14C59.05 145.29 59.1 145.27 59.08 144.75C59.06 144.45 59.19 142.31 59.36 140C59.55 137.27 59.66 132.09 59.65 125.19C59.65 119.36 59.52 112.1 59.38 109.06C59.23 106.02 59.06 102.94 58.99 102.21C58.93 101.48 58.83 100.81 58.78 100.72C58.73 100.63 58.49 100.55 58.25 100.55C57.95 100.55 57.82 100.42 57.86 100.17C57.9 99.92 58.69 99.39 60.01 98.73C61.17 98.16 63.1 97.43 64.32 97.11C66.17 96.62 66.99 96.53 69.5 96.53C72 96.53 72.83 96.62 74.68 97.1C75.9 97.42 77.91 98.18 79.15 98.78C80.53 99.46 81.41 100.02 81.41 100.22C81.41 100.43 81.21 100.55 80.86 100.55C80.49 100.55 80.25 100.72 80.12 101.05C80.01 101.32 79.79 104.08 79.62 107.18C79.44 110.62 79.32 117.6 79.32 125.08C79.32 133.6 79.41 138.5 79.62 141.1C79.79 143.17 79.94 144.97 79.96 145.11C79.97 145.28 80.21 145.29 80.75 145.14C81.18 145.02 82.07 144.68 82.74 144.38C83.41 144.07 84.4 143.5 84.94 143.1C85.49 142.71 86.31 141.9 86.76 141.3C87.21 140.71 87.58 140.15 87.58 140.06C87.59 139.96 87.47 139.89 87.32 139.9C87.16 139.9 86.64 139.48 86.14 138.96C85.65 138.44 85.12 137.76 84.96 137.46C84.76 137.07 84.72 136.48 84.82 135.47C84.9 134.68 85 133.78 85.05 133.48C85.09 133.18 85.23 132.28 85.37 131.49C85.51 130.7 85.77 129.36 85.95 128.51C86.14 127.66 86.64 125.82 87.07 124.42C87.51 123.02 88.36 120.64 88.96 119.12C89.56 117.6 90.88 114.71 91.89 112.71C92.89 110.7 95.27 106.33 97.18 102.98C99.67 98.61 100.97 96.57 101.81 95.69C102.45 95.02 103.22 93.98 103.53 93.37C103.84 92.76 104.26 91.72 104.48 91.05L104.86 89.83C103.31 85.9 102.64 84.01 102.37 83.09C102.1 82.18 101.64 80.39 101.35 79.12C101.06 77.84 100.76 76.25 100.7 75.58C100.64 74.91 100.53 74.22 100.47 74.03C100.41 73.85 100.37 72.26 100.37 70.5C100.38 68.63 100.54 66.41 100.75 65.19C100.94 64.04 101.4 62.25 101.76 61.22C102.12 60.18 102.78 58.74 103.22 58.01C103.66 57.28 104.27 56.46 104.58 56.19C105 55.81 105.06 55.66 104.84 55.53C104.68 55.44 104.55 55.28 104.56 55.19C104.57 55.1 104.47 54.36 104.33 53.54C104.2 52.72 103.74 50.95 103.32 49.61C102.89 48.28 102.05 46.14 101.45 44.86C100.85 43.59 99.74 41.6 98.98 40.44C98.22 39.29 96.97 37.6 96.19 36.69C95.41 35.77 94.13 34.4 93.34 33.62C92.54 32.85 91 31.52 89.91 30.67C88.82 29.82 87.08 28.6 86.05 27.96C85.02 27.33 83.33 26.37 82.3 25.85C80.78 25.08 80.46 24.98 80.6 25.32C80.7 25.55 81.02 26.59 81.32 27.62C81.62 28.66 82.05 30.85 82.29 32.49C82.52 34.13 82.82 37.16 82.94 39.23C83.06 41.29 83.17 44.18 83.18 45.64C83.19 47.09 83.08 50.77 82.95 53.81C82.81 56.85 82.54 62.34 82.34 66C82.13 69.67 81.92 72.72 81.86 72.79C81.79 72.85 81.2 72.76 80.53 72.59C79.86 72.41 79.26 72.14 79.18 71.99C79.07 71.77 79.01 71.77 78.9 71.99C78.8 72.21 78.48 72.2 77.39 71.95C76.63 71.78 74.82 71.52 73.36 71.37C71.76 71.2 69.63 71.15 67.96 71.24C66.44 71.32 64.85 71.43 64.43 71.5C64 71.56 62.96 71.72 62.11 71.86C61.26 71.99 60.42 72.13 60.23 72.17C60.05 72.22 59.28 72.43 58.53 72.65C57.77 72.86 57.12 72.99 57.07 72.93C57.02 72.87 56.81 69.83 56.61 66.19C56.4 62.54 56.19 59.01 56.14 58.34C56.09 57.67 56 53.2 55.95 48.4C55.87 41.94 55.93 38.84 56.16 36.46C56.33 34.7 56.57 32.56 56.7 31.71C56.83 30.86 57.19 29.22 57.5 28.07C57.81 26.91 58.2 25.74 58.36 25.47C58.53 25.2 58.64 24.98 58.62 24.98C58.6 24.99 57.97 25.26 57.23 25.59Z" />
		<path class="shp4" d="M79.32 25.73C78.83 26.02 78.39 26.23 78.33 26.19C78.26 26.15 78.2 26.28 78.18 26.49C78.17 26.69 78.34 27.5 78.58 28.29C78.81 29.08 79.15 30.62 79.33 31.71C79.51 32.81 79.8 34.99 79.96 36.57C80.18 38.67 80.24 41.74 80.18 47.96C80.13 52.64 80.04 57.16 79.98 58.01C79.93 58.86 79.73 62.19 79.54 65.41C79.35 68.64 79.15 71.37 79.11 71.49C79.06 71.61 79.09 71.84 79.17 71.99C79.25 72.14 79.86 72.41 80.53 72.59C81.2 72.76 81.79 72.85 81.86 72.79C81.92 72.72 82.13 69.67 82.34 66C82.54 62.34 82.81 56.85 82.95 53.81C83.08 50.77 83.19 47.09 83.18 45.64C83.17 44.18 83.06 41.29 82.94 39.23C82.82 37.16 82.52 34.13 82.29 32.49C82.06 30.85 81.59 28.57 81.25 27.42C80.92 26.28 80.54 25.31 80.42 25.27C80.3 25.23 79.8 25.44 79.32 25.73Z" />
		<path class="shp3" d="M53.61 30.06C53.37 30.3 53.17 30.7 53.17 30.94C53.17 31.18 53.37 31.58 53.61 31.82C53.86 32.07 54.28 32.27 54.55 32.27C54.83 32.28 55.22 32.1 55.43 31.89C55.64 31.67 55.82 31.24 55.82 30.94C55.83 30.64 55.66 30.22 55.44 30.01C55.23 29.8 54.83 29.62 54.55 29.62C54.28 29.62 53.86 29.81 53.61 30.06ZM83.5 30.02C83.28 30.24 83.11 30.66 83.13 30.96C83.15 31.25 83.34 31.66 83.56 31.87C83.77 32.08 84.17 32.26 84.45 32.26C84.72 32.26 85.14 32.07 85.39 31.82C85.63 31.58 85.83 31.18 85.83 30.94C85.83 30.7 85.63 30.3 85.39 30.06C85.14 29.81 84.71 29.61 84.43 29.61C84.14 29.61 83.72 29.8 83.5 30.02Z" />
		<path class="shp1" d="M10 30.66C9.93 30.88 9.94 31.4 10.03 31.82C10.11 32.25 10.67 33.54 11.27 34.7C11.88 35.85 12.36 36.82 12.36 36.85C12.36 36.88 12.13 36.8 11.86 36.66C11.59 36.53 11.14 36.48 10.87 36.55C10.59 36.63 10.32 36.88 10.26 37.13C10.2 37.37 10.26 37.94 10.4 38.4C10.53 38.85 10.98 39.77 11.38 40.44C11.79 41.11 12.12 41.73 12.13 41.82C12.13 41.91 11.89 41.94 11.58 41.88C11.28 41.82 10.88 41.89 10.69 42.04C10.5 42.2 10.35 42.54 10.36 42.82C10.37 43.09 10.67 43.94 11.03 44.7C11.39 45.46 11.8 46.62 11.94 47.29C12.08 47.97 12.14 49.39 12.08 50.5C11.98 52.14 11.74 53.19 10.64 56.57C9.89 58.87 9.19 61.49 9.05 62.54C8.86 63.94 8.85 64.93 9.03 66.41C9.16 67.5 9.49 69.07 9.76 69.89C10.04 70.72 10.36 71.35 10.48 71.31C10.6 71.27 10.76 70.5 10.83 69.6C10.9 68.69 11.19 67.26 11.46 66.41C11.73 65.56 12.16 64.51 12.41 64.09C12.66 63.66 13.47 62.68 14.21 61.91C14.95 61.14 16.27 59.97 17.15 59.31C18.21 58.53 18.75 57.97 18.75 57.68C18.75 57.38 18.61 57.24 18.31 57.24C18.07 57.24 17.83 57.16 17.77 57.07C17.71 56.98 17.8 56.71 17.96 56.46C18.12 56.22 18.81 55.62 19.5 55.14C20.19 54.65 20.8 54.13 20.86 53.98C20.91 53.83 20.91 53.6 20.85 53.48C20.79 53.36 20.57 53.26 20.35 53.27C20.14 53.27 19.89 53.19 19.8 53.1C19.7 53.01 20.2 52.36 20.9 51.67C21.81 50.77 22.13 50.31 22.01 50.07C21.92 49.88 21.67 49.72 21.46 49.72C21.24 49.72 20.62 50 20.08 50.35C19.53 50.69 18.24 51.87 17.21 52.96C16.18 54.05 14.77 55.78 14.08 56.81C13.4 57.83 12.55 59.24 12.21 59.94C11.86 60.64 11.51 61.21 11.42 61.21C11.33 61.21 11.32 61.09 11.41 60.94C11.5 60.79 11.59 60.56 11.61 60.44C11.63 60.32 12.39 58.48 13.3 56.35C14.21 54.23 15.27 51.44 15.65 50.17C16.03 48.89 16.49 47 16.67 45.97C16.85 44.93 16.99 43.24 16.99 42.21C16.98 41.18 16.84 39.64 16.66 38.78C16.48 37.93 15.94 36.44 15.46 35.47C14.96 34.44 14.06 33.11 13.31 32.29C12.6 31.52 11.75 30.74 11.42 30.58C11.08 30.41 10.66 30.28 10.47 30.28C10.29 30.28 10.08 30.45 10 30.66ZM127.42 30.68C127.05 30.9 126.26 31.63 125.65 32.29C125.04 32.96 124.18 34.19 123.73 35.04C123.28 35.88 122.71 37.37 122.46 38.34C122.16 39.52 122.01 40.81 122.01 42.21C122.01 43.36 122.16 45.15 122.36 46.19C122.55 47.22 123.05 49.19 123.47 50.55C123.88 51.92 124.77 54.31 125.45 55.86C126.13 57.41 126.71 58.83 126.72 59.02C126.74 59.22 126.86 59.52 126.99 59.69C127.12 59.86 127.34 60.27 127.48 60.61C127.64 60.96 127.65 61.17 127.53 61.1C127.41 61.04 127.05 60.47 126.73 59.83C126.42 59.2 125.55 57.78 124.81 56.69C124.07 55.59 122.46 53.7 121.24 52.47C120.03 51.25 118.73 50.12 118.37 49.96C118.01 49.8 117.53 49.74 117.32 49.81C117.11 49.88 116.94 50.09 116.94 50.28C116.94 50.46 117.51 51.15 118.21 51.81C119.23 52.78 119.4 53.04 119.09 53.14C118.88 53.2 118.55 53.31 118.37 53.37C118.19 53.43 118.04 53.63 118.04 53.81C118.04 53.99 118.46 54.43 118.98 54.78C119.49 55.13 120.24 55.75 120.64 56.16C121.03 56.57 121.36 56.98 121.35 57.07C121.35 57.16 121.1 57.24 120.8 57.24C120.49 57.24 120.2 57.36 120.15 57.51C120.09 57.67 120.27 58 120.53 58.25C120.8 58.5 121.51 59.06 122.12 59.5C122.73 59.93 123.88 60.97 124.68 61.8C125.48 62.63 126.41 63.86 126.75 64.53C127.09 65.2 127.55 66.49 127.78 67.4C128.01 68.31 128.19 69.58 128.19 70.22C128.19 71.04 128.27 71.36 128.46 71.31C128.62 71.27 128.96 70.58 129.24 69.77C129.51 68.95 129.83 67.42 129.94 66.35C130.07 65.12 130.06 63.78 129.92 62.65C129.8 61.68 129.17 59.24 128.53 57.24C127.88 55.23 127.23 52.94 127.08 52.15C126.91 51.31 126.84 49.9 126.91 48.73C127 47.05 127.14 46.46 127.82 44.97C128.26 44 128.63 43.01 128.63 42.76C128.64 42.52 128.5 42.2 128.31 42.04C128.12 41.89 127.72 41.82 127.42 41.88C127.11 41.94 126.89 41.91 126.92 41.82C126.95 41.73 127.41 40.81 127.94 39.78C128.66 38.37 128.87 37.75 128.76 37.29C128.68 36.91 128.44 36.63 128.13 36.55C127.86 36.48 127.41 36.53 127.14 36.66C126.87 36.8 126.64 36.86 126.64 36.8C126.64 36.73 127.13 35.77 127.72 34.64C128.32 33.52 128.87 32.25 128.94 31.82C129.02 31.4 129.03 30.88 128.97 30.66C128.9 30.45 128.68 30.28 128.46 30.28C128.25 30.28 127.78 30.46 127.42 30.68ZM19.92 44.33C19.61 44.79 19.57 45.03 19.75 45.49C19.88 45.81 20.25 46.18 20.59 46.3C21.01 46.45 21.31 46.44 21.58 46.28C21.78 46.14 22.1 45.78 22.28 45.47C22.58 44.97 22.58 44.86 22.23 44.34C21.94 43.9 21.66 43.76 21.07 43.76C20.49 43.76 20.21 43.9 19.92 44.33ZM116.82 44.25C116.62 44.52 116.46 44.89 116.47 45.08C116.48 45.26 116.69 45.64 116.93 45.91C117.18 46.19 117.6 46.41 117.87 46.41C118.15 46.42 118.59 46.19 118.86 45.92C119.13 45.64 119.36 45.27 119.36 45.08C119.36 44.9 119.22 44.53 119.03 44.25C118.8 43.9 118.48 43.76 117.94 43.76C117.41 43.76 117.07 43.91 116.82 44.25Z" />
		<path class="shp3" d="M84.65 45.08C84.23 45.39 84.08 45.7 84.12 46.11C84.15 46.45 84.43 46.89 84.79 47.16C85.36 47.59 85.45 47.6 86 47.29C86.4 47.06 86.62 46.73 86.66 46.29C86.7 45.93 86.6 45.47 86.44 45.27C86.29 45.07 85.95 44.85 85.7 44.77C85.4 44.68 85.02 44.8 84.65 45.08ZM52.62 45.21C52.42 45.4 52.27 45.85 52.27 46.2C52.28 46.62 52.47 46.97 52.79 47.18C53.06 47.37 53.43 47.52 53.61 47.52C53.8 47.52 54.17 47.3 54.44 47.02C54.71 46.75 54.93 46.37 54.94 46.19C54.94 46.01 54.79 45.63 54.61 45.36C54.39 45.03 54.05 44.86 53.63 44.86C53.27 44.86 52.82 45.02 52.62 45.21Z" />
		<path class="shp1" d="M40.38 53.26C40.19 53.64 40.35 53.92 41.49 55.19C42.23 56.01 43.27 57.38 43.8 58.23C44.33 59.08 45.03 60.48 45.35 61.33C45.66 62.18 46.07 63.54 46.24 64.36C46.41 65.19 46.56 67.02 46.56 68.45C46.56 69.88 46.4 71.89 46.21 72.93C46.02 73.96 45.66 75.5 45.42 76.35C45.17 77.2 44.65 78.67 44.27 79.6C43.65 81.12 43.61 81.34 43.91 81.66C44.09 81.85 44.31 82 44.4 82C44.49 81.99 44.81 81.72 45.12 81.38C45.42 81.05 46.16 79.83 46.76 78.67C47.36 77.52 48.11 75.83 48.42 74.92C48.73 74.01 49.14 72.46 49.32 71.49C49.5 70.52 49.65 68.65 49.65 67.35C49.64 66.04 49.5 64.25 49.34 63.37C49.17 62.49 48.74 61.02 48.39 60.11C48.04 59.2 47.33 57.83 46.82 57.07C46.31 56.31 45.44 55.32 44.89 54.86C44.34 54.41 43.38 53.76 42.74 53.42C42.11 53.08 41.37 52.81 41.1 52.81C40.83 52.82 40.51 53.02 40.38 53.26ZM95.76 53.4C95.07 53.74 93.92 54.63 93.11 55.45C92.21 56.37 91.35 57.52 90.81 58.56C90.34 59.48 89.71 61.17 89.42 62.32C89 63.99 88.9 64.98 88.9 67.18C88.91 68.7 89.01 70.49 89.14 71.16C89.27 71.83 89.51 72.92 89.68 73.59C89.85 74.26 90.35 75.65 90.79 76.69C91.22 77.72 92.01 79.26 92.53 80.11C93.06 80.96 93.65 81.73 93.85 81.82C94.08 81.93 94.34 81.85 94.56 81.6C94.75 81.38 94.84 81.07 94.75 80.88C94.66 80.7 94.31 79.81 93.96 78.9C93.61 77.98 93.08 76.24 92.78 75.03C92.47 73.81 92.13 71.85 92.01 70.66C91.87 69.3 91.86 67.8 91.99 66.57C92.1 65.51 92.35 63.99 92.56 63.2C92.76 62.41 93.2 61.17 93.53 60.44C93.86 59.71 94.52 58.52 95 57.8C95.47 57.07 96.39 55.9 97.02 55.2C97.81 54.33 98.16 53.76 98.13 53.43C98.09 53.08 97.91 52.91 97.52 52.87C97.22 52.83 96.42 53.07 95.76 53.4Z" />
		<path class="shp3" d="M53.49 60.11C53.24 60.22 52.96 60.54 52.86 60.82C52.77 61.1 52.75 61.55 52.82 61.82C52.89 62.1 53.2 62.42 53.5 62.54C53.89 62.7 54.21 62.69 54.55 62.51C54.83 62.37 55.12 62.14 55.21 62.01C55.3 61.88 55.37 61.54 55.38 61.27C55.38 60.98 55.13 60.59 54.77 60.32C54.44 60.08 54.12 59.88 54.06 59.9C53.99 59.91 53.74 60.01 53.49 60.11ZM84.09 60.23C83.73 60.46 83.57 60.77 83.58 61.17C83.6 61.5 83.78 61.94 84 62.15C84.22 62.36 84.64 62.54 84.94 62.54C85.25 62.55 85.67 62.38 85.88 62.16C86.09 61.95 86.26 61.49 86.26 61.16C86.27 60.77 86.09 60.43 85.77 60.22C85.5 60.04 85.13 59.89 84.94 59.89C84.76 59.89 84.38 60.04 84.09 60.23Z" />
		<path class="shp5" d="M32.15 63.9C31.53 64.53 31.05 65.29 30.78 66.08C30.56 66.75 30.36 67.74 30.36 68.29C30.35 68.83 30.49 69.78 30.66 70.39C30.87 71.08 31.31 71.84 31.88 72.43C32.36 72.94 32.94 73.36 33.15 73.36C33.36 73.37 33.74 73.15 33.98 72.87C34.31 72.51 34.43 72.08 34.42 71.27C34.42 70.66 34.22 69.54 33.97 68.78C33.66 67.78 33.54 66.84 33.56 65.32C33.57 64.04 33.49 63.17 33.34 63.08C33.21 63 32.68 63.37 32.15 63.9ZM105.45 63.48C105.44 63.63 105.45 64.45 105.46 65.3C105.49 66.37 105.32 67.53 104.91 69.06C104.4 70.94 104.35 71.4 104.56 72.1C104.69 72.56 105 73.03 105.24 73.15C105.49 73.27 105.78 73.37 105.9 73.37C106.03 73.37 106.44 73.1 106.83 72.76C107.21 72.43 107.76 71.66 108.04 71.05C108.42 70.23 108.55 69.55 108.55 68.4C108.55 67.24 108.42 66.57 108.03 65.75C107.75 65.14 107.25 64.32 106.93 63.92C106.61 63.53 106.15 63.2 105.9 63.2C105.66 63.2 105.46 63.33 105.45 63.48Z" />
		<path class="shp1" d="M15.07 67.13C15 67.34 15 68.33 15.08 69.34C15.16 70.34 15.17 71.16 15.11 71.16C15.05 71.16 14.81 70.94 14.58 70.66C14.23 70.26 14.07 70.21 13.75 70.41C13.48 70.57 13.32 70.98 13.28 71.62C13.24 72.16 13.31 73.19 13.44 73.92C13.57 74.65 13.62 75.27 13.56 75.3C13.51 75.33 13.28 75.24 13.07 75.11C12.86 74.97 12.51 74.92 12.3 74.99C11.97 75.12 11.91 75.43 11.91 77.07C11.91 78.14 11.76 79.65 11.57 80.44C11.38 81.23 10.72 83.37 10.09 85.19C8.97 88.47 8.95 88.54 8.96 91.16C8.96 93.53 9.03 93.97 9.57 95.36C9.91 96.21 10.5 97.35 10.88 97.9C11.26 98.45 12.47 99.84 13.56 100.99C14.99 102.49 15.8 103.57 16.39 104.75C16.85 105.66 17.22 106.58 17.22 106.8C17.21 107.01 17.33 107.15 17.49 107.11C17.64 107.07 17.79 106.7 17.83 106.28C17.86 105.87 17.73 104.98 17.53 104.31C17.34 103.64 16.75 102.3 16.22 101.33C15.7 100.35 15.06 98.86 14.8 98.01C14.54 97.16 14.33 96.19 14.34 95.86C14.34 95.52 14.49 94.93 14.66 94.53C14.84 94.14 15.26 93.68 15.6 93.52C16.2 93.23 16.21 93.21 15.78 92.91C15.53 92.73 14.95 92.59 14.49 92.59C13.84 92.6 13.49 92.75 13 93.26C12.65 93.62 12.36 94.07 12.36 94.25C12.36 94.44 12.24 94.66 12.1 94.75C11.91 94.88 11.87 94.33 11.95 92.6C12.03 91.02 12.22 89.81 12.55 88.84C12.82 88.05 13.83 85.76 14.79 83.76C15.93 81.38 16.74 79.34 17.12 77.9C17.46 76.58 17.74 74.8 17.81 73.48C17.9 71.78 17.84 70.96 17.55 69.94C17.34 69.22 16.93 68.2 16.64 67.68C16.29 67.06 15.95 66.74 15.66 66.74C15.41 66.74 15.15 66.91 15.07 67.13ZM122.59 67.22C122.41 67.5 122.03 68.23 121.75 68.84C121.29 69.83 121.24 70.27 121.25 72.93C121.26 75.33 121.36 76.28 121.77 77.79C122.05 78.82 123.06 81.31 124.02 83.31C124.97 85.32 126.02 87.71 126.33 88.62C126.72 89.74 126.95 90.95 127.03 92.38C127.12 93.85 127.08 94.52 126.9 94.64C126.74 94.75 126.64 94.65 126.64 94.36C126.64 94.12 126.35 93.62 125.98 93.26C125.5 92.78 125.11 92.6 124.55 92.6C124.12 92.6 123.58 92.7 123.33 92.82C122.92 93.03 122.93 93.07 123.66 93.76C124.08 94.15 124.43 94.62 124.45 94.81C124.46 94.99 124.5 95.44 124.53 95.8C124.55 96.17 124.44 97.01 124.27 97.68C124.1 98.35 123.43 99.99 122.77 101.33C122.1 102.66 121.45 104.3 121.31 104.97C121.17 105.66 121.13 106.48 121.23 106.85L121.4 107.51C121.74 106.66 122.17 105.71 122.57 104.86C123.11 103.7 123.89 102.68 125.65 100.77C127.37 98.92 128.23 97.79 128.84 96.57C129.34 95.56 129.77 94.28 129.95 93.26C130.12 92.24 130.17 91 130.08 90.06C130 89.16 129.48 87.12 128.85 85.19C128.25 83.37 127.61 81.23 127.43 80.44C127.24 79.65 127.09 78.14 127.09 77.07C127.09 75.43 127.03 75.12 126.7 74.99C126.49 74.92 126.14 74.97 125.93 75.11C125.72 75.24 125.5 75.33 125.45 75.3C125.4 75.27 125.47 74.45 125.6 73.48C125.72 72.51 125.77 71.44 125.69 71.1C125.61 70.77 125.39 70.42 125.21 70.33C124.99 70.22 124.68 70.36 124.31 70.72L123.76 71.27C123.88 66.94 123.87 66.85 123.41 66.78C123.11 66.74 122.81 66.9 122.59 67.22Z" />
		<path class="shp3" d="M68.72 73.33C68.5 73.55 68.33 73.98 68.35 74.27C68.37 74.57 68.56 74.98 68.78 75.19C68.99 75.4 69.42 75.57 69.72 75.58C70.02 75.59 70.44 75.42 70.65 75.2C70.86 74.98 71.04 74.58 71.04 74.31C71.04 74.04 70.85 73.61 70.6 73.37C70.36 73.13 69.93 72.93 69.64 72.93C69.36 72.93 68.94 73.11 68.72 73.33ZM54.49 75.72C54.22 76.04 54.02 76.41 54.03 76.55C54.04 76.68 54.2 77.02 54.38 77.29C54.6 77.62 54.94 77.79 55.36 77.79C55.72 77.79 56.17 77.64 56.36 77.46C56.55 77.28 56.7 76.83 56.7 76.46C56.7 76.02 56.54 75.69 56.21 75.47C55.93 75.28 55.54 75.14 55.34 75.14C55.13 75.14 54.75 75.4 54.49 75.72ZM82.56 75.41C82.44 75.57 82.32 75.84 82.29 76.02C82.27 76.2 82.26 76.53 82.27 76.74C82.29 76.95 82.55 77.3 82.86 77.51C83.34 77.84 83.51 77.86 83.96 77.62C84.26 77.47 84.63 77.11 84.78 76.81C85.01 76.35 84.99 76.18 84.67 75.7C84.38 75.28 84.09 75.14 83.54 75.14C83.12 75.14 82.69 75.26 82.56 75.41Z" />
		<path class="shp1" d="M15.11 88.8C14.88 89.02 14.72 89.47 14.74 89.8C14.76 90.12 14.93 90.54 15.11 90.72C15.3 90.9 15.72 91.05 16.05 91.06C16.38 91.06 16.83 90.89 17.04 90.67C17.25 90.45 17.42 90.03 17.43 89.72C17.44 89.42 17.27 89 17.05 88.79C16.83 88.58 16.4 88.41 16.08 88.4C15.77 88.4 15.33 88.58 15.11 88.8ZM121.89 88.8C121.67 89.02 121.51 89.47 121.53 89.8C121.55 90.12 121.72 90.54 121.9 90.72C122.08 90.9 122.5 91.05 122.84 91.06C123.17 91.06 123.62 90.89 123.83 90.67C124.04 90.45 124.21 90.03 124.22 89.72C124.23 89.42 124.05 89 123.84 88.79C123.62 88.58 123.19 88.41 122.87 88.4C122.56 88.4 122.12 88.58 121.89 88.8Z" />
		<path class="shp3" d="M104.78 90.28C104.7 90.4 104.51 90.9 104.36 91.38C104.21 91.87 103.83 92.76 103.52 93.37C103.22 93.98 102.45 95.02 101.81 95.69C100.97 96.57 99.67 98.61 97.18 102.98C95.27 106.33 92.89 110.7 91.89 112.71C90.88 114.71 89.56 117.6 88.96 119.12C88.36 120.64 87.51 123.02 87.07 124.42C86.64 125.82 86.14 127.66 85.95 128.51C85.77 129.36 85.51 130.7 85.37 131.49C85.23 132.28 85.09 133.18 85.05 133.48C85 133.78 84.9 134.68 84.82 135.47C84.68 136.7 84.73 137.02 85.12 137.68C85.37 138.1 85.91 138.79 86.31 139.19C86.71 139.6 87.16 139.88 87.32 139.8C87.5 139.71 87.59 139.13 87.6 138.07C87.6 137.19 87.74 135.42 87.91 134.14C88.08 132.87 88.44 130.83 88.7 129.61C88.97 128.4 89.58 126.16 90.07 124.64C90.56 123.12 91.54 120.49 92.27 118.78C92.99 117.08 94.28 114.35 95.14 112.71C96 111.07 97.89 107.64 99.35 105.08C100.81 102.53 102.48 99.45 103.06 98.23C103.64 97.02 104.32 95.28 104.57 94.36C104.86 93.32 105.01 92.22 104.97 91.38C104.94 90.65 104.85 90.15 104.78 90.28Z" />
		<path class="shp4" d="M33.98 91.55C33.98 92.19 34.14 93.35 34.33 94.14C34.52 94.93 35.2 96.67 35.83 98.01C36.47 99.35 38.23 102.63 39.75 105.3C41.27 107.98 42.97 111.01 43.52 112.04C44.08 113.08 45.12 115.22 45.84 116.8C46.56 118.38 47.57 120.79 48.07 122.15C48.57 123.52 49.19 125.36 49.44 126.24C49.69 127.12 49.94 128.09 50 128.4C50.06 128.7 50.25 129.55 50.42 130.28C50.59 131.01 50.88 132.77 51.07 134.2C51.25 135.63 51.41 137.54 51.41 138.45C51.41 139.36 51.48 140.11 51.57 140.11C51.66 140.12 52.1 139.74 52.53 139.29C52.97 138.83 53.55 138.1 53.83 137.68C54.28 137 54.32 136.75 54.18 135.58C54.09 134.85 53.83 133.11 53.59 131.71C53.35 130.31 52.86 128.03 52.49 126.63C52.12 125.23 51.38 122.9 50.85 121.44C50.32 119.98 49.38 117.64 48.76 116.24C48.14 114.85 46.98 112.46 46.18 110.94C45.38 109.42 43.28 105.64 41.51 102.54C39.15 98.41 37.98 96.58 37.11 95.69C36.46 95.02 35.64 93.88 35.28 93.15C34.92 92.42 34.59 91.5 34.54 91.1C34.49 90.71 34.35 90.39 34.22 90.39C34.08 90.39 33.98 90.86 33.98 91.55Z" />
		<path class="shp3" d="M68.94 92.34C68.72 92.56 68.55 92.98 68.57 93.28C68.59 93.57 68.78 93.98 69 94.19C69.21 94.4 69.66 94.58 70 94.58C70.38 94.58 70.72 94.41 70.94 94.09C71.12 93.81 71.27 93.42 71.27 93.2C71.27 92.99 71.07 92.62 70.82 92.38C70.58 92.13 70.15 91.93 69.86 91.93C69.58 91.93 69.16 92.12 68.94 92.34ZM55.83 95.64C55.54 96.02 55.42 96.4 55.51 96.69C55.58 96.93 55.81 97.25 56.01 97.41C56.21 97.56 56.57 97.69 56.81 97.69C57.06 97.69 57.42 97.56 57.62 97.41C57.82 97.25 58.05 96.93 58.12 96.69C58.21 96.41 58.09 96.02 57.81 95.64C57.54 95.26 57.16 95.03 56.83 95.03C56.5 95.03 56.11 95.27 55.83 95.64ZM81.19 95.47C80.95 95.71 80.75 96.11 80.75 96.35C80.75 96.6 80.95 96.99 81.19 97.24C81.44 97.48 81.88 97.68 82.17 97.68C82.47 97.68 82.86 97.53 83.05 97.35C83.24 97.17 83.4 96.74 83.41 96.41C83.41 96.07 83.24 95.63 83.02 95.42C82.8 95.21 82.4 95.04 82.13 95.03C81.86 95.03 81.44 95.23 81.19 95.47ZM58.97 102.21C59.05 103.11 59.23 106.21 59.38 109.1C59.52 112 59.64 119.19 59.65 125.08C59.66 131.59 59.55 137.37 59.38 139.78C59.23 141.97 59.09 144.12 59.06 144.57L59.02 145.37C61.01 145.61 61.53 145.57 61.67 145.41C61.79 145.28 62.01 143.66 62.16 141.81C62.3 139.96 62.49 134.48 62.57 129.61C62.67 124.05 62.63 118.27 62.46 114.03C62.32 110.33 62.15 106.25 62.08 104.97C62 103.59 61.83 102.45 61.64 102.15C61.47 101.88 61.11 101.51 60.84 101.33C60.57 101.15 60 100.91 59.58 100.79L58.82 100.57L58.97 102.21Z" />
		<path class="shp4" d="M78.38 101.22C77.99 101.46 77.52 101.88 77.34 102.15C77.11 102.51 76.95 104.09 76.75 107.85C76.59 110.72 76.46 118.37 76.46 124.97C76.45 132.89 76.55 138.32 76.75 141.1C76.91 143.41 77.14 145.4 77.25 145.52C77.39 145.67 77.87 145.67 78.72 145.52C79.41 145.4 79.97 145.2 79.95 145.08C79.93 144.96 79.78 143.22 79.62 141.22C79.41 138.72 79.32 133.63 79.32 125.08C79.32 117.87 79.44 110.35 79.61 107.29C79.76 104.38 79.93 101.72 79.99 101.38C80.07 100.87 80.01 100.77 79.59 100.77C79.32 100.77 78.77 100.97 78.38 101.22Z" />
		<path class="shp1" d="M9.29 104.42C9.11 104.67 9.12 104.94 9.32 105.47C9.47 105.86 9.87 106.55 10.2 107.01C10.54 107.47 10.81 107.94 10.81 108.07C10.81 108.19 10.66 108.24 10.48 108.18C10.3 108.12 10 108.19 9.81 108.34C9.62 108.49 9.47 108.94 9.48 109.34C9.48 109.73 9.79 110.6 10.15 111.27C10.51 111.94 10.81 112.54 10.81 112.6C10.81 112.66 10.59 112.73 10.31 112.76C9.97 112.8 9.8 112.98 9.76 113.37C9.71 113.74 10.12 114.57 11 115.91C11.73 117.01 12.51 118.35 12.75 118.9C12.99 119.44 13.3 120.49 13.46 121.22C13.62 122 13.67 123.08 13.59 123.87C13.51 124.6 13.24 126.09 12.99 127.18C12.74 128.28 12.45 129.27 12.35 129.39C12.24 129.53 12.08 129.42 11.93 129.12C11.8 128.84 11.47 128.47 11.2 128.29C10.92 128.1 10.33 127.85 9.87 127.73C9.42 127.61 9.05 127.56 9.05 127.62C9.05 127.69 9.3 128.11 9.6 128.56C9.91 129.02 10.22 129.84 10.29 130.39C10.37 130.93 10.37 132.03 10.29 132.82C10.22 133.61 9.83 135.25 9.44 136.46C8.81 138.4 8.72 138.96 8.73 140.99C8.74 142.94 8.82 143.53 9.28 144.62C9.58 145.34 9.92 145.96 10.04 146C10.18 146.05 10.26 145 10.27 143.15C10.28 140.7 10.37 139.98 10.78 138.78C11.06 137.99 12.26 135.31 13.45 132.82C14.65 130.33 15.89 127.54 16.21 126.63C16.53 125.72 16.98 124 17.22 122.82C17.54 121.21 17.63 120.06 17.56 118.29C17.51 116.89 17.28 115.18 17.01 114.14C16.76 113.17 16.07 111.38 15.47 110.17C14.68 108.55 13.98 107.52 12.87 106.33C12.04 105.43 11.09 104.56 10.76 104.39C10.42 104.22 10.01 104.09 9.84 104.09C9.67 104.09 9.43 104.24 9.29 104.42ZM128.02 104.53C127.63 104.77 126.89 105.4 126.39 105.91C125.88 106.43 125.02 107.55 124.47 108.4C123.92 109.25 123.23 110.54 122.93 111.27C122.63 112 122.2 113.29 121.96 114.14C121.7 115.12 121.5 116.67 121.45 118.34C121.37 120.43 121.45 121.46 121.81 123.2C122.06 124.42 122.59 126.26 123 127.29C123.4 128.33 124.62 131.01 125.71 133.26C126.8 135.51 127.93 138.04 128.21 138.9C128.64 140.19 128.73 140.91 128.73 143.26C128.74 144.81 128.79 146.08 128.85 146.08C128.91 146.09 129.18 145.61 129.46 145.03C129.73 144.45 130.05 143.53 130.17 142.98C130.29 142.44 130.39 141.49 130.39 140.88C130.39 140.28 130.25 139.23 130.07 138.56C129.9 137.9 129.5 136.4 129.19 135.25C128.83 133.93 128.62 132.57 128.62 131.6C128.62 130.39 128.74 129.82 129.18 128.95C129.48 128.34 129.73 127.82 129.73 127.79C129.73 127.76 129.53 127.73 129.29 127.73C129.05 127.73 128.58 127.87 128.24 128.03C127.91 128.2 127.42 128.62 127.16 128.97L126.68 129.61C126.29 128.59 125.98 127.29 125.73 126.08C125.42 124.56 125.31 123.38 125.38 122.32C125.45 121.31 125.71 120.24 126.13 119.23C126.49 118.38 127.31 116.88 127.96 115.91C128.69 114.82 129.15 113.89 129.16 113.48C129.18 112.95 129.08 112.81 128.69 112.76C128.41 112.73 128.19 112.66 128.19 112.6C128.19 112.54 128.48 111.91 128.84 111.22C129.21 110.52 129.51 109.65 129.52 109.28C129.53 108.92 129.38 108.49 129.19 108.34C129 108.19 128.73 108.11 128.57 108.17C128.42 108.22 128.23 108.2 128.14 108.11C128.05 108.03 128.27 107.61 128.62 107.18C128.97 106.76 129.41 106.04 129.61 105.58C129.89 104.91 129.9 104.69 129.68 104.41C129.53 104.22 129.25 104.07 129.07 104.08C128.89 104.09 128.42 104.29 128.02 104.53ZM66.07 106.04C65.21 106.24 64.34 106.56 64.13 106.74C63.92 106.92 63.74 107.17 63.74 107.29C63.74 107.41 63.9 107.64 64.08 107.79C64.36 108.01 64.75 107.98 66.14 107.62C67.08 107.38 68.54 107.18 69.39 107.18C70.24 107.18 71.78 107.39 72.81 107.65C74.63 108.1 74.69 108.1 74.95 107.7C75.09 107.48 75.14 107.15 75.06 106.98C74.97 106.81 74.66 106.58 74.35 106.47C74.05 106.36 73.13 106.13 72.31 105.95C71.49 105.78 70.1 105.64 69.22 105.65C68.34 105.66 66.92 105.83 66.07 106.04Z" />
		<path class="shp3" d="M56.29 109.51C55.93 109.75 55.77 110.06 55.78 110.45C55.8 110.78 55.98 111.22 56.2 111.43C56.42 111.64 56.84 111.82 57.14 111.82C57.45 111.83 57.87 111.66 58.08 111.44C58.29 111.23 58.46 110.78 58.46 110.44C58.47 110.05 58.29 109.71 57.97 109.5C57.7 109.32 57.33 109.17 57.14 109.17C56.96 109.17 56.58 109.32 56.29 109.51ZM81 109.51C80.65 109.75 80.48 110.06 80.5 110.45C80.51 110.78 80.69 111.22 80.91 111.43C81.13 111.64 81.55 111.82 81.86 111.82C82.16 111.83 82.58 111.66 82.79 111.44C83 111.23 83.17 110.83 83.17 110.55C83.18 110.28 82.98 109.86 82.74 109.61C82.5 109.37 82.12 109.17 81.91 109.17C81.7 109.17 81.29 109.32 81 109.51Z" />
		<path class="shp1" d="M38.5 112.63C38.4 112.71 38.34 112.94 38.36 113.13C38.38 113.32 38.67 113.76 39 114.09C39.33 114.43 39.83 114.7 40.1 114.7C40.43 114.7 40.64 114.53 40.72 114.2C40.82 113.84 40.68 113.53 40.23 113.09C39.88 112.75 39.4 112.48 39.14 112.48C38.89 112.48 38.6 112.55 38.5 112.63ZM98.68 113.14C98.09 113.69 98 113.89 98.18 114.25C98.3 114.5 98.6 114.7 98.84 114.7C99.09 114.7 99.61 114.4 100 114.05C100.6 113.51 100.68 113.33 100.48 113C100.34 112.78 100.05 112.57 99.81 112.53C99.58 112.5 99.07 112.77 98.68 113.14ZM65.97 113.27C65.06 113.44 64.19 113.72 64.03 113.87C63.87 114.02 63.75 114.32 63.75 114.53C63.76 114.74 63.96 114.97 64.2 115.03C64.45 115.09 65.02 115.04 65.47 114.91C65.93 114.79 67.29 114.62 68.51 114.55C70.1 114.46 71.26 114.52 72.7 114.79C74.32 115.09 74.74 115.1 74.98 114.87C75.19 114.67 75.21 114.46 75.06 114.14C74.92 113.86 74.43 113.6 73.66 113.4C73.01 113.24 71.39 113.07 70.05 113.02C68.48 112.97 67.04 113.05 65.97 113.27ZM99.46 117.42C99.06 117.82 98.26 118.37 97.69 118.63C97.03 118.94 96.63 119.26 96.63 119.5C96.62 119.72 96.77 120.01 96.96 120.17C97.23 120.39 97.5 120.37 98.35 120.06C98.92 119.84 99.76 119.32 100.21 118.9C100.67 118.47 101.05 117.9 101.06 117.63C101.07 117.35 100.89 117.04 100.63 116.91C100.26 116.72 100.07 116.8 99.46 117.42ZM37.97 117.24C37.82 117.45 37.8 117.71 37.93 117.96C38.04 118.17 38.41 118.61 38.76 118.94C39.1 119.27 39.85 119.74 40.43 119.99C41.01 120.24 41.6 120.4 41.76 120.34C41.91 120.28 42.11 120.08 42.2 119.9C42.29 119.71 42.32 119.43 42.26 119.28C42.2 119.13 41.73 118.83 41.21 118.63C40.69 118.42 39.97 117.94 39.6 117.57C39.24 117.2 38.78 116.9 38.58 116.9C38.38 116.9 38.11 117.06 37.97 117.24ZM66.41 120.23C65.5 120.34 64.53 120.53 64.26 120.66C63.99 120.78 63.76 121.08 63.76 121.33C63.76 121.57 63.89 121.83 64.04 121.91C64.19 121.99 65.46 121.92 66.85 121.76C68.99 121.52 69.82 121.52 72.1 121.79C74.5 122.06 74.84 122.06 75.02 121.77C75.14 121.59 75.23 121.39 75.23 121.33C75.23 121.27 75.16 121.09 75.07 120.95C74.98 120.8 74.36 120.57 73.69 120.45C73.02 120.32 71.49 120.17 70.27 120.12C69.06 120.07 67.32 120.12 66.41 120.23ZM99.88 122.08C99.37 122.61 98.31 123.35 97.52 123.73C96.73 124.11 95.96 124.42 95.81 124.42C95.66 124.42 95.44 124.59 95.33 124.81C95.21 125.04 95.21 125.35 95.33 125.58C95.44 125.79 95.73 125.97 95.98 125.97C96.22 125.97 97.09 125.66 97.91 125.29C98.73 124.91 99.69 124.39 100.04 124.13C100.4 123.86 100.92 123.32 101.2 122.93C101.5 122.51 101.67 122.02 101.6 121.77C101.54 121.52 101.34 121.28 101.15 121.22C100.94 121.15 100.44 121.49 99.88 122.08ZM37.4 121.47C37.3 121.55 37.23 121.85 37.25 122.14C37.27 122.45 37.75 123.07 38.45 123.71C39.15 124.35 40.2 125.01 41.15 125.39C42.01 125.74 42.86 125.96 43.08 125.89C43.29 125.81 43.51 125.6 43.58 125.41C43.64 125.23 43.6 124.96 43.49 124.81C43.39 124.65 42.67 124.29 41.89 124C40.91 123.62 40.17 123.14 39.44 122.39C38.86 121.81 38.21 121.33 37.99 121.33C37.76 121.33 37.5 121.39 37.4 121.47ZM9.29 123.44C8.89 123.7 8.77 123.97 8.8 124.54C8.82 125.07 8.98 125.4 9.32 125.62C9.59 125.79 9.97 125.9 10.15 125.86C10.33 125.82 10.55 125.77 10.63 125.76C10.71 125.75 10.94 125.6 11.13 125.41C11.32 125.23 11.47 124.83 11.47 124.53C11.47 124.23 11.27 123.78 11.03 123.54C10.79 123.29 10.42 123.09 10.2 123.09C9.99 123.09 9.58 123.25 9.29 123.44ZM127.97 123.54C127.73 123.78 127.53 124.2 127.52 124.48C127.52 124.75 127.65 125.13 127.8 125.33C127.95 125.53 128.35 125.75 128.69 125.83C129.13 125.93 129.41 125.85 129.73 125.52C129.98 125.28 130.17 124.79 130.17 124.42C130.17 123.98 130.01 123.65 129.68 123.42C129.41 123.24 129.01 123.09 128.8 123.09C128.58 123.09 128.21 123.29 127.97 123.54Z" />
		<path class="shp3" d="M56.49 123.92C56.2 124.31 56.08 124.69 56.17 124.97C56.24 125.22 56.47 125.54 56.67 125.69C56.87 125.85 57.23 125.97 57.48 125.97C57.72 125.97 58.08 125.85 58.28 125.69C58.48 125.54 58.71 125.22 58.78 124.97C58.87 124.7 58.75 124.3 58.47 123.92C58.2 123.55 57.82 123.31 57.49 123.31C57.16 123.31 56.77 123.55 56.49 123.92ZM80.53 123.8C80.28 124.06 80.08 124.46 80.08 124.68C80.09 124.9 80.29 125.28 80.53 125.52C80.77 125.77 81.21 125.97 81.51 125.97C81.8 125.97 82.2 125.82 82.39 125.64C82.58 125.45 82.75 125.18 82.76 125.03C82.78 124.88 82.77 124.6 82.74 124.42C82.72 124.24 82.53 123.91 82.33 123.69C82.13 123.48 81.75 123.3 81.48 123.31C81.21 123.31 80.78 123.53 80.53 123.8Z" />
		<path class="shp1" d="M36.73 125.81C36.45 126 36.39 126.24 36.49 126.69C36.56 127.02 37.1 127.75 37.67 128.32C38.3 128.93 39.51 129.72 40.71 130.31C41.8 130.84 43.09 131.34 43.58 131.42C44.3 131.53 44.51 131.48 44.72 131.14C44.86 130.91 44.91 130.6 44.83 130.45C44.75 130.31 44.08 129.98 43.35 129.72C42.63 129.47 41.44 128.94 40.73 128.55C40.01 128.16 39.02 127.39 38.52 126.84C38.02 126.29 37.51 125.77 37.37 125.69C37.23 125.61 36.94 125.66 36.73 125.81ZM100.38 126.83C99.58 127.68 98.7 128.33 97.74 128.78C96.95 129.15 95.91 129.58 95.42 129.74C94.94 129.9 94.41 130.14 94.25 130.26C94.06 130.42 94.01 130.69 94.11 131.05C94.25 131.55 94.35 131.59 95.07 131.47C95.51 131.39 96.61 131.02 97.52 130.63C98.43 130.25 99.65 129.59 100.22 129.17C100.8 128.74 101.57 127.98 101.94 127.46C102.31 126.94 102.58 126.43 102.55 126.33C102.51 126.22 102.28 126.01 102.04 125.85C101.63 125.58 101.48 125.67 100.38 126.83ZM66.52 127.03C65.22 127.07 64.2 127.2 64.02 127.36C63.86 127.51 63.76 127.82 63.8 128.07C63.87 128.49 64.04 128.51 69.35 128.51C72.72 128.51 74.91 128.42 75.04 128.29C75.15 128.17 75.19 127.89 75.13 127.68C75.07 127.47 74.79 127.25 74.52 127.2C74.25 127.14 72.83 127.07 71.38 127.03C69.92 126.99 67.73 126.99 66.52 127.03ZM35.52 130.21C35.35 130.36 35.23 130.7 35.26 130.98C35.28 131.26 35.83 132.06 36.49 132.76C37.32 133.65 38.26 134.34 39.63 135.06C40.71 135.63 42.35 136.37 43.29 136.72C44.81 137.28 45.03 137.31 45.35 137.02C45.54 136.83 45.67 136.49 45.63 136.26C45.58 135.94 45.02 135.62 43.47 135.03C42.31 134.6 40.82 133.94 40.16 133.58C39.49 133.22 38.5 132.48 37.95 131.93C37.4 131.39 36.78 130.71 36.57 130.44C36.36 130.17 36.1 129.94 36.01 129.94C35.91 129.94 35.69 130.06 35.52 130.21ZM101.89 130.99C101.47 131.58 100.52 132.46 99.72 132.99C98.93 133.5 97.25 134.33 95.98 134.83C94.7 135.32 93.54 135.89 93.4 136.1C93.25 136.3 93.2 136.59 93.29 136.75C93.37 136.91 93.56 137.08 93.71 137.14C93.87 137.19 94.91 136.91 96.03 136.51C97.15 136.11 98.77 135.39 99.62 134.92C100.47 134.45 101.68 133.53 102.32 132.89C102.96 132.24 103.54 131.44 103.62 131.1C103.72 130.65 103.65 130.43 103.34 130.22C103.11 130.06 102.86 129.94 102.78 129.94C102.7 129.94 102.3 130.42 101.89 130.99ZM63.95 133.78C63.8 133.91 63.7 134.19 63.72 134.41C63.74 134.63 63.91 134.86 64.09 134.92C64.28 134.98 66.73 135.03 69.56 135.04C73.92 135.05 74.73 135 74.96 134.71C75.14 134.48 75.17 134.24 75.03 133.98C74.85 133.63 74.34 133.59 69.52 133.57C66.2 133.56 64.11 133.64 63.95 133.78ZM33.78 134.7C33.65 134.88 33.6 135.3 33.67 135.64C33.75 135.97 34.33 136.79 34.98 137.46C35.62 138.13 36.92 139.13 37.87 139.69C38.83 140.25 40.35 141.01 41.26 141.38C42.17 141.75 43.43 142.21 44.07 142.4C45.01 142.69 45.3 142.71 45.58 142.49C45.77 142.33 45.89 142.01 45.85 141.77C45.8 141.44 45.26 141.15 43.58 140.54C42.36 140.1 40.72 139.41 39.93 139.01C39.15 138.61 37.95 137.9 37.29 137.44C36.61 136.96 35.76 136.1 35.36 135.48C34.96 134.86 34.5 134.36 34.33 134.36C34.17 134.36 33.92 134.51 33.78 134.7ZM103.98 134.97C103.77 135.3 103.09 136.07 102.48 136.68C101.75 137.41 100.64 138.15 99.28 138.84C98.13 139.41 96.31 140.21 95.23 140.6C94.15 141 93.16 141.5 93.02 141.71C92.83 142.01 92.86 142.18 93.17 142.48C93.55 142.86 93.64 142.85 95.38 142.25C96.37 141.9 97.98 141.25 98.95 140.8C99.93 140.35 101.32 139.57 102.04 139.08C102.77 138.59 103.72 137.8 104.14 137.32C104.57 136.85 105.04 136.14 105.19 135.75C105.41 135.18 105.41 134.96 105.19 134.69C105.04 134.5 104.79 134.35 104.65 134.35C104.5 134.36 104.2 134.63 103.98 134.97ZM15.82 137.62C15.61 137.83 15.2 138.78 14.9 139.72C14.59 140.67 14.23 142.21 14.1 143.15C13.97 144.09 13.92 145.46 14 146.19C14.08 146.92 14.35 148.31 14.59 149.28C14.84 150.25 15.34 151.75 15.7 152.6C16.06 153.45 16.69 154.69 17.09 155.36C17.5 156.03 18.46 157.22 19.24 158.01C20.01 158.8 21.41 160.07 22.35 160.83C23.28 161.59 24.1 162.16 24.16 162.1C24.22 162.04 23.69 161.17 22.97 160.17C22.26 159.16 21.16 157.45 20.54 156.35C19.92 155.26 19.21 153.77 18.96 153.04C18.72 152.31 18.37 150.77 18.19 149.61C18.02 148.46 17.88 146.62 17.88 145.52C17.88 144.13 17.78 143.4 17.56 143.09C17.3 142.74 17.18 142.71 16.96 142.93C16.81 143.08 16.6 143.2 16.5 143.2C16.41 143.2 16.4 142.43 16.49 141.49C16.58 140.55 16.66 139.24 16.66 138.58C16.66 137.93 16.55 137.35 16.42 137.31C16.29 137.26 16.02 137.4 15.82 137.62ZM122.33 137.61C122.24 137.83 122.27 139.15 122.39 140.55C122.52 141.95 122.58 143.14 122.54 143.2C122.5 143.27 122.31 143.19 122.13 143.04C121.92 142.87 121.69 142.84 121.51 142.96C121.33 143.1 121.19 144.21 121.08 146.33C120.98 148.27 120.74 150.23 120.46 151.38C120.21 152.41 119.64 154.01 119.2 154.92C118.76 155.83 117.61 157.77 116.64 159.23C115.66 160.69 114.76 161.95 114.63 162.04C114.48 162.15 114.49 162.2 114.67 162.21C114.83 162.21 115.72 161.58 116.66 160.8C117.6 160.03 119.09 158.63 119.97 157.71C121.22 156.39 121.81 155.53 122.67 153.76C123.27 152.51 124.02 150.6 124.34 149.5C124.8 147.89 124.91 147.05 124.91 145.08C124.91 143.32 124.78 142.17 124.44 140.88C124.19 139.91 123.76 138.73 123.49 138.25C123.22 137.77 122.89 137.34 122.75 137.29C122.6 137.24 122.42 137.38 122.33 137.61Z" />
		<path class="shp3" d="M56.29 137.8C55.93 138.03 55.77 138.34 55.78 138.74C55.8 139.07 55.98 139.51 56.2 139.72C56.42 139.93 56.84 140.11 57.14 140.11C57.45 140.12 57.87 139.95 58.08 139.73C58.29 139.51 58.46 139.06 58.46 138.73C58.47 138.34 58.29 138 57.97 137.79C57.7 137.61 57.33 137.46 57.14 137.46C56.96 137.46 56.58 137.61 56.29 137.8ZM81 137.8C80.65 138.03 80.48 138.34 80.5 138.74C80.51 139.07 80.69 139.51 80.91 139.72C81.13 139.93 81.55 140.11 81.86 140.11C82.16 140.12 82.58 139.95 82.79 139.73C83 139.51 83.17 139.11 83.17 138.84C83.18 138.57 82.98 138.14 82.74 137.9C82.5 137.66 82.12 137.46 81.91 137.46C81.7 137.46 81.29 137.61 81 137.8Z" />
		<path class="shp1" d="M31.19 139.17C31.12 139.38 31.11 139.76 31.18 140C31.24 140.24 31.68 140.94 32.15 141.55C32.64 142.19 33.79 143.18 34.87 143.91C35.9 144.6 37.53 145.53 38.5 145.97C39.47 146.41 41.26 147.12 42.47 147.54C43.69 147.95 44.85 148.24 45.06 148.18C45.33 148.1 45.43 147.88 45.4 147.47C45.35 146.93 45.15 146.81 43.24 146.15C42.09 145.74 40.55 145.15 39.82 144.83C39.1 144.51 37.81 143.85 36.96 143.35C36.11 142.86 34.93 142 34.33 141.45C33.74 140.9 33.02 140.07 32.73 139.61C32.41 139.1 32.04 138.78 31.77 138.78C31.52 138.78 31.26 138.96 31.19 139.17ZM106.16 139.61C105.93 140.07 105.35 140.79 104.88 141.22C104.41 141.65 103.58 142.31 103.04 142.69C102.49 143.07 101.2 143.79 100.17 144.29C99.14 144.78 97.26 145.57 96 146.02C94.74 146.48 93.6 147.02 93.46 147.23C93.27 147.53 93.3 147.7 93.61 148.01C93.98 148.38 94.09 148.37 96.15 147.67C97.33 147.27 99.29 146.47 100.5 145.89C101.71 145.31 103.3 144.43 104.03 143.94C104.76 143.44 105.8 142.55 106.35 141.96C106.9 141.37 107.48 140.56 107.62 140.17C107.83 139.6 107.83 139.38 107.61 139.11C107.46 138.92 107.17 138.77 106.96 138.77C106.74 138.78 106.39 139.15 106.16 139.61ZM63.97 140.28C63.85 140.43 63.79 140.72 63.82 140.93C63.85 141.17 64.19 141.37 64.76 141.5C65.24 141.6 67.63 141.65 70.07 141.62C73.63 141.56 74.58 141.48 74.88 141.22C75.09 141.03 75.25 140.83 75.24 140.77C75.24 140.71 75.16 140.54 75.07 140.38C74.95 140.18 73.57 140.09 69.54 140.05C65.44 140.01 64.12 140.07 63.97 140.28ZM21.93 149.78C21.8 149.87 21.57 150.17 21.43 150.44C21.28 150.75 21.25 151.13 21.37 151.44C21.47 151.71 21.72 152.01 21.92 152.1C22.12 152.19 22.53 152.27 22.84 152.27C23.16 152.27 23.52 152.06 23.72 151.77C23.9 151.49 24.05 151.1 24.05 150.88C24.05 150.67 23.85 150.3 23.61 150.06C23.37 149.81 22.94 149.61 22.67 149.62C22.4 149.62 22.06 149.69 21.93 149.78ZM115.27 150.1C115.07 150.37 114.92 150.75 114.93 150.93C114.94 151.12 115.1 151.49 115.28 151.77C115.5 152.09 115.83 152.27 116.26 152.27C116.61 152.27 117.06 152.12 117.25 151.93C117.44 151.75 117.61 151.48 117.62 151.33C117.64 151.17 117.63 150.9 117.6 150.72C117.58 150.54 117.39 150.21 117.19 149.99C116.99 149.78 116.56 149.6 116.23 149.61C115.88 149.61 115.49 149.81 115.27 150.1Z" />
		<path class="shp0" d="M53.17 151.22C52.93 151.61 52.54 152.43 52.31 153.04C52.08 153.65 51.82 154.64 51.73 155.25C51.64 155.86 51.63 156.63 51.71 156.96C51.83 157.47 52.04 157.62 53.01 157.89C53.81 158.11 54.41 158.47 54.96 159.05C55.4 159.51 56.42 160.91 57.22 162.15C58.27 163.77 59.02 164.67 59.85 165.28C60.48 165.75 61.55 166.39 62.22 166.71C62.89 167.02 64.38 167.44 65.53 167.64C67.09 167.91 68.36 167.98 70.49 167.89C72.44 167.81 73.89 167.62 75.02 167.3C75.93 167.04 77.2 166.51 77.85 166.12C78.5 165.73 79.5 164.92 80.06 164.3C80.62 163.69 81.47 162.55 81.95 161.76C82.43 160.98 83.12 159.94 83.49 159.47C83.87 159 84.54 158.43 85 158.2C85.45 157.97 86 157.79 86.21 157.79C86.43 157.78 86.72 157.71 86.88 157.62C87.03 157.53 87.18 157.16 87.22 156.8C87.25 156.43 87.2 155.64 87.11 155.03C87.02 154.42 86.85 153.72 86.73 153.48C86.62 153.24 86.27 152.47 85.96 151.77C85.47 150.7 85.31 150.51 84.89 150.58C84.62 150.62 83.5 150.93 82.41 151.25C81.31 151.57 79.58 151.98 78.55 152.15C77.51 152.33 75.48 152.57 74.02 152.7C72.57 152.82 70.43 152.92 69.28 152.93C68.13 152.93 66.09 152.83 64.76 152.7C63.42 152.58 61.39 152.32 60.23 152.13C59.08 151.93 57.17 151.49 55.99 151.14C54.8 150.78 53.78 150.5 53.72 150.5C53.66 150.5 53.41 150.82 53.17 151.22Z" />
		<path class="shp1" d="M25.69 154.31C25.62 154.46 25.68 155.03 25.82 155.58C25.97 156.13 26.38 157.22 26.74 158.01C27.1 158.8 27.91 160.24 28.55 161.22C29.18 162.19 30.34 163.73 31.12 164.63C31.9 165.54 33.34 166.91 34.31 167.67C35.28 168.44 37.07 169.55 38.28 170.15C39.49 170.74 42.25 171.81 44.4 172.52L48.31 173.81C47.29 174.75 47 175.18 47 175.36C47 175.54 47.02 175.69 47.05 175.7C47.08 175.7 47.45 175.56 47.88 175.38C48.3 175.2 49 175.04 49.42 175.01C49.85 174.98 50.64 175.04 51.19 175.13C51.73 175.23 52.92 175.63 53.83 176.02C54.75 176.4 56.09 177.1 56.81 177.56C57.54 178.02 58.78 179.06 59.57 179.87C60.36 180.67 61.35 181.97 61.77 182.76C62.19 183.55 62.68 184.77 62.87 185.48L63.21 186.76C66.62 188.3 67.07 188.43 67.07 188.18C67.07 187.99 66.81 187.12 66.5 186.24C66.18 185.36 65.46 183.85 64.9 182.88C64.33 181.91 63.18 180.41 62.33 179.55C61.48 178.68 60.19 177.59 59.46 177.13C58.73 176.66 56.85 175.66 55.27 174.89C53.69 174.13 51.06 173 49.42 172.38C47.78 171.75 45.6 170.79 44.57 170.24C43.54 169.69 42.05 168.73 41.27 168.1C40.49 167.47 39.17 166.17 38.35 165.19C37.53 164.22 36.48 162.79 36.02 162.01C35.56 161.24 35.07 160.54 34.92 160.47C34.76 160.39 34.47 160.5 34.25 160.71C33.89 161.07 33.84 161.04 33.37 160.1C33.1 159.56 32.58 158.77 32.21 158.34C31.85 157.92 31.4 157.57 31.22 157.57C31.04 157.57 30.76 157.84 30.6 158.18L30.3 158.78C28.49 156.22 27.65 155.14 27.28 154.75C26.9 154.35 26.41 154.03 26.19 154.03C25.98 154.03 25.75 154.16 25.69 154.31ZM111.76 154.64C111.42 154.98 110.62 156.02 109.96 156.96C109.31 157.9 108.72 158.67 108.66 158.67C108.6 158.67 108.45 158.43 108.33 158.12C108.21 157.82 107.96 157.57 107.78 157.57C107.6 157.57 107.23 157.8 106.95 158.09C106.68 158.38 106.17 159.15 105.82 159.8C105.46 160.46 105.14 161.04 105.1 161.1C105.05 161.17 104.89 161.03 104.74 160.8C104.59 160.56 104.32 160.43 104.14 160.49C103.96 160.55 103.39 161.28 102.89 162.12C102.38 162.96 101.38 164.34 100.66 165.2C99.94 166.05 98.87 167.15 98.27 167.64C97.68 168.13 96.74 168.84 96.2 169.21C95.65 169.58 94.71 170.14 94.1 170.45C93.49 170.75 91.31 171.67 89.25 172.49C87.18 173.31 84.4 174.52 83.07 175.19C81.73 175.86 80 176.83 79.21 177.35C78.42 177.86 77.14 178.97 76.37 179.81C75.6 180.64 74.59 181.97 74.11 182.76C73.64 183.55 72.96 184.94 72.6 185.86C72.24 186.77 71.94 187.74 71.93 188.01C71.93 188.5 71.97 188.49 73.86 187.63L75.79 186.76C76.31 184.77 76.76 183.61 77.12 182.9C77.48 182.18 78.37 180.95 79.1 180.16C79.83 179.37 81.07 178.3 81.86 177.78C82.64 177.26 83.98 176.52 84.83 176.14C85.68 175.76 86.78 175.35 87.26 175.22C87.75 175.09 88.64 175 89.25 175C89.85 175 90.72 175.19 91.17 175.4C91.87 175.74 91.99 175.75 91.99 175.47C92 175.29 91.7 174.84 91.35 174.48L90.69 173.81C96.24 171.96 98.65 171.08 99.62 170.67C100.59 170.25 102.23 169.35 103.26 168.68C104.29 168 105.96 166.6 106.98 165.55C108 164.5 109.42 162.75 110.15 161.66C110.87 160.56 111.8 158.97 112.2 158.12C112.61 157.27 113.05 156.1 113.17 155.52C113.3 154.95 113.36 154.38 113.3 154.25C113.24 154.13 113 154.03 112.77 154.03C112.55 154.03 112.09 154.31 111.76 154.64Z" />
		<path class="shp3" d="M58.71 155.26C58.33 155.51 58.19 155.8 58.21 156.31C58.22 156.7 58.36 157.13 58.51 157.27C58.67 157.4 59.02 157.58 59.3 157.65C59.65 157.75 59.95 157.63 60.34 157.24C60.65 156.93 60.9 156.54 60.9 156.35C60.9 156.17 60.65 155.77 60.34 155.47C60.04 155.17 59.67 154.92 59.52 154.92C59.36 154.91 59 155.07 58.71 155.26ZM78.57 155.26C78.22 155.49 78.05 155.8 78.07 156.2C78.08 156.53 78.27 156.97 78.48 157.18C78.7 157.39 79.13 157.56 79.43 157.57C79.73 157.58 80.15 157.41 80.36 157.19C80.57 156.97 80.74 156.57 80.75 156.3C80.75 156.02 80.55 155.6 80.31 155.36C80.07 155.12 79.7 154.92 79.48 154.92C79.27 154.91 78.86 155.07 78.57 155.26ZM68.4 156.46C68.28 156.71 68.2 157.18 68.23 157.51C68.27 157.89 68.5 158.23 68.88 158.45C69.44 158.76 69.52 158.75 70.1 158.32C70.44 158.07 70.74 157.62 70.78 157.33C70.81 157.03 70.66 156.62 70.45 156.4C70.23 156.18 69.74 156.01 69.34 156.01C68.86 156.02 68.56 156.16 68.4 156.46Z" />
		<path class="shp1" d="M49.75 177.2C49.52 177.42 49.36 177.84 49.38 178.14C49.39 178.43 49.58 178.85 49.8 179.06C50.02 179.26 50.44 179.44 50.75 179.45C51.05 179.46 51.47 179.28 51.68 179.07C51.89 178.85 52.06 178.43 52.07 178.12C52.08 177.82 51.91 177.4 51.69 177.19C51.47 176.98 51.04 176.8 50.72 176.8C50.41 176.8 49.97 176.98 49.75 177.2ZM87.25 177.2C87.03 177.42 86.87 177.84 86.88 178.14C86.9 178.43 87.09 178.85 87.31 179.06C87.53 179.26 87.95 179.44 88.25 179.45C88.56 179.46 88.98 179.28 89.19 179.07C89.4 178.85 89.57 178.43 89.58 178.12C89.59 177.82 89.42 177.4 89.2 177.19C88.98 176.98 88.55 176.8 88.23 176.8C87.92 176.8 87.48 176.98 87.25 177.2Z" />
	</g>
</svg>