<?xml version="1.0" encoding="UTF-8" standalone="no"?>
<!-- Created with Inkscape (http://www.inkscape.org/) -->

<svg
   xmlns:dc="http://purl.org/dc/elements/1.1/"
   xmlns:cc="http://creativecommons.org/ns#"
   xmlns:rdf="http://www.w3.org/1999/02/22-rdf-syntax-ns#"
   xmlns:svg="http://www.w3.org/2000/svg"
   xmlns="http://www.w3.org/2000/svg"
   xmlns:sodipodi="http://sodipodi.sourceforge.net/DTD/sodipodi-0.dtd"
   xmlns:inkscape="http://www.inkscape.org/namespaces/inkscape"
   width="302"
   height="210"
   viewBox="0 0 302 210"
   id="svg58035"
   version="1.1"
   inkscape:version="0.91 r13725"
   sodipodi:docname="flint firebirds.svg">
  <defs
     id="defs58037" />
  <sodipodi:namedview
     id="base"
     pagecolor="#ffffff"
     bordercolor="#666666"
     borderopacity="1.0"
     inkscape:pageopacity="0.0"
     inkscape:pageshadow="2"
     inkscape:zoom="2.5857143"
     inkscape:cx="151"
     inkscape:cy="105"
     inkscape:document-units="px"
     inkscape:current-layer="layer1"
     showgrid="false"
     units="px"
     inkscape:window-width="1280"
     inkscape:window-height="744"
     inkscape:window-x="-4"
     inkscape:window-y="-4"
     inkscape:window-maximized="1" />
  <metadata
     id="metadata58040">
    <rdf:RDF>
      <cc:Work
         rdf:about="">
        <dc:format>image/svg+xml</dc:format>
        <dc:type
           rdf:resource="http://purl.org/dc/dcmitype/StillImage" />
        <dc:title></dc:title>
      </cc:Work>
    </rdf:RDF>
  </metadata>
  <g
     inkscape:label="Layer 1"
     inkscape:groupmode="layer"
     id="layer1"
     transform="translate(0,-842.36216)">
    <g
       id="g58399"
       transform="matrix(3.6007295,0,0,3.6007295,-1852.258,-1339.8909)">
      <g
         transform="matrix(1.25,0,0,-1.25,597.55464,613.63541)"
         id="g50307">
        <path
           inkscape:connector-curvature="0"
           id="path50309"
           style="fill:#9ba1a6;fill-opacity:1;fill-rule:nonzero;stroke:none"
           d="m 0,0 c -0.101,0.059 -0.212,0.089 -0.322,0.092 -0.184,0.004 -0.368,-0.068 -0.507,-0.211 -0.176,-0.182 -0.965,-0.77 -3.684,-0.704 -0.083,0.002 -0.168,0.005 -0.255,0.008 -0.843,0.29 -2.022,0.634 -3.679,1.104 -1.604,0.454 -3.262,0.923 -4.418,1.349 -6.211,2.289 -11.406,3.681 -11.452,3.693 l -1.927,0.49 c -0.063,0.017 -0.127,0.025 -0.191,0.025 -0.202,0 -0.4,-0.08 -0.554,-0.23 -0.203,-0.195 -0.305,-0.486 -0.273,-0.778 l 0.159,-1.436 c 0.266,-2.406 -0.329,-4.252 -1.819,-5.644 -1.025,-0.955 -2.16,-1.341 -2.284,-1.381 l -1.011,-0.265 c -0.224,-0.059 -0.415,-0.215 -0.528,-0.431 -0.114,-0.216 -0.14,-0.474 -0.071,-0.712 l 0.214,-0.744 1.56,-6.085 c 0.061,-0.239 0.211,-0.44 0.413,-0.555 0.121,-0.07 0.254,-0.105 0.389,-0.105 0.091,0 0.181,0.016 0.268,0.048 l 1.593,0.584 c 0.38,0.14 0.727,0.207 1.062,0.207 1.441,0 3.15,-1.397 4.69,-3.831 0.356,-0.565 0.7,-1.178 1.027,-1.832 -0.043,-0.081 -0.074,-0.169 -0.092,-0.262 -0.048,-0.24 -0.002,-0.491 0.127,-0.695 l 1.182,-1.868 c 0.16,-0.253 0.421,-0.392 0.688,-0.392 0.128,0 0.258,0.032 0.379,0.099 0.374,0.207 0.546,0.681 0.404,1.108 -0.01,0.029 -0.2,0.593 -0.562,1.439 l 2.614,1.738 c 0.192,-0.021 0.389,-0.033 0.591,-0.033 2.115,0 4.748,1.272 5.417,2.615 0.066,0.132 0.458,0.396 0.817,0.66 0.08,0.016 0.16,0.032 0.24,0.049 1.742,0.375 2.315,0.703 2.36,1.35 0.014,0.206 -0.03,0.382 -0.131,0.527 0.734,0.131 1.368,0.484 1.772,1.003 0.095,0.123 0.172,0.249 0.231,0.377 0.539,0.062 1.078,0.142 1.511,0.225 0.726,0.141 1.548,0.299 1.578,1.049 0.019,0.496 -0.31,0.808 -0.978,0.925 -1.834,0.322 -2.844,0.596 -3.396,0.792 0.49,0.148 1.252,0.317 2.316,0.46 3.846,0.516 4.837,5.177 4.877,5.375 C 0.411,-0.484 0.27,-0.158 0,0" />
      </g>
      <g
         transform="matrix(1.25,0,0,-1.25,573.79076,611.67991)"
         id="g50311">
        <path
           inkscape:connector-curvature="0"
           id="path50313"
           style="fill:#fc5d00;fill-opacity:1;fill-rule:nonzero;stroke:none"
           d="m 0,0 c 12.468,-4.044 17.473,-3.445 18.671,-2.213 0,0 -0.883,-4.339 -4.279,-4.795 -2.958,-0.397 -4.677,-2.017 1.05,-2.717 2.236,-0.273 -5.747,-1.273 -3.706,-0.594 2.041,0.679 1.185,-1.75 -1.204,-1.56 -1.406,0.112 -1.549,-0.78 -0.245,-0.941 2.689,-0.335 -4.682,-1.805 -4.743,-1.036 -0.188,2.387 -0.863,-2.495 0.328,-1.464 1.19,1.03 -6.361,-1.437 -5.248,-0.947 2.641,1.163 2.376,2.386 2.376,2.386 l -0.588,3.689 1.645,1.977 6.275,3.29 L 0,0 Z" />
      </g>
      <g
         transform="matrix(1.25,0,0,-1.25,585.39564,617.29803)"
         id="g50315">
        <path
           inkscape:connector-curvature="0"
           id="path50317"
           style="fill:#9ba1a6;fill-opacity:1;fill-rule:nonzero;stroke:none"
           d="m 0,0 c -0.243,0.254 -0.47,0.514 -0.684,0.781 l 0,-0.024 C -1.432,1.004 -4.119,1.891 -4.918,2.155 -4.774,1.96 -4.622,1.771 -4.46,1.592 -4.269,1.327 -4.078,0.863 -3.823,0.664 -2.74,-0.199 -1.338,-0.265 0,-0.331 0,-0.199 0.064,-0.066 0,0" />
      </g>
      <g
         transform="matrix(1.25,0,0,-1.25,570.66076,631.33016)"
         id="g50319">
        <path
           inkscape:connector-curvature="0"
           id="path50321"
           style="fill:#0c1d3c;fill-opacity:1;fill-rule:nonzero;stroke:none"
           d="m 0,0 c 0,0 3.262,-0.512 5.359,4.521 0,0 2.749,-3.589 2.61,-6.664 0,0 -0.373,0.233 -1.305,-0.187 0,0 0.745,-2.377 -0.839,-4.567 0,0 -0.093,0.932 -0.886,0.932 0,0 -0.14,-3.448 -4.613,-6.71 0,0 2.338,8.947 -1.445,9.087 L 0,0 Z" />
      </g>
      <g
         transform="matrix(1.25,0,0,-1.25,577.35914,626.84428)"
         id="g50323">
        <path
           inkscape:connector-curvature="0"
           id="path50325"
           style="fill:#fc5d00;fill-opacity:1;fill-rule:nonzero;stroke:none"
           d="m 0,0 c 0,0 1.025,-0.466 2.331,-5.127 0,0 -0.746,2.703 -2.424,4.614 L 0,0 Z" />
      </g>
      <g
         transform="matrix(1.25,0,0,-1.25,554.06964,639.72828)"
         id="g50327">
        <path
           inkscape:connector-curvature="0"
           id="path50329"
           style="fill:#9ba1a6;fill-opacity:1;fill-rule:nonzero;stroke:none"
           d="M 0,0 C -0.038,0 -0.076,0.001 -0.115,0.004 -1.261,0.076 -2.153,0.963 -2.87,1.675 -3.22,2.024 -3.399,2.183 -3.483,2.253 -4.108,2.257 -4.636,2.488 -5.05,2.94 c -1.12,1.225 -1.556,3.705 -1.087,6.17 0.775,4.067 2.862,6.951 6.554,7.812 0.924,0.215 2.324,0.271 3.15,0.271 0.355,0 0.697,-0.021 1.022,-0.061 0.269,0.147 0.562,0.224 0.863,0.224 l 0.012,0 c 1.338,-0.01 3.025,-1.316 3.359,-1.666 0.792,-0.83 1.546,-2.46 1.922,-4.152 0.026,-0.121 0.045,-0.246 0.056,-0.37 0.02,-0.233 0.04,-0.454 0.06,-0.666 C 11.026,8.701 11.145,7.4 10.18,6.318 9.349,5.387 7.885,4.958 6.592,4.581 L 6.329,4.504 C 5.994,4.405 5.613,4.292 5.222,4.163 5.042,4.103 4.855,4.073 4.666,4.073 3.905,4.073 3.214,4.563 2.863,5.352 2.456,6.268 2.585,7.385 3.184,8.132 3.273,8.243 3.354,8.356 3.429,8.474 3.406,8.48 3.384,8.487 3.361,8.495 3.055,8.595 2.76,8.647 2.483,8.647 1.212,8.647 0.848,7.659 0.788,7.461 0.666,7.057 0.731,6.739 1,6.43 2.027,5.248 1.95,3.86 1.917,3.268 1.917,3.268 1.915,3.234 1.915,3.231 2.118,2.569 2.067,1.824 1.771,1.209 1.412,0.463 0.733,0 0,0" />
      </g>
      <g
         transform="matrix(1.25,0,0,-1.25,531.76401,655.57953)"
         id="g50331">
        <path
           inkscape:connector-curvature="0"
           id="path50333"
           style="fill:#9ba1a6;fill-opacity:1;fill-rule:nonzero;stroke:none"
           d="m 0,0 c -1.014,0 -1.875,0.714 -2.096,1.738 -10e-4,0.004 -0.003,0.012 -0.003,0.012 -0.08,0.376 -0.448,1.457 -1.064,1.488 -1.016,0.051 -1.865,0.844 -2.019,1.885 -0.113,0.766 0.174,1.536 0.73,2.029 l 0,2.532 c -0.435,0.345 -0.73,0.854 -0.815,1.431 -0.043,0.28 -0.141,0.611 -0.185,0.714 -0.439,0.669 -0.494,1.527 -0.14,2.252 0.134,0.276 0.32,0.516 0.543,0.709 -0.149,0.308 -0.229,0.65 -0.227,0.998 0,0.138 -0.004,0.201 -0.008,0.228 -0.044,0.051 -0.167,0.16 -0.277,0.257 -0.675,0.596 -0.928,1.578 -0.629,2.443 0.305,0.882 1.118,1.474 2.023,1.474 l 7.495,0 c 0.395,0.377 0.921,0.595 1.461,0.595 0.113,0 0.227,-0.01 0.339,-0.028 0.94,-0.155 1.66,-0.916 1.79,-1.893 C 7.252,16.348 5.927,13.904 5.033,12.775 4.97,12.297 4.759,11.854 4.423,11.507 4.099,11.17 3.961,10.86 3.932,10.788 3.687,9.941 2.992,9.349 2.149,9.244 l 0,-7.019 C 2.149,1.091 1.328,0.141 0.241,0.014 0.163,0.005 0.081,0 0,0" />
      </g>
      <g
         transform="matrix(1.25,0,0,-1.25,537.70314,654.32616)"
         id="g50335">
        <path
           inkscape:connector-curvature="0"
           id="path50337"
           style="fill:#9ba1a6;fill-opacity:1;fill-rule:nonzero;stroke:none"
           d="m 0,0 c -0.985,0 -1.82,0.714 -2.032,1.738 -10e-4,0.004 -0.003,0.009 -0.003,0.014 -0.015,0.071 -0.056,0.19 -0.096,0.275 -0.889,0.147 -1.605,0.898 -1.741,1.862 -0.086,0.613 0.071,1.231 0.425,1.707 l 0,4.631 c -0.615,0.524 -0.903,1.37 -0.724,2.215 0.214,1.019 1.05,1.731 2.031,1.731 l 2.916,0 c 0.988,0 1.849,-0.74 2.048,-1.76 C 2.99,11.565 2.697,10.73 2.083,10.22 l 0,-8.002 C 2.083,1.089 1.289,0.141 0.236,0.014 0.154,0.005 0.076,0 0,0" />
      </g>
      <g
         transform="matrix(1.25,0,0,-1.25,546.64001,653.14728)"
         id="g50339">
        <path
           inkscape:connector-curvature="0"
           id="path50341"
           style="fill:#9ba1a6;fill-opacity:1;fill-rule:nonzero;stroke:none"
           d="M 0,0 C -0.574,0 -1.124,0.253 -1.516,0.696 -1.678,0.846 -2.01,1.05 -2.154,1.074 -2.287,1.045 -2.425,1.031 -2.563,1.031 c -0.164,0 -0.326,0.02 -0.485,0.061 -0.12,-0.023 -0.241,-0.034 -0.363,-0.034 l -2.913,0 c -0.989,0 -1.851,0.742 -2.049,1.764 -0.165,0.848 0.129,1.681 0.742,2.19 l 0,0.075 c -0.252,0.313 -0.418,0.695 -0.477,1.104 -0.01,0.067 -0.03,0.145 -0.044,0.196 -0.365,0.641 -0.401,1.446 -0.09,2.124 0.064,0.143 0.144,0.277 0.235,0.401 -0.053,0.165 -0.089,0.337 -0.105,0.513 -0.573,0.596 -0.778,1.515 -0.508,2.327 0.293,0.884 1.082,1.478 1.963,1.478 l 6.072,0 c 0.988,0 1.85,-0.74 2.049,-1.76 C 1.63,10.622 1.336,9.787 0.723,9.277 l 0,-2.204 C 0.723,6.74 0.65,6.408 0.515,6.108 L 1.866,3.204 C 2.339,2.185 1.998,0.921 1.088,0.327 0.761,0.113 0.384,0 0,0" />
      </g>
      <g
         transform="matrix(1.25,0,0,-1.25,571.40551,653.14728)"
         id="g50343">
        <path
           inkscape:connector-curvature="0"
           id="path50345"
           style="fill:#9ba1a6;fill-opacity:1;fill-rule:nonzero;stroke:none"
           d="M 0,0 C -0.574,0 -1.124,0.253 -1.515,0.696 -1.678,0.846 -2.01,1.05 -2.154,1.074 -2.286,1.045 -2.425,1.031 -2.564,1.031 c -0.163,0 -0.325,0.02 -0.483,0.06 C -3.166,1.069 -3.288,1.058 -3.411,1.058 l -2.912,0 c -0.99,0 -1.852,0.741 -2.05,1.763 -0.164,0.849 0.13,1.682 0.742,2.191 l 0,0.075 c -0.251,0.313 -0.418,0.695 -0.477,1.104 -0.01,0.067 -0.03,0.145 -0.044,0.197 -0.365,0.64 -0.401,1.445 -0.09,2.123 0.065,0.143 0.144,0.277 0.235,0.401 -0.053,0.165 -0.089,0.337 -0.105,0.513 -0.574,0.601 -0.777,1.517 -0.508,2.327 0.293,0.884 1.082,1.478 1.963,1.478 l 6.072,0 c 0.989,0 1.85,-0.74 2.049,-1.76 C 1.63,10.622 1.336,9.787 0.723,9.277 l 0,-2.204 C 0.723,6.74 0.651,6.408 0.516,6.108 L 1.865,3.204 C 2.34,2.185 1.998,0.921 1.088,0.327 0.761,0.113 0.385,0 0,0" />
      </g>
      <g
         transform="matrix(1.25,0,0,-1.25,574.53739,652.79191)"
         id="g50347">
        <path
           inkscape:connector-curvature="0"
           id="path50349"
           style="fill:#9ba1a6;fill-opacity:1;fill-rule:nonzero;stroke:none"
           d="m 0,0 c -0.552,0 -1.071,0.227 -1.464,0.641 -0.042,0.04 -0.498,0.458 -1.33,0.773 -0.827,0.314 -1.383,1.154 -1.383,2.09 l 0,4.413 c -0.27,0.343 -0.438,0.769 -0.481,1.223 -0.572,0.597 -0.777,1.516 -0.508,2.328 0.293,0.884 1.082,1.478 1.963,1.478 l 4.431,0 c 0.512,0 1.004,-0.199 1.385,-0.561 l 0.864,-0.82 C 3.92,11.144 4.174,10.541 4.174,9.908 l 0,-6.404 C 4.174,2.568 3.619,1.728 2.791,1.414 1.977,1.106 1.522,0.698 1.46,0.639 1.072,0.227 0.554,0 0,0" />
      </g>
      <g
         transform="matrix(1.25,0,0,-1.25,583.02214,655.05453)"
         id="g50351">
        <path
           inkscape:connector-curvature="0"
           id="path50353"
           style="fill:#9ba1a6;fill-opacity:1;fill-rule:nonzero;stroke:none"
           d="m 0,0 c -0.639,0 -1.247,0.291 -1.669,0.799 -0.056,0.063 -0.883,0.969 -2.41,1.624 -0.846,0.362 -1.393,1.223 -1.393,2.193 l 0,3.949 c -0.378,0.33 -0.647,0.788 -0.757,1.306 -0.19,0.89 0.11,1.792 0.757,2.353 l 0,0.886 c -0.478,0.448 -0.761,1.108 -0.759,1.806 0.002,0.273 -0.016,0.354 -0.027,0.377 -0.022,0.048 -0.138,0.168 -0.26,0.296 -0.638,0.665 -0.841,1.666 -0.516,2.551 0.336,0.913 1.15,1.503 2.074,1.503 l 6.695,0 c 0.409,0.414 0.95,0.645 1.53,0.645 0.107,0 0.215,-0.008 0.32,-0.024 0.994,-0.153 1.771,-1 1.891,-2.059 0.159,-1.41 -0.15,-2.771 -0.465,-3.721 0.574,-0.291 1.022,-0.838 1.195,-1.511 0.231,-0.901 -0.068,-1.867 -0.734,-2.45 l 0,-5.907 C 5.472,3.646 4.925,2.785 4.08,2.423 2.561,1.772 1.735,0.873 1.671,0.801 1.249,0.292 0.641,0 0,0" />
      </g>
      <g
         transform="matrix(1.25,0,0,-1.25,556.08276,618.76528)"
         id="g50355">
        <path
           inkscape:connector-curvature="0"
           id="path50357"
           style="fill:#9ba1a6;fill-opacity:1;fill-rule:nonzero;stroke:none"
           d="m 0,0 c -0.109,0.208 -0.293,0.358 -0.507,0.414 l -0.972,0.255 c -0.119,0.038 -1.209,0.409 -2.193,1.326 -1.432,1.337 -2.004,3.11 -1.748,5.422 l 0.152,1.379 c 0.031,0.281 -0.066,0.56 -0.261,0.748 -0.148,0.143 -0.338,0.22 -0.533,0.22 -0.061,0 -0.123,-0.007 -0.183,-0.023 L -8.097,9.27 C -8.14,9.258 -13.13,7.921 -19.097,5.723 -20.207,5.313 -21.8,4.862 -23.34,4.426 -25.2,3.9 -26.435,3.537 -27.257,3.229 c -0.299,-0.012 -0.574,-0.017 -0.825,-0.017 -2.812,0 -3.611,0.616 -3.79,0.806 -0.139,0.148 -0.327,0.226 -0.518,0.226 -0.114,0 -0.229,-0.028 -0.334,-0.085 -0.284,-0.154 -0.437,-0.482 -0.378,-0.808 0.037,-0.202 0.945,-4.964 4.906,-5.583 1.095,-0.172 1.878,-0.361 2.381,-0.524 -0.576,-0.186 -1.626,-0.44 -3.528,-0.722 -0.694,-0.103 -1.041,-0.412 -1.033,-0.917 0.011,-0.763 0.857,-0.944 1.603,-1.104 0.445,-0.096 1,-0.19 1.556,-0.266 0.057,-0.132 0.134,-0.262 0.229,-0.389 0.404,-0.537 1.051,-0.912 1.805,-1.063 -0.108,-0.145 -0.157,-0.323 -0.148,-0.533 0.03,-0.659 0.614,-1.006 2.405,-1.43 1.25,-0.295 1.19,-0.875 1.742,-1.12 -1.646,-1.82 -8.63,-1.137 4.891,-1.122 0.284,-0.084 0.559,-0.167 0.813,-0.243 0.604,-0.182 0.935,-0.281 1.136,-0.334 l 1.596,-1.062 c -0.348,-0.811 -0.53,-1.353 -0.54,-1.382 -0.137,-0.409 0.029,-0.865 0.388,-1.064 0.116,-0.064 0.24,-0.095 0.364,-0.095 0.256,0 0.507,0.134 0.661,0.377 l 1.135,1.795 c 0.124,0.195 0.168,0.436 0.122,0.668 -0.017,0.089 -0.047,0.173 -0.088,0.25 0.313,0.628 0.644,1.218 0.986,1.76 1.479,2.339 3.121,3.681 4.505,3.681 0.322,0 0.656,-0.066 1.02,-0.199 l 1.531,-0.562 c 0.083,-0.03 0.17,-0.046 0.257,-0.046 0.129,0 0.258,0.034 0.374,0.101 0.194,0.111 0.338,0.304 0.397,0.533 l 1.498,5.845 0.206,0.715 C 0.134,-0.455 0.109,-0.208 0,0" />
      </g>
      <g
         transform="matrix(1.25,0,0,-1.25,553.32739,661.98278)"
         id="g50359">
        <path
           inkscape:connector-curvature="0"
           id="path50361"
           style="fill:#9ba1a6;fill-opacity:1;fill-rule:nonzero;stroke:none"
           d="m 0,0 c -0.094,0 -0.189,0.007 -0.282,0.021 -0.417,0.064 -0.804,0.269 -1.091,0.577 -0.09,0.097 -0.903,0.979 -1.675,1.96 -0.498,0.635 -0.883,1.19 -1.143,1.651 -0.11,0.195 -0.339,0.602 -0.456,1.105 -0.153,0.659 -0.058,1.278 0.277,1.787 0.016,0.024 0.071,0.114 0.12,0.194 1.006,1.643 1.311,1.995 1.813,2.095 0.06,0.012 0.125,0.018 0.187,0.018 0.615,0 0.855,-0.441 1.22,-1.107 C -0.98,8.207 -0.901,8.064 -0.847,7.97 -0.735,7.869 -0.648,7.743 -0.594,7.6 -0.549,7.48 -0.515,7.321 -0.54,7.136 -0.286,6.932 0.05,6.668 0.293,6.559 0.456,6.605 0.625,6.627 0.795,6.627 0.89,6.627 0.985,6.62 1.078,6.606 1.576,6.53 2.015,6.263 2.307,5.862 2.951,5.797 3.543,5.764 4.07,5.764 4.968,5.764 5.508,5.86 5.805,5.942 5.706,6.14 5.526,6.438 5.198,6.852 4.807,7.042 4.677,7.343 4.637,7.564 4.545,8.07 4.853,8.38 5.057,8.586 5.079,8.608 5.09,8.62 5.095,8.625 5.343,8.901 5.642,8.943 5.799,8.943 6.031,8.943 6.25,8.858 6.419,8.709 7.151,8.617 7.65,8.549 7.988,8.495 c 0.142,0.07 0.303,0.108 0.467,0.108 0.421,0 0.803,-0.23 1.281,-0.602 0.22,-0.17 0.401,-0.39 0.525,-0.636 C 10.314,7.259 11.547,4.754 10.081,2.742 9.433,1.853 8.418,1.276 7.065,1.029 6.556,0.936 5.984,0.89 5.364,0.89 4.6,0.89 3.743,0.961 2.818,1.102 2.487,1.153 2.139,1.213 1.779,1.283 1.605,0.753 1.2,0.321 0.657,0.119 0.447,0.04 0.226,0 0,0" />
      </g>
      <g
         transform="matrix(1.25,0,0,-1.25,556.91751,664.11078)"
         id="g50363">
        <path
           inkscape:connector-curvature="0"
           id="path50365"
           style="fill:#9ba1a6;fill-opacity:1;fill-rule:nonzero;stroke:none"
           d="m 0,0 c -0.544,0 -1.087,0.21 -1.529,0.592 -0.123,0.108 -0.575,0.501 -0.575,0.501 -3.081,2.678 -5.768,5.826 -7.987,9.358 -1.885,2.997 -3.454,6.298 -4.664,9.812 -1.031,2.992 -1.619,5.637 -1.93,7.329 -0.28,1.51 0.264,3.032 1.324,3.699 2.026,1.275 4.314,2.26 6.801,2.926 2.438,0.655 5.012,0.988 7.648,0.988 0.127,0 0.254,-10e-4 0.38,-0.003 2.895,-0.034 5.724,-0.467 8.406,-1.287 2.566,-0.784 4.911,-1.901 6.972,-3.319 l 0.042,-0.026 0.03,-0.023 c 0.89,-0.614 1.388,-1.807 1.302,-3.126 -0.009,-0.137 -0.026,-0.286 -0.048,-0.439 l -0.005,-0.03 C 15.697,24.107 14.903,21.259 13.808,18.486 12.536,15.269 10.843,12.098 8.775,9.061 5.486,4.231 2.242,1.252 2.105,1.127 L 1.551,0.622 C 1.108,0.22 0.557,0 0,0" />
      </g>
      <g
         transform="matrix(1.25,0,0,-1.25,531.76401,654.71716)"
         id="g50367">
        <path
           inkscape:connector-curvature="0"
           id="path50369"
           style="fill:#0c1d3c;fill-opacity:1;fill-rule:nonzero;stroke:none"
           d="m 0,0 c -0.687,0 -1.272,0.493 -1.423,1.199 0,10e-4 -10e-4,0.005 -10e-4,0.005 -0.017,0.08 -0.432,1.968 -1.704,2.033 -0.688,0.034 -1.265,0.58 -1.371,1.297 -0.095,0.638 0.206,1.271 0.737,1.58 10e-4,0.003 10e-4,3.256 10e-4,3.256 -0.43,0.209 -0.747,0.633 -0.824,1.156 -0.057,0.381 -0.198,0.851 -0.274,0.968 -0.32,0.469 -0.364,1.08 -0.113,1.595 0.196,0.403 0.542,0.686 0.947,0.791 -0.348,0.288 -0.564,0.737 -0.561,1.215 0.002,0.546 -0.057,0.598 -0.519,1.006 -0.467,0.413 -0.642,1.096 -0.433,1.7 0.209,0.604 0.76,1.009 1.371,1.009 l 7.601,0 c 0.105,0 0.175,0.011 0.218,0.021 0.274,0.358 0.692,0.574 1.137,0.574 0.075,0 0.152,-0.007 0.227,-0.019 C 5.654,19.281 6.144,18.757 6.234,18.083 6.548,15.72 5.185,13.348 4.42,12.424 4.401,12.401 4.382,12.378 4.363,12.356 4.355,11.963 4.204,11.583 3.927,11.296 3.471,10.824 3.301,10.385 3.276,10.315 3.099,9.663 2.542,9.228 1.881,9.228 l -0.422,0 0,-7.693 C 1.459,0.751 0.901,0.095 0.161,0.009 0.107,0.003 0.053,0 0,0" />
      </g>
      <g
         transform="matrix(1.25,0,0,-1.25,537.70314,653.46391)"
         id="g50371">
        <path
           inkscape:connector-curvature="0"
           id="path50373"
           style="fill:#0c1d3c;fill-opacity:1;fill-rule:nonzero;stroke:none"
           d="m 0,0 c -0.656,0 -1.215,0.491 -1.358,1.194 -10e-4,0.002 -10e-4,0.003 -10e-4,0.005 -0.033,0.165 -0.22,0.788 -0.521,0.804 -0.657,0.034 -1.208,0.578 -1.309,1.292 -0.073,0.516 0.096,1.02 0.432,1.359 l 0,5.23 c -0.008,0.009 -0.019,0.02 -0.028,0.027 -0.566,0.327 -0.855,1.018 -0.711,1.699 0.146,0.697 0.704,1.184 1.356,1.184 l 2.916,0 c 0.658,0 1.235,-0.506 1.371,-1.203 C 2.282,10.901 1.982,10.216 1.416,9.907 1.409,9.901 1.4,9.893 1.393,9.885 l 0,-8.356 C 1.393,0.748 0.86,0.095 0.153,0.009 0.103,0.003 0.051,0 0,0" />
      </g>
      <g
         transform="matrix(1.25,0,0,-1.25,546.64001,652.28453)"
         id="g50375">
        <path
           inkscape:connector-curvature="0"
           id="path50377"
           style="fill:#0c1d3c;fill-opacity:1;fill-rule:nonzero;stroke:none"
           d="m 0,0 c -0.386,0 -0.754,0.175 -1.017,0.483 -0.155,0.151 -0.726,0.592 -1.155,0.592 -0.034,0 -0.067,-0.003 -0.095,-0.01 C -2.364,1.042 -2.464,1.03 -2.563,1.03 c -0.158,0 -0.315,0.03 -0.462,0.087 -0.124,-0.039 -0.254,-0.06 -0.386,-0.06 l -2.913,0 c -0.66,0 -1.236,0.507 -1.372,1.206 -0.134,0.691 0.167,1.376 0.735,1.683 0.006,0.005 0.014,0.012 0.02,0.019 l 0,0.702 C -7.195,4.9 -7.372,5.23 -7.426,5.6 c -0.022,0.147 -0.069,0.314 -0.093,0.382 -0.289,0.46 -0.326,1.049 -0.096,1.552 0.102,0.223 0.248,0.41 0.424,0.55 -0.155,0.256 -0.244,0.565 -0.242,0.892 0,0.027 -0.001,0.048 -0.001,0.065 -0.033,0.031 -0.078,0.073 -0.118,0.11 -0.447,0.411 -0.613,1.092 -0.413,1.694 0.199,0.601 0.725,1.005 1.308,1.005 l 6.072,0 c 0.659,0 1.236,-0.506 1.372,-1.202 C 0.922,9.958 0.622,9.272 0.056,8.964 0.048,8.958 0.04,8.949 0.033,8.942 l 0,-2.559 C 0.033,6.038 -0.073,5.71 -0.259,5.447 L 1.24,2.223 C 1.573,1.507 1.34,0.625 0.711,0.214 0.496,0.074 0.25,0 0,0" />
      </g>
      <g
         transform="matrix(1.25,0,0,-1.25,549.76801,651.92953)"
         id="g50379">
        <path
           inkscape:connector-curvature="0"
           id="path50381"
           style="fill:#0c1d3c;fill-opacity:1;fill-rule:nonzero;stroke:none"
           d="M 0,0 C -0.365,0 -0.71,0.154 -0.972,0.434 -0.996,0.458 -1.529,0.983 -2.549,1.369 -3.11,1.582 -3.487,2.163 -3.487,2.814 l 0,2.021 c -0.256,0.234 -0.433,0.566 -0.485,0.939 -0.02,0.137 -0.067,0.316 -0.094,0.388 -0.284,0.462 -0.317,1.052 -0.084,1.55 0.071,0.152 0.162,0.286 0.269,0.401 -0.063,0.18 -0.096,0.375 -0.095,0.579 0,0.027 0,0.048 -10e-4,0.065 -0.032,0.031 -0.078,0.073 -0.118,0.11 -0.447,0.411 -0.613,1.092 -0.413,1.694 0.199,0.601 0.725,1.005 1.308,1.005 l 4.398,0 c 0.249,0.235 0.57,0.368 0.906,0.368 0.072,0 0.145,-0.006 0.216,-0.019 C 2.93,11.81 3.398,11.288 3.483,10.617 3.581,9.851 3.435,8.941 3.089,8.078 3.335,7.801 3.484,7.423 3.484,7.009 l 0,-4.195 C 3.484,2.163 3.107,1.582 2.546,1.369 1.543,0.99 1.011,0.476 0.968,0.433 0.707,0.154 0.364,0 0,0" />
      </g>
      <g
         transform="matrix(1.25,0,0,-1.25,556.80114,651.92953)"
         id="g50383">
        <path
           inkscape:connector-curvature="0"
           id="path50385"
           style="fill:#0c1d3c;fill-opacity:1;fill-rule:nonzero;stroke:none"
           d="m 0,0 c -0.365,0 -0.71,0.154 -0.972,0.434 -0.026,0.026 -0.559,0.55 -1.577,0.935 -0.562,0.213 -0.938,0.794 -0.938,1.445 l 0,2.015 c -0.254,0.233 -0.431,0.563 -0.485,0.933 -0.022,0.148 -0.068,0.314 -0.093,0.382 -0.289,0.46 -0.326,1.05 -0.096,1.552 0.072,0.158 0.166,0.297 0.277,0.415 -0.062,0.181 -0.097,0.377 -0.095,0.581 0,0.027 -10e-4,0.048 -0.002,0.065 -0.032,0.031 -0.078,0.073 -0.117,0.11 -0.447,0.412 -0.613,1.092 -0.414,1.694 0.2,0.601 0.726,1.005 1.309,1.005 l 5.294,0 c 0.768,0 1.393,-0.685 1.393,-1.528 l 0,-3.168 C 3.484,6.746 3.469,6.622 3.442,6.501 3.469,6.381 3.484,6.257 3.484,6.132 l 0,-3.318 C 3.484,2.163 3.106,1.582 2.546,1.369 1.541,0.989 1.009,0.474 0.968,0.433 0.708,0.154 0.364,0 0,0" />
      </g>
      <g
         transform="matrix(1.25,0,0,-1.25,562.46901,653.46391)"
         id="g50387">
        <path
           inkscape:connector-curvature="0"
           id="path50389"
           style="fill:#0c1d3c;fill-opacity:1;fill-rule:nonzero;stroke:none"
           d="m 0,0 c -0.656,0 -1.214,0.491 -1.358,1.194 0,0.002 -10e-4,0.003 -10e-4,0.005 -0.034,0.165 -0.22,0.788 -0.52,0.804 -0.658,0.034 -1.209,0.578 -1.31,1.292 -0.072,0.515 0.096,1.02 0.432,1.359 l 0,5.23 c -0.008,0.009 -0.019,0.02 -0.028,0.027 -0.565,0.327 -0.855,1.018 -0.711,1.699 0.147,0.697 0.704,1.184 1.356,1.184 l 2.916,0 c 0.658,0 1.235,-0.506 1.371,-1.203 C 2.282,10.901 1.983,10.216 1.416,9.907 1.409,9.901 1.4,9.893 1.393,9.885 l 0,-8.356 C 1.393,0.748 0.86,0.095 0.154,0.009 0.103,0.003 0.051,0 0,0" />
      </g>
      <g
         transform="matrix(1.25,0,0,-1.25,571.40551,652.28453)"
         id="g50391">
        <path
           inkscape:connector-curvature="0"
           id="path50393"
           style="fill:#0c1d3c;fill-opacity:1;fill-rule:nonzero;stroke:none"
           d="m 0,0 c -0.386,0 -0.754,0.175 -1.017,0.483 -0.155,0.151 -0.725,0.592 -1.155,0.592 -0.034,0 -0.067,-0.003 -0.095,-0.01 C -2.364,1.042 -2.464,1.03 -2.564,1.03 c -0.156,0 -0.313,0.03 -0.459,0.087 -0.125,-0.04 -0.256,-0.06 -0.388,-0.06 l -2.912,0 c -0.66,0 -1.237,0.507 -1.373,1.206 -0.134,0.691 0.167,1.376 0.736,1.683 0.005,0.005 0.013,0.012 0.019,0.019 l 0,0.702 C -7.195,4.9 -7.372,5.23 -7.426,5.6 c -0.022,0.147 -0.068,0.314 -0.093,0.382 -0.288,0.46 -0.326,1.049 -0.096,1.552 0.102,0.223 0.249,0.41 0.425,0.55 -0.156,0.256 -0.245,0.565 -0.244,0.892 0,0.027 0,0.048 0,0.065 -0.032,0.031 -0.078,0.073 -0.118,0.11 -0.447,0.411 -0.613,1.092 -0.413,1.694 0.199,0.601 0.725,1.005 1.308,1.005 l 6.072,0 c 0.659,0 1.236,-0.505 1.372,-1.202 C 0.922,9.958 0.622,9.272 0.056,8.964 0.048,8.958 0.04,8.949 0.033,8.942 l 0,-2.559 C 0.033,6.038 -0.073,5.71 -0.259,5.447 L 1.24,2.223 C 1.573,1.507 1.34,0.625 0.711,0.214 0.496,0.074 0.25,0 0,0" />
      </g>
      <g
         transform="matrix(1.25,0,0,-1.25,574.53739,651.92953)"
         id="g50395">
        <path
           inkscape:connector-curvature="0"
           id="path50397"
           style="fill:#0c1d3c;fill-opacity:1;fill-rule:nonzero;stroke:none"
           d="m 0,0 c -0.365,0 -0.709,0.154 -0.972,0.434 -0.026,0.027 -0.56,0.55 -1.577,0.935 -0.561,0.213 -0.938,0.794 -0.938,1.445 l 0,4.678 c -0.307,0.288 -0.494,0.725 -0.492,1.2 0,0.027 -10e-4,0.048 -10e-4,0.065 -0.032,0.031 -0.078,0.073 -0.118,0.11 -0.446,0.411 -0.612,1.092 -0.413,1.694 0.199,0.601 0.725,1.005 1.308,1.005 l 4.431,0 c 0.334,0 0.658,-0.132 0.911,-0.372 l 0.864,-0.82 C 3.308,10.084 3.484,9.663 3.484,9.218 l 0,-6.404 C 3.484,2.163 3.107,1.582 2.546,1.369 1.544,0.99 1.012,0.477 0.968,0.434 0.713,0.156 0.367,0 0,0" />
      </g>
      <g
         transform="matrix(1.25,0,0,-1.25,583.02214,654.19216)"
         id="g50399">
        <path
           inkscape:connector-curvature="0"
           id="path50401"
           style="fill:#0c1d3c;fill-opacity:1;fill-rule:nonzero;stroke:none"
           d="M 0,0 C -0.436,0 -0.853,0.203 -1.144,0.557 -1.175,0.593 -2.076,1.624 -3.808,2.367 -4.4,2.62 -4.782,3.232 -4.782,3.926 l 0,4.3 c -0.381,0.22 -0.669,0.613 -0.773,1.099 -0.155,0.728 0.152,1.481 0.748,1.843 0.008,0.006 0.017,0.013 0.025,0.02 l 0,1.566 c -0.466,0.297 -0.761,0.852 -0.758,1.469 0.002,0.652 -0.081,0.738 -0.481,1.154 -0.456,0.476 -0.599,1.196 -0.365,1.835 0.235,0.639 0.795,1.052 1.426,1.052 l 6.979,0 c 0.013,0 0.025,0 0.035,0.001 0.287,0.403 0.73,0.643 1.211,0.643 0.072,0 0.144,-0.005 0.215,-0.016 0.687,-0.105 1.226,-0.704 1.311,-1.455 0.16,-1.424 -0.196,-2.915 -0.686,-4.103 0.667,-0.022 1.252,-0.518 1.433,-1.223 0.185,-0.72 -0.095,-1.494 -0.682,-1.883 0,0 -0.023,-0.015 -0.024,-0.016 -0.015,-0.009 -0.033,-0.023 -0.05,-0.038 l 0,-6.248 C 4.782,3.232 4.4,2.62 3.808,2.367 2.098,1.634 1.196,0.617 1.146,0.559 0.855,0.204 0.438,0 0,0" />
      </g>
      <g
         transform="matrix(1.25,0,0,-1.25,553.15101,660.80216)"
         id="g50403">
        <path
           inkscape:connector-curvature="0"
           id="path50405"
           style="fill:#0c1d3c;fill-opacity:1;fill-rule:nonzero;stroke:none"
           d="m 0,0 c -0.208,0.032 -0.402,0.134 -0.545,0.288 -0.034,0.037 -0.853,0.92 -1.624,1.902 -0.47,0.597 -0.828,1.113 -1.065,1.532 -0.186,0.331 -0.681,1.208 -0.212,1.923 0.137,0.209 1.089,1.836 1.334,1.885 0.107,0.021 0.65,-1.171 0.758,-1.188 C -1.217,6.321 -1.67,5.982 -1.556,5.904 -1.016,5.539 -0.26,4.751 0.428,4.646 0.453,4.643 0.473,4.64 0.489,4.639 L 0.562,4.671 C 0.724,4.742 0.903,4.765 1.078,4.738 1.361,4.695 1.604,4.529 1.747,4.283 1.791,4.208 1.823,4.128 1.843,4.045 5.411,3.615 6.751,4.155 6.96,4.515 7.092,4.743 6.936,5.403 6.055,6.51 5.76,6.88 5.529,6.648 5.863,6.983 6.073,7.194 5.755,6.933 6.049,6.888 6.208,6.864 8.351,6.616 8.477,6.517 8.567,6.448 8.244,7.141 9.304,6.319 9.413,6.235 9.503,6.124 9.565,6.001 9.608,5.916 10.599,3.904 9.465,2.347 8.963,1.658 8.146,1.206 7.038,1.004 6.001,0.815 4.676,0.84 3.1,1.081 2.48,1.175 1.808,1.304 1.095,1.466 L 1.077,0.894 C 1.065,0.514 0.827,0.182 0.47,0.048 0.321,-0.007 0.158,-0.024 0,0" />
      </g>
      <g
         transform="matrix(1.25,0,0,-1.25,554.53101,635.72753)"
         id="g50407">
        <path
           inkscape:connector-curvature="0"
           id="path50409"
           style="fill:#0c1d3c;fill-opacity:1;fill-rule:nonzero;stroke:none"
           d="M 0,0 C -0.007,0 -0.014,0 -0.021,0.001 -0.616,0.031 -1.217,0.539 -1.797,1.029 -2.215,1.381 -2.688,1.782 -2.991,1.83 -3.049,1.839 -3.103,1.86 -3.152,1.892 -3.167,1.891 -3.183,1.89 -3.2,1.889 -3.263,1.885 -3.336,1.88 -3.406,1.88 c -0.143,0 -0.328,0.018 -0.477,0.156 -0.718,0.669 -0.924,1.872 -0.565,3.303 0.601,2.399 2.73,5.13 5.636,5.705 0.806,0.16 1.606,0.244 2.312,0.244 0.537,0 1.022,-0.047 1.452,-0.138 0.072,0.167 0.227,0.274 0.399,0.274 l 0.003,0 C 5.88,11.421 6.717,10.884 7.312,10.353 7.816,9.904 8.71,8.964 9.036,7.715 9.043,7.689 9.048,7.663 9.051,7.637 9.194,6.196 8.992,5.331 8.376,4.744 7.814,4.209 6.996,4.004 5.865,3.721 5.512,3.632 5.113,3.532 4.691,3.414 4.654,3.403 4.616,3.398 4.58,3.398 4.424,3.398 4.275,3.488 4.196,3.64 4.098,3.829 4.128,4.064 4.271,4.216 4.677,4.646 4.987,5.126 5.192,5.642 5.393,6.147 5.399,6.538 5.211,6.838 5.022,7.137 4.668,7.327 4.286,7.435 4.28,7.386 4.267,7.334 4.243,7.28 4.168,7.116 4.014,7.012 3.846,7.012 3.809,7.012 3.771,7.018 3.735,7.028 3.292,7.152 2.856,7.216 2.437,7.216 0.652,7.216 -0.368,6.133 -0.698,5.206 -1.015,4.315 -0.806,3.42 -0.122,2.752 0.388,2.253 0.352,1.7 0.325,1.296 0.308,1.026 0.302,0.866 0.383,0.713 0.463,0.562 0.46,0.376 0.376,0.228 0.296,0.086 0.153,0 0,0" />
      </g>
      <g
         transform="matrix(1.25,0,0,-1.25,557.51014,632.06691)"
         id="g50411">
        <path
           inkscape:connector-curvature="0"
           id="path50413"
           style="fill:#0c1d3c;fill-opacity:1;fill-rule:nonzero;stroke:none"
           d="m 0,0 c -1.297,0 -1.605,0.897 -1.677,1.282 -0.146,0.781 0.095,1.629 0.663,2.326 0.527,0.647 1.299,1.123 2.173,1.34 0.926,0.228 1.727,0.344 2.381,0.344 1.536,0 2.103,-0.687 2.309,-1.263 C 6.286,2.806 6.005,1.962 5.693,1.469 5.15,0.613 4.041,0.123 2.65,0.123 2.405,0.123 2.153,0.138 1.902,0.167 1.86,0.172 1.811,0.175 1.756,0.175 1.532,0.175 1.245,0.134 0.967,0.093 0.646,0.047 0.315,0 0,0" />
      </g>
      <g
         transform="matrix(1.25,0,0,-1.25,557.51014,631.47141)"
         id="g50415">
        <path
           inkscape:connector-curvature="0"
           id="path50417"
           style="fill:#0c1d3c;fill-opacity:1;fill-rule:nonzero;stroke:none"
           d="m 0,0 c -0.889,0 -1.167,0.49 -1.244,0.9 -0.119,0.634 0.086,1.332 0.561,1.917 0.467,0.573 1.155,0.995 1.94,1.189 0.894,0.221 1.662,0.333 2.283,0.333 1.032,0 1.67,-0.322 1.898,-0.958 C 5.806,2.351 5.581,1.661 5.329,1.263 4.87,0.538 3.893,0.123 2.65,0.123 2.421,0.123 2.186,0.137 1.951,0.165 1.893,0.172 1.827,0.175 1.756,0.175 1.502,0.175 1.201,0.132 0.908,0.09 0.602,0.046 0.286,0 0,0" />
      </g>
      <g
         transform="matrix(1.25,0,0,-1.25,581.13776,612.65266)"
         id="g50419">
        <path
           inkscape:connector-curvature="0"
           id="path50421"
           style="fill:#0c1d3c;fill-opacity:1;fill-rule:nonzero;stroke:none"
           d="m 0,0 c -6.035,2.224 -13.301,4.159 -13.301,4.159 0,0 2.011,-5.064 -1.944,-7.869 -0.975,-0.691 -1.856,-1.188 -2.305,-1.421 -1.118,0.122 -2.561,-0.068 -3.423,-0.269 -0.063,-0.014 -0.125,-0.031 -0.187,-0.047 -0.75,0.261 -1.95,0.808 -3.079,1.898 -3.335,3.222 -1.867,7.558 -1.867,7.558 0,0 -24.165,-7.365 -24.114,-7.624 0.662,-3.305 7.046,-3.746 5.971,-3.746 0.85,-1.149 -0.309,-8.282 9.363,-8.812 0,0 0.266,-0.102 0.675,-0.19 0.313,-1.252 0.718,-2.67 1.237,-4.176 1.203,-3.488 2.751,-6.727 4.59,-9.651 2.209,-3.511 4.86,-6.597 7.872,-9.212 0,0 0.587,-0.511 0.587,-0.511 0.425,-0.368 1.004,-0.367 1.413,0.004 l 0.568,0.517 c 0.132,0.121 3.307,3.027 6.583,7.834 2.024,2.97 3.702,6.093 4.964,9.284 0.75,1.897 1.355,3.838 1.809,5.795 l 0.679,0.452 c 2.139,-0.399 4.941,1.036 5.457,2.073 -1.432,0.179 -2.467,0.69 -3.281,0.882 1.237,-0.122 4.185,-0.146 5.051,2.228 -2.802,0.478 -5.777,1.069 -4.572,0.957 4.278,-0.399 5.236,1.196 6.121,2.392 -1.119,0 -5.497,0.551 -4.13,0.638 2.508,0.159 8.065,1.127 8.851,3.508 C 9.711,-2.974 3.245,-1.196 0,0" />
      </g>
      <g
         transform="matrix(1.25,0,0,-1.25,568.50501,620.62341)"
         id="g50423">
        <path
           inkscape:connector-curvature="0"
           id="path50425"
           style="fill:#ffffff;fill-opacity:1;fill-rule:nonzero;stroke:none"
           d="m 0,0 -0.009,-0.003 c 0,0 -0.001,0.001 -0.001,0.001 C -0.007,-0.001 -0.004,0 0,0" />
      </g>
      <g
         transform="matrix(1.25,0,0,-1.25,568.05539,625.95053)"
         id="g50427">
        <path
           inkscape:connector-curvature="0"
           id="path50429"
           style="fill:#f8f8f8;fill-opacity:1;fill-rule:nonzero;stroke:none"
           d="m 0,0 c -0.272,-0.133 -0.508,-0.23 -0.716,-0.302 -0.247,4.098 -4.622,4.648 -4.622,4.648 3.593,-1.745 3.335,-4.742 3.335,-4.742 0,0 0.532,-1.76 -1.761,-2.205 -0.034,-0.239 0.445,-0.376 1.061,-0.684 C -2.874,-3.764 -2.822,-4.392 -4.704,-5.624 -3.974,-5.966 0.628,-4.221 0,0" />
      </g>
      <g
         transform="matrix(1.25,0,0,-1.25,557.58239,651.35778)"
         id="g50431">
        <path
           inkscape:connector-curvature="0"
           id="path50433"
           style="fill:#fc5d00;fill-opacity:1;fill-rule:nonzero;stroke:none"
           d="M 0,0 C -1.768,0.38 -3.287,0.334 -3.393,-0.102 -3.396,-0.116 -3.398,-0.13 -3.398,-0.145 l -0.023,-0.014 c 0,0 -0.168,-0.858 -0.208,-1.117 -0.039,-0.259 0.346,-0.541 0.346,-0.541 l 0.253,1.208 c 0.505,-0.349 1.486,-0.72 2.647,-0.97 1.121,-0.24 2.14,-0.31 2.764,-0.218 -0.086,-0.282 -0.356,-1.18 -0.398,-1.463 0.187,-0.366 0.655,0.264 0.655,0.264 l 0.341,1.452 C 2.993,-1.523 3.004,-1.501 3.01,-1.477 3.116,-1.041 1.768,-0.38 0,0" />
      </g>
      <g
         transform="matrix(1.25,0,0,-1.25,565.84551,625.77966)"
         id="g50435">
        <path
           inkscape:connector-curvature="0"
           id="path50437"
           style="fill:#9ba1a6;fill-opacity:1;fill-rule:nonzero;stroke:none"
           d="m 0,0 c -0.16,2.943 -3.136,4.166 -3.661,4.222 0.741,-0.629 0.802,-1.203 0.802,-1.203 -1.126,0.696 -2.936,1.293 -4.852,0.814 -3.934,-0.984 -6.397,-5.987 -5.548,-8.229 0.72,0.477 1.514,0.314 1.519,0.319 0.453,0.423 0.858,0.573 1.414,0.787 -0.164,2.118 2.064,4.335 5.302,3.425 C -5.007,0.129 -5.426,0.694 -5.409,0.693 -4.775,0.685 -3.998,0.507 -3.503,0.055 -3.582,0.037 -3.662,0.02 -3.741,0 c -0.718,-0.178 -1.367,-0.598 -1.831,-1.106 0.396,-0.105 0.667,-0.263 0.667,-0.263 -1.181,-0.878 2.557,-2.072 2.569,-2.071 -0.11,-0.156 -0.297,-0.248 -0.487,-0.334 0.144,-0.464 0.247,-1.39 -0.14,-2.002 0.514,0.125 1.022,0.342 1.437,0.674 0.913,0.728 1.482,1.897 1.207,3.459 C 0.069,-1.3 0.059,-0.587 0,0" />
      </g>
      <g
         transform="matrix(1.25,0,0,-1.25,560.55739,629.83891)"
         id="g50439">
        <path
           inkscape:connector-curvature="0"
           id="path50441"
           style="fill:#f8f8f8;fill-opacity:1;fill-rule:nonzero;stroke:none"
           d="m 0,0 c 0,0 0.001,-0.004 0.001,-0.009 -0.8,0.293 -2.255,1.099 -1.359,1.639 0,0 -1.79,0.973 -2.851,-0.78 -0.168,-0.202 -0.269,-0.774 0.113,-1.093 0.513,0.785 1.471,0.339 1.471,0.339 0.91,-0.276 1.728,-1.031 2.671,-0.6 0.039,-1.391 -0.423,-2.233 -1.154,-2.682 0,0 1.221,-0.215 1.803,0.748 0.479,0.999 0.102,2.07 0.102,2.07 L 0,0 Z" />
      </g>
      <g
         transform="matrix(1.25,0,0,-1.25,570.35201,616.87129)"
         id="g50443">
        <path
           inkscape:connector-curvature="0"
           id="path50445"
           style="fill:#9ba1a6;fill-opacity:1;fill-rule:nonzero;stroke:none"
           d="m 0,0 c 0,0 4.646,-0.946 5.973,-2.526 0,0 -1.622,-1.138 -4.867,-0.809 l 1.991,1.048 C 3.097,-2.287 2.56,-1.232 0,0" />
      </g>
      <g
         transform="matrix(1.25,0,0,-1.25,570.44401,620.75828)"
         id="g50447">
        <path
           inkscape:connector-curvature="0"
           id="path50449"
           style="fill:#9ba1a6;fill-opacity:1;fill-rule:nonzero;stroke:none"
           d="m 0,0 c 1.045,-0.127 4.269,-0.275 5.826,-2.127 0,0 -1.285,-1.479 -4.53,-1.15 l 2.317,1.15 c 0,0 -2.506,1.974 -3.613,2.127" />
      </g>
      <g
         transform="matrix(1.25,0,0,-1.25,570.23376,623.59866)"
         id="g50451">
        <path
           inkscape:connector-curvature="0"
           id="path50453"
           style="fill:#9ba1a6;fill-opacity:1;fill-rule:nonzero;stroke:none"
           d="m 0,0 c 0,0 4.063,-1.819 4.969,-3.715 0,0 -1.638,-1.038 -3.811,0.184 l 2.115,0.294 c 0,0 -2.24,2.781 -3.273,3.237" />
      </g>
      <g
         transform="matrix(1.25,0,0,-1.25,570.09239,626.51953)"
         id="g50455">
        <path
           inkscape:connector-curvature="0"
           id="path50457"
           style="fill:#9ba1a6;fill-opacity:1;fill-rule:nonzero;stroke:none"
           d="m 0,0 c 0,0 3.478,-2.105 4.028,-3.94 0,0 -1.675,-0.904 -4.3,0.856 L 2.23,-3.476 c 0,0 -1.35,2.844 -2.23,3.476" />
      </g>
      <g
         transform="matrix(1.25,0,0,-1.25,566.67476,609.52341)"
         id="g50459">
        <path
           inkscape:connector-curvature="0"
           id="path50461"
           style="fill:#9ba1a6;fill-opacity:1;fill-rule:nonzero;stroke:none"
           d="m 0,0 -0.146,0.159 c 0,0 0.005,-0.04 0.013,-0.112 -0.014,0.006 -0.028,0.01 -0.043,0.016 l 0.057,-0.159 c 0.105,-1.24 0.404,-6.501 -4.558,-7.835 0,0 2.049,-0.066 2.71,-0.859 3.547,2.975 3.119,5.912 2.859,7.298 2.007,-0.714 8.662,-3.062 12.474,-4.141 0,0 -0.51,-0.211 -3.641,-1.257 0,0 6.704,-0.882 8.195,1.236 0,0 -12.73,4.001 -17.92,5.654" />
      </g>
      <g
         transform="matrix(1.25,0,0,-1.25,528.88514,641.26453)"
         id="g50463">
        <path
           inkscape:connector-curvature="0"
           id="path50465"
           style="fill:#f8f8f8;fill-opacity:1;fill-rule:nonzero;stroke:none"
           d="m 0,0 -0.841,0 c 0,0 -0.16,1.087 -0.53,1.627 L 0,1.627 0,4.814 C -0.53,4.663 -0.825,4.326 -0.825,4.326 -0.819,5.588 -1.317,6.032 -1.864,6.514 l 7.601,0 c 1.082,0 1.355,0.594 1.355,0.594 C 7.381,4.93 5.549,2.046 4.773,2.046 l 0,2.841 -3.498,0 1.029,-0.205 0,-3.055 2.903,0 C 4.398,0.789 4.184,0 4.184,0 l -1.88,0 0,-9.227 C 2.271,-9.076 1.661,-6.115 -0.755,-5.992 -0.717,-5.978 0,-5.603 0,-4.638 L 0,0 Z" />
      </g>
      <g
         transform="matrix(1.25,0,0,-1.25,529.40001,647.06191)"
         id="g50467">
        <path
           inkscape:connector-curvature="0"
           id="path50469"
           style="fill:#9ba1a6;fill-opacity:1;fill-rule:nonzero;stroke:none"
           d="M 0,0 C 0,-0.452 -0.125,-0.809 -0.292,-1.083 0.513,-1.357 1.083,-1.935 1.48,-2.541 l 0,4.673 C 0.986,2.127 0.493,2.121 0,2.115 L 0,0 Z" />
      </g>
      <g
         transform="matrix(1.25,0,0,-1.25,535.99701,641.07353)"
         id="g50471">
        <path
           inkscape:connector-curvature="0"
           id="path50473"
           style="fill:#f8f8f8;fill-opacity:1;fill-rule:nonzero;stroke:none"
           d="m 0,0 c 0,0.937 -0.775,1.353 -0.775,1.353 l 2.915,0 C 2.14,1.353 1.366,0.937 1.366,0 l 0,-8.384 C 1.347,-8.29 0.984,-6.458 -0.448,-6.383 -0.425,-6.374 0,-6.142 0,-5.545 L 0,0 Z" />
      </g>
      <g
         transform="matrix(1.25,0,0,-1.25,536.48851,648.00478)"
         id="g50475">
        <path
           inkscape:connector-curvature="0"
           id="path50477"
           style="fill:#9ba1a6;fill-opacity:1;fill-rule:nonzero;stroke:none"
           d="m 0,0 c 0,-0.227 -0.044,-0.421 -0.111,-0.584 0.266,-0.125 0.496,-0.308 0.69,-0.526 l 0,2.445 C 0.386,1.343 0.193,1.349 0,1.356 L 0,0 Z" />
      </g>
      <g
         transform="matrix(1.25,0,0,-1.25,543.23714,640.64028)"
         id="g50479">
        <path
           inkscape:connector-curvature="0"
           id="path50481"
           style="fill:#f8f8f8;fill-opacity:1;fill-rule:nonzero;stroke:none"
           d="m 0,0 -2.074,0 0.61,-0.127 0,-2.341 1.464,0 L 0,0 Z m -0.727,-3.475 -0.737,0 0,-1.901 c 0,-0.941 0.775,-1.353 0.775,-1.353 l -2.912,0 c 0,0 0.775,0.412 0.775,1.353 l 0,1.901 -0.502,0 c 0,0 -0.099,0.678 -0.321,1.007 l 0.823,0 0,2.423 c -0.315,-0.094 -0.493,-0.302 -0.493,-0.302 0.003,0.781 -0.292,1.055 -0.616,1.353 l 6.073,0 c 0,0 -0.776,-0.416 -0.776,-1.353 l 0,-2.585 -0.701,-0.422 2.061,-4.433 c -0.051,0.081 -1.328,1.326 -2.563,1.03 0.019,0.012 0.483,0.305 0.232,0.85 l -1.118,2.432 z" />
      </g>
      <g
         transform="matrix(1.25,0,0,-1.25,544.16401,647.78091)"
         id="g50483">
        <path
           inkscape:connector-curvature="0"
           id="path50485"
           style="fill:#9ba1a6;fill-opacity:1;fill-rule:nonzero;stroke:none"
           d="m 0,0 c 0.096,-0.207 0.128,-0.406 0.115,-0.588 0.299,-0.041 0.589,-0.137 0.854,-0.26 L 0.141,0.932 C -0.049,0.929 -0.237,0.927 -0.425,0.925 L 0,0 Z" />
      </g>
      <g
         transform="matrix(1.25,0,0,-1.25,540.19539,646.51391)"
         id="g50487">
        <path
           inkscape:connector-curvature="0"
           id="path50489"
           style="fill:#9ba1a6;fill-opacity:1;fill-rule:nonzero;stroke:none"
           d="m 0,0 0,-0.678 c 0,-0.369 -0.091,-0.675 -0.218,-0.921 l 1.013,0 c -0.128,0.246 -0.219,0.552 -0.219,0.921 l 0,0.635 C 0.514,-0.039 0.452,-0.036 0.39,-0.031 0.26,-0.02 0.13,-0.011 0,0" />
      </g>
      <g
         transform="matrix(1.25,0,0,-1.25,550.67914,646.37753)"
         id="g50491">
        <path
           inkscape:connector-curvature="0"
           id="path50493"
           style="fill:#f8f8f8;fill-opacity:1;fill-rule:nonzero;stroke:none"
           d="m 0,0 c 0,0.596 -0.426,0.829 -0.448,0.838 1.432,0.075 1.791,1.636 1.81,1.73 l 0,-4.195 c -1.406,-0.534 -2.093,-1.284 -2.093,-1.284 0,0 -0.686,0.75 -2.093,1.284 l 0,3.194 -0.501,0 c 0,0 -0.095,0.672 -0.315,1.007 l 0.816,0 0,1.97 C -3.138,4.451 -3.313,4.243 -3.313,4.243 -3.309,5.024 -3.605,5.298 -3.929,5.596 l 4.501,0 c 0.641,0 0.803,0.368 0.803,0.368 C 1.546,4.617 0.46,2.833 0,2.833 l 0,1.757 -2.071,0 0.61,-0.127 0,-1.889 1.686,0 C -0.254,2.055 -0.381,1.567 -0.381,1.567 l -1.08,0 0,-2.634 0.73,-0.368 L 0,-1.067 0,0 Z" />
      </g>
      <g
         transform="matrix(1.25,0,0,-1.25,551.17014,646.37753)"
         id="g50495">
        <path
           inkscape:connector-curvature="0"
           id="path50497"
           style="fill:#9ba1a6;fill-opacity:1;fill-rule:nonzero;stroke:none"
           d="m 0,0 0,-1.067 c 0,-0.168 -0.089,-0.322 -0.229,-0.392 l -0.73,-0.368 c -0.052,-0.026 -0.108,-0.039 -0.165,-0.039 -0.056,0 -0.111,0.013 -0.163,0.039 l -0.731,0.368 c -0.139,0.07 -0.229,0.224 -0.229,0.392 l 0,0.89 c -0.191,0.006 -0.383,0.009 -0.576,0.011 l 0,-1.159 c 0.828,-0.35 1.392,-0.761 1.699,-1.022 0.308,0.261 0.872,0.672 1.7,1.022 l 0,1.385 C 0.383,0.056 0.191,0.052 -0.002,0.049 -0.001,0.032 0,0.017 0,0" />
      </g>
      <g
         transform="matrix(1.25,0,0,-1.25,551.03814,645.66591)"
         id="g50499">
        <path
           inkscape:connector-curvature="0"
           id="path50501"
           style="fill:#9ba1a6;fill-opacity:1;fill-rule:nonzero;stroke:none"
           d="m 0,0 c 0.059,-0.147 0.098,-0.321 0.104,-0.52 0.192,0.003 0.385,0.007 0.578,0.011 l 0,0.973 C 0.493,0.276 0.267,0.113 0,0" />
      </g>
      <g
         transform="matrix(1.25,0,0,-1.25,557.71176,644.42228)"
         id="g50503">
        <path
           inkscape:connector-curvature="0"
           id="path50505"
           style="fill:#f8f8f8;fill-opacity:1;fill-rule:nonzero;stroke:none"
           d="m 0,0 -1.461,0 0,-2.631 L -0.73,-2.999 0,-2.631 0,0 Z m 0,3.026 -2.071,0 0.61,-0.127 0,-1.895 1.461,0 0,2.022 z m 1.362,-6.217 c -1.406,-0.534 -2.092,-1.284 -2.092,-1.284 0,0 -0.686,0.75 -2.093,1.284 l 0,3.188 -0.502,0 c 0,0 -0.098,0.678 -0.321,1.007 l 0.823,0 0,1.976 C -3.138,2.887 -3.316,2.679 -3.316,2.679 c 0.004,0.78 -0.292,1.055 -0.616,1.353 l 5.294,0 0,-2.903 L 0.334,0.497 1.495,-0.138 1.362,-3.191 Z" />
      </g>
      <g
         transform="matrix(1.25,0,0,-1.25,558.20314,647.71116)"
         id="g50507">
        <path
           inkscape:connector-curvature="0"
           id="path50509"
           style="fill:#9ba1a6;fill-opacity:1;fill-rule:nonzero;stroke:none"
           d="M 0,0 C 0,-0.168 -0.089,-0.322 -0.229,-0.392 L -0.96,-0.76 c -0.051,-0.026 -0.107,-0.039 -0.164,-0.039 -0.056,0 -0.111,0.013 -0.163,0.039 l -0.731,0.368 c -0.14,0.07 -0.229,0.224 -0.229,0.392 l 0,1.172 C -2.439,1.169 -2.631,1.167 -2.824,1.164 l 0,-1.422 c 0.828,-0.35 1.392,-0.762 1.7,-1.022 0.308,0.26 0.872,0.672 1.7,1.022 l 0,1.465 C 0.384,1.205 0.193,1.203 0,1.201 L 0,0 Z" />
      </g>
      <g
         transform="matrix(1.25,0,0,-1.25,560.76276,641.07353)"
         id="g50511">
        <path
           inkscape:connector-curvature="0"
           id="path50513"
           style="fill:#f8f8f8;fill-opacity:1;fill-rule:nonzero;stroke:none"
           d="m 0,0 c 0,0.937 -0.775,1.353 -0.775,1.353 l 2.916,0 c 0,0 -0.775,-0.416 -0.775,-1.353 l 0,-8.384 C 1.347,-8.29 0.985,-6.458 -0.448,-6.383 -0.426,-6.374 0,-6.142 0,-5.545 L 0,0 Z" />
      </g>
      <g
         transform="matrix(1.25,0,0,-1.25,561.25451,648.00478)"
         id="g50515">
        <path
           inkscape:connector-curvature="0"
           id="path50517"
           style="fill:#9ba1a6;fill-opacity:1;fill-rule:nonzero;stroke:none"
           d="M 0,0 C 0,-0.227 -0.044,-0.421 -0.112,-0.584 0.155,-0.709 0.385,-0.892 0.579,-1.11 l 0,2.575 C 0.386,1.463 0.193,1.462 0,1.46 L 0,0 Z" />
      </g>
      <g
         transform="matrix(1.25,0,0,-1.25,568.00301,640.64028)"
         id="g50519">
        <path
           inkscape:connector-curvature="0"
           id="path50521"
           style="fill:#f8f8f8;fill-opacity:1;fill-rule:nonzero;stroke:none"
           d="m 0,0 -2.074,0 0.61,-0.127 0,-2.341 1.464,0 L 0,0 Z m -0.727,-3.475 -0.737,0 0,-1.901 c 0,-0.941 0.775,-1.353 0.775,-1.353 l -2.912,0 c 0,0 0.775,0.412 0.775,1.353 l 0,1.901 -0.502,0 c 0,0 -0.099,0.678 -0.321,1.007 l 0.823,0 0,2.423 c -0.315,-0.094 -0.493,-0.302 -0.493,-0.302 0.003,0.781 -0.292,1.055 -0.616,1.353 l 6.072,0 c 0,0 -0.774,-0.416 -0.774,-1.353 l 0,-2.585 -0.702,-0.422 2.061,-4.433 c -0.051,0.081 -1.328,1.326 -2.563,1.03 0.019,0.012 0.483,0.305 0.232,0.85 l -1.118,2.432 z" />
      </g>
      <g
         transform="matrix(1.25,0,0,-1.25,568.93014,647.78079)"
         id="g50523">
        <path
           inkscape:connector-curvature="0"
           id="path50525"
           style="fill:#9ba1a6;fill-opacity:1;fill-rule:nonzero;stroke:none"
           d="m 0,0 c 0.095,-0.207 0.128,-0.406 0.114,-0.588 0.3,-0.041 0.589,-0.137 0.854,-0.26 l -1.006,2.164 c -0.189,0 -0.377,-0.002 -0.566,-0.002 L 0,0 Z" />
      </g>
      <g
         transform="matrix(1.25,0,0,-1.25,564.96114,647.36091)"
         id="g50527">
        <path
           inkscape:connector-curvature="0"
           id="path50529"
           style="fill:#9ba1a6;fill-opacity:1;fill-rule:nonzero;stroke:none"
           d="m 0,0 c 0,-0.37 -0.091,-0.675 -0.219,-0.921 l 1.014,0 C 0.668,-0.675 0.576,-0.37 0.576,0 l 0,0.969 C 0.385,0.968 0.192,0.967 0,0.966 L 0,0 Z" />
      </g>
      <g
         transform="matrix(1.25,0,0,-1.25,575.45251,640.64028)"
         id="g50531">
        <path
           inkscape:connector-curvature="0"
           id="path50533"
           style="fill:#f8f8f8;fill-opacity:1;fill-rule:nonzero;stroke:none"
           d="m 0,0 -2.074,0 0.61,-0.127 0,-5.53 0.731,-0.367 L 0,-5.657 0,0 Z m -2.826,-0.045 c -0.315,-0.094 -0.492,-0.302 -0.492,-0.302 0.002,0.781 -0.293,1.055 -0.617,1.353 l 4.431,0 0.864,-0.819 0,-6.404 c -1.408,-0.534 -2.093,-1.284 -2.093,-1.284 0,0 -0.686,0.75 -2.093,1.284 l 0,6.172 z" />
      </g>
      <g
         transform="matrix(1.25,0,0,-1.25,575.94464,647.71116)"
         id="g50535">
        <path
           inkscape:connector-curvature="0"
           id="path50537"
           style="fill:#9ba1a6;fill-opacity:1;fill-rule:nonzero;stroke:none"
           d="M 0,0 C 0,-0.169 -0.09,-0.322 -0.23,-0.393 L -0.964,-0.76 c -0.052,-0.026 -0.107,-0.039 -0.163,-0.039 -0.056,0 -0.112,0.013 -0.164,0.039 l -0.73,0.368 c -0.14,0.07 -0.23,0.224 -0.23,0.392 l 0,1.267 c -0.192,0 -0.384,0 -0.576,-10e-4 l 0,-1.524 c 0.828,-0.35 1.392,-0.762 1.7,-1.022 0.307,0.26 0.872,0.672 1.7,1.022 l 0,1.526 L 0,1.268 0,0 Z" />
      </g>
      <g
         transform="matrix(1.25,0,0,-1.25,584.43801,642.06091)"
         id="g50539">
        <path
           inkscape:connector-curvature="0"
           id="path50541"
           style="fill:#f8f8f8;fill-opacity:1;fill-rule:nonzero;stroke:none"
           d="m 0,0 -5.191,0 c 0.039,0.021 0.813,0.497 0.813,1.316 l 0,3.724 C -4.866,4.876 -5.136,4.512 -5.136,4.512 -5.132,5.88 -5.59,6.361 -6.092,6.884 l 6.979,0 c 0.995,0 1.246,0.644 1.246,0.644 C 2.399,5.167 0.714,2.251 0,2.251 l 0,2.869 -3.211,0 0.946,-0.223 0,-2.942 5.191,0 C 2.886,1.929 2.113,1.458 2.113,0.645 l 0,-6.424 c -2.181,-0.935 -3.246,-2.251 -3.246,-2.251 0,0 -1.063,1.316 -3.245,2.251 l 0,5.367 c 0.487,-0.544 1.403,-1.035 2.679,-1.035 0,0 -0.566,-0.486 -0.566,-1.321 l 0,-2.029 1.132,-0.644 L 0,-4.797 0,0 Z" />
      </g>
      <g
         transform="matrix(1.25,0,0,-1.25,584.98064,644.43766)"
         id="g50543">
        <path
           inkscape:connector-curvature="0"
           id="path50545"
           style="fill:#9ba1a6;fill-opacity:1;fill-rule:nonzero;stroke:none"
           d="m 0,0 0,-2.895 c 0,-0.176 -0.09,-0.338 -0.233,-0.419 l -1.133,-0.645 c -0.063,-0.036 -0.131,-0.054 -0.201,-0.054 -0.069,0 -0.137,0.018 -0.2,0.054 L -2.9,-3.314 c -0.144,0.081 -0.233,0.243 -0.233,0.419 l 0,2.029 c 0,0.336 0.072,0.628 0.171,0.87 -0.473,0 -0.945,0 -1.417,0.001 l 0,-3.565 c 1.428,-0.658 2.359,-1.456 2.812,-1.906 0.454,0.45 1.385,1.248 2.812,1.906 l 0,3.558 C 0.83,-0.001 0.415,0 0,0" />
      </g>
      <g
         transform="matrix(1.25,0,0,-1.25,576.68901,637.79566)"
         id="g50547">
        <path
           inkscape:connector-curvature="0"
           id="path50549"
           style="fill:#0c1d3c;fill-opacity:1;fill-rule:nonzero;stroke:none"
           d="m 0,0 c 0,-0.283 -0.17,-0.512 -0.381,-0.512 l -30.28,0 c -0.21,0 -0.381,0.229 -0.381,0.512 l 0,2.107 c 0,0.283 0.171,0.512 0.381,0.512 L -0.329,2.785 C -0.119,2.785 0,2.39 0,2.107 L 0,0 Z" />
      </g>
      <g
         transform="matrix(1.25,0,0,-1.25,559.83364,631.21853)"
         id="g50551">
        <path
           inkscape:connector-curvature="0"
           id="path50553"
           style="fill:#fc5d00;fill-opacity:1;fill-rule:nonzero;stroke:none"
           d="m 0,0 c 0,0 -5.54,1.173 -6.24,-0.246 0,0 1.575,0.049 0.859,-1.045 -0.11,-0.43 -2.081,-1.061 -1.872,0.779 0,0 -1.297,0.02 -1.92,-1.069 -0.404,-0.706 -1.516,-1.754 -2.63,-1.32 -0.283,0.111 -0.388,0.275 -1.311,0.039 0,0 1.323,1.725 2.705,1.136 0,0 3.138,-1.795 4.664,-1.075 0,0 1.153,0.504 2.03,1.719 0,0 0.912,0.596 1.281,0.092 0.205,-0.28 -0.04,-0.973 -1.041,-1.18 0,0 1.376,-0.684 3.057,1.606 L 0,0 Z" />
      </g>
      <g
         transform="matrix(1.25,0,0,-1.25,539.38339,635.73028)"
         id="g50555">
        <path
           inkscape:connector-curvature="0"
           id="path50557"
           style="fill:#f8f8f8;fill-opacity:1;fill-rule:nonzero;stroke:none"
           d="m 0,0 3.246,0 0,-0.411 -1.927,0 0,-0.335 1.646,0 0,-0.387 -1.646,0 0,-0.782 L 0,-1.915 0,0 Z" />
      </g>
      <g
         transform="matrix(1.25,0,0,-1.25,547.29364,635.73028)"
         id="g50559">
        <path
           inkscape:connector-curvature="0"
           id="path50561"
           style="fill:#f8f8f8;fill-opacity:1;fill-rule:nonzero;stroke:none"
           d="m 0,0 1.313,0 0,-1.444 2.05,0 0,-0.471 L 0,-1.915 0,0 Z" />
      </g>
      <path
         inkscape:connector-curvature="0"
         id="path50563"
         style="fill:#f8f8f8;fill-opacity:1;fill-rule:nonzero;stroke:none"
         d="m 555.27664,635.72991 1.645,0 0,2.39375 -1.645,0 0,-2.39375 z" />
      <g
         transform="matrix(1.25,0,0,-1.25,561.07776,635.73028)"
         id="g50565">
        <path
           inkscape:connector-curvature="0"
           id="path50567"
           style="fill:#f8f8f8;fill-opacity:1;fill-rule:nonzero;stroke:none"
           d="m 0,0 1.226,0 1.6,-1.06 0,1.06 1.238,0 0,-1.915 -1.238,0 -1.591,1.051 0,-1.051 L 0,-1.915 0,0 Z" />
      </g>
      <g
         transform="matrix(1.25,0,0,-1.25,569.84301,635.73028)"
         id="g50569">
        <path
           inkscape:connector-curvature="0"
           id="path50571"
           style="fill:#f8f8f8;fill-opacity:1;fill-rule:nonzero;stroke:none"
           d="m 0,0 3.991,0 0,-0.473 -1.339,0 0,-1.442 -1.313,0 0,1.442 L 0,-0.473 0,0 Z" />
      </g>
      <g
         transform="matrix(1.25,0,0,-1.25,594.05539,616.88516)"
         id="g50573">
        <path
           inkscape:connector-curvature="0"
           id="path50575"
           style="fill:#fc5d00;fill-opacity:1;fill-rule:nonzero;stroke:none"
           d="m 0,0 c 0,0 -0.722,0.212 -3,-1.089 -0.96,-0.549 -3.085,-1.783 -5.417,-1.783 -0.618,0.183 -3.817,0.731 -4.208,-1.237 0,0 0.891,0.849 3.659,-0.066 0.457,-0.339 1.434,-0.409 2.298,-0.246 -1.132,-1.4 -4.66,-1.306 -4.629,-1.331 -0.754,-0.069 -2.053,-0.827 -2.15,-1.794 0,0 1.739,0.834 2.836,0.422 0.553,-0.302 1.048,-0.557 1.552,-0.623 -1.058,-1.023 -2.729,-1.723 -4.305,-0.981 0,0 1.681,-1.844 3.32,-1.762 -0.906,-0.863 -2.384,-1.603 -4.147,-2.019 0,0 2.887,-0.647 4.781,0.971 1.895,1.619 1.54,2.628 2.836,2.752 0,0 -0.514,0.171 -1.101,0.189 1.079,1.614 1.512,3.187 2.539,3.305 0,0 -0.193,0.045 -0.482,0.074 0.527,0.751 0.924,1.452 1.35,1.948 0.406,0.25 0.778,0.49 1.118,0.717 0.029,0.005 0.057,0.01 0.088,0.013 0,0 -0.016,0.006 -0.044,0.017 C -1.171,-1.219 -0.298,-0.305 0,0" />
      </g>
      <g
         transform="matrix(1.25,0,0,-1.25,539.26539,633.86028)"
         id="g50577">
        <path
           inkscape:connector-curvature="0"
           id="path50579"
           style="fill:#9ba1a6;fill-opacity:1;fill-rule:nonzero;stroke:none"
           d="m 0,0 c 0.353,1.322 -1.089,2.713 -1.498,2.467 -0.33,-0.198 -1.939,-0.44 -2.666,0.838 0.206,0.068 1.904,1.898 1.256,1.917 -2.379,0.065 -2.776,0.396 -3.077,0.558 0.282,0.053 3.665,1.64 3.204,1.803 -0.986,0.348 -1.978,0.414 -2.572,0.48 -0.667,0.074 -1.326,0.375 -1.477,0.749 1.481,0.197 3.063,2.82 2.27,2.556 -0.403,-0.134 -1.767,-0.133 -2.181,-0.132 -1.762,0.002 -3.991,0.419 -5.972,2.252 0.934,0.312 18.471,5.807 18.515,5.818 l 0.272,0.069 c -0.223,-2.811 0.618,-5.187 2.441,-6.89 1.156,-1.079 2.395,-1.572 2.813,-1.717 L 10.272,6.647 9.882,6.79 C 9.313,6.999 8.776,7.1 8.239,7.1 6.175,7.1 5.244,5.474 3.371,2.512 3.086,2.062 2.291,0.132 0.705,0 L 0,0 Z" />
      </g>
      <g
         transform="matrix(1.25,0,0,-1.25,542.89464,616.68703)"
         id="g50581">
        <path
           inkscape:connector-curvature="0"
           id="path50583"
           style="fill:#0c1d3c;fill-opacity:1;fill-rule:nonzero;stroke:none"
           d="m 0,0 c 0,0 -4.462,-0.909 -5.738,-2.426 0,0 1.559,-1.094 4.676,-0.778 l -1.913,1.007 c 0,0 1.912,2.05 2.975,2.197" />
      </g>
      <g
         transform="matrix(1.25,0,0,-1.25,542.59976,620.33866)"
         id="g50585">
        <path
           inkscape:connector-curvature="0"
           id="path50587"
           style="fill:#0c1d3c;fill-opacity:1;fill-rule:nonzero;stroke:none"
           d="m 0,0 c 0,0 -4.321,-0.525 -5.596,-2.043 0,0 1.417,-1.477 4.534,-1.161 l -2.409,1.161 c 0,0 2.408,1.896 3.471,2.043" />
      </g>
      <g
         transform="matrix(1.25,0,0,-1.25,542.92876,623.11016)"
         id="g50589">
        <path
           inkscape:connector-curvature="0"
           id="path50591"
           style="fill:#0c1d3c;fill-opacity:1;fill-rule:nonzero;stroke:none"
           d="m 0,0 c 0,0 -3.903,-1.747 -4.773,-3.569 0,0 1.574,-0.996 3.66,0.177 l -2.031,0.283 c 0,0 2.152,2.671 3.144,3.109" />
      </g>
      <g
         transform="matrix(1.25,0,0,-1.25,543.44839,625.77579)"
         id="g50593">
        <path
           inkscape:connector-curvature="0"
           id="path50595"
           style="fill:#0c1d3c;fill-opacity:1;fill-rule:nonzero;stroke:none"
           d="m 0,0 c 0,0 -3.374,-2.047 -3.902,-3.841 0,0 1.633,-0.893 4.18,0.82 l -2.433,-0.374 c 0,0 1.301,2.78 2.155,3.395" />
      </g>
      <g
         transform="matrix(1.25,0,0,-1.25,545.59464,611.39216)"
         id="g50597">
        <path
           inkscape:connector-curvature="0"
           id="path50599"
           style="fill:#0c1d3c;fill-opacity:1;fill-rule:nonzero;stroke:none"
           d="m 0,0 -0.016,-0.02 0.042,0.155 c -4.615,-1.55 -15.796,-4.692 -15.796,-4.692 1.652,-1.455 7.423,-1.02 7.423,-1.02 -2.834,1.011 -3.296,1.213 -3.296,1.213 3.49,0.906 8.908,2.738 10.634,3.309 -0.107,-0.492 -0.75,-4.461 3.68,-7.705 0.465,1.424 2.322,1.122 2.322,1.122 C -0.413,-6.625 0,0 0,0" />
      </g>
      <g
         transform="matrix(1.25,0,0,-1.25,530.45301,630.33541)"
         id="g50601">
        <path
           inkscape:connector-curvature="0"
           id="path50603"
           style="fill:#fc5d00;fill-opacity:1;fill-rule:nonzero;stroke:none"
           d="m 0,0 c -1.98,1.066 0.247,1.018 0.242,1.013 0,0 0.728,-1.057 2.248,0.133 C 1.432,1.212 1.234,1.74 1.234,1.74 c 0,0 -1.653,1.256 -2.974,0.265 0,1.586 0.396,1.52 1.189,1.586 0.727,-0.198 1.653,0.727 1.653,0.727 -2.099,0.091 -2.909,0.132 -4.23,2.049 2.247,-0.132 4.362,1.322 3.872,1.192 -3.327,-0.88 -4.879,1.079 -6.384,1.165 -2.313,0.132 -4.225,1.755 -3.569,1.807 1.652,0.132 2.767,0.972 3.173,1.237 -3.768,-0.444 -5.208,0.298 -5.85,0.979 0,0 0.804,-4.432 4.301,-4.979 0.139,-0.021 2.41,-0.699 2.804,-0.872 0.955,-0.529 0.761,-1.163 -3.956,-1.864 -1.36,-0.202 0.949,-0.666 2.635,-0.859 -0.126,-0.524 1.106,-1.507 2.709,-1.507 1.124,0 1.256,-0.774 -0.095,-0.906 -1.385,-0.136 -0.21,-0.619 1.333,-0.974 0.003,-0.032 0.46,-0.791 0.48,-0.824 1.119,-1.866 6.213,-1.548 6.213,-1.548 C 2.014,-0.913 0.705,-0.441 0,0" />
      </g>
      <g
         transform="matrix(1.25,0,0,-1.25,564.17714,626.16366)"
         id="g50605">
        <path
           inkscape:connector-curvature="0"
           id="path50607"
           style="fill:#0c1d3c;fill-opacity:1;fill-rule:nonzero;stroke:none"
           d="M 0,0 C 0,0 -1.024,0.84 -1.54,-0.062 -2.057,-0.965 -2.419,-0.98 -3.591,-1.223 -4.037,-1.316 0.392,-3.303 0,0" />
      </g>
      <g
         transform="matrix(1.25,0,0,-1.25,562.81851,626.67466)"
         id="g50609">
        <path
           inkscape:connector-curvature="0"
           id="path50611"
           style="fill:#f8f8f8;fill-opacity:1;fill-rule:nonzero;stroke:none"
           d="m 0,0 c 0,0 -0.345,-0.019 -0.446,-0.298 -0.091,-0.251 -0.077,-0.238 -1.18,-0.71 0,0 2.645,-0.548 1.626,1.008" />
      </g>
      <g
         transform="matrix(1.25,0,0,-1.25,553.38376,624.02566)"
         id="g50613">
        <path
           inkscape:connector-curvature="0"
           id="path50615"
           style="fill:#f8f8f8;fill-opacity:1;fill-rule:nonzero;stroke:none"
           d="M 0,0 C 0,0 2.806,3.422 6.509,1.074 7.289,0.376 6.946,-0.445 6.946,-0.445 6.946,-0.445 3.867,2.122 0,0" />
      </g>
      <g
         transform="matrix(1.25,0,0,-1.25,563.94064,653.90878)"
         id="g50617">
        <path
           inkscape:connector-curvature="0"
           id="path50619"
           style="fill:#9ba1a6;fill-opacity:1;fill-rule:nonzero;stroke:none"
           d="m 0,0 c 0.793,-1.41 0.881,-5.64 -8.724,-2.82 l 0,-1.322 c 0,0 -5.055,4.27 -0.983,6.288 0,0 -1.132,-2.058 2.833,-3.115 l -1.167,-0.526 c 0,0 10.651,-1.982 5.221,3.654 0,0 2.141,-0.952 2.82,-2.159" />
      </g>
      <path
         inkscape:connector-curvature="0"
         id="path50621"
         style="fill:#0c1d3c;fill-opacity:1;fill-rule:nonzero;stroke:none"
         d="m 534.70914,648.97366 -1.86625,0 0,-6.53375 1.86625,0 0,6.53375 z" />
    </g>
  </g>
</svg>
