<svg xmlns="http://www.w3.org/2000/svg" viewBox="0 0 171 200" width="171" height="200">
	<style>
		tspan { white-space:pre }
		.shp0 { fill: #000000 } 
		.shp1 { fill: #feb81c } 
		.shp2 { fill: #ffffff } 
		.shp3 { fill: #27824d } 
	</style>
	<g >
		<path class="shp0" d="M78.13 0.1C77.87 0.14 77.12 0.24 76.46 0.33C75.8 0.41 74.73 0.58 74.09 0.71C73.46 0.84 72.39 1.08 71.73 1.25C71.07 1.42 69.86 1.77 69.04 2.04C68.22 2.31 66.89 2.79 66.07 3.1C65.26 3.42 63.88 4.01 63.01 4.4C62.15 4.79 60.87 5.41 60.18 5.77C59.5 6.13 58.43 6.7 57.82 7.05C57.21 7.39 56.27 7.93 55.73 8.25C55.2 8.57 54.11 9.25 53.32 9.76C52.53 10.26 51.26 11.12 50.49 11.66C49.73 12.2 48.68 12.95 48.17 13.33C47.66 13.71 46.81 14.38 46.27 14.82C45.74 15.25 35.76 23.65 24.11 33.49C12.46 43.32 2.66 51.62 2.34 51.94C2.01 52.25 1.57 52.77 1.35 53.1C1.12 53.44 0.82 54 0.67 54.36C0.51 54.71 0.32 55.34 0.23 55.75C0.07 56.44 0.07 57.15 0.13 67.1C0.17 72.94 0.23 79.46 0.27 81.6C0.31 83.74 0.37 88.48 0.4 92.12C0.43 95.77 0.5 101.38 0.55 104.59C0.61 107.8 0.71 114.18 0.79 118.77C0.87 123.35 0.99 130.49 1.06 134.62C1.14 138.74 1.22 142.77 1.25 143.56C1.28 144.48 1.36 145.26 1.48 145.74C1.57 146.14 1.76 146.73 1.9 147.03C2.04 147.34 2.33 147.86 2.55 148.19C2.77 148.52 3.22 149.05 3.54 149.36C3.86 149.68 5.36 150.84 6.86 151.95C8.61 153.24 9.87 154.09 10.34 154.32C10.75 154.52 11.42 154.76 11.82 154.87C12.23 154.97 12.66 155.05 12.77 155.05C12.89 155.05 12.98 155.09 12.98 155.14C12.98 155.19 12.86 155.79 12.71 156.46C12.56 157.14 12.27 158.51 12.07 159.5C11.86 160.49 11.53 162.22 11.32 163.35C11.12 164.47 10.8 166.26 10.63 167.33C10.45 168.4 10.15 170.3 9.97 171.55C9.79 172.8 9.52 174.82 9.37 176.04C9.22 177.27 9.05 178.68 9 179.19C8.94 179.7 8.81 181.02 8.71 182.11C8.61 183.21 8.53 184.54 8.53 185.08C8.53 185.73 8.59 186.3 8.72 186.82C8.82 187.24 9.02 187.84 9.16 188.16C9.31 188.48 9.59 188.99 9.8 189.3C10.01 189.6 10.44 190.12 10.77 190.44C11.09 190.77 11.7 191.29 12.12 191.6C12.54 191.91 13.31 192.44 13.83 192.77C14.36 193.1 15.8 193.87 17.03 194.48L19.27 195.6C19.8 196.46 20.13 196.93 20.34 197.21C20.55 197.48 21 197.93 21.33 198.21C21.66 198.48 22.29 198.89 22.72 199.12C23.15 199.34 23.91 199.63 24.41 199.76C25.21 199.97 25.5 200 26.87 200C27.72 200 28.76 199.96 29.16 199.9C29.57 199.85 30.62 199.7 31.48 199.57C32.35 199.45 33.98 199.16 35.1 198.93C36.22 198.71 37.7 198.38 38.39 198.21C39.19 198.01 39.92 197.76 40.41 197.51C40.83 197.3 41.39 196.95 41.66 196.72C42.13 196.33 42.19 196.31 43.45 196.08C44.16 195.95 45.35 195.69 46.09 195.52C46.83 195.34 48.04 195.02 48.78 194.81C49.52 194.6 50.71 194.24 51.42 194C52.13 193.77 53.01 193.44 53.37 193.27C53.72 193.1 54.31 192.74 54.66 192.47C55.02 192.2 55.54 191.71 55.82 191.37C56.11 191.03 56.76 189.99 57.3 189.01C57.83 188.04 58.66 186.59 59.15 185.77C59.64 184.96 60.61 183.44 61.3 182.39C61.99 181.35 63.01 179.87 63.57 179.1C64.12 178.34 65.06 177.09 65.66 176.32C66.25 175.56 67.21 174.37 67.79 173.68C68.37 172.99 69.32 171.89 69.91 171.23C70.5 170.57 71.74 169.23 72.66 168.27C73.57 167.3 75.22 165.67 76.32 164.64C77.42 163.6 78.9 162.25 79.61 161.63C80.33 161 81.37 160.11 81.93 159.64C82.49 159.18 83.47 158.38 84.11 157.87C84.75 157.36 85.87 156.48 86.61 155.91C87.35 155.35 88.79 154.29 89.81 153.57C90.83 152.84 92.69 151.57 93.94 150.74C95.19 149.92 97.07 148.72 98.11 148.08C99.16 147.44 100.85 146.44 101.87 145.86C102.89 145.27 104.45 144.39 105.34 143.91C106.24 143.42 108.03 142.49 109.33 141.83C110.63 141.17 112.39 140.3 113.23 139.9C114.07 139.5 115.45 138.87 116.29 138.49C117.13 138.11 118.65 137.44 119.67 137.01C120.69 136.57 122.61 135.79 123.94 135.26C125.26 134.74 127.06 134.05 127.93 133.74C128.79 133.42 130.04 132.97 130.71 132.74C131.37 132.51 132.87 132.01 134.05 131.63C135.22 131.26 136.95 130.72 137.89 130.44C138.84 130.17 140.42 129.73 141.42 129.47C142.59 129.17 143.45 128.88 143.88 128.67C144.23 128.49 144.71 128.21 144.94 128.05C145.17 127.9 145.62 127.5 145.95 127.16C146.27 126.83 146.72 126.26 146.94 125.9C147.16 125.55 147.47 124.92 147.62 124.51C147.77 124.11 147.94 123.44 148.01 123.03C148.08 122.57 148.1 121.96 148.07 121.41C148.03 120.92 147.92 120.24 147.82 119.88C147.72 119.52 147.47 118.9 147.26 118.49C147.05 118.08 146.66 117.48 146.4 117.15C146.13 116.81 145.64 116.33 145.31 116.06C144.98 115.8 144.44 115.44 144.11 115.26C143.78 115.08 141.17 114.08 138.31 113.04C135.46 111.99 130.18 110.05 126.58 108.72C122.08 107.06 120.05 106.27 120.08 106.19C120.09 106.12 120.17 105.74 120.25 105.33C120.34 104.84 120.36 104.3 120.33 103.75C120.3 103.29 120.2 102.59 120.09 102.18C119.99 101.77 119.73 101.1 119.53 100.7C119.33 100.29 119.17 99.95 119.18 99.95C119.2 99.94 119.83 99.98 120.6 100.03C121.54 100.09 122.6 100.08 123.89 100.01C124.94 99.95 126.5 99.8 127.37 99.68C128.24 99.55 129.36 99.36 129.87 99.26C130.38 99.15 131.47 98.9 132.28 98.69C133.1 98.48 134.39 98.11 135.16 97.86C135.92 97.61 137.01 97.23 137.57 97L138.59 96.6C140.1 96.79 141.39 96.89 142.44 96.94C143.74 97.01 145.05 97.01 146.61 96.95C147.86 96.89 149.38 96.81 150 96.76C150.61 96.71 151.28 96.64 151.48 96.61C151.68 96.58 152.33 96.43 152.92 96.28C153.5 96.13 153.98 96.02 153.98 96.03C153.98 96.05 154.16 96.42 154.37 96.85C154.59 97.28 154.99 97.91 155.26 98.24C155.53 98.57 156.07 99.08 156.45 99.37C156.83 99.66 157.45 100.04 157.83 100.22C158.21 100.4 158.78 100.62 159.08 100.7C159.39 100.79 160.15 100.88 160.8 100.9C161.75 100.94 162.1 100.91 162.75 100.76C163.18 100.66 163.76 100.47 164.05 100.35C164.33 100.23 164.81 99.97 165.11 99.77C165.42 99.58 165.95 99.14 166.3 98.8C166.65 98.47 167.12 97.92 167.33 97.59C167.55 97.26 167.91 96.63 168.13 96.2C168.34 95.77 168.69 95.04 168.89 94.58C169.09 94.12 169.42 93.26 169.62 92.68C169.82 92.09 170.11 91.13 170.26 90.55C170.4 89.96 170.6 89.02 170.69 88.46C170.82 87.67 170.86 86.95 170.86 85.22C170.85 83.5 170.81 82.79 170.69 82.11C170.6 81.63 170.43 80.84 170.3 80.35C170.18 79.87 169.95 79.1 169.79 78.64C169.63 78.18 169.26 77.3 168.97 76.69C168.68 76.08 168.19 75.18 167.89 74.7C167.58 74.21 167.08 73.49 166.78 73.08C166.47 72.68 165.82 71.89 165.32 71.34C164.43 70.36 164.41 70.33 164.05 69.28C163.84 68.69 163.44 67.68 163.16 67.03C162.88 66.38 162.39 65.37 162.07 64.78C161.75 64.2 161.13 63.18 160.69 62.51C160.25 61.85 159.65 61.01 159.37 60.66C159.08 60.3 158.46 59.58 157.99 59.05C157.52 58.52 156.72 57.7 156.21 57.23C155.7 56.76 154.84 56.02 154.3 55.6C153.77 55.17 152.89 54.53 152.35 54.17L151.37 53.52C151.04 51.65 150.83 50.63 150.69 50.05C150.55 49.46 150.27 48.5 150.09 47.91C149.9 47.33 149.54 46.33 149.28 45.69C149.03 45.05 148.53 43.97 148.19 43.28C147.84 42.59 147.29 41.61 146.97 41.1C146.65 40.59 146.12 39.79 145.78 39.33C145.45 38.86 144.78 38.01 144.29 37.44C143.81 36.87 142.92 35.93 142.32 35.35C141.72 34.77 140.7 33.87 140.05 33.35C139.4 32.83 138.35 32.06 137.71 31.64C137.07 31.22 136.09 30.62 135.53 30.3C134.97 29.98 133.99 29.47 133.35 29.16C132.71 28.86 131.65 28.4 130.99 28.13C130.32 27.86 129.18 27.45 128.44 27.2C127.7 26.96 126.46 26.6 125.7 26.4C124.93 26.2 124.28 26.01 124.25 25.97C124.21 25.93 123.9 25.44 123.56 24.88C123.22 24.32 122.69 23.51 122.38 23.08C122.07 22.64 121.48 21.87 121.06 21.36C120.64 20.85 119.89 20 119.38 19.47C118.88 18.94 118.03 18.13 117.49 17.66C116.96 17.19 116.23 16.58 115.87 16.3C115.51 16.02 114.8 15.49 114.29 15.13C113.78 14.77 112.8 14.13 112.11 13.72C111.43 13.3 110.22 12.64 109.43 12.24C108.63 11.84 107.45 11.28 106.78 11C106.12 10.73 105.1 10.33 104.51 10.12C103.92 9.9 102.88 9.56 102.19 9.35L100.94 8.98C99.07 7.08 98.07 6.17 97.51 5.71C96.95 5.26 96.03 4.59 95.47 4.22C94.91 3.85 93.93 3.27 93.29 2.94C92.65 2.6 91.69 2.15 91.16 1.94C90.62 1.73 89.89 1.46 89.53 1.34C89.18 1.23 88.57 1.05 88.19 0.94C87.81 0.83 87.18 0.68 86.8 0.6C86.42 0.52 85.37 0.35 84.48 0.23C83.11 0.03 82.53 0 80.72 0.01C79.55 0.02 78.38 0.06 78.13 0.1Z" />
		<path class="shp1" d="M79.24 5.71C78.99 5.73 78.23 5.81 77.57 5.89C76.91 5.97 75.84 6.13 75.21 6.26C74.57 6.39 73.36 6.68 72.52 6.92C71.68 7.15 70.32 7.58 69.5 7.87C68.69 8.17 67.46 8.65 66.77 8.94C66.08 9.23 64.91 9.76 64.17 10.12C63.43 10.47 62.24 11.08 61.53 11.47C60.81 11.85 59.5 12.61 58.61 13.14C57.71 13.68 56.17 14.66 55.18 15.33C54.18 15.99 52.62 17.1 51.7 17.79C50.78 18.48 49.51 19.48 48.87 20.02C48.23 20.55 44.73 23.51 41.08 26.59C37.43 29.67 28.07 37.57 20.28 44.15C8 54.53 6.09 56.17 5.91 56.53L5.72 56.95C5.83 71.68 5.89 77.91 5.92 80.31L5.98 84.66C6.38 85.34 6.56 85.58 6.65 85.62C6.81 85.7 6.8 85.72 6.62 85.97C6.51 86.12 6.33 86.42 6.21 86.65L6 87.07C6.1 95.19 6.17 100.28 6.22 103.61C6.27 106.95 6.39 114.52 6.49 120.44C6.59 126.35 6.72 133.73 6.77 136.84C6.83 139.95 6.9 142.97 6.94 143.56C7 144.46 7.04 144.68 7.24 144.99C7.4 145.25 8.2 145.89 10.02 147.22C11.42 148.25 12.7 149.16 12.87 149.25C13.03 149.33 13.39 149.4 13.65 149.4C13.92 149.4 14.27 149.33 14.42 149.25C14.57 149.17 15.35 148.61 16.14 148.02C16.93 147.42 18.14 146.53 18.82 146.05C19.51 145.56 20.4 144.95 20.8 144.69C21.19 144.42 21.59 144.18 21.67 144.14C21.81 144.08 21.82 144.1 21.76 144.25C21.72 144.36 21.38 145.51 21 146.83C20.62 148.14 20.04 150.27 19.71 151.55C19.38 152.84 18.88 154.91 18.59 156.16C18.3 157.41 17.8 159.77 17.48 161.4C17.15 163.03 16.65 165.72 16.38 167.38C16.1 169.03 15.74 171.27 15.59 172.34C15.43 173.41 15.18 175.28 15.03 176.51C14.87 177.73 14.64 179.75 14.52 181C14.39 182.25 14.26 183.73 14.22 184.29C14.17 185.12 14.18 185.39 14.3 185.73C14.4 186 14.62 186.3 14.95 186.6C15.22 186.85 15.88 187.34 16.41 187.69C16.95 188.04 18.31 188.79 19.43 189.35C20.55 189.91 22.09 190.63 22.86 190.96L24.25 191.55C24.33 192.67 24.42 193.13 24.5 193.28C24.58 193.43 24.78 193.69 24.96 193.84C25.15 194.02 25.47 194.17 25.78 194.25C26.15 194.34 26.61 194.36 27.45 194.32C28.09 194.28 29.07 194.2 29.63 194.12C30.19 194.05 31.17 193.9 31.81 193.79C32.45 193.68 33.57 193.47 34.31 193.32C35.05 193.16 36.16 192.91 36.77 192.76C37.59 192.56 37.97 192.42 38.21 192.23C38.38 192.08 38.64 191.74 38.78 191.46L39.02 190.96C40.08 190.85 40.82 190.76 41.36 190.68C41.89 190.6 43 190.39 43.82 190.21C44.63 190.04 45.91 189.73 46.64 189.52C47.38 189.32 48.65 188.94 49.45 188.69C50.69 188.3 50.97 188.18 51.28 187.88C51.51 187.67 51.93 187.01 52.4 186.14C52.82 185.38 53.66 183.92 54.27 182.9C54.88 181.88 55.98 180.15 56.71 179.05C57.44 177.96 58.46 176.48 58.98 175.76C59.5 175.05 60.38 173.88 60.93 173.17C61.48 172.46 62.38 171.33 62.92 170.67C63.46 170 64.64 168.63 65.54 167.61C66.45 166.59 68.08 164.85 69.18 163.73C70.28 162.61 71.84 161.07 72.66 160.3C73.47 159.53 74.68 158.42 75.35 157.83C76.01 157.24 76.97 156.41 77.48 155.97C77.99 155.53 79.26 154.49 80.31 153.65C81.35 152.81 83.02 151.52 84.02 150.78C85.01 150.04 86.45 148.99 87.22 148.46C87.98 147.92 89.48 146.9 90.55 146.19C91.63 145.47 93.27 144.41 94.22 143.82C95.16 143.23 96.81 142.24 97.88 141.61C98.95 140.99 100.77 139.96 101.91 139.32C103.06 138.69 105.65 137.35 107.66 136.34C109.68 135.33 112.33 134.06 113.55 133.51C114.78 132.95 116.51 132.19 117.4 131.81C118.29 131.43 119.96 130.75 121.11 130.29C122.26 129.83 123.86 129.2 124.68 128.9C125.5 128.59 127.02 128.04 128.06 127.67C129.11 127.29 130.88 126.69 132.01 126.33C133.13 125.96 134.96 125.39 136.09 125.07C137.21 124.74 138.86 124.28 139.75 124.05C140.64 123.81 141.43 123.59 141.51 123.55C141.59 123.5 141.79 123.32 141.95 123.13C142.12 122.95 142.29 122.64 142.34 122.45C142.4 122.26 142.44 121.98 142.44 121.83C142.43 121.67 142.36 121.38 142.27 121.18C142.17 120.97 141.96 120.68 141.78 120.53C141.56 120.33 140.9 120.04 139.66 119.57C138.66 119.21 131.24 116.48 123.17 113.51C115.09 110.54 108.49 108.07 108.49 108.02C108.49 107.97 108.73 107.9 109.03 107.86C109.32 107.83 110.18 107.76 110.93 107.7C111.68 107.65 112.44 107.54 112.6 107.48C112.77 107.41 113.05 107.18 113.23 106.97C113.41 106.77 113.8 106.14 114.11 105.59C114.61 104.69 114.66 104.53 114.66 104.08C114.65 103.8 114.58 103.44 114.5 103.29C114.42 103.14 111.87 100.1 108.83 96.55L103.3 90.08C103.3 85.28 103.34 84.24 103.4 84.24C103.45 84.24 103.73 84.61 104.02 85.06C104.31 85.5 104.87 86.26 105.26 86.75C105.65 87.23 106.33 88 106.79 88.45C107.24 88.91 107.91 89.52 108.27 89.81C108.62 90.1 109.31 90.61 109.8 90.93C110.28 91.26 111.09 91.74 111.6 92C112.11 92.26 113.01 92.67 113.6 92.9C114.18 93.12 115.06 93.42 115.55 93.55C116.03 93.68 116.86 93.87 117.4 93.97C117.94 94.07 118.79 94.2 119.3 94.26C119.81 94.32 121.08 94.37 122.13 94.37C123.18 94.37 124.49 94.32 125.05 94.26C125.61 94.2 126.72 94.05 127.51 93.92C128.3 93.79 129.7 93.49 130.61 93.26C131.53 93.03 132.95 92.62 133.77 92.35C134.58 92.08 135.88 91.6 136.64 91.28L138.03 90.7C139.26 90.94 139.94 91.06 140.35 91.12C140.85 91.2 142.29 91.24 144.71 91.24C147.06 91.24 148.75 91.2 149.53 91.12C150.22 91.05 151.28 90.86 151.99 90.67C152.81 90.46 153.56 90.33 154.17 90.3C154.75 90.26 155.35 90.29 155.79 90.36C156.18 90.43 156.75 90.62 157.09 90.78C157.45 90.96 157.86 91.27 158.11 91.54C158.34 91.79 158.64 92.22 158.77 92.5C158.91 92.78 159.09 93.27 159.17 93.61C159.27 93.99 159.43 94.34 159.62 94.57C159.78 94.77 160.09 95.01 160.29 95.1C160.49 95.19 160.85 95.27 161.08 95.27C161.31 95.27 161.66 95.19 161.87 95.1C162.07 95.01 162.35 94.79 162.49 94.62C162.62 94.44 162.99 93.78 163.29 93.14C163.6 92.5 164 91.57 164.19 91.06C164.37 90.55 164.62 89.73 164.74 89.25C164.86 88.77 165.01 88.06 165.08 87.67C165.16 87.25 165.2 86.3 165.2 85.22C165.2 83.75 165.16 83.29 164.99 82.48C164.87 81.95 164.65 81.14 164.49 80.68C164.34 80.22 164 79.43 163.74 78.92C163.49 78.41 163.06 77.66 162.79 77.25C162.52 76.84 162.03 76.19 161.7 75.81C161.38 75.43 160.71 74.74 160.21 74.28C159.72 73.82 159.31 73.4 159.31 73.33C159.31 73.27 159.17 72.73 159 72.13C158.82 71.53 158.49 70.58 158.27 70.02C158.04 69.46 157.66 68.6 157.41 68.12C157.17 67.63 156.74 66.86 156.46 66.4C156.18 65.95 155.6 65.09 155.16 64.5C154.72 63.92 153.84 62.9 153.2 62.25C152.56 61.59 151.54 60.65 150.92 60.16C150.31 59.67 149.35 58.97 148.79 58.61C148.23 58.24 147.36 57.73 146.87 57.47L145.96 57C145.96 56.31 145.9 55.64 145.83 55.05C145.76 54.46 145.63 53.59 145.54 53.1C145.46 52.62 145.25 51.68 145.08 51.02C144.91 50.36 144.61 49.36 144.4 48.8C144.2 48.23 143.85 47.36 143.63 46.85C143.4 46.34 142.95 45.46 142.63 44.9C142.3 44.34 141.83 43.57 141.57 43.19C141.31 42.81 140.77 42.08 140.36 41.57C139.95 41.06 139.21 40.25 138.73 39.76C138.24 39.27 137.47 38.56 137.01 38.18C136.55 37.8 135.76 37.19 135.25 36.83C134.74 36.46 133.89 35.91 133.35 35.58C132.81 35.26 131.75 34.7 130.99 34.33C130.22 33.96 129.2 33.51 128.71 33.32C128.23 33.13 127.29 32.79 126.63 32.57C125.96 32.35 124.98 32.06 124.45 31.93C123.91 31.79 122.99 31.58 122.41 31.47C121.82 31.35 121.13 31.22 120.88 31.19L120.41 31.12C119.31 28.87 118.69 27.76 118.32 27.2C117.95 26.64 117.39 25.85 117.07 25.44C116.75 25.03 116.14 24.32 115.72 23.86C115.29 23.39 114.61 22.7 114.2 22.32C113.79 21.94 113.02 21.28 112.49 20.86C111.95 20.43 111.16 19.85 110.72 19.55C110.29 19.26 109.54 18.78 109.05 18.49C108.57 18.2 107.61 17.67 106.92 17.33C106.23 16.98 105.42 16.59 105.11 16.45C104.81 16.31 104.1 16.02 103.54 15.81C102.98 15.59 101.93 15.22 101.22 14.99C100.5 14.76 99.43 14.46 98.82 14.31L97.72 14.04C96.91 13.04 96.3 12.35 95.84 11.87C95.38 11.4 94.63 10.69 94.17 10.31C93.71 9.92 92.9 9.31 92.36 8.96C91.83 8.61 90.85 8.05 90.18 7.73C89.52 7.4 88.46 6.97 87.82 6.76C87.18 6.55 86.28 6.29 85.82 6.19C85.37 6.09 84.57 5.95 84.06 5.88C83.55 5.8 82.36 5.73 81.42 5.71C80.48 5.69 79.5 5.69 79.24 5.71Z" />
		<path class="shp2" d="M78.92 8.12C78.74 8.14 78.09 8.22 77.48 8.3C76.87 8.38 75.78 8.57 75.07 8.73C74.35 8.88 73.14 9.2 72.38 9.43C71.61 9.66 70.4 10.07 69.69 10.34C68.97 10.6 67.89 11.04 67.28 11.31C66.67 11.57 65.43 12.16 64.54 12.6C63.65 13.05 62.39 13.71 61.74 14.07C61.09 14.44 60.06 15.03 59.47 15.4C58.87 15.77 57.71 16.5 56.89 17.04C56.08 17.58 54.7 18.54 53.83 19.17C52.96 19.8 51.94 20.58 51.56 20.89C51.18 21.2 48.44 23.49 45.49 25.99C42.53 28.49 38.23 32.11 35.93 34.05C33.64 35.99 30.03 39.04 27.91 40.83C25.8 42.61 21.64 46.12 18.69 48.62C15.73 51.12 12.13 54.16 10.68 55.38L8.05 57.6C8.14 61.05 8.18 65.68 8.21 70.11C8.23 74.55 8.29 79.48 8.32 81.07L8.39 83.97C9.61 84.96 9.91 85.27 9.88 85.33C9.85 85.4 9.5 85.94 9.1 86.54L8.37 87.63C8.42 90.36 8.48 94.46 8.53 98.52C8.59 102.57 8.71 110.87 8.81 116.96C8.91 123.05 9.06 131.23 9.13 135.13C9.21 139.02 9.27 142.55 9.27 142.96L9.27 143.7C12.47 146.06 13.45 146.78 13.52 146.82C13.59 146.87 13.95 146.66 14.54 146.21C15.03 145.84 16.13 145.04 16.97 144.44C17.81 143.84 19.21 142.89 20.08 142.31C20.94 141.74 22.39 140.83 23.3 140.28L24.95 139.3C25.57 139.8 25.68 139.94 25.64 140.04C25.61 140.11 25.31 140.99 24.98 141.98C24.65 142.98 24.09 144.75 23.74 145.92C23.39 147.09 22.92 148.74 22.69 149.58C22.45 150.42 22.02 152.11 21.71 153.34C21.41 154.56 20.93 156.6 20.65 157.88C20.36 159.15 19.92 161.26 19.67 162.56C19.41 163.86 19.02 166.03 18.79 167.38C18.56 168.73 18.22 170.81 18.04 172.01C17.86 173.21 17.59 175.19 17.44 176.41C17.28 177.64 17.05 179.62 16.93 180.82C16.8 182.01 16.67 183.43 16.64 183.97L16.59 184.94C17.21 185.38 17.78 185.75 18.27 186.04C18.75 186.34 19.9 186.94 20.82 187.39C21.74 187.84 23.3 188.55 24.3 188.97C25.29 189.38 26.24 189.78 26.41 189.86L26.71 189.99L26.71 191.98C28.25 191.88 29.31 191.77 30.05 191.66C30.79 191.55 32.2 191.3 33.2 191.1C34.19 190.9 35.38 190.66 35.84 190.55L36.68 190.36L37.42 188.65C39.21 188.54 40.2 188.45 40.76 188.36C41.32 188.28 42.46 188.07 43.31 187.89C44.15 187.71 45.61 187.34 46.55 187.07C47.5 186.8 48.58 186.48 48.96 186.36C49.53 186.18 49.68 186.09 49.85 185.82C49.96 185.64 50.44 184.79 50.93 183.92C51.41 183.05 52.22 181.68 52.72 180.86C53.22 180.05 54.07 178.71 54.61 177.9C55.15 177.08 56.13 175.66 56.79 174.75C57.44 173.83 58.47 172.45 59.06 171.69C59.65 170.92 60.66 169.67 61.29 168.91C61.93 168.14 62.93 166.97 63.51 166.31C64.09 165.65 65.45 164.17 66.54 163.02C67.63 161.87 69.17 160.31 69.98 159.55C70.78 158.78 71.98 157.66 72.65 157.05C73.32 156.45 74.59 155.32 75.49 154.55C76.39 153.78 77.93 152.5 78.92 151.71C79.91 150.91 81.62 149.6 82.72 148.78C83.81 147.97 85.42 146.8 86.29 146.2C87.16 145.59 88.76 144.51 89.86 143.79C90.96 143.07 92.77 141.91 93.89 141.22C95.01 140.54 97 139.37 98.3 138.62C99.6 137.88 101.54 136.81 102.61 136.24C103.68 135.67 105.81 134.58 107.34 133.83C108.87 133.07 110.91 132.09 111.88 131.65C112.85 131.2 114.79 130.35 116.19 129.75C117.6 129.15 119.75 128.26 120.97 127.77C122.19 127.29 124.34 126.48 125.75 125.97C127.15 125.46 129.57 124.63 131.12 124.12C132.68 123.61 135.03 122.89 136.34 122.51C137.65 122.13 138.7 121.8 138.66 121.77C138.62 121.73 131.5 119.1 122.83 115.91L107.06 110.12C104.62 111.32 102.91 112.13 101.68 112.68L99.46 113.7C94.83 110.23 93.52 109.19 93.55 109.16C93.59 109.13 94.24 108.87 95.01 108.59C95.77 108.32 97.13 107.87 98.02 107.61C98.91 107.35 100.16 107.02 100.8 106.87C101.44 106.71 102.71 106.45 103.63 106.27C104.55 106.09 105.95 105.86 106.74 105.75C107.53 105.64 108.94 105.48 109.87 105.39L111.57 105.24L112.18 104.12L101 91.06L100.99 73.96C101.31 73.89 101.53 73.87 101.68 73.87C101.96 73.86 101.96 73.87 102.22 74.91C102.37 75.48 102.7 76.58 102.95 77.34C103.21 78.1 103.69 79.36 104.03 80.12C104.37 80.89 104.95 82.01 105.31 82.62C105.67 83.23 106.29 84.17 106.69 84.71C107.08 85.24 107.93 86.2 108.58 86.84C109.22 87.48 110.15 88.28 110.63 88.62C111.12 88.96 111.89 89.45 112.35 89.7C112.81 89.96 113.66 90.36 114.25 90.6C114.83 90.83 115.86 91.16 116.52 91.33C117.18 91.5 118.23 91.72 118.84 91.81C119.69 91.94 120.47 91.98 122.18 91.97C123.74 91.97 124.76 91.92 125.61 91.81C126.27 91.72 127.42 91.53 128.16 91.38C128.9 91.23 130.04 90.97 130.71 90.79C131.37 90.61 132.54 90.25 133.3 89.99C134.07 89.73 135.13 89.33 135.67 89.12C136.2 88.9 136.91 88.58 137.25 88.42L137.85 88.12C138.57 88.35 139.07 88.48 139.42 88.55C139.78 88.63 140.49 88.74 141 88.8C141.51 88.86 143.09 88.91 144.52 88.91C145.95 88.91 147.81 88.86 148.65 88.79C149.77 88.71 150.51 88.59 151.39 88.37C152.05 88.2 153.07 88.01 153.66 87.95C154.48 87.86 154.94 87.86 155.65 87.95C156.16 88 156.89 88.16 157.28 88.29C157.66 88.42 158.2 88.65 158.48 88.81C158.76 88.97 159.32 89.43 159.73 89.84C160.27 90.39 160.57 90.78 160.8 91.26C160.98 91.62 161.16 91.92 161.2 91.91C161.25 91.9 161.46 91.45 161.68 90.92C161.91 90.38 162.19 89.55 162.33 89.06C162.46 88.58 162.63 87.81 162.7 87.35C162.78 86.89 162.84 85.94 162.84 85.24C162.84 84.37 162.78 83.68 162.66 83.06C162.57 82.57 162.4 81.89 162.28 81.56C162.17 81.23 161.93 80.62 161.74 80.21C161.55 79.81 161.19 79.16 160.94 78.78C160.7 78.39 160.22 77.75 159.88 77.35C159.55 76.94 158.91 76.3 158.48 75.92C158.05 75.55 157.58 75.17 157.45 75.08C157.25 74.96 157.18 74.82 157.1 74.37C157.05 74.07 156.9 73.44 156.76 72.98C156.63 72.53 156.4 71.8 156.24 71.36C156.08 70.93 155.69 70.03 155.37 69.37C155.05 68.71 154.45 67.66 154.05 67.05C153.64 66.44 152.92 65.48 152.44 64.92C151.95 64.36 151.19 63.55 150.73 63.13C150.28 62.7 149.42 61.99 148.84 61.55C148.25 61.1 147.33 60.48 146.8 60.16C146.26 59.84 145.53 59.44 145.17 59.27C144.82 59.1 144.34 58.88 144.11 58.78L143.69 58.6C143.58 56.46 143.47 55.25 143.36 54.54C143.26 53.83 143.03 52.64 142.84 51.9C142.66 51.16 142.31 49.99 142.05 49.3C141.8 48.62 141.31 47.51 140.96 46.85C140.62 46.19 140.08 45.25 139.75 44.76C139.43 44.28 138.93 43.59 138.65 43.23C138.36 42.88 137.71 42.15 137.2 41.62C136.69 41.09 135.81 40.29 135.25 39.83C134.69 39.37 133.77 38.69 133.21 38.32C132.65 37.95 131.79 37.43 131.31 37.16C130.83 36.89 129.95 36.46 129.36 36.19C128.78 35.93 127.8 35.52 127.18 35.28C126.57 35.05 125.47 34.69 124.73 34.48C123.99 34.27 122.78 33.97 122.04 33.82C121.3 33.67 120.25 33.5 119.7 33.43L118.71 33.32C118.18 31.95 117.84 31.18 117.61 30.72C117.38 30.26 116.96 29.51 116.68 29.05C116.4 28.6 115.81 27.74 115.38 27.15C114.94 26.57 113.99 25.5 113.28 24.78C112.56 24.07 111.58 23.17 111.09 22.78C110.61 22.4 109.84 21.83 109.38 21.52C108.92 21.21 108.19 20.74 107.76 20.48C107.32 20.22 106.26 19.65 105.39 19.23C104.52 18.81 103.33 18.27 102.75 18.05C102.16 17.82 101.22 17.48 100.66 17.3C100.1 17.12 99.14 16.85 98.53 16.7C97.92 16.54 97.18 16.37 96.88 16.32C96.36 16.22 96.34 16.2 95.82 15.5C95.52 15.11 94.93 14.39 94.5 13.91C94.06 13.43 93.29 12.68 92.78 12.25C92.27 11.82 91.5 11.24 91.06 10.95C90.63 10.66 89.86 10.22 89.35 9.96C88.84 9.7 88.05 9.35 87.59 9.19C87.13 9.02 86.36 8.78 85.87 8.66C85.39 8.53 84.59 8.36 84.11 8.28C83.58 8.2 82.44 8.13 81.23 8.11C80.14 8.09 79.09 8.1 78.92 8.12Z" />
		<path class="shp3" d="M77.71 11.04C77.28 11.09 76.4 11.23 75.76 11.36C75.13 11.49 74.06 11.77 73.4 11.99C72.74 12.21 71.63 12.63 70.94 12.93C70.25 13.22 69.02 13.78 68.21 14.18C67.39 14.58 66.14 15.23 65.42 15.62C64.71 16.01 63.5 16.71 62.73 17.17C61.97 17.63 60.59 18.5 59.67 19.12C58.76 19.73 57.28 20.77 56.4 21.42C55.53 22.08 54.78 22.66 54.76 22.71C54.73 22.76 54.93 23.26 55.2 23.82C55.47 24.38 55.73 24.84 55.78 24.84C55.83 24.83 56.25 24.62 56.71 24.36C57.17 24.1 58.31 23.5 59.26 23.03C60.2 22.56 61.62 21.89 62.41 21.55C63.2 21.21 64.51 20.66 65.33 20.34C66.15 20.02 67.58 19.51 68.51 19.2C69.44 18.88 70.86 18.44 71.66 18.2C72.46 17.97 73.79 17.62 74.6 17.42C75.42 17.23 76.84 16.92 77.76 16.74C78.67 16.56 80.05 16.33 80.82 16.22C81.58 16.12 82.79 15.97 83.51 15.89C84.33 15.79 86.07 15.72 88.28 15.69L91.76 15.64C90.97 14.93 90.3 14.43 89.77 14.07C89.23 13.7 88.25 13.15 87.59 12.82C86.92 12.5 85.88 12.07 85.27 11.87C84.66 11.67 83.74 11.42 83.23 11.32C82.72 11.21 81.86 11.09 81.33 11.03C80.79 10.98 79.94 10.94 79.43 10.95C78.92 10.95 78.14 11 77.71 11.04ZM87.59 18.36C86.77 18.4 85.46 18.5 84.67 18.58C83.87 18.66 82.66 18.81 81.98 18.91C81.29 19.01 80.14 19.2 79.43 19.33C78.71 19.47 77.59 19.69 76.92 19.84C76.26 19.99 75.07 20.28 74.28 20.49C73.49 20.69 72.1 21.09 71.2 21.37C70.29 21.64 68.89 22.11 68.09 22.39C67.29 22.67 65.94 23.18 65.1 23.51C64.26 23.85 62.86 24.43 61.99 24.81C61.13 25.2 59.7 25.86 58.82 26.29C57.94 26.71 57.22 27.07 57.22 27.09C57.21 27.1 57.37 27.46 57.55 27.9C57.74 28.33 57.89 28.7 57.9 28.71C57.91 28.72 58.41 28.59 59.02 28.4C59.64 28.22 60.58 27.97 61.11 27.85C61.65 27.73 62.56 27.54 63.15 27.44C63.74 27.34 64.74 27.18 65.38 27.1C66.01 27.02 67.52 26.93 68.72 26.9C70.08 26.87 71.4 26.89 72.24 26.96C72.98 27.02 73.99 27.13 74.49 27.21C74.99 27.28 75.88 27.44 76.48 27.57C77.08 27.7 78.07 27.95 78.68 28.13C79.3 28.32 80.28 28.66 80.86 28.89C81.45 29.12 82.56 29.62 83.32 30.01C84.09 30.4 85.28 31.09 85.97 31.55C86.66 32.01 87.68 32.77 88.24 33.22C88.8 33.68 89.71 34.52 90.28 35.08C90.84 35.64 91.59 36.49 91.95 36.98C92.31 37.46 92.98 38.42 93.44 39.11C93.9 39.8 94.55 40.82 94.88 41.38C95.22 41.94 95.77 42.9 96.1 43.51C96.44 44.12 96.98 45.19 97.3 45.88C97.63 46.56 98.13 47.69 98.42 48.38C98.7 49.07 99.09 50.05 99.27 50.56C99.46 51.07 99.79 52.09 100.01 52.83C100.23 53.57 100.56 54.86 100.74 55.7C100.92 56.54 101.16 57.88 101.26 58.67C101.37 59.46 101.45 60.28 101.45 60.5C101.45 60.71 101.61 61.86 101.81 63.04C102.02 64.23 102.33 65.91 102.52 66.77C102.7 67.64 103.02 69.02 103.22 69.83C103.43 70.65 103.76 71.88 103.96 72.57C104.16 73.26 104.5 74.36 104.73 75.02C104.95 75.69 105.29 76.62 105.48 77.11C105.67 77.59 106.15 78.66 106.55 79.47C106.94 80.29 107.57 81.41 107.94 81.97C108.44 82.73 108.93 83.31 109.83 84.2C110.51 84.88 111.43 85.68 111.91 86.01C112.38 86.34 113.15 86.82 113.62 87.07C114.09 87.33 114.88 87.71 115.36 87.93C115.84 88.14 116.64 88.44 117.12 88.6C117.61 88.75 118.46 88.98 119.02 89.11C119.58 89.24 120.63 89.41 121.34 89.49C122.32 89.61 123.08 89.63 124.45 89.59C125.52 89.56 126.75 89.46 127.46 89.35C128.12 89.25 129.06 89.08 129.55 88.97C130.03 88.87 130.91 88.64 131.5 88.46C132.08 88.29 133.05 87.98 133.65 87.77C134.25 87.57 134.74 87.36 134.74 87.33C134.74 87.29 134.31 87.04 133.79 86.78C133.27 86.51 132.34 85.99 131.73 85.63C131.12 85.26 130.24 84.69 129.78 84.36C129.32 84.03 128.66 83.52 128.3 83.24C127.95 82.95 127.29 82.34 126.83 81.88C126.37 81.42 125.73 80.69 125.41 80.26C125.08 79.83 124.61 79.08 124.36 78.59C124.11 78.11 123.8 77.36 123.68 76.92C123.55 76.49 123.34 75.57 123.2 74.88C123.07 74.2 122.85 72.8 122.72 71.78C122.59 70.76 122.4 69.53 122.3 69.05C122.2 68.56 121.98 67.79 121.81 67.33C121.65 66.87 121.36 66.2 121.16 65.85C120.96 65.49 120.55 64.95 120.24 64.64C119.93 64.33 119.25 63.73 118.74 63.31C118.23 62.89 117.56 62.35 117.25 62.11L116.68 61.68C117.85 60.27 118.24 59.86 118.3 59.87C118.37 59.87 118.7 60.01 119.05 60.18C119.39 60.36 120.01 60.75 120.41 61.05C120.82 61.35 121.49 61.95 121.9 62.38C122.31 62.81 122.91 63.56 123.23 64.04C123.55 64.53 124 65.3 124.22 65.76C124.44 66.21 124.76 67.01 124.94 67.52C125.12 68.03 125.37 68.92 125.5 69.51C125.63 70.09 125.8 71.14 125.88 71.83C125.96 72.51 126.03 73.7 126.03 74.47L126.03 75.86C127.06 77.22 127.72 78.04 128.17 78.54C128.61 79.05 129.49 79.97 130.12 80.59C130.75 81.2 131.66 82.02 132.14 82.41C132.63 82.79 133.42 83.37 133.91 83.69C134.39 84 135.18 84.46 135.67 84.7C136.15 84.95 136.84 85.25 137.2 85.39C137.56 85.52 138.52 85.8 139.33 86.01C140.15 86.21 141.32 86.45 141.93 86.53C142.63 86.63 143.68 86.68 144.76 86.68C145.83 86.68 146.89 86.62 147.58 86.52C148.2 86.44 149.18 86.26 149.76 86.13C150.35 86 151.27 85.76 151.8 85.59C152.35 85.42 153.21 85.23 153.75 85.17C154.49 85.08 154.94 85.08 155.61 85.16C156.09 85.21 156.82 85.37 157.23 85.51C157.66 85.66 158.26 85.96 158.66 86.23C159.04 86.49 159.57 86.96 159.84 87.28L160.34 87.86C160.43 87.03 160.43 86.31 160.4 85.73C160.37 85.14 160.29 84.37 160.21 84.01C160.13 83.66 159.94 83.01 159.78 82.58C159.62 82.14 159.35 81.54 159.18 81.23C159.01 80.93 158.63 80.36 158.32 79.98C158.02 79.6 157.53 79.07 157.22 78.81C156.92 78.55 156.36 78.14 155.98 77.89C155.59 77.64 155.01 77.35 154.68 77.24C154.35 77.13 153.6 76.93 153.01 76.8C152.42 76.67 151.42 76.5 150.78 76.42C150.15 76.35 149.12 76.26 148.51 76.23C147.9 76.19 147 76.09 146.52 75.99C146.03 75.9 145.2 75.67 144.66 75.48C144.13 75.3 143.25 74.92 142.72 74.65C142.18 74.38 141.37 73.89 140.92 73.57C140.46 73.25 139.67 72.59 139.16 72.1C138.66 71.62 137.92 70.8 137.53 70.28C137.15 69.77 136.63 69.01 136.39 68.61C136.15 68.21 135.95 67.86 135.95 67.82C135.95 67.78 136.35 67.41 136.85 67.01C137.35 66.6 137.78 66.27 137.81 66.29C137.85 66.3 138.13 66.66 138.44 67.08C138.75 67.5 139.31 68.16 139.68 68.55C140.05 68.93 140.73 69.56 141.19 69.93C141.65 70.3 142.4 70.84 142.86 71.13C143.31 71.42 144.11 71.86 144.62 72.1C145.13 72.35 145.92 72.68 146.38 72.84C146.84 73 147.63 73.24 148.14 73.36C148.65 73.49 149.47 73.65 149.95 73.73C150.43 73.81 151.63 73.9 152.62 73.94C154.28 74 154.4 73.99 154.4 73.84C154.4 73.75 154.25 73.21 154.06 72.64C153.87 72.06 153.43 71.03 153.09 70.34C152.75 69.65 152.25 68.76 151.99 68.35C151.72 67.94 151.26 67.3 150.97 66.91C150.68 66.53 150.07 65.83 149.62 65.35C149.16 64.87 148.35 64.13 147.82 63.7C147.28 63.27 146.47 62.68 146.01 62.4C145.55 62.11 144.63 61.61 143.97 61.29C143.31 60.97 142.26 60.54 141.65 60.34C141.04 60.14 140.22 59.91 139.84 59.84C139.46 59.76 138.71 59.63 138.17 59.55C137.64 59.48 136.57 59.35 135.81 59.26C135.04 59.18 132.98 59.08 131.22 59.04C129.34 58.99 127.58 58.9 126.95 58.81C126.37 58.73 125.47 58.58 124.96 58.48C124.45 58.38 123.57 58.17 123.01 58.02C122.45 57.87 121.55 57.6 121.02 57.41C120.48 57.23 119.69 56.93 119.25 56.75C118.82 56.57 117.9 56.14 117.21 55.8C116.53 55.45 115.5 54.89 114.94 54.55C114.38 54.2 113.51 53.63 113 53.26C112.49 52.9 111.69 52.29 111.23 51.91C110.77 51.53 109.9 50.74 109.3 50.15C108.7 49.56 107.84 48.66 107.4 48.15C106.95 47.64 106.28 46.8 105.89 46.29C105.5 45.78 104.83 44.82 104.4 44.16C103.96 43.5 103.39 42.58 103.13 42.12C102.87 41.66 102.66 41.25 102.65 41.2C102.65 41.14 102.89 40.99 103.19 40.86C103.48 40.72 103.89 40.56 104.09 40.51C104.3 40.45 104.74 40.41 105.07 40.41L105.67 40.41C106.39 41.95 106.91 42.87 107.29 43.44C107.67 44.01 108.33 44.88 108.74 45.38C109.16 45.88 109.99 46.77 110.6 47.36C111.21 47.94 112.14 48.76 112.68 49.18C113.21 49.59 114.08 50.22 114.62 50.57C115.15 50.93 115.88 51.39 116.24 51.6C116.6 51.81 117.52 52.29 118.28 52.67C119.05 53.05 120.24 53.6 120.92 53.87C121.61 54.15 122.91 54.62 123.8 54.91C124.82 55.24 125.9 55.52 126.72 55.66C127.43 55.78 128.79 55.94 129.73 56.02C130.68 56.1 132.49 56.22 133.77 56.3C135.04 56.38 136.71 56.51 137.48 56.59C138.24 56.66 139.35 56.81 139.93 56.91C140.52 57.01 141.1 57.12 141.22 57.16L141.43 57.23C141.34 56.01 141.25 55.22 141.17 54.68C141.09 54.15 140.89 53.21 140.72 52.59C140.56 51.98 140.22 51 139.99 50.42C139.75 49.83 139.34 48.96 139.08 48.47C138.83 47.99 138.38 47.24 138.1 46.8C137.82 46.37 137.27 45.6 136.88 45.09C136.5 44.58 135.61 43.6 134.93 42.91C134.24 42.22 133.19 41.29 132.61 40.84C132.02 40.38 131.19 39.77 130.75 39.48C130.32 39.19 129.65 38.79 129.27 38.6C128.89 38.41 128.18 38.1 127.69 37.91C127.21 37.72 126.4 37.44 125.89 37.28C125.38 37.12 124.46 36.86 123.85 36.71C123.23 36.56 122.06 36.31 121.25 36.16C120.43 36.01 119.06 35.8 118.19 35.69C117.32 35.59 116.01 35.46 115.27 35.4C114.53 35.35 113.42 35.22 112.81 35.12C112.2 35.01 111.36 34.85 110.96 34.75C110.55 34.66 109.71 34.43 109.1 34.24C108.49 34.06 107.53 33.72 106.97 33.49C106.41 33.26 105.43 32.81 104.79 32.48C104.15 32.16 103.13 31.56 102.52 31.15C101.9 30.75 101.11 30.18 100.75 29.89C100.4 29.61 99.65 28.93 99.1 28.38C98.54 27.83 97.84 27.08 97.54 26.71C97.24 26.34 97 26.01 97 25.97C97 25.93 97.56 25.62 98.25 25.28L99.5 24.65C100.62 25.77 101.36 26.46 101.87 26.91C102.38 27.37 103.25 28.08 103.81 28.5C104.38 28.92 105.31 29.57 105.9 29.93C106.49 30.3 107.47 30.84 108.08 31.14C108.69 31.44 109.59 31.83 110.07 32.01C110.56 32.18 111.46 32.44 112.07 32.57C112.81 32.74 113.58 32.84 114.39 32.88C115.05 32.91 115.75 32.9 115.94 32.87L116.29 32.81C115.91 32.05 115.52 31.42 115.19 30.91C114.85 30.4 114.24 29.57 113.83 29.06C113.42 28.55 112.63 27.67 112.07 27.11C111.51 26.54 110.67 25.77 110.21 25.39C109.75 25.01 108.96 24.4 108.45 24.04C107.94 23.67 107.13 23.13 106.64 22.84C106.16 22.55 105.2 22.03 104.51 21.68C103.82 21.33 102.8 20.86 102.24 20.64C101.68 20.41 100.7 20.05 100.06 19.83C99.42 19.62 98.23 19.29 97.42 19.09C96.6 18.89 95.49 18.66 94.96 18.59C94.42 18.51 93.21 18.41 92.27 18.35C91.33 18.3 90.22 18.26 89.81 18.27C89.4 18.28 88.4 18.32 87.59 18.36ZM48.87 27.4C47.16 28.8 44.39 31.08 42.7 32.46C41.02 33.85 37.22 36.98 34.26 39.43C31.31 41.87 26.01 46.27 22.49 49.21C18.97 52.15 14.9 55.56 13.44 56.8L10.78 59.05C10.77 68.05 10.72 72.42 10.67 74.56C10.61 76.7 10.53 79.43 10.48 80.63C10.44 81.83 10.42 82.83 10.44 82.85C10.46 82.88 12.22 82.23 14.35 81.41L18.22 79.91C18.31 80.43 18.37 81.58 18.41 82.81L18.48 85.03C11.16 88.09 10.94 88.2 10.94 88.42C10.94 88.54 11.15 99.84 11.41 113.53C11.67 127.22 11.89 138.42 11.9 138.42C11.91 138.43 12.32 138.75 12.82 139.14L13.72 139.85C16.56 137.92 18.33 136.74 19.47 135.99C20.62 135.24 22.6 133.98 23.88 133.18C25.15 132.38 27.32 131.06 28.7 130.24C30.08 129.43 32.39 128.09 33.85 127.27C35.3 126.46 37.6 125.2 38.95 124.47C40.3 123.75 43.22 122.25 45.44 121.14C47.66 120.04 50.54 118.63 51.84 118.03C53.14 117.43 55.04 116.56 56.06 116.11C57.08 115.65 58.79 114.9 59.86 114.44C60.93 113.98 62.52 113.31 63.38 112.95C64.25 112.6 66 111.89 67.28 111.38C68.55 110.87 70.97 109.94 72.66 109.31C74.34 108.69 76.91 107.76 78.36 107.25C79.81 106.74 81.96 106.01 83.14 105.63C84.31 105.24 86.35 104.59 87.68 104.18C89.01 103.77 91.03 103.17 92.18 102.84C93.32 102.5 95.26 101.96 96.49 101.64C97.71 101.31 99.7 100.81 100.89 100.52C102.09 100.23 103.47 99.91 103.97 99.79L104.86 99.58C102.15 96.42 101.31 95.49 101.24 95.48C101.18 95.46 100.46 95.64 99.64 95.88C98.83 96.11 96.43 96.83 94.31 97.47C92.19 98.1 88.58 99.2 86.29 99.91C83.99 100.62 81.32 101.47 80.35 101.79C79.38 102.12 77.88 102.64 77.01 102.95C76.15 103.25 74.52 103.84 73.4 104.25C72.28 104.65 70.31 105.38 69.04 105.87C67.76 106.35 65.72 107.14 64.5 107.62C63.27 108.11 61.19 108.95 59.86 109.5C58.53 110.04 56.15 111.04 54.57 111.72C52.99 112.4 50.41 113.55 48.82 114.27C47.24 114.99 45.11 116.03 44.09 116.58C43.07 117.13 41.55 117.94 40.71 118.38C39.87 118.82 38.07 119.7 36.72 120.35C35.37 120.99 33.01 122.08 31.48 122.75C29.95 123.43 27.92 124.31 26.96 124.69C26.01 125.08 24.8 125.5 24.27 125.63C23.75 125.77 22.93 125.9 22.44 125.92C21.79 125.96 21.4 125.93 20.96 125.82C20.63 125.73 20.08 125.5 19.75 125.31C19.42 125.11 18.96 124.76 18.73 124.53C18.5 124.3 18.18 123.89 18.01 123.62C17.85 123.35 17.6 122.81 17.47 122.43C17.34 122.05 17.19 121.42 17.14 121.04C17.09 120.66 16.82 113.19 16.55 104.45C16.27 95.71 16.04 88.35 16.04 88.09L16.04 87.63C17.84 86.87 18.4 86.65 18.45 86.65C18.51 86.65 18.55 86.97 18.55 87.42C18.54 87.84 18.69 94.98 18.87 103.29C19.05 111.72 19.24 118.74 19.29 119.18C19.35 119.62 19.5 120.31 19.63 120.71C19.76 121.12 19.99 121.69 20.13 121.99C20.28 122.28 20.56 122.69 20.75 122.9C20.97 123.13 21.25 123.32 21.51 123.4C21.74 123.47 22.1 123.55 22.3 123.59C22.51 123.62 22.97 123.6 23.32 123.54C23.68 123.49 24.24 123.35 24.57 123.25C24.91 123.14 27.01 122.23 29.26 121.22C31.5 120.21 34.4 118.9 35.7 118.3C37 117.7 39.74 116.4 41.78 115.41C43.82 114.41 46.95 112.91 48.73 112.07C50.52 111.23 53.35 109.92 55.04 109.16C56.72 108.39 58.62 107.54 59.26 107.26C59.89 106.98 61.31 106.36 62.41 105.89C63.51 105.41 65.15 104.71 66.07 104.33C66.99 103.95 68.68 103.26 69.83 102.8C70.98 102.34 72.62 101.71 73.49 101.39C74.36 101.07 79.72 99.25 85.41 97.34C91.09 95.43 96.49 93.62 97.39 93.32L99.04 92.77C98.97 90.29 98.93 83.48 98.9 76.04C98.86 65 98.83 62.26 98.71 61.17C98.64 60.43 98.49 59.32 98.39 58.71C98.29 58.1 98.1 57.08 97.97 56.44C97.83 55.8 97.56 54.68 97.37 53.94C97.17 53.2 96.75 51.84 96.44 50.93C96.12 50.01 95.62 48.69 95.32 47.98C95.02 47.28 94.54 46.24 94.25 45.67C93.97 45.09 93.46 44.15 93.12 43.56C92.79 42.97 92.21 42.03 91.85 41.47C91.48 40.91 90.86 40.04 90.48 39.53C90.1 39.02 89.39 38.14 88.91 37.58C88.42 37.02 87.45 36 86.74 35.3C86.03 34.61 85.14 33.84 84.76 33.58C84.38 33.32 83.65 32.88 83.14 32.6C82.63 32.32 81.77 31.9 81.23 31.67C80.7 31.44 79.82 31.1 79.29 30.91C78.75 30.72 77.77 30.43 77.11 30.26C76.44 30.09 75.42 29.86 74.84 29.76C74.25 29.66 73.31 29.52 72.75 29.46C72.14 29.38 70.75 29.34 69.27 29.34C67.54 29.34 66.42 29.39 65.47 29.51C64.73 29.6 63.56 29.77 62.87 29.9C62.18 30.02 60.95 30.3 60.14 30.51C59.32 30.71 57.94 31.11 57.08 31.39C56.21 31.67 54.77 32.2 53.88 32.55C52.99 32.91 51.52 33.53 50.63 33.94C49.74 34.34 48.32 35.03 47.48 35.47C46.64 35.9 45.37 36.6 44.65 37C43.94 37.41 42.81 38.09 42.15 38.51C41.48 38.92 40.59 39.51 40.15 39.81C39.72 40.11 38.99 40.62 38.53 40.95C38.07 41.29 37.1 42.03 36.37 42.6C35.65 43.18 34.56 44.08 33.96 44.61C33.36 45.14 32.1 46.36 31.16 47.32C30.21 48.29 29.09 49.49 28.67 50C28.24 50.51 27.47 51.49 26.95 52.18C26.43 52.87 25.67 53.93 25.27 54.54C24.87 55.15 24.25 56.15 23.9 56.77C23.55 57.38 22.93 58.54 22.54 59.36C22.14 60.18 21.6 61.36 21.35 62C21.09 62.64 20.67 63.79 20.42 64.55C20.16 65.32 19.79 66.63 19.58 67.47C19.37 68.31 19.09 69.58 18.96 70.3C18.83 71.01 18.67 72.09 18.59 72.71C18.52 73.32 18.41 74.46 18.35 75.25C18.3 76.07 18.28 77.15 18.31 77.76L18.38 78.82C16.6 79.51 16.07 79.68 16.04 79.65C16.02 79.62 15.97 79.25 15.93 78.84C15.9 78.42 15.87 77.25 15.86 76.23C15.86 75.21 15.9 73.83 15.95 73.17C16.01 72.51 16.13 71.38 16.23 70.67C16.34 69.95 16.57 68.72 16.74 67.93C16.92 67.14 17.23 65.93 17.44 65.25C17.65 64.56 18.05 63.39 18.33 62.65C18.61 61.91 19.21 60.56 19.65 59.64C20.1 58.72 20.72 57.51 21.05 56.95C21.37 56.39 21.99 55.39 22.42 54.73C22.85 54.06 23.5 53.13 23.86 52.64C24.22 52.16 24.85 51.34 25.26 50.83C25.67 50.32 26.44 49.41 26.98 48.8C27.52 48.19 28.59 47.07 29.35 46.3C30.12 45.54 31.22 44.49 31.81 43.97C32.39 43.44 33.42 42.57 34.08 42.03C34.74 41.49 35.91 40.57 36.68 39.99C37.44 39.42 38.9 38.39 39.92 37.7C40.94 37.01 42.61 35.95 43.63 35.34C44.65 34.73 46.11 33.89 46.88 33.47C47.64 33.05 49.14 32.28 50.22 31.75C51.29 31.23 52.78 30.53 53.53 30.2L54.89 29.61C54.69 29.25 54.07 28.19 53.39 27.02C52.72 25.86 52.12 24.89 52.07 24.87C52.02 24.86 50.58 26 48.87 27.4Z" />
		<path class="shp2" d="M68.3 31.05C67.53 31.09 66.22 31.22 65.38 31.33C64.54 31.44 63.14 31.67 62.27 31.85C61.4 32.03 60.15 32.31 59.49 32.49C58.83 32.66 57.49 33.06 56.52 33.37C55.55 33.68 54.01 34.24 53.09 34.6C52.17 34.96 50.27 35.83 48.87 36.53C47.47 37.23 45.63 38.21 44.79 38.7C43.95 39.19 42.53 40.08 41.64 40.67C40.74 41.26 39.37 42.23 38.58 42.83C37.79 43.42 36.81 44.19 36.4 44.53C35.99 44.87 35.16 45.59 34.55 46.14C33.95 46.68 32.88 47.71 32.19 48.43C31.49 49.14 30.47 50.27 29.92 50.93C29.37 51.59 28.62 52.53 28.25 53.01C27.89 53.5 27.21 54.45 26.75 55.14C26.29 55.83 25.64 56.87 25.3 57.46C24.97 58.05 24.4 59.11 24.04 59.82C23.68 60.54 23.2 61.56 22.97 62.09C22.74 62.63 22.36 63.61 22.12 64.27C21.88 64.94 21.49 66.12 21.27 66.91C21.04 67.7 20.71 69.06 20.54 69.93C20.37 70.79 20.16 72.06 20.09 72.75C20.01 73.44 19.93 74.46 19.9 75.02C19.87 75.58 19.88 76.52 19.91 77.11L19.98 78.18C40.54 70.17 46.54 67.88 46.57 67.91C46.61 67.95 47.53 69.08 48.63 70.44C49.87 71.96 50.58 72.91 50.51 72.95C50.45 72.98 43.58 75.92 35.24 79.47C26.9 83.03 20.07 85.94 20.06 85.95C20.05 85.95 20.16 93.24 20.31 102.13C20.53 114.88 20.61 118.44 20.72 118.95C20.79 119.31 20.93 119.83 21.04 120.11C21.14 120.39 21.35 120.79 21.49 120.99C21.64 121.2 21.92 121.47 22.12 121.59C22.42 121.78 22.6 121.83 23.14 121.83C23.63 121.83 23.95 121.76 24.44 121.57C24.79 121.44 25.69 121.09 26.43 120.8C27.17 120.51 28.5 119.95 29.4 119.55C30.29 119.16 31.6 118.56 32.32 118.23C33.03 117.9 34.43 117.25 35.42 116.78C36.42 116.31 39.01 115.04 41.17 113.96C43.34 112.88 46.78 111.22 48.82 110.27C50.86 109.32 54.14 107.82 56.1 106.92C58.07 106.03 61.66 104.42 64.08 103.34C66.5 102.26 69.11 101.08 69.87 100.73C70.64 100.38 71.89 99.74 72.66 99.31C73.42 98.89 74.46 98.28 74.97 97.96C75.48 97.64 76.17 97.19 76.5 96.95C76.84 96.72 77.5 96.23 77.99 95.87C78.47 95.5 79.33 94.81 79.89 94.32C80.45 93.84 81.39 92.95 81.98 92.34C82.57 91.74 83.35 90.89 83.71 90.45C84.07 90.02 84.7 89.21 85.1 88.65C85.5 88.09 86.11 87.17 86.45 86.61C86.79 86.05 87.4 84.9 87.8 84.06C88.21 83.22 88.74 81.99 88.98 81.33C89.22 80.66 89.56 79.6 89.73 78.96C89.91 78.32 90.15 77.3 90.27 76.69C90.4 76.08 90.56 75.06 90.65 74.42C90.73 73.78 90.83 72.32 90.85 71.18C90.89 69.88 90.86 68.58 90.79 67.75C90.73 67.01 90.6 65.92 90.5 65.34C90.39 64.75 90.25 63.86 90.17 63.35C90.09 62.84 89.93 61.96 89.8 61.4C89.68 60.84 89.47 60.03 89.34 59.59C89.21 59.16 88.93 58.32 88.72 57.74C88.5 57.15 88.05 56.11 87.72 55.42C87.38 54.73 86.86 53.77 86.56 53.29C86.26 52.81 85.81 52.12 85.56 51.76C85.31 51.4 84.85 50.8 84.54 50.42C84.23 50.03 83.41 49.16 82.72 48.46C82.03 47.77 81.05 46.87 80.54 46.47C80.03 46.07 79.28 45.5 78.87 45.21C78.46 44.92 77.67 44.41 77.11 44.07C76.55 43.74 75.57 43.19 74.93 42.87C74.29 42.55 73.27 42.06 72.66 41.8C72.04 41.53 70.69 41.03 69.64 40.68C68.6 40.34 67.09 39.91 66.3 39.73C65.51 39.55 64.71 39.38 64.52 39.35C64.33 39.32 64.17 39.26 64.17 39.23C64.17 39.19 64.49 39.08 64.89 39C65.28 38.91 65.88 38.79 66.21 38.74C66.54 38.69 67.29 38.63 67.88 38.59C68.49 38.56 69.46 38.58 70.15 38.64C70.82 38.7 71.88 38.85 72.52 38.98C73.15 39.11 74.05 39.32 74.51 39.45C74.97 39.59 75.68 39.82 76.09 39.97C76.5 40.12 77.23 40.41 77.71 40.61C78.19 40.82 79 41.19 79.5 41.44C79.99 41.69 80.87 42.17 81.44 42.51C82.02 42.85 83.05 43.5 83.74 43.97C84.43 44.43 85.47 45.18 86.06 45.63C86.64 46.09 87.52 46.8 88 47.22C88.49 47.64 89.33 48.41 89.88 48.94C90.43 49.47 90.91 49.89 90.94 49.86C90.96 49.84 90.88 49.42 90.74 48.93C90.61 48.45 90.23 47.51 89.91 46.85C89.59 46.19 89.08 45.22 88.76 44.69L88.19 43.74C90.42 43.74 91.06 43.71 91.06 43.67C91.06 43.64 90.85 43.21 90.59 42.72C90.33 42.24 89.84 41.43 89.51 40.92C89.18 40.41 88.65 39.66 88.34 39.25C88.04 38.84 87.22 37.94 86.53 37.25C85.83 36.55 84.91 35.72 84.48 35.4C84.05 35.07 83.36 34.6 82.95 34.35C82.54 34.1 81.81 33.69 81.33 33.45C80.84 33.21 80.07 32.86 79.61 32.67C79.15 32.49 78.28 32.19 77.66 32.01C77.05 31.83 76.01 31.59 75.35 31.47C74.68 31.35 73.64 31.2 73.03 31.15C72.42 31.1 71.41 31.04 70.8 31.02C70.19 31 69.06 31.01 68.3 31.05Z" />
		<path class="shp3" d="M46.37 42.97C45.93 43.1 45.12 43.39 44.56 43.62C44 43.85 43.02 44.31 42.38 44.64C41.74 44.97 40.76 45.54 40.2 45.92C39.64 46.29 38.8 46.88 38.35 47.24C37.89 47.6 37.11 48.26 36.63 48.71C36.15 49.15 35.38 49.92 34.93 50.41C34.48 50.9 33.7 51.84 33.2 52.5C32.71 53.16 32.09 54.04 31.83 54.45C31.58 54.86 31.2 55.48 31 55.84C30.79 56.2 30.37 56.99 30.07 57.6C29.76 58.21 29.24 59.4 28.91 60.24C28.57 61.08 28.15 62.25 27.96 62.84C27.78 63.42 27.44 64.65 27.21 65.57C26.99 66.49 26.68 67.97 26.53 68.86C26.38 69.75 26.19 71.04 26.11 71.73C26.02 72.42 25.97 73.11 25.98 73.27L26.01 73.56L30.93 71.62C30.87 68.6 30.91 67.36 30.97 66.77C31.03 66.21 31.16 65.3 31.26 64.74C31.36 64.18 31.59 63.17 31.76 62.51C31.93 61.85 32.24 60.85 32.44 60.29C32.65 59.73 32.93 59 33.06 58.67C33.2 58.33 33.6 57.5 33.94 56.81C34.29 56.12 34.86 55.1 35.21 54.54C35.56 53.98 36.2 53.04 36.64 52.46C37.07 51.87 37.81 50.95 38.27 50.42C38.73 49.88 39.65 48.92 40.31 48.28C40.96 47.64 41.87 46.81 42.33 46.43C42.79 46.04 43.58 45.42 44.09 45.03C44.6 44.65 45.51 44 46.11 43.6C46.72 43.19 47.21 42.83 47.2 42.79C47.2 42.76 47.19 42.73 47.18 42.73C47.17 42.73 46.8 42.84 46.37 42.97ZM72.7 57.66C72.17 57.87 71.72 58.06 71.71 58.08C71.69 58.09 72.25 59.14 72.95 60.4C73.64 61.66 74.23 62.72 74.25 62.74C74.27 62.77 74.52 62.69 74.82 62.57C75.11 62.44 75.52 62.26 75.74 62.17L76.13 62C74.37 58.34 73.82 57.28 73.77 57.28C73.72 57.28 73.24 57.45 72.7 57.66ZM69.32 58.98C68.91 59.15 68.58 59.32 68.59 59.37C68.6 59.42 69.16 60.5 69.83 61.77C70.51 63.04 71.06 64.1 71.07 64.11C71.08 64.13 71.47 63.98 71.94 63.79C72.41 63.6 72.79 63.42 72.79 63.39C72.79 63.37 72.24 62.3 71.56 61.03C70.87 59.75 70.26 58.7 70.19 58.69C70.12 58.68 69.73 58.81 69.32 58.98ZM65.79 60.36C65.28 60.55 64.84 60.75 64.8 60.78C64.76 60.81 65.29 61.96 65.98 63.32L67.23 65.8C68.42 65.28 68.88 65.1 69.02 65.05C69.16 65 69.27 64.95 69.27 64.92C69.27 64.9 68.71 63.78 68.01 62.44C67.32 61.1 66.74 60.01 66.73 60C66.72 60 66.29 60.16 65.79 60.36ZM25.92 61.1C25.73 61.31 25.4 61.76 25.18 62.09C24.96 62.43 24.56 63.11 24.31 63.62C24.05 64.13 23.67 64.99 23.46 65.52C23.26 66.06 22.92 67.06 22.73 67.75C22.53 68.44 22.24 69.62 22.08 70.39C21.93 71.15 21.72 72.43 21.62 73.22C21.52 74.01 21.42 74.81 21.4 75C21.38 75.28 21.41 75.35 21.51 75.32C21.59 75.3 22.23 75.06 22.93 74.78L24.21 74.28C24.12 72.49 24.14 71.21 24.2 70.3C24.25 69.38 24.38 68.04 24.48 67.33C24.59 66.62 24.82 65.43 25 64.69C25.19 63.95 25.45 63.03 25.59 62.65C25.73 62.27 25.98 61.67 26.14 61.33C26.3 60.99 26.39 60.7 26.34 60.7C26.3 60.7 26.1 60.88 25.92 61.1ZM61.06 62.19C60.4 62.46 59.95 62.69 59.96 62.76C59.96 62.83 60.56 63.9 61.29 65.15C62.02 66.4 62.66 67.48 62.72 67.55C62.81 67.65 63.04 67.58 63.99 67.18C64.62 66.92 65.19 66.67 65.24 66.62C65.29 66.58 64.78 65.63 63.89 64.14C63.01 62.67 62.4 61.74 62.32 61.74C62.24 61.74 61.68 61.94 61.06 62.19ZM56.66 63.91C55.97 64.18 55.33 64.44 55.24 64.48C55.1 64.54 55.32 64.9 56.76 67.01C57.69 68.36 58.46 69.47 58.48 69.49C58.5 69.5 59.11 69.26 59.84 68.95C60.56 68.64 61.17 68.37 61.18 68.34C61.19 68.32 60.5 67.2 59.65 65.85C58.8 64.5 58.06 63.4 58 63.4C57.95 63.41 57.35 63.63 56.66 63.91ZM51.42 65.95C50.71 66.23 50.11 66.48 50.1 66.5C50.09 66.53 50.83 67.66 51.75 69.02C52.68 70.39 53.46 71.53 53.49 71.56C53.53 71.6 54.22 71.35 55.04 71C55.85 70.66 56.52 70.33 56.52 70.27C56.52 70.2 55.72 69.09 54.74 67.79C53.75 66.49 52.9 65.43 52.83 65.44C52.77 65.44 52.13 65.67 51.42 65.95ZM28.45 97.67C27.61 98.06 26.89 98.4 26.86 98.42C26.84 98.45 26.94 101.91 27.08 106.12C27.23 110.32 27.37 113.81 27.38 113.86C27.39 113.92 28.11 113.63 28.98 113.23C29.85 112.83 30.58 112.48 30.6 112.45C30.63 112.43 30.53 108.96 30.38 104.74C30.23 100.53 30.08 97.05 30.05 97.02C30.02 96.99 29.3 97.28 28.45 97.67ZM22.95 100.19C22.29 100.5 21.71 100.78 21.68 100.81C21.64 100.85 21.69 104.3 21.8 108.48C21.91 112.66 22.01 116.17 22.03 116.29C22.07 116.49 22.11 116.48 23.35 115.89C24.05 115.55 24.65 115.25 24.69 115.22C24.72 115.18 24.67 112.05 24.57 108.25C24.47 104.45 24.39 100.96 24.39 100.49C24.39 99.86 24.36 99.63 24.27 99.63C24.21 99.63 23.61 99.89 22.95 100.19ZM104.7 101.68C104.21 101.78 102.96 102.05 101.91 102.28C100.87 102.51 99.01 102.95 97.79 103.25C96.56 103.56 94.58 104.08 93.38 104.42C92.18 104.75 90.31 105.29 89.21 105.62C88.11 105.95 85.55 106.78 83.51 107.46C81.47 108.14 78.75 109.08 77.48 109.55C76.2 110.02 74.14 110.8 72.89 111.28C71.64 111.76 69.51 112.61 68.16 113.16C66.81 113.71 64.8 114.55 63.71 115.02C62.61 115.49 60.8 116.28 59.67 116.78C58.55 117.27 56.55 118.18 55.22 118.79C53.9 119.41 51.73 120.43 50.4 121.06C49.07 121.7 46.67 122.87 45.07 123.68C43.46 124.48 41.1 125.68 39.83 126.34C38.55 127.01 36.38 128.16 35.01 128.89C33.63 129.63 31.38 130.86 30 131.63C28.62 132.39 26.37 133.66 24.99 134.45C23.61 135.24 21.51 136.48 20.31 137.19C19.11 137.91 17.07 139.15 15.76 139.95L13.4 141.41L11.6 141.1L11.59 142.72C12.92 143.45 13.36 143.64 13.42 143.61C13.49 143.58 14.28 143.07 15.19 142.46C16.09 141.86 17.69 140.82 18.73 140.16C19.78 139.49 21.72 138.29 23.04 137.47C24.37 136.66 26.79 135.2 28.42 134.23C30.05 133.26 32.83 131.63 34.59 130.61C36.35 129.6 38.51 128.36 39.39 127.87C40.27 127.37 41.05 126.99 41.13 127.02C41.2 127.04 41.37 127.28 41.49 127.55C41.62 127.82 41.78 128.29 41.86 128.59C41.94 128.9 42.01 129.27 42.03 129.42C42.05 129.68 42.01 129.71 38.95 131.3C37.24 132.19 35.83 132.92 35.83 132.93C35.82 132.94 35.74 133.34 35.66 133.83C35.58 134.31 35.37 135.27 35.19 135.96C35.02 136.65 34.32 138.9 33.63 140.96C32.94 143.03 32 145.99 31.54 147.54C31.08 149.1 30.44 151.32 30.12 152.48C29.8 153.65 29.49 154.6 29.44 154.6C29.39 154.61 28.8 154.56 28.12 154.51C27.02 154.41 26.9 154.38 26.94 154.24C26.96 154.15 27.15 153.45 27.36 152.69C27.57 151.92 28.03 150.28 28.39 149.03C28.75 147.78 29.29 145.92 29.6 144.9C29.9 143.88 30.51 141.92 30.94 140.55C31.37 139.17 31.71 138.02 31.7 137.98C31.68 137.95 30.81 138.55 29.77 139.31C28.72 140.08 27.82 140.75 27.76 140.81C27.7 140.87 27.37 141.92 27.03 143.14C26.69 144.37 26.04 146.83 25.59 148.61C25.14 150.39 24.56 152.77 24.31 153.89C24.05 155.01 23.6 157.04 23.32 158.39C23.03 159.74 22.57 162.03 22.29 163.48C22.01 164.94 21.54 167.59 21.24 169.37C20.94 171.15 20.5 173.95 20.27 175.58C20.04 177.21 19.73 179.67 19.57 181.05C19.35 183 19.32 183.57 19.41 183.62C19.47 183.66 19.88 183.88 20.31 184.1C20.74 184.32 21.6 184.71 22.21 184.97C22.82 185.23 24.07 185.71 24.99 186.05C25.91 186.39 26.67 186.65 26.67 186.63C26.68 186.62 26.73 186.09 26.79 185.45C26.85 184.81 27.05 182.98 27.22 181.37C27.4 179.77 27.71 177.28 27.92 175.86C28.12 174.43 28.45 172.28 28.66 171.08C28.87 169.89 29.22 167.97 29.45 166.82C29.68 165.67 30.08 163.84 30.34 162.74C30.6 161.65 31.06 159.85 31.36 158.76C31.67 157.66 32.2 155.91 32.55 154.87C32.89 153.82 33.44 152.32 33.76 151.53C34.07 150.74 34.43 149.89 34.56 149.65C34.68 149.41 34.82 149.21 34.87 149.21C34.92 149.21 34.96 149.46 34.96 149.77C34.96 150.07 35.04 150.73 35.14 151.23C35.24 151.72 35.43 152.5 35.58 152.95L35.84 153.78C34.93 156.45 34.41 158.15 34.08 159.27C33.76 160.39 33.26 162.22 32.98 163.35C32.7 164.47 32.28 166.24 32.05 167.28C31.82 168.33 31.42 170.27 31.17 171.59C30.91 172.92 30.51 175.11 30.28 176.46C30.05 177.81 29.66 180.38 29.41 182.16C29.15 183.94 28.85 186.2 28.73 187.18C28.61 188.16 28.55 188.99 28.59 189.03C28.63 189.08 29.42 188.99 30.35 188.85C31.28 188.71 32.59 188.5 33.26 188.39L34.49 188.18C34.93 186.39 35.25 185.2 35.49 184.38C35.72 183.57 36.2 182.05 36.56 181C36.92 179.96 37.48 178.45 37.81 177.66C38.14 176.87 38.71 175.62 39.08 174.88C39.45 174.15 40.03 173.1 40.36 172.57C40.7 172.03 41.58 170.55 42.34 169.28C43.09 168 44.5 165.58 45.48 163.9C46.46 162.22 47.65 160.16 48.13 159.33C48.62 158.49 49.07 157.76 49.15 157.7C49.23 157.63 50.01 157.18 50.89 156.69C51.77 156.2 52.51 155.81 52.53 155.84C52.56 155.86 52.15 156.56 51.62 157.39C51.1 158.22 50.1 159.84 49.41 160.98C48.73 162.13 47.68 163.92 47.09 164.97C46.5 166.01 45.65 167.53 45.21 168.35C44.77 169.17 43.67 171.31 42.76 173.12C41.86 174.93 40.8 177.12 40.41 177.99C40.02 178.86 39.39 180.29 39.01 181.19C38.63 182.08 38.09 183.41 37.81 184.15C37.52 184.89 37.27 185.61 37.24 185.75C37.19 185.99 37.21 186.01 37.51 186.01C37.69 186.01 38.26 185.94 38.79 185.86C39.31 185.79 40.57 185.52 41.59 185.27C42.61 185.02 44.15 184.6 45.02 184.34C45.89 184.08 46.64 183.83 46.69 183.79C46.74 183.74 47.07 183.19 47.42 182.56C47.77 181.93 48.46 180.77 48.95 179.98C49.43 179.19 50.33 177.79 50.94 176.88C51.56 175.96 52.54 174.54 53.13 173.73C53.72 172.91 54.72 171.58 55.36 170.76C55.99 169.94 57.12 168.55 57.86 167.66C58.6 166.76 59.66 165.51 60.22 164.87C60.78 164.24 61.96 162.94 62.84 162C63.72 161.06 65.07 159.66 65.86 158.89C66.64 158.11 68.03 156.84 68.95 156.06C69.87 155.27 71.22 154.13 71.96 153.51C72.7 152.9 74.22 151.67 75.35 150.77C76.47 149.88 78.41 148.38 79.66 147.44C80.91 146.5 82.74 145.15 83.74 144.44C84.73 143.73 86.74 142.35 88.19 141.37C89.64 140.4 91.63 139.1 92.59 138.49C93.56 137.88 95.04 136.96 95.89 136.45C96.73 135.94 98.48 134.92 99.78 134.18C101.08 133.44 102.94 132.4 103.91 131.88C104.88 131.37 106.96 130.3 108.54 129.52C110.13 128.74 112.09 127.8 112.9 127.43C113.72 127.06 115.01 126.49 115.78 126.16C116.54 125.83 117.98 125.24 118.98 124.84C119.97 124.44 121.54 123.84 122.45 123.51C123.37 123.18 124.81 122.68 125.65 122.41C126.5 122.13 127.69 121.76 128.32 121.59C128.94 121.41 129.46 121.24 129.46 121.2C129.46 121.16 129.34 121.08 129.2 121.03C129.06 120.97 127.8 120.53 126.4 120.05C124.99 119.56 122.74 118.79 121.39 118.33L118.93 117.49C118.07 117.79 116.9 118.26 115.78 118.72C114.66 119.19 112.86 119.96 111.79 120.43C110.72 120.91 108.86 121.76 107.66 122.33C106.46 122.9 104.52 123.86 103.35 124.46C102.18 125.06 100.55 125.92 99.73 126.37C98.92 126.82 97.54 127.6 96.67 128.11C95.81 128.62 94.41 129.48 93.57 130.01C92.73 130.55 91.58 131.3 91.02 131.68C90.46 132.07 89.52 132.74 88.93 133.17C88.34 133.6 87.38 134.34 86.8 134.81C86.21 135.27 85.35 136 84.87 136.41C84.4 136.83 83.98 137.16 83.95 137.16C83.91 137.16 83.35 136.81 82.7 136.4L81.52 135.63C81.86 135.2 82.51 134.58 83.19 133.97C83.86 133.35 84.96 132.42 85.63 131.88C86.3 131.34 87.39 130.51 88.05 130.03C88.71 129.55 90.09 128.61 91.11 127.94C92.13 127.27 93.9 126.15 95.05 125.47C96.2 124.78 97.89 123.8 98.81 123.29C99.73 122.78 101.21 121.97 102.1 121.5C102.99 121.03 105.08 119.97 106.74 119.14C108.39 118.32 110.66 117.23 111.76 116.73C112.87 116.22 113.75 115.78 113.71 115.74C113.67 115.71 112.15 115.18 110.33 114.56L107.01 113.44C104.1 114.89 102.01 115.96 100.48 116.75C98.95 117.55 96.19 118.98 94.36 119.95C92.52 120.92 89.62 122.46 87.91 123.38C86.2 124.3 83.66 125.67 82.25 126.44C80.85 127.2 78.72 128.37 77.52 129.03C76.33 129.7 74.64 130.66 73.77 131.18C72.9 131.7 71.27 132.72 70.15 133.45C69.03 134.18 67.13 135.45 65.93 136.27C64.73 137.09 62.96 138.32 61.99 139.02C61.02 139.71 59.5 140.82 58.61 141.49C57.71 142.15 56 143.4 54.81 144.25C53.61 145.11 51.52 146.54 50.17 147.44C48.82 148.34 47.31 149.33 46.83 149.65C46.35 149.96 45.69 150.35 45.37 150.5C45.05 150.66 44.51 150.85 44.16 150.94C43.75 151.03 43.32 151.07 42.89 151.04C42.53 151.01 42.01 150.9 41.73 150.8C41.4 150.68 41.06 150.45 40.76 150.15C40.5 149.9 40.16 149.43 40 149.11C39.84 148.78 39.64 148.27 39.56 147.96C39.48 147.66 39.38 146.95 39.33 146.39C39.27 145.76 39.27 144.92 39.32 144.21C39.36 143.57 39.47 142.63 39.55 142.12C39.63 141.61 39.78 140.8 39.88 140.32C39.98 139.83 40.17 139.04 40.3 138.55C40.43 138.07 40.66 137.28 40.81 136.79C40.96 136.31 41.2 135.75 41.34 135.56C41.48 135.36 41.76 135.12 41.96 135.03C42.17 134.93 42.49 134.85 42.68 134.85C42.9 134.85 43.03 134.89 43.03 134.96C43.03 135.03 42.88 135.73 42.71 136.52C42.53 137.31 42.28 138.58 42.16 139.34C42.03 140.11 41.88 141.27 41.82 141.94C41.75 142.65 41.73 143.69 41.76 144.49C41.79 145.22 41.88 146.1 41.96 146.43C42.04 146.76 42.23 147.26 42.38 147.54C42.53 147.82 42.75 148.15 42.86 148.26C42.98 148.38 43.24 148.53 43.45 148.6C43.79 148.72 43.84 148.72 44.18 148.53C44.37 148.42 44.72 148.12 44.95 147.87C45.18 147.61 45.53 147.07 45.72 146.66C45.92 146.26 46.18 145.53 46.31 145.04C46.43 144.56 46.61 143.66 46.7 143.05C46.83 142.17 46.87 141.34 46.87 139.11C46.88 137.56 46.84 135.99 46.8 135.63L46.73 134.99C48.1 133.66 48.54 133.27 48.59 133.27C48.64 133.27 48.73 133.43 48.77 133.62C48.82 133.81 48.92 134.32 49 134.75C49.07 135.19 49.19 136.08 49.25 136.75C49.32 137.57 49.34 138.88 49.3 140.87C49.27 142.48 49.21 144.15 49.16 144.58C49.11 145.01 49.09 145.39 49.13 145.43C49.17 145.46 49.86 144.87 50.68 144.1C52.11 142.76 52.16 142.7 52.14 142.37C52.13 142.18 51.97 139.49 51.78 136.38L51.45 130.72C52.3 129.96 52.36 129.93 52.41 130.09C52.45 130.18 52.96 132.66 53.56 135.59C54.16 138.52 54.67 140.95 54.7 140.99C54.73 141.03 55.28 140.7 55.92 140.26C56.56 139.81 57.09 139.45 57.11 139.44C57.12 139.44 56.49 136.99 55.69 134.01C54.9 131.03 54.25 128.52 54.25 128.43C54.25 128.34 54.87 127.7 55.71 126.95C56.51 126.23 57.65 125.24 58.24 124.75C58.82 124.26 59.87 123.42 60.55 122.88C61.24 122.34 62.37 121.49 63.06 120.99C63.75 120.49 65.08 119.56 66.03 118.94L67.74 117.8C68.46 118.41 70.72 120.31 73.24 122.41L77.8 126.23L79.32 125.16C78.68 124.64 77.64 123.78 76.59 122.92C75.55 122.07 73.47 120.36 71.98 119.14C70.5 117.91 69.29 116.89 69.31 116.87C69.33 116.84 69.89 116.5 70.56 116.1C71.23 115.71 71.8 115.38 71.82 115.38C71.85 115.38 74.19 117.27 77.04 119.57C79.88 121.87 82.27 123.8 82.35 123.85C82.45 123.92 83 123.61 84.69 122.51C85.9 121.73 86.89 121.05 86.89 121.01C86.89 120.98 84.69 119.09 82 116.82C79.31 114.55 77.1 112.66 77.08 112.62C77.07 112.59 77.71 112.26 78.5 111.89L79.94 111.21C80.48 111.6 82.68 113.3 85.18 115.23C87.67 117.17 89.88 118.87 90.07 119.01L90.41 119.28C95.45 116.66 96.88 115.87 96.84 115.84C96.8 115.81 94.64 114.12 92.04 112.1C89.44 110.07 87.27 108.38 87.22 108.34C87.16 108.29 87.27 108.2 87.49 108.11C87.7 108.03 88.66 107.69 89.63 107.36C90.6 107.03 92.2 106.5 93.2 106.2C94.19 105.89 95.84 105.42 96.86 105.15C97.88 104.88 99.26 104.53 99.92 104.37C100.58 104.21 101.75 103.95 102.52 103.79C103.28 103.63 104.69 103.37 105.65 103.21C106.64 103.05 107.38 102.88 107.37 102.83C107.35 102.78 107.03 102.45 106.64 102.11C106.25 101.76 105.87 101.49 105.76 101.49C105.66 101.5 105.18 101.58 104.7 101.68Z" />
		<path class="shp0" d="M103.77 108.63C103.54 108.68 102.56 108.91 101.59 109.14C100.62 109.36 99.52 109.64 99.14 109.76L98.45 109.96L99.78 110.94C101.18 110.31 102.29 109.78 103.14 109.37C104 108.96 104.7 108.6 104.7 108.57C104.7 108.55 104.58 108.53 104.44 108.54C104.3 108.54 104 108.59 103.77 108.63Z" />
		<path fill-rule="evenodd" class="shp2" d="M74.57 132.62C74.6 132.62 74.62 132.66 74.61 132.7C74.61 132.75 74.04 133.26 73.35 133.84C72.66 134.43 69.22 137.3 65.71 140.23C62.19 143.16 58.81 145.96 58.2 146.47C57.58 146.97 56.51 147.81 55.83 148.33C55.14 148.85 53.93 149.71 53.14 150.25C52.35 150.79 51.11 151.57 50.4 151.99C49.69 152.42 48.48 153.07 46.32 154.13L46.26 153.87C46.23 153.73 46.18 153.2 46.1 151.76L46.77 151.45C47.13 151.29 47.91 150.88 48.5 150.54C49.09 150.21 50.15 149.55 50.86 149.08C51.58 148.61 52.64 147.88 53.23 147.45C53.82 147.03 54.96 146.15 55.78 145.5C56.6 144.86 58.33 143.54 59.63 142.57C60.93 141.6 62.87 140.19 63.94 139.42C65.01 138.65 66.85 137.38 68.02 136.59C69.19 135.8 70.84 134.73 71.68 134.23C72.52 133.72 73.5 133.15 73.86 132.96C74.22 132.78 74.54 132.62 74.57 132.62ZM67.07 146.9C67.11 146.9 67.54 147.14 68.03 147.43C68.51 147.72 68.88 147.98 68.84 148.01C68.8 148.04 68.39 148.35 67.93 148.7C67.47 149.06 66.8 149.63 65.79 150.6L64.43 149.44L65.71 148.17C66.42 147.47 67.03 146.9 67.07 146.9ZM42.08 152.21L42.58 152.34C42.88 152.42 43.28 152.45 43.61 152.41C44.11 152.37 44.14 152.38 44.18 152.57C44.21 152.69 44.29 153.22 44.37 153.75C44.45 154.29 44.49 154.75 44.45 154.77C44.42 154.8 44.23 154.85 44.01 154.88C43.8 154.92 43.24 154.95 41.92 154.96L41.97 154.15C41.99 153.7 42.03 153.08 42.05 152.77L42.08 152.21ZM36.84 155.22L37.23 155.76C37.44 156.06 37.93 156.59 38.31 156.94C38.78 157.38 39.25 157.7 39.83 157.98C40.29 158.21 41 158.47 41.41 158.58C41.81 158.68 42.56 158.79 43.07 158.82C43.72 158.86 44.32 158.83 45.07 158.72C45.65 158.63 46.41 158.47 46.74 158.37C47.07 158.28 47.35 158.22 47.36 158.24C47.38 158.27 47.21 158.62 47 159.01C46.78 159.41 46.42 160.02 46.2 160.38C45.97 160.74 45.59 161.28 45.36 161.58C45.13 161.89 44.75 162.36 44.52 162.64C44.28 162.91 43.74 163.45 43.31 163.83C42.87 164.22 42.16 164.77 41.73 165.05C41.3 165.34 40.61 165.72 40.2 165.88C39.79 166.05 39.16 166.25 38.79 166.32C38.42 166.39 37.86 166.45 37.56 166.45C37.25 166.45 36.78 166.4 36.51 166.35C36.25 166.29 35.91 166.19 35.77 166.11C35.63 166.04 35.4 165.79 35.26 165.55C35.12 165.3 34.96 164.86 34.89 164.55C34.83 164.24 34.78 163.7 34.78 163.35C34.78 162.99 34.84 162.28 34.91 161.77C34.99 161.26 35.18 160.34 35.33 159.73C35.48 159.12 35.82 157.99 36.08 157.23C36.34 156.46 36.62 155.7 36.69 155.53L36.84 155.22ZM25.53 160.52C25.64 160.52 26.21 160.57 26.8 160.63C27.39 160.69 27.88 160.74 27.89 160.74C27.91 160.75 27.66 161.88 27.34 163.25C27.02 164.63 26.76 165.77 26.76 165.78C26.76 165.8 26.21 165.74 25.55 165.65C24.88 165.57 24.31 165.47 24.27 165.44C24.22 165.41 24.28 164.99 24.39 164.5C24.5 164.02 24.73 163 24.91 162.23C25.09 161.47 25.25 160.77 25.28 160.68C25.31 160.59 25.42 160.52 25.53 160.52ZM51.48 164.32C51.52 164.32 51.98 164.5 52.49 164.71C53 164.93 53.42 165.14 53.42 165.18C53.41 165.21 53.2 165.49 52.95 165.78C52.69 166.07 52.15 166.77 51.75 167.33C51.35 167.89 50.63 168.98 50.15 169.74C49.67 170.51 48.86 171.86 48.35 172.75C47.83 173.64 47.1 174.94 46.04 176.9L44.98 177.01C44.39 177.06 43.9 177.1 43.89 177.09C43.88 177.07 44.07 176.62 44.31 176.09C44.55 175.55 44.93 174.78 45.16 174.37C45.38 173.97 45.81 173.2 46.12 172.66C46.42 172.12 47.07 171.04 47.55 170.25C48.04 169.46 49.1 167.8 49.91 166.57C50.73 165.33 51.43 164.32 51.48 164.32ZM22.99 171.83C23.07 171.83 23.62 171.95 24.2 172.11C24.79 172.26 25.28 172.4 25.28 172.41C25.29 172.42 25.03 173.76 24.71 175.39C24.38 177.03 24.11 178.45 24.11 178.57C24.11 178.68 24.07 178.8 24.02 178.82C23.97 178.85 23.48 178.78 22.93 178.67C22.38 178.56 21.9 178.44 21.87 178.41C21.83 178.38 21.86 177.94 21.93 177.43C22.01 176.92 22.24 175.45 22.46 174.17C22.77 172.25 22.87 171.83 22.99 171.83Z" />
	</g>
</svg>