<svg height="310.971537" viewBox="0 0 91 87.5" width="321.572839" xmlns="http://www.w3.org/2000/svg" xmlns:xlink="http://www.w3.org/1999/xlink"><clipPath id="a"><path d="m302.25 470.9h72.024v72h-72.024z"/></clipPath><g clip-path="url(#a)" transform="matrix(1.25 0 0 -1.25 -377.3275 677.39504)"><path d="m0 0c-7.255 3.048-13.639 6.975-35.432 7.271-21.793.297-28.177-4.246-35.432-7.294 2.224-5.448 16.345-38.916 35.469-53.148h.005c19.124 14.232 33.245 47.7 35.469 53.148z" transform="translate(373.6923 525.4011)"/><path d="m0 0c-6.747 2.835-12.684 6.595-32.952 6.871-20.267.276-26.204-4.058-32.951-6.892 2.068-5.067 15.2-36.192 32.986-49.428h.005c17.785 13.236 30.917 44.361 32.986 49.428z" fill="#fff" transform="translate(371.215 524.2131)"/><path d="m0 0c-6.807 2.86-12.798 6.654-33.246 6.932-20.448.279-26.438-4.093-33.245-6.954 2.086-5.112 15.336-36.514 33.28-49.868h.005c17.944 13.354 31.194 44.756 33.28 49.868z" fill="#fcd213" transform="translate(371.5322 524.3846)"/><path d="m0 0c-6.807 2.86-12.798 6.654-33.246 6.932-20.448.279-26.438-4.093-33.245-6.954 2.086-5.112 15.336-36.514 33.28-49.868h.005c17.944 13.354 31.194 44.756 33.28 49.868z" fill="none" stroke="#fcd213" stroke-width=".445" transform="translate(371.5322 524.3846)"/><path d="m0 0v-56.82m1.423 56.794v-55.697m1.423 55.658v-54.465m1.423 54.413v-53.13m1.423 53.062v-51.691m1.423 51.608v-50.148m1.424 50.047v-48.499m1.423 48.378v-46.742m1.423 46.601v-44.877m1.423 44.713v-42.9m1.423 42.711v-40.811m1.423 40.594v-38.604m1.423 38.358v-36.278m1.423 35.997v-33.828m1.423 33.512v-31.25m1.423 30.893v-28.539m1.423 28.139v-25.689m1.423 25.242v-22.696m1.423 22.202v-19.554m1.424 19.013v-16.261m1.423 15.679v-12.815m1.423 12.201v-9.217m1.423 8.589v-5.47m-62.624 5.488v-5.447m1.423 6.1v-9.221m1.423 9.866v-12.852m1.423 13.469v-16.334m1.423 16.908v-19.662m1.424 20.186v-22.835m1.423 23.308v-25.856m1.423 26.277v-28.727m1.423 29.099v-31.455m1.423 31.782v-34.044m1.423 34.33v-36.501m1.423 36.748v-38.829m1.423 39.041v-41.032m1.423 41.213v-43.115m1.423 43.265v-45.079m1.423 45.204v-46.929m1.423 47.029v-48.666m1.423 48.743v-50.292m1.424 50.348v-51.809m1.423 51.847v-53.219m1.423 53.239v-54.523m1.423 54.526v-55.72" fill="none" stroke="#fff" stroke-width=".247" transform="translate(338.3212 531.3167)"/><path d="m0 0c-20.142.274-26.043-4.033-32.749-6.85 2.056-5.036 15.107-35.969 32.783-49.123h.005c17.676 13.154 30.728 44.087 32.783 49.123 0 0-12.68 6.576-32.822 6.85z" fill="none" stroke="#fcd213" stroke-width="1.483" transform="translate(338.2869 530.9913)"/><path d="m0 0c-20.656.096-26.705-4.135-33.581-7.024 2.107-5.164 15.491-36.884 33.616-50.372h.005c18.125 13.488 31.509 45.208 33.616 50.372 0 0-13.124 6.928-33.656 7.024z" fill="none" stroke="#ed192d" stroke-width=".445" transform="translate(338.2626 531.6224)"/><path d="m0 0-5.072-2.614-6.32.351.39-4.759 3.667-3.629 1.015-2.34 2.419-9.871.234-2.458 16.268-.546 5.579.546.781 2.434-7.499-.236-2.294 5.527-2.848 9.831-.273 7.764-.312 6.086z" fill="#f8a03d" transform="translate(329.0021 520.6644)"/><path d="m0 0c1.092-1.795 4.955-9.285 5.93-13.694l-4.721.078-3.16 13.733z" fill="#fccf88" transform="translate(323.9304 509.5455)"/><path d="m0 0c.507-4.877 5.93-17.517 10.924-21.691l-1.756 4.174-1.755 3.745-1.678 4.799-1.443 6.086-1.483 1.326 2.924 3.508.119 3.554z" fill="#fccf88" transform="translate(327.6367 519.611)"/><path d="m0 0 4.994-6.476-2.107-2.965-.39-6.789-3.121-12.016-7.023-1.716-8.661-.468-2.652 5.618-3.278 8.114-.936 5.462-1.404.858.858 1.483 1.813 1.938.372 4.07 1.066.423 4.005.591z" fill="#f8a03d" transform="translate(355.2801 528.311)"/><path d="m0 0 3.16 1.756-.175-2.692-2.37.058z" fill="#fff" transform="translate(350.7911 520.9374)"/><path d="m0 0-.127-2.58 4.536.883-.098.878z" fill="#fff" transform="translate(345.7389 521.7762)"/><path d="m0 0-2.18-1.948c-2.235-1.825-4.647-3.698-7.537-4.201-.258-.059-.527-.047-.761-.141-1.908-.21-3.827.094-5.314 1.206-1.802 1.17-2.668 3.441-2.493 5.524.012 2.435 1.744 4.354 3.348 6.063 4.763 4.588 11.523 6.341 18.066 7.301 1.299.152 2.727.344 4.003.356 1.089.094 2.17.211 3.247.223 3.289-.117 5.601 1.133 8.585.266 1.124-.397 2.578.115 3.514-.622.363-.234 1.698-.417 2.002-.756.269-.188 1.833-2.119 1.868-2.447-.911-3.314-1.334-4.671-1.334-4.671-.047-.807-1.606-2.053-1.735-2.802l-2.224.044c-5.605-.444-11.099-.557-16.073-2.535-.638-.208-1.498-.267-4.982-.86" fill="#807a11" transform="translate(332.928 525.4021)"/><path d="m0 0c-.343.071-6.8-.033-10.344-.374l-.424-.024c.117.035 1.573 1.114 6.379 1.428 3.779.22 4.732-1.101 4.389-1.03" transform="translate(353.5475 524.8122)"/><path d="m0 0c.023-.234-.86-.756-1.118-.896.457-.878.459-1.911.178-2.847.338-.034.53-.1.786-.222-.021-.397-.127-.588-.256-.822-1.234.466-3.253.808-3.839.854-.105.059.867.258.867.258-.175.488-.118 1.428-.118 1.428l-1.732-1.054c.199-.667 3.348-7.373 3.371-7.595-.617-.442-.884-.709-2.007-.932-1.206-.234-3.208.017-4.293.367-.527.164-1.413.656-1.413.656 1.721-.129 3.605.061 5.197.482-.457 1.674-1.112 3.301-1.651 4.963-.257.596-.409 1.252-.678 1.825-1.276.305-2.575.574-3.863.796.047-.491-.023-.971-.14-1.416l.07-.047c.913.059 1.741.097 2.619.073 0-.046-8.266-1.897-12.052-3.49-.024.011.286 1.504.772 1.931.714.14 1.428.328 2.142.503l.023.035c-.456.269-.69.784-.936 1.229-.293.843-.363 1.803.012 2.622-.094.058-3.722.761-3.722.807 0 0 8.831.426 13.74-.725.621-.176 1.229-.386 1.838-.621 1.638 1.077 5.946 1.791 6.203 1.838" transform="translate(356.6724 523.911)"/><path d="m0 0c.164-.023.375-.047.562-.094-.117-.456-.246-.948-.269-1.463.023-.398 0-.842.117-1.217-.656-.14-1.311-.257-1.955-.386-.41.854-.398 1.931-.058 2.856.046.21.163.398.28.585.445-.117.878-.164 1.323-.281" fill="#fff" transform="translate(341.6913 522.0266)"/><path d="m0 0c-.62-.843-1.23-2.008-1.909-2.804.316-.386.785-.667 1.218-.948-.021-3.929 3.923-14.753 3.923-14.753-.983 1.768-4.033 6.999-4.743 11.558-.152.656-.292 1.323-.421 1.99-.772.527-2.458 1.756-2.481 1.826 0 0 4.495 3.248 4.413 3.131" transform="translate(333.1949 521.3541)"/><path d="m0 0c1.468.323 2.938-1.44 2.938-1.44s-1.893.985-3.183-.06c-.714.971-1.375 3.607-1.223 3.514.129-.129.965-1.534 1.468-2.014" transform="translate(321.6891 514.3956)"/><path d="m0 0c-2.586-.475-9.614-2.009-14.417-4.139-.257.422-.569.991-.873 1.4.304.141.531.223.835.363-.011.281-.596 2.025-.83 2.61-.512-.086-.979-.153-1.468-.308-.258.515-.864 1.235-1.145 1.727 5.504 1.268 12.206.2 17.898-1.653" transform="translate(354.0999 509.2108)"/><path d="m0 0c-1.353.271-2.723.481-4.087.614l.06-1.227c1.54.267 2.807.457 4.027.613" fill="#fff" transform="translate(351.4849 509.2795)"/><path d="m0 0c-1.353.271-2.723.481-4.087.614l.06-1.227c1.54.267 2.807.457 4.027.613z" fill="none" stroke="#231f20" stroke-linecap="square" stroke-miterlimit="2" stroke-width=".089" transform="translate(351.4849 509.2795)"/><path d="m0 0c-.556-.101-1.12-.21-1.685-.326l-.149 1.791c.551-.014 1.164-.003 1.719-.045z" fill="#fff" transform="translate(346.7425 508.5391)"/><path d="m0 0c-.556-.101-1.12-.21-1.685-.326l-.149 1.791c.551-.014 1.164-.003 1.719-.045z" fill="none" stroke="#231f20" stroke-linecap="square" stroke-miterlimit="2" stroke-width=".089" transform="translate(346.7425 508.5391)"/><path d="m0 0c-.505-.11-1.01-.225-1.508-.347l-.386 2.287c.557.036 1.121.055 1.69.057z" fill="#fff" transform="translate(344.312 508.0555)"/><path d="m0 0c-.505-.11-1.01-.225-1.508-.347l-.386 2.287c.557.036 1.121.055 1.69.057z" fill="none" stroke="#231f20" stroke-linecap="square" stroke-miterlimit="2" stroke-width=".089" transform="translate(344.312 508.0555)"/><path d="m0 0c-.527-.138-1.044-.283-1.545-.435l-.675 2.604c.582.107 1.175.189 1.777.25z" fill="#fff" transform="translate(342.0022 507.5061)"/><path d="m0 0c-.527-.138-1.044-.283-1.545-.435l-.675 2.604c.582.107 1.175.189 1.777.25z" fill="none" stroke="#231f20" stroke-linecap="square" stroke-miterlimit="2" stroke-width=".089" transform="translate(342.0022 507.5061)"/><path d="m0 0c-.772-.828-2.203-1.689-3.285-1.932-2.106-.549-5.142-.069-5.142-.069s4.341 1.641 8.427 2.001" transform="translate(351.2184 506.9168)"/><path d="m0 0 1.17 3.004-2.275-.441-.573-2.641z" transform="translate(348.86 495.4227)"/><path d="m0 0c-6.543-.96-13.261-2.5-18.024-7.088-1.604-1.709-3.336-3.628-3.348-6.063-.175-2.083.691-4.354 2.493-5.524 1.487-1.112 5.176-1.307 6.075-1.065 2.891.503 5.302 2.376 7.537 4.202l2.996 2.75c1.007 1.053 2.06 1.943 3.348 2.657 1.278.766 2.835 1.315 4.258 1.448-3.544-2.076-6.755-5.228-9.43-8.125-2.587-3.219-6.392-5.647-10.816-5.261-.808.035-1.592.187-2.376.304-.082-.468.012-1.053.059-1.545.234-1.428.924-2.703 1.861-3.792 1.369-1.147 3.101-1.791 4.95-1.791.082-.046-.948-.632-1.474-.749-.457-.082-.902-.175-1.381-.199 2.505-5.857 3.581-12.277 3.663-12.921-.059-.058-2.47-.208-2.516-.126-.036.199-.362 8.554-2.084 13.036-2.875.885-5.722 2.931-5.407 9.105-4.146 2.073-5.356 6.222-3.23 10.288 1.041 1.803 2.317 3.465 3.909 4.869.573.468 1.159 1.007 1.779 1.381 1.124.819 3.85 2.154 4.003 2.236 2.879 1.252 5.922 2.308 9.083 3.02 0 0 8.651 2.325 18.571 1.302 2.164-.267 12.338-.805 9.773-6.558-.208-.697-1.7-3.903-2.679-5.475.59-.545.468-1.49-.422-1.875 1.943-2.154 2.602-3.216 4.381-5.534 0 0-1.493-1.647-2.09-2.243-.071-3.839-.815-6.97-1.599-10.598-.831-3.406-1.779-6.8-2.82-10.136-6.057-1.56-16.656-2.118-17.006-1.966-3.898 1.287-7.163 4.237-8.931 7.959-.433.877-.889 1.802-1.182 2.762-.328.819-.842 2.902-.842 2.902.219-.176 1.661-2.75 2.481-3.921.959-1.252 1.931-2.493 3.043-3.64 1.674-1.755 3.546-3.37 5.618-4.693 3.862.375 7.83.878 11.481 1.908.164.761.302 2.352.349 2.306.304-.621.658-1.3.962-1.932 1.147.281 2.271.714 3.394 1.124.223.421.305.925.48 1.369 1.487 4.787 2.463 9.688 2.159 14.943 0 .363-.023.539-.095.801.503.702 1.311 1.766 1.885 2.468-.983 2.142-2.298 4.113-3.75 5.997 0 0-13.368-.41-17.906-1.211 2.788 2.017 13.294 3.174 18.854 3.232 0 0 2.093 4.441 2.335 5.472.608 2.595-.786 2.772-1.468 3.069-1.095.476-4.389 1.097-6.405 1.335-3.47.311-9.965.355-14.499-.214" transform="translate(336.0148 538.9929)"/><path d="m0 0c1.705.179 2.969 1.445 2.823 2.827-.145 1.382-1.645 2.357-3.349 2.178-1.705-.179-2.969-1.445-2.823-2.827.145-1.382 1.644-2.357 3.349-2.178" fill="#fff" transform="translate(350.3914 530.9819)"/><path d="m0 0c1.705.179 2.969 1.445 2.823 2.827-.145 1.382-1.645 2.357-3.349 2.178-1.705-.179-2.969-1.445-2.823-2.827.145-1.382 1.644-2.357 3.349-2.178z" fill="none" stroke="#000" stroke-width="1.423" transform="translate(350.3914 530.9819)"/><path d="m0 0c1.705.179 2.969 1.445 2.823 2.827-.145 1.382-1.645 2.357-3.349 2.178-1.705-.179-2.969-1.445-2.823-2.827.145-1.382 1.644-2.357 3.349-2.178" fill="#ed192d" transform="translate(350.3914 530.9819)"/><path d="m0 0c1.705.179 2.969 1.445 2.823 2.827-.145 1.382-1.645 2.357-3.349 2.178-1.705-.179-2.969-1.445-2.823-2.827.145-1.382 1.644-2.357 3.349-2.178z" fill="none" stroke="#fff" stroke-width=".267" transform="translate(350.3914 530.9819)"/><path d="m0 0c-.54-.044-1.382-.074-1.382-.074l-.248.675 1.393-.193 1.414 2.915.339-.178z" transform="translate(349.701 532.0079)"/><path d="m0 0c.541.013 1.382.071 1.382.071l.176.697-1.365-.338-1.711 2.751-.319-.223z" transform="translate(350.6549 532.0579)"/><path d="m0 0-1.738 1.273 1.738 1.11-.004 7.309c-1.004.351-3.746 1.489-5.219 2.515l-2.514-1.246-.002-19.366 2.516-1.237c1.191.851 3.821 2.046 5.221 2.513zm-5.067 9.243s.612-.345 1.153-.602c.701-.334 1.257-.579 1.257-.579l.004-4.214-2.418-1.385zm-.004-15.921-.002 7.078 2.416-1.735-.002-4.177z" fill="#fff" transform="translate(315.3695 487.6009)"/><path d="m0 0s-1.318.28-2.717.642l-2.906-15.476s1.591.546 2.525.766l.47 2.526s.688.172 1.361.328c.674.155 1.315.279 1.315.279l.508-2.268s1.762.347 2.313.428zm-1.35-4.724.874-3.879-1.674-.382z" fill="#fff" transform="translate(321.6757 495.5377)"/><path d="m0 0 2.43-.095-2.914 10.231s-.745-.011-1.557-.011c-.811 0-1.557.011-1.557.011l-2.913-10.231 2.43.089.657 2.312s.627.027 1.383.027c.757 0 1.385-.027 1.385-.027zm-2.801 4.463.76 2.706.778-2.706z" fill="#fff" transform="translate(340.3026 483.8092)"/><path d="m0 0s-1.736-.001-6.328.432c-2.884.272-5.732.825-5.732.825v-2.328s.842-.164 2.074-.356v-9.681l2.402.331v9.016c.412-.049.834-.095 1.256-.135.494-.047.954-.088 1.383-.125v-8.481l2.402.18v8.114c1.8-.12 2.543-.12 2.543-.12z" fill="#fff" transform="translate(335.228 493.9846)"/><path d="m0 0c-.146.014-.298.027-.451.04v8.418l-2.402-.163v-8.095h-.001v-2.306s1.616-.081 2.854-.2c1.238-.118 2.839-.311 2.839-.311v2.306s-1.601.192-2.839.311" fill="#fff" transform="translate(346.3393 485.7869)"/><path d="m0 0v12.483s-.461-.081-1.206-.197c-.746-.117-1.285-.192-1.285-.192v-11.701z" fill="#fff" transform="translate(352.6576 482.6415)"/><path d="m0 0s-.002 0-.006-.001v1.784s-1.219-.408-3.002-.873c-1.685-.439-3.136-.695-3.136-.695v-2.361s.002 0 .005.001v-8.198c-.003.001-.005.001-.005.001v-2.361s1.451-.256 3.136-.695c1.783-.465 3.002-.873 3.002-.873v1.789l.006-.001zm-3.737-10.829v9.17c.29.065.594.137.907.215.148.037.29.073.428.108v-9.817c-.138.036-.28.072-.428.108-.313.078-.617.15-.907.216" fill="#fff" transform="translate(359.9527 495.1244)"/><path d="m0 0-.001-10.789-2.075 9.518-.451-.217v.004c-1.445-.667-2.661-1.097-2.661-1.097v-16.729s1.216-.43 2.661-1.098v9.87l2.525-11.393 2.658 1.362v19.249z" fill="#fff" transform="translate(366.2473 499.8297)"/><path d="m0 0-3.327 3.327v8.422l-4.174 2.061c-4.162-3.908-15.31-6.706-28.461-6.706s-24.388 2.798-28.55 6.706l-4.174-2.061v-8.419l-.004.004-3.334-3.334 3.334-3.334.004.004v-8.408l4.174-2.061c4.162 3.908 15.399 6.706 28.55 6.706s24.299-2.798 28.461-6.706l4.174 2.061v8.411z" transform="translate(374.274 488.8765)"/><path d="m0 0-1.738 1.273 1.738 1.11-.004 7.309c-1.004.351-3.746 1.489-5.219 2.515l-2.514-1.246-.002-19.366 2.516-1.237c1.191.851 3.821 2.046 5.221 2.513zm-5.067 9.243s.612-.345 1.153-.602c.701-.334 1.257-.579 1.257-.579l.004-4.214-2.418-1.385zm-.004-15.921-.002 7.078 2.416-1.735-.002-4.177z" fill="#ed192d" transform="translate(315.3695 487.6009)"/><path d="m0 0s-1.318.28-2.717.642l-2.906-15.476s1.591.546 2.525.766l.47 2.526s.688.172 1.361.328c.674.155 1.315.279 1.315.279l.508-2.268s1.762.347 2.313.428zm-1.35-4.724.874-3.879-1.674-.382z" fill="#ed192d" transform="translate(321.6757 495.5377)"/><path d="m0 0 2.43-.095-2.914 10.231s-.745-.011-1.557-.011c-.811 0-1.557.011-1.557.011l-2.913-10.231 2.43.089.657 2.312s.627.027 1.383.027c.757 0 1.385-.027 1.385-.027zm-2.801 4.463.76 2.706.778-2.706z" fill="#ed192d" transform="translate(340.3026 483.8092)"/><path d="m0 0s-1.736-.001-6.328.432c-2.884.272-5.732.825-5.732.825v-2.328s.842-.164 2.074-.356v-9.681l2.402.331v9.016c.412-.049.834-.095 1.256-.135.494-.047.954-.088 1.383-.125v-8.481l2.402.18v8.114c1.8-.12 2.543-.12 2.543-.12z" fill="#ed192d" transform="translate(335.228 493.9846)"/><path d="m0 0c-.146.014-.298.027-.451.04v8.418l-2.402-.163v-8.095h-.001v-2.306s1.616-.081 2.854-.2c1.238-.118 2.839-.311 2.839-.311v2.306s-1.601.192-2.839.311" fill="#ed192d" transform="translate(346.3393 485.7869)"/><path d="m0 0v12.483s-.461-.081-1.206-.197c-.746-.117-1.285-.192-1.285-.192v-11.701z" fill="#ed192d" transform="translate(352.6576 482.6415)"/><path d="m0 0s-.002 0-.006-.001v1.784s-1.219-.408-3.002-.873c-1.685-.439-3.136-.695-3.136-.695v-2.361s.002 0 .005.001v-8.198c-.003.001-.005.001-.005.001v-2.361s1.451-.256 3.136-.695c1.783-.465 3.002-.873 3.002-.873v1.789l.006-.001zm-3.737-10.829v9.17c.29.065.594.137.907.215.148.037.29.073.428.108v-9.817c-.138.036-.28.072-.428.108-.313.078-.617.15-.907.216" fill="#ed192d" transform="translate(359.9527 495.1244)"/><path d="m0 0-.001-10.789-2.075 9.518-.451-.217v.004c-1.445-.667-2.661-1.097-2.661-1.097v-16.729s1.216-.43 2.661-1.098v9.87l2.525-11.393 2.658 1.362v19.249z" fill="#ed192d" transform="translate(366.2473 499.8297)"/><g fill="#fff"><path d="m0 0-1.738 1.273-.012-.386 1.738 1.111.108.068v.129l-.004 7.309v.166l-.157.055c-1.113.388-3.771 1.516-5.162 2.486l-.114.079-.124-.062-2.514-1.246-.13-.064v-.145l-.002-19.366v-.145l.131-.064 2.516-1.238.125-.061.114.081c1.125.803 3.697 1.993 5.159 2.481l.16.053v.168l.002 7.13v.118zm-.214-7.096c-1.316-.439-4.029-1.648-5.283-2.544l.239.02-2.516 1.237.13-.21.002 19.366-.129-.209 2.514 1.246-.238.018c1.513-1.055 4.257-2.189 5.276-2.544l-.156.22.003-7.31.108.197-1.738-1.11-.287-.184.275-.201 1.738-1.273-.096.189-.001-7.13.159.222z" transform="translate(315.5075 487.7893)"/><path d="m0 0c.025-.014.625-.352 1.168-.61.695-.331 1.257-.579 1.263-.582l-.139.214.003-4.214.118.203-2.418-1.385.349-.202.004 6.779zm.227-6.779 2.418 1.384.118.068-.001.135-.003 4.214v.152l-.14.062c-.005.002-.562.248-1.251.576-.527.251-1.133.592-1.139.595l-.348.196v-.399l-.004-6.78v-.403z" transform="translate(310.1875 496.6404)"/><path d="m0 0-.002 7.078-.37-.19 2.417-1.735-.098.19-.002-4.177.132.211-2.412-1.167zm2.412 1.166.002 4.177v.12l-.097.07-2.416 1.735-.37.265v-.455l.002-7.078v-.372l.335.162 2.413 1.166.131.064z" transform="translate(310.5319 480.923)"/><path d="m0 0 .002-7.078v-.373l.335.162 2.412 1.167.132.064v.146l.002 4.177v.12l-.097.07-2.416 1.735-.37.265zm2.416-1.735-.002-4.177.132.21-2.412-1.166.335-.21-.002 7.078-.37-.19 2.416-1.735z" transform="translate(310.063 488.0012)"/><path d="m0 0c-.013.003-1.329.283-2.707.64l-.242.063-.046-.246-2.906-15.476-.074-.394.379.13c.016.005 1.591.545 2.503.759l.148.035.028.15.47 2.526-.173-.184c.007.002.694.173 1.358.327.661.153 1.3.276 1.306.277l-.272.179.507-2.269.05-.222.223.044c.018.004 1.763.347 2.303.427l.249.036-.056.246-2.869 12.775-.032.146zm2.787-12.772c-.551-.081-2.253-.416-2.325-.43l.273-.179-.507 2.269-.05.221-.223-.043c-.006-.001-.653-.126-1.323-.281-.667-.155-1.358-.327-1.365-.329l-.146-.036-.027-.148-.47-2.526.176.185c-.935-.22-2.482-.75-2.547-.772l.305-.264 2.906 15.476-.288-.183c1.388-.36 2.714-.642 2.727-.645l-.179.177 2.869-12.775z" transform="translate(321.7241 495.7661)"/><path d="m0 0 1.674.382.227.052-.051.227-1.107 5.084-1.024-5.474-.066-.35z" transform="translate(319.5776 486.3253)"/><path d="m0 0 2.43-.095.322-.012-.088.31-2.914 10.231-.049.172-.179-.003-1.553-.011-1.554.011-.178.002c-.001 0-.05-.171-.05-.171l-2.914-10.231-.088-.309.322.011 2.429.089.17.007.046.163.658 2.311-.214-.169c.006 0 .631.027 1.373.027.741 0 1.367-.027 1.373-.027l-.214.169.657-2.306.046-.162zm-.637 2.772c-.006.001-.642.028-1.394.028-.753 0-1.388-.027-1.394-.028l-.168-.007-.046-.162-.658-2.311.216.169-2.43-.089.234-.297 2.913 10.231-.228-.17 1.561-.011 1.56.011-.228.17 2.913-10.231.234.297-2.43.095.216-.17-.657 2.306-.046.162z" transform="translate(340.2935 483.5759)"/><path d="m0 0 .761 2.706-.45-.002.778-2.705.225.298h-1.539zm1.538.128-.778 2.705-.227.79-.222-.791-.761-2.706-.083-.296h.308 1.539.31z" transform="translate(337.7262 488.2091)"/><path d="m0 0c-.017 0-1.784.004-6.306.431-2.838.268-5.681.816-5.71.821l-.278.054v-.283-2.328-.192l.189-.037c.009-.002.861-.166 2.083-.358l-.198.231v-9.681-.268l.266.037 2.402.331.201.027v.204 9.017l-.261-.232c.439-.053.864-.098 1.263-.136l1.384-.125-.213.232v-8.481-.251l.251.019 2.402.18.216.016v.217 8.114l-.249-.233c1.786-.12 2.528-.121 2.558-.121h.234v.234 2.327.234zm0-2.328c-.007 0-.76.001-2.527.12l-.249.017v-.25-8.114l.216.233-2.402-.181.251-.233v8.481.214c-.001 0-.214.019-.214.019l-1.381.125c-.394.037-.815.082-1.25.134l-.262.032v-.263-9.017l.202.231-2.402-.331.265-.231v9.681.2l-.197.031c-1.213.19-2.057.353-2.066.354l.189-.229v2.328l-.278-.229c.029-.006 2.893-.558 5.756-.828 4.549-.429 6.332-.433 6.349-.433l-.233.233v-2.327z" transform="translate(335.2278 494.2181)"/><path d="m0 0-.454.041.214-.234v8.418.251l-.25-.017-2.402-.163-.218-.015v-.219-8.095l.25.234-.25.016c-.001 0-.001-.25-.001-.25v-2.306-.222l.223-.011c.016-.001 1.625-.083 2.843-.2 1.221-.117 2.818-.309 2.834-.31l.262-.032v.264 2.306.207l-.206.025c-.016.002-1.618.194-2.845.312m2.583-.544v-2.306l.262.232c-.016.002-1.618.195-2.845.312-1.229.118-2.849.2-2.865.201l.222-.234v2.306l-.247-.234.247-.013c.001 0 .001.247.001.247v8.095l-.218-.234 2.402.164-.25.233v-8.418-.214c.002 0 .215-.019.215-.019l.448-.04c1.221-.117 2.818-.309 2.834-.311l-.206.233z" transform="translate(346.3616 486.0199)"/><path d="m0 0v12.483.278l-.274-.048c-.005 0-.469-.081-1.203-.196l-1.28-.191-.2-.03c-.002-.001-.002-.202-.002-.202v-11.701-.2l.197-.031 2.491-.393.271-.043zm-2.491.393v11.701l-.202-.232 1.289.192c.738.116 1.206.197 1.21.198l-.274.231v-12.483l.27.231-2.491.393.198-.231z" transform="translate(352.8916 482.6415)"/><path d="m0 0 .278-.23v1.784.325l-.308-.103c-.013-.004-1.234-.411-2.988-.868-1.655-.432-3.103-.689-3.117-.691l-.194-.034v-.197-2.361-.277l.273.046-.267.232v-8.198l.273.231-.273.046c-.006.001-.006-.276-.006-.276v-2.361-.197l.194-.034c.014-.002 1.462-.259 3.117-.691 1.754-.457 2.975-.864 2.988-.868l.308-.103v.325 1.789l-.272-.231.272-.044c.006-.001.006.274.006.274v12.483.29zm.082-12.48-.272.045v-.276-1.789l.308.222c-.012.004-1.248.416-3.018.877-1.674.437-3.139.697-3.154.699l.193-.23v2.361l-.273-.231.273-.046c.006-.001.006.276.006.276v8.198.277l-.273-.046.267-.232v2.361l-.193-.23c.015.002 1.48.262 3.154.699 1.77.461 3.006.873 3.018.877l-.308.222v-1.784-.289l.282.06-.277.23v-12.483s.272.231.267.232" transform="translate(359.9032 495.3532)"/><path d="m0 0v9.17l-.182-.229c.311.071.618.144.911.217l.43.109-.293.226v-9.817l.293.227-.43.109c-.293.072-.599.145-.911.216zm.616-.443.426-.108.292-.073c0-.001 0 .3 0 .3v9.817.301s-.292-.074-.292-.074l-.426-.108c-.29-.072-.594-.144-.902-.214l-.182-.042v-.186-9.17-.187l.182-.041c.309-.071.612-.143.902-.215" transform="translate(356.4503 484.2954)"/><path d="m0 0-.001-10.789.462.05-2.075 9.517-.063.289-.266-.128-.451-.216.334-.211v.365c0 .004-.331-.149-.331-.149-1.418-.655-2.629-1.085-2.641-1.089l-.156-.055v-.165-16.729-.165l.156-.055c.012-.005 1.223-.435 2.641-1.09l.331-.153v.365 9.87l-.461-.051 2.525-11.393.065-.295.269.138 2.658 1.362.127.065v.143 19.249.145l-.13.064-2.656 1.32-.337.168zm2.656-1.32v-19.249l.127.207-2.658-1.361.335-.158-2.525 11.393-.462 2.083v-2.133-9.87l.332.212c-1.439.665-2.67 1.101-2.682 1.106l.156-.22v16.729l-.156-.22c.012.004 1.243.441 2.682 1.105l-.332.212v-.371c0-.003.335.157.335.157l.451.216-.329.161 2.074-9.518.462-2.117v2.167l.001 10.789-.337-.209 2.656-1.32z" transform="translate(366.0137 499.8297)"/></g><path d="m0 0 1.082.237-.563 2.992z" fill="#231f20" transform="translate(319.8167 486.8951)"/></g></svg>