<?xml version="1.0" encoding="UTF-8" standalone="no"?>
<!-- Created with Inkscape (http://www.inkscape.org/) -->

<svg
   xmlns:dc="http://purl.org/dc/elements/1.1/"
   xmlns:cc="http://creativecommons.org/ns#"
   xmlns:rdf="http://www.w3.org/1999/02/22-rdf-syntax-ns#"
   xmlns:svg="http://www.w3.org/2000/svg"
   xmlns="http://www.w3.org/2000/svg"
   xmlns:sodipodi="http://sodipodi.sourceforge.net/DTD/sodipodi-0.dtd"
   xmlns:inkscape="http://www.inkscape.org/namespaces/inkscape"
   width="78"
   height="81"
   viewBox="0 0 78.000001 81.000001"
   id="svg6698"
   version="1.1"
   inkscape:version="0.91 r13725"
   sodipodi:docname="sudbury wolves.svg">
  <defs
     id="defs6700">
    <clipPath
       id="clipPath5303"
       clipPathUnits="userSpaceOnUse">
      <path
         inkscape:connector-curvature="0"
         id="path5305"
         d="m 307.309,476.812 62.203,0 0,64.264 -62.203,0 0,-64.264 z" />
    </clipPath>
  </defs>
  <sodipodi:namedview
     id="base"
     pagecolor="#ffffff"
     bordercolor="#666666"
     borderopacity="1.0"
     inkscape:pageopacity="0.0"
     inkscape:pageshadow="2"
     inkscape:zoom="6.8050633"
     inkscape:cx="38.999996"
     inkscape:cy="40.499991"
     inkscape:document-units="px"
     inkscape:current-layer="layer1"
     showgrid="false"
     units="px"
     inkscape:window-width="1280"
     inkscape:window-height="744"
     inkscape:window-x="-4"
     inkscape:window-y="-4"
     inkscape:window-maximized="1" />
  <metadata
     id="metadata6703">
    <rdf:RDF>
      <cc:Work
         rdf:about="">
        <dc:format>image/svg+xml</dc:format>
        <dc:type
           rdf:resource="http://purl.org/dc/dcmitype/StillImage" />
        <dc:title></dc:title>
      </cc:Work>
    </rdf:RDF>
  </metadata>
  <g
     inkscape:label="Layer 1"
     inkscape:groupmode="layer"
     id="layer1"
     transform="translate(0,-971.36216)">
    <g
       clip-path="url(#clipPath5303)"
       id="g5301"
       transform="matrix(1.25,0,0,-1.25,-384.21838,1647.8325)">
      <g
         transform="translate(314.4795,493.5569)"
         id="g5307">
        <path
           inkscape:connector-curvature="0"
           id="path5309"
           style="fill:#eb252c;fill-opacity:1;fill-rule:evenodd;stroke:none"
           d="M 0,0 C 0,-0.144 0.09,-0.238 0.16,-0.358 0.227,-0.43 0.272,-0.501 0.318,-0.598 0.317,-0.597 0.477,-0.963 0.477,-0.973 0.773,-1.463 0.886,-1.575 1.271,-1.98 1.454,-2.147 1.614,-2.314 1.818,-2.432 1.863,-1.861 1.614,-1.384 1.454,-0.86 1.341,-0.452 1.318,-0.049 1.341,0.358 1.136,0.238 1.164,-0.174 0.869,-0.221 0.642,-0.269 0.477,-0.216 0.272,-0.168 0.182,-0.168 0.136,-0.049 0.069,0.023 0.045,0.048 0,0.023 0,0" />
      </g>
      <g
         transform="translate(317.1831,492.9258)"
         id="g5311">
        <path
           inkscape:connector-curvature="0"
           id="path5313"
           style="fill:#eb252c;fill-opacity:1;fill-rule:evenodd;stroke:none"
           d="m 0,0 c 0.018,-0.234 0.234,-0.443 0.274,-0.781 0.014,-0.093 0.107,-0.178 0.152,-0.268 0.11,-0.245 0.291,-0.477 0.47,-0.699 0.067,0.537 0.179,1.074 0.225,1.613 C 0.985,-0.113 0.852,-0.288 0.762,-0.309 0.522,-0.374 0.182,-0.306 0.048,0.002 0.03,0.046 0.002,-0.008 -0.001,0 L 0,0 Z" />
      </g>
      <g
         transform="translate(320.2409,492.2977)"
         id="g5315">
        <path
           inkscape:connector-curvature="0"
           id="path5317"
           style="fill:#eb252c;fill-opacity:1;fill-rule:evenodd;stroke:none"
           d="m 0,0 c -0.041,-0.164 0.063,-0.287 0.123,-0.453 0.022,-0.064 0.054,-0.155 0.094,-0.217 0.041,-0.041 0.003,-0.08 0.016,-0.093 0.216,-0.246 0.201,-0.494 0.345,-0.783 0.027,-0.053 0.17,-0.227 0.211,-0.145 0.063,0.207 0.073,0.475 0.093,0.682 0.04,0.246 0.047,0.452 -0.016,0.7 0,0.041 -0.068,-0.105 -0.154,-0.067 C 0.593,-0.372 0.495,-0.437 0.35,-0.287 0.267,-0.202 0.145,-0.122 0.063,0 L 0,0 Z" />
      </g>
      <g
         transform="translate(324.3459,490.427)"
         id="g5319">
        <path
           inkscape:connector-curvature="0"
           id="path5321"
           style="fill:#eb252c;fill-opacity:1;fill-rule:evenodd;stroke:none"
           d="m 0,0 c 0.281,-0.154 0.743,-0.616 0.922,-0.333 0.044,0.069 0.308,0.332 0.359,0.41 0.051,-0.359 0.204,-0.845 0.282,-1.23 0.102,-0.307 0.206,-0.564 0.359,-0.846 0.051,-0.179 0.744,-1.513 -0.409,-0.155 -0.018,0.02 -0.053,0 -0.077,0 C 1.024,-1.665 0.641,-1.359 0.281,-0.692 0.184,-0.511 0.05,-0.178 0,0" />
      </g>
      <g
         transform="translate(322.9753,489.5735)"
         id="g5323">
        <path
           inkscape:connector-curvature="0"
           id="path5325"
           style="fill:#eb252c;fill-opacity:1;fill-rule:evenodd;stroke:none"
           d="m 0,0 c -0.11,-0.709 -0.216,-2.136 -0.06,-3.462 0.023,-0.195 0.039,-0.389 0.155,-0.547 0.039,0.003 0.079,-0.076 0.118,-0.037 0.273,0.546 1.364,0.817 1.676,0.389 C 1.888,-3.538 1.616,-3.306 1.577,-3.229 1.304,-2.993 1.07,-2.798 0.915,-2.527 0.48,-1.657 0.26,-0.884 0,0" />
      </g>
      <g
         transform="translate(326.1248,487.4346)"
         id="g5327">
        <path
           inkscape:connector-curvature="0"
           id="path5329"
           style="fill:#eb252c;fill-opacity:1;fill-rule:evenodd;stroke:none"
           d="m 0,0 c -0.052,-0.068 0,0.179 -0.039,0.1 -0.08,-0.513 -0.108,-0.767 -0.21,-1.287 -0.055,-0.505 0.091,-1.114 0.17,-1.628 0.04,-0.236 0.157,-0.393 0.236,-0.591 0,-0.078 -0.039,-0.158 0,-0.236 l 0.158,0 c 0.08,0.236 0.197,0.434 0.394,0.512 0.236,0.118 0.592,0.118 0.828,0 0.078,-0.04 0.236,-0.078 0.315,-0.158 0,0.08 0,0.197 -0.04,0.237 C 1.734,-3.012 1.655,-2.972 1.615,-2.895 1.103,-1.87 0.769,-1.377 0.334,-0.314 0.334,-0.274 0.118,0.159 0,0" />
      </g>
      <g
         transform="translate(329.1779,487.5951)"
         id="g5331">
        <path
           inkscape:connector-curvature="0"
           id="path5333"
           style="fill:#eb252c;fill-opacity:1;fill-rule:evenodd;stroke:none"
           d="m 0,0 c 0.055,-1.364 0.082,-2.675 0.11,-4.068 0.002,-0.085 0.301,-0.192 0.354,-0.111 0.22,0.302 0.274,0.711 0.656,0.876 0.354,0.164 0.738,0.164 1.12,0.219 0.026,0 0.136,0.031 0.136,0.108 0,0.219 -0.574,0.246 -0.792,0.491 -0.11,0.138 -0.436,0.384 -0.545,0.519 -0.384,0.494 -0.656,0.983 -0.901,1.53 C 0.082,-0.3 0.11,-0.137 0,0" />
      </g>
      <g
         transform="translate(339.8884,499.1582)"
         id="g5335">
        <path
           inkscape:connector-curvature="0"
           id="path5337"
           style="fill:#eb252c;fill-opacity:1;fill-rule:evenodd;stroke:none"
           d="m 0,0 c 0.39,-3.33 -4.606,-3.934 -4.358,-7.334 0.107,-0.923 0.072,-1.737 -0.106,-2.624 -0.638,-1.523 -2.41,-2.621 -3.402,-3.932 -0.177,-0.247 -0.496,-0.248 -0.744,-0.177 -1.345,0.604 -1.736,2.09 -2.302,3.26 -0.073,-1.594 0.071,-3.224 0.071,-4.818 -1.065,0.779 -1.666,2.055 -2.022,3.26 1.808,1.31 1.951,3.613 2.162,5.739 0.39,1.417 0.993,2.834 1.241,4.252 0.602,1.134 1.949,1.525 2.871,2.481 0.424,0.143 0.814,-0.071 1.204,-0.177 0.248,-0.993 -0.816,-1.702 -1.099,-2.552 -0.567,-1.276 -1.027,-2.551 -1.24,-3.933 0.106,-0.178 0.319,-0.461 0.602,-0.283 1.028,1.169 0.781,2.87 1.347,4.216 0.39,1.205 1.099,2.587 2.374,3.083 C -2.338,1.028 -0.637,1.383 0,0" />
      </g>
      <g
         transform="translate(314.4795,493.5569)"
         id="g5339">
        <path
           inkscape:connector-curvature="0"
           id="path5341"
           style="fill:#010101;fill-opacity:1;fill-rule:evenodd;stroke:none"
           d="m 0,0 c 0,-0.143 0.091,-0.238 0.16,-0.358 0.068,-0.072 0.113,-0.143 0.158,-0.24 0,0.001 0.159,-0.365 0.159,-0.375 C 0.772,-1.463 0.886,-1.575 1.271,-1.98 1.454,-2.147 1.612,-2.315 1.818,-2.432 1.863,-1.861 1.612,-1.384 1.454,-0.86 1.341,-0.452 1.318,-0.049 1.341,0.358 1.136,0.238 1.164,-0.174 0.869,-0.221 0.642,-0.269 0.477,-0.216 0.273,-0.168 0.182,-0.168 0.136,-0.049 0.069,0.023 0.046,0.048 0,0.023 0,-0.001 L 0,0 Z M 2.704,-0.631 C 2.722,-0.866 2.939,-1.074 2.978,-1.412 2.991,-1.505 3.085,-1.59 3.13,-1.681 3.24,-1.925 3.42,-2.157 3.6,-2.379 3.667,-1.843 3.778,-1.305 3.825,-0.766 3.69,-0.744 3.555,-0.918 3.466,-0.94 3.225,-1.005 2.885,-0.938 2.752,-0.629 2.733,-0.585 2.707,-0.639 2.702,-0.631 l 0.002,0 z M 5.761,-1.259 C 5.721,-1.424 5.824,-1.547 5.885,-1.713 5.906,-1.775 5.937,-1.867 5.978,-1.929 6.019,-1.97 5.982,-2.009 5.994,-2.022 6.21,-2.269 6.195,-2.517 6.339,-2.805 6.366,-2.858 6.51,-3.033 6.551,-2.95 c 0.062,0.207 0.072,0.473 0.093,0.681 0.04,0.247 0.046,0.453 -0.016,0.701 0,0.041 -0.068,-0.105 -0.155,-0.067 -0.119,0.004 -0.216,-0.06 -0.361,0.088 -0.084,0.086 -0.206,0.166 -0.288,0.288 l -0.063,0 z M 9.866,-3.13 c 0.282,-0.154 0.743,-0.616 0.923,-0.333 0.043,0.069 0.307,0.332 0.359,0.41 0.051,-0.358 0.205,-0.845 0.282,-1.23 0.102,-0.307 0.205,-0.564 0.358,-0.846 0.051,-0.178 0.744,-1.514 -0.41,-0.155 -0.017,0.02 -0.051,0 -0.077,0 -0.41,0.489 -0.794,0.795 -1.153,1.462 -0.098,0.181 -0.231,0.514 -0.282,0.692 M 8.496,-3.983 C 8.386,-4.692 8.279,-6.12 8.436,-7.445 8.459,-7.641 8.475,-7.834 8.591,-7.991 8.63,-7.989 8.67,-8.068 8.709,-8.03 c 0.272,0.546 1.364,0.818 1.676,0.39 -10e-4,0.119 -0.274,0.35 -0.312,0.428 C 9.8,-6.977 9.566,-6.783 9.41,-6.51 8.976,-5.641 8.756,-4.868 8.496,-3.983 m 3.149,-2.139 c -0.053,-0.068 0,0.178 -0.039,0.1 -0.08,-0.512 -0.108,-0.767 -0.21,-1.287 -0.056,-0.505 0.091,-1.114 0.17,-1.628 0.04,-0.237 0.157,-0.393 0.237,-0.591 0,-0.078 -0.039,-0.158 0,-0.237 l 0.157,0 c 0.079,0.237 0.197,0.435 0.394,0.513 0.237,0.118 0.591,0.118 0.828,0 0.078,-0.04 0.236,-0.078 0.314,-0.159 0,0.081 0,0.198 -0.039,0.237 -0.079,0.04 -0.157,0.079 -0.197,0.157 -0.512,1.025 -0.846,1.517 -1.28,2.581 0,0.04 -0.216,0.472 -0.335,0.314 m 3.053,0.16 c 0.055,-1.364 0.083,-2.675 0.11,-4.068 0.002,-0.086 0.301,-0.192 0.355,-0.111 0.219,0.302 0.273,0.71 0.655,0.876 0.355,0.164 0.738,0.164 1.12,0.218 0.027,0.001 0.136,0.032 0.136,0.109 0,0.218 -0.572,0.247 -0.791,0.491 -0.11,0.138 -0.437,0.384 -0.547,0.519 -0.382,0.493 -0.654,0.983 -0.901,1.53 -0.054,0.137 -0.027,0.3 -0.137,0.436 M 25.409,5.601 c 0.389,-3.33 -4.606,-3.933 -4.358,-7.335 0.106,-0.922 0.071,-1.734 -0.106,-2.623 -0.638,-1.522 -2.409,-2.62 -3.401,-3.932 -0.178,-0.247 -0.496,-0.247 -0.744,-0.175 -1.346,0.602 -1.737,2.088 -2.303,3.258 -0.072,-1.593 0.071,-3.223 0.071,-4.818 -1.065,0.779 -1.666,2.055 -2.02,3.26 1.806,1.31 1.949,3.614 2.16,5.739 0.391,1.418 0.993,2.835 1.24,4.253 0.603,1.133 1.95,1.523 2.872,2.481 0.424,0.141 0.814,-0.072 1.203,-0.178 0.249,-0.992 -0.815,-1.702 -1.098,-2.551 -0.567,-1.276 -1.027,-2.552 -1.24,-3.933 0.106,-0.178 0.319,-0.462 0.602,-0.284 1.028,1.17 0.781,2.87 1.347,4.217 0.389,1.204 1.099,2.585 2.374,3.082 1.063,0.567 2.764,0.922 3.401,-0.461 M 14.071,-10.414 c 0.071,-0.425 -0.424,-0.709 -0.673,-0.886 -0.319,-0.036 -0.673,0 -0.922,0.283 -0.389,0.354 -0.283,0.816 -0.106,1.239 0.178,0.321 0.603,0.285 0.85,0.178 0.32,-0.176 0.709,-0.461 0.851,-0.814 m 3.614,0.46 c -0.212,-0.602 -0.566,-1.382 -1.275,-1.559 -0.39,-0.072 -0.744,0.177 -0.851,0.532 -0.105,0.425 -0.036,0.885 0.212,1.203 l 0.851,0.533 c 0.355,-0.212 0.781,-0.355 1.063,-0.709 m 33.874,45.035 c 0.036,-2.019 -0.744,-3.755 -1.771,-5.243 l -0.105,0 c -0.073,-1.418 -1.242,-2.587 -0.746,-4.039 -0.105,-1.029 -0.566,-1.95 -1.205,-2.73 -0.885,-0.211 -1.877,-0.388 -2.833,-0.353 -0.355,0.532 -0.107,1.275 -0.037,1.842 0.037,0.603 0.496,1.133 0.247,1.664 -1.063,-0.671 -2.088,-1.416 -3.33,-1.735 -0.175,0.922 0.461,1.772 0.603,2.622 l -0.142,0.108 c -0.531,-0.32 -1.028,-0.709 -1.594,-0.887 l -0.106,0.071 c 2.302,2.799 5.315,4.642 7.972,7.015 l 2.941,1.737 0.106,-0.072 z m -0.285,-7.015 c 0.037,-1.062 -0.174,-1.844 -0.459,-2.8 -0.78,-0.637 -0.814,-2.302 -2.055,-2.231 -0.107,0.496 0.214,0.886 0.354,1.204 -0.14,0.177 0.284,0.319 0.071,0.497 0.391,0.212 -0.035,0.46 0.284,0.743 0,0.036 -0.071,0.036 -0.071,0.107 l 0.142,0.142 -0.142,0.106 c 0.285,0.141 -0.036,0.425 0.248,0.531 l -0.07,0.177 1.097,1.206 c -0.071,0.283 0.248,0.459 0.461,0.636 -0.178,-0.105 0.213,-0.141 0.14,-0.318 M 25.729,39.157 C 25.551,39.05 25.658,38.767 25.444,38.59 25.02,38.342 25.09,37.953 24.7,37.597 24.488,37.066 24.346,36.569 24.027,36.11 24.276,35.861 23.78,35.826 23.85,35.543 23.638,35.189 23.673,34.621 23.249,34.479 l 0.07,-0.07 L 23,33.912 c -0.036,-0.211 -0.07,-0.496 -0.32,-0.743 0.107,-0.141 0.072,-0.355 -0.105,-0.39 0,-0.249 0,-0.745 -0.213,-0.851 0,-0.035 0.036,-0.071 0.071,-0.035 0.071,-0.107 -0.071,-0.142 -0.107,-0.178 -0.212,0.214 0.143,0.319 -0.105,0.497 0.035,0.213 0.141,0.461 0.105,0.602 -0.142,0.178 0.249,0.177 0,0.319 0.036,0.213 0.249,0.531 0.249,0.779 0.248,0.32 0.212,0.602 0.461,0.852 -0.036,0.354 0.425,0.425 0.283,0.779 l 0.212,0.284 -0.035,0.07 c 0.142,0.319 0.567,0.46 0.531,0.886 0.249,0.283 0.285,0.709 0.638,0.921 0.106,0.461 0.461,1.028 0.674,1.488 l 0.637,0.674 c 0,-0.177 -0.247,-0.426 -0.247,-0.709 m 2.196,2.905 c 0.212,-2.692 -1.205,-4.889 -2.374,-7.087 -0.531,-0.92 -1.133,-1.948 -2.02,-2.622 -0.106,-0.035 -0.176,0.072 -0.248,0.142 l 0.107,0.744 c 1.239,3.013 2.764,5.988 4.358,8.823 l 0.177,0 z M 15.417,17.331 c 0.071,-0.248 -0.177,-0.284 -0.389,-0.321 -0.071,-0.07 -0.284,0.037 -0.284,0.214 -0.07,0.247 0.106,0.425 0.284,0.531 0.354,0.142 0.46,-0.213 0.39,-0.426 l -10e-4,0.002 z m -1.241,1.275 c -0.177,-0.426 -0.529,-0.815 -0.317,-1.346 0.14,-0.426 0.388,-0.958 0.885,-1.135 l 0.248,-0.07 0,-0.106 c -0.567,-0.036 -1.026,-0.002 -1.276,0.53 -0.282,1.028 -0.211,2.268 0.25,3.154 0.388,-0.177 0.495,-0.71 0.21,-1.027 m 1.914,3.72 c 0.249,-1.063 0.32,-2.337 0.107,-3.403 -0.283,-0.352 -0.531,0.143 -0.779,0.213 -0.78,0.603 -1.525,1.384 -1.807,2.304 -0.143,0.036 -0.213,-0.141 -0.143,-0.212 0.355,-1.948 -0.992,-3.791 0.355,-5.492 0.283,-0.143 0.602,-0.461 0.957,-0.214 0.105,0.108 0.248,0.284 0.39,0.214 0.176,-0.106 0,-0.247 0,-0.355 -0.496,-0.46 -1.204,-0.318 -1.736,-0.672 L 11.555,13.502 C 10.35,13.68 9.11,13.432 7.941,13.219 7.09,13.68 6.098,13.822 5.213,14.247 c 0.035,0.248 0.318,0.248 0.531,0.284 1.878,0.142 3.721,-0.142 5.35,-0.745 0.674,0.037 0.389,0.815 0.745,1.17 0.354,0.566 0.992,0.46 1.417,0.637 -0.708,2.339 -0.992,5.244 -0.425,7.761 0.248,0.602 0.567,1.346 1.275,1.559 1.382,-0.036 1.56,-1.631 1.984,-2.587 M 1.315,2.66 C 1.031,1.846 1.563,0.924 0.961,0.179 0.5,-0.28 0.127,0.179 -0.174,0.465 c -0.224,0.212 -0.329,0.523 -0.313,0.684 -0.324,0.855 -0.43,1.617 -0.501,2.539 0.07,0.248 0.319,0.178 0.46,0.319 C 0.394,4.22 0.712,3.086 1.315,2.66 M 4.185,0.89 C 4.008,0.358 3.937,-0.28 3.406,-0.599 3.157,-0.635 3.016,-0.387 2.839,-0.316 2.696,0.252 2.414,0.959 2.768,1.526 3.299,1.456 3.937,1.421 4.185,0.89 M 6.842,0.074 C 6.63,-0.385 6.913,-0.92 6.593,-1.308 6.205,-1.52 6.133,-1.025 5.851,-0.812 5.744,-0.421 5.673,0.285 5.956,0.64 6.311,0.641 6.807,0.534 6.842,0.074 m 4.536,0.567 c -0.214,-1.026 -0.461,-2.161 -0.284,-3.226 -0.248,-0.176 -0.355,-0.742 -0.778,-0.529 -0.887,0.778 -0.64,2.019 -0.922,3.082 0.071,0.816 1.028,0.672 1.559,0.922 0.211,0.069 0.425,-0.071 0.425,-0.25 l 0,0.001 z M -4.637,7.515 C -4.178,6.629 -3.291,5.814 -2.3,5.601 -1.591,5.531 -1.094,5.885 -0.421,5.954 -0.137,5.565 -0.28,5.141 -0.315,4.68 -1.167,4.291 -2.193,3.829 -3.185,4.255 -4.248,4.61 -5.24,5.565 -5.381,6.7 -5.488,7.409 -5.701,8.33 -5.275,8.967 -4.637,8.861 -4.956,7.94 -4.637,7.515 m 28.877,8.434 c 0.178,-0.639 -0.637,-0.815 -1.027,-1.028 -0.177,0.035 -0.283,0.177 -0.355,0.354 0.036,0.214 0.106,0.461 0.355,0.566 0.318,0.108 0.708,0 1.027,0.106 l 0,0.002 z m 5.989,2.126 c -0.745,-1.95 -2.977,-2.234 -4.642,-2.73 l -0.036,0.036 c 0.353,0.638 1.063,1.169 1.135,1.913 1.061,0.532 2.302,0.744 3.436,0.956 l 0.107,-0.175 z m 6.165,3.188 c 0.425,-0.426 0.708,-0.957 0.603,-1.595 -0.603,-1.665 -2.374,-2.585 -3.898,-3.083 -2.304,-0.39 -4.324,-1.417 -6.662,-1.737 0.991,0.817 2.551,0.709 3.472,1.844 l 1.134,2.02 1.701,1.133 c 0,0.108 0,0.213 -0.107,0.248 -0.884,-0.14 -1.487,-1.027 -2.338,-1.311 -2.976,-1.204 -6.803,-0.602 -8.823,-3.791 -0.211,-0.282 -0.212,-0.815 0,-1.099 0.213,-0.424 0.673,-0.39 1.064,-0.46 l 0,-0.177 C 21.122,12.406 19.492,11.199 19.279,9.464 19.315,9.18 19.386,8.825 19.705,8.72 l 0.637,0.176 c 2.516,2.091 4.997,4.394 8.576,3.969 1.346,-0.176 2.693,-0.071 3.967,-0.425 1.879,-0.425 3.864,-0.78 5.033,-2.622 C 38.272,8.932 38.732,7.657 37.882,6.842 35.367,4.398 31.575,4.857 29.378,2.022 29.024,1.668 28.386,1.244 28.527,0.712 l 0.533,0.354 c -0.568,-1.807 -0.957,-3.722 -1.098,-5.704 -0.32,-1.277 -0.355,-2.659 -0.922,-3.826 0.034,-0.143 -0.036,-0.355 0.177,-0.393 0.284,0.038 0.495,0.568 0.745,0.354 -0.32,-1.097 -1.064,-2.194 -2.233,-2.478 l -0.106,-0.072 c 0.069,-0.39 0.884,-0.283 0.566,-0.779 -0.566,-0.496 -1.24,-0.603 -1.949,-0.709 -0.213,-0.105 -0.213,-0.355 -0.106,-0.462 0.177,-0.175 0.354,-0.317 0.354,-0.565 -1.665,-1.241 -4.146,-1.062 -6.059,-0.639 -0.389,0.285 -0.956,0.214 -1.346,0.602 l 0.036,0.179 c 1.027,0.816 2.267,1.276 3.153,2.161 -0.319,0.142 -0.709,-0.071 -0.993,-0.248 -1.913,-1.345 -3.968,-2.728 -6.589,-2.126 -1.596,0.036 -3.119,0.709 -4.076,2.02 -0.142,0.354 -0.071,0.78 0.107,1.097 0.46,0.71 1.098,-0.495 1.629,0.214 0.354,0.496 0.496,1.028 0.638,1.594 l -0.106,0.107 c -0.497,-0.354 -0.249,-1.842 -1.276,-1.276 -0.283,0.32 -0.566,0.638 -0.672,0.992 0.141,0.389 0.318,0.922 0.779,1.028 0.603,0.106 0.992,-0.426 1.452,-0.673 0.39,-1.204 0.567,-2.729 1.914,-3.261 0.709,-0.106 1.133,0.497 1.595,0.921 0.637,-0.069 0.744,-1.062 1.488,-1.062 1.24,-0.035 1.771,1.347 2.231,2.231 0.036,0.533 -1.027,0.355 -0.637,0.993 2.232,1.631 3.436,3.898 5.138,5.847 0.744,1.593 1.913,2.977 2.657,4.535 1.028,1.984 1.984,4.111 3.897,5.67 0.248,0.425 0.285,1.027 0,1.453 -0.568,0.567 -1.452,0.743 -1.77,1.594 l 0.105,0.248 c 1.135,0.389 2.092,1.098 3.155,1.559 0.035,0.141 -0.038,0.212 -0.107,0.318 -1.843,-1.097 -3.863,-1.7 -5.882,-2.338 C 20.413,8.294 16.8,4.22 12.441,1.951 10.669,1.491 9.04,0.215 7.02,0.747 5.07,1.101 3.122,1.491 1.634,2.873 0.783,3.548 0.04,4.468 0.251,5.601 0.288,5.956 0.712,6.168 0.535,6.558 0.394,6.772 0.217,6.487 0.04,6.629 c -0.214,0.355 0,0.78 0,1.206 0.886,0.247 1.735,0.99 2.197,1.806 0.177,1.277 1.558,1.063 2.444,1.311 2.551,-0.106 4.925,-0.603 7.016,-1.843 0.177,0.319 -0.426,0.532 -0.106,0.886 0.424,0.284 0.885,0.496 1.311,0.638 1.417,-0.106 2.869,0.248 4.181,-0.32 0.176,0.108 0.036,0.284 -0.035,0.355 -0.143,0.178 -0.603,0.25 -0.39,0.566 3.543,1.879 3.543,6.131 6.803,8.399 3.401,2.763 8.963,3.969 12.933,1.63 m -7.831,24.485 c 0.283,-0.567 0.958,-1.419 1.24,-2.163 l -0.035,0.002 0.212,-0.391 -0.071,0 c -0.034,-0.106 0.283,-0.319 0.107,-0.46 l 0.248,-0.32 -0.142,-0.07 c 0.176,-0.036 0.249,-0.247 0.177,-0.391 0.107,-0.601 0.141,-1.558 0.141,-2.373 l -0.034,0 0.071,-1.629 -0.037,0 c 0.107,-1.064 0.25,-2.481 0.958,-3.474 0.035,-0.317 0.497,-0.709 0.355,-1.063 l 0.142,-0.141 -0.142,-0.106 c 0.354,-0.141 -0.142,-0.249 -0.036,-0.425 -0.213,-0.354 -0.106,-0.638 0.071,-0.993 l 0.212,0 0,-0.07 0.39,0.105 c -0.141,0.179 0.071,0.178 0.071,0.32 -0.178,0.07 0,0.177 0,0.283 l 0.106,0.106 c -0.177,0.142 0.211,0.39 0.07,0.532 0.141,0.319 0.248,0.743 0.462,1.028 -0.214,0.177 0.071,0.354 0.141,0.495 0.427,-0.212 0.248,-0.603 0.601,-0.886 -0.14,-0.106 0.073,-0.177 0.073,-0.283 l -0.036,10e-4 c -0.037,-0.143 0.036,-0.213 0.177,-0.355 -0.177,-0.071 -0.034,-0.213 0,-0.283 l -0.034,0 c 0.069,-0.249 0,-0.568 -0.107,-0.745 l -0.036,0 c 0.143,-0.389 -0.319,-1.027 0.425,-1.311 0.247,0.07 0.036,0.355 0.214,0.531 0.07,-0.034 0.07,0.036 0.14,0.071 l -0.107,0.071 c 0.143,-0.106 0.249,0.283 0.426,0 0.213,0.214 0.356,-0.284 0.604,-0.106 0.317,-0.212 0.566,-0.531 0.388,-0.887 -0.319,-0.318 -0.495,-0.566 -0.779,-0.814 l 0.107,-0.106 -0.355,-0.46 0.141,-0.106 c -0.177,-0.072 -0.035,-0.178 10e-4,-0.284 0.284,0.071 0.424,0 0.673,0.318 l -0.107,0.072 c 0.745,0.921 1.809,2.089 2.906,2.479 0.568,0.673 1.524,0.886 2.268,1.383 0.496,0.035 0.922,0.531 1.489,0.531 0.212,0.355 0.423,-0.035 0.637,0.319 0.282,10e-4 0.636,0.247 0.956,0.212 1.097,0.497 2.445,0.956 3.544,1.346 l 0.071,-0.105 c 0.142,0 0.248,0.39 0.424,0.141 0.213,0.354 0.816,0.284 1.206,0.532 1.063,0.319 2.019,0.743 2.977,1.169 0.211,-0.142 0.459,0.39 0.672,0.213 0.214,0.248 0.639,0.745 0.993,0.638 0.036,-0.107 -0.249,-0.178 0,-0.213 -0.249,-0.141 0.106,-0.46 -0.177,-0.567 -0.072,-0.426 -0.284,-1.063 -0.32,-1.665 -0.176,-0.283 -0.211,-0.674 -0.354,-0.992 -0.035,-0.213 -0.105,-0.426 -0.177,-0.639 l -0.106,10e-4 c -0.072,-0.46 -0.283,-0.921 -0.461,-1.346 -0.07,-0.285 -0.461,-0.639 -0.39,-0.923 -0.283,-0.425 -0.283,-1.061 -0.707,-1.345 0,-0.071 0.105,-0.036 0.069,-0.107 -0.142,-0.212 -0.318,-0.355 -0.496,-0.53 l 0.073,-0.107 c -0.18,-0.354 -0.497,-0.497 -0.639,-0.744 0.283,0.176 0.034,0.672 0.389,0.851 l -0.071,0.07 c 0.071,0.39 0.531,0.744 0.531,1.134 0.178,0.353 0.426,0.531 0.391,0.991 -0.036,0.214 0.248,0.391 0.318,0.603 -0.249,0.177 0.248,0.319 0.071,0.496 0.071,0.142 0.213,0.248 0.177,0.39 l -0.035,10e-4 c 0.141,0.282 -0.036,0.529 0.212,0.885 -0.177,0.106 0.248,0.319 0.037,0.46 0.07,0.143 0.211,0.248 0.177,0.391 l -0.072,0 c 0.072,0.14 0.319,0.248 0.143,0.424 0.176,0.319 0.602,0.532 0.638,0.816 0.034,-0.036 0.034,-0.071 0.071,-0.036 0,0.284 0.494,0.815 -0.107,1.063 -0.426,0.143 -0.567,-0.355 -0.602,-0.389 l 0.035,-0.036 c -0.141,-0.248 -0.461,-0.531 -0.674,-0.531 l -0.99,-0.887 -0.037,0.036 c -1.24,-0.992 -3.012,-1.949 -4.323,-3.012 -0.744,-0.708 -2.091,-1.843 -2.942,-2.587 l -0.176,0.036 c -0.461,-0.425 -0.992,-1.064 -1.594,-1.523 l -0.176,0 c -0.641,-0.603 -1.526,-1.312 -1.879,-2.056 -0.177,0.142 -0.035,-0.105 -0.141,-0.142 -0.18,0.107 0,-0.105 -0.107,-0.142 0,-0.07 -0.214,-0.284 -0.248,-0.354 0.034,-0.142 0.212,-0.355 0.355,-0.496 0.353,0.142 0.742,0.106 0.99,0.354 l 0.214,0 0,0.036 c -0.107,0.071 0.247,-0.107 0.176,0.106 l 0.071,0 c 0,-0.035 0.071,-0.07 0.107,-0.106 0.107,0.036 0.035,0.176 0,0.213 0.212,-0.107 0.035,-0.177 0.107,-0.354 l 0,-0.284 c -0.073,0 -0.107,0.106 -0.178,0 l 0.142,-0.142 C 40.965,24.7 41.036,24.487 40.894,24.203 41.07,23.991 40.788,23.779 40.823,23.707 l 0.034,-0.248 -0.034,0.036 c -0.107,-0.177 0.035,-0.213 0.106,-0.354 -0.035,0 -0.071,-0.036 -0.071,-0.072 0.285,-0.071 0.285,-0.175 0.673,-0.071 0.107,0.037 -0.106,0.178 0.073,0.143 0.105,0.566 0.956,0.886 1.345,1.275 0.213,-0.176 0.248,0.142 0.424,0.142 l 0.071,-0.07 c -0.071,0.355 0.285,-0.001 0.392,0.212 l -10e-4,-0.035 0.211,0 -0.105,-0.107 c 0.071,-0.035 0.142,-0.071 0.142,-0.142 l -0.142,-0.141 c 0.354,-0.141 -0.142,-0.177 0.142,-0.354 0.036,-0.426 0.141,-0.852 -0.071,-1.276 l 0.071,-0.105 c -0.284,-0.249 -0.39,-0.71 -0.852,-0.64 0.107,-0.212 -0.034,-0.46 0.249,-0.637 0.461,-0.035 0.639,0.424 1.1,0.461 1.665,0.354 3.293,0.992 5.066,0.213 l 0.425,-0.354 c -0.072,-0.107 -0.175,-0.25 -0.319,-0.32 l -0.106,0.07 -1.275,-1.31 c 0.248,-0.034 -0.072,-0.212 0.034,-0.284 0.602,-0.957 1.56,-0.921 2.127,-1.842 l -0.036,0 c 0.319,-0.213 0.425,-0.603 0.744,-0.921 l -0.071,0 c 0,-0.177 0.248,-0.391 0.319,-0.532 l -0.106,-0.07 c 0.354,-0.355 0.283,-0.781 0.531,-1.17 -0.071,-0.141 0.284,-0.319 0.072,-0.461 0.176,0 0.142,-0.248 0.212,-0.284 l -0.07,-0.104 c 0.177,-0.285 0.142,-0.604 0.211,-0.853 0.036,-0.283 -0.069,-0.531 0.037,-0.778 l -0.071,-0.108 c 0.106,-0.387 -0.072,-0.919 -0.177,-1.345 l 0,-0.106 c -0.425,0.034 -0.71,0.069 -1.027,0.319 l -0.073,-0.108 c -0.248,0.037 -0.531,0.179 -0.778,0 -0.25,-0.069 -0.284,-0.318 -0.142,-0.495 0.955,-0.921 0.886,-2.587 0.425,-3.792 L 50.319,6.842 C 50.355,6.806 50.39,6.771 50.425,6.806 50.355,6.594 50.213,6.842 50.107,6.664 L 49.149,7.621 49.114,7.551 C 49.007,7.763 48.76,7.657 48.583,7.869 48.017,7.551 48.157,6.876 48.087,6.345 l -0.143,-0.636 0.037,0 c 0.106,-0.178 -0.213,-0.214 0,-0.355 C 47.803,4.928 47.838,4.468 47.732,3.936 l -0.035,0 C 47.59,2.838 47.484,1.349 46.811,0.428 46.527,0.18 46.74,-0.211 46.386,-0.458 46.209,-0.741 46.138,-1.201 45.961,-1.52 c -0.566,-0.283 -1.062,0.14 -1.629,0.105 l -2.801,0.036 c -0.212,0.178 0.248,0.248 0,0.426 0.107,0.142 0.179,0.318 0.073,0.495 0.07,-0.035 0.07,0 0.106,0.035 -0.036,0.143 -0.143,0.178 0.035,0.284 -0.071,0.213 0,0.461 -0.141,0.673 0.141,0.39 -0.179,0.601 -0.214,1.028 C 41.036,2.98 40.079,4.077 38.839,4.999 38.52,4.965 38.272,5.495 38.06,5.354 l -0.427,0.355 c 0.107,0.495 0.639,0.885 0.888,1.344 0.141,0.107 0.354,0.887 0.318,1.205 0.071,1.17 -0.567,2.41 -1.737,3.226 -0.39,0.389 -0.85,0.637 -1.382,0.745 -0.213,0.14 -0.708,0.211 -0.956,0.353 -0.674,0.07 -1.134,0.531 -1.772,0.425 l 0,0.035 c -0.425,0.106 -0.674,-0.177 -1.169,0.036 l -0.106,0.141 c -0.39,-0.212 -0.779,0.071 -1.24,0.071 -0.071,-0.106 -0.142,0 -0.213,0 l -0.637,0.072 0,0.034 c -0.674,0.106 -1.949,-0.035 -2.8,-0.177 -0.426,0.143 -1.028,-0.39 -1.452,-0.212 -0.286,-0.248 -0.497,-0.248 -0.85,-0.283 C 23.673,12.086 22.68,11.448 21.796,10.739 21.405,10.243 20.839,9.782 20.236,9.25 20.058,9.358 19.917,9.146 19.811,9.393 l 0,0.071 0.036,0 c -0.143,1.099 1.062,1.912 1.913,2.657 l 0.071,-0.106 c 0.248,0.178 0.425,0.531 0.709,0.425 0.035,0.176 0.283,0.176 0.424,0.354 l 0.072,-0.07 c 0.389,0.424 0.814,0.389 1.24,0.637 0.142,0.213 0.389,0.035 0.531,0.284 0.142,-0.177 0.354,0.034 0.426,0.141 1.204,0.497 2.479,0.532 3.542,1.099 0.178,-0.035 0.497,0.036 0.71,0.071 0.39,0.284 0.744,0.354 1.205,0.425 l 0.034,-0.035 c 0.071,0.143 0.214,0.143 0.355,0.211 l 0.071,-0.068 c 0.318,0.141 0.603,0.104 1.026,0.247 0.107,-0.071 0.142,0.07 0.214,0.105 0.142,-0.141 0.388,0.32 0.602,0.106 0.07,0.036 0.213,0.284 0.32,0.071 0.141,0.427 0.672,0.143 0.814,0.532 0.036,-0.035 0.106,-0.178 0.177,-0.071 0.143,0 0.284,0.425 0.461,0.213 l 0.425,0.391 0.107,-0.071 c 0.211,0.035 0.424,0.459 0.565,0.248 l 0,0.177 c 0.249,-0.072 0.179,0.176 0.321,0.212 l 0.708,0.638 c -0.036,0.035 -0.036,0.07 -0.036,0.106 0.036,0 0.036,-0.036 0.071,-0.036 -0.106,0.249 0.283,0.461 0.426,0.673 -0.213,0.25 0.282,0.391 0.107,0.568 0.141,0.213 0.034,0.567 0.07,0.708 l -0.107,0.141 0.107,0.143 c -0.177,0.106 -0.32,0.284 -0.39,0.46 0.07,-0.035 0.07,0 0.107,0.035 l -0.178,0.072 0.035,0.071 c -0.283,0.319 -0.708,0.85 -1.168,0.921 -0.321,0.46 -0.887,0.319 -1.241,0.602 -0.036,-0.034 -0.07,-0.035 -0.036,-0.106 -0.567,0.072 -1.063,0.531 -1.594,0.353 l -0.178,0.143 c -0.034,-0.035 -0.034,-0.106 -0.034,-0.143 l -0.107,0 c 0,0.037 0,0.107 -0.07,0.143 -0.071,-0.177 -0.177,-0.143 -0.32,0 l -0.036,-0.143 c -0.176,-0.069 -0.247,0.32 -0.282,0 -0.214,0.25 -0.355,-0.141 -0.532,0.037 l -0.531,-0.177 0,0.071 C 30.69,23.072 30.05,22.573 29.696,22.821 29.484,22.645 29.342,22.751 29.025,22.645 28.457,22.432 27.678,22.396 27.11,22.149 l -0.177,0.071 c 0.141,-0.212 -0.213,-0.071 -0.285,-0.212 0,0.07 -0.034,0.07 -0.034,0.105 C 26.543,21.972 26.332,21.972 26.26,21.9 l -0.071,0.072 c -0.071,-0.106 -0.285,-0.319 -0.426,-0.107 l -0.424,-0.353 -0.037,0.035 -0.531,-0.39 -0.071,0.106 C 24.488,21.051 24.17,20.802 23.921,20.731 23.568,20.52 23.425,20.165 22.964,20.058 l -2.055,-2.161 0.036,-0.035 -0.177,-0.036 0.106,-0.105 c -0.638,-0.39 -0.284,-0.888 -0.851,-1.277 0.035,-0.178 -0.282,-0.354 -0.318,-0.603 -0.142,-0.495 -0.461,-0.778 -0.567,-1.31 -0.107,-0.318 -0.496,-0.674 -0.531,-0.957 -0.71,-0.779 -1.559,-1.951 -2.622,-2.056 -0.355,-0.211 -0.497,-0.319 -0.886,-0.247 -0.214,-0.142 -0.425,-0.178 -0.602,-0.106 -0.957,-0.213 -2.056,-0.036 -2.871,-0.639 -0.248,0.107 -0.318,-0.141 -0.496,-0.248 -0.248,0.071 -0.497,-0.106 -0.814,0 -1.666,0.568 -3.651,1.028 -5.351,1.064 -0.674,0 -1.206,0.071 -1.949,-0.071 l -0.248,0.284 c 0.283,0.142 -0.213,0.247 0.071,0.389 l -0.143,0.177 0.143,0.108 c -0.107,0.14 -0.496,0.353 -0.284,0.53 -0.283,0.106 0.143,0.248 -0.106,0.319 l -10e-4,0.106 c 0.107,0.107 0.461,0.106 0.603,0.248 0.389,-0.107 0.674,0.213 1.098,0.036 0,-0.036 0.036,-0.072 0.036,-0.072 l 0.212,0.072 0,-0.036 c 0.319,-0.141 0.745,0.07 1.028,-0.142 l 0.142,0.106 c 0.531,-0.354 0.991,-0.177 1.523,-0.637 0,0.178 0.178,0.035 0.249,0 0.708,-0.638 1.665,0.283 2.374,0.07 0.461,0.178 0.956,-0.14 1.417,-0.035 0.248,10e-4 0.531,-0.178 0.709,-0.035 1.17,0.673 1.842,1.772 3.295,1.7 0.425,0.177 0.921,0.78 1.028,1.241 -0.107,0.319 0.354,0.531 0.248,0.921 0.176,0.213 -0.035,0.426 0.176,0.639 0.036,0 0.072,0.069 0.108,0.069 -0.072,0.32 0.141,0.603 0.141,0.958 l 0.177,0.035 -0.177,0.249 0.106,0.106 c -0.319,0.105 0.178,0.212 -0.106,0.425 0.106,0.071 0.106,0.142 0.035,0.248 0.035,0.177 0.107,0.354 0.071,0.602 0,0.426 -0.177,0.815 -0.036,1.133 -0.283,0.248 0.072,0.321 -0.211,0.568 -0.108,0.213 0.141,0.46 -0.036,0.638 l 0.036,0 c -0.036,0 -0.319,0.282 -0.072,0.425 -0.389,0.248 -0.106,0.531 -0.46,0.743 0.035,0.32 -0.391,0.532 -0.355,0.852 -0.141,0.071 -0.177,0.176 -0.248,0.318 L 15.63,24.7 c -0.39,0.532 -0.956,0.779 -1.454,0.851 -0.495,-0.284 -0.991,-0.39 -1.38,-0.886 0.106,-0.249 -0.462,-0.567 -0.32,-0.781 -0.177,-0.14 -0.142,-0.425 -0.248,-0.637 l -0.035,0.001 c 0,-0.284 -0.141,-0.567 -0.071,-0.852 -0.248,-0.14 0.035,-0.496 -0.176,-0.637 l 0.034,0 C 11.946,21.476 11.946,21.192 11.946,20.944 11.98,20.696 11.874,20.447 11.91,20.165 l -0.072,0 c 0.177,-0.532 -0.035,-1.029 0.214,-1.453 0.07,-0.319 0.07,-0.674 0.141,-0.957 l -0.071,-0.071 c 0,-0.247 0.177,-0.46 0.106,-0.708 0,-0.142 0.177,-0.32 0.036,-0.532 0.177,-0.142 0.035,-0.391 0.141,-0.531 -0.531,-0.32 -1.275,-0.815 -1.417,-1.454 -0.212,-0.034 -0.355,0.072 -0.531,0 -0.283,0.355 -0.46,-0.035 -0.672,0.32 L 9.606,14.673 9.465,14.779 c -0.178,-0.178 -0.319,0.212 -0.497,0 L 8.65,14.992 c -0.248,-0.178 -0.78,0.034 -1.134,-0.036 -0.461,0.178 -0.992,0 -1.418,0.178 L 5.956,14.992 5.815,15.134 5.673,14.992 c -0.39,0.142 -0.957,-0.249 -1.311,-0.001 -0.071,0.177 0.107,0.639 0.035,0.709 0.178,0.249 0.143,0.85 0.531,1.062 -0.07,0.355 0.497,0.639 0.674,0.957 -0.744,1.028 -1.63,-0.282 -2.551,-0.177 L 2.98,17.721 c -0.035,0.424 0.532,0.672 0.497,1.026 0.956,2.02 2.764,3.436 4.712,4.074 0.142,0.108 0.354,0.248 0.213,0.461 l 0.034,0 c -0.283,0.604 -1.134,0.284 -1.558,0.639 0.106,0.461 0.567,0.849 0.886,1.133 0,-0.071 0.035,-0.071 0.035,-0.106 l 0.106,0.177 C 7.941,25.09 7.977,25.09 8.012,25.09 c 0.283,0.319 0.922,1.064 1.346,1.098 l 0.532,0.461 c 0.177,-0.141 0.177,0.142 0.354,0.106 l 0,0.071 0.072,0 0,-0.035 c 0.069,0.035 0.46,0.283 0.637,0.318 l -0.036,0.071 c 0.284,-0.106 0.497,0.496 0.852,0.355 0.246,0.105 0.849,0.318 1.24,0.495 0.034,10e-4 0.07,0.072 0.105,0.072 l 0.106,-0.071 c 0.248,0.354 0.886,0.425 1.277,0.496 0.495,0.142 1.062,0.53 1.558,0.425 0.461,0.248 0.78,0.177 1.205,0.389 0.389,0 0.602,0.179 1.027,0.179 l 0,-0.072 0.674,0.177 0.07,-0.071 c 0.177,0.249 0.391,0.035 0.566,0.248 0.214,-0.035 0.533,0.071 0.816,0.071 0.426,0.072 0.603,0.213 1.063,0.39 0.142,-0.071 0.355,0.212 0.497,0.141 l 0.46,0.462 c -0.284,0.141 0.213,0.211 -0.071,0.353 0,0.036 0,0.071 0.036,0.107 0.142,-0.213 0.354,-0.249 0.566,-0.249 0.674,0.249 1.17,1.135 1.736,1.526 0.284,0.566 0.568,1.026 1.099,1.664 -0.07,0.354 0.533,0.531 0.426,0.922 0.423,0.283 0.318,0.814 0.779,1.063 -0.177,0.247 0.248,0.388 0.106,0.708 0.213,0.425 0.425,0.886 0.532,1.382 0.105,0.248 0.141,0.602 0.354,0.85 -0.141,0.319 0.282,0.39 0.141,0.744 0.283,0.107 -0.034,0.354 0.249,0.496 -0.108,0.143 0,0.283 0.141,0.39 -0.141,0.426 0.178,0.921 0,1.311 -0.035,0.071 0.036,0.106 0.072,0.177 -0.107,0.212 -0.107,0.353 0,0.531 -0.036,0.072 -0.107,0.107 -0.072,0.178 l 0.072,0.107 c -0.179,0.105 -0.141,0.388 -0.284,0.496 -0.285,0.141 -0.496,-0.037 -0.603,-0.284 -0.211,-0.425 -0.07,-0.567 -0.46,-0.922 0.212,0.603 0.249,1.169 0.46,1.666 0.071,0.425 0.284,0.779 0.356,1.204 0.104,0 0.14,0.143 0.104,0.248 L 28.208,45.5 c -0.071,0.176 0.107,0.389 0.284,0.459 0.141,-0.035 -0.141,-0.212 0.071,-0.212 l 0,10e-4 z m 0.497,0.565 c 0.673,-1.77 1.84,-3.329 1.913,-5.314 0.106,-2.373 -0.214,-4.96 1.276,-6.697 0.248,-0.07 0.388,0.212 0.425,0.355 0.07,1.133 0.248,2.267 0.353,3.366 0.035,-2.056 1.383,-3.579 1.63,-5.598 0.603,-0.674 1.559,-0.532 2.126,-1.312 l 0.425,0.106 c 3.367,2.552 7.372,3.545 11.269,4.82 2.089,0.709 4.109,1.558 5.953,2.869 0.14,10e-4 0.283,0.036 0.46,0.036 0.142,-0.495 -0.566,-0.886 -0.637,-1.417 -0.497,-2.693 -1.595,-5.174 -2.375,-7.76 0.107,-2.623 -0.283,-5.031 -2.021,-6.91 0.178,-0.742 1.099,-0.566 1.525,-1.133 l -0.035,-0.212 c -0.745,-0.497 -1.771,-0.533 -2.303,-1.454 l 0.07,-0.282 c 2.942,-2.198 4.217,-5.777 3.33,-9.32 -0.459,-0.426 -1.062,0.778 -1.344,0 C 51.842,8.967 51.027,7.373 50.639,5.991 50.496,5.921 50.425,5.709 50.249,5.779 49.857,6.275 49.362,6.735 48.794,6.771 48.264,5.886 48.477,4.68 48.122,3.688 47.803,1.563 47.023,-0.387 45.997,-2.23 c -0.745,-0.106 -1.417,0.426 -2.198,0.354 -1.098,0.178 -2.125,-0.107 -3.083,-0.248 -0.107,0.638 0.355,1.135 0.391,1.772 0,1.701 -0.532,3.295 -1.915,4.429 C 38.379,4.68 37.458,5.07 36.429,5.177 34.162,4.361 31.681,3.793 30.016,1.88 l -1.098,-2.479 c -0.355,-2.446 -0.887,-4.821 -1.206,-7.264 0.25,-0.213 0.639,0.532 0.78,-0.106 -0.106,-1.029 -0.744,-1.844 -1.24,-2.694 0.283,-0.247 0.036,-0.568 -0.142,-0.78 -0.709,-0.743 -1.666,-0.955 -2.445,-1.487 -0.036,-0.354 0.674,-0.601 0.213,-0.922 -1.948,-1.345 -4.748,-1.239 -7.016,-0.743 l -1.7,0.816 c -2.764,-0.428 -6.06,-0.428 -7.831,1.947 -0.461,0.922 0.247,1.666 0.39,2.48 -0.674,1.844 -0.709,4.182 -0.319,6.13 0.318,-0.319 0.212,-0.921 0.46,-1.347 0.319,-1.169 0.781,-2.337 1.877,-3.117 0.214,-0.107 0.355,0.106 0.426,0.248 l 0.213,1.878 C 9.676,-4.107 9.075,-2.124 8.968,0.038 8.65,0.465 7.977,0.285 7.552,0.215 6.771,-0.385 7.103,-1.568 6.95,-2.442 6.842,-2.761 6.954,-3.192 6.737,-3.505 6.133,-3.222 6.169,-2.442 5.815,-1.946 5.39,-1.167 5.46,-0.316 5.106,0.499 4.892,0.712 4.681,0.499 4.54,0.393 4.043,-0.599 4.114,-1.876 3.831,-2.902 3.299,-2.585 3.051,-1.946 2.803,-1.415 2.307,-0.458 2.095,0.677 1.988,1.739 L 1.846,1.881 C 1.28,1.456 1.705,0.499 1.634,-0.104 1.638,-0.652 1.61,-0.358 1.918,-1.449 2.059,-1.91 2.272,-2.578 2.201,-3.073 l -0.248,0.171 c -0.744,0.638 -1.63,1.416 -1.879,2.267 -0.672,1.276 -1.451,2.515 -1.629,4.003 -0.426,0.214 -0.993,0.107 -1.489,0.25 -1.346,0.176 -2.267,1.629 -2.657,2.799 -0.283,0.956 -0.391,2.16 -0.107,3.153 -0.46,0.851 -0.849,1.914 -0.495,2.94 0.673,1.594 2.374,2.091 3.862,2.375 1.523,-0.035 2.87,-0.496 4.075,-1.24 0.743,0.284 1.948,0.212 2.054,1.24 l 0.497,2.198 -0.213,0.177 -1.7,-0.461 c -0.284,0.141 -0.142,0.566 -0.035,0.814 0.885,1.843 2.054,3.72 3.861,5.032 -0.425,0.249 -0.142,0.744 0,1.062 3.721,4.962 9.603,5.6 14.989,7.017 0.992,0.283 0.424,1.488 0.744,2.196 0.531,1.949 1.63,3.686 2.515,5.528 1.949,2.551 3.118,5.422 3.826,8.503 0.533,0.568 0.781,-0.318 0.888,-0.638" />
      </g>
      <g
         transform="translate(350.8734,514.8195)"
         id="g5343">
        <path
           inkscape:connector-curvature="0"
           id="path5345"
           style="fill:#ffffff;fill-opacity:1;fill-rule:evenodd;stroke:none"
           d="M 0,0 C 0.425,-0.426 0.708,-0.956 0.603,-1.594 0,-3.259 -1.771,-4.18 -3.295,-4.677 c -2.304,-0.391 -4.324,-1.418 -6.662,-1.738 0.991,0.817 2.551,0.709 3.472,1.845 l 1.135,2.019 1.7,1.133 c 0,0.108 0,0.213 -0.107,0.248 -0.884,-0.14 -1.487,-1.026 -2.338,-1.31 -2.976,-1.205 -6.803,-0.602 -8.823,-3.792 -0.211,-0.282 -0.212,-0.814 0,-1.098 0.213,-0.425 0.673,-0.39 1.064,-0.461 l 0,-0.176 c -1.417,-0.85 -3.047,-2.056 -3.26,-3.792 0.035,-0.284 0.106,-0.639 0.425,-0.744 l 0.637,0.176 c 2.516,2.092 4.997,4.395 8.576,3.969 1.346,-0.176 2.693,-0.07 3.967,-0.424 1.879,-0.425 3.864,-0.78 5.032,-2.623 0.355,-0.885 0.815,-2.16 -0.035,-2.975 -2.515,-2.445 -6.307,-1.985 -8.504,-4.82 -0.354,-0.355 -0.992,-0.779 -0.851,-1.311 l 0.532,0.355 c -0.567,-1.807 -0.956,-3.722 -1.097,-5.704 -0.32,-1.278 -0.355,-2.659 -0.922,-3.827 0.034,-0.143 -0.036,-0.355 0.177,-0.392 0.284,0.037 0.495,0.568 0.745,0.354 -0.32,-1.097 -1.064,-2.194 -2.233,-2.478 l -0.106,-0.072 c 0.069,-0.39 0.884,-0.283 0.566,-0.779 -0.566,-0.496 -1.24,-0.603 -1.949,-0.709 -0.212,-0.105 -0.212,-0.355 -0.106,-0.462 0.177,-0.175 0.354,-0.318 0.354,-0.565 -1.665,-1.241 -4.146,-1.063 -6.059,-0.639 -0.389,0.285 -0.956,0.214 -1.346,0.601 l 0.036,0.179 c 1.027,0.816 2.267,1.276 3.153,2.162 -0.319,0.141 -0.709,-0.071 -0.992,-0.248 -1.914,-1.346 -3.969,-2.729 -6.59,-2.126 -1.596,0.035 -3.119,0.709 -4.076,2.019 -0.142,0.355 -0.071,0.78 0.107,1.098 0.46,0.709 1.099,-0.496 1.629,0.213 0.355,0.496 0.496,1.028 0.638,1.594 l -0.107,0.107 c -0.496,-0.353 -0.248,-1.842 -1.275,-1.275 -0.283,0.319 -0.566,0.637 -0.672,0.992 0.141,0.389 0.318,0.921 0.779,1.027 0.603,0.107 0.992,-0.425 1.452,-0.673 0.39,-1.204 0.567,-2.728 1.914,-3.26 0.708,-0.106 1.134,0.496 1.595,0.921 0.637,-0.07 0.744,-1.063 1.488,-1.063 1.24,-0.035 1.771,1.348 2.231,2.232 0.036,0.532 -1.027,0.354 -0.637,0.992 2.232,1.631 3.436,3.899 5.138,5.848 0.744,1.593 1.913,2.976 2.657,4.534 1.028,1.985 1.984,4.111 3.897,5.67 0.248,0.426 0.285,1.028 0,1.453 -0.568,0.567 -1.452,0.743 -1.77,1.595 l 0.105,0.248 c 1.135,0.388 2.092,1.097 3.155,1.558 0.035,0.141 -0.038,0.212 -0.107,0.318 -1.843,-1.097 -3.863,-1.7 -5.882,-2.338 -4.536,-1.878 -8.149,-5.951 -12.508,-8.22 -1.772,-0.46 -3.401,-1.736 -5.421,-1.205 -1.95,0.355 -3.898,0.745 -5.386,2.127 -0.851,0.674 -1.594,1.594 -1.383,2.728 0.037,0.354 0.461,0.567 0.284,0.956 -0.141,0.214 -0.318,-0.07 -0.495,0.071 -0.214,0.356 0,0.78 0,1.206 0.886,0.248 1.736,0.99 2.197,1.807 0.177,1.276 1.558,1.062 2.444,1.31 2.551,-0.106 4.925,-0.602 7.016,-1.842 0.177,0.318 -0.426,0.532 -0.106,0.885 0.424,0.284 0.885,0.497 1.311,0.639 1.417,-0.107 2.869,0.248 4.181,-0.321 0.176,0.108 0.036,0.285 -0.035,0.356 -0.143,0.177 -0.603,0.249 -0.39,0.566 3.543,1.879 3.543,6.13 6.803,8.398 C -9.532,1.134 -3.969,2.339 0,0 m -6.165,-3.188 c -0.746,-1.949 -2.977,-2.234 -4.642,-2.729 l -0.036,0.036 c 0.353,0.638 1.064,1.168 1.135,1.912 1.061,0.532 2.302,0.745 3.437,0.957 l 0.106,-0.176 z m -5.989,-2.126 c 0.178,-0.639 -0.637,-0.815 -1.027,-1.028 -0.177,0.036 -0.283,0.177 -0.355,0.354 0.036,0.214 0.106,0.461 0.355,0.566 0.318,0.108 0.708,0 1.027,0.106 l 0,0.002 z m -28.877,-8.434 c 0.459,-0.886 1.346,-1.701 2.337,-1.913 0.709,-0.071 1.206,0.283 1.879,0.353 0.284,-0.389 0.141,-0.814 0.106,-1.274 -0.852,-0.389 -1.878,-0.851 -2.87,-0.426 -1.063,0.355 -2.055,1.311 -2.196,2.445 -0.107,0.709 -0.32,1.63 0.106,2.268 0.638,-0.106 0.319,-1.028 0.638,-1.453 m 16.015,-6.873 c -0.213,-1.027 -0.461,-2.162 -0.284,-3.226 -0.248,-0.176 -0.355,-0.743 -0.778,-0.53 -0.887,0.778 -0.64,2.02 -0.922,3.082 0.072,0.816 1.028,0.673 1.559,0.923 0.212,0.069 0.425,-0.072 0.425,-0.25 l 0,0.001 z m -4.536,-0.567 c -0.212,-0.46 0.072,-0.994 -0.249,-1.382 -0.387,-0.213 -0.46,0.283 -0.742,0.495 -0.107,0.391 -0.178,1.098 0.106,1.453 0.354,0.001 0.85,-0.106 0.885,-0.566 m -2.657,0.816 c -0.176,-0.533 -0.248,-1.17 -0.779,-1.489 -0.249,-0.036 -0.39,0.212 -0.567,0.282 -0.142,0.569 -0.425,1.276 -0.071,1.843 0.531,-0.07 1.169,-0.106 1.417,-0.636 m -2.87,1.77 c -0.284,-0.814 0.248,-1.736 -0.354,-2.481 -0.461,-0.459 -0.834,0 -1.135,0.285 -0.224,0.213 -0.329,0.524 -0.313,0.684 -0.324,0.856 -0.43,1.618 -0.501,2.54 0.07,0.247 0.319,0.178 0.46,0.318 0.922,0.214 1.24,-0.921 1.843,-1.346 m 14.775,19.665 c 0.249,-1.063 0.32,-2.337 0.107,-3.402 -0.283,-0.353 -0.531,0.143 -0.779,0.213 -0.78,0.603 -1.525,1.383 -1.807,2.303 -0.143,0.037 -0.213,-0.14 -0.143,-0.212 0.355,-1.948 -0.992,-3.79 0.355,-5.492 0.283,-0.143 0.602,-0.461 0.957,-0.213 0.105,0.108 0.248,0.283 0.39,0.213 0.176,-0.105 0,-0.247 0,-0.355 -0.496,-0.46 -1.204,-0.318 -1.736,-0.672 l -1.879,-1.206 c -1.205,0.177 -2.445,-0.071 -3.614,-0.284 -0.851,0.461 -1.842,0.603 -2.728,1.029 0.035,0.248 0.318,0.248 0.531,0.283 1.878,0.142 3.722,-0.142 5.35,-0.745 0.674,0.038 0.389,0.815 0.745,1.17 0.354,0.567 0.992,0.461 1.417,0.637 -0.708,2.34 -0.992,5.244 -0.425,7.761 0.248,0.603 0.567,1.347 1.275,1.559 1.382,-0.036 1.56,-1.631 1.984,-2.587 m -1.914,-3.72 c -0.177,-0.425 -0.53,-0.815 -0.317,-1.346 0.14,-0.425 0.388,-0.957 0.885,-1.134 l 0.248,-0.07 0,-0.107 c -0.567,-0.036 -1.026,-0.002 -1.276,0.53 -0.282,1.029 -0.212,2.268 0.25,3.154 0.388,-0.177 0.495,-0.709 0.21,-1.027 m 1.241,-1.275 c 0.071,-0.248 -0.177,-0.284 -0.389,-0.32 -0.071,-0.07 -0.284,0.036 -0.284,0.213 -0.07,0.247 0.107,0.426 0.284,0.531 0.354,0.142 0.46,-0.212 0.39,-0.426 l -0.001,0.002 z M -8.469,20.8 c 0.212,-2.693 -1.205,-4.889 -2.374,-7.087 -0.531,-0.921 -1.133,-1.948 -2.02,-2.623 -0.106,-0.034 -0.176,0.072 -0.248,0.143 l 0.107,0.744 c 1.239,3.012 2.764,5.988 4.358,8.823 l 0.177,0 z m 23.634,-6.981 c 0.036,-2.02 -0.744,-3.755 -1.771,-5.244 l -0.105,0 C 13.216,7.157 12.047,5.988 12.543,4.536 12.438,3.508 11.977,2.587 11.338,1.806 10.453,1.595 9.461,1.418 8.505,1.453 8.15,1.985 8.398,2.729 8.468,3.295 8.505,3.898 8.964,4.429 8.716,4.96 7.652,4.288 6.627,3.544 5.385,3.224 5.21,4.146 5.846,4.996 5.988,5.846 L 5.846,5.955 C 5.315,5.634 4.818,5.245 4.252,5.067 L 4.146,5.138 c 2.302,2.799 5.315,4.642 7.972,7.016 l 2.941,1.737 0.106,-0.072 z m -33.874,-45.036 c -0.212,-0.601 -0.566,-1.381 -1.275,-1.558 -0.39,-0.073 -0.744,0.177 -0.851,0.532 -0.105,0.425 -0.036,0.884 0.212,1.203 l 0.851,0.532 c 0.355,-0.212 0.781,-0.354 1.063,-0.709 m -3.614,-0.459 c 0.071,-0.426 -0.425,-0.71 -0.673,-0.887 -0.319,-0.035 -0.673,0 -0.922,0.283 -0.389,0.355 -0.283,0.816 -0.106,1.24 0.178,0.32 0.603,0.285 0.85,0.178 0.32,-0.176 0.709,-0.461 0.851,-0.814" />
      </g>
      <g
         transform="translate(340.2083,532.7138)"
         id="g5347">
        <path
           inkscape:connector-curvature="0"
           id="path5349"
           style="fill:#b9bbbd;fill-opacity:1;fill-rule:evenodd;stroke:none"
           d="M 0,0 C -0.178,-0.107 -0.071,-0.39 -0.285,-0.567 -0.709,-0.815 -0.638,-1.204 -1.029,-1.56 -1.241,-2.091 -1.382,-2.588 -1.701,-3.047 -1.453,-3.296 -1.949,-3.331 -1.879,-3.614 -2.091,-3.968 -2.056,-4.536 -2.48,-4.677 l 0.07,-0.071 -0.319,-0.497 c -0.035,-0.211 -0.07,-0.496 -0.32,-0.743 0.107,-0.141 0.072,-0.354 -0.105,-0.39 0,-0.249 0,-0.745 -0.213,-0.851 0,-0.035 0.036,-0.07 0.071,-0.035 0.071,-0.107 -0.071,-0.142 -0.107,-0.178 -0.212,0.214 0.143,0.319 -0.105,0.497 0.035,0.213 0.141,0.461 0.105,0.603 -0.141,0.177 0.249,0.176 0,0.318 0.036,0.213 0.249,0.531 0.249,0.779 0.248,0.32 0.212,0.602 0.461,0.852 -0.036,0.354 0.425,0.425 0.283,0.779 l 0.213,0.284 -0.036,0.07 c 0.142,0.319 0.567,0.461 0.532,0.886 0.248,0.283 0.284,0.709 0.637,0.921 0.107,0.461 0.462,1.028 0.674,1.488 L 0.247,0.709 C 0.247,0.532 0,0.283 0,0 m 25.545,-11.091 c 0.037,-1.062 -0.174,-1.844 -0.459,-2.8 -0.78,-0.637 -0.814,-2.302 -2.055,-2.231 -0.107,0.496 0.214,0.886 0.354,1.204 -0.14,0.177 0.284,0.319 0.071,0.497 0.391,0.212 -0.035,0.46 0.284,0.743 0,0.037 -0.071,0.036 -0.071,0.107 l 0.142,0.142 -0.142,0.106 c 0.285,0.141 -0.036,0.425 0.248,0.531 l -0.07,0.177 1.097,1.206 c -0.071,0.283 0.248,0.459 0.461,0.636 -0.178,-0.105 0.214,-0.141 0.14,-0.318 M 2.834,6.591 C 3.117,6.024 3.792,5.172 4.074,4.428 L 4.039,4.43 4.251,4.039 4.18,4.039 C 4.146,3.933 4.463,3.72 4.287,3.579 L 4.535,3.259 4.394,3.189 C 4.569,3.153 4.642,2.942 4.571,2.799 4.677,2.197 4.712,1.24 4.712,0.425 l -0.035,0 0.071,-1.629 -0.036,0 C 4.818,-2.268 4.961,-3.685 5.67,-4.677 5.704,-4.995 6.166,-5.387 6.024,-5.741 L 6.166,-5.882 6.024,-5.988 C 6.378,-6.129 5.882,-6.237 5.988,-6.413 5.775,-6.767 5.882,-7.051 6.059,-7.406 l 0.212,0 0,-0.07 0.39,0.105 c -0.14,0.179 0.071,0.178 0.071,0.32 -0.178,0.07 0,0.177 0,0.283 l 0.106,0.106 c -0.177,0.142 0.211,0.39 0.071,0.532 0.14,0.319 0.247,0.743 0.461,1.028 -0.214,0.177 0.071,0.354 0.141,0.495 0.427,-0.212 0.248,-0.602 0.602,-0.886 -0.141,-0.106 0.073,-0.177 0.073,-0.283 l -0.037,10e-4 c -0.036,-0.143 0.037,-0.213 0.177,-0.355 -0.177,-0.071 -0.034,-0.212 0,-0.283 l -0.034,0 c 0.069,-0.249 0,-0.568 -0.106,-0.745 l -0.037,0 c 0.143,-0.389 -0.319,-1.027 0.425,-1.311 0.247,0.07 0.037,0.355 0.214,0.531 0.07,-0.034 0.07,0.036 0.14,0.071 l -0.107,0.071 c 0.143,-0.106 0.249,0.283 0.426,0 0.214,0.215 0.356,-0.284 0.604,-0.106 0.317,-0.212 0.566,-0.531 0.388,-0.887 C 9.92,-9.107 9.744,-9.355 9.461,-9.603 l 0.106,-0.106 -0.355,-0.46 0.141,-0.106 c -0.176,-0.071 -0.034,-0.178 10e-4,-0.284 0.284,0.071 0.424,0 0.673,0.318 l -0.107,0.072 c 0.745,0.921 1.809,2.089 2.907,2.479 0.567,0.673 1.524,0.886 2.267,1.383 0.497,0.035 0.922,0.531 1.489,0.531 0.212,0.355 0.423,-0.035 0.637,0.319 0.283,10e-4 0.637,0.248 0.956,0.212 1.097,0.497 2.445,0.957 3.544,1.347 l 0.071,-0.106 c 0.142,0 0.249,0.39 0.424,0.141 0.214,0.354 0.816,0.284 1.206,0.532 1.063,0.319 2.019,0.743 2.977,1.17 0.211,-0.143 0.459,0.39 0.672,0.212 0.214,0.248 0.639,0.745 0.993,0.638 0.036,-0.106 -0.248,-0.178 0,-0.213 -0.248,-0.141 0.106,-0.46 -0.177,-0.567 -0.071,-0.426 -0.284,-1.063 -0.32,-1.665 -0.176,-0.283 -0.211,-0.674 -0.354,-0.992 -0.035,-0.213 -0.105,-0.425 -0.176,-0.639 l -0.107,10e-4 c -0.072,-0.46 -0.283,-0.921 -0.461,-1.346 -0.07,-0.285 -0.461,-0.639 -0.39,-0.922 C 25.795,-8.08 25.795,-8.716 25.371,-9 c 0,-0.07 0.105,-0.036 0.069,-0.107 -0.142,-0.212 -0.318,-0.354 -0.496,-0.53 l 0.073,-0.107 c -0.18,-0.354 -0.497,-0.497 -0.639,-0.744 0.283,0.176 0.035,0.672 0.39,0.851 l -0.072,0.07 c 0.072,0.39 0.531,0.744 0.531,1.134 0.178,0.353 0.426,0.531 0.392,0.991 -0.037,0.214 0.247,0.391 0.318,0.603 -0.25,0.177 0.247,0.319 0.07,0.497 0.072,0.141 0.213,0.247 0.177,0.389 l -0.035,0.001 c 0.141,0.282 -0.036,0.53 0.212,0.886 -0.177,0.105 0.248,0.318 0.037,0.459 0.07,0.144 0.211,0.248 0.177,0.391 l -0.072,0 c 0.072,0.14 0.319,0.248 0.143,0.424 0.176,0.319 0.602,0.532 0.638,0.816 0.034,-0.036 0.034,-0.071 0.071,-0.036 0,0.284 0.494,0.815 -0.107,1.063 -0.426,0.143 -0.567,-0.355 -0.602,-0.389 l 0.035,-0.036 C 26.54,-2.622 26.22,-2.905 26.007,-2.905 l -0.99,-0.887 -0.037,0.036 c -1.24,-0.992 -3.012,-1.948 -4.323,-3.012 -0.744,-0.708 -2.091,-1.843 -2.941,-2.587 l -0.177,0.036 c -0.46,-0.425 -0.992,-1.064 -1.594,-1.523 l -0.176,0 c -0.641,-0.603 -1.526,-1.312 -1.879,-2.056 -0.177,0.142 -0.035,-0.105 -0.141,-0.142 -0.18,0.107 0,-0.105 -0.107,-0.142 0,-0.069 -0.214,-0.283 -0.248,-0.354 0.034,-0.142 0.213,-0.355 0.355,-0.496 0.353,0.143 0.743,0.107 0.99,0.354 l 0.214,0 0,0.037 c -0.107,0.07 0.247,-0.108 0.177,0.105 l 0.07,0 c 0,-0.035 0.071,-0.07 0.107,-0.106 0.107,0.036 0.035,0.177 0,0.213 0.212,-0.107 0.035,-0.177 0.107,-0.354 l 0,-0.284 c -0.073,0 -0.107,0.106 -0.178,0 l 0.142,-0.142 c -0.142,-0.248 -0.071,-0.461 -0.213,-0.744 0.176,-0.213 -0.106,-0.425 -0.071,-0.497 l 0.034,-0.247 -0.034,0.035 c -0.106,-0.177 0.036,-0.213 0.106,-0.354 -0.035,0 -0.07,-0.036 -0.07,-0.072 0.284,-0.071 0.284,-0.175 0.672,-0.071 0.107,0.037 -0.106,0.178 0.073,0.143 0.105,0.566 0.956,0.886 1.345,1.275 0.213,-0.176 0.248,0.142 0.424,0.142 l 0.072,-0.07 c -0.072,0.355 0.284,-10e-4 0.391,0.212 l -10e-4,-0.034 0.211,0 -0.105,-0.108 c 0.071,-0.034 0.142,-0.071 0.142,-0.142 l -0.142,-0.141 c 0.354,-0.141 -0.142,-0.177 0.142,-0.354 0.036,-0.426 0.142,-0.852 -0.071,-1.276 l 0.071,-0.105 c -0.284,-0.249 -0.39,-0.71 -0.851,-0.64 0.106,-0.212 -0.035,-0.46 0.248,-0.637 0.461,-0.035 0.639,0.425 1.1,0.461 1.666,0.354 3.294,0.992 5.066,0.213 l 0.425,-0.354 c -0.071,-0.106 -0.175,-0.25 -0.318,-0.32 l -0.107,0.07 -1.274,-1.31 c 0.247,-0.034 -0.073,-0.212 0.033,-0.284 0.602,-0.957 1.56,-0.921 2.127,-1.842 l -0.035,0 c 0.318,-0.213 0.424,-0.603 0.744,-0.921 l -0.072,0 c 0,-0.177 0.249,-0.391 0.319,-0.532 l -0.106,-0.07 c 0.354,-0.355 0.284,-0.781 0.531,-1.17 -0.071,-0.141 0.284,-0.318 0.072,-0.461 0.177,0.001 0.142,-0.248 0.212,-0.284 l -0.07,-0.104 c 0.177,-0.285 0.142,-0.604 0.211,-0.852 0.036,-0.284 -0.069,-0.532 0.037,-0.779 l -0.071,-0.108 c 0.106,-0.387 -0.072,-0.919 -0.177,-1.345 l 0,-0.106 c -0.425,0.035 -0.709,0.069 -1.027,0.319 l -0.073,-0.108 c -0.247,0.037 -0.53,0.179 -0.778,0 -0.249,-0.069 -0.284,-0.318 -0.142,-0.495 0.955,-0.921 0.886,-2.587 0.425,-3.791 l -0.213,-0.248 c 0.037,-0.036 0.071,-0.071 0.106,-0.036 -0.069,-0.212 -0.212,0.036 -0.318,-0.142 l -0.957,0.957 -0.036,-0.07 c -0.107,0.212 -0.354,0.106 -0.531,0.318 -0.566,-0.318 -0.425,-0.993 -0.496,-1.523 l -0.143,-0.637 0.037,0 c 0.106,-0.178 -0.212,-0.214 0,-0.355 -0.178,-0.425 -0.143,-0.886 -0.248,-1.418 l -0.036,0 c -0.106,-1.098 -0.213,-2.587 -0.886,-3.508 -0.284,-0.248 -0.07,-0.639 -0.425,-0.885 -0.177,-0.284 -0.247,-0.744 -0.425,-1.063 -0.566,-0.283 -1.062,0.14 -1.629,0.105 l -2.801,0.036 c -0.211,0.178 0.248,0.248 0,0.426 0.107,0.142 0.179,0.318 0.073,0.496 0.07,-0.036 0.07,0 0.106,0.034 -0.036,0.143 -0.143,0.179 0.035,0.284 -0.071,0.213 0,0.461 -0.141,0.673 0.141,0.39 -0.179,0.602 -0.214,1.028 -0.354,1.418 -1.31,2.515 -2.551,3.438 -0.319,-0.035 -0.567,0.495 -0.779,0.354 l -0.427,0.355 c 0.107,0.496 0.639,0.885 0.888,1.344 0.141,0.107 0.354,0.887 0.318,1.205 0.071,1.17 -0.567,2.41 -1.737,3.226 -0.389,0.389 -0.85,0.638 -1.382,0.745 -0.213,0.14 -0.708,0.212 -0.956,0.353 -0.674,0.07 -1.134,0.531 -1.772,0.425 l 0,0.035 c -0.425,0.106 -0.674,-0.177 -1.169,0.036 l -0.106,0.141 c -0.39,-0.212 -0.779,0.071 -1.24,0.071 -0.071,-0.106 -0.142,0 -0.213,0 l -0.637,0.072 0,0.034 c -0.674,0.107 -1.949,-0.034 -2.8,-0.177 -0.426,0.143 -1.028,-0.39 -1.451,-0.212 -0.286,-0.248 -0.498,-0.248 -0.851,-0.283 -0.852,-0.638 -1.845,-1.276 -2.729,-1.984 -0.391,-0.497 -0.957,-0.958 -1.559,-1.49 -0.178,0.108 -0.319,-0.104 -0.426,0.143 l 0,0.071 0.036,0 c -0.143,1.099 1.062,1.912 1.913,2.658 l 0.071,-0.107 c 0.249,0.178 0.425,0.531 0.709,0.426 0.035,0.175 0.283,0.175 0.425,0.353 l 0.071,-0.07 c 0.389,0.424 0.814,0.389 1.24,0.638 0.142,0.212 0.389,0.034 0.531,0.283 0.142,-0.177 0.354,0.035 0.426,0.141 1.204,0.497 2.479,0.532 3.543,1.1 0.177,-0.036 0.496,0.035 0.709,0.07 0.39,0.284 0.744,0.354 1.205,0.425 l 0.034,-0.034 c 0.072,0.142 0.214,0.142 0.355,0.21 l 0.071,-0.068 c 0.318,0.141 0.603,0.104 1.026,0.247 0.107,-0.071 0.142,0.07 0.214,0.105 0.142,-0.141 0.388,0.32 0.602,0.106 0.07,0.036 0.214,0.284 0.32,0.071 0.141,0.427 0.672,0.143 0.814,0.532 0.036,-0.035 0.106,-0.177 0.177,-0.071 0.143,0 0.284,0.425 0.461,0.213 l 0.426,0.391 0.106,-0.071 c 0.211,0.035 0.424,0.459 0.565,0.248 l 0,0.177 c 0.249,-0.072 0.179,0.176 0.321,0.213 l 0.709,0.637 c -0.037,0.035 -0.037,0.07 -0.037,0.107 0.037,0 0.037,-0.037 0.071,-0.037 -0.106,0.249 0.283,0.461 0.427,0.673 -0.214,0.25 0.281,0.391 0.106,0.568 0.141,0.213 0.034,0.567 0.07,0.708 l -0.107,0.141 0.107,0.143 c -0.176,0.106 -0.32,0.284 -0.39,0.46 0.07,-0.035 0.07,0 0.107,0.036 l -0.177,0.072 0.034,0.07 c -0.283,0.319 -0.707,0.85 -1.168,0.921 -0.321,0.46 -0.886,0.319 -1.241,0.602 -0.036,-0.034 -0.07,-0.035 -0.036,-0.106 -0.567,0.072 -1.063,0.531 -1.593,0.353 l -0.179,0.143 c -0.034,-0.035 -0.034,-0.106 -0.034,-0.143 l -0.106,0 c 0,0.037 0,0.107 -0.071,0.143 -0.071,-0.177 -0.177,-0.143 -0.32,0 l -0.036,-0.143 c -0.175,-0.069 -0.247,0.32 -0.282,0 -0.214,0.25 -0.355,-0.141 -0.532,0.037 l -0.531,-0.177 0,0.071 c -0.283,0.143 -0.923,-0.356 -1.277,-0.107 -0.212,-0.177 -0.354,-0.071 -0.671,-0.177 -0.568,-0.213 -1.347,-0.248 -1.914,-0.496 l -0.178,0.071 c 0.141,-0.212 -0.213,-0.071 -0.285,-0.212 0,0.07 -0.033,0.07 -0.033,0.105 -0.072,-0.141 -0.283,-0.141 -0.355,-0.213 l -0.071,0.072 c -0.071,-0.106 -0.285,-0.319 -0.426,-0.107 l -0.424,-0.353 -0.037,0.035 -0.53,-0.389 -0.072,0.105 c -0.212,-0.212 -0.53,-0.461 -0.778,-0.532 -0.354,-0.211 -0.497,-0.566 -0.957,-0.673 l -2.056,-2.161 0.036,-0.035 -0.177,-0.036 0.107,-0.105 c -0.638,-0.39 -0.285,-0.888 -0.851,-1.277 0.035,-0.178 -0.284,-0.354 -0.319,-0.603 -0.142,-0.494 -0.461,-0.778 -0.567,-1.31 -0.107,-0.318 -0.496,-0.673 -0.531,-0.957 -0.709,-0.779 -1.559,-1.95 -2.622,-2.055 -0.354,-0.212 -0.496,-0.319 -0.886,-0.248 -0.214,-0.142 -0.425,-0.178 -0.602,-0.106 -0.957,-0.213 -2.056,-0.036 -2.871,-0.639 -0.248,0.107 -0.318,-0.141 -0.495,-0.248 -0.249,0.072 -0.498,-0.106 -0.815,0 -1.666,0.568 -3.651,1.028 -5.351,1.065 -0.674,0 -1.206,0.07 -1.949,-0.072 l -0.248,0.284 c 0.283,0.142 -0.213,0.247 0.071,0.389 l -0.142,0.178 0.142,0.107 c -0.107,0.14 -0.496,0.353 -0.284,0.53 -0.283,0.106 0.143,0.248 -0.106,0.319 l -10e-4,0.106 c 0.108,0.107 0.461,0.106 0.603,0.248 0.39,-0.106 0.674,0.213 1.098,0.036 0,-0.036 0.036,-0.072 0.036,-0.072 l 0.212,0.072 0,-0.036 c 0.32,-0.141 0.745,0.071 1.028,-0.142 l 0.142,0.106 c 0.532,-0.354 0.991,-0.177 1.523,-0.637 0,0.178 0.178,0.035 0.249,0 0.708,-0.637 1.665,0.283 2.374,0.07 0.461,0.178 0.956,-0.14 1.418,-0.035 0.247,0.001 0.531,-0.178 0.708,-0.035 1.17,0.673 1.842,1.772 3.295,1.7 0.425,0.177 0.921,0.78 1.028,1.241 -0.107,0.319 0.354,0.531 0.248,0.921 0.176,0.213 -0.035,0.426 0.176,0.639 0.036,0 0.072,0.069 0.108,0.069 -0.072,0.321 0.141,0.603 0.141,0.958 l 0.177,0.035 -0.177,0.249 0.106,0.106 c -0.319,0.105 0.178,0.212 -0.106,0.425 0.106,0.071 0.106,0.142 0.036,0.248 0.034,0.177 0.106,0.355 0.07,0.602 0,0.426 -0.177,0.815 -0.036,1.134 -0.283,0.247 0.072,0.32 -0.211,0.567 -0.108,0.213 0.141,0.46 -0.036,0.638 l 0.036,0 c -0.036,0 -0.319,0.282 -0.072,0.425 -0.389,0.248 -0.106,0.531 -0.46,0.744 0.035,0.319 -0.391,0.531 -0.354,0.851 -0.142,0.071 -0.177,0.176 -0.249,0.318 l 0.072,0.071 c -0.391,0.533 -0.957,0.779 -1.454,0.851 -0.496,-0.283 -0.992,-0.39 -1.381,-0.885 0.107,-0.25 -0.462,-0.568 -0.32,-0.782 -0.177,-0.14 -0.142,-0.424 -0.248,-0.637 l -0.035,10e-4 c 0,-0.284 -0.141,-0.567 -0.071,-0.851 -0.248,-0.141 0.035,-0.497 -0.176,-0.638 l 0.034,0 c -0.034,-0.282 -0.034,-0.567 -0.034,-0.815 0.034,-0.248 -0.072,-0.497 -0.036,-0.779 l -0.072,0 c 0.177,-0.532 -0.035,-1.028 0.214,-1.453 0.07,-0.318 0.07,-0.674 0.141,-0.957 l -0.071,-0.071 c 0,-0.247 0.177,-0.46 0.106,-0.708 0,-0.142 0.177,-0.32 0.036,-0.532 0.177,-0.142 0.035,-0.391 0.141,-0.531 -0.531,-0.32 -1.274,-0.815 -1.417,-1.454 -0.212,-0.034 -0.355,0.072 -0.531,0 -0.283,0.355 -0.46,-0.035 -0.672,0.32 l -0.179,-0.106 -0.141,0.106 c -0.178,-0.178 -0.319,0.212 -0.497,0 l -0.318,0.213 c -0.248,-0.178 -0.78,0.035 -1.134,-0.036 -0.461,0.178 -0.992,0 -1.417,0.178 l -0.142,-0.142 -0.142,0.142 -0.142,-0.142 c -0.39,0.142 -0.956,-0.249 -1.31,-0.001 -0.072,0.177 0.106,0.639 0.034,0.709 0.178,0.249 0.143,0.85 0.531,1.062 -0.07,0.355 0.497,0.639 0.674,0.957 -0.744,1.029 -1.63,-0.282 -2.551,-0.177 l -0.071,0.179 c -0.035,0.424 0.532,0.673 0.497,1.027 0.957,2.019 2.764,3.436 4.712,4.074 0.143,0.107 0.354,0.247 0.213,0.46 l 0.035,0.002 c -0.283,0.602 -1.135,0.282 -1.559,0.637 0.107,0.461 0.567,0.849 0.886,1.133 0,-0.071 0.035,-0.071 0.035,-0.106 l 0.106,0.177 c 0.036,-0.035 0.072,-0.035 0.107,-0.035 0.283,0.319 0.922,1.064 1.347,1.098 l 0.531,0.461 c 0.177,-0.141 0.177,0.142 0.354,0.106 l 0,0.071 0.072,0 0,-0.035 c 0.069,0.035 0.46,0.283 0.637,0.318 l -0.035,0.072 c 0.283,-0.107 0.496,0.495 0.851,0.354 0.246,0.105 0.85,0.318 1.24,0.495 0.034,0.001 0.07,0.072 0.105,0.072 l 0.106,-0.071 c 0.248,0.354 0.886,0.425 1.277,0.496 0.495,0.142 1.062,0.531 1.558,0.425 0.461,0.248 0.78,0.177 1.205,0.389 0.389,0 0.602,0.179 1.027,0.179 l 0,-0.072 0.674,0.177 0.07,-0.07 c 0.178,0.248 0.391,0.034 0.566,0.247 0.214,-0.035 0.533,0.071 0.816,0.071 0.426,0.072 0.603,0.214 1.063,0.39 0.142,-0.071 0.355,0.213 0.497,0.141 l 0.46,0.462 c -0.284,0.141 0.213,0.211 -0.071,0.353 0,0.036 0,0.071 0.036,0.107 0.142,-0.213 0.354,-0.249 0.567,-0.249 0.673,0.249 1.169,1.135 1.735,1.526 0.284,0.566 0.568,1.026 1.099,1.664 -0.07,0.354 0.533,0.531 0.426,0.922 0.423,0.283 0.318,0.814 0.779,1.063 -0.177,0.247 0.248,0.388 0.107,0.708 0.212,0.426 0.425,0.886 0.532,1.382 0.104,0.248 0.14,0.602 0.353,0.85 -0.141,0.319 0.283,0.39 0.142,0.744 0.283,0.107 -0.035,0.354 0.248,0.496 -0.107,0.143 0,0.283 0.141,0.39 -0.141,0.426 0.178,0.921 0,1.311 C 2.763,3.047 2.834,3.082 2.87,3.153 2.763,3.366 2.763,3.507 2.87,3.684 2.834,3.756 2.763,3.791 2.798,3.862 L 2.87,3.969 C 2.692,4.074 2.729,4.358 2.586,4.465 2.301,4.606 2.09,4.428 1.983,4.181 1.772,3.756 1.914,3.614 1.523,3.259 1.735,3.862 1.772,4.428 1.983,4.925 2.054,5.35 2.267,5.704 2.339,6.13 c 0.105,0 0.14,0.142 0.105,0.247 L 2.479,6.343 C 2.409,6.519 2.586,6.732 2.763,6.802 2.904,6.768 2.622,6.59 2.834,6.59 l 0,0.001 z" />
      </g>
      <g
         transform="translate(319.8257,489.0394)"
         id="g5351">
        <path
           inkscape:connector-curvature="0"
           id="path5353"
           style="fill:#231f20;fill-opacity:1;fill-rule:evenodd;stroke:none"
           d="m 0,0 c -0.289,-0.06 -0.542,-0.176 -0.758,-0.381 -0.402,-0.387 -0.659,-1.117 -0.884,-1.624 -0.404,-0.916 -0.86,-1.667 -1.568,-2.387 -0.526,-0.535 -1.707,-0.523 -2.026,0.264 -0.909,2.262 3.704,5.292 5.282,4.443 L 0.457,0.095 0,0 Z" />
      </g>
      <g
         transform="translate(319.7914,489.2053)"
         id="g5355">
        <path
           inkscape:connector-curvature="0"
           id="path5357"
           style="fill:#eb252c;fill-opacity:1;fill-rule:evenodd;stroke:none"
           d="m 0,0 c -1.387,0.744 -5.912,-2.073 -5.043,-4.231 0.29,-0.716 1.349,-0.61 1.745,-0.208 2.052,2.086 1.554,4.073 3.297,4.44 L 0,0 Z" />
      </g>
      <g
         transform="translate(314.143,490.0892)"
         id="g5359">
        <path
           inkscape:connector-curvature="0"
           id="path5361"
           style="fill:#231f20;fill-opacity:1;fill-rule:evenodd;stroke:none"
           d="M 0,0 C -0.222,-0.085 -0.429,-0.194 -0.627,-0.327 -1.905,-1.18 -2.684,-2.055 -4.191,-2.909 -4.843,-3.281 -6.17,-3.297 -6.351,-2.371 -6.833,0.082 -1.534,1.364 0.034,0.3 L 0.303,0.118 0,0 Z" />
      </g>
      <g
         transform="translate(314.0819,490.2468)"
         id="g5363">
        <path
           inkscape:connector-curvature="0"
           id="path5365"
           style="fill:#eb252c;fill-opacity:1;fill-rule:evenodd;stroke:none"
           d="m 0,0 c -1.378,0.938 -6.582,-0.158 -6.122,-2.496 0.151,-0.777 1.334,-0.75 1.908,-0.423 2.722,1.543 2.963,2.437 4.214,2.921 L 0,0 Z" />
      </g>
      <g
         transform="translate(343.3051,486.9135)"
         id="g5367">
        <path
           inkscape:connector-curvature="0"
           id="path5369"
           style="fill:#231f20;fill-opacity:1;fill-rule:evenodd;stroke:none"
           d="M 0,0 C 1.397,-0.228 3.381,-3.469 1.657,-4.489 1.056,-4.845 0.281,-4.271 0.208,-3.657 0.08,-2.64 0.332,-1.779 0.252,-1.048 0.219,-0.749 0.034,-0.5 -0.158,-0.28 L -0.461,0.075 0,0 Z" />
      </g>
      <g
         transform="translate(343.2775,486.7458)"
         id="g5371">
        <path
           inkscape:connector-curvature="0"
           id="path5373"
           style="fill:#eb252c;fill-opacity:1;fill-rule:evenodd;stroke:none"
           d="M 0,0 C 1.226,-0.198 3.178,-3.239 1.597,-4.175 1.071,-4.487 0.459,-3.912 0.402,-3.469 0.116,-1.176 0.917,-1.067 0.001,0 L 0,0 Z" />
      </g>
      <g
         transform="translate(346.3206,485.6287)"
         id="g5375">
        <path
           inkscape:connector-curvature="0"
           id="path5377"
           style="fill:#231f20;fill-opacity:1;fill-rule:evenodd;stroke:none"
           d="m 0,0 c 0.982,-0.877 2.279,-1.018 3.505,-1.367 0.624,-0.177 1.056,-1.155 0.498,-1.648 -1.514,-1.339 -4.421,1.466 -4.286,2.903 L -0.253,0.225 0,0 Z" />
      </g>
      <g
         transform="translate(346.2073,485.5016)"
         id="g5379">
        <path
           inkscape:connector-curvature="0"
           id="path5381"
           style="fill:#eb252c;fill-opacity:1;fill-rule:evenodd;stroke:none"
           d="M 0,0 C -0.116,-1.241 2.59,-4.012 4.005,-2.761 4.474,-2.346 4.042,-1.538 3.571,-1.404 1.68,-0.867 0.962,-0.859 0,0" />
      </g>
      <g
         transform="translate(344.6279,481.8266)"
         id="g5383">
        <path
           inkscape:connector-curvature="0"
           id="path5385"
           style="fill:#231f20;fill-opacity:1;fill-rule:evenodd;stroke:none"
           d="M 0,0 C 0.068,-1.315 0.881,-2.336 1.494,-3.452 1.807,-4.021 1.419,-5.015 0.673,-4.966 -1.341,-4.833 -1.392,-0.793 -0.279,0.123 L -0.019,0.337 0,0 Z" />
      </g>
      <g
         transform="translate(344.4578,481.8176)"
         id="g5387">
        <path
           inkscape:connector-curvature="0"
           id="path5389"
           style="fill:#eb252c;fill-opacity:1;fill-rule:evenodd;stroke:none"
           d="m 0,0 c -0.964,-0.789 -1.026,-4.663 0.855,-4.787 0.627,-0.041 0.898,0.832 0.661,1.263 -0.95,1.72 -1.45,2.236 -1.518,3.524 L 0,0 Z" />
      </g>
    </g>
  </g>
</svg>
