<?xml version="1.0" encoding="UTF-8"?>
<!-- Generator: Adobe Illustrator 14.0.0, SVG Export Plug-In . SVG Version: 6.00 Build 43363)  -->
<!DOCTYPE svg PUBLIC "-//W3C//DTD SVG 1.1//EN" "http://www.w3.org/Graphics/SVG/1.1/DTD/svg11.dtd">
<svg version="1.1" id="Layer_1" xmlns="http://www.w3.org/2000/svg" xmlns:xlink="http://www.w3.org/1999/xlink" x="0px" y="0px" width="250px" height="215px" viewBox="0 0 250 215" enable-background="new 0 0 250 215" xml:space="preserve">
<g>
	<rect x="81.462" y="32.097" fill="#B1B3B5" width="95.779" height="21.002"/>
	<polyline fill="#231F20" points="219.07,32.035 125.646,200.508 32.217,32.035 10.788,32.035 10.788,17.155 107.767,17.155 107.767,32.035 86.621,32.035 125.646,102.157 164.378,32.035 143.236,32.035 143.236,17.155 240.213,17.155 240.213,32.035"/>
	<polygon fill="none" stroke="#B1B3B5" stroke-width="10.556" points="219.07,32.035 125.646,200.508 32.217,32.035 10.788,32.035 10.788,17.155 107.767,17.155 107.767,32.035 86.621,32.035 125.646,102.157 164.378,32.035 143.236,32.035 143.236,17.155 240.213,17.155 240.213,32.035"/>
	<polyline fill="#231F20" points="219.07,32.035 125.646,200.508 32.217,32.035 10.788,32.035 10.788,17.155 107.767,17.155 107.767,32.035 86.621,32.035 125.646,102.157 164.378,32.035 143.236,32.035 143.236,17.155 240.213,17.155 240.213,32.035"/>
	<polygon fill="none" stroke="#FFFFFF" stroke-width="4.4411" points="219.07,32.035 125.646,200.508 32.217,32.035 10.788,32.035 10.788,17.155 107.767,17.155 107.767,32.035 86.621,32.035 125.646,102.157 164.378,32.035 143.236,32.035 143.236,17.155 240.213,17.155 240.213,32.035"/>
	<polyline fill="#231F20" points="218.496,32.035 125.067,200.508 31.642,32.035 10.213,32.035 10.213,17.155 107.211,17.155 107.211,32.035 86.047,32.035 125.067,102.157 163.804,32.035 142.657,32.035 142.657,17.155 239.637,17.155 239.637,32.035"/>
	<path fill="#B1B3B5" d="M97.662,114.216l-1.631,0.746l-4.945,0.104l-0.07,0.125c-0.385,0.521-0.695,1.061-0.672,1.472   c0.047,1.454-0.602,2.557-1.154,3.179c-0.552,0.621-3.189,1.721-3.936,1.806c-0.742,0.063-2.137-0.063-2.137-0.063   s-1.414,0.87-2.063,1.1c-0.621,0.226-2.494,0.351-3.287,0.02c-0.769-0.33-2.906-3.111-3.337-4.047   c-0.121-0.226-0.241-0.518-0.385-0.829l-0.144-0.042c-4.08,1.328-10.629,1.328-13.221,0.291   c-2.832-1.142-10.944-2.514-11.185-4.464c-0.264-1.95-0.144-10.333,2.879-16.289c3.026-5.956,13.345-12.828,15.097-14.238h0.023   c0.046-1.018,0.144-1.907,0.361-2.385c0.552-1.123,3.046-2.615,4.344-3.322l0.07-0.019c0.361-0.272,5.089-0.77,6.818-1.205   c4.414-0.937,8.757-2.844,8.182-11.83c-0.626-9.961-0.96-27.603,4.033-36.693c6.693-12.16,22.245-19.506,34.436-17.991   c10.128,1.266,16.872,3.236,28.03,14.669c8.857,9.052,12.576,15.299,20.159,24.262c6.697,7.929,14.472,6.997,14.472,6.997   s-13.56,9.359-22.654,6.247c-1.775-0.625-3.43-1.329-5.038-2.098l0.094-0.167c0.458,2.533,0.625,5.148,0.36,6.997l0.047,0.062   c3.792,0.579,8.209,1.702,11.569,5.311c1.752,1.888,4.223,5.501,6.096,12.307c1.2,4.359,1.104,15.027,0,19.487   c-0.746,3.05-1.969,5.793-3.217,8.282l24.382,1.64l15.937,5.497l-15.529,0.708l-27.357-3.112c-0.505,0.808-0.815,1.243-1.149,1.722   c-4.44,6.515-16.752,17.804-19.945,17.89c-5.734,0.163-9.6-4.526-12.381-6.744c-1.85-1.477-8.042-8.761-10.416-11.563l-0.241-0.229   c-1.149,0.521-2.28,0.707-3.527,0.664c-2.304-0.038-7.222-1.267-9.6-2.074c-2.374-0.809-4.441-1.869-5.28-2.905   c-0.432-0.518-1.177-1.908-1.85-3.404l-0.023-0.043c-1.27,1.228-3.287,2.514-4.821,3.241c-1.872,0.912-4.2,1.057-4.2,1.057   l-1.97-0.168"/>
	<path fill="none" stroke="#B1B3B5" stroke-width="11.2031" stroke-miterlimit="6" d="M97.662,114.216l-1.631,0.746l-4.945,0.104   l-0.07,0.125c-0.385,0.521-0.695,1.061-0.672,1.472c0.047,1.454-0.602,2.557-1.154,3.179c-0.552,0.621-3.189,1.721-3.936,1.806   c-0.742,0.063-2.137-0.063-2.137-0.063s-1.414,0.87-2.063,1.1c-0.621,0.226-2.494,0.351-3.287,0.02   c-0.769-0.33-2.906-3.111-3.337-4.047c-0.121-0.226-0.241-0.518-0.385-0.829l-0.144-0.042c-4.08,1.328-10.629,1.328-13.221,0.291   c-2.832-1.142-10.944-2.514-11.185-4.464c-0.264-1.95-0.144-10.333,2.879-16.289c3.026-5.956,13.345-12.828,15.097-14.238h0.023   c0.046-1.018,0.144-1.907,0.361-2.385c0.552-1.123,3.046-2.615,4.344-3.322l0.07-0.019c0.361-0.272,5.089-0.77,6.818-1.205   c4.414-0.937,8.757-2.844,8.182-11.83c-0.626-9.961-0.96-27.603,4.033-36.693c6.693-12.16,22.245-19.506,34.436-17.991   c10.128,1.266,16.872,3.236,28.03,14.669c8.857,9.052,12.576,15.299,20.159,24.262c6.697,7.929,14.472,6.997,14.472,6.997   s-13.56,9.359-22.654,6.247c-1.775-0.625-3.43-1.329-5.038-2.098l0.094-0.167c0.458,2.533,0.625,5.148,0.36,6.997l0.047,0.062   c3.792,0.579,8.209,1.702,11.569,5.311c1.752,1.888,4.223,5.501,6.096,12.307c1.2,4.359,1.104,15.027,0,19.487   c-0.746,3.05-1.969,5.793-3.217,8.282l24.382,1.64l15.937,5.497l-15.529,0.708l-27.357-3.112c-0.505,0.808-0.815,1.243-1.149,1.722   c-4.44,6.515-16.752,17.804-19.945,17.89c-5.734,0.163-9.6-4.526-12.381-6.744c-1.85-1.477-8.042-8.761-10.416-11.563l-0.241-0.229   c-1.149,0.521-2.28,0.707-3.527,0.664c-2.304-0.038-7.222-1.267-9.6-2.074c-2.374-0.809-4.441-1.869-5.28-2.905   c-0.432-0.518-1.177-1.908-1.85-3.404l-0.023-0.043c-1.27,1.228-3.287,2.514-4.821,3.241c-1.872,0.912-4.2,1.057-4.2,1.057   l-1.97-0.168"/>
	<path fill="#FFFFFF" d="M97.278,113.843l-1.632,0.728l-4.945,0.123l-0.07,0.125c-0.384,0.52-0.672,1.06-0.672,1.472   c0.047,1.434-0.602,2.553-1.154,3.178c-0.524,0.604-3.189,1.722-3.936,1.803c-0.742,0.063-2.133-0.062-2.133-0.062   s-1.417,0.874-2.043,1.104c-0.645,0.226-2.494,0.349-3.287,0c-0.792-0.334-2.902-3.093-3.36-4.029   c-0.093-0.229-0.237-0.517-0.357-0.827l-0.144-0.043c-4.106,1.329-10.633,1.329-13.248,0.292   c-2.809-1.143-10.921-2.514-11.185-4.464c-0.265-1.95-0.144-10.334,2.878-16.29c3.026-5.959,13.368-12.828,15.097-14.257   l0.047,0.019c0.023-1.018,0.12-1.931,0.361-2.385c0.551-1.123,3.049-2.615,4.32-3.322l0.07-0.019   c0.361-0.272,5.089-0.789,6.818-1.205c4.413-0.937,8.757-2.844,8.182-11.83c-0.622-9.984-0.96-27.603,4.056-36.693   c6.674-12.16,22.222-19.506,34.44-17.991c10.128,1.263,16.845,3.236,28.03,14.669c8.854,9.048,12.576,15.295,20.136,24.261   c6.693,7.929,14.472,6.993,14.472,6.993s-13.563,9.362-22.658,6.228c-1.752-0.602-3.43-1.306-5.038-2.075l0.097-0.167   c0.479,2.533,0.622,5.147,0.382,6.993l0.026,0.062c3.815,0.583,8.205,1.702,11.565,5.315c1.752,1.869,4.246,5.501,6.096,12.307   c1.201,4.359,1.127,15.023,0.023,19.487c-0.742,3.05-1.966,5.789-3.24,8.279l24.386,1.64l27.595,9.798l-17.901,4.005l-37.319-9.692   c-0.501,0.808-0.144,0.229-0.454,0.706c-4.44,6.515-16.774,17.806-19.969,17.891c-5.734,0.163-9.596-4.526-12.381-6.749   c-1.85-1.472-8.038-8.756-10.415-11.576l-0.242-0.21c-1.149,0.521-2.28,0.685-3.503,0.665c-2.327-0.044-7.246-1.268-9.6-2.075   c-2.374-0.831-4.437-1.888-5.303-2.906c-0.431-0.521-1.173-1.907-1.822-3.402l-0.05-0.043c-1.247,1.224-3.287,2.514-4.821,3.239   c-1.872,0.891-4.176,1.057-4.176,1.057l-1.993-0.166"/>
	<path fill="none" stroke="#FFFFFF" stroke-width="4.4857" stroke-miterlimit="6" d="M97.278,113.843l-1.632,0.728l-4.945,0.123   l-0.07,0.125c-0.384,0.52-0.672,1.06-0.672,1.472c0.047,1.434-0.602,2.553-1.154,3.178c-0.524,0.604-3.189,1.722-3.936,1.803   c-0.742,0.063-2.133-0.062-2.133-0.062s-1.417,0.874-2.043,1.104c-0.645,0.226-2.494,0.349-3.287,0   c-0.792-0.334-2.902-3.093-3.36-4.029c-0.093-0.229-0.237-0.517-0.357-0.827l-0.144-0.043c-4.106,1.329-10.633,1.329-13.248,0.292   c-2.809-1.143-10.921-2.514-11.185-4.464c-0.265-1.95-0.144-10.334,2.878-16.29c3.026-5.959,13.368-12.828,15.097-14.257   l0.047,0.019c0.023-1.018,0.12-1.931,0.361-2.385c0.551-1.123,3.049-2.615,4.32-3.322l0.07-0.019   c0.361-0.272,5.089-0.789,6.818-1.205c4.413-0.937,8.757-2.844,8.182-11.83c-0.622-9.984-0.96-27.603,4.056-36.693   c6.674-12.16,22.222-19.506,34.44-17.991c10.128,1.263,16.845,3.236,28.03,14.669c8.854,9.048,12.576,15.295,20.136,24.261   c6.693,7.929,14.472,6.993,14.472,6.993s-13.563,9.362-22.658,6.228c-1.752-0.602-3.43-1.306-5.038-2.075l0.097-0.167   c0.479,2.533,0.622,5.147,0.382,6.993l0.026,0.062c3.815,0.583,8.205,1.702,11.565,5.315c1.752,1.869,4.246,5.501,6.096,12.307   c1.201,4.359,1.127,15.023,0.023,19.487c-0.742,3.05-1.966,5.789-3.24,8.279l24.386,1.64l27.595,9.798l-17.901,4.005l-37.319-9.692   c-0.501,0.808-0.144,0.229-0.454,0.706c-4.44,6.515-16.774,17.806-19.969,17.891c-5.734,0.163-9.596-4.526-12.381-6.749   c-1.85-1.472-8.038-8.756-10.415-11.576l-0.242-0.21c-1.149,0.521-2.28,0.685-3.503,0.665c-2.327-0.044-7.246-1.268-9.6-2.075   c-2.374-0.831-4.437-1.888-5.303-2.906c-0.431-0.521-1.173-1.907-1.822-3.402l-0.05-0.043c-1.247,1.224-3.287,2.514-4.821,3.239   c-1.872,0.891-4.176,1.057-4.176,1.057l-1.993-0.166"/>
	<polyline fill="#EE3224" points="91.832,77.379 97.997,76.466 100.782,81.404 104.477,81.093 107.262,88.191 109.71,90.954 109.422,92.507 100.973,92.22 97.686,88.793 95.215,87.259 89.982,78.001"/>
	<polyline fill="#FFFFFF" points="99.846,75.219 99.846,80.783 103.541,80.161 105.701,84.167 109.71,90.954 116.982,92.694 124.539,93.735 126.388,95.581 139.97,95.891 143.668,89.104 145.202,83.855 142.421,81.093 147.988,71.214 153.531,67.811 159.099,67.811 159.099,56.708 138.101,42.512 122.693,51.148 107.79,69.742"/>
	<path fill="#231F20" d="M102.748,80.491c1.636,3.78,3.384,14.716,9.507,13.139c-0.408-2.366-3.481-5.999-4.993-8.159   c-1.2-1.721-1.177-4.292-1.177-4.292"/>
	<path fill="#EE3224" d="M160.155,67.772l11.495,4.856l7.293,17.059l0.602,8.403l-1.367,5.605l-3.551,10.167l-8.329,9.362   l-14.255,10.789l-14.591-8.112l-7.343-9.836l5.229-3.986l6.527-17.58l2.136-10.022c0,0-1.27-2.118-1.079-2.323   c0.218-0.229,4.561-10.19,4.561-10.19l8.279-4.755"/>
	<polyline fill="#B1B3B5" points="165.89,69.431 163.155,83.895 161.88,84.745 147.724,85.662 142.538,84.042 143.714,78.459 151.229,68.786 158.33,68.475"/>
	<path fill="#231F20" d="M147.437,68.436c2.229-1.62,5.567-2.906,9.863-2.327c4.293,0.583,10.87,0.875,15.478,5.813   c1.752,1.888,4.223,5.501,6.096,12.307c1.2,4.359,1.104,15.027,0,19.487c-1.586,6.516-5.447,12.557-6.935,14.736   c-4.44,6.515-16.752,17.804-19.945,17.89c-5.734,0.163-9.6-4.526-12.381-6.744c-2.305-1.85-11.353-12.681-11.353-12.681   l4.654-2.223c0,0,5.28,9.588,6.411,10.377c1.126,0.77,6.98,6.577,11.708,6.911c2.763,0.187,6.722-3.321,6.722-3.321   s6.838-5.248,12-11.143c4.654-5.314,6.476-9.941,7.486-14.051c1.007-4.11,0.886-12.638-0.862-18.43   c-2.043-6.663-4.371-10.252-6.29-12.055c-1.896-1.83-5.83-3.279-13.053-3.426c-6.722-0.125-8.427,3.923-8.427,3.923l-4.751,9.048   l17.567,1.64l2.351-6.744l1.441-4.091l-1.15,11.954l-17.785,1.993l-3.695,13.24l-4.463,0.291l3.912-13.488l-1.752-3.924   C140.284,83.397,145.179,70.076,147.437,68.436"/>
	<path fill="#231F20" d="M156.744,116.478l1.608,1.974l44.518,8.302c0,0,20.567-3.403,21.313-4.316   c0.552-0.727-24.145-8.8-24.145-8.8l-40.388-2.72"/>
	<polyline fill="#EE3224" points="73.086,89.955 68.984,88.96 69.248,83.646 65.048,86.098 53.673,97.262 50.239,111.832 56.241,114.092 69.225,117.309 74.431,115.732 72.15,104.337 71.983,96.89"/>
	<polyline fill="#B1B3B5" points="83.358,79.932 73.638,77.566 69.753,81.738 70.184,88.564 74.31,89.563 76.854,85.347 80.669,81.676"/>
	<polyline fill="#B1B3B5" points="97.255,87.465 100.541,90.371 100.973,92.22 110.98,92.818 122.549,93.319 127.421,94.979 134.522,95.352 159.507,95.934 166.464,97.363 169.658,103.404 168.435,108.781 164.884,111.808 159.868,111.186 134.837,108.217 107.044,108.968 103.517,113.303 97.95,113.967 93.63,113.886 90.728,112.204 95.071,108.925 93.175,106.746 86.742,103.404 82.038,98.114 82.709,89.333 86.959,87.507 90.798,89.127 95.215,89.769"/>
	<path fill="#231F20" d="M79.088,76.156c4.414-0.937,8.757-2.844,8.182-11.83c-0.626-9.961-0.96-27.603,4.033-36.693   c6.693-12.16,22.245-19.506,34.436-17.991c10.128,1.266,16.872,3.236,28.03,14.669c8.857,9.052,12.576,15.299,20.159,24.262   c6.697,7.929,14.856,6.104,14.472,6.997c-0.695,1.659-13.56,9.359-22.654,6.247c-13.534-4.669-21.117-15.299-35.876-10.314   c-9.387,3.154-11.881,6.597-14.81,10.625c-2.948,4.025-11.204,14.774-21.55,16.499c-10.318,1.741-15.38-0.913-19.871-1.061   C69.151,77.422,76.785,76.715,79.088,76.156"/>
	<path fill="#EE3224" d="M85.949,76.987c3.384-0.439,15.769-3.57,20.015-10.439c4.25-6.892,14.689-23.846,27.094-26.13   c12.431-2.284,19.871,8.427,29.183,14.215c2.258,1.411,9.721,8.948,16.127,1.287c-5.734-3.236-17.039-17.972-22.032-24.572   c-5.83-7.739-21.188-18.034-32.011-17.346c-10.823,0.703-22.968,5.726-26.496,12.346c-7.031,13.24,0.121,31.545-3.022,39.203   C91.687,73.207,88.878,75.946,85.949,76.987"/>
	<path fill="#231F20" d="M134.212,58.328c-2.138,0.144-2.976-1.305-5.618,0c-2.637,1.286-2.54,3.59-2.54,3.59l-5.016,10.276   c0,0-2.067,2.591-3.648,3.193c-0.792,0.311-1.779,0.498-2.762-0.019c-1.006-0.521-3.625-6.601-3.625-6.601s3.746,2.887,4.464,3.135   c0.699,0.249,1.562,0.956,2.711-0.812c1.177-1.783,2.716-9.918,4.297-12.595c2.234-3.776,4.297-4.296,5.905-3.632   C130.49,55.732,134.212,58.328,134.212,58.328"/>
	<path fill="#231F20" d="M124.278,69.847l-1.2,0.933l-0.338,1.725c0,0,3.745-1.515,4.51-2.844c0.77-1.329,1.251-3.714,0.963-5.19   c-0.314-1.472-2.761-3.007-2.761-3.007l-3.361,7.241l1.682-0.33"/>
	<path fill="#231F20" d="M107.79,69.742c3.959,7.72,4.27,16.021,5.303,18.928c0.575,1.62,1.441,2.261,5.062-0.956   c1.344-1.2,3.527-1.515,3.527-1.515l-4.7,6.495c0,0-4.227,0.688-5.832-1.348c-1.635-2.013-1.344-7.843-1.682-9.526   c-0.311-1.678-4.872-8.675-4.872-8.675"/>
	<path fill="#231F20" d="M121.877,92.158l6.865-12.58c0,0,2.396-2.719,4.102-4.168c0.695-0.602,1.295-0.999,1.535-0.893   c0.89,0.373,2.929,18.78,2.929,18.78s-6.169,0.396-10.776,1.558l-1.608-1.826l4.872-3.714l-1.271-3.115l1.034-0.704l1.46,2.883   l3.671-2.366l-1.654-6.08l-4.465,3.488l-5.399,9.087"/>
	<path fill="#231F20" d="M158.617,53.099c2.09,3.341,3.217,10.917,2.4,14.277c-0.505,1.993-1.367,0.851-4.079,0.936   c-3.192,0.082,0,0,0,0c2.374-10.501-0.745-15.38-1.274-17.723"/>
	<path fill="#231F20" d="M121.131,81.738c1.057,0.043,2.499,1.721,2.499,1.721s0,2.595-0.937,3.073   c-0.936,0.497-1.752,0.144-1.752,0.144s1.368-0.416,1.535-1.473c0.194-1.037-1.247-1.496-1.799-2.036   C120.102,82.651,118.109,81.676,121.131,81.738"/>
	<path fill="#231F20" d="M97.157,75.449c0,0,1.993,8.221,3.05,8.383c1.029,0.167,8.83-5.291,8.83-5.291l-2.09-4.297   c0,0,0,4.837-5.182,4.984c-1.294,0.02,0.839-4.693,0.839-4.693"/>
	<path fill="#231F20" d="M102.103,81.552c0,0,1.414,2.304,2.688,2.219c1.271-0.063,5.544-4.211,5.544-4.211l-1.321-0.458   c0,0-0.649,1.309-1.729,1.391c-1.057,0.062-2.207-0.416-2.207-0.416"/>
	<path fill="#231F20" d="M72.943,76.964c0,0-4.32,2.199-5.086,3.737c-0.746,1.534-0.12,7.906-0.12,7.906l1.029,2.7l4.274,0.373   l1.297-3.279l-2.4-0.707c0,0-0.505-4.65,0.023-6.185c0.552-1.535,3.481-2.347,3.481-2.347l6.263,1.29l3.959-1.309l0.792-0.913"/>
	<polyline fill="#231F20" points="147.242,74.89 160.754,76.509 160.226,78.106 144.052,78.521"/>
	<path fill="#231F20" d="M67.473,83.086c-1.752,1.41-12.071,8.283-15.097,14.238c-3.023,5.956-3.143,14.339-2.879,16.289   c0.241,1.95,8.353,3.322,11.185,4.464c2.832,1.12,10.268,1.037,14.23-0.664l-1.395-5.271c0,0-0.26,1.846-3.143,2.031   c-2.855,0.191-11.95-0.536-13.966-1.448c-2.016-0.938-5.039-0.086-4.464-3.136c0.599-3.03,2.16-11.395,5.423-15.648   c3.264-4.273,10.727-9.339,10.727-9.339"/>
	<path fill="#231F20" d="M68.168,89.189c0,0-2.568,0.828-3.36,0.746s-0.334,1.057-0.334,1.057s1.224,0.458,2.016,0.541   c0.765,0.085,4.701-0.039,4.701-0.039l0.458-0.956"/>
	<path fill="#231F20" d="M90.367,90.662c-1.391-0.602-3.936-1.764-3.936-1.764s-1.224-0.894-2.089,0.517   c-0.886,1.414-1.679,6.104-1.679,7.079c0.023,2.074,3.287,5.769,4.08,6.103c0.792,0.331,4.561,2.032,6.577,3.069   c1.989,1.019,2.471,2.533,2.401,4.483c-0.074,1.931-3.073,3.278-3.073,3.278s-2.327,2.099-2.304,3.236   c0.047,1.454-0.602,2.557-1.154,3.179c-0.552,0.621-3.189,1.721-3.936,1.806c-0.742,0.063-2.137-0.063-2.137-0.063   s-1.414,0.87-2.063,1.1c-0.621,0.226-2.494,0.351-3.287,0.02c-0.769-0.33-2.906-3.111-3.337-4.047   c-0.455-0.934-1.15-2.821-1.15-2.821l-2.016-7.408c-0.983-8.637,0.334-12.786,0.455-13.947s2.113-6.018,3.143-8.135   c1.034-2.098,5.4-6.142,7.657-7.245c2.257-1.119,10.99-0.517,11.783,0.023c0.815,0.517,4.079,3.216,4.079,3.216   s1.298,2.219,0.315,4.813c-1.01,2.576-3.648,3.508-3.648,3.508S91.734,91.221,90.367,90.662"/>
	<path fill="#FFFFFF" d="M94.135,88.401c-1.969,0.125-5.521-1.577-7.078-1.868c-1.562-0.272-3.217,0.994-3.769,1.41   c-0.552,0.416-1.802,2.242-2.21,4.775c-0.431,2.552,0.194,6.453,0.937,8.632c0.746,2.223,3.169,4.068,4.751,4.732   c1.585,0.664,5.521,1.577,5.521,1.577s0.815,0.913-0.047,2.323c-0.89,1.414-1.103,0.831-2.063,0.913   c-0.987,0.042-2.043,1.662-1.947,2.823c0.121,1.722-0.695,3.279-1.32,3.758c-0.599,0.478-2.304,0.33-3.431,0.602   c-1.15,0.268-2.374,2.094-2.374,2.094s-1.562,0.086-3.193-1.534c-1.655-1.64-3.504-5.706-4.2-8.054   c-1.104-3.818-1.585-12.657-0.625-15.811c0.959-3.155,3.458-9.301,6.624-11.437c3.143-2.137,8.279-3.423,8.279-3.423l5.256,0.828   l-4.654,2.618c0,0,0.455,0.932,1.391,0.684c0.959-0.272,4.2-0.851,4.2-0.851l3.337,0.56c0,0,0.672,1.495-0.241,2.509   C96.388,87.301,96.438,88.253,94.135,88.401"/>
	<path fill="#231F20" d="M83.261,90.643l1.659,1.826l3.166-1.744c0,0,2.929,0.392,3.194,1.534c0.264,1.142,1.316,2.428,0.431,3.446   c-0.913,1.038-1.849,1.286-1.849,1.286l0.218-2.529c0,0-1.08-1.663-1.993-0.831c-0.913,0.831-3.189,1.558-3.189,1.558l-2.619-1.577   "/>
	<polyline fill="#231F20" points="98.334,87.756 101.143,89.314 102.511,92.507 99.294,93.482 98.909,90.413 96.318,89.415"/>
	<path fill="#231F20" d="M85.351,96.121c0,0,2.976,1.348,4.343,1.266c1.344-0.085,4.176-1.037,4.176-1.037l5.377-3.446l3.815-1.018   l18.815,0.272l3.263,0.435l2.281,2.386l38.924,1.161c0,0,2.595,1.578,3.48,3.26c0.89,1.682,1.775,6.453,0.023,9.464   c-1.729,3.006-3.959,4.315-3.959,4.315l-5.4,0.354l-32.229-5.292l-21.837,0.063l-4.106,2.198l-3.287,3.093l-3,1.367l-5.785,0.167   l1.034-1.807l3.885,0.148c0,0,3.889-5.669,5.187-6.52c1.293-0.87,26.875,0.209,26.875,0.209l30.097,2.324l0.528-3.901   c0,0,0.622-2.366,1.558-2.801c0.937-0.458,2.809-1.539,1.752,0.082c-1.057,1.597-1.941,3.011-0.648,5.065   c1.298,2.032,2.906,2.902,4.227,2.615c1.34-0.272,3.551-1.974,3.528-5.253c0-3.279-0.987-6.309-2.161-6.806l-39.742-1.911   l-5.062,2.451l4.223-3.155l-13.271-2.241l-11.041-0.272l-6.166,3.116l14.087-0.334l3.143,1.143l-0.937,0.458l-9.84,0.249   l-9.958,1.41l-4.681-0.87l-1.655-1.83"/>
	<path fill="#231F20" d="M163.104,102.927c0.264-0.559,1.635-1.659,2.595-1.721c0.96-0.062,1.558,0.478,1.655,1.64   c0.07,1.162,0.431,4.024-0.459,5.062c-0.908,1.019-3.574,1.578-4.079-0.143C162.339,106.062,162.409,104.317,163.104,102.927"/>
	<path fill="#231F20" d="M166.079,101.369c0.65,0.936,0.961,2.657,0.891,4.588c-0.074,1.95-1.225,2.012-2.184,2.26   C165.815,106.225,166.515,105.024,166.079,101.369"/>
	<path fill="#231F20" d="M107.188,108.055c0,0-1.057,1.616-2.161,2.653c-1.08,1.037-1.631,1.453-3.143,2.141   c-1.511,0.66-2.688,0.163-2.688,0.163l-2.254,1.123l2.712,0.206c0,0,2.328-0.145,4.2-1.057c1.869-0.874,4.464-2.596,5.544-4.006   c1.052-1.434,0.478-1.391,0.478-1.391"/>
	<path fill="#FFFFFF" d="M131.189,108.199l2.207,0.393l-1.563,2.098l-6.958,2.634l-2.568-1.764c0,0-2.017-6.162-2.017-6.41   c-0.023-0.229,0.816-4.234,0.816-4.234l2.614,0.54l1.706,2.179l1.942,3.131l1.08,0.894"/>
	<path fill="#231F20" d="M121.154,100.001c0.746-0.622,2.642-1.123,3.889,0.144c1.224,1.266,2.355,3.714,2.448,5.066   c0.073,1.348,0.959,2.404,1.729,2.365c0.769-0.062,6.096,0.89,4.177,1.015c-1.943,0.124-5.066,0.813-6.096-0.475   c-1.057-1.29-1.632-4.339-3.073-5.396c-1.414-1.08-2.545-0.439-3.046,0.579c-0.505,0.999-0.314,2.991,0.501,4.981   c0.626,1.538,1.659,4.215,3.217,4.315c1.561,0.086,2.641-0.435,4.51-1.511c1.873-1.104,3.889-2.763,3.889-2.763l1.538-0.105   c0,0,5.109,0.459-2.665,7.39c-2.521,2.242-4.417,2.926-6.744,2.863c-2.304-0.038-7.222-1.267-9.6-2.074   c-2.374-0.809-4.441-1.869-5.28-2.905c-0.839-1.019-2.929-5.396-3.046-7.328c-0.12-1.907,0.455-4.129,1.942-5.186   c1.321-0.932,4.08,0.062,4.08,0.062c0.575-1.018,2.28-1.348,2.642-0.521c0.334-0.995,2.374-1.845,3.574-1.138   C120.941,100.063,121.038,99.834,121.154,100.001"/>
	<path fill="#FFFFFF" d="M120.844,112.763c-0.672-1.1-2.327-5.086-2.229-7.595c0.069-1.535,0.598-2.863,0.598-2.863   s-0.361-0.832-1.103-0.292c-0.746,0.521-1.201,1.08-1.391,2.658c-0.194,1.577,0.478,4.689,1.053,6.185   c0.505,1.329,1.25,1.678,1.441,1.721C119.406,112.62,120.246,112.931,120.844,112.763"/>
	<path fill="#FFFFFF" d="M116.022,111.707c-0.412-1.08-1.08-5.438-0.936-6.892c0.19-1.931-0.77-2.323-1.107-0.622   c-0.311,1.577-0.023,3.383,0.171,4.502c0.19,1.142,1.029,2.887,1.581,3.136C116.283,112.099,116.31,112.453,116.022,111.707"/>
	<path fill="#FFFFFF" d="M112.013,104.504c0.455-1.368,0.361-2.16-0.839-1.267c-0.723,0.56-0.89,1.224-0.987,2.615   c-0.047,0.894,0,2.242,0.843,3.03c0.839,0.789,1.15,1.143,1.391,1.185c0.264,0.039,0.144-0.788-0.074-1.495   C112.111,107.869,111.605,105.728,112.013,104.504"/>
	<path fill="#FFFFFF" d="M91.447,74.745c6.647-7.909,7.462-15.007,6.837-21.689c-1.174-13.011-2.591-20.481,1.779-26.398   c2.615-3.59,5.878-6.019,10.271-7.366c-5.761,4.168-9.744,6.702-11.546,14.631c-1.321,5.831,3.842,21.623-0.455,32.498   C97.352,68.872,94.422,72.69,91.447,74.745"/>
	<polyline fill="#231F20" points="138.579,109.422 160.035,111.788 157.852,119.01 138.699,117.29"/>
	<polyline fill="#231F20" points="159.049,109.442 156.601,111.998 156.795,120.444 159.313,120.899 160.489,110.005"/>
	<polyline fill="#FFFFFF" points="159.868,117.433 199.486,124.282 219.863,121.811 200.038,114.776 160.128,112.162"/>
	<polyline fill="#B1B3B5" points="139.923,110.377 140.066,116.353 156.842,117.643 157.059,111.746"/>
	<polyline fill="#B1B3B5" points="209.087,121.458 202.463,119.904 160.921,115.234 160.685,115.75 202.921,120.941"/>
	<polygon fill="none" stroke="#B1B3B5" stroke-width="0.7365" stroke-miterlimit="16" points="209.087,121.458 202.463,119.904 160.921,115.234 160.685,115.75 202.921,120.941"/>
	<polyline fill="#231F20" points="210.286,121.357 202.87,119.655 160.73,114.9 160.489,115.402 203.329,120.817"/>
	<path fill="#231F20" d="M145.082,57.186c2.545-1.764,11.088-0.703,10.777,2.949c-0.338,3.632-4.033,6.663-5.545,9.277   c-1.487,2.592-0.672-0.334,0.742-4.048c1.441-3.714,1.705-5.874-1.414-6.515C146.547,58.223,143.737,58.122,145.082,57.186"/>
	<path fill="#231F20" d="M147.409,59.365c2.763-0.478,6.624,2.533,6.337,4.483c-0.289,1.95-3.695,7.036-4.344,3.9   C148.753,64.617,147.409,59.365,147.409,59.365"/>
	<path fill="#FFFFFF" d="M148.034,64.097c1.562-0.871,3.694-2.409,2.448-0.082c-1.248,2.304-1.465,3.671-1.465,3.671"/>
	<polyline fill="#B1B3B5" points="95.095,119.198 105.366,116.353 115.611,120.339 100.805,123.761 92.814,122.041"/>
</g>
</svg>