<?xml version="1.0" encoding="utf-8"?>
<!-- Generator: Adobe Illustrator 14.0.0, SVG Export Plug-In . SVG Version: 6.00 Build 43363)  -->
<!DOCTYPE svg PUBLIC "-//W3C//DTD SVG 1.1//EN" "http://www.w3.org/Graphics/SVG/1.1/DTD/svg11.dtd">
<svg version="1.1" id="Layer_1" xmlns="http://www.w3.org/2000/svg" xmlns:xlink="http://www.w3.org/1999/xlink" x="0px" y="0px"
	 width="250px" height="191px" viewBox="0 0 250 191" enable-background="new 0 0 250 191" xml:space="preserve">
<g>
	<polygon fill="none" stroke="#FCB827" stroke-width="11.0087" stroke-linejoin="round" points="129.97,83.858 87.167,9.785 
		30.969,9.785 129.97,181.215 228.944,9.785 172.743,9.785 	"/>
	<polygon fill="none" stroke="#FFFFFF" stroke-width="4.4035" stroke-linejoin="round" points="129.97,83.858 87.167,9.785 
		30.969,9.785 129.97,181.215 228.944,9.785 172.743,9.785 	"/>
	<polyline fill-rule="evenodd" clip-rule="evenodd" fill="#231F20" points="129.97,83.858 87.167,9.785 30.969,9.785 
		129.97,181.215 228.944,9.785 172.743,9.785 129.97,83.858 	"/>
	<path fill="#231F20" d="M45.377,88.419c0,0-4.674-5.599,16.439-17.224c0,0-1.953-1.949-3.23-1.949c0,0,1.083-5.163,11.424-12.044
		l-2.386-1.713c0,0,3.664-11.843,20.676-16.788c0,0-4.314-14.412,6.434-18.097c0,0,6.05,0.436,9.907,2.59
		c3.878,2.154,9.277,3.21,9.277,3.21s3.857-5.145,19.159-1.714c0,0,6.871,1.714,16.123-0.401c9.277-2.171,14.219,9.889,14.63,11.167
		c0,0,9.277,7.095,10.579,13.134c0,0,4.505,10.548,3.013,14.194c0,0,3.639,5.385,3.639,7.334c0,0,6.022,3.213,1.735,12.261
		c0,0,10.748-3.209,16.361-1.496c0,0-11.205,0.641-16.798,4.308c0,0,7.979-1.936,14.197,0.637c0,0-6.025-1.496-15.714,3.009
		c0,0,9.063,0.658,11.424,1.299c0,0-8.411-0.204-14.003,4.086c0,0-1.493,3.448-4.724,4.962c0,0-3.227,11.622-12.483,14.834
		c0,0,3.445-10.948,2.58-14.633l-5.159,3.685l-2.387-3.467l-4.938,2.591c0,0-2.361-2.154-2.58-3.668c0,0-4.529,0.859-6.458,1.735
		c0,0-2.167-2.372-2.167-3.23c0,0-4.728,6.897-4.076,13.556c0,0-6.025-3.448-7.324-17.441c0,0-13.278,0.253-11.835,14.211
		c0.845,8.394,10.966,17.425,10.966,17.425s0.434-6.022,6.895-11.402c0,0,0.434,10.783,2.601,14.415l4.483-3.432l3.686,4.086
		l3.449-3.667l3.013,3.467c0,0,6-6.458,6.239-10.143c0,0,2.794,8.189-1.953,14.45c0,0,4.315,6,0.651,11.181l-6.891,2.154v-1.731
		c0,0-6.652,2.39-9.038,4.963l-0.193-3.231c0,0-6.047-1.932-10.337-1.077c-4.314,0.858-11.424-2.59-10.991-5.163
		c0,0,5.16,3.998,10.967,2.499c5.807-1.514,16.361-0.346,16.361-0.346v1.06c0,0,10.34-3.213,7.327-8.358
		c0,0-31.86,6.223-39.403-21.764c-7.518-27.972,19.811-25.417,22.391-24.34c2.601,1.095,20.869,7.771,24.748,2.154
		c0,0-4.798-6.532,0.218-9.889c3.902-2.573-4.097-3.65-4.097-3.65s-2.798-1.095-2.146-5.381c0,0,6.895,1.056,9.47-0.44
		c2.604-1.513,4.967,1.496,5.812,1.496c0.865,0,5.831,0.44,4.312-3.445c-1.493-3.85-10.749-10.53-17.207-10.33
		c0,0,9.471-1.714,16.365,3.667l-1.302-5.381c0,0-2.58,3.868-7.304,2.573c-4.747-1.277-1.083-6.24,3.64-7.954
		c0,0-5.613-2.59-7.76,6.895c0,0-13.35-3.446-18.075-0.855c0,0,1.302,4.086,6.675,3.009c5.375-1.095,13.136,3.868,13.136,3.868
		s-13.136-3.667-17.45,1.735c0,0,9.256-1.077,11.643,3.209c0,0-10.341-2.791-14.654,0.437c0,0,6.895,1.517,7.326,5.803
		c0,0-10.097-6.021-19.592-1.914c-9.446,4.086-14.412-2.591-14.412-2.591s9.038,5.6,18.293-4.526l-0.869,3.667
		c0,0,5.614-2.59,6.676-6.039c0,0-17.881,6.039-11.617-6.458c0,0-5.181,1.077-7.324,3.227c-2.147,2.154-10.558,7.958-13.134,0.222
		c0,0,3.012,3.009,8.168-0.641c5.181-3.667,6.05-3.667,6.05-3.667s-3.449-3.885-10.097,0.659c0,0,0-3.667,5.782-4.963
		c0,0-1.929-3.23-4.097-3.23c0,0,4.748-2.154,6.891,1.936c2.172,4.086,6.169,3.646,7.545,2.59
		c3.878-3.065,10.555-1.077,12.698,1.496c0,0-4.072-10.107-12.265-7.735c0,0-4.748,1.277-6.677,0.855c0,0,4.724-2.591,6.891-3.428
		c2.147-0.876,5.378,0.401,5.378,0.401s-3.882-6.88-12.05-4.069c-8.172,2.791-6.677-3.23-6.677-3.23s2.143,3.868,7.954,1.06
		c5.832-2.792,13.373,0.218,18.508,11.86c0,0,2.169,6.24,11.445,4.286c0,0-1.517-3.868-4.748-4.086l2.362-1.717
		c0,0-5.832,0.422-10.988-6.676c0,0,6.025,2.791,9.253,1.714c3.23-1.056-6.434-5.821-10.963-6.021c0,0,3.879-3.646,6.673-2.809
		c0,0-9.471-6-15.496-3.228c0,0-4.962-3.85-13.567-1.935c0,0-7.542,6.239-9.904,5.163c-2.386-1.06-0.218,0.658-0.218,0.658
		s8.629,10.326,14.655,8.412c0,0-8.629,7.954-18.1-8.193c0,0-4.315-4.326-9.471-3.009c0,0,0.218,9.249,6.025,11.822
		c0,0-6.87,2.59-9.664-1.478c0,0-7.566,3.449-8.844,6.004l2.794,1.513c0,0-12.702,10.544-13.35,13.775l3.47,0.218
		c0,0-4.796,11.259-16.39,12.423C48.682,79.114,45.377,88.419,45.377,88.419 M178.022,80.5c3.614,3.649-9.471,10.748-9.545,11.311
		c-0.338,2.245,5.474,3.065,5.474,3.065C182.866,87.289,178.022,80.5,178.022,80.5z M160.887,53.7c0,0,5.663-10.326,11.305-5.001
		c0,0-8.074-10.653-14.531-3.227c0,0,4.674-1.295,5.976,0.162C163.636,45.634,159.103,45.947,160.887,53.7z M161.056,37.243
		c-4.674-0.165-6,4.998-6,4.998c5.493-4.998,13.76,0,13.76,0S165.732,37.405,161.056,37.243z M148.959,35.456
		c0.627,1.129,3.517,4.195,5.47,1.622s6.458-1.77,6.458-1.77C157.009,29.015,148.309,34.34,148.959,35.456z M142.646,28.685
		c-5.304-1.295-11.16,0.641-11.16,0.641c5.325-0.951,10.992,3.227,14.557,2.425c3.544-0.82,5.47-2.425,5.47-2.425
		C150.382,30.292,147.995,29.962,142.646,28.685z"/>
	<path fill="none" stroke="#231F20" stroke-width="11.0087" stroke-linejoin="round" d="M45.377,88.419
		c0,0-4.674-5.599,16.439-17.224c0,0-1.953-1.949-3.23-1.949c0,0,1.083-5.163,11.424-12.044l-2.386-1.713
		c0,0,3.664-11.843,20.676-16.788c0,0-4.314-14.412,6.434-18.097c0,0,6.05,0.436,9.907,2.59c3.878,2.154,9.277,3.21,9.277,3.21
		s3.857-5.145,19.159-1.714c0,0,6.871,1.714,16.123-0.401c9.277-2.171,14.219,9.889,14.63,11.167c0,0,9.277,7.095,10.579,13.134
		c0,0,4.505,10.548,3.013,14.194c0,0,3.639,5.385,3.639,7.334c0,0,6.022,3.213,1.735,12.261c0,0,10.748-3.209,16.361-1.496
		c0,0-11.205,0.641-16.798,4.308c0,0,7.979-1.936,14.197,0.637c0,0-6.025-1.496-15.714,3.009c0,0,9.063,0.658,11.424,1.299
		c0,0-8.411-0.204-14.003,4.086c0,0-1.493,3.448-4.724,4.962c0,0-3.227,11.622-12.483,14.834c0,0,3.445-10.948,2.58-14.633
		l-5.159,3.685l-2.387-3.467l-4.938,2.591c0,0-2.361-2.154-2.58-3.668c0,0-4.529,0.859-6.458,1.735c0,0-2.167-2.372-2.167-3.23
		c0,0-4.728,6.897-4.076,13.556c0,0-6.025-3.448-7.324-17.441c0,0-13.278,0.253-11.835,14.211
		c0.845,8.394,10.966,17.425,10.966,17.425s0.434-6.022,6.895-11.402c0,0,0.434,10.783,2.601,14.415l4.483-3.432l3.686,4.086
		l3.449-3.667l3.013,3.467c0,0,6-6.458,6.239-10.143c0,0,2.794,8.189-1.953,14.45c0,0,4.315,6,0.651,11.181l-6.891,2.154v-1.731
		c0,0-6.652,2.39-9.038,4.963l-0.193-3.231c0,0-6.047-1.932-10.337-1.077c-4.314,0.858-11.424-2.59-10.991-5.163
		c0,0,5.16,3.998,10.967,2.499c5.807-1.514,16.361-0.346,16.361-0.346v1.06c0,0,10.34-3.213,7.327-8.358
		c0,0-31.86,6.223-39.403-21.764c-7.518-27.972,19.811-25.417,22.391-24.34c2.601,1.095,20.869,7.771,24.748,2.154
		c0,0-4.798-6.532,0.218-9.889c3.902-2.573-4.097-3.65-4.097-3.65s-2.798-1.095-2.146-5.381c0,0,6.895,1.056,9.47-0.44
		c2.604-1.513,4.967,1.496,5.812,1.496c0.865,0,5.831,0.44,4.312-3.445c-1.493-3.85-10.749-10.53-17.207-10.33
		c0,0,9.471-1.714,16.365,3.667l-1.302-5.381c0,0-2.58,3.868-7.304,2.573c-4.747-1.277-1.083-6.24,3.64-7.954
		c0,0-5.613-2.59-7.76,6.895c0,0-13.35-3.446-18.075-0.855c0,0,1.302,4.086,6.675,3.009c5.375-1.095,13.136,3.868,13.136,3.868
		s-13.136-3.667-17.45,1.735c0,0,9.256-1.077,11.643,3.209c0,0-10.341-2.791-14.654,0.437c0,0,6.895,1.517,7.326,5.803
		c0,0-10.097-6.021-19.592-1.914c-9.446,4.086-14.412-2.591-14.412-2.591s9.038,5.6,18.293-4.526l-0.869,3.667
		c0,0,5.614-2.59,6.676-6.039c0,0-17.881,6.039-11.617-6.458c0,0-5.181,1.077-7.324,3.227c-2.147,2.154-10.558,7.958-13.134,0.222
		c0,0,3.012,3.009,8.168-0.641c5.181-3.667,6.05-3.667,6.05-3.667s-3.449-3.885-10.097,0.659c0,0,0-3.667,5.782-4.963
		c0,0-1.929-3.23-4.097-3.23c0,0,4.748-2.154,6.891,1.936c2.172,4.086,6.169,3.646,7.545,2.59
		c3.878-3.065,10.555-1.077,12.698,1.496c0,0-4.072-10.107-12.265-7.735c0,0-4.748,1.277-6.677,0.855c0,0,4.724-2.591,6.891-3.428
		c2.147-0.876,5.378,0.401,5.378,0.401s-3.882-6.88-12.05-4.069c-8.172,2.791-6.677-3.23-6.677-3.23s2.143,3.868,7.954,1.06
		c5.832-2.792,13.373,0.218,18.508,11.86c0,0,2.169,6.24,11.445,4.286c0,0-1.517-3.868-4.748-4.086l2.362-1.717
		c0,0-5.832,0.422-10.988-6.676c0,0,6.025,2.791,9.253,1.714c3.23-1.056-6.434-5.821-10.963-6.021c0,0,3.879-3.646,6.673-2.809
		c0,0-9.471-6-15.496-3.228c0,0-4.962-3.85-13.567-1.935c0,0-7.542,6.239-9.904,5.163c-2.386-1.06-0.218,0.658-0.218,0.658
		s8.629,10.326,14.655,8.412c0,0-8.629,7.954-18.1-8.193c0,0-4.315-4.326-9.471-3.009c0,0,0.218,9.249,6.025,11.822
		c0,0-6.87,2.59-9.664-1.478c0,0-7.566,3.449-8.844,6.004l2.794,1.513c0,0-12.702,10.544-13.35,13.775l3.47,0.218
		c0,0-4.796,11.259-16.39,12.423C48.682,79.114,45.377,88.419,45.377,88.419z M178.022,80.5c3.614,3.649-9.471,10.748-9.545,11.311
		c-0.338,2.245,5.474,3.065,5.474,3.065C182.866,87.289,178.022,80.5,178.022,80.5z M160.887,53.7c0,0,5.663-10.326,11.305-5.001
		c0,0-8.074-10.653-14.531-3.227c0,0,4.674-1.295,5.976,0.162C163.636,45.634,159.103,45.947,160.887,53.7z M161.056,37.243
		c-4.674-0.165-6,4.998-6,4.998c5.493-4.998,13.76,0,13.76,0S165.732,37.405,161.056,37.243z M148.959,35.456
		c0.627,1.129,3.517,4.195,5.47,1.622s6.458-1.77,6.458-1.77C157.009,29.015,148.309,34.34,148.959,35.456z M142.646,28.685
		c-5.304-1.295-11.16,0.641-11.16,0.641c5.325-0.951,10.992,3.227,14.557,2.425c3.544-0.82,5.47-2.425,5.47-2.425
		C150.382,30.292,147.995,29.962,142.646,28.685z"/>
	<path fill="#231F20" d="M119.242,106.772L16.289,46.348L10,57.786c0,0,58.95,33.716,104.399,59.607l4.699,2.645l-2.119-5.237
		l7.324,1.442l-4.818-4.762l7.662,0.109L119.242,106.772"/>
	<path fill="none" stroke="#231F20" stroke-width="11.0087" stroke-linejoin="round" d="M119.242,106.772L16.289,46.348L10,57.786
		c0,0,58.95,33.716,104.399,59.607l4.699,2.645l-2.119-5.237l7.324,1.442l-4.818-4.762l7.662,0.109L119.242,106.772z"/>
	<path fill="none" stroke="#231F20" stroke-width="11.0087" stroke-linejoin="round" d="M118.208,109.109
		C69.766,80.94,17.81,51.019,17.81,51.019l-4.097,6.331c0,0,55.525,31.418,101.77,57.634l-2.143-2.809l8.313,2.407l-4.892-3.85
		l4.121-0.071L118.208,109.109z"/>
	<polyline fill="#231F20" points="17.711,49.357 13.157,57.385 38.124,73.222 43.956,63.333 17.711,49.357 	"/>
	<polygon fill="none" stroke="#231F20" stroke-width="11.0087" stroke-linejoin="round" points="17.711,49.357 13.157,57.385 
		38.124,73.222 43.956,63.333 	"/>
	<polygon fill="none" stroke="#231F20" stroke-width="11.0087" stroke-linejoin="round" points="26.052,54.211 23.398,61.654 
		29.135,56.143 	"/>
	<polygon fill="none" stroke="#231F20" stroke-width="11.0087" stroke-linejoin="round" points="31.208,57.529 28.558,64.955 
		34.294,59.465 	"/>
	<polygon fill="none" stroke="#231F20" stroke-width="11.0087" stroke-linejoin="round" points="36.367,60.834 33.714,68.277 
		39.451,62.784 	"/>
	<polyline fill="#231F20" points="122.592,90.918 126.33,105.551 115.146,94.624 120.111,94.223 122.592,90.918 	"/>
	<polygon fill="none" stroke="#231F20" stroke-width="11.0087" stroke-linejoin="round" points="122.592,90.918 126.33,105.551 
		115.146,94.624 120.111,94.223 	"/>
	<polygon fill="none" stroke="#231F20" stroke-width="11.0087" stroke-linejoin="round" points="122.279,94.405 124.451,101.831 
		118.978,95.553 121.558,95.553 	"/>
	<polyline fill="#231F20" points="115.269,126.26 127.533,118.891 119.773,130.747 115.269,126.26 	"/>
	<polygon fill="none" stroke="#231F20" stroke-width="11.0087" stroke-linejoin="round" points="115.269,126.26 127.533,118.891 
		119.773,130.747 	"/>
	<polygon fill="none" stroke="#231F20" stroke-width="11.0087" stroke-linejoin="round" points="117.532,126.333 119.992,128.958 
		124.134,121.934 	"/>
	<path fill="#231F20" d="M119.242,106.772L16.289,46.348L10,57.786c0,0,58.95,33.716,104.399,59.607l4.699,2.645l-2.119-5.237
		l7.324,1.442l-4.818-4.762l7.662,0.109L119.242,106.772"/>
	<path fill="none" stroke="#FFFFFF" stroke-width="4.4035" stroke-linejoin="round" d="M119.242,106.772L16.289,46.348L10,57.786
		c0,0,58.95,33.716,104.399,59.607l4.699,2.645l-2.119-5.237l7.324,1.442l-4.818-4.762l7.662,0.109L119.242,106.772z"/>
	<path fill="#F0B41C" d="M118.208,109.109C69.766,80.94,17.81,51.019,17.81,51.019l-4.097,6.331c0,0,55.525,31.418,101.77,57.634
		l-2.143-2.809l8.313,2.407l-4.892-3.85l4.121-0.071L118.208,109.109"/>
	<path fill="none" stroke="#FFFFFF" stroke-width="4.4035" stroke-linejoin="round" d="M118.208,109.109
		C69.766,80.94,17.81,51.019,17.81,51.019l-4.097,6.331c0,0,55.525,31.418,101.77,57.634l-2.143-2.809l8.313,2.407l-4.892-3.85
		l4.121-0.071L118.208,109.109z"/>
	<polyline fill="#231F20" points="17.711,49.357 13.157,57.385 38.124,73.222 43.956,63.333 17.711,49.357 	"/>
	<polygon fill="none" stroke="#FFFFFF" stroke-width="4.4035" stroke-linejoin="round" points="17.711,49.357 13.157,57.385 
		38.124,73.222 43.956,63.333 	"/>
	<polyline fill="#FFFFFF" points="26.052,54.211 23.398,61.654 29.135,56.143 26.052,54.211 	"/>
	<polygon fill="none" stroke="#FFFFFF" stroke-width="4.4035" stroke-linejoin="round" points="26.052,54.211 23.398,61.654 
		29.135,56.143 	"/>
	<polyline fill="#FFFFFF" points="31.208,57.529 28.558,64.955 34.294,59.465 31.208,57.529 	"/>
	<polygon fill="none" stroke="#FFFFFF" stroke-width="4.4035" stroke-linejoin="round" points="31.208,57.529 28.558,64.955 
		34.294,59.465 	"/>
	<polyline fill="#FFFFFF" points="36.367,60.834 33.714,68.277 39.451,62.784 36.367,60.834 	"/>
	<polygon fill="none" stroke="#FFFFFF" stroke-width="4.4035" stroke-linejoin="round" points="36.367,60.834 33.714,68.277 
		39.451,62.784 	"/>
	<polygon fill="none" stroke="#FFFFFF" stroke-width="4.4035" stroke-linejoin="round" points="122.592,90.918 126.33,105.551 
		115.146,94.624 120.111,94.223 	"/>
	<polygon fill="none" stroke="#FFFFFF" stroke-width="4.4035" stroke-linejoin="round" points="122.279,94.405 124.451,101.831 
		118.978,95.553 121.558,95.553 	"/>
	<polygon fill="none" stroke="#FFFFFF" stroke-width="4.4035" stroke-linejoin="round" points="115.269,126.26 127.533,118.891 
		119.773,130.747 	"/>
	<polygon fill="none" stroke="#FFFFFF" stroke-width="4.4035" stroke-linejoin="round" points="117.532,126.333 119.992,128.958 
		124.134,121.934 	"/>
	<path fill="#231F20" d="M164.6,123.269c0.458-0.258,0.891-0.528,1.277-0.768c25.618-15.307,59.623-33.716,69.575-45.738
		c9.928-12.043,0.507-54.772,0.507-54.772c-11.522,2.534-32.97,17.935-32.97,17.935l6.652,13.264
		c11.927,27.22-12.122,38.897-12.122,38.897l-41.524,23.629l-3.978,2.098l6.314,0.584l-5.688,5.089l9.302-2.372l-2.168,4.963
		L164.6,123.269"/>
	<path fill="none" stroke="#231F20" stroke-width="11.0087" stroke-linejoin="round" d="M164.6,123.269
		c0.458-0.258,0.891-0.528,1.277-0.768c25.618-15.307,59.623-33.716,69.575-45.738c9.928-12.043,0.507-54.772,0.507-54.772
		c-11.522,2.534-32.97,17.935-32.97,17.935l6.652,13.264c11.927,27.22-12.122,38.897-12.122,38.897l-41.524,23.629l-3.978,2.098
		l6.314,0.584l-5.688,5.089l9.302-2.372l-2.168,4.963L164.6,123.269z"/>
	<path fill="#F0B41C" d="M207.061,39.651l2.845,5.438l25.328-12.205l-2.435-7.152C232.799,25.731,210.989,36.258,207.061,39.651"/>
	<path fill="none" stroke="#231F20" stroke-width="11.0087" stroke-linejoin="round" d="M207.061,39.651l2.845,5.438l25.328-12.205
		l-2.435-7.152C232.799,25.731,210.989,36.258,207.061,39.651z"/>
	<path fill="#F0B41C" d="M163.055,121.132c9.305-5.455,15.162-8.922,15.546-9.104c12.12-6.293,45.667-28.497,49.284-33.258
		c3.59-4.762,7.856-11.385,7.181-19.378l-17.978,7.535c0,0,2.938,16.749-24.196,31.017c-6.145,3.249-18.751,10.291-34.535,19.251
		l3.47-0.584l-5.567,5.181l7.641-2.39L163.055,121.132"/>
	<path fill="none" stroke="#231F20" stroke-width="11.0087" stroke-linejoin="round" d="M163.055,121.132
		c9.305-5.455,15.162-8.922,15.546-9.104c12.12-6.293,45.667-28.497,49.284-33.258c3.59-4.762,7.856-11.385,7.181-19.378
		l-17.978,7.535c0,0,2.938,16.749-24.196,31.017c-6.145,3.249-18.751,10.291-34.535,19.251l3.47-0.584l-5.567,5.181l7.641-2.39
		L163.055,121.132z"/>
	<polyline fill="#FFFFFF" points="216.846,62.439 230.247,53.683 216.148,59.046 216.846,62.439 	"/>
	<polygon fill="none" stroke="#231F20" stroke-width="11.0087" stroke-linejoin="round" points="216.846,62.439 230.247,53.683 
		216.148,59.046 	"/>
	<polyline fill="#FFFFFF" points="215.593,56.548 225.569,50.325 214.652,54.52 215.593,56.548 	"/>
	<polygon fill="none" stroke="#231F20" stroke-width="11.0087" stroke-linejoin="round" points="215.593,56.548 225.569,50.325 
		214.652,54.52 	"/>
	<polyline fill="#FFFFFF" points="213.737,51.874 225.401,43.353 212.076,48.372 213.737,51.874 	"/>
	<polygon fill="none" stroke="#231F20" stroke-width="11.0087" stroke-linejoin="round" points="213.737,51.874 225.401,43.353 
		212.076,48.372 	"/>
	<polyline fill="#231F20" points="174.891,136.951 163.128,127.41 178.601,129.525 174.891,132.848 174.891,136.951 	"/>
	<polygon fill="none" stroke="#231F20" stroke-width="11.0087" stroke-linejoin="round" points="174.891,136.951 163.128,127.41 
		178.601,129.525 174.891,132.848 	"/>
	<polygon fill="none" stroke="#231F20" stroke-width="11.0087" stroke-linejoin="round" points="173.032,133.96 166.838,129.29 
		174.986,131.077 172.913,132.608 	"/>
	<polyline fill="#231F20" points="185.783,128.139 168.383,123.722 186.818,120.42 184.023,124.528 185.783,128.139 	"/>
	<polygon fill="none" stroke="#231F20" stroke-width="11.0087" stroke-linejoin="round" points="185.783,128.139 168.383,123.722 
		186.818,120.42 184.023,124.528 	"/>
	<polygon fill="none" stroke="#231F20" stroke-width="11.0087" stroke-linejoin="round" points="182.383,126.15 173.395,124.126 
		183.372,122.977 181.711,125.021 	"/>
	<polyline fill="#231F20" points="180.335,101.609 170.313,107.723 176.626,97.981 180.335,101.609 	"/>
	<polygon fill="none" stroke="#231F20" stroke-width="11.0087" points="180.335,101.609 170.313,107.723 176.626,97.981 	"/>
	<polygon fill="none" stroke="#231F20" stroke-width="11.0087" stroke-linejoin="round" points="178.48,101.575 176.457,99.438 
		173.057,105.207 	"/>
	<path fill="#F0B41C" d="M89.697,41.273c0,1.534-2.432,1.46-3.878,1.46c0,0.475,0,0.968-0.507,0.968c-0.458,0-1.421,0-1.904,0
		c0,1.932-1.954,0.947-2.436,1.932c-0.479,0-0.479,0-0.964,0c0,0.968-0.985,1.443-1.95,1.936c-0.482,1.915-0.482,3.393-0.482,5.328
		c-2.411,0.965-4.34,2.9-6.289,4.854c0,0.964-0.964,1.932-0.964,2.9c-1.929,0-1.446,2.425-2.917,2.9
		c0.482,3.393-1.929,6.296-3.878,9.196c0.507,0.985-0.964,1.46-0.964,2.446c-2.411,0.455-4.847,1.915-7.253,1.915
		c0,0.493,0,0.985-0.507,0.985c-0.458,0-0.458,0-0.94,0c-0.506,0-0.506,0.475-0.506,0.968c-0.458,0-0.458,0-0.965,0
		c-0.964,0.964-1.929,1.932-2.914,2.407c-0.461,0.986-3.712,3.323-3.857,6.423c8.75-9.854,12.723-5.786,24.245-10.949
		c-0.506,2.446-3.928,12.755-3.928,15.183c0.985,0.493,0.985,1.457,0.985,2.425c0.483,0,0.965,0.475,0.965,0.968
		c1.953,0,2.917,0,3.882,1.46c0.482,2.9,0.482,5.325,2.432,7.771c0.965,1.422,0,3.357,0.458,4.818
		c1.471,3.374,1.953,7.26,3.399,10.652c2.914,2.429,4.385,5.804,7.253,8.229c0.989,0,1.953,0,2.938,0.985
		c1.447,0,2.411,0,3.857,0.476c0.482,0.946,1.471,1.932,2.436,2.9c1.443-0.493,2.407,0.492,3.854,0.492
		c1.471,0.968,2.411,2.9,3.882,3.868c0.482,0,0.482,0,0.964,0c0.482,0.492,0.482,0.492,0.964,0.968
		c1.95,0.476,3.878,0.476,5.35,1.461c1.446,0,2.914,0,4.36,0c1.929,1.439,4.339,0.964,6.29,1.439
		c0.482,0.985,1.446,0.985,1.928,1.46c10.172,0.967,19.859,0.967,30.028,0.967c0-0.474,0-0.967,0.988-0.967c0-0.475,0-0.475,0-0.968
		c0.965-0.492,1.446-0.968,1.446-1.932c1.929-6.297,0.964-12.59,0-18.411c-0.481-0.475-0.481-0.475-0.964-0.968
		c0-1.461-1.471-2.406-0.989-3.867c-1.929-2.407-0.481-5.839-0.965-8.721c0.965,0.475,0.965-1.461,1.954-0.969
		c1.928-1.914,3.856-3.885,6.289-4.36c0.482-0.985,0.964-1.932,1.953-2.425c3.856-1.936,7.735-2.429,12.075-2.429
		c1.467-1.932,2.914-3.867,4.843-5.799c1.446-5.821,2.917-12.114,1.446-18.41c-0.964,0-0.458-1.46-1.446-1.46
		c-1.447-5.307-2.411-10.653-4.34-15.981c0.482-2.429-0.503-4.835-0.503-7.26c-2.411-2.904-3.857-6.771-6.775-9.689
		c-2.287-2.298-4.36-4.343-6.771-6.768c0-0.493,0-0.493,0-0.985c-0.965-0.475-1.929-1.443-2.915-2.411
		c-1.446-0.493-2.893-0.493-4.339-1.439c-12.603-0.968-25.209-0.968-37.788-0.968c-0.482,0.457-1.447,0.968-1.954,1.442
		c-6.771,1.439-14.049,0-20.82,0.472c0,0.493-0.482,0.968-0.964,0.968c-0.507,2.921-0.507,5.346-0.507,8.246
		C89.697,37.881,89.697,39.816,89.697,41.273"/>
	<path fill="none" stroke="#231F20" stroke-width="11.0087" stroke-linejoin="round" d="M89.697,41.273
		c0,1.534-2.432,1.46-3.878,1.46c0,0.475,0,0.968-0.507,0.968c-0.458,0-1.421,0-1.904,0c0,1.932-1.954,0.947-2.436,1.932
		c-0.479,0-0.479,0-0.964,0c0,0.968-0.985,1.443-1.95,1.936c-0.482,1.915-0.482,3.393-0.482,5.328
		c-2.411,0.965-4.34,2.9-6.289,4.854c0,0.964-0.964,1.932-0.964,2.9c-1.929,0-1.446,2.425-2.917,2.9
		c0.482,3.393-1.929,6.296-3.878,9.196c0.507,0.985-0.964,1.46-0.964,2.446c-2.411,0.455-4.847,1.915-7.253,1.915
		c0,0.493,0,0.985-0.507,0.985c-0.458,0-0.458,0-0.94,0c-0.506,0-0.506,0.475-0.506,0.968c-0.458,0-0.458,0-0.965,0
		c-0.964,0.964-1.929,1.932-2.914,2.407c-0.461,0.986-3.712,3.323-3.857,6.423c8.75-9.854,12.723-5.786,24.245-10.949
		c-0.506,2.446-3.928,12.755-3.928,15.183c0.985,0.493,0.985,1.457,0.985,2.425c0.483,0,0.965,0.475,0.965,0.968
		c1.953,0,2.917,0,3.882,1.46c0.482,2.9,0.482,5.325,2.432,7.771c0.965,1.422,0,3.357,0.458,4.818
		c1.471,3.374,1.953,7.26,3.399,10.652c2.914,2.429,4.385,5.804,7.253,8.229c0.989,0,1.953,0,2.938,0.985
		c1.447,0,2.411,0,3.857,0.476c0.482,0.946,1.471,1.932,2.436,2.9c1.443-0.493,2.407,0.492,3.854,0.492
		c1.471,0.968,2.411,2.9,3.882,3.868c0.482,0,0.482,0,0.964,0c0.482,0.492,0.482,0.492,0.964,0.968
		c1.95,0.476,3.878,0.476,5.35,1.461c1.446,0,2.914,0,4.36,0c1.929,1.439,4.339,0.964,6.29,1.439
		c0.482,0.985,1.446,0.985,1.928,1.46c10.172,0.967,19.859,0.967,30.028,0.967c0-0.474,0-0.967,0.988-0.967c0-0.475,0-0.475,0-0.968
		c0.965-0.492,1.446-0.968,1.446-1.932c1.929-6.297,0.964-12.59,0-18.411c-0.481-0.475-0.481-0.475-0.964-0.968
		c0-1.461-1.471-2.406-0.989-3.867c-1.929-2.407-0.481-5.839-0.965-8.721c0.965,0.475,0.965-1.461,1.954-0.969
		c1.928-1.914,3.856-3.885,6.289-4.36c0.482-0.985,0.964-1.932,1.953-2.425c3.856-1.936,7.735-2.429,12.075-2.429
		c1.467-1.932,2.914-3.867,4.843-5.799c1.446-5.821,2.917-12.114,1.446-18.41c-0.964,0-0.458-1.46-1.446-1.46
		c-1.447-5.307-2.411-10.653-4.34-15.981c0.482-2.429-0.503-4.835-0.503-7.26c-2.411-2.904-3.857-6.771-6.775-9.689
		c-2.287-2.298-4.36-4.343-6.771-6.768c0-0.493,0-0.493,0-0.985c-0.965-0.475-1.929-1.443-2.915-2.411
		c-1.446-0.493-2.893-0.493-4.339-1.439c-12.603-0.968-25.209-0.968-37.788-0.968c-0.482,0.457-1.447,0.968-1.954,1.442
		c-6.771,1.439-14.049,0-20.82,0.472c0,0.493-0.482,0.968-0.964,0.968c-0.507,2.921-0.507,5.346-0.507,8.246
		C89.697,37.881,89.697,39.816,89.697,41.273z"/>
	<path fill="#231F20" d="M164.913,102.944c0,0-12.896,6.457-9.352,20.341l-2.579,3.886c0,0-3.544-6.785-3.228-12.916
		c0.313-6.148-8.099-17.115-8.099-17.115h18.749l4.846,0.659L164.913,102.944"/>
	<path fill="none" stroke="#231F20" stroke-width="11.0087" stroke-linejoin="round" d="M164.913,102.944
		c0,0-12.896,6.457-9.352,20.341l-2.579,3.886c0,0-3.544-6.785-3.228-12.916c0.313-6.148-8.099-17.115-8.099-17.115h18.749
		l4.846,0.659L164.913,102.944z"/>
	<path fill="#231F20" d="M81.841,57.642c0,0-20.243,23.443-14.869,43.475l4.941-1.295c0,0-7.303,20.014,19.593,36.162l2.601-2.792
		c0,0,4.723,6.022,13.761,7.317c0,0-13.543-11.844-14.194-16.565l-4.529,3.85c0,0-17.425-10.967-8.605-38.956l-5.592,0.859
		C74.947,89.697,75.358,70.34,81.841,57.642"/>
	<path fill="none" stroke="#231F20" stroke-width="11.0087" stroke-linejoin="round" d="M81.841,57.642
		c0,0-20.243,23.443-14.869,43.475l4.941-1.295c0,0-7.303,20.014,19.593,36.162l2.601-2.792c0,0,4.723,6.022,13.761,7.317
		c0,0-13.543-11.844-14.194-16.565l-4.529,3.85c0,0-17.425-10.967-8.605-38.956l-5.592,0.859
		C74.947,89.697,75.358,70.34,81.841,57.642z"/>
	<path fill="#231F20" d="M164.6,123.269c0.458-0.258,0.891-0.528,1.277-0.768c25.618-15.307,59.623-33.716,69.575-45.738
		c9.928-12.043,0.507-54.772,0.507-54.772c-11.522,2.534-32.97,17.935-32.97,17.935l6.652,13.264
		c11.927,27.22-12.122,38.897-12.122,38.897l-41.524,23.629l-3.978,2.098l6.314,0.584l-5.688,5.089l9.302-2.372l-2.168,4.963
		L164.6,123.269"/>
	<path fill="none" stroke="#FFFFFF" stroke-width="4.4035" stroke-linejoin="round" d="M164.6,123.269
		c0.458-0.258,0.891-0.528,1.277-0.768c25.618-15.307,59.623-33.716,69.575-45.738c9.928-12.043,0.507-54.772,0.507-54.772
		c-11.522,2.534-32.97,17.935-32.97,17.935l6.652,13.264c11.927,27.22-12.122,38.897-12.122,38.897l-41.524,23.629l-3.978,2.098
		l6.314,0.584l-5.688,5.089l9.302-2.372l-2.168,4.963L164.6,123.269z"/>
	<path fill="#F0B41C" d="M207.061,39.651l2.845,5.438l25.328-12.205l-2.435-7.152C232.799,25.731,210.989,36.258,207.061,39.651"/>
	<path fill="none" stroke="#FFFFFF" stroke-width="4.4035" stroke-linejoin="round" d="M207.061,39.651l2.845,5.438l25.328-12.205
		l-2.435-7.152C232.799,25.731,210.989,36.258,207.061,39.651z"/>
	<path fill="#F0B41C" d="M163.055,121.132c9.305-5.455,15.162-8.922,15.546-9.104c12.12-6.293,45.667-28.497,49.284-33.258
		c3.59-4.762,7.856-11.385,7.181-19.378l-17.978,7.535c0,0,2.938,16.749-24.196,31.017c-6.145,3.249-18.751,10.291-34.535,19.251
		l3.47-0.584l-5.567,5.181l7.641-2.39L163.055,121.132"/>
	<path fill="none" stroke="#FFFFFF" stroke-width="4.4035" stroke-linejoin="round" d="M163.055,121.132
		c9.305-5.455,15.162-8.922,15.546-9.104c12.12-6.293,45.667-28.497,49.284-33.258c3.59-4.762,7.856-11.385,7.181-19.378
		l-17.978,7.535c0,0,2.938,16.749-24.196,31.017c-6.145,3.249-18.751,10.291-34.535,19.251l3.47-0.584l-5.567,5.181l7.641-2.39
		L163.055,121.132z"/>
	<polyline fill="#FFFFFF" points="216.846,62.439 230.247,53.683 216.148,59.046 216.846,62.439 	"/>
	<polygon fill="none" stroke="#FFFFFF" stroke-width="4.4035" stroke-linejoin="round" points="216.846,62.439 230.247,53.683 
		216.148,59.046 	"/>
	<polyline fill="#FFFFFF" points="215.593,56.548 225.569,50.325 214.652,54.52 215.593,56.548 	"/>
	<polygon fill="none" stroke="#FFFFFF" stroke-width="4.4035" stroke-linejoin="round" points="215.593,56.548 225.569,50.325 
		214.652,54.52 	"/>
	<polyline fill="#FFFFFF" points="213.737,51.874 225.401,43.353 212.076,48.372 213.737,51.874 	"/>
	<polygon fill="none" stroke="#FFFFFF" stroke-width="4.4035" stroke-linejoin="round" points="213.737,51.874 225.401,43.353 
		212.076,48.372 	"/>
	<polyline fill="#231F20" points="174.891,136.951 163.128,127.41 178.601,129.525 174.891,132.848 174.891,136.951 	"/>
	<polygon fill="none" stroke="#FFFFFF" stroke-width="4.4035" stroke-linejoin="round" points="174.891,136.951 163.128,127.41 
		178.601,129.525 174.891,132.848 	"/>
	<polygon fill="none" stroke="#FFFFFF" stroke-width="4.4035" stroke-linejoin="round" points="173.032,133.96 166.838,129.29 
		174.986,131.077 172.913,132.608 	"/>
	<polyline fill="#231F20" points="185.783,128.139 168.383,123.722 186.818,120.42 184.023,124.528 185.783,128.139 	"/>
	<polygon fill="none" stroke="#FFFFFF" stroke-width="4.4035" stroke-linejoin="round" points="185.783,128.139 168.383,123.722 
		186.818,120.42 184.023,124.528 	"/>
	<polygon fill="none" stroke="#FFFFFF" stroke-width="4.4035" stroke-linejoin="round" points="182.383,126.15 173.395,124.126 
		183.372,122.977 181.711,125.021 	"/>
	<polyline fill="#231F20" points="180.335,101.609 170.313,107.723 176.626,97.981 180.335,101.609 	"/>
	<polygon fill="none" stroke="#FFFFFF" stroke-width="4.4035" stroke-linejoin="round" points="180.335,101.609 170.313,107.723 
		176.626,97.981 	"/>
	<polygon fill="none" stroke="#FFFFFF" stroke-width="4.4035" stroke-linejoin="round" points="178.48,101.575 176.457,99.438 
		173.057,105.207 	"/>
	<path fill="#F0B41C" d="M89.697,41.273c0,1.534-2.432,1.46-3.878,1.46c0,0.475,0,0.968-0.507,0.968c-0.458,0-1.421,0-1.904,0
		c0,1.932-1.954,0.947-2.436,1.932c-0.479,0-0.479,0-0.964,0c0,0.968-0.985,1.443-1.95,1.936c-0.482,1.915-0.482,3.393-0.482,5.328
		c-2.411,0.965-4.34,2.9-6.289,4.854c0,0.964-0.964,1.932-0.964,2.9c-1.929,0-1.446,2.425-2.917,2.9
		c0.482,3.393-1.929,6.296-3.878,9.196c0.507,0.985-0.964,1.46-0.964,2.446c-2.411,0.455-4.847,1.915-7.253,1.915
		c0,0.493,0,0.985-0.507,0.985c-0.458,0-0.458,0-0.94,0c-0.506,0-0.506,0.475-0.506,0.968c-0.458,0-0.458,0-0.965,0
		c-0.964,0.964-1.929,1.932-2.914,2.407c-0.461,0.986-3.712,3.323-3.857,6.423c8.75-9.854,12.723-5.786,24.245-10.949
		c-0.506,2.446-3.928,12.755-3.928,15.183c0.985,0.493,0.985,1.457,0.985,2.425c0.483,0,0.965,0.475,0.965,0.968
		c1.953,0,2.917,0,3.882,1.46c0.482,2.9,0.482,5.325,2.432,7.771c0.965,1.422,0,3.357,0.458,4.818
		c1.471,3.374,1.953,7.26,3.399,10.652c2.914,2.429,4.385,5.804,7.253,8.229c0.989,0,1.953,0,2.938,0.985
		c1.447,0,2.411,0,3.857,0.476c0.482,0.946,1.471,1.932,2.436,2.9c1.443-0.493,2.407,0.492,3.854,0.492
		c1.471,0.968,2.411,2.9,3.882,3.868c0.482,0,0.482,0,0.964,0c0.482,0.492,0.482,0.492,0.964,0.968
		c1.95,0.476,3.878,0.476,5.35,1.461c1.446,0,2.914,0,4.36,0c1.929,1.439,4.339,0.964,6.29,1.439
		c0.482,0.985,1.446,0.985,1.928,1.46c10.172,0.967,19.859,0.967,30.028,0.967c0-0.474,0-0.967,0.988-0.967c0-0.475,0-0.475,0-0.968
		c0.965-0.492,1.446-0.968,1.446-1.932c1.929-6.297,0.964-12.59,0-18.411c-0.481-0.475-0.481-0.475-0.964-0.968
		c0-1.461-1.471-2.406-0.989-3.867c-1.929-2.407-0.481-5.839-0.965-8.721c0.965,0.475,0.965-1.461,1.954-0.969
		c1.928-1.914,3.856-3.885,6.289-4.36c0.482-0.985,0.964-1.932,1.953-2.425c3.856-1.936,7.735-2.429,12.075-2.429
		c1.467-1.932,2.914-3.867,4.843-5.799c1.446-5.821,2.917-12.114,1.446-18.41c-0.964,0-0.458-1.46-1.446-1.46
		c-1.447-5.307-2.411-10.653-4.34-15.981c0.482-2.429-0.503-4.835-0.503-7.26c-2.411-2.904-3.857-6.771-6.775-9.689
		c-2.287-2.298-4.36-4.343-6.771-6.768c0-0.493,0-0.493,0-0.985c-0.965-0.475-1.929-1.443-2.915-2.411
		c-1.446-0.493-2.893-0.493-4.339-1.439c-12.603-0.968-25.209-0.968-37.788-0.968c-0.482,0.457-1.447,0.968-1.954,1.442
		c-6.771,1.439-14.049,0-20.82,0.472c0,0.493-0.482,0.968-0.964,0.968c-0.507,2.921-0.507,5.346-0.507,8.246
		C89.697,37.881,89.697,39.816,89.697,41.273"/>
	<path fill="none" stroke="#FFFFFF" stroke-width="4.4035" stroke-linejoin="round" d="M89.697,41.273
		c0,1.534-2.432,1.46-3.878,1.46c0,0.475,0,0.968-0.507,0.968c-0.458,0-1.421,0-1.904,0c0,1.932-1.954,0.947-2.436,1.932
		c-0.479,0-0.479,0-0.964,0c0,0.968-0.985,1.443-1.95,1.936c-0.482,1.915-0.482,3.393-0.482,5.328
		c-2.411,0.965-4.34,2.9-6.289,4.854c0,0.964-0.964,1.932-0.964,2.9c-1.929,0-1.446,2.425-2.917,2.9
		c0.482,3.393-1.929,6.296-3.878,9.196c0.507,0.985-0.964,1.46-0.964,2.446c-2.411,0.455-4.847,1.915-7.253,1.915
		c0,0.493,0,0.985-0.507,0.985c-0.458,0-0.458,0-0.94,0c-0.506,0-0.506,0.475-0.506,0.968c-0.458,0-0.458,0-0.965,0
		c-0.964,0.964-1.929,1.932-2.914,2.407c-0.461,0.986-3.712,3.323-3.857,6.423c8.75-9.854,12.723-5.786,24.245-10.949
		c-0.506,2.446-3.928,12.755-3.928,15.183c0.985,0.493,0.985,1.457,0.985,2.425c0.483,0,0.965,0.475,0.965,0.968
		c1.953,0,2.917,0,3.882,1.46c0.482,2.9,0.482,5.325,2.432,7.771c0.965,1.422,0,3.357,0.458,4.818
		c1.471,3.374,1.953,7.26,3.399,10.652c2.914,2.429,4.385,5.804,7.253,8.229c0.989,0,1.953,0,2.938,0.985
		c1.447,0,2.411,0,3.857,0.476c0.482,0.946,1.471,1.932,2.436,2.9c1.443-0.493,2.407,0.492,3.854,0.492
		c1.471,0.968,2.411,2.9,3.882,3.868c0.482,0,0.482,0,0.964,0c0.482,0.492,0.482,0.492,0.964,0.968
		c1.95,0.476,3.878,0.476,5.35,1.461c1.446,0,2.914,0,4.36,0c1.929,1.439,4.339,0.964,6.29,1.439
		c0.482,0.985,1.446,0.985,1.928,1.46c10.172,0.967,19.859,0.967,30.028,0.967c0-0.474,0-0.967,0.988-0.967c0-0.475,0-0.475,0-0.968
		c0.965-0.492,1.446-0.968,1.446-1.932c1.929-6.297,0.964-12.59,0-18.411c-0.481-0.475-0.481-0.475-0.964-0.968
		c0-1.461-1.471-2.406-0.989-3.867c-1.929-2.407-0.481-5.839-0.965-8.721c0.965,0.475,0.965-1.461,1.954-0.969
		c1.928-1.914,3.856-3.885,6.289-4.36c0.482-0.985,0.964-1.932,1.953-2.425c3.856-1.936,7.735-2.429,12.075-2.429
		c1.467-1.932,2.914-3.867,4.843-5.799c1.446-5.821,2.917-12.114,1.446-18.41c-0.964,0-0.458-1.46-1.446-1.46
		c-1.447-5.307-2.411-10.653-4.34-15.981c0.482-2.429-0.503-4.835-0.503-7.26c-2.411-2.904-3.857-6.771-6.775-9.689
		c-2.287-2.298-4.36-4.343-6.771-6.768c0-0.493,0-0.493,0-0.985c-0.965-0.475-1.929-1.443-2.915-2.411
		c-1.446-0.493-2.893-0.493-4.339-1.439c-12.603-0.968-25.209-0.968-37.788-0.968c-0.482,0.457-1.447,0.968-1.954,1.442
		c-6.771,1.439-14.049,0-20.82,0.472c0,0.493-0.482,0.968-0.964,0.968c-0.507,2.921-0.507,5.346-0.507,8.246
		C89.697,37.881,89.697,39.816,89.697,41.273z"/>
	<path fill="#231F20" d="M164.913,102.944c0,0-12.896,6.457-9.352,20.341l-2.579,3.886c0,0-3.544-6.785-3.228-12.916
		c0.313-6.148-8.099-17.115-8.099-17.115h18.749l4.846,0.659L164.913,102.944"/>
	<path fill="none" stroke="#FFFFFF" stroke-width="4.4035" stroke-linejoin="round" d="M164.913,102.944
		c0,0-12.896,6.457-9.352,20.341l-2.579,3.886c0,0-3.544-6.785-3.228-12.916c0.313-6.148-8.099-17.115-8.099-17.115h18.749
		l4.846,0.659L164.913,102.944z"/>
	<path fill="#231F20" d="M81.841,57.642c0,0-20.243,23.443-14.869,43.475l4.941-1.295c0,0-7.303,20.014,19.593,36.162l2.601-2.792
		c0,0,4.723,6.022,13.761,7.317c0,0-13.543-11.844-14.194-16.565l-4.529,3.85c0,0-17.425-10.967-8.605-38.956l-5.592,0.859
		C74.947,89.697,75.358,70.34,81.841,57.642"/>
	<path fill="none" stroke="#FFFFFF" stroke-width="4.4035" stroke-linejoin="round" d="M81.841,57.642
		c0,0-20.243,23.443-14.869,43.475l4.941-1.295c0,0-7.303,20.014,19.593,36.162l2.601-2.792c0,0,4.723,6.022,13.761,7.317
		c0,0-13.543-11.844-14.194-16.565l-4.529,3.85c0,0-17.425-10.967-8.605-38.956l-5.592,0.859
		C74.947,89.697,75.358,70.34,81.841,57.642z"/>
	<path fill="none" stroke="#FFFFFF" stroke-width="4.4035" stroke-linejoin="round" d="M45.377,88.419
		c0,0-4.674-5.599,16.439-17.224c0,0-1.953-1.949-3.23-1.949c0,0,1.083-5.163,11.424-12.044l-2.386-1.713
		c0,0,3.664-11.843,20.676-16.788c0,0-4.314-14.412,6.434-18.097c0,0,6.05,0.436,9.907,2.59c3.878,2.154,9.277,3.21,9.277,3.21
		s3.857-5.145,19.159-1.714c0,0,6.871,1.714,16.123-0.401c9.277-2.171,14.219,9.889,14.63,11.167c0,0,9.277,7.095,10.579,13.134
		c0,0,4.505,10.548,3.013,14.194c0,0,3.639,5.385,3.639,7.334c0,0,6.022,3.213,1.735,12.261c0,0,10.748-3.209,16.361-1.496
		c0,0-11.205,0.641-16.798,4.308c0,0,7.979-1.936,14.197,0.637c0,0-6.025-1.496-15.714,3.009c0,0,9.063,0.658,11.424,1.299
		c0,0-8.411-0.204-14.003,4.086c0,0-1.493,3.448-4.724,4.962c0,0-3.227,11.622-12.483,14.834c0,0,3.445-10.948,2.58-14.633
		l-5.159,3.685l-2.387-3.467l-4.938,2.591c0,0-2.361-2.154-2.58-3.668c0,0-4.529,0.859-6.458,1.735c0,0-2.167-2.372-2.167-3.23
		c0,0-4.728,6.897-4.076,13.556c0,0-6.025-3.448-7.324-17.441c0,0-13.278,0.253-11.835,14.211
		c0.845,8.394,10.966,17.425,10.966,17.425s0.434-6.022,6.895-11.402c0,0,0.434,10.783,2.601,14.415l4.483-3.432l3.686,4.086
		l3.449-3.667l3.013,3.467c0,0,6-6.458,6.239-10.143c0,0,2.794,8.189-1.953,14.45c0,0,4.315,6,0.651,11.181l-6.891,2.154v-1.731
		c0,0-6.652,2.39-9.038,4.963l-0.193-3.231c0,0-6.047-1.932-10.337-1.077c-4.314,0.858-11.424-2.59-10.991-5.163
		c0,0,5.16,3.998,10.967,2.499c5.807-1.514,16.361-0.346,16.361-0.346v1.06c0,0,10.34-3.213,7.327-8.358
		c0,0-31.86,6.223-39.403-21.764c-7.518-27.972,19.811-25.417,22.391-24.34c2.601,1.095,20.869,7.771,24.748,2.154
		c0,0-4.798-6.532,0.218-9.889c3.902-2.573-4.097-3.65-4.097-3.65s-2.798-1.095-2.146-5.381c0,0,6.895,1.056,9.47-0.44
		c2.604-1.513,4.967,1.496,5.812,1.496c0.865,0,5.831,0.44,4.312-3.445c-1.493-3.85-10.749-10.53-17.207-10.33
		c0,0,9.471-1.714,16.365,3.667l-1.302-5.381c0,0-2.58,3.868-7.304,2.573c-4.747-1.277-1.083-6.24,3.64-7.954
		c0,0-5.613-2.59-7.76,6.895c0,0-13.35-3.446-18.075-0.855c0,0,1.302,4.086,6.675,3.009c5.375-1.095,13.136,3.868,13.136,3.868
		s-13.136-3.667-17.45,1.735c0,0,9.256-1.077,11.643,3.209c0,0-10.341-2.791-14.654,0.437c0,0,6.895,1.517,7.326,5.803
		c0,0-10.097-6.021-19.592-1.914c-9.446,4.086-14.412-2.591-14.412-2.591s9.038,5.6,18.293-4.526l-0.869,3.667
		c0,0,5.614-2.59,6.676-6.039c0,0-17.881,6.039-11.617-6.458c0,0-5.181,1.077-7.324,3.227c-2.147,2.154-10.558,7.958-13.134,0.222
		c0,0,3.012,3.009,8.168-0.641c5.181-3.667,6.05-3.667,6.05-3.667s-3.449-3.885-10.097,0.659c0,0,0-3.667,5.782-4.963
		c0,0-1.929-3.23-4.097-3.23c0,0,4.748-2.154,6.891,1.936c2.172,4.086,6.169,3.646,7.545,2.59
		c3.878-3.065,10.555-1.077,12.698,1.496c0,0-4.072-10.107-12.265-7.735c0,0-4.748,1.277-6.677,0.855c0,0,4.724-2.591,6.891-3.428
		c2.147-0.876,5.378,0.401,5.378,0.401s-3.882-6.88-12.05-4.069c-8.172,2.791-6.677-3.23-6.677-3.23s2.143,3.868,7.954,1.06
		c5.832-2.792,13.373,0.218,18.508,11.86c0,0,2.169,6.24,11.445,4.286c0,0-1.517-3.868-4.748-4.086l2.362-1.717
		c0,0-5.832,0.422-10.988-6.676c0,0,6.025,2.791,9.253,1.714c3.23-1.056-6.434-5.821-10.963-6.021c0,0,3.879-3.646,6.673-2.809
		c0,0-9.471-6-15.496-3.228c0,0-4.962-3.85-13.567-1.935c0,0-7.542,6.239-9.904,5.163c-2.386-1.06-0.218,0.658-0.218,0.658
		s8.629,10.326,14.655,8.412c0,0-8.629,7.954-18.1-8.193c0,0-4.315-4.326-9.471-3.009c0,0,0.218,9.249,6.025,11.822
		c0,0-6.87,2.59-9.664-1.478c0,0-7.566,3.449-8.844,6.004l2.794,1.513c0,0-12.702,10.544-13.35,13.775l3.47,0.218
		c0,0-4.796,11.259-16.39,12.423C48.682,79.114,45.377,88.419,45.377,88.419z M178.022,80.5c3.614,3.649-9.471,10.748-9.545,11.311
		c-0.338,2.245,5.474,3.065,5.474,3.065C182.866,87.289,178.022,80.5,178.022,80.5z M160.887,53.7c0,0,5.663-10.326,11.305-5.001
		c0,0-8.074-10.653-14.531-3.227c0,0,4.674-1.295,5.976,0.162C163.636,45.634,159.103,45.947,160.887,53.7z M161.056,37.243
		c-4.674-0.165-6,4.998-6,4.998c5.493-4.998,13.76,0,13.76,0S165.732,37.405,161.056,37.243z M148.959,35.456
		c0.627,1.129,3.517,4.195,5.47,1.622s6.458-1.77,6.458-1.77C157.009,29.015,148.309,34.34,148.959,35.456z M142.646,28.685
		c-5.304-1.295-11.16,0.641-11.16,0.641c5.325-0.951,10.992,3.227,14.557,2.425c3.544-0.82,5.47-2.425,5.47-2.425
		C150.382,30.292,147.995,29.962,142.646,28.685z"/>
	<path fill="#231F20" d="M164.6,123.269c0.458-0.258,0.891-0.528,1.277-0.768c25.618-15.307,59.623-33.716,69.575-45.738
		c9.928-12.043,0.507-54.772,0.507-54.772c-11.522,2.534-32.97,17.935-32.97,17.935l6.652,13.264
		c11.927,27.22-12.122,38.897-12.122,38.897l-41.524,23.629l-3.978,2.098l6.314,0.584l-5.688,5.089l9.302-2.372l-2.168,4.963
		L164.6,123.269"/>
	<path fill="#F4812A" d="M207.061,39.651l2.845,5.438l25.328-12.205l-2.435-7.152C232.799,25.731,210.989,36.258,207.061,39.651"/>
	<path fill="#F4812A" d="M163.055,121.132c9.305-5.455,15.162-8.922,15.546-9.104c12.12-6.293,45.667-28.497,49.284-33.258
		c3.59-4.762,7.856-11.385,7.181-19.378l-17.978,7.535c0,0,2.938,16.749-24.196,31.017c-6.145,3.249-18.751,10.291-34.535,19.251
		l3.47-0.584l-5.567,5.181l7.641-2.39L163.055,121.132"/>
	<polyline fill="#FFFFFF" points="216.846,62.439 230.247,53.683 216.148,59.046 216.846,62.439 	"/>
	<polyline fill="#FFFFFF" points="215.593,56.548 225.569,50.325 214.652,54.52 215.593,56.548 	"/>
	<polyline fill="#FFFFFF" points="213.737,51.874 225.401,43.353 212.076,48.372 213.737,51.874 	"/>
	<polyline fill="#231F20" points="174.891,136.951 163.128,127.41 178.601,129.525 174.891,132.848 174.891,136.951 	"/>
	<polyline fill="#F4812A" points="173.032,133.96 166.838,129.29 174.986,131.077 172.913,132.608 173.032,133.96 	"/>
	<polyline fill="#231F20" points="185.783,128.139 168.383,123.722 186.818,120.42 184.023,124.528 185.783,128.139 	"/>
	<polyline fill="#F4812A" points="182.383,126.15 173.395,124.126 183.372,122.977 181.711,125.021 182.383,126.15 	"/>
	<polyline fill="#231F20" points="180.335,101.609 170.313,107.723 176.626,97.981 180.335,101.609 	"/>
	<polyline fill="#F4812A" points="178.48,101.575 176.457,99.438 173.057,105.207 178.48,101.575 	"/>
	<path fill="#FCB827" d="M89.697,41.273c0,1.534-2.432,1.46-3.878,1.46c0,0.475,0,0.968-0.507,0.968c-0.458,0-1.421,0-1.904,0
		c0,1.932-1.954,0.947-2.436,1.932c-0.479,0-0.479,0-0.964,0c0,0.968-0.985,1.443-1.95,1.936c-0.482,1.915-0.482,3.393-0.482,5.328
		c-2.411,0.965-4.34,2.9-6.289,4.854c0,0.964-0.964,1.932-0.964,2.9c-1.929,0-1.446,2.425-2.917,2.9
		c0.482,3.393-1.929,6.296-3.878,9.196c0.507,0.985-0.964,1.46-0.964,2.446c-2.411,0.455-4.847,1.915-7.253,1.915
		c0,0.493,0,0.985-0.507,0.985c-0.458,0-0.458,0-0.94,0c-0.506,0-0.506,0.475-0.506,0.968c-0.458,0-0.458,0-0.965,0
		c-0.964,0.964-1.929,1.932-2.914,2.407c-0.461,0.986-3.712,3.323-3.857,6.423c8.75-9.854,12.723-5.786,24.245-10.949
		c-0.506,2.446-3.928,12.755-3.928,15.183c0.985,0.493,0.985,1.457,0.985,2.425c0.483,0,0.965,0.475,0.965,0.968
		c1.953,0,2.917,0,3.882,1.46c0.482,2.9,0.482,5.325,2.432,7.771c0.965,1.422,0,3.357,0.458,4.818
		c1.471,3.374,1.953,7.26,3.399,10.652c2.914,2.429,4.385,5.804,7.253,8.229c0.989,0,1.953,0,2.938,0.985
		c1.447,0,2.411,0,3.857,0.476c0.482,0.946,1.471,1.932,2.436,2.9c1.443-0.493,2.407,0.492,3.854,0.492
		c1.471,0.968,2.411,2.9,3.882,3.868c0.482,0,0.482,0,0.964,0c0.482,0.492,0.482,0.492,0.964,0.968
		c1.95,0.476,3.878,0.476,5.35,1.461c1.446,0,2.914,0,4.36,0c1.929,1.439,4.339,0.964,6.29,1.439
		c0.482,0.985,1.446,0.985,1.928,1.46c10.172,0.967,19.859,0.967,30.028,0.967c0-0.474,0-0.967,0.988-0.967c0-0.475,0-0.475,0-0.968
		c0.965-0.492,1.446-0.968,1.446-1.932c1.929-6.297,0.964-12.59,0-18.411c-0.481-0.475-0.481-0.475-0.964-0.968
		c0-1.461-1.471-2.406-0.989-3.867c-1.929-2.407-0.481-5.839-0.965-8.721c0.965,0.475,0.965-1.461,1.954-0.969
		c1.928-1.914,3.856-3.885,6.289-4.36c0.482-0.985,0.964-1.932,1.953-2.425c3.856-1.936,7.735-2.429,12.075-2.429
		c1.467-1.932,2.914-3.867,4.843-5.799c1.446-5.821,2.917-12.114,1.446-18.41c-0.964,0-0.458-1.46-1.446-1.46
		c-1.447-5.307-2.411-10.653-4.34-15.981c0.482-2.429-0.503-4.835-0.503-7.26c-2.411-2.904-3.857-6.771-6.775-9.689
		c-2.287-2.298-4.36-4.343-6.771-6.768c0-0.493,0-0.493,0-0.985c-0.965-0.475-1.929-1.443-2.915-2.411
		c-1.446-0.493-2.893-0.493-4.339-1.439c-12.603-0.968-25.209-0.968-37.788-0.968c-0.482,0.457-1.447,0.968-1.954,1.442
		c-6.771,1.439-14.049,0-20.82,0.472c0,0.493-0.482,0.968-0.964,0.968c-0.507,2.921-0.507,5.346-0.507,8.246
		C89.697,37.881,89.697,39.816,89.697,41.273"/>
	<path fill="#EC1C2E" d="M126.186,125.876c-1.302-0.327-1.615-1.932-3.23-2.264c0-1.312-1.302-1.932-1.302-3.227
		c-1.615-1.937-2.58-3.868-3.541-6.131c-1.64-4.526-2.917-9.048-2.604-13.884c0.676-0.985,0.676-2.263,0.676-3.231
		c0.289-0.968,1.277-1.313,1.929-2.263c0.651,0.331,0.961-0.327,1.612-0.327c0-0.327,0-0.637,0.313-0.637
		c0.964,0.31,1.302-0.967,1.953-0.658c0.313-0.31,0.313-0.31,0.626-0.637c0.651-0.331,1.302,0,1.615-0.641
		c5.181,0.31,10.34-0.658,15.521,0.641c2.241,0.964,4.818,1.605,7.398,1.932c-0.313,0.658,0.65,0,0.65,0.658
		c1.303-0.331,2.58,0.31,3.565,0.964c0.313,0,0.65,0,0.964,0c0.313,0.968,0,2.263,0.989,3.214c0.939,8.08,0,15.837,0,23.899
		c0.626,0.659,0.313,1.604,1.277,2.264c0,1.932,0,3.885,0,5.8c-0.964,0-1.953,0.33-2.918,0.968c-4.842,0-9.372,0.31-14.193-0.328
		c-0.989-0.64-1.953-1.259-2.914-1.259c-0.316-0.654-0.988-0.654-1.302-0.986c-1.277,0-2.58-0.968-3.857-0.968
		c0.313-0.637-0.651-0.327-0.651-0.981c-0.65,0-0.65-1.277-1.615-0.95"/>
	<path fill="#231F20" d="M164.913,102.944c0,0-12.896,6.457-9.352,20.341l-2.579,3.886c0,0-3.544-6.785-3.228-12.916
		c0.313-6.148-8.099-17.115-8.099-17.115h18.749l4.846,0.659L164.913,102.944"/>
	<path fill="#F4812A" d="M103.964,47.678c0,0-16.147,3.65-16.988,15.729l4.505,0.401c0,0-9.039,11.42-5.592,23.263l4.075-0.876
		c0,0-13.546,23.9,3.227,34.445l2.604-3.01c0,0,0.841,4.727,10.963,10.344l5.592-3.668c0,0,3.664,4.526,8.629,7.519
		c0,0-3.23-10.527-9.256-13.135l-4.748,3.667c0,0-9.038-6.022-8.193-16.147c0,0-6.651,1.95-7.521,3.886
		c0,0-2.576-18.301,6.677-28.408l-7.542,1.06c0,0-1.302-14.617,8.626-22.588h-6.046C92.977,60.158,93.625,52.624,103.964,47.678"/>
	<path fill="#F4812A" d="M83.288,58.004c0,0-20.218,23.463-14.845,43.479l4.962-1.278c0,0-7.324,19.997,19.571,36.145l2.576-2.79
		c0,0,4.748,6.018,13.81,7.333c0,0-13.567-11.86-14.243-16.587l-4.505,3.868c0,0-17.425-10.98-8.605-38.988l-5.592,0.895
		C76.418,90.081,76.854,70.685,83.288,58.004"/>
	<path fill="#F4812A" d="M106.351,58.863c0,0-9.496,6.022-6.05,23.243l4.315-1.932c0,0-3.878,7.971-1.496,17.005l2.773-1.735
		c0,0-2.773,11.42,5.375,18.737c0,0-6.219-10.107,0.891-26.254l-5.614,1.514c0,0-0.193-10.143,4.963-16.802l-6.047,1.513
		C105.46,74.151,102.229,68.971,106.351,58.863"/>
	<path fill="#231F20" d="M102.493,47.313c0,0-16.147,3.65-16.988,15.71l4.505,0.419c0,0-9.038,11.403-5.589,23.263l4.072-0.876
		c0,0-13.546,23.9,3.252,34.448l2.58-3.013c0,0,0.845,4.744,10.966,10.329l5.589-3.648c0,0,3.664,4.504,8.629,7.534
		c0,0-3.23-10.547-9.281-13.138l-4.723,3.667c0,0-9.038-6.039-8.168-16.146c0,0-6.676,1.936-7.567,3.867
		c0,0-2.555-18.297,6.698-28.387l-7.542,1.038c0,0-1.277-14.63,8.63-22.605h-6.05C91.506,59.774,92.157,52.257,102.493,47.313"/>
	<path fill="#231F20" d="M81.841,57.642c0,0-20.243,23.443-14.869,43.475l4.941-1.295c0,0-7.303,20.014,19.593,36.162l2.601-2.792
		c0,0,4.723,6.022,13.761,7.317c0,0-13.543-11.844-14.194-16.565l-4.529,3.85c0,0-17.425-10.967-8.605-38.956l-5.592,0.859
		C74.947,89.697,75.358,70.34,81.841,57.642"/>
	<path fill="#231F20" d="M104.855,58.497c0,0-9.471,6.022-6.025,23.246l4.314-1.936c0,0-3.878,7.958-1.492,17.007l2.77-1.736
		c0,0-2.77,11.423,5.374,18.738c0,0-6.215-10.126,0.869-26.272l-5.592,1.534c0,0-0.218-10.146,4.966-16.805l-6.05,1.517
		C103.989,73.789,100.783,68.622,104.855,58.497"/>
	<path fill="#FFFFFF" d="M140.017,76.724c0,0-13.472-3.959-29.137,3.924c0,0,18.364-6.497,28.897-1.971L140.017,76.724"/>
	<path fill="#FFFFFF" d="M137.223,83.823c0,0-21.014-2.245-27.258,14.12c0,0,8.943-15.196,27.258-12.388
		C137.223,85.554,137.849,84.276,137.223,83.823"/>
	<path fill="#FFFFFF" d="M146.476,82.105c0,0-11.688-6.729-37.644,3.815c0,0,27.739-8.338,36.559-2.298L146.476,82.105"/>
	<path fill="#231F20" d="M45.377,88.419c0,0-4.674-5.599,16.439-17.224c0,0-1.953-1.949-3.23-1.949c0,0,1.083-5.163,11.424-12.044
		l-2.386-1.713c0,0,3.664-11.843,20.676-16.788c0,0-4.314-14.412,6.434-18.097c0,0,6.05,0.436,9.907,2.59
		c3.878,2.154,9.277,3.21,9.277,3.21s3.857-5.145,19.159-1.714c0,0,6.871,1.714,16.123-0.401c9.277-2.171,14.219,9.889,14.63,11.167
		c0,0,9.277,7.095,10.579,13.134c0,0,4.505,10.548,3.013,14.194c0,0,3.639,5.385,3.639,7.334c0,0,6.022,3.213,1.735,12.261
		c0,0,10.748-3.209,16.361-1.496c0,0-11.205,0.641-16.798,4.308c0,0,7.979-1.936,14.197,0.637c0,0-6.025-1.496-15.714,3.009
		c0,0,9.063,0.658,11.424,1.299c0,0-8.411-0.204-14.003,4.086c0,0-1.493,3.448-4.724,4.962c0,0-3.227,11.622-12.483,14.834
		c0,0,3.445-10.948,2.58-14.633l-5.159,3.685l-2.387-3.467l-4.938,2.591c0,0-2.361-2.154-2.58-3.668c0,0-4.529,0.859-6.458,1.735
		c0,0-2.167-2.372-2.167-3.23c0,0-4.728,6.897-4.076,13.556c0,0-6.025-3.448-7.324-17.441c0,0-13.278,0.253-11.835,14.211
		c0.845,8.394,10.966,17.425,10.966,17.425s0.434-6.022,6.895-11.402c0,0,0.434,10.783,2.601,14.415l4.483-3.432l3.686,4.086
		l3.449-3.667l3.013,3.467c0,0,6-6.458,6.239-10.143c0,0,2.794,8.189-1.953,14.45c0,0,4.315,6,0.651,11.181l-6.891,2.154v-1.731
		c0,0-6.652,2.39-9.038,4.963l-0.193-3.231c0,0-6.047-1.932-10.337-1.077c-4.314,0.858-11.424-2.59-10.991-5.163
		c0,0,5.16,3.998,10.967,2.499c5.807-1.514,16.361-0.346,16.361-0.346v1.06c0,0,10.34-3.213,7.327-8.358
		c0,0-31.86,6.223-39.403-21.764c-7.518-27.972,19.811-25.417,22.391-24.34c2.601,1.095,20.869,7.771,24.748,2.154
		c0,0-4.798-6.532,0.218-9.889c3.902-2.573-4.097-3.65-4.097-3.65s-2.798-1.095-2.146-5.381c0,0,6.895,1.056,9.47-0.44
		c2.604-1.513,4.967,1.496,5.812,1.496c0.865,0,5.831,0.44,4.312-3.445c-1.493-3.85-10.749-10.53-17.207-10.33
		c0,0,9.471-1.714,16.365,3.667l-1.302-5.381c0,0-2.58,3.868-7.304,2.573c-4.747-1.277-1.083-6.24,3.64-7.954
		c0,0-5.613-2.59-7.76,6.895c0,0-13.35-3.446-18.075-0.855c0,0,1.302,4.086,6.675,3.009c5.375-1.095,13.136,3.868,13.136,3.868
		s-13.136-3.667-17.45,1.735c0,0,9.256-1.077,11.643,3.209c0,0-10.341-2.791-14.654,0.437c0,0,6.895,1.517,7.326,5.803
		c0,0-10.097-6.021-19.592-1.914c-9.446,4.086-14.412-2.591-14.412-2.591s9.038,5.6,18.293-4.526l-0.869,3.667
		c0,0,5.614-2.59,6.676-6.039c0,0-17.881,6.039-11.617-6.458c0,0-5.181,1.077-7.324,3.227c-2.147,2.154-10.558,7.958-13.134,0.222
		c0,0,3.012,3.009,8.168-0.641c5.181-3.667,6.05-3.667,6.05-3.667s-3.449-3.885-10.097,0.659c0,0,0-3.667,5.782-4.963
		c0,0-1.929-3.23-4.097-3.23c0,0,4.748-2.154,6.891,1.936c2.172,4.086,6.169,3.646,7.545,2.59
		c3.878-3.065,10.555-1.077,12.698,1.496c0,0-4.072-10.107-12.265-7.735c0,0-4.748,1.277-6.677,0.855c0,0,4.724-2.591,6.891-3.428
		c2.147-0.876,5.378,0.401,5.378,0.401s-3.882-6.88-12.05-4.069c-8.172,2.791-6.677-3.23-6.677-3.23s2.143,3.868,7.954,1.06
		c5.832-2.792,13.373,0.218,18.508,11.86c0,0,2.169,6.24,11.445,4.286c0,0-1.517-3.868-4.748-4.086l2.362-1.717
		c0,0-5.832,0.422-10.988-6.676c0,0,6.025,2.791,9.253,1.714c3.23-1.056-6.434-5.821-10.963-6.021c0,0,3.879-3.646,6.673-2.809
		c0,0-9.471-6-15.496-3.228c0,0-4.962-3.85-13.567-1.935c0,0-7.542,6.239-9.904,5.163c-2.386-1.06-0.218,0.658-0.218,0.658
		s8.629,10.326,14.655,8.412c0,0-8.629,7.954-18.1-8.193c0,0-4.315-4.326-9.471-3.009c0,0,0.218,9.249,6.025,11.822
		c0,0-6.87,2.59-9.664-1.478c0,0-7.566,3.449-8.844,6.004l2.794,1.513c0,0-12.702,10.544-13.35,13.775l3.47,0.218
		c0,0-4.796,11.259-16.39,12.423C48.682,79.114,45.377,88.419,45.377,88.419 M178.022,80.5c3.614,3.649-9.471,10.748-9.545,11.311
		c-0.338,2.245,5.474,3.065,5.474,3.065C182.866,87.289,178.022,80.5,178.022,80.5z M160.887,53.7c0,0,5.663-10.326,11.305-5.001
		c0,0-8.074-10.653-14.531-3.227c0,0,4.674-1.295,5.976,0.162C163.636,45.634,159.103,45.947,160.887,53.7z M161.056,37.243
		c-4.674-0.165-6,4.998-6,4.998c5.493-4.998,13.76,0,13.76,0S165.732,37.405,161.056,37.243z M148.959,35.456
		c0.627,1.129,3.517,4.195,5.47,1.622s6.458-1.77,6.458-1.77C157.009,29.015,148.309,34.34,148.959,35.456z M142.646,28.685
		c-5.304-1.295-11.16,0.641-11.16,0.641c5.325-0.951,10.992,3.227,14.557,2.425c3.544-0.82,5.47-2.425,5.47-2.425
		C150.382,30.292,147.995,29.962,142.646,28.685z"/>
	<path fill="#FFFFFF" d="M139.151,60.887l1.565,2.01c-15.833,4.723-10.001-4.674-10.001-4.674S133.464,53.189,139.151,60.887"/>
	<path fill="#FFFFFF" d="M170.045,54.886c0,0,1.396-0.418,2.002,1.549c0,0-4.701,4.744-6.482,0.932l1.348-0.802
		C166.912,56.565,167.827,55.087,170.045,54.886"/>
	<path fill="#231F20" d="M146.211,128.448c0,0-4.578-3.776-7.422-18.72c0,0,0.119,9.306,5.131,19.54L146.211,128.448"/>
	<path fill="#FFFFFF" d="M131.147,93.804c0,0,0,6.895,2.556,11.403c0,0,1.954-6.898,3.688-9.035L131.147,93.804"/>
	<path fill="#FFFFFF" d="M165.997,100.262c0,0-1.084,8.189-1.928,9.907c0,0,6.073-7.5,6.243-10.565
		C170.313,99.604,166.862,100.262,165.997,100.262"/>
	<polyline fill="#FFFFFF" points="158.139,99.386 159.103,101.025 161.683,99.551 158.139,99.386 	"/>
	<polyline fill="#FFFFFF" points="154.116,99.386 151.367,100.846 149.899,98.745 154.116,99.386 	"/>
	<polyline fill="#FFFFFF" points="146.524,97.942 142.478,99.076 141.656,97.14 146.524,97.942 	"/>
	<path fill="#FFFFFF" d="M132.788,118.288c0,0-4.002,4.159-2.53,9.65c0,0,10.048,10.199,24.559,3.484c0,0,3.058-4.836,2.36-7.169
		c0,0-3.23,4.05-5.665,5.965l-2.721-2.738l-4.509,3.559l-2.432-3.559l-4.87,2.263C136.98,129.743,131.849,126.023,132.788,118.288"
		/>
	<path fill="#231F20" d="M135.463,55.762c0,0-3.64,3.667-1.277,9.358C134.186,65.121,138.042,61.636,135.463,55.762"/>
	<path fill="#231F20" d="M168.115,54.647c0,0-0.721,2.573,1.278,4.234c0,0,0.749-3.484-1.108-4.962
		C166.479,52.458,168.115,54.647,168.115,54.647"/>
	<path fill="#231F20" d="M139.102,76.358c0,0-13.472-3.956-29.137,3.924c0,0,18.364-6.494,28.919-1.989L139.102,76.358"/>
	<path fill="#231F20" d="M136.283,83.457c0,0-20.993-2.246-27.233,14.123c0,0,8.939-15.2,27.233-12.387
		C136.283,85.192,136.935,83.915,136.283,83.457"/>
	<path fill="#231F20" d="M145.535,81.743c0,0-11.663-6.715-37.594,3.812c0,0,27.716-8.337,36.535-2.298L145.535,81.743"/>
	<path fill="#FCB827" d="M111.461,28.793c0,0-5.906,7.718-11.016-0.38l-3.664-5.128C96.781,23.286,105.193,28.083,111.461,28.793"/>
	<path fill="#231F20" d="M119.242,106.772L16.289,46.348L10,57.786c0,0,58.95,33.716,104.399,59.607l4.699,2.645l-2.119-5.237
		l7.324,1.442l-4.818-4.762l7.662,0.109L119.242,106.772"/>
	<path fill="none" stroke="#FFFFFF" stroke-width="2.2017" stroke-linejoin="round" d="M119.242,106.772L16.289,46.348L10,57.786
		c0,0,58.95,33.716,104.399,59.607l4.699,2.645l-2.119-5.237l7.324,1.442l-4.818-4.762l7.662,0.109L119.242,106.772z"/>
	<path fill="#F0B41C" d="M118.208,109.109C69.766,80.94,17.81,51.019,17.81,51.019l-4.097,6.331c0,0,55.525,31.418,101.77,57.634
		l-2.143-2.809l8.313,2.407l-4.892-3.85l4.121-0.071L118.208,109.109"/>
	<path fill="none" stroke="#FFFFFF" stroke-width="2.2017" stroke-linejoin="round" d="M118.208,109.109
		C69.766,80.94,17.81,51.019,17.81,51.019l-4.097,6.331c0,0,55.525,31.418,101.77,57.634l-2.143-2.809l8.313,2.407l-4.892-3.85
		l4.121-0.071L118.208,109.109z"/>
	<polyline fill="#231F20" points="17.711,49.357 13.157,57.385 38.124,73.222 43.956,63.333 17.711,49.357 	"/>
	<polygon fill="none" stroke="#FFFFFF" stroke-width="2.2017" stroke-linejoin="round" points="17.711,49.357 13.157,57.385 
		38.124,73.222 43.956,63.333 	"/>
	<polyline fill="#FFFFFF" points="26.052,54.211 23.398,61.654 29.135,56.143 26.052,54.211 	"/>
	<polygon fill="none" stroke="#FFFFFF" stroke-width="2.2017" stroke-linejoin="round" points="26.052,54.211 23.398,61.654 
		29.135,56.143 	"/>
	<polyline fill="#FFFFFF" points="31.208,57.529 28.558,64.955 34.294,59.465 31.208,57.529 	"/>
	<polygon fill="none" stroke="#FFFFFF" stroke-width="2.2017" stroke-linejoin="round" points="31.208,57.529 28.558,64.955 
		34.294,59.465 	"/>
	<polyline fill="#FFFFFF" points="36.367,60.834 33.714,68.277 39.451,62.784 36.367,60.834 	"/>
	<polygon fill="none" stroke="#FFFFFF" stroke-width="2.2017" stroke-linejoin="round" points="36.367,60.834 33.714,68.277 
		39.451,62.784 	"/>
	<polyline fill="#231F20" points="122.592,90.918 126.33,105.551 115.146,94.624 120.111,94.223 122.592,90.918 	"/>
	<polygon fill="none" stroke="#FFFFFF" stroke-width="2.2017" stroke-linejoin="round" points="122.592,90.918 126.33,105.551 
		115.146,94.624 120.111,94.223 	"/>
	<polygon fill="none" stroke="#FFFFFF" stroke-width="2.2017" stroke-linejoin="round" points="122.279,94.405 124.451,101.831 
		118.978,95.553 121.558,95.553 	"/>
	<polyline fill="#231F20" points="115.269,126.26 127.533,118.891 119.773,130.747 115.269,126.26 	"/>
	<polygon fill="none" stroke="#FFFFFF" stroke-width="2.2017" stroke-linejoin="round" points="115.269,126.26 127.533,118.891 
		119.773,130.747 	"/>
	<polygon fill="none" stroke="#FFFFFF" stroke-width="2.2017" stroke-linejoin="round" points="117.532,126.333 119.992,128.958 
		124.134,121.934 	"/>
	<path fill="#231F20" d="M119.242,106.772L16.289,46.348L10,57.786c0,0,58.95,33.716,104.399,59.607l4.699,2.645l-2.119-5.237
		l7.324,1.442l-4.818-4.762l7.662,0.109L119.242,106.772"/>
	<path fill="#F4812A" d="M118.208,109.109C69.766,80.94,17.81,51.019,17.81,51.019l-4.097,6.331c0,0,55.525,31.418,101.77,57.634
		l-2.143-2.809l8.313,2.407l-4.892-3.85l4.121-0.071L118.208,109.109"/>
	<polyline fill="#231F20" points="17.711,49.357 13.157,57.385 38.124,73.222 43.956,63.333 17.711,49.357 	"/>
	<polyline fill="#FFFFFF" points="26.052,54.211 23.398,61.654 29.135,56.143 26.052,54.211 	"/>
	<polyline fill="#FFFFFF" points="31.208,57.529 28.558,64.955 34.294,59.465 31.208,57.529 	"/>
	<polyline fill="#FFFFFF" points="36.367,60.834 33.714,68.277 39.451,62.784 36.367,60.834 	"/>
	<polyline fill="#231F20" points="122.592,90.918 126.33,105.551 115.146,94.624 120.111,94.223 122.592,90.918 	"/>
	<polyline fill="#F4812A" points="122.279,94.405 124.451,101.831 118.978,95.553 121.558,95.553 122.279,94.405 	"/>
	<polyline fill="#231F20" points="115.269,126.26 127.533,118.891 119.773,130.747 115.269,126.26 	"/>
	<polyline fill="#F4812A" points="117.532,126.333 119.992,128.958 124.134,121.934 117.532,126.333 	"/>
	<polyline fill="#FFFFFF" points="41.136,78.093 46.151,81.032 47.499,79.807 42.125,76.872 41.136,78.093 	"/>
	<polyline fill="#FFFFFF" points="52.511,84.568 64.516,91.667 64.755,90.081 53.116,83.348 52.511,84.568 	"/>
</g>
</svg>
