<?xml version="1.0" encoding="utf-8"?>
<!-- Generator: Adobe Illustrator 14.0.0, SVG Export Plug-In . SVG Version: 6.00 Build 43363)  -->
<!DOCTYPE svg PUBLIC "-//W3C//DTD SVG 1.1//EN" "http://www.w3.org/Graphics/SVG/1.1/DTD/svg11.dtd">
<svg version="1.1" id="Layer_1" xmlns="http://www.w3.org/2000/svg" xmlns:xlink="http://www.w3.org/1999/xlink" x="0px" y="0px"
	 width="250px" height="245px" viewBox="0 0 250 245" enable-background="new 0 0 250 245" xml:space="preserve">
<g>
	<polyline fill="#231F20" points="27.658,191.346 71.311,188.33 169.517,188.874 213.461,204.525 212.907,212.737 186.82,220.434 
		187.086,216.856 148.949,227.824 148.949,233.592 131.12,230.861 134.696,238.252 82.544,237.992 70.473,233.592 66.079,239.076 
		16.402,240.181 16.69,234.132 33.969,230.861 33.681,225.377 58.926,219.329 31.234,217.142 15.585,208.336 13.351,196.286 
		31.234,197.653 27.658,191.346 	"/>
	<polyline fill="#FFFFFF" points="30.392,193.274 72.39,190.263 168.437,189.979 210.964,205.065 193.948,208.901 198.629,204.525 
		195.606,204.241 171.726,213.845 170.887,212.456 146.215,222.905 145.664,228.389 123.438,225.093 126.464,230.577 
		86.384,230.861 68.813,224.834 63.87,232.509 59.768,233.049 26.553,233.873 36.704,231.685 36.704,227.306 83.095,216.317 
		80.335,213.586 34.786,209.984 37.257,207.818 44.936,206.43 34.523,205.065 33.127,207.513 30.68,208.643 28.737,203.418 
		17.77,198.218 35.89,199.582 31.234,193.274 	"/>
	<path fill="#231F20" d="M112.445,29.815c0,0,4.922-20.333,7.009-24.147c0.986-1.856,2.472-0.421,2.112,1.907
		c-0.335,2.354-2.882,19.819-2.882,19.819l-2.134,1.389L112.445,29.815"/>
	<path fill="#FFCC02" d="M114.245,29.136c0,0,2.929-14.476,4.033-18.052c1.083-3.555,0.982-4.192,1.994-3.979
		c1.033,0.212,0.072,2.684-0.407,4.731c-0.503,2.073-1.777,8.78-1.972,10.64c-0.237,1.856-0.767,5.339-0.767,5.339L114.245,29.136"
		/>
	<path fill="#231F20" d="M121.038,11.695c0,0,4.393-3.203,8.089-2.12c3.72,1.108,1.705,4.188,1.705,4.188s-0.267,0.565,2.828-0.633
		c3.073-1.155,4.729-1.907,8.762-1.576c4.056,0.353,5.304,1.458,5.304,1.458s-3.098-0.072-6.599,1.695
		c-3.505,1.813-7.467,5.365-12.145,5.437c-4.656,0.072-1.85-3.364-3.166-3.717c-1.295-0.331-1.08-0.259-2.594,0.281
		c-1.511,0.54-2.879,0.824-2.879,0.824s0.695-1.86,0.889-3.083C121.423,13.225,121.038,11.695,121.038,11.695"/>
	<path fill="#0071BB" d="M122.261,11.695c0,0,0.266,1.576,0.266,2.4c0,0.824-0.529,1.788-0.529,1.788s4.106-2.047,5.495-0.752
		c1.367,1.295-1.583,4.401,1.489,3.649c3.095-0.756,7.895-3.508,10.007-4.333c2.138-0.824,5.016-1.648,5.016-1.648
		s-4.249-0.68-6.095-0.259c-1.847,0.399-6.049,2.731-7.607,2.167c-1.586-0.54,0.695-3.203-1.586-4.023
		C126.464,9.835,122.261,11.695,122.261,11.695"/>
	<path fill="#231F20" d="M13.668,45.374c3.26-1.648,48.834-21.935,102.354-22.219c53.495-0.259,83.997,8.499,102.358,14.828
		c18.383,6.308,23.881,8.215,16.199,11.792c-7.679,3.555-32.398,20.031-39.505,49.921c-9.621,31.279-7.438,48.295-7.438,48.295
		s-38.137-26.08-73.536-28.807c-45.021-4.401-70.82,18.121-70.82,18.121S21.08,111.487,15.585,92.021
		c-5.494-19.488-4.681-23.298-4.415-29.912c0.309-6.566,1.943-11.511,1.655-12.615C12.56,48.386,10.354,47.044,13.668,45.374
		 M23.001,45.939c3.551-1.104,5.735-3.861,5.735-3.861l-11.809,4.685C16.928,46.763,19.403,47.044,23.001,45.939z M47.433,39.347
		c4.656-1.104,7.391-4.94,7.391-4.94L38.1,39.092C38.1,39.092,42.752,40.43,47.433,39.347z M73.499,36.595
		c9.046-1.389,14.803-8.236,14.803-8.236s-9.888,0.565-15.645,1.389c-5.761,0.799-15.624,3.552-15.624,3.552
		S64.424,37.983,73.499,36.595z M95.167,27.534c0,0,6.311,2.753,12.622,2.753c6.312,0,12.338-4.94,12.338-4.94l-12.338,1.104
		L95.167,27.534z M142.087,33.043c11.519,1.623,22.244-4.685,22.244-4.685s-10.176-1.367-20.326-2.188
		c-10.15-0.824-20.567-0.543-20.567-0.543S130.565,31.396,142.087,33.043z M179.163,34.123c5.473,1.083,13.155-0.28,13.155-0.28
		s-5.761-1.623-12.363-3.296c-6.574-1.623-11.519-1.623-11.519-1.623S173.644,33.043,179.163,34.123z M212.907,42.078
		c6.023,2.213,13.442,2.213,13.442,2.213s-5.21-3.037-11.521-4.944c-6.336-1.929-12.071-3.033-12.071-3.033
		S206.862,39.891,212.907,42.078z"/>
	<path fill="#EC1C24" d="M195.606,34.407c0,0-18.649,21.676-26.331,45.823c-7.7,24.147-7.125,50.486-7.125,50.486l23.568,13.979
		c0,0,1.102-30.455,10.438-55.427c9.165-24.479,30.455-38.67,35.424-40.339c4.894-1.626,1.631-2.731-0.842-3.271
		c-2.472-0.543-11.521,0.28-18.671-2.472C204.94,40.43,195.606,34.407,195.606,34.407"/>
	<path fill="#EC1C24" d="M121.232,26.991c0,0-13.443,34.834-14.256,42.271c-0.842,7.391,1.893,47.449,1.893,47.449
		s5.786,0,11.81,0.824c6.048,0.824,12.072,2.493,12.072,2.493s1.126-23.323,8.783-47.211c7.175-22.359,20.855-41.987,20.855-41.987
		s-9.863,6.308-22.511,3.835c-12.601-2.447-17.808-7.675-17.808-7.675"/>
	<path fill="#FFFFFF" d="M165.702,30.287c0,0-16.131,24.241-22.201,43.894c-6.069,19.466-8.805,46.651-8.805,46.651l25.512,8.495
		c0,0,0.55-30.714,8.517-52.933c7.945-22.219,23.327-40.624,23.327-40.624s-5.231,1.648-15.095-1.104
		C167.069,31.96,165.702,30.287,165.702,30.287"/>
	<path fill="#FFFFFF" d="M118.206,29.747c0,0-13.727,35.939-13.993,50.483c-0.259,14.547-7.679,24.407-10.414,20.006
		c-2.734-4.354-9.6-37.846-9.6-37.846l9.6-34.032c0,0,4.102,3.861,11.784,4.142C113.262,32.734,118.206,29.747,118.206,29.747"/>
	<path fill="#EC1C24" d="M56.169,35.512c0,0,9.91,5.483,18.696,2.472c8.78-3.037,17.012-9.344,17.012-9.344
		s-8.783,34.575-9.071,46.366c-0.263,11.816,2.209,42.247,2.209,42.247l-15.361,4.404c0,0-9.312-19.488-12.36-43.614
		C54.273,53.895,56.169,35.512,56.169,35.512"/>
	<path fill="#FFFFFF" d="M36.704,41.254c0,0-1.342,29.635,3.026,44.459c7.941,26.879,17.016,41.142,17.016,41.142l10.15-5.2
		c0,0-9.863-27.184-12.072-46.91c-2.209-19.747-0.55-37.328-0.55-37.328s-2.76,3.296-8.783,3.836
		C39.442,41.819,36.704,41.254,36.704,41.254"/>
	<path fill="#EC1C24" d="M14.193,48.929c0,0-4.919,23.889,3.022,42.812c7.995,18.944,26.065,43.894,26.065,43.894l11.543-8.215
		c0,0-11.809-20.027-17.854-44.999c-5.545-22.971-2.184-41.707-2.184-41.707s-4.656,4.12-11.259,6.588
		c-6.599,2.472-10.176,1.368-10.176,1.368"/>
	<path fill="#FFFFFF" d="M77.334,51.588c0.051-0.212,1.181-4.731,3.555-9.179c2.447-4.613,4.462-5.296,4.822-5.365l1.921-0.45
		l-0.648,1.86c-0.647,2.072-1.439,5.509-0.96,6.66c0.673,1.695,1.007,2.119,1.033,2.141l-0.05-0.047l-1.774,0.353
		c0.288-0.705,2.976-6.707,5.951-8.47c2.954-1.792,4.584-1.58,4.897-1.508l1.533,0.306L96.8,39.232
		c-0.503,0.777-1.706,3.199-1.511,4.94c0.238,1.86,0.381,2.497,0.479,2.663c-0.046-0.072-0.216-0.259-0.529-0.306
		c-0.288-0.05-0.554,0.094-0.576,0.14c0.241-0.212,0.482-0.399,0.745-0.543c0.911-0.54,2.278-1.389,2.087-5.225
		c-0.263-5.153-3.242-10.284-3.264-10.331l-1.439-2.425l2.688,0.799c0.407,0.144,9.769,3.083,11.064,12.993
		c1.27,9.463-0.241,12.122-0.432,12.403l-0.385-1.554c0.457,0.284,4.224,2.544,5.545,4.451c1.367,1.976,1.846,4.448,1.846,4.566
		l0.334,1.929l-1.82-0.73c0,0-1.202-0.472-2.476-0.472c-1.151,0-1.605,0.166-1.605,0.166l0.263-1.81
		c0.144,0.093,3.602,3.012,4.919,5.53c1.273,2.375,2.497,6.473,2.569,6.635l0.554,1.86l-1.9-0.493l-3.141-0.803l1.367-0.964
		l-0.119,1.363l-0.529-1.032c0.119,0.093,3.407,2.209,4.199,5.904c0.698,3.39,0.698,5.887,0.698,6.002v1.839l-1.612-0.871
		c-1.101-0.59-2.35-1.155-2.685-1.177c0.072,0,0.31-0.025,0.551-0.237c0.241-0.259,0.288-0.54,0.288-0.684
		c0,0.212,0.191,0.943,0.36,1.673c0.867,3.483,2.713,10.802,1.994,19.98l-2.472,29.631l-0.097,1.389l-1.32-0.421
		c-2.109-0.662-4.462-1.13-4.966-0.989c0.022,0,0.119-0.072,0.238-0.188c0.05-0.025,0.05-0.072,0.05-0.072
		c-0.889,1.529-7.995,22.266-7.348,30.854l0.05,0.446c0.673,9.086,2.112,28.056,9.334,37.354
		c7.322,9.463,12.076,12.78,12.097,12.802l0.41,0.284l0.047,0.493l0.432,3.296l0.097,0.777l-0.72,0.353
		c-1.49,0.705-6.628,3.012-8.808,2.234c-0.216-0.068-0.529-0.187-0.792-0.259c-1.921-0.515-4.512-1.271-8.376-6.873l-1.033-1.504
		c-4.487-6.447-12.842-18.43-16.703-32.29c-4.081-14.734-5.639-32.269-5.639-32.459L80,150.815
		c-0.097-0.094-1.731-2.519-1.587-5.483c0.144-2.777,1.418-5.624,1.49-5.721l-0.047,0.776c-0.047-0.14-1.371-3.976-0.144-7.178
		c0.432-1.083,0.911-2.541,1.393-4.048c0.813-2.473,1.727-5.25,2.785-7.672c0.36-0.896,0.72-1.72,1.054-2.4
		c1.08-2.378,1.824-4.098,2.134-6.358c0.385-3.012,0.123-7.578,0.123-7.578l1.993,0.518c-0.46,0.684-1.706,2.803-1.706,4.332
		c0,0.375,0.021,0.871,0.072,1.389c0.166,2.116,0.407,5.012-1.896,7.318c-2.353,2.328-7.006,5.649-9.6,5.272
		c-2.544-0.378-5.761-4.588-6.336-5.862c-0.144-0.375-0.36-0.752-0.576-1.13c-0.432-0.824-0.885-1.695-1.007-2.612
		c-0.144-1.033,0.432-2.094,0.885-2.94c0.122-0.259,0.338-0.59,0.363-0.705c0-0.072,0.025-0.403,0.025-0.662
		c0.047-1.338,0.094-3.598,1.245-5.225c1.295-1.882,2.354-2.681,2.447-2.752l-0.453,0.777c0.021-0.047,0.406-3.53-0.097-5.674
		c-0.529-2.209-1.608-5.034-1.608-5.034l1.223,0.659l-2.35,0.399l-0.072,0.046h-0.097c0.025,0,0.169,0,0.194-0.093
		c-0.025,0.047-0.05,0.234,0.072,0.684c0.432,2.209,0.36,3.717-0.338,4.4c-0.359,0.399-0.813,0.565-1.367,0.472
		c-1.249-0.212-3.479-2.191-3.987-3.58l-0.187-0.472c-0.245-0.658-0.892-2.447-1.252-2.821c0,0,0.05,0.047,0.144,0.068
		c0.051,0.047,0.097,0.047,0.097,0.047c-0.072,0-0.241,0-0.385,0c-0.694,0.025-1.871,0.072-2.735-0.777
		c-0.623-0.612-0.885-1.529-0.842-2.774c0.144-3.486,1.274-4.451,2.497-5.556l0.36-0.306c1.274-1.13,2.835-3.271,2.857-3.271
		l-0.021,1.317c-0.025-0.094-1.252-1.767-1.562-3.929c-0.288-2.047-0.144-2.99-0.144-3.084l0.166-0.989l1.036,0.093l1.774,0.119
		l-1.177,1.249c-0.021-0.144-0.432-3.156-0.288-5.038c0.144-1.86,0.432-2.778,0.482-2.85l0.31,1.176
		c-0.093-0.093-2.785-2.328-1.533-5.505c0.31-0.824,0.597-1.414,0.792-1.86c0.144-0.284,0.263-0.59,0.31-0.684
		c-0.021,0.072,0,0.166,0.05,0.237c0,0,0-0.025-0.05-0.025c-0.551-0.705-1.224-1.669-1.245-1.694l-1.346-1.882l2.281,0.165
		c0.119,0,2.709,0.166,4.339,2.141c0.554,0.659,0.893,1.224,1.13,1.648c0.097,0.187,0.241,0.378,0.266,0.446
		c-0.072-0.094-0.338-0.187-0.432-0.119c0,0,0,0,0.047-0.047c0.144-0.115,0.216-0.824,0.097-1.411l0.166,0.399
		c-0.191-0.306-4.318-6.732-3.742-12.543c0.551-5.581,2.541-10.546,5.253-13.274c2.62-2.591,7.441-4.544,7.657-4.638l1.13,1.835
		c-0.144,0.119-3.602,3.39-3.483,10.003c0.144,6.873,2.332,10.687,2.353,10.708L77.334,51.588"/>
	<path fill="#231F20" d="M78.414,51.822c0,0,1.108-4.52,3.433-8.92c2.354-4.375,4.105-4.8,4.105-4.8s-1.752,5.343-0.935,7.437
		c0.838,2.047,1.249,2.447,1.249,2.447s2.713-6.308,5.447-7.956c2.756-1.623,4.152-1.364,4.152-1.364s-1.943,3.152-1.655,5.624
		c0.259,2.472,0.55,3.836,1.245,3.156c0.698-0.684,3.433-1.108,3.145-6.592c-0.266-5.505-3.433-10.849-3.433-10.849
		s9.046,2.728,10.298,12.072c1.224,9.345-0.288,11.676-0.288,11.676s3.979,2.328,5.207,4.095c1.249,1.789,1.68,4.116,1.68,4.116
		s-1.417-0.514-2.907-0.514c-1.511,0-2.062,0.255-2.062,0.255s3.458,2.871,4.681,5.203c1.224,2.353,2.469,6.448,2.469,6.448
		l-3.167-0.824l-0.119,1.389c0,0,2.997,1.907,3.695,5.203c0.673,3.296,0.673,5.764,0.673,5.764s-3.026-1.623-3.433-1.245
		c-0.407,0.421,3.314,9.46,2.35,21.676c-0.982,12.216-2.469,29.631-2.469,29.631s-5.231-1.623-5.904-0.824
		c-0.694,0.824-8.233,22.525-7.538,31.563c0.676,9.061,2.065,28.688,9.578,38.433c7.56,9.722,12.36,13.019,12.36,13.019l0.407,3.292
		c0,0-6.023,2.871-7.945,2.213c-1.918-0.705-4.415-0.587-8.665-6.754c-4.246-6.167-13.436-18.643-17.566-33.467
		c-4.081-14.807-5.592-32.247-5.592-32.247s-1.511-2.188-1.389-4.8c0.119-2.591,1.389-5.344,1.389-5.344s-1.27-3.576-0.144-6.447
		c1.079-2.872,2.447-7.815,4.13-11.676c1.605-3.811,2.854-5.883,3.26-9.035c0.41-3.156,0.144-7.837,0.144-7.837
		s-1.917,2.752-1.917,4.965c0,2.163,0.96,5.484-1.486,7.956c-2.476,2.447-6.747,5.2-8.643,4.919
		c-1.943-0.259-4.944-3.955-5.52-5.203c-0.551-1.249-1.368-2.328-1.511-3.436c-0.144-1.083,1.104-2.587,1.249-3.271
		c0.119-0.705-0.144-3.721,1.079-5.509c1.249-1.763,2.206-2.468,2.206-2.468s0.41-3.695-0.144-6.027
		c-0.551-2.332-1.655-5.225-1.655-5.225l-2.303,0.424c0,0-1.245,0-0.842,1.929c0.411,1.907,0.411,3.67-0.403,3.555
		c-0.82-0.144-2.738-1.767-3.17-2.872c-0.385-1.13-1.198-3.58-1.918-3.839c-0.676-0.306-3.289,0.803-3.145-2.493
		c0.166-3.296,1.101-3.814,2.468-5.059c1.396-1.249,3.026-3.437,3.026-3.437s-1.104-1.508-1.371-3.436
		c-0.259-1.933-0.144-2.731-0.144-2.731l1.777,0.14c0,0-0.407-3.033-0.263-4.8c0.119-1.788,0.407-2.612,0.407-2.612
		s-2.209-1.789-1.224-4.26c0.936-2.472,1.511-2.731,0.936-3.437c-0.55-0.684-1.223-1.623-1.223-1.623s2.184,0.115,3.551,1.788
		c1.371,1.623,1.249,2.728,2.354,2.166c1.079-0.543,0.694-2.591,0.694-2.591s-4.127-6.308-3.577-11.791
		c0.529-5.509,2.45-10.168,4.944-12.641c2.45-2.468,7.275-4.375,7.275-4.375s-3.987,3.552-3.864,10.849
		C76.089,47.846,78.414,51.822,78.414,51.822"/>
	<path fill="#FFCC02" d="M79.641,62.53c0,0-0.407-0.824-0.529-1.245c-0.144-0.399,0.41-0.399,0.698-1.224
		c0.263-0.824,0.813-7.275,1.224-10.852c0.407-3.551,2.181-6.142,2.181-6.142s-0.958,3.13,0.554,4.519
		c1.511,1.342,2.616,2.188,2.616,2.188s1.223-3.152,2.882-5.343c1.63-2.188,3.429-3.292,3.429-3.292s-0.673,2.307-0.288,4.52
		c0.432,2.188,1.917,3.835,1.917,3.835l2.065-0.964l-2.878,3.012c0,0-3.721-0.802-6.722,0.846c-3.022,1.626-4.8,3.415-5.207,5.203
		c-0.406,1.788-0.406,2.752-0.406,2.752l0.55,0.943c0,0-0.817-0.141-1.27,0.28C80.072,61.965,79.641,62.53,79.641,62.53"/>
	<path fill="#FFCC02" d="M66.608,59.778c0,0-1.63,3.436-0.673,4.685c0.961,1.223,2.878,1.482,3.987,2.047
		c1.08,0.54,1.918,2.047,1.918,2.871c0,0.824,1.104,2.213,1.515,2.731c0.403,0.586,1.893,1.389,2.468,1.67
		c0.529,0.284,0.842-0.54,1.224-1.249c0.41-0.68-0.381-1.504-0.381-2.047c0-0.54-0.576-4.116-0.41-4.541
		c0.097-0.399,0-1.224,0.647-0.684c0.72,0.565,1.511,0.565,1.08,1.648c-0.36,1.108-0.525,3.037-0.525,3.037s0.838,0,1.367-1.108
		c0.576-1.079,0.698-1.928,1.249-1.788c0.551,0.144,0.838,0.709,0.838,0.709s-1.389,1.223-1.389,2.587s0.407,2.073,0.694,2.591
		c0.241,0.565,0.241,1.644-0.576,1.385c-0.817-0.255-2.307-0.399-2.882,0c-0.503,0.424-0.237,1.249-1.774,1.249
		c-1.486,0-1.486-0.565-2.45-0.705c-0.982-0.119-1.101,0-1.533,0.14c-0.41,0.14-0.817,0.284-0.817,0.284s1.126,0.68,1.655,1.224
		c0.55,0.54,1.367,1.104,1.918,0.824c0.554-0.284,0.676-0.284,2.065-0.399c1.368-0.144,2.328,0.846,2.328,0.846
		s0.263,0.943-1.104,0.777c-1.367-0.119-3.022-0.259-3.839-0.259s-0.673,1.364-1.655,0.684c-0.96-0.684-0.241-1.932-1.367-2.047
		c-1.104-0.144-3.026-0.284-3.818-0.284c-0.838,0-1.27-0.54-1.27-0.54s0.982,2.188,2.206,2.871c1.252,0.68,2.065,2.468,2.065,2.468
		S68.289,81.738,68,82.421c-0.288,0.68-0.842,1.644-0.842,1.644l-0.407-3.433c0,0-1.08,1.504-2.328,2.354
		c-1.223,0.799-2.328,1.504-2.328,2.162c0,0.709,0,1.389,0,1.389S65.528,84.89,68,85.292c2.472,0.421,4.127,2.728,5.901,2.494
		c1.778-0.284,2.354-1.529,3.962-1.249c1.659,0.284,4.393,1.367,6.192,2.191c1.799,0.824,3.433,1.504,4.39,1.104
		c0.964-0.425,1.49-0.705,1.227-2.047c-0.263-1.389,0-4.944,2.206-4.52c2.188,0.378,3.699,1.623,1.368,4.095
		c-2.35,2.472-5.351,8.096-6.743,11.792c-1.367,3.695-3.408,8.355-3.408,10.687c0,2.328,0.407,6.588-2.328,6.329
		c-2.785-0.28-3.577-1.788-3.577-2.468c0-0.708-0.525-0.708-0.288-1.367c0.288-0.68,0.554-1.788,0.288-2.612
		c-0.288-0.824,0-1.529-0.525-0.824c-0.576,0.684-1.104,1.108-0.986,2.472c0.144,1.364,0.986,3.555-0.432,3.555
		c-1.346,0-2.303,0.565-3.12-0.399c-0.816-0.968-1.392-2.073-1.392-2.073s-1.655,2.332-0.263,3.177
		c1.367,0.799,1.223,1.083,1.223,1.083s2.328,4.8,4.656,4.685c2.328-0.166,5.494-2.472,6.599-3.721
		c1.104-1.249,1.659-1.788,1.659-1.788s-0.554-3.976,0.669-8.236c1.224-4.239,3.022-8.355,5.498-12.194
		c2.469-3.836,5.757-6.847,7.125-8.096c1.367-1.245,5.232-1.648,5.354-4.94c0.144-3.296-2.447-5.628-3.289-6.592
		c-0.842-0.964,0.123-1.507,1.104-0.824c0.961,0.684,1.511,0.964,1.511,0.964l0.119-3.033c0,0-1.63-1.342-1.63-1.907
		c0-0.543,0.529-0.424,0.529-0.424l0.144-2.447l1.245,0.399c0,0,0.82-0.799,0.673-1.907c-0.144-1.104-0.407-2.073-0.817-2.472
		c-0.432-0.421-0.55-0.824-1.245-0.705c-0.673,0.166-0.529,1.929-1.634,2.612c-1.08,0.705-2.734,1.389-2.472,2.472
		c0.262,1.104,1.104,1.788,1.227,2.893c0.166,1.083,0.691,3.555,0.288,4.12c-0.41,0.543-2.209,2.591-2.764,2.213
		c-0.525-0.446,0.698-1.389,0.986-2.213c0.263-0.824,0-3.577,0-3.577s-0.144,1.929-1.249,2.752
		c-1.079,0.824-3.289,1.648-3.695,1.648c-0.41,0,0.958,0.659,0.958,0.659s-1.101-0.399-2.062,0.14
		c-0.96,0.59-1.774,2.472-1.774,2.897c0,0.424,0.144,1.648-1.252,2.047c-1.368,0.424-2.612,0.424-2.612,0.424
		s2.756-2.213,2.206-2.896c-0.55-0.68-0.55-0.399-1.799-0.54c-1.223-0.141-1.63-0.824-3-0.565c-1.368,0.306-2.328,1.104-2.735,1.529
		c-0.407,0.424-1.249,1.507-1.249,1.507l0.144-3.436c0,0,2.065-1.224,3.577-1.108c1.511,0.14,3.695,1.249,3.695,1.249l2.472-0.964
		c0,0,1.368-1.223-0.41-1.223c-1.774,0-3.31-0.144-3.979,0.14c-0.698,0.259-1.515,1.083-1.777,0.14
		c-0.267-0.964-1.105-1.389-1.249-2.612c-0.119-1.249-0.529-3.437,1.104-4.944c1.655-1.504,3.145-3.577,3.145-4.116
		c0-0.543-0.267-1.907-0.267-1.907s2.184-0.424,3.022,0.399c0.82,0.824,1.778,0.543,3.001,0.259c1.249-0.259,1.68-0.119,1.68-0.119
		s0.241-1.104-0.982-1.389c-1.249-0.259-2.354-0.939-2.354-1.763c0-0.824,0.986-2.472,1.274-1.389
		c0.263,1.104,2.062,1.389,3.404,2.472c1.396,1.104,2.065,1.788,2.065,1.788s1.104-1.108,1.799-1.788
		c0.676-0.684,1.079-0.943,1.079-0.943l1.252,2.188l-0.144-3.012l-3.026-0.399c0,0,1.104-0.14-0.695-0.14c-1.777,0-2.59,0-2.59,0
		s-0.144-0.705-0.698-1.13c-0.554-0.399-0.673-1.367-0.817-3.13c-0.144-1.788,0.144-2.612,0.144-2.612s-0.432,0-1.774,1.224
		c-1.393,1.223-1.799,3.861-1.799,3.861l-0.964-2.897c0,0-2.612,0-3.691,1.389c-1.108,1.342-2.354,3.296-1.921,4.095
		c0.406,0.824,0.263,1.508,0,1.929c-0.267,0.403,0.263,0-1.368,1.108c-1.68,1.083-2.353,1.648-2.353,1.648s0.144-2.073-0.554-2.638
		c-0.669-0.54-1.223-1.364-1.223-1.364s1.104-0.543,1.223-1.223c0.144-0.684,0.267-5.484,0.267-5.484S76.758,53.33,74.984,55
		c-1.777,1.626-2.594,4.379-2.594,4.379s2.476-2.353,3.289-2.188c0.842,0.115,0.41,0.658,0.41,1.623s0.576,2.213-0.842,2.073
		c-1.346-0.144-3.12,0-3.551,0.14c-0.385,0.119-0.792,0.68-1.367,0.939c-0.551,0.285-0.838,0.849-0.838,0.849
		s3.454-2.353,3.864-1.363c0.403,0.939,0.547,2.188,0.669,3.126c0.144,0.968,1.537,3.296,1.537,4.404
		c0,1.104-0.576,3.012-0.576,3.012s-0.816-1.788-1.486-3.436c-0.698-1.648-1.371-2.472-1.371-3.012c0-0.543-0.432-2.472-0.432-2.472
		s-0.144,1.789-1.104,1.789c-0.936,0-1.101-0.824-2.303-1.789c-1.249-0.964-1.537-1.108-1.537-1.108L66.608,59.778"/>
	<path fill="#FFCC02" d="M69.368,74.865c0,0-0.41-1.083-1.367-1.364c-0.96-0.259-0.96,0-0.96,0s-0.144,0.565,0.262,1.504
		c0.411,0.964,0.986,1.108,1.511,0.824C69.368,75.57,69.368,74.865,69.368,74.865"/>
	<path fill="#FFCC02" d="M82.688,73.357c0,0-0.698-1.364,0.119-2.587c0.838-1.249,2.882-3.012,3.577-3.98
		c0.673-0.964,0.817-2.213,0.817-2.213s0.144,1.792,1.367,1.508c1.223-0.259,0.986-0.54,3.454-0.824
		c2.447-0.259,4.224,0.285,4.922-0.14c0.694-0.399,1.389-1.223,1.389-1.223l0.935-0.684c0,0,0.144,1.108-0.259,2.047
		c-0.41,0.964-1.252,1.529-1.252,1.529s0.411-0.964-0.406-0.705c-0.817,0.284-3.839,2.353-5.905,2.353
		c-2.037,0-2.324-0.824-3.001-0.824c-0.694,0-1.943,2.047-2.756,2.731c-0.792,0.684-1.368,1.767-1.922,2.472
		C83.214,73.501,82.688,73.357,82.688,73.357"/>
	<path fill="#231F20" d="M93.246,80.633c0,0,5.21-0.684,4.25,2.069c-0.961,2.731-2.735,3.696-2.735,3.696s1.774-2.472,1.223-3.555
		C95.455,81.738,93.246,80.633,93.246,80.633"/>
	<path fill="#231F20" d="M84.897,79.949c0,0-2.476,1.389-3.72,2.188c-1.249,0.849-1.943,1.249-0.842,2.188
		c1.105,0.968,0.986,1.932,0.986,1.932l0.119-1.767c0,0,1.104,0.259,1.511-0.846c0.406-1.083,0.263-1.626,0.263-1.626L84.897,79.949
		"/>
	<path fill="#231F20" d="M71.958,83.925c0,0,0.169,1.223,1.396,1.108c1.224-0.144,2.468-1.648,1.511-1.508
		c-0.964,0.119-1.367,0.684-1.803,0.54C72.657,83.925,71.958,83.925,71.958,83.925"/>
	<path fill="#FFFFFF" d="M71.958,55.683c0,0-3.67-6.873-2.303-13.32c1.346-6.427,7.103-10.827,7.103-10.827
		s-3.551,7.812-3.404,11.086c0.144,3.317,3.167,9.884,3.167,9.884L71.958,55.683"/>
	<path fill="#FFFFFF" d="M94.904,54.014c0,0-0.694,2.209,0.263,3.292c0.986,1.108,3.433,2.213,4.102,1.673
		c0.698-0.565,5.21-8.805,4.25-15.792c-0.622-4.66-6.023-11.227-6.023-11.227s3.983,10.284,1.515,15.084
		C96.534,51.822,94.904,54.014,94.904,54.014"/>
	<path fill="#0071BB" d="M72.657,53.754c0,0-1.346-2.896-1.49-4.404c-0.166-1.504-0.166-3.292-0.166-3.292s0.694,2.752,1.245,3.857
		c0.554,1.108,1.655,2.872,1.655,2.872L72.657,53.754"/>
	<path fill="#0071BB" d="M94.76,56.626c0,0,2.878-3.296,4.25-5.484c1.389-2.213,2.324-4.944,2.324-4.944s-0.936,5.624-2.734,8.096
		c-1.799,2.472-2.354,3.98-2.354,3.98L94.76,56.626"/>
	<path fill="#FFFFFF" d="M67.446,67.874c0,0,2.209-0.399,3.026,1.249c0.838,1.648,1.486,3.152,2.184,3.696
		c0.698,0.54-0.698,1.648-2.065,1.363c-1.367-0.259-1.634-1.245-2.303-2.587c-0.698-1.389-0.576-1.648-0.698-2.213
		C67.446,68.838,67.446,67.874,67.446,67.874"/>
	<path fill="#FFFFFF" d="M84.61,74.181c0,0,2.591-4.235,3.548-4.095c0.964,0.119,1.777,0.684,3.864,0
		c2.044-0.705,3.843-1.529,3.843-1.529s0.813,3.555-0.96,4.8c-1.778,1.223-2.882,2.073-4.538,1.932
		c-1.633-0.144-2.209-0.824-3.31-0.824C85.952,74.466,84.61,74.181,84.61,74.181"/>
	<path fill="#EC1C24" d="M86.934,73.642l1.921-2.191c0,0,2.472,0.662,3.167,0.144c0.673-0.565,2.044-1.249,2.044-1.249
		s-0.41,3.721-2.738,3.721C88.978,74.066,86.934,73.642,86.934,73.642"/>
	<path fill="#EC1C24" d="M68.289,69.122c0,0,0.266,1.224,0.792,2.073c0.576,0.799,1.536,1.458,1.921,1.742
		c1.126,0.846-0.097-1.626-0.817-2.451c-0.694-0.824-0.694-1.223-0.694-1.223L68.289,69.122"/>
	<path fill="#FFFFFF" d="M64.568,88.822c0,0,0,1.364,0.673,3.505c0.694,2.145,2.256,3.39,2.256,3.39s-0.647-1.857-0.601-3.742
		c0.047-1.857,0.479-3.105,0.479-3.105s-0.694-0.424-1.342-0.446C65.385,88.376,64.568,88.822,64.568,88.822"/>
	<path fill="#FFFFFF" d="M80.673,90.424c0,0-0.144,2.306,0.021,3.882c0.216,1.601,0.576,3.458,0.576,3.458s1.177-2.26,1.681-4.235
		c0.507-1.976,0.507-2.332,0.507-2.332s-0.364-0.727-1.202-0.964c-0.816-0.212-1.68,0.047-1.68,0.047L80.673,90.424"/>
	<path fill="#FFFFFF" d="M67.95,88.869c0,0,0,1.317,0.266,1.716c0.238,0.378,0.454,0.824,0.454,0.824s0.986-0.893,1.083-1.342
		c0.097-0.446,0.19-1.198,0.19-1.198s-0.19-0.072-0.719-0.14C68.72,88.61,67.95,88.869,67.95,88.869"/>
	<path fill="#FFFFFF" d="M70.4,89.056c0,0,0,1.321,0.263,1.72c0.266,0.374,0.457,0.799,0.457,0.799s1.007-0.871,1.08-1.317
		c0.119-0.45,0.216-1.202,0.216-1.202s-0.216-0.068-0.72-0.187C71.167,88.775,70.4,89.056,70.4,89.056"/>
	<path fill="#FFFFFF" d="M73.063,89.247c0,0,0,1.338,0.263,1.716c0.245,0.378,0.482,0.824,0.482,0.824s0.986-0.871,1.079-1.317
		c0.097-0.424,0.194-1.223,0.194-1.223s-0.194-0.072-0.719-0.166C73.858,88.988,73.063,89.247,73.063,89.247"/>
	<path fill="#FFFFFF" d="M75.657,89.693c0,0,0,1.317,0.238,1.716c0.266,0.377,0.457,0.824,0.457,0.824s0.982-0.892,1.104-1.317
		c0.072-0.446,0.191-1.223,0.191-1.223s-0.191-0.072-0.72-0.166C76.399,89.409,75.657,89.693,75.657,89.693"/>
	<path fill="#FFFFFF" d="M78.126,90.186c0,0,0,1.108,0.241,1.436c0.241,0.331,0.436,0.706,0.436,0.706s0.885-0.752,1.007-1.13
		C79.903,90.823,80,90.186,80,90.186s-0.191-0.047-0.694-0.14C78.846,89.927,78.126,90.186,78.126,90.186"/>
	<path fill="#FFFFFF" d="M80.385,109.087c0,0,1.342,1.411,1.342,2.965c0,1.555-0.119,2-0.119,2s-0.482,0.519-1.321,0.425
		c-0.816-0.097-1.32-1.367-1.104-1.839c0.238-0.471,0.889-0.68,0.936-1.648C80.169,110.052,80.385,109.087,80.385,109.087"/>
	<path fill="#FFFFFF" d="M74.722,112.923c0,0-0.554,0.586-1.224,0.54c-0.698-0.047-1.155-0.166-1.155-0.166
		s-0.335-0.565-0.335-2.328c0-1.788,0.432-3.249,0.432-3.249s0.022,0.824,0.504,1.813c0.454,1.011,1.418,1.835,1.537,2.047
		c0.144,0.234,0.457,0.658,0.457,0.943C74.938,112.783,74.722,112.923,74.722,112.923"/>
	<path fill="#FFCC02" d="M103.662,54.719c0,0-0.91,2.375-0.91,3.835c0,1.461,0.741,3.105,0.741,3.105s1.85,3.461,2.929,5.131
		c1.08,1.648,1.824,3.296,1.824,3.296l2.569-0.377c0,0,0.169-1.835-2.378-4.588c-2.565-2.731-4.008-5.483-4.008-5.483l4.177-0.73
		c0,0-0.91-1.813-2.375-2.565C104.767,55.611,103.662,54.719,103.662,54.719"/>
	<path fill="#FFCC02" d="M108.437,72.44c0,0,1.274,1.673,1.274,2.943c0,1.27-0.36,3.835,0.36,4.94
		c0.745,1.108,0.745,2.001,0.745,2.001l2.015-0.353c0,0,0.719-1.458-0.216-3.483c-0.889-2.022-1.63-3.296-1.99-3.857
		C110.265,74.113,108.437,72.44,108.437,72.44"/>
	<path fill="#FFCC02" d="M113.359,216.95l0.381-1.647c0,0-9.528-10.615-13.004-23.23c-3.458-12.615-4.034-22.499-3.843-27.443
		c0.194-4.919,2.734-17.742,4.034-21.744c1.295-4.026,3.501-10.614,4.559-11.179c1.105-0.544,1.295,0.938,2.951,0.374
		c1.634-0.565,0.914-3.648,1.274-5.106c0.36-1.482,2.015-18.664,1.655-25.629c-0.381-6.945-1.295-16.264-3.504-22.856
		c-2.181-6.588-2.878-9.884-2.878-9.884l-0.77,0.188c0,0,4.584,22.146,5.304,27.256c0.748,5.131,0.748,16.099,0.36,19.934
		c-0.36,3.836-1.63,11.532-1.63,11.532l-1.464-0.188c0,0,2.569-20.477,1.655-30.008c-0.936-9.485-2.756-17.182-2.756-17.182
		s0,3.296-0.554,4.188c-0.525,0.943-3.648,3.296-4.39,3.674c-0.745,0.378,1.846,10.071,1.846,10.071v-9.532l0.745-0.162
		c0,0,1.439,10.776,1.273,17.203c-0.172,6.38-0.939,19.912-1.273,22.478c-0.385,2.566-4.224,16.473-5.879,22.475
		c-1.655,6.049-2.929,21.255-0.169,32.766c2.713,11.507,6.769,22.146,11.712,28.357C113.914,217.868,113.359,216.95,113.359,216.95"
		/>
	<path fill="#231F20" d="M104.983,86.538c0,0,1.249,12.263,1.058,17.559c-0.169,5.296-0.698,16.286-0.914,18.477
		c-0.144,2.188-0.914,4.753-0.914,4.753l1.13-0.543c0,0,3.094-15.555,1.993-24.334c-1.104-8.801-1.464-15.911-1.464-15.911H104.983"
		/>
	<path fill="#FFCC02" d="M73.858,93.647c0,0,0.813,2.681,0.813,6.423s-0.647,7.675-0.813,8.24c-0.194,0.54,1.08,1.529,1.367,0
		c0.263-1.554,0.623-6.592,0.623-8.708c0-2.098-0.36-4.663-0.55-5.369c-0.169-0.752-0.914-1.954-1.324-1.694
		C73.57,92.777,73.858,93.647,73.858,93.647"/>
	<path fill="#FFCC02" d="M97.808,89.833c-2.015,1.461-5.282,5.671-6.578,7.484c-1.295,1.835-1.101,2.378-1.101,2.378
		s0.166,11.18-1.274,16.098c-1.464,4.94-6.793,15.015-6.793,18.851s2.015,37.306,6.599,49.568
		c4.584,12.259,11.907,27.796,16.682,31.632c4.728,3.836,6.743,5.131,5.282,2.213c-1.468-2.943-1.273-3.13-1.828-3.648
		c-0.551-0.565-13.533-19.42-14.278-33.14c-0.72-13.698-1.824-20.643,2.184-35.114c4.034-14.45,5.16-21.935,4.775-30.527
		c-0.36-8.589,0.745-10.428-0.36-15.181C99.992,95.67,99.823,88.376,97.808,89.833"/>
	<path fill="#231F20" d="M223.684,151.121c0.91,0.354,1.295,0.893,1.824,1.271c0.575,0.353,1.104,0.543,1.104,1.083
		c0,0.565-3.289,5.671-3.648,6.401c-0.36,0.752-1.824,1.461-2.565,1.673c-0.724,0.162-24.316-1.839-24.316-1.839
		s15.914,3.296,19.56,4.026c3.648,0.73,3.843-0.187,5.498-0.564c1.634-0.353,6.023-10.428,6.383-11.158
		c0.386-0.727,1.49-2,2.375-1.645c0.936,0.375,6.023,5.671,6.023,5.671s-5.088,7.132-7.294,9.532
		c-2.184,2.378-3.648,3.083-5.112,3.083c-1.486,0-30.934-6.214-30.934-6.214l-1.824,1.835l25.438,7.322c0,0,3.84-1.461,5.498-1.647
		c1.63-0.191,3.095,1.104,3.095,1.104s11.687-13.72,13.177-14.663c1.461-0.892,2.756,0.565,3.289,0.943
		c0.55,0.353,1.846,4.001,2.756,6.023c0.914,2,1.273,2.378,0.745,3.271c-0.576,0.942-10.993,11.37-12.839,12.453
		c-1.824,1.104-4.753,0.727-4.753,0.727v3.109c0,0-17.186,9.153-21.77,10.428c-4.555,1.291-6.383-0.166-8.038-0.922
		c-1.655-0.727-19.416-12.424-19.416-12.424s-6.214,6.4-7.844,8.049c-1.659,1.647-7.513,6.423-10.464,9.697
		c-2.907,3.292-20.474,13.72-21.938,15.181c-1.465,1.482-17.016,7.506-17.016,7.506s-0.914,0.917-2.184-0.188
		c-1.295-1.104-3.285-3.648-6.409-7.884c-3.094-4.191-8.038-13.158-10.607-20.099c-2.569-6.967-3.504-17.56-4.03-25.443
		c-0.554-7.862,4.584-25.23,6.045-27.608c1.49-2.375,0.554-6.401,1.993-7.506c1.49-1.083,8.063,4.587,8.974,4.965
		c0.914,0.353,6.412,3.293,6.412,3.293s-1.655,0.73-1.828-4.754c-0.191-5.483,5.117-6.966,5.117-6.966s-0.914,2.918-0.914,4.919
		c0,2.047,5.304,3.13,5.304,3.13s-0.72-4.213,2.375-4.213c3.119,0,2.375,3.482,2.375,3.482l1.108,0.354c0,0,0.741,1.295,2.205,1.295
		c1.465,0,2.016-1.104,2.926-1.835c0.914-0.73,0.554-6.214,0.554-6.214s4.75,2.353,4.75,6.944c0,4.588-4.966,7.318-4.966,7.318
		s0.216,1.104-0.165,1.835c-0.36,0.705-1.469,2.191-1.469,2.191l1.634,1.08c0,0,1.655-4.729,3.505-7.132
		c1.82-2.375,6.404-3.293,6.404-3.293s0-1.083,0.173-1.647c0.188-0.543,1.846-1.083,1.846-1.083l-0.385,2.565l2.569,0.54
		c0,0,1.634-1.083,2.734-0.728c1.104,0.353,1.634,2.375,1.634,2.375s0.936,0,1.85,0c0.936,0,0.72-4.4,0.72-4.4
		s3.285,3.296,2.925,5.297c-0.334,2.021-2.925,3.296-2.925,3.296s-0.17,1.104-0.17,1.644c0,0.565-1.126,1.296-0.938,2.026
		c0.194,0.73,0,6.588,0,6.588l2.403-0.727c0,0,2.734-11.723,8.398-12.075c5.688-0.378,7.318,8.401,7.318,8.401
		s0.936-3.177,1.655-4.022c1.058-1.177,2.764-2.565,5.333-2.354c2.54,0.162,3.094,4.729,3.094,4.729s0.191-3.646,2.93-3.271
		c1.438,0.166,1.438,3.648,1.63,4.192c0.216,0.562,1.485,2.022,1.63,3.292c0.216,1.296-1.055,2.026-1.055,2.026l-0.19,1.622
		c0,0,23.229,2.026,24.334,1.835c1.08-0.161,4.919-7.483,4.919-7.483S222.773,150.744,223.684,151.121 M209.236,175.787
		l-21.769-6.754l-5.109,5.131l10.223,6.376c0,0,2.184,1.835,4.584,1.482c2.375-0.374,4.394-1.291,6.959-2.752
		C206.692,177.81,209.236,175.787,209.236,175.787z"/>
	<path fill="#FFCC02" d="M166.063,189.507c0,0-10.993,8.05-23.976,13.724c-13.011,5.671-23.762,9.697-24.313,9.884
		c-0.576,0.188-0.936,0.73-0.936,0.73s2.832,2.753,4.055,2.375c1.249-0.374,22.654-10.236,25.223-11.885
		c2.569-1.647,12.457-7.132,15.937-10.424C165.512,190.615,166.063,189.507,166.063,189.507"/>
	<path fill="#FFCC02" d="M112.28,209.818l2.929,3.109c0,0,21.021-7.862,27.979-10.968c6.239-2.803,20.474-11.697,24.889-15.019
		c4.394-3.271,8.401-6.94,8.401-6.94l-0.528-0.191c0,0-19.585,13.537-26.713,17.02c-7.15,3.483-15.192,6.589-22.151,8.802
		C120.127,207.818,112.28,209.818,112.28,209.818"/>
	<path fill="#FFCC02" d="M175.759,178.564l-0.72-0.942c0,0-16.3,10.075-29.303,15.559c-12.986,5.483-37.825,10.942-37.825,10.942
		l2.904,3.86c0,0,17.854-4.234,26.879-7.484c9.168-3.296,17.21-7.318,27.098-14.263
		C174.075,179.694,175.759,178.564,175.759,178.564"/>
	<path fill="#FFCC02" d="M104.213,197.203l2.569,5.109c0,0,13.418-0.237,39.335-10.402c21.384-8.427,27.983-15.181,27.983-15.181
		l-1.271-0.59c0,0-13.011,9.157-32.182,14.476C121.397,195.912,104.213,197.203,104.213,197.203"/>
	<path fill="#FFCC02" d="M101.863,190.263c0,0,8.592,2.001,30.718-2.943c22.129-4.944,37.874-12.968,37.874-12.968l1.461,1.271
		c0,0-14.277,9.675-35.302,14.803c-21.046,5.131-33.121,4.757-33.121,4.757L101.863,190.263"/>
	<path fill="#FFCC02" d="M99.992,182.566c0,0,19.772,2,38.807-1.296c19.03-3.271,28.943-8.754,28.943-8.754l1.605,1.104
		c0,0-11.519,7.11-35.133,12.05c-23.59,4.944-33.097,2.943-33.097,2.943L99.992,182.566"/>
	<path fill="#FFCC02" d="M98.909,174.352c0,0,6.074,2.188,29.447,2.378c23.449,0.162,37.155-5.674,37.155-5.674l1.27,0.543
		c0,0-10.967,7.132-34.2,9.133c-23.23,2.021-33.096-0.922-33.096-0.922L98.909,174.352"/>
	<path fill="#FFCC02" d="M98.333,165.69l0.388,6.261c0,0,3.311,3.105,28.75,3.483c25.414,0.353,36.932-5.483,36.932-5.483
		l-2.181-1.648c0,0-3.864,1.457-9.146,2.001c-4.584,1.295-4.584,1.482-7.751,0.425c-3.047,0.021-6.526-0.072-10.585-0.425
		C114.655,168.655,98.333,165.69,98.333,165.69"/>
	<path fill="#FFCC02" d="M98.384,164.09l0.338-7.298c0,0,17.207,3.627,25.986,5.109c8.787,1.458,15.746,1.835,15.746,1.835
		s0.097,1.224,1.367,3.059c1.273,1.813,3.022,3.343,3.022,3.343s-12.191-0.684-24.885-2.378
		C107.696,166.09,98.384,164.09,98.384,164.09"/>
	<path fill="#FFCC02" d="M101.118,147.991l-2.015,7.51c0,0,10.248,2.374,19.221,4.022c8.953,1.647,21.388,3.364,21.388,3.364
		s-0.749-1.339-0.914-2.634c-0.169-1.296-0.169-2.188-0.169-2.188s-9.165-1.674-20.305-4.778"/>
	<path fill="#FFFFFF" d="M105.872,134.127c0,0,9.697,6.192,19.945,10.568c10.247,4.379,13.724,6.049,13.724,6.049
		s-0.335,1.036-0.551,3.296c-0.19,2.234-0.313,3.155-0.313,3.155s-12.694-2.616-19.271-4.991
		c-6.574-2.378-17.732-6.592-17.732-6.592L105.872,134.127"/>
	<polyline fill="#0071BB" points="111.2,137.398 108.437,147.991 111.726,149.452 114.46,139.398 111.2,137.398 	"/>
	<polyline fill="#0071BB" points="129.292,146.53 127.472,154.205 130.4,155.123 132.391,147.825 129.292,146.53 	"/>
	<path fill="#231F20" d="M120.822,147.498c0.051,0.421,0.144,0.799,0.338,1.151l0.31,0.493c0.025,0,0.025,0.025,0.025,0.051
		l0.432,0.259c0.36,0.094,0.745,0.047,1.151-0.331h0.097c0.072-0.047,0.166-0.094,0.19-0.141l0.241-0.399
		c0.094-0.472,0.047-0.921,0.047-1.389v-0.403c0-0.094,0-0.162-0.072-0.233l-0.144-0.213l0.072,0.094l-0.119-0.28
		c-0.025-0.072-0.097-0.119-0.144-0.191l-0.169-0.114c-0.745-0.591-1.681-0.213-2.159,0.445c-0.169,0.166-0.097,0.425,0.097,0.565
		c0.166,0.119,0.407,0.072,0.551-0.119c0.144-0.233,0.334-0.421,0.792-0.421l0.385,0.328l-0.122-0.188l0.122,0.259
		c0,0.021,0,0.068,0.022,0.094l0.144,0.212l-0.046-0.237v0.403c-0.025,0.306,0,0.633,0,0.917l-0.169,0.399l0.216-0.165l-0.453,0.331
		c0,0,0,0,0.047,0l-0.479-0.144l0.144,0.237l-0.385-0.803c-0.072-0.188-0.216-0.353-0.119-0.587c-0.05-0.237-0.267-0.377-0.504-0.33
		C120.966,147.073,120.775,147.286,120.822,147.498"/>
	<path fill="#231F20" d="M135.488,151.521c0.551-0.14,0.957,0.141,1.439,0.26l0.165,0.047l-0.237-0.26l0.072,0.141
		c0,0.564,0,1.108,0,1.673v0.425l0.071-0.237l-0.144,0.212l0.31-0.212l-0.432,0.119c-0.237,0.14-0.504,0.165-0.792,0.118
		l-0.359-0.284l0.169,0.284l-0.025-0.118c0-0.493,0-0.965,0-1.461c0-0.213-0.165-0.422-0.406-0.422c-0.22,0-0.407,0.209-0.407,0.422
		c0,0.424,0,0.896,0,1.32l0.044,0.421c0.028,0.097,0.071,0.165,0.144,0.237l0.461,0.234c0.359,0.19,0.766,0.259,1.173,0.14
		l0.575-0.187c0.123,0,0.194-0.094,0.267-0.188l0.119-0.212c0.024-0.047,0.046-0.141,0.046-0.141v-0.472c0-0.471,0-0.942,0-1.414
		l-0.071-0.611c-0.047-0.115-0.119-0.212-0.237-0.28l-0.555-0.213c0.051,0.021,0.098,0.021,0.122,0.047
		c-0.481-0.094-0.96-0.259-1.511-0.212c-0.216,0-0.389,0.187-0.389,0.424C135.1,151.355,135.272,151.521,135.488,151.521"/>
	<path fill="#FFFFFF" d="M156.005,143.965c2.354,3.296,2.734,8.239,2.569,13.724c-0.216,5.483-4.225,12.449-8.787,12.071
		c-4.584-0.374-9.527-2.374-9.527-14.259c0-11.91,7.872-15.537,10.802-15.372C151.062,140.129,153.605,140.694,156.005,143.965
		 M151.615,144.321c-3.483-0.356-6.577,4.965-6.771,10.988c-0.188,6.027,2.929,11.32,5.477,10.968
		c2.565-0.353,7.149-3.271,6.959-12.237C157.085,145.073,151.615,144.321,151.615,144.321z"/>
	<path fill="#EC1C24" d="M154.71,147.451c0.72,1.271,1.824,3.458,1.655,7.128c-0.166,3.648-1.461,9.888-5.686,10.05
		c-4.202,0.19-4.563-5.483-4.368-9.672c0.166-4.213,1.82-9.153,5.304-9.345C151.615,145.612,153.99,146.156,154.71,147.451
		 M152.525,149.452c-3.288,0-3.119,5.318-3.119,6.423c0,1.083,0.554,4.753,2.929,4.753s3.289-3.483,3.289-6.235
		C155.624,149.66,152.525,149.452,152.525,149.452z"/>
	<path fill="#FFFFFF" d="M152.694,151.287c-2.015,0-2.184,2.918-2.184,4.022c0,1.083,0.551,3.462,1.824,3.462
		c1.271,0,2.519-2.191,2.375-3.814C154.371,151.075,152.694,151.287,152.694,151.287"/>
	<path fill="#231F20" d="M145.448,144.886c0.479-0.025,0.504,0.493,0.647,0.799l-0.025,0.188l0.19-0.421l-0.165,0.114
		c-0.194,0.26-0.647,0.354-0.842,0l-0.021-0.093v0.259v-0.025c0.043-0.047,0.071-0.141,0.093-0.187
		c0.123-0.188,0.051-0.446-0.165-0.54c-0.194-0.119-0.461-0.047-0.532,0.162c-0.044,0.05-0.072,0.097-0.115,0.144l-0.072,0.259
		c-0.028,0.094-0.028,0.188,0.021,0.281l0.051,0.071c0.331,0.799,1.342,0.893,1.965,0.425l0.24-0.165
		c0.119-0.094,0.17-0.213,0.17-0.353v-0.238c-0.17-0.729-0.555-1.528-1.439-1.482c-0.216,0-0.389,0.188-0.389,0.399
		C145.06,144.721,145.232,144.886,145.448,144.886"/>
	<path fill="#231F20" d="M142.663,154.04c0.072-0.047,0.094-0.072,0.144-0.119c-0.05,0-0.144,0-0.216,0l0.335-0.068l-0.432-0.025
		l0.169,0.094c0.504,0.072,0.838,0.519,0.598,0.989l-0.022,0.094l0.191-0.306l-0.072,0.025c-0.169,0.068-0.385,0.115-0.551,0.047
		c-0.05-0.072-0.071-0.213-0.216-0.307c-0.194-0.14-0.432-0.118-0.601,0.047c-0.145,0.188-0.119,0.446,0.047,0.587
		c0.385,0.543,1.079,0.658,1.68,0.378l0.217-0.141c0.071-0.072,0.144-0.19,0.144-0.331v-0.165c0.216-0.634-0.241-1.364-0.863-1.576
		l-0.241-0.094c-0.119-0.094-0.288-0.119-0.407-0.072l-0.169,0.098c0.123-0.025,0.216-0.072,0.339-0.098
		c-0.241,0.072-0.529,0.191-0.698,0.378c-0.119,0.188-0.119,0.446,0.05,0.59C142.278,154.205,142.541,154.205,142.663,154.04"/>
	<path fill="#231F20" d="M144.195,162.866c0.267,0.212,0.576,0.353,0.821,0.633c-0.102,0.544-0.627,0.709-1.13,0.615
		c0.071-0.097,0.071-0.212-0.051-0.355l0.025-0.209l-0.047,0.306l0.072-0.119c0.071-0.071,0.093-0.165,0.165-0.237
		c0.144-0.187,0.144-0.421-0.072-0.586c-0.144-0.141-0.381-0.119-0.55,0.047c-0.047,0.046-0.119,0.118-0.145,0.165l-0.169,0.259
		c-0.021,0.068-0.072,0.166-0.072,0.234v0.237c0.123,0.468,0.339,1.033,0.843,1.058c0.432,0.072,0.863,0.072,1.244-0.187
		c0.508-0.306,0.796-0.968,0.605-1.533c-0.17-0.493-0.677-0.705-1.08-0.985c-0.173-0.141-0.436-0.094-0.554,0.093
		C143.958,162.488,143.979,162.747,144.195,162.866"/>
	<path fill="#231F20" d="M149.55,167.713c0.094,0.025,0.166,0.118,0.237,0.259l0.051,0.306l0.05-0.446l0.072-0.046
		c-0.359,0.093-0.651,0.331-1.036,0.306l-0.237-0.331l0.237,0.564l0.051-0.094c0.021-0.068,0.071-0.114,0.118-0.187
		c0.145-0.188,0.098-0.446-0.097-0.59c-0.166-0.094-0.432-0.068-0.576,0.118c-0.047,0.047-0.072,0.094-0.118,0.141l-0.119,0.284
		c-0.051,0.141-0.025,0.327,0.094,0.446l0.05,0.047c0.407,0.777,1.346,0.306,1.943,0.047l0.241-0.188
		c0.047-0.094,0.097-0.188,0.097-0.284v-0.188c-0.144-0.564-0.604-1.176-1.223-0.964c-0.245,0.025-0.364,0.28-0.317,0.472
		C149.093,167.619,149.334,167.76,149.55,167.713"/>
	<path fill="#231F20" d="M154.473,165.007c0.071,0.166,0.021,0.353,0.043,0.519c-0.021-0.025-0.021-0.094-0.043-0.094
		c-0.076-0.072-0.147,0-0.194,0c0.047,0,0.071,0,0.118,0c-0.144-0.166-0.406-0.188-0.575,0c-0.169,0.141-0.191,0.378,0,0.54
		c0.287,0.424,0.889,0.284,1.248,0c0.36-0.307,0.339-0.824,0.194-1.245c-0.101-0.213-0.316-0.306-0.554-0.237
		C154.516,164.561,154.396,164.773,154.473,165.007"/>
	<path fill="#231F20" d="M151.421,141.777c0.194,0.118,0.432,0.187,0.529,0.424c0,0.047-0.025,0.068-0.025,0.068l-0.119,0.26
		l0.216-0.26l-0.144,0.098c-0.19,0.021-0.385,0-0.576,0c0.047,0,0.119,0,0.17-0.025c-0.17-0.165-0.41-0.165-0.602-0.021
		c-0.144,0.162-0.169,0.421,0,0.587c0.288,0.377,0.817,0.306,1.249,0.233l0.237-0.115c0.098-0.047,0.169-0.118,0.216-0.212
		l0.098-0.259l-0.025,0.024c0.266-0.662-0.216-1.273-0.792-1.532c-0.237-0.115-0.479-0.047-0.575,0.165
		C151.158,141.378,151.23,141.658,151.421,141.777"/>
	<path fill="#231F20" d="M156.221,147.613c0.145,0.212,0.241,0.472,0.288,0.73c0,0.237,0.169,0.399,0.41,0.378
		c0.237,0,0.406-0.19,0.406-0.425c0-0.399-0.169-0.799-0.406-1.155c-0.122-0.187-0.385-0.233-0.575-0.115
		C156.149,147.142,156.103,147.379,156.221,147.613"/>
	<path fill="#231F20" d="M157.517,155.734c0.097,0.212,0.097,0.446,0.097,0.684l-0.025-0.072c-0.144,0.188-0.071,0.446,0.098,0.565
		c0.19,0.118,0.457,0.072,0.575-0.119c0.313-0.421,0.145-1.011-0.024-1.457c-0.119-0.212-0.36-0.259-0.576-0.165
		C157.47,155.263,157.423,155.547,157.517,155.734"/>
	<path fill="#0071BB" d="M144.844,155.688l-4.462,0.565c0,0-0.072,1.763,0.194,3.343c0.288,1.575,0.359,2.399,0.359,2.399
		l4.39-2.072L144.844,155.688"/>
	<path fill="#0071BB" d="M145.88,142.083l2.519,3.437c0,0,0.91-0.752,1.439-0.965c0.554-0.187,1.248-0.259,1.248-0.259l-1.515-3.977
		c0,0-1.295,0.26-1.918,0.612C147.031,141.284,145.88,142.083,145.88,142.083"/>
	<path fill="#FFCC02" d="M155.479,168.774c0,0,1.224-1.508,1.63-2.072c0.407-0.519,0.982-0.73,0.982-0.73s1.706,1.295,2.116,1.788
		c0.402,0.471-1.418,0.684-2.595,0.802C156.437,168.702,155.479,168.774,155.479,168.774"/>
	<path fill="#FFFFFF" d="M122.333,130.245c0,0-3.36,3.271-1.917,6.308c1.439,2.99,3.911,4.918,3.911,4.918s-0.144-0.964,0.817-2.047
		c0.961-1.104,1.439-1.788,1.439-1.788s-4.25-1.364-4.394-3.648c-0.119-2.235,0.216-3.411,0.216-3.411L122.333,130.245"/>
	<path fill="#FFFFFF" d="M125.478,142.083c0,0,0.216-2.26,1.439-3.411c1.249-1.177,2.548-2.26,2.548-2.26l0.144-0.353
		c0,0-1.442-2.824,1.102-2.943c2.519-0.141,1.705,0.752,1.705,1.508c0,0.752-0.554,1.292-0.96,1.363
		c-0.407,0.072-0.217,0.472,0.287,0.425c0.479-0.072,1.559-0.425,1.918-0.072c0.313,0.353-2.205,1.979-2.062,3.908
		s0.816,3.151,1.773,3.717c0.965,0.518,4.25,0.118,4.25,0.118s0.288,3.084-1.63,2.804c-1.922-0.26-1.655-0.403-2.954-1.767
		C129.465,145.26,125.478,142.083,125.478,142.083"/>
	<path fill="#FFFFFF" d="M133.517,137.963c0,0-1.245,0.896-1.245,2.616c0,1.716,2.138,3.151,2.138,3.151s-1.037-1.694-0.965-3.296
		C133.517,138.858,133.517,137.963,133.517,137.963"/>
	<path fill="#FFFFFF" d="M134.884,138.2c0,0-0.691,1.296-0.619,2.307c0.072,1.036,0.835,2.634,0.835,2.634s5.883,0.119,7.754-4.282
		c1.846-4.379-1.773-7.603-1.773-7.603s1.198,4.66-0.842,5.628C138.173,137.848,134.884,138.2,134.884,138.2"/>
	<path fill="#0071BB" d="M124.737,140.035c0,0-1.731-1.223-2.044-1.835c-0.36-0.637-0.838-1.647-0.838-1.647
		s1.295,1.154,2.062,1.554c0.749,0.421,1.777,0.612,1.777,0.612L124.737,140.035"/>
	<path fill="#0071BB" d="M126.654,142.86c0,0,2.063-3.037,3.142-4.142c1.108-1.083,1.946-2.307,1.946-2.307l1.224-0.284
		c0,0-1.558,1.979-2.134,3.768c-0.529,1.788-0.529,4.753-0.529,4.753s-1.176-0.493-2.064-0.918
		C127.327,143.331,126.654,142.86,126.654,142.86"/>
	<path fill="#0071BB" d="M130.782,133.915c0.697,0,1.248-0.188,1.248-0.399s-0.551-0.374-1.248-0.374
		c-0.698,0-1.274,0.162-1.274,0.374S130.084,133.915,130.782,133.915"/>
	<path fill="#0071BB" d="M134.696,139.823c0,0,3.548,0.425,4.699-0.399c1.181-0.824,2.234-1.389,2.234-1.389
		s-1.392,3.104-3.386,3.249c-1.989,0.115-3.548,0-3.548,0s-0.071-0.284-0.071-0.705
		C134.625,140.176,134.696,139.823,134.696,139.823"/>
	<path fill="#FFFFFF" d="M150.799,136.459c0,0-0.623,0.425-0.623,0.777c0,0.327-0.144,0.799-0.144,0.799l0.91-0.072
		c0,0-0.216-0.327-0.216-0.658C150.727,136.952,150.799,136.459,150.799,136.459"/>
	<path fill="#FFFFFF" d="M154.3,138.719l0.604-0.119c0,0,0.575-0.637,1.245-0.141c0.697,0.472,0.889,0.965,0.503,1.084
		c-0.432,0.165-0.838,0.093-0.838,0.28c0,0.212,0.694,0.684,0.889,0.425c0.216-0.284,1.245-0.752,0.767-0.141
		c-0.504,0.611-1.536,1.032-1.846,0.68c-0.339-0.353-0.145-0.892-0.72-1.436c-0.533-0.539-0.194-0.752-0.194-0.752"/>
	<path fill="#FFFFFF" d="M159.1,140.932c0,0-0.813-0.145-0.885,0.705c-0.072,0.799-0.267,1.835,0.262,2.094
		c0.576,0.284,1.443,0.638,2.811-0.684c1.389-1.291,1.846-2.493,1.749-3.339c-0.166-0.989-1.173-2.756-1.461-2.616
		c-0.288,0.145,0.479,1.58,0,2.616c-0.432,0.918-0.698,1.079-1.151,1.177C159.92,140.932,159.1,140.932,159.1,140.932"/>
	<polyline fill="#FFFFFF" points="158.092,140.366 157.66,141.684 156.966,141.071 158.092,140.366 	"/>
	<path fill="#FFCC02" d="M200.551,191.227c1.316-0.093,2.854-0.353,3.357-0.496c0.838-0.209,0.889-0.28,0.889-0.28l-1.994-8.024
		c0,0-2.784,2.8-5.612,2.328c-2.811-0.493-3.628-0.684-4.872-1.576c-1.249-0.896-31.895-20.877-32.326-21.063
		c-0.41-0.213-0.677-0.047-0.893-0.119c-0.216-0.094-0.479,0.213-0.479,0.213l-0.216,2.115c0,0,39.119,26.267,40.224,26.738
		c0.191,0.072,1.224,1.576,4.128,1.508c2.882-0.072,2.81-1.083,2.81-1.083l-0.554-0.425c0,0-1.151,0.849-3.146,0.637
		C199.853,191.486,200.551,191.227,200.551,191.227"/>
	<path fill="#FFCC02" d="M186.223,168.939c0,0-1.777,2.116-2.666,2.94c-0.91,0.802-1.846,1.788-1.846,1.788l-1.202-0.425
		l4.728-4.541L186.223,168.939"/>
	<polyline fill="#FFCC02" points="185.524,167.972 179.62,172.682 178.875,172.211 184.276,167.666 185.524,167.972 	"/>
	<polyline fill="#FFCC02" points="183.798,167.619 182.837,167.126 176.598,171.103 178.443,171.714 183.798,167.619 	"/>
	<polyline fill="#FFCC02" points="182.164,167.008 180.725,166.515 174.147,169.951 175.853,170.774 182.164,167.008 	"/>
	<polyline fill="#FFCC02" points="180.171,166.324 174.075,169.454 172.758,168.939 179.069,165.972 180.171,166.324 	"/>
	<path fill="#FFCC02" d="M178.396,165.759l-5.231,2.26l-0.551-0.259c0,0,1.245-1.245,1.655-1.576
		c0.382-0.353,0.957-0.824,0.957-0.824l3.001,0.213L178.396,165.759"/>
	<polyline fill="#FFCC02" points="176.191,162.276 175.421,163.759 211.518,174.279 214.947,172.279 176.479,161.854 
		176.191,162.276 	"/>
	<polyline fill="#FFCC02" points="191.789,162.488 190.108,164.255 189.22,164.043 190.879,162.208 191.789,162.488 	"/>
	<polyline fill="#FFCC02" points="190.037,162.114 188.331,163.759 186.964,163.571 189.102,161.783 190.037,162.114 	"/>
	<polyline fill="#FFCC02" points="188.331,161.783 186.558,163.146 185.381,162.888 186.629,161.711 188.331,161.783 	"/>
	<polyline fill="#FFCC02" points="185.719,161.643 184.755,162.606 184.683,161.995 185.618,161.171 186.054,161.499 
		185.719,161.643 	"/>
	<path fill="#FFCC02" d="M222.579,163.219l2.544,2.54c0,0-0.145,0.59-0.576,0.871c-0.406,0.31,0.767,0,0.961-0.115
		c0.237-0.166,0.575-0.047,0.575-0.047s-1.392,1.292-1.993,1.292c-0.647,0-37.724-7.226-37.724-7.226s0.335-0.727,0.67-1.083
		c0.338-0.353,0.601-0.611,0.601-0.611s29.088,5.742,31.149,5.979C220.83,165.007,222.579,163.219,222.579,163.219"/>
	<path fill="#FFCC02" d="M192.174,156.652l-0.385,1.295c0,0,24.601,2.681,26.328,2.871c1.702,0.213,2.446,0,2.713-0.331
		c0.31-0.353,0.576-0.823,0.576-0.823l-2.764-1.364c0,0-0.957,0.942-2.591,0.73C214.396,158.84,192.174,156.652,192.174,156.652"/>
	<path fill="#FFFFFF" d="M171.535,143.331c0,0,1.295,0.399,2.252,1.037c0.965,0.611,2.21,2.939,3.026,7.599
		c0.816,4.686-0.694,6.991-1.73,10.101c-1.008,3.08-2.375,6.448-7.196,4.447c-4.801-2.001-4.585-11.464-3.361-16.383
		c1.224-4.94,4.103-6.732,6.794-6.732L171.535,143.331 M171.606,146.483c-1.777,0-5.138,2.756-4.943,8.779
		c0.19,6.049,1.486,8.78,4.224,8.852c2.757,0.068,4.699-5.887,4.628-9.322c-0.094-3.437-0.763-5.718-1.871-6.941
		C172.563,146.627,171.606,146.483,171.606,146.483z"/>
	<path fill="#EC1C24" d="M173.428,148.955c0.77,0.871,1.13,3.225,1.324,5.556c0.187,2.328-1.108,8.096-3.648,8.309
		c-2.522,0.187-3.556-2.001-3.818-7.085c-0.288-5.059,2.738-7.956,4.44-7.956C171.726,147.778,172.708,148.063,173.428,148.955
		 M172.061,150.531c-1.174,0.072-2.663,1.249-2.591,4.731c0.047,3.509,1.224,4.872,2.662,4.804c1.439-0.071,1.512-1.036,1.943-1.932
		c0.41-0.871,0.863-2.4,0.677-3.624c-0.194-1.223-0.339-3.155-1.228-3.576C172.614,150.531,172.061,150.531,172.061,150.531z"/>
	<polyline fill="#0071BB" points="166.663,154.086 163.972,153.968 163.756,157.336 166.781,157.336 166.663,154.086 	"/>
	<path fill="#0071BB" d="M172.708,147.049l0.72-2.753c0,0,1.396,0.896,2.087,2.591c0.677,1.716,0.748,2.54,0.748,2.54l-1.439,0.399
		c0,0-0.071-0.871-0.626-1.41C173.644,147.851,172.708,147.049,172.708,147.049"/>
	<path fill="#231F20" d="M164.691,152.65c0.266,0.307,0.697,0.446,1.058,0.472h0.169c0.119,0,0.241-0.025,0.313-0.141l0.071-0.118
		c0.288-0.234,0.454-0.591,0.576-0.896l0.047-0.233c0.025-0.094-0.025-0.188-0.072-0.306l-0.097-0.141
		c-0.454-0.403-1.102-0.965-1.749-0.519c-0.216,0.115-0.267,0.375-0.173,0.587c0.144,0.19,0.41,0.237,0.604,0.119
		c-0.051,0-0.101,0-0.173-0.022c0.245-0.097,0.482,0.094,0.698,0.209l0.216,0.259l-0.072-0.28l-0.046,0.188
		c-0.072,0.118-0.145,0.259-0.263,0.353l-0.217,0.306l0.335-0.162l-0.169-0.025c-0.216,0-0.338-0.094-0.482-0.187v-0.025
		c-0.115-0.166-0.402-0.166-0.575-0.021C164.547,152.227,164.547,152.485,164.691,152.65"/>
	<path fill="#231F20" d="M168.581,144.695c-0.335,0.19-0.648,0.425-0.936,0.684l-0.145,0.259c-0.047,0.141,0,0.327,0.119,0.425
		l0.122,0.115c0.694,0.59,2.065,0.942,2.612,0.025c0.122-0.213,0.072-0.472-0.115-0.565c-0.194-0.141-0.46-0.072-0.575,0.094
		c0.043,0.047,0.043,0.094,0.043,0.141c-0.504,0.118-0.982,0.024-1.389-0.307l-0.123-0.093l0.098,0.446l0.072-0.047
		c0.169-0.213,0.406-0.353,0.622-0.493c0.194-0.094,0.288-0.331,0.144-0.543C169.013,144.648,168.771,144.58,168.581,144.695"/>
	<path fill="#231F20" d="M172.398,145.285c-0.072,0.259-0.097,0.54,0.144,0.777l-0.097-0.072c0.047,0.141,0.144,0.213,0.288,0.234
		l-0.047-0.021c0.263,0.212,0.597,0.233,1.007,0.118c0.217-0.097,0.288-0.356,0.191-0.543c-0.098-0.213-0.36-0.306-0.551-0.213
		c0.094,0.047,0.19,0.072,0.263,0.094c-0.098-0.021-0.19-0.068-0.313-0.094l-0.381-0.114l0.31,0.233l-0.047,0.021
		c-0.025-0.094-0.047-0.162,0.047-0.233c0.024-0.234-0.094-0.472-0.31-0.493C172.687,144.907,172.471,145.073,172.398,145.285"/>
	<path fill="#231F20" d="M175.472,151.355c0.021,0.072,0.021,0.144,0.043,0.237c0.028,0.212,0.244,0.374,0.436,0.353
		c0.216,0,0.359-0.212,0.359-0.446c0-0.144-0.025-0.284-0.072-0.402c-0.071-0.213-0.287-0.328-0.528-0.281
		C175.515,150.909,175.37,151.144,175.472,151.355"/>
	<path fill="#231F20" d="M175.256,158.3c-0.051,0.094-0.072,0.212-0.123,0.306c-0.071,0.213,0.021,0.446,0.237,0.54
		c0.216,0.072,0.461-0.047,0.533-0.234c0.047-0.14,0.094-0.233,0.144-0.353c0.047-0.212-0.05-0.446-0.267-0.518
		C175.543,157.947,175.327,158.066,175.256,158.3"/>
	<path fill="#231F20" d="M173.093,163.571c0,0.188,0.072,0.378-0.047,0.519c-0.071,0.071-0.194,0.071-0.288,0.118
		c0,0,0-0.047,0.022-0.047c-0.217-0.094-0.454,0.047-0.551,0.26c-0.047,0.208,0.097,0.445,0.313,0.518
		c0.407,0.141,0.864,0,1.127-0.31c0.263-0.28,0.263-0.68,0.241-1.058c0-0.234-0.17-0.425-0.386-0.425
		C173.283,163.146,173.093,163.337,173.093,163.571"/>
	<path fill="#231F20" d="M169.131,165.266c0.051,0.047,0.072,0.094,0.123,0.166c-0.194,0.094-0.386-0.072-0.555,0h-0.118
		l0.216,0.021h-0.025c-0.144-0.141-0.19-0.374-0.072-0.54c0.051-0.259-0.118-0.446-0.334-0.492
		c-0.241-0.025-0.433,0.114-0.479,0.353c-0.145,0.421-0.051,0.938,0.309,1.27l0.17,0.141c0.071,0.025,0.144,0.072,0.216,0.072h0.19
		c0.576,0.093,1.202-0.331,1.18-0.99c0-0.212-0.193-0.399-0.435-0.399C169.301,164.866,169.131,165.054,169.131,165.266"/>
	<path fill="#231F20" d="M165.439,159.03c0.094,0,0.188,0,0.288,0h0.263l-0.335-0.144l0.094,0.118c0.122,0.166-0.047,0.331,0,0.519
		v0.165l0.169-0.331l-0.169,0.166c-0.094,0.118-0.216,0.165-0.288,0.233c-0.072,0.051-0.216,0.098-0.237-0.233
		c0,0,0.021,0.025,0.043,0.025c-0.043-0.213-0.288-0.331-0.475-0.284c-0.245,0.071-0.389,0.284-0.316,0.518
		c0.101,0.54,0.626,0.871,1.18,0.752c0.263-0.047,0.432-0.233,0.647-0.399l0.166-0.165c0.072-0.068,0.122-0.162,0.122-0.281v-0.165
		c-0.025-0.306,0.021-0.612-0.072-0.918l-0.216-0.233c-0.071-0.098-0.194-0.145-0.313-0.145h-0.072c0.072,0,0.145,0.025,0.241,0.047
		c-0.241-0.093-0.504-0.047-0.72-0.047s-0.41,0.166-0.41,0.378C165.029,158.865,165.224,159.03,165.439,159.03"/>
	<path fill="#FFFFFF" d="M172.276,151.92c-1.008,0-1.85,2.332-1.728,3.274c0.145,0.965,0.457,3.178,1.512,3.178
		c1.104,0,1.85-2.001,1.799-3.58C173.787,153.216,173.283,151.92,172.276,151.92"/>
	<path fill="#FFFFFF" d="M184.971,145.048c-1.583-0.353-4.39,0.403-5.207,3.627c-0.838,3.245-1.032,4.8-0.961,7.013
		c0.072,2.188,1.108,6.023,2.908,6.521c1.773,0.445,2.493,0.093,3.476-1.461c0.964-1.551,1.634-3.908,1.634-3.908
		s-1.512,3.296-3.264,3.156c-1.824-0.119-2.565-3.343-2.565-5.416c0-2.047,1.223-6.635,3.356-6.516
		c2.138,0.114,2.544,1.644,2.544,1.644S186.558,145.379,184.971,145.048"/>
	<path fill="#FFFFFF" d="M185.791,151.708c-0.863,0.072-1.299,1.015-1.228,2.119c0.072,1.108,0.263,2.447,1.155,2.447
		c0.91,0,1.414-1.623,1.367-2.447C187.036,151.967,185.791,151.708,185.791,151.708"/>
	<path fill="#EC1C24" d="M186.558,151.355c0,0-0.407-2.469-1.63-2.469c-1.253,0-3.217,1.436-3.052,5.412
		c0.216,4.001,1.512,5.012,2.138,4.897c0.622-0.166,2.04-2.001,2.04-2.001s-2.185,1.104-2.256-3.155
		C183.747,149.758,186.558,151.355,186.558,151.355"/>
	<path fill="#0071BB" d="M182.286,159.311l-1.777,2.001c0,0,0.698,1.177,2.544,0.896c1.875-0.307,2.134-1.461,2.134-1.461
		l-1.029-0.871c0,0-0.41,0.19-0.889,0C182.765,159.664,182.286,159.311,182.286,159.311"/>
	<polyline fill="#0071BB" points="182.38,149.143 180.314,147.308 179.357,150.322 181.732,150.884 	"/>
	<path fill="#231F20" d="M180.149,152.579c-0.051-0.021-0.072-0.047-0.123-0.094v-0.162l-0.043,0.209l0.094-0.188
		c0.021,0,0.021-0.021,0.021-0.021h0.028c0.188-0.144,0.216-0.378,0.094-0.543c-0.122-0.213-0.41-0.234-0.575-0.119
		c-0.123,0.098-0.194,0.166-0.288,0.259l-0.072,0.191c-0.05,0.068-0.071,0.161-0.071,0.233v0.094l0.021-0.141
		c-0.047,0.306,0.05,0.637,0.287,0.824c0.145,0.188,0.41,0.212,0.576,0.047C180.271,153.028,180.293,152.77,180.149,152.579"/>
	<path fill="#231F20" d="M179.451,158.182c0.169,0.424,0.676,0.684,1.13,0.564l-0.072,0.025c0.094,0,0.216-0.047,0.267-0.094
		l0.144-0.166c0.19-0.212,0.237-0.496,0.216-0.755c0-0.234-0.169-0.421-0.41-0.421c-0.216,0-0.41,0.187-0.41,0.421
		c0,0.05,0,0.118,0,0.118l-0.021,0.166l0.237-0.094h-0.094c-0.094,0.021-0.216,0-0.338-0.025c0.051-0.047,0.072-0.068,0.101-0.094
		c-0.101-0.212-0.316-0.306-0.554-0.212C179.451,157.71,179.357,157.969,179.451,158.182"/>
	<path fill="#231F20" d="M182.79,146.581c-0.216,0.208-0.432,0.399-0.457,0.752l-0.047-0.094c0,0.115,0,0.212,0.072,0.259
		l0.021,0.094c0.051,0.021,0.051,0.068,0.072,0.094l0.071,0.047c0.025,0.093,0.098,0.118,0.169,0.14l0.191,0.047
		c0.601,0.047,1.367-0.047,1.583-0.727c0.072-0.237-0.047-0.472-0.288-0.519c-0.216-0.071-0.432,0.047-0.479,0.26
		c-0.216,0.115-0.432,0.187-0.622,0.161h-0.145l0.191,0.098l-0.047-0.051l0.047,0.098l-0.047-0.098l0.047,0.26v-0.022
		c0.047-0.071,0.118-0.093,0.19-0.165c0.169-0.141,0.194-0.399,0.072-0.564C183.222,146.462,182.934,146.437,182.79,146.581"/>
	<path fill="#231F20" d="M183.222,161.499c0.072-0.021,0.166-0.047,0.216-0.068c0.216-0.072,0.36-0.284,0.31-0.519
		c-0.072-0.188-0.31-0.331-0.525-0.259c-0.072,0-0.144,0.025-0.194,0.047c-0.237,0.047-0.381,0.284-0.288,0.518
		C182.79,161.431,183.027,161.549,183.222,161.499"/>
	<path fill="#FFFFFF" d="M191.142,147.991c0,0,0-1.648-0.673-1.576c-0.698,0.068-2.256,2.354-2.256,5.293
		c0,2.943,0.118,4.872,0.601,5.675c0.479,0.845,0.118,0.989,1.224,0.989c1.104,0,1.295-0.684,1.295-0.684s-1.752-1.86-1.562-5.649
		c0.216-3.768-0.047-3.861,0.626-4.188C191.069,147.498,191.142,147.991,191.142,147.991"/>
	<path fill="#EC1C24" d="M190.807,148.769c0,0-0.482,0.586-0.41,2.871c0.072,2.26,0.338,3.623,0.482,4.188
		c0.144,0.543,0.741,1.011,0.741,1.011l0.072-1.224c0,0-0.119-1.316-0.217-3.151c-0.071-1.86-0.071-2.638,0-2.965
		c0.098-0.356,0.313-0.896-0.071-1.015C191.069,148.344,190.807,148.769,190.807,148.769"/>
	<path fill="#FFFFFF" d="M192.103,151.144c0,0-0.194,1.248-0.123,1.579c0.072,0.353,0.339,1.648,0.339,1.648
		s0.766-0.119,0.694-1.508C192.915,151.499,192.103,151.144,192.103,151.144"/>
	<polyline fill="#0071BB" points="189.771,150.815 188.284,150.744 188.284,154.252 189.771,153.899 189.771,150.815 	"/>
	<path fill="#231F20" d="M188.932,149.239c0,0.213,0.217,0.421,0.433,0.421s0.406-0.208,0.406-0.421c0-0.237-0.19-0.424-0.406-0.424
		S188.932,149.002,188.932,149.239"/>
	<path fill="#231F20" d="M189.029,156.983c0.021,0.046,0.072,0.14,0.119,0.187l-0.047-0.025c0.047,0.098,0.118,0.166,0.237,0.191
		l0.169,0.047c0.119,0,0.263,0,0.385,0c0.237,0,0.432-0.188,0.432-0.399c0-0.213-0.194-0.403-0.41-0.403c-0.047,0-0.118,0-0.19,0
		l-0.144-0.047l0.263,0.237l-0.047-0.047c-0.025-0.025-0.072-0.094-0.119-0.165c0.047,0.021,0.047,0.071,0.094,0.071
		c-0.094-0.19-0.359-0.306-0.551-0.19C189.029,156.512,188.907,156.771,189.029,156.983"/>
	<path fill="#FFCC02" d="M217.3,173.103l2.447,8.92l3.313-1.389l-1.777-8.211c0,0,0.673-0.425,0.936,0
		c0.288,0.399,1.922,7.271,2.087,7.671c0.145,0.399,0.386,1.105,0.386,1.105l-3.408,1.788l0.41,0.968l3.814-2.354
		c0,0,0.144-3.979-0.698-5.908c-0.813-1.886-1.224-4.095-2.036-4.379c-0.817-0.259-0.961-0.684-1.634-0.141
		C220.441,171.714,217.3,173.103,217.3,173.103"/>
	<polyline fill="#FFCC02" points="235.684,160.487 239.116,165.972 240.603,164.467 237.749,158.84 235.684,160.487 	"/>
	<path fill="#FFCC02" d="M240.073,167.194l1.252,0.968c0,0,2.591-1.813,2.447-2.19c-0.123-0.399-0.673-3.577-1.512-4.541
		c-0.82-0.943-2.619-3.556-2.619-3.556s-0.936-0.823-0.525,0.544c0.406,1.389,1.486,4.234,1.777,4.8
		c0.259,0.54,1.245,1.788,1.245,1.788s0.961,1.083,0.529,0.965c-0.407-0.141-1.228-0.399-1.228-0.399l-1.224,1.223L240.073,167.194"
		/>
	<polyline fill="#FFCC02" points="228.411,152.935 227.738,153.899 231.726,157.735 232.373,155.946 228.797,152.791 
		229.084,151.708 233.067,155.547 234.46,155.403 229.897,151.287 229.084,151.708 228.411,152.935 	"/>
	<polyline fill="#FFCC02" points="232.373,157.616 233.618,158.016 234.46,156.792 233.212,156.371 232.373,157.616 	"/>
	<polyline fill="#FFCC02" points="222.507,151.546 222.101,152.65 225.123,154.158 225.796,153.356 222.507,151.546 	"/>
	<polyline fill="#0071BB" points="203.573,182.167 206.042,189.697 208.395,188.614 204.797,181.199 203.573,182.167 	"/>
	<polyline fill="#0071BB" points="206.596,190.263 207.269,191.062 209.187,190.263 208.805,189.438 206.596,190.263 	"/>
	<polyline fill="#0071BB" points="206.452,180.234 209.885,187.909 211.518,186.801 208.229,178.846 206.452,180.234 	"/>
	<polyline fill="#0071BB" points="210.554,188.729 210.964,189.438 212.356,188.19 211.662,187.507 210.842,188.19 210.554,188.729 
			"/>
	<polyline fill="#0071BB" points="209.618,178.188 212.741,186.002 215.235,185.038 211.662,176.798 209.618,178.188 	"/>
	<polyline fill="#0071BB" points="213.317,186.941 213.867,188.05 215.908,186.941 215.354,185.858 213.317,186.941 	"/>
	<polyline fill="#0071BB" points="212.741,175.693 216.605,183.955 218.643,182.706 216.437,173.927 212.741,175.693 	"/>
	<polyline fill="#0071BB" points="217.563,185.858 217.013,184.895 219.484,183.789 220.035,184.635 217.563,185.858 	"/>
	<polyline fill="#0071BB" points="227.044,170.066 230.211,175.575 231.581,174.067 228.556,168.562 227.044,170.066 	"/>
	<polyline fill="#0071BB" points="230.739,176.114 231.581,176.938 232.661,176.259 231.963,175.15 230.739,176.114 	"/>
	<polyline fill="#0071BB" points="229.229,167.36 232.661,172.938 234.46,171.314 230.739,165.572 229.229,167.36 	"/>
	<polyline fill="#0071BB" points="233.067,173.668 234.723,172.423 235.684,173.668 234.028,174.892 233.355,174.067 
		233.067,173.668 	"/>
	<polyline fill="#0071BB" points="231.581,165.432 235.107,170.066 236.907,168.843 233.067,163.644 231.581,165.432 	"/>
	<polyline fill="#0071BB" points="235.827,171.174 237.051,172.423 238.274,170.49 237.461,169.667 235.827,171.174 	"/>
	<polyline fill="#0071BB" points="233.906,162.819 237.317,167.76 238.587,166.63 235.252,161.031 233.906,162.819 	"/>
	<path fill="#0071BB" d="M238.155,168.986l0.817,1.245l1.511-1.389l-1.104-1.083C239.379,167.76,238.587,168.843,238.155,168.986"/>
	<path fill="#FFCC02" d="M226.493,171.056l-1.107,0.942l1.107,5.908c0,0,0.67,0.824,1.245,0.681
		c0.529-0.141,2.857-1.105,2.857-1.105v-0.399l-0.385-0.399l-2.616,1.224l-0.288-0.824l1.777-0.823l-2.734-4.825"/>
	<polyline fill="#0071BB" points="223.061,162.535 225.796,165.572 227.044,163.644 223.586,161.171 223.061,162.535 	"/>
	<polyline fill="#0071BB" points="227.429,164.467 226.612,165.432 227.163,166.09 228.268,165.147 227.429,164.467 	"/>
	<polyline fill="#0071BB" points="224.691,159.808 227.595,162.535 228.674,161.431 225.386,158.699 224.691,159.808 	"/>
	<polyline fill="#0071BB" points="229.084,162.276 228.268,162.96 229.084,163.644 229.897,162.653 229.084,162.276 	"/>
	<polyline fill="#0071BB" points="226.612,156.652 225.651,158.016 229.229,160.487 230.041,159.383 226.612,156.652 	"/>
	<polyline fill="#0071BB" points="230.596,160.487 229.778,161.431 230.329,161.711 231.149,160.628 230.596,160.487 	"/>
	<polyline fill="#0071BB" points="227.044,155.263 230.451,158.699 231.149,157.735 227.738,154.724 227.044,155.263 	"/>
	<polyline fill="#0071BB" points="231.726,158.559 231.149,159.383 231.726,159.923 232.373,158.84 231.726,158.559 	"/>
	<polyline fill="#0071BB" points="221.813,153.075 221.406,153.899 224.45,155.403 224.81,154.579 221.813,153.075 	"/>
	<polyline fill="#0071BB" points="220.83,154.579 223.586,156.253 223.874,155.688 221.283,154.299 220.83,154.579 	"/>
	<polyline fill="#0071BB" points="220.441,155.263 219.891,156.371 222.917,157.875 223.323,156.911 220.441,155.263 	"/>
	<polyline fill="#231F20" points="219.747,157.052 218.643,157.875 221.813,159.523 222.388,158.419 219.747,157.052 	"/>
	<path fill="#231F20" d="M83.095,128.244c-4.681-1.508-4.537-1.647-5.638-1.647c-1.104,0-3.433-0.685-2.04,0.823
		c1.342,1.508,3.141,2.332,2.997,3.437c-0.119,1.108,0,2.307-0.957,2.871c-0.936,0.544-2.734,0.965-2.734,0.965s0-3.178-3.17-2.728
		c-3.141,0.374-2.328,4.095-2.328,4.095s-0.936,1.245-2.616,0.964c-1.63-0.259-3.407-0.564-3.551-2.331
		c-0.144-1.788,0.266-3.293,0.266-3.717c0-0.399-0.122-1.482-1.49-0.399c-1.392,1.104-3.31,4.516-2.209,7.951
		c1.08,3.437,1.777,4.12,3.577,5.344c1.777,1.249,2.59,1.508,2.59,1.508l-0.119,1.248l-5.494,2.728c0,0-0.964-8.215-4.131-9.319
		s-4.534,0-5.063,3.156c-0.551,3.151-0.695,8.92-0.695,8.92s-2.476,2.871-1.777,5.505c0.647,2.591,0.817,2.591,0.817,2.591
		l-8.783,0.141c0,0-6.146-11.108-7.419-11.673c-1.224-0.543-2.447-0.824-3.285,1.083c-0.838,1.95-2.307,2.774-1.918,4.142
		c0.403,1.363,7.966,11.532,7.966,11.532l5.613,0.54c0,0-5.613,0.658-7.412,0.658c-1.778,0-3.145-0.658-4.778-3.131
		c-1.655-2.468-5.642-10.424-6.312-10.967c-0.698-0.565-3.31-0.986-3.983-0.421c-0.673,0.539-2.328,5.34-2.328,6.729
		c0,1.367,0.525,1.647,2.04,4.379c1.537,2.753,6.862,8.661,7.56,9.061c0.669,0.402,2.591,1.223,4.102,0.964
		c1.511-0.306,17.854-3.292,17.854-3.292s-18.812,6.588-20.589,6.847c-1.799,0.284-1.511,1.39-6.865-4.519
		c-5.351-5.931-8.089-11.792-8.783-11.792c-0.673,0-3.285-0.14-4.106,0.684c-0.838,0.824-2.997,6.991-2.9,8.496
		c0.144,1.507,8.927,10.826,11.111,12.899c2.231,2.068,4.008,3.012,7.153,2.188c3.167-0.799,21.262-6.991,25.626-8.071
		c4.418-1.107,12.939-4.26,12.939-4.26s2.469,3.691,4.368,7.952c1.918,4.26,9.046,14.407,12.911,18.502
		c3.839,4.142,11.665,10.988,14.954,13.18c3.285,2.188,5.347,3.577,8.517,4.94c3.145,1.367,5.905,2.048,5.905,2.048
		s-6.336-4.52-10.442-12.756c-4.124-8.215-9.478-13.299-13.317-37.446C80.911,144.695,80.911,135.635,83.095,128.244"/>
	<path fill="#FFCC02" d="M59.48,161.431l2.353,5.084c0,0,9.334-3.695,11.521-5.344c2.206-1.647,7.823-5.225,7.823-5.225
		l-1.105-6.188c0,0-4.393,1.95-10.294,5.646C63.87,159.099,59.48,161.431,59.48,161.431"/>
	<path fill="#FFCC02" d="M61.833,167.76c0,0,0.525,1.767,0.813,2.472c0.266,0.684,1.511,2.191,1.511,2.191s5.498-1.249,9.197-2.896
		c3.692-1.648,9.334-4.8,9.334-4.8l-1.105-6.711c0,0-5.329,3.695-9.625,5.628C67.713,165.572,61.833,167.76,61.833,167.76"/>
	<path fill="#FFCC02" d="M64.568,173.243l2.04,4.238c0,0,5.351,0.281,9.481-0.799c4.127-1.107,7.966-3.86,7.966-3.86l-0.842-6.192
		c0,0-6.312,3.202-9.046,4.001C71.433,171.434,64.568,173.243,64.568,173.243"/>
	<path fill="#FFCC02" d="M67.856,179.41l2.616,4.919c0,0,3.961-0.115,7.941-1.224c4.008-1.083,7.538-2.188,7.538-2.188l-1.342-5.624
		c0,0-4.152,2.469-8.258,3.293C72.247,179.41,67.856,179.41,67.856,179.41"/>
	<path fill="#FFCC02" d="M71.433,185.858c0,0,2.468,3.839,2.878,4.12c0.411,0.284,1.511,0.284,5.329-0.425
		c3.861-0.68,7.966-1.645,7.966-1.645l-1.342-4.804c0,0-3.17,1.648-7.153,2.191C75.128,185.858,71.433,185.858,71.433,185.858"/>
	<path fill="#FFCC02" d="M75.247,191.486c0,0,1.105,2.188,1.799,2.612c0.698,0.399,1.921,0.539,6.721,0.28
		c4.8-0.28,6.599-0.564,6.599-0.564l-1.799-3.977c0,0-4.102,0.684-7.247,1.224C78.151,191.626,75.247,191.486,75.247,191.486"/>
	<path fill="#FFCC02" d="M77.982,196.146l3.864,3.717c0,0,2.065,0.968,5.354,0.824c3.31-0.141,6.455-0.306,6.455-0.306l-2.76-4.778
		c0,0-3.145,1.083-6.167,0.968c-3.001-0.144-6.434-0.824-6.434-0.824L77.982,196.146"/>
	<path fill="#FFCC02" d="M84.322,202.169c0,0,4.8,4.685,5.757,4.804c0.986,0.141,4.131,0.28,4.131,0.28l3.429-0.539l-3.17-4.545
		c0,0-2.181,0.144-4.102,0.144S84.322,202.169,84.322,202.169"/>
	<path fill="#FFCC02" d="M91.328,208.643l5.905,3.695c0,0,2.59,0.543,3.433,0.543c0.813,0,1.486,0,1.486,0l-3.026-3.274
		c0,0-0.115-0.824-2.591-0.824C94.066,208.782,91.328,208.643,91.328,208.643"/>
	<path fill="#FFCC02" d="M60.991,170.915c0,0-33.333,11.107-36.068,11.651c-2.763,0.539-4.656,0.799-6.192,0
		c-1.515-0.824-1.515-0.965-1.515-0.965l2.738-4.804c0,0,1.536,0.141,2.062,0.824c0.554,0.684,1.511,0.824,1.511,0.824l-2.037-1.907
		l0.669-0.28c0,0,2.188,2.752,5.231,2.047c3.001-0.684,31.132-9.319,31.132-9.319L60.991,170.915"/>
	<path fill="#FFCC02" d="M56.458,166.795c0,0-24.41,5.203-27.022,4.639c-2.62-0.519-3.843-1.767-3.843-1.767l1.943-3.577
		c0,0,0.964,1.529,2.163,1.929c1.249,0.425,1.799,0.284,1.799,0.284l-2.998-2.73l0.237-0.425c0,0,1.249,2.307,4.822,2.73
		c3.577,0.425,4.634-0.259,5.883-0.259c1.249,0,15.238-2.612,15.238-2.612L56.458,166.795"/>
	<path fill="#FFCC02" d="M35.336,162.96c0,0,0.961,1.622,4.25,1.622c3.285,0,13.727-0.823,13.727-0.823l-1.511-2.188
		c0,0-9.888,1.083-10.705,0.544c-0.838-0.544-1.511-1.767-1.511-1.767l-1.227-0.141l1.778,1.788l-2.735-1.108L35.336,162.96"/>
	<polyline fill="#FFCC02" points="8.17,171.88 6.659,168.702 8.843,161.995 11.171,162.114 13.351,164.582 12.009,164.866 
		9.274,162.96 10.786,165.69 8.17,171.88 	"/>
	<path fill="#FFCC02" d="M18.875,160.628l-1.371-2.069c0,0,1.227-4.519,1.634-4.943c0.41-0.399,1.799-0.681,2.353-0.399
		c0.525,0.259,1.777,2.331,1.777,2.331l-1.515,0.141l-1.63-1.788l0.813,2.047L18.875,160.628"/>
	<path fill="#FFCC02" d="M28.881,152.935c0,0,2.065-3.015,2.472-3.436c0.407-0.425,1.249-0.145,1.659,0.421
		c0.381,0.543,0.813,1.224,0.813,1.224l-1.104,0.402l-0.96-1.367l-0.525,1.108l-0.288,1.504l-1.104,1.788L28.881,152.935"/>
	<path fill="#FFFFFF" d="M79.929,136.765c0,0,0,4.12-0.288,5.603c-0.241,1.504,0.169,4.8,0.169,4.8s-6.865,5.084-11.521,7.412
		c-4.678,2.332-9.219,6.049-9.766,5.628c-0.554-0.399-2.882-5.084-2.738-5.628c0.144-0.539,1.799-1.504,2.738-2.328
		c0.957-0.823,8.085-4.943,11.255-6.991c3.167-2.068,5.901-3.86,7.413-5.483C78.68,138.106,79.929,136.765,79.929,136.765"/>
	<path fill="#FFFFFF" d="M77.334,127.704c0.288,0.399,2.26,2.447,2.307,3.977c0.072,1.529,0.169,1.907,0.169,1.907
		s2.181-2.731,2.037-3.415c-0.119-0.68-0.813-1.929-1.63-2.188c-0.817-0.281-2.882-0.705-2.882-0.705V127.704"/>
	<path fill="#FFFFFF" d="M73.354,135.092c0,0,0.187-2.753-1.659-2.188c-3.141,0.964-0.96,2.59-0.96,2.59s-1.922,1.39-2.325,3.577
		c-0.41,2.213-0.41,4.8-0.41,4.8l5.613-4.235c0,0-0.551-1.248,0-2.213c0.554-0.964,0.82-1.363,0.82-1.363l0.432-0.824
		L73.354,135.092"/>
	<path fill="#FFFFFF" d="M62.215,131.681c0,0-3.001,2.446-1.368,7.25c1.177,3.39,5.761,4.541,5.761,4.541s-0.241-2.753,0.432-3.695
		c0.673-0.964,0.673-1.529,0.673-1.529s-2.857,0.965-4.656-1.363C61.279,134.552,62.215,131.681,62.215,131.681"/>
	<path fill="#FFFFFF" d="M59.768,149.92c0,0-2.184-9.035-4.944-8.521c-2.734,0.564-1.101,10.309,0,14.688
		c1.105,4.4,5.617,11.791,5.617,11.791l-2.328-6.566c0,0-0.529,0.119-1.08-0.564c-0.576-0.681-2.472-6.991-2.472-7.672
		c0-0.684,1.08-0.824,1.08-0.824s-2.328-9.204-0.817-9.743c1.511-0.544,2.879,2.871,3.411,4.379
		C58.811,148.416,59.768,149.92,59.768,149.92"/>
	<path fill="#FFFFFF" d="M50.985,153.475c0,0-2.206,2.213-1.655,4.142c0.529,1.907,3.285,2.871,3.285,2.871
		s-0.957-2.612-1.367-3.695C50.841,155.688,50.985,153.475,50.985,153.475"/>
	<polyline fill="#0071BB" points="8.58,172.139 11.721,167.055 13.351,168.843 9.825,173.387 8.58,172.139 	"/>
	<polyline fill="#0071BB" points="9.947,173.808 11.336,175.15 15.057,170.915 13.931,170.066 9.947,173.808 	"/>
	<polyline fill="#0071BB" points="11.865,175.975 15.442,171.88 16.546,173.103 12.991,176.938 11.865,175.975 	"/>
	<polyline fill="#0071BB" points="14.459,177.906 17.216,174.352 18.058,175.15 15.179,179.13 13.931,178.306 14.459,177.906 	"/>
	<polyline fill="#0071BB" points="18.73,175.834 15.992,179.81 16.69,180.777 19.281,176.539 18.73,175.834 	"/>
	<polyline fill="#0071BB" points="12.271,166.515 13.812,168.162 15.179,167.619 14.625,166.256 12.271,166.515 	"/>
	<polyline fill="#0071BB" points="14.625,168.986 15.848,170.231 16.809,169.386 15.992,168.443 14.625,168.986 	"/>
	<polyline fill="#0071BB" points="16.28,171.056 17.216,171.998 18.346,171.174 17.216,169.951 16.28,171.056 	"/>
	<polyline fill="#0071BB" points="17.914,173.103 18.875,174.211 19.954,173.387 18.73,172.279 17.914,173.103 	"/>
	<polyline fill="#0071BB" points="19.835,175.15 20.36,175.693 21.634,175.294 20.648,174.352 19.835,175.15 	"/>
	<polyline fill="#0071BB" points="21.177,158.016 19.547,161.854 20.267,162.653 22.447,159.664 21.634,157.875 21.177,158.016 	"/>
	<polyline fill="#0071BB" points="21.08,163.644 21.753,164.866 24.225,161.995 23.268,161.031 21.08,163.644 	"/>
	<polyline fill="#0071BB" points="22.304,166.256 23.124,167.194 26.024,164.467 24.779,162.96 22.304,166.256 	"/>
	<path fill="#0071BB" d="M23.937,168.162l2.497-3.296l0.813,0.824c0,0-0.695,0.824-1.655,1.67c-0.957,0.802-0.669,1.626-0.669,1.626
		L23.937,168.162"/>
	<polyline fill="#0071BB" points="22.447,156.792 23.383,158.699 24.635,157.875 23.818,156.371 22.447,156.792 	"/>
	<polyline fill="#0071BB" points="23.818,159.808 24.923,160.887 26.146,160.207 25.042,158.958 23.818,159.808 	"/>
	<polyline fill="#0071BB" points="25.592,161.995 26.434,162.819 26.959,162.395 26.434,161.171 25.592,161.995 	"/>
	<polyline fill="#0071BB" points="26.959,163.644 27.658,164.323 28.327,163.902 27.78,163.219 26.959,163.644 	"/>
	<polyline fill="#0071BB" points="32.313,152.392 29.698,155.547 30.802,156.253 33.012,154.863 32.313,152.392 	"/>
	<polyline fill="#0071BB" points="31.497,157.336 32.458,158.419 34.667,156.253 34.091,155.403 31.497,157.336 	"/>
	<polyline fill="#0071BB" points="33.127,159.383 33.681,160.348 36.034,158.559 34.786,157.451 33.127,159.383 	"/>
	<polyline fill="#0071BB" points="35.746,160.628 34.257,161.312 34.93,162.114 35.746,160.628 	"/>
	<polyline fill="#0071BB" points="33.271,152.392 34.4,153.756 35.192,153.475 34.257,151.967 33.271,152.392 	"/>
	<polyline fill="#0071BB" points="34.93,154.863 35.746,155.946 36.704,155.403 36.034,154.299 34.93,154.863 	"/>
	<polyline fill="#0071BB" points="36.178,156.792 36.97,157.875 37.808,157.616 36.56,156.253 36.178,156.792 	"/>
	<path fill="#0071BB" d="M62.358,138.106c0,0,0.842,0.824,2.065,1.529c1.249,0.684,2.184,0.799,2.184,0.799l-0.144,1.249
		c0,0-2.04,0.141-2.853-1.104C62.791,139.352,62.358,138.106,62.358,138.106"/>
	<path fill="#0071BB" d="M72.657,135.916c0,0-1.49,0.543-1.49,2.19c0,1.67-0.432,3.293-0.432,3.293l1.921-1.364
		c0,0-0.267-2.472-0.41-3.012C72.127,136.459,72.657,135.916,72.657,135.916"/>
	<path fill="#0071BB" d="M72.127,134.411c0,0.234,0.169,0.425,0.407,0.425c0.241,0,0.41-0.19,0.41-0.425
		c0-0.237-0.169-0.424-0.41-0.424C72.297,133.987,72.127,134.174,72.127,134.411"/>
	<path fill="#0071BB" d="M75.417,135.635c0,0-0.838,0.705-0.838,1.389s0.288,1.648,0.288,1.648l1.08-0.824
		c0,0-0.266-0.543-0.266-1.083C75.679,136.2,75.417,135.635,75.417,135.635"/>
	<polyline fill="#0071BB" points="62.502,149.66 65.935,156.087 68.555,154.158 65.241,148.132 62.502,149.66 	"/>
	<polyline fill="#0071BB" points="71.552,144.015 74.722,150.604 77.745,148.416 73.614,142.367 71.552,144.015 	"/>
	<path fill="#FFFFFF" d="M78.968,133.868c0,0-2.209,0.543-2.447,0.968c-0.266,0.399,0,1.929,0,1.929L78.968,133.868"/>
	<path fill="#EC1C24" d="M52.089,146.343c0,0-1.104,3.979,0.381,9.744c1.511,5.768,4.825,9.345,4.825,9.345
		s-2.206-5.509-3.429-10.568C52.615,149.758,52.089,146.343,52.089,146.343"/>
	<g>
		<defs>
			<polyline id="SVGID_1_" points="211.806,206.973 190.108,213.586 189.292,218.785 212.619,211.373 211.806,206.973 			"/>
		</defs>
		<clipPath id="SVGID_2_">
			<use xlink:href="#SVGID_1_"  overflow="visible"/>
		</clipPath>
		
			<linearGradient id="SVGID_3_" gradientUnits="userSpaceOnUse" x1="-149.249" y1="506.2549" x2="-145.5625" y2="506.2549" gradientTransform="matrix(6.3279 0 0 -6.3264 1133.0173 3415.656)">
			<stop  offset="0" style="stop-color:#0081C9"/>
			<stop  offset="0.0379" style="stop-color:#2191D0"/>
			<stop  offset="0.099" style="stop-color:#4FA8DA"/>
			<stop  offset="0.1658" style="stop-color:#79BDE3"/>
			<stop  offset="0.2368" style="stop-color:#9DCFEA"/>
			<stop  offset="0.3132" style="stop-color:#BCDEF1"/>
			<stop  offset="0.3965" style="stop-color:#D4EAF6"/>
			<stop  offset="0.4897" style="stop-color:#E7F3FA"/>
			<stop  offset="0.598" style="stop-color:#F5FAFD"/>
			<stop  offset="0.7356" style="stop-color:#FDFEFF"/>
			<stop  offset="1" style="stop-color:#FFFFFF"/>
		</linearGradient>
		<rect x="189.292" y="206.973" clip-path="url(#SVGID_2_)" fill="url(#SVGID_3_)" width="23.327" height="11.813"/>
	</g>
	<g>
		<defs>
			<polyline id="SVGID_4_" points="187.637,211.373 170.096,217.142 167.887,215.752 148.949,223.988 149.5,226.176 
				187.086,215.493 187.637,211.373 			"/>
		</defs>
		<clipPath id="SVGID_5_">
			<use xlink:href="#SVGID_4_"  overflow="visible"/>
		</clipPath>
		
			<linearGradient id="SVGID_6_" gradientUnits="userSpaceOnUse" x1="-162.6743" y1="507.333" x2="-158.9897" y2="507.333" gradientTransform="matrix(10.4998 0 0 -10.497 1856.3271 5544.2427)">
			<stop  offset="0" style="stop-color:#0081C9"/>
			<stop  offset="0.0379" style="stop-color:#2191D0"/>
			<stop  offset="0.099" style="stop-color:#4FA8DA"/>
			<stop  offset="0.1658" style="stop-color:#79BDE3"/>
			<stop  offset="0.2368" style="stop-color:#9DCFEA"/>
			<stop  offset="0.3132" style="stop-color:#BCDEF1"/>
			<stop  offset="0.3965" style="stop-color:#D4EAF6"/>
			<stop  offset="0.4897" style="stop-color:#E7F3FA"/>
			<stop  offset="0.598" style="stop-color:#F5FAFD"/>
			<stop  offset="0.7356" style="stop-color:#FDFEFF"/>
			<stop  offset="1" style="stop-color:#FFFFFF"/>
		</linearGradient>
		<rect x="148.949" y="211.373" clip-path="url(#SVGID_5_)" fill="url(#SVGID_6_)" width="38.688" height="14.803"/>
	</g>
	<g>
		<defs>
			<polyline id="SVGID_7_" points="147.319,232.225 128.094,229.213 126.15,226.741 147.319,230.016 147.319,232.225 			"/>
		</defs>
		<clipPath id="SVGID_8_">
			<use xlink:href="#SVGID_7_"  overflow="visible"/>
		</clipPath>
		
			<linearGradient id="SVGID_9_" gradientUnits="userSpaceOnUse" x1="-154.5078" y1="503.7578" x2="-150.8228" y2="503.7578" gradientTransform="matrix(5.7364 0 0 -5.7349 1011.7947 3118.4917)">
			<stop  offset="0" style="stop-color:#0081C9"/>
			<stop  offset="0.0379" style="stop-color:#2191D0"/>
			<stop  offset="0.099" style="stop-color:#4FA8DA"/>
			<stop  offset="0.1658" style="stop-color:#79BDE3"/>
			<stop  offset="0.2368" style="stop-color:#9DCFEA"/>
			<stop  offset="0.3132" style="stop-color:#BCDEF1"/>
			<stop  offset="0.3965" style="stop-color:#D4EAF6"/>
			<stop  offset="0.4897" style="stop-color:#E7F3FA"/>
			<stop  offset="0.598" style="stop-color:#F5FAFD"/>
			<stop  offset="0.7356" style="stop-color:#FDFEFF"/>
			<stop  offset="1" style="stop-color:#FFFFFF"/>
		</linearGradient>
		<rect x="126.15" y="226.741" clip-path="url(#SVGID_8_)" fill="url(#SVGID_9_)" width="21.169" height="5.483"/>
	</g>
	<g>
		<defs>
			<polyline id="SVGID_10_" points="131.671,236.885 129.198,232.509 86.934,232.509 86.934,236.885 131.671,236.885 			"/>
		</defs>
		<clipPath id="SVGID_11_">
			<use xlink:href="#SVGID_10_"  overflow="visible"/>
		</clipPath>
		
			<linearGradient id="SVGID_12_" gradientUnits="userSpaceOnUse" x1="-168.2002" y1="506.7383" x2="-164.5151" y2="506.7383" gradientTransform="matrix(12.1412 0 0 -12.138 2128.3777 6385.4697)">
			<stop  offset="0" style="stop-color:#0081C9"/>
			<stop  offset="0.0379" style="stop-color:#2191D0"/>
			<stop  offset="0.099" style="stop-color:#4FA8DA"/>
			<stop  offset="0.1658" style="stop-color:#79BDE3"/>
			<stop  offset="0.2368" style="stop-color:#9DCFEA"/>
			<stop  offset="0.3132" style="stop-color:#BCDEF1"/>
			<stop  offset="0.3965" style="stop-color:#D4EAF6"/>
			<stop  offset="0.4897" style="stop-color:#E7F3FA"/>
			<stop  offset="0.598" style="stop-color:#F5FAFD"/>
			<stop  offset="0.7356" style="stop-color:#FDFEFF"/>
			<stop  offset="1" style="stop-color:#FFFFFF"/>
		</linearGradient>
		<rect x="86.934" y="232.509" clip-path="url(#SVGID_11_)" fill="url(#SVGID_12_)" width="44.737" height="4.376"/>
	</g>
	<g>
		<defs>
			<polyline id="SVGID_13_" points="85.017,232.225 70.473,227.306 69.368,230.577 84.466,236.604 85.017,232.225 			"/>
		</defs>
		<clipPath id="SVGID_14_">
			<use xlink:href="#SVGID_13_"  overflow="visible"/>
		</clipPath>
		
			<linearGradient id="SVGID_15_" gradientUnits="userSpaceOnUse" x1="-156.7119" y1="501.1465" x2="-153.0278" y2="501.1465" gradientTransform="matrix(4.2475 0 0 -4.2466 734.325 2360.1074)">
			<stop  offset="0" style="stop-color:#0081C9"/>
			<stop  offset="0.0379" style="stop-color:#2191D0"/>
			<stop  offset="0.099" style="stop-color:#4FA8DA"/>
			<stop  offset="0.1658" style="stop-color:#79BDE3"/>
			<stop  offset="0.2368" style="stop-color:#9DCFEA"/>
			<stop  offset="0.3132" style="stop-color:#BCDEF1"/>
			<stop  offset="0.3965" style="stop-color:#D4EAF6"/>
			<stop  offset="0.4897" style="stop-color:#E7F3FA"/>
			<stop  offset="0.598" style="stop-color:#F5FAFD"/>
			<stop  offset="0.7356" style="stop-color:#FDFEFF"/>
			<stop  offset="1" style="stop-color:#FFFFFF"/>
		</linearGradient>
		<rect x="69.368" y="227.306" clip-path="url(#SVGID_14_)" fill="url(#SVGID_15_)" width="15.649" height="9.298"/>
	</g>
	<g>
		<defs>
			<polyline id="SVGID_16_" points="67.713,230.577 69.368,232.225 66.896,234.132 65.528,233.049 67.713,230.577 			"/>
		</defs>
		<clipPath id="SVGID_17_">
			<use xlink:href="#SVGID_16_"  overflow="visible"/>
		</clipPath>
		
			<linearGradient id="SVGID_18_" gradientUnits="userSpaceOnUse" x1="-100.1675" y1="473.6836" x2="-96.4883" y2="473.6836" gradientTransform="matrix(1.0435 0 0 -1.0431 169.3782 726.4617)">
			<stop  offset="0" style="stop-color:#0081C9"/>
			<stop  offset="0.0379" style="stop-color:#2191D0"/>
			<stop  offset="0.099" style="stop-color:#4FA8DA"/>
			<stop  offset="0.1658" style="stop-color:#79BDE3"/>
			<stop  offset="0.2368" style="stop-color:#9DCFEA"/>
			<stop  offset="0.3132" style="stop-color:#BCDEF1"/>
			<stop  offset="0.3965" style="stop-color:#D4EAF6"/>
			<stop  offset="0.4897" style="stop-color:#E7F3FA"/>
			<stop  offset="0.598" style="stop-color:#F5FAFD"/>
			<stop  offset="0.7356" style="stop-color:#FDFEFF"/>
			<stop  offset="1" style="stop-color:#FFFFFF"/>
		</linearGradient>
		<rect x="65.528" y="230.577" clip-path="url(#SVGID_17_)" fill="url(#SVGID_18_)" width="3.839" height="3.555"/>
	</g>
	<g>
		<defs>
			<polyline id="SVGID_19_" points="64.978,234.416 63.611,238.532 17.503,239.076 18.583,235.24 64.978,234.416 			"/>
		</defs>
		<clipPath id="SVGID_20_">
			<use xlink:href="#SVGID_19_"  overflow="visible"/>
		</clipPath>
		
			<linearGradient id="SVGID_21_" gradientUnits="userSpaceOnUse" x1="-172.5747" y1="506.8105" x2="-168.8901" y2="506.8105" gradientTransform="matrix(12.885 0 0 -12.8821 2240.4583 6765.5547)">
			<stop  offset="0" style="stop-color:#0081C9"/>
			<stop  offset="0.0379" style="stop-color:#2191D0"/>
			<stop  offset="0.099" style="stop-color:#4FA8DA"/>
			<stop  offset="0.1658" style="stop-color:#79BDE3"/>
			<stop  offset="0.2368" style="stop-color:#9DCFEA"/>
			<stop  offset="0.3132" style="stop-color:#BCDEF1"/>
			<stop  offset="0.3965" style="stop-color:#D4EAF6"/>
			<stop  offset="0.4897" style="stop-color:#E7F3FA"/>
			<stop  offset="0.598" style="stop-color:#F5FAFD"/>
			<stop  offset="0.7356" style="stop-color:#FDFEFF"/>
			<stop  offset="1" style="stop-color:#FFFFFF"/>
		</linearGradient>
		<rect x="17.503" y="234.416" clip-path="url(#SVGID_20_)" fill="url(#SVGID_21_)" width="47.475" height="4.66"/>
	</g>
	<g>
		<defs>
			<polyline id="SVGID_22_" points="78.414,214.929 32.602,211.373 33.127,215.493 65.528,218.505 78.414,214.929 			"/>
		</defs>
		<clipPath id="SVGID_23_">
			<use xlink:href="#SVGID_22_"  overflow="visible"/>
		</clipPath>
		
			<linearGradient id="SVGID_24_" gradientUnits="userSpaceOnUse" x1="-171.5684" y1="507.9746" x2="-167.8838" y2="507.9746" gradientTransform="matrix(12.4343 0 0 -12.4318 2165.2197 6529.9697)">
			<stop  offset="0" style="stop-color:#0081C9"/>
			<stop  offset="0.0379" style="stop-color:#2191D0"/>
			<stop  offset="0.099" style="stop-color:#4FA8DA"/>
			<stop  offset="0.1658" style="stop-color:#79BDE3"/>
			<stop  offset="0.2368" style="stop-color:#9DCFEA"/>
			<stop  offset="0.3132" style="stop-color:#BCDEF1"/>
			<stop  offset="0.3965" style="stop-color:#D4EAF6"/>
			<stop  offset="0.4897" style="stop-color:#E7F3FA"/>
			<stop  offset="0.598" style="stop-color:#F5FAFD"/>
			<stop  offset="0.7356" style="stop-color:#FDFEFF"/>
			<stop  offset="1" style="stop-color:#FFFFFF"/>
		</linearGradient>
		<rect x="32.602" y="211.373" clip-path="url(#SVGID_23_)" fill="url(#SVGID_24_)" width="45.812" height="7.132"/>
	</g>
	<g>
		<defs>
			<polyline id="SVGID_25_" points="27.391,204.525 14.769,198.758 16.402,207.818 30.946,215.752 27.391,204.525 			"/>
		</defs>
		<clipPath id="SVGID_26_">
			<use xlink:href="#SVGID_25_"  overflow="visible"/>
		</clipPath>
		
			<linearGradient id="SVGID_27_" gradientUnits="userSpaceOnUse" x1="-166.4058" y1="505.5391" x2="-162.7227" y2="505.5391" gradientTransform="matrix(4.3927 0 0 -4.3922 745.0701 2427.6836)">
			<stop  offset="0" style="stop-color:#0081C9"/>
			<stop  offset="0.0379" style="stop-color:#2191D0"/>
			<stop  offset="0.099" style="stop-color:#4FA8DA"/>
			<stop  offset="0.1658" style="stop-color:#79BDE3"/>
			<stop  offset="0.2368" style="stop-color:#9DCFEA"/>
			<stop  offset="0.3132" style="stop-color:#BCDEF1"/>
			<stop  offset="0.3965" style="stop-color:#D4EAF6"/>
			<stop  offset="0.4897" style="stop-color:#E7F3FA"/>
			<stop  offset="0.598" style="stop-color:#F5FAFD"/>
			<stop  offset="0.7356" style="stop-color:#FDFEFF"/>
			<stop  offset="1" style="stop-color:#FFFFFF"/>
		</linearGradient>
		<rect x="14.769" y="198.758" clip-path="url(#SVGID_26_)" fill="url(#SVGID_27_)" width="16.177" height="16.994"/>
	</g>
	<path fill="#0071BB" d="M107.789,220.246c0,0-1.964,0.378-2.206,0.637c-0.216,0.281-0.241,1.789-0.241,1.789l-0.885,1.104
		l-2.764-1.602l-0.479-1.292l-4.825,2.706l4.347-1.741l0.216,1.058l3.908,1.835l1.011-2.068l0.766-0.612l1.439,0.281l1.036-1.059"/>
	<path fill="none" stroke="#231F20" stroke-width="0.2852" stroke-linecap="round" stroke-linejoin="round" d="M107.782,220.246
		c0,0-1.976,0.382-2.213,0.641c-0.212,0.284-0.238,1.781-0.238,1.781l-0.881,1.094l-2.778-1.568l-0.453-1.307l-4.825,2.71
		l4.35-1.734l0.216,1.047l3.897,1.828l0.997-2.069l0.784-0.594l1.45,0.288l1.022-1.072"/>
	<polyline fill="#0071BB" points="110.301,221.862 110.466,224.881 109.517,228.85 111.891,224.834 111.654,222.362 	"/>
	<polyline fill="none" stroke="#231F20" stroke-width="0.2852" stroke-linecap="round" stroke-linejoin="round" points="
		110.301,221.862 110.466,224.881 109.517,228.85 111.891,224.834 111.654,222.362 	"/>
</g>
</svg>
