<?xml version="1.0" encoding="UTF-8" standalone="no"?>
<svg
   xmlns:dc="http://purl.org/dc/elements/1.1/"
   xmlns:cc="http://creativecommons.org/ns#"
   xmlns:rdf="http://www.w3.org/1999/02/22-rdf-syntax-ns#"
   xmlns:svg="http://www.w3.org/2000/svg"
   xmlns="http://www.w3.org/2000/svg"
   xmlns:sodipodi="http://sodipodi.sourceforge.net/DTD/sodipodi-0.dtd"
   xmlns:inkscape="http://www.inkscape.org/namespaces/inkscape"
   width="91.733559"
   height="93.607513"
   viewBox="0 0 73.386854 74.886008"
   version="1.1"
   id="svg2"
   inkscape:version="0.48.1 "
   sodipodi:docname="Blainville-Boisbriand Armada logo.svg">
  <metadata
     id="metadata56">
    <rdf:RDF>
      <cc:Work
         rdf:about="">
        <dc:format>image/svg+xml</dc:format>
        <dc:type
           rdf:resource="http://purl.org/dc/dcmitype/StillImage" />
      </cc:Work>
    </rdf:RDF>
  </metadata>
  <defs
     id="defs54" />
  <sodipodi:namedview
     pagecolor="#ffffff"
     bordercolor="#666666"
     borderopacity="1"
     objecttolerance="10"
     gridtolerance="10"
     guidetolerance="10"
     inkscape:pageopacity="0"
     inkscape:pageshadow="2"
     inkscape:window-width="1680"
     inkscape:window-height="994"
     id="namedview52"
     showgrid="false"
     fit-margin-top="0"
     fit-margin-left="0"
     fit-margin-right="0"
     fit-margin-bottom="0"
     inkscape:zoom="8.3006157"
     inkscape:cx="45.866779"
     inkscape:cy="46.803757"
     inkscape:window-x="-4"
     inkscape:window-y="-4"
     inkscape:window-maximized="1"
     inkscape:current-layer="svg2" />
  <g
     id="g3033"
     transform="matrix(0.17229584,0,0,0.17229584,-1.2966467,-1.3448727)">
    <path
       id="path4"
       d="m 203.99,13.13 c 6.69,-0.2 13.31,-1.88 20.01,-1.28 6.32,0.84 12.69,1.34 19.07,1.55 8.07,0.86 16.04,2.44 24.04,3.85 8.61,0.79 16.54,4.53 24.81,6.78 3.78,1.3 7.94,2.26 10.87,5.17 2.39,2.28 4.61,4.74 6.63,7.35 1.59,3.58 1.68,7.62 2.04,11.47 -0.06,5.96 0.28,11.95 -0.22,17.89 -1.65,2.77 -3.62,5.34 -5.11,8.21 -1.25,2.34 -3.77,4.61 -2.71,7.52 1.97,6.93 3.5,13.96 5.21,20.94 7.17,24.83 12.35,50.21 19.65,75.01 13.58,0.1 27.18,-0.33 40.76,0.02 7.77,0.37 14.41,5.38 18.96,11.37 2.35,2.95 2.73,6.82 3.78,10.32 7.6,0.41 15.65,-1.31 22.76,2.17 10.14,4.39 17.42,16.38 14.39,27.4 -2.87,9.69 -5.31,19.52 -8.95,28.96 -2.78,6.81 1.99,13.33 3.33,19.89 2.23,9.34 7.85,18.39 5.87,28.28 -2.95,11.44 -14.49,19.59 -26.16,19.51 -11.79,0.1 -23.59,0.05 -35.39,-0.2 5.54,2.3 11.35,5.11 14.47,10.52 1.71,3.47 3.71,7.09 3.51,11.1 -0.08,5.04 -0.12,10.09 -0.11,15.14 0.14,3.95 -1.59,7.67 -3.24,11.16 -4.94,6.34 -10.44,12.25 -16.45,17.58 -9.66,7.36 -18.87,15.3 -28.97,22.06 -11.9,7.14 -24.11,13.89 -37.2,18.61 -8.04,2.8 -15.84,7.76 -24.67,6.96 -4.95,-0.53 -10.54,-1.4 -13.72,-5.7 -3.2,-4.31 -6.95,-9.02 -6.68,-14.7 -0.22,-6.71 0.17,-13.42 -0.06,-20.13 -22.67,-0.2 -45.36,-0.24 -68.03,0.01 -0.27,7.66 0.33,15.33 -0.22,22.99 -0.75,4.04 -3.34,7.38 -5.6,10.71 -4.63,6.85 -14.03,7.39 -21.48,6.5 -9.93,-3.05 -19.39,-7.41 -29.06,-11.18 -14.42,-6.97 -28.66,-14.7 -40.87,-25.19 -9.82,-7.39 -19.7,-14.93 -27.35,-24.67 -3.49,-3.25 -5.23,-7.81 -6.27,-12.36 -0.21,-6.54 -0.2,-13.1 -0.17,-19.64 1.08,-6.22 4.4,-12.34 9.84,-15.79 2.56,-1.57 5.33,-2.76 8.07,-3.98 -11.8,0.25 -23.6,0.3 -35.39,0.2 -11.39,0.08 -22.56,-7.64 -25.94,-18.62 -1.68,-6.05 0.05,-12.24 2.1,-17.96 2.55,-7.52 4.66,-15.18 7.19,-22.7 1.16,-2.97 0.52,-6.22 -0.56,-9.1 -3.63,-9.51 -6.08,-19.4 -8.92,-29.15 -3.01,-13.9 9.23,-28.08 23.13,-28.65 4.75,-0.09 9.49,0.02 14.24,-0.04 1.05,-3.49 1.43,-7.36 3.77,-10.31 4.56,-5.99 11.2,-11 18.97,-11.37 13.59,-0.35 27.18,0.08 40.76,-0.02 7.3,-24.8 12.48,-50.18 19.65,-75 1.67,-6.73 3.1,-13.52 5.02,-20.19 0.44,-1.47 0.72,-3.2 -0.2,-4.56 -1.75,-2.65 -3.26,-5.45 -4.96,-8.13 -1.08,-1.79 -2.89,-3.39 -2.66,-5.66 0.06,-8.23 -0.66,-16.57 1.05,-24.7 0.69,-3.88 4.15,-6.32 6.57,-9.16 3.24,-3.74 8.2,-4.96 12.72,-6.41 6.6,-1.85 12.96,-4.54 19.69,-5.92 11.46,-1.53 22.76,-4.6 34.39,-4.73 m 10.84,2.08 c -5.62,0.45 -11.23,1.13 -16.87,1.25 -9.28,0.95 -18.38,3.14 -27.61,4.41 -6.85,1.42 -13.33,4.14 -20.05,6.04 -4.1,1.36 -8.61,2.44 -11.62,5.79 -2.12,2.35 -4.75,4.66 -5.17,7.98 -1.56,6.7 -0.89,13.6 -1.03,20.4 0.13,1.59 -0.31,3.42 0.73,4.79 2.57,3.6 4.74,7.46 7.04,11.23 1.26,3.19 -0.05,6.62 -0.85,9.76 -2.2,7.96 -3.57,16.13 -6.21,23.96 -5.41,21.17 -10.65,42.41 -16.14,63.57 -0.75,2.51 -1.68,6.35 -4.98,6.19 -12.7,-0.03 -25.41,-0.2 -38.11,-0.07 -7.84,-0.01 -15.24,4.73 -19.26,11.35 -1.95,3.15 -1.01,8.18 -4.53,10.19 -6.94,1.21 -14.41,-1.15 -21.09,1.72 -10.29,3.2 -17.5,15.63 -13.53,25.98 2.27,7.69 4.25,15.47 6.93,23.03 1,2.78 2.3,5.54 2.32,8.56 0.56,5.06 -1.98,9.66 -3.27,14.4 -1.87,6.77 -4.31,13.37 -6.3,20.11 -1.57,4.94 -0.94,10.52 1.86,14.92 3.46,6.7 10.86,10.23 17.97,11.58 13.71,0.54 27.44,-0.02 41.16,0.09 0.37,0.71 1.12,2.14 1.49,2.85 -2.99,3.57 -7.78,4.5 -11.53,7 -4.26,2.48 -5.83,7.46 -7.5,11.78 -0.6,5.63 -0.03,11.32 -0.21,16.97 -0.27,3.96 1.54,7.65 3.19,11.14 5.43,6.9 11.32,13.61 18.48,18.77 10.48,7.98 20.34,16.96 32.11,23.05 9.89,6.04 20.43,10.99 31.3,15 5.54,2.24 11.07,4.58 16.81,6.28 3.75,0.6 7.55,0.05 11.19,-0.92 6.24,-1.24 9.1,-7.76 11.51,-12.94 1.22,-8.33 -0.27,-16.89 0.69,-25.26 1.5,-1.03 3.34,-1.55 5.16,-1.46 21.06,0.02 42.12,0.03 63.18,0 2.11,0 5.61,0.4 5.4,3.27 0.23,6.03 -0.13,12.06 0.01,18.1 -0.65,6.26 3.38,11.73 7.29,16.18 5.94,3.57 13.84,4.42 20.26,1.58 8.08,-2.96 16.04,-6.25 24.02,-9.49 8.82,-3.94 17.17,-8.8 25.53,-13.61 9.43,-6.07 17.94,-13.38 26.82,-20.21 6.77,-4.9 12.23,-11.31 17.51,-17.73 1.65,-2.67 2.71,-5.74 3.48,-8.78 0.27,-5.34 0.03,-10.7 0.19,-16.05 0.32,-4.25 -1.89,-8.07 -3.76,-11.71 -3.5,-5.94 -11.6,-6 -15.73,-11.22 0.99,-0.87 1.59,-2.64 3.09,-2.65 12.93,0.1 25.88,0.36 38.81,0.06 7.65,-1.06 15.62,-4.96 19.18,-12.16 2.91,-4.75 3.02,-10.72 1.17,-15.87 -3.01,-8.96 -5.64,-18.04 -8.59,-27.02 -1.12,-4.04 -0.73,-8.47 0.9,-12.32 3.43,-9 5.63,-18.39 8.45,-27.58 0.68,-2.65 0.51,-5.44 0.13,-8.12 -2.3,-6.6 -6.6,-13.16 -13.61,-15.32 -5.22,-2.53 -11.11,-1.55 -16.69,-1.68 -2.13,-0.08 -4.49,0.38 -6.31,-0.99 -2.17,-3.27 -1.73,-7.65 -4.14,-10.81 -4.05,-5.61 -10.49,-9.74 -17.52,-10.03 -13.01,-0.2 -26.04,0.03 -39.05,0.04 -3.3,0.15 -4.24,-3.68 -4.98,-6.19 -5.48,-21.17 -10.73,-42.41 -16.14,-63.58 -2.65,-7.83 -4.01,-16 -6.21,-23.95 -0.8,-3.14 -2.12,-6.57 -0.85,-9.76 1.71,-2.8 3.35,-5.65 5.11,-8.41 1.1,-1.78 2.93,-3.4 2.64,-5.69 -0.2,-8.23 0.9,-16.74 -1.71,-24.7 -2.68,-4.32 -6.47,-8.41 -11.52,-9.87 -6.06,-2.03 -12.17,-3.87 -18.23,-5.9 -6.23,-2.13 -12.85,-2.34 -19.22,-3.85 -10.13,-2.13 -20.46,-2.45 -30.74,-3.36 -4.03,-0.81 -8.21,-1.03 -12.25,-0.11 z"
       inkscape:connector-curvature="0"
       style="fill:#000000" />
    <path
       id="path6"
       d="m 214.83,15.21 c 4.04,-0.92 8.22,-0.7 12.25,0.11 10.28,0.91 20.61,1.23 30.74,3.36 6.37,1.51 12.99,1.72 19.22,3.85 6.06,2.03 12.17,3.87 18.23,5.9 5.05,1.46 8.84,5.55 11.52,9.87 2.61,7.96 1.51,16.47 1.71,24.7 0.29,2.29 -1.54,3.91 -2.64,5.69 -1.76,2.76 -3.4,5.61 -5.11,8.41 -1.27,3.19 0.05,6.62 0.85,9.76 2.2,7.95 3.56,16.12 6.21,23.95 5.41,21.17 10.66,42.41 16.14,63.58 0.74,2.51 1.68,6.34 4.98,6.19 13.01,-0.01 26.04,-0.24 39.05,-0.04 7.03,0.29 13.47,4.42 17.52,10.03 2.41,3.16 1.97,7.54 4.14,10.81 1.82,1.37 4.18,0.91 6.31,0.99 5.58,0.13 11.47,-0.85 16.69,1.68 7.01,2.16 11.31,8.72 13.61,15.32 0.38,2.68 0.55,5.47 -0.13,8.12 -2.82,9.19 -5.02,18.58 -8.45,27.58 -1.63,3.85 -2.02,8.28 -0.9,12.32 2.95,8.98 5.58,18.06 8.59,27.02 1.85,5.15 1.74,11.12 -1.17,15.87 -3.56,7.2 -11.53,11.1 -19.18,12.16 -12.93,0.3 -25.88,0.04 -38.81,-0.06 -1.5,0.01 -2.1,1.78 -3.09,2.65 4.13,5.22 12.23,5.28 15.73,11.22 1.87,3.64 4.08,7.46 3.76,11.71 -0.16,5.35 0.08,10.71 -0.19,16.05 -0.77,3.04 -1.83,6.11 -3.48,8.78 -5.28,6.42 -10.74,12.83 -17.51,17.73 -8.88,6.83 -17.39,14.14 -26.82,20.21 -8.36,4.81 -16.71,9.67 -25.53,13.61 -7.98,3.24 -15.94,6.53 -24.02,9.49 -6.42,2.84 -14.32,1.99 -20.26,-1.58 -3.91,-4.45 -7.94,-9.92 -7.29,-16.18 -0.14,-6.04 0.22,-12.07 -0.01,-18.1 0.21,-2.87 -3.29,-3.27 -5.4,-3.27 -21.06,0.03 -42.12,0.02 -63.18,0 -1.82,-0.09 -3.66,0.43 -5.16,1.46 -0.96,8.37 0.53,16.93 -0.69,25.26 -2.41,5.18 -5.27,11.7 -11.51,12.94 -3.64,0.97 -7.44,1.52 -11.19,0.92 -5.74,-1.7 -11.27,-4.04 -16.81,-6.28 -10.87,-4.01 -21.41,-8.96 -31.3,-15 -11.77,-6.09 -21.63,-15.07 -32.11,-23.05 -7.16,-5.16 -13.05,-11.87 -18.48,-18.77 -1.65,-3.49 -3.46,-7.18 -3.19,-11.14 0.18,-5.65 -0.39,-11.34 0.21,-16.97 1.67,-4.32 3.24,-9.3 7.5,-11.78 3.75,-2.5 8.54,-3.43 11.53,-7 -0.37,-0.71 -1.12,-2.14 -1.49,-2.85 -13.72,-0.11 -27.45,0.45 -41.16,-0.09 -7.11,-1.35 -14.51,-4.88 -17.97,-11.58 -2.8,-4.4 -3.43,-9.98 -1.86,-14.92 1.99,-6.74 4.43,-13.34 6.3,-20.11 1.29,-4.74 3.83,-9.34 3.27,-14.4 -0.02,-3.02 -1.32,-5.78 -2.32,-8.56 -2.68,-7.56 -4.66,-15.34 -6.93,-23.03 -3.97,-10.35 3.24,-22.78 13.53,-25.98 6.68,-2.87 14.15,-0.51 21.09,-1.72 3.52,-2.01 2.58,-7.04 4.53,-10.19 4.02,-6.62 11.42,-11.36 19.26,-11.35 12.7,-0.13 25.41,0.04 38.11,0.07 3.3,0.16 4.23,-3.68 4.98,-6.19 5.49,-21.16 10.73,-42.4 16.14,-63.57 2.64,-7.83 4.01,-16 6.21,-23.96 0.8,-3.14 2.11,-6.57 0.85,-9.76 -2.3,-3.77 -4.47,-7.63 -7.04,-11.23 -1.04,-1.37 -0.6,-3.2 -0.73,-4.79 0.14,-6.8 -0.53,-13.7 1.03,-20.4 0.42,-3.32 3.05,-5.63 5.17,-7.98 3.01,-3.35 7.52,-4.43 11.62,-5.79 6.72,-1.9 13.2,-4.62 20.05,-6.04 9.23,-1.27 18.33,-3.46 27.61,-4.41 5.64,-0.12 11.25,-0.8 16.87,-1.25 m -65.24,29.44 c -0.03,6.94 0.04,13.88 -0.05,20.82 3.29,3.19 6.67,6.31 9.75,9.72 0.39,1.87 -0.86,3.68 -1.18,5.52 -9.9,38.64 -20.11,77.2 -29.96,115.85 -18.09,0.13 -36.18,0.02 -54.28,0.05 -2.65,0.19 -5.45,2.64 -5.29,5.46 -0.04,5.5 0.1,11 -0.03,16.5 -10.82,0.13 -21.65,-0.01 -32.47,0.06 -2.65,-0.21 -4.55,2.08 -5.51,4.3 0.67,4.15 2.4,8.04 3.62,12.06 2.59,8.46 5.22,16.91 8.07,25.3 0.57,1.41 0.4,2.97 -0.14,4.37 -4.18,12.08 -7.63,24.4 -11.72,36.51 1.23,1.91 2.22,4.78 5.01,4.5 21.41,0.17 42.83,0.05 64.25,0.04 -2.39,10.89 -5.59,21.61 -8.4,32.41 -5.26,2.23 -10.42,4.66 -15.66,6.94 -0.1,6.01 -0.04,12.01 -0.09,18.02 11.2,13.04 24.86,23.96 39.34,33.2 15.92,10.3 33.54,17.6 51.56,23.33 -0.14,-6.25 1.14,-12.39 1.18,-18.62 -0.03,-2.32 0.61,-4.8 -0.5,-6.96 -2.91,-6.36 -5.67,-12.8 -8.85,-19.03 4.48,-14.36 7.43,-29.14 11.71,-43.57 3.65,-14.68 7.54,-29.3 11.56,-43.88 25.99,0.02 51.99,0.02 77.98,0 5.28,18.74 9.85,37.67 14.98,56.46 2.83,10.31 4.99,20.81 8.29,30.99 -3.32,6.64 -6.39,13.42 -9.31,20.25 -0.69,7.91 1.24,15.78 1.08,23.7 7.8,-1.16 14.97,-4.75 22.35,-7.39 25.73,-10.87 49.38,-27.03 68.16,-47.76 1,-6 0.15,-12.54 0.36,-18.74 -5.24,-2.28 -10.41,-4.71 -15.66,-6.94 -2.81,-10.8 -6.01,-21.52 -8.39,-32.41 21.23,0.04 42.46,0.09 63.69,0 3.09,0.51 4.28,-2.43 5.57,-4.61 -4.15,-12.07 -7.53,-24.39 -11.73,-36.44 -1.29,-2.78 0.35,-5.6 1.15,-8.25 3.4,-10.22 6.45,-20.56 9.83,-30.79 1.72,-3.2 -1.58,-7.15 -4.94,-6.99 -10.83,-0.07 -21.65,0.07 -32.47,-0.06 -0.22,-6.03 0.2,-12.08 -0.17,-18.1 -0.96,-1.98 -2.89,-3.78 -5.16,-3.86 -18.09,-0.03 -36.18,0.08 -54.27,-0.05 -9.85,-38.65 -20.07,-77.21 -29.96,-115.85 -0.33,-1.83 -1.56,-3.64 -1.18,-5.52 3.08,-3.41 6.46,-6.53 9.75,-9.73 -0.09,-6.93 -0.02,-13.87 -0.05,-20.81 -16.5,-6.29 -33.82,-10.36 -51.38,-12.13 -30.53,-3.23 -61.75,1.28 -90.44,12.13 m 48.19,307.43 c -1.41,2.42 -2.82,4.99 -2.45,7.91 -0.52,4.88 3.73,9.65 8.64,9.72 4.48,0.12 8.97,0.08 13.45,-0.08 -0.03,-11.7 0.01,-23.4 -0.02,-35.1 -5.14,-0.02 -10.34,-0.45 -15.46,0.18 -7.29,2.25 -8.54,11.89 -4.16,17.37 m 25.84,-17.56 c 0.01,11.7 0.03,23.4 -0.02,35.11 3.81,0.21 7.62,0.08 11.44,0.16 2.62,0.02 5.52,-0.3 7.45,-2.28 4.57,-3.81 3.91,-10.96 0.73,-15.43 1.49,-2.45 2.89,-5.1 2.47,-8.06 0.41,-5.21 -4.51,-9.89 -9.62,-9.6 -4.15,-0.01 -8.3,-0.04 -12.45,0.1 z"
       inkscape:connector-curvature="0"
       style="fill:#ffffff" />
    <path
       id="path8"
       d="m 149.59,44.65 c 28.69,-10.85 59.91,-15.36 90.44,-12.13 17.56,1.77 34.88,5.84 51.38,12.13 0.03,6.94 -0.04,13.88 0.05,20.81 -3.29,3.2 -6.67,6.32 -9.75,9.73 -0.38,1.88 0.85,3.69 1.18,5.52 9.89,38.64 20.11,77.2 29.96,115.85 18.09,0.13 36.18,0.02 54.27,0.05 2.27,0.08 4.2,1.88 5.16,3.86 0.37,6.02 -0.05,12.07 0.17,18.1 10.82,0.13 21.64,-0.01 32.47,0.06 3.36,-0.16 6.66,3.79 4.94,6.99 -3.38,10.23 -6.43,20.57 -9.83,30.79 -0.8,2.65 -2.44,5.47 -1.15,8.25 4.2,12.05 7.58,24.37 11.73,36.44 -1.29,2.18 -2.48,5.12 -5.57,4.61 -21.23,0.09 -42.46,0.04 -63.69,0 2.38,10.89 5.58,21.61 8.39,32.41 5.25,2.23 10.42,4.66 15.66,6.94 -0.21,6.2 0.64,12.74 -0.36,18.74 -18.78,20.73 -42.43,36.89 -68.16,47.76 -7.38,2.64 -14.55,6.23 -22.35,7.39 0.16,-7.92 -1.77,-15.79 -1.08,-23.7 2.92,-6.83 5.99,-13.61 9.31,-20.25 -3.3,-10.18 -5.46,-20.68 -8.29,-30.99 -5.13,-18.79 -9.7,-37.72 -14.98,-56.46 -25.99,0.02 -51.99,0.02 -77.98,0 -4.02,14.58 -7.91,29.2 -11.56,43.88 -4.28,14.43 -7.23,29.21 -11.71,43.57 3.18,6.23 5.94,12.67 8.85,19.03 1.11,2.16 0.47,4.64 0.5,6.96 -0.04,6.23 -1.32,12.37 -1.18,18.62 -18.02,-5.73 -35.64,-13.03 -51.56,-23.33 -14.48,-9.24 -28.14,-20.16 -39.34,-33.2 0.05,-6.01 -0.01,-12.01 0.09,-18.02 5.24,-2.28 10.4,-4.71 15.66,-6.94 2.81,-10.8 6.01,-21.52 8.4,-32.41 -21.42,0.01 -42.84,0.13 -64.25,-0.04 -2.79,0.28 -3.78,-2.59 -5.01,-4.5 4.09,-12.11 7.54,-24.43 11.72,-36.51 0.54,-1.4 0.71,-2.96 0.14,-4.37 -2.85,-8.39 -5.48,-16.84 -8.07,-25.3 -1.22,-4.02 -2.95,-7.91 -3.62,-12.06 0.96,-2.22 2.86,-4.51 5.51,-4.3 10.82,-0.07 21.65,0.07 32.47,-0.06 0.13,-5.5 -0.01,-11 0.03,-16.5 -0.16,-2.82 2.64,-5.27 5.29,-5.46 18.1,-0.03 36.19,0.08 54.28,-0.05 9.85,-38.65 20.06,-77.21 29.96,-115.85 0.32,-1.84 1.57,-3.65 1.18,-5.52 -3.08,-3.41 -6.46,-6.53 -9.75,-9.72 0.09,-6.94 0.02,-13.88 0.05,-20.82 m 70.18,94.91 c -0.84,5.65 -2.68,11.08 -4.1,16.61 -3.41,13.47 -6.95,26.92 -10.57,40.34 10.26,0.16 20.54,0.16 30.8,0 -3.62,-13.42 -7.16,-26.85 -10.55,-40.33 -1.44,-5.58 -3.15,-11.1 -4.02,-16.8 -0.39,0.04 -1.17,0.13 -1.56,0.18 M 79.35,207.38 c -0.01,23.33 -0.11,46.67 0.05,70.01 94.06,-0.12 188.14,-0.12 282.2,0 0.16,-23.34 0.06,-46.68 0.05,-70.01 -94.1,0.04 -188.2,0.04 -282.3,0 m -36.06,21.51 c 3.11,10.63 6.86,21.07 9.98,31.71 0.71,2.12 -0.23,4.24 -0.86,6.25 -2.98,9.16 -5.64,18.43 -8.99,27.47 0.36,0.29 1.07,0.87 1.42,1.16 11.27,-0.09 22.54,0.08 33.8,-0.06 -2.38,-3.88 -6.24,-6.48 -9.06,-9.98 -1.42,-1.46 -0.91,-3.57 -1.02,-5.39 -0.05,-17.09 0.18,-34.18 -0.11,-51.26 -8.38,0.07 -16.77,-0.19 -25.16,0.1 m 329.1,0.44 c -0.01,18.12 0.15,36.24 -0.06,54.35 -2.15,4.68 -7.44,7.19 -9.98,11.74 11.27,0.14 22.54,-0.03 33.81,0.06 0.35,-0.29 1.06,-0.87 1.42,-1.17 -3.53,-9.55 -6.33,-19.36 -9.5,-29.04 -1.68,-3.86 0.88,-7.69 1.73,-11.41 2.25,-8.21 5.88,-16.08 7.2,-24.5 -8.21,-0.16 -16.41,-0.03 -24.62,-0.03 z"
       inkscape:connector-curvature="0"
       style="fill:#000000" />
    <path
       id="path10"
       d="m 219.77,139.56 c 0.39,-0.05 1.17,-0.14 1.56,-0.18 0.87,5.7 2.58,11.22 4.02,16.8 3.39,13.48 6.93,26.91 10.55,40.33 -10.26,0.16 -20.54,0.16 -30.8,0 3.62,-13.42 7.16,-26.87 10.57,-40.34 1.42,-5.53 3.26,-10.96 4.1,-16.61 z"
       inkscape:connector-curvature="0"
       style="fill:#ffffff" />
    <path
       id="path12"
       d="m 79.35,207.38 c 94.1,0.04 188.2,0.04 282.3,0 0.01,23.33 0.11,46.67 -0.05,70.01 -94.06,-0.12 -188.14,-0.12 -282.2,0 -0.16,-23.34 -0.06,-46.68 -0.05,-70.01 m 16.96,52.14 c 2.94,0.31 5.91,0.34 8.86,0.07 0.57,-1.95 1.17,-3.88 1.69,-5.84 3.18,-0.27 6.37,-0.24 9.55,-0.2 0.87,2 1.61,4.05 2.34,6.1 3.33,0.11 6.67,0.16 10,-0.05 -0.13,-1.54 -0.22,-3.11 -0.78,-4.56 -3.38,-9.47 -5.56,-19.32 -8.97,-28.78 -1.78,-4.49 -7.57,-1.99 -11.24,-2.61 -4.85,11.58 -7.53,23.96 -11.45,35.87 m 44.11,-32.5 c 0.05,10.86 0.02,21.72 0.01,32.58 3.38,0.32 6.77,0.23 10.14,-0.06 0.12,-4.11 -0.06,-8.22 0.05,-12.32 1.12,0.16 2.26,0.26 3.36,0.57 1.62,3.85 3.05,7.8 5.13,11.44 3.41,1.16 7.23,0.42 10.78,0.24 -1.32,-4.93 -4.98,-9.1 -5.63,-14.17 1.43,-2.9 5.25,-4.77 5.2,-8.44 0.64,-4.59 -2,-9.42 -6.24,-11.3 -6.59,-3.22 -14.15,-1.54 -21.19,-1.89 -1.92,-0.32 -1.46,2.21 -1.61,3.35 m 42.17,-2.35 c 0.07,10.12 0.05,20.25 0.02,30.37 -0.11,1.61 0.32,3.17 0.83,4.69 3.31,0.08 6.64,0.1 9.95,-0.24 0.25,-6.02 -0.52,-12.09 0.33,-18.08 1.73,3.03 3.08,6.24 4.73,9.31 1.24,-0.07 2.48,-0.13 3.72,-0.23 1.28,-3.41 2.77,-6.78 5.15,-9.57 0.27,6.2 -0.18,12.4 0.06,18.6 3.38,0.28 6.78,0.33 10.17,0.11 0.12,-11.74 -0.07,-23.47 0.08,-35.21 -3.44,-0.87 -8.56,-2.16 -10.78,1.51 -2.42,3.69 -3.98,7.91 -6.82,11.33 -2.53,-4.61 -4.93,-9.31 -7.99,-13.6 -3.18,-0.03 -6.48,-0.39 -9.45,1.01 m 57.06,0.04 c -2.32,5.12 -3.25,10.76 -5.08,16.07 -1.62,6.34 -4.53,12.35 -5.4,18.86 2.62,0.16 5.27,0.36 7.89,-0.03 1.73,-1.44 1.74,-4.09 2.65,-6.07 3.18,0.03 6.36,0 9.55,0.09 0.64,1.93 1.22,3.88 1.67,5.86 3.56,0.47 7.18,0.42 10.74,-0.03 -2.99,-10.92 -6.64,-21.64 -9.81,-32.51 -0.4,-1.8 -1.68,-3.81 -3.81,-3.31 -2.78,0.26 -6.11,-0.92 -8.4,1.07 m 34.61,-0.63 c -1.49,0.58 -1.42,2.57 -1.52,3.9 0,9.69 -0.03,19.37 0.01,29.06 -0.14,1.83 1.64,3.32 3.4,3.25 4.55,0.04 9.11,0.08 13.66,-0.01 4.56,-0.72 10.19,-2.97 10.79,-8.22 0.25,-7.03 0.48,-14.13 -0.23,-21.13 -2.54,-5.77 -9.6,-7.43 -15.32,-7.32 -3.57,0.28 -7.37,-0.57 -10.79,0.47 m 49.49,-0.49 c -3.15,5.24 -4.07,11.41 -6.07,17.12 -1.73,6.3 -3.93,12.47 -5.56,18.79 2.84,0.22 5.69,0.33 8.53,0.2 0.8,-2.02 1.52,-4.08 2.28,-6.12 3.06,-0.05 6.12,-0.06 9.19,-0.01 0.79,2.07 1.61,4.13 2.54,6.15 3.36,0.07 6.73,0.12 10.08,-0.18 -2.66,-9.86 -5.77,-19.61 -8.68,-29.41 -0.79,-2.22 -1.21,-4.83 -3.19,-6.35 -3.03,-0.34 -6.08,-0.11 -9.12,-0.19 z"
       inkscape:connector-curvature="0"
       style="fill:#ffffff" />
    <path
       id="path14"
       d="m 96.31,259.52 c 3.92,-11.91 6.6,-24.29 11.45,-35.87 3.67,0.62 9.46,-1.88 11.24,2.61 3.41,9.46 5.59,19.31 8.97,28.78 0.56,1.45 0.65,3.02 0.78,4.56 -3.33,0.21 -6.67,0.16 -10,0.05 -0.73,-2.05 -1.47,-4.1 -2.34,-6.1 -3.18,-0.04 -6.37,-0.07 -9.55,0.2 -0.52,1.96 -1.12,3.89 -1.69,5.84 -2.95,0.27 -5.92,0.24 -8.86,-0.07 m 12.8,-12.99 c 1.87,0.03 3.75,0.02 5.63,-0.04 -0.88,-2.91 -1.77,-5.81 -2.71,-8.7 -1.4,2.75 -2.2,5.75 -2.92,8.74 z"
       inkscape:connector-curvature="0"
       style="fill:#000000" />
    <path
       id="path16"
       d="m 140.42,227.02 c 0.15,-1.14 -0.31,-3.67 1.61,-3.35 7.04,0.35 14.6,-1.33 21.19,1.89 4.24,1.88 6.88,6.71 6.24,11.3 0.05,3.67 -3.77,5.54 -5.2,8.44 0.65,5.07 4.31,9.24 5.63,14.17 -3.55,0.18 -7.37,0.92 -10.78,-0.24 -2.08,-3.64 -3.51,-7.59 -5.13,-11.44 -1.1,-0.31 -2.24,-0.41 -3.36,-0.57 -0.11,4.1 0.07,8.21 -0.05,12.32 -3.37,0.29 -6.76,0.38 -10.14,0.06 0.01,-10.86 0.04,-21.72 -0.01,-32.58 m 10.32,4.69 c -0.1,2.29 -0.1,4.59 -0.07,6.89 2.65,-0.19 8.05,1.39 8.02,-2.71 0.82,-4.51 -4.92,-4.49 -7.95,-4.18 z"
       inkscape:connector-curvature="0"
       style="fill:#000000" />
    <path
       id="path18"
       d="m 182.59,224.67 c 2.97,-1.4 6.27,-1.04 9.45,-1.01 3.06,4.29 5.46,8.99 7.99,13.6 2.84,-3.42 4.4,-7.64 6.82,-11.33 2.22,-3.67 7.34,-2.38 10.78,-1.51 -0.15,11.74 0.04,23.47 -0.08,35.21 -3.39,0.22 -6.79,0.17 -10.17,-0.11 -0.24,-6.2 0.21,-12.4 -0.06,-18.6 -2.38,2.79 -3.87,6.16 -5.15,9.57 -1.24,0.1 -2.48,0.16 -3.72,0.23 -1.65,-3.07 -3,-6.28 -4.73,-9.31 -0.85,5.99 -0.08,12.06 -0.33,18.08 -3.31,0.34 -6.64,0.32 -9.95,0.24 -0.51,-1.52 -0.94,-3.08 -0.83,-4.69 0.03,-10.12 0.05,-20.25 -0.02,-30.37 z"
       inkscape:connector-curvature="0"
       style="fill:#000000" />
    <path
       id="path20"
       d="m 239.65,224.71 c 2.29,-1.99 5.62,-0.81 8.4,-1.07 2.13,-0.5 3.41,1.51 3.81,3.31 3.17,10.87 6.82,21.59 9.81,32.51 -3.56,0.45 -7.18,0.5 -10.74,0.03 -0.45,-1.98 -1.03,-3.93 -1.67,-5.86 -3.19,-0.09 -6.37,-0.06 -9.55,-0.09 -0.91,1.98 -0.92,4.63 -2.65,6.07 -2.62,0.39 -5.27,0.19 -7.89,0.03 0.87,-6.51 3.78,-12.52 5.4,-18.86 1.83,-5.31 2.76,-10.95 5.08,-16.07 m 2.41,21.89 c 1.62,-0.02 3.25,-0.06 4.87,-0.1 -0.49,-2.87 -1.22,-5.69 -2.01,-8.49 -1.84,2.49 -2.5,5.57 -2.86,8.59 z"
       inkscape:connector-curvature="0"
       style="fill:#000000" />
    <path
       id="path22"
       d="m 274.26,224.08 c 3.42,-1.04 7.22,-0.19 10.79,-0.47 5.72,-0.11 12.78,1.55 15.32,7.32 0.71,7 0.48,14.1 0.23,21.13 -0.6,5.25 -6.23,7.5 -10.79,8.22 -4.55,0.09 -9.11,0.05 -13.66,0.01 -1.76,0.07 -3.54,-1.42 -3.4,-3.25 -0.04,-9.69 -0.01,-19.37 -0.01,-29.06 0.1,-1.33 0.03,-3.32 1.52,-3.9 m 9.12,8.08 c -0.06,6.52 -0.13,13.04 0.02,19.56 2.46,-0.18 5.58,0.23 6.97,-2.34 0.59,-5.03 0.2,-10.12 0.17,-15.17 -1.92,-1.92 -4.6,-2.08 -7.16,-2.05 z"
       inkscape:connector-curvature="0"
       style="fill:#000000" />
    <path
       id="path24"
       d="m 323.75,223.59 c 3.04,0.08 6.09,-0.15 9.12,0.19 1.98,1.52 2.4,4.13 3.19,6.35 2.91,9.8 6.02,19.55 8.68,29.41 -3.35,0.3 -6.72,0.25 -10.08,0.18 -0.93,-2.02 -1.75,-4.08 -2.54,-6.15 -3.07,-0.05 -6.13,-0.04 -9.19,0.01 -0.76,2.04 -1.48,4.1 -2.28,6.12 -2.84,0.13 -5.69,0.02 -8.53,-0.2 1.63,-6.32 3.83,-12.49 5.56,-18.79 2,-5.71 2.92,-11.88 6.07,-17.12 m 1.37,23 c 1.78,-0.03 3.57,-0.07 5.37,-0.14 -0.91,-2.81 -1.71,-5.65 -2.59,-8.47 -1.61,2.61 -2.56,5.55 -2.78,8.61 z"
       inkscape:connector-curvature="0"
       style="fill:#000000" />
    <path
       id="path26"
       d="m 43.29,228.89 c 8.39,-0.29 16.78,-0.03 25.16,-0.1 0.29,17.08 0.06,34.17 0.11,51.26 0.11,1.82 -0.4,3.93 1.02,5.39 2.82,3.5 6.68,6.1 9.06,9.98 -11.26,0.14 -22.53,-0.03 -33.8,0.06 -0.35,-0.29 -1.06,-0.87 -1.42,-1.16 3.35,-9.04 6.01,-18.31 8.99,-27.47 0.63,-2.01 1.57,-4.13 0.86,-6.25 -3.12,-10.64 -6.87,-21.08 -9.98,-31.71 z"
       inkscape:connector-curvature="0"
       style="fill:#ffffff" />
    <path
       id="path28"
       d="m 372.39,229.33 c 8.21,0 16.41,-0.13 24.62,0.03 -1.32,8.42 -4.95,16.29 -7.2,24.5 -0.85,3.72 -3.41,7.55 -1.73,11.41 3.17,9.68 5.97,19.49 9.5,29.04 -0.36,0.3 -1.07,0.88 -1.42,1.17 -11.27,-0.09 -22.54,0.08 -33.81,-0.06 2.54,-4.55 7.83,-7.06 9.98,-11.74 0.21,-18.11 0.05,-36.23 0.06,-54.35 z"
       inkscape:connector-curvature="0"
       style="fill:#ffffff" />
    <path
       id="path30"
       d="m 150.74,231.71 c 3.03,-0.31 8.77,-0.33 7.95,4.18 0.03,4.1 -5.37,2.52 -8.02,2.71 -0.03,-2.3 -0.03,-4.6 0.07,-6.89 z"
       inkscape:connector-curvature="0"
       style="fill:#ffffff" />
    <path
       id="path32"
       d="m 283.38,232.16 c 2.56,-0.03 5.24,0.13 7.16,2.05 0.03,5.05 0.42,10.14 -0.17,15.17 -1.39,2.57 -4.51,2.16 -6.97,2.34 -0.15,-6.52 -0.08,-13.04 -0.02,-19.56 z"
       inkscape:connector-curvature="0"
       style="fill:#ffffff" />
    <path
       id="path34"
       d="m 109.11,246.53 c 0.72,-2.99 1.52,-5.99 2.92,-8.74 0.94,2.89 1.83,5.79 2.71,8.7 -1.88,0.06 -3.76,0.07 -5.63,0.04 z"
       inkscape:connector-curvature="0"
       style="fill:#ffffff" />
    <path
       id="path36"
       d="m 242.06,246.6 c 0.36,-3.02 1.02,-6.1 2.86,-8.59 0.79,2.8 1.52,5.62 2.01,8.49 -1.62,0.04 -3.25,0.08 -4.87,0.1 z"
       inkscape:connector-curvature="0"
       style="fill:#ffffff" />
    <path
       id="path38"
       d="m 325.12,246.59 c 0.22,-3.06 1.17,-6 2.78,-8.61 0.88,2.82 1.68,5.66 2.59,8.47 -1.8,0.07 -3.59,0.11 -5.37,0.14 z"
       inkscape:connector-curvature="0"
       style="fill:#ffffff" />
    <path
       id="path40"
       d="m 197.78,352.08 c -4.38,-5.48 -3.13,-15.12 4.16,-17.37 5.12,-0.63 10.32,-0.2 15.46,-0.18 0.03,11.7 -0.01,23.4 0.02,35.1 -4.48,0.16 -8.97,0.2 -13.45,0.08 -4.91,-0.07 -9.16,-4.84 -8.64,-9.72 -0.37,-2.92 1.04,-5.49 2.45,-7.91 m 4.13,-10.97 c -2.02,1.67 -2.16,5.35 0.06,6.9 2.57,2.44 6.36,1.18 9.53,1.54 0.22,-3.28 0.19,-6.56 0.07,-9.83 -3.23,-0.01 -6.94,-0.85 -9.66,1.39 m -0.74,16.32 c -1.17,1.37 -1.09,3.74 0.16,5.04 2.34,3.38 6.87,1.72 10.31,2.1 0.02,-3.28 0.03,-6.54 -0.06,-9.81 -3.51,0.09 -8.29,-0.94 -10.41,2.67 z"
       inkscape:connector-curvature="0"
       style="fill:#000000" />
    <path
       id="path42"
       d="m 223.62,334.52 c 4.15,-0.14 8.3,-0.11 12.45,-0.1 5.11,-0.29 10.03,4.39 9.62,9.6 0.42,2.96 -0.98,5.61 -2.47,8.06 3.18,4.47 3.84,11.62 -0.73,15.43 -1.93,1.98 -4.83,2.3 -7.45,2.28 -3.82,-0.08 -7.63,0.05 -11.44,-0.16 0.05,-11.71 0.03,-23.41 0.02,-35.11 m 5.81,5.2 c -0.12,3.27 -0.16,6.55 0.07,9.83 2.15,-0.05 4.31,0.02 6.47,-0.11 3.29,-0.2 5.93,-4.06 4.12,-7.07 -2.23,-3.68 -7.05,-2.72 -10.66,-2.65 m 0.02,14.99 c -0.14,3.28 -0.12,6.57 -0.09,9.86 2.69,-0.04 5.41,0.16 8.1,-0.21 2.45,-1.2 4.37,-4.52 2.36,-6.94 -2.1,-3.61 -6.88,-2.54 -10.37,-2.71 z"
       inkscape:connector-curvature="0"
       style="fill:#000000" />
    <path
       id="path44"
       d="m 201.91,341.11 c 2.72,-2.24 6.43,-1.4 9.66,-1.39 0.12,3.27 0.15,6.55 -0.07,9.83 -3.17,-0.36 -6.96,0.9 -9.53,-1.54 -2.22,-1.55 -2.08,-5.23 -0.06,-6.9 z"
       inkscape:connector-curvature="0"
       style="fill:#ffffff" />
    <path
       id="path46"
       d="m 229.43,339.72 c 3.61,-0.07 8.43,-1.03 10.66,2.65 1.81,3.01 -0.83,6.87 -4.12,7.07 -2.16,0.13 -4.32,0.06 -6.47,0.11 -0.23,-3.28 -0.19,-6.56 -0.07,-9.83 z"
       inkscape:connector-curvature="0"
       style="fill:#ffffff" />
    <path
       id="path48"
       d="m 229.45,354.71 c 3.49,0.17 8.27,-0.9 10.37,2.71 2.01,2.42 0.09,5.74 -2.36,6.94 -2.69,0.37 -5.41,0.17 -8.1,0.21 -0.03,-3.29 -0.05,-6.58 0.09,-9.86 z"
       inkscape:connector-curvature="0"
       style="fill:#ffffff" />
    <path
       id="path50"
       d="m 201.17,357.43 c 2.12,-3.61 6.9,-2.58 10.41,-2.67 0.09,3.27 0.08,6.53 0.06,9.81 -3.44,-0.38 -7.97,1.28 -10.31,-2.1 -1.25,-1.3 -1.33,-3.67 -0.16,-5.04 z"
       inkscape:connector-curvature="0"
       style="fill:#ffffff" />
  </g>
</svg>
