<?xml version="1.0" encoding="utf-8"?>
<!-- Generator: Adobe Illustrator 14.0.0, SVG Export Plug-In . SVG Version: 6.00 Build 43363)  -->
<!DOCTYPE svg PUBLIC "-//W3C//DTD SVG 1.1//EN" "http://www.w3.org/Graphics/SVG/1.1/DTD/svg11.dtd">
<svg version="1.1" id="Layer_1" xmlns="http://www.w3.org/2000/svg" xmlns:xlink="http://www.w3.org/1999/xlink" x="0px" y="0px"
	 width="250px" height="208px" viewBox="0 0 250 208" enable-background="new 0 0 250 208" xml:space="preserve">
<g>
	<path fill="#003263" d="M132.605,203.032c41.349,0,74.754-33.529,74.754-74.868c0-24.025-11.335-45.416-28.882-59.102l19.398-29.87
		c0.121,0.022,0.289,0.022,0.436,0.022c3.682,0,6.64-2.993,6.64-6.656c0-3.644-2.958-6.637-6.64-6.637
		c-3.323,0-6.115,2.497-6.548,5.725l-12.612,2.396l-5.992-13.29c0.626-1.048,1.011-2.259,1.011-3.564
		c0-3.663-2.983-6.637-6.644-6.637c-3.634,0-6.617,2.974-6.617,6.637c0,0.197,0.048,0.295,0.073,0.455l-11.672,6.22l-10.783-9.388
		c0.433-0.852,0.674-1.862,0.674-2.853c0-3.663-3.009-6.656-6.669-6.656c-3.656,0-6.643,2.993-6.643,6.656
		c0,0.991,0.219,2.001,0.651,2.853l-10.783,9.388l-11.672-6.22c0.022-0.159,0.096-0.257,0.096-0.455
		c0-3.663-2.983-6.637-6.643-6.637c-3.657,0-6.643,2.974-6.643,6.637c0,1.306,0.388,2.516,1.036,3.564l-5.992,13.29l-12.613-2.396
		c-0.432-3.228-3.225-5.725-6.57-5.725c-3.66,0-6.643,2.993-6.643,6.637c0,3.663,2.983,6.656,6.643,6.656
		c0.143,0,0.312,0,0.458-0.022l19.398,29.87c-17.568,13.686-28.882,35.077-28.882,59.102
		C57.731,169.503,91.283,203.032,132.605,203.032"/>
	<path fill="#3AB4E7" d="M132.438,199.093c-39.159,0-70.808-31.77-70.808-70.929c0-39.176,31.77-70.946,70.928-70.946
		c39.182,0,70.783,31.77,70.783,70.946C203.341,167.323,171.571,199.093,132.438,199.093"/>
	<path fill="#FFFFFF" d="M185.146,128.228c0,28.937-23.443,52.389-52.372,52.389c-28.93,0-52.373-23.452-52.373-52.389
		c0-28.921,23.443-52.392,52.373-52.392C161.703,75.835,185.146,99.307,185.146,128.228"/>
	<path fill="#3AB4E7" d="M132.605,34.855L119.44,46.048l-14.585-6.201l-9.769,13.944l-14.684-1.366l-9.458-14.678
		c0.721-0.572,1.299-1.325,1.734-2.157l15.475,3.069l7.101-15.23c0.695,0.276,1.467,0.435,2.284,0.435
		c1.998,0,3.78-0.893,5.007-2.297l13.718,6.951l12.755-11.23c1.011,0.635,2.215,1.01,3.539,1.01c1.3,0,2.479-0.375,3.488-1.01
		l12.781,11.23l13.696-6.951c1.2,1.404,3.03,2.297,5.003,2.297c0.82,0,1.614-0.159,2.313-0.435l7.097,15.23l15.479-3.069
		c0.432,0.833,1.032,1.585,1.731,2.157l-9.483,14.678l-14.655,1.366l-9.772-13.944l-14.585,6.201L132.605,34.855"/>
	<path fill="none" stroke="#003263" stroke-width="0.6768" d="M132.605,34.855L119.44,46.048l-14.585-6.201l-9.769,13.944
		l-14.684-1.366l-9.458-14.678c0.721-0.572,1.299-1.325,1.734-2.157l15.475,3.069l7.101-15.23c0.695,0.276,1.467,0.435,2.284,0.435
		c1.998,0,3.78-0.893,5.007-2.297l13.718,6.951l12.755-11.23c1.011,0.635,2.215,1.01,3.539,1.01c1.3,0,2.479-0.375,3.488-1.01
		l12.781,11.23l13.696-6.951c1.2,1.404,3.03,2.297,5.003,2.297c0.82,0,1.614-0.159,2.313-0.435l7.097,15.23l15.479-3.069
		c0.432,0.833,1.032,1.585,1.731,2.157l-9.483,14.678l-14.655,1.366l-9.772-13.944l-14.585,6.201L132.605,34.855z"/>
	<path fill="#003263" d="M132.463,74.708c-29.508,0-53.287,23.945-53.287,53.457c0,29.495,23.948,53.418,53.43,53.418
		c29.508,0,53.31-23.923,53.31-53.418C185.915,98.652,161.967,74.708,132.463,74.708 M132.631,177.623
		c-27.341,0-49.484-22.162-49.484-49.497c0-27.294,22.143-49.457,49.484-49.457c27.29,0,49.313,22.163,49.313,49.457
		C181.943,155.461,159.921,177.623,132.631,177.623z"/>
	<path fill="#3AB4E7" d="M89.237,67.102l5.849-13.213l13.886,3.19C101.872,59.436,95.229,62.822,89.237,67.102"/>
	<path fill="#3AB4E7" d="M175.856,67.102c-5.995-4.279-12.638-7.666-19.761-10.023l13.912-3.19L175.856,67.102"/>
	<path fill="#3AB4E7" d="M145.625,46.007l7.824,10.22c-6.163-1.801-12.612-2.831-19.328-2.97L145.625,46.007"/>
	<path fill="#3AB4E7" d="M119.466,46.007l11.479,7.25c-6.691,0.14-13.166,1.169-19.278,2.97L119.466,46.007"/>
	<polyline fill="#003263" points="162.425,164.687 163.771,163.32 160.115,159.737 165.29,161.776 166.71,160.309 164.544,155.22 
		168.2,158.784 169.572,157.398 164.471,152.43 162.377,154.591 164.591,159.718 159.464,157.577 157.322,159.737 162.425,164.687 	
		"/>
	<polyline fill="#003263" points="100.115,162.47 101.751,163.759 103.702,161.3 106.853,163.797 104.902,166.256 106.517,167.54 
		110.92,161.993 109.284,160.69 107.574,162.889 104.397,160.392 106.154,158.212 104.543,156.922 100.115,162.47 	"/>
	<path fill="#003263" d="M130.197,175.323c3.564,0.159,5.055-1.919,5.128-3.564c0.073-1.684-1.372-3.8-4.692-3.959
		c-1.757-0.102-3.034,0.337-3.949,1.125c-0.695,0.598-1.178,1.468-1.226,2.421C125.384,173.303,127.094,175.189,130.197,175.323"/>
	<path fill="#003263" d="M121.438,171.46c-0.095,0.203-0.384,0.477-0.625,0.598c-0.458,0.196-1.157,0.26-1.951,0
		c-1.373-0.458-2.453-1.627-1.925-3.349c0.53-1.703,2.046-2.002,3.393-1.582c1.204,0.375,1.83,1.067,1.808,1.899l1.9,0.515
		c0.095-0.692-0.121-1.265-0.553-1.805c-0.483-0.647-1.372-1.245-2.818-1.722c-3.657-1.169-5.366,0.712-5.775,2.059
		c-0.721,2.319,0.988,4.359,3.514,5.172c2.071,0.636,4.381,0.375,4.984-1.131L121.438,171.46"/>
	<path fill="#003263" d="M136.624,168.017l1.011,4.873c0.146,0.73,0.505,1.067,1.062,1.366c0.647,0.317,1.709,0.477,3.466,0.121
		c2.646-0.579,3.752-1.786,3.463-3.171l-1.011-4.854l-2.046,0.457l0.94,4.613c0.169,0.56,0.048,0.756-0.095,1.011
		c-0.22,0.336-0.725,0.673-1.493,0.832c-1.3,0.279-2.094-0.076-2.263-0.909l-0.962-4.752L136.624,168.017"/>
	<path fill="#003263" d="M98.6,157.322c-0.194,0.114-0.578,0.179-0.845,0.114c-0.505-0.076-1.08-0.432-1.611-1.105
		c-0.867-1.169-1.108-2.751,0.337-3.844c1.42-1.067,2.84-0.458,3.708,0.654c0.743,1.011,0.864,1.9,0.384,2.573l1.274,1.544
		c0.458-0.553,0.604-1.124,0.556-1.817c-0.051-0.794-0.388-1.823-1.303-3.012c-2.332-3.068-4.788-2.478-5.918-1.646
		c-1.951,1.487-1.709,4.143-0.073,6.259c1.325,1.741,3.345,2.814,4.718,1.944L98.6,157.322"/>
	<path fill="#003263" d="M136.36,91.523c0,1.722,1.3,3.288,4.045,3.288c2.741,0,3.971-1.487,3.971-3.069
		c0-1.21-0.746-2.278-2.383-2.675l-2.239-0.575c-0.674-0.159-0.722-0.257-0.867-0.416c-0.169-0.159-0.264-0.375-0.264-0.613
		c0-0.534,0.479-1.188,1.83-1.188c0.647,0,1.152,0.216,1.442,0.496c0.241,0.257,0.409,0.632,0.435,1.01l1.878,0.038
		c-0.099-1.048-0.436-1.684-0.966-2.157c-0.527-0.477-1.538-0.931-2.91-0.931c-2.479,0-3.635,1.385-3.635,2.948
		c0,1.191,0.648,2.18,2.31,2.596l1.926,0.496c0.337,0.061,0.842,0.14,1.179,0.534c0.146,0.219,0.219,0.477,0.219,0.636
		c0,0.594-0.435,1.306-1.976,1.306c-1.49,0-2.116-0.772-2.094-1.722H136.36"/>
	<polyline fill="#003263" points="151.235,171.244 153.135,170.373 150.657,165.005 153.449,163.702 152.941,162.628 
		145.481,166.098 145.965,167.184 148.754,165.875 151.235,171.244 	"/>
	<polyline fill="#003263" points="128.202,94.494 135.252,94.494 135.252,92.851 130.149,92.851 130.149,90.274 134.604,90.274 
		134.604,88.711 130.175,88.711 130.175,86.611 135.183,86.611 135.183,85.045 128.202,85.045 128.202,94.494 	"/>
	<path fill="#003263" d="M125.314,154.647h3.562c1.709,0,3.393-1.111,3.393-3.133c0-2.135-1.661-3.228-3.393-3.228h-3.562V154.647"
		/>
	<polyline fill="#003263" points="171.308,154.591 172.438,152.824 166.517,148.941 165.36,150.746 171.308,154.591 	"/>
	<polyline fill="#003263" points="120.956,94.494 127.504,94.494 127.504,92.851 122.906,92.851 122.906,85.045 120.956,85.045 
		120.956,94.494 	"/>
	<polyline fill="#003263" points="133.305,154.647 139.392,154.647 139.392,153.555 135.014,153.555 135.014,151.795 
		138.839,151.795 138.839,150.766 135.014,150.766 135.014,149.361 139.321,149.361 139.321,148.287 133.305,148.287 
		133.305,154.647 	"/>
	<polyline fill="#003263" points="157.948,167.642 159.705,166.453 155.712,160.589 153.93,161.776 157.948,167.642 	"/>
	<path fill="#FFFFFF" d="M130.318,174.135c-2.431-0.095-2.72-2.039-2.694-2.693c0.073-1.779,1.563-2.517,2.91-2.453
		c1.325,0.058,2.745,0.947,2.672,2.732c-0.048,0.75-0.406,1.366-0.864,1.76C131.812,173.957,131.138,174.18,130.318,174.135"/>
	<polyline fill="#003263" points="109.331,169.064 111.209,170.075 114.58,163.816 112.702,162.825 109.331,169.064 	"/>
	<path fill="#FFFFFF" d="M127.021,153.555v-4.219h1.156c0.988,0,1.445,0.223,1.805,0.578c0.337,0.317,0.626,0.852,0.626,1.665
		c0,1.441-0.89,1.976-1.998,1.976H127.021"/>
	<polyline fill="#FFFFFF" points="173.255,181.385 166.637,174.04 168.13,172.712 175.686,174.93 171.209,169.961 172.702,168.633 
		179.297,175.959 177.731,177.363 170.271,175.107 174.723,180.076 173.255,181.385 	"/>
	<polygon fill="none" stroke="#003263" stroke-width="0.4367" points="173.255,181.385 166.637,174.04 168.13,172.712 
		175.686,174.93 171.209,169.961 172.702,168.633 179.297,175.959 177.731,177.363 170.271,175.107 174.723,180.076 	"/>
	<polyline fill="#FFFFFF" points="144.688,72.547 147.55,63.099 149.669,63.753 152.125,71.479 154.075,65.1 156.191,65.755 
		153.304,75.162 151.089,74.51 148.731,66.803 146.781,73.183 144.688,72.547 	"/>
	<polygon fill="none" stroke="#003263" stroke-width="0.4367" points="144.688,72.547 147.55,63.099 149.669,63.753 152.125,71.479 
		154.075,65.1 156.191,65.755 153.304,75.162 151.089,74.51 148.731,66.803 146.781,73.183 	"/>
	<path fill="#FFFFFF" d="M117.49,69.656l-0.407-1.487l4.499-1.208l1.398,5.051l-1.636,0.455l-0.458-1.246
		c-0.146,0.493-0.483,1.048-1.036,1.525c-0.553,0.496-1.204,0.772-1.903,0.95c-1.105,0.317-2.284,0.238-3.488-0.356
		c-1.252-0.594-2.189-1.646-2.672-3.349c-0.721-2.713,0.483-5.646,3.682-6.516c1.541-0.397,2.792-0.276,3.78,0.178
		c0.794,0.356,1.417,0.912,1.875,1.801l-2.116,0.635c-0.505-0.931-1.687-1.388-2.936-1.051c-1.855,0.496-2.602,2.398-2.071,4.34
		c0.651,2.335,2.383,2.989,3.898,2.573c1.877-0.496,2.36-2.1,2.192-2.99L117.49,69.656"/>
	<path fill="none" stroke="#003263" stroke-width="0.4367" d="M117.49,69.656l-0.407-1.487l4.499-1.208l1.398,5.051l-1.636,0.455
		l-0.458-1.246c-0.146,0.493-0.483,1.048-1.036,1.525c-0.553,0.496-1.204,0.772-1.903,0.95c-1.105,0.317-2.284,0.238-3.488-0.356
		c-1.252-0.594-2.189-1.646-2.672-3.349c-0.721-2.713,0.483-5.646,3.682-6.516c1.541-0.397,2.792-0.276,3.78,0.178
		c0.794,0.356,1.417,0.912,1.875,1.801l-2.116,0.635c-0.505-0.931-1.687-1.388-2.936-1.051c-1.855,0.496-2.602,2.398-2.071,4.34
		c0.651,2.335,2.383,2.989,3.898,2.573c1.877-0.496,2.36-2.1,2.192-2.99L117.49,69.656z"/>
	<polyline fill="#FFFFFF" points="155.664,191.291 151.642,182.274 158.333,179.346 158.984,180.832 154.219,182.948 
		155.086,184.949 159.32,183.088 159.994,184.574 155.734,186.437 156.817,188.914 161.678,186.773 162.377,188.317 
		155.664,191.291 	"/>
	<polygon fill="none" stroke="#003263" stroke-width="0.4367" points="155.664,191.291 151.642,182.274 158.333,179.346 
		158.984,180.832 154.219,182.948 155.086,184.949 159.32,183.088 159.994,184.574 155.734,186.437 156.817,188.914 
		161.678,186.773 162.377,188.317 	"/>
	<polyline fill="#FFFFFF" points="164.28,81.204 166.494,78.154 167.168,71.102 169.163,72.528 168.489,77.401 172.991,75.282 
		174.891,76.667 168.347,79.479 166.132,82.529 164.28,81.204 	"/>
	<polygon fill="none" stroke="#003263" stroke-width="0.4367" points="164.28,81.204 166.494,78.154 167.168,71.102 169.163,72.528 
		168.489,77.401 172.991,75.282 174.891,76.667 168.347,79.479 166.132,82.529 	"/>
	<path fill="#FFFFFF" d="M94.314,82.195l1.804-1.29c0.556,0.813,1.588,1.051,3.009,0.022c1.445-1.051,1.445-1.941,1.083-2.459
		c-0.121-0.136-0.337-0.314-0.601-0.375c-0.553-0.118-1.061,0.178-1.446,0.336l-2.116,0.893c-1.83,0.772-3.06,0.413-3.781-0.594
		c-0.937-1.328-0.747-3.288,1.636-5.013c1.325-0.95,2.529-1.227,3.346-1.188c0.772,0.042,1.493,0.356,2.214,1.169l-1.779,1.268
		c-0.289-0.318-0.673-0.515-1.061-0.575c-0.432-0.019-1.058,0.121-1.659,0.556c-1.277,0.912-1.325,1.801-0.962,2.255
		c0.118,0.2,0.312,0.318,0.575,0.359c0.241,0.038,0.336,0.057,1.083-0.238l2.481-1.071c1.779-0.753,3.126-0.337,3.873,0.654
		c0.963,1.366,0.747,3.425-1.877,5.309C97.539,84.095,95.372,83.66,94.314,82.195"/>
	<path fill="none" stroke="#003263" stroke-width="0.4367" d="M94.314,82.195l1.804-1.29c0.556,0.813,1.588,1.051,3.009,0.022
		c1.445-1.051,1.445-1.941,1.083-2.459c-0.121-0.136-0.337-0.314-0.601-0.375c-0.553-0.118-1.061,0.178-1.446,0.336l-2.116,0.893
		c-1.83,0.772-3.06,0.413-3.781-0.594c-0.937-1.328-0.747-3.288,1.636-5.013c1.325-0.95,2.529-1.227,3.346-1.188
		c0.772,0.042,1.493,0.356,2.214,1.169l-1.779,1.268c-0.289-0.318-0.673-0.515-1.061-0.575c-0.432-0.019-1.058,0.121-1.659,0.556
		c-1.277,0.912-1.325,1.801-0.962,2.255c0.118,0.2,0.312,0.318,0.575,0.359c0.241,0.038,0.336,0.057,1.083-0.238l2.481-1.071
		c1.779-0.753,3.126-0.337,3.873,0.654c0.963,1.366,0.747,3.425-1.877,5.309C97.539,84.095,95.372,83.66,94.314,82.195z"/>
	<polyline fill="#FFFFFF" points="154.123,75.441 162.113,68.449 164.302,69.596 163.051,80.096 160.957,79.006 161.294,76.846 
		157.806,74.984 156.169,76.509 154.123,75.441 	"/>
	<polygon fill="none" stroke="#003263" stroke-width="0.4367" points="154.123,75.441 162.113,68.449 164.302,69.596 
		163.051,80.096 160.957,79.006 161.294,76.846 157.806,74.984 156.169,76.509 	"/>
	<polyline fill="#FFFFFF" points="104.039,79.006 103.244,68.43 105.458,67.378 113.112,74.666 111.018,75.676 109.478,74.094 
		105.891,75.816 106.132,78.015 104.039,79.006 	"/>
	<polygon fill="none" stroke="#003263" stroke-width="0.4367" points="104.039,79.006 103.244,68.43 105.458,67.378 113.112,74.666 
		111.018,75.676 109.478,74.094 105.891,75.816 106.132,78.015 	"/>
	<polyline fill="#FFFFFF" points="92.557,181.785 100.931,175.482 102.739,176.715 100.067,186.812 98.333,185.642 98.958,183.564 
		95.975,181.582 94.266,182.929 92.557,181.785 	"/>
	<polygon fill="none" stroke="#003263" stroke-width="0.4367" points="92.557,181.785 100.931,175.482 102.739,176.715 
		100.067,186.812 98.333,185.642 98.958,183.564 95.975,181.582 94.266,182.929 	"/>
	<polyline fill="#FFFFFF" points="164.111,187.466 161.655,177.306 163.508,176.117 171.691,182.592 169.935,183.723 
		168.273,182.319 165.29,184.257 165.843,186.341 164.111,187.466 	"/>
	<polygon fill="none" stroke="#003263" stroke-width="0.4367" points="164.111,187.466 161.655,177.306 163.508,176.117 
		171.691,182.592 169.935,183.723 168.273,182.319 165.29,184.257 165.843,186.341 	"/>
	<path fill="#FFFFFF" d="M108.852,187.37l1.83,0.89c-1.134,1.982-3.492,2.338-5.442,1.442c-2.332-1.105-3.488-3.818-2.068-6.888
		c0.842-1.767,3.082-4.264,6.497-2.675c1.35,0.609,2.046,1.442,2.36,2.319c0.289,0.711,0.337,1.461,0.073,2.414l-1.808-0.73
		c0.267-1.112-0.191-2.021-1.274-2.517c-1.252-0.597-2.914-0.178-3.949,2.059c-1.058,2.275-0.286,3.819,0.988,4.436
		c0.747,0.337,1.468,0.299,1.973,0.019C108.346,187.98,108.706,187.644,108.852,187.37"/>
	<path fill="none" stroke="#003263" stroke-width="0.4367" d="M108.852,187.37l1.83,0.89c-1.134,1.982-3.492,2.338-5.442,1.442
		c-2.332-1.105-3.488-3.818-2.068-6.888c0.842-1.767,3.082-4.264,6.497-2.675c1.35,0.609,2.046,1.442,2.36,2.319
		c0.289,0.711,0.337,1.461,0.073,2.414l-1.808-0.73c0.267-1.112-0.191-2.021-1.274-2.517c-1.252-0.597-2.914-0.178-3.949,2.059
		c-1.058,2.275-0.286,3.819,0.988,4.436c0.747,0.337,1.468,0.299,1.973,0.019C108.346,187.98,108.706,187.644,108.852,187.37z"/>
	<polyline fill="#FFFFFF" points="134.94,71.302 136.071,61.495 144.135,62.387 143.941,64.033 138.14,63.397 137.876,65.558 
		143.052,66.152 142.883,67.756 137.708,67.162 137.419,69.875 143.315,70.549 143.1,72.232 134.94,71.302 	"/>
	<polygon fill="none" stroke="#003263" stroke-width="0.4367" points="134.94,71.302 136.071,61.495 144.135,62.387 143.941,64.033 
		138.14,63.397 137.876,65.558 143.052,66.152 142.883,67.756 137.708,67.162 137.419,69.875 143.315,70.549 143.1,72.232 	"/>
	<path fill="#FFFFFF" d="M123.821,61.99l2.262-0.137l0.433,6.713c0.099,1.188,0.915,1.843,2.313,1.763
		c0.89-0.061,1.468-0.416,1.757-0.871c0.19-0.257,0.312-0.537,0.238-1.347l-0.432-6.539l2.262-0.156l0.482,6.853
		c0.144,1.979-1.229,3.406-4.212,3.603c-1.903,0.121-3.009-0.314-3.683-0.909c-0.578-0.477-0.889-1.051-0.988-2.081L123.821,61.99"
		/>
	<path fill="none" stroke="#003263" stroke-width="0.4367" d="M123.821,61.99l2.262-0.137l0.433,6.713
		c0.099,1.188,0.915,1.843,2.313,1.763c0.89-0.061,1.468-0.416,1.757-0.871c0.19-0.257,0.312-0.537,0.238-1.347l-0.432-6.539
		l2.262-0.156l0.482,6.853c0.144,1.979-1.229,3.406-4.212,3.603c-1.903,0.121-3.009-0.314-3.683-0.909
		c-0.578-0.477-0.889-1.051-0.988-2.081L123.821,61.99z"/>
	<path fill="#FFFFFF" d="M119.923,191.112l1.947,0.273c-0.168,0.953,0.362,1.843,1.925,2.046c1.588,0.235,2.145-0.419,2.24-1.055
		c0.021-0.178-0.025-0.432-0.169-0.674c-0.241-0.45-0.772-0.591-1.131-0.769l-1.903-0.756c-1.659-0.674-2.214-1.779-2.021-3.012
		c0.216-1.62,1.588-2.91,4.187-2.555c1.42,0.197,2.408,0.813,2.888,1.392c0.483,0.572,0.722,1.303,0.674,2.396l-1.947-0.299
		c0.047-0.419-0.073-0.832-0.314-1.149c-0.242-0.318-0.722-0.61-1.395-0.712c-1.42-0.197-1.999,0.413-2.046,0.991
		c-0.048,0.254,0,0.451,0.168,0.674c0.095,0.158,0.168,0.272,0.842,0.533l2.239,0.909c1.611,0.654,2.237,1.881,2.068,3.113
		c-0.241,1.639-1.684,3.012-4.549,2.611C120.765,194.677,119.656,192.892,119.923,191.112"/>
	<path fill="none" stroke="#003263" stroke-width="0.4367" d="M119.923,191.112l1.947,0.273c-0.168,0.953,0.362,1.843,1.925,2.046
		c1.588,0.235,2.145-0.419,2.24-1.055c0.021-0.178-0.025-0.432-0.169-0.674c-0.241-0.45-0.772-0.591-1.131-0.769l-1.903-0.756
		c-1.659-0.674-2.214-1.779-2.021-3.012c0.216-1.62,1.588-2.91,4.187-2.555c1.42,0.197,2.408,0.813,2.888,1.392
		c0.483,0.572,0.722,1.303,0.674,2.396l-1.947-0.299c0.047-0.419-0.073-0.832-0.314-1.149c-0.242-0.318-0.722-0.61-1.395-0.712
		c-1.42-0.197-1.999,0.413-2.046,0.991c-0.048,0.254,0,0.451,0.168,0.674c0.095,0.158,0.168,0.272,0.842,0.533l2.239,0.909
		c1.611,0.654,2.237,1.881,2.068,3.113c-0.241,1.639-1.684,3.012-4.549,2.611C120.765,194.677,119.656,192.892,119.923,191.112z"/>
	<polyline fill="#FFFFFF" points="86.083,175.901 92.75,168.633 94.266,169.999 88.732,176.041 92.268,179.25 91.137,180.533 
		86.083,175.901 	"/>
	<polygon fill="none" stroke="#003263" stroke-width="0.4367" points="86.083,175.901 92.75,168.633 94.266,169.999 88.732,176.041 
		92.268,179.25 91.137,180.533 	"/>
	<polyline fill="#FFFFFF" points="132.294,195.313 132.222,187.091 129.213,187.129 129.188,185.483 137.203,185.407 
		137.229,187.071 134.22,187.091 134.314,195.313 132.294,195.313 	"/>
	<polygon fill="none" stroke="#003263" stroke-width="0.4367" points="132.294,195.313 132.222,187.091 129.213,187.129 
		129.188,185.483 137.203,185.407 137.229,187.071 134.22,187.091 134.314,195.313 	"/>
	<path fill="#FFFFFF" d="M146.06,190.376l1.779-0.489l0.194,0.711c0.289,1.049,0.915,1.348,1.636,1.17
		c0.436-0.141,0.699-0.382,0.842-0.719c0.099-0.234,0.121-0.394,0-0.984l-1.899-6.875l1.925-0.553l1.999,7.065
		c0.216,0.852,0.12,1.468-0.22,2.104c-0.505,0.87-1.273,1.245-2.188,1.524c-1.157,0.299-1.999,0.14-2.646-0.279
		c-0.553-0.375-0.893-0.73-1.204-1.862L146.06,190.376"/>
	<path fill="none" stroke="#003263" stroke-width="0.4367" d="M146.06,190.376l1.779-0.489l0.194,0.711
		c0.289,1.049,0.915,1.348,1.636,1.17c0.436-0.141,0.699-0.382,0.842-0.719c0.099-0.234,0.121-0.394,0-0.984l-1.899-6.875
		l1.925-0.553l1.999,7.065c0.216,0.852,0.12,1.468-0.22,2.104c-0.505,0.87-1.273,1.245-2.188,1.524
		c-1.157,0.299-1.999,0.14-2.646-0.279c-0.553-0.375-0.893-0.73-1.204-1.862L146.06,190.376z"/>
	<polyline fill="#FFFFFF" points="112.702,187.999 113.182,186.379 118.624,187.98 118.167,189.606 112.702,187.999 	"/>
	<polygon fill="none" stroke="#003263" stroke-width="0.4367" points="112.702,187.999 113.182,186.379 118.624,187.98 
		118.167,189.606 	"/>
	<polyline fill="#FFFFFF" points="138.696,191.011 138.454,189.347 144.062,188.539 144.303,190.197 138.696,191.011 	"/>
	<polygon fill="none" stroke="#003263" stroke-width="0.4367" points="138.696,191.011 138.454,189.347 144.062,188.539 
		144.303,190.197 	"/>
	<polyline fill="#3AB4E7" points="164.88,182.675 167.069,181.245 163.702,178.373 164.88,182.675 	"/>
	<polygon fill="none" stroke="#003263" stroke-width="0.4367" points="164.88,182.675 167.069,181.245 163.702,178.373 	"/>
	<polyline fill="#3AB4E7" points="158.959,73.875 161.583,75.222 162.281,70.784 158.959,73.875 	"/>
	<polygon fill="none" stroke="#003263" stroke-width="0.4367" points="158.959,73.875 161.583,75.222 162.281,70.784 	"/>
	<polyline fill="#3AB4E7" points="97.275,180.597 99.464,182.039 100.789,177.801 97.275,180.597 	"/>
	<polygon fill="none" stroke="#003263" stroke-width="0.4367" points="97.275,180.597 99.464,182.039 100.789,177.801 	"/>
	<polyline fill="#3AB4E7" points="105.722,74.151 108.369,72.906 105.239,69.656 105.722,74.151 	"/>
	<polygon fill="none" stroke="#003263" stroke-width="0.4367" points="105.722,74.151 108.369,72.906 105.239,69.656 	"/>
	<path fill="#FFFFFF" d="M175.374,100.832l-3.876,0.356l2.36-3.346c2.621-3.784,5.775-5.626,9.096-6.201
		c0.626-0.099,1.182-0.159,1.661-0.159c0.699,0,1.227,0.102,1.637,0.26c0.721,0.235,1.588,0.95,1.588,2.157
		c0,0.337-0.072,0.613-0.168,0.852c-0.264,0.832-1.131,1.982-2.793,3.148c-0.769,0.556-1.636,1.051-2.719,1.487
		c0.842,0.416,1.299,1.188,1.493,2.001c0.025,0.238,0.047,0.473,0.047,0.632c0,0.734-0.19,1.843-0.794,3.25
		c2.529-4.518,6.885-8.536,12.009-9.569c0.388-0.076,0.725-0.099,1.084-0.099c1.709,0,2.624,1.071,2.888,2.297
		c0.025,0.219,0.051,0.397,0.051,0.635c0,1.048-0.41,2.951-1.951,5.467l0.41-0.397l1.947-1.941c1.156-1.15,2.624-2.437,4.117-3.644
		c0.337-0.772,0.674-1.347,0.985-1.703c0.867-1.188,1.998-1.922,4.14-2.338c0.578-0.118,1.252-0.197,1.998-0.276l3.444-0.318
		l-0.747,1.426c1.827-1.604,2.504-2.059,3.177-2.437c1.131-0.632,1.731-0.852,2.236-0.969c0.29-0.06,0.554-0.06,0.795-0.06
		c1.709,0,3.081,1.128,3.418,2.732c0.048,0.219,0.048,0.477,0.048,0.674c0,0.753-0.264,1.506-0.479,2.16
		c-0.051,0.019-0.051,0.08-0.073,0.099c-0.025,0.079-0.048,0.159-0.073,0.257c-0.073,0.197-0.143,0.375-0.216,0.594
		c-0.289,0.851-0.53,1.623-0.747,2.357l1.853-1.782l2.167-2.021c4.645-4.298,10.878-9.07,13.238-10.36
		c1.204-0.613,1.852-0.852,2.357-0.931c0.314-0.057,0.651-0.117,1.035-0.117c1.541,0,2.646,0.95,2.913,2.259
		c0.022,0.136,0.07,0.314,0.07,0.534c0,1.684-1.347,2.614-2.72,2.891c-0.264,0.041-0.479,0.079-0.647,0.098
		c-0.048,0.022-0.073,0.022-0.121,0.022c-0.073,0.019-0.146,0.019-0.216,0.038c-0.146,0.038-0.267,0.038-0.337,0.06
		c-1.131,0.216-1.662,0.871-1.662,1.881c0,0.219,0.026,0.455,0.073,0.734c0.07,0.337,0.191,0.712,0.337,1.188
		c0.144,0.435,0.312,0.988,0.41,1.525c0.168,0.772,0.238,1.544,0.238,2.316c0,2.24-0.769,4.14-2.262,6.122
		c-2.793,3.601-7.727,6.498-9.29,6.791c-0.289,0.063-0.601,0.12-0.89,0.12c-1.925,0-3.345-1.29-3.732-3.088
		c-0.048-0.337-0.096-0.712-0.096-1.112c0-0.85,0.169-1.761,0.553-2.791l-0.647,0.651c-1.325,1.328-3.683,3.944-6.139,7.173
		c-0.021,0.076-0.072,0.14-0.168,0.234c-0.048,0.083-0.096,0.159-0.168,0.261c-0.048,0.058-0.121,0.14-0.169,0.197
		c-0.146,0.196-0.289,0.394-0.41,0.571c-0.673,0.795-1.204,1.252-1.998,1.411c-0.238,0.038-0.432,0.038-0.601,0.038
		c-1.731,0-2.646-1.366-2.888-2.656c-0.12-0.451-0.168-1.048-0.168-2.001c0-0.356,0-0.788,0.022-1.303
		c0.098-1.924,0.314-3.627,1.061-6.222c-1.95,2.199-3.587,4.653-4.886,7.328c0,0.019-0.025,0.044-0.025,0.044
		c-0.022,0.038-0.022,0.058-0.022,0.058c-0.025,0.02-0.025,0.058-0.048,0.076c-0.457,0.973-0.651,1.328-1.541,3.787
		c-0.025,0.057-0.073,0.178-0.099,0.254c-0.021,0.063-0.047,0.102-0.047,0.102c-0.022,0.058-0.022,0.121-0.048,0.159
		c-0.169,0.451-0.674,2.218-2.405,2.554c-0.12,0.02-0.314,0.039-0.53,0.039c-1.734,0-2.504-1.442-2.768-2.694
		c-0.099-0.572-0.146-1.067-0.146-1.544c0-0.458,0.047-0.89,0.073-1.265c0,0,0-0.102,0.025-0.121c0-0.14,0-0.298,0-0.438
		c0.047-0.908,0.168-1.88,0.336-2.91l-8.736,8.616c-0.457,0.458-2.986,2.751-3.154,2.872c-0.747,0.654-1.396,0.935-2.142,1.112
		c-0.241,0.038-0.479,0.057-0.747,0.057c-2.262,0-4.041-1.823-4.666-4.949l-4.527,4.396c-0.458,0.471-2.983,2.751-3.151,2.872
		c-0.722,0.654-1.373,0.966-2.142,1.105c-0.22,0.063-0.458,0.083-0.725,0.083c-2.262,0-4.066-1.805-4.715-5.032v-0.02
		c-1.156,1.31-2.503,2.968-3.923,4.791c-0.099,0.159-0.169,0.261-0.268,0.4c-0.047,0.038-0.047,0.057-0.069,0.114
		c-0.194,0.241-0.41,0.515-0.578,0.775c-0.651,0.788-1.179,1.245-2.046,1.385c-0.169,0.038-0.385,0.058-0.553,0.058
		c-1.735,0-2.65-1.386-2.914-2.694c-0.072-0.432-0.143-1.01-0.143-1.957c0-0.375,0-0.813,0.022-1.328
		c0.095-1.899,0.314-3.628,1.035-6.221c-1.95,2.218-3.539,4.639-4.86,7.308c0,0,0,0.044-0.025,0.063c0,0,0,0.038-0.025,0.057
		c0,0.038-0.022,0.058-0.048,0.121c-0.457,0.947-0.674,1.328-1.541,3.742c-0.021,0.058-0.047,0.121-0.069,0.159
		c-0.025,0.096-0.048,0.159-0.099,0.235c0,0.044,0,0.082-0.022,0.14c-0.146,0.438-0.651,2.18-2.408,2.516
		c-0.12,0.058-0.337,0.077-0.505,0.077c-1.731,0-2.525-1.462-2.793-2.688c-0.095-0.578-0.143-1.093-0.143-1.569
		c0-0.451,0.048-0.89,0.073-1.245c0,0,0-0.102,0.048-0.14c0-0.159,0-0.279,0-0.413c0.047-0.935,0.168-1.926,0.336-2.955
		l-8.762,8.616c-0.432,0.477-2.983,2.776-3.151,2.91c-0.722,0.636-1.347,0.953-2.142,1.093c-0.241,0.058-0.457,0.076-0.746,0.076
		c-2.288,0-4.044-1.861-4.692-5.025v-0.063c-1.493,1.607-3.129,3.387-3.733,4.06c-0.48,0.534-0.842,0.991-1.153,1.366
		c0,0.02-0.025,0.063-0.073,0.083c-0.601,0.769-1.373,1.823-2.792,2.115c-0.216,0.063-0.432,0.083-0.578,0.083
		c-1.636,0-2.815-1.227-3.126-2.776c-0.098-0.413-0.146-0.966-0.146-1.602c0-0.496,0.048-1.112,0.121-1.785l-1.661,2.179
		c-1.541,2.04-3.657,4.436-4.114,4.854c-0.651,0.591-1.229,1.029-2.192,1.207c-0.168,0.038-0.407,0.083-0.673,0.083
		c-1.709,0-3.009-1.169-3.32-2.758c-0.073-0.337-0.121-0.692-0.121-1.029c0-0.769,0.143-1.524,0.264-2.077
		c0.025-0.083,0.047-0.159,0.047-0.28c0-0.019,0.051-0.057,0.051-0.095c0.095-0.54,0.191-1.055,0.312-1.551l-1.373,1.468
		c-0.384,0.42-1.973,2.104-3.536,3.901l-0.988,3.113c-1.468,4.556-2.094,5.96-2.936,7.682c-1.373,2.872-2.697,4.836-3.828,6.24
		c-2.214,2.713-3.777,3.603-4.835,3.825c-0.194,0.019-0.458,0.057-0.724,0.057c-1.973,0-3.247-1.524-3.657-3.526
		c-0.095-0.553-0.168-1.15-0.168-1.798c0-1.982,0.578-4.499,2.141-7.428c0.216-0.42,0.432-0.794,0.674-1.15
		c-0.312,0.114-0.601,0.197-0.868,0.273c-0.238,0.044-0.479,0.063-0.696,0.063c-1.83,0-3.056-1.347-3.443-3.151
		c-0.696,0.775-1.42,1.607-2.046,2.376c-0.264,0.337-0.527,0.636-0.794,0.991c-0.384,0.496-0.769,0.973-1.179,1.449
		c-0.527,0.609-1.131,1.086-1.948,1.245c-0.121,0.019-0.362,0.058-0.625,0.058c-1.757,0-2.672-1.442-2.961-2.892
		c-0.095-0.451-0.146-1.067-0.146-1.798c0-0.56,0.025-1.271,0.121-2.021l-2.646,3.603c-0.674,0.953-2.214,2.732-3.393,3.844
		c-0.048,0.038-0.073,0.096-0.168,0.159c5.919-0.317,10.589-0.355,12.851-0.355c0.721,0,1.229,0,1.397,0h0.048
		c0.168,0,0.359,0,0.527,0c0.626,0,3.323-0.083,3.323,1.957c0,0.692-0.41,1.188-0.626,1.385c-0.699,0.718-1.973,1.232-3.155,1.544
		c-0.575,0.121-1.201,0.241-1.804,0.299c-0.096,0-0.337,0-0.579,0.019c-2.525,0.083-14.125,0.438-26.159,2.16
		c-5.896,6.933-15.068,13.884-21.686,17.474c-5.56,2.986-10.083,3.959-12.155,4.238c-0.648,0.095-1.274,0.133-1.852,0.133h-0.362
		c-3.704-0.133-5.703-2.313-6.208-5.426c0-0.038-0.025-0.096-0.025-0.159C5.095,169.484,5,169.026,5,168.55
		c0-0.216,0.022-0.477,0.07-0.712c1.999-11.646,19.713-16.856,35.766-19.29c1.083-1.823,1.395-2.694,1.395-3.488
		c0-0.337-0.048-0.712-0.191-1.188c-0.289-0.972-2.094-1.328-3.612-1.486c-0.121,0-0.286-0.02-0.406-0.058l-7.247-1.207
		c-3.825-0.654-5.512-1.29-6.643-1.982c-2.453-1.525-3.441-3.387-3.778-5.286c-0.095-0.42-0.121-0.852-0.121-1.29v-0.216
		c0.048-2.021,0.915-4.118,2.888-6.221c2.576-2.771,7.294-6.513,13.454-9.207c5.487-2.357,11.841-4.086,15.522-4.715
		c0.893-0.14,1.589-0.203,2.167-0.203h0.314c0.238,0.025,0.505,0.045,0.648,0.063c0.121,0.02,0.168,0.02,0.194,0.02h0.191h0.604
		l0.384,0.299c1.058,0.629,1.999,1.524,2.24,2.947c0.07,0.242,0.07,0.42,0.07,0.554c0,0.063,0,0.12,0,0.184v0.134
		c0,0.261-0.047,0.654-0.216,1.073c-0.41,1.208-1.563,2.237-2.383,3.006c-0.289,0.279-0.626,0.616-1.036,1.036
		c-2.237,2.217-3.634,3.978-4.572,5.585l-0.384,0.629l-0.651,0.203l-5.801,2.04c-0.721,0.254-1.417,0.45-2.116,0.45
		c-0.047,0-0.095,0-0.121-0.019c-1.493-0.058-2.478-1.067-2.529-2.434l-0.022-0.159l0.022-0.12c0.073-0.496,0.267-0.973,0.458-1.366
		c0.53-1.067,1.445-2.3,1.782-2.694c0.553-0.73,1.226-1.563,2.021-2.573c-2.383,0.794-4.524,1.823-6.449,3.031
		c-0.384,0.254-0.794,0.609-1.299,1.01c-0.048,0.058-0.121,0.14-0.216,0.178c-0.146,0.14-0.336,0.255-0.41,0.337
		c-0.073,0.038-0.121,0.058-0.121,0.058c-1.805,1.486-2.214,2.262-2.551,2.853l-0.022,0.038c-0.388,0.654-0.531,1.169-0.531,1.449
		c0,0.14,0.025,0.196,0.025,0.196c0.216,1.271,1.827,1.843,4.981,2.339c0.095,0.038,0.216,0.038,0.264,0.057l6.643,1.131
		c4.044,0.693,4.886,1.067,5.801,1.703c0.07,0.058,0.121,0.102,0.143,0.14c2.529,1.582,3.708,3.819,3.708,6.418
		c0,1.76-0.553,3.583-1.445,5.388c1.277-0.121,2.551-0.223,3.803-0.317c-0.527-0.553-0.842-1.31-0.985-2.122
		c-0.098-0.395-0.168-0.991-0.168-1.761c0-0.495,0.048-1.067,0.096-1.702c0.289-2.599,1.131-5.173,3.008-8.121
		c3.441-5.406,8.807-9.054,14.681-10.242c0.289-0.057,0.578-0.095,0.82-0.159c0.794-1.105,1.875-1.684,3.682-2.059
		c0.648-0.14,1.636-0.216,2.5-0.216h0.146l3.056,0.038l-1.395,2.713c-1.014,1.964-1.925,4.182-2.745,6.398
		c-0.168,0.496-0.337,0.928-0.483,1.404l1.588-1.62c0.845-1.646,1.903-3.272,3.298-4.816c3.177-3.564,7.221-5.846,11.386-6.652
		c0.626-0.14,1.274-0.223,1.925-0.279c1.032-1.029,2.357-1.76,4.162-2.097c0.435-0.083,0.893-0.159,1.42-0.159l3.129-0.083
		l-1.372,2.796c-0.696,1.442-1.395,2.91-2.046,4.416l0.073-0.082c1.109-1.029,2.288-2.097,3.539-3.126
		c0.432-1.011,0.89-1.862,1.033-2.104c1.061-1.62,2.214-2.415,5.08-2.986c0.531-0.102,1.058-0.197,1.611-0.241l3.781-0.413
		l-1.925,3.228c-0.962,1.627-1.757,3.266-2.503,5.229l1.105-1.43c2.192-2.948,2.792-3.622,4.213-5.128
		c1.179-1.309,1.855-1.861,2.24-2.16c0.769-0.591,1.61-1.049,4.499-1.525l3.78-0.609l-1.805,3.367
		c-1.277,2.357-2.239,4.733-2.986,6.989c0.025-0.019,0.047-0.038,0.047-0.038l2.529-2.421c2.288-5.286,7.123-10.356,12.998-11.525
		c0.336-0.076,0.695-0.114,1.058-0.114c1.709,0,2.646,1.086,2.865,2.313c0.048,0.223,0.07,0.457,0.07,0.636
		c0,1.048-0.385,2.947-1.947,5.483l0.406-0.395l1.951-1.938c1.156-1.169,2.624-2.459,4.113-3.628
		c0.337-0.813,0.699-1.366,0.963-1.723c0.893-1.209,2.046-1.942,4.14-2.355c0.604-0.121,1.252-0.219,2.023-0.279l3.467-0.276
		l-0.747,1.385c1.805-1.604,2.479-2.021,3.177-2.434c1.059-0.616,1.684-0.854,2.215-0.972c0.312-0.06,0.578-0.06,0.794-0.06
		c1.709,0,3.082,1.15,3.393,2.735c0.048,0.235,0.073,0.454,0.073,0.674c0,0.77-0.289,1.545-0.53,2.219v0.038
		c-0.048,0.121-0.096,0.235-0.143,0.337c-0.051,0.197-0.099,0.355-0.194,0.533c-0.264,0.852-0.505,1.646-0.721,2.377l1.563-1.563
		C168.368,106.715,171.523,102.97,175.374,100.832"/>
	<path fill="none" stroke="#003263" stroke-width="0.6768" d="M175.374,100.832l-3.876,0.356l2.36-3.346
		c2.621-3.784,5.775-5.626,9.096-6.201c0.626-0.099,1.182-0.159,1.661-0.159c0.699,0,1.227,0.102,1.637,0.26
		c0.721,0.235,1.588,0.95,1.588,2.157c0,0.337-0.072,0.613-0.168,0.852c-0.264,0.832-1.131,1.982-2.793,3.148
		c-0.769,0.556-1.636,1.051-2.719,1.487c0.842,0.416,1.299,1.188,1.493,2.001c0.025,0.238,0.047,0.473,0.047,0.632
		c0,0.734-0.19,1.843-0.794,3.25c2.529-4.518,6.885-8.536,12.009-9.569c0.388-0.076,0.725-0.099,1.084-0.099
		c1.709,0,2.624,1.071,2.888,2.297c0.025,0.219,0.051,0.397,0.051,0.635c0,1.048-0.41,2.951-1.951,5.467l0.41-0.397l1.947-1.941
		c1.156-1.15,2.624-2.437,4.117-3.644c0.337-0.772,0.674-1.347,0.985-1.703c0.867-1.188,1.998-1.922,4.14-2.338
		c0.578-0.118,1.252-0.197,1.998-0.276l3.444-0.318l-0.747,1.426c1.827-1.604,2.504-2.059,3.177-2.437
		c1.131-0.632,1.731-0.852,2.236-0.969c0.29-0.06,0.554-0.06,0.795-0.06c1.709,0,3.081,1.128,3.418,2.732
		c0.048,0.219,0.048,0.477,0.048,0.674c0,0.753-0.264,1.506-0.479,2.16c-0.051,0.019-0.051,0.08-0.073,0.099
		c-0.025,0.079-0.048,0.159-0.073,0.257c-0.073,0.197-0.143,0.375-0.216,0.594c-0.289,0.851-0.53,1.623-0.747,2.357l1.853-1.782
		l2.167-2.021c4.645-4.298,10.878-9.07,13.238-10.36c1.204-0.613,1.852-0.852,2.357-0.931c0.314-0.057,0.651-0.117,1.035-0.117
		c1.541,0,2.646,0.95,2.913,2.259c0.022,0.136,0.07,0.314,0.07,0.534c0,1.684-1.347,2.614-2.72,2.891
		c-0.264,0.041-0.479,0.079-0.647,0.098c-0.048,0.022-0.073,0.022-0.121,0.022c-0.073,0.019-0.146,0.019-0.216,0.038
		c-0.146,0.038-0.267,0.038-0.337,0.06c-1.131,0.216-1.662,0.871-1.662,1.881c0,0.219,0.026,0.455,0.073,0.734
		c0.07,0.337,0.191,0.712,0.337,1.188c0.144,0.435,0.312,0.988,0.41,1.525c0.168,0.772,0.238,1.544,0.238,2.316
		c0,2.24-0.769,4.14-2.262,6.122c-2.793,3.601-7.727,6.498-9.29,6.791c-0.289,0.063-0.601,0.12-0.89,0.12
		c-1.925,0-3.345-1.29-3.732-3.088c-0.048-0.337-0.096-0.712-0.096-1.112c0-0.85,0.169-1.761,0.553-2.791l-0.647,0.651
		c-1.325,1.328-3.683,3.944-6.139,7.173c-0.021,0.076-0.072,0.14-0.168,0.234c-0.048,0.083-0.096,0.159-0.168,0.261
		c-0.048,0.058-0.121,0.14-0.169,0.197c-0.146,0.196-0.289,0.394-0.41,0.571c-0.673,0.795-1.204,1.252-1.998,1.411
		c-0.238,0.038-0.432,0.038-0.601,0.038c-1.731,0-2.646-1.366-2.888-2.656c-0.12-0.451-0.168-1.048-0.168-2.001
		c0-0.356,0-0.788,0.022-1.303c0.098-1.924,0.314-3.627,1.061-6.222c-1.95,2.199-3.587,4.653-4.886,7.328
		c0,0.019-0.025,0.044-0.025,0.044c-0.022,0.038-0.022,0.058-0.022,0.058c-0.025,0.02-0.025,0.058-0.048,0.076
		c-0.457,0.973-0.651,1.328-1.541,3.787c-0.025,0.057-0.073,0.178-0.099,0.254c-0.021,0.063-0.047,0.102-0.047,0.102
		c-0.022,0.058-0.022,0.121-0.048,0.159c-0.169,0.451-0.674,2.218-2.405,2.554c-0.12,0.02-0.314,0.039-0.53,0.039
		c-1.734,0-2.504-1.442-2.768-2.694c-0.099-0.572-0.146-1.067-0.146-1.544c0-0.458,0.047-0.89,0.073-1.265c0,0,0-0.102,0.025-0.121
		c0-0.14,0-0.298,0-0.438c0.047-0.908,0.168-1.88,0.336-2.91l-8.736,8.616c-0.457,0.458-2.986,2.751-3.154,2.872
		c-0.747,0.654-1.396,0.935-2.142,1.112c-0.241,0.038-0.479,0.057-0.747,0.057c-2.262,0-4.041-1.823-4.666-4.949l-4.527,4.396
		c-0.458,0.471-2.983,2.751-3.151,2.872c-0.722,0.654-1.373,0.966-2.142,1.105c-0.22,0.063-0.458,0.083-0.725,0.083
		c-2.262,0-4.066-1.805-4.715-5.032v-0.02c-1.156,1.31-2.503,2.968-3.923,4.791c-0.099,0.159-0.169,0.261-0.268,0.4
		c-0.047,0.038-0.047,0.057-0.069,0.114c-0.194,0.241-0.41,0.515-0.578,0.775c-0.651,0.788-1.179,1.245-2.046,1.385
		c-0.169,0.038-0.385,0.058-0.553,0.058c-1.735,0-2.65-1.386-2.914-2.694c-0.072-0.432-0.143-1.01-0.143-1.957
		c0-0.375,0-0.813,0.022-1.328c0.095-1.899,0.314-3.628,1.035-6.221c-1.95,2.218-3.539,4.639-4.86,7.308c0,0,0,0.044-0.025,0.063
		c0,0,0,0.038-0.025,0.057c0,0.038-0.022,0.058-0.048,0.121c-0.457,0.947-0.674,1.328-1.541,3.742
		c-0.021,0.058-0.047,0.121-0.069,0.159c-0.025,0.096-0.048,0.159-0.099,0.235c0,0.044,0,0.082-0.022,0.14
		c-0.146,0.438-0.651,2.18-2.408,2.516c-0.12,0.058-0.337,0.077-0.505,0.077c-1.731,0-2.525-1.462-2.793-2.688
		c-0.095-0.578-0.143-1.093-0.143-1.569c0-0.451,0.048-0.89,0.073-1.245c0,0,0-0.102,0.048-0.14c0-0.159,0-0.279,0-0.413
		c0.047-0.935,0.168-1.926,0.336-2.955l-8.762,8.616c-0.432,0.477-2.983,2.776-3.151,2.91c-0.722,0.636-1.347,0.953-2.142,1.093
		c-0.241,0.058-0.457,0.076-0.746,0.076c-2.288,0-4.044-1.861-4.692-5.025v-0.063c-1.493,1.607-3.129,3.387-3.733,4.06
		c-0.48,0.534-0.842,0.991-1.153,1.366c0,0.02-0.025,0.063-0.073,0.083c-0.601,0.769-1.373,1.823-2.792,2.115
		c-0.216,0.063-0.432,0.083-0.578,0.083c-1.636,0-2.815-1.227-3.126-2.776c-0.098-0.413-0.146-0.966-0.146-1.602
		c0-0.496,0.048-1.112,0.121-1.785l-1.661,2.179c-1.541,2.04-3.657,4.436-4.114,4.854c-0.651,0.591-1.229,1.029-2.192,1.207
		c-0.168,0.038-0.407,0.083-0.673,0.083c-1.709,0-3.009-1.169-3.32-2.758c-0.073-0.337-0.121-0.692-0.121-1.029
		c0-0.769,0.143-1.524,0.264-2.077c0.025-0.083,0.047-0.159,0.047-0.28c0-0.019,0.051-0.057,0.051-0.095
		c0.095-0.54,0.191-1.055,0.312-1.551l-1.373,1.468c-0.384,0.42-1.973,2.104-3.536,3.901l-0.988,3.113
		c-1.468,4.556-2.094,5.96-2.936,7.682c-1.373,2.872-2.697,4.836-3.828,6.24c-2.214,2.713-3.777,3.603-4.835,3.825
		c-0.194,0.019-0.458,0.057-0.724,0.057c-1.973,0-3.247-1.524-3.657-3.526c-0.095-0.553-0.168-1.15-0.168-1.798
		c0-1.982,0.578-4.499,2.141-7.428c0.216-0.42,0.432-0.794,0.674-1.15c-0.312,0.114-0.601,0.197-0.868,0.273
		c-0.238,0.044-0.479,0.063-0.696,0.063c-1.83,0-3.056-1.347-3.443-3.151c-0.696,0.775-1.42,1.607-2.046,2.376
		c-0.264,0.337-0.527,0.636-0.794,0.991c-0.384,0.496-0.769,0.973-1.179,1.449c-0.527,0.609-1.131,1.086-1.948,1.245
		c-0.121,0.019-0.362,0.058-0.625,0.058c-1.757,0-2.672-1.442-2.961-2.892c-0.095-0.451-0.146-1.067-0.146-1.798
		c0-0.56,0.025-1.271,0.121-2.021l-2.646,3.603c-0.674,0.953-2.214,2.732-3.393,3.844c-0.048,0.038-0.073,0.096-0.168,0.159
		c5.919-0.317,10.589-0.355,12.851-0.355c0.721,0,1.229,0,1.397,0h0.048c0.168,0,0.359,0,0.527,0c0.626,0,3.323-0.083,3.323,1.957
		c0,0.692-0.41,1.188-0.626,1.385c-0.699,0.718-1.973,1.232-3.155,1.544c-0.575,0.121-1.201,0.241-1.804,0.299
		c-0.096,0-0.337,0-0.579,0.019c-2.525,0.083-14.125,0.438-26.159,2.16c-5.896,6.933-15.068,13.884-21.686,17.474
		c-5.56,2.986-10.083,3.959-12.155,4.238c-0.648,0.095-1.274,0.133-1.852,0.133h-0.362c-3.704-0.133-5.703-2.313-6.208-5.426
		c0-0.038-0.025-0.096-0.025-0.159C5.095,169.484,5,169.026,5,168.55c0-0.216,0.022-0.477,0.07-0.712
		c1.999-11.646,19.713-16.856,35.766-19.29c1.083-1.823,1.395-2.694,1.395-3.488c0-0.337-0.048-0.712-0.191-1.188
		c-0.289-0.972-2.094-1.328-3.612-1.486c-0.121,0-0.286-0.02-0.406-0.058l-7.247-1.207c-3.825-0.654-5.512-1.29-6.643-1.982
		c-2.453-1.525-3.441-3.387-3.778-5.286c-0.095-0.42-0.121-0.852-0.121-1.29v-0.216c0.048-2.021,0.915-4.118,2.888-6.221
		c2.576-2.771,7.294-6.513,13.454-9.207c5.487-2.357,11.841-4.086,15.522-4.715c0.893-0.14,1.589-0.203,2.167-0.203h0.314
		c0.238,0.025,0.505,0.045,0.648,0.063c0.121,0.02,0.168,0.02,0.194,0.02h0.191h0.604l0.384,0.299
		c1.058,0.629,1.999,1.524,2.24,2.947c0.07,0.242,0.07,0.42,0.07,0.554c0,0.063,0,0.12,0,0.184v0.134
		c0,0.261-0.047,0.654-0.216,1.073c-0.41,1.208-1.563,2.237-2.383,3.006c-0.289,0.279-0.626,0.616-1.036,1.036
		c-2.237,2.217-3.634,3.978-4.572,5.585l-0.384,0.629l-0.651,0.203l-5.801,2.04c-0.721,0.254-1.417,0.45-2.116,0.45
		c-0.047,0-0.095,0-0.121-0.019c-1.493-0.058-2.478-1.067-2.529-2.434l-0.022-0.159l0.022-0.12c0.073-0.496,0.267-0.973,0.458-1.366
		c0.53-1.067,1.445-2.3,1.782-2.694c0.553-0.73,1.226-1.563,2.021-2.573c-2.383,0.794-4.524,1.823-6.449,3.031
		c-0.384,0.254-0.794,0.609-1.299,1.01c-0.048,0.058-0.121,0.14-0.216,0.178c-0.146,0.14-0.336,0.255-0.41,0.337
		c-0.073,0.038-0.121,0.058-0.121,0.058c-1.805,1.486-2.214,2.262-2.551,2.853l-0.022,0.038c-0.388,0.654-0.531,1.169-0.531,1.449
		c0,0.14,0.025,0.196,0.025,0.196c0.216,1.271,1.827,1.843,4.981,2.339c0.095,0.038,0.216,0.038,0.264,0.057l6.643,1.131
		c4.044,0.693,4.886,1.067,5.801,1.703c0.07,0.058,0.121,0.102,0.143,0.14c2.529,1.582,3.708,3.819,3.708,6.418
		c0,1.76-0.553,3.583-1.445,5.388c1.277-0.121,2.551-0.223,3.803-0.317c-0.527-0.553-0.842-1.31-0.985-2.122
		c-0.098-0.395-0.168-0.991-0.168-1.761c0-0.495,0.048-1.067,0.096-1.702c0.289-2.599,1.131-5.173,3.008-8.121
		c3.441-5.406,8.807-9.054,14.681-10.242c0.289-0.057,0.578-0.095,0.82-0.159c0.794-1.105,1.875-1.684,3.682-2.059
		c0.648-0.14,1.636-0.216,2.5-0.216h0.146l3.056,0.038l-1.395,2.713c-1.014,1.964-1.925,4.182-2.745,6.398
		c-0.168,0.496-0.337,0.928-0.483,1.404l1.588-1.62c0.845-1.646,1.903-3.272,3.298-4.816c3.177-3.564,7.221-5.846,11.386-6.652
		c0.626-0.14,1.274-0.223,1.925-0.279c1.032-1.029,2.357-1.76,4.162-2.097c0.435-0.083,0.893-0.159,1.42-0.159l3.129-0.083
		l-1.372,2.796c-0.696,1.442-1.395,2.91-2.046,4.416l0.073-0.082c1.109-1.029,2.288-2.097,3.539-3.126
		c0.432-1.011,0.89-1.862,1.033-2.104c1.061-1.62,2.214-2.415,5.08-2.986c0.531-0.102,1.058-0.197,1.611-0.241l3.781-0.413
		l-1.925,3.228c-0.962,1.627-1.757,3.266-2.503,5.229l1.105-1.43c2.192-2.948,2.792-3.622,4.213-5.128
		c1.179-1.309,1.855-1.861,2.24-2.16c0.769-0.591,1.61-1.049,4.499-1.525l3.78-0.609l-1.805,3.367
		c-1.277,2.357-2.239,4.733-2.986,6.989c0.025-0.019,0.047-0.038,0.047-0.038l2.529-2.421c2.288-5.286,7.123-10.356,12.998-11.525
		c0.336-0.076,0.695-0.114,1.058-0.114c1.709,0,2.646,1.086,2.865,2.313c0.048,0.223,0.07,0.457,0.07,0.636
		c0,1.048-0.385,2.947-1.947,5.483l0.406-0.395l1.951-1.938c1.156-1.169,2.624-2.459,4.113-3.628
		c0.337-0.813,0.699-1.366,0.963-1.723c0.893-1.209,2.046-1.942,4.14-2.355c0.604-0.121,1.252-0.219,2.023-0.279l3.467-0.276
		l-0.747,1.385c1.805-1.604,2.479-2.021,3.177-2.434c1.059-0.616,1.684-0.854,2.215-0.972c0.312-0.06,0.578-0.06,0.794-0.06
		c1.709,0,3.082,1.15,3.393,2.735c0.048,0.235,0.073,0.454,0.073,0.674c0,0.77-0.289,1.545-0.53,2.219v0.038
		c-0.048,0.121-0.096,0.235-0.143,0.337c-0.051,0.197-0.099,0.355-0.194,0.533c-0.264,0.852-0.505,1.646-0.721,2.377l1.563-1.563
		C168.368,106.715,171.523,102.97,175.374,100.832z"/>
	<path fill="#003263" d="M108.804,128.641c0.022-0.413,0.216-1.327,0.744-3.266c1.156-3.945,2.287-6.596,3.854-9.251l0.48-0.813
		l-0.963,0.102c-0.505,0.076-0.988,0.159-1.493,0.235c-2.599,0.515-3.368,1.149-4.14,2.357c-0.117,0.178-0.625,1.131-1.08,2.217
		c-1.303,1.049-2.554,2.18-3.733,3.267l-1.998,1.887l-2.837,2.986c1.395-4.079,2.888-7.522,4.572-10.833l0.337-0.731l-0.794,0.02
		c-0.384,0.02-0.794,0.076-1.179,0.159c-1.757,0.336-2.888,1.067-3.78,2.077c-0.744,0.02-1.538,0.14-2.31,0.299
		c-3.825,0.775-7.605,2.872-10.588,6.201c-1.347,1.506-2.408,3.088-3.225,4.715l-2.313,2.396c-0.648,0.674-1.179,1.188-1.611,1.665
		c-0.578,0.591-1.036,1.048-1.445,1.506c0.314-2.065,0.794-3.927,1.804-6.679c0.794-2.255,1.783-4.536,2.793-6.557l0.336-0.674
		h-0.721h-0.143c-0.819,0-1.687,0.063-2.214,0.178c-1.855,0.382-2.551,0.915-3.107,1.964c-0.458,0.095-0.912,0.158-1.395,0.254
		c-5.512,1.112-10.541,4.518-13.791,9.607c-1.757,2.796-2.503,5.152-2.767,7.51C56.022,142.01,56,142.543,56,142.981
		c0,0.712,0.048,1.208,0.143,1.487c0.168,0.87,0.432,1.385,0.963,1.741c0.41,0.298,0.889,0.438,1.372,0.438
		c0.121,0,0.264,0,0.385-0.025c0.53-0.115,0.889-0.255,1.998-1.322c1.105-1.055,2.599-2.776,3.199-3.608l3.25-4.474
		c0.626-0.896,2.408-2.992,3.104-3.686c-0.985,3.285-1.274,5.802-1.274,7.39c0,0.674,0.047,1.188,0.121,1.525
		c0.242,1.124,0.794,1.741,1.588,1.741c0.121,0,0.264,0,0.337-0.038c0.41-0.083,0.769-0.299,1.131-0.757
		c0.41-0.451,0.794-0.946,1.179-1.404c0.242-0.355,0.531-0.673,0.82-1.048c1.468-1.767,3.393-3.901,4.499-5.108
		c-0.07,0.692-0.095,1.347-0.095,1.899c0,0.61,0.025,1.15,0.095,1.442c0.289,1.366,1.083,2.04,2.071,2.04
		c0.143,0,0.264,0,0.432-0.038c0.604-0.121,1.588-0.554,2.913-1.938c0.505-0.559,1.083-1.207,1.805-2.059
		c0.194-0.241,0.384-0.477,0.626-0.737c0.867-1.029,1.662-2.077,2.456-3.145c0.842-1.112,1.662-2.225,2.599-3.272
		c0.048-0.096,0.121-0.159,0.194-0.235c-0.508,1.62-0.988,3.146-1.471,4.873c-2.043,2.136-4.089,4.575-5.509,6.552
		c-0.073,0.102-0.146,0.241-0.242,0.361c-0.578,0.788-1.179,1.621-1.684,2.536c-1.471,2.77-1.951,5.07-1.951,6.772
		c0,0.572,0.047,1.067,0.121,1.506c0.359,1.602,1.204,2.396,2.31,2.396c0.146,0,0.264-0.019,0.41-0.019
		c0.6-0.121,1.899-0.718,3.993-3.311c1.083-1.347,2.335-3.189,3.686-5.979c0.794-1.664,1.369-3.03,2.837-7.529l1.109-3.349
		c1.636-1.899,3.345-3.742,3.777-4.199l2.865-3.088l2.046-1.938c0.022-0.082,0.095-0.121,0.143-0.178
		c-0.625,1.938-1.153,4.079-1.61,6.532c-0.051,0.12-0.051,0.26-0.073,0.399c-0.121,0.553-0.216,1.17-0.216,1.799
		c0,0.241,0.022,0.495,0.07,0.756c0.168,0.946,0.962,1.62,1.903,1.62c0.143,0,0.289-0.019,0.432-0.038
		c0.578-0.121,0.915-0.355,1.468-0.89c0.388-0.337,2.456-2.655,3.971-4.638l4.07-5.407c0.238-0.356,0.527-0.712,0.842-1.049
		c0.168-0.159,0.289-0.317,0.432-0.495c-0.985,3.367-1.227,5.883-1.227,7.389c0,0.592,0.022,1.029,0.095,1.328
		c0.194,1.029,0.89,1.602,1.709,1.602c0.121,0,0.216,0,0.336-0.02c0.82-0.158,1.277-0.769,2.021-1.702
		c0.336-0.395,0.699-0.852,1.182-1.404c0.985-1.131,4.788-5.21,6.065-6.481c-0.048,0.362-0.073,0.718-0.073,1.093
		c0,0.693,0.095,1.366,0.194,2.021c0.575,2.834,1.995,3.883,3.32,3.883c0.168,0,0.311,0,0.457-0.038
		c0.505-0.083,0.963-0.28,1.493-0.757c0.143-0.14,2.672-2.414,3.104-2.853l9.554-9.403l1.877-1.964
		c0.242-0.235,0.506-0.477,0.795-0.73c-0.816,2.669-1.274,5.286-1.395,7.522c-0.025,0.197-0.048,0.375-0.048,0.598
		c-0.025,0.355-0.073,0.73-0.073,1.105c0,0.42,0.048,0.833,0.121,1.31c0.193,0.991,0.698,1.544,1.372,1.544
		c0.07,0,0.168-0.02,0.238-0.02c0.893-0.197,1.156-1.087,1.397-1.76c0.073-0.121,0.096-0.279,0.144-0.42
		c0.94-2.516,1.131-2.891,1.661-3.978c0.025-0.044,0.025-0.082,0.073-0.14c1.83-3.844,4.33-7.174,7.485-10.083
		c0.673-0.636,1.131-0.973,1.588-1.29c0.022-0.02,0.048-0.02,0.096-0.038c0,0.12-0.073,0.337-0.264,0.832
		c-0.096,0.261-0.242,0.578-0.362,0.991c-1.589,4.613-1.926,6.735-2.046,9.188c-0.022,0.496-0.048,0.896-0.048,1.252
		c0,0.87,0.073,1.385,0.121,1.703c0.193,0.972,0.721,1.544,1.54,1.544c0.096,0,0.217,0,0.289-0.02
		c0.359-0.082,0.648-0.216,1.179-0.89c0.194-0.241,0.362-0.477,0.553-0.736c0.121-0.178,0.217-0.337,0.362-0.496
		c2.504-3.285,4.935-5.922,6.256-7.345l0.051-0.038c-0.051,0.375-0.073,0.75-0.073,1.144c0,0.699,0.096,1.372,0.216,2.046
		c0.553,2.827,1.999,3.876,3.323,3.876c0.144,0,0.286-0.02,0.454-0.058c0.509-0.095,0.94-0.272,1.493-0.794
		c0.146-0.096,2.646-2.376,3.082-2.809l6.713-6.557c-0.022,0.279-0.048,0.533-0.048,0.774c0,0.712,0.073,1.386,0.22,2.04
		c0.553,2.853,1.973,3.882,3.294,3.882c0.146,0,0.337-0.019,0.458-0.044c0.505-0.114,0.94-0.273,1.519-0.769
		c0.143-0.103,2.646-2.396,3.078-2.815l9.531-9.446l1.902-1.941c0.238-0.238,0.527-0.477,0.77-0.711
		c-0.795,2.633-1.274,5.269-1.396,7.487c0,0.196-0.025,0.412-0.047,0.591c-0.025,0.381-0.051,0.736-0.051,1.131
		c0,0.394,0.025,0.813,0.146,1.309c0.169,0.991,0.648,1.544,1.348,1.544c0.072,0,0.168-0.019,0.241-0.019
		c0.89-0.197,1.153-1.112,1.395-1.786c0.073-0.14,0.099-0.254,0.146-0.394c0.937-2.555,1.105-2.91,1.636-4.003
		c0.022-0.038,0.048-0.076,0.073-0.114c1.874-3.846,4.378-7.194,7.532-10.104c0.674-0.635,1.105-0.972,1.563-1.287
		c0,0,0.073-0.042,0.12-0.042c0,0.121-0.072,0.337-0.289,0.833c-0.095,0.257-0.216,0.594-0.358,1.01
		c-1.589,4.594-1.929,6.716-2.046,9.208c-0.025,0.477-0.025,0.871-0.025,1.233c0,0.89,0.048,1.385,0.12,1.702
		c0.194,0.928,0.722,1.544,1.493,1.544c0.118,0,0.217-0.019,0.312-0.038c0.362-0.063,0.651-0.203,1.179-0.877
		c0.194-0.254,0.388-0.515,0.578-0.769c0.121-0.158,0.241-0.317,0.337-0.477c2.479-3.266,4.86-5.942,6.259-7.328l2.862-2.833
		l2.262-2.199c1.42-1.347,3.082-2.831,4.912-4.159c0,0.178-0.025,0.397-0.025,0.575c0,0.575,0.073,1.227,0.241,1.96l0.601,2.713
		c0.12,0.534,0.171,1.029,0.171,1.464c0,2.815-2.097,3.863-2.455,3.924c-0.048,0.019-0.099,0.019-0.169,0.019
		c-0.241,0-0.626-0.098-0.867-1.207c-0.025-0.2-0.048-0.458-0.048-0.734c0-0.454,0.048-0.991,0.289-1.604
		c0.096-0.216,0.144-0.397,0.144-0.575c0-0.08-0.022-0.159-0.022-0.235c-0.099-0.378-0.457-0.655-0.867-0.655
		c-0.048,0-0.121,0-0.168,0.019c-0.41,0.08-1.974,1.01-3.082,2.773c-0.915,1.484-1.252,2.853-1.252,3.9
		c0,0.317,0.025,0.598,0.073,0.832c0.241,1.17,1.131,1.926,2.31,1.926c0.216,0,0.41-0.025,0.626-0.045
		c1.131-0.254,5.849-2.89,8.447-6.295c1.351-1.805,1.998-3.409,1.998-5.271c0-0.654-0.095-1.306-0.241-2.021
		c-0.095-0.455-0.238-0.95-0.384-1.385c-0.121-0.458-0.264-0.912-0.362-1.328c-0.07-0.355-0.096-0.692-0.096-1.01
		c0-1.722,1.011-2.929,2.793-3.288c0.193-0.038,0.384-0.057,0.626-0.079c0.216-0.058,0.457-0.08,0.673-0.137
		c1.036-0.2,1.614-0.753,1.614-1.487c0-0.099-0.025-0.197-0.025-0.276c-0.121-0.594-0.601-1.109-1.589-1.109
		c-0.216,0-0.432,0.038-0.721,0.099c-0.314,0.06-0.842,0.197-1.973,0.791c-2.167,1.21-8.305,5.884-12.902,10.141l-2.188,2.021
		l-2.215,2.142c-0.505,0.473-1.808,1.899-3.177,3.523c0.337-2.18,0.864-4.455,1.973-7.724c0.121-0.337,0.217-0.594,0.289-0.871
		c0.289-0.775,0.48-1.29,0.48-1.785c0-0.156-0.022-0.276-0.048-0.394c-0.169-0.931-0.963-1.624-1.998-1.624
		c-0.169,0-0.337,0.019-0.506,0.057c-0.311,0.08-0.794,0.2-1.83,0.813c-0.6,0.356-1.226,0.753-3.271,2.554
		c-1.731,1.544-3.394,3.288-5.344,5.785c0.771-2.259,1.613-4.279,2.624-6.141l0.41-0.772l-0.868,0.08
		c-0.673,0.057-1.299,0.137-1.852,0.257c-1.83,0.356-2.646,0.95-3.298,1.801c-0.241,0.318-0.601,0.871-0.938,1.744
		c-1.54,1.227-3.081,2.573-4.26,3.762l-1.973,1.922l-5.128,4.989c-2.84,2.777-3.635,3.387-3.924,3.609
		c-0.025,0.019-0.048,0.076-0.073,0.076c-0.19,0.159-0.337,0.279-0.527,0.317c-0.025,0-0.073,0-0.099,0
		c-0.12,0-0.264-0.038-0.457-0.196c-0.312-0.261-0.695-0.775-0.963-1.29c3.972-3.247,5.249-4.594,6.233-5.724
		c3.491-4.022,4.069-6.814,4.069-7.863c0-0.14-0.025-0.257-0.047-0.337c-0.121-0.654-0.531-1.169-1.493-1.169
		c-0.217,0-0.483,0.019-0.795,0.079c-5.391,1.09-10.014,5.963-12.082,11.092l-5.079,4.912c-2.838,2.771-3.609,3.387-3.898,3.603
		c-0.022,0.044-0.073,0.063-0.073,0.063c-0.19,0.159-0.385,0.292-0.527,0.317c-0.025,0.02-0.073,0.02-0.121,0.02
		c-0.095,0-0.264-0.045-0.432-0.197c-0.337-0.241-0.725-0.775-0.988-1.29c3.972-3.246,5.271-4.612,6.233-5.725
		c3.514-4.021,4.066-6.813,4.066-7.861c0-0.14,0-0.261-0.022-0.337c-0.146-0.654-0.53-1.169-1.493-1.169
		c-0.241,0-0.505,0.019-0.794,0.057c-5.271,1.071-9.988,5.786-12.104,10.816l-2.145,2.097c-0.479,0.477-1.804,1.906-3.177,3.488
		c0.337-2.16,0.867-4.435,1.973-7.707c0.121-0.312,0.22-0.629,0.314-0.852c0.264-0.788,0.458-1.323,0.458-1.8
		c0-0.14,0-0.276-0.048-0.397c-0.168-0.931-0.963-1.623-1.998-1.623c-0.169,0-0.337,0.038-0.505,0.061
		c-0.337,0.079-0.795,0.238-1.83,0.81c-0.601,0.337-1.227,0.753-3.272,2.575c-1.709,1.544-3.393,3.291-5.344,5.763
		c0.769-2.236,1.636-4.257,2.624-6.138l0.41-0.773l-0.867,0.079c-0.699,0.042-1.3,0.141-1.878,0.258
		c-1.805,0.38-2.599,0.951-3.272,1.822c-0.241,0.317-0.604,0.852-0.94,1.74c-1.54,1.214-3.078,2.535-4.26,3.749l-1.947,1.938
		l-5.15,4.975c-2.84,2.771-3.634,3.406-3.924,3.603c0,0.038-0.025,0.058-0.047,0.076c-0.194,0.141-0.362,0.28-0.531,0.318
		c-0.047,0-0.047,0-0.12,0c-0.096,0-0.264-0.038-0.433-0.197c-0.337-0.235-0.746-0.775-0.987-1.29
		c3.971-3.247,5.271-4.594,6.258-5.699c3.467-4.041,4.02-6.837,4.02-7.866c0-0.14,0-0.254-0.025-0.375
		c-0.121-0.635-0.527-1.15-1.468-1.15c-0.242,0-0.506,0.02-0.795,0.083c-5.365,1.067-9.963,5.858-12.034,10.974l-2.767,2.611
		c-0.241,0.196-1.395,1.366-3.708,3.882c0.677-3.844,2.097-8.14,4.429-12.555l0.436-0.813l-0.94,0.14
		c-2.79,0.451-3.368,0.852-3.873,1.245c-0.315,0.261-0.915,0.75-2.046,2.002c-1.42,1.486-1.976,2.141-4.139,5.013l-4.044,5.344
		C110.294,126.855,109.141,128.305,108.804,128.641"/>
	<path fill="#003263" d="M41.726,149.856C25.12,152.348,8.32,157.501,6.49,168.118c-0.096,0.553,0,1.086,0.098,1.582
		c0.384,2.535,1.852,4.143,4.861,4.238c0.578,0.019,1.252,0,1.973-0.096c1.903-0.279,6.284-1.188,11.672-4.104
		c6.621-3.584,15.885-10.637,21.613-17.55c13.696-1.995,26.982-2.236,27.341-2.256c3.298-0.298,6.789-2.554,1.903-2.356
		c-0.096,0-12.396-0.217-26.62,1.327c3.225-5.013,3.851-9.606-0.458-12.339c-0.022-0.02-0.095-0.058-0.19-0.121
		c-0.651-0.457-1.204-0.813-5.201-1.486l-6.713-1.125c-0.073-0.044-0.121-0.063-0.216-0.063c-2.745-0.432-5.731-1.01-6.164-3.463
		c-0.022-0.14-0.022-0.299-0.022-0.477c0.022-0.616,0.264-1.385,0.721-2.18c0.41-0.711,0.937-1.601,2.888-3.228
		c0.121-0.12,0.312-0.261,0.531-0.394c0.527-0.477,1.105-0.915,1.684-1.31c3.177-2.001,6.833-3.443,11.094-4.396
		c-2.214,2.694-3.729,4.556-4.813,5.979c-0.337,0.419-1.204,1.544-1.611,2.478c-0.171,0.299-0.289,0.636-0.34,0.953
		c0.025,0.629,0.41,1.067,1.182,1.087c0.457,0.019,0.962-0.103,1.709-0.375l5.823-2.021l0.143-0.063l0.099-0.179
		c1.105-1.684,2.525-3.583,4.813-5.857c0.41-0.4,0.747-0.757,1.083-1.049c0.937-0.896,1.779-1.684,2.021-2.497
		c0.095-0.197,0.095-0.4,0.095-0.578c0-0.197,0.025-0.395,0-0.553c-0.121-0.89-0.721-1.525-1.636-2.04l-0.095-0.102h-0.121
		c-0.048,0-0.096,0-0.216,0c-0.194,0-0.505-0.076-0.89-0.057c-0.53-0.058-1.229-0.02-2.192,0.178
		c-3.562,0.553-9.794,2.319-15.164,4.612c-6.014,2.638-10.563,6.259-12.994,8.877c-1.782,1.899-2.408,3.686-2.529,5.286
		c0.025,0.42,0,0.795,0.121,1.207c0.241,1.551,1.036,3.031,3.129,4.359c0.915,0.533,2.357,1.093,6.138,1.767l7.218,1.226
		c0.556,0.096,4.476,0.179,5.153,2.535C44.039,145.555,43.556,146.845,41.726,149.856"/>
	<path fill="#FFFFFF" d="M39.152,153.497c-2.771,3.47-6.379,6.856-9.099,8.813c-4.524,3.349-8.616,4.931-10.157,5.153
		c-0.458,0.076-0.938,0.076-1.252,0.114c-3.466,0.298-1.49-4.671,2.214-7.384C24.951,157.164,31.763,155.003,39.152,153.497"/>
	<path fill="none" stroke="#003263" stroke-width="0.6768" d="M39.152,153.497c-2.771,3.47-6.379,6.856-9.099,8.813
		c-4.524,3.349-8.616,4.931-10.157,5.153c-0.458,0.076-0.938,0.076-1.252,0.114c-3.466,0.298-1.49-4.671,2.214-7.384
		C24.951,157.164,31.763,155.003,39.152,153.497z"/>
	<path fill="#FFFFFF" d="M35.229,155.854c-5.607,1.366-10.446,3.19-13.502,5.465c-2.214,1.626-3.466,3.907-3.466,4.854
		c0,0.082,0.025,0.063,0.025,0.063c0.022,0,0.047-0.083,0.07-0.083c0.048,0,0.121,0,0.168,0c0.146,0,0.314-0.019,0.435-0.019
		c0.264,0,0.505-0.038,0.747-0.058c1.227-0.203,5.077-1.646,9.553-4.893C30.994,159.877,33.157,157.996,35.229,155.854"/>
	<path fill="none" stroke="#003263" stroke-width="0.6768" d="M35.229,155.854c-5.607,1.366-10.446,3.19-13.502,5.465
		c-2.214,1.626-3.466,3.907-3.466,4.854c0,0.082,0.025,0.063,0.025,0.063c0.022,0,0.047-0.083,0.07-0.083c0.048,0,0.121,0,0.168,0
		c0.146,0,0.314-0.019,0.435-0.019c0.264,0,0.505-0.038,0.747-0.058c1.227-0.203,5.077-1.646,9.553-4.893
		C30.994,159.877,33.157,157.996,35.229,155.854z"/>
	<path fill="#003263" d="M175.422,99.446c4.597-0.458,6.906-1.468,8.615-2.694c1.541-1.071,2.119-1.982,2.288-2.456
		c0.047-0.121,0.072-0.238,0.072-0.355c0-0.438-0.289-0.734-0.651-0.833c-0.216-0.099-0.6-0.178-1.131-0.178
		c-0.384,0-0.867,0.038-1.42,0.136c-2.936,0.515-5.75,2.119-8.206,5.626l-0.578,0.852L175.422,99.446"/>
	<path fill="#FFFFFF" d="M94.797,122.186c-0.219,0.019-0.458,0.057-0.651,0.095c-1.973,0.4-4.162,1.43-5.439,2.402
		c-0.915,0.73-2.046,1.976-2.646,2.967c-0.962,1.685-1.373,3.705-1.373,5.032c0,0.337,0.022,0.655,0.048,0.852
		c0.047,0.159,0.073,0.235,0.121,0.299c0,0.038,0,0.038,0.048,0.058c0.047,0,0.095-0.02,0.095-0.02
		c0.073-0.019,0.099-0.057,0.53-0.477c0.073-0.095,0.168-0.178,0.264-0.279c0.505-0.515,3.901-4.276,4.743-5.306
		c1.058-1.227,2.068-2.555,3.441-4.498L94.797,122.186"/>
	<path fill="none" stroke="#003263" stroke-width="0.6768" d="M94.797,122.186c-0.219,0.019-0.458,0.057-0.651,0.095
		c-1.973,0.4-4.162,1.43-5.439,2.402c-0.915,0.73-2.046,1.976-2.646,2.967c-0.962,1.685-1.373,3.705-1.373,5.032
		c0,0.337,0.022,0.655,0.048,0.852c0.047,0.159,0.073,0.235,0.121,0.299c0,0.038,0,0.038,0.048,0.058c0.047,0,0.095-0.02,0.095-0.02
		c0.073-0.019,0.099-0.057,0.53-0.477c0.073-0.095,0.168-0.178,0.264-0.279c0.505-0.515,3.901-4.276,4.743-5.306
		c1.058-1.227,2.068-2.555,3.441-4.498L94.797,122.186z"/>
	<path fill="#FFFFFF" d="M71.716,128.444c-0.337-0.063-0.677-0.083-0.988-0.083c-0.531,0-1.036,0.083-1.515,0.159
		c-2.361,0.477-4.766,2.218-6.116,4.715c-0.864,1.684-1.201,3.583-1.201,4.835c0,0.337,0.048,0.654,0.07,0.87
		c0.051,0.14,0.073,0.235,0.099,0.299c0.048,0.058,0.07,0.058,0.07,0.058c0.025,0,0.025,0,0.073,0c0.025,0,0.047,0,0.095,0
		c0.219-0.038,0.289-0.102,1.252-1.246c0.289-0.298,0.604-0.692,1.036-1.169c0.384-0.438,0.673-0.775,0.94-1.048
		c0.648-0.719,1.083-1.233,2.5-2.955L71.716,128.444"/>
	<path fill="none" stroke="#003263" stroke-width="0.6768" d="M71.716,128.444c-0.337-0.063-0.677-0.083-0.988-0.083
		c-0.531,0-1.036,0.083-1.515,0.159c-2.361,0.477-4.766,2.218-6.116,4.715c-0.864,1.684-1.201,3.583-1.201,4.835
		c0,0.337,0.048,0.654,0.07,0.87c0.051,0.14,0.073,0.235,0.099,0.299c0.048,0.058,0.07,0.058,0.07,0.058c0.025,0,0.025,0,0.073,0
		c0.025,0,0.047,0,0.095,0c0.219-0.038,0.289-0.102,1.252-1.246c0.289-0.298,0.604-0.692,1.036-1.169
		c0.384-0.438,0.673-0.775,0.94-1.048c0.648-0.719,1.083-1.233,2.5-2.955L71.716,128.444z"/>
	<path fill="#FFFFFF" d="M186.83,109.49c2.936-2.378,4.114-4.183,4.766-5.746c0.53-1.229,0.673-2.04,0.673-2.478
		c0-0.117-0.021-0.216-0.021-0.216l-0.051-0.042c-0.169,0.042-0.744,0.257-1.758,1.131
		C188.587,103.745,187.214,106.022,186.83,109.49"/>
	<path fill="#FFFFFF" d="M171.645,113.011c2.936-2.396,4.092-4.156,4.787-5.762c0.505-1.188,0.626-2.021,0.626-2.456
		c0-0.117-0.022-0.216-0.048-0.257c-0.19,0.019-0.769,0.238-1.779,1.109C173.401,107.249,172.054,109.548,171.645,113.011"/>
	<path fill="#FFFFFF" d="M130.585,121.315c2.936-2.357,4.092-4.144,4.788-5.744c0.505-1.188,0.626-2.002,0.626-2.459
		c0-0.121,0-0.197-0.022-0.28h-0.025c-0.144,0.064-0.769,0.242-1.757,1.15C132.342,115.59,130.992,117.865,130.585,121.315"/>
	<path fill="#FFFFFF" d="M79.392,145.219c0.146-0.395,0.337-0.813,0.531-1.246c-1.229-0.222-2.192-0.934-2.866-1.861
		c-0.191,0.216-0.384,0.432-0.553,0.654c-0.264,0.337-0.531,0.674-0.794,1.011c-0.022,0-0.022,0.019-0.022,0.019
		c-0.242,0.292-0.508,0.61-0.772,0.947c0.315,0,0.553,0,0.747,0h0.241h0.048h0.216c0.095,0,0.216,0,0.314,0h0.022h0.095
		C76.698,144.742,78.14,144.646,79.392,145.219"/>
	<path fill="none" stroke="#003263" stroke-width="0.6768" d="M79.392,145.219c0.146-0.395,0.337-0.813,0.531-1.246
		c-1.229-0.222-2.192-0.934-2.866-1.861c-0.191,0.216-0.384,0.432-0.553,0.654c-0.264,0.337-0.531,0.674-0.794,1.011
		c-0.022,0-0.022,0.019-0.022,0.019c-0.242,0.292-0.508,0.61-0.772,0.947c0.315,0,0.553,0,0.747,0h0.241h0.048h0.216
		c0.095,0,0.216,0,0.314,0h0.022h0.095C76.698,144.742,78.14,144.646,79.392,145.219z"/>
	<path fill="#003263" d="M91.115,124.898c-0.579,0.73-1.083,1.424-1.614,2.04c-0.505,0.591-1.852,2.077-2.983,3.367
		c0.19-0.654,0.458-1.309,0.769-1.899c0.505-0.833,1.516-1.964,2.31-2.561C90.006,125.509,90.511,125.197,91.115,124.898"/>
	<path fill="#003263" d="M68.371,130.268l-1.42,1.741c-1.445,1.722-1.855,2.218-2.481,2.891c-0.07,0.076-0.121,0.14-0.19,0.197
		c-0.168,0.197-0.362,0.457-0.651,0.737c0.168-0.654,0.432-1.31,0.747-1.926C65.289,132.187,66.805,130.896,68.371,130.268"/>
	<path fill="#FFFFFF" d="M89.307,139.894c-0.744,0.947-1.468,2.059-2.021,3.164c-0.699,1.468-0.988,2.638-0.988,3.705
		c0,0.438,0.051,0.896,0.146,1.328c0.168,0.794,0.337,0.991,0.385,1.01c0,0,0,0,0.047-0.019h0.025
		c0.073-0.077,0.143-0.179,0.242-0.395c0.022-0.063,0.047-0.121,0.07-0.14c0.241-0.457,0.435-0.832,1.35-4.976
		c0.048-0.272,0.118-0.515,0.168-0.769c0.118-0.515,0.238-0.972,0.311-1.468L89.307,139.894"/>
	<path fill="none" stroke="#003263" stroke-width="0.6768" d="M89.307,139.894c-0.744,0.947-1.468,2.059-2.021,3.164
		c-0.699,1.468-0.988,2.638-0.988,3.705c0,0.438,0.051,0.896,0.146,1.328c0.168,0.794,0.337,0.991,0.385,1.01c0,0,0,0,0.047-0.019
		h0.025c0.073-0.077,0.143-0.179,0.242-0.395c0.022-0.063,0.047-0.121,0.07-0.14c0.241-0.457,0.435-0.832,1.35-4.976
		c0.048-0.272,0.118-0.515,0.168-0.769c0.118-0.515,0.238-0.972,0.311-1.468L89.307,139.894z"/>
	<path fill="#FFFFFF" d="M230.129,99.288c0.984,0.06,1.899,0.753,2.115,1.782c0.025,0.118,0.073,0.299,0.073,0.534
		c0,0.477-0.143,0.852-0.241,1.09c-0.168,0.458-0.216,0.813-0.216,1.089v0.042c0.362-0.378,0.721-1.033,0.721-2.043
		c0-0.314-0.022-0.692-0.143-1.146l-0.601-2.713c0-0.041,0-0.08-0.025-0.099C231.234,98.296,230.656,98.811,230.129,99.288"/>
	<path fill="none" stroke="#003263" stroke-width="0.6768" d="M230.129,99.288c0.984,0.06,1.899,0.753,2.115,1.782
		c0.025,0.118,0.073,0.299,0.073,0.534c0,0.477-0.143,0.852-0.241,1.09c-0.168,0.458-0.216,0.813-0.216,1.089v0.042
		c0.362-0.378,0.721-1.033,0.721-2.043c0-0.314-0.022-0.692-0.143-1.146l-0.601-2.713c0-0.041,0-0.08-0.025-0.099
		C231.234,98.296,230.656,98.811,230.129,99.288z"/>
	<path fill="#FFFFFF" d="M67.189,144.92c-0.337-0.572-0.575-1.188-0.696-1.76l-0.146,0.178c-0.312,0.438-0.769,1.029-1.322,1.646
		C65.769,144.964,66.493,144.964,67.189,144.92"/>
	<path fill="none" stroke="#003263" stroke-width="0.6768" d="M67.189,144.92c-0.337-0.572-0.575-1.188-0.696-1.76l-0.146,0.178
		c-0.312,0.438-0.769,1.029-1.322,1.646C65.769,144.964,66.493,144.964,67.189,144.92z"/>
	<path fill="#FFFFFF" d="M182.064,106.991c-0.121,0.179-0.216,0.377-0.337,0.555l0.169-0.14
		C181.943,107.292,181.991,107.132,182.064,106.991"/>
	<path fill="none" stroke="#003263" stroke-width="0.6768" d="M182.064,106.991c-0.121,0.179-0.216,0.377-0.337,0.555l0.169-0.14
		C181.943,107.292,181.991,107.132,182.064,106.991z"/>
</g>
</svg>
