<svg height="316.227766" viewBox="0 0 27.62701 27.62595" width="316.227766" xmlns="http://www.w3.org/2000/svg"><path d="m26.668 13.81294a12.85451 12.85451 0 1 1 -12.854-12.85394 12.85406 12.85406 0 0 1 12.854 12.85394" fill="#231f20"/><circle cx="13.81376" cy="13.81296" fill="none" r="12.85424" stroke="#231f20" stroke-width="1.918"/><path d="m27.349 13.81294a13.53551 13.53551 0 1 1 -13.535-13.53594 13.53546 13.53546 0 0 1 13.535 13.53594" fill="#fff"/><path d="m26.484 13.814a12.6705 12.6705 0 1 1 -12.67-12.671 12.66972 12.66972 0 0 1 12.67 12.671" fill="#231f20"/><path d="m21.282 13.81294a7.468 7.468 0 1 1 -7.468-7.468 7.46778 7.46778 0 0 1 7.468 7.468" fill="#fff"/><path d="m9.506 8.85494h.936v.41506h.812v-.408h.993v.408h.841v-.395h.905v.454h.843v-.454h.99v.687a1.75557 1.75557 0 0 0 -.816 1.019 4.03089 4.03089 0 0 1 3.903-.496c0 1.107-.029 3.845-.029 3.845a3.22426 3.22426 0 0 0 -2.126-.728 2.68818 2.68818 0 0 0 -2.127 1.748c-.058.582.029 4.543.029 4.543h-4.018v-8.825l-1.136-1.135v-.678" fill="#e31836"/><path d="m9.506 8.85494h.936v.41506h.812v-.408h.993v.408h.841v-.395h.905v.454h.843v-.454h.99v.687a1.75557 1.75557 0 0 0 -.816 1.019 4.03089 4.03089 0 0 1 3.903-.496c0 1.107-.029 3.845-.029 3.845a3.22426 3.22426 0 0 0 -2.126-.728 2.68818 2.68818 0 0 0 -2.127 1.748c-.058.582.029 4.543.029 4.543h-4.018v-8.825l-1.136-1.135z" fill="none" stroke="#e31836" stroke-width=".769"/><path d="m9.506 8.85494h.936v.41506h.812v-.408h.993v.408h.841v-.395h.905v.454h.843v-.454h.99v.687a1.75557 1.75557 0 0 0 -.816 1.019 4.03089 4.03089 0 0 1 3.903-.496c0 1.107-.029 3.845-.029 3.845a3.22426 3.22426 0 0 0 -2.126-.728 2.68818 2.68818 0 0 0 -2.127 1.748c-.058.582.029 4.543.029 4.543h-4.018v-8.825l-1.136-1.135v-.678" fill="#e31836"/><path d="m9.506 8.85494h.936v.41506h.812v-.408h.993v.408h.841v-.395h.905v.454h.843v-.454h.99v.687a1.75557 1.75557 0 0 0 -.816 1.019 4.03089 4.03089 0 0 1 3.903-.496c0 1.107-.029 3.845-.029 3.845a3.22426 3.22426 0 0 0 -2.126-.728 2.68818 2.68818 0 0 0 -2.127 1.748c-.058.582.029 4.543.029 4.543h-4.018v-8.825l-1.136-1.135z" fill="none" stroke="#fff" stroke-width=".385"/><path d="m9.506 8.85494h.936v.41506h.812v-.408h.993v.408h.841v-.395h.905v.454h.843v-.454h.99v.687a1.75557 1.75557 0 0 0 -.816 1.019 4.03089 4.03089 0 0 1 3.903-.496c0 1.107-.029 3.845-.029 3.845a3.22426 3.22426 0 0 0 -2.126-.728 2.68818 2.68818 0 0 0 -2.127 1.748c-.058.582.029 4.543.029 4.543h-4.018v-8.825l-1.136-1.135v-.678" fill="#231f20"/><path d="m12.30202 10.66798h.69901v.66998h-.69901z" fill="#fff"/><path d="m1.965 11.465h.33v.147h.286v-.145h.351v.145h.296v-.14h.319v.16h.297v-.16h.349v.242a.61333.61333 0 0 0 -.287.359 1.42236 1.42236 0 0 1 1.376-.174c0 .389-.011 1.355-.011 1.355a1.13468 1.13468 0 0 0 -.749-.256.94661.94661 0 0 0 -.75.616c-.02.205.01 1.601.01 1.601h-1.417v-3.111l-.4-.4z" fill="#e31836"/><path d="m1.965 11.465h.33v.147h.286v-.145h.351v.145h.296v-.14h.319v.16h.297v-.16h.349v.242a.61333.61333 0 0 0 -.287.359 1.42236 1.42236 0 0 1 1.376-.174c0 .389-.011 1.355-.011 1.355a1.13468 1.13468 0 0 0 -.749-.256.94661.94661 0 0 0 -.75.616c-.02.205.01 1.601.01 1.601h-1.417v-3.111l-.4-.4z" fill="none" stroke="#231f20" stroke-width=".271"/><path d="m1.965 11.465h.33v.147h.286v-.145h.351v.145h.296v-.14h.319v.16h.297v-.16h.349v.242a.61333.61333 0 0 0 -.287.359 1.42236 1.42236 0 0 1 1.376-.174c0 .389-.011 1.355-.011 1.355a1.13468 1.13468 0 0 0 -.749-.256.94661.94661 0 0 0 -.75.616c-.02.205.01 1.601.01 1.601h-1.417v-3.111l-.4-.4z" fill="#e31836"/><path d="m1.965 11.465h.33v.147h.286v-.145h.351v.145h.296v-.14h.319v.16h.297v-.16h.349v.242a.61333.61333 0 0 0 -.287.359 1.42236 1.42236 0 0 1 1.376-.174c0 .389-.011 1.355-.011 1.355a1.13468 1.13468 0 0 0 -.749-.256.94661.94661 0 0 0 -.75.616c-.02.205.01 1.601.01 1.601h-1.417v-3.111l-.4-.4z" fill="none" stroke="#fff" stroke-width=".136"/><path d="m1.965 11.465h.33v.147h.286v-.145h.351v.145h.296v-.14h.319v.16h.297v-.16h.349v.242a.61333.61333 0 0 0 -.287.359 1.42236 1.42236 0 0 1 1.376-.174c0 .389-.011 1.355-.011 1.355a1.13468 1.13468 0 0 0 -.749-.256.94661.94661 0 0 0 -.75.616c-.02.205.01 1.601.01 1.601h-1.417v-3.111l-.4-.4z" fill="#e31836"/><path d="m2.951 12.10396h.246v.23602h-.246z" fill="#fff"/><path d="m22.075 11.465h.33v.147h.286v-.145h.351v.145h.296v-.14h.318v.16h.298v-.16h.349v.242a.61944.61944 0 0 0 -.288.359 1.42478 1.42478 0 0 1 1.377-.174c0 .389-.011 1.355-.011 1.355a1.13665 1.13665 0 0 0 -.749-.256.94352.94352 0 0 0 -.749.616c-.021.205.009 1.601.009 1.601h-1.417v-3.111l-.4-.4z" fill="#e31836"/><path d="m22.075 11.465h.33v.147h.286v-.145h.351v.145h.296v-.14h.318v.16h.298v-.16h.349v.242a.61944.61944 0 0 0 -.288.359 1.42478 1.42478 0 0 1 1.377-.174c0 .389-.011 1.355-.011 1.355a1.13665 1.13665 0 0 0 -.749-.256.94352.94352 0 0 0 -.749.616c-.021.205.009 1.601.009 1.601h-1.417v-3.111l-.4-.4z" fill="none" stroke="#231f20" stroke-width=".271"/><path d="m22.075 11.465h.33v.147h.286v-.145h.351v.145h.296v-.14h.318v.16h.298v-.16h.349v.242a.61944.61944 0 0 0 -.288.359 1.42478 1.42478 0 0 1 1.377-.174c0 .389-.011 1.355-.011 1.355a1.13665 1.13665 0 0 0 -.749-.256.94352.94352 0 0 0 -.749.616c-.021.205.009 1.601.009 1.601h-1.417v-3.111l-.4-.4z" fill="#e31836"/><path d="m22.075 11.465h.33v.147h.286v-.145h.351v.145h.296v-.14h.318v.16h.298v-.16h.349v.242a.61944.61944 0 0 0 -.288.359 1.42478 1.42478 0 0 1 1.377-.174c0 .389-.011 1.355-.011 1.355a1.13665 1.13665 0 0 0 -.749-.256.94352.94352 0 0 0 -.749.616c-.021.205.009 1.601.009 1.601h-1.417v-3.111l-.4-.4z" fill="none" stroke="#fff" stroke-width=".136"/><path d="m22.075 11.465h.33v.147h.286v-.145h.351v.145h.296v-.14h.318v.16h.298v-.16h.349v.242a.61944.61944 0 0 0 -.288.359 1.42478 1.42478 0 0 1 1.377-.174c0 .389-.011 1.355-.011 1.355a1.13665 1.13665 0 0 0 -.749-.256.94352.94352 0 0 0 -.749.616c-.021.205.009 1.601.009 1.601h-1.417v-3.111l-.4-.4z" fill="#e31836"/><g fill="#fff"><path d="m23.06102 12.10396h.24701v.23602h-.24701z"/><path d="m3.998 8.988.694.371.311-.583a.69357.69357 0 0 0 .099-.283.32873.32873 0 0 0 -.209-.31.36961.36961 0 0 0 -.394-.019.58848.58848 0 0 0 -.18.226zm.217-1.32306a.73923.73923 0 0 1 .311-.147.92179.92179 0 0 1 .287-.012.81416.81416 0 0 1 .297.097.87554.87554 0 0 1 .313.288.5887.5887 0 0 1 .087.44.55859.55859 0 0 1 .34-.143.9766.9766 0 0 1 .445.143l.175.094a1.55292 1.55292 0 0 0 .248.116.24849.24849 0 0 0 .201-.02l.065.036-.319.592c-.065-.014-.118-.028-.157-.039a1.48728 1.48728 0 0 1 -.235-.097l-.243-.12594a.5482.5482 0 0 0 -.377-.091c-.085.024-.168.113-.248.264l-.284.53 1.017.544-.283.528-2.589-1.386.664-1.239a1.28392 1.28392 0 0 1 .285-.372"/><path d="m7.045 5.103-1.094 1.067.434.445 1.003-.978.355.364-1.002.979.529.541 1.147-1.118.366.374-1.577 1.539-2.05-2.102 1.522-1.486z"/><path d="m9.485 3.111.797-.375 1.255 2.654-.515.244-.849-1.797c-.025-.051-.058-.122-.101-.217-.043-.094-.076-.165-.1-.217l.549 2.467-.54.255-1.554-1.992c.024.051.059.123.104.215.046.093.08.165.105.21594l.848 1.797-.515.242-1.255-2.65494.806-.381 1.47 1.86z"/><path d="m13.059 2.894a.47482.47482 0 0 0 -.331-.061l-.541.06.095.856.541-.06a.45992.45992 0 0 0 .309-.14.43261.43261 0 0 0 .077-.344.40819.40819 0 0 0 -.15-.311m.587 1.001a1.11673 1.11673 0 0 1 -.704.294l-.604.067.117 1.05-.61.068-.325-2.919 1.25-.139a1.01009 1.01009 0 0 1 .714.149.88831.88831 0 0 1 .336.67.91968.91968 0 0 1 -.174.75995"/><path d="m15.02 4.167.739.122-.175-1.201zm.332-1.798.69.114.542 3.066-.655-.108-.092-.622-1.067-.176-.292.558-.638-.105z"/><path d="m18.374 3.768-.366.695.584.309a.68839.68839 0 0 0 .284.096.32645.32645 0 0 0 .308-.211.36891.36891 0 0 0 .018-.395.604.604 0 0 0 -.228-.177zm1.325.20795a.70829.70829 0 0 1 .147.309.89065.89065 0 0 1 .016.287.80782.80782 0 0 1 -.095.298.86965.86965 0 0 1 -.285.314.58238.58238 0 0 1 -.441.09.5503.5503 0 0 1 .145.34.98411.98411 0 0 1 -.139.447l-.093.174a1.45918 1.45918 0 0 0 -.113.25.2521.2521 0 0 0 .02.201l-.034.064-.596-.313c.015-.066.028-.118.04-.158a1.32318 1.32318 0 0 1 .095-.236l.124-.245a.54631.54631 0 0 0 .088-.377.4915.4915 0 0 0 -.266-.246l-.531-.281-.538 1.022-.531-.28 1.37-2.598 1.242.655a1.26869 1.26869 0 0 1 .375.283"/><path d="m22.639 6.383-.358.363-.629-.621-1.705 1.729-.438-.432 1.706-1.728-.63-.621.357-.363z"/><path d="m21.654 8.54494a.6051.6051 0 0 0 -.208.242.63959.63959 0 0 0 .094.537 1.09733 1.09733 0 0 0 .215.285.33863.33863 0 0 0 .423.06.25526.25526 0 0 0 .134-.221 1.37891 1.37891 0 0 0 -.077-.417l-.091-.307a2.00975 2.00975 0 0 1 -.116-.669.71227.71227 0 0 1 .408-.575.84107.84107 0 0 1 .713-.06805 1.22719 1.22719 0 0 1 .644.613 1.30383 1.30383 0 0 1 .176.818.87235.87235 0 0 1 -.453.651l-.289-.516a.42068.42068 0 0 0 .214-.388.80985.80985 0 0 0 -.113-.352.68563.68563 0 0 0 -.271-.288.30349.30349 0 0 0 -.303.005.25113.25113 0 0 0 -.136.238 1.71461 1.71461 0 0 0 .083.398l.142.504a1.32649 1.32649 0 0 1 .061.546.72461.72461 0 0 1 -.397.522.84746.84746 0 0 1 -.735.057 1.29617 1.29617 0 0 1 -.658-.632 1.4239 1.4239 0 0 1 -.216-.92.86562.86562 0 0 1 .466-.639l.29.516"/><path d="m5.923 21.962a1.20206 1.20206 0 0 0 .131.062l-.007-.406.456-.008.007.406a1.20428 1.20428 0 0 0 .246-.107 1.44441 1.44441 0 0 0 .296-.231 1.254 1.254 0 0 0 .396-.678.68754.68754 0 0 0 -.224-.605.71176.71176 0 0 0 -.589-.228 1.17745 1.17745 0 0 0 -.698.389 1.069 1.069 0 0 0 -.392.824.71606.71606 0 0 0 .218.457.78734.78734 0 0 0 .16.125m1.062.512a1.10156 1.10156 0 0 1 -.462.13306l.01.45795-.456.015-.014-.488a1.46962 1.46962 0 0 1 -.294-.099 1.521 1.521 0 0 1 -.379-.287 1.34862 1.34862 0 0 1 -.424-.912 1.55263 1.55263 0 0 1 .538-1.174 1.539 1.539 0 0 1 1.189-.527 1.3829 1.3829 0 0 1 .905.434 1.36036 1.36036 0 0 1 .421.927 1.48864 1.48864 0 0 1 -.503 1.127 1.88784 1.88784 0 0 1 -.531.39294"/><path d="m8.898 21.29994.553.268-.786 1.62a.988.988 0 0 0 -.128.428.48521.48521 0 0 0 .337.437.48383.48383 0 0 0 .55-.006 1.01692 1.01692 0 0 0 .259-.366l.786-1.62.552.269-.788 1.624a1.51332 1.51332 0 0 1 -.449.592 1.077 1.077 0 0 1 -1.138-.021 1.08537 1.08537 0 0 1 -.723-.883 1.50263 1.50263 0 0 1 .187-.718z"/><path d="m13.443 21.886-.677.513-.404-.05505.457-.543.624.085m.191 1.39294-1.515-.204-.083.616 1.388.187-.067.50494-1.388-.187-.101.75 1.588.215-.069.519-2.183-.29383.391-2.91 2.109.283z"/><path d="m15.156 24.272.139.767.704-.128a.69622.69622 0 0 0 .283-.104.36582.36582 0 0 0 .126-.394.31427.31427 0 0 0 -.241-.274.74974.74974 0 0 0 -.298.004zm-.203-1.12.115.64105.7-.127a.59275.59275 0 0 0 .292-.127.28007.28007 0 0 0 .07-.277.26468.26468 0 0 0 -.203-.24 1.12514 1.12514 0 0 0 -.349.016zm1.535-.479a.76511.76511 0 0 1 .213.419.65274.65274 0 0 1 -.056.45.66515.66515 0 0 1 -.19.205.64584.64584 0 0 1 .376.195.77427.77427 0 0 1 .189.402.85234.85234 0 0 1 -.045.482.80424.80424 0 0 1 -.463.469 1.95611 1.95611 0 0 1 -.4.113l-1.299.237-.526-2.89 1.396-.254a.90588.90588 0 0 1 .805.172"/><path d="m19.261 21.559-1.343.729.297.546 1.231-.668.244.448-1.231.669.36.665 1.409-.766.25.462-1.934 1.051-1.402-2.581 1.869-1.016z"/><path d="m19.88 20.772a1.37143 1.37143 0 0 1 1.449-1.348 1.03685 1.03685 0 0 1 .535.231l-.422.446a.84585.84585 0 0 0 -.334-.111.6066.6066 0 0 0 -.472.221.59964.59964 0 0 0 -.16.561 1.32169 1.32169 0 0 0 .423.662 1.16106 1.16106 0 0 0 .673.363.61938.61938 0 0 0 .525-.198.57243.57243 0 0 0 .176-.493.94571.94571 0 0 0 -.145-.346l.422-.446a1.32067 1.32067 0 0 1 .289.829 1.17828 1.17828 0 0 1 -.354.81 1.24767 1.24767 0 0 1 -.971.436 1.63428 1.63428 0 0 1 -1.057-.508 1.61008 1.61008 0 0 1 -.577-1.109"/></g></svg>