<?xml version="1.0" encoding="utf-8"?>
<!-- Generator: Adobe Illustrator 14.0.0, SVG Export Plug-In . SVG Version: 6.00 Build 43363)  -->
<!DOCTYPE svg PUBLIC "-//W3C//DTD SVG 1.1//EN" "http://www.w3.org/Graphics/SVG/1.1/DTD/svg11.dtd">
<svg version="1.1" id="Layer_1" xmlns="http://www.w3.org/2000/svg" xmlns:xlink="http://www.w3.org/1999/xlink" x="0px" y="0px"
	 width="241px" height="250px" viewBox="0 0 241 250" enable-background="new 0 0 241 250" xml:space="preserve">
<g>
	<path fill-rule="evenodd" clip-rule="evenodd" fill="#BBBDBF" d="M112.121,29.77c59.271,0,107.618,48.334,107.618,107.618
		c0,59.273-48.347,107.612-107.618,107.612C52.852,245,4.509,196.661,4.509,137.388C4.509,78.104,52.852,29.77,112.121,29.77"/>
	<path fill-rule="evenodd" clip-rule="evenodd" fill="#FFFFFF" d="M112.121,29.77c59.271,0,107.618,48.334,107.618,107.618
		c0,59.273-48.347,107.612-107.618,107.612C52.852,245,4.509,196.661,4.509,137.388C4.509,78.104,52.852,29.77,112.121,29.77"/>
	<path fill-rule="evenodd" clip-rule="evenodd" fill="#231F20" d="M112.121,33.61c57.16,0,103.77,46.606,103.77,103.778
		c0,57.146-46.61,103.772-103.77,103.772c-57.157,0-103.764-46.627-103.764-103.772C8.357,80.216,54.963,33.61,112.121,33.61"/>
	<path fill-rule="evenodd" clip-rule="evenodd" fill="#FFFFFF" d="M112.121,58.618c43.378,0,78.779,35.375,78.779,78.77
		c0,43.389-35.4,78.765-78.779,78.765c-43.38,0-78.781-35.376-78.781-78.765C33.34,93.993,68.74,58.618,112.121,58.618"/>
	<path fill-rule="evenodd" clip-rule="evenodd" fill="#ED1C2E" d="M112.121,62.962c40.991,0,74.421,33.431,74.421,74.425
		c0,40.993-33.431,74.424-74.421,74.424c-40.989,0-74.419-33.431-74.419-74.424C37.702,96.393,71.132,62.962,112.121,62.962"/>
	<path fill-rule="evenodd" clip-rule="evenodd" fill="#FFFFFF" d="M25.94,111.731l-0.509,1.632l3.827,1.223
		c0.906,0.263,1.648,0.288,2.229,0.096l-2.041,6.386c-0.372-0.505-0.998-0.914-1.857-1.227l-9.695-3.118
		c-0.906-0.267-1.648-0.288-2.229-0.096l3.644-11.327c0.254-0.793,0.484-1.369,0.693-1.732c0.233-0.359,0.513-0.647,0.885-0.864
		c0.647-0.384,1.481-0.455,2.458-0.167l2.967,0.96c0.626,0.217,1.043,0.434,1.277,0.697c0.392,0.434,0.488,0.985,0.28,1.657
		c-0.025,0.071-0.071,0.192-0.142,0.359l4.616-0.622c0.813-0.096,1.557-0.242,2.208-0.459l-1.949,6.072 M23.157,112.616l0.951-2.926
		c0.142-0.434,0.163-0.743,0.046-0.935c-0.092-0.192-0.392-0.363-0.901-0.53l-0.697-0.217c-0.672-0.213-1.114-0.288-1.298-0.192
		c-0.208,0.075-0.396,0.384-0.559,0.939l-0.906,2.784L23.157,112.616z M25.339,91.042l4.315-7.225
		c0.275-0.48,0.647-0.889,1.114-1.223c0.438-0.363,0.901-0.555,1.365-0.651c0.768-0.167,1.766,0.096,2.972,0.818l5.313,3.167
		c1.206,0.718,1.924,1.465,2.133,2.233c0.138,0.455,0.188,0.96,0.092,1.511c-0.092,0.551-0.275,1.081-0.555,1.561l-4.315,7.225
		c-0.28,0.48-0.651,0.885-1.089,1.223c-0.463,0.334-0.927,0.551-1.394,0.647c-0.764,0.167-1.761-0.096-2.967-0.814l-5.313-3.167
		c-1.206-0.722-1.903-1.465-2.133-2.233c-0.142-0.455-0.163-0.96-0.096-1.511C24.876,92.027,25.06,91.522,25.339,91.042z
		 M29.768,91.568l5.43,3.243c0.534,0.334,0.927,0.48,1.186,0.501c0.346-0.046,0.692-0.334,0.997-0.864l0.998-1.653
		c0.301-0.53,0.417-0.914,0.321-1.177c-0.092-0.242-0.438-0.551-1.043-0.935l-5.426-3.218c-0.534-0.338-0.931-0.505-1.16-0.505
		c-0.372,0.05-0.722,0.313-1.023,0.864l-1.089,1.824c-0.255,0.434-0.326,0.768-0.209,1.035
		C28.866,90.946,29.191,91.234,29.768,91.568z M40.974,69.632c0.071,0.601,0.442,1.248,1.089,1.945l5.872,5.81
		c0.438,0.455,0.764,0.697,1.019,0.768c0.351,0.046,0.743-0.146,1.185-0.576l3.155-3.168c0.417-0.434,0.601-0.768,0.58-1.056
		c-0.025-0.288-0.279-0.672-0.789-1.177l-5.847-5.81c-0.697-0.647-1.344-1.006-1.949-1.077l2.529-2.546
		c0.071,0.601,0.438,1.248,1.089,1.945l5.822,5.76c0.535,0.525,0.906,0.985,1.115,1.39c0.208,0.384,0.325,0.818,0.346,1.344
		c0.096,1.01-0.3,1.945-1.135,2.809l-5.497,5.546c-0.86,0.839-1.812,1.248-2.83,1.173c-0.513-0.021-0.952-0.142-1.348-0.359
		c-0.392-0.192-0.855-0.576-1.39-1.102l-5.801-5.764c-0.672-0.646-1.323-1.006-1.949-1.102L40.974,69.632z M64.195,58.259
		l-0.117-4.512c0-0.672-0.138-1.227-0.417-1.657c-0.071-0.071-0.163-0.192-0.28-0.338l3.272-2.133
		c-0.138,0.309-0.229,0.622-0.255,0.91c-0.021,0.288,0,0.793,0.046,1.536l0.209,8.255l1.857,2.809
		c0.534,0.793,1.089,1.273,1.669,1.465l-5.613,3.673c0.046-0.601-0.184-1.323-0.672-2.112l-1.833-2.834l-7.17-3.264
		c-1.114-0.53-1.97-0.889-2.621-1.056l6.123-3.986c0.213,0.338,0.442,0.576,0.676,0.768c0.254,0.192,0.626,0.409,1.16,0.651
		L64.195,58.259z M79.738,44.624l9.211,8.906l-3.247-8.832c-0.35-0.864-0.789-1.465-1.302-1.803l3.364-1.223
		c-0.184,0.576-0.117,1.319,0.188,2.208l4.244,11.569l-6.565,2.425l-9.537-9.048l3.318,9.048c0.351,0.885,0.789,1.486,1.323,1.799
		l-3.385,1.248c0.184-0.601,0.113-1.344-0.163-2.233l-3.527-9.549c-0.351-0.864-0.789-1.465-1.298-1.803L79.738,44.624z"/>
	<path fill-rule="evenodd" clip-rule="evenodd" fill="#FFFFFF" d="M59.625,203.289l-2.759,12.504l5.822-7.37
		c0.555-0.769,0.834-1.461,0.834-2.063l2.83,2.229c-0.605,0.149-1.185,0.575-1.811,1.302l-7.608,9.691l-5.497-4.315l2.692-12.863
		l-5.964,7.554c-0.555,0.769-0.834,1.444-0.834,2.07l-2.83-2.212c0.605-0.167,1.206-0.601,1.786-1.318l6.311-8.014
		c0.555-0.751,0.834-1.419,0.834-2.07 M71.295,211.494l7.654,3.431c0.509,0.242,0.977,0.56,1.344,0.969
		c0.396,0.4,0.676,0.834,0.814,1.293c0.254,0.743,0.092,1.778-0.463,3.047l-2.554,5.643c-0.576,1.27-1.227,2.063-1.945,2.371
		c-0.442,0.192-0.952,0.292-1.511,0.267c-0.555-0.024-1.089-0.142-1.599-0.384l-7.68-3.431c-0.509-0.242-0.951-0.551-1.344-0.96
		c-0.396-0.409-0.651-0.843-0.814-1.302c-0.254-0.743-0.092-1.745,0.488-3.047l2.529-5.635c0.58-1.276,1.227-2.069,1.97-2.379
		c0.417-0.191,0.926-0.292,1.486-0.267C70.251,211.136,70.786,211.261,71.295,211.494z M71.249,215.96l-2.575,5.76
		c-0.255,0.576-0.372,0.984-0.351,1.227c0.071,0.359,0.396,0.643,0.951,0.885l1.787,0.818c0.534,0.242,0.931,0.284,1.185,0.167
		c0.255-0.117,0.509-0.476,0.81-1.127l2.575-5.76c0.255-0.576,0.372-0.984,0.351-1.227c-0.071-0.359-0.396-0.668-0.951-0.91
		l-1.949-0.885c-0.442-0.192-0.789-0.217-1.043-0.075C71.804,214.975,71.524,215.334,71.249,215.96z M90.99,227.479l-1.648-0.385
		l-0.927,3.915c-0.188,0.935-0.138,1.678,0.117,2.229l-6.544-1.535c0.463-0.409,0.835-1.052,1.068-1.945l2.321-9.908
		c0.184-0.91,0.163-1.652-0.092-2.229l11.598,2.704c0.789,0.192,1.39,0.385,1.761,0.576c0.396,0.192,0.697,0.459,0.927,0.793
		c0.467,0.626,0.58,1.444,0.372,2.429l-0.718,3.047c-0.138,0.643-0.325,1.077-0.555,1.344c-0.417,0.435-0.977,0.552-1.649,0.409
		c-0.092-0.024-0.208-0.075-0.371-0.125l0.977,4.566c0.184,0.793,0.392,1.535,0.647,2.153l-6.194-1.436L90.99,227.479z
		 M89.875,224.767l2.993,0.701c0.463,0.116,0.789,0.116,0.951,0c0.184-0.126,0.326-0.459,0.442-0.96l0.184-0.701
		c0.163-0.693,0.188-1.152,0.092-1.319c-0.092-0.191-0.417-0.358-0.998-0.476l-2.851-0.676L89.875,224.767z M108.644,221.478
		l6.402,0.242l4.57,12.963c0.254,0.626,0.601,1.219,1.068,1.753l-7.287-0.292c0.254-0.259,0.396-0.576,0.396-0.935
		c0.021-0.409-0.071-0.885-0.305-1.437l-0.601-1.561l-5.939-0.242l-0.973,1.97c-0.188,0.359-0.305,0.693-0.305,0.985
		c0,0.233,0.071,0.551,0.234,0.935l-4.061-0.15c0.672-0.692,1.277-1.577,1.833-2.662l5.521-10.677
		C109.062,222.037,108.899,221.744,108.644,221.478z M112.008,229.833l-1.694-4.558l-2.183,4.416L112.008,229.833z M129.548,219.607
		l7.979,10.033l-2.087-9.165c-0.233-0.918-0.584-1.561-1.068-1.944l3.522-0.818c-0.275,0.551-0.301,1.294-0.117,2.229l2.738,12.028
		l-6.845,1.562l-8.28-10.201l2.137,9.407c0.233,0.886,0.576,1.562,1.068,1.945l-3.506,0.793c0.259-0.576,0.275-1.302,0.092-2.212
		l-2.247-9.934c-0.233-0.909-0.58-1.561-1.068-1.97L129.548,219.607z M146.2,229.934c0.142-0.602,0.05-1.353-0.301-2.188
		l-4.132-9.341c-0.393-0.834-0.859-1.385-1.41-1.702l10.926-4.825c0.51-0.233,1.044-0.358,1.62-0.384
		c0.559,0,1.068,0.101,1.485,0.292c0.743,0.31,1.394,1.103,1.953,2.371l2.504,5.668c0.552,1.269,0.718,2.304,0.46,3.046
		c-0.159,0.459-0.418,0.894-0.811,1.294c-0.392,0.409-0.859,0.727-1.368,0.943L146.2,229.934z M150.816,225.301l2.387-1.061
		c0.56-0.242,0.86-0.501,0.936-0.768c0.092-0.268-0.025-0.718-0.31-1.369l-2.546-5.76c-0.259-0.576-0.467-0.935-0.676-1.102
		c-0.325-0.167-0.768-0.142-1.318,0.117l-2.371,1.06L150.816,225.301z M160.516,206.119l5.059-3.907l11.828,6.953
		c0.601,0.343,1.252,0.56,1.944,0.677l-5.751,4.466c0-0.359-0.092-0.701-0.326-0.985c-0.225-0.317-0.626-0.601-1.135-0.894
		l-1.485-0.81l-4.684,3.648l0.484,2.111c0.117,0.409,0.259,0.718,0.418,0.96c0.142,0.192,0.417,0.384,0.793,0.576l-3.206,2.471
		c0.075-0.935-0.041-2.021-0.3-3.188l-2.646-11.736C161.184,206.285,160.857,206.169,160.516,206.119z M168.445,210.367
		l-4.224-2.396l1.16,4.774L168.445,210.367z"/>
	<path fill-rule="evenodd" clip-rule="evenodd" fill="#ED1C2E" d="M42.48,192.78c2.137,0,3.877,1.753,3.877,3.881
		c0,2.137-1.74,3.89-3.877,3.89c-2.133,0-3.874-1.753-3.874-3.89C38.607,194.533,40.348,192.78,42.48,192.78"/>
	<path fill-rule="evenodd" clip-rule="evenodd" fill="#ED1C2E" d="M101.591,41.435c2.133,0,3.873,1.749,3.873,3.886
		s-1.74,3.865-3.873,3.865s-3.873-1.728-3.873-3.865S99.458,41.435,101.591,41.435"/>
	<path fill-rule="evenodd" clip-rule="evenodd" fill="#ED1C2E" d="M20.815,125.867c2.133,0,3.874,1.749,3.874,3.883
		c0,2.138-1.741,3.865-3.874,3.865c-2.132,0-3.873-1.728-3.873-3.865C16.942,127.615,18.683,125.867,20.815,125.867"/>
	<path fill-rule="evenodd" clip-rule="evenodd" fill="#231F20" d="M216.049,28.113l0.627,1.632l2.137,21.026h0.092l6.168,6.144
		l5.776,2.133c0.952,1.056,1.861,2.091,2.696,3.218c0.576,0.889,1.085,1.728,1.553,2.663c0.417,0.96,0.718,1.849,0.993,2.859
		c0.209,1.006,0.325,1.941,0.4,2.976c0,1.031-0.1,1.965-0.233,2.976c-0.209,0.981-0.468,1.895-0.793,2.88
		c-0.367,0.935-0.785,1.849-1.252,2.759c-1.068,1.895-2.271,3.602-3.64,5.304c-1.227,1.465-2.529,2.83-3.873,4.199l-10.534,13.151
		l-4.892,7.513l-0.116,0.939l16.21,7.316l-7.771,2.329l3.689,2.329l-8.789,5.063l16.327,13.274l-12.938-0.117l13.247,12.646
		l-17.221-1.778l-4.523,1.845c-6.837,18.53-5.936,33.48-5.585,54.415l-4.499,15.768c-5.476-13.229-16.702-20.592-39.999-30.292
		c-0.902-0.358-0.535-4.148-1.486-4.415c-0.951-0.268-23.539,13.756-24.983,14.565l10.626-23.113l-5.083,4.95l0.309-9.148
		l-14.872,14.231l1.9-15.984l-43.495,28.948l20.275-32.596l-41.736,13.13l9.674-12.146l-58.877,30.125l36.469-47.02l0.438-0.384
		l-10.342-0.551l11.11-7.78l-8.793-0.768l13.71-7.847l-3.689-1.944l7.471-4.082c-1.878-2.853-3.268-5.924-4.499-9.092l-0.814-2.158
		l3.598-8.184l2.621-2.642l1.995-2.279l15.359-5.472l2.225-1.97l-8.861,1.874l28.86-27.099l1.298-1.39L85.652,75.25l28.86-20.567
		l-7.633-2.688l18.395-6.385l-1.667-2.713l14.664-1.799l-0.518-5.134l13.664,3.84l5.551,0.192l2.313-1.419l16.869-20.4
		c1.879-1.966,3.689-4.032,5.593-5.972c1.461-1.465,2.922-2.738,4.658-3.84c1.302-0.793,2.579-1.394,3.989-1.924
		c1.787-0.622,3.557-1.056,5.385-1.439l3.18,0.146l2.529,0.43l2.337,0.722l2.112,1.056l1.836,1.369l1.511,1.582
		c0.644,0.864,1.178,1.707,1.712,2.642c0.442,0.889,0.817,1.774,1.185,2.713c1.319,3.765,2.179,7.679,3.506,11.448"/>
	<path fill-rule="evenodd" clip-rule="evenodd" fill="#FFFFFF" d="M196.191,9.516c13.18,0.021,11.202,9.428,16.076,21.311
		l1.319,12.454l1.144,12.003l0.134,5.542l3.765-0.263l-1.47-5.184l5.435,5.422l5.659,2.091c6.586,6.982,4.198,14.04-4.917,22.988
		l-10.81,13.514l-5.567,8.543l-0.718,5.28l8.28,3.719l-5.709,1.732l5.776,3.623l-7.98,4.607l11.411,9.288l-11.478-0.1l11.97,11.402
		l-4.808-0.476l-8.439,1.702c-9.725,15.242-8.84,31.778-7.746,62.688c-4.716-7.036-12.162-12.796-20.442-17.111
		c-4.666-2.446-9.599-4.441-14.449-5.927l-2.203-6.127l-16.703,8.647l8.723-25.467l-9.189,8.881l0.3-8.831l-13.572,13.03
		l-0.576-10.275l-33.311,21.744l12.712-25.943l-35.379,11.11l12.225-15.309l-54.328,26.402l20.087-28.397l8.143-7.295l-8.164-0.451
		l10.576-7.396l-6.82-0.576l8.331-4.774l-3.527-1.87l5.08-2.763c-3.227-2.329-5.797-7.681-7.563-12.385l2.529-5.735l2.133-2.137
		l1.323-1.536l6.356-2.304l8.698-3.021l8.447-7.513l9.904-11.185l-10.254,4.37l14.962-13.635l8.213-4.416l-4.245,0.192l7.68-7.033
		l-9.441,1.49l23.128-16.49l-5.127-0.5l10.786-2.066l-1.419-2.279l6.219-0.768l5.802-0.793l-0.275-2.905l7.838,2.208l7.42,0.288
		l4.107-2.521l17.262-20.855C186.149,14.265,187.31,11.314,196.191,9.516"/>
	<path fill-rule="evenodd" clip-rule="evenodd" fill="#404041" d="M192.318,19.954l-1.736-1.945l-0.417-2.425l0.108-2.037
		l-7.487,7.942l-6.311,7.25l-11.553,14.732l8.163-7.149l-1.109,3.48l8.188-7.538l0.184,3.36l4.8-6.239l-1.854,6.577l4.457-3.459
		l3.548-3.694l4.24,0.217l3.665,0.576l-0.602-2.45l-1.294-3.214l-1.485-0.267l-0.651-1.319 M197.744,21.105l1.786,0.743l3.506,2.667
		l-6.569-12.65C186.492,13.067,193.036,19.115,197.744,21.105z"/>
	<polyline fill-rule="evenodd" clip-rule="evenodd" fill="#231F20" points="199.881,12.083 202.293,17.003 205.307,22.667 
		205.799,18.105 203.178,13.81 	"/>
	<polyline fill-rule="evenodd" clip-rule="evenodd" fill="#231F20" points="211.733,61.594 210.924,45.801 209.764,37.424 
		206.45,45.922 206.884,34.736 205.031,31.498 201.342,38.05 201.016,52.328 198.37,45.321 197.285,48.034 195.148,56.435 
		191.742,64.787 189.021,70.187 187.493,74.553 189.855,71.723 192.109,71.456 194.964,69.945 198.42,67.737 203.637,64.833 
		199.205,58.259 209.463,62.407 	"/>
	<path fill-rule="evenodd" clip-rule="evenodd" fill="#231F20" d="M158.128,52.378l-4.941,5.664l-3.765,3.456l0.167,1.127
		l-2.278,2.208l-4.774,5.042l-4.058,3.097l2.063-7.295c0,0-9.675-2.112-9.299-3.026l15.167-6.098l-7.12-0.405l9.833-1.682
		l4.156-1.607l6.102-3.001"/>
	<path fill-rule="evenodd" clip-rule="evenodd" fill="#231F20" d="M58.836,154.642l12.759-2.997L41.508,177.68l58.852-33.53
		l-8.79,9.892l18.535-11.661l-23.243,24.499l31.06-13.489l-4.107,16.92l17.377-12.379l2.879,9.716l4.633-5.951l5.918-0.885
		l3.598,4.248l4.032-4.415l7.245,0.601l-4.132,18.647l12.062-10.492l-1.302,12.095c6.177,6.361,20.158,10.776,26.427,18.122
		l-1.669-9.741l-0.376-6.41l1.277-21.311l-12.337,19.031c2.337-11.21,3.572-22.179,3.196-32.829l-10.417,9.791
		c-2.871-7.847-1.344-16.318,2.188-25.083l-11.929,19.49c-1.202-10.033-0.142-19.49,1.945-28.683
		c-6.303,8.257-12.246,17.164-17.329,27.48l2.254-19.532l-12.529,9.308c3.548-12.79,11.302-25.966,18.447-34.752
		c-8.564,6.123-18.33,16.632-24.565,26.688l1.135-13.462l-15.987,14.013l8.885-18.646l5.708-12.433l-9,1.824l3.825-13.318
		l9.399-11.999l-10.023,2.016l2.995-9.745l11.227-7.128l-5.384-4.992l-0.601-3.239l23.013-7.705l-8.397-2.162l-3.297,1.369
		l-8.489,0.359l1.369,2.016l-9.675,4.466l-10.603,8.159l4.549-0.288l-7.867,10.08L98.832,85.425l7.792-2.88L93.331,95.074
		l5.313-0.025l-17.12,9.983l11.436-0.91l-25.747,8.376c-2.112,2.279-4.896,4.032-5.639,6.694c-0.88,3.167,1.833,7.513,5.66,11.258
		l2.529,2.138l-2.876,2.563l1.995,2.111l-5.221,2.88l3.226,1.661l-7.262,6.452l7.679-1.485"/>
	<path fill-rule="evenodd" clip-rule="evenodd" fill="#8E979D" d="M197.794,37.162c-0.793,14.353-13.873,30.191-14.616,43.822
		c0.117-2.229,12.896-9.72,14.892-10.392c13.181-4.391,27.028-13.03,29.833,0.793c0.743,3.719-7.237,10.68-15.167,20.906
		c-2.737,3.501-6.243,7.007-7.847,11.277l-2.27,6.098l-0.627,4.127l3.715,2.233l-4.224,2.471l5.91,4.057l-6.937,2.809l6.986,7.152
		l-7.445-2.597l6.869,14.257l-6.452,0.743l-3.689,10.468l-2.362-19.508l2.83-15.578l-8.03,10.728l4.549-14.835l-16.961,12.146
		c11.16-12.362,34.591-42.216,25.775-36.335c-3.088,2.087-10.467,4.224-14.173,4.032c-0.977-0.05,9.115-7.801,10.092-8.881
		c22.754-24.72-4.967-6.912-19.883,0.338c-1.345,0.647,5.292-23.543,7.537-27.625C188.796,55.016,196.751,42.32,197.794,37.162"/>
	<path fill-rule="evenodd" clip-rule="evenodd" fill="#8E979D" d="M122.1,88.977l-6.081,12.792l1.995,1.899l-4.291,2.158
		l-3.689,1.874l-10.3-2.642l6.937-1.126l-2.805-3.435l7.888-2.254l-7.333-2.471C112.818,96.777,118.156,93.776,122.1,88.977"/>
	<path fill-rule="evenodd" clip-rule="evenodd" fill="#FFFFFF" d="M109.967,119.916l-8.214,3.143l-4.082,0.334l-4.433-1.056
		l2.02,1.248l-2.204,0.192l-8.631-0.167l3.756,1.991l13.965,8.115l-18.347-4.182l-6.265-0.042l-4.871-3.553l-1.949-2.784
		c0.23-4.273,5.614-5.638,11.97-6.218l-2.321,4.345l7.842-7.008l5.313-4.198l3.013-1.031l-1.949,2.976l4.687-3.723l4.153,0.242
		l5.288,1.486l9.328-1.294l-4.708,4.224l6.306-0.839l-13.731,5.493l8.418-1.031"/>
	<path fill-rule="evenodd" clip-rule="evenodd" fill="#FFFFFF" d="M148.988,57.658c1.085,0.96,1.344,2.233,0.576,2.83
		c-0.769,0.576-2.271,0.267-3.364-0.693c-1.094-0.985-1.369-2.258-0.601-2.859C146.367,56.36,147.869,56.673,148.988,57.658"/>
</g>
</svg>
