<?xml version="1.0" encoding="utf-8"?>
<!-- Generator: Adobe Illustrator 14.0.0, SVG Export Plug-In . SVG Version: 6.00 Build 43363)  -->
<!DOCTYPE svg PUBLIC "-//W3C//DTD SVG 1.1//EN" "http://www.w3.org/Graphics/SVG/1.1/DTD/svg11.dtd">
<svg version="1.1" id="Layer_1" xmlns="http://www.w3.org/2000/svg" xmlns:xlink="http://www.w3.org/1999/xlink" x="0px" y="0px"
	 width="250px" height="154px" viewBox="0 0 250 154" enable-background="new 0 0 250 154" xml:space="preserve">
<g>
	<path fill-rule="evenodd" clip-rule="evenodd" fill="#B1B6BD" d="M244.731,116.48c-1.633-6.108-6.603-8.028-10.991-11.29
		c-1.562-1.155-3.026-2.688-4.395-4.073c-0.381-0.403-0.646-0.997-1.104-1.329c-0.022-7.002-2.976-10.888-5.905-14.96
		c-4.918-6.831-12.046-12.782-19.245-17.315c-2.282-1.442-4.731-2.672-7.035-4.072c-0.716-0.433-1.484-0.62-2.252-1.026
		c-2.114-1.097-4.44-2.194-6.699-3.146c-0.574-0.246-3.672-1.171-3.862-1.417c-0.049-0.346-0.074-0.694-0.12-1.026
		c-0.193-1.052-0.406-2.107-0.6-3.163c-0.891-2.888-1.753-5.66-3.266-7.941c-1.917-2.875-4.56-5.199-7.535-7.019
		c-1.271-0.781-2.688-1.155-3.959-1.937c-2.401-1.458-4.992-2.813-7.441-4.172c-6.528-3.64-12.721-7.638-19.226-11.207
		c-1.439-0.765-5.854-3.017-7.751-1.716c-1.127,0.765-0.91,3.233-0.407,4.576c1.271,3.44,3.646,5.921,5.183,9.055
		c-1.942-0.794-3.885-1.401-5.589-2.44c-1.368-0.835-2.595-1.891-3.866-2.846c-0.718-0.549-1.391-1.43-1.942-2.149
		c-0.671-0.665-1.344-1.346-2.04-2.036c-0.936-1.242-2.063-2.252-3.168-3.353c-0.408-0.445-0.792-0.881-1.223-1.326
		c-1.32-0.998-2.496-2.198-3.864-3.15c-3.648-2.584-7.704-5.053-12.001-6.931c-2.472-1.084-4.871-1.472-7.727-2.239
		c-1.393-0.362-3.672-0.461-4.992,0c-1.633,0.548-2.544,1.329-2.544,3.465c0,0.549-0.024,1.101,0.192,1.417
		c0.168,0.868,2.353,2.123,3.048,2.655c0.792,0.594,1.463,1.446,2.231,2.023c1.584,1.197,3.385,2.743,4.489,4.389
		c-2.496-1.297-5.208-2.54-7.945-3.666c-2.783-1.142-5.855-1.807-8.735-2.746c-3.793-1.226-7.801-1.646-11.736-2.655
		c-3.096-0.781-6.433-0.607-9.648-1.33c-1.368-0.287-2.832-0.013-4.081-0.287h-2.351c-1.176-0.274-2.904-0.116-4.272-0.116
		c-1.465,0-3.288-0.158-4.584,0.116H41.5c-1.441,0.303-4.513,0.2-5.903-0.116c-0.984-0.071-1.969-0.129-2.977-0.188
		c-2.88-0.681-5.784-1.213-8.327-2.152c-2.136-0.781-4.561-1.371-6-2.846c-0.72,0-0.912,0.161-1.344,0.419
		c-0.625,2.572,0.479,4.766,1.439,6.615c2.617,4.996,5.521,7.206,10.584,9.774c3.553,1.778,7.439,3.295,11.304,4.882
		c1.081,0.449,2.136,0.549,3.264,0.91c3.025,0.997,6.312,1.949,9.361,2.959c4.368,1.446,8.808,2.327,12.935,4.072
		c6.457,2.73,12.409,5.938,17.617,9.877c0.887,0.681,1.367,1.749,2.134,2.543c0,0.291,0,0.548-0.095,0.723
		c-0.36,0.968-1.393,1.01-2.448,1.313c-2.209,0.606-6,0.839-8.448,0.203c-4.681-1.229-7.801-3.74-11.809-5.489
		c-3.551-1.559-7.199-2.743-11.208-3.885c-2.448-0.678-5.231-0.648-7.751-1.213c-1.92-0.432-3.937,0.377-4.248,1.633
		c-0.673,0.926,0.12,2.385,0.503,2.946c1.344,1.978,4.656,3.22,6.696,4.579c6.673,4.447,10.897,11.178,17.425,15.783
		c0.96,0.678,1.944,1.503,2.975,2.136c0.816,0.522,1.657,0.81,2.521,1.33c0.527,0.303,1.057,0.751,1.728,0.91
		c-0.576,0.449-1.752,0-2.64,0.204c-1.393,0.316-4.513,0.1-5.904-0.204c-0.938-0.058-1.897-0.129-2.857-0.203
		c-2.543-0.403-5.087-0.823-7.631-1.21c-7.128-1.995-14.352-3.382-21.288-5.505c-0.792-0.171-1.631-0.345-2.448-0.52
		c-2.88-0.865-9.216-2.727-10.489,0.723c-0.912,2.527,1.273,4.505,2.473,5.402c0.888,0.665,1.751,1.517,2.735,2.136
		c3.601,2.282,7.585,3.843,11.712,5.589c7.68,3.262,16.033,5.805,24.121,8.767c4.896,1.788,9.984,2.801,14.663,4.779
		c4.8,2.036,9.24,4.521,13.345,7.234c1.896,1.256,3.697,2.439,5.496,3.77c0.6,0.433,1.128,1.068,1.728,1.517
		c0.936,0.706,2.161,1.413,2.856,2.339c-5.039-2.426-10.463-4.23-16.199-6.108c-2.255-0.723-4.681-0.938-7.009-1.517
		c-0.647-0.074-1.295-0.129-1.944-0.203c-2.088-0.503-7.199-1.026-9.671-0.503c-1.176,0.229-2.16-0.059-3.264,0.2
		c-2.087,0.49-4.104,0.852-5.905,1.633c-1.487,0.648-2.88,1.861-4.487,2.339c-0.72,0.217-1.295,0.087-2.041,0.304
		c-1.32,0.403-2.856,0.91-3.959,1.633c-0.432,0.258-1.2,0.807-1.512,1.213c-0.289,0.346-0.552,1.01-0.936,1.227
		c-0.841,0.087-1.704,0.203-2.544,0.303c-2.399,0.636-6.193,2.382-5.087,6.009c0.527,1.704,2.519,2.556,3.863,3.466
		c2.593,1.704,5.376,3.35,8.041,4.982c1.199,0.72,2.472,1.097,3.671,1.833c3.48,2.107,7.296,3.595,10.992,5.485
		c11.185,5.779,23.592,9.923,36.361,14.153c3.313,1.113,6.815,1.704,10.176,2.659c1.08,0.303,1.969,0.229,3.048,0.52
		c5.425,1.371,14.376,2.194,19.465,0c3.55-1.546,5.88-5.473,5.806-10.601c1.274,0.158,2.833,0.316,4.179,0.619
		c1.126,0.246,3.188,0.104,4.149-0.112c0.888-0.029,1.774-0.059,2.665-0.104c2.208-0.503,4.512-0.577,6.503-1.313
		c1.055-0.403,2.353-0.91,3.262-1.529c0.626-0.42,1.107-1.126,1.73-1.533c0.671-0.419,2.784-0.145,3.984-0.403
		c1.656-0.361,5.328-0.232,6.912,0.101c1.417,0.303,2.976,0.016,4.27,0.303c0.723,0.029,1.442,0.074,2.136,0.104
		c2.427,0.549,4.776,0.69,6.818,1.529c3.889,1.575,6.264,3.812,9.384,6.009c3.24,2.266,6.313,4.534,9.459,6.828
		c3.355,2.397,5.924,5.144,10.391,6.516c1.104,0.332,3.288,0.748,4.895,0.403c1.081-0.246,2.379-0.403,3.263-0.923
		c1.42-0.853,2.427-2.124,3.556-3.25c1.127-1.097,2.305-2.094,3.263-3.365c0.601-0.565,1.223-1.143,1.823-1.733
		c1.584-2.081,3.743-3.74,5.305-5.805c0.601-0.794,1.343-1.459,1.943-2.224c0.264-0.391,0.503-0.968,0.913-1.229
		c0.79-0.562,1.606-0.865,2.326-1.43c0.816-0.606,1.323-1.774,2.162-2.339c1.316-0.91,2.904-1.488,3.862-2.743
		C244.492,122.432,245.499,119.327,244.731,116.48 M42.939,54.689c1.249-3.292-1.223-6.367-2.856-7.538
		c-2.808-1.965-6.336-2.381-10.104-3.466c-4.513-1.284-9.24-1.994-13.632-3.453c-1.92-0.648-4.008-1.155-5.904-1.933
		c-1.32-0.565-2.544-1.285-4.488-1.229c-0.265,0.19-0.625,0.232-0.792,0.506c-0.503,0.794,0.289,2.194,0.6,2.656
		c1.152,1.72,3.024,3.033,4.584,4.376c1.512,1.287,3.264,2.268,4.968,3.365c5.4,3.395,11.136,5.951,17.64,8.348
		C36.292,57.548,41.619,58.097,42.939,54.689z"/>
	<path fill-rule="evenodd" clip-rule="evenodd" fill="#4274A6" d="M36.1,53.895c1.344,0.316,2.904-0.174,3.168-1.026
		c0.479-0.665,0.071-1.733-0.216-2.224c-0.936-1.662-2.833-2.152-4.681-2.959c-5.208-2.281-11.615-2.917-17.208-4.782
		c-1.801-0.62-3.601-1.226-5.4-1.846c-0.865-0.361-1.849-1.101-2.855-1.213c0.239,0.636,1.031,0.952,1.536,1.313
		c1.175,0.865,2.304,1.717,3.576,2.556c5.016,3.35,10.44,6.196,16.393,8.664C32.187,53.102,34.084,53.434,36.1,53.895"/>
	<path fill-rule="evenodd" clip-rule="evenodd" fill="#FFFFFF" d="M23.379,47.28c-1.415-0.62-3.191-1.155-4.271-2.149
		c1.774,0.433,3.6,1.081,5.279,1.646c1.872,0.59,3.648,0.807,5.496,1.413c2.474,0.823,4.945,1.791,7.057,2.962
		c0.047,0.171,0,0.1,0.095,0.2v0.506c-1.799,0.419-3.624-0.461-5.111-1.026c-1.728-0.649-3.313-1.11-4.992-1.833
		C25.78,48.509,24.531,47.774,23.379,47.28"/>
	<path fill-rule="evenodd" clip-rule="evenodd" fill="#FFFFFF" d="M176.953,54.402c-2.277-3.107-5.446-7.122-8.59-9.345
		c-2.952-2.078-5.834-2.456-8.929-4.347c-1.92-1.184-4.992-4.779-6.863-5.934c-1.007-0.607-2.568-0.303-3.408-1.055
		c-0.265,0-1.562,1.92-1.703,2.007c-0.433,0.623-1.801,2.514-2.017,3.395c-0.265,1.226-0.697,0.665-1.585,1.271
		c-0.91,0.619-0.503,1.571-2.33,1.168c-1.174-0.2-2.565-2.236-3.717-2.439c-1.827-0.549-2.763,0.087-4.247-0.752
		c-8.256-4.55-12.601-11.22-19.945-16.651c-0.576-0.433-1.415-2.311-2.015-2.743c-1.249-0.939-2.448-0.649-3.792-1.488
		c-0.697-0.432-2.257-1.126-3.313-1.168c0.095,1.068,1.417,3.32,1.92,4.027c1.128,1.575,1.536,3.237,2.664,4.766
		c1.896,2.627,4.824,5.951,7.296,11.582c1.152,2.601,2.28,3.017,3.721,5.286c0.552,0.865-0.505,0.361,0.311,0.952
		c-2.136-1.068-1.225-2.078-3.167-3.379c-5.497-3.653-10.729-7.276-16.344-10.713c-4.968-3.049-11.736-6.27-17.401-8.593
		c-2.832-1.171-5.831-0.852-8.784-1.82c-3.936-1.271-8.28-1.978-12.528-2.959c-1.512-0.349-4.081,0-5.52-0.303
		c-2.977-0.146-5.184-0.204-8.161-0.333h-3.191c-2.207,0-3.575,0.245-5.616-0.219c-1.007-0.216-5.184,1.545-5.928,1.071
		l-0.311,1.168c0.287,0.578,6.431,2.962,7.199,3.279c2.904,1.197,6.241,1.791,9.121,2.975c1.008,0.403,2.063,0.752,3.072,1.168
		c4.032,1.649,8.159,2.385,12.312,3.931c1.247,0.461,2.375,1.616,3.6,2.107c4.392,1.804,8.616,3.35,12.84,5.199
		c5.113,2.252,8.569,2.426,11.328,7.005c1.441,2.353,0.865,4.779-0.625,7.206c-1.847,3.03-2.135,3.911-5.928,4.982
		c-1.007,0.287-2.207,0.823-3.288,1.068c-0.96,0.216-3.887,0.158-5.087-0.116c-5.736-1.255-9.936-2.152-14.208-4.766
		c-1.344-0.807-5.16-2.627-6.049-3.711l-1.271,1.691c0.36,1.297,5.16,5.702,6.144,6.686c2.256,2.281,4.8,3.798,7.632,5.515
		c3.432,2.082,7.777,3.121,11.88,4.463c2.281,0.506,2.928,0.448,5.208,0.952c0.936,0.246,1.536-0.474,2.328,0l0.528,0.304
		c-0.815,0.548-1.68,0.723-2.448,1.287c-1.56,1.155-3.288,0.578-4.968,1.601c-1.201,0.71-1.512,1.346-2.88,1.895
		c-5.688,2.352-13.776,2.917-20.688,1.168c-2.328-0.59-4.296-0.665-6.457-1.271c-0.671-0.187-6.407-1.139-6.912-1.487l1.92,2.859
		l3.193,1.171c1.583,0.158,3.84,1.255,5.303,1.704c2.953,0.894,5.281,1.994,8.161,2.859c2.015,0.606,3.648,0.853,5.615,1.475
		c8.448,2.743,17.353,5.615,24.192,9.878c4.297,2.655,6.217,4.027,3.169,1.92c-1.176-0.839,2.16,2.759,3.288,3.595
		c0.839,0.594,2.231-2.976,2.832-2.136h0.192c-0.192-0.84-1.08-3.379-1.512-3.973c-0.311-0.403-1.008-0.606-1.44-0.923
		c-1.32-0.939-2.711-1.749-4.176-2.63c-2.975-1.833-6.336-3.278-9.768-4.692c-1.847-0.765-3.767-0.983-5.711-1.616
		c-1.872-0.636-3.888-0.984-5.881-1.633c-0.936-0.303-1.967-0.765-3.072-0.823v-0.204c8.28-0.071,14.162-3.278,19.032-6.831
		c1.225-0.852,4.849-3.25,3.769-5.183c-1.657-0.681-3.769-0.536-5.689-1.026c-3.624-0.91-7.439-1.213-10.896-2.339
		c-3.24-1.055-6.312-2.194-8.952-3.869c-1.465-0.926-2.736-2.269-4.177-3.149v-0.116c2.664,1.301,5.232,2.688,8.234,3.682
		c1.583,0.522,3.335,0.636,4.992,1.013h1.031c1.968,0.445,5.16,0.345,7.009-0.103c1.223-0.288,2.255-0.246,3.383-0.607
		c3.768-1.239,7.223-3.233,8.737-6.715c0.36-0.807,0.503-1.774,0.72-2.655V47.7c0.287-1.285,0.048-3.263-0.313-4.389
		c-1.68-5.186-5.975-7.525-10.488-9.865c-8.543-4.463-18.792-6.915-28.608-10.194c-2.185-0.723-4.56-1.503-6.72-2.239
		c-0.936-0.316-1.704-0.361-2.639-0.723c-1.441-0.52-3.169-1.458-4.8-1.617c0.408-0.245,4.008,0.013,4.896,0.1
		c4.44,0.407,9.216,0.274,13.224,1.229c1.584,0.361,2.953,0.216,4.489,0.607c3.672,0.939,7.344,1.5,10.8,2.643
		c11.496,3.811,20.807,9.284,29.928,15.379c3.935,2.614,7.848,5.357,11.712,8.042c1.344,0.955,3.167,1.678,4.8,0.607
		c0.479-2.511-2.401-5.212-3.48-6.815c-1.2-1.82-2.376-4.001-3.264-6.008c-0.433-1.039-0.744-2.02-1.32-2.959
		c-1.104-1.833-2.448-3.495-3.648-5.186c-0.816-1.11-1.633-2.685-2.761-3.466v-0.113c1.32,0.707,2.209,2.007,3.361,2.872
		c2.951,2.223,5.208,5.386,7.439,8.348c0.6,0.562,1.225,1.155,1.825,1.732c3.816,3.798,8.446,6.628,13.845,8.839
		c3.505,1.442,10.655,1.92,12.721-1.113c0.529-0.765,1.343-3.395,0.529-4.579v-0.303c0.742,0.245,1.32,0.839,1.92,1.213
		c1.85,1.171,3.695,2.326,5.496,3.465c6.744,4.247,12.937,7.567,16.393,15.18c1.297,0.49,3.575,0.765,4.582,1.517h0.219
		C178.729,58.429,177.89,55.67,176.953,54.402"/>
	<path fill-rule="evenodd" clip-rule="evenodd" fill="#FFFFFF" d="M136.708,119.372c-3.362-0.797-5.596-2.081-7.945-3.772
		c-0.501-0.374-1.079-0.604-1.438-1.109h-0.385c0.192,0.765,0.72,1.458,1.009,2.136c0.119,0.262,0.024,0.594,0.216,0.81
		c0.477,0.62,2.013,3.495,2.758,3.943c3.288,1.991,8.761,2.266,12.672-0.058c0.026-0.074-0.72-1.371-0.671-1.445
		c-0.481-0.217-1.007-0.649-1.439-0.808C140.212,119.298,138.314,119.76,136.708,119.372"/>
	<path fill-rule="evenodd" clip-rule="evenodd" fill="#4274A6" d="M179.477,59.904c-0.148-0.378,0-1.026-0.097-1.533
		c-0.219-1.313-0.409-2.627-0.626-3.957c-0.887-3.204-2.065-5.992-3.769-8.361c-2.949-4.101-7.945-5.95-12.527-8.448
		c-5.854-3.205-11.662-6.715-17.303-10.181c-2.064-1.271-4.249-2.339-6.312-3.565c-0.697-0.407-1.61-0.449-2.232-0.91
		c-0.291,0-0.433,0.042-0.627,0.087c0.052,1.646,1.155,2.698,1.85,3.769c1.055,1.704,1.875,3.392,2.833,5.199
		c0.358,0.69,1.655,2.814,0.816,3.869c-0.122,0.361-0.313,0.361-0.503,0.606c-4.563,0.303-8.713-2.239-11.617-4.072
		c-2.351-1.488-4.536-3.191-6.191-5.402c-0.36-0.303-0.697-0.606-1.033-0.91c-0.768-1.023-1.655-1.849-2.544-2.743
		c-0.167-0.174-0.239-0.478-0.408-0.62c-3.792-3.22-7.583-6.328-12.215-8.751c-3.12-1.62-6.336-3.062-9.984-4.175
		c-1.225-0.391-3.672-0.578-4.056,0.606h-0.12c0.287,0.794,1.488,1.359,2.136,1.836c0.984,0.735,1.799,1.816,2.759,2.54
		c0.84,0.636,1.825,1.429,2.449,2.252c0.814,1.097,1.847,2.053,2.64,3.15c1.463,1.978,2.783,4.114,4.08,6.208
		c0.768,1.258,1.463,2.614,2.135,3.885c0.361,0.677,0.553,1.646,1.105,2.123v0.216c-1.152-0.752-2.041-1.849-3.145-2.656
		c-2.255-1.678-4.511-3.466-6.912-4.999c-4.727-2.959-10.224-4.995-15.984-6.915c-4.343-1.446-9-2.082-13.559-3.266
		c-1.849-0.475-3.792-0.491-5.592-0.91c-2.785-0.274-5.568-0.532-8.329-0.807c-0.671-0.146-1.607,0.013-2.159-0.104h-4.585
		c-2.711,0.029-5.423,0.058-8.135,0.104c-1.249,0-2.472,0.229-3.577,0c-1.415-0.045-2.855-0.074-4.271-0.104
		c-3.001-0.677-5.833-0.852-8.448-1.733c-1.368-0.461-2.736-1.052-4.081-1.629c-0.432-0.19-0.719-0.536-1.319-0.623
		c0.263,2.052,1.752,3.511,2.951,4.695c3.434,3.42,7.945,5.399,12.817,7.435c13.535,5.618,29.976,8.145,41.856,15.366
		c3.743,2.282,10.055,5.27,11.207,9.877c0.457,1.849-0.982,3.034-1.847,3.669c-0.36,0.274-0.768,0.707-1.201,0.923
		c-2.015,0.91-7.751,2.052-10.896,1.313c-1.776-0.403-3.553-0.665-5.089-1.313c-2.878-1.227-5.398-3.018-8.256-4.289
		c-2.423-1.055-4.968-1.995-7.535-2.846c-1.032-0.345-1.92-0.375-2.952-0.707c-2.064-0.677-5.208-1.575-7.753-1.529
		c0.337,0.648,2.185,1.4,2.857,1.833c2.256,1.417,4.416,3.091,6.528,4.679c0.192,0.246,0.406,0.478,0.598,0.707
		c1.969,1.503,3.818,3.523,5.305,5.501c0.72,0.956,2.375,2.427,3.359,3.163c1.225,0.926,2.304,2.168,3.553,3.049
		c3.072,2.166,6.288,3.827,9.984,5.398c2.161,0.91,4.752,1.995,7.44,2.24v0.1c-1.344,0.377-2.783,1.071-4.176,1.533
		c-1.776,0.578-3.745,0.59-5.617,1.01c-0.768,0.042-1.56,0.071-2.328,0.116c-0.695,0.146-1.823-0.087-2.64,0.1
		c-1.32,0.303-4.513,0.087-5.808-0.216h-1.223c-2.017-0.461-4.177-0.316-6.217-0.81c-4.343-1.052-8.737-1.517-12.815-2.843
		c-3.745-1.229-7.801-2.036-11.496-3.266c-0.841-0.258-1.536-0.245-2.353-0.503c-1.633-0.536-4.489-1.545-6.312-1.329
		c-0.889,1.978,2.472,3.32,3.648,4.085c5.136,3.179,11.304,4.898,17.208,7.309c7.393,3.033,15.409,5.227,23.016,8.057
		c4.08,1.517,8.136,2.602,11.904,4.276c6,2.626,11.401,6.295,16.417,9.978c1.2,0.896,2.255,2.064,3.456,2.946
		c1.512,1.142,2.783,2.439,4.272,3.565c0.406,0.448,0.814,0.881,1.223,1.329c1.081,0.823,3.024,2.556,3.769,3.653h0.192
		c-0.169-3.466-1.176-6.799-2.136-9.661c-0.408-1.211-0.649-3.163-1.32-4.073c-0.146-0.606-1.682-1.458-2.353-1.933
		c-1.296-0.984-2.617-2.11-3.961-3.063c-1.175-0.81-2.448-1.371-3.671-2.136c-6.984-4.363-16.273-6.212-24.84-9.071
		c-1.993-0.649-3.984-0.765-6-1.414c-2.856-0.91-5.928-1.3-8.856-2.252c-1.512-0.464-3.335-1.155-4.992-1.316
		c0.359-0.187,0.936,0.103,1.32,0.203c1.32,0.361,2.641,0.491,3.864,0.81c2.353,0.636,4.824,0.765,7.153,1.326
		c0.96,0.116,1.968,0.204,2.928,0.319c1.055,0.229,4.463,0.607,5.809,0.304c1.75-0.407,3.624-0.188,5.279-0.623
		c3.216-0.823,6.217-1.529,8.976-2.743c2.136-0.952,4.008-2.514,5.808-3.869c0.744-0.565,1.32-1.417,2.136-1.923
		c-0.457-0.329-1.079-0.158-1.728-0.316c-1.368-0.333-2.856-0.42-4.296-0.823c-4.608-1.284-9.144-2.281-13.224-4.072
		c-4.248-1.849-7.729-4.476-10.8-7.525c-0.936-0.952-2.04-1.991-2.832-3.059c-0.408-0.52-0.695-1.155-1.225-1.533v-0.188
		c4.945,2.976,9.865,6.038,15.889,8.045c1.223,0.419,2.52,0.49,3.864,0.807c1.463,0.333,5.184-0.042,6.312-0.303
		c1.655-0.403,3.047-0.433,4.464-1.023c3.911-1.604,9.359-6.37,6.839-12.521c-2.448-5.979-8.713-8.435-14.568-10.991
		c-3.913-1.717-8.161-3.221-12.217-4.896c-2.447-0.997-4.895-1.5-7.415-2.339c-4.008-1.33-8.184-2.701-12.048-4.275
		c-2.809-1.155-5.713-1.933-8.448-3.059c-1.273-0.523-2.88-0.652-3.961-1.43h-0.216v-0.104c0.84,0.045,1.705,0.246,2.449,0.42
		c0.839,0.187,1.872,0.029,2.664,0.203c2.664,0.029,5.352,0.071,8.04,0.084c1.631,0.377,3.696-0.158,5.376,0.219
		c1.079,0.229,2.399-0.058,3.575,0.2c0.744,0.161,1.681,0.016,2.569,0.203c2.568,0.578,5.232,0.478,7.704,1.126
		c3.359,0.839,6.792,1.371,9.984,2.439c5.041,1.662,9.912,3.482,14.473,5.502c1.583,0.71,3.216,1.242,4.679,2.139
		c1.728,1.039,3.577,1.962,5.281,3.03c2.472,1.575,4.776,3.453,7.151,5.099c1.392,0.997,2.857,1.778,4.272,2.759
		c1.344,0.952,2.76,2.065,4.175,2.959c1.057,0.665,3.337,1.762,4.056,2.643h0.216c-0.216-0.62-0.72-1.023-1.031-1.53
		c-0.914-1.471-1.752-3.004-2.642-4.476c-1.079-2.281-2.183-4.55-3.24-6.818c-1.512-2.469-3.215-4.821-4.895-7.132
		c-1.417-1.923-3.072-3.656-4.489-5.605c-0.576-0.777-1.631-1.545-1.728-2.759c1.225,0.087,2.04,0.91,2.856,1.433
		c1.993,1.313,3.721,2.801,5.592,4.185c3.553,2.643,6.792,6.025,9.48,9.562c0.384,0.52,1.007,0.939,1.512,1.33l1.344,1.429
		c1.417,1.081,2.687,2.208,4.148,3.263c1.49,1.039,3.026,2.269,4.802,3.046c2.568,1.113,9.815,2.946,12.816,0.926
		c1.536-1.039,1.607-3.133,1.749-5.618c0.026-0.029,0.052-0.071,0.097-0.087c1.201,0.071,2.018,1.01,2.859,1.53
		c1.678,1.026,3.431,1.936,5.086,2.933c3.098,1.907,6.289,3.466,9.361,5.402c1.438,0.923,2.714,2.136,4.082,3.162
		c0.884,0.691,2.039,2.02,2.732,2.959c1.011,1.33,2.401,2.469,3.359,3.856c0.723,1.01,1.271,2.311,2.137,3.162v0.204H179.477"/>
	<path fill-rule="evenodd" clip-rule="evenodd" fill="#4274A6" d="M47.308,71.817c0.168,0.071,0.095,0.029,0.192,0.1
		C47.332,71.846,47.403,71.904,47.308,71.817"/>
	<path fill-rule="evenodd" clip-rule="evenodd" fill="#4274A6" d="M47.716,71.917h0.287C47.835,72.004,47.908,72.004,47.716,71.917"
		/>
	<path fill-rule="evenodd" clip-rule="evenodd" fill="#4274A6" d="M48.123,72.018h0.313C48.268,72.104,48.292,72.104,48.123,72.018"
		/>
	<path fill-rule="evenodd" clip-rule="evenodd" fill="#4274A6" d="M48.531,72.121h0.289C48.652,72.208,48.699,72.208,48.531,72.121"
		/>
	<path fill-rule="evenodd" clip-rule="evenodd" fill="#4274A6" d="M36.315,16.434c0.168,0.058,0.095,0.016,0.192,0.087
		C36.34,16.463,36.411,16.508,36.315,16.434"/>
	<path fill-rule="evenodd" clip-rule="evenodd" fill="#4274A6" d="M142.923,119.76c-0.433,0.161-0.671,0.52-1.033,0.723
		c-0.6,0.349-1.535,0.535-2.232,0.706c-3.191,0.798-7.177-1.139-8.975-2.235c-0.79-0.491-1.849-0.794-2.421-1.533h-0.219
		c0.742,2.946,2.301,5.921,2.256,9.574c0.936,0.087,1.729,0.564,2.543,0.826c1.297,0.416,2.711,0.503,4.057,0.807h1.126
		c3.388,0.752,9.555-0.462,11.907-1.313c1.969-0.723,4.176-1.371,4.485-3.669c-3.188-0.274-6.335-1.546-8.854-2.655
		C144.652,120.582,143.594,120.396,142.923,119.76"/>
	<path fill="#FFFFFF" d="M87.964,108.888c-2.088-1.388-4.272-2.397-6.552-3.365c-3.959-1.72-8.28-2.963-12.84-4.247l-0.503-0.145
		c-1.081-0.304-2.089-0.433-3.169-0.562c-0.887-0.116-1.799-0.232-2.761-0.462c-0.671-0.146-1.463-0.232-2.207-0.303
		c-0.72-0.074-1.488-0.162-2.185-0.304v-0.017h-0.024h-1.75l0.047,0.017c-0.647-0.146-1.152-0.19-1.512-0.104l-0.287,0.074
		c-1.465,0.304-2.929,0.648-4.129,1.271c-0.24,0.113-0.455,0.287-0.695,0.462c-0.265,0.2-0.576,0.432-0.912,0.532l-0.146,0.058
		v0.146v0.316v0.232l0.241-0.029c1.344-0.158,2.904-0.49,3.983-0.723l-0.047,0.016h2.135c2.544,0,4.8,0.042,6.792,0.504
		c0.768,0.174,1.512,0.262,2.231,0.332c0.768,0.074,1.536,0.161,2.328,0.378l3.456,0.923c3.816,1.01,7.417,1.949,10.776,3.35
		c1.057,0.419,2.088,0.794,3.121,1.171c1.127,0.42,2.231,0.807,3.312,1.271c0.312,0.129,0.671,0.245,1.009,0.346
		c0.599,0.187,1.247,0.374,1.679,0.735l0.049,0.045H89.5h0.289H90.1l-0.12-0.29c-0.216-0.619-0.889-0.981-1.465-1.313
		C88.324,109.104,88.131,108.988,87.964,108.888"/>
	<path fill="#FFFFFF" d="M86.044,118.172c-2.521-1.775-5.112-3.25-7.992-4.505c-0.529-0.245-1.128-0.549-1.681-0.839
		c-0.576-0.316-1.199-0.648-1.775-0.894c-1.321-0.578-2.688-1.113-4.032-1.617c-0.936-0.361-1.944-0.739-2.88-1.129
		c-2.857-1.182-5.976-2.008-8.977-2.814c-1.176-0.303-2.399-0.623-3.575-0.968c-2.064-0.591-4.176-0.81-6.385-1.026
		c-1.32-0.142-2.64-0.287-4.032-0.503l-0.071-0.017l-0.097,0.045c-0.167,0.143-0.457,0.188-0.768,0.246
		c-0.216,0.013-0.479,0.058-0.695,0.142c-1.249,0.465-2.977,1.101-3.937,1.965l0.144-0.042h-0.095h-0.216v0.2v0.319v0.287
		l0.265-0.087c3.215-1.126,10.487-0.158,13.632,0.71c0.96,0.258,1.967,0.49,2.927,0.72c1.489,0.361,3.025,0.723,4.489,1.213
		c7.296,2.443,13.68,4.866,19.536,7.438l5.857,2.571l0.144,0.059c0.265,0.113,0.576,0.229,0.84,0.329
		c0.601,0.203,1.152,0.406,1.561,0.768l0.047,0.042h0.097h0.192h0.312l-0.12-0.273c-0.289-0.84-1.225-1.417-2.039-1.921
		C86.476,118.446,86.236,118.301,86.044,118.172"/>
	<path fill-rule="evenodd" clip-rule="evenodd" fill="#231F20" d="M240.026,113.954c-1.342-1.862-4.224-3.278-6.215-4.592
		c-1.227-0.836-2.278-1.962-3.434-2.859c-1.968-1.458-4.03-3.378-5.305-5.485c-0.574-0.939,0.074-1.981-0.213-3.266
		c-0.239-1.097-0.388-2.252-0.816-3.249c-1.514-3.725-3.84-6.687-6.096-9.675c-0.504-0.507-1.033-1.026-1.536-1.532
		c-1.897-2.498-4.705-4.925-7.225-6.815c-2.882-2.166-5.641-4.563-8.762-6.512c-7.751-4.895-16.296-8.435-25.873-11.61
		c-2.853-0.955-5.782-1.184-8.854-2.036c-3.624-1.026-7.609-1.704-11.281-2.743c-1.727-0.494-3.285-0.552-4.989-1.026
		c-4.634-1.3-9.145-2.469-13.249-4.275c-0.839-0.375-1.92-0.836-2.736-1.313c-0.962-0.607-1.991-1.559-3.479-1.546
		c-0.336,0.852,0.022,1.646,0.31,2.356c0.723,1.704,1.394,3.146,2.232,4.676c0.265,0.478,1.343,1.533,1.033,2.139
		c-0.433,0.778-2.833,0.549-3.866,0.303c-1.844-0.406-6.789-1.329-8.95-0.723c-0.647,0.187-1.079,0.606-1.536,0.939
		c-0.192,0.894-0.263,2.094-0.719,2.743c-1.823,2.526-9.384,3.075-13.535,2.036c-1.057-0.258-5.281-1.301-6.312-0.62
		c-0.097,0.042-0.216,0.071-0.313,0.116c0.097,1.5,2.809,2.917,3.864,3.653c1.847,1.3,3.672,2.73,5.495,4.072
		c0.408,0.403,0.816,0.823,1.225,1.213c1.32,0.997,2.856,2.426,2.761,4.492c-0.24,0.3-0.481,0.604-0.721,0.923
		c-1.872,1.372-5.975,1.907-8.976,1.213c-1.008-0.232-2.304-0.145-3.048-0.723h-0.192c0.408,1.445,2.977,3.582,3.959,4.695
		c1.897,2.12,4.032,4.085,6.313,5.806c1.823,1.371,3.359,3.088,5.207,4.476c1.392,1.068,2.809,3.033,3.864,4.491
		c0.673,0.91,1.584,1.791,2.233,2.743c1.583,2.224,3,4.476,4.584,6.715c5.997,8.535,13.438,15.813,24.333,19.452
		c1.755,0.578,3.407,0.723,5.305,1.227c0.697,0.174,1.826,0.594,2.736,0.406c1.872-0.406,4.104-0.406,6.435-0.406h2.229
		c2.759,0.203,5.496,0.406,8.258,0.606c1.294,0.188,2.64,0.406,3.96,0.623c1.894,0.503,3.791,1.067,5.495,1.819
		c3.023,1.313,5.305,3.524,7.848,5.286c4.201,2.972,8.209,5.935,12.313,8.968c2.159,1.587,6.145,5.589,10.585,4.592
		c3.117-0.71,4.246-2.614,6.118-4.492c2.185-2.182,4.537-4.347,6.408-6.831c0.646-0.636,1.297-1.284,1.942-1.92
		c0.839-1.127,1.924-2.05,2.736-3.163c0.361-0.461,0.672-1.213,1.13-1.529c0.72-0.507,1.559-0.71,2.233-1.213
		c0.813-0.594,1.391-1.937,2.136-2.456c1.343-0.91,3.021-1.358,3.885-2.743C242.305,119.198,241.156,115.487,240.026,113.954"/>
	<path fill-rule="evenodd" clip-rule="evenodd" fill="#B1B6BD" d="M184.033,88.394c0,0-1.606-1.458-2.232-1.732
		c-2.375-0.997-5.806-0.881-9.068-0.923c-1.2-0.017-2.904-0.274-4.06,0c-1.223,0.287-4.053-0.433-4.895,0.1h-0.217v-0.1
		c1.607-0.433,3.218-0.868,4.802-1.313c1.298-0.361,2.592-0.42,3.863-0.723c0.913-0.217,4.008-0.059,4.585-0.406
		c2.904,0,6.021,0.361,7.125,2.239C184.275,86.142,184.659,87.7,184.033,88.394"/>
	<path fill-rule="evenodd" clip-rule="evenodd" fill="#FFFFFF" d="M234.747,118.633c-0.794,0.565-2.878,0.436-3.981,0.724
		c-4.347,1.084-10.036,1.067-15.483,1.01c0.816-0.562,3.047-0.259,4.176-0.52c2.976-0.648,6.313-0.346,9.384-1.01
		c1.201-0.274,3.889,0.332,4.776-0.204H234.747"/>
	<path fill-rule="evenodd" clip-rule="evenodd" fill="#FFFFFF" d="M229.755,117.204c-4.943,1.2-12.12,0.028-17.519,0
		c0.549-0.375,1.536-0.029,2.35-0.188c1.777-0.403,4.082-0.245,5.905-0.433c0.864-0.074,2.784,0.158,3.362-0.203
		c3.355,0.016,6.741,0.116,9.958,0.116C232.995,117.059,230.907,116.93,229.755,117.204"/>
	<path fill-rule="evenodd" clip-rule="evenodd" fill="#B1B6BD" d="M202.875,91.14c0.217-1.071,0.358-2.326,0.504-3.365
		c0.768,0.374,1.248,1.862,1.752,2.556c0.742,1.056,1.846,1.92,2.64,2.946c0.529,0.735,1.175,1.529,1.92,2.036
		c-0.216,1.185-1.2,2.294-0.503,3.973c0.648,1.571,2.829,3.162,5.186,2.339c0.574-0.19,1.032-0.277,1.342-0.71
		c0.888,0.087,1.536,0.578,2.33,0.811c0.406,0.129,0.813,0,1.126,0.216h1.63c-0.262,0.723-1.148,1.284-1.727,1.72
		c-3.095,2.311-6.551,3.204-10.391,0.823c-2.688-1.662-4.295-3.886-5.305-7.234c-0.049-0.536-0.146-1.085-0.217-1.62
		C202.924,94.519,202.563,92.554,202.875,91.14"/>
	<path fill-rule="evenodd" clip-rule="evenodd" fill="#FFFFFF" d="M199.613,111.718c1.271,0.013,2.732,0.042,3.862,0.304
		c1.439,0.303,3.049,0.013,4.392,0.303h1.32c1.513,0.333,3.407,0.172,4.872,0.504c2.521,0.245,5.037,0.478,7.561,0.71
		c1.413,0.329,3.021,0.158,4.557,0.52c1.346,0.303,2.979,0.503,4.492,0.503c-0.433,0.262-1.704,0.116-2.356,0.104
		c-1.819-0.074-3.766-0.203-5.686-0.203c-5.879-0.017-12.407-0.507-17.303-1.733C203.859,112.354,200.643,112.366,199.613,111.718"
		/>
	<path fill-rule="evenodd" clip-rule="evenodd" fill="#FFFFFF" d="M228.842,128.511c-0.887,0.852-1.774,1.704-2.665,2.526
		c-2.229,2.991-4.653,6.457-8.132,8.161c-1.42,0.693-4.008,0.881-5.402,0c-1.994-1.271-4.201-5.431-4.991-8.045
		c-0.242-0.852-0.074-3.811-0.41-4.375c0-1.488-0.31-3.711,0.097-4.996c0.265-0.028,0.313-0.016,0.433-0.1
		c3.407,0.013,5.015,1.297,7.225,2.439c2.088,1.081,4.295,1.862,6.722,2.656c1.414,0.461,2.949,0.461,4.46,0.81
		c0.916,0.216,2.136-0.216,2.859,0.203h0.813C229.636,128.224,229.203,128.253,228.842,128.511"/>
	<path fill-rule="evenodd" clip-rule="evenodd" fill="#FFFFFF" d="M234.844,123.112c-3.071,0.661-6.722,1.039-9.864,1.833
		c-1.152,0.274-3.12,0.187-3.985,0.706h-0.31c0.549-0.432,1.51-0.361,2.252-0.59c2.021-0.665,4.299-1.155,6.409-1.749
		c0.626-0.158,1.42,0,1.923-0.304h3.575V123.112"/>
	<path fill-rule="evenodd" clip-rule="evenodd" fill="#FFFFFF" d="M231.075,121.883c-1.562,0.377-3.479,0.361-5.089,0.723
		c-0.597,0.029-1.223,0.059-1.823,0.1c-1.704,0.378-4.488,0.724-6.312,0.724c0.72-0.507,1.99-0.375,2.949-0.62
		c2.136-0.564,4.537-0.868,6.722-1.43c0.674-0.174,1.584,0.029,2.113-0.29c1.991,0,4.079-0.146,5.809,0.188
		C234.722,121.754,232.153,121.638,231.075,121.883"/>
	<path fill-rule="evenodd" clip-rule="evenodd" fill="#B1B6BD" d="M240.433,118.837c-0.07,0.52,0.074,1.025-0.093,1.429
		c-0.601,1.488-2.472,1.907-3.553,2.946h-0.12c1.823-4.592-0.409-8.605-1.92-11.913c0.816,0.273,1.395,0.968,2.04,1.429
		C238.394,113.896,240.917,116.02,240.433,118.837"/>
	<path fill-rule="evenodd" clip-rule="evenodd" fill="#231F20" d="M117.028,98.981c-2.112-2.904-4.992-6.615-7.825-8.768
		l-2.135-2.136c-1.513-1.127-2.928-2.253-4.488-3.35c-0.984-0.694-2.063-1.808-3.361-2.14c0.121,0.735,0.648,1.229,0.938,1.836
		c0.839,1.949,1.728,3.882,2.519,5.789c1.297,3.018,2.136,6.312,3.168,9.487c0.433,1.316,0.433,2.571,0.816,3.959
		c0.503,1.833,0.431,4.057,0.912,6.108c0.12,0.549,0.144,2.194-0.097,2.556c-0.047,0.059-1.967-1.171-2.351-1.429
		c-2.544-1.707-5.208-3.191-8.04-4.68c-5.905-3.091-12.385-5.228-19.44-7.234c-3.072-0.868-6.409-0.781-9.672-1.533h-1.752
		c-2.544-0.606-7.729,0.274-9.552,0.927c-0.865,0.303-1.847,0.374-2.447,0.91h-0.097v0.1c10.152,0.316,19.273,3.175,26.688,6.425
		c2.376,1.042,6.696,2.875,8.04,4.782c-6.047-2.846-12.648-4.753-19.368-6.932c-2.375-0.768-4.751-0.881-7.32-1.517
		c-3.048-0.768-9.744-1.4-13.248-0.52c-1.199,0.316-2.496,0.562-3.575,1.023c-0.601,0.274-1.08,0.881-1.704,1.126v0.188
		c5.592,0.028,11.063,1.487,15.479,2.962c3.048,1.01,5.976,1.662,8.856,2.846c2.928,1.227,5.928,2.64,8.759,3.869
		c1.346,0.606,2.617,1.068,3.864,1.833c1.513,0.939,3.12,1.82,4.585,2.859c0.768,0.549,1.415,1.416,2.231,1.936v0.204
		c-8.592-4.188-17.737-7.813-27.289-11.004c-2.88-0.969-5.879-1.504-8.856-2.34c-3.048-0.852-10.968-1.778-14.041-0.507
		c-0.624,0.245-1.008,0.707-1.439,1.113c0.192,0.965,3.359,2.585,4.271,3.163c4.249,2.685,8.737,5.023,13.345,7.435
		c11.855,6.166,24.552,11.452,38.088,15.986c4.511,1.503,9.168,2.542,13.849,3.872c1.319,0.374,2.519,0.345,3.862,0.706
		c5.041,1.359,14.954,2.382,18.938-0.506c4.317-3.146,2.613-14.974,0.719-19.652C125.764,111.153,121.516,105.09,117.028,98.981"/>
	<path fill-rule="evenodd" clip-rule="evenodd" fill="#FFFFFF" d="M205.034,90.401c0.097,0,0.216,0,0.313,0
		c0.72,1.229,1.85,2.455,2.856,3.466c0.48,0.478,1.368,0.938,1.536,1.72c-0.407,0.403-0.459,0.894-0.626,1.529
		c-0.694,2.614,1.562,4.23,3.459,4.679c1.655,0.391,2.517-0.678,3.452-1.01c0.578,0.507,3.124,0.894,3.389,1.313
		c-1.514,1.026-2.091,2.281-4.201,2.962c-2.449,0.778-4.992-0.29-6.409-1.229c-2.278-1.471-3.672-2.987-4.466-6.005
		c-0.045-0.552-0.071-1.084-0.116-1.62c-0.168-0.777-0.193-2.007,0-2.843C204.46,92.309,204.795,91.327,205.034,90.401"/>
	<path fill-rule="evenodd" clip-rule="evenodd" fill="#BF4361" d="M208.3,93.954c0.478,0.303,1.297,0.997,1.439,1.633
		c-0.407,0.403-0.459,0.894-0.626,1.529c-0.694,2.614,1.562,4.23,3.459,4.679c1.655,0.391,2.517-0.678,3.452-1.01
		c0.507,0.462,1.61,0.287,2.114,0.723c-1.104,1.068-2.327,1.92-4.127,2.323c-1.033,0.246-2.137-0.171-2.763-0.403
		c-2.278-0.822-5.324-3.395-4.272-7.019C207.267,95.441,207.818,94.689,208.3,93.954"/>
	<path fill-rule="evenodd" clip-rule="evenodd" fill="#B1B6BD" d="M212.33,122.59c0.119,0.058,0.216,0.115,0.313,0.203
		c-0.432,0.678-0.119,1.833-0.313,2.742c-0.406,1.808-0.597,3.943-0.623,5.909c0.049,0,0.071,0,0.119,0
		c0.336-0.507,0.914-0.752,1.417-1.113c1.391-1.026,2.688-2.353,4.079-3.366c0.529-0.403,1.2-0.69,1.633-1.226
		c0.574,0.203,1.151,0.403,1.729,0.622c-0.529,0.433-0.652,1.256-0.913,1.92c-0.816,1.805-2.017,3.653-2.546,5.603
		c0.052,0,0.122,0,0.193,0c0.984-0.881,3.072-1.546,4.369-2.137c0.958-0.419,1.942-1.039,2.853-1.517
		c0.697-0.377,1.42-0.549,2.137-0.926c0.723-0.358,1.419-0.894,2.259-1.126c0,0.074,0,0.145,0,0.203c-0.049,0-0.071,0-0.123,0
		c-0.693,0.723-1.51,1.329-2.229,2.052c-0.19,0.259-0.41,0.533-0.601,0.807c-0.074,0.029-0.936,0.262-1.223,0.404
		c-1.756,0.909-3.627,1.732-5.402,2.643c-1.391,0.738-3.526,2.065-4.992,2.455c0-0.07,0-0.145,0-0.199
		c1.298-2.862,2.569-5.706,3.863-8.564c-0.022,0-0.071,0-0.071,0c-0.455,0.619-1.245,0.98-1.846,1.43
		c-1.271,0.923-2.472,1.99-3.77,2.959c-0.839,0.594-1.606,1.69-2.639,2.036c0-0.146,0-0.274,0-0.42
		c0.287-0.503,0.045-1.355,0.193-2.02c0.429-1.966,0.597-4.363,0.693-6.429c-0.022,0-0.048,0-0.097,0
		c-0.48,0.694-2.688,2.34-3.456,2.847c0-0.536,0-1.084,0-1.617c-0.071-0.116-0.022-0.028-0.097-0.203
		c0.529-0.013,1.032-0.752,1.514-1.126C209.765,124.684,211.659,123.587,212.33,122.59"/>
</g>
</svg>
