<svg version="1.1" id="Layer_1" xmlns="http://www.w3.org/2000/svg" x="0" y="0" viewBox="0 0 474.3 456.9" style="enable-background:new 0 0 474.3 456.9" xml:space="preserve"><style>.st0{fill:#fff}.st1,.st2{fill-rule:evenodd;clip-rule:evenodd;fill:#a2a9ad}.st2{fill:#fff}.st4{fill:#a2a9ad}.st5{fill-rule:evenodd;clip-rule:evenodd;fill:#231f20}</style><path class="st0" d="m474.1 334.3-.1-.7c-.2-1.2-1.1-2.5-4-6.3a38.7 38.7 0 0 0-3.2-4 19 19 0 0 0-8.2-5.6 29 29 0 0 0-7.6-1.8h-31.8l2.1-7.2c9.4-31-6-53.9-10-59.1a55 55 0 0 0-31.5-45.2c3.8-5.6 3.7-10.7 2.3-14.2a21.7 21.7 0 0 0 5.7-17.4h4l-.2-4.6a64 64 0 0 0-4.9-21.9l.8-.5c19.7-17.1 14.4-50.4 14.2-51.8l-2-11.9-4.2 7c-1.2-11.9-5.7-22.2-5.9-22.7l-6.5-14.5-1.9 15.7c-2.6 21.5-22.8 35.3-33.2 41a71.6 71.6 0 0 0-36.2-4.5c-9.7-6-24.9-18.2-28.3-37.3l-3-16.5-5.5 16.1c-.2.6-3.6 10.5-3.8 22.3l-4.7-7.1-1 12.8c-.1.7-1.2 16.9 4.9 32.5-5.1 6-9 13-11.4 20.3-8.3 2.2-16 5.1-23 8.8l-7.1-25.5c-1.3-4.4.9-8.7 1.4-9.7L269.8 68a33.9 33.9 0 0 0 3.2-35.6l-10.8-19.7-.2-.4C255.9 2.1 248.5 0 243.3 0h-.3c-10.3.2-16.1 8.5-17.7 11.2L179 82.1c-10.1 15.7-8.8 26.2-7.1 30.9l15.6 46.7a60 60 0 0 0-37.8 17.5c-40.4 6.7-53.8 32.5-56.8 39.8a60.5 60.5 0 0 0-35.3 42c-.6 2.5-2.9 14 .6 22.4H17.3l-12.4 46 18.8 19L0 434.8 15.7 451H90l2.5-10.5h360.7l9.7-48.7-.3-1-.8-3.8-.1-.6c1.7-1.9 3-4.4 3.4-6l3.3-16.7.2-.4v-.7l5.1-25.4.2-.9.3-1.5-.1-.5z"/><path d="M469.7 334.4c0-.6-6.3-8.5-6.3-8.5-2-2.7-6.1-4.1-6.1-4.1-2.3-.9-5.1-1.6-6.2-1.6h-37.7l3.8-12.8c9.9-32.8-10-56.1-10-56.1-4-37.8-34.8-45-34.8-45 10.6-9.9 4.3-16.7 4.3-16.7 12-11.7 4.8-21.2 4.8-21.2h5.7a59.8 59.8 0 0 0-6.1-23.7l3.5-2.2c18.1-15.7 12.7-47.7 12.7-47.7a17.7 17.7 0 0 1-6.4 5.8c2.3-15.1-5.4-32.3-5.4-32.3-3 25.1-27.5 40.2-37.4 45.4a67.5 67.5 0 0 0-37.3-4.8c-9.5-5.6-27.8-19.1-31.8-41.1 0 0-6.1 17.4-2.4 32.7 0 0-4.4-2.2-6.8-5.9 0 0-1.3 17.4 5.6 33a57 57 0 0 0-13 23.1 109.2 109.2 0 0 0-29.2 11.6l-8.6-30.7c-1.9-6.4 1.4-12.4 1.9-13.4l39.7-53a29 29 0 0 0 2.8-31l.1.2-10.8-19.8-.1-.1-.1-.1c-5-8.5-11-10.2-15.1-10.2-8.1.1-12.8 7-14.1 9.1l-46.3 71c-9.4 14.6-7.8 23.7-6.6 27.1l17.4 52.2c-28.1.6-41.5 17.5-41.5 17.5-45.3 6.8-55.6 38.9-55.6 38.9-23.6 11-31.8 27.9-34.5 40-.4 1.9-5.2 24 8.2 25.9 0-.1-32.3-.1-49.4 0L9.8 326.1l18.8 19-23.8 88.7 12.5 12.8h69.3l2.5-10.5h360.6l8.8-44.2c-.5-1.6-1.4-7-1.5-7.2 1.2 0 4-5.2 4-5.2l3.5-17.4 1-5.2 4.1-20.7.2-.8v-.1l-.1-.9z"/><path class="st1" d="m304.6 162.2 45.9-8.1c.6-10-5.8-32.5-26.1-39.1 26.5-.5 49.4 25.3 54.4 47.5l-74.2-.3z"/><path class="st2" d="M370.8 156.5a69.8 69.8 0 0 0-20.3-27.1c7.4 9.3 12.1 20 13 26.2l7.3.9z"/><path d="M290.9 187.8a85.3 85.3 0 0 0-10.6 14.3c4.5.2 8.5-1.9 13-1.7-7.3 7-16 33.8-38.9 36.4 11.9-7.3 16.1-17.2 19.8-22.4-1.2-.6-7.4.5-9.6.3 4.9-4.7 1.9-23.6 26.3-26.9zm16.8-21.8c-13.7 2.5-22.5 16.9-37.9 12.2 8-1.1 11.9-6.6 18.5-9.8-5.1-.8-9-6.7-42.6 5.3 24.7-19.7 51.7-9.7 62-7.7zm34.9 45.6s-11.7.1-21.5 5.5c-12.6 7.1-22.9 5.8-22.9 5.8s7.5-.4 22.4-10.8c14.9-10.4 22-.5 22-.5zm4.4 0s22-6.9 21.6 16.9c0 0-3.2-12.3-21.6-16.9zm-87.3 45.5s12.9-3.5 22-15a41 41 0 0 1 26.7-16.4s-7.1 11.2-9 20c0 0 17.2-16.7 46-16.7s13.7 30.5-7.2 40.6c0 0 6.6-13.2 4.1-27.7 0 0-9.4 24.7-46.6 37.5s-71.6 2.9-71.6 2.9 45.8-.8 64.2-28.6c0-.1-13.4 6-28.6 3.4z" style="fill-rule:evenodd;clip-rule:evenodd;fill:#ce0e2d"/><path class="st4" d="M251.2 247.9c-5.2 3.6-12 5.6-16.9 6.8l6.2 18.8c5.4-1.3 11.3-3.1 17-5.6l-6.3-20z"/><path class="st2" d="M192.8 173.8s-19.7 8.5-29.3 19.7c0 0 10.2.2 14.5 3 0 0-45.4 3.6-54.4 25.7 0 0 15.6-7.8 38.2-6.3l19.7-6.5s9-20.7 20.7-24.8l3 11.3-7.1 6.7s50.6-11.2 38.3-20.1c0 0 15.6 3.8 7.1 20.9 0 0 13.8 3.9 4.8 14.8 0 0 9.2 6.1 0 13.2 0 0 9.6 10-15.3 14.8-24.9 4.9-29.1-3.4-29.1-3.4l-17 4.8 9.7 1s-10.7 4.3-39.2 16.2c-19.5 8.1-70 21-81.2 5.3-11.3-15.7 19.8-43 32.5-46.6 0 0 9.9-26.4 43-29.7-.2.2 15.3-20.5 41.1-20z"/><path class="st1" d="M76 270.3c11.3 15.7 61.7 2.8 81.2-5.3 28.5-11.9 39.2-16.2 39.2-16.2l-9.7-1 17-4.8s4.2 8.3 29.1 3.4c24.9-4.9 15.3-14.8 15.3-14.8 9.2-7.1 0-13.2 0-13.2 4.1-5 3.5-8.5 1.6-10.9-19.8 10.7-67 19.9-67 19.9l12.4 5.3c-28.5 13.5-65.8 22.1-65.8 22.1l8.6-10.1c-73 20-29.5-20.8-29.5-20.8-12.6 3.4-43.7 30.7-32.4 46.4z"/><path class="st1" d="m123.8 229.1-4.9 8.7 40.6-13.7s-18.8-2.3-35.7 5zM197.8 212.7l8 4.6s20.6-4.7 29.1-9.3c0 0-29.1 4-37.1 4.7z"/><path class="st5" d="m203.9 230.3 8.4 3.7s20-6.9 27.9-12.4c.1 0-28.4 7.1-36.3 8.7zM80 259s4.6 11.3 16.3 4.4c0 0 26.3 5.5 83.3-15 0 0-44.5 27.5-85.1 22 0 .1-17.8 5.2-14.5-11.4z"/><path class="st2" d="m354 220.5-1.6 2.9c-8.4-1.7-21.9 1-31.4 2.9l8.7-9.2c7.4-1.4 18-1.9 24.3 3.4zM315.9 169.4h52.6c3.3 3.7 3.7 8 2.2 9.9a34 34 0 0 1-33.7-4.9l-14.8-1c6 5.4 13.6 9.7 17 15.9 3.9-1.8 12.1-4.5 15.9-3.1l2.7 1.9a43.3 43.3 0 0 0-2 16.6l-20.3-.3 4-5.9c-9.1 1.2-25 3.2-36.8 9.5l5.6 4.8-16.5 3.8c8.8-12 13.6-16.5 20.4-23.8-8.8.6-9.8.6-15.4 2.8 2.6-5.4 9.5-9.4 15.2-12.9l-28.1.1c19.3-5.2 22.4-10.7 32-13.4z"/><path class="st0" d="M311.8 118.4a62 62 0 0 1-30.4-30c.4 7.2 2.4 20.8 11.4 29.4l2.8 2.6-3.6-1.2c-.4-.1-8.2-2.7-12.9-9.4.8 4.7 3.5 12.6 12.4 18.4l3.9 2.5-4.6-1c-.3-.1-5-1.1-8.7-3.4a32 32 0 0 0 28.2 17.8c.1 0 7.2.2 11.3-3.9 1.9-1.8 2.8-4.3 3-7.2-2.4-.9-11-5.3-12.8-14.6zM377.6 138.6a27 27 0 0 0 10.1-12.5 25.7 25.7 0 0 1-8.6 3.5l-4.4.9 3.7-2.5a23.7 23.7 0 0 0 11-18.4c-4.1 6.7-12 9.4-12.4 9.5l-3.4 1.1 2.5-2.6c8.5-8.6 9.2-22.3 8.9-29.3a59.8 59.8 0 0 1-28.3 29.8 67 67 0 0 1 20.9 20.5zM434.6 447.7h-3.4v9.2h-3.1v-9.2h-3.4v-2.5h9.8v2.5zm16.7 9.2h-3.1v-9.2h-.3l-2.9 6.4h-2.2l-2.9-6.5h-.4v9.3h-3v-11.7h5.1l2.4 5.7 2.5-5.7h4.9v11.7z"/><path class="st4" d="M146.2 320.3h-7.1l.1-1.8v-.1h-4.5l-.9 1.9h-7.1l10.8-21.5h-2.4l2.4-4.7h9.6l-.9 26.2zm-6.9-6.6.1-4.7-2.4 4.7h2.3zM176 317.9c-.2.6-.6 1.1-1.2 1.6s-1.2.7-1.8.7h-14l7-26.2h14c.6 0 1.1.2 1.4.7.4.5.5 1 .3 1.6l-5.7 21.6zm-6.4-2.3 4.5-16.7h-2.5l-4.5 16.7h2.5zM195.1 320.3h-7l7-26.2h7l-7 26.2zM225.5 320.3h-7.2l-.7-10.2h-.2l-2.7 10.2h-6.9l7-26.2h13.6c.6 0 1.1.2 1.4.7.4.5.5 1 .3 1.6l-3 11.4c-.1.5-.4.9-.9 1.3-.4.4-.9.7-1.4.9l.7 10.3zm-4.1-14.9 1.8-6.6h-2.7l-1.8 6.6h2.7zM255.3 317.9c-.2.6-.6 1.1-1.2 1.6s-1.2.7-1.8.7h-11.7c-.6 0-1.1-.2-1.4-.7-.4-.5-.5-1-.3-1.6l5.8-21.5a3 3 0 0 1 1.2-1.6c.6-.5 1.2-.7 1.8-.7h11.7c.6 0 1.1.2 1.4.7.4.5.5 1 .3 1.6l-5.8 21.5zm-6.4-2.3 4.5-16.7h-2.5l-4.5 16.7h2.5zM283.8 320.3h-7l5.7-21.3H280l-5.7 21.3h-7l7-26.2h7l-.5 1.7c.3-.5.7-.9 1.2-1.2a3 3 0 0 1 1.5-.5h4.8c.6 0 1.1.2 1.4.7.4.5.5 1 .3 1.6l-6.2 23.9zM313.6 317.9c-.2.6-.6 1.1-1.2 1.6s-1.2.7-1.8.7h-14l7-26.2h14c.6 0 1.1.2 1.4.7.4.5.5 1 .3 1.6l-5.7 21.6zm-6.3-2.3 4.5-16.7h-2.5l-4.5 16.7h2.5zM345.2 320.3h-7.1l.1-1.8v-.1h-4.5l-.9 1.9h-7.1l10.8-21.5h-2.4l2.4-4.7h9.6l-.9 26.2zm-6.8-6.6.1-4.7-2.4 4.7h2.3zM370.4 320.3h-10.1c-.6 0-1.1-.2-1.4-.7-.4-.5-.5-1-.3-1.6l5.8-21.5a3 3 0 0 1 1.2-1.6c.6-.5 1.2-.7 1.8-.7h10.1l-1.3 4.7h-5.5l-4.5 16.7h5.5l-1.3 4.7zM399 320.3h-7l2.9-10.7-1.5-1.6-3.3 12.3h-7l7-26.2h7l-1.3 4.8 4.4-4.8h5.7l-7.7 8.4 4.4 4.7-3.6 13.1z"/><g><path class="st0" d="M131.4 411.7h-21.5l11.4-42.6h-7.7l-11.4 42.6H80.9l21.6-80.6h21.3l-6.2 23.3h7.7l6.2-23.3H153l-21.6 80.6zM196.7 404.5a9.8 9.8 0 0 1-3.6 5 9 9 0 0 1-5.6 2.2h-36c-1.8 0-3.3-.7-4.4-2.2a5.6 5.6 0 0 1-.9-5l19.6-73.3h21.3l-17.7 66h7.7l17.7-66h21.5l-19.6 73.3zM258.3 411.7h-21.5l17.5-65.4h-7.7l-17.5 65.4h-21.4l21.6-80.6h21.4l-1.4 5.3c.9-1.5 2.2-2.7 3.8-3.8 1.6-1 3.2-1.6 4.7-1.6h14.8c1.8 0 3.3.7 4.4 2.2a5.6 5.6 0 0 1 .9 5l-19.6 73.5zM323.7 404.5a9.8 9.8 0 0 1-3.6 5 9 9 0 0 1-5.6 2.2h-43.2l21.6-80.6H336c1.8 0 3.3.7 4.4 2.2a5.6 5.6 0 0 1 .9 5l-17.6 66.2zm-19.5-7.3 13.8-51.5h-7.7l-13.8 51.5h7.7zM373.3 397.2l-7.4 14.6h-31.2l21.6-80.6h31.2l-.4 14.6h-13.2l-4.3 16.2h12.7l-3.9 14.6h-12.7l-5.6 20.7h13.2zM436.8 411.7h-22.2l-2.2-31.2h-.4l-8.4 31.2h-21.3l21.6-80.6h41.8c1.8 0 3.3.7 4.4 2.2a5.6 5.6 0 0 1 .9 5l-9.4 34.9a9.2 9.2 0 0 1-2.6 4.1 11.9 11.9 0 0 1-4.3 2.7l2.1 31.7zm-12.7-45.8 5.4-20.2h-8.2l-5.4 20.2h8.2z"/></g><g><path class="st0" d="m85 294.2-23.7 50.9h13l-35.2 72 21.1-64.5H50l23.2-58.4H31.9l-7.1 26.1 24.5-.1-28.5 105.7h38.5l28.5-105.7 24.5.1 7-26.1z"/></g><g><path class="st4" d="m237.7 36-.1.2 1.2 1.5z"/><path class="st4" d="m257.8 32.4-7.6-13.1c-7.1-12.1-13.3-.9-13.3-.9l-6.2 9.5L249.9 61l5.6-7.8c7.9-11 2.3-20.8 2.3-20.8zM190.4 89.6c-8.5 13-5.6 19.1-5.6 19.1l27.3 80.8s6.5.2 17.5-5.9l-17.1-56.8c-3.4-11.5 3.3-21.2 3.3-21.2l-16.7-30.1-8.7 14.1z"/></g></svg>