<?xml version="1.0" encoding="UTF-8" standalone="no"?>
<!-- Created with Inkscape (http://www.inkscape.org/) -->

<svg
   xmlns:dc="http://purl.org/dc/elements/1.1/"
   xmlns:cc="http://creativecommons.org/ns#"
   xmlns:rdf="http://www.w3.org/1999/02/22-rdf-syntax-ns#"
   xmlns:svg="http://www.w3.org/2000/svg"
   xmlns="http://www.w3.org/2000/svg"
   version="1.1"
   viewBox="0 0 400 320" width="354" height="283"

   id="svg3124"
   xml:space="preserve"><metadata
     id="metadata3130"><rdf:RDF><cc:Work
         rdf:about=""><dc:format>image/svg+xml</dc:format><dc:type
           rdf:resource="http://purl.org/dc/dcmitype/StillImage" /><dc:title></dc:title></cc:Work></rdf:RDF></metadata><defs
     id="defs3128" /><g
     transform="matrix(1.25,0,0,-1.25,0,320)"
     id="g3132"><g
       transform="matrix(0.50738908,0,0,0.50738908,7.2262318,-79.934387)"
       id="g3572"><path
         d="m 190.724,325.888 c -29.267,16.136 -31.837,33.83 -40.643,30.952 -17.218,-5.627 16.68,-30.545 40.643,-30.952"
         id="path3142"
         style="fill:#e9e9e9;fill-opacity:1;fill-rule:nonzero;stroke:none" /><path
         d="m 216.048,346.21 c -16.882,5.315 -44.708,44.082 -44.708,26.262 0,-15.632 34.078,-26.575 44.708,-26.262"
         id="path3144"
         style="fill:#e9e9e9;fill-opacity:1;fill-rule:nonzero;stroke:none" /><path
         d="m 232.618,370.909 c -20.947,9.692 -36.6,39.138 -40.018,29.389 -5.37,-15.32 22.51,-28.764 40.018,-29.389"
         id="path3146"
         style="fill:#e9e9e9;fill-opacity:1;fill-rule:nonzero;stroke:none" /><path
         d="m 257.629,391.23 c -28.45,12.819 -32.2,37.928 -42.207,30.64 -8.319,-6.061 17.08,-31.312 42.207,-30.64"
         id="path3148"
         style="fill:#e9e9e9;fill-opacity:1;fill-rule:nonzero;stroke:none" /><path
         d="m 162.899,449.695 c -22.51,-11.881 -33.453,-31.89 -33.765,-48.303 -4.377,3.712 -4.74,3.761 -8.591,4.241 -2.633,0.328 -6.729,-10.162 -6.729,-19.561 0,-14.382 4.765,-32.115 18.133,-40.8 12.037,-7.82 6.935,11.155 11.724,25.793 2.501,2.501 24.969,-25.788 24.543,-5.784 -0.399,18.728 -6.085,33.964 17.039,8.754 7.541,-8.727 -1.467,35.256 4.977,39.94 6.994,-7.194 11.501,-11.684 17.377,-16.022 2.273,16.533 1.719,24.229 2.657,27.824 6.096,15.476 12.247,-0.169 16.101,-4.22 6.917,-7.268 15.197,-15.264 29.469,-22.258 7.353,-3.603 29.552,20.739 35.405,23.509 4.645,2.198 11.956,-3.371 17.471,-0.662 7.091,3.485 15.512,10.823 22.546,10.823 10.631,0 21.886,-29.076 42.52,-29.076 5.422,0 13.566,-0.592 17.399,-2.981 9.431,-5.874 17.716,-22.409 27.152,-19.843 l 21.26,5.785 c 21.118,5.745 6.879,6.409 34.391,6.409 18.758,0 23.76,0 35.016,11.255 7.503,7.503 -32.359,4.691 -36.11,4.377 -9.357,-0.784 -18.026,-3.77 -21.175,-0.193 -12.407,14.094 6.17,40.268 15.391,54.124 -11.56,-0.999 -29.993,-16.56 -32.828,-49.085 -10.921,5.481 -17.195,12.036 -24.23,33.609 -1.406,-9.223 -0.469,-16.727 3.596,-32.515 -13.6,7.035 -17.82,17.04 -23.291,31.108 -5.316,-6.663 -8.659,-18.583 -7.666,-33.505 -14.512,16.711 -30.224,32 -47.047,36.788 5.784,0.781 11.258,1.19 14.476,2.994 -20.824,8.614 -55.044,8.159 -73.409,-4.87 18.031,-0.274 23.159,0.995 29.075,-3.439 -12.797,-1.513 -31.326,-16.173 -46.114,-27.981 -23.042,3.835 -30.882,22.402 -34.86,35.328 -10.579,-2.681 -20.482,-11.581 -26.381,-21.669 -1.141,3.733 -2.284,7.228 -4.57,11.977 -6.253,-6.253 -15.277,-14.449 -21.104,-31.889 -5.585,3.996 -4.221,9.691 -7.972,15.945 -8.011,-8.012 -10.139,-19.19 -15.764,-36.942 -18.846,2.841 -1.823,46.985 13.888,61.015"
         id="path3150"
         style="fill:#c1c3c7;fill-opacity:1;fill-rule:nonzero;stroke:none" /><path
         d="m 500.837,394.906 c -10.711,-2.677 -39.493,-6.47 -51.096,-6.47 16.896,-12.049 31.467,-12.959 40.609,-37.263 10.389,4.508 16.065,8.925 20.973,14.726 3.347,-10.933 3.124,-18.965 2.233,-24.097 6.023,2.231 9.593,6.917 12.716,12.049 1.827,-7.1 -0.627,-17.668 -4.684,-33.915 4.239,-0.893 7.1,1.127 11.825,4.685 0.184,-4.226 0.893,-8.926 0,-14.726 3.725,0.861 6.042,1.57 8.256,4.461 2.472,-5.345 2.248,-11.655 0.446,-24.99 14.151,2.311 11.997,48.983 3.348,65.601 -1.085,-3.058 -2.455,-5.578 -4.91,-7.81 -1.403,11.538 -2.017,30.52 -18.353,39.489 -2.406,-0.549 0.638,-9.737 -1.723,-9.258 -5.284,7.808 -13.456,17.518 -19.64,17.518"
         id="path3152"
         style="fill:#c1c3c7;fill-opacity:1;fill-rule:nonzero;stroke:none" /><path
         d="m 490.96875,207.59375 c -15,16.58875 -22.43125,24.3925 -37.53125,40.71875 -15.79125,-13.79375 -19.12125,-16.77125 -29.84375,-26.40625 -28.78375,27.875 -62.19,60.12125 -84.5625,81.125 -12.815,-4.83875 -19.275,-7.31875 -29.59375,-11.28125 -18.27,24.355 -35.41375,48.18125 -53.6875,73.3125 3.47875,-22.715 4.195,-30.07375 7.125,-46.4375 l -80.03125,88.0625 c 3.4925,-0.54875 6.0325,-0.87125 9.65625,-1.5625 -5.31625,6.835 -27.05375,35.3575 -38.96875,67.90625 0.0258,0.008 0.0369,0.0232 0.0625,0.0312 -0.0336,0.003 -0.0598,-0.003 -0.0937,0 -2.96125,-2.32625 -4.4175,-3.59375 -6.8125,-5.28125 -23.275,41.255 -15.71375,81.19625 10.96875,125.53125 -16.69,-11.39625 -26.08,-25.43875 -35.125,-41.96875 -2.31625,23.35375 5.0325,49.5925 16.375,75.125 -14.79875,-11.455 -30.2125,-53.74625 -30.90625,-73.75 -22.5275,34.675 -22.62875,87.2675 -9.78125,115 -33.69625,30.40375 -47.53875,42.6925 -80.25,73.21875 16.87875,7.185 31.8975,13.39375 57.65625,24.25 28.83125,-6.92875 64.98875,-13.66625 97.09375,-21.28125 -10.58375,-8.725 -19.50625,-16.81375 -23.4375,-24.96875 98.95,57.94625 223.7375,33.18125 305.28125,7.375 -41.42875,3.66375 -74.58,2.08125 -107.21875,-5.6875 70.81875,1.14 162.1925,-10.745 230.9375,-59.40625 C 496.59875,688.805 423.74,698.99875 344.875,688.75 c 0.0123,-0.01 0.0189,-0.0215 0.0312,-0.0312 91.80494,-1.99707 205.25979,-24.27555 275.53125,-85 -5.69375,10.81875 -17.07375,21.43375 -29.03125,32.0625 9.13375,1.32875 25.01,0.11875 39.125,-3.875 -5.50125,7.3425 -14.91375,14.97375 -22.625,20.40625 58.91669,14.11092 113.27854,-26.55389 106.46875,-94.8125 0.0294,-0.0183 0.0648,-0.0444 0.0937,-0.0625 -0.55125,-6.5375 -0.91875,-8.685 -1.5625,-13.59375 55.65375,-101.7025 11.07375,-167.885 -71.1875,-196.65625 2.8325,-9.46875 1.86375,-21.6875 -1.3125,-23.625 -2.82187,-1.72109 -7.2098,-2.62762 -12.28125,-2.71875 -11.12971,-0.19999 -25.60339,3.60264 -34.3125,11.75 -23.03498,-26.60698 -51.31224,-58.92108 -70.65625,-80.65625 -7.24625,4.2375 -10.56625,5.6975 -17.53125,9.96875 3.215,-17.68125 4.7925,-25.96375 6.4375,-37.3125 -14.5125,17.1975 -17.87,20.62375 -29.1875,33.5 3.92375,-24.025 4.7025,-30.75375 8.09375,-50.5 z M 458.5,323.78125 c 43.67861,-0.44425 92.13828,10.50156 130.625,21.4375 0.01,-0.0235 0.0213,-0.039 0.0312,-0.0625 14.91337,4.92779 43.72058,14.53104 53.59375,28.28125 -3.41375,2.57875 -9.64375,3.6875 -16.6875,3.6875 -0.185,-11.05125 -5.3575,-13.42 -13.4375,-15.125 4.58125,4.46875 4.50875,13.75625 2.21875,15.46875 -8.73625,5.76375 -37.13375,-5.775 -42.75,-7.53125 -2.9475,-0.92 -11.39625,-0.92375 -14.34375,-0.1875 3.34125,5.1575 4.23625,10.7 9.96875,16.8125 4.54875,2.03125 12.95375,0.875 17.65625,0.875 -2.21,3.13 -4.3425,4.50125 -9.21875,11.03125 15.59375,-9.5775 30.0825,-16.00125 55.4375,-14.34375 -4.7325,1.54625 -7.1725,2.2725 -9.75,5.34375 15.2175,-2.9425 32.765,-1.40625 44.375,5.875 -12.0025,7.7275 -20.4475,-4.41375 -41.8125,0.375 -5.26625,3.2175 -3.17375,16.5825 3.875,17.6875 6.815,-10.86625 19.88375,-0.19 16.9375,3.125 -11.23625,12.34 -53.22125,8.63875 -62.0625,-4.4375 -18.1425,9.16125 -37.19125,36.42 -24.53125,71.375 7.18375,-0.44125 23.1425,1.7125 29.5,3.96875 13.25625,-6.97875 25.7725,-5.70625 40.875,-4.96875 0.475,3.57625 -14.225,13.04625 -13.25,5.8125 -17.21375,7.83375 -23.9875,7.02 -27.4375,6.90625 -13.03375,-0.435 -34.9225,-5.9275 -56.53125,-1.125 8.66642,0.81458 15.14406,2.36967 20.625,4.28125 C 539.42404,500.76192 527.85708,506.01146 521,509 c -0.13826,0.13826 -0.26763,0.29672 -0.40625,0.4375 -9.04016,-10.50322 -21.12779,-23.78805 -30.15625,-35.34375 -8.5675,2.75625 -18.71625,4.425 -25.8125,4.9375 -25.17375,-17.97625 -29.1775,-24.7475 -50.09375,-40.625 -11.51375,7.5925 -19.23875,11.76125 -30.375,18.59375 -7.6875,-0.15875 -12.28125,-0.84375 -21.34375,-2.71875 -12.87375,9.44125 -29.05625,21.49375 -43.25,29.75 -21.89625,-9.58625 -35.595,-24.3525 -44.71875,-45.25 -14.35875,4.59875 -24.69375,23.92625 -19,45.5625 -7.59125,-5.69375 -14.405,-19.38125 -17.0625,-29.25 -12.90625,12.905 -13.305,40.23375 -8.75,59.59375 -9.87,-5.695 -19.1425,-20.555 -20.875,-28.84375 -7.465,10.88125 -9.98,30.87 -6.4375,52 -11.42625,-2.685 -17.455,-13.27 -21.25,-22 -6.0725,6.0725 -10.88375,19.69625 -12.90625,42.125 -8.98625,-7.2475 -35.2525,-30.37875 -17.84375,-72.875 3.73375,1.65375 7.14,3.56375 12.375,6.28125 -0.43355,-6.50796 0.91545,-11.99195 2.1875,-16.34375 22.22696,-51.29367 67.28134,-65.47693 131.8125,-72.5 -12.41875,-3.28125 -28.0475,-2.62 -48.46875,-0.65625 21.17375,-18.57 49.08,-34.39875 73,-42.4375 -0.0325,3.525 0.002,5.97625 -0.28125,8.1875 29.695,-14.22375 67.565,-17.5125 112.625,-16.5 -10.4225,-9.90875 -31.85625,-11.52875 -45.75,-11.8125 19.58953,-10.90266 44.07408,-15.2647 70.28125,-15.53125 z m 184.3125,155.1875 c 30.11625,15.92625 53.80125,52.60625 51.40625,90.78125 2.36466,-1.80474 4.92546,-3.46204 7.46875,-5 2.22652,24.45222 -4.49021,44.9209 -21.46875,59.09375 1.64875,-17.72125 1.6075,-24.69 -1.5625,-34.71875 -3.61625,2.76875 -5.71375,4.9875 -9.25,9.28125 1.33,-10.82 0.76,-18.79625 0,-25.4375 -3.985,4.74375 -7.73125,9.31 -15.1875,14.21875 4.5075,-11.47625 12.72625,-42.47875 3.40625,-49.15625 -3.47875,7.90875 -7.7075,14.30875 -13.84375,19.75 1.3175,-14.8425 1.1675,-23.7025 -4.5625,-37.375 -4.88625,15.6875 -13.355,21.43875 -25.09375,27.71875 0.006,-18.78625 -29.3525,-34.79625 -46.25,-42.6875 -0.32235,-0.22157 -0.54715,-0.3608 -0.84375,-0.5625 0.64636,0.32552 1.28377,0.64407 1.9375,0.96875 5.8625,-0.85875 32.20125,-6.43125 36.09375,-0.90625 11.41625,0 33.205,-8.62625 37.75,-25.96875 z"
         transform="matrix(0.8,0,0,-0.8,0,792)"
         id="path3154"
         style="fill:#000000;fill-opacity:1;fill-rule:nonzero;stroke:none" /><path
         d="m 430.385,562.707 -12.117,16.022 -12.822,-6.786 24.939,-9.236 z"
         id="path3162"
         style="fill:#ffffff;fill-opacity:1;fill-rule:nonzero;stroke:none" /><path
         d="m 377.735,595.651 -35.791,-39.87 7.698,0.382 -16.067,-18.427 c -0.435,-0.499 36.169,7.018 56.779,3.473 l -1.842,11.638 7.001,-5.377 -0.647,34.107 -18.472,-20.24 1.341,34.314 z"
         id="path3166"
         style="fill:#33aa71;fill-opacity:1;fill-rule:nonzero;stroke:none" /><path
         d="m 339.558,592.265 -49.571,-43.721 23.092,5.542 -29.557,-34.792 12.315,5.851 29.25,25.247 14.471,41.873 z"
         id="path3170"
         style="fill:#ffffff;fill-opacity:1;fill-rule:nonzero;stroke:none" /><path
         d="m 196.542,508.979 -33.478,-36.556 6.461,0.148 -13.233,-15.468 22.937,10.085 15.638,13.552 1.675,28.239 z"
         id="path3174"
         style="fill:#33aa71;fill-opacity:1;fill-rule:nonzero;stroke:none" /><path
         d="m 540.836,473.92 c -7.789,-1.096 -9.581,-2.231 -15.406,-4.82 -5.109,1.641 -10.818,3.344 -17.616,2.958 4.771,-0.924 12.419,-3.202 17.576,-6.489 4.758,3.566 7.933,5.139 15.446,8.351"
         id="path3182"
         style="fill:#ffffff;fill-opacity:1;fill-rule:nonzero;stroke:none" /><path
         d="m 540.836,473.92 c -7.789,-1.096 -9.581,-2.231 -15.406,-4.82 -5.109,1.641 -10.818,3.344 -17.616,2.958 4.771,-0.924 12.419,-3.202 17.576,-6.489 4.758,3.566 7.933,5.139 15.446,8.351 z"
         id="path3184"
         style="fill:none;stroke:#fcfeff;stroke-width:0.42570883;stroke-linecap:butt;stroke-linejoin:miter;stroke-miterlimit:2.61299992;stroke-opacity:1;stroke-dasharray:none" /><path
         d="m 459.383,491.72 c -0.622,1.075 -2.087,0.479 -4.617,-0.03 -1.279,-1.174 1.152,-5.666 3.926,-6.23 3.549,-0.721 3.347,0.181 0.615,2.913 -0.839,1.444 0.148,2.28 0.076,3.347"
         id="path3186"
         style="fill:#ffffff;fill-opacity:1;fill-rule:nonzero;stroke:none" /><path
         d="m 459.383,491.72 c -0.622,1.075 -2.087,0.479 -4.617,-0.03 -1.279,-1.174 1.152,-5.666 3.926,-6.23 3.549,-0.721 3.347,0.181 0.615,2.913 -0.839,1.444 0.148,2.28 0.076,3.347 z"
         id="path3188"
         style="fill:none;stroke:#fcfeff;stroke-width:0.42570883;stroke-linecap:butt;stroke-linejoin:miter;stroke-miterlimit:2.61299992;stroke-opacity:1;stroke-dasharray:none" /><path
         d="m 484.103,421.471 c -2.178,3.913 -9.923,8.367 -17.426,8.367 -2.795,0 -7.262,-0.102 -7.967,-0.849 -0.321,-0.34 1.978,-1.101 4.209,-2.209 3.285,-1.633 6.491,-6.544 7.024,-6.907 1.599,-1.094 -10.662,5.498 -16.055,5.498 -9.692,0 -7.276,-1.164 -5.094,-9.318 2.727,-10.198 16.088,-0.654 17.079,2.039 0.89,0.756 3.29,0.133 3.957,-2.402 -0.087,-0.836 3.112,5.647 5.691,2.713 0.979,-1.379 3.158,5.825 5.114,4.624 1.689,-2.268 2.668,-2.534 3.468,-1.556"
         id="path3190"
         style="fill:#c1c3c7;fill-opacity:1;fill-rule:nonzero;stroke:none" /><path
         d="m 506.434,358.269 c -6.775,-2.156 -10.776,-8.929 -16.01,-14.164 -8.314,-8.312 -24.361,-16.856 -2.156,-8.621 4.778,1.774 26.479,15.395 18.166,22.785"
         id="path3196"
         style="fill:#ffffff;fill-opacity:1;fill-rule:nonzero;stroke:none" /><path
         d="m 516.901,338.872 c -5.542,-0.925 -12.314,-8.929 -16.009,-12.624 -2.922,-2.921 -9.546,-7.696 -13.241,-11.392 -4.002,-4.002 12.624,2.156 16.32,5.85 0.923,0.924 18.165,12.932 12.93,18.166"
         id="path3200"
         style="fill:#ffffff;fill-opacity:1;fill-rule:nonzero;stroke:none" /><path
         d="m 536.299,301.925 c -4.619,-0.924 -12.987,-10.442 -16.319,-14.163 -3.398,-3.797 -20.302,-12.091 -16.009,-11.7 l 3.385,0.308 c 8.608,0.782 15.088,3.079 20.629,8.621 1.848,1.847 16.319,15.394 8.314,16.934"
         id="path3204"
         style="fill:#ffffff;fill-opacity:1;fill-rule:nonzero;stroke:none" /><path
         d="m 522.747,320.146 c -4.618,-0.925 -12.987,-10.443 -16.317,-14.165 -3.4,-3.796 -20.304,-12.089 -16.01,-11.699 l 3.386,0.308 c 8.607,0.782 15.087,3.079 20.629,8.621 1.846,1.847 16.317,15.394 8.312,16.935"
         id="path3208"
         style="fill:#ffffff;fill-opacity:1;fill-rule:nonzero;stroke:none" /><path
         d="m 190.304,325.888 c -29.267,16.136 -31.837,33.83 -40.643,30.952 -17.218,-5.627 16.68,-30.545 40.643,-30.952"
         id="path3216"
         style="fill:#ffffff;fill-opacity:1;fill-rule:nonzero;stroke:none" /><path
         d="m 215.628,346.21 c -16.883,5.315 -44.708,44.082 -44.708,26.262 0,-15.632 34.079,-26.575 44.708,-26.262"
         id="path3220"
         style="fill:#ffffff;fill-opacity:1;fill-rule:nonzero;stroke:none" /><path
         d="m 232.198,370.909 c -20.947,9.692 -36.6,39.138 -40.018,29.389 -5.37,-15.32 22.51,-28.764 40.018,-29.389"
         id="path3224"
         style="fill:#ffffff;fill-opacity:1;fill-rule:nonzero;stroke:none" /><path
         d="m 257.209,391.23 c -28.45,12.819 -32.2,37.928 -42.206,30.64 -8.32,-6.061 17.08,-31.312 42.206,-30.64"
         id="path3228"
         style="fill:#ffffff;fill-opacity:1;fill-rule:nonzero;stroke:none" /><path
         d="m 427.419,513.017 c -5.205,-0.839 -11.734,-0.834 -16.713,0.379 -14.781,7.275 -48.874,21.131 -53.518,-0.713 -3.869,-18.205 0.024,-28.752 15.647,-39.218 -2.725,-6.665 -10.212,-31.033 5.741,-49.911 -3.487,20.54 -6.154,36.892 4.321,53.767 -14.787,7.713 -19.285,19.466 -16.625,33.054 2.358,12.047 27.729,2.866 48.623,-7.757 0,2.733 -2.58,5.695 -0.298,6.452 0.911,0 5.698,2.051 12.822,3.947"
         id="path3232"
         style="fill:#231f20;fill-opacity:1;fill-rule:nonzero;stroke:none" /><path
         d="m 427.419,513.017 c -5.205,-0.839 -11.734,-0.834 -16.713,0.379 -14.781,7.275 -48.874,21.131 -53.518,-0.713 -3.869,-18.205 0.024,-28.752 15.647,-39.218 -2.725,-6.665 -10.212,-31.033 5.741,-49.911 -3.487,20.54 -6.154,36.892 4.321,53.767 -14.787,7.713 -19.285,19.466 -16.625,33.054 2.358,12.047 27.729,2.866 48.623,-7.757 0,2.733 -2.58,5.695 -0.298,6.452 0.911,0 5.698,2.051 12.822,3.947 z"
         id="path3234"
         style="fill:none;stroke:#231f20;stroke-width:0.42570883;stroke-linecap:butt;stroke-linejoin:miter;stroke-miterlimit:2.61299992;stroke-opacity:1;stroke-dasharray:none" /><path
         d="m 408.858,497.833 c -11.519,4.471 -23.644,7.957 -34.027,6.896 4.485,-5.078 13.844,-16.168 21.067,-20.84 -1.696,5.634 -4.308,8.137 -5.268,12.207 4.224,1.325 11.222,1.599 18.228,1.737"
         id="path3236"
         style="fill:#231f20;fill-opacity:1;fill-rule:nonzero;stroke:none" /><path
         d="m 408.858,497.833 c -11.519,4.471 -23.644,7.957 -34.027,6.896 4.485,-5.078 13.844,-16.168 21.067,-20.84 -1.696,5.634 -4.308,8.137 -5.268,12.207 4.224,1.325 11.222,1.599 18.228,1.737 z"
         id="path3238"
         style="fill:none;stroke:#231f20;stroke-width:0.42570883;stroke-linecap:butt;stroke-linejoin:miter;stroke-miterlimit:2.61299992;stroke-opacity:1;stroke-dasharray:none" /><path
         d="m 281.84375,579.3125 -116.25,29.125 11.71875,8.53125 L 66.71875,726.25 l 52.34375,-9.375 25.40625,-26.8125 42.59375,-9.53125 -13.0625,24.4375 53.71875,-10.375 54.125,-115.28125 z m -57.0625,33.40625 -25,45.75 -28.9375,6.8125 53.9375,-52.5625 z"
         transform="matrix(0.8,0,0,-0.8,0,792)"
         id="path3240"
         style="fill:#e9e9e9;fill-opacity:1;fill-rule:nonzero;stroke:none" /><path
         d="m 307.545,323.7 -88.321,-22.197 6.906,-6.276 -28.01,-55.94 54.4,10.63 25.636,13.443 7.786,17.43 -27.013,-6.487 -7.461,-13.862 -19.412,-4.102 22.34,44.382 18.713,4.144 -5.895,-12.898 28.138,7.347 12.193,24.386 z"
         id="path3244"
         style="fill:#e9e9e9;fill-opacity:1;fill-rule:nonzero;stroke:none" /><path
         d="m 385.236,341.365 -70.343,-16.884 3.558,-9.76 -29.039,-57.145 59.552,11.828 5.79,12.558 -30.251,-5.976 9.305,18.326 26.574,6.722 5.627,11.724 -25.793,-5.784 7.111,13.705 32.589,8.032 5.32,12.654 z"
         id="path3248"
         style="fill:#e9e9e9;fill-opacity:1;fill-rule:nonzero;stroke:none" /><path
         d="m 481.061,365.281 -87.696,-21.727 6.878,-6.098 -12.044,-22.143 19.203,-3.407 24.418,5.229 -10.473,-20.322 -18.434,-4.35 3.459,7.316 -28.326,-4.998 -11.749,-21.531 56.613,11.058 24.699,13.443 14.537,30.013 -17.266,2.943 -25.409,-5.131 7.704,14.028 18.007,3.726 -2.732,-5.248 27.982,6.097 10.629,21.102 z"
         id="path3252"
         style="fill:#e9e9e9;fill-opacity:1;fill-rule:nonzero;stroke:none" /><path
         d="m 532.583,491.752 c 0.294,2.052 0.95,5.158 1.503,7.128 -6.855,1.912 -14.527,2.767 -21.833,5.781 4.105,-3.552 6.117,-6.671 12.379,-9.15 -1.2,-2.764 -1.991,-3.947 -4.065,-6.892 -0.551,-1.285 22.824,-9.827 25.95,-9.827 2.657,-5.941 -0.135,-10.473 -3.655,-13.383 0.587,-13.763 -8.956,-17.234 -17.097,-21.096 -1.981,-8.428 -8.779,-15.578 -18.336,-17.903 2.55,-2.638 4.182,-5.436 3.449,-8.557 24.742,-4.808 43.537,-37.641 48.45,-52.558 21.839,22.34 31.666,75.62 5.948,103.735 17.388,-46.313 -5.478,-83.983 -5.479,-83.943 -1.483,1.318 -2.634,3.03 -3.219,6.048 4.923,21.458 4.35,26.553 2.967,34.233 -2.274,-10.111 -5.675,-17.975 -9.127,-25.872 -7.363,8.932 -19.12,18.555 -29.715,23.631 6.394,4.321 10.123,9.692 11.922,15.309 9.801,3.401 17.622,12.251 17.778,21.739 7.817,10.942 4.67,18.127 3.107,25.005 -4.928,2.767 -16.549,1.57 -20.927,6.572"
         id="path3276"
         style="fill:#00adef;fill-opacity:1;fill-rule:nonzero;stroke:none" /><path
         d="m 503.875,179.375 -48,59.625 C 446.36125,230.95625 439.1325,224.83 425.90625,213.34375 389.72,245.345 374.025,262.685 343.40625,291.21875 328.78375,285.6625 324.19875,283.735 312.6875,280.25 L 277.96875,328 c 1.98,-14.205 2.9475,-20.94125 4.875,-38.34375 -37.22375,39.275 -107.00625,119.14875 -115,128.46875 4.05,0.2525 6.4625,-0.007 9.59375,0.34375 -7.65375,12.1375 -13.935,23.6425 -21.1875,36.0625 -2.44375,-2.8875 -4.84875,-5.1825 -7.71875,-8.1875 -6.58875,17.7575 -12.97375,46.00625 -17.625,55.3125 -0.14438,0.28875 -0.21359,0.59165 -0.25,0.90625 -53.387759,67.882 -54.911799,115.29223 -43,165.46875 -23.53625,21.0575 -37.25125,33.2925 -85.75,77.3125 27.81375,11.60125 43.09,18.1825 76.3125,30.75 41.17875,-8.56 66.2975,-13.02125 112.65625,-22.25 C 333,786.94 486.715,751.88 618.84375,663.21875 c 115.59625,12.47375 108.05,-88.19875 104.125,-107.75 3.32778,-8.37706 4.984,-14.14914 8.125,-21.375 0.0699,0.0323 0.0833,0.0287 0.15625,0.0625 47.86625,-103.30625 2.3875,-165.95 -75.65625,-192.375 2.8075,-19.00375 -6.29625,-31.37875 -17.0625,-30.9375 -8.4575,0.34625 -24.03,1.97125 -36.71875,9.46875 C 583.115,299.375 535.28625,253.59 520.25,234.78125 c 1.5525,-14.875 3.40875,-26.64375 4.15625,-37.78125 -7.65375,8.34 -15.3275,17.66875 -27.15625,30.1875 3.13125,-19.8375 4.19125,-27.27875 6.625,-47.8125 z M 489.75,209.5 c -1.61,12.455 -3.71625,23.2325 -6.5625,47.90625 11.5475,-13.28625 15.08875,-16.58 28.71875,-31.78125 -1.43125,8.4775 -3.76,21.1325 -6.78125,37.03125 7.36125,-4.11875 10.2125,-5.655 17.5,-10.03125 11.02125,12.87625 43.20625,49.64875 70.8125,81.0625 14.48625,-13.80875 39.76875,-12.98875 43.78125,-10.65625 7.85625,4.56625 5.1,13.68375 3.28125,25.625 86.1025,25.89125 119.1875,92.70375 79.09375,179.8125 0.0853,0.0461 0.10427,0.0488 0.1875,0.0937 -3.74587,6.8151 -6.61685,12.5163 -10.3125,18.28125 4.78125,49.26125 -0.8725,68.45125 -25.125,88.65625 -19.6,16.33 -50.56125,22.1025 -68.4375,16.28125 14.71375,-10.85875 16.5875,-15.615 18.4375,-22.3125 -9.86,3.49625 -27.57125,6.7425 -42,6.53125 9.045,-7.58375 24.67875,-22.73875 28.53125,-33.1875 -113.7425,81.7275 -196.69625,76.955 -274.75,85.71875 58.385,10.04125 121.9025,9.62625 228.75,-25.6875 -65.12625,37.99625 -116.1125,57.17875 -227.625,57.3125 27.005,10.90375 66.6525,9.54875 104.8125,6.4375 -136.43,40.82625 -238.80375,31.19 -304.03125,-9.03125 5.945,14.38375 16.21125,20.025 24.84375,26.09375 C 150.47625,748.0625 111.68,757.19 80.5,763.8125 64,756.9475 33.99875,745.25 25.625,740.53125 c 21.94875,-20.5725 74.01875,-67.675 79.40625,-73.0625 -14.15,-27.10625 -11.305,-72.53375 4.375,-103.34375 5.0625,28.50625 10.19125,48.27375 30.84375,64.59375 -15.42875,-35.84125 -17.46625,-47.5375 -16.28125,-73.6875 12.39625,19.74 24.6425,36.99625 38.1875,41 C 136.8,557.3075 137.375,538.53375 140.3125,509.5625 c -0.0135,-0.006 -0.0179,-0.0256 -0.0312,-0.0312 2.43424,-17.7731 5.40179,-25.98576 10.65625,-37.3125 2.26625,1.8625 4.23375,3.44875 6.5,5.3125 8.40375,-22.9 27.9625,-53.66125 42.90625,-71.9375 -5.06875,0.0688 -6.4075,0.2675 -9.84375,0.25 25.2225,-27.85625 36.8125,-42.42875 70.53125,-79.375 -2.6675,20.13125 -3.535,25.55625 -5.96875,40.4375 19.56875,-26.8775 44.12625,-53.8375 58.46875,-72.375 11.12625,3.71125 15.65125,5.835 28.875,10.84375 30.58245,-28.78255 55.1237,-54.7463 82.5937,-80.2813 8.98375,7.9575 15.4875,14.24625 28.96875,27.4375 C 471.08875,233.175 477.1,224.37625 489.75,209.5 z"
         transform="matrix(0.8,0,0,-0.8,0,792)"
         id="path3278"
         style="fill:#00adef;fill-opacity:1;fill-rule:nonzero;stroke:none" /><path
         d="m 370.34375,559.90625 -21.09375,4.6875 2.59375,3.625 -22.875,21.90625 12.71875,-3.15625 6.1875,-5.53125 11.15625,-2 -1.40625,3.40625 12.84375,-2.96875 -0.125,-19.96875 z M 363.5,567.125 l -4.21875,7.96875 -5.1875,1.28125 9.40625,-9.25 z"
         transform="matrix(0.8,0,0,-0.8,0,792)"
         id="path3282"
         style="fill:#00adef;fill-opacity:1;fill-rule:nonzero;stroke:none" /><path
         d="m 319.691,350.148 -13.56,-3.808 2.176,-2.929 -8.966,-14.55 24.015,5.481 2.497,5.055 -13.657,-3.219 7.495,13.97 z"
         id="path3284"
         style="fill:#00adef;fill-opacity:1;fill-rule:nonzero;stroke:none" /><path
         d="m 385.029,361.271 c -5.989,1.652 -11.312,-3.878 -3.346,-2.363 19.996,3.805 3.81,-10.142 -5.706,-12.235 -3.421,-0.753 -6.895,-1.848 -10.828,-1.307 -3.169,0.437 -4.359,2.535 -1.888,4.35 1.482,1.089 4.583,1.517 6.115,1.458 0.841,-0.032 3.208,-1.248 6.25,-0.736 6.667,1.122 6.143,4.877 -1.891,3.525 -1.931,-0.326 -4.81,-0.996 -5.461,0.091 -3.578,5.973 14.566,12.212 20.63,12.212 10.556,0 1.964,-5.989 -3.875,-4.995"
         id="path3286"
         style="fill:#00adef;fill-opacity:1;fill-rule:nonzero;stroke:none" /><path
         d="m 411.689,371.771 -13.861,-3.245 2.536,-2.995 -8.974,-14.635 9.278,2.188 8.441,9.063 2.894,-6.239 12.114,2.839 -4.471,6.603 0.003,2.158 13.642,9.963 -16.123,-4.678 -7.471,-6.988 1.992,5.966 z"
         id="path3288"
         style="fill:#00adef;fill-opacity:1;fill-rule:nonzero;stroke:none" /><path
         d="m 572.59375,511.65625 -21.0625,4.6875 2.5625,3.625 -22.84375,21.90625 12.6875,-3.15625 6.1875,-5.53125 11.15625,-2 -1.40625,3.40625 12.84375,-2.96875 -0.125,-19.96875 z m -7.0625,7.5625 -4.21875,7.96875 -5.1875,1.28125 9.40625,-9.25 z"
         transform="matrix(0.8,0,0,-0.8,0,792)"
         id="path3290"
         style="fill:#00adef;fill-opacity:1;fill-rule:nonzero;stroke:none" /><path
         d="m 446.375,541.875 -21.09375,4.6875 2.59375,3.625 -22.875,21.90625 12.71875,-3.15625 6.1875,-5.53125 11.15625,-2 -1.40625,3.40625 L 446.5,561.84375 446.375,541.875 z m -6.65625,7.375 -4.21875,7.96875 -5.1875,1.28125 9.40625,-9.25 z"
         transform="matrix(0.8,0,0,-0.8,0,792)"
         id="path3292"
         style="fill:#00adef;fill-opacity:1;fill-rule:nonzero;stroke:none" /><path
         d="m 561.527,340.338 c 0,0 -1.581,-0.628 -5.994,-4.019 1.917,30.54 -17.013,59.9 -41.107,72.641 -1.663,-6.346 -6.218,-11.225 -11.541,-14.659 0.163,0.104 0.329,0.205 0.49,0.313 5.784,-1.947 12.635,-10.251 17.266,-17.095 2.361,-0.478 -0.682,8.71 1.723,9.259 16.337,-8.969 16.951,-27.952 18.354,-39.489 2.455,2.232 3.825,4.751 4.908,7.81 6.588,-12.655 9.403,-42.727 4.128,-57.378 0.116,0.328 0.231,0.66 0.342,1.002 9.334,10.858 12.935,25.099 11.431,41.615"
         id="path3308"
         style="fill:#ffffff;fill-opacity:1;fill-rule:nonzero;stroke:none" /><path
         d="m 463.901,452.744 c 3.261,0.177 5.392,-3.573 7.826,-4.032 3.555,-0.669 12.631,-1.649 21.758,-1.837 11.874,-0.246 23.833,1.956 23.833,1.956 0,0 -4.832,-12.628 -12.439,-14.229 2.953,4.328 1.767,8.893 1.767,8.893 0,0 -1.799,-2.965 -4.919,-4.268 0.058,3.082 -0.239,4.387 -0.239,4.387 0,0 -2.608,-4.506 -4.861,-5.218 0.771,3.617 -1.601,4.98 -1.601,4.98 0,0 -2.133,-3.853 -4.861,-4.742 0.415,4.327 -0.711,4.861 -0.711,4.861 0,0 -3.32,-5.632 -9.19,-9.663 0.949,10.552 -0.77,12.034 -0.77,12.034 0,0 -2.609,-2.726 -7.766,-4.624 1.778,3.439 -1.72,5.928 -1.72,5.928 0,0 -2.846,-4.03 -5.929,-4.267 0.533,2.371 -0.949,7.529 -0.178,9.841"
         id="path3312"
         style="fill:#ffffff;fill-opacity:1;fill-rule:nonzero;stroke:none" /><path
         d="m 463.901,452.744 c 3.261,0.177 5.392,-3.573 7.826,-4.032 3.555,-0.669 12.631,-1.649 21.758,-1.837 11.874,-0.246 23.833,1.956 23.833,1.956 0,0 -4.832,-12.628 -12.439,-14.229 2.953,4.328 1.767,8.893 1.767,8.893 0,0 -1.799,-2.965 -4.919,-4.268 0.058,3.082 -0.239,4.387 -0.239,4.387 0,0 -2.608,-4.506 -4.861,-5.218 0.771,3.617 -1.601,4.98 -1.601,4.98 0,0 -2.133,-3.853 -4.861,-4.742 0.415,4.327 -0.711,4.861 -0.711,4.861 0,0 -3.32,-5.632 -9.19,-9.663 0.949,10.552 -0.77,12.034 -0.77,12.034 0,0 -2.609,-2.726 -7.766,-4.624 1.778,3.439 -1.72,5.928 -1.72,5.928 0,0 -2.846,-4.03 -5.929,-4.267 0.533,2.371 -0.949,7.529 -0.178,9.841 z"
         id="path3314"
         style="fill:none;stroke:#a7a5a6;stroke-width:1.97087407;stroke-linecap:butt;stroke-linejoin:miter;stroke-miterlimit:4;stroke-opacity:1;stroke-dasharray:none" /><path
         d="m 462.479,409.525 c 0.711,1.008 4.683,3.735 4.683,3.735 l 1.898,-2.609 c 0,0 3.913,1.72 4.743,4.21 1.363,0 1.659,-1.957 1.659,-1.957 0,0 3.854,1.304 5.218,6.581 2.549,-1.956 3.26,-6.581 3.26,-6.581 0,0 2.431,1.009 3.676,3.379 1.779,0 2.786,-2.134 2.786,-2.134 0,0 0.771,-0.119 2.846,2.787 2.253,-1.542 1.304,-3.024 1.304,-3.024 0,0 3.697,2.075 6.521,5.751 1.602,-3.32 1.009,-8.182 -0.355,-8.478 -11.561,-0.949 -13.872,0.356 -18.911,-0.711 -5.041,-1.068 -12.096,-2.727 -14.112,-2.609 -2.014,0.118 -4.564,0.652 -5.216,1.66"
         id="path3316"
         style="fill:#ffffff;fill-opacity:1;fill-rule:nonzero;stroke:none" /><path
         d="m 462.479,409.525 c 0.711,1.008 4.683,3.735 4.683,3.735 l 1.898,-2.609 c 0,0 3.913,1.72 4.743,4.21 1.363,0 1.659,-1.957 1.659,-1.957 0,0 3.854,1.304 5.218,6.581 2.549,-1.956 3.26,-6.581 3.26,-6.581 0,0 2.431,1.009 3.676,3.379 1.779,0 2.786,-2.134 2.786,-2.134 0,0 0.771,-0.119 2.846,2.787 2.253,-1.542 1.304,-3.024 1.304,-3.024 0,0 3.697,2.075 6.521,5.751 1.602,-3.32 1.009,-8.182 -0.355,-8.478 -11.561,-0.949 -13.872,0.356 -18.911,-0.711 -5.041,-1.068 -12.096,-2.727 -14.112,-2.609 -2.014,0.118 -4.564,0.652 -5.216,1.66 z"
         id="path3318"
         style="fill:none;stroke:#a7a5a6;stroke-width:1.97087407;stroke-linecap:butt;stroke-linejoin:miter;stroke-miterlimit:4;stroke-opacity:1;stroke-dasharray:none" /><path
         d="m 426.944,512.543 c -5.205,-0.839 -11.734,-0.835 -16.713,0.379 -14.781,7.274 -48.874,21.131 -53.517,-0.714 -3.869,-18.205 0.024,-28.752 15.646,-39.217 -2.724,-6.666 -10.212,-31.033 5.742,-49.911 -3.487,20.54 -6.155,36.892 4.321,53.767 -14.787,7.713 -19.284,19.466 -16.625,33.053 2.357,12.048 27.728,2.867 48.622,-7.757 0,2.733 -2.579,5.695 -0.298,6.453 0.911,0 5.698,2.05 12.822,3.947"
         id="path3320"
         style="fill:#231f20;fill-opacity:1;fill-rule:nonzero;stroke:none" /><path
         d="m 426.944,512.543 c -5.205,-0.839 -11.734,-0.835 -16.713,0.379 -14.781,7.274 -48.874,21.131 -53.517,-0.714 -3.869,-18.205 0.024,-28.752 15.646,-39.217 -2.724,-6.666 -10.212,-31.033 5.742,-49.911 -3.487,20.54 -6.155,36.892 4.321,53.767 -14.787,7.713 -19.284,19.466 -16.625,33.053 2.357,12.048 27.728,2.867 48.622,-7.757 0,2.733 -2.579,5.695 -0.298,6.453 0.911,0 5.698,2.05 12.822,3.947 z"
         id="path3322"
         style="fill:#000000;stroke:#231f20;stroke-width:0.42570883;stroke-linecap:butt;stroke-linejoin:miter;stroke-miterlimit:2.61299992;stroke-opacity:1;stroke-dasharray:none" /><path
         d="m 389.72,478.118 c -14.839,2.032 -21.535,23.299 -20.468,30.058 13.072,3.912 40.552,-9.871 40.552,-9.871 l -22.322,0.342 c 0,0 1.157,-9.057 8.271,-15.638 -4.091,-0.355 -10.887,3.989 -11.561,5.425 -0.852,-1.499 -0.355,-3.202 5.528,-10.316"
         id="path3324"
         style="fill:#c1c3c7;fill-opacity:1;fill-rule:nonzero;stroke:none" /><path
         d="m 408.384,497.358 c -11.52,4.471 -23.645,7.957 -34.028,6.896 4.487,-5.077 13.844,-16.168 21.068,-20.84 -1.695,5.634 -4.308,8.138 -5.269,12.207 4.224,1.326 11.222,1.599 18.229,1.737"
         id="path3326"
         style="fill:#000000;fill-opacity:1;fill-rule:nonzero;stroke:none" /><path
         d="m 408.384,497.358 c -11.52,4.471 -23.645,7.957 -34.028,6.896 4.487,-5.077 13.844,-16.168 21.068,-20.84 -1.695,5.634 -4.308,8.138 -5.269,12.207 4.224,1.326 11.222,1.599 18.229,1.737 z"
         id="path3328"
         style="fill:none;stroke:#231f20;stroke-width:0.42570883;stroke-linecap:butt;stroke-linejoin:miter;stroke-miterlimit:2.61299992;stroke-opacity:1;stroke-dasharray:none" /><path
         d="m 486.607,522.701 c 0,0 18.497,8.062 20.869,4.742 2.372,-3.319 -2.134,-15.414 -2.134,-15.414 l -4.981,3.795 c 0,0 3.569,6.536 3.537,8.492 -1.185,1.897 -8.753,-4.461 -8.753,-4.461 l -8.538,2.846 z"
         id="path3330"
         style="fill:#ffffff;fill-opacity:1;fill-rule:nonzero;stroke:none" /><path
         d="m 370.418,575.15 -19.071,-20.946 8.911,4.064 -15.163,-18.446 13.286,1.407 10.786,22.198 -5.939,-5.003 7.19,16.726 z"
         id="path3332"
         style="fill:#c1c3c7;fill-opacity:1;fill-rule:nonzero;stroke:none" /><path
         d="m 190.412,495.341 -18.447,-19.084 10.097,5.716 -16.428,-20.64 15.176,5.942 8.742,17.836 -5.172,-3.925 6.032,14.155 z"
         id="path3334"
         style="fill:#c1c3c7;fill-opacity:1;fill-rule:nonzero;stroke:none" /><path
         d="m 429.753,548.905 c 0.77,-1.245 6.766,-2.655 6.766,-2.655 0,0 -5.403,-0.428 -6.233,-1.851 -0.829,-1.423 -0.355,-4.98 -0.355,-4.98 0,0 -2.194,2.194 -4.683,2.727 -2.49,0.534 -6.345,-3.794 -6.345,-3.794 0,0 1.602,4.684 1.009,5.928 -0.593,1.246 -6.224,2.313 -6.224,2.313 0,0 4.919,-0.119 5.987,2.253 1.066,2.371 -0.474,6.166 -0.474,6.166 0,0 4.297,-3.585 6.239,-3.216 1.942,0.37 4.134,3.868 4.134,3.868 0,0 -0.592,-5.514 0.179,-6.759"
         id="path3336"
         style="fill:#ffffff;fill-opacity:1;fill-rule:nonzero;stroke:none" /><path
         d="m 251.903,228.495 c 0.967,-1.562 8.493,-3.333 8.493,-3.333 0,0 -6.781,-0.537 -7.823,-2.323 -1.042,-1.786 -0.447,-6.25 -0.447,-6.25 0,0 -2.753,2.753 -5.878,3.423 -3.125,0.67 -7.963,-4.763 -7.963,-4.763 0,0 2.01,5.879 1.266,7.442 -0.745,1.563 -7.815,2.903 -7.815,2.903 0,0 6.177,-0.151 7.516,2.828 1.34,2.975 -0.595,7.738 -0.595,7.738 0,0 5.395,-4.499 7.832,-4.035 2.438,0.463 5.191,4.854 5.191,4.854 0,0 -0.744,-6.921 0.223,-8.484"
         id="path3338"
         style="fill:#ffffff;fill-opacity:1;fill-rule:nonzero;stroke:none" /><path
         d="m 207.447,207.466 c 0,0 1.157,2.099 0.712,2.889 -0.4,0.711 -0.978,0.223 -2.001,1.201 -1.022,0.978 -0.533,3.335 1.912,2.801 2.446,-0.533 1.334,-3.423 1.334,-3.423 0,0 3.246,-3.513 4.891,-1.735 1.645,1.779 0.4,3.557 2.09,4.403 1.69,0.844 3.735,-1.023 2.801,-2.936 -0.934,-1.911 -2.979,0.045 -3.202,-2.178 -0.222,-2.223 0.223,-3.424 1.601,-3.335 1.379,0.089 2.179,0.89 3.38,0 1.2,-0.889 2.179,-2.89 -0.623,-3.291 -2.801,-0.399 -1.29,0.579 -3.735,1.158 -2.445,0.577 -2.756,-2.58 -1.957,-3.691 0.801,-1.112 2.402,-0.356 2.313,-2.668 -0.089,-2.312 -2.801,-2.713 -4.002,-1.023 -1.2,1.69 0.089,2.801 -0.489,4.047 -0.578,1.244 -2.357,1.822 -3.824,1.289 -1.467,-0.534 -0.489,-2.224 -2.134,-3.424 -1.645,-1.2 -4.313,0.4 -3.157,2.4 1.156,2.001 2.134,0.846 3.023,1.779 0.89,0.934 -1.289,3.691 -2.623,3.468 -1.334,-0.222 -1.601,-0.711 -3.335,0.445 -1.734,1.157 -0.222,3.913 1.645,3.958 1.868,0.044 2.402,-1.735 3.024,-2.269 0.622,-0.532 2.356,0.135 2.356,0.135"
         id="path3340"
         style="fill:#e9e9e9;fill-opacity:1;fill-rule:nonzero;stroke:none" /><path
         d="m 172.041,214.346 c 0,0 1.078,1.217 0.901,1.806 -0.158,0.531 -0.613,0.293 -1.144,1.091 -0.53,0.801 0.144,2.287 1.682,1.569 1.538,-0.717 0.372,-2.463 0.372,-2.463 0,0 1.624,-2.808 2.977,-1.877 1.353,0.93 0.795,2.293 2.039,2.599 1.244,0.308 2.318,-1.233 1.415,-2.358 -0.903,-1.126 -1.965,0.474 -2.443,-0.964 -0.479,-1.437 -0.363,-2.298 0.561,-2.444 0.926,-0.148 1.574,0.263 2.236,-0.504 0.661,-0.768 1.01,-2.238 -0.903,-2.084 -1.913,0.153 -0.767,0.574 -2.298,1.322 -1.531,0.747 -2.208,-1.295 -1.844,-2.149 0.363,-0.855 1.534,-0.594 1.131,-2.111 -0.404,-1.514 -2.258,-1.376 -2.8,-0.079 -0.541,1.297 0.476,1.84 0.281,2.75 -0.198,0.909 -1.287,1.558 -2.337,1.424 -1.051,-0.135 -0.656,-1.398 -1.923,-1.947 -1.267,-0.549 -2.793,0.908 -1.73,2.059 1.063,1.151 1.537,0.24 2.265,0.726 0.728,0.484 -0.302,2.633 -1.217,2.684 -0.916,0.052 -1.166,-0.231 -2.14,0.792 -0.975,1.024 0.437,2.622 1.679,2.372 1.241,-0.248 1.329,-1.504 1.661,-1.951 0.332,-0.445 1.579,-0.263 1.579,-0.263"
         id="path3342"
         style="fill:#e9e9e9;fill-opacity:1;fill-rule:nonzero;stroke:none" /></g></g></svg>