<svg version="1.1" id="Layer_1" xmlns="http://www.w3.org/2000/svg" x="0" y="0" viewBox="0 0 318.9 272.1" style="enable-background:new 0 0 318.9 272.1" xml:space="preserve"><style>.st0{fill:#98989a}.st1{fill:#636569}.st2{fill:#0a2240}.st3{fill:#aa182c}.st4{fill:#fff}</style><path class="st0" d="m226.3 164.3.1-.4 92.5-57.5h-90.5V0l-7.6 11.7V114h72l-77.1 47.6v.2l31.5 73.8-52.8-28.9a129.7 129.7 0 0 1-35 34.2v31.4s14.7-8.7 30.6-27.4c2.5 3 6.7 6 12.9 8.5 5.3 2.2 9.8 3.1 13.4 3.1 5.5 0 9-2.1 10.1-5l3.9-9.5c.5-1.2.9-3.1-.2-5.6l37.9 21.7-41.7-93.8z"/><path class="st1" d="m124.5 206.5-52.7 28.8 31.4-73.8-77.1-47.6H98V11.4c17.1 7 38.5 11.1 61.7 11.1 22.9 0 44-4 61-10.8L228.4 0a158.3 158.3 0 0 1-69 14.9c-25.9 0-49.8-5.6-69-14.9v106.5H0l92.5 57.4.1.5L51 257.8l62.1-35.5a149 149 0 0 0 46.4 49.8v-31.4a128 128 0 0 1-35-34.2z"/><path class="st2" d="M215.6 161.7v-.2l77.1-47.6h-72V11.7c-17 6.8-38.1 10.8-61 10.8-23.2 0-44.6-4.2-61.7-11.1V114H26.1l77.1 47.6-31.4 73.8 52.7-28.8c16.6 23.3 35 34.2 35 34.2s18.3-10.8 35-34.2l52.8 28.9-31.7-73.8z"/><path class="st3" d="m167.1 57.1 8.6 19.4h36V57.1zM151.9 57.1h-44.8v19.4h36.1zM192.6 113.9h19.1V96.2h-27.1zM134.3 96.2h-27.2v17.7h19.3zM132 202.4l.1.1h55.1l-27.7-15.2zM167.8 163.3h-16.4l4.3-14.7h7.8z"/><path class="st4" d="m203.3 137.9 5.4 11.8 46.4-26.6h-69.7l-25.9-62.8-26.5 62.8H63.7l46.5 26.6 5.4-11.9h11l-28.4 67.3 55.4-29.1h-20l13.9-38.1h23.7l13.9 38.1h-20l54 29.1-27.8-67.3h12zm-50.4-14.8 6.4-17.7 6.4 17.7h-12.8z"/><path class="st1" d="m110.3 149.8-10.8-19.2h40.8l-13.7 7.3h-11z"/><path class="st1" d="M140.3 130.6h38.1l-7.2 7.3h-23.6l-14 38.1h20l-55.4 29.1 24.2-29.6zM159.4 105.5V83.2l-19.1 47.4 12.6-7.5z"/><g><path class="st0" d="M159.4 60.3v22.9l19 47.4 6.9-7.5zM219.3 130.6l-16 7.3h-11.9l27.7 67.2-22.1-28.5-18.6-46z"/><path class="st0" d="m219.3 130.6-10.6 19.1 46.3-26.6z"/></g><path class="st3" d="M191.7 225a8.5 8.5 0 0 1 4-3.2c-9.5-2.5-20-3.9-31-4.3-34.8-1.5-64.3 10-73.4 28 13.6-13.7 39.1-22.5 68.4-21.9 10.9.2 21.3 1.8 30.7 4.3l1.3-2.9z"/><path class="st1" d="m187.4 235.3 1.3-3.2c-5.3-1.5-10.9-2.6-16.7-3.4-33.4-4.4-62.4 3.8-71.5 18.4 14.1-11.3 38.9-15.9 66.2-12.3 7.1 1 14 2.5 20.4 4.5-.3-1.4-.2-2.8.3-4z"/><g><path class="st2" d="M222.8 243.1c-3.7.6-9.1-.3-14.7-2.6-9-3.7-15.1-9.7-13.5-13.4 1.5-3.7 10-3.7 19 0s15.1 9.7 13.5 13.4l-3.9 9.5c-1.5 3.7-10 3.7-19 0s-15.1-9.7-13.5-13.4l1.8-4.4c2.1 3.2 6.5 6.7 12.1 9.3 8.1 4 16 4.6 18.2 1.6z"/></g><path class="st3" d="m213 228.1.2 4.8 5.7 2.3-5.6.7.2 4.8-3.7-4.4-5.7.7 3.4-3.4-3.6-4.4 5.7 2.3z"/><g><path class="st4" d="m133.1 32.2.2-1.4-5.2-.7-1.8 12.5-2.1-13-4.5-.6-.2 1.4c.5.1.9.5.9 1V47c0 .5-.4.9-.9.9l-.2 1.4h4.1l.2-1.4a1 1 0 0 1-1-1V33.4l2.6 14.9h1.7l2.2-14V47c0 .5-.4.9-.9.9l-.2 1.4h4.9l.2-1.4a.9.9 0 0 1-.9-.9V33c0-.5.4-.9.9-.8zM156.6 46l-.3-2.9c-.1-.9-.6-1.7-1.4-2.1 1.2-.5 1.8-1 1.8-3.6 0-2.5-.2-5.4-3.3-5.5l-5.7-.1-.2 1.2c.5 0 .9.4.9.9v13c0 .5-.4.9-.9.9l-.2 1.4h5l.2-1.4c-.4 0-1-.3-1-.8v-5h1.1c.6 0 .7.7.8 1.4l.2 3.2c0 .1.2 2.6 2.4 2.6h1.6l.2-1.5c-.7.1-1.1-.5-1.2-1.7zm-2.9-8.1c0 1.4-.1 2.4-1.2 2.4h-1.1v-6.4h1.2c.9 0 1.1 1.2 1.1 2.2v1.8zM202.1 28.6l-4.1.6-.2 1.5c.5-.1 1 .3 1 .8v11l-3.3-12.9-3.9.6-.2 1.5c.5-.1.9.3.9.8V47c0 .5-.4.9-.9.9l-.2 1.4h4.1l.2-1.4a1 1 0 0 1-1-1V35l4 14.3h2.5V31.1c0-.5.4-.9.9-1l.2-1.5zM176.2 31.7l-1.5.1-.1.7c-.4-.4-1-.6-1.7-.6l-2.1.1a2.8 2.8 0 0 0-2.6 2.7V47c0 1.3 1.1 2.4 2.4 2.4h3.2c1.4 0 2.6-1.1 2.6-2.6v-3.5h-2.7v3.4c0 .4-.3.7-.7.7h-.9a.7.7 0 0 1-.7-.7V34.6c0-.4.3-.7.7-.7h.9c.4 0 .7.3.7.7v4.2H176.5l-.1-.2v-6.9zM142.6 44.4v2.5c0 .2-.2.4-.4.4H140v-5.7h3.3v-1.8H140v-6.6l1.9.1c.2 0 .4.2.4.5V36l2 .1v-4.5l-8.1-.6-.2 1.4c.5 0 .9.5.9 1V47c0 .5-.4.9-.9.9l-.2 1.4h8.9v-4.8h-2.1zM165.1 33.5l.2-1.4h-5l-.2 1.4c.5 0 1 .4 1 1v12.4c0 .5-.4 1-1 1l-.2 1.4h5l.2-1.4a1 1 0 0 1-1-1V34.5c0-.5.4-1 1-1zM211.7 37.6l-3.7-2.1c-.2-.1-.3-.3-.3-.6V30c0-.3.3-.7.6-.7l.7-.1c.3-.1.6.1.6.4v5.3h2.7v-8.3l-1.5.3-.1.6c-.4-.3-1-.4-1.6-.2l-2 .4a3 3 0 0 0-2.3 2.8v5.3c0 .6.3 1.1.8 1.4l3.6 2c.2.1.3.3.3.6v7c0 .3-.3.6-.6.6h-.7a.6.6 0 0 1-.6-.6v-6.3h-2.9v8.7h1.5l.1-.6c.4.4 1 .6 1.6.6h2.3c1.2 0 2.3-1 2.3-2.3v-8c0-.5-.3-1-.8-1.3zM116.3 46.9 114 28.1l-4.8-1-.2 1.4c.4.1.8.6.7 1l-2.1 17.6c-.1.5-.6.9-1.1.9l-.2 1.4h4.3l.2-1.4a.8.8 0 0 1-.8-1l.3-1.6h2.7l.2 1.7c.1.5-.3 1-.8 1l-.2 1.4h5.1l.2-1.4c-.6-.3-1.1-.6-1.2-1.2zm-5.8-3.4 1.2-12.2 1 12.2h-2.2zM188.1 46.9l-2.4-16.1-4.8.5-.2 1.4c.4 0 .8.3.7.8l-2.1 13.4c-.1.5-.6.9-1.1.9l-.2 1.4h4.3l.2-1.4a.8.8 0 0 1-.8-1l.3-1.6h2.7l.2 1.7c.1.5-.3 1-.8 1l-.2 1.4h5.1l.2-1.4c-.5-.1-1-.4-1.1-1zm-5.8-3.4 1.2-8.7 1 8.7h-2.2z"/></g></svg>