<?xml version="1.0" encoding="utf-8"?>
<svg xmlns="http://www.w3.org/2000/svg" id="Layer_1" data-name="Layer 1" viewBox="0 0 330.7 340.2">
  <defs>
    <style>
      .cls-1 {
        fill: #111921;
      }

      .cls-2 {
        fill: #7d5127;
      }

      .cls-3 {
        fill: #79242f;
      }

      .cls-4 {
        fill: #bd9d79;
      }

      .cls-5 {
        fill: #fff;
      }

      .cls-6 {
        fill: #93a3af;
      }

      .cls-7 {
        fill: #53565b;
      }

      .cls-8 {
        fill: #50c0e8;
      }

      .cls-9 {
        fill: #91d5eb;
      }

      .cls-10 {
        fill: #ce202e;
      }

      .cls-11 {
        fill: #9f7647;
      }
    </style>
  </defs>
  <path class="cls-1" d="M313.6,284.8c1-3.1,1.7-6.2,1.6-9.2,0-5.1-2-9.5-5.2-12.6l-14.5-15.1c-1-1.1-2.2-2-3.5-2.7l5.5-18.5c1.4-4.7-2.1-9.5-7.1-9.5l-162.1-1.2c-6.1.2-11.6,4-14.7,9.3-8.5-8.6-10.4-11.5-15.3-15.1-16.7-12.1-48.3-15.4-78.5,4.4l11,24.2,5.4,5.5c-5.2,15.4-10.7,30.9-16,46.4-1.4-.8-1.6-.9-7.6-4.8l-12.8,24s9.6,11.8,19.2,18.6c16.6,11.7,53.8,17.7,75.9,3.5,6.4-4.1,11-9.5,13.4-15.6,0,0,3.6,3.7,5.9,6.2,6.1,6.9,19.3,8.4,31.3-1.3,14.5,10.9,38.1,8.7,51.6-1.5,5.3,5.6,10.9,8.7,19.4,8.8,7.1,0,13.5-2.1,19.2-6l4.3,4.7h27.9c1.4-4.9,2.2-8,4.2-13.6.1.1,4.5,4.8,9.4,9.9,11.2,11.6,33.9,5.2,48.8-20.9l-17.1-17.7Z"/>
  <path class="cls-8" d="M151.4,232.7c1.4.5,2.2,1.5,2.2,3,0,4.2-6.5,5.1-11.7,3.2l5.2-15c4.6-1.1,9.2-.3,9.2,3.9,0,2.5-2.2,4.5-5,4.9M145.9,237.1c2.2.4,4.4,0,4.3-1.7,0-1-1.4-1.7-3.1-1.8l-1.2,3.5ZM148,231c2.9.3,5-1.1,5-2.8,0-1.7-1.5-2.2-3.3-2l-1.6,4.8Z"/>
  <polygon class="cls-8" points="159.4 236.6 164.3 236.6 163.3 239.5 155 239.4 160.5 223.6 163.9 223.6 159.4 236.6"/>
  <path class="cls-8" d="M166.5,234.4c0-4.8,3.3-11,8.5-10.9,3.1,0,4.6,2.6,4.5,5.7,0,4.9-3.3,10.7-8.3,10.6-3.3,0-4.8-2.5-4.8-5.4M176.1,229.3c0-1.5-.7-2.5-1.8-2.5-2.5,0-4.4,4.3-4.4,7.4,0,1.5.6,2.3,1.8,2.3,2.3,0,4.4-4.3,4.4-7.2"/>
  <path class="cls-8" d="M180.8,234.4c0-4.8,3.3-11,8.5-10.9,3.1,0,4.6,2.6,4.5,5.7,0,4.9-3.3,10.7-8.3,10.6-3.3,0-4.8-2.5-4.8-5.4M190.4,229.3c0-1.5-.7-2.5-1.8-2.5-2.5,0-4.4,4.3-4.4,7.4,0,1.5.6,2.3,1.8,2.3,2.3,0,4.4-4.3,4.4-7.2"/>
  <polygon class="cls-8" points="207.7 223.8 212 223.8 208.8 239.7 205.4 239.6 208.2 228.2 202.4 239.6 199.4 239.6 200.4 228.7 196.1 239.6 192.7 239.6 199.5 223.8 203.6 223.8 202.4 235.1 207.7 223.8"/>
  <polygon class="cls-8" points="211.1 239.7 216.6 223.9 220 223.9 214.5 239.7 211.1 239.7"/>
  <polygon class="cls-8" points="230.9 223.9 233.9 223.9 228.4 239.8 224.5 239.7 224.2 229.4 220.8 239.7 217.7 239.7 223.2 223.9 226.9 223.9 227.1 235.2 230.9 223.9"/>
  <path class="cls-8" d="M246.5,231.4l-1,2.9h-1c-1.3,4-3.5,5.9-6.9,5.9-2.1,0-4.5-1.5-4.5-5.3,0-4.4,3-11.1,8.4-11.1,3,0,5.1,2.3,4.2,5.7h-3.4c.6-1.8-.2-2.6-1.1-2.6-2.4,0-4.6,4.3-4.7,7.6,0,1.7.6,2.5,1.7,2.5,1.4,0,2.4-1.1,3-2.7h-2.3s1-2.9,1-2.9h6.5Z"/>
  <polygon class="cls-8" points="258.3 226.9 255 226.9 250.5 239.8 247.1 239.8 251.6 226.9 248.3 226.8 249.3 224 259.3 224.1 258.3 226.9"/>
  <path class="cls-8" d="M257.3,234.8c0-4.8,3.3-11,8.5-10.9,3.1,0,4.6,2.6,4.5,5.7,0,4.9-3.3,10.7-8.3,10.6-3.3,0-4.8-2.5-4.8-5.4M266.9,229.7c0-1.5-.7-2.5-1.8-2.5-2.5,0-4.4,4.3-4.4,7.4,0,1.5.6,2.3,1.8,2.3,2.3,0,4.4-4.3,4.4-7.2"/>
  <polygon class="cls-8" points="283 224.2 286 224.2 280.5 240 276.6 240 276.3 229.6 272.9 239.9 269.8 239.9 275.3 224.1 279 224.1 279.3 235.4 283 224.2"/>
  <path class="cls-10" d="M48.5,320.4c-15.4,0-33.9-5.8-41.4-11.1l-1.2-.8,8.6-16.1,1.5.9c1.9,1.2,4.2,2.5,7,3.8,2.7-8.1,5.6-16.2,8.4-24.2,4.2-11.9,8.5-24.2,12.4-36.2l.4-1.1h19.5c0,0-8.5,24.6-8.5,24.6,16.6-.3,34-6.9,34.1-20.9,0-3.8-1.3-7.1-4-9.8-4.2-4.2-11.7-6.7-20.5-6.7s-20.8,3.1-30,8.6l-1.6.9-7.3-16,1.2-.8c10.1-6.6,23.7-10.4,37.4-10.4s28.2,4.5,36.1,12.4c5.4,5.4,8.1,12.1,8.1,19.9,0,14.9-12.7,28.1-30.7,32.9,9.7,5.1,14.8,14.1,13.2,24-2.2,13-16.1,26.1-42.4,26.1M40.4,303.1c3.4.7,6.5,1,9.3,1,8,0,14.9-2.3,18.7-6.1,2.1-2.2,3.2-4.7,3.2-7.6,0-7.6-11.2-13.5-22.2-14.5-3.1,8.7-6.2,17.9-9,27.2M280.7,308.8c-4.2,0-7.8-1.3-10.3-3.8-2.5-2.5-3.7-6-3.7-10.2,0-6.5,3.4-13,6.4-18.8,2.1-4.1,4.1-8,4.1-10.5,0-.8-.2-1.5-.6-1.8-.3-.3-.7-.4-1.2-.4-5.1,0-16.5,11.6-25.1,42.8l-.3,1.2h-18.1c0,0,8.3-24,8.3-24-1.7.3-3.4.5-5.1.5s-1.6,0-2.3-.1c-6,18.3-19.9,24.8-30.1,24.8s-15.7-4.2-19.1-11.2c-7.3,7.1-17.6,11.1-28.6,11.1s-18.7-3.2-24.1-8.7c-5.8,5.5-11.4,8.3-16.8,8.3s-9.5-1.7-11.9-5.2c-6.6-9.6,1.3-30.5,9-50.6l1.7-4.4h18c0,0-.8,2.3-.8,2.3-1.2,3.1-2.3,6.2-3.5,9.1-5.4,14.2-11,28.8-9,31.8.9,1.3,5.9-.7,11.4-8.3,8-11.9,12.8-22.1,17-36.2l.3-1.2h18.1c0,0,1.8,3.8,1.8,3.8,4.2,8.6,10.1,20.3,9.9,30,0,3.3-.5,6.3-1.5,9,2.4-2.3,4.8-5.2,7.1-8.7,3.3-21.3,18.8-32.5,32.4-32.5s10.9,2,14.6,5.7c3.9,3.9,6.1,9.6,6.3,16.4.7.1,1.5.2,2.2.2,3.6,0,6.7-1.5,9.1-4.3,1.8-5.1,3.6-10.2,5.4-15.3l.4-1.1h17.6c0,0-1.7,4.9-1.7,4.9,4.3-4,9.5-6.2,14.6-6.2,7.5,0,13,5.5,13.1,13,0,5.6-3.5,13.1-6.7,19.6-2.1,4.3-5.2,10.8-4.4,12.1,0,0,.2.1.7.1,2.2,0,8-4.9,13.4-12.8l1.1-1.6,10.1,10.2-.6,1.1c-7.8,13.7-20.1,19.9-28.9,19.9h0ZM142.3,289.3c6.1,7.3,16.7,4.6,16.7-7.2,0-6-1.9-11.9-4-16.5-4,10.7-9.4,19-12.8,23.7M212.3,262.5c-6.1,0-13.3,11.9-13.3,21.9,0,3.3.6,5.6,1.9,6.9.7.7,1.6,1,2.6,1,5.5,0,13.7-9.3,13.8-22.1,0-1.8-.3-7.8-4.9-7.8h0ZM124.6,243.7c-5.4,0-8.9-3.6-8.9-9,0-6.7,5.4-14.2,13.1-14.2s4.7.9,6.4,2.6c1.6,1.6,2.5,3.9,2.5,6.4,0,7.2-6.6,14.3-13.2,14.3h0Z"/>
  <path class="cls-5" d="M124.6,242.1c6,0,11.5-6.6,11.6-12.7,0-4.2-3.1-7.3-7.3-7.3-11.9,0-16.6,20-4.3,20M300.4,280.2c-4.8,7-11.3,13.5-14.8,13.5h0c-8.7,0,8.8-21.8,8.7-33.5-.1-6.6-4.9-11.4-11.5-11.4h0c-6.9,0-14.1,4.3-19.2,12.8l4-11.5h-14.2c-1.8,5.1-3.7,10.3-5.5,15.6-3.7,4.5-9,6-14.4,4.6.1-32.8-44.5-27.9-50.1,9.6-4.8,7.3-9.9,12.1-14.5,14.4,3.9-3.6,5.8-9.2,5.8-15.3.2-10.4-7.1-23.7-11.1-32h-15.9c-4.4,14.6-9.4,24.9-17.3,36.6-7.2,10.1-12.1,9.3-11.8,9.3-7.6,0,1.1-19.6,10-43.4h-14.6c-9.9,26-22.7,56.9,0,56.9s11.7-3.8,16.9-9.1c10.1,12.1,37.9,14,53.1-3,6.4,18.8,38.4,17.5,47.4-12.5,3.7.6,7.5.2,11.1-1-2.8,8.2-5.6,16.5-8.5,24.7h14.6c12.6-45.5,30.1-48.9,30.1-40.1,0,6.6-10.5,18.5-10.5,29.3,0,18.4,26.7,16.4,39.9-6.7l-7.8-7.9ZM140.2,289.3c4.9-6.6,10.9-16.5,14.6-28,3.1,6.2,5.8,13.4,5.8,20.8,0,13.6-13.4,17.1-20.4,7.2M197.4,284.4c0-10.2,7.4-23.5,14.9-23.5h0c4.4,0,6.6,4,6.6,9.4,0,21.7-21.6,32.9-21.5,14.1M106.8,237.4c.1-32.4-50.9-39-79-20.6l6,13.1c24.9-15,57-10.2,56.9,9.2,0,16.4-21.3,22.9-38,22.6l8.5-24.5h-16c-6.7,20.7-14.4,41.4-21.3,62.1-3.1-1.4-6.2-3-8.8-4.7l-7.1,13.3c7,5,25,10.8,40.5,10.8,44.3,0,53.6-38.8,23.9-49,19.5-3.3,34.3-16.7,34.4-32.4M73.2,290.4c0,9.6-10.6,15.3-23.3,15.3h-.2c-3.8,0-7.6-.6-11.4-1.5,3-10.1,6.4-20,10-30.1,12.5.8,24.9,7.4,24.9,16.2"/>
  <path class="cls-9" d="M212.3,259.6h0c2.6,0,4.7,1.2,6.1,3.4l4.3-4s-4.7-7.4-16.2-2.4c-16.3,7-16.7,28.4-16.7,28.4l6.3-1.4c.5-10.8,7.9-23.9,16.2-23.9"/>
  <path class="cls-9" d="M258.6,272.3l7.1-20.8-7.5,5.2-14.8,42.5-7.3,5h11.7c6.8-24.2,14.8-36,21-40.9.1,0,.2-.2.3-.2,2.5-2,4.7-2.8,6.4-2.8s2.4.4,3.3,1.3c.2.2.3.5.5.8,0,.1.2.2.3.4l6-5.1c-5-7.2-19.4,2.1-26.9,14.7"/>
  <path class="cls-9" d="M282.4,293.6c-.8-1.2-.7-3,0-5.3,0,0,0-.1,0-.2,0,0,0,0,0,0,.6-2.2,1.8-4.8,3.2-7.5.3-.6.6-1.3.9-1.9,3-6.3,6.4-13.4,6.4-18.3,0-2.2-1-5.2-2.3-6.7l-5.1,4s2.7,3.9.4,9.7c-2.3,5.8-12.7,23.5-9.6,30.8l6.1-4.5s0,0,0,0"/>
  <path class="cls-9" d="M115.3,292.7c-2.8-4.1,1-14.7,8.6-34.5.9-2.4,1.8-4.8,2.8-7.3l-7.8,5.2s-17,38-6.4,42.2l4.9-4.2c-1-.3-1.6-.9-2-1.4"/>
  <path class="cls-9" d="M306.5,288.3h0s-5.2-.1-5.2-.1c0,0-1,2.7-8.7,8.7-9,7.1-16.3,1.2-16.3,1.2l-4.6,3.8c.2.3.4.6.6.8,0,0,.2.2.3.3,1.9,1.9,4.7,2.9,8.1,2.9s10.4-2,15.8-6.2c1.8-1.4,3.4-3,4.9-4.6,1.8-2,3.5-4.2,5.1-6.8"/>
  <path class="cls-9" d="M65.7,308.7c-23.2,6.6-37.3,0-37.3,0l-12.1-5-6.6,3.9c7.6,4.8,24.8,9.9,38.8,9.9,24.6,0,37.5-11.9,39.5-23.7.6-3.7.1-7.2-1.3-10.5,0,0,0,0,0-.1-.4-1-1-1.9-1.6-2.8,0-.1-.1-.2-.2-.3-.2-.3-.4-.5-.6-.8-2.4,1.5-4.7,3.1-4.7,3.1,0,0,9.4,19.7-13.7,26.3"/>
  <path class="cls-9" d="M235.1,280.8c2.4,0,4.8-.4,7.2-1.2l2.5-.8,8.4-7.8c-12.4,8-27.2,3.2-27.2,3.2l6.3-3.1v-.8c0-6.2-1.7-11.3-4.8-14.9l-4.6,3.5s6.1,6.2,1.9,21c-7.1,24.9-34.3,25.9-34.8,4.9l-4.4,1.3c-7.7,13.5-29.1,14.3-29.1,14.3,5.8-.5,11.7-7.1,11.7-7.1,3.5-3.2,5.4-8.3,5.4-14.3,0-1.1,0-2.3-.2-3.4,0,0,0,0,0,0-.1-1-.3-2.1-.6-3.2,0-.2,0-.5-.2-.7-1.7-7.3-5.6-15.1-8.6-21.2l-.9-1.9-2.6,4.8s5.2,17.2,7,23c1.8,5.7-.9,22.7-14.3,23.4-13.4.7-20.9-9.8-20.9-9.8l6.5-.6.6-.8c3.6-4.8,10.2-14.7,14.4-27.6l1-3.1,5.7-4.5-7.9.3c-3.1,12-15,31.5-23.2,39.3-8.3,7.8-16.7,5.4-16.7,5.4l-5.5,5.1c1.8,1.2,4.1,1.8,7.2,1.8,5,0,10.3-2.9,15.9-8.7l1-1,.9,1.1c4.6,5.5,13.4,8.9,23,8.9s21.3-4.4,28.1-12l1.5-1.7.6,1.7c1.8,4.4,4.6,7.6,8,9.7,2.7,1.5,5.9,2.3,9.4,2.3s8.9-1.2,13.4-4c0,0,.1,0,.2-.1.6-.4,1.1-.7,1.6-1.1,4.2-3.2,7.9-7.9,10.6-13.9.2-.5.5-1,.7-1.6,0,0,0-.2.1-.3.4-1,.7-1.9,1-3l.3-1.1,1.1.2c1.1.2,2.2.3,3.3.3"/>
  <path class="cls-9" d="M39.1,218.7l-4.3,9.1c9.3-5.2,19.8-8.1,29.8-8.1s16.9,2.4,21.8,6.8l5.2-4.3c-16.7-16.4-52.4-3.6-52.4-3.6"/>
  <path class="cls-9" d="M104.5,230.3c0-.2-.1-.4-.2-.7-.2-.5-.3-1-.5-1.6-1.4-3.4-3.7-6.7-6.8-9.6-.1-.1-.2-.2-.3-.3l-5.1,4.2s7.3,7.3,7.3,16.4c0,9.1-11.7,31.1-56.8,28.2l-13.6,41.8,8.3-3.7.3-1.1c3.1-10.3,6.6-20.6,10-30.2l.3-.9h1c10.7.7,22.1,5.8,25.3,13.4l5.8-3.8s-8.1-10.9-24.7-14c26.6,3.4,44.2-9.1,49.2-22.7,0,0,0-.2.1-.3.9-2.6,1.4-5.2,1.4-8,0-2.5-.3-4.9-.9-7.1"/>
  <polygon class="cls-9" points="59.3 238.5 49.9 243.7 42 266.9 51 262.5 59.3 238.5"/>
  <path class="cls-9" d="M120.1,239c.9,1,2.2,1.8,4.5,1.8,5,0,10.2-5.8,10.2-11.4,0-1.7-.6-3.2-1.7-4.3-.3-.3-.6-.5-.9-.7-9,2.2.8,9.1-7.8,11.5-2.3.7-3.6,1.9-4.3,3.1"/>
  <path class="cls-1" d="M280.6,92.8c0-11.9-13.3-20.1-30.6-8,0,0-3,.3-7.2.9,1.4-23,17.1-41.6,17.1-41.6l-27.7-26.1c-2.6,2.1-5.2,3.9-7.8,5.3,1.3-8.4-15.7-18.2-38.4-21.9-22.9-3.8-42.9,0-44.7,8.3,0,.1-.6,8.5-1.9,19.3-8.9,0-18.8-2.9-28.7-11l-27.7,26.1s29.4,34.6,11.4,67.9c-1.9,3.5-3.5,7.1-4.8,10.7-1.5.2-3.1.6-4.7,1.2,0,0-1,2.7-1.8,5.1-.9,0-2.9.2-3.2.2-1.5,1.4-2.8,3-3.9,4.6-2.5-2.2-5-4.6-7.5-7,1.1-19.3,16.7-40.6,19.5-46.9,1.1-2.6.6-5.5-1.4-7.4-5.4-5.4-12.2-9-15.7-10.6-3.3-1.6-7.3-.1-8.9,3.2-8.3,17.5-10.8,37.6-11.6,48.1-.4,4.7,1.3,9.5,4.4,13.1,5.2,5.8,10.6,11.2,16.3,16-2.3,4.9-3.4,8.9-3.5,9.2,1.5,4.8,6,7.1,7.5,7.8-1.2,5,4.9,8.5,9.5,9.3,2.1,2.9,5.1,5.2,9.2,5.7,6.7,8.2,17.5,13.6,32.9,14.2,11.1.4,20.4,3.2,28.1,7.2-.5,9.4,7.1,17.5,16.8,17.5s17.2-8,16.8-17.5c7.7-3.9,17-6.7,28.1-7.2,13.2-.5,23-4.6,29.8-10.8,1,0,2-.2,2.9-.5,0,0,1.2-1.5,2.5-4.1,2.6,0,6,0,8.9-.9,0,0,6.9-9.5,4.1-32.9-.1-2-.4-3.9-.8-5.7,1.3-2.9,2.1-5.1,2.7-7.1,4-6.4,14.3-24,14.4-33.6"/>
  <path class="cls-8" d="M209.1,58c9.7-4.2,11.7-10.5,14-18.4.4-1.4,2.4-1.7,3.2-.5,5,7.9,9.6,16.9,4.2,30.3,2.2,1.1,4.1,2.3,5.7,3.5,2.4-9.8,6.9-19.3,12.3-27.6l-17-16c-4.1,2.6-8.4,4.7-12.8,6.1-2.7,5.7-6.1,13.4-9.6,22.6"/>
  <path class="cls-8" d="M105.2,68c3-2,7.1-3.8,12.1-5.3-1.3-10.7,3.4-17.1,7.6-22,1-1.2,3-.6,3.2.9.9,6.2,1.8,10.7,6.4,15,1.5-5.8,2.7-12.4,3.7-18.7-9.5-.3-18.5-3.1-26.9-8.5l-17,16c2.7,4.2,6.1,10,8.9,17,.7,1.9,1.4,3.7,2,5.6"/>
  <path class="cls-8" d="M135.3,142.1s-.7-1.6-.9-4.5c-4.5-4.5-6.6-8.7-7.5-12.4,0,0,1-3.1,3.7-7.4-2.3-9-2.2-16.6-.6-23.5-8.8-2.2-16.2-4.9-21.4-7.9.7,19-6.6,28.1-10.3,37.3,1.5,4.4,2,10,2.2,12.2.5.5.7.8,2.3,2.7,3.1,2.3,4.4,4.7,4.9,6.5,6.2,1.2,17.3,2.6,28.7,1-.2-1.1-.1-2.2.4-3.6-.5-.1-.9-.3-1.4-.5"/>
  <path class="cls-10" d="M116.5,158.4c6.8,2.6,13.9,4.7,21.2,6.1,2.9-7.1,1.8-10.9.4-13.9-6.8.5-15.2.7-22,0,1,2.2,1.2,4.9.4,7.7"/>
  <path class="cls-10" d="M271.1,84.5c-9.6-4-19.2,4.9-19.2,4.9-15.3,1.1-28.5,6-33.9,8.4,1,10.7-3.3,17.8-3.3,17.8-.2-11.2-1.4-15.3-1.4-15.3l-2.3,2.1c-.7,6.6-2,16.6-3.8,21.2-.5-1.3-1.2-2.6-1.2-2.6-1.3,10.9-7.8,25.7-7.8,25.7,0-6.5-1.5-12.4-1.5-12.4,0,0-4.9,15.8-15.5,22.7,0,0,1.4-5.2,1.2-7.9,0,0-10.6,11.6-19.1,16.4,0,0,.6-4.1-.2-6,0,0-5.7,4.3-11.1,7.2,18.6,1.8,37.7,0,55.1-4.6,1.9-8.8,7.6-17.7,16.2-24.8.7-2.4,1.6-4.6,2.8-6.5-2.4-5.1-8-8.2-8-8.2,4.3.5,9.1-.1,11.8-.6.4-7.2.2-13.9.2-13.9,2.7,3.8,3.9,9.6,4.5,14.1,8.5-5.2,20.2-6.4,31.8-5.6,6.5-11.1,14.4-28.1,4.5-32.2"/>
  <path class="cls-10" d="M150.7,161.4s-4.5,2.2-10.3,3.7c3.2.6,6.3,1,9.6,1.4.4-1.4.9-3.7.7-5.1"/>
  <path class="cls-10" d="M207.9,172c-25.6,7.1-61.4,7.2-91.5-3.3-1.9,2.5-5.8,5.4-8.2,6.5,14.3,7.6,26.7,1.1,49.1,12,6.6-10.2,21.6-10.2,28.2,0,.2,0,.3-.2.5-.2,8.7-4.2,18.2-6.5,28.3-7.1-3.6-2.3-4.7-4.7-6.4-7.9"/>
  <path class="cls-5" d="M233.2,114.9h0c.3,1,.5,2.1.8,3.1,0,.2.1.4.1.6.2,1.1.4,2.1.5,3.1,0,.1,0,.3,0,.4,3.7-3.9,13.1-10.6,33.2-7.9,0,0,0,0,0-.1.8-1.4,1.5-2.8,2.2-4.2,0,0,0,0,0,0,.7-1.5,1.4-3,2.1-4.5,0,0,0,0,0,0-4.2-.7-24-3.3-39.2,9.7"/>
  <path class="cls-5" d="M122.1,170.5c-.7,2.9-1.8,5.8-3.5,8.2,2.7.5,5.5.8,8.3,1,.7,0,1.4,0,2,.1.5-1.7,1.1-4.2,1.7-7.1-.5-.1-1-.3-1.5-.4-2.4-.6-4.7-1.2-7-1.9"/>
  <path class="cls-5" d="M122.7,151.1c.3,2.2.6,5.7.5,9.7,2.7.9,5.5,1.7,8.3,2.4,0-4-.5-8.1-1.9-12.1-2.3,0-4.3,0-7,0"/>
  <path class="cls-6" d="M262.9,104.5c-1.2,3-2.5,6.1-3.7,9,2.7,0,5.6.2,8.7.6,1.6-2.8,3.2-5.9,4.5-9-1.5-.3-5-.8-9.5-.7M122.1,170.5h0c-.3,1.3-.7,2.6-1.2,3.9,2.6.9,5.5,1.8,8.8,2.8.3-1.3.7-2.8.9-4.4-2.8-.7-5.7-1.4-8.5-2.3"/>
  <path class="cls-8" d="M229.9,175.7h0c.2,0,.2,0,0,0"/>
  <path class="cls-8" d="M259.8,131.8s0,0,0,0c1.4-2.9,2.7-7.3,3-10.8-11.7-.4-29.1,3-33.5,14.2,8.9-1.8,21.3-3.6,30.5-3.4"/>
  <path class="cls-8" d="M231.7,144.8c7.9-1.7,21.4-4.4,29.4-4.6,0-1.3-.2-2.5-.4-3.8-8.9.4-21.6,1.5-30.3,3.5.4,1.4.8,3,1.2,4.8"/>
  <path class="cls-8" d="M229.9,175.7c.8.4,1.8.8,2.7,1,1.7-1.5,4.8-4.4,7-8.6-1.6.2-3.6.5-5.3.7-1.4,2.9-2.9,5.1-4.5,6.9"/>
  <path class="cls-8" d="M225.6,141.8c-9.3,6.9-13.2,19-13.2,19,2.4-.6,3.7-1.2,3.7-1.2.9-2.5,2.9-5.1,2.9-5.1,2,7.6.7,14.2.7,14.2-2.4.7-7.3,1.8-7.3,1.8,2,4.4,8,7.3,8,7.3,6.9-4.5,9.6-11.1,9.6-11.1-.2-7.3-2.4-18.5-4.4-25"/>
  <path class="cls-8" d="M241.5,172.7c1.3.2,3,.3,4.4.1.8-1.3,2.1-3.6,3.1-6.4-1.7.4-3.7.8-5.4,1.1l-2.1,5.2Z"/>
  <path class="cls-8" d="M233.6,154.3c5.5-1.1,22-4.5,27.5-5.6,0-1.2,0-2.5.1-3.8-8.3,1-18.7,2.6-28.6,4.5.4,1.8.7,3.4.9,4.9"/>
  <path class="cls-8" d="M234.4,164.2c7.3-.7,18.9-3,25.8-6.6,0,0,.3-1.6.5-4-7,1.9-16.7,4-26.5,5.6.2,1.8.3,3.5.2,5.1"/>
  <path class="cls-8" d="M252.1,168.4c1.5,0,3.5,0,4.9-.4.5-1.1,1.3-2.8,2-4.9-1.8.8-4,1.6-6.1,2.3l-.7,3.1Z"/>
  <path class="cls-8" d="M81.9,134c-5.5,5.9-9.5,17-9.5,17,1.4,2.7,3.5,3.4,3.5,3.4,2.4-8.7,10.6-18.5,10.6-18.5-1.9-2.7-4.6-2-4.6-2"/>
  <path class="cls-8" d="M97,138.9s-1.3-1.8-4.8-2.3c0,0-10.1,9.6-12.6,23.5,0,0,.6,2.6,4.7,3.6,0,0,4.8-18,12.7-24.8"/>
  <path class="cls-8" d="M100.3,142.3s-8,8.9-11.6,23.5c0,0,1.5,3.4,5.4,3.7,0,0,0,0,0-.1,1.9-13.1,8.8-22.2,9.4-23.1-.2-.9-1-2.4-3.2-4.1"/>
  <path class="cls-8" d="M105.6,151.2c-1.8,3-4.8,9.1-6.3,16.3-.3,1.7.8,3.3,2.5,3.5,1.2.1,2.5.2,4,0,0,0-.9-7.1,3.8-15.1l3,1.5c2-6.9-4.8-9.9-7-6.2"/>
  <path class="cls-9" d="M252.1,168.4c1.1,0,2.4,0,2.8,0h0s1.7-4.3,1.7-4.3c-1.3.5-2.5.9-3.7,1.3l-.7,3.1ZM241.5,172.6c1.1.1,2.2.2,2.4.2,1.1-1.7,2.4-3.9,3-6-1.1.2-2.2.4-3.3.6l-2.1,5.2ZM229.9,175.7c.2,0,.5.2,1,.5,0,0,0,0,.1,0,0,0,0,0,0,0,1.4-1.4,4.1-4.4,5.1-7.6-.6,0-1.2.2-1.8.2-1.4,2.9-2.9,5.1-4.5,6.9M234.2,159.1c.2,1.8.3,3.5.2,5.1,1,0,2.3-.3,3.3-.4,0-.1.2-2.1,0-5.2-1.1.2-2.3.4-3.5.6M230.4,140c.4,1.4.8,3,1.2,4.8,1-.2,2.2-.5,3.6-.8-.5-1.9-1-3.5-1.5-4.8-1.2.2-2.3.5-3.4.7M229.3,135.2c.8-.2,2.2-.4,4.1-.8,4.3-8.9,19.4-11,29.2-11.6.1-.8.2-1.4.2-1.8-11.7-.4-29.1,3-33.5,14.2M237.3,153.5c-.2-1.7-.5-3.3-.8-4.8-1.2.2-2.5.5-3.7.7.4,1.8.7,3.4.9,4.9.9-.2,2.2-.5,3.7-.8"/>
  <path class="cls-5" d="M110.7,108.7h11.9s0,3.6,2,5.2v13.5l-1.4,2.1,1.3,2-2.7,3.4-.6,4.2h-1.8v2.2l-.8.5-1.7-1.2-1.3,1.3-1.1-1.2.6-1.4-1.7-2.6-3.1-2v-1c.1,0,1.5-1.2,1.5-1.2v-1.8c.1,0-1.2-1-1.2-1l-1,.6s-.1-2.2-.4-2.2-2.8-3.3-2.8-3.3l-.4-2.4,1.4-2.7,1.8-2.3-.7-1.2.3-1.3,2.2-.2,1.8-2.5-.2-1.3-1.8-2.2Z"/>
  <polygon class="cls-10" points="117.3 116.2 118.4 119.3 121.6 119.3 119 121.2 120 124.3 117.3 122.4 114.7 124.3 115.7 121.2 113.1 119.3 116.3 119.3 117.3 116.2"/>
  <path class="cls-10" d="M158.2,191.8c-9.8-5.3-20.4-8-31.4-8.4-8.2-.3-15.3-2.1-20.9-5.3-1.1-.6-2.2-1.3-3.2-2.1-.8,0-1.6,0-2.4-.2,6.5,5.5,15.4,8.6,26.4,9,11.2.5,21.7,3.3,31.1,8.3-1.2,4.6,0,9.7,4.2,13.4-6.2-7.4-2.4-20.3,6.9-23.5-5.4,1-9.1,4.5-10.7,8.8M104.7,84c-.5-.4-.9-.7-1.3-1.1,2.1,20-5.8,29.3-9.9,39.6.4,0,.9,0,1.3,0,3.8-9.5,11.6-19.1,10-38.6M101.2,71.6c.3-.4.6-.7.9-1.1-3-10.3-7.4-17.7-12.6-25.7l21.4-20.1c8.4,5.4,16.2,9.2,27.8,9.5,0-.5.1-.9.2-1.4-10-.2-19.4-3.5-28-9.8l-23,21.7c5.7,7.7,10.6,17.3,13.4,27M231.9,22.9c-3.2,2.4-6.6,4.3-10,5.8-.3.6-.6,1.2-.9,1.9,4.9-2,7.8-4,10.9-6l21.4,20.1c-6.1,9.3-11.3,18.6-13.9,31.1.4.4.7.8.9,1.3,2.3-11.7,8-23.3,14.7-32.5l-23-21.7ZM184.7,191.8c-.7-2-2-3.9-3.9-5.6,6.1,7.4,2.4,20.3-6.9,23.5,8.5-1.5,12.9-9.5,11.2-16.6,21.7-11.7,32.2-5.6,47.5-11.5-.7-.2-1.5-.4-2.2-.6-14.6,4.8-24.9-.4-45.7,10.8"/>
  <path class="cls-8" d="M171.7,186c-2.4.2-5,1.2-6.7,2.6l1.3,2.3c4-3,10.2-3.1,10.6.6.3,2.7-3,4.5-6.5,4.8l1.1-4.6-2.9.3c-.8,3.9-1.8,7.8-2.7,11.8-.6-.2-1.2-.4-1.7-.7l-1,2.6c1.3.7,4.6,1.5,7.5,1.2,3.9-.4,7.3-2.6,7-6-.2-1.7-1.6-3-3.5-3.4,8.6-2.4,7.1-12.3-2.4-11.4M174.6,201.1c.3,2.6-3.3,3.5-6.1,3.2.4-1.9.8-3.8,1.3-5.7,2.3,0,4.7.9,4.8,2.5"/>
  <path class="cls-7" d="M142.1,38.9c1.9-.4,6.2-1.2,12.1-1.5,2.4-13.9,4.3-30,4.5-32.9-4,.6-13.5,2.7-13.3,6.6,0,1.3-1.4,15.7-3.3,27.7"/>
  <path class="cls-5" d="M225.4,46.5c-2.9,8.7-9.3,13.4-15.7,15.9,6.5,1.5,12.2,3.3,17,5.3,4.2-10.7.4-19.1-.7-21.3-.1-.2-.4-.2-.5,0M124.8,46.4c-1.1,1.4-4.7,7-3.9,15.2,3.4-.9,7.2-1.6,11.3-2.3-3.1-2.7-5.9-6.8-7-12.8,0-.2-.3-.2-.4-.1"/>
  <path class="cls-9" d="M228.6,56.6c0-.9-.1-1.7-.2-2.6,0,0,0-.2,0-.3-.1-.8-.3-1.6-.5-2.3,0-.1,0-.3-.1-.4-.2-.7-.4-1.3-.6-1.9,0,0,0-.2,0-.3-.2-.5-.4-1-.6-1.4,0,0,0,0,0,0-.2-.4-.4-.8-.5-1,0,0,0,0,0,0,0-.1-.2-.1-.3-.1.3,2.1,1,11.4-4.8,19.3.4.1.8.3,1.3.5.4.1.8.3,1.1.4,1.2.4,2.3.9,3.4,1.3t0,0c.5-1.2.8-2.4,1.1-3.5,0-.2.1-.4.1-.6.2-1.1.4-2.1.5-3.1,0-.2,0-.4,0-.6,0-1,.1-2,0-2.9,0-.1,0-.2,0-.3"/>
  <path class="cls-9" d="M125.1,46.4c-.3,1.3-1.4,7.3,1.2,14,1.9-.4,3.9-.7,5.9-1-.8-.7-1.5-1.5-2.2-2.3,0,0,0,0,0,0-.7-.8-1.3-1.8-1.9-2.8,0,0,0,0,0-.1-.6-1-1.1-2.1-1.5-3.2,0,0,0-.2-.1-.3-.4-1.2-.8-2.4-1-3.8,0,0,0-.2,0-.3,0,0,0-.1-.1-.2"/>
  <path class="cls-7" d="M220.3,68.8c-42.4-14.7-115.5-8-117,6.7,13.8-17.1,112.5-15.6,133.3,2.6-2.4-3.1-8.2-6.5-16.3-9.3"/>
  <path class="cls-11" d="M203.4,92.9c-3.8-.7-7.1-5.1-7.1-5.1,0,0,.7,7.9,2.7,9,3.3,1.9,6.2.8,6.2.8,2.8,7.5.3,12.9.3,12.9-4.7-5.1-9.7-4.4-9.7-4.4,2.5,1.4,5.9,7.3,5.9,7.3.7,7-2.4,15.6-2.4,15.6-2.7-8.7-7.7-9.8-7.7-9.8,1.2,2.7,2.2,5.9,2.2,5.9-.3,8.4-6.5,18.4-6.5,18.4,0-9.6-4.2-13.7-4.2-13.7.5,3.6-.8,11.6-.8,11.6-4.5,7.8-15,15.1-15,15.1-.5-1.9-3.2-5.1-3.2-5.1-1.8,3.4-9.2,8-9.2,8,.4-3.2-.8-6.6-.8-6.6-3.3,4.5-10.2,6.4-10.2,6.4,1.4-6.7-3.6-11.7-2.8-15.5,8.3,1.5,11.4-1.4,21.3-.2-4.4-6-11.1-2.3-22.1-4.9-.5-1.3-.2-2.8,0-3.4,6.3-1.2,14.3.4,20.2,2,2.3,0,8.5-3.4,8.5-3.4,1.5.4,4,2,4,2,.4-2.2-.7-4.6-3-4.1-3.3.7-9.4,1.7-9.4,1.7-13-4.3-17.1-2.8-25-.8-1.8-2.9-3.9-7.4-3.9-7.4,1-3.7,3.9-6.7,3.9-6.7-4.5-16.3-.5-26,1.8-31.5,2.5,0,4.6-.6,4.6-.6-4.6-.8-9.7-6.1-9.7-6.1.3-2.4,1-4.9,1.7-6.9,15.4-7.1,39.2-3.4,39.2-3.4-1.7,1.9-3,6.3-3,6.3,0,0,8.6-8.5,18.5-7.6,9.9.9,13.6,6.9,13.6,6.9,8.1.2,13.5,3.3,16.5,5.7,4.2,3.4-15.3,11.5-15.5,11.5"/>
  <path class="cls-2" d="M146,158.5c2.3-.9,6-2.7,8.1-5.6-.4-2-1.3-2.7-1.3-2.7-1.5,3.6-4.6,6.6-6.9,8.4"/>
  <path class="cls-2" d="M145.8,144.2c0,1,.3,2.2,1,3.8,0,0,1.3-1.9,2.8-2.8,0,0,.5,1.8,2,3.2,0,0,2.9-4.8,10.8-4.8-7.8-1-11.4.6-16.7.6"/>
  <path class="cls-2" d="M160.7,147.8c-1.1,4.8-5.7,11.6-5.7,11.6,0,0,7.4-4.7,9.2-8-1.9-2.6-3.5-3.6-3.5-3.6"/>
  <path class="cls-2" d="M135.6,79.9c0-.8.2-1.8.3-2.8,15-5.2,30.8-3.6,35.1-3,.5-1.4,1.3-3,2.2-4,0,0-23.7-3.7-39.2,3.4-.6,2-1.3,4.6-1.7,6.9,0,0,5.1,5.3,9.7,6.1-5.9-2.9-6.4-6.7-6.4-6.7"/>
  <path class="cls-2" d="M169.1,133.9s-6.3,3.3-8.5,3.4c-1.2-.3-2.5-.6-3.8-.9-.2,0-.3,0-.5-.1-1.3-.3-2.7-.5-4-.8-.2,0-.4,0-.6,0-1.4-.2-2.8-.3-4.2-.4-.2,0-.3,0-.5,0-1.4,0-2.9,0-4.2,0,0,0,0,0,0,0,0,.9,0,2.6.5,4.2,9.5,1.5,15.4-1.1,19.5,4.4,0,0,6.2-6.8,10.6-7.7,0,0-2.5-1.6-4-2"/>
  <path class="cls-2" d="M178.8,125.6c1.1,4.4,0,13.5,0,13.5-1.4,5.6-11.4,17.4-11.4,17.4,0,0,10.5-7.3,15-15.1,0,0,1.3-8,.8-11.6-1.7-2.2-4.3-4.1-4.3-4.1"/>
  <path class="cls-2" d="M218.8,81.4c-3-2.4-8.3-5.5-16.5-5.7-19.3-12.7-29.2,7.3-42.1,11.1,0,0-1.6,11.7.4,18.6,0,0-1.8,7.5-3.9,11.2,0,0-7.6,2.2-11.5,5.2,0,0-3.4-1.6-6.9-2.6,0,0-3.1,2.4-3.6,4.6,0,0-.8,1.3-.6,2.3,0,0,2.2,4.8,3.5,6.1,6.3-1.6,10.6-2.5,20.9.6.4-1.6,1.2-4.4,2.2-5.9,0,0,3.5-3.3,5.7-4,0,0-.8-2.8-3.2-4.9,0,0,6.8-7.9,10.1-14.2,0,0,.7-6.8,3.1-10.8,14.5,5.2,19.9-1.7,16.4-13.6,1.4,0,2.3.2,2.3.2,11.5-4,17.7,3.3,17.7,3.3-6.9,3.9-8.1,10.4-16.8,4.7,0,0,3.3,4.5,7.1,5.1.1,0,19.7-8.1,15.5-11.5"/>
  <path class="cls-2" d="M205.2,97.5s-2.9,1.1-6.2-.8c6.8,8,6.5,13.7,6.5,13.7,0,0,2.6-5.4-.3-12.9"/>
  <path class="cls-2" d="M187.2,143.5s6.2-10,6.5-18.4c0,0-1-3.3-2.2-5.9,0,0-.7,16.2-4.4,24.3"/>
  <path class="cls-2" d="M195.8,106s5,14.2,3.5,22.9c0,0,3-8.6,2.4-15.6,0,0-3.4-5.9-5.9-7.3"/>
  <path class="cls-2" d="M183.6,107.9c-1-1.3-3.2-2.7-3.2-2.7,0,7.9-4.1,16.6-4.1,16.6,4.5-4.3,6.2-9.1,6.2-9.1,1.8,1.3,2.9,3.4,2.9,3.4,3.2-7.2.5-18.7.5-18.7.1,3.2-2.2,10.5-2.2,10.5"/>
  <path class="cls-1" d="M134.8,123.8s4.1,2.2,8,2.1c-2,4.9-5.8,4.3-6,.5,0,0-2.3-1-2-2.6"/>
  <path class="cls-1" d="M195.3,79.7c-10-14.5-17.8,7.4-35.1,7.1,0,0,4.1,3.7,7.3,5.1,0,0-1,7.6,1.4,12.7,0,0-4.1,11.2-5.6,13.6,0,0,6.8-7.9,10.1-14.2,0,0-2.3-8.4-.7-14.6,12.3,3.9,20.9,1.6,17.8-9.8,2.6-.1,4.8.1,4.8.1"/>
  <path class="cls-1" d="M148.3,125.9s8.2-1.9,12-4.2c.3.9-.6,2.7-3.1,3.7-1.1,6.7-7.4,3.3-9,.5"/>
  <path class="cls-10" d="M175.3,85.9s3.1,1.6,7.4,2c2.5.3,4.8-1.6,4.8-4,0-1.5-.2-3.4-1.1-5.3l-11,7.3Z"/>
  <path class="cls-3" d="M186.3,78.7l-1.3.9c.5,1.7.7,3.3.7,4.6,0,1.7-.9,3.1-2.2,3.8,2.2-.2,4-1.9,4-4,0-1.5-.2-3.4-1.1-5.3"/>
  <path class="cls-5" d="M186.6,83.1c0-.6-.5-1.1-1.2-1.1s-1.2.5-1.2,1.1.5,1.1,1.2,1.1,1.2-.5,1.2-1.1"/>
  <path class="cls-7" d="M181,54.8c-7.6-2.3-16.5-4.4-16.5-4.4,7.5-1.2,30.2,2.7,30.2,2.7-10.5-6-29.7-7.4-29.7-7.4,5.2-1.2,17.9-.4,21.4-.1-16.6-5.1-34.7-5-44.8-2.4-.7,4.2-1.5,8.5-2.4,12.5,13.7-1.7,28.3-1.9,41.8-1"/>
  <path class="cls-2" d="M132.8,86c-3.7-2-5.5-5.4-5.5-5.4,0,0,0-1.7.6-4.2-2.6.3-7.3,1.1-11.7,3.3-1.2.6-1,2.2.3,2.6,10,2.6,3.5,6,15.3,6.3.3-.8.7-1.7,1-2.5"/>
  <path class="cls-3" d="M150.7,161.4s-4.5,2.2-10.3,3.7c3.2.6,6.3,1,9.6,1.4.4-1.4.9-3.7.7-5.1"/>
  <path class="cls-3" d="M207.9,172c-12.9,3.6-28.3,5.1-41.9,5-6.3,0-12.6-.5-18.7-1.2,0,0,0,0,0,0-5.5-.7-11.1-1.6-16.7-3,0,0,0,0,.1,0-.3,1.6-.6,3.1-.9,4.4,8.6,2.4,19.6,4.7,31.8,5.6,5.8-4.3,13.8-4.3,19.7,0,5.3-.4,10.8-1.1,16.3-2.3v2.2c.1,0,.2,0,.2,0,4-1.1,8.4-2,12.7-2.5h0c.2,0,.3,0,.5,0,0,0,.2,0,.2,0,1.1-.1,2.1-.2,3.2-.3-3.6-2.3-4.7-4.7-6.4-7.9"/>
  <path class="cls-3" d="M116.4,168.7c-.6.7-1.6,1.9-2.9,3,1.8.8,4.3,1.7,7.4,2.8.5-1.3.9-2.6,1.2-3.9-1.9-.6-3.8-1.2-5.7-1.8"/>
  <path class="cls-3" d="M222.4,96c-1.5.5-3,1.2-4.4,1.8,1,10.7-3.3,17.8-3.3,17.8,7.9-9.5,7.8-17.7,7.7-19.5"/>
  <path class="cls-3" d="M175.7,163.4c18.2-9.3,18.8-16,18.8-16.6,0,.3,0,2.5-.7,5.5,0,0,16.5-7.4,17.7-50.3l-.5.5c-.7,6.6-2,16.6-3.8,21.2-.5-1.3-1.2-2.6-1.2-2.6-1.3,10.9-7.8,25.7-7.8,25.7,0-6.5-1.5-12.4-1.5-12.4,0,0-4.9,15.8-15.5,22.7,0,0,1.4-5.2,1.2-7.9,0,0-10.6,11.6-19.1,16.4,0,0,.6-4.1-.2-6,0,0-5.7,4.3-11.1,7.2,4.2.4,8.4.6,12.8.7,3.4-.7,7-2,10.9-4"/>
  <path class="cls-3" d="M272.4,105.2h0c0,0,0,0,0,0"/>
  <path class="cls-3" d="M217.6,142.8c-2-2.6-6.4-4.6-6.4-4.6.9,9.3-7.3,20.2-12.1,25.8.1,0,.3,0,.4,0,2.5-.5,5.1-1.1,7.6-1.8.2-.7.4-1.5.6-2.3,1.7-5.9,5.1-11.7,9.9-17"/>
  <path class="cls-3" d="M271.1,84.5c-3.7-1.5-7.6-1.2-11.4.2h0c2.9,1.1,6.9,3.4,6.9,7.4s-1.6,7.1-3.7,12.5c4.5,0,8,.4,9.5.7,0,0,0,0,0,0,3.8-8.9,5.5-17.9-1.3-20.7"/>
  <path class="cls-3" d="M218.1,122.7c1.9,5.4,1,14.9.4,19.2,1.5-1.5,3-3,4.8-4.5.7-2.4,1.6-4.6,2.8-6.5-2.4-5.1-8-8.2-8-8.2"/>
  <path class="cls-3" d="M257.9,116.5c2.8,0,5.7,0,8.6.2.5-.8.9-1.6,1.4-2.4-3.2-.4-6.1-.6-8.7-.6-.4,1-.9,2-1.3,2.9"/>
  <path class="cls-4" d="M186.6,68.8c-6,.2-11.2,3.5-14.1,5.7-.3.3-.6.5-.9.7,0,0,0,0-.1.1-.2.2-.4.3-.5.5,0,0,0,0-.1,0-.1.1-.3.2-.3.3,0,0,0,0,0,0,0,0-.1.1-.1.1,0,0-8.3,5-14.5,5.7,9.7,5.9,18.9-13.6,33-13.3-.7,0-1.4,0-2.2,0"/>
  <path class="cls-4" d="M142.1,86.6s-2.1.6-4.6.6c-2.3,5.5-6.2,15.2-1.8,31.5h0c.9.1,1.8.3,2.7.6-5.3-16.9-.1-26.4,3.6-32.6"/>
  <path class="cls-4" d="M144,159.2c3.2-7.9-.5-9.7-.8-15.2-.6,0-1.3-.2-2-.3-.8,3.7,4.2,8.8,2.8,15.5,0,0,0,0,0,0"/>
  <polygon class="cls-1" points="324.4 322.4 324.4 323.4 322.6 323.4 322.6 328.2 321.4 328.2 321.4 323.4 319.7 323.4 319.7 322.4 324.4 322.4"/>
  <path class="cls-1" d="M326.2,328.2h-1.1v-5.8h1.8l1.1,4.6,1-4.6h1.7v5.8h-1.1v-3.9c0-.1,0-.3,0-.5,0-.2,0-.4,0-.5l-1.1,4.9h-1.2l-1.1-4.9c0,.1,0,.3,0,.5,0,.2,0,.4,0,.5v3.9Z"/>
</svg>