<svg xmlns="http://www.w3.org/2000/svg" xml:space="preserve" id="Components" x="0" y="0" style="enable-background:new 0 0 168 71" version="1.1" viewBox="0 0 168 71"><style>.st0{fill:#0d1922}.st1{fill:#50c0e8}.st4{fill:#91d5eb}</style><path d="M159.3 42.9c.5-1.6.9-3.1.8-4.7 0-2.6-1-4.8-2.6-6.4l-7.4-7.7c-.5-.5-1.1-1-1.8-1.4l2.8-9.4a3.8 3.8 0 0 0-3.6-4.8l-82.2-.6c-3.1.1-5.9 2-7.5 4.7C53.5 8.3 52.5 6.8 50 5c-8.5-6.1-24.5-7.8-39.9 2.3l5.6 12.3 2.7 2.8C15.9 30.1 13 38 10.3 45.8l-3.8-2.4L0 55.6s4.9 6 9.8 9.4c8.4 6 27.3 9 38.6 1.8 3.3-2.1 5.6-4.8 6.8-7.9l3 3.1c3.1 3.5 9.8 4.3 15.9-.7 7.4 5.5 19.4 4.4 26.2-.8 2.7 2.9 5.5 4.4 9.9 4.5 3.6 0 6.9-1 9.8-3l2.2 2.4 14.2.1c.7-2.6 1.1-4.1 2.1-7l4.8 5c5.7 5.9 17.2 2.6 24.8-10.6l-8.8-9z" class="st0"/><path d="M76.9 16.4c.7.2 1.1.8 1.1 1.5 0 2.1-3.3 2.6-6 1.6l2.7-7.6c2.4-.6 4.7-.2 4.7 2 0 1.3-1.1 2.3-2.5 2.5zm-2.8 2.2c1.1.2 2.2 0 2.2-.9 0-.5-.7-.9-1.6-.9l-.6 1.8zm1.1-3.1c1.5.1 2.5-.5 2.5-1.4 0-.9-.8-1.1-1.7-1l-.8 2.4zM81 18.4h2.5l-.5 1.4h-4.2l2.8-8h1.7L81 18.4zM84.6 17.2c0-2.4 1.7-5.6 4.3-5.6 1.6 0 2.3 1.3 2.3 2.9 0 2.5-1.7 5.4-4.2 5.4-1.6.1-2.4-1.2-2.4-2.7zm4.9-2.6c0-.8-.3-1.3-.9-1.3-1.3 0-2.2 2.2-2.3 3.8 0 .8.3 1.2.9 1.2 1.2 0 2.3-2.1 2.3-3.7zM91.8 17.3c0-2.4 1.7-5.6 4.3-5.6 1.6 0 2.3 1.3 2.3 2.9 0 2.5-1.7 5.4-4.2 5.4-1.6 0-2.4-1.2-2.4-2.7zm4.9-2.6c0-.8-.3-1.3-.9-1.3-1.3 0-2.2 2.2-2.3 3.8 0 .8.3 1.2.9 1.2 1.3 0 2.3-2.2 2.3-3.7zM105.5 11.9h2.2l-1.6 8h-1.7l1.4-5.8-2.9 5.8h-1.5l.5-5.6-2.2 5.6H98l3.5-8h2.1l-.6 5.8 2.5-5.8zM107.2 19.9l2.8-8h1.7l-2.8 8h-1.7zM117.3 11.9h1.5l-2.8 8h-2l-.1-5.2-1.7 5.2h-1.6l2.8-8h1.9l.1 5.7 1.9-5.7zM125.2 15.7l-.5 1.5h-.5c-.7 2-1.8 3-3.5 3-1.1 0-2.3-.7-2.3-2.7 0-2.2 1.5-5.6 4.3-5.6 1.5 0 2.6 1.1 2.1 2.9h-1.7c.3-.9-.1-1.3-.6-1.3-1.2 0-2.4 2.2-2.4 3.8 0 .9.3 1.3.8 1.3.7 0 1.2-.6 1.5-1.4h-1.1l.5-1.5h3.4zM131.2 13.4h-1.7l-2.3 6.6h-1.7l2.3-6.6h-1.7l.5-1.4h5.1l-.5 1.4zM130.7 17.4c0-2.4 1.7-5.6 4.3-5.6 1.6 0 2.3 1.3 2.3 2.9 0 2.5-1.7 5.4-4.2 5.4-1.6.1-2.4-1.2-2.4-2.7zm4.9-2.6c0-.8-.3-1.3-.9-1.3-1.3 0-2.2 2.2-2.3 3.8 0 .8.3 1.2.9 1.2 1.2 0 2.3-2.1 2.3-3.7zM143.8 12.1h1.5l-2.8 8h-2l-.1-5.2-1.7 5.2h-1.6l2.8-8h1.9l.1 5.7 1.9-5.7z" class="st1"/><path d="M24.6 61c-7.8 0-17.2-3-21-5.7l-.6-.4 4.4-8.2.8.5 3.6 1.9 4.3-12.3 6.3-18.4.2-.6h9.9l-4.3 12.5c8.4-.1 17.3-3.5 17.3-10.6 0-1.9-.7-3.6-2-5-2.1-2.2-5.9-3.4-10.4-3.4a30 30 0 0 0-15.2 4.4l-.8.5-4-8.2.6-.4a35 35 0 0 1 19-5.3C40.3 2.4 47 4.7 51 8.7c2.7 2.8 4.1 6.2 4.1 10.1 0 7.6-6.4 14.3-15.6 16.7 5 2.6 7.5 7.2 6.7 12.2C45.1 54.3 38 61 24.6 61zm-4.1-8.8c1.7.4 3.3.5 4.7.5 4.1 0 7.6-1.2 9.5-3.1a5.3 5.3 0 0 0 1.6-3.9c0-3.9-5.7-6.9-11.3-7.4-1.5 4.5-3.1 9.2-4.5 13.9zm122.1 2.9c-2.2 0-4-.7-5.2-2a7.4 7.4 0 0 1-1.9-5.2c0-3.3 1.7-6.6 3.3-9.6 1.1-2.1 2.1-4 2.1-5.3 0-.4-.1-.8-.3-.9l-.6-.2c-2.6 0-8.4 5.9-12.8 21.8l-.2.6h-9.2l4.2-12.2c-.9.2-1.7.3-2.6.3l-1.2-.1c-3.1 9.3-10.1 12.6-15.3 12.6-4.4 0-8-2.1-9.7-5.7a20.8 20.8 0 0 1-14.5 5.7c-5 0-9.5-1.6-12.3-4.4-2.9 2.8-5.8 4.2-8.6 4.2s-4.8-.9-6-2.6c-3.4-4.9.7-15.5 4.6-25.7l.9-2.2h9.2l-.4 1.1-1.8 4.6c-2.8 7.2-5.6 14.6-4.6 16.2.5.7 3-.3 5.8-4.2a63.5 63.5 0 0 0 8.7-18.4l.2-.6h9.2l.9 1.9a36.8 36.8 0 0 1 5 15.3c0 1.7-.3 3.2-.8 4.6a34 34 0 0 0 3.6-4.4c1.7-10.8 9.5-16.5 16.4-16.5 2.9 0 5.5 1 7.4 2.9 2 2 3.1 4.9 3.2 8.3l1.1.1a6 6 0 0 0 4.6-2.2l2.7-7.8.2-.6h8.9l-.9 2.5c2.2-2 4.8-3.2 7.4-3.2 3.8 0 6.6 2.8 6.7 6.6 0 2.9-1.8 6.6-3.4 10-1 2.2-2.6 5.5-2.2 6.2l.4.1c1.1 0 4.1-2.5 6.8-6.5l.6-.8 5.1 5.2-.3.5c-3.7 6.8-9.9 10-14.4 10zm-70.3-9.9c3.1 3.7 8.5 2.3 8.5-3.7 0-3.1-1-6-2-8.4-2 5.4-4.8 9.7-6.5 12.1zm35.6-13.7c-3.1 0-6.7 6-6.8 11.1 0 1.7.3 2.9 1 3.5.3.3.8.5 1.3.5 2.8 0 7-4.7 7-11.2 0-.8-.2-3.8-2.5-3.9zM63.3 22c-2.7 0-4.5-1.8-4.5-4.6 0-3.4 2.8-7.2 6.7-7.2 1.3 0 2.4.5 3.2 1.3.8.8 1.3 2 1.3 3.3 0 3.6-3.3 7.2-6.7 7.2z" style="fill:#cb122d"/><path d="M63.3 21.2c3.1 0 5.9-3.4 5.9-6.5 0-2.1-1.6-3.7-3.7-3.7-6.1 0-8.5 10.2-2.2 10.2zm89.3 19.3c-2.4 3.5-5.7 6.9-7.5 6.9-4.4 0 4.5-11.1 4.4-17-.1-3.4-2.5-5.8-5.8-5.8-3.5 0-7.2 2.2-9.8 6.5l2-5.8h-7.2l-2.8 7.9a7 7 0 0 1-7.3 2.4c.1-16.7-22.6-14.2-25.5 4.9-2.5 3.7-5 6.2-7.4 7.3 2-1.8 2.9-4.7 3-7.8.1-5.3-3.6-12.1-5.6-16.3H75a61.5 61.5 0 0 1-8.8 18.6c-3.7 5.1-6.1 4.7-6 4.7-3.8 0 .5-10 5.1-22.1h-7.4c-5 13.3-11.5 28.9 0 28.9 3 0 6-1.9 8.6-4.6 5.1 6.1 19.3 7.1 27-1.5 3.3 9.6 19.5 8.9 24.1-6.4 1.9.3 3.8.1 5.6-.5l-4.3 12.5h7.4c6.4-23.1 15.3-24.9 15.3-20.4 0 3.4-5.3 9.4-5.3 14.9 0 9.3 13.6 8.3 20.3-3.4l-4-3.9zm-81.3 4.7c2.5-3.3 5.5-8.4 7.4-14.2 1.6 3.1 3 6.8 2.9 10.6 0 6.8-6.8 8.6-10.3 3.6zm29-2.5c0-5.2 3.8-11.9 7.6-11.9 2.2 0 3.3 2 3.3 4.8 0 10.9-11 16.6-10.9 7.1zm-46-23.9C54.3 2.3 28.4-1 14.1 8.3l3 6.6c12.6-7.6 29-5.2 28.9 4.7 0 8.4-10.8 11.6-19.3 11.5L31 18.6h-8.1c-3.4 10.5-7.3 21.1-10.8 31.6a32 32 0 0 1-4.5-2.4L4 54.6a43 43 0 0 0 20.6 5.5c22.5 0 27.2-19.7 12.2-24.9 9.9-1.6 17.4-8.4 17.5-16.4zM37.2 45.7c0 4.9-5.4 7.8-11.8 7.8h-.1c-1.9 0-3.8-.3-5.8-.7 1.5-5.1 3.3-10.2 5.1-15.3 6.3.4 12.6 3.7 12.6 8.2z" style="fill:#fff"/><path d="M107.9 30c1.4 0 2.4.6 3.1 1.7l2.2-2s-2.4-3.7-8.2-1.2c-8.3 3.5-8.5 14.4-8.5 14.4l3.2-.7c.2-5.5 4-12.2 8.2-12.2zM131.4 36.5l3.6-10.6-3.8 2.6-7.5 21.6-3.7 2.6h5.9c3.5-12.3 7.5-18.3 10.7-20.8l.2-.1c1.3-1 2.4-1.4 3.2-1.4.7 0 1.2.2 1.7.7l.2.4.1.2 3.1-2.6c-2.6-3.7-9.9 1-13.7 7.4z" class="st4"/><path d="M143.5 47.3c-.4-.6-.3-1.5 0-2.7v-.1c.3-1.1.9-2.4 1.6-3.8l.5-1c1.5-3.2 3.3-6.8 3.2-9.3 0-1.1-.5-2.7-1.2-3.4l-2.6 2.1s1.4 2 .2 4.9c-1.2 2.9-6.4 11.9-4.9 15.7l3.2-2.4zM58.6 46.9c-1.4-2.1.5-7.4 4.4-17.5l1.4-3.7-4 2.6s-8.7 19.3-3.3 21.4l2.5-2.1c-.5-.1-.8-.4-1-.7z" class="st4"/><path d="m155.7 44.7-2.7-.1s-.5 1.4-4.4 4.4c-4.5 3.6-8.3.6-8.3.6l-2.3 1.9.3.4.1.1a6 6 0 0 0 4.1 1.4c2.3 0 5.3-1 8-3.1L153 48c1.1-.9 2-2 2.7-3.3zM33.4 55c-11.8 3.4-18.9 0-18.9 0l-6.1-2.6-3.4 2a43.1 43.1 0 0 0 19.7 5.1c12.5 0 19.1-6 20.1-12 .3-1.9.1-3.7-.7-5.3v-.1l-.8-1.4-.1-.2-.3-.4-2.4 1.6s4.6 9.9-7.1 13.3zM119.4 40.8c1.2 0 2.4-.2 3.6-.6l1.3-.4 4.3-4c-6.3 4.1-13.8 1.6-13.8 1.6L118 36v-.4c0-3.1-.9-5.7-2.5-7.6l-2.3 1.8s3.1 3.2 1 10.7c-3.6 12.7-17.4 13.2-17.7 2.5l-2.2.6c-3.9 6.9-14.8 7.3-14.8 7.3 2.9-.2 5.9-3.6 5.9-3.6 1.8-1.6 2.7-4.2 2.7-7.3l-.1-1.7-.3-1.6-.1-.3a52 52 0 0 0-4.4-10.8l-.5-1-1.3 2.4S84 35.8 85 38.7c.9 2.9-.5 11.5-7.3 11.9-6.8.4-10.6-5-10.6-5l3.3-.3.3-.4c1.8-2.4 5.2-7.5 7.3-14l.5-1.6 2.9-2.3-4 .1a55 55 0 0 1-11.8 20c-4.2 4-8.5 2.7-8.5 2.7l-2.8 2.6c.9.6 2.1.9 3.6.9 2.5 0 5.2-1.5 8.1-4.4l.5-.5.5.6c2.3 2.8 6.8 4.5 11.7 4.5A19 19 0 0 0 93 47.4l.8-.9.3.9a9.6 9.6 0 0 0 4.1 4.9c1.4.8 3 1.2 4.8 1.2 2.1 0 4.5-.6 6.8-2l.1-.1.8-.6c2.1-1.6 4-4 5.4-7l.3-.8.1-.2.5-1.5.2-.6.6.1h1.6zM19.8 9.3l-2.2 4.6c4.7-2.6 10-4.1 15.1-4.1 4.7 0 8.6 1.2 11.1 3.5l2.6-2.2C38 2.8 19.8 9.3 19.8 9.3z" class="st4"/><path d="m53.1 15.2-.1-.3-.3-.8c-.7-1.7-1.9-3.4-3.5-4.9L49 9l-2.6 2.1s3.7 3.7 3.7 8.3c0 4.6-5.9 15.8-28.8 14.3L14.4 55l4.2-1.9.2-.5c1.6-5.2 3.4-10.5 5.1-15.3l.2-.5h.5c5.4.3 11.2 2.9 12.8 6.8l3-1.9s-4.1-5.5-12.6-7.1c13.5 1.7 22.5-4.6 25-11.6l.1-.1c.5-1.3.7-2.7.7-4 0-1.4-.2-2.6-.5-3.7z" class="st4"/><path d="M30.1 19.4 25.4 22l-4 11.8 4.5-2.2zM61 19.6c.4.5 1.1.9 2.3.9 2.6 0 5.2-2.9 5.2-5.8 0-.9-.3-1.6-.8-2.2l-.4-.4c-4.6 1.1.4 4.6-4 5.9-1.3.4-1.9 1-2.3 1.6z" class="st4"/><path d="M166.9 61.8c.5.5.7 1.1.7 1.7a2.4 2.4 0 0 1-2.4 2.5c-.7 0-1.3-.2-1.8-.7-.5-.5-.7-1.1-.7-1.8s.3-1.3.8-1.8c.5-.4 1-.7 1.7-.7a3 3 0 0 1 1.7.8zm-1.7-.3c-.6 0-1 .2-1.4.6a2 2 0 0 0 0 2.9c.4.4.9.6 1.4.6.6 0 1-.2 1.4-.6a2 2 0 0 0 0-2.9 2 2 0 0 0-1.4-.6zm-.4 2.4v1h-.7v-2.7h1.4l.5.1c.2.1.4.4.4.7l-.2.5-.5.2.4.2c.2.1.2.3.2.6v.5h-.7v-.7l-.2-.2H164.8zm.3-.4.4-.1.1-.3-.2-.3-.4-.1h-.2v.8h.3z" class="st0"/></svg>