<svg version="1.1" id="Layer_1" xmlns="http://www.w3.org/2000/svg" x="0" y="0" viewBox="0 0 349.9 227.3" style="enable-background:new 0 0 349.9 227.3" xml:space="preserve"><style>.st0{fill:#e31937}.st1{fill:#fff}.st2{fill:#231f20}.st3{fill:#bcbec0}.st4{fill:#939598}</style><path class="st0" d="m79.8 174.8-8.2 13.7-8.2-13.7H37.1v1.3a25 25 0 0 0-11.5-2.7A26 26 0 0 0 0 200a26.2 26.2 0 0 0 25.7 26.7c10.6 0 20.2-6.9 24-17.2l.3-.9 1.3-3.9h-16l-.9 1.5c-2 3.3-5.2 5.3-8.8 5.3-5.8 0-10.4-5.2-10.4-11.5s4.7-11.4 10.4-11.4c3.9 0 7.3 2.2 9.1 5.8l.8 1.7h16.1v-11.8l12.5 20.9v21.4H79v-21.4l18.1-30.4H79.8zM196.5 173.8c-14.2 0-25.7 12-25.7 26.7 0 3.9.8 7.5 2.2 10.8h-14.1v-36.6h-15.2v51.8H173l3.6-9.1c4.7 6 11.9 9.8 19.8 9.8 14.2 0 25.7-12 25.7-26.7.1-15-11.2-26.7-25.6-26.7zm0 38.2c-5.8 0-10.4-5.2-10.4-11.5s4.7-11.4 10.4-11.4c5.8 0 10.4 5 10.4 11.4 0 6.3-4.7 11.5-10.4 11.5zM251.9 196.6l-15.8-21.8h-12.3v51.8H239v-21.9l15.9 21.9h12.3v-51.8h-15.3z"/><path class="st0" d="M126 176.1a25 25 0 0 0-11.5-2.7c-14.2 0-25.7 12-25.7 26.7a26.2 26.2 0 0 0 25.7 26.7c10.6 0 20.2-6.9 24-17.2l.5-1.5 1.2-3.9h-15.9l-.8 1.6a10.4 10.4 0 0 1-9 5.7c-5.8 0-10.4-5.2-10.4-11.5s4.7-11.4 10.4-11.4c3.7 0 7.1 2 8.9 5.4l.9 1.6h16.3v-20.8H126v1.3zM335.9 193.6h13l-.3-3.2c-.7-8.2-6.9-16.6-19.5-16.6-11.4 0-19.7 7.1-19.7 16.9 0 13 13.4 15.7 18.4 16.6 4.9 1 6.3 1.8 6.7 2.1v.2c0 2.3-4.7 2.4-5.6 2.4-1.1 0-4.8-.2-5.3-3l-.4-2.5h-15.1l.2 3.2.2 1.7h-23.1v-4H301l4.4-13.6h-19.8V190h19.6l5.1-15.2h-39.9v51.8h34.9l4.1-12.5c2.7 8.7 11.4 13.2 19.7 13.2 12.3 0 20.9-7.3 20.9-17.7-.1-10.2-7.9-14.2-14.1-16zm-6.7-4.7c.9 0 3.9.2 4.2 2.1l.3 1.9-2.8-.6a19 19 0 0 1-6.1-1.9c.3-.9 2.4-1.5 4.4-1.5z"/><path class="st1" d="m80.6 176.3-9 15.1-9-15.1H50.3v-.1H38.6v2.4a23.5 23.5 0 0 0-12.9-3.8A24.8 24.8 0 0 0 1.5 200a24.9 24.9 0 0 0 24.2 25.3c9.9 0 19-6.5 22.6-16.3l.3-.9.7-2H36.1l-.4.8c-2.2 3.8-6 6.1-10 6.1-6.6 0-11.9-5.8-11.9-13 0-7.1 5.3-12.9 11.9-12.9 4.5 0 8.4 2.5 10.4 6.6l.4.9h13.7v-15.7l15.5 25.9v20.3h11.7v-20.3l17-28.5H80.6zM196.5 175.3a24.7 24.7 0 0 0-24.2 25.2c0 4.5 1.1 8.6 3.1 12.3h-17.9v-36.5h-12.3v48.9h26.9l4.3-10.7a24 24 0 0 0 20.2 11.4 24.8 24.8 0 0 0 24.2-25.3 24.6 24.6 0 0 0-24.3-25.3zm0 38.1c-6.6 0-11.9-5.8-11.9-13 0-7.1 5.3-12.9 11.9-12.9 6.6 0 11.8 5.7 11.8 12.9s-5.3 13-11.8 13zM253.4 201.1l-18.1-24.9h-10v48.9h12.3v-24.9l18.1 24.9h10v-48.9h-12.3zM304.2 188.5l4.1-12.3h-36.5v48.9h32.4l4.1-12.3h-24.2v-7h15.8l3.4-10.7h-19.2v-6.6zM127.5 178.6a23.5 23.5 0 0 0-12.9-3.8A24.8 24.8 0 0 0 90.4 200a24.9 24.9 0 0 0 24.2 25.3c9.9 0 19-6.5 22.6-16.2l.5-1.4.6-2h-13l-.4.8a12 12 0 0 1-10.3 6.5c-6.6 0-11.9-5.8-11.9-13 0-7.1 5.3-12.9 11.9-12.9 4.3 0 8.1 2.3 10.2 6.2l.4.8h14v-17.9h-11.7v2.4zM330.7 193.8c-2.7-.6-7.3-1.7-7.3-3.2 0-2.5 3.7-3.2 5.9-3.2 1.5 0 5.1.3 5.7 3.4l.2 1.3h12.2l-.1-1.7c-.6-7.6-6.4-15.2-18-15.2-10.7 0-18.2 6.3-18.2 15.4 0 11.8 12.5 14.3 17.2 15.2 7.9 1.6 7.9 2.8 7.9 3.8 0 3.5-5 3.8-7.1 3.8-1.4 0-6.1-.3-6.7-4.3l-.2-1.3H310l.1 1.6c.7 10.7 10.1 16.3 19 16.3 11.6 0 19.4-6.5 19.4-16.2 0-12.1-12.1-14.5-17.8-15.7z"/><path class="st2" d="m71.6 194.3-9.9-16.5H51.4l15.9 26.5v19.3H76v-19.3l15.8-26.5H81.5zM155.9 177.8h-9.2v45.8H171l3.7-9.3h-18.8zM196.5 176.8a23.2 23.2 0 0 0-22.7 23.7 23.2 23.2 0 0 0 22.7 23.7 23.2 23.2 0 0 0 22.7-23.7 23 23 0 0 0-22.7-23.7zm0 38.2c-7.4 0-13.4-6.5-13.4-14.5s6-14.4 13.4-14.4c7.5 0 13.4 6.3 13.4 14.4 0 8-6 14.5-13.4 14.5zM254.9 205.8l-20.3-28h-7.8v45.8h9.2v-28.1l20.4 28.1h7.8v-45.8h-9.3zM303.1 187l3-9.2h-32.7v45.8h29.7l3-9.3h-23.5v-10h16.2l2.4-7.6h-18.6V187zM40.1 181.6a22 22 0 0 0-14.5-5.3A23.3 23.3 0 0 0 3 200a23.2 23.2 0 0 0 22.7 23.7 23 23 0 0 0 21.2-15.3l.3-.8H37a13.3 13.3 0 0 1-11.4 6.8c-7.4 0-13.4-6.5-13.4-14.5s6-14.4 13.4-14.4a13 13 0 0 1 11.8 7.4h11.3v-15.3h-8.6v4zM129 181.6c-4-3.4-9-5.3-14.5-5.3A23.2 23.2 0 0 0 91.8 200a23.2 23.2 0 0 0 22.7 23.7 23 23 0 0 0 21.2-15.3l.4-1.3h-10a13.3 13.3 0 0 1-11.6 7.3c-7.4 0-13.4-6.5-13.4-14.5s6-14.4 13.4-14.4a13 13 0 0 1 11.6 7h11.5v-14.8H129v3.9zM330.3 195.3c-8.6-1.7-8.6-3.6-8.6-4.7 0-3.5 4-4.7 7.4-4.7 1.6 0 6.4.4 7.2 4.6h9.3c-.5-6.9-5.8-13.8-16.5-13.8-9.8 0-16.7 5.7-16.7 13.9 0 10.6 11.2 12.8 16 13.7 9.1 1.9 9.1 3.5 9.1 5.3 0 4.8-6 5.4-8.6 5.4-1.3 0-7.4-.3-8.2-5.6h-9.3c.6 9.8 9.1 14.9 17.5 14.9 10.7 0 17.9-5.9 17.9-14.7.1-10.9-10.6-13.1-16.5-14.3zM98.3 138.5h5.1v25.1h-5.1zM126.2 153.8 115 138.5h-4.3v25.1h5.1v-15.4l11.2 15.4h4.3v-25.1h-5.1zM223.1 153.8l-11.2-15.3h-4.2v25.1h5v-15.4l11.2 15.4h4.3v-25.1h-5.1zM254.3 143.5h7.1v20.1h5v-20.1h5.1l2.1-5h-19.3zM277.7 138.5h5.1v25.1h-5.1zM86.3 154.1a7.4 7.4 0 0 1-6.7 4.8c-4.1 0-7.4-3.6-7.4-8s3.3-7.9 7.4-7.9c3 0 5.6 1.8 6.8 4.7l.2.5h5.6v-10h-5v2.4a12.2 12.2 0 0 0-7.7-2.7c-6.9 0-12.4 5.8-12.4 13s5.6 13 12.4 13c5.1 0 9.8-3.4 11.6-8.4l.5-1.5h-5.3zM167.7 138.5h5.1v25.1h-5.1zM195.6 153.8l-11.2-15.3h-4.3v25.1h5.1v-15.4l11.2 15.4h4.3v-25.1h-5.1zM155.7 154.1a7.4 7.4 0 0 1-6.7 4.8c-4.1 0-7.4-3.6-7.4-8s3.3-7.9 7.4-7.9a7 7 0 0 1 6.7 4.7l.2.5h5.6v-10h-5v2.4a12.2 12.2 0 0 0-7.7-2.7c-6.9 0-12.4 5.8-12.4 13s5.6 13 12.4 13c5.1 0 9.8-3.4 11.6-8.4l.5-1.5h-5.2zM241.2 152.7l2.3-6.6 2.3 6.6h-4.6zm4.3-14.2h-4l-9.6 25.1h5.4l2.4-6.3h7.4l2.5 6.3h5.4l-9.5-25.1z"/><path class="st3" d="M192 68a17.3 17.3 0 1 1-.5-10.1h44.4V8.3h-29v2a61.7 61.7 0 0 0-75.6 9.5 61.7 61.7 0 0 0 0 87.8A62 62 0 0 0 236 76c.7-3.7.7-7.8.7-7.8H192z"/><path class="st3" d="M175.2 127.2a63.2 63.2 0 0 1-63.6-63.6A63.2 63.2 0 0 1 175.2 0c10.5 0 20.9 2.6 30.2 7.6v-.9h32.1v52.7h-47.1l-.4-1a15.8 15.8 0 1 0 .4 9.2l.3-1.2h47.5V68c0 .2 0 4.3-.7 8.1a63.5 63.5 0 0 1-62.3 51.1"/><path class="st1" d="M192 68a17.3 17.3 0 1 1-.5-10.1h44.4V8.3h-29v2a61.7 61.7 0 0 0-75.6 9.5 61.7 61.7 0 0 0 0 87.8A62 62 0 0 0 236 76c.7-3.7.7-7.8.7-7.8H192z"/><path class="st1" d="M218.2 74.4c-1.2 7.9-4.9 18-12.7 26.1-22.2 22.9-56.6 12.6-65.7 5.9l-1-.7a55.7 55.7 0 0 0 91.1-31.2l-11.7-.1z"/><path class="st1" d="M175.2 8a55.6 55.6 0 0 0-36.4 97.6c1.2.1 11.1.7 19.1-2.4 0 0-22.1-5.3-29.3-29-6.6-21.7 5-35.6 5-35.6s8.6-16.8 31.4-24.1a51 51 0 0 1 46.6 7.1A55 55 0 0 0 175.2 8"/><path class="st1" d="M211.6 14.7v6.9h-.1c-1-.2-10.2-1.8-19 2.6a39.6 39.6 0 0 1 24.7 27.3h12.3V14.7h-17.9z"/><path class="st0" d="M202.2 54.1a30.2 30.2 0 0 0-27-17.3 6.3 6.3 0 0 1-5.9-3.9c-1-2.3-.5-5.1 1.2-6.9l.8-.8a42.9 42.9 0 0 0-9 4.8A37.5 37.5 0 0 0 146 59.6c-.2 3-2 4.5-2 4.5-.5.5-1 .8-1.6 1.1a6.5 6.5 0 0 1-6-.1 36.1 36.1 0 0 0 8.2 14.4 38.8 38.8 0 0 0 23 11.1c3.6.3 5.8-.1 8.1-.1a6 6 0 0 1 5.4 3.7c1 2.3.6 5.1-1.2 6.9l-1.5 1.5A40.7 40.7 0 0 0 203.7 73l1-5H192a17.3 17.3 0 1 1-.5-10.1h12.1c0-.1-.4-1.5-1.4-3.8"/><path class="st2" d="M175.2 119.2a55.6 55.6 0 1 1 36.4-97.6v-6.9h17.9v36.8H208a36.8 36.8 0 0 0-32.8-21 33.4 33.4 0 0 1 25-10.4c6.6 0 11.4 1.6 11.4 1.6a40.2 40.2 0 0 0-22.8-5.8 52 52 0 0 0-30.3 9.1 43.8 43.8 0 0 0-19 34.6c-3.3-2.3-5.3-6.8-6-11.4-.7-4.8.1-9.5.1-9.5-8.2 12-5.6 33 6.4 45.3a44.2 44.2 0 0 0 30.7 13.2c1.5 0 3.1-.3 4.5-.5a33 33 0 0 1-25 10.4c-6.6 0-11.4-1.6-11.4-1.6a41 41 0 0 0 23.5 6.3 47 47 0 0 0 47.8-37.6h19.8a55.8 55.8 0 0 1-54.7 45M146 59.6c.3-11.4 6-22 16.3-29.5 2.7-2 5.7-3.6 9-4.8l-.8.8a6.5 6.5 0 0 0-1.2 6.9c1 2.4 3.3 3.9 5.9 3.9a30.1 30.1 0 0 1 28.4 21h32.3V8.3h-29v2a61.7 61.7 0 0 0-75.6 9.5 61.7 61.7 0 0 0 0 87.8A62.1 62.1 0 0 0 236 75.9c.8-4.9.7-7.8.7-7.8h-32s-.3 2.1-1 5a41.1 41.1 0 0 1-25.3 29.6l1.5-1.5a6.5 6.5 0 0 0 1.2-6.9c-1-2.3-3.2-3.8-5.4-3.7-2.3 0-4.4.5-8.1.1-7.3-.6-11-2.9-11-2.9a34 34 0 0 1-20.2-22.6c1 .5 2.1.8 3.1.8s2-.2 2.9-.7a9 9 0 0 0 1.6-1.1c0-.1 1.7-1.7 2-4.6"/><path class="st3" d="M205.5 100.5a48.1 48.1 0 0 0 12.7-26.1H210a47.3 47.3 0 0 1-47.8 37.6c-7.6 0-14.4-1.6-19.2-3.8l-.1-.1-.3-.2-.3-.1-.1-.1-2.3-1.3c8.9 6.7 43.4 16.9 65.6-5.9M192.5 24.1a25.5 25.5 0 0 0-9.1 7.3 37.2 37.2 0 0 1 23.7 18.2v.1l.9 1.8h9.2a39.6 39.6 0 0 0-24.7-27.4"/><path class="st4" d="M192.5 24.1c-1.9-.7-3.8-1.2-5.8-1.6a31.8 31.8 0 0 0-11.4 7.9l2.2.1c2 .1 4 .5 5.9.9 2.7-3.4 5.9-5.8 9.1-7.3"/><path class="st3" d="m211.5 21.5-.7-.2-.5-.1-.4-.1c-1.9-.5-5.4-1.1-9.7-1.1h-.6c-3.4.1-6.4.5-8.6 1.1l-1.2.3-3.1 1.1c2 .4 3.9.9 5.8 1.6 8.8-4.3 18-2.7 19-2.6"/><path class="st3" d="M165 14.5c-22.8 7.3-31.4 24.1-31.4 24.1-.4 10.3 5.7 13.6 6.7 14.1.4-2 .9-3.9 1.5-5.9v-.1l.3-.9 1.6-3.7.1-.2.4-.8.1-.2.4-.7.1-.2 1.4-2.3.2-.3.4-.6.3-.4.4-.6.3-.4.4-.6.3-.4.4-.5.7-.8.3-.4.4-.5.4-.4.5-.5.4-.4.5-.5.4-.4.7-.7.2-.2.9-.8.3-.3.7-.6.4-.3.6-.5.4-.3.7-.6.3-.2 1-.8a52 52 0 0 1 30.3-9.1c9.8 0 18.5 2.4 22.8 5.8a52.2 52.2 0 0 0-46.8-6.9"/><path class="st4" d="M133.6 38.6s-.4 2.6-.4 5.8l.3 3.7c.4 2.7 1.3 5.4 2.6 7.6 1.6 2.6 3.4 3.7 3.4 3.7v-1.5l.1-.7v-.5l.1-.7.1-.7V55l.4-2.4c-1-.4-7-3.8-6.6-14"/><path class="st3" d="M138.8 105.6a39.7 39.7 0 0 0 24.8-.8 37 37 0 0 1-5.7-1.6c-8.1 3.1-18 2.5-19.1 2.4M128.5 74.1a43.2 43.2 0 0 0 29.3 29c3.4-1.3 6.4-3.3 8.4-6.2-1.9-.2-3.9-.6-5.9-1.2h-.1l-.8-.2h-.1l-.8-.2h-.1c-1.1-.3-2.2-.7-3.2-1.2l-.2-.1-.6-.3-.3-.1-.6-.3-.3-.2-.6-.3-.3-.2-.6-.3-.3-.2-1-.5-.4-.2-.5-.3-.5-.3-.4-.3-.5-.3-.4-.3-.5-.3-.4-.3-.5-.3-.4-.2-.7-.5-.3-.2a3 3 0 0 0-.7-.5l-.3-.2-.5-.4-.3-.3-.5-.4-.3-.3-.5-.5-.3-.3-.5-.5-.3-.3-.8-.8a41.5 41.5 0 0 1-11.1-30.4c.3-5.6 1.8-10.9 4.7-15.1.1.5-11.6 14.4-5 36"/><path class="st4" d="M157.9 103.2c1.8.6 3.8 1.2 5.7 1.6 4-1.6 8-4.1 11.6-8l-2 .3H169.6l-.9-.1h-.2l-1-.1-1.1-.1a17.9 17.9 0 0 1-8.5 6.4"/></svg>