<svg version="1.1" id="Layer_1" xmlns="http://www.w3.org/2000/svg" x="0" y="0" viewBox="0 0 451.9 351" style="enable-background:new 0 0 451.9 351" xml:space="preserve"><style>.st0{fill:#a6a8ab}.st2{fill:#fff}.st3{fill-rule:evenodd;clip-rule:evenodd;fill:#00703c}.st4{fill:#3a725d}.st5{fill:#00703c}.st6{fill:#003e7e}.st7{fill:#8bc53f}.st10{fill-rule:evenodd;clip-rule:evenodd;fill:#a6a8ab}</style><path class="st0" d="M77.8 48.7a45.6 45.6 0 0 0 25 5.7c-1.9 2.5-2.6 4.3-2.8 4.7-.3 1.1-.3 2.2.1 3.3.4 1 .9 2 1.5 2.9A74.2 74.2 0 0 0 86 79.2c-5.8 7-7 18.7-7.2 20a4.9 4.9 0 0 0 3.5 5.1l3.1.7c-.2 2.6-.1 4.3 0 4.6a5 5 0 0 0 3.7 4A126.7 126.7 0 0 0 66.2 172a72.8 72.8 0 0 0-20.6 55.4 4.8 4.8 0 0 0 3.9 4.5c5 1.1 15.6 2.2 27.6.9l3.4 4.8-18.9 23.6-32.8 10.5 13.9 12.6-16.8 21-25.9 22L20.5 351l7.9-2.8a1623.9 1623.9 0 0 1 171.2-48.4 1696.7 1696.7 0 0 1 159.6-26.6l5.5-.6 38.8-25.7-3.2-55.5 19.5-12.2 3.4-.7c12-2.5 19.3-4 27.2-13.1.5-.6.9-1.3 1.1-2.1 2.3-9.6-1.7-23-2.1-24.5-.3-.8-.7-1.6-1.4-2.2-.2-.2-4.2-3.7-9.8-6.3l-1.5-.4c-1-.1-9-1-15 .3-3.9-1.4-14.6-5.1-22.8-6h-1.2c-.5.1-4.6.8-11.1 4.1l-3.4-1.4c-.6-.2-1.3-.3-1.9-.2l-3.1.3c-5.9-3.6-10-5.2-10.2-5.3-.6-.3-1.3-.4-2-.4-4.3.2-8.5.7-10.9 1.1a50.7 50.7 0 0 0-8.5-4.2c-.6-.2-1.3-.3-1.9-.3-2.1.1-4.8.5-8.1 1.3l-6.1-1.5c-2.9-2-13.7-9.2-27.5-13.8-.6-.2-1.3-.3-2-.2-1.6.1-14.6 1.6-21.6 3.6a74.9 74.9 0 0 0-12.8-9.3c-.6-.3-1.3-.5-2-.5h-2.3a37.5 37.5 0 0 1 6.9-13.2 7 7 0 0 0 1.9-5.1c-.1-1.4-.6-2.7-1.4-4.2a38.6 38.6 0 0 0 3.5-25.2 35.3 35.3 0 0 0-6.8-42l-.6-.6a6 6 0 0 0-6.8-1.5l-4.6 1.9-4.6-4a6.2 6.2 0 0 0-6.4-1l-5.7 2.5-5.2-3.6a5.9 5.9 0 0 0-6.6-.1l-4.3 2.7-4.5-3a6.1 6.1 0 0 0-6.5-.1l-4.8 3-5.2-2.5c-2-1-4.4-.7-6.2.7l-5 3.8-6.2-2.2a6.4 6.4 0 0 0-5.4.7l-5.5 3.8-6.7-1.3c-1.9-.4-3.8.1-5.2 1.4l-4.9 4.4-5.5-1.4a6 6 0 0 0-5.9 1.7l-3.2 3.4-6.2-1c-1.8-.3-3.6.2-4.9 1.4l-5.3 4.6-5.9-1.1c-1.8-.3-3.6.2-5 1.3l-6 5.1-7-.4c-1.2-.1-2.4.2-3.4.8L78 38.5c-5 3.1-2.7 8.6-.2 10.2z"/><path d="M444.3 140.3s-3.5-3.2-8.5-5.5c0 0-9.4-1.1-14.7.5 0 0-13.6-5.2-23-6.2 0 0-4.4.7-11.7 4.7-1.3-.7-3.2-1.7-5-2.3 0 0-2.9.2-4.9.6l-10.3-5.8-.2-.1h-.2c-5.3.2-10.9 1.1-12.1 1.3-4.1-2.8-8.9-4.6-9.1-4.7h-.2c-2.5.1-5.7.8-8.5 1.5l-8.1-2s-11.6-8.5-26.9-13.7c-5 .4-20.4 2.7-23.1 4.3 0 0-9-8.1-13.9-10.5h-8.4a44.9 44.9 0 0 1 9.5-21.5c.4-.4.7-.9.6-1.5-.1-1.1-1-2.5-2.3-4a33.6 33.6 0 0 0 4-26.1c10.4-21.4-1-33.8-5.2-38.2l-.6-.6c-.3-.3-.8-.5-1.3-.3l-7.4 3.2-6.9-6a1 1 0 0 0-1.2-.2l-8.2 3.6-7.5-5.2c-.4-.3-.8-.3-1.2 0l-7 4.4-6.8-4.9c-.4-.2-.8-.2-1.2 0l-7 4.4-7.7-3.6c-.4-.2-.8-.1-1.2.1l-7.1 5.4-8.7-3c-.3-.1-.7-.1-1 .1l-7.2 5-8.3-1.7c-.3-.1-.7 0-1 .3l-6.9 6.2-8-2.1c-.4-.1-.8 0-1.1.3l-5 5.4-8.8-1.5a.8.8 0 0 0-.9.3l-7.1 6.2-8.2-1.5a1 1 0 0 0-.9.2l-7.5 6.3-9-.5c-.2 0-.4 0-.6.2L80.5 42.7l-.1.1-.1.1-.1.1-.1.1-.1.1V44.2l.1.1v.1l.1.1.1.1.1.1c9.8 6.3 26.5 5.4 38.9 3.6-12.4 5.8-14.6 12.5-14.6 12.5 1 2.7 2.9 4.5 4.7 5.7a68.8 68.8 0 0 0-19.6 16c-5 6.1-6.1 17.4-6.1 17.4 2.1.6 4.7.9 7.2 1-.9 5-.6 8.3-.6 8.3 4.6 0 8.6-2.1 8.6-2.1l.1 2a123.1 123.1 0 0 0-28 65.6 68.4 68.4 0 0 0-20.5 53 94 94 0 0 0 29 .5l7.2 10.1-22.1 27.6-26.1 8.3 11 10-20 25-22.6 19 15 17.4 4.7-1.7c57.9-19.8 115.6-36 171.7-48.5a1696.2 1696.2 0 0 1 160.1-26.7l4.3-.5 35.5-23.5-3.2-55.6 22.5-14c14.8-3.2 21.2-3.7 28.8-12.4 2.1-9-2-22.4-2-22.4z" style="fill-rule:evenodd;clip-rule:evenodd;fill:#003e7e"/><path class="st0" d="M252 27c-.1 0-1.4-1.2-3.9-2.3 0-2.5-.9-4.9-2.8-7.3l-.3-.1-.1.3c1.2 2.1 1.7 4.2 1.5 6.3a26 26 0 0 0-9.3-1.6c-.2-1.9-1-3.6-2.6-5.2h-.3l-.1.3c.7 1.6.9 3.2.6 5l-4.2.6-.2.3c0 .1.1.2.3.2l3.9-.1c-.4 1.7-1.2 3.5-2.4 5.3l-4.9.3c-.1 0-.2.1-.2.3 0 .1.1.2.3.2 1 0 2.4 0 4.1.2-1.4 2-3.3 4.1-5.6 6.3a31 31 0 0 0-4.3.3c-.1 0-.2.1-.2.3 0 .1.1.2.3.2l3.3.2a121 121 0 0 1-6.8 5.9 27 27 0 0 0-4 .3c-.1 0-.2.1-.2.3 0 .1.1.2.3.2.7 0 1.7 0 2.8.2l-7.9 6.1a37 37 0 0 0-4.7.3c-.1 0-.2.1-.2.3 0 .1.1.2.3.2l3.3.2-7.3 5.4-2.8 2.1c-1.5 0-3.1.1-4.6.3-.1 0-.2.1-.2.3 0 .1.1.2.3.2l3.3.2-10.1 7.6c-2.2-.1-4.5 0-6.8.3-.1 0-.2.1-.2.3 0 .1.1.2.3.2 1.2 0 3.1.1 5.2.4l-10.1 8.1c-2.8-.2-5.7-.1-8.6.3-.1 0-.2.1-.2.3a52 52 0 0 1 7.2.8c-4.5 3.8-8.4 7.4-12 11a57 57 0 0 0-13.4 3.7l.3.2c2.4-.6 6.5-1.2 10.8-1.6-4.1 4.4-7.7 8.7-10.7 13a72.2 72.2 0 0 0-15.4 7.3c-.1.1-.2.2-.1.3.1.1.2.2.3.1 2.2-1.1 6.8-2.8 13-4.5-3.8 6-6.6 12.1-8.3 18.2a91 91 0 0 0-12.1 9.6c-.1.1-.1.2 0 .4a99.5 99.5 0 0 1 11.4-6.7c-1.1 5.1-1.8 7-1.3 12.2l.2.2 5.3-2.7a7.7 7.7 0 0 0 2.2 4.3c-1.6-6.3-1-12.5 0-17.2 5.8-2.8 14.6-6.7 23.8-9.3a30.2 30.2 0 0 0-1.3 8.2c.1.1 3.8-.5 3.8-.4.1 4.1 2.3 5.5 2.3 5.4-1.2-5.5.4-11.3 1.4-14.8a64.3 64.3 0 0 1 11-1.6l-.2-.3s-4-.5-10.2 0c1.1-3.4 2.4-6.8 4-10.1a56.3 56.3 0 0 1 6.6.4c0-.1 0-.3-.2-.3 0 0-2.2-.7-5.8-1.3 1.6-3.2 3.4-6.4 5.5-9.5 2.5.5 4.8 1.1 6.7 1.9l.3-.1c.1-.1 0-.3-.1-.3 0 0-2.3-1.3-6.2-2.6 1.9-2.8 4-5.6 6.4-8.4 2.1.9 4 1.9 5.5 3h.3v-.3c-.1-.1-1.8-1.7-5-3.6 2.6-3.1 5.4-6.1 8.6-9.2 1.6.7 3.1 1.5 4.2 2.3h.3c.1-.1.1-.3 0-.4-.1-.1-1.3-1.3-3.7-2.7 2.8-2.7 5.9-5.5 9.4-8.4L214 65h.3c.1-.1.1-.3 0-.4 0 0-1-.9-2.7-2 3.5-3 7-5.8 10-8.1a18 18 0 0 1 3.9 2.1h.3c.1-.1.1-.3 0-.4 0 0-1.2-1.1-3.3-2.4l2.1-1.6 6.2-4.9c1.8.7 3.3 1.5 4.5 2.3h.3c.1-.1.1-.3 0-.4-.1-.1-1.4-1.3-3.9-2.7 2.8-2.3 5.1-4.2 6.9-5.9 1.6.7 3 1.4 4.1 2.2h.3c.1-.1.1-.3 0-.4-.1-.1-1.3-1.2-3.6-2.5 2.6-2.4 4.5-4.5 5.9-6.5 1.2.5 2.3 1.1 3.2 1.7.1.1.3.1.3-.1v-.3s-1.1-1-3-2.1c1.6-2.3 2.4-4.5 2.7-6.6 1.4.5 2.7 1 3.7 1.6.1.1.3 0 .3-.1l-.5-.5zm-8.7 4.4c-2.6-1.2-5.4-2-8.3-2.3 1.2-1.9 1.8-3.7 1.9-5.4 2.4.2 5.8.6 9.1 1.5-.3 2-1.2 4-2.7 6.2zm-6.5 7.3a26.7 26.7 0 0 0-7.8-2.2 44 44 0 0 0 5.3-6.2c2.2.4 5.3 1 8.4 2-1.5 2-3.5 4.1-5.9 6.4zm-7.8 6.7c-2.4-1.1-5-1.8-7.6-2.1a150 150 0 0 0 6.4-5.6c2.1.3 5 1 8 2l-6.8 5.7zm-9.3 7.2a26.4 26.4 0 0 0-7.4-2.2l7.6-6c2 .3 4.9.9 7.9 1.9l-7.6 5.9-.5.4zm-11.1 8.7A28 28 0 0 0 201 59l3-2.2 6.7-5.1c2 .3 4.8.9 7.7 1.9l-9.8 7.7zm-10.4 9a32.9 32.9 0 0 0-8.4-2.6l9.7-7.5c2.1.4 5.1 1 8 2.1a159 159 0 0 0-9.3 8zm-9.9 9.7a37.8 37.8 0 0 0-9.9-3l9.7-8c3.2.6 6.3 1.4 8.9 2.3-3.2 3-6.1 5.8-8.7 8.7zm-8.2 9.9a56.1 56.1 0 0 0-14.2-1.4c3.2-3.2 6.7-6.5 10.6-9.9 3.8.7 7.4 1.7 10.6 2.7a91 91 0 0 0-7 8.6zm-7.2 11.2c-6.3-.5-12.8 0-19.1 1.5 2.7-3.8 6-7.7 9.7-11.6 5.5-.2 10.8 0 15.4.5a89.6 89.6 0 0 0-6 9.6zm-5.5 12.6a80.3 80.3 0 0 0-23.6 8 62.1 62.1 0 0 1 7.7-15.8c7.3-1.7 14.4-2.8 20.5-3a67.4 67.4 0 0 0-4.6 10.8z"/><path class="st2" d="m93.2 94.9 5.5-3.8c.9-1.6-1-2.9-3.2-2.4-1.9 1.7-2.3 6.2-2.3 6.2zM97.8 100.2l5.9-4.9c.8-1.3-.8-3.7-2.7-3.2-3.3 3-3.2 8.1-3.2 8.1zM104.6 102.7l4.3-3.6c.8-1.3-.8-3.7-2.7-3.2-3 3.3-1.6 6.8-1.6 6.8z"/><path class="st0" d="M194.5 35.8c-12.1-2.8-34.6 1.6-50.3 5.8 0 0 20-4.2 44-1.5l6.3-4.3z"/><path class="st3" d="m260.5 16.9-.6 2.7 2 1.5-1.4 2.1 1.9 2-2.3 1.6 1.7 2.3-2.8.7 1 2.7-3.3.9.9 2.7-3.3.4.6 3-3.3.3.4 2.7-3.5.2.3 3-3.9-.1-.2 3.8-3.7-.2-.1 4.2-4.7-.2-.4 4.4-5.4.1-.7 5.2-5.3-.6-.9 6-6.3-.4-.8 6-7.1.6.3 6.8-8.5 2.1 3.6 7.4-7.8 3.2 5.1 7.1-7.7 5.8 4.7 3.2-7.2 8.5c4.1-2.2 13-6.1 13.3-6.2l-.1-.5c-6.4-41.1 76.9-71.4 55.5-95z"/><path class="st4" d="m191.8 118.9-.4-.5 7-8.3-4.8-3.2 7.8-5.9-5.1-7.2 7.9-3.2-3.6-7.4 8.6-2.2-.4-6.8 7.1-.6.8-6 6.3.4.9-6 5.3.6.7-5.2 5.4-.1.4-4.4 4.7.2.1-4.2 3.7.2.2-3.8 3.8.1-.3-2.9 3.5-.2-.4-2.7 3.3-.3-.6-3 3.3-.4-.9-2.7 3.3-.9-1-2.7 2.7-.7-1.6-2.2 2.2-1.6-1.8-1.9 1.4-2-1.9-1.4.7-3.5.4.4a12 12 0 0 1 3.6 9.2c-.5 9.4-11.7 19.5-24.6 31.2C222 73 202 91 205.2 111.9l.1.7-.2.1c-.5.2-9.3 4.1-13.3 6.2zm3-12 4.6 3.1-6.4 7.6c4-2 10.4-4.9 11.7-5.4v-.2c-3.3-21.2 16.9-39.4 34.7-55.4C252.1 45 263.2 35 263.7 25.8c.2-3-.8-5.7-3-8.3l-.4 1.9 2.1 1.5-1.5 2.1 1.9 2.1-2.3 1.6 1.8 2.5-2.9.7 1 2.7-3.3.9.9 2.8-3.4.4.6 3-3.4.3.4 2.7-3.5.2.3 3-3.9-.1-.3 3.8-3.7-.2-.1 4.2-4.8-.2-.4 4.3-5.4.1-.7 5.2-5.3-.6-.9 6-6.3-.4-.8 6-7 .6.3 6.8-8.4 2.1 3.6 7.3-7.8 3.2 5 7.1-7.3 5.8z"/><path class="st5" d="M130.7 55a35.3 35.3 0 0 0-14.4 6.4c4.9 5.9 19.4 8.4 19.4 8.4-1.2 1.6-9.6 2.2-12.8 1.6l-.2.1c-8.4-1.5-22.5 11.2-24.6 13.2 1.6.1 3.6-.1 5 2.8 1.7-.1 4.2 1 4.8 3.6 4.6.5 4.8 4.1 4.8 4.1 5.7-6.8 20-19.6 35.2-29.6a16 16 0 0 0-9.2-1.1s5.9-3.9 15.5-3.6c0 0-2.9-2-7.7-1.7 0 0 9.8-4.7 20.8-4.8a45.8 45.8 0 0 1 12.1-6.6c-7.7-.9-31.1 1.6-48.7 7.2z"/><path class="st6" d="M244 31.7c1.3.5 2.5 1.2 3.5 1.8 0 0-1.1-1-3.2-2.2 1.6-2.4 2.6-4.7 2.8-7.1a22 22 0 0 1 4.1 1.8s-1.4-1.2-4-2.3c0-2.4-.8-4.9-2.8-7.3 1.3 2.3 1.8 4.5 1.5 6.8-2.5-.9-5.8-1.8-9.7-1.7a8.2 8.2 0 0 0-2.5-5.3c.7 1.7.9 3.5.6 5.3l-4.3.6h4.2c-.4 1.9-1.3 3.8-2.6 5.8l-5 .3c1 0 2.6 0 4.5.3a45 45 0 0 1-6 6.8l-4.4.3 3.8.3-7.3 6.3-4.1.3 3.4.2-8.5 6.5c-1.5 0-3.1 0-4.8.3l4 .3-10.8 7.9c-1.5 0-3 0-4.7.3l3.9.3-10.7 8c-2.1-.1-4.4-.1-6.8.3 1.2 0 3.3.1 5.8.5-3.6 2.8-7.2 5.6-10.7 8.6-2.7-.2-5.6-.1-8.7.3 1.6 0 4.3.2 7.5.6-4.3 3.7-8.5 7.5-12.4 11.4-4.1.6-8.6 1.6-13.2 3.4 2.3-.6 6.5-1.2 11.5-1.6-4.1 4.3-7.9 8.8-11.2 13.5a71 71 0 0 0-15.4 7.3c2.6-1.3 7.6-3.1 13.7-4.7a68 68 0 0 0-8.6 18.8c-4 2.6-8.1 5.8-12.2 9.6 2.3-1.7 6.4-4.3 11.5-7-1.1 5.1-1.6 10.4-1.1 15.9 2-1.9 7.8-.3 7.8-.3-3.3-5.8-1.9-13.9-.9-18.6 7.3-3.6 15.9-7.1 24.4-9.5a69.1 69.1 0 0 0-2.7 13.1c2.9-1.9 7.9 1.7 7.9 1.7-3.3-3.8-.5-12.7.5-16.2 3.8-.8 7.5-1.3 10.9-1.4 0 0-4-.5-10.5.1 1.2-3.7 2.6-7.3 4.2-10.7 2.3.1 4.4.3 6.5.7 0 0-2.2-.8-6.1-1.4 1.7-3.5 3.6-6.8 5.8-10 2.5.5 4.8 1.1 6.9 2 0 0-2.3-1.4-6.4-2.7a97 97 0 0 1 6.7-8.8 28 28 0 0 1 5.7 3.1s-1.8-1.8-5.2-3.7c2.9-3.4 5.9-6.5 9-9.5 1.6.7 3.1 1.5 4.4 2.4 0 0-1.4-1.3-4-2.9 3.2-3.1 6.5-6 9.8-8.8 1.2.6 2.4 1.2 3.4 1.9 0 0-1-1-3-2.2 3.5-3 7-5.8 10.4-8.5 1.5.6 2.9 1.3 4 2.2 0 0-1.2-1.2-3.6-2.5l8.7-6.9c1.7.7 3.3 1.5 4.7 2.4 0 0-1.4-1.4-4.1-2.8 2.7-2.2 5.1-4.2 7.3-6.3 1.6.6 3 1.4 4.3 2.3 0 0-1.3-1.3-3.8-2.7 2.6-2.5 4.8-4.8 6.4-7zm-7.9-9.5c3 .2 6.5.7 9.6 1.6-.4 2.2-1.4 4.4-3 6.7a26.4 26.4 0 0 0-8.8-2.5c1.3-2 2.1-4 2.2-5.8zm-93.5 98.9a61.8 61.8 0 0 1 8-16.6c6.7-1.6 14.1-2.8 21.1-3.1a72.1 72.1 0 0 0-4.8 11.4 77.7 77.7 0 0 0-24.3 8.3zm29.8-21c-5.2-.4-12.1-.3-19.9 1.6 3-4.2 6.4-8.3 10.2-12.2a96 96 0 0 1 16 .6 80 80 0 0 0-6.3 10zm7.1-11.2a51 51 0 0 0-14.9-1.4c3.5-3.6 7.3-7.1 11.2-10.5 3.6.7 7.5 1.6 11.1 2.9-2.6 2.9-5.1 5.9-7.4 9zm8.1-9.8a41.7 41.7 0 0 0-10.6-3.2 270 270 0 0 1 10.3-8.4c3 .6 6.4 1.4 9.5 2.5-3.1 2.9-6.2 5.9-9.2 9.1zm9.9-9.7a35.4 35.4 0 0 0-9-2.8l10.3-7.9c2.7.5 5.8 1.2 8.6 2.2-3.3 2.7-6.6 5.5-9.9 8.5zm10.5-9c-2.1-1-4.9-2-8.2-2.5l10.3-7.8a44 44 0 0 1 8.3 2.1L208 60.4zm11-8.7c-2.1-1-4.8-1.9-8-2.3l8.1-6.4c2.6.4 5.6 1.1 8.5 2l-8.6 6.7zm9.3-7.2c-2.2-1-5-1.9-8.3-2.2 2.6-2.1 4.9-4.1 6.9-6.1 2.7.4 5.8 1.1 8.6 2.1a120 120 0 0 1-7.2 6.2zm7.8-6.7c-2.2-1-5-2-8.5-2.3 2.4-2.3 4.3-4.5 5.8-6.6 2.8.4 6 1.2 8.9 2.2a46.8 46.8 0 0 1-6.2 6.7z"/><path class="st6" d="m134.5 144.2-.1-1c-.4-5-.1-10.1.9-15.1a95.2 95.2 0 0 0-10.6 6.5l-.6-.7a85 85 0 0 1 12.1-9.6 66 66 0 0 1 8-17.7c-6 1.7-10.3 3.3-12.5 4.4l-.4-.8a72.2 72.2 0 0 1 15.4-7.3c2.9-4.1 6.3-8.3 10.3-12.6-4.8.4-8.4 1-10.2 1.5l-.3-.9a57 57 0 0 1 13.2-3.4c3.5-3.5 7.3-7 11.6-10.7-2.6-.3-4.9-.5-6.4-.5l-.1-.9c2.9-.4 5.8-.5 8.6-.3l9.7-7.8c-1.9-.2-3.6-.4-4.7-.3l-.1-.9c2.3-.3 4.5-.4 6.8-.3l9.6-7.2c-1.1-.1-2-.2-2.7-.1l-.1-.9c1.5-.2 3.1-.3 4.6-.3l2.9-2.1 6.8-5-2.8-.2-.1-.9a37 37 0 0 1 4.7-.3l7.4-5.7-2.3-.1-.1-.9 3.9-.3c2.5-2 4.6-3.8 6.4-5.5l-2.8-.2-.1-.9a31 31 0 0 1 4.3-.3c2.2-2.1 4-4.1 5.3-6-1.5-.2-2.8-.2-3.7-.2l-.1-.9c1.6-.2 3.2-.4 4.8-.4 1.1-1.7 1.9-3.4 2.3-4.9l-3.6.1-.1-.9c1.3-.3 2.7-.5 4-.6.2-1.7 0-3.2-.6-4.7l.8-.5a8.7 8.7 0 0 1 2.6 5.1c3.1 0 6.1.5 8.9 1.5.1-2-.4-4-1.5-5.9l.8-.5c1.9 2.4 2.9 4.8 2.9 7.3 2.4 1.1 3.8 2.2 3.9 2.3l-.5.8c-1-.6-2.1-1.1-3.4-1.5-.3 2-1.1 4.1-2.6 6.3 1.8 1.1 2.8 2 2.9 2l-.6.7-3.1-1.7c-1.4 1.9-3.3 4-5.7 6.2 2.2 1.3 3.3 2.4 3.4 2.4l-.6.7c-1.1-.7-2.4-1.5-3.9-2.1a89.5 89.5 0 0 1-6.6 5.6c2.3 1.3 3.6 2.5 3.6 2.6l-.6.7c-1.2-.8-2.6-1.6-4.3-2.3l-6.1 4.8-1.9 1.5c2 1.2 3 2.2 3.1 2.3l-.6.7c-1-.7-2.3-1.4-3.7-2-2.9 2.3-6.3 5-9.7 7.9 1.6 1 2.5 1.9 2.5 1.9l-.6.7c-.8-.6-1.9-1.2-3-1.7a192 192 0 0 0-9.1 8.2c2.3 1.4 3.5 2.6 3.6 2.6l-.6.7c-1.1-.8-2.5-1.6-4.1-2.3-3.1 3-5.8 5.9-8.3 8.9a21 21 0 0 1 4.8 3.5l-.6.7c-1.5-1-3.3-2-5.3-2.9a131 131 0 0 0-6.1 8 44 44 0 0 1 5.9 2.5l-.4.8c-1.9-.8-4.1-1.4-6.6-1.9-2 3-3.7 6-5.3 9.1 3.5.6 5.5 1.3 5.6 1.3l-.2.9c-1.8-.3-3.9-.5-6.1-.6a89.3 89.3 0 0 0-3.9 9.7c6-.5 9.7 0 9.9 0v.9c-3.2.1-6.7.5-10.6 1.3v.1c-1 3.6-3.5 11.9-.5 15.4l-.6.7s-4.8-3.3-7.3-1.6l-.8.5.1-1c.5-4.2 1.3-8.4 2.5-12.4-9.1 2.6-17.6 6.4-23.3 9.2-1.8 8-1.5 13.9.9 18l.6 1-1.1-.3c-1.5-.4-5.8-1.2-7.3.2l-.7.8zm2.2-17.8-.2 1a54 54 0 0 0-1.2 15c1.9-.9 4.9-.5 6.5-.1-2.1-4.3-2.2-10.2-.5-18v-.2l.2-.1c5.9-2.9 15-6.9 24.5-9.5l.8-.2-.2.8c-1.2 4-2.1 8.1-2.6 12.2 2-.7 4.4.3 6 1.1-1.8-4.3.3-11.3 1.3-14.6l.2-.6.3-.1 3.2-.6-2.7.2-.7.1.2-.7c1.1-3.6 2.6-7.2 4.2-10.7l.1-.2.3-.6c1.7-3.4 3.6-6.7 5.8-10l.2-.2.3-.5c2-3 4.3-5.9 6.7-8.9l.2-.2.4-.4c2.7-3.2 5.7-6.3 9-9.6l.4-.4c2.9-2.8 6.1-5.7 9.7-8.7l.5-.4c3.6-3.1 7.3-6 10.3-8.4l2.9-2.3 6.3-5 .5-.4c3-2.5 5.4-4.4 7.3-6.2l.4-.4a45 45 0 0 0 6.2-6.8l.3-.4c1.7-2.5 2.6-4.7 2.7-6.8v-.5l-.3-2.7a8 8 0 0 1 0 2.2v.7c-.4 2.2-1.4 4.5-3.1 6.9v.1l-.4.5a46.8 46.8 0 0 1-6.3 6.8l-.6.5c-2 1.8-4.3 3.8-7.3 6.1l-.7.5-7.9 6.2-1.3 1c-3.1 2.4-6.8 5.2-10.4 8.2l-.6.5c-3.7 3-6.9 5.8-9.9 8.5l-.7.6a159 159 0 0 0-9.2 9.1l-.2.2-.3-.1a37.8 37.8 0 0 0-10.4-3.1l-1-.2.8-.7c3.1-2.7 6.5-5.4 10.3-8.5l.2-.1h.2a71 71 0 0 1 9.1 2.3 30.7 30.7 0 0 0-8-2.3l-1.1-.2.8-.7 10.3-7.9 4.4-3.3 6.8-5.2 1-.7 8.1-6.4.9-.7c2.7-2.2 5-4.2 6.9-6.1l.2-.2.6-.6c2.5-2.4 4.3-4.6 5.7-6.6l.2-.2.3-.5c1.3-2.1 2-3.9 2.1-5.6v-.8a7.5 7.5 0 0 0-1-3.2c.2 1.1.2 2.2 0 3.3v.1l-.1.5c-.4 1.9-1.3 3.9-2.7 6l-.4.6a48 48 0 0 1-5.9 6.7l-.7.7c-2 1.9-4.3 3.9-7 6.1l-.9.6c-2.3 1.9-5 3.9-8.3 6.4l-.9.7-7.8 5.7-3.8 2.8-10.7 8-1 .8c-3.9 3-7.4 5.8-10.7 8.6l-.1.1h-.2l-1.9-.1.9.1 1 .1-.8.7c-4.7 4-8.7 7.7-12.4 11.4l-.1.1h-.2c-2.3.3-4.6.8-6.9 1.4l5.1-.5 1.2-.1-.8.9c-4.3 4.5-8.1 9-11.1 13.4l-.1.1h-.1a62.6 62.6 0 0 0-9.7 4.1l7.7-2.4 1.2-.3-.7 1c-4 6.2-6.9 12.4-8.6 18.6v.2l-.1.1a74 74 0 0 0-7.2 5.3c1.8-1.1 3.9-2.3 6.1-3.4l.7-.4zm41.4-50.7c3.3.6 6.4 1.6 9.4 2.9 2.6-2.8 5.3-5.5 8.4-8.4-2.5-.9-5.5-1.6-8.5-2.2l-9.3 7.7zm11.5-9.4c2.7.5 5.4 1.3 7.8 2.5 2.7-2.5 5.7-5 9-7.8a42 42 0 0 0-7.6-1.9l-9.2 7.2zm11.3-8.7c2.5.4 4.8 1.2 7 2.2l9.5-7.5c-2.7-.9-5.4-1.4-7.2-1.8l-6.7 5.1-2.6 2zm-.7.9 4.3 1c-1.4-.5-2.8-.8-4.3-1zm11.9-9.4c2.4.4 4.7 1.1 6.8 2.1l.4-.3 7.2-5.6c-2.8-.9-5.5-1.4-7.4-1.7a161 161 0 0 1-7 5.5zm-.4.9zm9.7-7 4.3 1c-1.4-.5-2.8-.8-4.3-1zm-.3-1c2.5.3 4.9 1 7.1 2l6.4-5.4c-2.8-.9-5.6-1.5-7.6-1.8a126 126 0 0 1-5.9 5.2zm7.6-6.9c2.6.4 5 1.1 7.4 2.1 2.3-2.2 4.1-4.1 5.5-6-2.9-1-5.8-1.6-7.9-1.9a47.5 47.5 0 0 1-5 5.8zm.2 1 4.3 1c-1.4-.4-2.8-.8-4.3-1zm5.8-8.4c2.8.4 5.4 1.1 7.8 2.2 1.4-2 2.2-3.9 2.6-5.8a59 59 0 0 0-8.7-1.5c-.1 1.7-.6 3.3-1.7 5.1zm.1.9zm3.4-6.7zM141.9 122l.3-1.1a62 62 0 0 1 8-16.7l.1-.2h.2c7.6-1.8 14.9-2.9 21.2-3.1h.8l-.4.7a85 85 0 0 0-4.8 11.3l-.1.3h-.3a77.5 77.5 0 0 0-24.1 8.3l-.9.5zm9-17.1a63 63 0 0 0-7.5 15.2 79.8 79.8 0 0 1 23.1-7.8c1.2-3.5 2.7-7 4.4-10.5-6 .4-12.9 1.4-20 3.1zm.5-2.4.7-1c2.9-4 6.3-8.1 10.2-12.3l.1-.1h.2c5.8-.2 11.3 0 16.1.6l.8.1-.5.6a91.8 91.8 0 0 0-6.3 10l-.1.3h-.3c-6.5-.5-13.2 0-19.7 1.6l-1.2.2zM162.9 90c-3.5 3.7-6.7 7.4-9.3 11.1a68 68 0 0 1 18.5-1.4c1.7-3.1 3.6-6.2 5.8-9.2-4.5-.6-9.7-.7-15-.5zm16.8-.5-.3-.1a52.4 52.4 0 0 0-14.8-1.4l-1.2.1.8-.8c3.4-3.4 7-6.8 11.2-10.5l.2-.1h.2c4 .7 7.9 1.8 11.2 2.9l.7.2-.5.5c-2.7 2.9-5.1 6-7.3 8.9l-.2.3zM167.2 87c4.1 0 8.1.5 12.1 1.4 2-2.7 4.3-5.5 6.7-8.2-3-1-6.5-1.9-10.2-2.6-3.8 3.3-7.1 6.4-10.2 9.5l1.6-.1z"/><path class="st7" d="M179.3 47.7c-48.5-3.7-63.5 13.5-63.5 13.5.8 2.2 7.7 4.9 7.7 4.9-2.8-2.4-2.9-3.9-2.9-3.9 17.7-14.4 58.7-14.5 58.7-14.5zM98.2 84.6c4.2-4.7 16.9-15.3 26-13.2-5.9.2-20.2 10.2-22.6 14-1.4-.9-3.4-.8-3.4-.8z"/><path class="st3" d="M219.7 25.6c-.5-4.6-3.5-7.9-3.5-7.9l-3.5 1.2-2.9-3.8-3.8 2.4-4.1-2.5-3.6 2.7-4.9-2.3-4.7 3.7-5.2-2.3-3.3 3.6-5.3-2-2.8 2.5-5.4-1.3-3.9 3.5-5.5-1.7-3.3 3.8-6-1.4-4.7 4.1-5.8-.7-4.9 3.6-6.5-.7-4.4 4.2-6.7-.7-3.8 3.7-5.7-.5-9.6 4.5c16.4 6.2 73.2-23.2 114.6-18.6 3.1.3 5.8 1.8 6.6 3.7l-3.6 1.1-.4 4.7-4.8.4-.4 4.1h-5.1l-.6 3.7-4.8.3-.6 4-4.5-.4-.7 3.7-3.6-.3-.7 3.6-4.5.1-.6 4.1-5-.1-1.4 4.9-5.2-.5-.9 5.4-6.2-.3-1 5.6-7.3-.2-1.7 6.5-8-.7-1.2 7.2-9.2-.5-.5 7.9-9.9.3-.2 8.8-10.7 2.1 2.4 9.2-11.1 3.2 5.1 9.9-11.7 2.9 4.2 7.3a31.6 31.6 0 0 0-11.5 14.5s11.8-11.7 29.4-10.5c-4.3-4.2-4.5-11.1-1.3-19.3C140 79 222.2 40.5 219.7 25.6z"/><path class="st2" d="M343.6 196.9 130 232.6l15.6-18.6 199.5-31.6z"/><path d="M130 233.8c-.4 0-.8-.2-1-.6-.2-.4-.2-.9.1-1.3l15.6-18.6.7-.4 199.5-31.6c.3-.1.7.1 1 .3.3.2.4.6.3.9l-1.5 14.5c-.1.5-.4.9-.9 1l-213.6 35.8h-.2zm16.2-18.7L132.8 231l209.7-35.1 1.3-12.1-197.6 31.3zm197.4-18.2z" style="fill:#a09e9e"/><path class="st6" d="M158.7 215.2c-3.5.6-4.6 1.3-6.2 3.4l-7.7 10 5.6-2.4 2.9-3.8 11.2-2 1.9-2.6-11 1.9 1.7-2.2 17.4-3 1.8-2.4-17.6 3.1zM180.5 211.5l4.2-.7-5.7 8.1 17.3-3-1.6 2.5-21.8 3.8 7.6-10.7zM203.9 214.6l3.4-5.4 17.3-2.9-3 5.3-17.7 3zm-1.3-4.1-2.7 4.2c-1.6 2.5-.9 2.9 2.6 2.3l17.3-3c3.5-.6 4.9-1.4 6.3-3.8l2.2-4c1.3-2.4.6-2.8-2.8-2.3l-16.6 2.7c-3.2.7-4.7 1.4-6.3 3.9zM253.8 201.3c1.3-.2 1.8-.1 1.5.7l-.1.1c-.4.8-1.1 1.1-2.4 1.3l-13.1 2.1 1.1-2.1 13-2.1zm-21.9 12 5-2.1 1.7-3.4 7.5-1.2 5.8 2.1 6.2-1-6.9-1.9 2.4-.4c2.8-.5 4.4-1.3 5.1-3l.7-1.6c.7-1.7-.2-2.1-3-1.7l-18.7 3-5.8 11.2zM268 197.2l4.2-.7-3.7 9.4-4.3.7 3.8-9.4zM280.7 201.8l1.8-5 10.8-1.7c4-.6 6-1 5.3 1.4-.8 3-3.4 3-8.9 3.9l-9 1.4zm-5.1 2.9 14.4-2.3c7.8-1.3 12-2.6 13-6.4.9-3.5-2.3-3.9-9.1-2.9l-14.9 2.3-3.4 9.3zM325.5 196.7l4.1.7 1.1-7.3c.3-2.1-.7-2.4-4.1-1.9l-12.5 1.9c-3.3.5-4.6 1.2-5.1 3.3l-1.8 7.6 4.7-2.1.6-2.5 13.5-2.1-.5 2.4zm-12.7-2.4.5-2.2 13.2-2-.4 2.2-13.3 2z"/><path d="m364.7 216.3-.1-23.9 10.5-1.5.1 14 10.8.4-.4-18.5 20.3-13.1-51 6.6-2.7 45.1 23.5-1.7.6 20.1-15.1 9.9A1696.5 1696.5 0 0 0 206.6 278c-60.7 12.9-122 29.6-183.4 50.4l6 6.9c20.1-6.8 40.1-13.1 60.1-19L93 311l1.5 2.4L99 309l.6 4.5c34.3-9.9 68.4-18.5 102.4-25.9 18.9-4 37.6-7.6 56-10.8l2.8-4.1 1.5 2.4 4.5-4.3.5 4.4a1699 1699 0 0 1 95.9-13.6l25.1-16.6-.9-30-22.7 1.3z" style="fill-rule:evenodd;clip-rule:evenodd;fill:#fff"/><path class="st2" d="m29 335.7-.1-.1-6-6.9v-.1l.1-.1a1617.6 1617.6 0 0 1 183.4-50.4A1683.4 1683.4 0 0 1 361 253.8l15-9.9-.6-19.9-23.3 1.6h-.1v-.1l2.7-45.1.1-.1 51-6.6.2.1-.1.2-20.2 13 .4 18.5v.1s-.1.1-.1 0l-10.8-.4a.2.2 0 0 1-.2-.2l-.1-13.9-10.2 1.4.1 23.6 22.5-1.4h.1l.1.1.9 30-.1.1-25.1 16.6h-.1c-31.5 3.5-63.8 8.1-95.9 13.6h-.1l-.1-.1-.5-4-4.3 4.1s-.1.1-.1 0l-.1-.1-1.3-2.2-2.7 3.9-.1.1c-18.6 3.3-37.5 6.9-56 10.8-33.9 7.4-68.4 16.1-102.4 25.9h-.1l-.1-.1-.5-4.2-4.3 4.1h-.1l-.1-.1L93 311l-3.7 5.4-.1.1A2226 2226 0 0 0 29 335.7zm-5.8-7 5.8 6.7c19.7-6.6 39.9-13 59.9-18.9l3.9-5.6.1-.1.1.1 1.4 2.3 4.4-4.2s.1-.1.2 0l.1.1.5 4.3c34-9.8 68.4-18.5 102.3-25.9a1777 1777 0 0 1 55.9-10.8l2.8-4 .1-.1.1.1 1.4 2.3 4.4-4.2s.1-.1.2 0l.1.1.5 4.2c32.1-5.5 64.3-10.1 95.7-13.6l25-16.5-.9-29.7-22.5 1.4h-.1v-.1l-.1-23.9.1-.2 10.5-1.5h.1l.1.1.1 13.9 10.5.3-.4-18.4.1-.1 19.7-12.7-50.2 6.5-2.7 44.8 23.3-1.6h.1l.1.1.6 20.1-.1.1-15.1 9.9h-.1a1718.4 1718.4 0 0 0-154.6 24.3c-61.1 13-122.8 29.9-183.4 50.4z"/><path class="st2" d="m133.1 216.4-43.7 7.2 8.5 10.8-29.8 37.1-11.4 3.7 4.7 4.2-28 34.9-10.6 9.4 40.9-13.3 13.7-17.9L61.5 303l-12.4 3.5L71 277.8l17-5 7.1-9-16.7 4.9 28.4-34.7 7-1.2 1.2 6.1z"/><path class="st2" d="m22.8 323.9-.1-.1v-.2l10.6-9.5 27.9-34.7-4.6-4.1s-.1-.1 0-.2l.1-.1 11.3-3.6 29.7-37-8.4-10.6v-.2l.1-.1 43.8-7.3.2.1v.2L115.1 239l-.2.1-.1-.1-1.2-6-6.8 1.2-28 34.2 16.2-4.7.2.1v.2l-7 8.9-.1.1-17 5-21.6 28.3 12-3.4 15.8-10.4h.2c.1.1.1.1 0 .2l-13.7 17.9-.1.1-40.9 13.2zM57 275.2l4.5 4c.1.1.1.2 0 .2l-28 34.9-10.1 9 40.2-13.1 13.1-17.1-15.1 9.9-12.4 3.5-.2-.1v-.2l21.9-28.7.1-.1 17-5 6.7-8.5-16.2 4.7-.2-.1v-.2l28.4-34.7.1-.1 7-1.2.2.1 1.2 5.8 17.6-22-43.1 7.2 8.4 10.5v.2l-29.8 37.2-.1.1-11.2 3.8z"/><path class="st2" d="m127.3 239.4 2.9 2.7-15.3 17.4c-1 1.2-2.6 2.9-4.4 5.2l-5.1 6.1-3.2 3.9-5.8 7.3-.6.8-.4.1.4-.7 3.5-5c1.5-1.9 1.5-1.9 4.2-6.1l3.7-5.8 3.3-4.9 12.9-20.3-13.5 2.5 2.5 2.5-38.7 62.3 9.6-2.9 59.1-67.8-15.1 2.7z"/><path class="st2" d="m73.8 307.5-.1-.1v-.2l38.6-62.2-2.4-2.4s-.1-.1 0-.2l.1-.1 13.5-2.5.2.1v.2l-12.9 20.3-3.3 4.9-3.7 5.8c-2.7 4.1-2.7 4.1-4.2 6.1l-3.5 5-.2.4.5-.7 1.2-1.5 4.6-5.8 3.2-3.9 2.8-3.4 2.2-2.7 3.6-4.3.8-.9 15.2-17.2-2.8-2.6s-.1-.1 0-.2l.1-.1 15.2-2.7.2.1v.2l-59.1 67.8h-.1l-9.7 2.8zm36.4-64.9 2.3 2.3c.1.1.1.1 0 .2L74 307l9.1-2.7 58.8-67.4-14.4 2.6 2.7 2.5c.1.1.1.2 0 .2L115 259.5l-.8.9-3.6 4.3-2.3 2.7-2.8 3.4-3.2 3.9a251 251 0 0 0-4.6 5.8l-1.2 1.5-.6.8-.1.1-.4.1-.2-.1v-.2l.4-.7 3.5-5c1.5-1.9 1.5-1.9 4.2-6.1l3.7-5.8 3.3-4.9 12.7-20-12.8 2.4zM163.3 237.5l2.2 4.1 6.9-10.2-27.4 4.8 3.4 2.8-14.4 20.1-6.7 1.3 3.9 2.6-19.8 28.5-12.1 8.3 32.6-8.8 7.9-12.3-10.9 7.3-6.6 1.8 17.1-25.2 12.5-2.4 3.5-5.2-12.4 2.3 12.9-18.5z"/><path class="st2" d="m99.3 300-.1-.1.1-.2 12-8.3 19.7-28.3-3.8-2.6-.1-.2.1-.1 6.6-1.3L148 239l-3.3-2.7-.1-.2.1-.1 27.4-4.8.2.1v.2l-6.9 10.3-.1.1-.1-.1-2.2-4.1-7.2 1.3-12.6 18.1 11.9-2.3.2.1v.2l-3.4 5.2-.1.1-12.4 2.4-16.8 24.8 6.1-1.6 10.9-7.3h.2c.1.1.1.1 0 .2l-7.9 12.3-.1.1-32.5 8.7zm28.4-39.5 3.6 2.5.1.1v.1l-19.8 28.5-11.3 7.8 31.6-8.6 7.5-11.6-10.3 6.9-6.6 1.8-.2-.1v-.2l17.1-25.2.1-.1 12.4-2.4 3.2-4.8-12 2.3-.2-.1v-.2l12.9-18.5.1-.1 7.4-1.3.2.1 2.1 3.9 6.5-9.7-26.7 4.7 3.2 2.6c.1.1.1.1 0 .2l-14.3 20-.1.1-6.5 1.3zM350.1 250.9l.9-12.5-6.9 6.9-12.4 1.8 2.4-20.1 12.5-2.1.4-4-12.3 2 2.2-14.4 6-.9 5.2 3.1.9-8-26.1 3.9 5.6 2.1-3.5 15.8-6 1 5.4 1.8-5.2 23.7-8.2 4.9z"/><path class="st2" d="m311 256-.1-.1.1-.2 8.1-4.8 5.1-23.5-5.3-1.7-.1-.2.1-.1 5.9-1 3.4-15.5-5.5-2-.1-.2.1-.1 26.1-4h.1s.1.1 0 .1l-.9 8.1-.1.1h-.2l-5.2-3.1-5.8.9-2.1 14.1 12.1-2h.1s.1.1 0 .1l-.4 4-.1.1-12.4 2.1-2.3 19.8 12.1-1.8 6.9-6.9s.1-.1.2 0l.1.2-.9 12.5-.1.1-38.9 5zm8.6-30.4 4.8 1.5.1.2-5.2 23.7-.1.1-7.5 4.5 38.2-4.8.9-12-6.6 6.6h-.1l-12.4 1.8h-.1s-.1-.1 0-.1L334 227l.1-.1 12.4-2.1.4-3.7-12.1 2h-.1s-.1-.1 0-.1l2.2-14.4.1-.1 6-.9h.1l5 3 .8-7.6-25.3 3.8 5 1.9.1.2-3.5 15.8-.1.1-5.5.8zm30.5 25.3zM200.3 228.2c-1.2-.8-2.5-1-6.1-.5l.1-.1-19.7 3.4 3.1 2.2-12.9 20-6.3 1.2 4 2.4-19.9 31.6 10.2-2.5 17.8-29.2 9.2-1.8-16.9 28.6 10.1-2.3 13.4-23.5.7-1.3c1.8-3.1 1.1-4.2-2.5-4.5 4.9-1.9 7-3.4 9-6.7l.7-1.3 4.8-8.2c2.8-5.2 3-6.4 1.2-7.5zm-17.6 21.6-9.1 1.7 11.2-17.8 8.5-1.5-10.6 17.6z"/><path class="st2" d="m142.4 288.5-.1-.1v-.2l19.8-31.4-3.8-2.3-.1-.2.1-.1 6.2-1.2 12.8-19.8-3-2.1-.1-.2.1-.1 19.7-3.4.2.1c3.3-.4 4.7-.3 6 .5 2 1.2 1.6 2.7-1.3 7.6l-5.5 9.5c-2 3.2-4 4.8-8.5 6.6 1.6.2 2.4.6 2.8 1.3.4.7.1 1.8-.8 3.4l-.7 1.3-13.4 23.5-.1.1-10.1 2.3-.2-.1v-.2l16.7-28.3-8.8 1.7-17.8 29.2-.1.1-10 2.5c.1 0 0 0 0 0zm16.4-34 3.6 2.2.1.1v.1l-19.7 31.2 9.8-2.4 17.8-29.2.1-.1 9.2-1.8.2.1v.2l-16.7 28.3 9.6-2.2 14.1-24.7c.9-1.5 1.1-2.5.8-3.1-.3-.6-1.3-1-3.2-1.2l-.1-.1.1-.2c4.8-1.8 6.9-3.4 8.9-6.7l5.5-9.5c3.1-5.2 3.1-6.2 1.4-7.2-1.1-.7-2.2-1-6-.5l-.1-.1L175 231l2.8 2c.1 0 .1.1 0 .2l-12.9 20-.1.1-6 1.2zm14 26.5zm.8-29.4-.1-.1v-.2l11.2-17.8.1-.1 8.5-1.5.2.1v.2l-10.6 17.6-.1.1-9.2 1.7zm11.3-17.8L174 251.3l8.6-1.6 10.4-17.3-8.1 1.4zm-2.2 16zM312.2 248.7l7.2-33.5c.9-4.3.6-5.3-1.9-6.3-1.8-.7-3.3-.8-7.9-.2l-19.8 3.1 5.2 2.2-5.1 16.6-6.6 1.1 5.6 2-7 22.8-7.1 4.6 19.6-3c6.6-.9 9.2-1 12.1-2.5 4.2-2 4.7-2.4 5.7-6.9zm-19.4 3.7 10.4-38.6 8.6-1.4-9.4 38.5-9.6 1.5z"/><path class="st2" d="m274.9 261.4-.1-.1.1-.2 7.1-4.6 6.9-22.6-5.5-2-.1-.2.1-.1 6.5-1.1 5.1-16.4-5.1-2.2-.1-.2.1-.1 19.8-3.1h.1c4.3-.6 6-.5 7.8.2 2.6 1 2.9 2 2 6.4l-7.2 33.5c-1 4.6-1.5 5-5.6 7.1-2.4 1.3-4.7 1.6-9.3 2.2l-2.9.4-19.7 3.1zm9.1-29.6 5.1 1.8.1.2-7 22.8-.1.1-6.5 4.2 18.9-2.9 2.9-.4c4.5-.6 6.8-.9 9.2-2.1 4-2.1 4.5-2.5 5.4-6.9l7.2-33.5c.9-4.2.6-5.2-1.8-6.1-1.8-.7-3.5-.8-7.8-.2h-.1l-19.1 3 4.7 2 .1.2-5.1 16.6-.1.1-6 1.1zm8.8 20.7-.1-.1v-.1l10.4-38.6.1-.1 8.6-1.4h.1v.1l-9.4 38.5-.1.1-9.6 1.6c.1 0 0 0 0 0zm10.6-38.6-10.3 38.3 9.3-1.4 9.3-38.2-8.3 1.3zM222.8 250.6l.6-1.2c1.4-2.9.6-4-3.1-4.3 4.8-1.8 6.7-3.3 8.4-6.5l.6-1.2 3.9-7.9c2.4-4.8 2.5-6 .4-7.1-1.5-.9-3.1-1-8.3-.2l-19.8 3.3 4.8 3-10 17.9-5.5 1 3.8 2-14.5 26.3-7.8 4.4 23.5-4.9v-.1c4-1 5.9-1.7 8.5-3 4.5-2.3 5.9-3.8 8.3-8.9l6.2-12.6zm-17.6 18.3-9.8 2 11.2-21.1 9.2-1.7-10.6 20.8zm13-25.7-9.1 1.7 9.2-17 8.6-1.5-8.7 16.8z"/><path class="st2" d="m176.3 280.3-.1-.1.1-.2 7.7-4.4 14.4-26.1-3.7-1.9-.1-.2.1-.1 5.4-1 9.9-17.7-4.7-2.9-.1-.2.1-.1 19.8-3.3h.1c5-.8 6.8-.7 8.3.2 2.2 1.2 1.9 2.6-.4 7.3l-4.4 9c-1.6 3.1-3.5 4.6-7.8 6.3 1.7.2 2.7.6 3.1 1.3.4.7.2 1.7-.5 3.1l-.6 1.2-6.2 12.8c-2.4 5.1-3.9 6.6-8.4 9a31 31 0 0 1-8.5 3l-.1.1-23.4 4.9zm18.9-32.7 3.4 1.8.1.1v.1l-14.5 26.3-.1.1-6.9 3.9 22.4-4.6.1-.1c3.8-.9 5.8-1.6 8.5-3 4.5-2.3 5.9-3.8 8.3-8.8l6.2-12.8.6-1.2c.7-1.3.8-2.2.5-2.8-.4-.7-1.5-1-3.5-1.2l-.1-.1.1-.2c4.7-1.8 6.6-3.2 8.3-6.4l4.4-9c2.5-5 2.3-5.9.5-6.9-1.4-.8-2.9-1-8.2-.1h-.1l-19.2 3.2 4.5 2.7.1.2-10 17.9-.1.1-5.3.8zm4.5 27.7zm-4.4-4.3-.1-.1v-.2l11.2-21.1.1-.1 9.2-1.7.2.1v.2L205.3 269l-.1.1-9.9 1.9c.1 0 0 0 0 0zm11.4-21.1-11 20.8 9.4-1.9 10.4-20.5-8.8 1.6zm-1.5 19zm4-23.9-.1-.1v-.2l9.2-17 .1-.1 8.6-1.5.2.1v.2l-8.7 16.8-.1.1-9.2 1.7zm9.2-17-9 16.7 8.7-1.6 8.5-16.5-8.2 1.4zm-.2 15.2z"/><path class="st2" d="m256.3 255.6-9 5.9-16.3 3.2 20.9-46.8-14.4 2.4 4.5 2.3-21.1 45-9.6 5.4 40.9-7.9z"/><path class="st2" d="m211.3 273.1-.1-.1.1-.2 9.5-5.3 21-44.8-4.3-2.3-.1-.2.1-.1 14.3-2.4.2.1v.2l-20.7 46.5 15.9-3.1 8.9-5.9h.2c.1 0 .1.1 0 .2l-4.1 9.5-.1.1-40.8 7.8zm26.7-52.7 4 2.1.1.2-21.1 45-.1.1-8.7 4.9 39.9-7.6 3.8-9-8.5 5.6h-.1l-16.3 3.2-.2-.1v-.2l20.7-46.5-13.5 2.3z"/><path class="st2" d="m275.8 214-19.8 3.2 5.5 2.7-6.9 16.8-7.8 1.4 6.1 2.6-7.1 17.1 12.3-8.9 3.6-9.3 9.2-1.6-7.5 21.3-6.1 4.9 14.5-2.5 13.9-42.7c1.8-4.9-1.1-6.4-9.9-5zm-3.2 19.5-9.1 1.6 6.1-15.7 8.6-1.4-5.6 15.5z"/><path class="st2" d="m256.8 264.4 6.5-5.3 7.4-21-8.8 1.6-3.6 9.3-12.8 9.2 7.2-17.5-6.5-2.7 8.2-1.5 6.8-16.5-5.8-2.9 20.3-3.3c5.6-.9 8.8-.6 10.1.9.8.9.9 2.3.2 4.3l-14 42.8h-.1l-15.1 2.6zm14.4-26.6-.1.3-7.5 21.3-5.6 4.6 13.8-2.3 13.9-42.7c.6-1.8.6-3.1-.1-4-1.2-1.4-4.3-1.6-9.8-.8l-19.3 3.1 5.2 2.5-7 17h-.1l-7.2 1.3 5.8 2.4-.1.1-6.9 16.6 11.8-8.5 3.6-9.3 9.6-1.6zm-7.9-2.5.1-.3 6.1-15.8 8.9-1.5-5.7 15.9-9.4 1.7zm6.4-15.8-6 15.4 8.7-1.5 5.5-15.2-8.2 1.3zM267.4 165.4c1.2-1.9 7.4-3 9.8-1.1 2.4 1.9-1.4 12.9.7 15.7-7.2-1.6-12-12.1-10.5-14.6z"/><path class="st6" d="m278.6 180.4-.7-.2c-4.8-1-8.4-5.8-10-9.5-1-2.4-1.3-4.5-.7-5.5.5-.9 2-1.6 3.9-2 1.9-.4 4.7-.4 6.3.8 1.4 1 1 4.4.6 8-.4 3.2-.8 6.5.2 7.8l.4.6zm-10.9-14.9c-.5.8-.2 2.8.7 5 1.6 3.7 4.9 7.8 9 9-.7-1.7-.3-4.5 0-7.6.4-3.3.8-6.6-.3-7.5-1.1-.9-3.4-1.2-5.8-.7-1.8.4-3.2 1.1-3.6 1.8z"/><path class="st2" d="M281.2 167c1.3-1.9 7.4-3 9.8-1.1 2.4 1.9-2.1 6.6 2.2 13-7.2-1.6-12.7-11-12-11.9z"/><path class="st6" d="m293.8 179.3-.7-.2c-5.9-1.3-10.7-7.7-12-10.9-.4-1-.3-1.3-.2-1.5.6-.9 2.3-1.7 4.3-2 2.4-.4 4.6-.1 5.9.9 1.1.9.9 2.3.6 4-.4 2.3-.9 5.4 1.6 9.1l.5.6zm-12.4-12.2c0 .1 0 .7.7 2 1.4 2.7 5.3 7.9 10.4 9.3a12 12 0 0 1-1.3-8.9c.3-1.6.4-2.8-.4-3.5-1.1-.8-3.2-1.1-5.4-.8-1.9.4-3.4 1.1-4 1.9z"/><path class="st2" d="M294.7 166.5c6.3.6 10.4 1.6 10.4 1.6-2.6 2.1-1.7 5.9.3 9.6-10.3-2.4-10.7-11.2-10.7-11.2z"/><path class="st6" d="m306 178.2-.6-.2a14.1 14.1 0 0 1-9.4-6.7 11.5 11.5 0 0 1-1.5-4.8v-.3h.3c6.3.6 10.4 1.6 10.4 1.6l.6.1-.4.4c-2.7 2.2-1.3 6.2.4 9.3l.2.6zm-11-11.3c.2 1.6 1.4 8.1 9.8 10.5-2-4.1-2.2-7.2-.3-9-1.2-.4-4.7-1.1-9.5-1.5z"/><path class="st2" d="M309.4 168.6c4.9.9 9.4 2 9.4 2-2.6 2.1-1.2 3.4.8 7.1-10.4-2.5-10.2-9.1-10.2-9.1z"/><path class="st6" d="m320.1 178.2-.6-.2c-10.4-2.6-10.4-9.3-10.4-9.4v-.3l.3.1c4.8.9 9.3 2 9.4 2l.6.1-.5.4c-2 1.6-1.5 2.6 0 5.3l.8 1.5.4.5zm-10.4-9.2c.1.6.3 1.8 1.2 3.1 1.1 1.7 3.3 3.9 8.1 5.2l-.5-.9c-1.4-2.5-2.2-3.9-.3-5.6l-8.5-1.8z"/><path class="st2" d="M265.9 173c-2.2 4.1-1.7 8.1 1.9 10.4 2.4 1.6 14.3-.1 14.3-.1-10.2-1.8-16.2-10.3-16.2-10.3z"/><path class="st6" d="M272.3 184.4c-2.1 0-3.9-.2-4.7-.7-3.6-2.4-4.3-6.4-2-10.8l.2-.4.3.4c.1.1 6 8.4 16 10.2v.6c-.3 0-5.6.7-9.8.7zm-6.3-10.8c-1.9 3.9-1.2 7.5 2 9.7 1.6 1.1 8.2.6 12.5 0a29 29 0 0 1-14.5-9.7z"/><path class="st2" d="M280.1 171.5c-2.1 3.4-.4 9.6 3.5 11.2 2.2.9 8.2-.4 11.7-1.3-7.7-.8-15.2-9.9-15.2-9.9z"/><path class="st6" d="M285.6 183.3c-.9 0-1.7-.1-2.2-.3a7.2 7.2 0 0 1-4-4.9c-.8-2.4-.6-5 .4-6.8l.2-.3.3.3c.1.1 7.5 9 15 9.8v.6c-2.6.6-6.8 1.6-9.7 1.6zm-5.5-11.3a8 8 0 0 0-.2 5.9 7.1 7.1 0 0 0 3.7 4.5c1.9.8 7-.2 10.1-1-6.3-1.4-12.2-7.9-13.6-9.4z"/><g><path class="st2" d="M293.2 170.5c-.8 2.8 2.6 9.3 4.7 10.2 6.2-1.2 9-.9 9-.9-8.9-1.2-13.7-9.3-13.7-9.3z"/><path class="st6" d="M297.9 181c-2.4-1-5.8-7.7-5-10.6l.2-.6.3.6c0 .1 4.8 8 13.6 9.2l-.1.6s-2.9-.3-9 .8zm-4.6-9.7c-.1 2.9 2.7 8.3 4.6 9.2 2.8-.5 5-.8 6.5-.9a22 22 0 0 1-11.1-8.3z"/></g><g><path class="st2" d="M308.9 179.2c-2.2-.6-3.3-6.5-2.2-8.1 2 4.1 6.8 6.5 9.2 7-2.7.3-7 1.1-7 1.1z"/><path class="st6" d="M308.9 179.5c-1.1-.3-1.8-1.5-2.2-2.5-.8-2-1.1-4.8-.3-6l.3-.4.2.5c1.8 3.8 6.5 6.3 9 6.8v.6c-2.7.2-6.9 1-7 1zm-2.2-7.7c-.3 1.2-.1 3.3.6 5 .5 1.2 1.1 1.9 1.7 2.1l5.5-.9c-2.7-.9-6.1-3.1-7.8-6.2z"/></g><g><path class="st2" d="M323.4 177.2c-2.2-.5-4-5.3-2.5-6.7 2.2 2.9 6.4 5.9 8.9 6.4l-6.4.3z"/><path class="st6" d="M323.4 177.5c-1.5-.4-2.7-2.3-3.1-4-.4-1.4-.2-2.6.5-3.2l.2-.2.2.2c2.2 2.8 6.3 5.8 8.7 6.3v.6l-6.5.3zm-2.5-6.6c-.3.5-.4 1.4-.1 2.4.4 1.8 1.6 3.3 2.7 3.6.3 0 2.7 0 4.9-.2a24 24 0 0 1-7.5-5.8z"/></g><g><path class="st2" d="M324.8 172c1.5 1.6 6.7 3.9 6.7 3.9-.4-2-.1-2.4-.1-2.4-2.2-.8-6.6-1.5-6.6-1.5z"/><path class="st6" d="m331.8 176.4-.5-.2c-.2-.1-5.2-2.3-6.7-3.9l-.6-.6.8.1c.2 0 4.5.7 6.6 1.4l.3.1-.2.3s-.2.5.2 2.2l.1.6zm-6-3.9c1.5 1.1 4.2 2.4 5.3 2.9l-.1-1.8a61 61 0 0 0-5.2-1.1z"/></g><g><path class="st2" d="m333.2 174 .2 2.2 12-.7z"/><path class="st6" d="m333 176.6-.3-3 12.7 1.6v.7l-12.4.7zm.6-2.2.1 1.4 7.6-.4-7.7-1z"/></g><path class="st2" d="M180.7 194.8c-4.2.5-8.5 2.8-8.5 2.8 4.4 2.8 13.6 2.6 13.6 2.6-5.7-2-5.1-5.4-5.1-5.4zM198.4 192.2c3.6 1.1 8.3.8 8.3.8-2 4.5-11.4 6.6-11.4 6.6 2-3.2 3.1-7.4 3.1-7.4zM217.8 190.7c2.8 1.5 8.3.7 8.3.7-3.8 4.3-12.6 5.7-12.6 5.7 3.7-3 4.3-6.4 4.3-6.4zM237.8 188.4c2 .9 8-.5 8-.5a36.2 36.2 0 0 1-13.9 6.2c3.3-2.6 5.9-5.7 5.9-5.7z"/><path class="st5" d="M246.2 167.6a47.9 47.9 0 0 0-17.7-8.1h-.1c-.2.1-4.5 1.2-7.9 3.1-6.2-2.1-14.1-5.8-17.4-2.9l-4.7 4.3-1.4.1c-5.5-1.8-11.3-3.5-13.2-1.8l-3.4 3.1a231.7 231.7 0 0 0-75.5 21.8c8.6-10.5 22.3-25 33.3-33.4l.1-.3-.2-.2a38.3 38.3 0 0 0-30-3.2 48.3 48.3 0 0 0-27.3 24.3c-.1.1 0 .3.1.4.1.1.3.1.4 0a19.2 19.2 0 0 1 15.6-2.2 49.1 49.1 0 0 0-25.3 17.7 47.2 47.2 0 0 0-9.4 26.5c0 .2.1.3.3.3 12.1 1.9 56.8 2 102.2-22.1 21.7-11.6 30.6-11.5 32.8-11.2a10 10 0 0 0-3.1 3.5v.3l.2.2c.5.1 12.8 3.2 18.4 1.4l.1-.1c.2-.2 5.4-4.7 7.1-9.3v-.2c-.1-.2-2.4-4.8-6.8-7.9 3 1 8.5 3.3 12.9 7.8-.3.9-1.9 4.9-5.8 7.4-.1.1-.2.2-.1.3l.2.2.5.1c2.5.7 5.8 1.5 11.4.4l.1-.1c.2-.1 3.9-3 6.3-8v-.2c0-.1-2-5.7-7.9-9.8 2.9 1.1 8.2 3.6 13.9 9-.4.7-1.9 3.3-5.1 6.7l-.1.3.3.2c9.5-.2 13.1-2.2 14-7.9.5-2.7-2.5-6.6-7.8-10.5z"/><path class="st7" d="M202.6 160.1c2.5-2.2 4.5-2.6 4.5-2.6 11.1 2.7 17.8 7.6 17.8 7.6-11.8-4.9-22.3-5-22.3-5z"/><g><path class="st2" d="M262.3 178.5c-.7-5.6 3.2-13.3.7-15.2-2.5-1.9-8.3-.9-10.7.9a37 37 0 0 1 10 14.3z"/><path class="st6" d="M262 178.6a35.8 35.8 0 0 0-9.9-14.1l-.3-.2.3-.2c2.4-1.8 8.4-3 11-.9 1.5 1.2.9 4.1.2 7.5-.5 2.6-1.1 5.5-.8 7.9h-.5zm-9.2-14.3c4 3.8 7.4 8.3 9.1 12.5 0-2.1.5-4.3.9-6.3.7-3.2 1.2-6 0-6.9-2.3-1.8-7.6-.9-10 .7z"/></g><g><path class="st2" d="M320.8 145.3c-3.7-.4-6-2.1-5.2-3.7.2-.5.7-.9 1.3-1.2-2 .3-3.5 1.1-4 2-.8 1.6 1.6 3.2 5.2 3.7 2.6.3 5.1-.1 6.7-.9-1.2.2-2.6.2-4 .1z"/><path class="st6" d="m319.9 146.6-1.8-.1c-2.7-.3-4.8-1.3-5.5-2.6a2 2 0 0 1-.1-1.7c.5-1.1 2.1-1.9 4.3-2.3.2 0 .4.1.5.3.1.2 0 .4-.2.5-.6.3-1 .7-1.2 1v.9c.5.8 2.1 1.8 4.8 2.1 1.3.2 2.7.1 3.9-.1.2 0 .4.1.5.3.1.2 0 .4-.2.5-1.1.9-3 1.2-5 1.2zm-4.7-5.3c-.9.4-1.6.8-1.9 1.3v.9c.5.8 2.1 1.8 4.8 2.1l2.6.1h-.1c-2.7-.3-4.8-1.3-5.5-2.6a2 2 0 0 1-.1-1.7l.2-.1z"/></g><g><path class="st2" d="M341.6 147.4c-3.7-.4-6-2.1-5.2-3.7.2-.5.7-.9 1.3-1.2-2 .3-3.5 1.1-4 2-.8 1.6 1.6 3.2 5.2 3.7 2.6.3 5.1-.1 6.7-.9-1.2.2-2.6.2-4 .1z"/><path class="st6" d="m340.7 148.8-1.8-.1c-2.7-.3-4.8-1.3-5.5-2.6a2 2 0 0 1-.1-1.7c.5-1.1 2.1-1.9 4.3-2.3.2 0 .4.1.5.3.1.2 0 .4-.2.5-.6.3-1 .7-1.2 1v.9c.5.8 2.1 1.8 4.8 2.1 1.3.2 2.7.1 3.9-.1.2 0 .4.1.5.3.1.2 0 .4-.2.5a9 9 0 0 1-5 1.2zm-4.7-5.4c-.9.4-1.6.8-1.9 1.3v.9c.5.8 2.1 1.8 4.8 2.1l2.6.1h-.1c-2.7-.3-4.8-1.3-5.5-2.6a2 2 0 0 1-.1-1.7l.2-.1z"/></g><g><path class="st2" d="M362.1 149.7c-3.7-.4-6-2.1-5.2-3.7.2-.5.7-.9 1.3-1.2-2 .3-3.5 1.1-4 2-.8 1.6 1.6 3.2 5.2 3.7 2.6.3 5.1-.1 6.7-.9-1.2.2-2.6.3-4 .1z"/><path class="st6" d="m361.2 151.1-1.8-.1c-2.7-.3-4.8-1.3-5.5-2.6a2 2 0 0 1-.1-1.7c.5-1.1 2.1-1.9 4.3-2.3.2 0 .4.1.5.3.1.2 0 .4-.2.5-.6.3-1 .7-1.2 1v.9c.5.8 2.1 1.8 4.8 2.1 1.3.2 2.7.1 3.9-.1.2 0 .4.1.5.3.1.2 0 .4-.2.5-1.2.8-3 1.2-5 1.2zm-4.7-5.3c-.9.4-1.6.8-1.9 1.3v.9c.5.8 2.1 1.8 4.8 2.1l2.6.1h-.1c-2.7-.3-4.8-1.3-5.5-2.6a2 2 0 0 1-.1-1.7l.2-.1z"/></g><path class="st7" d="M80.5 175.2s14.1-23.4 37.2-22.5c1-.7 2.2-1.4 3.5-1.9v2.2l1.3.2c1-.6 2.5-1.4 4.8-1.9l-1.7 2.6c2.7.7 5.4 1.8 8.3 3.3l4.6-3.6c-9.5-9.4-44.7-10.2-58 21.6zM225.3 160.4c2.2-1 5.9-1.5 5.9-1.5a76 76 0 0 1 16.4 9.7c-8.6-4.5-22.3-8.2-22.3-8.2z"/><path class="st0" d="M344 126.2c-12.8 2.2-23.8 8-26.9 15.7 1.3 1.9 6.8 1.2 6.8 1.2-3.7-.9-3.2-2.8-3.2-2.8 3.4-7.5 18.5-12.4 23.2-12.8l5.5 1.2-5.4-2.5zM364.9 129.3c-15.5.7-23.3 7-26.4 14.7 1.3 1.9 6.8 1.2 6.8 1.2-3.7-.9-3.2-2.8-3.2-2.8 3.4-7.5 16.2-12.2 22.7-11.9l5.5 1.2-5.4-2.4zM380.7 134.8c-10.2-.5-19.6 5.3-22.2 11.8 1.1 1.6 5.7 1 5.7 1-3.1-.8-2.7-2.4-2.7-2.4 2.9-6.5 13.6-9.7 19.1-9.4l4.6 1-4.5-2z"/><g><path class="st5" d="M437.1 142.7s-3.3-3.7-11.3-.8c-1 .3.1 1.7-.8 1.7-5.2 0-13-5.8-27.5-7.4 0 0-3.8.8-8.6 4.8l-5.5-.8c-3.7-.6-12.9 1.2-15.7 5.5 1.3.8 1.8 1.8 1.3 2.8-.9 1.9-5.2 3.1-9.7 2.6-4.4-.5-7.2-2.5-6.3-4.4.5-1.1 2.1-1.9 4.1-2.3 2-4.7 6.1-7.5 9.8-9l-2.6-.3c-5.4-.2-15.1 3.8-17.3 8.2 1.6.9 2.3 2 1.8 3.1-.9 1.9-5.2 3.1-9.7 2.6-4.4-.5-7.2-2.5-6.3-4.4.4-.9 1.6-1.6 3.1-2.1 1-4.8 5.6-8.5 9.6-10.7h-2.4c-7.7.9-15.1 4.9-16.2 10 .9.7 1.2 1.6.8 2.4-.9 1.9-5.2 3.1-9.7 2.6-4.4-.5-7.2-2.5-6.3-4.4.5-1 1.8-1.7 3.5-2.2 1.6-5 7.6-9.1 11.6-11.2-5.3-.6-10.3.6-10.3.6 3.6-2.2 3.1-3.3 3.1-3.3s-7.3-5.1-19.9-9.5c0 0-7.7.8-14.5 2.7 0 0 3.8 6 24.3 14.5h-2.2.2-.8a85 85 0 0 1-14-1.8c-15.1-4.4-23.7-15.2-31.9-18.8-43.8-3.5-89.5 23.4-123.9 50.9a178 178 0 0 1 45.7-20.5s-18.5 8.3-36.8 22.5c8.1-3.1 17.6-6 27.4-7.8 4.2-3.6 6.8-4.7 7.5-5h.3c.8.1 8.3.7 13.2 2.4 6.9-4.5 10.6-6.3 10.6-6.3 8.1 1.5 18.2 5.7 18.2 5.7 4.5-1.9 9.3-2.6 9.3-2.6 5.4 2 11.2 5 14.2 7 1.4-4.9 11.4-4.7 25.4-2-8.4-3-25.3-7-29.4-3.5-10.1-19.2 40.3 5.7 79.8 12.4 21.1 3.6 50.7 3.4 71.7 1.1a14.9 14.9 0 0 1-6.5-4.6c11.9 5.1 33.2 4 38.2-1.9l-.2.4.2-.3s5.4 4.9 12.9-.7c-.1-.2 2.5-9.1-1.5-17.9z"/><path class="st6" d="M361.1 169.5c-13.4 0-27.3-.8-38.9-2.8-14.5-2.5-30.4-7.4-44.5-11.7-17.6-5.4-32.8-10.1-35.7-6.6-.8 1-.6 2.7.6 5.2 4.9-3.3 22.1 1.1 29.4 3.7.2.1.2.2.2.4s-.2.3-.4.2c-15.4-3-23.8-2.4-25.1 1.8l-.2.2h-.3c-3.2-2.1-9.1-5-14.1-6.9-.6.1-5 .8-9.1 2.6h-.2c-.1 0-10.1-4.2-18-5.7a121.5 121.5 0 0 0-10.8 6.2c-2.9-1-7.5-1.9-12.9-2.3h-.4c-.6.3-3.2 1.4-7.3 4.9l-.1.1a144 144 0 0 0-27.7 7.7c-.1-.1 0-.3.1-.4 13.8-10.8 28-18.2 33.9-21.1a182.6 182.6 0 0 0-42.5 19.6c-.1.1-.3 0-.4-.1-.1-.1-.1-.3.1-.4 31.5-25.2 78.7-54.5 124.2-51h.1a52 52 0 0 1 9.9 6.5 65.4 65.4 0 0 0 21.9 12.3c4.6 1 9.7 1.6 13.9 1.8h1.2c-19.1-8.1-22.9-13.7-23-14v-.3l.2-.2a96.8 96.8 0 0 1 14.5-2.7h.1a89.2 89.2 0 0 1 20 9.6l.1.1c.1.2.4 1.2-1.9 2.9 1.9-.3 5.4-.7 8.9-.3l.3.2c0 .1 0 .3-.2.3-4.5 2.4-9.9 6.6-11.4 11.1l-.2.2c-1.7.5-2.9 1.2-3.3 2-.2.4-.2.9 0 1.3.7 1.3 3.1 2.3 6 2.6 4.2.5 8.5-.6 9.3-2.4.4-.9-.1-1.6-.7-2.1l-.1-.3c1.2-5.5 9.3-9.4 16.5-10.2h2.4l.3.2c0 .1 0 .3-.2.3-3.1 1.7-8.4 5.3-9.4 10.4l-.2.2c-1.5.5-2.6 1.1-2.9 1.9-.2.4-.2.9 0 1.3.7 1.3 3.1 2.3 6 2.6 4.2.5 8.5-.6 9.3-2.4.6-1.3-.9-2.3-1.6-2.7-.1-.1-.2-.3-.1-.4 2.2-4.4 11.6-8.4 17.2-8.4h.4l2.7.3.3.3-.2.3a17.7 17.7 0 0 0-9.6 8.9l-.2.2c-2 .4-3.5 1.2-3.9 2.2-.2.4-.2.9 0 1.3.7 1.3 3.1 2.3 6 2.6 4.2.5 8.5-.6 9.3-2.4.5-1.1-.5-2-1.2-2.5l-.1-.2v-.2c2.9-4.3 12.1-6.2 16-5.6l5.4.8c4.8-3.9 8.4-4.7 8.6-4.7h.1c8.5 1 14.9 3.4 19.5 5.1 3.3 1.3 5.9 2.2 8 2.2h.1v-.4c0-.4-.1-1.1.6-1.3 8.1-2.9 11.5.7 11.6.9v.1a28 28 0 0 1 1.4 17.9l-.1.2c-6.7 5-11.9 1.8-13 .9l-.2.1c-5.7 5.5-25.2 6.6-37.1 2 1.2 1.3 3.1 2.5 5.7 3.6l.2.3-.3.3c-9.3 1.1-20.9 1.8-32.8 1.8zm-115-23c6.4 0 18 3.6 31.8 7.9 14 4.3 29.9 9.2 44.4 11.7 21.5 3.6 50.6 3.3 70.5 1.3a12.5 12.5 0 0 1-5.6-4.2.3.3 0 0 1 0-.4l.4-.1c11.7 5 32.9 4 37.9-1.9l.4-.1.1.2c.7.6 5.6 4.3 12.4-.7a28 28 0 0 0-1.4-17.3c-.3-.3-3.6-3.3-10.9-.7-.2.1-.3.2-.2.7 0 .3.1.6-.2.8l-.6.2c-2.2 0-4.8-1-8.2-2.3-4.6-1.7-10.9-4.1-19.3-5.1-.4.1-4 1.1-8.4 4.7l-.2.1-5.5-.8c-3.6-.6-12.3 1.2-15.2 5.1 1.3.9 1.7 2 1.2 3.1-1 2.1-5.4 3.3-10 2.7-3.2-.4-5.7-1.5-6.5-3-.3-.6-.4-1.3-.1-1.9.5-1.1 2-2 4.2-2.5 2.1-4.7 6.1-7.3 8.9-8.6l-1.5-.1c-5.3-.2-14.5 3.6-16.9 7.8 1.6 1 2.2 2.2 1.6 3.4-1 2.1-5.4 3.3-10 2.7-3.2-.4-5.7-1.5-6.5-3-.3-.6-.4-1.3-.1-1.9.4-.9 1.5-1.7 3.1-2.2 1-4.8 5.6-8.3 8.8-10.2h-1.3c-8 1-14.8 5.1-15.9 9.6.9.8 1.1 1.8.7 2.7-1 2.1-5.4 3.3-10 2.7-3.2-.4-5.7-1.5-6.5-3-.3-.6-.4-1.3-.1-1.9.5-1 1.7-1.8 3.5-2.3 1.8-5.2 7.9-9.2 10.8-10.8-4.8-.4-9.2.6-9.2.7-.2 0-.3 0-.4-.2-.1-.1 0-.3.1-.4 2.8-1.7 3-2.6 3-2.9-.9-.6-8.1-5.4-19.7-9.4-.8.1-7.7.9-13.9 2.5 1.2 1.4 6.5 6.8 23.9 14l.2.3c0 .1-.1.2-.3.2H306.6c-4.3-.2-9.4-.8-14.1-1.8a64.4 64.4 0 0 1-22.2-12.4c-3.6-2.7-6.7-5.1-9.7-6.4-43.6-3.4-88.8 23.6-120.2 48.1a165 165 0 0 1 41.9-18.3l.4.2c.1.1 0 .3-.2.4-.2.1-17.6 7.9-35.1 21.2 8.9-3.2 17.4-5.6 25.5-7.1a32 32 0 0 1 7.5-5l.3-.1H181a63 63 0 0 1 12.9 2.3c6.7-4.4 10.5-6.2 10.5-6.2h.2c7.5 1.4 17 5.2 18.1 5.7 4.4-1.9 9.2-2.6 9.2-2.6h.2a87.1 87.1 0 0 1 14 6.8c1.5-3.8 8.5-4.7 21.2-2.6-8.8-2.6-21.5-5-24.8-2.2l-.3.1a.2.2 0 0 1-.2-.2c-1.5-2.9-1.8-4.9-.7-6.2 1-.4 2.6-.9 4.8-.9z"/></g><path class="st7" d="M300 116.3s-6.8 0-15.2 2.8l3.3 2.8c4.1-2.5 10-3 10-3 8.1 1.1 15.1 4.7 21.2 7.7-5.5-4.5-19.3-10.3-19.3-10.3zM309.4 134.1c-22.8.3-40.8-21-48.5-22.4-50.1-4.9-103.4 33.3-131.7 58.5 32.8-25 79.4-57.6 125.6-56.3 15.7 4.6 26.9 22 54.6 20.2zM105 187.1a191.9 191.9 0 0 1 76.1-22.7c1.6-2.5 2.9-3.8 2.9-3.8a60 60 0 0 1 20.7 6.4c-13.1-3.1-18.1-3.1-18.1-3.1-1.6 2.5-1.6 3.4-1.6 3.4-39.2.3-80 19.8-80 19.8z"/><path class="st6" d="M76.8 213.4c27.7.3 68.7-12.8 81.3-20.8l-9.1-3-2.4 4.5-7.5-2-1.5 5.1-8.3-2-2.3 5.5-6.9-3-3.8 5.9-6.9-3.2-3.5 5.5-7.3-3.6-5.1 5.8-5-3.5-11.7 8.8z"/><path class="st7" d="M96.2 177.8A51.5 51.5 0 0 0 66 211.5c4.8-13.4 19.6-25.9 33.9-32.4-2-.9-3.7-1.3-3.7-1.3z"/><g><path class="st10" d="M88.4 313.7A1743 1743 0 0 0 33.3 331l-3-3.4-4.4 1.5 3.9 4.5c19.2-6.4 38.5-12.5 57.6-18.1l1-1.8zM257.6 273.8c-17.2 3-34.6 6.4-52.1 10-34.4 7.4-69.5 16.2-104.9 26.4l.2 1.5c34.1-9.8 67.9-18.3 101.2-25.5 18.2-3.8 36.4-7.3 54.4-10.5l1.2-1.9zM269.8 271.7l.1 1.6c31.5-5.3 62.6-9.7 92.7-13l3-2c-31.1 3.4-63.2 7.8-95.8 13.4zM172.2 253.2l-1 1.8 8.6-1.7-.6-1.4zM148.4 283.8l33.7-52.7-3.5.6.8.6-14.5 22.3-2 .4 1.3.8-19.3 30.4 6.1-1.5zM186.8 248.4l11.2-18.5-.2-.1c-.9-.6-1.8-.8-5.1-.3l-1.4.2-7.5 1.3 1.7 1.2 10.1-1.8-12.3 20.4.6-.2a13 13 0 0 0 5.4-3.1l-2.5.9zM153.4 236.2l-4.6.8 1.4 1.2-16 22.3-2.6.6 1.5 1-20.9 30 3.3-2.3zM141.3 259.2l-1.2 1.8 10.3-2-.4-1.5zM127.9 289l-18.3 5-3.7 2.5 24.4-6.6zM168.1 234.1l-.2-.5-12.4 2.2 1.1 1.4 6.8-1.2 1-.2.3.5.9 1.7 2.6-3.8zM379.7 186.4l-16.8 2.1 2.4 2.5 11.2-1.5.1 14.2 6.4.2-.2-3.7-2.8-.1zM377 222.4l.6 21.6-14.3 9.4 1.2-.2 16.7-10.8-.7-21.9-23.4 1.6 1.9-36.8-3.1-3-2.3 41.8zM168.5 279l15-25.3-1.9-.2-16.5 27.9 6-1.4-2.6-1zM99.7 233.7l-30.1 37.4 2-.6 31.5-39.1-1.5-1.9-4.5.8zM59.4 308.7l-28 9.1 6.1-5.4 29.2-36.3-2.2-2-4.6 1.5 3.4 2.9L34 315l-6.1 5.4 34.5-11.1zM120.5 226.6l-9.6 1.7-3.6 4.1 7.8-1.4.8 4 5.1-6zM73.1 274.2l-1.5 1.8 15-4.4-.9-1.1z"/><g><path class="st10" d="m95.1 285.2 4.3-3.4 35.8-42.3-4.3.7 1.2 1.1zM81.8 301.9l-2 .6 37.2-59.7-3.6.6.8.8L76.3 305l6.4-2.1z"/></g><g><path class="st10" d="m344.2 222.6-11.8 2 2.4 1 9.2-1.6zM343.7 206.1l2.1 1.3.3-3-10.9 1.7 2.4 1zM346 244.8l1.4-.2.5-.5.1-1.5-2.3 2.2zM319.7 251.7l-3.6 2.2 31.4-4 .1-1.6zM320.5 251.2l3.5-2 5.5-25.1-1-.3 1.1-.2 3.8-17.3-4.8.8 1.5.5-4 18.1-1.1.1 1 .3z"/></g><g><path class="st10" d="m219.1 226.3 9.9-1.7-10.1 19.5.8-.3c2.7-1 4-1.7 5-2.8l-1.5.6-.8.3 9.1-17.6a.8.8 0 0 0-.4-.2c-1.1-.7-2.1-.8-7.4 0l-1.1.2-5.4.9 1.9 1.1zM214.7 245.3l-6.5 1.2-.9 1.6 8.3-1.5-.9-1.3z"/><path class="st10" d="M210.9 268.8a27.4 27.4 0 0 1-7.6 2.6l-1.9.4-14.3 2.9 1.2-.7 27.1-48.8-5.5.9 2.1 1.3-11.4 20.2-1 .2.7.3-15.5 28-1.2.7 14.3-2.9 1.9-.4a27 27 0 0 0 7.6-2.7c1.6-.5 3.5-2 3.5-2z"/><path class="st10" d="m209.1 267.9 10.6-20.9-2.2-.3-11 21.7 2.6-.5z"/></g><g><path class="st10" d="M243.7 221.6 222 267.8l3.2-1.9 21.6-45.8-4.5.8zM221.9 267.9l-.1.3-3.6 2 32-6.1.6-1.7z"/></g><g><path class="st10" d="m306.9 250 9.5-38.9-1.3-.6c-1.5-.6-2.8-.7-7-.1l-6.6 1.1 2.5 1 9.5-1.5-9.7 39.7 3.1-.7z"/><path class="st10" d="m301.1 254.3-17.9 2.6 3.4-2.2 7.4-24.1-1.5-.6 1.8-.3 5.6-18.2-4.8.8 1.5.6-5.8 18.9-1.8.3 1.5.6-7.4 24.2-3.4 2.2 17.9-2.7c4.4-.6 6.3-.8 7.9-1.7a8.7 8.7 0 0 0 2.7-1.8c-1.4.7-3.3.9-7.1 1.4z"/></g><g><path class="st10" d="m276.8 232.6 6-16.6c-.9-.8-2.8-1.1-6.2-.7l-9 1.5 2.8 1.1 9.6-1.6-6.1 16.8 2.9-.5zM263.2 218.9l-7.2 17.4 2.7-.5 7.9-18.9-5.6.9zM258.1 237.4l-2.2-1-.6 1.5-3.2.6 2.5 1-6 14.5 3.6-2.6z"/></g><path class="st0" d="m265 259.8 2.9-2 8.4-23.7-13.1 2.4-.6 1.6 10.2-1.9-8.3 23.8-3.4 2.1 8.7-1.4.5-1.6z"/></g><g><path class="st5" d="M259.8 49.7c-1.9 6.9-14.7 15.3-22.4 23.2-4.5 5.3-12.3 12.6-10.9 19.4 5.5.6 14.6-2.1 20.4-7.5-9.3 15.2-22.7 15.5-22.7 15.5-6.1-2.8-5.1-7.3-5.1-7.3-4.3 5-5.3 11.3-5.3 16 11.9-4 21.4-5.7 32-6.5a40.3 40.3 0 0 1 9-23.2s-3.6-2.1-7.4-2.9c0 .1 14.8-15.2 12.4-26.7z"/><path class="st4" d="M213.8 109.4h-.2l-.1-.2c0-4.6.9-11.1 5.3-16.2l.3-.1c.1.1.2.2.1.3 0 .2-.8 4.3 4.9 7a29 29 0 0 0 21.4-13.9 30.4 30.4 0 0 1-19.2 6.4.2.2 0 0 1-.2-.2c-1.2-6 4.4-12.2 8.9-17.3l2.1-2.4c2.5-2.6 5.7-5.3 8.7-7.9 6.1-5.2 12.4-10.7 13.6-15.2l.3-.2.2.2c1.3 6-2.2 13-5.3 17.9a65.2 65.2 0 0 1-6.8 8.8 30.4 30.4 0 0 1 7.1 3v.2c-4.2 5.9-9.2 14.7-8.9 23l-.2.3c-11.7.8-20.9 2.7-32 6.5zm4.9-15.5a24 24 0 0 0-4.7 14.9 120 120 0 0 1 31.5-6.4 41 41 0 0 1 8.9-22.8c-.9-.5-3.9-2-7.1-2.7a.2.2 0 0 1-.2-.2l.1-.3c.1-.1 13.8-14.5 12.5-25.5a49.9 49.9 0 0 1-13.5 14.4 171.5 171.5 0 0 0-10.7 10.2c-4.4 4.9-9.8 10.9-8.8 16.6 5.4.5 14.3-2.1 20-7.4h.3l.1.3c-9.3 15.2-22.8 15.6-22.9 15.6h-.1c-4.6-2.1-5.3-5.3-5.4-6.7z"/></g><path class="st7" d="M246.4 102.7c.1-4.2.2-10.4 9-23.4-.9-.7-2.8-1.3-2.8-1.3-8.1 15-8.2 21.3-7.8 24.7.6.1 1.1 0 1.6 0zM259.9 49.5c1.5 7.5-2.1 15.2-13 28.4-4.5 5.5-7.5 3.7-4.8 1 20.8-20.5 17.8-29.4 17.8-29.4z"/><g><path class="st7" d="M224 128.5c15-8.4 29.4-7.8 29.4-7.8 10 14.1 53 21.2 53 21.2-24 .3-60.1-15-60.1-15l-9-.9-13.3 2.5z"/><path class="st6" d="M306.5 141.8c-17.8-.9-50.2-10.3-58.9-18.6l-.2-.1c-.3 0-6.4-.7-23.5 5-.2.1-.3.2-.2.4 0 .2.2.3.4.3.1 0 7.5-.8 14-.1.4 1 .6 2.4 1.2 3.8-2.5.1-12.8.7-22.6 3.8 0 0 14.5-2.2 28.2 2.2a30 30 0 0 0 7.8 1.8c-3.9-1.1-8.4-3.1-7.3-9.5a150.8 150.8 0 0 0 61.2 11.7c.2 0 .3-.2.3-.4l-.4-.3z"/><path class="st2" d="M245.3 130.9c-.8 4.7 1.1 6.7 3.8 8.2 6.7 3.4 20.8 2 33.1 2-14.2-2-28.6-5.9-36.9-10.2z"/></g><path class="st7" d="M389.1 141.2c4.2-4.1 8.1-5.4 8.1-5.4 12 .9 27.2 7.5 27.2 7.5l-1-1.5c10.3-3.4 12.6-.2 13.5 1.1-3.8-2.2-9.7-1-11.1-.2.7 1 1.2 3.1 1.2 3.1-16.3-6.3-28.7-7.6-28.7-7.6-3.4.5-9.2 3-9.2 3z"/><path class="st6" d="M379.8 165.3c-20.7 1.6-41.5 2.8-65.1-7.1l10.1-2.3 3.1 3.8 4.3-2.3 3.4 3.7 3.9-2.5 3.5 3.5 3.7-1.8 3.5 3 3.1-2.7 3.2 2.9 3.3-2.3 3.4 2.5 2.7-2.1 3.2 1.9 3.3-1.1 7.4 2.9z"/><g><path class="st6" d="M432.7 146.8h-.3c-.3.1-2.5.8-3 2.2-.1.4-.2.9.2 1.5-.3.5-1.2 1.6-2.7 2.6-.2.1-.3.4-.2.7.1.3.4.4.6.3 3.4-.8 6.6-4 6.5-5.9.2-.7-.3-1.2-1.1-1.4zM414.8 152.6c-3.1-.9-4.8-1.9-5.6-2.5.4-.3.7-.7.6-1.3-.3-1.6-4.4-2.3-6.2-2.5h-.1c-1.7.1-2.6.7-2.6 1.5 0 2.3 7.5 5.2 13.7 5.9.3 0 .6-.2.6-.4 0-.4-.1-.7-.4-.7z"/></g><path class="st7" d="M415 152.7c.5 1.2-1.1.8-1.1.8a23.4 23.4 0 0 1-12.9-5.1c1.9 3.2 9.9 6.9 13.1 7 3.2.1.9-2.7.9-2.7zM426.7 153.4c0 .9 1.6.5 1.6.5 4.2-1.7 4.6-3.5 5.7-5.4a8.3 8.3 0 0 1-5.4 7c-2.5.8-1.9-2.1-1.9-2.1z"/><path class="st0" d="M409.6 194.6c0 1.7-1.2 2.9-2.7 2.9-1.5 0-2.7-1.2-2.7-2.9s1.2-2.9 2.7-2.9c1.5 0 2.7 1.2 2.7 2.9zm-3.3.3h.4l.9 1.7h1l-1-1.8c.5 0 1-.3 1-1.1 0-.9-.6-1.2-1.7-1.2h-1.5v4.1h.9v-1.7zm0-.6v-1h.6c.3 0 .8 0 .8.4 0 .5-.2.5-.6.5h-.8zm4.4.3c0-2.4-1.8-3.8-3.8-3.8-2 0-3.8 1.4-3.8 3.8s1.8 3.8 3.8 3.8c2 0 3.8-1.4 3.8-3.8z"/></svg>