<svg xmlns="http://www.w3.org/2000/svg" viewBox="0 0 335.9 480" style="enable-background:new 0 0 335.9 480" xml:space="preserve"><path d="M281 164.9c49.8-26.9 58.8-55.4 53.6-87.7-4.5-28.1-26.8-44-26.8-44s4.6 16.4.1 35.7c-12.1-50.2-51.8-63.5-51.8-63.5s11.2 19.1 16.3 45.2c-15.2-15.2-17.3-30.9-17.3-30.9s-14.8 22.8-7.2 44.4c-18-32-40.2-32.8-52.4-31.6 0 0 33.3 31.7 33.3 91 0 11.2-2.8 18.7-11.9 26.5-2.7 2.3-5.2 4.5-7.4 6.6a72.2 72.2 0 0 0-18.5-15.9c-19.1-11.2-47.5-12.9-47.5-12.9s20.1 18.1 25.3 28.6c2.4 4.7 4 8.9 5 11.8-12.7-1.4-22.4-1.5-22.4-1.5a72 72 0 0 1 4.1 3.7l-9.3-.2c-2.9-6-8.7-17.3-13.9-23.2-8.9-10.2-16.4-16.9-47.1-19.4 0 0 9.4 14.9 12.4 22.9 1 2.6 1.7 4.9 2.3 7a73.8 73.8 0 0 1-30.3-14 38 38 0 0 1 18.6-21c30.5-17.4 95.8-23.7 95-80.2-14.9 24.3-58.3 29.7-78.6 28.5-6.7-.4-11.1 3.1-14.7 5.8l-6.8 5.1a48 48 0 0 1 5.1-19.2C107.3 24.5 92.1 0 92.1 0s-.6 16.9-30.8 46.3C45.4 61.8 44.1 61.6 41.6 76.9c-1 6.1-2.1 11.3-3.3 15.6a57 57 0 0 1-.3-8.3c1.2-41.8 41.2-72 41.2-72s-30 3-52.2 25.3a89 89 0 0 0-24 87.4c6.7 27.5 25.6 48.1 48.5 62.4a123 123 0 0 0 5.9 19.8s-3.2-.9-6.2-2.4c0 0 6.4 30.6 31.7 50.1a256 256 0 0 0-22.8 42A137 137 0 0 0 49 357.5C55.2 441.4 120.4 479 175.3 476a57.3 57.3 0 0 1-11.8-10.9c31.2 5.8 73.8 1.1 86.3.1 51.9-4.5 56.3 14.9 56.3 14.9s19-49.6-47.5-97.4c-13.4-9.6-24.6-20.5-28.2-30.2-2.7-7.4-2.3-13.7 1.3-19.2 12-6.8 27.7-8.6 27.7-8.6l1.3-.2a159 159 0 0 0 17.7-.3 25.3 25.3 0 0 0 22.4-20.1c1.4-6.5 1.4-8.2 1.4-9l-.1-3.2c2.4-3.1 3.3-6.2 3.9-8.4v-.1c3.7-12.9 4.2-23.3 4.5-30.3a19 19 0 0 0-9.9-17.6c-9.3-5.1-37.5-18.4-52.2-32.8l-7-6.7c8.3-14.5 25.7-23.6 39.6-31.1zm-7.8-70.2c-1 5.4-2.5 10.9-4.6 16.3-3-4.4-6.2-10.8-9.3-20.2-2.2-6.8-4.5-12.8-7-18.1 6 8.9 14.7 16.5 20.9 22z" style="fill:#5b6670"/><path d="M228.7 250.9s-2.5.6-6.7.3c-3.5-.2-6.9-1.2-9.9-2.9l-1.2-.7a27 27 0 0 1-12.1 2.9c-1.4 0-2.8-.4-4-1.2-5.7-3.8-9-10.7-10-13-6.7-.8-17-1.4-27.2.5 3.3-2.9 11.1-12.1 32.6-7.3 6.7 1.5 11.7 5.3 13.4 6.4 5.4 3.8 14 10.2 25.1 15zm1.2-13.2a5 5 0 0 0 1.5-4.3c-.4-2.4-4.4-5.6-4.4-5.6s.4 2.3-1.3 3.5c-.7.5-2.4.8-3.8.9-3.6-2.6-7.7-5.6-12.2-9.1-7-5.4-13-6-19.3-5.2-10.1 1.3-16.1 5.2-16.1 5.2s8.9-1.3 19.9 1.5c2.7.7 5.9 2.4 8.2 4 5.4 3.7 16.6 11.4 24.6 16a21.8 21.8 0 0 0 15.4 2.7c1.1-.2 2.2-.5 3.1-1-.1.1-4.8-1.6-15.6-8.6zm-114.8-21.3s1 1.1 1.9 3.3l-1.1-.3c-6.5-1.4-17.3-4.1-24.9-7.2 0 0 8.1 8 19.4 12.7 0 0 6.7 11.6 23.6 18.6 0 0-1.6-23.8-18.9-27.1zm188-75.8c-19.3 17.7-54.3 28.2-69.6 49.9a22.8 22.8 0 0 0-3.5 7c4.3 3.6 8.3 7.6 12.2 11.3 15.3 14.9 43.7 28.5 54.2 34.2 1.2.7 2.2 1.5 3 2.6h.1v.1c1.4 1.9 2.2 4.2 2.1 6.7-.3 7-.8 16.5-4.1 28.2-.8 2.9-1.6 5.8-5.4 8.2 1 1.9 1.4 4 1.3 6.3-.1 1.5-1 5.7-1.4 7.4-1.6 7-7.7 12.2-14.9 12.7-5.2.4-12.1.4-20.5-.5-3.8.6-15.9 2.9-28.2 9.1a28.1 28.1 0 0 0-7.4 31.7c11.4 31.1 76.7 52 77.8 104.9-24.7-14.6-45.3-1.5-103.7-2.6-24-.4-46.9-3.5-57.1-8.4a51.4 51.4 0 0 0 12.9 14.5c-11.2 0-61.9-12.6-65.8-62 0 0 3.1 4.1 8.5 9.1-1.5-39.8 16-59.6 16-59.6-3.5 39.9 18.1 65.1 50.5 76.7a36.3 36.3 0 0 1-2.7-19s14.9 25.9 54.8 27c30.5.9 46.6-2.9 59.4-.5-17.9-26-55.9-43.3-65.9-70.1-5 25.1 6 50.8 6 50.8-35.4-21.3-34.5-55.4-31.7-71.6-11.9-3.7-28.1-11.8-35.2-29 0 0 3.1 1.7 8.1 2.9a55 55 0 0 1-9.6-37.5s5.4 22.2 27.3 34.8c10.6 6.1 18.5 7.8 28.6 4.6 17.9-5.6 36.1-13 47.8-15.3-1.1-1.9-2-4-2.8-6.6 0 0 10.6 7.8 30.4 4.9a7.8 7.8 0 0 0 6.4-5.9c.6-2.5 1.1-5.3 1.4-8.2-4.9 0-12.1 0-22.2-.4-2-.1-4 .1-6 .6-3.8 1-7.6 2.6-14.8 3.9 0 0 4-2.6 11-8.1 4.3-3.4 7.9-3.7 12.2-3.7 6.3 0 16.5 0 24-.4.8-3 1.5-6.5 2.2-10.2-13.9.6-23.6-.5-23.6-.5 1.5-1.6 2.6-3.7 3.4-5.7 1-2.5-.5-5.3-3.2-5.9-2.9-.7-5.9-1.1-5.9-1.1 1.2-3.5 3.9-6.9 6.1-9.4 2.2-2.3 5.2-3.7 8.3-3.8h2.9a243.8 243.8 0 0 1-56.1-39.2 31.2 31.2 0 0 0-17.3-8c-12.9-1.6-29.4-1.7-36.7-1.6.1 3.6-.1 7.7-1.1 12.4 0 0-8.4 10.5-17.2 14.9-2.2 11.7-8.3 15.8-8.3 15.8-.4-19.5-9.7-27.9-43.4-31.8-12.1-1.4-17.6-3.7-17.6-3.7s5.4 21.6 25.6 36.3c20.1 14.7 35.8 12.3 35.8 12.3s-8.1 6.2-24.5 6.9a173.2 173.2 0 0 0-24.9 41.3c14.3-5.9 27-5.4 27-5.4C70.2 332.8 74 405.5 74 405.5c-20.2-31-19.4-71.8-5-105.4a233.4 233.4 0 0 1 27.1-47.6 67.3 67.3 0 0 1-28.9-32.4s3 1.2 6.6 2.4c-9.1-17.5-12.6-33.3-12.6-33.3s7.6 4.6 25.9 6.3l6.2.7c-24.1-7.6-52.7-22.3-69.6-46.8-5.5-8-9.8-17-12.2-27.1-18-74.1 52-102 52-102-7.8 7-50.7 47.5-27.6 95.8a79.5 79.5 0 0 0 10.7-28c4.2-19.8-.4-19.4 19.3-36.6s25.6-34.6 25.6-34.6 4.2 15.2-9.7 42.5A52 52 0 0 0 77 93.5c6-3 10.7-5.9 15.2-9.8 3.2-2.8 5.5-6.2 11.8-6 27.2 1 61.3-6.3 72.5-22.2-3.3 20-34.4 39.1-60.8 48.3-24.8 8.6-53.2 18.4-56 43.2a84.1 84.1 0 0 0 50 20.9c-1.3-6-3.1-13.2-4.7-17.3-3-7.8-9.7-16.6-9.7-16.6s20 2.1 30.2 14.9a148 148 0 0 1 15.6 27.2c3.4 1.3 7.1 2.7 11 3.9 7.9-.2 15-.1 21.3.1l-5-5.5a96 96 0 0 1 16.8 2.5c-3.2-8.9-7.8-20.4-11.3-25.3-4.9-6.8-13.9-16.4-13.9-16.4s19.7 2.7 36.3 16.8a78.3 78.3 0 0 1 13.8 17.1c4-4.3 9.4-9.5 16.6-15.6 21.1-18 2.8-94.4-17.8-114.1 0 0 26.1-.4 43.4 53.4 5.9 18.3 12.4 27.7 17.8 32.5a94.5 94.5 0 0 0 10-33.3c-9.2-8.7-13.3-11.7-22.8-24.3-10.7-14.2-3.3-33.1-3.3-33.1 4 12.9 13.2 20.8 26.2 30.8-2.5-25.4-11.1-44.7-11.1-44.7 21.1 14.5 29.5 43 32.8 61.6l.7.6a67 67 0 0 1 5.4 5.1 68.4 68.4 0 0 0 7.7-36.9c.4-.2 36.8 43.9-12.6 89.3zm-271.8-19a72.1 72.1 0 0 1-3.4-56.1c-8.4 12.4-10.8 32.6-5.1 53.1 1 3.7 2.6 7.3 4.1 10.4 1.2-2.4 2.6-4.9 4.4-7.4zm83.3 27.8a93.3 93.3 0 0 1 7 18.7l2.6-.1 4 2.1 1.5.1a71.8 71.8 0 0 0-8.8-15.3c-1.8-2.2-3.9-4-6.3-5.5zm-57.9-46.2 9.7-4.5c-2.4-37.3 8.2-37.4 13-49.9-6.8 8.4-16.4 11.5-18.6 26.8-1.2 8.1-2.8 20.4-4.1 27.6zm4.7 14.8c13-6.4 36.2-18.1 50.2-22.1 15-4.3 28.6-12.4 33.8-16.7-7.8 3.2-23.9 8.2-38.9 8.1-3.1 0-4.9.1-7.2 2.7-6 6.9-17.5 12.5-30 18.2-4.1 1.9-10.5 5.3-15.5 8.2-13.4 8-14.1 17.4-13 26 1.1-11.3 9.5-19 20.6-24.4zm91.5 71.3a77.9 77.9 0 0 1-30-12.3c-32.1 0-57.6-12.6-67-22.5 1.4 12.4 21.9 19.9 32.7 23.3 10.7 3.3 30.9 5.8 30.9 5.8s4.3 3.4 14.5 8.2c9.3 4.4 15.2 5.2 18.9-2.5zm56.7-4.8a83.7 83.7 0 0 0-20.2-26.9c4.2 7.5 8.4 16.4 11 23.6l9.2 3.3zm70.3 68.3c-1.3 0-2.6.6-3.5 1.6l-1.3 1.5h15.7l.1-3.2-11 .1zm5.9-200.7c1.1 5.9 1.9 12.3 2.2 19.1l5.8 4.4c-1.7-7.4-4.3-15.6-8-23.5zm9.3 60.5c-.2 8.1-12.7 19.3-25.2 28.6-13-1.4-19.1-22.2-25.6-47.2-5-19.3-13-29.7-13-29.7 16 40.4 10.5 74 29.3 83.6-5.9 4.1-11 7.4-13.7 9.4-10.8 7.7-15.2 14.8-15.2 14.8 18.3-14.2 40.9-23.6 56.7-35.8 9.4-7.3 12.3-12.5 6.7-23.7zm2.8-23.4c-6.5-5.3-12.5-9.9-17.8-14a79.5 79.5 0 0 1-18.3-17.8c2.7 12.7 25 28.8 27.6 31.3 9.5 9 21.4 17.2 17.9 33.4 7.7-12.8 2.4-23.3-9.4-32.9zm18.6 11.9c3.5-8 4.7-15.9 3.5-23.3a50.6 50.6 0 0 1-6.4 17.1c1.2 2.1 2.2 4.1 2.9 6.2z" style="fill:#231f20"/><path d="M290.7 255.9H275l1.3-1.5c.9-1 2.2-1.6 3.5-1.6h11l-.1 3.1zm-70-49.9a31.2 31.2 0 0 0-17.3-8c-12.9-1.6-29.4-1.7-36.7-1.6.1 2.2 0 4.7-.3 7.3 9.7.1 28 .5 39.4 2.4 4.4.8 8.7 3.2 13.1 6.5-4.3-.5-7.9-.4-7.9-.4 15.1 7.7 30 19.7 37.2 24.4 9 5.9 11.8 3.5 20.9 4.9a267.6 267.6 0 0 1-48.4-35.5zm41.9 76.2c6.3 0 16.5 0 24-.4.8-3 1.5-6.5 2.2-10.2-13.9.6-23.6-.5-23.6-.5 1.5-1.6 2.6-3.7 3.4-5.7 1-2.5-.5-5.3-3.2-5.9-2.9-.7-5.9-1.1-5.9-1.1 1.2-3.5 3.9-6.9 6.1-9.4 1.5-1.6 3.3-2.7 5.4-3.3-3.6.4-7.2 1.2-10.2 2.8-12.1 6.4-10.5 11.7-11.7 24-.9 9.4-4.2 12.3-9.7 21.5 0 0 4-2.6 11-8.1a17 17 0 0 1 12.2-3.7zm12 21.8a7.8 7.8 0 0 0 6.4-5.9c.6-2.5 1.1-5.3 1.4-8.2-4.9 0-12.1 0-22.2-.4-2-.1-4 .1-6 .6l-6.6 1.9c.5 2.1 2.6 8.9 6.7 11.2 5.1 1.3 11.9 2 20.3.8zm-94.7 41.1c-11.9-3.7-28.1-11.8-35.2-29 0 0-9 39.7 9.5 65.2 0 0-1.2-19.4 4.5-31.6 0 0 2.7 42.7 44.8 61.4-27.2-21.3-26.2-51.1-23.6-66zm60.2-97.5c-4.6.4-9.2-.7-13.2-3a469.7 469.7 0 0 1-24.6-16 28.4 28.4 0 0 0-8.2-4c-10.3-2.6-18.7-1.6-19.8-1.5h-.1c-3.6 1.9-7 5.5-9 7.8a36.2 36.2 0 0 1 24.7-1.5c6.7 1.5 11.7 5.3 13.4 6.4 5.6 3.8 14.2 10.2 25.3 15 0 0-2.5.6-6.7.3-3.5-.2-6.9-1.2-9.9-2.9l-1.2-.7a27 27 0 0 1-12.1 2.9c-1.4 0-2.8-.4-4-1.2-5.7-3.8-9-10.7-10-13-5.1-.6-12.4-1.1-20.1-.5 1.9 3.3 5.9 9.6 12.5 15.7-4-.6-7.3-1.4-7.3-1.4 8.6 10.6 13.8 14.2 26.2 14.9 16.4 1 36.7-12.3 44.1-17.3zM96.7 207.7c-12.1-1.4-17.6-3.7-17.6-3.7s3.4 3.6 11.8 8.2c7.6 3.1 18.4 5.7 24.9 7.2l1.1.3c-.9-2.2-1.9-3.3-1.9-3.3 17.3 3.2 18.9 27 18.9 27v4.2s5.4-2.9 6.2-8.2c-.4-19.4-9.7-27.8-43.4-31.7z" style="fill:#a7a8a9"/><path d="M121.6 168.1c-1.5-6.1-4.5-14-7-18.7 2.3 1.5 4.5 3.3 6.3 5.5 3.4 4.3 6.3 9.9 8.8 15.3l-1.5-.1-4-2.1-2.6.1zM66.4 98.6c-2.4-37.3 8.2-37.4 13-49.9-6.8 8.5-16.4 11.6-18.6 26.9-1.2 8.1-2.8 20.4-4.1 27.6l9.7-4.6zm-35.1 23a72.1 72.1 0 0 1-3.4-56.1c-8.4 12.4-10.8 32.6-5.1 53.1 1 3.7 2.6 7.3 4.1 10.4 1.2-2.4 2.6-4.9 4.4-7.4zm121.6 67.7a77.9 77.9 0 0 1-30-12.3c-32.1 0-57.6-12.6-67-22.5 1.4 12.4 21.9 19.9 32.7 23.3 10.7 3.3 30.9 5.8 30.9 5.8s4.3 3.4 14.5 8.2c9.3 4.4 15.2 5.2 18.9-2.5zM106.5 87.2c-3.1 0-4.9.1-7.2 2.7-6 6.9-17.5 12.5-30 18.2-4.1 1.9-10.5 5.3-15.5 8.2-13.4 8-14.1 17.4-13 26 1.1-11.2 9.5-18.9 20.6-24.4 13-6.4 36.2-18.1 50.2-22.1 15-4.3 28.6-12.4 33.8-16.7-7.8 3.3-24 8.3-38.9 8.1zm103.1 97.3a83.7 83.7 0 0 0-20.2-26.9c4.2 7.5 8.4 16.4 11 23.6l9.2 3.3zm106.9-83.4c3.5-8 4.7-15.9 3.5-23.3a50.6 50.6 0 0 1-6.4 17.1c1.2 2.1 2.2 4.1 2.9 6.2zm-18.6-11.9c-6.5-5.3-12.5-9.9-17.8-14a79.5 79.5 0 0 1-18.3-17.8c2.7 12.7 25 28.8 27.6 31.3 9.5 9 21.4 17.2 17.9 33.4 7.7-12.8 2.4-23.3-9.4-32.9zm-2.8 23.4c-.2 8.1-12.7 19.3-25.2 28.6-13-1.4-19.1-22.2-25.6-47.2-5-19.3-13-29.7-13-29.7 16 40.4 10.5 74 29.3 83.6-5.9 4.1-11 7.4-13.7 9.4-10.8 7.7-15.2 14.8-15.2 14.8 18.3-14.2 40.9-23.6 56.7-35.8 9.4-7.3 12.3-12.5 6.7-23.7zm-1.3-37c-1.8-7.4-4.3-15.7-8-23.5 1.1 5.9 1.9 12.3 2.2 19.1l5.8 4.4z" style="fill:#ffd100"/></svg>