<svg xmlns="http://www.w3.org/2000/svg" id="Layer_1" data-name="Layer 1" viewBox="0 0 308.57 236"><defs><style>.cls-1{fill:#c1cccc}.cls-2{fill:#231f20}.cls-3{fill:#fff}</style></defs><path d="M284.17 78.88c-2.63-9.58-14.18-16.8-26.85-16.8h-38.91l1 6c-15-.1-30.2-.17-45.28-.2h-2.84l.14 2.83a35.85 35.85 0 0 0-14.28-2.84h-10.92c-7.84 0-15 2.24-19.75 6.08-4.3-3.78-11.09-6-18.81-6h-.19l-23.25.15 1-6h-9.91V62H38.9v.06h-9.89L19.7 96.62l3.77-.21 4.58-.26-9.68 37.7c-2.4.29-4.8.6-7.19.91l-1.81.23L0 169.78l4.21-.73a877.48 877.48 0 0 1 61.75-8.42l2.06-.21 1.33-7.58 8.51 3 .56.19H79c24.93-2.03 50.29-3.12 75.29-3.12 23.09 0 46.46.9 69.45 2.66h.59a15.28 15.28 0 0 0 3-1c2-.78 6.12-2.32 8.41-3.17 5.11 5.53 14.88 9.82 25.64 11.15a886.59 886.59 0 0 1 43 6.32l4.21.73Z" class="cls-1"/><path d="M247.02 12.19a5.3 5.3 0 0 0-1.68-1.07 4.06 4.06 0 0 0-1.1-.25h-.33a3.67 3.67 0 0 0-1.94.55 4.08 4.08 0 0 0-1.43 1.51 4.5 4.5 0 0 0-.35.81 7.76 7.76 0 0 0-.34 2.11v.37c-.19.2-.52.53-1.08 1-.37.34-.79.71-1.25 1.1a62.46 62.46 0 0 1-7.86 5.79c.73-2.89 2.78-6.73 8-10.61 1.13-.59 3-1.63 3.44-3.61a4.27 4.27 0 0 0-.72-3.45 9.5 9.5 0 0 0-1.5-1.94 15.07 15.07 0 0 0-7.7-4 21.85 21.85 0 0 0-3.1-.42 56 56 0 0 0-5.79-.08c-.71 0-1.43.06-2.17.12l-1.13.09a63.08 63.08 0 0 0-7.3 1.1l-1.28.28c-.87.2-1.75.42-2.64.67s-1.8.51-2.72.81-1.83.61-2.77 1a70.25 70.25 0 0 0-8.62 3.87c-1.65.88-3.3 1.83-4.9 2.85a9.59 9.59 0 0 0-1.56-.06 26.13 26.13 0 0 0-6.46 1.27c-.79.24-1.64.52-2.58.86-1.29.46-2.67 1-4.11 1.6-4.52 1.89-8.21 3.58-11.62 5.32a93.38 93.38 0 0 0-19.14 12.71 79.22 79.22 0 0 0-6 5.85c-1.89.27-5.71 1.2-12.35 4.17a33.86 33.86 0 0 1-9.07 2.47l-1.64.21c-1.38.15-2.83.27-4.57.36l-1.86.09-1.3.07-1 .06c-.56 0-1 .1-1.42.16a4.93 4.93 0 0 0-1.56.5c-1.78 1-2.54 2.94-1.76 11a77.61 77.61 0 0 0 1.8 11.16c.22.78.43 1.5.65 2.18a43.12 43.12 0 0 0 2.19 5.48c.22.48.47 1 .74 1.53l.86 1.69.48.94a12.14 12.14 0 0 1 1.46 6 42.33 42.33 0 0 1-.69 6.26l-.11.68c-.13.81-.26 1.64-.39 2.53-.09.57-.17 1.16-.26 1.78-.16 1.24-.32 2.55-.44 4-.31 3.36-.72 8.49-.79 14.09a117.49 117.49 0 0 0 1.27 19.57 100.85 100.85 0 0 0 4.43 17.91 86.82 86.82 0 0 0 7.84 16.56c.05 2.05.24 7.21.49 9.3.67 5.6.75 13.73-2.72 20.67-1.22 2.43.31 3.63.81 3.95a4.69 4.69 0 0 0 .84.4 4.75 4.75 0 0 0 .66.19h.22l.43.07h.28c.23 0 .48.05.76.06h.15l.07-2.72.16 2.72h.49l.65-.05a12.65 12.65 0 0 0 1.3-.18c.31-.06.62-.13.94-.22l.27-.08c.24-.07.48-.14.81-.26l.2-.08a11.57 11.57 0 0 0 1.94-.94l.31-.19c.24-.15.47-.31.77-.53l.21-.16c.32-.25.63-.51.94-.8s.41-.41.59-.62l.15-.18c.18-.22.36-.44.55-.7l.08-.12.45-.65.1-.15.48-.8.09-.17.4-.72.08-.14c.15-.28.29-.58.43-.86l.12-.23.41-.87.07-.16.35-.78.09-.21c.13-.3.26-.6.38-.91l.82-2.06.08-.22.13-.34c1.35 1.36 2.69 2.68 3.85 3.81s2.14 2.05 2.82 2.66c.3.28.56.5.75.66.54.44 1.08.9 1.6 1.35 1.6 1.38 3.11 2.83 4.52 4.3a66.41 66.41 0 0 1 14 22.61c.44 1.13.83 2.46 1.2 3.74l.34 1.16c.23.76.45 1.46.68 2.06.34.87 1.35 3.52 3.9 3.52a4 4 0 0 0 2.21-.89 14.15 14.15 0 0 0 3.49-4.12c.42-.72.81-1.49 1.18-2.3.18-.42.37-.87.55-1.34a36.46 36.46 0 0 0 1.85-6.81 46.24 46.24 0 0 0 .17-13.61c-.14-1.1-.3-2.2-.5-3.29-.1-.51-.19-1-.29-1.47-.26-1.25-.57-2.5-.88-3.59a20.2 20.2 0 0 0-.77-2.23 26.46 26.46 0 0 1-1-6.43v-3c0-.63.11-1.3.2-1.86a11.22 11.22 0 0 1 .36-1.51c.53-1.6 1.85-2.87 4-5a78.85 78.85 0 0 0 11.07-12.81 44.85 44.85 0 0 0 5.49-11l.2-.55c.27-.74 1-3.28-.72-4.83s-4.09-1.66-6-1.66c-18.58 0-27.16 5.84-32.84 9.71-2.72 1.85-4.68 3.19-6.73 3.32a4.45 4.45 0 0 1-3.59-1.26c-1.27-1.26-1.94-3.53-1.94-6.56v-1a38.06 38.06 0 0 1 6.09-22.44 42.31 42.31 0 0 1 3.07-4.19c.25 1.08.44 2.12.59 3a16.83 16.83 0 0 1 .13 2.08v1a2.83 2.83 0 0 0 2.79 2.56 3 3 0 0 0 2.11-.91 3.07 3.07 0 0 0 .38-.51c2.23-3.76 3.16-9.05 2.76-15.71 5.4-4.48 23.25-21.45 28.28-27.65 3.91-4.83 13.44-21.95 15.81-26.23 3.48-1.22 14.43-5.78 27-18.18 2.28-2.25 4.34-4.48 6.13-6.62.71-.85 1.37-1.68 2-2.49s1.19-1.61 1.72-2.38a41.37 41.37 0 0 0 3.21-5.56 22.15 22.15 0 0 0 1.92-6c.05-.31.09-.62.11-.93.49-4.38-1.3-7.03-2.88-8.48Z" class="cls-1"/><path d="M135.93 60.8s11.52-10.67 23.88-17.25a110.22 110.22 0 0 1 11.62-5.3 34.77 34.77 0 0 1 2.74-9.91c-8.24 3.82-26.88 15.01-38.24 32.46ZM143.1 109.19c-1.5.8-14.18 11.76-15 21.51 0 0 .9-1.06 2.27-2.46 2.52-2.55 6.64-6.21 9.76-6.5 0 0 5-9.21 5.07-9.45.34-.86 1.05-2.94.43-4.16a8 8 0 0 0-2.53 1.06ZM131.72 72.17c-10.34 13.29-13.14 30.77-13.43 44.49a109.16 109.16 0 0 0 1.64 22.14s-6.32-49.39 44.11-80.21c0 0 2.16-1.21 3-1.64 1-.51 2.28-1.11 3.65-1.74-.08-1.55-.13-3.16-.13-4.8 0-2.94.14-5.75.39-8.37-10.25 4.65-26.66 13.96-39.23 30.13ZM203.58 21.28a2 2 0 0 0 .31.62 4.58 4.58 0 0 0 4 1.8c2.51-.16 4.41-1.73 4.17-4a3.07 3.07 0 0 0-.39-1.22c-.14-.18-.09-.23.77-.25h.25l3.29.08a9 9 0 0 0-1.95-1.85c-.75-.36-1.93-1.39-6.2-.41-7.29 1.68-12.67 8.54-12.67 8.54a74.44 74.44 0 0 1 8.85-4.48c.42-.18.84-.34 1.26-.49a13.36 13.36 0 0 0-1.69 1.66Z" class="cls-2"/><path d="M245.18 14.2a2.39 2.39 0 0 0-.81-.53 1.19 1.19 0 0 0-.36-.09.94.94 0 0 0-.62.15 1.34 1.34 0 0 0-.47.5 3 3 0 0 0-.16.36 9.94 9.94 0 0 0-.22 2c0 .13 0 .26-.05.38a1.58 1.58 0 0 1-.2.59 12.34 12.34 0 0 1-1.71 1.74c-.39.35-.83.74-1.31 1.15-3.54 3-9.28 7.3-12.52 8h-.1c-.36-2.88-.08-10.17 9.59-17.23 1.71-.88 2.95-1.75 1.84-3.3a6.29 6.29 0 0 0-1.12-1.45 12.28 12.28 0 0 0-6.33-3.21 18.77 18.77 0 0 0-2.72-.38 55.32 55.32 0 0 0-5.55-.08c-.67 0-1.37.06-2.08.11L219.2 3a62.17 62.17 0 0 0-7 1.05l-1.24.28c-.83.19-1.68.4-2.53.64s-1.72.49-2.6.77-1.77.59-2.66.92a68.32 68.32 0 0 0-8.29 3.72c-1.88 1-3.78 2.12-5.7 3.38a3.58 3.58 0 0 0-1.95-.27 22.91 22.91 0 0 0-5.73 1.15c-.75.23-1.56.49-2.45.81-1.19.43-2.51.94-4 1.55-3.66 1.53-7.52 3.24-11.43 5.24a91.53 91.53 0 0 0-18.59 12.34 73.87 73.87 0 0 0-6.44 6.42h-.16c-.76 0-4.32.43-12.38 4a37 37 0 0 1-9.81 2.67c-.58.09-1.15.16-1.72.22-1.69.19-3.29.3-4.72.38l-3.16.16-1 .06a9.69 9.69 0 0 0-1.16.13 2.11 2.11 0 0 0-.71.2c-1.63.89.23 15.07 1.35 19.05.21.75.41 1.43.62 2.09a43.48 43.48 0 0 0 2.06 5.15c.22.47.46 1 .72 1.48l.84 1.66c.15.3.31.6.48.92a14.86 14.86 0 0 1 1.76 7.27 43.25 43.25 0 0 1-.72 6.68c-.16 1-.33 2-.5 3.18-.08.56-.17 1.14-.25 1.74-.16 1.2-.31 2.48-.43 3.85-.38 4.26-.71 8.92-.78 13.89a115.82 115.82 0 0 0 1.24 19.12 97.27 97.27 0 0 0 4.31 17.42 84.65 84.65 0 0 0 8 16.66c0 .67.22 7.44.5 9.78 1.8 15.05-3.34 22.53-3.18 22.63a1.29 1.29 0 0 0 .31.14 2.36 2.36 0 0 0 .37.11h.13a1.72 1.72 0 0 0 .34.06h.15l.55.05a1.62 1.62 0 0 1 .22 0H122.78a9.93 9.93 0 0 0 1-.14l.74-.18.22-.06.56-.19.23-.08a9.9 9.9 0 0 0 1.54-.75l.22-.14a6.15 6.15 0 0 0 .56-.38l.22-.16c.25-.19.49-.4.73-.62l.44-.47.09-.11c.15-.17.29-.35.43-.54l.07-.11.39-.56.08-.13c.14-.22.28-.45.41-.68l.1-.17.4-.72v-.06c.13-.26.27-.53.4-.8a1.86 1.86 0 0 0 .1-.2l.39-.82c0-.06.05-.11.07-.16.11-.25.23-.5.34-.76 0-.06.05-.12.08-.19l.36-.86.09-.2.33-.83v-.08c.12-.3.23-.59.34-.88l.08-.21c.11-.29.22-.58.32-.86v-.09l.29-.81v-.13c.1-.28.19-.56.28-.83a.36.36 0 0 0 0-.11c.19-.55.36-1.08.52-1.55 2.33 2.37 4.88 4.91 6.9 6.87 1.12 1.09 2.08 2 2.75 2.6.26.24.48.44.64.57.57.46 1.12.93 1.67 1.4 1.64 1.43 3.21 2.91 4.7 4.48a69.5 69.5 0 0 1 14.53 23.51c.63 1.61 1.13 3.49 1.61 5.1.2.69.41 1.32.62 1.87.41 1.08.85 1.79 1.37 1.77a1.74 1.74 0 0 0 .72-.37 11.22 11.22 0 0 0 2.75-3.3 20 20 0 0 0 1-2c.17-.38.34-.78.5-1.21a33.58 33.58 0 0 0 1.7-6.3 44.19 44.19 0 0 0 .16-12.81c-.14-1.1-.31-2.15-.48-3.13-.09-.49-.18-.95-.28-1.4-.28-1.34-.57-2.5-.83-3.39a16.87 16.87 0 0 0-.63-1.86 27.3 27.3 0 0 1-1.23-7.42v-3.37c0-.75.12-1.47.23-2.15a14.38 14.38 0 0 1 .46-1.93c1.58-4.72 7-6.36 15.47-18.48a43.86 43.86 0 0 0 5.36-11c.22-.57.38-1.54 0-1.85-.75-.67-2.09-1-4.22-1-27 0-31.24 12.5-39.4 13-3.25.21-8.43-1.51-8.43-10.54 0-3.63-.75-13.45 6.51-24.88.19-.29.38-.59.58-.88a45.4 45.4 0 0 1 3.48-4.52c.76-.87 1.58-1.75 2.46-2.63a33.85 33.85 0 0 1 2.13 7.87c.21 1.31.14 2.72.2 3.27 0 .26.23.05.23.05 2.47-4.17 2.73-10.27 2.28-15.55l.62-.5c4.37-3.49 23.18-21.25 28.36-27.65 4.29-5.28 16.06-26.77 16.06-26.77s12.33-3.43 26.95-17.86q3.44-3.37 6-6.43c.68-.81 1.32-1.61 1.91-2.39s1.13-1.53 1.63-2.27a36.71 36.71 0 0 0 3-5.18 19.4 19.4 0 0 0 1.69-5.24c0-.26.07-.51.09-.76a7.23 7.23 0 0 0-1.84-6.27ZM108 52.66c4.09 1.59 10.86.76 10.86.76-5.64 4.42-6.58 8.82-6.58 8.82.69-2.18 10.61-9.46 10.61-9.46-3.36 3.11-5.63 8-6.61 10.37 2.94-5.64 15.09-13.48 15.09-13.48-.17.82-5.28 6.18-8.89 11.76a53.87 53.87 0 0 0-5.15 10.5C110.1 70.3 108.29 53 108 52.66Zm116.1-7.79c-1 .76-2.12 1.5-3.21 2.22-19.27 10.29-42.6 17.28-42.6 17.28s9.23-.47 12.31-1.14c-1.56 5.62-5.13 16.79-22.37 31.46-8.72 7.42-19.56 17.62-23.93 26.77-6.35 13.34-8.22 20.9-8.23 26.69 0 15.55 6.38 19.23 14.25 19.89 12.94 1.08 12.6-13.28 39.16-12.11l-16.68 8.54 7.92.9-14.43 4.88 9.87 1-17.39 4.81 8.49 3.24-7.16.94 6.53 5.57-7.86-2.29 8.76 9.89-6.55-2 8.11 14.15-5.65-3.77 4.08 11.21c-4.17-4.21-10.39-15.22-17.17-21.07-3.8-3.27-11.44-10.31-13.73-13 .52-4.13.15-7.68-2-11.11s-11.52-11.85-11.52-11.85a19.89 19.89 0 0 1 .37 4.94c-2.94-5-3.44-9.47-4.5-13.51-6-22.72-2.34-53.58-.25-61.05a80.39 80.39 0 0 1 4.47-12.7c.13-.26 9.61-20.47 25.85-34.33 10-7.46 19.41-12.64 22.68-14a58.58 58.58 0 0 1 9.57-3.39c-.25.82-6.34 13.6 5.36 28.62 3.12 4-11.74-22.21 9.14-35.65 7.49-5.35 21.65-8.43 29-8.27a19.56 19.56 0 0 1 9.4 2.87c-2.94 1.52-8 5-9.82 7.28-4.16 5.06-6.92 14.74-7.33 15.67-2.36 5.46-13.18 11.1-13.18 11.1s12.81-2.63 16-9.16c0 0 9.43.46 21.56-10.44a9.23 9.23 0 0 0 3-4.26c.66 3.09-9.81 17.54-20.32 25.18Z" class="cls-2"/><path d="M257.17 64.8h-35.55c.33 2 .66 4 1 6q-24.24-.18-48.5-.23c.09 1.63.17 3.26.25 4.89-4.17-3-10.36-4.91-17.25-4.91h-10.83c-8.58 0-16 2.89-19.87 7.19-3.31-4.24-10.3-7.11-18.87-7.07q-13.26.06-26.52.17c.36-2 .71-4 1.06-6h-9.94v-.09H41.01v.1H31.1q-3.9 14.44-7.79 28.91l8.31-.46q-5.53 21.56-11.08 43.1-4.52.54-9 1.13l-7.8 28.87q30.81-5.33 62-8.45c.51-2.91 1-5.83 1.54-8.74q5.7 2.06 11.54 4.12a910.72 910.72 0 0 1 145.21-.47c.05 0 12.71-4.84 12.62-4.73 4.1 5.62 14 10.28 25.09 11.65q21.66 2.64 43.15 6.35-11.66-43.26-23.3-86.52c-2.3-8.37-13.05-14.86-24.42-14.81Z" class="cls-2"/><path d="M258.47 70.29q-14.88-.14-29.76-.25 6.6 37.11 13.21 74.22c.79 4.59 9.15 9.05 18.66 10.17q17.73 2.06 35.35 4.81L275.2 79.42c-1.32-4.98-8.8-9.07-16.73-9.13Zm13.2 75.17q-4.31-.51-8.59-1-6.45-29.94-12.88-59.88-3.42-2.07-6.81-4.1 6.22.13 12.43.31l1.07.09ZM205.09 75.77 207.22 93c-2.34-.06-4.68-.12-7-.16q-.91-8.58-1.85-17.15l-17.67-.12q1.76 26.7 3.5 53.39 10 .25 20 .71-1.26-11.69-2.53-23.39l-6.38-3.67q6.57.16 13.13.37l3.34 27.05q10 .52 20 1.22l-9-55.3q-8.83-.1-17.67-.18ZM74.89 70.08l-10 .08v-.09l-19.08.17v.1l-10 .11q-2.25 8.63-4.49 17.27l8.22-.35-13.25 53.7q-4.56.56-9.12 1.16l-4.48 17.28q23.16-3.63 46.51-6 1.53-8.09 3.05-16.17c-3.06.26-6.11.55-9.17.84l9.78-47.8q-2.58-1.8-5.11-3.63l5.89-.2 2.39-.07 5.84-.18q1.5-8.13 3.02-16.22ZM106.91 75.74q-13.23.12-26.46.31l-9.72 55.67q14.93-1.14 29.9-1.86c9.77-.48 18-4.32 18.28-8.75q1.49-18.74 3-37.46c.28-4.43-6.42-7.99-15-7.91ZM99.49 120l-7.43.34q2.1-15.37 4.19-30.77c-1.83-1.19-3.63-2.37-5.43-3.57q6.31-.13 12.62-.25h.18q-2.06 17.12-4.13 34.25ZM157.14 75.52h-11c-8.58 0-15.78 3.63-16.07 8.06l-2.68 45.31q10-.24 20-.3l.35-23.1-5.93-3.49q6.57-.06 13.14 0v26.57q10 0 20 .2l-2.1-46.24c-1.13-3.95-7.79-7.01-15.71-7.01Zm-2.19 16.84h-7l.06-3.6a955.18 955.18 0 0 1-5.71-3.47h12.62c.02 2.35.03 4.71.03 7.07ZM90.97 138.9l-3.11.2.12-.84a.22.22 0 0 0-.1-.22.36.36 0 0 0-.3-.08l-1.29.04a.6.6 0 0 0-.33.12.34.34 0 0 0-.16.24c-.09.64-.19 1.27-.28 1.9a.24.24 0 0 0 .1.23.42.42 0 0 0 .3.07l2.11-.14c1.94-.1 2.81.56 2.62 2l-.3 2.28c-.19 1.45-1.27 2.24-3.24 2.38l-2.8.2c-2 .15-2.84-.5-2.63-2 .06-.37.11-.74.17-1.11l3.14-.23c-.06.39-.11.79-.17 1.19a.22.22 0 0 0 .1.22.41.41 0 0 0 .3.08l1.47-.11a.66.66 0 0 0 .34-.12.37.37 0 0 0 .16-.24c.1-.7.19-1.4.29-2.1a.23.23 0 0 0-.1-.22.48.48 0 0 0-.3-.08l-2.12.15c-2 .14-2.82-.52-2.6-2 .11-.71.22-1.42.32-2.14.22-1.46 1.29-2.25 3.21-2.38l2.58-.16c1.93-.13 2.79.54 2.6 2-.03.34-.06.61-.1.87ZM97.2 137.7l.24-1.95c2.72-.15 5.43-.28 8.15-.41l-.21 1.94-2.45.12c-.31 2.87-.63 5.74-.94 8.61l-3.33.19c.33-2.88.66-5.75 1-8.63ZM114.29 143.54l3.67-.14c0 .62-.09 1.25-.14 1.87-2.34.09-4.69.19-7 .3q.48-5.25 1-10.5l6.87-.26c0 .62-.1 1.23-.14 1.85l-3.63.13-.21 2.46 3.41-.13c-.05.59-.09 1.19-.14 1.78l-3.42.13ZM127.94 143.07l3.68-.09-.09 1.86-7 .2c.23-3.48.44-6.95.66-10.43l6.88-.17-.09 1.83-3.63.09c0 .82-.09 1.63-.13 2.45l3.41-.09-.09 1.77-3.42.09c-.09.83-.14 1.66-.18 2.49ZM141.61 142.76h3.64v1.89l-7 .1.36-10.39h3.26l-.26 8.4ZM154.89 140.5v4.07h-3.34l.06-10.37h3.27v4.35h2.62v-4.34h3.26l.15 10.37h-3.34v-4.07ZM171.29 142.86l3.68.07c0 .62.05 1.25.08 1.87-2.34-.05-4.69-.1-7-.13l-.3-10.38 6.87.11c0 .61.06 1.22.08 1.83l-3.62-.06c0 .81 0 1.62.08 2.44l3.42.06c0 .59 0 1.18.07 1.77l-3.42-.07ZM187.6 134.57c1.92.06 2.94.81 3.05 2.23l.66 8.49-3.33-.12c-.08-1.17-.17-2.34-.25-3.51l-2.39-.08c.08 1.17.15 2.34.23 3.5l-3.28-.08-.51-8.46c-.08-1.41.84-2.1 2.77-2Zm-2.37 5.27 2.38.08c-.09-1.17-.17-2.34-.25-3.5a.32.32 0 0 0-.15-.23.52.52 0 0 0-.32-.11l-1.47-.05a.5.5 0 0 0-.31.09.28.28 0 0 0-.12.22ZM203.56 135.36c1.93.09 3 .86 3.13 2.3.23 2.08.46 4.17.7 6.25.16 1.44-.75 2.1-2.72 2s-4.07-.21-6.11-.3l-1-10.5Zm.54 8.63q-.36-3.37-.71-6.77a.34.34 0 0 0-.16-.24.68.68 0 0 0-.32-.11l-1.92-.09q.38 3.72.74 7.42l1.95.1a.49.49 0 0 0 .31-.08.28.28 0 0 0 .11-.22ZM222.29 139.2l-3.11-.21c0-.28-.07-.56-.11-.84a.38.38 0 0 0-.16-.23.5.5 0 0 0-.33-.12l-1.28-.08a.44.44 0 0 0-.31.08.22.22 0 0 0-.09.22c.08.63.16 1.26.25 1.89a.34.34 0 0 0 .16.24.6.6 0 0 0 .33.12l2.11.13c1.94.15 3 .95 3.22 2.38.11.77.22 1.53.32 2.3.21 1.45-.67 2.11-2.63 2l-2.81-.2c-2-.13-3-.91-3.22-2.35 0-.37-.1-.74-.14-1.1l3.14.2c.05.39.11.79.16 1.18a.34.34 0 0 0 .16.24.63.63 0 0 0 .33.12l1.47.1a.44.44 0 0 0 .31-.08.22.22 0 0 0 .1-.22c-.1-.7-.19-1.4-.29-2.09a.37.37 0 0 0-.16-.24.52.52 0 0 0-.33-.12l-2.12-.14c-1.95-.13-3-.91-3.2-2.35-.09-.71-.18-1.41-.26-2.12-.18-1.44.69-2.11 2.61-2l2.58.16c1.92.12 3 .91 3.19 2.36.02.24.11.5.11.77Z" class="cls-3"/></svg>