<svg xmlns="http://www.w3.org/2000/svg" viewBox="0 0 311.6 212.3"><defs><style>.cls-2{fill:#fff}.cls-4{fill:#ffb548}.cls-5{fill:#53555a}.cls-7{fill:#ce102c}</style></defs><g id="Art"><path d="M160.4 212.3c-39.5-.1-74.2-14-95.3-38.1-5.1-6-9-12.4-11.7-19.1l-1.4-4.2-34.5-.2-8.3-9.2 26.3-69.2L0 48.2l49.1.4a99.8 99.8 0 0 1 29.7-27 149.3 149.3 0 0 1 54-19.4C141.6.8 150.4 0 159 0h2.9c8.6 0 17.4.7 26.2 2.2A148.3 148.3 0 0 1 242.8 22a100.7 100.7 0 0 1 30.1 28.1l21.8.2 8.3 9.2-19.4 50.7h19.8l8.2 9.5-12.6 33-30.6-.2-.9 2.6a67.8 67.8 0 0 1-11.7 19 105.6 105.6 0 0 1-43.6 29.2 153 153 0 0 1-51.7 9Z" class="cls-2"/><path d="m308.5 120.2-6.4-7.1-22.5-.2 20.2-52.8-6.4-7.1-22-.2a95.2 95.2 0 0 0-30.1-28.6l-.2-.2c-15-9.3-33.3-16-53.5-19.3-8.6-1.4-17.3-2.1-25.8-2.1H159c-8.5 0-17.2.7-25.8 2.1-20 3.2-38.1 9.8-53 19a97.2 97.2 0 0 0-29.7 27.4l-41.6-.3 30 20.4-26.5 69.6 6.4 7.1 35.2.3 1.9 5.9a66.6 66.6 0 0 0 11.3 18.3c23 26.2 59.3 37 93.3 37.1 17 0 34.6-2.8 50.8-8.8 16.2-6 31-15.3 42.5-28.4a68.2 68.2 0 0 0 12.7-22.6l30.7.2 11.4-29.9Z" style="fill:#101820"/><path d="M127.8 25.1h-6.3l5 3.2-7 17.9h6.6l8.2-21.1h-6.5zM151.6 25.2 147 36.9l-1.7-11.7-7.2-.1-8.3 21.1h6.5l4.5-11.4 2.1 11.5h6.9l8.3-21.1h-6.5zM170.1 25.3h-8.2l-8.3 21h8.6c6.7 0 11.7-4.1 14.1-10.3 2.5-6.3.9-10.8-6.2-10.8Zm.1 10.4c-2 5-4.4 5.6-7.5 5.5h-.6l4.3-11h1.3c2.8 0 4.3.7 2.5 5.5ZM193.6 25.3l-7 8.5-.2-8.5h-6.9l1.6 14.2-2.7 6.9h6.7l2.4-6.2 13.8-14.8-7.7-.1z" class="cls-2"/><path d="m23.5 55.6 6 4.1 14.7 10-24.3 63.9-1.1 3H22l21.1.2h1.5l.5-1.4 10.2-26.5 21.1.2h1.1l.7-.8 13-16.1 2.9-3.6h-4.6l-26.3-.2 4.2-10.9 31.1.2h1.5l.5-1.4 6.4-16.9 1.1-3h-3.2l-74-.6h-7.3Zm88.5.6-.5 1.4-16 42c-4.7 12.6-5.1 22.3-1.2 28.7 3.3 5.4 9.6 8.6 18.7 9.7 2.1.2 4.3.4 6.7.4h.6c11.9 0 21.3-2.8 28.8-8.4a58.3 58.3 0 0 0 17.9-26.5l16.7-43.8 1.1-3h-3.2l-33.8-.3h-7.3l6 4 8.4 5.7-12.6 33.2c-4.7 12.3-9.4 16.6-17.9 16.6h-1.5c-1.8-.2-3-.8-3.6-1.9-.9-1.4-1.3-4.5 1.3-11.5L137 59.3l1.1-3h-3.2l-21.4-.2H112Zm82 .6-.5 1.4-25.8 67.7-11.3 7.5-6.1 4h7.3l63.3.5h1.5l.5-1.4 6.5-16.9 1.1-3h-3.2l-30.1-.2 3.7-10 21 .2h1l.7-.8 12.7-15.1 3-3.6h-4.7l-26.1-.2 3.2-8.6 31.8.2h1.5l.5-1.4 6.4-16.9 1.1-3h-3.2l-54.4-.4h-1.5Zm66.8.5-.5 1.4-29 76.4-1.1 3h3.2l52.7.4h1.5l.5-1.4 6.3-16.5 1.1-3h-3.2l-28.4-.2 21.8-56.9 1.1-3h-3.2l-21.3-.2h-1.5Z" class="cls-4"/><path d="m169.5 127.4-11.9 7.9 63.3.4 6.5-16.8-33.2-.3 5.3-14.4 22.5.2 12.7-15.1-29.3-.2 4.9-13.1 33.3.3 6.4-16.9-54.4-.4-26.1 68.4zM97.5 100.4c-4.5 11.9-4.9 20.9-1.4 26.8 2.9 4.8 8.7 7.7 17.1 8.6l6.4.4h.5c11.4 0 20.4-2.6 27.5-8 7-5.3 12.6-13.6 17.1-25.5l16.7-43.8-33.8-.2 9.9 6.7-13.2 34.8c-5.1 13.2-10.5 18.1-20 18.1h-1.7c-2.5-.3-4.2-1.3-5.2-2.9-1.6-2.7-1.3-7.1 1.1-13.4l16.4-43.2-21.4-.2-16 42ZM53.8 106.5l22.6.2 13-16.1-29.5-.3L65.8 75l32.6.2 6.4-16.9-74-.5 16.1 11L22 134.3l21.1.2 10.7-28zM283.7 59.6l-21.4-.1-28.9 76.3 52.7.4 6.3-16.5-31.6-.2 22.9-59.9z" class="cls-7"/><path d="M61.7 51.3a83.9 83.9 0 0 1 19-17.9 121.4 121.4 0 0 1 35.5-16.8c14-4.2 28.9-6.3 44.2-6.3s30.3 2.1 44.2 6.3c13.3 4 25.3 9.6 35.5 16.8a82 82 0 0 1 20 19.3h3.3a84.2 84.2 0 0 0-21.8-21.5 123 123 0 0 0-36.3-17.1 159 159 0 0 0-90 0c-13.6 4-25.8 9.8-36.3 17.1a86.9 86.9 0 0 0-20.8 20.1h3.4ZM214.5 149.5a153.8 153.8 0 0 1-54 9.6c-15.3 0-30.3-2.1-44.2-6.3-13.3-4-25.3-9.6-35.5-16.8a89.5 89.5 0 0 1-16.3-14.6l-1.1 2.9c4.4 5 9.7 9.6 15.8 13.9a123 123 0 0 0 36.3 17.1 159 159 0 0 0 106-5.9h-7Z" class="cls-4"/><path d="M245.8 156.2v8.5c2.3-2.7 4.3-5.6 5.9-8.5v-5.6a156 156 0 0 1-5.9 5.6Zm-7-2.3v8c2.4-1.8 4.8-3.7 7-5.7v-6.8c-2.3 1.6-4.6 3-7 4.5Zm-7.9 24.4c2.8-2 5.5-4.1 7.9-6.4v-10c-2.6 1.9-5.2 3.7-7.9 5.4v11Zm-11.1-15.2v10.4c3.8-1.9 7.5-3.9 11.1-6.2v-9.1c-3.6 1.8-7.2 3.4-11.1 4.9Zm-13.3 27.7.9-.3a93 93 0 0 0 12.4-5.5v-11.6c-4.3 2.1-8.7 4-13.3 5.6v11.7Zm-14.9-19.7v12.4c5.1-1.2 10.1-2.7 14.9-4.4v-11.5c-4.8 1.4-9.8 2.6-14.9 3.5ZM176 197.7c5.3-.6 10.5-1.4 15.6-2.6v-11.7c-5.1 1.2-10.3 2.1-15.6 2.7v11.6Zm-15.6-23.8V187c5.3 0 10.5-.3 15.6-.9v-12.9c-5.1.5-10.3.7-15.6.7Zm-15.6 23.8c5.1.6 10.3.9 15.6.9V187c-5.3 0-10.5-.3-15.6-.9v11.6Zm-15.6-26.6v12.4c5.1 1.2 10.3 2.1 15.6 2.7v-12.9c-5.3-.5-10.5-1.2-15.6-2.1Zm-14.9 19.7c4.8 1.7 9.8 3.2 14.9 4.3v-11.7c-5.1-1.2-10.1-2.7-14.9-4.4v11.7ZM101 163.1v10.4c4.3 2.1 8.7 4 13.3 5.6v-11.5c-4.6-1.3-9-2.8-13.3-4.5Zm-11.1 15.2c3.5 2.5 7.2 4.7 11.1 6.7v-11.6c-3.8-1.9-7.5-3.9-11.1-6.2v11ZM82 153.9v8c2.6 1.9 5.2 3.7 7.9 5.4v-9.1c-2.7-1.4-5.4-2.8-7.9-4.3Zm-7 10.8.5.6c2 2.3 4.2 4.5 6.5 6.6v-10a96.6 96.6 0 0 1-7-5.7v8.5Zm-5.9-19.6v5.5a156 156 0 0 0 5.9 5.6v-6.8l-5.9-4.4ZM270.2 155.9v-1h4.4v1H273v4.4h-1.2v-4.4h-1.6ZM276.9 154.9l1.3 3.7 1.2-3.7h1.7v5.4H280v-3.8l-1.3 3.8h-.9l-1.3-3.8v3.8h-1.1v-5.4h1.7Z" class="cls-5"/></g></svg>