<svg version="1.1" id="Layer_1" xmlns="http://www.w3.org/2000/svg" x="0" y="0" viewBox="0 0 692.7 557.1" style="enable-background:new 0 0 692.7 557.1" xml:space="preserve"><style>.st0{fill:#231f20}.st2{fill:#fff}.st3{fill:none;stroke:#223d79;stroke-width:5;stroke-miterlimit:10}.st4{fill:#223d79}.st9{fill-rule:evenodd;clip-rule:evenodd}.st10,.st9{fill:#a4a4bc}.st12{fill:#fdb827}.st13{fill:none;stroke:#0a0203;stroke-width:.171;stroke-miterlimit:2.613}.st15{fill:#a7b1b7}.st17{fill-rule:evenodd;clip-rule:evenodd;fill:#fff}.st19{fill:none;stroke:#fff;stroke-width:3;stroke-miterlimit:10}.st20,.st21{fill-rule:evenodd;clip-rule:evenodd;fill:#223d79}.st21{fill:#231f20}.st22{fill:none;stroke:#231f20;stroke-width:2;stroke-miterlimit:10}.st25{font-family:&apos;MyriadPro-Semibold&apos;}.st26{font-size:40.948px}.st27{letter-spacing:6}</style><path class="st0" d="M125.3 428.7c51.6 111 216.3 143.8 367.8 73.4 151.6-70.4 232.6-217.5 181.1-328.5-51.6-111-216.2-143.8-367.8-73.4-151.6 70.4-232.7 217.5-181.1 328.5"/><path d="M125.3 428.7c51.6 111 216.3 143.8 367.8 73.4 151.6-70.4 232.6-217.5 181.1-328.5-51.6-111-216.2-143.8-367.8-73.4-151.6 70.4-232.7 217.5-181.1 328.5z" style="fill:none;stroke:#223e79;stroke-width:6;stroke-miterlimit:10"/><path class="st2" d="M640.3 379s74.5-84.5 36.6-196.4c-19.7-58-69.7-88.8-131.7-107.1-54.2-16-112.8-11.9-165.3-1.3 0-.1 363.3-59.6 260.4 304.8"/><path class="st3" d="M640.3 379s74.5-84.5 36.6-196.4c-19.7-58-69.7-88.8-131.7-107.1-54.2-16-112.8-11.9-165.3-1.3 0-.1 363.3-59.6 260.4 304.8z"/><path class="st4" d="M190.9 181S66.7 299.6 125.3 428.7c26.6 58.5 85.3 95 156.5 106.6 64.4 10.5 139.4.3 211.4-33.1-.1-.1-490.7-24.1-302.3-321.2"/><path class="st2" d="M187.2 189c-6 10-11.5 20.2-16.6 30.7a234.9 234.9 0 0 0-13.1 32.1c-3.5 11-6.1 22.3-7.6 33.8-1.5 11.4-1.7 23-.4 34.5a128.6 128.6 0 0 0 25.1 63.4c6.9 9.2 14.9 17.7 23.6 25.3 8.7 7.6 18.1 14.4 28 20.5a343.7 343.7 0 0 0 62.3 30.8 516.2 516.2 0 0 0 66.7 19.9c22.7 5.2 45.5 9.5 68.5 13.1 23 3.6 46.1 6.8 69.1 10.7a740 740 0 0 1-69.6-7.5 802.2 802.2 0 0 1-68.8-12.9 507.7 507.7 0 0 1-67.1-20.2 356.2 356.2 0 0 1-77.3-41.1 183.6 183.6 0 0 1-38-36.6 132.9 132.9 0 0 1-25.6-100.3c1.5-11.7 4.2-23.2 7.9-34.4s8.2-22 13.5-32.5a133.1 133.1 0 0 1 19.4-29.3"/><path d="M257.5 273.7s-31.2 31.6-15.3 61.9m152.2-23.3s25.9 19.2 49.7 44.6c11.5 12.3-35.4 29.5-21 33.1 45.1 11.3 209.5-75.3 209.5-75.3l-125.9-96.3m-59.5 146.4s46.5 5.7 146.6-29.4m-199.4-23.1s25.9 19.2 49.7 44.6c11.5 12.3-35.4 29.5-21 33.1 45.1 11.3 209.5-75.3 209.5-75.3l-125.9-96.3m-59.5 146.4s46.5 5.7 146.6-29.4m-199.4-23.1s25.9 19.2 49.7 44.6c11.5 12.3-35.4 29.5-21 33.1 45.1 11.3 209.5-75.3 209.5-75.3l-125.9-96.3m-59.5 146.4s46.5 5.7 146.6-29.4M360.5 8.4 308 20.7l-26.1 9.9-13.2 9.5-6.3 7.7 1.7 6 9.5-5.6 2.5 5.4 5.9 15.9 35.5-24.4 3.1 19 38.9-10.4-5.9 17.3 22 4.1-6.1 15.1 21.2 13.6-7.9 8.3 30.9 27.8-21.4.2 16.6 24 30.3-24.1s-20.1-54-30.7-67.3c-10.6-13.4-19.9-25.9-19.9-25.9S377.5 11 372.1 8.4c-5.4-2.7-11.6 0-11.6 0zm98.2 324.1a50.8 50.8 0 0 1 15-4.1l9-1.1 3.5-.5c.4-.1 2.6-.8 1.9-.5 4.9-1.9 9.7-4 14.6-5.8 9-3.4 19.2-6.1 28.4-2.7.7-3.3 2.2-5.5 4.7-6 46.3-.5-24.7-77.7-42.1-98.9-126.6-154.6-222.7-13.3-251.4-15-60.4 50.9-.6 79.3 20.7 87.4 7.3-1 120.5 18.1 132.9 31.8 22 24.3 35.4-18.4 61.1 6.2-.6-.5.1 3.3 1.7 9.2zm-189.2-45c1.7.4-1.2-.3-6.4-2.3-1.3.1.5.9 6.4 2.3zm338.7-56.6-.1 1.5 3-.5-2.9-1zm-104 81.1a32 32 0 0 1 19.7-11.4 32.6 32.6 0 0 1 29.7 10.8c14.7-4.2 24.1-7.2 25.3-8.7 0 0-29.8-1.4-74.9-7.8-.2 4.1-5 4.9-9.3 7.2-12.8 6.7-28.2 7.4-42.3 8.2-7 .4-14 .7-20.9 1.8-9 1.5-18 2.2-27.1 3.2-8.1.8-12.6-5.6-12.7-11.9a117 117 0 0 1-30.4-9.5c-11.4-4.9-25.9-11.3-32.9-22.1-.9-1.3-2.5-1.4-2.9-2.8-51.4-6.7-105.1.9-101.3-11.8-19.8-2.3-1.1 54-40.4 74.7l-2.6-1.7c-.5 1.6-1 3.2-1.7 4.6-3.1 6.8 1.1 13-4.8 17.3 6.5 6.3 3.2 13.2 8 21.2 3.3 5.6 8.7 9 7.4 15.7l71.7 2s.3 2 7.8-9.2c0 0-11.7-11.2-1-13.6-2.8-3.9 22.4-2.7 21.6-7.7-2.9-17.5 7.2-35.2 24.7-38.1.5-.1 3.1.6 3.6.6l1.5-.3 1.5-.2a32 32 0 0 1 24.3-5c1.8-.2 3.5-.2 5.3-.1l2.1-.8c3.5-2.2 7.4-3.7 11.6-4.4 15-2.4 29.6 6.2 35.2 19.7a33 33 0 0 1 8.1-2.5l2.1-.3 1.9-.4c17.6-3 34.2-9.9 51.9-12.7 13.3-1.8 26.9-1.6 40.2-4zM604 179.3c-15-34.5-62.4-47.6-75.8-40.5-20.5-12.5-61-37.5-103.8 2.5-25.7 24.1 191.5 154.6 211.6 146.9 20.1-7.7-24.3-22.2-20.3-47.4 2.7-17.2-.6-29.4-2.8-38.9-2.4-9.8-6.5-17.2-8.9-22.6zm-215.4 10.8 1.4 1.6-1.4-1.6zm1.4 132.4c-.1 0 0 0 0 0zm-24.2-45v-.2c-.1.1 0 .1 0 .2zm173.6-28.6c-15.9-13.6-35.9-13.4-41.2-19.8-1.2 8.6-22 14.4-19.3 1.7 50-47.5-22.7-83.1-44.8-82.2 6.8-10.7 40.4-25.7 70.9-16.4 10.8-5.7 17.3 10.9 32.7 16.4 62.9-13.2 70.7 84.1 69.1 84.5-1.5.4-30.9 2.1-67.4 15.8zm117.8 54.2c.5 18.9-9.7 38-28.1 31.5-3.7 3.4-9.9 2.6-18.3-1.1-9.8 8.8-17-1.9-21.1-4.6 0 0-15.5-.8-24.8-2.1 0 0-41-31.6-25.4-35.4 14.2-3.5-10.2-7.1-10.6-16.8 0 0-15.5-23.5-7.7-30.2 4.9-4.1 26.5-10.7 50.5-13.8 49.4-9.2 52.3.9 64.3 21.9 15.2 26.6 21.4 34.4 21.2 50.6zM325 226.6s135.8 100.3 202.2 135.8m-55.6-40.6.7-1.3c.1.5-.1 1-.7 1.3zm85.7-9.2s-336.5 66.9-449 95.5c-11 2.8-19.4-1.1-30.5-7.1-22.9-12.3-65.1-44.5-72.9-53.5-11.4-13 21.1-41.6 33.6-35.9 22.4 10.2 43.3 54.5 79.9 64.2 85.3-9.4 451.5-96.8 451.5-96.8M41.6 318.4C28.7 308.4 4 336.1 8 343.9c1.6 3.1 44.7 41.1 80.7 57 5.7 2.5 10 3 23.1.6C266 372.3 573 303.1 573 303.1l-12.2-18.6s-314.3 78.9-442.5 96.9c-23.5-.1-57.4-48-76.7-63zm-28.5 25.5c2.2-17.1 19.3-25.4 26.2-21.9 2.3 1.2 23.2 27 57.3 54.1 12.7 10.1 16.8 8.9 35.6 6.3 70.9-6.9 410.2-85.6 410.2-85.6M13.1 343.9a26.3 26.3 0 0 1 8.8-17c2.4-2.2 5.2-4 8.3-5.1 1.5-.6 3.2-1 4.8-1 .8-.1 1.7 0 2.5.1.9.2 1.6.4 2.5 1 1.3 1.1 2.3 2.3 3.5 3.5l3.3 3.5 6.7 7c4.5 4.6 9 9.2 13.7 13.7 9.3 8.9 19 17.5 29.1 25.6 2.5 2 5.1 4 7.8 5.5 2.8 1.6 5.8 2.7 9 2.9 3.2.3 6.4 0 9.6-.4l9.6-1.3v.1c17.4-1.9 34.5-5 51.7-8.2 17.2-3.2 34.3-6.6 51.4-10 34.2-6.9 68.4-14.2 102.5-21.6a18734.5 18734.5 0 0 0 204.5-45.9l.2 1c-34 7.9-68.1 15.6-102.2 23.2-34.1 7.6-68.2 15.2-102.3 22.6a6908 6908 0 0 1-154 31.6c-17.2 3.1-34.4 6.2-51.8 8.1v.1l-9.6 1.3c-3.2.4-6.5.7-9.8.4-3.3-.3-6.5-1.4-9.3-3a63.7 63.7 0 0 1-8-5.6 444 444 0 0 1-42.9-39.2l-6.7-7-3.3-3.5a36.4 36.4 0 0 0-3.4-3.4l-.9-.5-1.1-.3c-.7-.2-1.5-.2-2.3-.2-1.6 0-3.1.4-4.6.9a26.8 26.8 0 0 0-17.3 21.1zm45.2 41.5C68.8 360.5 73.5 357 73.5 357l4.6-3.4-20.3-22-6.4 5.7s-9.9 18.7-15 33l21.9 15.1zm535.4-89.1s44-12.6 54.9 2.2c0 0-4-29.5-18.4-34.6-51.3-.3-53.9 6.5-52.5 8.9 4.6 7.9 16 23.5 16 23.5zm.1 12.8c1.6 2.5 1.5 7.1 1.5 11.2-.2 15.6 16.4 3.2 17.4-.6 0 0 4.6-10.8-4.4-19.8 0 0-22.3-2.3-14.5 9.2zm20.8 16.3c6 5.3 19.8-2.1 17.9-10.7 0 0 2.1-10.2-5.5-16.3 0 0-13.5-4.6-11.8 3.3 1.6 7.9 6.6 16.2-.6 23.7zm-78-73.9c.6 8.8 8.7 18.5 12.7 16.7 10.6-5 68.9-12.2 79.8-9.6 0 0-9.6-20.2-15.4-21.2-16.1-2.7-34.2-.9-60.1 3.7-3.8 1-17.4 4-17 10.4zm98.3 53.8c2.2 3.4-2.7 19.4-1.4 20 12.2 6.4 15.1-12.8 14.2-14.5 0 0 2.1-3.8-5.1-9.5-1.3-3.2-15.5-8-7.7 4zm-77.4 5.2 10.2 8.7c28.8 12 9.9-12.6 9.9-12.6-4.4-.4-20.1 3.9-20.1 3.9zm73.6-43.8s10 7.2 14.2 25.5c0 0-3.7-15.3-51.4-4.6 0 0-9.9-15.3-9.3-16.2 0 0 4.7-3.5 46.5-4.7zm-61.3 5.1s19.1 26.8 17.9 28c0 0-3.6 1.3-10.3.8 0 0-18.9-27.3-21-27.2 6.8-1 8.8-2 13.4-1.6zm81.8 34.6c-1 .4 8.5 11.6-60.7 5.1l-2.3 3.3s56.4 7.9 61.1-2.6l1.9-5.8zm-11-6.9s5.5 4.1 5.7 8.2l-9.2 1.7s-2.6-8.3-4-10.1a10 10 0 0 1 7.5.2zm-14.9-.1s5.6 5.5 5.7 9.6l-10.4.1s-3.7-7.7-5.1-9.5c.1 0 6.2-1.9 9.8-.2zm-18.4 2.4c3 2.2 5 5.7 5.2 9.5l-11.8-.2s-3-6.9-4.4-8.7c0 0 7.4-3.2 11-.6zm-106.7-20.2s5.9-25.1 4-34c0 0-.2-12.7-12.6-22.2l-30.7 13.5s31 10.7 23 47.9c13.3-3.7 16.3-5.2 16.3-5.2zm-313.5 31.3c3.7-27.6 17.8-33.1 33-21.7 12.9 4.3 20.9 22.6 25.9 22.6 0 0 17.8 9.1-13.2 38.1.7.8 1.3 2.2 2 4.2l3.4-.1 10.8-2.5s13.7-2.1 17 12.6c0 0 20.5 35.3-11.1 33.2-11.3-.8-13.1 7.3-28.8.8-1.6.5-2.7.5-2.7.5-11.6 9.2-29.7-3.6-36.7-15.5-10.5-4.1-17.6-14.6-17.8-22.2-.6 1.8 2.9-28.3 18.2-50zm-1.9 64.4c22.8 6.6 30.7-5.3 29.2-12.2-1.5-6.9-34.7-16.1-34.7-16.1-14.2 18.8 5.5 28.3 5.5 28.3zm7.1-4s7.7-5.4 8.2-10.8c4.1-.9 10.7 4.7 10.7 4.7s-4.3 12-18.9 6.1zm-5.6-43.5s1.9-12.8 9.8-12.2c8.9 2.3 39.7 12 34.8 23.9l-2.9 6.3s-15-15.3-41.7-18zm7.4-17.4s2-22.4 15-19.7c3 .1 21.6 7.8 73.4 37.6l-43 3.8s-20.6-16.9-45.4-21.7zm26.9 48.8s11.1-7.4-1.9-15.7c0 0-29.4-15.7-35.1-9.6l-2.7 7.5c.1 0 28.9 7.8 39.7 17.8zm19.8-17.9 28.4-6-15.3-.8-12.8 1.1-.3 5.7zm-20.7-41.6 52 27-16.6 1.6s-42.9-25.5-57.4-24.8c.1-.1.6-16.2 22-3.8zm-4.7 26.1L214 333s8.5 3.6 12.4 8.4c.6 1.2 9.7-6.5-11-13.6zm-2.5 17.3c-.8 2.3-1.9 4.4-1.9 4.4s5.7 2.8 8.6 5.9c3.5-2.1 1.7-5.6 1.7-5.6s-4.6-4.3-8.4-4.7zM632 262.2s24.9-35.3 43.2-3.5c0 0 21.7 34.3-23.6 32.9 0 0-2.5-24.8-19.6-29.4zm19.3 6.9-4.7-10.1s5.3-7.3 12.2-6c8.1 1.2 9.9 10.9 9.9 10.9l-17.4 5.2zm-190-142c34 2.5 70.9-.3 93.6 52.7 0 0-4.5-29.2-19.4-39.3.1 0-33.2-27.6-74.2-13.4zm-41 181.1-25.9 4.1s-85.2-29.2-109.4-70.5c0 0 32.3 33.4 135.3 66.4zm-77.2-10.4c11.6 6 20.8 11.5 33.6 15.5L301 330.9c3.7-2.7 11.8-8.9 9.7-14.1 15.2-3.7 29-16 32.4-19zm168.5-55s7.5 5.5-1.2 37l27.1-5s-17.9-27.8-9-31.3c0 0-5.8 4.4-16.9-.7zm42.5 11.7s32.6-7.9 38.2-4.9c0 0 5.7 3.3 9.3 9 0 0-43.7 4.3-47.3 6.6 0 0 4.4-3.2-.2-10.7zm-323.5.3c-11.2-21.5 5.8-33.3 3-28.7-7.6 12.3 12.1 41.9 56.3 42.5 11.9 12.2 33 23.2 41 24.9-4 8.1-18.4 15.3-26.7 13.2-.4 9.1-3 10.3-17.5 19.4 0 0-41.1-27-63-34.3m-4.8-49.6s-12.3 15.3 57.1 48.4c-13.6-6.5-36.8-19.3-48.7-19.6-1.9 0-3.5.2-4.7.8l-4.2-25.6.5-4zm12.9 120c8.3 7.2 23.5 42.1-4.3 31.7-4.7-11.3-5.9-20-5.9-20s8.6-5.4 10.2-11.7zm19-2.2s7.3-.2 8.6 3.9c1.3 4.1 17.4 37-9.1 25.8l-7.3-19.8s-5.2-11.4 7.8-9.9zm-34.2 16.7 3.8 15.4s-11.8 11-18.7-5.1a25.6 25.6 0 0 0 14.9-10.3zm52.7-130.2c-.9-.3-1.3-1.1-2.4-1.1-5-2.8-10-5.6-14.8-8.6 1.5 1.7 3.1 3.3 4.8 4.9a511.3 511.3 0 0 1 12.4 4.8zm153.3-87.7h-.3c-.3.5-.7.9-1.1 1.2l4.5-.9.4-.3c7.3-5.1 14.5-10.4 21.9-15.3-3.4-.6-7.3-.6-11.1-.7-2.7-12-6.8-22.5-11.3-32.4-1.4-2.1-2.4-4.7-3.5-7.2.1-1-.6-1.2-.8-1.9-.9-.8-1.3-2.2-1.9-3.4v-.3c-1.2-1.2-1.8-3-2.6-4.6v-.3a26.7 26.7 0 0 1-3-4.9v-.3c-1.8-2.7-3.6-5.4-5.2-8.3-.4-1.3-1.2-2.2-1.9-3.1-5.7-7.7-11-15.9-17.3-22.9v-.6a9.3 9.3 0 0 1-3.3-4.6c-1.9-9.1-3.6-18.5-7.2-25.6-3.9-3.9-5.2-11-10.7-13.1V9c-1.2-.3-1.8-1.1-3.3-1-2.5 1-3.3 3.6-5.8 4.7h-.3c-1.3 1.4-3 2.4-4.9 3.3a27.5 27.5 0 0 1-13.3 4.3 39 39 0 0 1-11.3.9 109.2 109.2 0 0 0-50.5 16.2c-1.6.6-2.5 1.6-3.7 2.6-1.6 1.8-3.7 3.3-5.4 5h-.3c-.4 1.4-2.1 1.6-2 3.4h.3c1.2.1 1.7-.3 2.2-.8 1.2-1.1 2.9-1.9 4.6-2.6h.3c.2-.5 1.7-1.3 1.9-.8l.3 4.2a68.3 68.3 0 0 0 5.8 20.3c.8-.1 1.2-.6 1.2-1.4 1.4-1.9 3.2-3.5 4.8-5.2h.3c.7-1.3 1.9-2.2 3-3.1h.3a61 61 0 0 1 13.7-10.8h.3c1-1.2 2.8-1.8 4.3-2.6.5 0 .5-.3.9-.4 1.5-1.2 3.5-2 5.6-2.7 2.1-.4 3.6-1.3 5.7-1.7-.7 4.2-1.3 8.5-.9 13.7-.1 1.1.6 3 0 3.6l.5 5.8c.8 0 1.2-.1 1.6-.4 1.1-.9 2.5-1.5 4.1-1.9 2-.5 3.7-1.2 5.3-2 .7-.7 2-.9 3.1-1.2 8-2.1 16.7-5.3 25.4-5.9-.2 1.7-.5 3.4-1.3 4.6v.3c-.3 1.3-.4 2.8-1.3 3.7-.2 1.2-.9 2.1-1 3.3-.4 2-1.1 3.6-2.2 5v.3l.1 1c.6.8 2.1.6 2.7 1.4.9.3 1.7.8 3 .7 2 .5 4.4.6 6.3 1.5 3.3.6 6.7 1.1 10.4 1.1.4 0 .9-.1 1 .2a42.9 42.9 0 0 1-9.6 14.3v.3c.2 0 .4 0 .3.3 5.2 2.4 10.4 4.7 14.9 7.9h.3c3.4 2.1 7.2 3.8 9.9 6.7-4 2.5-8.3 4.7-12 7.4v.3c9.3 6 17.1 13.7 23.8 22.7v.3c1.7 1.8 4.1 4.5 4.4 6.8-.6-.1-1.3-.1-1.7-.5-2.8-.5-5.6-.9-9.1-.6-1.1-.1-3 .6-3.6 0l-3.2.3c3.4 6.1 8.2 10.6 11.9 16.2-.2.9.7.6.7 1.2 1.4 1 2.3 2.4 3.2 4 0 .3.2.3.3.3.5 0 .4.7.7.9 1.7-.3 2.2-1.5 3.4-2.2M342 272.1l-5.3-3.7a65.7 65.7 0 0 0-25.5-7.4c-1.4 0-2.7-.1-3.6-.7a2 2 0 0 0-1.6-.2c-1.2-.1-2.5-.1-3.3-.7-1.1-.4-2.2-.6-3.5-.7l7.9 2.8c11.4 3.9 23.1 7.3 34.9 10.6zm101.8-144.7c-5.4-5.4-9.8-15.7-14.2-23.8a469.1 469.1 0 0 0-28.3-47.3c-4.9-7.1-10.3-14.5-13-22.7-.8-2.4-1.4-6.9-2.4-9.8C381.5 11.5 367-2.1 360.6 4c-8.5 8.2-20.8 7.5-34.5 9.3a138.3 138.3 0 0 0-36.8 10 68 68 0 0 0-27.4 18c-6.5 8.1-11 17-16.6 27.2-2.5-3.1-4.9-6.5-7.5-9.4-2.1 3-3.4 6.8-4.7 10.6 2.4 2.6 4.1 6 4.9 9.7 4.2 19.8 3.3 40.1 3.5 60.2a222 222 0 0 0 1.9 30.5c.6 4.2 1.4 8.5 2.4 12.6l1.6 5.1a91.6 91.6 0 0 0 4.6 10.5l.4.8.2.3c1.4 2.1 2.7 4.3 4.4 6.2.3.3 2.8 2.9 2 2.3l1.2 1.1c.8.6 4.9 3.3 4 3a65 65 0 0 0 10.6 4.2l.8.2 2.4.6 6.9 1.8c6.6 1.8 13.3 3.5 19.7 6.1l.1.1c3.8-4.4 9.6-7.2 15.5-6.1 5.7-6.2 15.2-6.4 22.2-2.2l1-.5 1.3-.8a64 64 0 0 0 5.2-3.9c.8-.7 1.7-1.4 2.4-2.2l.1-.1a98 98 0 0 0 4.3-4.8c11.5-13.8 19.5-29.9 29.9-44.4a17 17 0 0 1 16.2-6.5 73.5 73.5 0 0 1-8.9-12.2l3.5-.3c1.1.1 3-.6 3.6 0 3.5-.3 6.3.1 9.1.6.9-.3.9.4 1.6.2a148 148 0 0 0-4.4-6.5v-.3c-7-8.5-14.6-16.4-23.8-22.4l-.1-.6c3.1-3.1 7.6-4.9 11.4-7.4-2.5-2.9-6.1-4.4-9.2-6.4v-.3h-.3c-4.9-3-10.4-5.1-15.2-8.2v-.3c3-4.6 8.2-8.8 8.6-14.6-3.8 0-7.1-.5-10.4-1.1-2.2-.3-4.6-.5-6.3-1.5-1.3.1-2.1-.4-3-.7-1.2-.1-2-.8-3-1.1l-.1-1.3h.3v-.3l2.2-5c.2-1.2.8-2.1 1-3.3.5-1.2.6-2.7 1.3-3.7v-.3c.4-1.6.6-3.3 1.3-4.6-8.7.6-17.4 3.7-25.4 5.9-.7.7-2 .9-3.1 1.2-1.6.8-3.4 1.5-5.3 2-1 1-2.7 1.3-4.1 1.9a2 2 0 0 1-1.6.4l-.5-5.8c.1-1.1-.6-3 0-3.6-.4-5.1.2-9.4.9-13.7-2.1.4-3.6 1.3-5.7 1.7a32.2 32.2 0 0 1-5.6 2.7c-.4 0-.4.4-.9.4-1.2 1.1-2.8 1.8-4.3 2.6h-.3c-4.6 3.5-9.6 6.6-13.4 10.8l-.6.1c-.7 1.3-2 2.1-3 3.1h-.3c-1.5 1.9-2.7 3.9-4.8 5.2 0 .8-.4 1.3-1.2 1.4a71.4 71.4 0 0 1-5.8-20.3c-.8-.6-.3-2.7-.6-3.8-.9-.2-.8.5-1.6.4h-.3c-1.3 1.1-3 1.8-4.6 2.6-.5.5-1 .9-2.2.8-.3.8-1.5.7-1.8 1.4.1-1.2 2.3-3.2 3.2-4.8h.6c1.4-2 3.5-3.4 5.4-5 1.1-.9 2.1-2 3.7-2.6 3.8-3 8.4-5.4 13.7-7.2 10.8-4.3 21.9-8.3 36.8-9l11.3-.9c5.7-.4 9.8-2 13.3-4.3 1.5-1.2 3.3-2.2 4.9-3.3h.3c2-1.3 3.6-4.5 5.8-4.7 1.5-.1 2.2.8 3.3 1 5.5 2.2 7.2 8.9 10.8 13.4 3.6 7.1 5.3 16.5 7.2 25.6 1 1.6 2 3.2 3.3 4.6v.3c6.4 7 12 15 17.3 23.2.7.9 1.5 1.8 1.9 3.1a53 53 0 0 1 5.2 8.3v.3c1.2 1.4 2.1 3.2 3 4.9v.3c1.2 1.2 1.8 3 2.6 4.6v.3c.9.8 1.3 2.2 1.9 3.4.2.7.9.9.8 1.9 1.5 2 2.4 4.7 3.5 7.2 4.5 10 8.5 20.4 11.3 32.5 4.1.1 8.4.1 12 .9 1.8-3.2 4-6.2 6.4-8.8-3.9-1.9-8.7-4.2-11.6-7.1zm-140.3 73.4a28 28 0 0 0 11.5 7.9l.2-2.9c.2-2.9.4-5.8 1.3-8.3l.3-.9.9-.4c.5-.3 1.1-.4 1.6-.4 1.7 0 2.8 1.1 3.6 1.9l.7.6c3 2 6.7 3.7 10.5 4.7l.1-6.2v-5.5l3 .6a58 58 0 0 0 21.9-.3l-.4-.5c-1.9-2.4-4-5.2-5.5-8.2l-1.4-2.8 3.1-.7a65 65 0 0 0 14.5-5.1 38.1 38.1 0 0 1-9.4-9l-2.1-3.3 3.9-.6c3.3-.5 5.9-1.7 8.6-3l.6-.3-1.1-.8-.1-.1-.1-.1c-2.9-2.7-6-5.4-9.2-7.9l-.6-.5c-1-.7-2.3-1.5-3-3.3l-.9-2.2 2.2-1a25 25 0 0 0 5.8-4l.8-.6a44.7 44.7 0 0 0-12.2-7.9l-2.7-1.3 1.8-2.4 3.4-4.1c2.6-3.1 5-6 6.6-9.6H361.1l-2.5.1c-2.3 0-4.4-.3-6.3-.6l-4.1-.5-3.3-.2 1.2-3.1c1.2-3.3 2.8-6.2 4.3-9.1l-8.1 1.5c-3.3.7-6.8 1.4-10.1 1.9l-3.3.5.5-3.3.7-2.8c-5.4.7-10.8 2.6-15.6 4.3l-5.7 2 .8-4.2c.3-1.5.7-2.7 1.2-4a72.1 72.1 0 0 0-11.8 7.5l-3.6 2.6-2.5 1.8-1.2-2.9a21 21 0 0 1-1-3c-2.9 2.8-4.8 6.5-6.9 10.4l-1.6 3-2.3-1.5a16.1 16.1 0 0 1-5.7-7.8c-1.5 3-2.1 6.9-2.4 10.4l-.3 3.3-3.1-1.2c-3.3-1.3-5.8-4.5-7.9-8.2l-1 5.7-.7 4.2-.5 2.6-2.6-.7c-1.6-.4-3-1.2-4.1-1.9v2.7l-.3.3v.6l.5.3v1.2c0 1 .2 1.8.5 2.7.3 1 .6 2.1.6 3.6l.1 2.2-2.2.4-2.3.5c1.8 2.3 3.4 4.7 5 7.1 2.2 3.4 4.3 6.6 6.9 9.3l3.7 4-5.4.2-3.3.4-.6.1c1.6 2.2 3.6 4.2 5.6 6.2 1.8 1.8 3.6 3.6 5.3 5.6l2.5 3.1-3.8.9c-1.6.4-3.5.6-5.3.8 3.3 7.3 8 13.1 13.3 19.2l1.6 1.9-1.8 1.6c-.8.7-1.7 1-2.6 1.2 1.9 1.6 4.4 2.8 7 4.1 2.4 1.2 4.9 2.4 7 3.9l1.3-2.9 1-2.1 1.4-3.4 2.6 2.6 3.4 3.5 3.3 3.4 1 1 1.8-4 1.5-3.2 2.6 2.7zm-7.2 8.7c-2.2 5.8-3.3 14.3.5 18.9l.8.9a25.8 25.8 0 0 1-1.3-19.8zm30.7 34.7c-14.1-.9-24.5-6.2-29.2-14.5l-1 2.1c-.9 2.1-2 4.5-4 6.2l-1.9 1.7-1.6-2c-3.3-4-6.1-9-8.7-15.1-2.2 3.1-3.9 6.9-5.6 10.7l-1.7 3.8-2.6-2.8c-4.5-4.9-6.2-12.4-7.2-20.1-2-.3-4.3-.4-6.9-.4-3.3 0-6.9.2-10.3.4l-4.6.3.7-3.2a6.7 6.7 0 0 1 2.6-4.1c.9-.9 1.8-1.8 2.5-2.9l.1-.2.1-.2.9-.9a84.3 84.3 0 0 1-22.1-24.1l-1-1.4 1-1.4c.6-1 1.6-1.5 2.8-1.5l1.3.2.3.1 1-.4.9.5h.5c-1.6-5.4-3.9-10-6.2-14.9-2.5-5.3-5.1-10.9-6.9-17.3l-1.2-4.5 4.4 1.4 4.7 1.6 3.3 1.1a222 222 0 0 1-12-34.2l-1.4-5.4 5.4 2.7a68 68 0 0 0 10.7 4.7c-.3-1.3-.6-2.8-.7-4.7l-.6-8.3a98.4 98.4 0 0 1 3.4-28.6l1.5-6.3 3.1 5.7c2.6 4.7 5.8 9 10 13.2l.7.7a74.4 74.4 0 0 1 20.3-31.5l3.4-3.2.8 4.5c1.4 7.8 4 14.2 6.8 20.7 9.8-9.5 20-19.2 33.3-26.2l4.1-2.1-.4 4.7c-.5 5.1-1 11.7-.9 18.2 11.7-5.1 22.4-8.9 35.4-11l4-.7-1.3 3.9-1.9 5.3c-1 2.7-2 5.3-2.7 8.2 6.4 1.1 13.3 1.8 20.3 2.2l2.8.2-.4 2.7c-.7 4.4-2.9 7.4-5.2 10.6l-1.2 1.7-.9 1.3a119.8 119.8 0 0 0 9.1 4.1c4.6 2.2 7.7 4.1 11.3 6.9l2.7 2.1-2.8 2a124 124 0 0 0-7.9 5.8l.5.4c8.7 7.1 17.6 14.4 25.8 22.5l4 4-5.6.3-2.2.1-5.7-.2-6.4-.2-3.2.1a292 292 0 0 1 18.8 21.5l2.1 2.7-3.3 1.1a44.8 44.8 0 0 1-12.3 2.7c-.9.2-2.1.2-3.3.2h-.9c2.1 5.6 4.7 10.4 7.5 15.5l1.2 2.3 1.7 3.1-3.5.5c-4.1.6-8.1 1.6-11.9 2.5-2.2.5-4.4 1.1-6.7 1.5 1.1 5.9 2.6 11.4 4 16.7l.9 3.2.9 3.2-3.3-.1a92.6 92.6 0 0 1-20.6-2.7c-.1 6.1 1.8 12.4 3.4 18.1l.9 3.2.9 3.3-3.4-.1a95 95 0 0 1-30.6-7.1l-2.2-.8c.2 2.4.8 4.9 1.3 7.3l.8 3.7.6 3.2-3.4.2zm-35.3-133.7 5.1-3.6 3.6-2.7c2-1.5 4.2-3.1 6.4-4.5l-1.3 6.9 8.1-2.8 1.7-.6c3.6-1.3 7.5-2.6 11.5-3.5l-.9 6 6.7-1c3.4-.5 6.8-1.2 10.2-1.9l3-.6c-.8 1.5-1.5 3.2-2.1 4.9l-2.3 6.3 6.7.4 3.9.5c1.6.2 3.5.5 5.5.6-1.2 1.8-2.7 3.5-4.2 5.4l-3.4 4.2-3.7 4.8 5.5 2.7c3.1 1.5 6.5 3.3 9.4 5.6-1.2 1-2.4 1.8-3.7 2.4l-4.4 2 1.7 4.5c1 2.5 2.8 3.8 3.9 4.5l.5.4c2.5 2 5 4 7.3 6.2-1.6.7-3.2 1.2-5 1.4l-7.7 1.1 4.3 6.5c1.9 2.9 4.3 5.2 6.7 7.1a73.1 73.1 0 0 1-10.3 3.3l-6.1 1.4 2.7 5.6c1 2.1 2.4 4.1 3.7 6a61.4 61.4 0 0 1-17-.6l-6-1.2v11.3c-2.4-.9-4.7-2-6.6-3.3l-.4-.4c-.9-.9-2.6-2.7-5.3-2.7-1 0-1.9.2-2.8.7l-1.8.9-.7 1.9c-1 2.7-1.3 5.6-1.5 8.5a33.5 33.5 0 0 1-7.5-6.1l-5.1-5-3 6.4-.3.7-1.7-1.8-3.4-3.6-5.3-5.1-2.8 6.8-.9 2-.1.3-4.8-2.5-3.3-1.7 3.1-2.8-3.2-3.7a86.9 86.9 0 0 1-11.4-15.5l2.1-.4 7.7-1.8-5-6.2c-1.7-2.2-3.6-4-5.4-5.8l-2.5-2.5 9.8-.4-7.3-7.9c-2.4-2.6-4.4-5.7-6.6-9l-2.7-4 2.7-.4-.2-4.5c-.1-1.7-.4-3-.7-4.1-.2-.9-.4-1.5-.4-2.2v-1l.8.2 5.2 1.4 1-5.2.7-4c1.6 1.8 3.5 3.3 5.6 4.1l6.1 2.4.6-6.5c.1-1.4.3-2.9.6-4.3 1 1.3 2.2 2.5 3.6 3.5l4.6 3 2.6-4.9.3-.6c1.2-2.3 2.4-4.6 3.8-6.6l1.8 4.7zm31-70.5-8.1 4.3a138.5 138.5 0 0 0-31.3 24.1 76.8 76.8 0 0 1-5.2-16.8l-1.6-9.1-6.7 6.3a75.3 75.3 0 0 0-19.5 28.7 49.4 49.4 0 0 1-7.5-10.5l-6.2-11.3-3.1 12.5c-2.1 8.4-4 17.8-3.5 29.2v.2l.2 2.7.4 5.5v.7c-2.2-.9-4.3-2-6.4-3.1l-.4-.2-9.9-5 2.8 10.7c2.8 10.6 6.2 20.7 9.8 29.4l-2.7-.9-8.8-2.9 2.5 9c1.8 6.7 4.5 12.3 7.1 17.7 1.7 3.7 3.4 7.2 4.8 11h-.4c-2 0-3.8.9-4.9 2.6l-1.9 2.8 2 2.8c3.3 4.8 7 9.9 11.1 14.5 3.1 3.4 6.2 6.3 9.4 8.7l-1.6 1.8a9.4 9.4 0 0 0-3.4 5.6l-1.3 6.4 6.5-.4 1.4-.1a180.9 180.9 0 0 1 14.9-.2c1.1 7.4 3 14.6 7.6 19.5l5.1 5.6 3.1-6.9.2-.4 3-6.4a56 56 0 0 0 7.1 11.3l3.2 4 3.9-3.3c1.8-1.5 2.9-3.4 3.8-5.2 5.8 6.9 15.8 11.2 28.6 12l6.5.4-1.2-6.4c-.2-1.3-.6-2.6-.9-3.8l-.7-3c8.8 3.2 18 6.3 29.6 6.6l6.8.2-1.8-6.6-.9-3.3c-1.3-4.5-2.8-9.4-3.2-14.2 5.5 1.1 11.5 1.8 17.9 2l6.7.2-1.7-6.5-.9-3.2c-1.3-4.8-2.5-9.3-3.5-14.2l4.3-1c3.9-.9 7.6-1.8 11.6-2.5l7-1.1-3.3-6.2-1.3-2.3c-2.2-4-4.2-7.9-6-12l.8-.1c5.1-.3 9.2-1.5 12.8-2.8l6.5-2.3-4.2-5.5c-4.8-6.3-10-12.1-15-17.6l3.8.2 5.9.2 2.3-.1 11.2-.6-8-7.9c-7.6-7.6-16-14.5-24.1-21.1l5.3-3.8 5.7-3.9-5.5-4.2a60.7 60.7 0 0 0-11.7-7.1l-2.2-1-4.2-1.8.3-.5c2.4-3.3 4.8-6.6 5.6-11.6l.9-5.5-5.5-.3c-6-.3-11.8-.9-17.3-1.8l1.9-5.3a68 68 0 0 0 1.9-5.4l2.5-7.8-8.1 1.3c-11.9 2-22 5.3-32.5 9.7.1-5.2.6-10.2.9-14.2V49l.9-9zm-5.8 8.6c-.5 6-1.3 14.5-.8 22.4 11.5-5.2 23.5-9.9 38.2-12.4-1.7 5.4-4.2 10.3-5.2 16.3 7.3 1.4 15.1 2.3 23.2 2.7-.7 4.5-3.2 7.3-5.9 11.1a42 42 0 0 1-2.3 3.1c.2 1.5 9.9 5.2 11.5 5.9 4.6 2.2 7.5 4 10.9 6.6-3.6 2.5-7.2 5-10.4 7.9 9.7 7.9 19.5 15.8 28.5 24.6l-2 .1c-3.7 0-7.8-.4-12.2-.4a54 54 0 0 0-5.6.3c-.1-.2-.4-.3-.7-.3l-1.9.2h-.2c-.8.4.4 1.2.7 1.2a307 307 0 0 1 21.3 24.2 39.6 39.6 0 0 1-11.8 2.5c-2 .5-7.2-.2-7 1.2 2.5 7.7 6.2 14 9.7 20.6-7.4 1.1-13.8 3.2-21 4.6 1.3 8.1 3.4 15.2 5.3 22.6a84.7 84.7 0 0 1-22.9-3.4c-1.1 8.8 2.2 17.9 4.2 25.2-14-.4-24.3-5.1-35.3-8.9-.6 5.2 1.3 10.5 2.1 15-12.7-.8-26.7-6-29.3-18.7a32 32 0 0 1 3.9-20.4c4.2 4.1 8.5 8.1 15.3 9.2.9-4.2.5-9.6 1.9-13.4l.5-.1c1 0 1.8 1.4 2.9 2.1 3.8 2.5 8.9 4.7 14 5.7.6-3.5.4-7.7.4-11.7 3.4.7 7.4 1.1 11.6 1.1a39 39 0 0 0 14.8-2.5c-2-3-5.7-7-7.7-11.1a60.6 60.6 0 0 0 18.5-7.3c-4.2-3.3-8.8-6.1-11.8-10.7 5.4-.8 8.9-3.2 13.2-4.9-.9-1.7-2.5-2.5-3.8-3.6-3-2.8-6.1-5.5-9.4-8-1-.8-2.3-1.3-2.8-2.7 3.7-1.6 6.2-4.3 9.2-6.5a40.8 40.8 0 0 0-14.7-10.5c4.2-5.6 9.6-10.2 11.6-17.7-.3-.2-.6-.3-1-.3l-2.9.3h-.3l-2.5.1c-3.7 0-6.7-.8-10.2-1.1 1.7-4.7 4.3-8.8 6.4-13.1-7 .7-15.3 2.9-23 4.1.3-2.2 1.4-3.8 1.8-6-7.7.2-15.2 3-21.6 5.2.6-3.2 2.1-5.6 2.9-8.6-8.7 2.4-15.3 8.3-21 12.3-.8-1.9-1.2-4.2-1.8-6.3-5.3 3.3-8 8.7-10.9 14.1-3.3-2.2-4.8-6.6-6.3-10.8-3.8 3.4-5 9.1-5.6 15.3-3.9-1.5-6.8-7-9-11.6-2.8 3.8-3 9.9-4 15.2-2.8-.7-4.6-2.6-6.8-4-.6 1.7-.5 4-.5 6.2-.5.5-.3 3.1.3 3.5.1 2.5 1 4 1.1 6.4-2.3.4-4.2 1-6.7 1.2 5.6 5.8 9.3 13.9 14.8 19.9-2.9.1-4.9.9-8 .9h-.1c3.3 6.4 8.9 10.2 13.2 15.5-2.5.6-5.4.8-8.3 1a74.6 74.6 0 0 0 15.1 23.1c-1.1 1-3.9.7-5.4 1.4 3.5 7.1 14.7 8.1 19.9 14.3.4-3.4 2-5.9 3.2-8.7 2.3 2.2 4.4 4.7 6.7 6.9-3 6-5.3 17.3-.1 23.6-1 2.2-1.9 4.6-3.7 6.1a61.6 61.6 0 0 1-9.8-18.3c-4 4-6.4 9.5-8.9 14.9-4.2-4.6-5.8-12.2-6.8-20.5-2.8-.6-5.9-.8-9.2-.8-3.8 0-7.9.3-11.9.5.2-1.2.9-2.1 1.7-2.7 1.1-1 2.1-2.2 3-3.5 1-1.1 2.1-2 3-3.1a78.6 78.6 0 0 1-24-25c.2-.3.4-.4.7-.4.5 0 1.1.3 1.7.3l.7-.1c.3.2 1 .2 1.8.2 1.6 0 3.5-.4 2.7-1.2-3.4-12.7-10.2-21.6-13.7-34.2 4.5 1.5 9 3.1 13.6 4.4-5.6-10.7-10.7-25-14.4-39 4.9 2.5 9.8 5 15.7 6.2-.5-2.8-1.6-4.9-1.6-8.3l-.7-8.4a99.6 99.6 0 0 1 3.3-27.8 57.9 57.9 0 0 0 14.3 17 72.4 72.4 0 0 1 20.6-34c1.7 9.5 5.1 17 8.4 24.6 10.8-10.1 21.3-20.6 35.4-28.1m-20.7 115.6c7.8-.6 13.4-3 16.9-7.1 1.8.2 2.9 1.3 4.7 1.6 1.5-1.9 1.9-4.8 4.1-6.1 2.8.1 4.7 1.3 6.7 2.4 1.8-5.7 5.6-4.7 8.6-1.8l.8.9 1.4 1.9a11 11 0 0 1 1.4 2.9c-.4 1-1.2 1.8-1.7 2.7-2.3-1.6-4.4-3.5-6.9-5-1.1 3.3-2.4 6.6-3.4 10-2.4-.6-4.1-2-6.4-2.7a23.9 23.9 0 0 0-3.4 5.8c-1.4-.1-1.6-1.7-2.5-2.4-1.6 1.3-3.4 2.5-4.9 3.9.8.4 2.8-.8 4.1-1 1.2.4 1.8 1.7 3.4 1.7 1.8-1.1 2.4-3.2 3.9-4.5 2.4.4 4.2 1.4 6.3 2.1a27 27 0 0 0 4.2-8.1c3.2 1.1 4.6 4.4 9.7 3.5-.4 1.3-.8 2.5-1.4 3.7l-1 1.8c-4.3 6.9-12.4 10.4-22.8 12l-4.5.4c-10.8.5-16.8-4.7-26-6.1-.6-1.6-1.4-3-2-4.7l5.4-1.1c-.7-2-1.5-3.9-2.1-6l3.9-.3c.4.3 3.1.1 3.5-.4zM276.1 123c0 3 .9 6.8.4 9.4-5.3-1.8-10.1-4.3-12.7-9.4 4.2-.1 8.2 0 12.3 0zm42.6-5.9c4.2-5.7 12.5-8 20.9-10-3.1 7.1-7.8 13-12.1 19.1a50.7 50.7 0 0 1-19.2 2.8l3-2.5c1.1-1 2.1-2.2 3-3.5.4-.9 1-1.6 1.4-2.4 1.2-1.1 2.2-2.2 3-3.5zm-10.9 72.4c-7.1.3-13.8-1.9-19.3-2.4 3.5 3.9 13.4 5.8 19.3 2.4zm-30.8-39-1 .1c-1.6-1.8-.1-5 .8-6.5 5.4-.6 9.3-2.5 14.6-3.1-1.5-1.7-5.8-1.4-7.9-1.3l-1.3-16.1c1.6-1.7 5.4-1.9 8.3-1.6a76.8 76.8 0 0 0 35.9 16c-2.1-2.9-6.4-3.3-9.2-5.4 2.4-.7 3.7.2 6.5-.2 4.4-.6 8.5-3.3 12.3-3.9 8.2-1.2 14.7 4.6 21.3 7.1.1 1-.6 1.3-.8 2-.9 1.1-2.3 1.9-3 3.1a35 35 0 0 1-4.9 3.3c2.6 2.8 6.4 4.2 9.3 6.7 1 1.2 2.3 2 3.5 3 2 1.1 3.8 2.5 4.9 4.8-3.4 1.1-6.7 2.2-10.4 3.1 2.1 5.7 8 8.6 10.4 12.8-4.8 2.1-10.6 3.3-16.1 4.8 1.1 4.4 4.5 7.8 5.1 11.6-8.3 1-14.2.2-21.4-.6-.7 3.3-.6 7.3-.8 11.1-6.5-1.4-10.6-5.6-15.9-8.5-2.4 3.6-2.4 9.1-3.5 13.9-2.9-.6-4.6-2.5-6.8-4-1-1.5-2.4-2.6-3.8-3.6-.7-.8-1.6-1.5-2.1-2.4a41.7 41.7 0 0 0-3.1 5.4c-.7-.3-1.3-.8-1.7-1.5-1.4-1.3-2.5-3.1-4.2-4.2-1.5-1.9-3.1-3.6-4.3-5.8-.4 0-.6.1-.6.4-2.4 2-3.6 4.9-6.3 6.6a4 4 0 0 0-1.1-1.9c-1.8-3.7-3-8.2-3.3-13.7.7-.6-.1-2.5 0-3.6l-.8-10.3c-.3-1.6.1-4.1-.7-5.1-1.5-11.9-10.5-15.1-11.8-27.2 4.9 1.3 12 0 13.7 5.1-2.5.8-2.9 3.3-3.4 5.8-.6 1.3-.2 4.4 1 4.8.9 1.6 2.8 2.1 4.7 2.5 1.1 2.4 2.5 4.3 3.4 6.8-1.1.4-2.5.7-3.5 1.2a11 11 0 0 0 6 1.8c.4 2 1.5 3.1 1.7 5.4-1.7.7-2.8 1.8-4.3 2.6.1 1.5 1.2 1.9 1.2 3.5-8.2-.4-4.6 10.3.9 10.9-.4-1.7-1.9-2-2.2-3.7-1.3-1.9.6-2.6 1.7-3.4 11.8.3 19.6 8.5 34.5 6.4.6.5 3.3.3 3.9-.3 13.3-.9 19.6-7.8 25.7-14.9-1.9 5.8-6.5 9.2-10.3 13.4-1 .2-1.2 1-1.8 1.4 1.2-.2 2.1-.6 2.8-1.2 1.9-.9 3.1-2.4 4.9-3.3 1.2-1.1 2.5-2.1 3.3-3.5 2.8-4.4 6.5-8.6 5-14.3-1.7-6.6-7.8-11.2-11.5-15.3-.6-1.5-2-2.1-3.1-3h-.3c-.5.6.5 2.4.6 3.5-2.9-1.3-4.9-4.5-8.1-4.5-4.4-.1-10.3 4.4-14 7.2-4.4 3.4-7.8 7.3-13 8.1.8-7.3 6.8-10.2 10.8-14.8.8-8.5-6.1-9.4-12.8-7.1 1.6 2.7 6.9-.4 9.2 1.9 1.1 5.8-2.4 7.8-6.7 8.9-.9 2.5-2 4.9-3 7.4a32 32 0 0 1-16 1.9c-1.1-1.9-2.3-3.6-3.1-5.9-.4-1.6-2.7-.5-4-.6zm30.8 39c-7.1.3-13.8-1.9-19.3-2.4 3.5 3.9 13.4 5.8 19.3 2.4zm-30.8-39-1 .1c-1.6-1.8-.1-5 .8-6.5 5.4-.6 9.3-2.5 14.6-3.1-1.5-1.7-5.8-1.4-7.9-1.3l-1.3-16.1c1.6-1.7 5.4-1.9 8.3-1.6a76.8 76.8 0 0 0 35.9 16c-2.1-2.9-6.4-3.3-9.2-5.4 2.4-.7 3.7.2 6.5-.2 4.4-.6 8.5-3.3 12.3-3.9 8.2-1.2 14.7 4.6 21.3 7.1.1 1-.6 1.3-.8 2-.9 1.1-2.3 1.9-3 3.1a35 35 0 0 1-4.9 3.3c2.6 2.8 6.4 4.2 9.3 6.7 1 1.2 2.3 2 3.5 3 2 1.1 3.8 2.5 4.9 4.8-3.4 1.1-6.7 2.2-10.4 3.1 2.1 5.7 8 8.6 10.4 12.8-4.8 2.1-10.6 3.3-16.1 4.8 1.1 4.4 4.5 7.8 5.1 11.6-8.3 1-14.2.2-21.4-.6-.7 3.3-.6 7.3-.8 11.1-6.5-1.4-10.6-5.6-15.9-8.5-2.4 3.6-2.4 9.1-3.5 13.9-2.9-.6-4.6-2.5-6.8-4-1-1.5-2.4-2.6-3.8-3.6-.7-.8-1.6-1.5-2.1-2.4a41.7 41.7 0 0 0-3.1 5.4c-.7-.3-1.3-.8-1.7-1.5-1.4-1.3-2.5-3.1-4.2-4.2-1.5-1.9-3.1-3.6-4.3-5.8-.4 0-.6.1-.6.4-2.4 2-3.6 4.9-6.3 6.6a4 4 0 0 0-1.1-1.9c-1.8-3.7-3-8.2-3.3-13.7.7-.6-.1-2.5 0-3.6l-.8-10.3c-.3-1.6.1-4.1-.7-5.1-1.5-11.9-10.5-15.1-11.8-27.2 4.9 1.3 12 0 13.7 5.1-2.5.8-2.9 3.3-3.4 5.8-.6 1.3-.2 4.4 1 4.8.9 1.6 2.8 2.1 4.7 2.5 1.1 2.4 2.5 4.3 3.4 6.8-1.1.4-2.5.7-3.5 1.2a11 11 0 0 0 6 1.8c.4 2 1.5 3.1 1.7 5.4-1.7.7-2.8 1.8-4.3 2.6.1 1.5 1.2 1.9 1.2 3.5-8.2-.4-4.6 10.3.9 10.9-.4-1.7-1.9-2-2.2-3.7-1.3-1.9.6-2.6 1.7-3.4 11.8.3 19.6 8.5 34.5 6.4.6.5 3.3.3 3.9-.3 13.3-.9 19.6-7.8 25.7-14.9-1.9 5.8-6.5 9.2-10.3 13.4-1 .2-1.2 1-1.8 1.4 1.2-.2 2.1-.6 2.8-1.2 1.9-.9 3.1-2.4 4.9-3.3 1.2-1.1 2.5-2.1 3.3-3.5 2.8-4.4 6.5-8.6 5-14.3-1.7-6.6-7.8-11.2-11.5-15.3-.6-1.5-2-2.1-3.1-3h-.3c-.5.6.5 2.4.6 3.5-2.9-1.3-4.9-4.5-8.1-4.5-4.4-.1-10.3 4.4-14 7.2-4.4 3.4-7.8 7.3-13 8.1.8-7.3 6.8-10.2 10.8-14.8.8-8.5-6.1-9.4-12.8-7.1 1.6 2.7 6.9-.4 9.2 1.9 1.1 5.8-2.4 7.8-6.7 8.9-.9 2.5-2 4.9-3 7.4a32 32 0 0 1-16 1.9c-1.1-1.9-2.3-3.6-3.1-5.9-.4-1.6-2.7-.5-4-.6zm16.6 56.3 8.1-4.3-.1 20.6L291 236c.1.1-.8-27.3 2.6-29.2zm-52.7-8.5s-36.8 34.2-19.7 59.8m220.7-111.9-20.8 13.9 55.3 55 17.5 3.5 13.3-31.9-31.2-27.3m-245.4 95.4c-11.2-21.5 5.8-33.3 3-28.7-7.6 12.3 33.8 29.4 56.3 42.5 14.7 8.6 33 23.2 41 24.9-4 8.1-18.4 15.3-26.7 13.2-.4 9.1-3 10.3-17.5 19.4 0 0-41.1-27-63-34.3m297.2-45.1 2.2-3.5-6.1-3.7-.5 4m20.4-29.9c-2.6 24.8-25.3 23.1-39.3 12.4l-6.5 8.6 40.8 11.1s4.5-2.2 12.2-9.5c.5-2.9-8.1-14.4-7.2-22.6zM305.7 328.5l66.9-15.5 13.5 6.3-88.9 19.1 8.5-9.9zm315.7-74.1s-41.3.7-53.9 6c0 0-8.7-10.1-9.6-15.1 0 0 22.3-6.3 54.8-4.4 1.5 2.7 3 4.1 8.7 13.5z" style="fill:none;stroke:#fff;stroke-width:5"/><path d="M394.4 312.3s25.9 19.2 49.7 44.6c11.5 12.3-35.4 29.5-21 33.1 45.1 11.3 209.5-75.3 209.5-75.3l-125.9-96.3m-59.5 146.4s46.5 5.7 146.6-29.4" style="fill:none;stroke:#fff;stroke-width:15"/><path d="M394.4 312.3s25.9 19.2 49.7 44.6c11.5 12.3-35.4 29.5-21 33.1 45.1 11.3 209.5-75.3 209.5-75.3l-125.9-96.3" style="fill-rule:evenodd;clip-rule:evenodd;fill:#a4a4bc;stroke:#223e79;stroke-width:8"/><path d="M447.2 364.8s46.5 5.7 146.6-29.4" style="fill:none;stroke:#223e79;stroke-width:7"/><path class="st9" d="M360.5 8.4 308 20.7l-26.1 9.9-13.2 9.5-6.3 7.7 1.7 6 9.5-5.6 2.5 5.4 5.9 15.9 35.5-24.4 3.1 19 38.9-10.4-5.9 17.3 22 4.1-6.1 15.1 21.2 13.6-7.9 8.3 30.9 27.8-21.4.2 16.6 24 30.3-24.1s-20.1-54-30.7-67.3c-10.6-13.4-19.9-25.9-19.9-25.9S377.5 11 372.1 8.4c-5.4-2.7-11.6 0-11.6 0"/><path class="st10" d="M458.7 332.5a50.8 50.8 0 0 1 15-4.1l9-1.1 3.5-.5c.4-.1 2.6-.8 1.9-.5 4.9-1.9 9.7-4 14.6-5.8 9-3.4 19.2-6.1 28.4-2.7.7-3.3 2.2-5.5 4.7-6 46.3-.5-24.7-77.7-42.1-98.9-126.6-154.6-222.7-13.3-251.4-15-60.4 50.9-.6 79.3 20.7 87.4 7.3-1 120.5 18.1 132.9 31.8 22 24.3 35.4-18.4 61.1 6.2-.6-.5.1 3.3 1.7 9.2"/><path class="st10" d="M269.5 287.5c1.7.4-1.2-.3-6.4-2.3-1.3.1.5.9 6.4 2.3"/><path class="st2" d="m608.2 230.9-.1 1.5 3-.5-2.9-1"/><path class="st4" d="M504.2 312a32 32 0 0 1 19.7-11.4 32.6 32.6 0 0 1 29.7 10.8c14.7-4.2 24.1-7.2 25.3-8.7 0 0-29.8-1.4-74.9-7.8-.2 4.1-5 4.9-9.3 7.2-12.8 6.7-28.2 7.4-42.3 8.2-7 .4-14 .7-20.9 1.8-9 1.5-18 2.2-27.1 3.2-8.1.8-12.6-5.6-12.7-11.9a117 117 0 0 1-30.4-9.5c-11.4-4.9-25.9-11.3-32.9-22.1-.9-1.3-2.5-1.4-2.9-2.8-51.4-6.7-105.1.9-101.3-11.8-19.8-2.3-1.1 54-40.4 74.7l-2.6-1.7c-.5 1.6-1 3.2-1.7 4.6-3.1 6.8 1.1 13-4.8 17.3 6.5 6.3 3.2 13.2 8 21.2 3.3 5.6 8.7 9 7.4 15.7l71.7 2s.3 2 7.8-9.2c0 0-11.7-11.2-1-13.6-2.8-3.9 22.4-2.7 21.6-7.7-2.9-17.5 7.2-35.2 24.7-38.1.5-.1 3.1.6 3.6.6l1.5-.3 1.5-.2a32 32 0 0 1 24.3-5c1.8-.2 3.5-.2 5.3-.1l2.1-.8c3.5-2.2 7.4-3.7 11.6-4.4 15-2.4 29.6 6.2 35.2 19.7a33 33 0 0 1 8.1-2.5l2.1-.3 1.9-.4c17.6-3 34.2-9.9 51.9-12.7 13.3-1.8 26.9-1.6 40.2-4M604 179.3c-15-34.5-62.4-47.6-75.8-40.5-20.5-12.5-61-37.5-103.8 2.5-25.7 24.1 191.5 154.6 211.6 146.9 20.1-7.7-24.3-22.2-20.3-47.4 2.7-17.2-.6-29.4-2.8-38.9-2.4-9.8-6.5-17.2-8.9-22.6"/><path class="st2" d="m388.6 190.1 1.4 1.6-1.4-1.6"/><path d="m388.6 190.1 1.4 1.6-1.4-1.6z" style="fill:none;stroke:#a7b1b7;stroke-width:2.092;stroke-miterlimit:2.613"/><path class="st12" d="M390 322.5c-.1 0 0 0 0 0"/><path class="st13" d="M390 322.5c-.1 0 0 0 0 0z"/><path class="st12" d="M365.8 277.5v-.2c-.1.1 0 .1 0 .2"/><path class="st13" d="M365.8 277.5v-.2c-.1.1 0 .1 0 .2z"/><path class="st10" d="M539.4 248.9c-15.9-13.6-35.9-13.4-41.2-19.8-1.2 8.6-22 14.4-19.3 1.7 50-47.5-22.7-83.1-44.8-82.2 6.8-10.7 40.4-25.7 70.9-16.4 10.8-5.7 17.3 10.9 32.7 16.4 62.9-13.2 70.7 84.1 69.1 84.5-1.5.4-30.9 2.1-67.4 15.8"/><path class="st4" d="M657.2 303.1c.5 18.9-9.7 38-28.1 31.5-3.7 3.4-9.9 2.6-18.3-1.1-9.8 8.8-17-1.9-21.1-4.6 0 0-15.5-.8-24.8-2.1 0 0-41-31.6-25.4-35.4 14.2-3.5-10.2-7.1-10.6-16.8 0 0-15.5-23.5-7.7-30.2 4.9-4.1 26.5-10.7 50.5-13.8 49.4-9.2 52.3.9 64.3 21.9 15.2 26.6 21.4 34.4 21.2 50.6"/><path d="M325 226.6s135.8 100.3 202.2 135.8" style="fill:none;stroke:#223d79;stroke-width:6;stroke-miterlimit:10"/><path class="st2" d="m471.6 321.8.7-1.3c.1.5-.1 1-.7 1.3"/><path class="st4" d="M557.3 312.6s-336.5 66.9-449 95.5c-11 2.8-19.4-1.1-30.5-7.1-22.9-12.3-65.1-44.5-72.9-53.5-11.4-13 21.1-41.6 33.6-35.9 22.4 10.2 43.3 54.5 79.9 64.2 85.3-9.4 451.5-96.8 451.5-96.8"/><path class="st10" d="M41.6 318.4C28.7 308.4 4 336.1 8 343.9c1.6 3.1 44.7 41.1 80.7 57 5.7 2.5 10 3 23.1.6C266 372.3 573 303.1 573 303.1l-12.2-18.6s-314.3 78.9-442.5 96.9c-23.5-.1-57.4-48-76.7-63"/><path class="st4" d="M13.1 343.9a26.3 26.3 0 0 1 8.8-17c2.4-2.2 5.2-4 8.3-5.1 1.5-.6 3.2-1 4.8-1 .8-.1 1.7 0 2.5.1.9.2 1.6.4 2.5 1 1.3 1.1 2.3 2.3 3.5 3.5l3.3 3.5 6.7 7c4.5 4.6 9 9.2 13.7 13.7 9.3 8.9 19 17.5 29.1 25.6 2.5 2 5.1 4 7.8 5.5 2.8 1.6 5.8 2.7 9 2.9 3.2.3 6.4 0 9.6-.4l9.6-1.3v.1c17.4-1.9 34.5-5 51.7-8.2 17.2-3.2 34.3-6.6 51.4-10 34.2-6.9 68.4-14.2 102.5-21.6a18734.5 18734.5 0 0 0 204.5-45.9l.2 1c-34 7.9-68.1 15.6-102.2 23.2-34.1 7.6-68.2 15.2-102.3 22.6a6908 6908 0 0 1-154 31.6c-17.2 3.1-34.4 6.2-51.8 8.1v.1l-9.6 1.3c-3.2.4-6.5.7-9.8.4-3.3-.3-6.5-1.4-9.3-3a63.7 63.7 0 0 1-8-5.6 444 444 0 0 1-42.9-39.2l-6.7-7-3.3-3.5a36.4 36.4 0 0 0-3.4-3.4l-.9-.5-1.1-.3c-.7-.2-1.5-.2-2.3-.2-1.6 0-3.1.4-4.6.9a26.8 26.8 0 0 0-17.3 21.1"/><path class="st4" d="M58.3 385.4C68.8 360.5 73.5 357 73.5 357l4.6-3.4-20.3-22-6.4 5.7s-9.9 18.7-15 33l21.9 15.1z"/><path class="st15" d="M593.7 296.3s44-12.6 54.9 2.2c0 0-4-29.5-18.4-34.6-51.3-.3-53.9 6.5-52.5 8.9 4.6 7.9 16 23.5 16 23.5M593.8 309.1c1.6 2.5 1.5 7.1 1.5 11.2-.2 15.6 16.4 3.2 17.4-.6 0 0 4.6-10.8-4.4-19.8 0 0-22.3-2.3-14.5 9.2"/><path class="st15" d="M614.6 325.4c6 5.3 19.8-2.1 17.9-10.7 0 0 2.1-10.2-5.5-16.3 0 0-13.5-4.6-11.8 3.3 1.6 7.9 6.6 16.2-.6 23.7M536.6 251.5c.6 8.8 8.7 18.5 12.7 16.7 10.6-5 68.9-12.2 79.8-9.6 0 0-9.6-20.2-15.4-21.2-16.1-2.7-34.2-.9-60.1 3.7-3.8 1-17.4 4-17 10.4"/><path class="st15" d="M634.9 305.3c2.2 3.4-2.7 19.4-1.4 20 12.2 6.4 15.1-12.8 14.2-14.5 0 0 2.1-3.8-5.1-9.5-1.3-3.2-15.5-8-7.7 4M557.5 310.5l10.2 8.7c28.8 12 9.9-12.6 9.9-12.6-4.4-.4-20.1 3.9-20.1 3.9"/><path class="st2" d="M631.1 266.7s10 7.2 14.2 25.5c0 0-3.7-15.3-51.4-4.6 0 0-9.9-15.3-9.3-16.2 0 0 4.7-3.5 46.5-4.7"/><path class="st15" d="M569.8 271.8s19.1 26.8 17.9 28c0 0-3.6 1.3-10.3.8 0 0-18.9-27.3-21-27.2 6.8-1 8.8-2 13.4-1.6"/><path class="st4" d="M651.6 306.4c-1 .4 8.5 11.6-60.7 5.1l-2.3 3.3s56.4 7.9 61.1-2.6l1.9-5.8z"/><path class="st2" d="M640.6 299.5s5.5 4.1 5.7 8.2l-9.2 1.7s-2.6-8.3-4-10.1a10 10 0 0 1 7.5.2M625.7 299.4s5.6 5.5 5.7 9.6l-10.4.1s-3.7-7.7-5.1-9.5c.1 0 6.2-1.9 9.8-.2M607.3 301.8c3 2.2 5 5.7 5.2 9.5l-11.8-.2s-3-6.9-4.4-8.7c0 0 7.4-3.2 11-.6"/><path class="st10" d="M500.6 281.6s5.9-25.1 4-34c0 0-.2-12.7-12.6-22.2l-30.7 13.5s31 10.7 23 47.9c13.3-3.7 16.3-5.2 16.3-5.2"/><path class="st4" d="M187.1 312.9c3.7-27.6 17.8-33.1 33-21.7 12.9 4.3 20.9 22.6 25.9 22.6 0 0 17.8 9.1-13.2 38.1.7.8 1.3 2.2 2 4.2l3.4-.1 10.8-2.5s13.7-2.1 17 12.6c0 0 20.5 35.3-11.1 33.2-11.3-.8-13.1 7.3-28.8.8-1.6.5-2.7.5-2.7.5-11.6 9.2-29.7-3.6-36.7-15.5-10.5-4.1-17.6-14.6-17.8-22.2-.6 1.8 2.9-28.3 18.2-50"/><path class="st15" d="M185.2 377.3c22.8 6.6 30.7-5.3 29.2-12.2-1.5-6.9-34.7-16.1-34.7-16.1-14.2 18.8 5.5 28.3 5.5 28.3"/><path class="st2" d="M192.3 373.3s7.7-5.4 8.2-10.8c4.1-.9 10.7 4.7 10.7 4.7s-4.3 12-18.9 6.1"/><path class="st15" d="M186.7 329.8s1.9-12.8 9.8-12.2c8.9 2.3 39.7 12 34.8 23.9l-2.9 6.3s-15-15.3-41.7-18"/><path class="st15" d="M194.1 312.4s2-22.4 15-19.7c3 .1 21.6 7.8 73.4 37.6l-43 3.8s-20.6-16.9-45.4-21.7M221 361.2s11.1-7.4-1.9-15.7c0 0-29.4-15.7-35.1-9.6l-2.7 7.5c.1 0 28.9 7.8 39.7 17.8M240.8 343.3l28.4-6-15.3-.9-12.7 1.2z"/><path class="st2" d="m220.1 301.7 52 27-16.6 1.6s-42.9-25.5-57.4-24.8c.1-.1.6-16.2 22-3.8M215.4 327.8 214 333s8.5 3.6 12.4 8.4c.6 1.2 9.7-6.5-11-13.6M212.9 345.1c-.8 2.3-1.9 4.4-1.9 4.4s5.7 2.8 8.6 5.9c3.5-2.1 1.7-5.6 1.7-5.6s-4.6-4.3-8.4-4.7"/><path class="st4" d="M632 262.2s24.9-35.3 43.2-3.5c0 0 21.7 34.3-23.6 32.9 0 0-2.5-24.8-19.6-29.4"/><path class="st2" d="m651.3 269.1-4.7-10.1s5.3-7.3 12.2-6c8.1 1.2 9.9 10.9 9.9 10.9l-17.4 5.2z"/><path class="st4" d="M461.3 127.1c34 2.5 70.9-.3 93.6 52.7 0 0-4.5-29.2-19.4-39.3.1 0-33.2-27.6-74.2-13.4"/><path class="st10" d="m420.3 308.2-25.9 4.1s-85.2-29.2-109.4-70.5c0 0 32.3 33.4 135.3 66.4"/><path class="st0" d="M343.1 297.8c11.6 6 20.8 11.5 33.6 15.5L301 330.9c3.7-2.7 11.8-8.9 9.7-14.1 15.2-3.7 29-16 32.4-19"/><path d="M343.1 297.8c11.6 6 20.8 11.5 33.6 15.5L301 330.9c3.7-2.7 11.8-8.9 9.7-14.1 15.2-3.7 29-16 32.4-19z" style="fill:none;stroke:#fff;stroke-width:2"/><path class="st10" d="M511.6 242.8s7.5 5.5-1.2 37l27.1-5s-17.9-27.8-9-31.3c0 0-5.8 4.4-16.9-.7"/><path class="st15" d="M554.1 254.5s32.6-7.9 38.2-4.9c0 0 5.7 3.3 9.3 9 0 0-43.7 4.3-47.3 6.6 0 0 4.4-3.2-.2-10.7"/><path class="st10" d="M230.6 254.8c-11.2-21.5 5.8-33.3 3-28.7-7.6 12.3 12.1 41.9 56.3 42.5 11.9 12.2 33 23.2 41 24.9-4 8.1-18.4 15.3-26.7 13.2-.4 9.1-3 10.3-17.5 19.4 0 0-41.1-27-63-34.3"/><path class="st4" d="M218.9 242.2s-12.3 15.3 57.1 48.4c-13.6-6.5-36.8-19.3-48.7-19.6-1.9 0-3.5.2-4.7.8l-4.2-25.6.5-4z"/><path class="st15" d="M231.8 362.2c8.3 7.2 23.5 42.1-4.3 31.7-4.7-11.3-5.9-20-5.9-20s8.6-5.4 10.2-11.7M250.8 360s7.3-.2 8.6 3.9c1.3 4.1 17.4 37-9.1 25.8l-7.3-19.8s-5.2-11.4 7.8-9.9M216.6 376.7l3.8 15.4s-11.8 11-18.7-5.1a25.6 25.6 0 0 0 14.9-10.3"/><path class="st9" d="M269.3 246.5c-.9-.3-1.3-1.1-2.4-1.1-5-2.8-10-5.6-14.8-8.6 1.5 1.7 3.1 3.3 4.8 4.9a511.3 511.3 0 0 1 12.4 4.8M422.6 158.8h-.3c-.3.5-.7.9-1.1 1.2l4.5-.9.4-.3c7.3-5.1 14.5-10.4 21.9-15.3-3.4-.6-7.3-.6-11.1-.7-2.7-12-6.8-22.5-11.3-32.4-1.4-2.1-2.4-4.7-3.5-7.2.1-1-.6-1.2-.8-1.9-.9-.8-1.3-2.2-1.9-3.4v-.3c-1.2-1.2-1.8-3-2.6-4.6v-.3a26.7 26.7 0 0 1-3-4.9v-.3c-1.8-2.7-3.6-5.4-5.2-8.3-.4-1.3-1.2-2.2-1.9-3.1-5.7-7.7-11-15.9-17.3-22.9v-.6a9.3 9.3 0 0 1-3.3-4.6c-1.9-9.1-3.6-18.5-7.2-25.6-3.9-3.9-5.2-11-10.7-13.1V9c-1.2-.3-1.8-1.1-3.3-1-2.5 1-3.3 3.6-5.8 4.7h-.3c-1.3 1.4-3 2.4-4.9 3.3a27.5 27.5 0 0 1-13.3 4.3 39 39 0 0 1-11.3.9 109.2 109.2 0 0 0-50.5 16.2c-1.6.6-2.5 1.6-3.7 2.6-1.6 1.8-3.7 3.3-5.4 5h-.3c-.4 1.4-2.1 1.6-2 3.4h.3c1.2.1 1.7-.3 2.2-.8 1.2-1.1 2.9-1.9 4.6-2.6h.3c.2-.5 1.7-1.3 1.9-.8l.3 4.2a68.3 68.3 0 0 0 5.8 20.3c.8-.1 1.2-.6 1.2-1.4 1.4-1.9 3.2-3.5 4.8-5.2h.3c.7-1.3 1.9-2.2 3-3.1h.3a61 61 0 0 1 13.7-10.8h.3c1-1.2 2.8-1.8 4.3-2.6.5 0 .5-.3.9-.4 1.5-1.2 3.5-2 5.6-2.7 2.1-.4 3.6-1.3 5.7-1.7-.7 4.2-1.3 8.5-.9 13.7-.1 1.1.6 3 0 3.6l.5 5.8c.8 0 1.2-.1 1.6-.4 1.1-.9 2.5-1.5 4.1-1.9 2-.5 3.7-1.2 5.3-2 .7-.7 2-.9 3.1-1.2 8-2.1 16.7-5.3 25.4-5.9-.2 1.7-.5 3.4-1.3 4.6v.3c-.3 1.3-.4 2.8-1.3 3.7-.2 1.2-.9 2.1-1 3.3-.4 2-1.1 3.6-2.2 5v.3l.1 1c.6.8 2.1.6 2.7 1.4.9.3 1.7.8 3 .7 2 .5 4.4.6 6.3 1.5 3.3.6 6.7 1.1 10.4 1.1.4 0 .9-.1 1 .2a42.9 42.9 0 0 1-9.6 14.3v.3c.2 0 .4 0 .3.3 5.2 2.4 10.4 4.7 14.9 7.9h.3c3.4 2.1 7.2 3.8 9.9 6.7-4 2.5-8.3 4.7-12 7.4v.3c9.3 6 17.1 13.7 23.8 22.7v.3c1.7 1.8 4.1 4.5 4.4 6.8-.6-.1-1.3-.1-1.7-.5-2.8-.5-5.6-.9-9.1-.6-1.1-.1-3 .6-3.6 0l-3.2.3c3.4 6.1 8.2 10.6 11.9 16.2-.2.9.7.6.7 1.2 1.4 1 2.3 2.4 3.2 4 0 .3.2.3.3.3.5 0 .4.7.7.9 1.7-.3 2.2-1.5 3.4-2.2M342 272.1l-5.3-3.7a65.7 65.7 0 0 0-25.5-7.4c-1.4 0-2.7-.1-3.6-.7a2 2 0 0 0-1.6-.2c-1.2-.1-2.5-.1-3.3-.7-1.1-.4-2.2-.6-3.5-.7l7.9 2.8c11.4 3.9 23.1 7.3 34.9 10.6"/><path class="st4" d="M443.8 127.4c-5.4-5.4-9.8-15.7-14.2-23.8a469.1 469.1 0 0 0-28.3-47.3c-4.9-7.1-10.3-14.5-13-22.7-.8-2.4-1.4-6.9-2.4-9.8C381.5 11.5 367-2.1 360.6 4c-8.5 8.2-20.8 7.5-34.5 9.3a138.3 138.3 0 0 0-36.8 10 68 68 0 0 0-27.4 18c-6.5 8.1-11 17-16.6 27.2-2.5-3.1-4.9-6.5-7.5-9.4-2.1 3-3.4 6.8-4.7 10.6 2.4 2.6 4.1 6 4.9 9.7 4.2 19.8 3.3 40.1 3.5 60.2a222 222 0 0 0 1.9 30.5c.6 4.2 1.4 8.5 2.4 12.6l1.6 5.1a91.6 91.6 0 0 0 4.6 10.5l.4.8.2.3c1.4 2.1 2.7 4.3 4.4 6.2.3.3 2.8 2.9 2 2.3l1.2 1.1c.8.6 4.9 3.3 4 3a65 65 0 0 0 10.6 4.2l.8.2 2.4.6 6.9 1.8c6.6 1.8 13.3 3.5 19.7 6.1l.1.1c3.8-4.4 9.6-7.2 15.5-6.1 5.7-6.2 15.2-6.4 22.2-2.2l1-.5 1.3-.8a64 64 0 0 0 5.2-3.9c.8-.7 1.7-1.4 2.4-2.2l.1-.1a98 98 0 0 0 4.3-4.8c11.5-13.8 19.5-29.9 29.9-44.4a17 17 0 0 1 16.2-6.5 73.5 73.5 0 0 1-8.9-12.2l3.5-.3c1.1.1 3-.6 3.6 0 3.5-.3 6.3.1 9.1.6.9-.3.9.4 1.6.2a148 148 0 0 0-4.4-6.5v-.3c-7-8.5-14.6-16.4-23.8-22.4l-.1-.6c3.1-3.1 7.6-4.9 11.4-7.4-2.5-2.9-6.1-4.4-9.2-6.4v-.3h-.3c-4.9-3-10.4-5.1-15.2-8.2v-.3c3-4.6 8.2-8.8 8.6-14.6-3.8 0-7.1-.5-10.4-1.1-2.2-.3-4.6-.5-6.3-1.5-1.3.1-2.1-.4-3-.7-1.2-.1-2-.8-3-1.1l-.1-1.3h.3v-.3l2.2-5c.2-1.2.8-2.1 1-3.3.5-1.2.6-2.7 1.3-3.7v-.3c.4-1.6.6-3.3 1.3-4.6-8.7.6-17.4 3.7-25.4 5.9-.7.7-2 .9-3.1 1.2-1.6.8-3.4 1.5-5.3 2-1 1-2.7 1.3-4.1 1.9a2 2 0 0 1-1.6.4l-.5-5.8c.1-1.1-.6-3 0-3.6-.4-5.1.2-9.4.9-13.7-2.1.4-3.6 1.3-5.7 1.7a32.2 32.2 0 0 1-5.6 2.7c-.4 0-.4.4-.9.4-1.2 1.1-2.8 1.8-4.3 2.6h-.3c-4.6 3.5-9.6 6.6-13.4 10.8l-.6.1c-.7 1.3-2 2.1-3 3.1h-.3c-1.5 1.9-2.7 3.9-4.8 5.2 0 .8-.4 1.3-1.2 1.4a71.4 71.4 0 0 1-5.8-20.3c-.8-.6-.3-2.7-.6-3.8-.9-.2-.8.5-1.6.4h-.3c-1.3 1.1-3 1.8-4.6 2.6-.5.5-1 .9-2.2.8-.3.8-1.5.7-1.8 1.4.1-1.2 2.3-3.2 3.2-4.8h.6c1.4-2 3.5-3.4 5.4-5 1.1-.9 2.1-2 3.7-2.6 3.8-3 8.4-5.4 13.7-7.2 10.8-4.3 21.9-8.3 36.8-9l11.3-.9c5.7-.4 9.8-2 13.3-4.3 1.5-1.2 3.3-2.2 4.9-3.3h.3c2-1.3 3.6-4.5 5.8-4.7 1.5-.1 2.2.8 3.3 1 5.5 2.2 7.2 8.9 10.8 13.4 3.6 7.1 5.3 16.5 7.2 25.6 1 1.6 2 3.2 3.3 4.6v.3c6.4 7 12 15 17.3 23.2.7.9 1.5 1.8 1.9 3.1a53 53 0 0 1 5.2 8.3v.3c1.2 1.4 2.1 3.2 3 4.9v.3c1.2 1.2 1.8 3 2.6 4.6v.3c.9.8 1.3 2.2 1.9 3.4.2.7.9.9.8 1.9 1.5 2 2.4 4.7 3.5 7.2 4.5 10 8.5 20.4 11.3 32.5 4.1.1 8.4.1 12 .9 1.8-3.2 4-6.2 6.4-8.8-3.9-1.9-8.7-4.2-11.6-7.1"/><path class="st17" d="M303.5 200.8a28 28 0 0 0 11.5 7.9l.2-2.9c.2-2.9.4-5.8 1.3-8.3l.3-.9.9-.4c.5-.3 1.1-.4 1.6-.4 1.7 0 2.8 1.1 3.6 1.9l.7.6c3 2 6.7 3.7 10.5 4.7l.1-6.2v-5.5l3 .6a58 58 0 0 0 21.9-.3l-.4-.5c-1.9-2.4-4-5.2-5.5-8.2l-1.4-2.8 3.1-.7a65 65 0 0 0 14.5-5.1 38.1 38.1 0 0 1-9.4-9l-2.1-3.3 3.9-.6c3.3-.5 5.9-1.7 8.6-3l.6-.3-1.1-.8-.1-.1-.1-.1c-2.9-2.7-6-5.4-9.2-7.9l-.6-.5c-1-.7-2.3-1.5-3-3.3l-.9-2.2 2.2-1a25 25 0 0 0 5.8-4l.8-.6a44.7 44.7 0 0 0-12.2-7.9l-2.7-1.3 1.8-2.4 3.4-4.1c2.6-3.1 5-6 6.6-9.6H361.1l-2.5.1c-2.3 0-4.4-.3-6.3-.6l-4.1-.5-3.3-.2 1.2-3.1c1.2-3.3 2.8-6.2 4.3-9.1l-8.1 1.5c-3.3.7-6.8 1.4-10.1 1.9l-3.3.5.5-3.3.7-2.8c-5.4.7-10.8 2.6-15.6 4.3l-5.7 2 .8-4.2c.3-1.5.7-2.7 1.2-4a72.1 72.1 0 0 0-11.8 7.5l-3.6 2.6-2.5 1.8-1.2-2.9a21 21 0 0 1-1-3c-2.9 2.8-4.8 6.5-6.9 10.4l-1.6 3-2.3-1.5a16.1 16.1 0 0 1-5.7-7.8c-1.5 3-2.1 6.9-2.4 10.4l-.3 3.3-3.1-1.2c-3.3-1.3-5.8-4.5-7.9-8.2l-1 5.7-.7 4.2-.5 2.6-2.6-.7c-1.6-.4-3-1.2-4.1-1.9v2.7l-.3.3v.6l.5.3v1.2c0 1 .2 1.8.5 2.7.3 1 .6 2.1.6 3.6l.1 2.2-2.2.4-2.3.5c1.8 2.3 3.4 4.7 5 7.1 2.2 3.4 4.3 6.6 6.9 9.3l3.7 4-5.4.2-3.3.4-.6.1c1.6 2.2 3.6 4.2 5.6 6.2 1.8 1.8 3.6 3.6 5.3 5.6l2.5 3.1-3.8.9c-1.6.4-3.5.6-5.3.8 3.3 7.3 8 13.1 13.3 19.2l1.6 1.9-1.8 1.6c-.8.7-1.7 1-2.6 1.2 1.9 1.6 4.4 2.8 7 4.1 2.4 1.2 4.9 2.4 7 3.9l1.3-2.9 1-2.1 1.4-3.4 2.6 2.6 3.4 3.5 3.3 3.4 1 1 1.8-4 1.5-3.2 2.6 2.7zm-7.2 8.7c-2.2 5.8-3.3 14.3.5 18.9l.8.9a25.8 25.8 0 0 1-1.3-19.8m30.7 34.7c-14.1-.9-24.5-6.2-29.2-14.5l-1 2.1c-.9 2.1-2 4.5-4 6.2l-1.9 1.7-1.6-2c-3.3-4-6.1-9-8.7-15.1-2.2 3.1-3.9 6.9-5.6 10.7l-1.7 3.8-2.6-2.8c-4.5-4.9-6.2-12.4-7.2-20.1-2-.3-4.3-.4-6.9-.4-3.3 0-6.9.2-10.3.4l-4.6.3.7-3.2a6.7 6.7 0 0 1 2.6-4.1c.9-.9 1.8-1.8 2.5-2.9l.1-.2.1-.2.9-.9a84.3 84.3 0 0 1-22.1-24.1l-1-1.4 1-1.4c.6-1 1.6-1.5 2.8-1.5l1.3.2.3.1 1-.4.9.5h.5c-1.6-5.4-3.9-10-6.2-14.9-2.5-5.3-5.1-10.9-6.9-17.3l-1.2-4.5 4.4 1.4 4.7 1.6 3.3 1.1a222 222 0 0 1-12-34.2l-1.4-5.4 5.4 2.7a68 68 0 0 0 10.7 4.7c-.3-1.3-.6-2.8-.7-4.7l-.6-8.3a98.4 98.4 0 0 1 3.4-28.6l1.5-6.3 3.1 5.7c2.6 4.7 5.8 9 10 13.2l.7.7a74.4 74.4 0 0 1 20.3-31.5l3.4-3.2.8 4.5c1.4 7.8 4 14.2 6.8 20.7 9.8-9.5 20-19.2 33.3-26.2l4.1-2.1-.4 4.7c-.5 5.1-1 11.7-.9 18.2 11.7-5.1 22.4-8.9 35.4-11l4-.7-1.3 3.9-1.9 5.3c-1 2.7-2 5.3-2.7 8.2 6.4 1.1 13.3 1.8 20.3 2.2l2.8.2-.4 2.7c-.7 4.4-2.9 7.4-5.2 10.6l-1.2 1.7-.9 1.3a119.8 119.8 0 0 0 9.1 4.1c4.6 2.2 7.7 4.1 11.3 6.9l2.7 2.1-2.8 2a124 124 0 0 0-7.9 5.8l.5.4c8.7 7.1 17.6 14.4 25.8 22.5l4 4-5.6.3-2.2.1-5.7-.2-6.4-.2-3.2.1a292 292 0 0 1 18.8 21.5l2.1 2.7-3.3 1.1a44.8 44.8 0 0 1-12.3 2.7c-.9.2-2.1.2-3.3.2h-.9c2.1 5.6 4.7 10.4 7.5 15.5l1.2 2.3 1.7 3.1-3.5.5c-4.1.6-8.1 1.6-11.9 2.5-2.2.5-4.4 1.1-6.7 1.5 1.1 5.9 2.6 11.4 4 16.7l.9 3.2.9 3.2-3.3-.1a92.6 92.6 0 0 1-20.6-2.7c-.1 6.1 1.8 12.4 3.4 18.1l.9 3.2.9 3.3-3.4-.1a95 95 0 0 1-30.6-7.1l-2.2-.8c.2 2.4.8 4.9 1.3 7.3l.8 3.7.6 3.2-3.4.2z"/><path class="st4" d="m291.7 110.5 5.1-3.6 3.6-2.7c2-1.5 4.2-3.1 6.4-4.5l-1.3 6.9 8.1-2.8 1.7-.6c3.6-1.3 7.5-2.6 11.5-3.5l-.9 6 6.7-1c3.4-.5 6.8-1.2 10.2-1.9l3-.6c-.8 1.5-1.5 3.2-2.1 4.9l-2.3 6.3 6.7.4 3.9.5c1.6.2 3.5.5 5.5.6-1.2 1.8-2.7 3.5-4.2 5.4l-3.4 4.2-3.7 4.8 5.5 2.7c3.1 1.5 6.5 3.3 9.4 5.6-1.2 1-2.4 1.8-3.7 2.4l-4.4 2 1.7 4.5c1 2.5 2.8 3.8 3.9 4.5l.5.4c2.5 2 5 4 7.3 6.2-1.6.7-3.2 1.2-5 1.4l-7.7 1.1 4.3 6.5c1.9 2.9 4.3 5.2 6.7 7.1a73.1 73.1 0 0 1-10.3 3.3l-6.1 1.4 2.7 5.6c1 2.1 2.4 4.1 3.7 6a61.4 61.4 0 0 1-17-.6l-6-1.2v11.3c-2.4-.9-4.7-2-6.6-3.3l-.4-.4c-.9-.9-2.6-2.7-5.3-2.7-1 0-1.9.2-2.8.7l-1.8.9-.7 1.9c-1 2.7-1.3 5.6-1.5 8.5a33.5 33.5 0 0 1-7.5-6.1l-5.1-5-3 6.4-.3.7-1.7-1.8-3.4-3.6-5.3-5.1-2.8 6.8-.9 2-.1.3-4.8-2.5-3.3-1.7 3.1-2.8-3.2-3.7a86.9 86.9 0 0 1-11.4-15.5l2.1-.4 7.7-1.8-5-6.2c-1.7-2.2-3.6-4-5.4-5.8l-2.5-2.5 9.8-.4-7.3-7.9c-2.4-2.6-4.4-5.7-6.6-9l-2.7-4 2.7-.4-.2-4.5c-.1-1.7-.4-3-.7-4.1-.2-.9-.4-1.5-.4-2.2v-1l.8.2 5.2 1.4 1-5.2.7-4c1.6 1.8 3.5 3.3 5.6 4.1l6.1 2.4.6-6.5c.1-1.4.3-2.9.6-4.3 1 1.3 2.2 2.5 3.6 3.5l4.6 3 2.6-4.9.3-.6c1.2-2.3 2.4-4.6 3.8-6.6l1.8 4.7zm31-70.5-8.1 4.3a138.5 138.5 0 0 0-31.3 24.1 76.8 76.8 0 0 1-5.2-16.8l-1.6-9.1-6.7 6.3a75.3 75.3 0 0 0-19.5 28.7 49.4 49.4 0 0 1-7.5-10.5l-6.2-11.3-3.1 12.5c-2.1 8.4-4 17.8-3.5 29.2v.2l.2 2.7.4 5.5v.7c-2.2-.9-4.3-2-6.4-3.1l-.4-.2-9.9-5 2.8 10.7c2.8 10.6 6.2 20.7 9.8 29.4l-2.7-.9-8.8-2.9 2.5 9c1.8 6.7 4.5 12.3 7.1 17.7 1.7 3.7 3.4 7.2 4.8 11h-.4c-2 0-3.8.9-4.9 2.6l-1.9 2.8 2 2.8c3.3 4.8 7 9.9 11.1 14.5 3.1 3.4 6.2 6.3 9.4 8.7l-1.6 1.8a9.4 9.4 0 0 0-3.4 5.6l-1.3 6.4 6.5-.4 1.4-.1a180.9 180.9 0 0 1 14.9-.2c1.1 7.4 3 14.6 7.6 19.5l5.1 5.6 3.1-6.9.2-.4 3-6.4a56 56 0 0 0 7.1 11.3l3.2 4 3.9-3.3c1.8-1.5 2.9-3.4 3.8-5.2 5.8 6.9 15.8 11.2 28.6 12l6.5.4-1.2-6.4c-.2-1.3-.6-2.6-.9-3.8l-.7-3c8.8 3.2 18 6.3 29.6 6.6l6.8.2-1.8-6.6-.9-3.3c-1.3-4.5-2.8-9.4-3.2-14.2 5.5 1.1 11.5 1.8 17.9 2l6.7.2-1.7-6.5-.9-3.2c-1.3-4.8-2.5-9.3-3.5-14.2l4.3-1c3.9-.9 7.6-1.8 11.6-2.5l7-1.1-3.3-6.2-1.3-2.3c-2.2-4-4.2-7.9-6-12l.8-.1c5.1-.3 9.2-1.5 12.8-2.8l6.5-2.3-4.2-5.5c-4.8-6.3-10-12.1-15-17.6l3.8.2 5.9.2 2.3-.1 11.2-.6-8-7.9c-7.6-7.6-16-14.5-24.1-21.1l5.3-3.8 5.7-3.9-5.5-4.2a60.7 60.7 0 0 0-11.7-7.1l-2.2-1-4.2-1.8.3-.5c2.4-3.3 4.8-6.6 5.6-11.6l.9-5.5-5.5-.3c-6-.3-11.8-.9-17.3-1.8l1.9-5.3a68 68 0 0 0 1.9-5.4l2.5-7.8-8.1 1.3c-11.9 2-22 5.3-32.5 9.7.1-5.2.6-10.2.9-14.2V49l.9-9zm-5.8 8.6c-.5 6-1.3 14.5-.8 22.4 11.5-5.2 23.5-9.9 38.2-12.4-1.7 5.4-4.2 10.3-5.2 16.3 7.3 1.4 15.1 2.3 23.2 2.7-.7 4.5-3.2 7.3-5.9 11.1a42 42 0 0 1-2.3 3.1c.2 1.5 9.9 5.2 11.5 5.9 4.6 2.2 7.5 4 10.9 6.6-3.6 2.5-7.2 5-10.4 7.9 9.7 7.9 19.5 15.8 28.5 24.6l-2 .1c-3.7 0-7.8-.4-12.2-.4a54 54 0 0 0-5.6.3c-.1-.2-.4-.3-.7-.3l-1.9.2h-.2c-.8.4.4 1.2.7 1.2a307 307 0 0 1 21.3 24.2 39.6 39.6 0 0 1-11.8 2.5c-2 .5-7.2-.2-7 1.2 2.5 7.7 6.2 14 9.7 20.6-7.4 1.1-13.8 3.2-21 4.6 1.3 8.1 3.4 15.2 5.3 22.6a84.7 84.7 0 0 1-22.9-3.4c-1.1 8.8 2.2 17.9 4.2 25.2-14-.4-24.3-5.1-35.3-8.9-.6 5.2 1.3 10.5 2.1 15-12.7-.8-26.7-6-29.3-18.7a32 32 0 0 1 3.9-20.4c4.2 4.1 8.5 8.1 15.3 9.2.9-4.2.5-9.6 1.9-13.4l.5-.1c1 0 1.8 1.4 2.9 2.1 3.8 2.5 8.9 4.7 14 5.7.6-3.5.4-7.7.4-11.7 3.4.7 7.4 1.1 11.6 1.1a39 39 0 0 0 14.8-2.5c-2-3-5.7-7-7.7-11.1a60.6 60.6 0 0 0 18.5-7.3c-4.2-3.3-8.8-6.1-11.8-10.7 5.4-.8 8.9-3.2 13.2-4.9-.9-1.7-2.5-2.5-3.8-3.6-3-2.8-6.1-5.5-9.4-8-1-.8-2.3-1.3-2.8-2.7 3.7-1.6 6.2-4.3 9.2-6.5a40.8 40.8 0 0 0-14.7-10.5c4.2-5.6 9.6-10.2 11.6-17.7-.3-.2-.6-.3-1-.3l-2.9.3h-.3l-2.5.1c-3.7 0-6.7-.8-10.2-1.1 1.7-4.7 4.3-8.8 6.4-13.1-7 .7-15.3 2.9-23 4.1.3-2.2 1.4-3.8 1.8-6-7.7.2-15.2 3-21.6 5.2.6-3.2 2.1-5.6 2.9-8.6-8.7 2.4-15.3 8.3-21 12.3-.8-1.9-1.2-4.2-1.8-6.3-5.3 3.3-8 8.7-10.9 14.1-3.3-2.2-4.8-6.6-6.3-10.8-3.8 3.4-5 9.1-5.6 15.3-3.9-1.5-6.8-7-9-11.6-2.8 3.8-3 9.9-4 15.2-2.8-.7-4.6-2.6-6.8-4-.6 1.7-.5 4-.5 6.2-.5.5-.3 3.1.3 3.5.1 2.5 1 4 1.1 6.4-2.3.4-4.2 1-6.7 1.2 5.6 5.8 9.3 13.9 14.8 19.9-2.9.1-4.9.9-8 .9h-.1c3.3 6.4 8.9 10.2 13.2 15.5-2.5.6-5.4.8-8.3 1a74.6 74.6 0 0 0 15.1 23.1c-1.1 1-3.9.7-5.4 1.4 3.5 7.1 14.7 8.1 19.9 14.3.4-3.4 2-5.9 3.2-8.7 2.3 2.2 4.4 4.7 6.7 6.9-3 6-5.3 17.3-.1 23.6-1 2.2-1.9 4.6-3.7 6.1a61.6 61.6 0 0 1-9.8-18.3c-4 4-6.4 9.5-8.9 14.9-4.2-4.6-5.8-12.2-6.8-20.5-2.8-.6-5.9-.8-9.2-.8-3.8 0-7.9.3-11.9.5.2-1.2.9-2.1 1.7-2.7 1.1-1 2.1-2.2 3-3.5 1-1.1 2.1-2 3-3.1a78.6 78.6 0 0 1-24-25c.2-.3.4-.4.7-.4.5 0 1.1.3 1.7.3l.7-.1c.3.2 1 .2 1.8.2 1.6 0 3.5-.4 2.7-1.2-3.4-12.7-10.2-21.6-13.7-34.2 4.5 1.5 9 3.1 13.6 4.4-5.6-10.7-10.7-25-14.4-39 4.9 2.5 9.8 5 15.7 6.2-.5-2.8-1.6-4.9-1.6-8.3l-.7-8.4a99.6 99.6 0 0 1 3.3-27.8 57.9 57.9 0 0 0 14.3 17 72.4 72.4 0 0 1 20.6-34c1.7 9.5 5.1 17 8.4 24.6 10.8-10.1 21.3-20.6 35.4-28.1"/><path class="st17" d="M296.2 164.2c7.8-.6 13.4-3 16.9-7.1 1.8.2 2.9 1.3 4.7 1.6 1.5-1.9 1.9-4.8 4.1-6.1 2.8.1 4.7 1.3 6.7 2.4 1.8-5.7 5.6-4.7 8.6-1.8l.8.9 1.4 1.9a11 11 0 0 1 1.4 2.9c-.4 1-1.2 1.8-1.7 2.7-2.3-1.6-4.4-3.5-6.9-5-1.1 3.3-2.4 6.6-3.4 10-2.4-.6-4.1-2-6.4-2.7a23.9 23.9 0 0 0-3.4 5.8c-1.4-.1-1.6-1.7-2.5-2.4-1.6 1.3-3.4 2.5-4.9 3.9.8.4 2.8-.8 4.1-1 1.2.4 1.8 1.7 3.4 1.7 1.8-1.1 2.4-3.2 3.9-4.5 2.4.4 4.2 1.4 6.3 2.1a27 27 0 0 0 4.2-8.1c3.2 1.1 4.6 4.4 9.7 3.5-.4 1.3-.8 2.5-1.4 3.7l-1 1.8c-4.3 6.9-12.4 10.4-22.8 12l-4.5.4c-10.8.5-16.8-4.7-26-6.1-.6-1.6-1.4-3-2-4.7l5.4-1.1c-.7-2-1.5-3.9-2.1-6l3.9-.3c.4.3 3.1.1 3.5-.4M276.1 123c0 3 .9 6.8.4 9.4-5.3-1.8-10.1-4.3-12.7-9.4 4.2-.1 8.2 0 12.3 0M318.7 117.1c4.2-5.7 12.5-8 20.9-10-3.1 7.1-7.8 13-12.1 19.1a50.7 50.7 0 0 1-19.2 2.8l3-2.5c1.1-1 2.1-2.2 3-3.5.4-.9 1-1.6 1.4-2.4 1.2-1.1 2.2-2.2 3-3.5"/><path d="M307.8 189.5c-7.1.3-13.8-1.9-19.3-2.4 3.5 3.9 13.4 5.8 19.3 2.4m-30.8-39-1 .1c-1.6-1.8-.1-5 .8-6.5 5.4-.6 9.3-2.5 14.6-3.1-1.5-1.7-5.8-1.4-7.9-1.3l-1.3-16.1c1.6-1.7 5.4-1.9 8.3-1.6a76.8 76.8 0 0 0 35.9 16c-2.1-2.9-6.4-3.3-9.2-5.4 2.4-.7 3.7.2 6.5-.2 4.4-.6 8.5-3.3 12.3-3.9 8.2-1.2 14.7 4.6 21.3 7.1.1 1-.6 1.3-.8 2-.9 1.1-2.3 1.9-3 3.1a35 35 0 0 1-4.9 3.3c2.6 2.8 6.4 4.2 9.3 6.7 1 1.2 2.3 2 3.5 3 2 1.1 3.8 2.5 4.9 4.8-3.4 1.1-6.7 2.2-10.4 3.1 2.1 5.7 8 8.6 10.4 12.8-4.8 2.1-10.6 3.3-16.1 4.8 1.1 4.4 4.5 7.8 5.1 11.6-8.3 1-14.2.2-21.4-.6-.7 3.3-.6 7.3-.8 11.1-6.5-1.4-10.6-5.6-15.9-8.5-2.4 3.6-2.4 9.1-3.5 13.9-2.9-.6-4.6-2.5-6.8-4-1-1.5-2.4-2.6-3.8-3.6-.7-.8-1.6-1.5-2.1-2.4a41.7 41.7 0 0 0-3.1 5.4c-.7-.3-1.3-.8-1.7-1.5-1.4-1.3-2.5-3.1-4.2-4.2-1.5-1.9-3.1-3.6-4.3-5.8-.4 0-.6.1-.6.4-2.4 2-3.6 4.9-6.3 6.6a4 4 0 0 0-1.1-1.9c-1.8-3.7-3-8.2-3.3-13.7.7-.6-.1-2.5 0-3.6l-.8-10.3c-.3-1.6.1-4.1-.7-5.1-1.5-11.9-10.5-15.1-11.8-27.2 4.9 1.3 12 0 13.7 5.1-2.5.8-2.9 3.3-3.4 5.8-.6 1.3-.2 4.4 1 4.8.9 1.6 2.8 2.1 4.7 2.5 1.1 2.4 2.5 4.3 3.4 6.8-1.1.4-2.5.7-3.5 1.2a11 11 0 0 0 6 1.8c.4 2 1.5 3.1 1.7 5.4-1.7.7-2.8 1.8-4.3 2.6.1 1.5 1.2 1.9 1.2 3.5-8.2-.4-4.6 10.3.9 10.9-.4-1.7-1.9-2-2.2-3.7-1.3-1.9.6-2.6 1.7-3.4 11.8.3 19.6 8.5 34.5 6.4.6.5 3.3.3 3.9-.3 13.3-.9 19.6-7.8 25.7-14.9-1.9 5.8-6.5 9.2-10.3 13.4-1 .2-1.2 1-1.8 1.4 1.2-.2 2.1-.6 2.8-1.2 1.9-.9 3.1-2.4 4.9-3.3 1.2-1.1 2.5-2.1 3.3-3.5 2.8-4.4 6.5-8.6 5-14.3-1.7-6.6-7.8-11.2-11.5-15.3-.6-1.5-2-2.1-3.1-3h-.3c-.5.6.5 2.4.6 3.5-2.9-1.3-4.9-4.5-8.1-4.5-4.4-.1-10.3 4.4-14 7.2-4.4 3.4-7.8 7.3-13 8.1.8-7.3 6.8-10.2 10.8-14.8.8-8.5-6.1-9.4-12.8-7.1 1.6 2.7 6.9-.4 9.2 1.9 1.1 5.8-2.4 7.8-6.7 8.9-.9 2.5-2 4.9-3 7.4a32 32 0 0 1-16 1.9c-1.1-1.9-2.3-3.6-3.1-5.9-.4-1.6-2.7-.5-4-.6" style="fill-rule:evenodd;clip-rule:evenodd;fill:#cdad86"/><path class="st17" d="m293.6 206.8 8.1-4.3-.1 20.6L291 236c.1.1-.8-27.3 2.6-29.2"/><path class="st3" d="M240.9 198.3s-36.8 34.2-19.7 59.8"/><path class="st10" d="m441.9 146.2-20.8 13.9 55.4 55 17.5 3.5 13.3-32-31.2-27.3M230.6 254.8c-11.2-21.5 5.8-33.3 3-28.7-7.6 12.3 33.8 29.4 56.3 42.5 14.7 8.6 33 23.2 41 24.9-4 8.1-18.4 15.3-26.7 13.2-.4 9.1-3 10.3-17.5 19.4 0 0-41.1-27-63-34.3M520.9 246.7l2.2-3.5-6.1-3.7-.4 4"/><path class="st4" d="M536.9 213.6c-2.6 24.8-25.3 23.1-39.3 12.4l-6.5 8.6 40.8 11.1s4.5-2.2 12.2-9.5c.5-2.9-8.1-14.4-7.2-22.6"/><path class="st0" d="m305.7 328.5 66.9-15.5 13.5 6.3-89 19.1z"/><path class="st2" d="M621.4 254.4s-41.3.7-53.9 6c0 0-8.7-10.1-9.6-15.1 0 0 22.3-6.3 54.8-4.4 1.5 2.7 3 4.1 8.7 13.5M260.8 376.9h6.7v2.7h-6.7z"/><path class="st19" d="M235.9 196.7s-32.5 34.2-17.8 62"/><path class="st20" d="M249.2 496c-5.6-.5-3.2-8.1-2.8-14.2 1.5-20 2.6-40.2 4.1-59.8.7-9.8-.2-24.9 6.3-30.1.8-.8 2.6-.8 3.9-1.2.7-1.4.1-3.6.6-5.2 1.4-.2 3.3-1 4.2-.6 0 2.8-.2 5.4-.1 8.3l-4.2.9c-5.4 3.6-4.8 9.5-5.3 17.2-1.2 19.5-2.8 40.1-4.3 60.2-.7 8.7-1.2 17.8-2.4 24.5M283.7 480.3c1.1-16.6 0-36.9 3.5-53.5 1.4-6.4 7-18.6 12.5-10.8-5.2 1.7-7.9 9.8-8.8 15.9a356.3 356.3 0 0 0-2.6 34.6c-.4 8-1 16 .8 22-2.8-.3-4.2-2.5-5.2-5.1l-.2-3.1M464.1 452.7c-2.3.2-3.2-1.4-4.4-2.6l-2.8-42.9c-.4-5.7-2.5-15 2.3-16.2.9-.5 3.1-.1 3-1.3l3.9-.9.2 3.8c-1.6.2-4.3 1.2-5.3 2.7-.2 18.3 2.3 38.4 3.1 57.4M403.2 470.4l.6-.1c2.7-13.3 4.2-27.5 6.5-41.1 1.2 3.6 2.2 7.5 2.9 11.8-2 10.3-3.1 21.2-5 31.6-4.9.9-10.6 2.7-15.1 3.1l-.2-2.9.3-.1c3.4-.9 6.7-1.6 10-2.3M441.4 423.1c1-1.2.5 1.4.8 2.2l.6 9.9c-3.6 10.7-6.9 21.5-10.4 32.2l-8.7 1.9a7 7 0 0 1-.5-3.1c1.5-.5 3.8-.5 4.8-1.4 4.7-13.6 9-27.7 13.4-41.7M355.6 472.6l-4.5 1c.9-8.3 1.3-16.9 2.3-25.1l23.2-5.2c.8-1.3.3-3.5.9-4.9.9-.7 3.6-1.3 4.5-1-.5 2.8-.4 6.1-1.3 8.6l-22.9 5.1c-1.4 6.7-1.2 14.5-2.2 21.5"/><path class="st20" d="M321.8 469.8c1.3-.2 3.1-1 3.9-.6 3.5 19.6-20.6 29.2-39.5 31.6-7.1.9-14.6.4-17.9-3.1a37 37 0 0 0 15.3.2c2.7-.1 7.6-1.2 10.3-2.3 15.3-4.4 27.5-11 27.9-25.8M536.7 439.8c.2-3.9.1-8.1.8-11.7l3.6-.8c0 5.7-.5 11-.8 16.4l-67.2 14.9c-.2-1.4.4-2.1.1-3.6l.3-.1c21-4.9 42.8-9.1 63.3-14.4l-.1-.7M382.1 465.3c1.4-.2 3.3-1 4.2-.6-.1 4.5-.5 8.7-.7 13.2l-55.5 12.3c-.1-1.2.4-1.9.1-3.3l.3-.1c16.8-3.9 34.4-7.2 50.6-11.5.9-3 .4-6.9 1-10"/><path class="st21" d="M642.7 344c-.6 7.1-.8 14.5-1.3 21.6-1.2 15.6-2.4 30.6-2.9 44.2.9 0 2.6-.9 3-.4.1 1.1.2 2.1-.1 3l4.5-1c.1 3.1-.7 5.6-.3 9-11.8 3.3-27.4 6.2-40.7 9.3-.1-1.8 0-2.4.1-3.6-1.1 0-4.7 1.6-4 .3 1.7-27.3 3.9-59.2 5.9-87.7.5-6.6 2.1-14.5-2.1-17.6-10.2 2.6-11 11.8-11.7 21.8-2.1 28.6-5.1 63.6-6.9 91.2-13.4 2.6-28.3 7.1-40.7 8.5-.3-1.2.3-1.8.1-3-1.2.1-3.2 1.1-3.9.6-.1-2.8 0-5.5.1-8.3.8-.9 2.9-.7 4.2-1.2 5.8-3.3 5.3-9.4 5.9-17.6 1.8-23.6 3.3-47.8 5.1-72.2.6-8.2 2.5-16.5-7.3-14.1.1-2.8.1-5.7.4-8.4 30-4.3 71.3-23 86.3-8.2 10.4 2.8 7.4 20.9 6.3 33.8M473.1 458.7c-.2-1.4.4-2.1.1-3.6l-3.6.8-.1-1.2.3-.1c-.1-1.3.3-2.2.4-3.3-.5-1.9 2.4-1.4 3.8-2 4.5-4.4 3.3-11.3 3.8-17.4 1.1-15 2.6-31.3 3.6-47.3.3-4.8 1.7-10.8-2.3-11.3l-3 .7-.4-6.7 60-13.3c1-.2 2.8-.8 4.2-.9 1.7-.2 3.6-1.2 2.5.9l.1 2c1.5 0 2.7-1.2 3.6-.8-.1 4.9-.6 11.5-.7 17.3l-6.6 1.5c-.4-.8.1-1.8-.2-3.2l-3.6.8c-.2-1.4.5-2.5-.2-3.5l-25 5.6c-1.2 7.7-1.3 16.2-2.4 23.9l25-5.6c-.1 1.1-.5 2.1-.4 3.3l3.9-.9c-.1 3.7-.5 7.2-1.1 10.6l-28 6.2c-1.7 8.4-1.5 18.2-2.8 27 9.4-3.4 25.7-2 27.4-10.8l-.1-1.2c1.8 0 7-2.6 6.1-.2l.1 2 3.6-.8c0 5.7-.5 11-.8 16.4l-67.2 15.1zm-4.2.6c-6.6 1.7-14.1 2.7-20.2 4.8-.4-.8.2-2.5-.5-3.4l-3.6.8-1.7-26.3c-3.6 10.7-6.9 21.5-10.4 32.2l-8.7 1.9a7 7 0 0 1-.5-3.1c-1.4.1-3.9 1.6-3.7-.4-2.1-8.3-3.9-17-6.2-25-2 10.3-3.1 21.2-5 31.6-4.9.9-10.6 2.7-15.1 3.1l-.2-2.9c-1.1.1-3 1-3.6.5-.5-.5-.7-3.1-.2-3.8.4-.8 2.1-.6 3-1 .9-.9 2.9-3.1 3.4-4.9 2.1-8.4 3.4-19.4 5.1-29.8.8-5.1 1.5-10.2 2.4-15 .9-5.1 2.8-10.5.9-14.4-.8-.5-2.2-.2-3.7.2a16 16 0 0 1 .3-4.5l1.5-.3c5.6-1.7 13.3-3.5 19-4.2l.3-.1c-.1 1.3.3 1.9.5 2.8l3.3-.7c2.4 8 3.9 17.1 5.9 25.6 3.7-10.4 6.8-21.3 10.2-31.9 6.1-1.8 14.3-3.7 20.5-4.6.7.3.3 2.2.5 3.1l3.9-.9.2 3.8c-1.6.2-4.3 1.2-5.3 2.7-.2 18.2 2.3 38.4 3.1 57.3.1.2.3.2.3.5 1.4.6 1.7 2.4 4.1 1.8l.2 4.5zm-84.8-38.6-.2-3.5-3.9.9c.4-.6.4-2.9-.2-3.2.1.5-.2.6-.6.7-5.4 1.9-12.2 2.8-18.1 4.3-.5.2-1.5 0-1.2.9 0 2.1-.4 4-.5 6-.4 3.2-.7 6.8-.8 10.8 0 .6-.3 1.3.1 1.5 5.8-.1 14-3.8 19.3-4.1.2 0-.1.6-.3.5.3 1.2-.4 1.8-.1 3 .9-.7 3.6-1.3 4.5-1-.5 2.8-.4 6.1-1.3 8.6l-22.9 5.1c-1.5 6.7-1.3 14.5-2.3 21.5l18.4-4.1c1.5-1.3 3-2.7 3-5.1 1-.6 6.4-2.5 4.9.1l.1 1.8c1.4-.2 3.3-1 4.2-.6-.1 4.5-.5 8.7-.7 13.2L330 490.3c-.1-1.2.4-1.9.1-3.3l-4.2.9-.1-1.2.3-.1c-.1-1.3.3-2.2.4-3.3.4-.8 2.1-.6 3-1 3.3-1.8 2.9-9.6 3.3-14.9l2.7-38.5c.4-4.9 2.3-10.7-3.9-8.9-.5-.3-.7-2.7-.2-3.2l-.1-2c17.6-4.4 37.3-8.8 54.9-12.2.3 1.2-.1 2-.1 3l4.2-.9c.4 5.3-.2 9.9-.6 14.6-1.2.8-3.8.9-5.6 1.4m-97.9 80.1c-7.1.9-14.6.4-17.9-3.1-3.7-1.6-7.3-3.2-8.2-8.2-.5-.5-.7-3.1-.2-3.8l3.5-45.5c.9-11.5 1.2-18.5 9.4-24.9 12.1-9.4 41.9-16.2 50-7.8 6.8 0 7.1 10.7 6.1 17.9-8 2-15 2.9-22.9 4.8-.1-1.2-.2-2.4.1-3.3-.9-.5-2.9.5-4.2.6-.1-1.2.4-2.2.1-3.6l-.2-2.9c-.1-2.3-.7-3.9-1.8-4.9-5.2 1.7-7.9 9.8-8.8 15.9a356.3 356.3 0 0 0-2.6 34.6c-.4 8-1 16 .8 22 7.2-1.9 8.1-8.2 8.8-14.7l-.1-2c7.8-1.5 16.3-4 23.5-4.9.6.4.3 1.9.5 2.9 1.3-.2 3.1-1 3.9-.6 3.3 19.5-20.9 29.1-39.8 31.5m-28.9 6.1-49.4 11c-.3-1.3.4-1.9.1-3.3.3 0 .3-.2.3-.4-1.3.1-3.4 1.1-4.2.6.1-2.6.3-5.2.7-7.6 10.1-1.4 9.1-10.6 9.7-19.6 1.6-22.6 3.7-47.8 5.4-71.4.6-8.7 2.9-16.8-7.4-14.3-.1-3.1 0-6.1.3-9l48.5-10.8c.3 1.3-.4 1.9-.1 3.3 1.4-.2 3.3-1 4.2-.6 0 2.8-.2 5.4-.1 8.3l-4.2.9c-5.4 3.6-4.8 9.5-5.3 17.2-1.2 19.5-2.8 40.1-4.3 60.2-.7 8.7-1.2 17.8-2.4 24.5.3.6 1.7-.3 2.4-.2l1.8-.4c-.1.7.5 2-.1 2.4v.6c1.6-.5 2.5 0 4.2-.6.6 3.4.1 6.2-.1 9.2m363.6-208.1-2.1.1-.8.1-.9.1-1.2.3-1.1.2-.4.1-.2.1-.4.1h-.4l-.3.1c-1.7.2-3.7.7-5.3 1.1-7.8 2.2-17.8 4.4-25.6 5.7l-1.5.3c-1.5 1-4.3 1.1-6.3 1.7l-29.8 6.6c-1.1 3.1-.2 7.7-1.1 10.9l-.5 10.8c-.4 0-.5.2-.6.4.8 1.6.2 4.6-.2 6.3l8.4-1.9c.3 1.2-.3 1.8-.1 3-3.9.7-8.6 2.3-12.1 2.4-2.5 1.2-6.3 1.5-9.3 2.4l-14.2 3.1c-11.5 3.2-24.4 5.5-36.5 8.4l-9.6 2.1.8 12.8c-3.4 1.4-8.1 1.9-12 3l-23.5 5.2c-15.3 3.2-31.3 7.3-46.1 10-2.7.3-9.5 2.7-11.8 2.3-2.2 1.2-5.7 1.4-8.4 2.2v.3c-9.8 1.5-22.4 4.9-31.7 6.7-7.1-14.3-39.3-9.3-58.6 1.2-5.1 2.8-9.1 6.1-12.9 9.1l.8-11.1c1.7-.6 6.3-1 8.4-2.2.4-6.9.9-13.7 1.1-20.7l-5.9-5.8c-2.6.2-6.6 2.2-8.2 1.2-.2.1-.3.4-.6.4-.7.6-3.5 1.3-4.2.9l-.3.1c-.7.7-2.4.7-3.6 1.1-1.3.1-3.4 1.1-4.2.6-.7.4-1.6.7-2.7.9l-12.4 2.7c-2.6.4-5.9 1.6-8.1 1.6l-5.9 1.3-6.3 1.3 6.3-1.5 5.6-1.2h-.1l-.1-.1-5.2 1.2-5.4 1.2-.6.1-.2.1.1.1-6.9 1.5c.1 9.9-1.1 18.9-.9 28.9 2.5-.4 5.8-1.7 7.9-1.5-1.9 26.3-4.1 52.5-6.2 78.6-1.4 1-4.1 1-6 1.6-1.8-.1-1.2 1.4-2.7 1.5-.5 9.5-2.2 18.2-2.5 27.8 153.2-34.2 306.5-67.8 458.9-101.9.4-9.4 1.1-18.7 1.2-28.4l-.7.6c-2.1.3-5 1.5-6.7 1.2.1-.6-.5-1.8.2-2.1.8-11.5 1.6-23.5 2.6-35.8.9-11.9 2.8-24.3 2.9-35.6.2-19.7-13.8-25.4-30.1-25.9m-1-.2h-.7"/><path class="st17" d="M379.7 414.9c-.4-1.2-1.1-1.6-2-1.9v-.3l-21.4 4.8c-.4.3-.4 1-.5 1.6.1 4.1-.7 7.5-.8 11.4-.6 2.8-.8 6.8-1.2 9.7 0 0 .1-.6 0 0 1.2.1 3.3-.6 4.8-.8 6.2-1.2 13.2-3.3 19-3.9.3 1.2 0 1.1-.1 3-.3 1.5-.1 3.6-.9 4.9l-23.2 5.2c-1.1 8.2-1.4 16.8-2.3 25.1 1 .5 3.1-.6 4.5-.7 6-1.5 12.9-2.5 18.4-4.4 2.1-1.2 3-2.7 3-5.1l4.8-1.1.1 1.2.1 1.8c-.2 3.1-.1 7-.9 10l-50.6 11.2-4.2.9-.1-.9c-.1-1.3.3-2.2.4-3.3.9-.4 1.9-.4 3-1 3.3-1.8 2.9-9.6 3.3-14.9l2.7-38.5c.4-4.9 2.3-10.7-3.9-8.9l-.2-3.2-.1-2 54.9-12.2c.3 1.2-.1 2-.1 3l-.5 11.4-1.8.4-3.9.9c.3-.8.2-2.8-.3-3.4"/><path class="st22" d="M379.7 414.9c-.4-1.2-1.1-1.6-2-1.9v-.3l-21.4 4.8c-.4.3-.4 1-.5 1.6.1 4.1-.7 7.5-.8 11.4-.6 2.8-.8 6.8-1.2 9.7 0 0 .1-.6 0 0 1.2.1 3.3-.6 4.8-.8 6.2-1.2 13.2-3.3 19-3.9.3 1.2 0 1.1-.1 3-.3 1.5-.1 3.6-.9 4.9l-23.2 5.2c-1.1 8.2-1.4 16.8-2.3 25.1 1 .5 3.1-.6 4.5-.7 6-1.5 12.9-2.5 18.4-4.4 2.1-1.2 3-2.7 3-5.1l4.8-1.1.1 1.2.1 1.8c-.2 3.1-.1 7-.9 10l-50.6 11.2-4.2.9-.1-.9c-.1-1.3.3-2.2.4-3.3.9-.4 1.9-.4 3-1 3.3-1.8 2.9-9.6 3.3-14.9l2.7-38.5c.4-4.9 2.3-10.7-3.9-8.9l-.2-3.2-.1-2 54.9-12.2c.3 1.2-.1 2-.1 3l-.5 11.4-1.8.4-3.9.9c.3-.8.2-2.8-.3-3.4z"/><path class="st9" d="m442.2 425.3.3-.1 1.7 26.5c.1 2-.3 8.3.6 9 .6.5 3-.5 3.6-.5v.3l-.3.1-3.6.8-1.7-26.3-.6-9.8"/><path class="st17" d="m259.8 485.6 3.5-45.5c.9-11.5 1.2-18.5 9.4-24.9 12.1-9.4 41.9-16.2 50-7.8.9 1.3 1.8 2.6 1.9 4.9l.3 4.4c.1 2.2 0 4-.6 5.7l-8.1 1.8-4.8 1.1-5.1 1.3-.3.1c-1.2.3-2.9.7-4.3.8-.1-1.2.4-2.2.1-3.6a47 47 0 0 1-.2-2.9c-.1-2.3-.7-3.9-1.8-4.9-5.5-7.8-11.1 4.4-12.5 10.8-3.5 16.6-2.5 36.9-3.6 53.5-.1.7-.1 2.7.2 3.2 1.1 2.6 1.6 4.9 5.2 5.1 7.8-2.1 8.4-8.3 9.1-14.8 0 .4 0-.2 0 0l-.1-1.8 23.2-5.2c.6.4.3 1.9.5 2.9-.4 14.9-12.6 21.4-28 25.8l-10.3 2.3c-6.2 1.3-10.8.7-15.3-.2-3.7-1.6-7.3-3.2-8.2-8.2l-.2-3.9"/><path class="st22" d="m259.8 485.6 3.5-45.5c.9-11.5 1.2-18.5 9.4-24.9 12.1-9.4 41.9-16.2 50-7.8.9 1.3 1.8 2.6 1.9 4.9l.3 4.4c.1 2.2 0 4-.6 5.7l-8.1 1.8-4.8 1.1-5.1 1.3-.3.1c-1.2.3-2.9.7-4.3.8-.1-1.2.4-2.2.1-3.6a47 47 0 0 1-.2-2.9c-.1-2.3-.7-3.9-1.8-4.9-5.5-7.8-11.1 4.4-12.5 10.8-3.5 16.6-2.5 36.9-3.6 53.5-.1.7-.1 2.7.2 3.2 1.1 2.6 1.6 4.9 5.2 5.1 7.8-2.1 8.4-8.3 9.1-14.8 0 .4 0-.2 0 0l-.1-1.8 23.2-5.2c.6.4.3 1.9.5 2.9-.4 14.9-12.6 21.4-28 25.8l-10.3 2.3c-6.2 1.3-10.8.7-15.3-.2-3.7-1.6-7.3-3.2-8.2-8.2l-.2-3.9z"/><path class="st17" d="M537.5 428.1c-.7 3.6-.5 7.8-.8 11.7 0 .1-.1.5-.3.7-2.5 2.1-11.6 2.9-15.7 3.8l-47.3 10.5-3.6.8-.1-.9c-.1-1.3.3-2.2.4-3.3-.1-1.6 3.1-1 3.8-2 4.5-4.4 3.3-11.3 3.8-17.4 1.1-15 2.6-31.3 3.6-47.3.3-4.8 1.7-10.8-2.3-11.3v-.3c-.8 0-2.4.9-2.7.3.1-1.9-.7-4.4-.1-5.9l57.6-12.8c3.2-.7 9.2-2.8 8.5-.7l.1 2c-.4 4.6-.6 9.3-.6 14l-3.3.7-3.6.8c-.2-1.4.5-2.5-.2-3.5-.1-1.9-1.2-2.5-2.6-2.7-8.2 1.1-17.6 3.8-26.2 5.5-.3.1-.2.4-.3.6-.5 9.1-1.5 17.9-2.2 26.8l3.9-.9 25-5.6c-.1 1.1-.5 2.1-.4 3.3-.5 2.2-.4 4.9-1.1 7l-28.3 6.3c-.9 10.1-1.9 20.2-2.6 30.5l3.9-.9c9.4-3.4 25.6-1.7 27.4-10.5l.1-.3c.1-.5.3-.6.2-.9l5.7-1.3.1.9.2 2.3"/><path class="st22" d="M537.5 428.1c-.7 3.6-.5 7.8-.8 11.7 0 .1-.1.5-.3.7-2.5 2.1-11.6 2.9-15.7 3.8l-47.3 10.5-3.6.8-.1-.9c-.1-1.3.3-2.2.4-3.3-.1-1.6 3.1-1 3.8-2 4.5-4.4 3.3-11.3 3.8-17.4 1.1-15 2.6-31.3 3.6-47.3.3-4.8 1.7-10.8-2.3-11.3v-.3c-.8 0-2.4.9-2.7.3.1-1.9-.7-4.4-.1-5.9l57.6-12.8c3.2-.7 9.2-2.8 8.5-.7l.1 2c-.4 4.6-.6 9.3-.6 14l-3.3.7-3.6.8c-.2-1.4.5-2.5-.2-3.5-.1-1.9-1.2-2.5-2.6-2.7-8.2 1.1-17.6 3.8-26.2 5.5-.3.1-.2.4-.3.6-.5 9.1-1.5 17.9-2.2 26.8l3.9-.9 25-5.6c-.1 1.1-.5 2.1-.4 3.3-.5 2.2-.4 4.9-1.1 7l-28.3 6.3c-.9 10.1-1.9 20.2-2.6 30.5l3.9-.9c9.4-3.4 25.6-1.7 27.4-10.5l.1-.3c.1-.5.3-.6.2-.9l5.7-1.3.1.9.2 2.3z"/><path class="st17" d="M203.9 514.9c.1-2.6.3-5.2.7-7.6 10.1-1.4 9.1-10.6 9.7-19.6 1.6-22.6 3.7-47.8 5.4-71.4.6-8.7 2.9-16.8-7.4-14.3-.1-3.1 0-6.1.3-9l48.5-10.8c.3 1.3-.4 1.9-.1 3.3-.4 1.5.1 3.8-.6 5.2-1.3.4-3.1.4-3.9 1.2-6.5 5.2-5.6 20.3-6.3 30.1-1.5 19.6-2.6 39.8-4.1 59.8-.5 6.1-2.9 13.7 2.8 14.2.3.6 1.7-.3 2.4-.2 1.1 0 2 .2 1.7 2v.6c.1 2-.2 3.8-.2 5.7l-48.9 10.8"/><path class="st22" d="M203.9 514.9c.1-2.6.3-5.2.7-7.6 10.1-1.4 9.1-10.6 9.7-19.6 1.6-22.6 3.7-47.8 5.4-71.4.6-8.7 2.9-16.8-7.4-14.3-.1-3.1 0-6.1.3-9l48.5-10.8c.3 1.3-.4 1.9-.1 3.3-.4 1.5.1 3.8-.6 5.2-1.3.4-3.1.4-3.9 1.2-6.5 5.2-5.6 20.3-6.3 30.1-1.5 19.6-2.6 39.8-4.1 59.8-.5 6.1-2.9 13.7 2.8 14.2.3.6 1.7-.3 2.4-.2 1.1 0 2 .2 1.7 2v.6c.1 2-.2 3.8-.2 5.7l-48.9 10.8z"/><path class="st17" d="M392.1 468.4c.9-.9 2.9-3.1 3.4-4.9 2.1-8.4 3.4-19.4 5.1-29.8.8-5.1 1.5-10.2 2.4-15 .9-5.1 2.8-10.5.9-14.4-.8-.5-2.2-.2-3.7.2a16 16 0 0 1 .3-4.5l1.5-.3 19-4.2.3-.1c-.1 1.3.3 1.9.5 2.9 2.2 10.7 4.8 20.9 7 31.6 1.4-1.8 1.8-4.3 2.3-6.7 3.7-10.4 6.8-21.3 10.2-31.9l20.5-4.6.2 3.2c-.2.9-1.6.8-2.7 1.2-4.8 1.2-2.7 10.5-2.3 16.2l2.8 42.9c.8 1.4 2.1 2.8 4.4 2.6.1.2.3.2.3.5v.3c1.2 4.1-3.2 4-8.2 5.1l-7.8 1.7c-.7 0-3 1-3.6.5-.9-.7-.5-7-.6-9l-1.7-26.5-.2-3.5c-1 0-.7.9-.8 1.4-4.4 14-8.7 28.1-13.5 41.8l-4.8 1.1c-1.4.2-3.4 1.2-3.7-.1-2.1-8.3-3.9-17-6.2-25-.7-4.3-1.7-8.2-2.9-11.8-2.3 13.6-3.8 27.8-6.5 41.1l-.6.1c-2.8-.1-6.7 1.4-10 1.9l-3.9.9-.2-3.8c.7-.5 2.4-.4 2.8-1.1"/><path class="st22" d="M392.1 468.4c.9-.9 2.9-3.1 3.4-4.9 2.1-8.4 3.4-19.4 5.1-29.8.8-5.1 1.5-10.2 2.4-15 .9-5.1 2.8-10.5.9-14.4-.8-.5-2.2-.2-3.7.2a16 16 0 0 1 .3-4.5l1.5-.3 19-4.2.3-.1c-.1 1.3.3 1.9.5 2.9 2.2 10.7 4.8 20.9 7 31.6 1.4-1.8 1.8-4.3 2.3-6.7 3.7-10.4 6.8-21.3 10.2-31.9l20.5-4.6.2 3.2c-.2.9-1.6.8-2.7 1.2-4.8 1.2-2.7 10.5-2.3 16.2l2.8 42.9c.8 1.4 2.1 2.8 4.4 2.6.1.2.3.2.3.5v.3c1.2 4.1-3.2 4-8.2 5.1l-7.8 1.7c-.7 0-3 1-3.6.5-.9-.7-.5-7-.6-9l-1.7-26.5-.2-3.5c-1 0-.7.9-.8 1.4-4.4 14-8.7 28.1-13.5 41.8l-4.8 1.1c-1.4.2-3.4 1.2-3.7-.1-2.1-8.3-3.9-17-6.2-25-.7-4.3-1.7-8.2-2.9-11.8-2.3 13.6-3.8 27.8-6.5 41.1l-.6.1c-2.8-.1-6.7 1.4-10 1.9l-3.9.9-.2-3.8c.7-.5 2.4-.4 2.8-1.1z"/><path d="M551 429.9c5.8-3.3 5.3-9.4 5.9-17.6 1.8-23.6 3.3-47.8 5.1-72.2.6-8.2 2.5-16.5-7.3-14.1.1-2.8.1-5.7.4-8.4 30-4.3 71.3-23 86.3-8.2 5.8 7.5 3.1 21.4 2.2 33.6-1.1 14.8-1.9 30.2-3.1 46.3-.4 5.8-3.6 21.4 3.1 19.7.5.6 2.1-.4 3-.4.1 1.1.2 2.1-.1 3 .1 1.9 0 3.7-.3 5.4-13.3 2.8-27.3 6.5-40.1 8.6 1.7-27.3 3.9-59.2 5.9-87.7.5-6.6 2.1-14.5-2.1-17.6-4.6-7-13.2 2.2-15.1 8.4-2 6.7-1.8 17.5-2.3 25.1l-5.4 76.7-40.4 9c-.1-2.8 0-5.5.1-8.3 1.3-.6 3.4-.5 4.2-1.3" style="fill-rule:evenodd;clip-rule:evenodd;fill:#221f1f"/><path class="st4" d="M249.2 496c-5.6-.5-3.2-8.1-2.8-14.2 1.5-20 2.6-40.2 4.1-59.8.7-9.8-.2-24.9 6.3-30.1.8-.8 2.6-.8 3.9-1.2.7-1.4.1-3.6.6-5.2 1.4-.2 3.3-1 4.2-.6 0 2.8-.2 5.4-.1 8.3l-4.2.9c-5.4 3.6-4.8 9.5-5.3 17.2-1.2 19.5-2.8 40.1-4.3 60.2-.7 8.7-1.2 17.8-2.4 24.5M283.7 480.3c1.1-16.6 0-36.9 3.5-53.5 1.4-6.4 7-18.6 12.5-10.8-5.2 1.7-7.9 9.8-8.8 15.9a356.3 356.3 0 0 0-2.6 34.6c-.4 8-1 16 .8 22-2.8-.3-4.2-2.5-5.2-5.1l-.2-3.1M464.1 452.7c-2.3.2-3.2-1.4-4.4-2.6l-2.8-42.9c-.4-5.7-2.5-15 2.3-16.2.9-.5 3.1-.1 3-1.3l3.9-.9.2 3.8c-1.6.2-4.3 1.2-5.3 2.7-.2 18.3 2.3 38.4 3.1 57.4M403.2 470.4l.6-.1c2.7-13.3 4.2-27.5 6.5-41.1 1.2 3.6 2.2 7.5 2.9 11.8-2 10.3-3.1 21.2-5 31.6-4.9.9-10.6 2.7-15.1 3.1l-.2-2.9.3-.1c3.4-.9 6.7-1.6 10-2.3M441.4 423.1c1-1.2.5 1.4.8 2.2l.6 9.9c-3.6 10.7-6.9 21.5-10.4 32.2l-8.7 1.9a7 7 0 0 1-.5-3.1c1.5-.5 3.8-.5 4.8-1.4 4.7-13.6 9-27.7 13.4-41.7M355.6 472.6l-4.5 1c.9-8.3 1.3-16.9 2.3-25.1l23.2-5.2c.8-1.3.3-3.5.9-4.9.9-.7 3.6-1.3 4.5-1-.5 2.8-.4 6.1-1.3 8.6l-22.9 5.1c-1.4 6.7-1.2 14.5-2.2 21.5"/><path class="st4" d="M321.8 469.8c1.3-.2 3.1-1 3.9-.6 3.5 19.6-20.6 29.2-39.5 31.6-7.1.9-14.6.4-17.9-3.1a37 37 0 0 0 15.3.2c2.7-.1 7.6-1.2 10.3-2.3 15.3-4.4 27.5-11 27.9-25.8M536.7 439.8c.2-3.9.1-8.1.8-11.7l3.6-.8c0 5.7-.5 11-.8 16.4l-67.2 14.9c-.2-1.4.4-2.1.1-3.6l.3-.1c21-4.9 42.8-9.1 63.3-14.4l-.1-.7M382.1 465.3c1.4-.2 3.3-1 4.2-.6-.1 4.5-.5 8.7-.7 13.2l-55.5 12.3c-.1-1.2.4-1.9.1-3.3l.3-.1c16.8-3.9 34.4-7.2 50.6-11.5.9-3 .4-6.9 1-10"/><path class="st4" d="M642.7 344c-.6 7.1-.8 14.5-1.3 21.6-1.2 15.6-2.4 30.6-2.9 44.2.9 0 2.6-.9 3-.4.1 1.1.2 2.1-.1 3l4.5-1c.1 3.1-.7 5.6-.3 9-11.8 3.3-27.4 6.2-40.7 9.3-.1-1.8 0-2.4.1-3.6-1.1 0-4.7 1.6-4 .3 1.7-27.3 3.9-59.2 5.9-87.7.5-6.6 2.1-14.5-2.1-17.6-10.2 2.6-11 11.8-11.7 21.8-2.1 28.6-5.1 63.6-6.9 91.2-13.4 2.6-28.3 7.1-40.7 8.5-.3-1.2.3-1.8.1-3-1.2.1-3.2 1.1-3.9.6-.1-2.8 0-5.5.1-8.3.8-.9 2.9-.7 4.2-1.2 5.8-3.3 5.3-9.4 5.9-17.6 1.8-23.6 3.3-47.8 5.1-72.2.6-8.2 2.5-16.5-7.3-14.1.1-2.8.1-5.7.4-8.4 30-4.3 71.3-23 86.3-8.2 10.4 2.8 7.4 20.9 6.3 33.8M473.1 458.7c-.2-1.4.4-2.1.1-3.6l-3.6.8-.1-1.2.3-.1c-.1-1.3.3-2.2.4-3.3-.5-1.9 2.4-1.4 3.8-2 4.5-4.4 3.3-11.3 3.8-17.4 1.1-15 2.6-31.3 3.6-47.3.3-4.8 1.7-10.8-2.3-11.3l-3 .7-.4-6.7 60-13.3c1-.2 2.8-.8 4.2-.9 1.7-.2 3.6-1.2 2.5.9l.1 2c1.5 0 2.7-1.2 3.6-.8-.1 4.9-.6 11.5-.7 17.3l-6.6 1.5c-.4-.8.1-1.8-.2-3.2l-3.6.8c-.2-1.4.5-2.5-.2-3.5l-25 5.6c-1.2 7.7-1.3 16.2-2.4 23.9l25-5.6c-.1 1.1-.5 2.1-.4 3.3l3.9-.9c-.1 3.7-.5 7.2-1.1 10.6l-28 6.2c-1.7 8.4-1.5 18.2-2.8 27 9.4-3.4 25.7-2 27.4-10.8l-.1-1.2c1.8 0 7-2.6 6.1-.2l.1 2 3.6-.8c0 5.7-.5 11-.8 16.4l-67.2 15.1zm-4.2.6c-6.6 1.7-14.1 2.7-20.2 4.8-.4-.8.2-2.5-.5-3.4l-3.6.8-1.7-26.3c-3.6 10.7-6.9 21.5-10.4 32.2l-8.7 1.9a7 7 0 0 1-.5-3.1c-1.4.1-3.9 1.6-3.7-.4-2.1-8.3-3.9-17-6.2-25-2 10.3-3.1 21.2-5 31.6-4.9.9-10.6 2.7-15.1 3.1l-.2-2.9c-1.1.1-3 1-3.6.5-.5-.5-.7-3.1-.2-3.8.4-.8 2.1-.6 3-1 .9-.9 2.9-3.1 3.4-4.9 2.1-8.4 3.4-19.4 5.1-29.8.8-5.1 1.5-10.2 2.4-15 .9-5.1 2.8-10.5.9-14.4-.8-.5-2.2-.2-3.7.2a16 16 0 0 1 .3-4.5l1.5-.3c5.6-1.7 13.3-3.5 19-4.2l.3-.1c-.1 1.3.3 1.9.5 2.8l3.3-.7c2.4 8 3.9 17.1 5.9 25.6 3.7-10.4 6.8-21.3 10.2-31.9 6.1-1.8 14.3-3.7 20.5-4.6.7.3.3 2.2.5 3.1l3.9-.9.2 3.8c-1.6.2-4.3 1.2-5.3 2.7-.2 18.2 2.3 38.4 3.1 57.3.1.2.3.2.3.5 1.4.6 1.7 2.4 4.1 1.8l.2 4.5zm-84.8-38.6-.2-3.5-3.9.9c.4-.6.4-2.9-.2-3.2.1.5-.2.6-.6.7-5.4 1.9-12.2 2.8-18.1 4.3-.5.2-1.5 0-1.2.9 0 2.1-.4 4-.5 6-.4 3.2-.7 6.8-.8 10.8 0 .6-.3 1.3.1 1.5 5.8-.1 14-3.8 19.3-4.1.2 0-.1.6-.3.5.3 1.2-.4 1.8-.1 3 .9-.7 3.6-1.3 4.5-1-.5 2.8-.4 6.1-1.3 8.6l-22.9 5.1c-1.5 6.7-1.3 14.5-2.3 21.5l18.4-4.1c1.5-1.3 3-2.7 3-5.1 1-.6 6.4-2.5 4.9.1l.1 1.8c1.4-.2 3.3-1 4.2-.6-.1 4.5-.5 8.7-.7 13.2L330 490.3c-.1-1.2.4-1.9.1-3.3l-4.2.9-.1-1.2.3-.1c-.1-1.3.3-2.2.4-3.3.4-.8 2.1-.6 3-1 3.3-1.8 2.9-9.6 3.3-14.9l2.7-38.5c.4-4.9 2.3-10.7-3.9-8.9-.5-.3-.7-2.7-.2-3.2l-.1-2c17.6-4.4 37.3-8.8 54.9-12.2.3 1.2-.1 2-.1 3l4.2-.9c.4 5.3-.2 9.9-.6 14.6-1.2.8-3.8.9-5.6 1.4m-97.9 80.1c-7.1.9-14.6.4-17.9-3.1-3.7-1.6-7.3-3.2-8.2-8.2-.5-.5-.7-3.1-.2-3.8l3.5-45.5c.9-11.5 1.2-18.5 9.4-24.9 12.1-9.4 41.9-16.2 50-7.8 6.8 0 7.1 10.7 6.1 17.9-8 2-15 2.9-22.9 4.8-.1-1.2-.2-2.4.1-3.3-.9-.5-2.9.5-4.2.6-.1-1.2.4-2.2.1-3.6l-.2-2.9c-.1-2.3-.7-3.9-1.8-4.9-5.2 1.7-7.9 9.8-8.8 15.9a356.3 356.3 0 0 0-2.6 34.6c-.4 8-1 16 .8 22 7.2-1.9 8.1-8.2 8.8-14.7l-.1-2c7.8-1.5 16.3-4 23.5-4.9.6.4.3 1.9.5 2.9 1.3-.2 3.1-1 3.9-.6 3.3 19.5-20.9 29.1-39.8 31.5m-28.9 6.1-49.4 11c-.3-1.3.4-1.9.1-3.3.3 0 .3-.2.3-.4-1.3.1-3.4 1.1-4.2.6.1-2.6.3-5.2.7-7.6 10.1-1.4 9.1-10.6 9.7-19.6 1.6-22.6 3.7-47.8 5.4-71.4.6-8.7 2.9-16.8-7.4-14.3-.1-3.1 0-6.1.3-9l48.5-10.8c.3 1.3-.4 1.9-.1 3.3 1.4-.2 3.3-1 4.2-.6 0 2.8-.2 5.4-.1 8.3l-4.2.9c-5.4 3.6-4.8 9.5-5.3 17.2-1.2 19.5-2.8 40.1-4.3 60.2-.7 8.7-1.2 17.8-2.4 24.5.3.6 1.7-.3 2.4-.2l1.8-.4c-.1.7.5 2-.1 2.4v.6c1.6-.5 2.5 0 4.2-.6.6 3.4.1 6.2-.1 9.2m363.6-208.1-2.1.1-.8.1-.9.1-1.2.3-1.1.2-.4.1-.2.1-.4.1h-.4l-.3.1c-1.7.2-3.7.7-5.3 1.1-7.8 2.2-17.8 4.4-25.6 5.7l-1.5.3c-1.5 1-4.3 1.1-6.3 1.7l-29.8 6.6c-1.1 3.1-.2 7.7-1.1 10.9l-.5 10.8c-.4 0-.5.2-.6.4.8 1.6.2 4.6-.2 6.3l8.4-1.9c.3 1.2-.3 1.8-.1 3-3.9.7-8.6 2.3-12.1 2.4-2.5 1.2-6.3 1.5-9.3 2.4l-14.2 3.1c-11.5 3.2-24.4 5.5-36.5 8.4l-9.6 2.1.8 12.8c-3.4 1.4-8.1 1.9-12 3l-23.5 5.2c-15.3 3.2-31.3 7.3-46.1 10-2.7.3-9.5 2.7-11.8 2.3-2.2 1.2-5.7 1.4-8.4 2.2v.3c-9.8 1.5-22.4 4.9-31.7 6.7-7.1-14.3-39.3-9.3-58.6 1.2-5.1 2.8-9.1 6.1-12.9 9.1l.8-11.1c1.7-.6 6.3-1 8.4-2.2.4-6.9.9-13.7 1.1-20.7l-5.9-5.8c-2.6.2-6.6 2.2-8.2 1.2-.2.1-.3.4-.6.4-.7.6-3.5 1.3-4.2.9l-.3.1c-.7.7-2.4.7-3.6 1.1-1.3.1-3.4 1.1-4.2.6-.7.4-1.6.7-2.7.9l-12.4 2.7c-2.6.4-5.9 1.6-8.1 1.6l-5.9 1.3-6.3 1.3 6.3-1.5 5.6-1.2h-.1l-.1-.1-5.2 1.2-5.4 1.2-.6.1-.2.1.1.1-6.9 1.5c.1 9.9-1.1 18.9-.9 28.9 2.5-.4 5.8-1.7 7.9-1.5-1.9 26.3-4.1 52.5-6.2 78.6-1.4 1-4.1 1-6 1.6-1.8-.1-1.2 1.4-2.7 1.5-.5 9.5-2.2 18.2-2.5 27.8 153.2-34.2 306.5-67.8 458.9-101.9.4-9.4 1.1-18.7 1.2-28.4l-.7.6c-2.1.3-5 1.5-6.7 1.2.1-.6-.5-1.8.2-2.1.8-11.5 1.6-23.5 2.6-35.8.9-11.9 2.8-24.3 2.9-35.6.2-19.7-13.8-25.4-30.1-25.9m-1-.2h-.7"/><path class="st4" d="M379.7 414.9c-.4-1.2-1.1-1.6-2-1.9v-.3l-21.4 4.8c-.4.3-.4 1-.5 1.6.1 4.1-.7 7.5-.8 11.4-.6 2.8-.8 6.8-1.2 9.7 0 0 .1-.6 0 0 1.2.1 3.3-.6 4.8-.8 6.2-1.2 13.2-3.3 19-3.9.3 1.2 0 1.1-.1 3-.3 1.5-.1 3.6-.9 4.9l-23.2 5.2c-1.1 8.2-1.4 16.8-2.3 25.1 1 .5 3.1-.6 4.5-.7 6-1.5 12.9-2.5 18.4-4.4 2.1-1.2 3-2.7 3-5.1l4.8-1.1.1 1.2.1 1.8c-.2 3.1-.1 7-.9 10l-50.6 11.2-4.2.9-.1-.9c-.1-1.3.3-2.2.4-3.3.9-.4 1.9-.4 3-1 3.3-1.8 2.9-9.6 3.3-14.9l2.7-38.5c.4-4.9 2.3-10.7-3.9-8.9l-.2-3.2-.1-2 54.9-12.2c.3 1.2-.1 2-.1 3l-.5 11.4-1.8.4-3.9.9c.3-.8.2-2.8-.3-3.4M442.2 425.3l.3-.1 1.7 26.5c.1 2-.3 8.3.6 9 .6.5 3-.5 3.6-.5v.3l-.3.1-3.6.8-1.7-26.3-.6-9.8M259.8 485.6l3.5-45.5c.9-11.5 1.2-18.5 9.4-24.9 12.1-9.4 41.9-16.2 50-7.8.9 1.3 1.8 2.6 1.9 4.9l.3 4.4c.1 2.2 0 4-.6 5.7l-8.1 1.8-4.8 1.1-5.1 1.3-.3.1c-1.2.3-2.9.7-4.3.8-.1-1.2.4-2.2.1-3.6a47 47 0 0 1-.2-2.9c-.1-2.3-.7-3.9-1.8-4.9-5.5-7.8-11.1 4.4-12.5 10.8-3.5 16.6-2.5 36.9-3.6 53.5-.1.7-.1 2.7.2 3.2 1.1 2.6 1.6 4.9 5.2 5.1 7.8-2.1 8.4-8.3 9.1-14.8 0 .4 0-.2 0 0l-.1-1.8 23.2-5.2c.6.4.3 1.9.5 2.9-.4 14.9-12.6 21.4-28 25.8l-10.3 2.3c-6.2 1.3-10.8.7-15.3-.2-3.7-1.6-7.3-3.2-8.2-8.2l-.2-3.9M537.5 428.1c-.7 3.6-.5 7.8-.8 11.7 0 .1-.1.5-.3.7-2.5 2.1-11.6 2.9-15.7 3.8l-47.3 10.5-3.6.8-.1-.9c-.1-1.3.3-2.2.4-3.3-.1-1.6 3.1-1 3.8-2 4.5-4.4 3.3-11.3 3.8-17.4 1.1-15 2.6-31.3 3.6-47.3.3-4.8 1.7-10.8-2.3-11.3v-.3c-.8 0-2.4.9-2.7.3.1-1.9-.7-4.4-.1-5.9l57.6-12.8c3.2-.7 9.2-2.8 8.5-.7l.1 2c-.4 4.6-.6 9.3-.6 14l-3.3.7-3.6.8c-.2-1.4.5-2.5-.2-3.5-.1-1.9-1.2-2.5-2.6-2.7-8.2 1.1-17.6 3.8-26.2 5.5-.3.1-.2.4-.3.6-.5 9.1-1.5 17.9-2.2 26.8l3.9-.9 25-5.6c-.1 1.1-.5 2.1-.4 3.3-.5 2.2-.4 4.9-1.1 7l-28.3 6.3c-.9 10.1-1.9 20.2-2.6 30.5l3.9-.9c9.4-3.4 25.6-1.7 27.4-10.5l.1-.3c.1-.5.3-.6.2-.9l5.7-1.3.1.9.2 2.3M203.9 514.9c.1-2.6.3-5.2.7-7.6 10.1-1.4 9.1-10.6 9.7-19.6 1.6-22.6 3.7-47.8 5.4-71.4.6-8.7 2.9-16.8-7.4-14.3-.1-3.1 0-6.1.3-9l48.5-10.8c.3 1.3-.4 1.9-.1 3.3-.4 1.5.1 3.8-.6 5.2-1.3.4-3.1.4-3.9 1.2-6.5 5.2-5.6 20.3-6.3 30.1-1.5 19.6-2.6 39.8-4.1 59.8-.5 6.1-2.9 13.7 2.8 14.2.3.6 1.7-.3 2.4-.2 1.1 0 2 .2 1.7 2v.6c.1 2-.2 3.8-.2 5.7l-48.9 10.8"/><path class="st4" d="M392.1 468.4c.9-.9 2.9-3.1 3.4-4.9 2.1-8.4 3.4-19.4 5.1-29.8.8-5.1 1.5-10.2 2.4-15 .9-5.1 2.8-10.5.9-14.4-.8-.5-2.2-.2-3.7.2a16 16 0 0 1 .3-4.5l1.5-.3 19-4.2.3-.1c-.1 1.3.3 1.9.5 2.9 2.2 10.7 4.8 20.9 7 31.6 1.4-1.8 1.8-4.3 2.3-6.7 3.7-10.4 6.8-21.3 10.2-31.9l20.5-4.6.2 3.2c-.2.9-1.6.8-2.7 1.2-4.8 1.2-2.7 10.5-2.3 16.2l2.8 42.9c.8 1.4 2.1 2.8 4.4 2.6.1.2.3.2.3.5v.3c1.2 4.1-3.2 4-8.2 5.1l-7.8 1.7c-.7 0-3 1-3.6.5-.9-.7-.5-7-.6-9l-1.7-26.5-.2-3.5c-1 0-.7.9-.8 1.4-4.4 14-8.7 28.1-13.5 41.8l-4.8 1.1c-1.4.2-3.4 1.2-3.7-.1-2.1-8.3-3.9-17-6.2-25-.7-4.3-1.7-8.2-2.9-11.8-2.3 13.6-3.8 27.8-6.5 41.1l-.6.1c-2.8-.1-6.7 1.4-10 1.9l-3.9.9-.2-3.8c.7-.5 2.4-.4 2.8-1.1M551 429.9c5.8-3.3 5.3-9.4 5.9-17.6 1.8-23.6 3.3-47.8 5.1-72.2.6-8.2 2.5-16.5-7.3-14.1.1-2.8.1-5.7.4-8.4 30-4.3 71.3-23 86.3-8.2 5.8 7.5 3.1 21.4 2.2 33.6-1.1 14.8-1.9 30.2-3.1 46.3-.4 5.8-3.6 21.4 3.1 19.7.5.6 2.1-.4 3-.4.1 1.1.2 2.1-.1 3 .1 1.9 0 3.7-.3 5.4-13.3 2.8-27.3 6.5-40.1 8.6 1.7-27.3 3.9-59.2 5.9-87.7.5-6.6 2.1-14.5-2.1-17.6-4.6-7-13.2 2.2-15.1 8.4-2 6.7-1.8 17.5-2.3 25.1l-5.4 76.7-40.4 9c-.1-2.8 0-5.5.1-8.3 1.3-.6 3.4-.5 4.2-1.3"/><path class="st20" d="m646.1 396.3-446.5 99.2 1.7 26.5 446.6-99.2zM297.8 409l31.9-7.1 1.7 25.2-32 7.1z"/><path class="st20" d="m629.8 343.6-350 77.7 4.4 66.9 350-77.7z"/><path class="st20" d="m622.1 357.8-71.7 15.9-3.7-56.4 71.8-16z"/><path class="st20" d="m557.8 349.2-28.7 6.3 1.1 17.3 28.7-6.4zM248.8 496c-5.6-.5-3.2-8.1-2.8-14.2 1.5-20 2.6-40.2 4.1-59.8.7-9.8-.2-24.9 6.3-30.1.8-.8 2.6-.8 3.9-1.2.7-1.4.1-3.6.6-5.2 1.4-.2 3.3-1 4.2-.6 0 2.8-.2 5.4-.1 8.3l-4.2.9c-5.4 3.6-4.8 9.5-5.3 17.2-1.2 19.5-2.8 40.1-4.3 60.2-.7 8.7-1.2 17.9-2.4 24.5M283.3 480.4c1.1-16.6 0-36.9 3.6-53.5 1.4-6.4 7-18.6 12.4-10.8-5.2 1.7-7.9 9.8-8.8 15.9a356.3 356.3 0 0 0-2.6 34.6c-.4 8-1 16 .8 22-2.8-.3-4.2-2.5-5.2-5.1l-.2-3.1M463.7 452.7c-2.3.2-3.2-1.4-4.5-2.6l-2.8-42.9c-.4-5.7-2.5-15 2.3-16.2.9-.5 3.1-.1 3-1.3l3.9-.9.2 3.8c-1.6.2-4.4 1.2-5.3 2.7-.1 18.3 2.4 38.5 3.2 57.4M402.8 470.4l.6-.1c2.7-13.3 4.2-27.5 6.5-41.1 1.2 3.6 2.2 7.5 2.9 11.8-2 10.3-3.1 21.2-5 31.6-4.9.9-10.6 2.7-15.1 3.1l-.2-2.9.3-.1 10-2.3M441 423.2c1-1.2.5 1.4.8 2.2l.6 9.9c-3.6 10.7-6.9 21.5-10.4 32.2l-8.7 1.9a7 7 0 0 1-.5-3.1c1.5-.5 3.8-.5 4.8-1.4 4.7-13.7 9-27.7 13.4-41.7M355.2 472.7l-4.5 1c.9-8.3 1.3-16.9 2.3-25.1l23.2-5.2c.8-1.3.3-3.5.9-4.9.9-.7 3.6-1.3 4.5-1-.5 2.8-.4 6.1-1.3 8.6l-22.9 5.1c-1.4 6.6-1.2 14.5-2.2 21.5"/><path class="st20" d="M321.4 469.9c1.3-.2 3.1-1 3.9-.6 3.5 19.6-20.6 29.2-39.5 31.6-7.1.9-14.6.4-17.9-3.1a37 37 0 0 0 15.3.2c2.7-.1 7.6-1.2 10.2-2.3 15.4-4.4 27.6-11 28-25.8M536.3 439.9c.2-3.9.1-8.1.8-11.7l3.6-.8c0 5.7-.5 11-.8 16.4l-67.2 14.9c-.2-1.4.4-2.1.1-3.6l.3-.1c21-4.9 42.8-9.1 63.3-14.4l-.1-.7M381.7 465.3c1.4-.2 3.3-1 4.2-.6-.1 4.5-.5 8.7-.7 13.2l-55.5 12.3c-.1-1.2.4-1.9.1-3.3l.3-.1c16.8-3.9 34.4-7.2 50.6-11.5.9-3 .4-6.8 1-10"/><path class="st0" d="m618.4 299-.8.1-.9.1-1.2.3-1.1.2-.4.1-.2.1-.4.1h-.4l-.3.1c-1.7.2-3.7.7-5.3 1.1-7.8 2.2-17.8 4.4-25.6 5.7l-1.5.3c-1.5 1-4.3 1.1-6.3 1.7l-29.8 6.6v.1l76.5-16.9c-1 .2-1.4.3-2.3.3M642.3 344.1c-.6 7.1-.8 14.5-1.3 21.6-1.2 15.6-2.4 30.6-2.9 44.2.9 0 2.6-1 3-.4.1 1.1.2 2.1-.1 3l4.5-1c.1 3.1-.7 5.6-.3 9-11.8 3.3-27.4 6.2-40.7 9.3-.1-1.8 0-2.5.1-3.6-1.1 0-4.7 1.6-4 .3 1.7-27.3 3.9-59.2 5.9-87.7.5-6.6 2.1-14.5-2.1-17.6-10.2 2.6-11 11.8-11.7 21.8-2.1 28.6-5.1 63.6-6.9 91.2-13.4 2.6-28.3 7.1-40.7 8.5-.3-1.2.3-1.8.1-3-1.2.1-3.2 1.1-3.9.6-.1-2.8 0-5.5.1-8.3.8-.9 2.9-.8 4.2-1.2 5.8-3.3 5.3-9.4 5.9-17.6 1.8-23.6 3.3-47.8 5.1-72.2.6-8.2 2.5-16.5-7.3-14.1.1-2.8.1-5.7.4-8.4 30-4.3 71.3-23 86.3-8.2 10.4 2.7 7.4 20.9 6.3 33.8M472.7 458.7c-.2-1.4.4-2.1.1-3.6l-3.6.8-.1-1.2.3-.1c-.1-1.3.3-2.2.4-3.3-.5-1.9 2.4-1.4 3.8-2 4.5-4.4 3.3-11.3 3.8-17.4 1.1-15 2.6-31.3 3.6-47.3.3-4.8 1.7-10.8-2.3-11.3l-3 .7-.4-6.7 60-13.3c1-.2 2.8-.8 4.2-.9 1.7-.2 3.6-1.2 2.5.9l.1 2c1.5 0 2.7-1.2 3.6-.8-.1 4.9-.6 11.5-.7 17.3l-6.6 1.5c-.4-.8.1-1.8-.2-3.2l-3.6.8c-.2-1.4.5-2.5-.2-3.5l-25 5.6c-1.2 7.7-1.3 16.2-2.4 23.9l25-5.6c-.1 1.1-.5 2.1-.4 3.3l3.9-.9c-.1 3.7-.5 7.2-1.1 10.6l-28 6.2c-1.7 8.4-1.5 18.2-2.8 27 9.4-3.4 25.7-2 27.4-10.8l-.1-1.2c1.8 0 7-2.6 6.1-.2l.1 2 3.6-.8c0 5.7-.5 11-.8 16.4l-67.2 15.1zm-4.2.7c-6.6 1.7-14.1 2.7-20.2 4.8-.4-.8.2-2.5-.5-3.4l-3.6.8-1.7-26.3c-3.6 10.7-6.9 21.5-10.4 32.2l-8.7 1.9a7 7 0 0 1-.5-3.1c-1.4.1-3.9 1.6-3.7-.4-2.1-8.3-3.9-17-6.2-25-2 10.3-3.1 21.2-5 31.6-4.9.9-10.6 2.7-15.1 3.1l-.2-2.9c-1.1.1-3 1-3.6.5-.5-.5-.7-3.1-.2-3.8.4-.8 2.1-.6 3-1 .9-.9 2.9-3.1 3.4-4.9 2.1-8.4 3.4-19.4 5.1-29.8.8-5.1 1.5-10.2 2.4-15 .9-5.1 2.8-10.5.9-14.4-.8-.5-2.2-.2-3.7.2-.1-1.7 0-3.1.3-4.5l1.5-.3c5.6-1.7 13.3-3.5 19-4.2l.3-.1c-.1 1.3.3 1.9.5 2.9l3.3-.7c2.4 8 3.9 17.1 6 25.6 3.7-10.4 6.7-21.3 10.2-31.9 6.1-1.8 14.3-3.7 20.5-4.6.7.3.3 2.2.5 3.1l3.9-.9.2 3.8c-1.6.2-4.4 1.2-5.3 2.7-.2 18.2 2.3 38.4 3.1 57.3.1.2.3.2.3.5 1.4.6 1.7 2.4 4.1 1.8l.1 4.4zm-84.8-38.6-.2-3.5-3.9.9c.4-.6.4-2.9-.2-3.2.1.5-.2.6-.6.7-5.4 1.9-12.2 2.8-18.1 4.3-.5.2-1.5 0-1.2.9 0 2.1-.4 4-.5 6-.4 3.2-.7 6.8-.8 10.8 0 .6-.3 1.3.1 1.5 5.8-.1 14-3.8 19.3-4.1.2 0-.1.6-.3.5.3 1.2-.4 1.8-.1 3 .9-.7 3.6-1.3 4.5-1-.5 2.8-.4 6.1-1.3 8.6l-22.9 5.1c-1.5 6.7-1.3 14.5-2.3 21.5l18.4-4.1c1.6-1.3 3-2.7 3-5.1 1-.6 6.4-2.5 4.9.1l.1 1.7c1.4-.2 3.3-1 4.2-.6-.1 4.5-.5 8.7-.7 13.2l-55.5 12.3c-.1-1.2.4-1.9.1-3.3l-4.2.9-.1-1.2.3-.1c-.1-1.3.3-2.2.4-3.3.4-.8 2.1-.6 3-1 3.3-1.8 2.9-9.6 3.3-14.9l2.7-38.5c.4-4.9 2.4-10.7-3.9-8.9-.5-.3-.7-2.7-.2-3.2l-.1-2c17.6-4.4 37.3-8.8 54.9-12.2.3 1.2-.1 2-.1 3l4.2-.9c.4 5.3-.2 9.9-.6 14.6-1.2.9-3.8.9-5.6 1.5m-97.9 80c-7.1.9-14.6.4-17.9-3.1-3.7-1.6-7.3-3.2-8.2-8.2-.5-.5-.7-3.1-.2-3.8l3.5-45.5c.9-11.5 1.2-18.5 9.4-24.9 12.1-9.4 41.9-16.2 50-7.8 6.8 0 7.1 10.7 6.1 17.9-8 2-15 2.9-22.9 4.8-.1-1.2-.2-2.4.1-3.3-.9-.5-2.9.5-4.2.6-.1-1.2.4-2.2.1-3.6l-.2-2.9c-.1-2.3-.8-3.9-1.9-4.9-5.2 1.7-7.9 9.8-8.8 15.9a356.3 356.3 0 0 0-2.6 34.6c-.4 8-1 16 .8 22 7.2-1.9 8.1-8.2 8.8-14.7l-.1-2c7.8-1.5 16.3-4 23.5-4.9.6.4.3 1.9.5 2.8 1.3-.2 3.1-1 3.9-.6 3.4 19.6-20.8 29.3-39.7 31.6m-28.9 6.2-49.4 11c-.3-1.3.4-1.9.1-3.3.3 0 .3-.2.3-.4-1.3.1-3.4 1.1-4.2.6.1-2.6.3-5.2.7-7.6 10.1-1.4 9.1-10.6 9.7-19.6 1.6-22.6 3.7-47.8 5.4-71.4.6-8.7 2.9-16.8-7.4-14.3-.1-3.1 0-6.1.3-9l48.5-10.8c.3 1.3-.4 1.9-.1 3.3 1.4-.2 3.3-1 4.2-.6 0 2.8-.2 5.4-.1 8.3l-4.2.9c-5.4 3.6-4.8 9.5-5.3 17.2-1.2 19.5-2.8 40.1-4.3 60.2-.7 8.7-1.2 17.8-2.4 24.5.3.6 1.7-.3 2.4-.2l1.8-.4c-.1.7.5 2-.1 2.4v.6c1.6-.5 2.5 0 4.2-.6.6 3.4.1 6.2-.1 9.2m391.2-110.9c.8-11.5 1.6-23.5 2.6-35.8.9-11.9 2.8-24.3 2.9-35.6.2-19.7-13.8-25.4-30.1-25.9L544 316.2c-.8 3.1-.1 7.2-1 10.3l-.5 10.8c-.4 0-.5.2-.6.4.8 1.6.2 4.6-.2 6.3.3 1.2.2 1.8.4 3-3.9.7-.7.5-4.1.5-2.5 1.2-6.3 1.5-9.3 2.4l-14.2 3.1c-11.5 3.2-24.4 5.5-36.5 8.4l-9.6 2.1.8 12.8c-3.4 1.4-8.1 1.9-12 3l-23.5 5.2c-15.3 3.2-31.3 7.4-46.1 10-2.7.3-9.5 2.7-11.8 2.3-2.2 1.2-5.7 1.4-8.4 2.2v.3c-9.8 1.5-22.4 4.9-31.7 6.7-7.1-14.3-39.3-9.3-58.6 1.2-5.1 2.8-9.1 6.1-12.9 9.1l.8-11.1c1.7-.6 6.3-1 8.4-2.2.4-6.9.9-13.7 1.1-20.7l-5.9-5.8.4-.1h-.1l-44.6 9.8-5.9 1.3-6.3 1.3 6.3-1.5 5.6-1.2h-.1l-.1-.1-5.2 1.2-5.4 1.2-.6.1-.2.1.1.1-6.9 1.5c.1 9.9-1.1 18.9-.9 28.9 2.5-.4 5.8-1.7 7.9-1.4-1.9 26.3-4.1 52.5-6.2 78.6-1.4 1-4.1 1-6 1.6-1.8-.1-1.2 1.4-2.7 1.5-.5 9.5-2.2 18.2-2.5 27.8C348.3 493 501.7 459.4 654 425.3c.4-9.4 1.1-18.7 1.2-28.4l-.6.1c-2.1.3-5 1.5-6.7 1.2.2-.6-.4-1.8.2-2.1"/><path class="st21" d="M622.5 298.7h-.7"/><path class="st17" d="M379.3 415c-.4-1.2-1.1-1.5-2-1.9v-.3l-21.4 4.8c-.4.3-.4 1-.5 1.6.1 4.1-.7 7.5-.8 11.4-.6 2.8-.8 6.8-1.2 9.7 0 0 .1-.6 0 0 1.2.1 3.3-.6 4.8-.8 6.2-1.2 13.2-3.3 19-3.9.3 1.2 0 1.1-.1 3-.3 1.5-.1 3.6-.9 4.9l-23.2 5.2c-1.1 8.2-1.4 16.8-2.3 25.1 1 .5 3.1-.6 4.5-.7 6-1.5 12.9-2.5 18.4-4.4 2.1-1.2 3-2.7 3-5.1l4.8-1.1.1 1.2.1 1.7c-.2 3.1-.1 7-.9 10L330 486.6l-4.2.9-.1-.9c-.1-1.3.3-2.2.4-3.3.9-.4 1.9-.4 3-1 3.3-1.8 2.9-9.6 3.3-14.9l2.7-38.5c.4-4.9 2.3-10.7-3.9-8.9l-.2-3.2-.1-2 54.9-12.2c.3 1.2-.1 2-.1 3l-.5 11.4-1.8.4-3.9.9c.4-.7.3-2.7-.2-3.3"/><path class="st22" d="M379.3 415c-.4-1.2-1.1-1.5-2-1.9v-.3l-21.4 4.8c-.4.3-.4 1-.5 1.6.1 4.1-.7 7.5-.8 11.4-.6 2.8-.8 6.8-1.2 9.7 0 0 .1-.6 0 0 1.2.1 3.3-.6 4.8-.8 6.2-1.2 13.2-3.3 19-3.9.3 1.2 0 1.1-.1 3-.3 1.5-.1 3.6-.9 4.9l-23.2 5.2c-1.1 8.2-1.4 16.8-2.3 25.1 1 .5 3.1-.6 4.5-.7 6-1.5 12.9-2.5 18.4-4.4 2.1-1.2 3-2.7 3-5.1l4.8-1.1.1 1.2.1 1.7c-.2 3.1-.1 7-.9 10L330 486.6l-4.2.9-.1-.9c-.1-1.3.3-2.2.4-3.3.9-.4 1.9-.4 3-1 3.3-1.8 2.9-9.6 3.3-14.9l2.7-38.5c.4-4.9 2.3-10.7-3.9-8.9l-.2-3.2-.1-2 54.9-12.2c.3 1.2-.1 2-.1 3l-.5 11.4-1.8.4-3.9.9c.4-.7.3-2.7-.2-3.3z"/><path class="st9" d="m441.8 425.4.3-.1 1.7 26.5c.1 2-.3 8.3.6 9 .6.5 3-.5 3.6-.5v.3l-.3.1-3.6.8-1.7-26.3-.6-9.8"/><path class="st17" d="m259.4 485.7 3.5-45.5c.9-11.5 1.2-18.5 9.4-24.9 12.1-9.4 41.9-16.2 50-7.8.9 1.3 1.8 2.6 1.8 4.9l.3 4.4c.1 2.2 0 4-.6 5.7l-8.1 1.8-4.8 1.1-5.1 1.3-.3.1c-1.2.3-2.9.7-4.3.8-.1-1.2.4-2.2.1-3.6a47 47 0 0 1-.2-2.9c-.1-2.3-.8-3.9-1.9-4.9-5.5-7.8-11.1 4.4-12.5 10.8-3.5 16.6-2.5 36.9-3.6 53.5-.1.7-.1 2.7.2 3.2 1.1 2.6 1.6 4.9 5.2 5.1 7.8-2.1 8.4-8.3 9.1-14.8 0 .4 0-.2 0 0l-.1-1.8 23.2-5.2c.6.4.3 1.9.5 2.9-.4 14.9-12.6 21.4-28 25.7l-10.2 2.3c-6.2 1.3-10.9.7-15.3-.2-3.7-1.6-7.3-3.2-8.2-8.2.1-1.3 0-2.5-.1-3.8"/><path class="st22" d="m259.4 485.7 3.5-45.5c.9-11.5 1.2-18.5 9.4-24.9 12.1-9.4 41.9-16.2 50-7.8.9 1.3 1.8 2.6 1.8 4.9l.3 4.4c.1 2.2 0 4-.6 5.7l-8.1 1.8-4.8 1.1-5.1 1.3-.3.1c-1.2.3-2.9.7-4.3.8-.1-1.2.4-2.2.1-3.6a47 47 0 0 1-.2-2.9c-.1-2.3-.8-3.9-1.9-4.9-5.5-7.8-11.1 4.4-12.5 10.8-3.5 16.6-2.5 36.9-3.6 53.5-.1.7-.1 2.7.2 3.2 1.1 2.6 1.6 4.9 5.2 5.1 7.8-2.1 8.4-8.3 9.1-14.8 0 .4 0-.2 0 0l-.1-1.8 23.2-5.2c.6.4.3 1.9.5 2.9-.4 14.9-12.6 21.4-28 25.7l-10.2 2.3c-6.2 1.3-10.9.7-15.3-.2-3.7-1.6-7.3-3.2-8.2-8.2.1-1.3 0-2.5-.1-3.8z"/><path class="st17" d="M537.1 428.2c-.7 3.6-.5 7.8-.8 11.7 0 .1-.1.5-.3.7-2.5 2.1-11.6 2.9-15.7 3.8L473 454.9l-3.6.8-.1-.9c-.1-1.3.3-2.2.4-3.3-.1-1.6 3.1-1 3.8-2 4.5-4.4 3.3-11.3 3.8-17.4 1.1-15.1 2.6-31.3 3.6-47.3.3-4.8 1.7-10.8-2.3-11.3v-.3c-.8 0-2.4.9-2.7.3.1-1.9-.7-4.4-.1-5.9l57.6-12.8c3.2-.7 9.2-2.8 8.5-.7l.1 2c-.4 4.6-.6 9.3-.6 14l-3.3.7-3.6.8c-.2-1.4.5-2.5-.2-3.5-.1-1.9-1.2-2.5-2.6-2.7-8.2 1.1-17.6 3.8-26.2 5.5-.3.1-.2.4-.3.6-.5 9.1-1.5 17.9-2.2 26.8l3.9-.9 25-5.6c-.1 1.1-.5 2.1-.4 3.3-.5 2.2-.4 4.9-1.1 7l-28.3 6.3c-.9 10.1-1.9 20.2-2.6 30.5l3.9-.9c9.4-3.4 25.6-1.7 27.4-10.5l.1-.3c.1-.5.3-.7.2-.9l5.7-1.3.1.9.2 2.3"/><path class="st22" d="M537.1 428.2c-.7 3.6-.5 7.8-.8 11.7 0 .1-.1.5-.3.7-2.5 2.1-11.6 2.9-15.7 3.8L473 454.9l-3.6.8-.1-.9c-.1-1.3.3-2.2.4-3.3-.1-1.6 3.1-1 3.8-2 4.5-4.4 3.3-11.3 3.8-17.4 1.1-15.1 2.6-31.3 3.6-47.3.3-4.8 1.7-10.8-2.3-11.3v-.3c-.8 0-2.4.9-2.7.3.1-1.9-.7-4.4-.1-5.9l57.6-12.8c3.2-.7 9.2-2.8 8.5-.7l.1 2c-.4 4.6-.6 9.3-.6 14l-3.3.7-3.6.8c-.2-1.4.5-2.5-.2-3.5-.1-1.9-1.2-2.5-2.6-2.7-8.2 1.1-17.6 3.8-26.2 5.5-.3.1-.2.4-.3.6-.5 9.1-1.5 17.9-2.2 26.8l3.9-.9 25-5.6c-.1 1.1-.5 2.1-.4 3.3-.5 2.2-.4 4.9-1.1 7l-28.3 6.3c-.9 10.1-1.9 20.2-2.6 30.5l3.9-.9c9.4-3.4 25.6-1.7 27.4-10.5l.1-.3c.1-.5.3-.7.2-.9l5.7-1.3.1.9.2 2.3z"/><path class="st17" d="M203.5 515c.1-2.6.3-5.2.7-7.6 10.1-1.4 9.1-10.6 9.7-19.6 1.6-22.6 3.7-47.8 5.4-71.4.6-8.7 2.9-16.8-7.4-14.3-.1-3.1 0-6.1.3-9l48.5-10.8c.3 1.3-.4 1.9-.1 3.3-.4 1.5.1 3.8-.6 5.2-1.3.4-3.1.4-3.9 1.2-6.5 5.2-5.6 20.3-6.3 30.1-1.5 19.6-2.6 39.8-4.1 59.8-.5 6.1-2.9 13.7 2.8 14.2.3.6 1.7-.3 2.4-.2 1.1 0 2 .2 1.7 2v.6c.1 2-.2 3.8-.2 5.7a6401 6401 0 0 0-48.9 10.8"/><path class="st22" d="M203.5 515c.1-2.6.3-5.2.7-7.6 10.1-1.4 9.1-10.6 9.7-19.6 1.6-22.6 3.7-47.8 5.4-71.4.6-8.7 2.9-16.8-7.4-14.3-.1-3.1 0-6.1.3-9l48.5-10.8c.3 1.3-.4 1.9-.1 3.3-.4 1.5.1 3.8-.6 5.2-1.3.4-3.1.4-3.9 1.2-6.5 5.2-5.6 20.3-6.3 30.1-1.5 19.6-2.6 39.8-4.1 59.8-.5 6.1-2.9 13.7 2.8 14.2.3.6 1.7-.3 2.4-.2 1.1 0 2 .2 1.7 2v.6c.1 2-.2 3.8-.2 5.7a6401 6401 0 0 0-48.9 10.8z"/><path class="st17" d="M391.7 468.5c.9-.9 2.9-3.1 3.4-4.9 2.1-8.4 3.4-19.4 5.1-29.8.8-5.1 1.5-10.2 2.4-15 .9-5.1 2.8-10.5.9-14.4-.8-.5-2.2-.2-3.7.2-.1-1.7 0-3.1.3-4.5l1.5-.3 19-4.2.3-.1c-.1 1.3.3 1.9.5 2.9 2.2 10.7 4.8 20.9 7 31.6 1.4-1.8 1.8-4.3 2.3-6.7 3.7-10.4 6.7-21.3 10.2-31.9l20.5-4.6.2 3.2c-.2.9-1.6.8-2.7 1.2-4.8 1.2-2.7 10.5-2.3 16.2l2.8 42.9c.8 1.4 2.1 2.8 4.5 2.6.1.2.3.2.3.5v.3c1.2 4.1-3.2 4-8.2 5.1l-7.8 1.7c-.7 0-3 1-3.6.5-.9-.7-.5-7-.6-9l-1.7-26.6-.2-3.5c-1 0-.7.9-.8 1.4-4.4 14-8.7 28.1-13.5 41.8l-4.8 1.1c-1.4.2-3.4 1.2-3.7-.1-2.1-8.3-3.9-17-6.2-25-.7-4.3-1.7-8.2-2.9-11.8-2.3 13.6-3.8 27.8-6.5 41.1l-.6.1c-2.8-.1-6.7 1.4-10 1.9l-3.9.9-.2-3.8c.6-.5 2.3-.3 2.7-1"/><path class="st22" d="M391.7 468.5c.9-.9 2.9-3.1 3.4-4.9 2.1-8.4 3.4-19.4 5.1-29.8.8-5.1 1.5-10.2 2.4-15 .9-5.1 2.8-10.5.9-14.4-.8-.5-2.2-.2-3.7.2-.1-1.7 0-3.1.3-4.5l1.5-.3 19-4.2.3-.1c-.1 1.3.3 1.9.5 2.9 2.2 10.7 4.8 20.9 7 31.6 1.4-1.8 1.8-4.3 2.3-6.7 3.7-10.4 6.7-21.3 10.2-31.9l20.5-4.6.2 3.2c-.2.9-1.6.8-2.7 1.2-4.8 1.2-2.7 10.5-2.3 16.2l2.8 42.9c.8 1.4 2.1 2.8 4.5 2.6.1.2.3.2.3.5v.3c1.2 4.1-3.2 4-8.2 5.1l-7.8 1.7c-.7 0-3 1-3.6.5-.9-.7-.5-7-.6-9l-1.7-26.6-.2-3.5c-1 0-.7.9-.8 1.4-4.4 14-8.7 28.1-13.5 41.8l-4.8 1.1c-1.4.2-3.4 1.2-3.7-.1-2.1-8.3-3.9-17-6.2-25-.7-4.3-1.7-8.2-2.9-11.8-2.3 13.6-3.8 27.8-6.5 41.1l-.6.1c-2.8-.1-6.7 1.4-10 1.9l-3.9.9-.2-3.8c.6-.5 2.3-.3 2.7-1z"/><path class="st21" d="m557.9 436.9-16.7 3.6 7.8-123.1 16.5-1.6z"/><path class="st17" d="M550.6 430c5.8-3.3 5.3-9.4 5.9-17.6 1.8-23.6 3.3-47.8 5.1-72.2.6-8.2 2.5-16.5-7.3-14.1.1-2.8.1-5.7.4-8.4 30-4.3 71.3-23 86.3-8.2 5.8 7.5 3.1 21.4 2.2 33.5-1.1 14.8-1.9 30.2-3.1 46.3-.4 5.8-3.6 21.4 3.1 19.7.5.6 2.1-.4 3-.4.1 1.1.2 2.1-.1 3 .1 1.9 0 3.7-.3 5.4-13.3 2.8-27.3 6.5-40.1 8.6 1.7-27.3 3.9-59.2 5.9-87.7.5-6.6 2.1-14.5-2.1-17.6-4.6-7-13.2 2.2-15.1 8.4-2 6.7-1.8 17.5-2.3 25.1l-5.4 76.7-40.4 9c-.1-2.8 0-5.5.1-8.3 1.3-.5 3.4-.4 4.2-1.2"/><path class="st22" d="M550.6 430c5.8-3.3 5.3-9.4 5.9-17.6 1.8-23.6 3.3-47.8 5.1-72.2.6-8.2 2.5-16.5-7.3-14.1.1-2.8.1-5.7.4-8.4 30-4.3 71.3-23 86.3-8.2 5.8 7.5 3.1 21.4 2.2 33.5-1.1 14.8-1.9 30.2-3.1 46.3-.4 5.8-3.6 21.4 3.1 19.7.5.6 2.1-.4 3-.4.1 1.1.2 2.1-.1 3 .1 1.9 0 3.7-.3 5.4-13.3 2.8-27.3 6.5-40.1 8.6 1.7-27.3 3.9-59.2 5.9-87.7.5-6.6 2.1-14.5-2.1-17.6-4.6-7-13.2 2.2-15.1 8.4-2 6.7-1.8 17.5-2.3 25.1l-5.4 76.7-40.4 9c-.1-2.8 0-5.5.1-8.3 1.3-.5 3.4-.4 4.2-1.2z"/><path d="m204.9 389.4 64.2-14.3 6.7 6.1-1.2 22.8-8.5 1.9-.6 7.7s46.8-33.3 71-9.2l131.1-29.1-.8-13 73.8-16.4 2.7-31.4 78.6-17s41.2-6.6 33 39.5a2332 2332 0 0 0-4.5 59.1l6.6-1.5-.9 31.6-463 102.8 3.7-32.4 8.7-1.6 5.2-75.6-7.9 1.3 2.1-31.3z" style="fill:none;stroke:#fff;stroke-width:3"/><path class="st0" d="m572.7 489.5-292.1 65.7-.1-44.8 292.1-65.8z"/><path class="st19" d="m572.7 489.5-292.1 65.7-.1-44.8 292.1-65.8.1 44.9z"/><text transform="matrix(.8137 -.1832 .0027 1 291.8 544.8)" class="st2 st25 st26 st27">JA</text><text transform="matrix(.8137 -.1832 .0027 1 335.3 535)" class="st2 st25 st26 st27">CKSONVILLE</text><path class="st4" d="M219.2 248.8s15.9 31.8 59.8 46.8c-14.9-1.8-51.6-23.5-59.4-18.3l-.4-28.5z"/><path transform="rotate(-21.3 271.3 407.5)" class="st2" d="M266 405.1h10.6v4.9H266z"/></svg>
