<svg xmlns="http://www.w3.org/2000/svg" viewBox="0 0 214.1 167.3" style="enable-background:new 0 0 214.1 167.3" xml:space="preserve"><style>.st6,.st7,.st8{fill:#003976}.st7,.st8{stroke:#003976;stroke-width:.365;stroke-miterlimit:3.8637}.st8{stroke-width:.1739}</style><path style="fill:#fdede7" d="m101.3 50.6-5.9 12 10.6-3 .9-6.6z"/><path style="fill:#e03a3e;stroke:#e03a3e;stroke-width:5.890000e-02;stroke-miterlimit:3.8637" d="m102.6 47.6-6.1 15.8 7.8-4.1 7-6.9z"/><path d="M59.4 23.1 5.8 164.4h56.9L78 124.1l30.3 40.8h58.5L133.6 118c14.2-6 23.9-9.6 33.4-22a452.1 452.1 0 0 0 24.9-35.3l-9.3 3.9c1.8-6.1 3.5-12 4.8-19 .9-5.1.6-8.9 1.7-15.3l-6.7 7.4c.1-6.3.4-10.9-.2-17.2-.7-6.3-.3-6.6-.9-13.3a79 79 0 0 1-19.9 19.3c-11.3 7.9-18.8 5.1-31.8 10.6a95.2 95.2 0 0 0-24.9 16.5l12-30.4H59.4z" style="fill:none;stroke:#e03a3e;stroke-width:4.7941;stroke-miterlimit:3.8637"/><path d="M63.1 28.4 13.4 159.3h45.3L76 113.9l34.9 45.9h45.7l-31.3-44.5a99.1 99.1 0 0 0 34-21.3 97.8 97.8 0 0 0 19.1-22.4l-5.2 1.8c2.6-5.3 3.9-8.5 5.6-14.2a81 81 0 0 0 3.1-13.8l-5.7 5.3a144.3 144.3 0 0 0 .9-31.2c-4.9 5.1-8 7.7-13.9 11.5-12.1 7.9-22.1 5.7-34.8 12.5A108.8 108.8 0 0 0 90.5 75l18.3-46.6H63.1z" style="fill:#fff;stroke:#003976;stroke-width:6.3922;stroke-miterlimit:3.8637"/><path d="M10.7 79.7 8 90.1a4.1 4.1 0 0 1 1.7 3L1 126.8h94.1l2.2-4.9v4.8h20.2l2.8-6.9c.5 1.1.9 1.6 1.6 2.6.9 1.2 1.6 1.9 2.8 2.8 1.3 1 2.1 1.4 3.6 2 1.5.7 2.4.9 4 1.3 2.5.5 3.9.5 6.4.5a29.3 29.3 0 0 0 12.6-2.8c4-1.9 6.4-3.3 9.5-6.5 1 2.3 2.4 3.7 3.9 4.8a26.2 26.2 0 0 0 15.3 4.4 28 28 0 0 0 9.5-1.4c3.5-1.1 6-2.4 8.3-4.1a15.4 15.4 0 0 0 5.4-7.5l3.3-8.7a7 7 0 0 0 .1-2.5 7.6 7.6 0 0 0-2.3-5.1h5.3l3.7-10.1c-.5-1.5-.9-2.3-1.7-3.7a14.4 14.4 0 0 0-4.7-4.8 24.3 24.3 0 0 0-14.1-3.8c-5.2 0-8.4.5-13 3-3.7 2-5.6 3.7-8 7.1-.5-1.9-1-2.9-2.2-4.5a11 11 0 0 0-4.1-3.3c-1.9-1-3.2-1.2-5.3-1.6-2.8-.6-4.4-.7-7.3-.7a28.9 28.9 0 0 0-16.6 5.1l1.6-2.8h-22.4l-3.2 7.6v-7.6H10.7z" style="fill:#fff;stroke:#003976;stroke-width:1.5767;stroke-miterlimit:3.8637"/><path d="M196.9 12.7c3.4 0 6.2-2.9 6.2-6.4 0-3.5-2.8-6.4-6.2-6.4s-6.2 2.9-6.2 6.4c0 3.6 2.8 6.4 6.2 6.4zm0-1.2c-2.6 0-4.7-2.2-4.7-5.1s2.1-5.1 4.7-5.1 4.7 2.2 4.7 5.1-2.1 5.1-4.7 5.1zm-2.4-1.5h1.3V6.9h.8l1.8 3.1h1.3l-1.9-3.2c1.2-.1 1.8-.7 1.8-1.9 0-1.5-.9-2.1-2.6-2.1h-2.6V10zm1.3-6.2h1.2c.7 0 1.4.1 1.4 1 0 1-.7 1.1-1.4 1.1h-1.2V3.8z" style="fill:#004990"/><path class="st6" d="m12.4 82.5-1.6 7.3c.5.2.8.5 1.1.9.5.8.6 1.5.2 2.4L4.3 124h19.1l8.8-14.4-2.5 14.4h18.8l9.2-18.7c-2-.1-3.3-.6-4.7-2a6.7 6.7 0 0 1-2-4.7h10.6l2.4-5.4c.7-1.5 1.8-3.8 3.4-3.1 1.8.7 1.1 2.2.5 3.9l-1.5 4.5h14.8l2.5-6.2a6 6 0 0 1 1.9-2.3l1.5-.9 2.6-6.7H52.6l-2.7 6.7c.4.2.6.5.9.9.4.7.5 1.2.2 2l-4.8 9.1 2.3-18.7H34.7l-11 19.2 1.8-7.9c.2-1.1.6-1.8 1.5-2.5a4 4 0 0 1 1.8-1l2.1-7.6H12.4z"/><path class="st6" d="M53.4 100.5c.4.8.7 1.3 1.4 1.9a5 5 0 0 0 3.5 1.2h78.5v1.5H71.3c.3 1 .6 1.6 1.5 2.3 1 .8 2 1.1 3.5 1h60.6v1.1h-45a5 5 0 0 0 2.1 2.4c.9.7 2 .9 3.4.9h49c-.2.8-.3 1.2-.7 1.9-.7 1.2-1.4 1.8-2.5 2.1-1.1.4-2.3.4-3.3-.1-1.1-.5-1.6-1.3-1.8-2.5h-15.5c-.5 1.5-.5 2.8.1 4.3.8 2 1.6 2.7 3.2 4 3.7 3.2 7.5 3.6 12.8 3.7 3.4.1 5.4-.6 8.7-1.7a24.2 24.2 0 0 0 13.1-9.3l3.7-9.4h2.9l-4.3 11.4c.5 1.7 1.5 3.2 2.6 4.3 2.1 2.2 4.8 3.2 8.5 4.1a28.1 28.1 0 0 0 16.2-1.2c2.8-1 4.1-1.5 6.8-3.7 2.5-2 3.2-3.8 4.5-6.9l2.6-7.5c.3-1.7.1-2.9-.8-4.4-1-1.7-2.3-2.4-4.3-2.8l-3.9-.6c-2.2-.3-3-.2-5.1-.7-1.1-.3-1.9-.4-2.6-1.3-1.1-1.3-1.2-2.9-.5-4.5.6-1.4 1.4-2 2.6-2.5 1.1-.4 1.9-.5 3.3-.1 1.1.3 1.7 1.3 1.9 2.4.2 1.4-.5 2.7-1.2 4.8h14.4l2.5-6.7a10.5 10.5 0 0 0-2.2-4.5 22 22 0 0 0-18.1-5.6c-3.6.3-5.2.6-8.7 2.4a17.1 17.1 0 0 0-7.2 6.1c-1 1.4-1.3 2.4-2.1 4a32 32 0 0 0-2.3 6.1H181c1.9.1 2.5.3 3.3 1.4.6.9.5 1.8.4 3-.3 1.9-.7 2.3-1.3 4.8a3 3 0 0 1 1.9 0c.8.2 1.4.3 2 1 1 1.1.5 2.4.1 3.9a6 6 0 0 1-1.9 3c-.8.7-1.6.9-2.7.9-1 0-1.7 0-2.4-.7-.8-.7-.9-1.4-.9-2.5.1-2 .6-2.9 1.2-4.5.7-1.7 1.1-2.3 1.7-4.1.3-.8.7-2 .4-2.8-.2-.8-.6-1-1.4-1.3h-128z"/><path class="st6" d="M140 114.4h4.1c-.5.7-1.2 1.1-2 1.1-1 0-1.6-.3-2.1-1.1zM168 98.7l.1-.4h-16.9l.7-2.9c.5-2.8.5-3.3.3-3.7-.4-.5-1.1-.5-1.7-.4-1 .1-1.7.8-2.1 1.3a40 40 0 0 0-2.3 6.1H168z"/><path class="st6" d="M144.2 98.6h-14.4l2.4-7.5c.8-2.1 1.4-3.3 3-4.8A16 16 0 0 1 142 82c3.9-1.5 6-2 9.9-2.1 2.9-.1 4.7.2 7.5.7 3 .5 5 .7 7.2 2.8 2.1 2 2.9 3.8 3 6.7l-1.6 6.7h-14.7l.6-3.6c.2-1.1 0-1.9-.7-2.6-.7-.7-1.4-.8-2.4-.9-1.3-.1-2.2.2-3.2 1a8 8 0 0 0-2 3.4c-.7 1.8-1 2.7-1.4 4.5zM133.3 82.5H117l-3 7.3c.5.1.8.3 1 .8.2.4 0 .8 0 1.2l-.4 1.7-1.9 5.1h12.6l2-5.6c.4-.9.5-1.5 1.2-2.2.6-.6 1.2-.7 2-.9l2.8-7.4z"/><path class="st7" d="m129.8 92.1-2.7 6.5h.9z"/><path class="st6" d="M109.9 98.5H88.4l2.2-5.8c.4-1.2.6-1.8.3-2.2-.4-.5-.7-.8-1.3-1l2.8-7.2h17.2l.3 16.2zM99.5 114.4l.2 9.5h16.1l3.7-9.5z"/><path class="st7" d="M96.1 114.4h1.3v.9h-1.3z"/><path class="st6" d="M86.7 98.5H83l2.6-5.7c.3-.6.5-.9 1.1-1.2.6-.3 1-.4 1.6-.3.3 0 .5.1.7.4.2.3.3.7 0 1l-2.3 5.8zM78.9 110l-1.3 2.9c-.5 1-.8 1.9-.5 2.3.3.4.8.5 1.3.4a3 3 0 0 0 1.7-1.3c.5-.8.7-1.3 1.2-2.5l.8-1.9h-3.2zM63.2 98.6h1.4l1.6-4.2.6-1.7c.1-.4.4-1 .1-1.2-.6-.2-1.3 1.8-1.5 2.2-1 2.5-1.1 2.6-2.2 4.9zM76.2 124h16.9l3-7.2c-.6 0-1-.2-1.5-.6-.6-.7-.8-1.4-.3-2.2-.8-.3-1.2-.5-2-1.1-.6-.4-.9-.8-1.3-1.3s-.5-.9-.8-1.6h-6.5l-1 2.6c-.4.9-.6 1.5-1.2 2.3-.8 1-1.4 1.4-2.6 1.9l-2.7 7.2zM54.7 123.9h19.2l2.6-6.6c-.6-.5-.8-.9-1.1-1.5a4 4 0 0 1-.1-1.9 7 7 0 0 1 .8-2l.8-1.7c-1 0-1.7 0-2.7-.3-1-.3-1.6-.4-2.4-1-.7-.5-1.1-.8-1.5-1.5a4 4 0 0 1-.7-1.8h-5.9l-1.3 3.5-1.5 4.3a5.2 5.2 0 0 1-1.7 2.6c-.8.7-1.3 1.1-2.3 1.4l-2.2 6.5zM191.6 96.4c.9-1.7 2.2-5.8-1.3-4.9-3.7.9-1.7 5.6 1.3 4.9M184.9 109.3c2.2 0 .5 5-1.5 5.4-3.8.9-2.1-6.1 1.5-5.4"/><path class="st8" d="m33.5 80-1.3 3.7 2.4-3.7zM50.2 80.2l-.1 4.2 1.7-4.2zM111.3 80.5v16.2l2.1-4.4c.1-.2.2-.4 0-.6-.1-.2-.4-.1-.7-.1l-.7-.1-.1-.5c-.1-.4 0-.7.1-1.1l3.9-9.4-3.2 5.8-.9-.6-.5-5.2zM136.2 80.3l-1.7 4.3 1.6-1.3 1.2-.8c.7-.5-.3-1.9-1.1-2.2zM97.9 126.1v-8.3l-3.4 8.2 2.1-2.8.6 2zM59.7 105.6l-10.3 20.7 2.7-.2 3.3-9.2.8-1.1c.5-.5.8-.6 1.4-.9l.9-.7c1.9-2.1 3.4-8.6 3.4-8.6h-2.2zM29.1 117.5l-4.9 8.9 3.4-.2z"/></svg>