<svg version="1.1" id="Layer_1" xmlns="http://www.w3.org/2000/svg" x="0" y="0" viewBox="0 0 808.1 619.9" style="enable-background:new 0 0 808.1 619.9" xml:space="preserve"><style>.st0{fill:none}.st1{fill:#fff}.st2{fill:#a9a9a9}.st3{fill:#595557}.st4{fill:#f06023}</style><path class="st0" d="m263.2 462.3 1 13.8.2 2.6.2 3 1.4 18.1.1 1.4.1 1.2 1.2 16 1.5 20 .5 6.2.3-1.8-.9-10.9-6.4-80.3v.3z"/><path class="st1" d="m751.3 505.6-5.8-41.1 22.7-51.7H683v.1l-571-.1H25.3l26 52.7-20.6 154.4c10.9-2.2 63.3-6.5 63.3-6.5l3.5-29.3 6.1-.5-2.8 29.3c68.4-6.9 135.6-10.8 199.2-12.7l14.6-.4 7.3-.2 14.4-.3c14.3-.3 28.5-.4 42.3-.5h13.8l20.4.1 13.4.1 13.2.2a81154.4 81154.4 0 0 1 32.1.6l18.7.5c16.4.5 32.2 1 47.3 1.7l11.2.5 11 .5 10.7.5 5.3.3 10.4.6 5.1.3 10 .6 4.9.3 27.7 1.8 28.9 2.2 11.2.9 5.3.5 5.1.4 3.3.3 6.4.6 6.8.6 3.1.3 3.1.3 8.1.8 4.9.5 4.4.5 2.9.3 2.7.3 1.6.2 4.2.5 3.3.4 2.1.2 1.2.1.7.1.8.1 22.9-29.2-13-79.8-2.5-2.9zm-621.9-82.9c.3 1.1.6 2.3-.1.5l-.2-.5h.3zm610.1 184.6s-72.2-7.9-109.2-9.4l-11-24.8 2.5 24.1s-32.3-2.4-50.3-2.6l-.3-5.7-4.9 5.3s-34.8-2.4-52-2.3l-5.7-5.3.1 5.2s-137.4-3.5-206.2-.2l.3-36.3.1-7.8-1.3 7.3-6.8 37s-49.9 1.5-93.8 3.7l-2.1-35-6.8 36.7s-50.6 2.2-80.7 5.4l2.8-29.3-22.7 1.4-3.7 29.6s-28.3 2.2-46.2 4.1L60.9 465l-20.8-42.6h72.4l4.8 37.8 7.1-19.5 6.1-16.6.6-1.8h46.3l-2.2 20.6-.1.7-.2 1.6-.1.8v.2l-.1.8 2.6 3.9.1-.5.3-1.2 1.3-5.8 4.8-21H240l86.1.2h168.7l.1-.1.1-.1.4-.3H550.1l.3.3.8.8.3.3 4.2 3.8v-4.5l36.9-.4 8.7-.1v.1l2.1 15.9 1.1 8.2.5 3.5 2.3-6 8.1-21.6v-.1h63.9l74.8.1-19 42.6 5 31.3h-11l15.6 16 12 72.8-17.2 22.2z"/><path class="st1" d="m161.7 476.8.1-.7 2.6-28.1.6-6 .7-7.5h-27.8l-1 2.7-3.6 9.8-2.3 6.1-19.2 51.3-9.1-69.9-43.3.6 12.8 25.4L55 594.9s18.8-1.4 22.5-1.4l11-87.8 7.2 56.7 16.7-.8 21-59.9-9.4 87.9s5.2-.8 27.4-2.5l10.3-110.3zm-88.8 110-12.4 1.1 10.4-76h12.3l-10.3 74.9zm36.1-31.3h-8.3l-5.7-45 12.8.1 2 14.9 6.4-15.6h8.3L109 555.5zm37.3 25.7-16.1 1 7.5-72.8 16-1.1-7.4 72.9zM491.7 508.8l-.5-8-.5-8.1-.6-11-.2-4.2V474.9l-.4-6.7-.4-7.6-1.5-26.1h-24.9l1.9 37.8.1 1.1.1 2.7.1 2.3.2 3.3.2 3.9.1 2.6v.7l.1 1.1.8 15.3.2 3 .1 2.2 1.3 26.3 1.3 27 .8 15.9h25.9l-1.4-24.7-2.8-46.2zm-16.9 65.3-.6-11.6-2.9-52-.3-5.5h16.3l.2 4.3 2.6 47.6 1 17.2h-16.3zM547 536.9l1.5 21.2h-19.7l-1.5-19.1-1.2-15.4-1.6-20.6-.6-7.2-.3-3.9-.4-5.3-.4-5-.3-3.5-.1-.9-.1-1.2-.5-6.2-8.3-7.9-.4-.4-3.8-3.6h30.5l1.3 18.1.2 3 13.9.1 9.8.1-.3-3.2-.2-1.6-2.7-25.4-14.7-14.6h-39.7L495.1 448l.5 8.2 1 16.7v.7l.1 1.1.1.9v.5l.4 5.6.6 9.4.5 8.1.3 4 .3 4.7 2.8 44.2.8 13 16 15.7c23.9.4 42 1.8 42 1.8l13.2-14.4-2.6-30.6-24.1-.7zm11 39.8-37.6-1-12.8-12.4-.8-13.5-2.6-42.7-.1-2.1 9.1.5 6.3.3 2.6 36.1 1.5 20.9 29.8.5-1.1-20.5 13.9.3 1.8 22.4-10 11.2zM630.1 481.7l1.3-3.4.8-2.2 15.8-41.6h-25.3l-8.1 22.4-.8 2.3-6.1 16.9-1.1 3.2-.9 2.5-1.7 4.7-4.2 11.7-1.3-12.3v-.4l-.4-3.8-.2-1.8-.2-1.7-.2-2.2-.5-4.9-1.8-16.6-2.1-20.1h-26.4l3.8 36.8.5 4.6v.3l.1.7.5 5 .1 1.4.1.8.2 2 2 18.7 8.2 79 26.8.8-4.3-42 5.9-15.4 25.8 59.4 30 2-41.9-92 5.6-14.8zm28.3 100.6-18.7-1.1-30-67.7-11 27.6 4.8 38-17-.8L580 507h15.8l1.1 13.3 5.5-12.8 22 .7 34 74.1zM717.8 499.7l-28.5-.4-4.2-27-13.7-12.6 28.4.2 3.2 23 24.1.8-2.9-22.9 11.5-25.6-61.7-.6-6.1-.1-12.1 15.4 2.1 14.8 6 42.2 16.7 16.9 28.9.8 6 41.6-20.3-.8-2.9-22.6-25.3-1.2 4.3 31.2 17.2 17.9c20.9.9 43.5 3.5 43.5 3.5l12.5-15.4-9.9-62.3-16.8-16.8zm11.6 87.2-39.4-2.8-13.9-13.4-2.8-22.5 14 .8 3.3 21.9 31.4 2-7.9-53.6-32.2-1.5-8.1-8.3 48.7 2.4 6.7 6.6 9 57.1-8.8 11.3zM448.9 523.6l10.7-10.2-.1-2.6-.1-3.4v-1.1l-.7-15.1v-.7l-.1-2.6-.3-6.3-.2-5.5V475l-.2-3.5-1-22.1-14.7-15h-53.6l.3 30.1.1 11.5.1 5.6v4.4l.1 11.9v2.3l.1 6.3v3.6l.6 63.6v4.9l26.8.4-.1-5.8-1-46.4 9.1-.2 11 44.5 1.9 7.7 27.2.9L461 566l-12.1-42.4zm-17.7-66.4.5 11.8.3 7.1.2 5.6.1 1.3v.3l.5 13.8v.7l.2 6h-18l-.1-3.7v-.7l-.2-13.6-.1-4.2-.1-5.6-.1-7.2-1.9-1.9-9.9-9.8h28.6zm10.3 116.9-.9-3.6-11.7-49.1H410l1.2 51.5-16.1-.1-.8-62.6v-5.9H410l.1 4v.9H438.4V504.3h15.5l.2 2.7.2 3.3-.5.5-10.4 10.6 13 45.8 1.9 6.8h-16.8zM233.5 501.6l-.6-8.4-.1-1.3-.8-10.2-.3-3.4-.2-2.3-.5-7-1.5-20.5-1.1-14H192l-2.2 10-2 8.8-1.4 6.2-.3 1.3-.4 1.7-1.5 6.6-.2.9-1.4 6.2-.6 2.8-.6 2.9-23.5 105 24.8-1.4 8.3-42.4 18.4-.8 3 41.9 27.2-1.4-5.1-68.2-1-13zM203 484.1l.1-.4.4-1.9 1.2-5.6 1-4.6.2 4.6v.8l.1 2.1.1 2.6v1.4l.1 3 .1 1.8 1.3 30.4-12.3.5 7.7-34.7zm14.5 93.7-3-41.6-27.7.6-7.6 42.7-14.5 1 16.3-72.8 11.9-.4-4.2 18.1 24.8-.7-.6-18 12.2-.3 3-.1.2 2.9 4.7 67.3-15.5 1.3z"/><path class="st2" d="m60.5 587.9 12.4-1.1 10.2-74.9H70.8zM109.8 525.5l-2-14.9-12.8-.1 5.7 45h8.3l15.5-45.6h-8.3zM130.2 582.2l16.1-1 7.4-72.9-15.9 1.1zM228.1 506.3l-3 .1-12.1.3.6 18.1-24.8.7 4.1-18.1-11.9.4-16.3 72.8 14.5-1 7.6-42.7 27.7-.7 3 41.6 15.6-1.3-4.7-67.3zM281.8 505.2l-7.6 36.3L269 566l-4.1-30-4.1-29.7h-15.2l1.5 17.9 4.5 51.8 29.8-1.2 4.8-27 5.4-30.2 1.9-10.8.3-1.7h-11.9zM336.7 511.6l30.5.1v-1.5l.1-4.8v-1l-20.3.3-25.8.4-.1 4-.5 26.2-.6 26.2-.3 12.3h57.9v-12.2h-41.8zM443.3 521.5l10.4-10.6.5-.5-.2-3.3-.2-2.7h-15.4v4.8h-28.3v-.8l-.1-4h-15.7V510.2l.9 62.6 16.1.1-1.2-51.5h18.8l11.7 49.1.9 3.6h16.7l-1.9-6.8zM487.4 509.3l-.2-4.3h-16.3l.4 5.5 2.8 52 .7 11.6H491l-.9-17.2zM552.4 542.9l1.1 20.4-29.8-.5-1.5-20.8-2.7-36.1-6.3-.4-9-.5.1 2.1 2.6 42.7.8 13.4 12.8 12.4 37.5 1.1 10.1-11.1-1.9-22.4zM602.4 507.4l-5.5 12.9-1.1-13.3H580l6.5 71.3 17 .8-4.8-38 11-27.6 30 67.7 18.7 1.1-34-74.1zM722.6 511.9l-48.7-2.4 8.1 8.3 32.2 1.5 7.9 53.6-31.3-2-3.3-22-14.1-.7 2.8 22.5 13.9 13.4 39.3 2.8 9-11.2-9-57.1z"/><path class="st1" d="m341.7 517.6 30.7-.2v-23.7l-19.2-.1h-2.6l-8.1-.1v-3.2l.1-4 .1-4.6V476l.1-8-8.7-9-1.8-1.9 49.9.2-.2-22.9-55.4-.3h-3.3l-35 .2-.2 1.2L285 454l-.3 2-.3 1.9-.1.6-3 17.5-1 5.6-3.3 19.3-.6 3.3-1.4 8.1-3.4 19.8-1.2 7.1-.6 3.6-.3 1.8-.5-6.2-1.5-20-1.2-16.1-.1-1.1-.1-1.4-1.4-18.1-.2-3-.2-2.6-1-13.8-.8-10.4v-.2l-.3-3.4-1.1-13.4v-.2h-26.4l1.2 14.6 2.2 27 .5 5.6 1 12.9v.4l2 25 5 62.2c12-1.5 39.4-1.4 39.4-1.4l5.4-30.6 2.9-16.8 4.6-26 .4-2.5.4-2.1 3.7-21.1.5-2.7.5-2.9.5-2.9.1-.6 2.6-14.7.3-1.5 1.7-9.6.9-5.1 1.9-.5 3-.8 2.1-.7-.4 17.7-.1 6.4-.2 9-.1 3.4-.1 3V482l-.5 21.9-.1 5.2-.6 26.3-.5 24.6-.4 20.2 69.4-1.1V556l-42.3.4.1-38.8zm-48.2-10.8-1.9 10.7-5.4 30.2-4.8 27-29.8 1.2-4.4-51.8-1.5-17.9h15.2l4.1 29.7 4.1 30 5.2-24.6 7.6-36.2v-.1h12l-.4 1.8zm84.1 54.8v12.2h-57.8l.3-12.3.6-26.2.6-26.2.1-4 25.8-.4 20.3-.3v1.1l-.1 4.8v1.5l-30.5-.1-.9 50h41.6z"/><path d="M129.4 422.7h-.3l.2.5c.7 1.8.4.6.1-.5z"/><path d="M729.1 496.4h11l-5-31.3 18.8-42.4-74.8-.1H615.2v.1l-8.1 21.6-2.3 6-.5-3.5-1.1-8.2-2.1-15.9v-.1l-8.7.1-36.9.4v4.5l-4.2-3.8-.3-.3-.8-.8-.3-.3H495.2l-.4.3-.1.1-.1.1H325.9l-86.1-.2h-56.1l-4.8 21-1.3 5.8-.3 1.2-.1.5-2.6-3.9.1-.8v-.2l.1-.8.2-1.6.1-.7 2.2-20.6H131l-.6 1.8-6.1 16.6-7.1 19.5-4.8-37.8H40.2L60.9 465 41.5 608.3c17.9-2 46.2-4.1 46.2-4.1l3.7-29.6 22.7-1.4-2.8 29.3c30.2-3.2 80.7-5.4 80.7-5.4l6.8-36.7 2.1 35c44-2.1 93.8-3.7 93.8-3.7l6.8-37 1.3-7.3-.1 7.8-.3 36.3c68.8-3.3 206.2.2 206.2.2l-.1-5.2 5.7 5.3a986 986 0 0 1 52 2.3l4.9-5.3.3 5.7c17.9.3 50.3 2.6 50.3 2.6l-2.5-24.1 11 24.8c37 1.5 109.2 9.4 109.2 9.4l17.2-22.1-12-72.8-15.5-15.9zM124 589.6l9.4-87.9-21 59.9-16.7.8-7.2-56.7-11 87.8c-3.7 0-22.5 1.4-22.5 1.4l17.3-134.4-12.8-25.4 43.3-.6 9.1 69.9 19.2-51.3 2.3-6.1 3.6-9.8 1-2.7h27.8l-.8 7.5-.6 6-2.6 28.1-.1.7-10.3 110.4c-22.3 1.6-27.4 2.4-27.4 2.4zm88.3-5.6-3-41.9-18.4.8-8.3 42.4-24.8 1.4 23.5-105 .6-2.9.6-2.8 1.4-6.2.2-.9 1.5-6.6.4-1.7.3-1.3 1.4-6.2 2-8.8 2.2-10h36.4l1.1 14L231 469l.5 7.1.2 2.3.3 3.4.8 10.2.1 1.3.6 8.4 1 12.7 5.1 68.2-27.3 1.4zm171.4-10.4v5.2l-69.4 1.1.4-20.2.5-24.6.6-26.3.1-5.2.5-21.9v-2.6l.1-3 .1-3.4.2-9 .1-6.4.4-17.7-2.1.7-3 .8-1.9.5-.9 5.1-1.7 9.6-.3 1.5-2.6 14.7-.1.6-.5 2.9-.5 2.9-.5 2.7-3.7 21.1-.4 2.1-.4 2.5-4.6 26-2.9 16.8-5.4 30.6s-27.3-.1-39.4 1.4l-5-62.2-2-25v-.4l-1-12.9-.5-5.6-2.2-27-1.2-14.6H260.9v.2L262 448l.3 3.4 6.5 80.3.9 10.9.6-3.6 1.2-7.1 3.4-19.8 1.4-8.1.6-3.3 3.3-19.3 1-5.6 3-17.5.1-.6.3-1.9.3-2 3.1-18.5.2-1.2 35-.2h3.3l55.4.3.2 22.9-49.9-.2 1.8 1.9 8.7 9-.1 8v5.7l-.1 4.6-.1 4v3.2l8.1.1h2.6l19.2.1v23.7l-30.7.2-.4 38.4 42.3-.4v18.2zm53.9 5.4-1.9-7.7-11-44.5-9.1.2 1 46.4.1 5.8-26.8-.4v-4.9l-.6-63.6v-3.6l-.1-6.3v-2.3l-.1-11.9v-4.4l-.1-5.6-.1-11.5-.3-30.1h53.6l14.7 15 1 22.1.2 3.5v1.1l.2 5.5.3 6.3.1 2.6v.7l.7 15.1v1.1l.1 3.4.1 2.6-10.7 10.2 12 42.6 3.8 13.7-27.1-1.1zm32.3.9-.8-15.9-1.3-27-1.3-26.3-.1-2.2-.2-3-.8-15.3-.1-1.1v-.7l-.1-2.6-.2-3.9-.2-3.3-.1-2.3-.1-2.7-.1-1.1-1.9-37.8h24.9l1.5 26.1.4 7.6.4 6.7V477.7l.2 4.2.6 11 .5 8.1.5 8 2.6 46.4 1.4 24.7h-25.7zm90.6 2.7s-18.1-1.4-42-1.8l-16-15.7-.8-13-2.8-44.2-.3-4.7-.3-4-.5-8.1-.6-9.4-.4-5.6v-.5l-.1-.9-.1-1.1v-.7l-1-16.7-.5-8.2 12.4-13.5H547.2l14.7 14.6 2.7 25.4.2 1.6.3 3.2-9.8-.1-13.9-.1-.2-3-1.3-18.1H509.4l3.8 3.6.4.4 8.3 7.9.5 6.2.1 1.2.1.9.3 3.5.4 5 .4 5.3.3 3.9.6 7.2 1.6 20.6 1.2 15.4 1.5 19.1h19.7l-1.5-21.2 24 .7 2.6 30.6-13.2 14.3zm75.9 3.9-25.8-59.4-5.9 15.4 4.3 42-26.8-.8-8.2-79-2-18.7-.2-2-.1-.8-.1-1.4-.5-5-.1-.7v-.3l-.5-4.6-3.8-36.8H593l2.1 20.1 1.8 16.6.5 4.9.2 2.2.2 1.7.2 1.8.4 3.8v.4l1.3 12.3 4.2-11.7 1.7-4.7.9-2.5 1.1-3.2 6.1-16.9.8-2.3 8.1-22.4H647.9l-15.8 41.6-.8 2.2-1.3 3.4-5.6 14.7 41.9 92-29.9-1.9zm95.6 7.8s-22.6-2.6-43.5-3.5l-17.2-17.9-4.3-31.2 25.3 1.2 2.9 22.6 20.3.8-6-41.6-28.9-.8-16.8-16.9-6-42.2-2.1-14.8 12.1-15.4 6.1.1 61.7.6-11.5 25.6 2.9 22.9-24.1-.8-3.2-23-28.4-.2 13.7 12.6 4.2 27 28.5.4 16.9 16.8 9.9 62.3-12.5 15.4z"/><path d="M206.4 487.9v-1.8l-.2-2.9v-1.5l-.1-2.6-.1-2.1-.1-.6v-.3l-.2-4.6-1 4.6-1.2 5.6v.1l-.4 1.9-.1.4-7.5 34.7 12.3-.5zM414.5 468.9l.1 7.2.1 5.6.1 4.2.2 13.6v.7l.1 3.7h18l-.3-6v-.7l-.5-13.8-.1-.3v-1.4l-.2-5.6-.3-7.1-.5-11.8h-28.5l9.9 9.9zM382.3 406.2c0-.1-.1-.1 0 0-.1-.1-.1-.1 0 0 0-.1 0-.1 0 0z"/><g><path class="st0" d="m368.3 181.6 26.6 48.1-.9-79.9z"/><path class="st1" d="m568.7 231.2-2.5-48.4 148.1 1.6-7.4-70.6L808.1.9 320.5 0l-41 52.2L282.2 0 0 .7l103.1 114-30.8 304.5c58.1-3.5 181.4.9 181.4.9l4.9-72.4 38.2 73.2c156.7-3.5 350.4-1.4 350.4-1.4l85.5-56.8-13.2-129-150.8-2.5zm79.9 168.9-166.3-3.2-21.8-13.6 6.7 13.6s-146.9-.9-165.5.4L247 292.5l-6.9 105.2-151.2 5.5 29.4-295-85-91.9 233-1.4-5.6 85.1 67.5-85 446 .9-82.5 93 6.1 60.6-133.8-2.1-3.5-47h-11.7l6.6 172.4 17.8-.1-3.9-47.1 136.3 3.1 11 106.1-68 45.3z"/><path d="m569.2 245.6 3.9 47.1-17.8.1-6.6-172.4h11.7l3.5 47 133.8 2.1-6.1-60.6 82.5-93-446-.9-67.4 85.1 5.6-85.1-233 1.4 85 91.9-29.3 295 151.2-5.5 6.9-105.2 54.6 104.8c18.6-1.3 165.5-.4 165.5-.4l-6.7-13.6 21.8 13.6 166.3 3.2 67.9-45.3-11-106.1-136.3-3.2zm-254.8 133-63.2-126.4-25.5 31.9L219 381s-80.8.6-106.4 3.3l29.1-285.2-58.3-65.2 158.8-.8-8.7 135.7L338.1 33.3l99.1-.2L323 176.2l107 202.4s-77.2-1.3-115.6 0zm97-85.4-62.5-112.5 60-74 2.5 186.5zM642.1 382s-139.4-5-156.3-3.4l-56.9-37S427 82.9 426.5 69l49.8-35.9 251.5.7L669 98.7l5.2 46.4-91.1-.8-3.2-48.4h-96.5l41.5 28.4 8.3 192.8 62.2 1.2-3.5-49 94.6 2.5 7.8 75.2-52.2 35z"/><path d="m408.9 107.5 1.7 183.4-60.2-111 61 113.3-2.5-186.5-58.5 73.2z"/><path d="m411.4 293.2-61-113.3 58.5-73.2-60 74z"/><path class="st3" d="m591.9 269.3 3.5 49-62.2-1.2-8.3-192.8-41.5-28.4h96.5l3.2 48.4 91.1.8-5.2-46.4 58.8-64.8-251.5-.7-49.8 35.9c.5 13.9 2.4 272.6 2.4 272.6l56.9 37c16.9-1.6 156.3 3.4 156.3 3.4l52.2-35-7.8-75.2-94.6-2.6zM640 373.9s-134.5-4-150.7-3.2l-51.6-33.3-2.3-264.2 44.7-31.6h229l-48.9 54.2 4.6 40.5-73.1-.2-3.9-48.8-132.6-.4 61.5 42.6 8.6 196 79 .5-2.9-47.8 77.9 1.8 7 63-46.3 30.9z"/><path class="st3" d="m437.2 33.1-99.1.2-104.6 135.5 8.7-135.7-158.8.8L141.7 99l-29.1 285.2C138.2 381.6 219 381 219 381l6.7-96.8 25.5-31.9 63.2 126.4c38.4-1.3 115.6 0 115.6 0L323 176.2 437.2 33.1zm-21.4 337s-90.9-2-96.3.4L253 236.7 216.8 281l-5.8 91.3s-41.1.9-89.1 2.7l28.4-279.2-47.6-53.6h130.4L223.3 197l119-155.4h76.6L312.6 176l103.2 194.1z"/><path class="st1" d="m601.5 278.1 2.9 47.8-79-.5-8.6-196-61.5-42.6 132.6.4 3.9 48.8 73.1.2-4.6-40.5L709 41.6H480l-44.7 31.6 2.3 264.2 51.6 33.3a7194 7194 0 0 1 150.7 3.2l46.3-31-7-63-77.7-1.8zm30.3 85.8s-97.2-2.5-136.6-2.4l-42.1-27.4s-1-115.5-2.2-135l53.5 1.7L509 334l112.2 2-3.4-49.2 46.4 2 4.4 49.5-36.8 25.6zM418.9 41.6h-76.6L223.3 197l9.8-154.8H102.7l47.6 53.6L121.9 375c48-1.8 89.1-2.7 89.1-2.7l5.8-91.3 36.2-44.2 66.6 133.8c5.4-2.5 96.3-.4 96.3-.4L312.6 176 418.9 41.6zm-25.7 319.3h-61.8L257 211.1 201.4 280l-5.7 84s-22.4-.1-56.3 2l14.8-157.7 53.2-4.3-2.6 33.6 29.8-35.9 74.2-2.7 84.4 161.9z"/><path class="st1" d="m365.4 181.6 31 53.4-.9-90-30.1 36.6zm2.9 0 25.7-31.8.9 79.9-26.6-48.1z"/><path class="st1" d="M408.9 107.5 350.4 180l60.3 111-1.8-183.5zm-43.5 74.1 30.1-36.6.9 90-31-53.4z"/><path class="st4" d="m234.6 201.7-29.8 35.9 2.6-33.6-53.2 4.3L139.4 366c33.8-2 56.3-2 56.3-2l5.7-84 55.7-68.9 74.4 149.8h61.8L308.9 199l-74.3 2.7zM617.9 286.9l3.4 49.2L509 334l-4.6-133.2-53.5-1.7c1.3 19.6 2.2 135 2.2 135l42.1 27.4c39.4-.2 136.6 2.4 136.6 2.4l37-25.4-4.4-49.5-46.5-2.1z"/></g></svg>