<?xml version="1.0" encoding="UTF-8" standalone="no"?>
<svg xmlns:rdf="http://www.w3.org/1999/02/22-rdf-syntax-ns#" xmlns="http://www.w3.org/2000/svg" height="226.69261" width="209.67287" version="1.1" xmlns:cc="http://creativecommons.org/ns#" xmlns:dc="http://purl.org/dc/elements/1.1/" viewBox="0 0 209.67287 226.69261"><path d="M104.83644,0c14.62534,0,21.032,5.69482,21.032,5.69482a2.62081,2.62081,0,0,0-1.22956.906s5.24182-.25885,13.91348,2.20027A64.10235,64.10235,0,0,1,157.19,18.11988s-3.04156.06471-4.46525,1.68256A61.21665,61.21665,0,0,1,165.538,28.92709,71.71658,71.71658,0,0,1,176.863,42.71115l1.68257,2.78269s-3.23569-2.07084-5.889-1.359c3.88284,4.85354,7.11853,8.4128,15.143,16.24318,7.248,6.27724,21.87328,20.90258,21.87328,31.83921,0,12.03678-7.37738,19.28473-19.47888,39.41075a19.1942,19.1942,0,0,0-2.265,9.8365c.453,6.27724,4.27112,8.21866,4.27112,8.21866a18.1227,18.1227,0,0,1-8.4128,4.78882,8.20019,8.20019,0,0,1-3.7534-.06472,77.32316,77.32316,0,0,1-17.73159,27.56811A228.83789,228.83789,0,0,1,133.44,205.79005a22.51375,22.51375,0,0,0,3.04155-6.21254c-5.1771,5.11239-19.6083,17.21389-31.64508,27.1151-12.03678-9.83651-26.468-22.00271-31.64507-27.1151a21.47539,21.47539,0,0,0,3.04155,6.21254,233.59816,233.59816,0,0,1-28.86238-23.81469,78.44059,78.44059,0,0,1-17.73159-27.56811,8.20023,8.20023,0,0,1-3.75341.06472,18.12277,18.12277,0,0,1-8.4128-4.78882s3.81812-1.94142,4.27112-8.21866a18.56411,18.56411,0,0,0-2.265-9.8365C7.37738,111.56668,0,104.31873,0,92.282,0,81.34531,14.56062,66.72,21.87328,60.44274a167.99213,167.99213,0,0,0,15.143-16.24318c-2.65326-.64714-5.889,1.359-5.889,1.359l1.68256-2.7827a73.96349,73.96349,0,0,1,11.32493-13.784,62.16513,62.16513,0,0,1,12.81334-9.12465c-1.4237-1.61785-4.46526-1.68256-4.46526-1.68256a62.3304,62.3304,0,0,1,18.63759-9.3188C79.79217,6.342,85.034,6.66552,85.034,6.66552a2.20144,2.20144,0,0,0-1.22956-.906S90.21111,0,104.83644,0Z" fill="#ad9567"/><path d="M104.83644,5.24182a41.95815,41.95815,0,0,0-11.2602,1.48842,15.78932,15.78932,0,0,1,3.55926,2.718s-8.54223-.84128-21.032,2.91213A118.21442,118.21442,0,0,0,64.002,17.01974l6.21253,2.3297a92.31349,92.31349,0,0,0-13.91348,6.795,51.98016,51.98016,0,0,0-13.20163,11.1955,22.04977,22.04977,0,0,1,5.82425-1.359l-5.69482,8.08923c-.38829.453-7.76567,10.93665-14.75476,17.08446-1.03542.906-7.95981,7.76567-9.18937,8.93052C1.68256,88.39913,4.78882,93.77038,9.90122,106.84258c2.84741,7.31267,15.79018,23.87942,16.43732,29.57423a28.06183,28.06183,0,0,1-1.87671,12.36035c2.13556,3.171,10.09536.64714,10.09536.64714s1.94142,12.81334,13.65463,25.36783a179.87745,179.87745,0,0,0,18.767,17.34331,44.85113,44.85113,0,0,1-4.46525-11.38964c15.27247,15.91961,42.38757,35.0102,42.38757,35.0102s27.11511-19.09059,42.38758-35.0102a44.85174,44.85174,0,0,1-4.46526,11.38964,179.88025,179.88025,0,0,0,18.767-17.34331c11.71321-12.6192,13.65463-25.36782,13.65463-25.36782s7.95979,2.52383,10.09536-.64714a28.24014,28.24014,0,0,1-1.87669-12.36035c.64713-5.69482,13.5899-22.26157,16.43731-29.57423,5.11239-13.13692,8.21867-18.44345-9.38351-36.75747-1.22956-1.16485-8.15395-8.02452-9.18937-8.93052-6.98909-6.0831-14.36649-16.63145-14.69006-17.08445l-5.69481-8.08924a22.89633,22.89633,0,0,1,5.82425,1.359A51.9807,51.9807,0,0,0,153.566,26.14441a92.3135,92.3135,0,0,0-13.91348-6.795l6.21253-2.3297a118.21442,118.21442,0,0,0-12.10149-4.65939c-12.48977-3.68869-21.032-2.91213-21.032-2.91213a15.78932,15.78932,0,0,1,3.55926-2.718A44.78361,44.78361,0,0,0,104.83644,5.24182Z" fill="#130c0e"/><path d="M102.05375,11.58378a26.09843,26.09843,0,0,1,16.11374,15.143l8.60695-3.55926s6.795,1.94141,11.90734,14.9489a13.49489,13.49489,0,0,1,5.75953-1.48842c3.10627,1.74727,7.95981,8.34809,8.34808,13.0722-13.33105-.32357-19.41415,5.69482-19.41415,5.69482s-.25885,9.3188-2.91213,9.38351c-35.9809.906-45.62326-.38828-48.27654-.58243l1.42371,7.31267S79.598,73.57965,75.19748,80.051a40.73271,40.73271,0,0,0-11.26022,7.9598,39.243,39.243,0,0,0-9.12465,16.955s-1.16485-3.04155-.906-15.01361a82.937,82.937,0,0,1,2.7827-18.83173,54.43866,54.43866,0,0,0-10.16006,27.374,123.73368,123.73368,0,0,0,.32357,20.579c-2.20027-6.73023-4.53-18.44345-4.65939-24.97954-.51772-16.76089,3.171-35.20434,3.171-35.20434s-9.12466,22.19685-8.86581,39.92844c.25886,17.92574,5.82425,32.35693,9.05994,38.37532a8.45775,8.45775,0,0,1-4.077,5.889,20.50444,20.50444,0,0,1-11.77792,3.10626c.906-3.171,1.74727-6.08309.906-10.03064-.77656-3.624-3.36512-8.73637-8.8658-17.2786A101.02328,101.02328,0,0,1,14.75476,106.066c-3.171-7.44209-7.89509-18.83173,7.37738-33.97477,3.88283-3.81812,6.14781-6.66553,8.34808-8.80108A148.00788,148.00788,0,0,0,45.688,45.62327c2.45913-3.23569,9.38351-13.39577,9.38351-13.39577l-2.7827.19414a65.45865,65.45865,0,0,1,5.50068-3.88283,84.06539,84.06539,0,0,1,13.331-6.5361l7.83038-2.91212-6.60081-2.45913C85.034,11.13078,102.05375,11.58378,102.05375,11.58378Z" fill="#ad9567"/><path d="M174.53327,108.07214s-3.75339,22.19685-16.3726,41.41686c16.89032-18.2493,19.673-33.6512,20.5143-47.953.97071-16.43731-7.70094-38.44-7.70094-38.44a83.51181,83.51181,0,0,1,3.49454,29.57424,44.38184,44.38184,0,0,1-9.90121,24.656S172.00942,112.60211,174.53327,108.07214Z" fill="#ad9567"/><path d="M104.83644,204.43107l21.22615-16.24318s-12.36035,8.15395-21.29086,8.15395c-8.34809,0-21.29086-8.15395-21.29086-8.15395L104.707,204.43107v.06472l.12942-.06472Z" fill="#ad9567"/><path d="M137.19337,54.68321c5.75953-3.88283,15.66075-4.85354,15.66075-4.85354s-3.81811-.77656-11.71321.12943c-7.57152.84128-15.4019,6.21252-15.53133,6.34195-8.93051,5.24183-14.62533,7.37739-16.63145,5.5654-1.55313-1.359-1.812-4.14169-1.812-4.14169l-2.39441-19.673v0l-2.45912,19.673s-.32357,2.7827-1.812,4.14169c-2.00614,1.74727-7.70095-.32357-16.63146-5.5654-.19415-.12942-8.02452-5.50067-15.53133-6.34195-7.89508-.906-11.13078-.12943-11.13078-.12943s9.3188,1.03542,15.07833,4.85354c-5.436,3.36512-9.38351,11.45435-9.38351,11.45435C68.985,67.69069,77.78606,77.72134,77.78606,77.72134h3.55926l23.42642.51771,23.42641-.51771h3.55926s8.80109-9.96594,14.88419-11.58378C146.51216,66.13756,142.62933,58.04833,137.19337,54.68321Z" fill="#130c0e"/><path d="M132.72812,83.6103c-7.83038-13.65462-18.96116-15.72547-27.76224-15.72547h-.12944c-8.86579,0-19.99657,2.13556-27.76224,15.72547,0,0-16.8256,15.143-17.14917,35.85147s12.48978,47.43527,17.79631,46.141c4.72412.77657,1.94142-21.80857,15.20776-31.51565,9.77179-5.69482,11.64849-17.08445,11.97206-20.51428.38829,3.42983,2.20027,14.81946,11.97206,20.51428,13.33106,9.64237,10.48365,32.29222,15.20776,31.51565,5.30653,1.22956,18.11988-25.43255,17.79631-46.141C149.55372,98.68863,132.72812,83.6103,132.72812,83.6103Z" fill="#ad9567"/><path d="M104.83644,97.39435c3.171-5.37125,7.11853-4.72411,12.29564-3.81811,5.11239.84128,7.89508-5.11239,6.92438-7.76566-1.359.71185-4.72412,5.56539-11.26021,1.61784-3.68869-2.265-3.49454-7.18324.64714-7.18324,4.40054,0,3.23569,4.14168,1.48842,4.6594,1.03542,2.39441,9.12466,2.78269,9.12466-4.6594s-9.7718-10.93664-19.22-10.93664h0c-9.44822,0-19.22,3.42983-19.22,10.93664s8.154,7.05381,9.12466,4.6594c-1.74727-.51772-2.91213-4.6594,1.48842-4.6594,4.14168,0,4.33582,4.983.64714,7.18324-6.53611,4.01226-9.96593-.84128-11.26021-1.61784-.97071,2.65327,1.812,8.60694,6.92438,7.76566,5.11237-.906,9.18935-1.42371,12.29561,3.81811" fill="#130c0e"/><path d="M133.37526,90.08168S146.318,104.18931,146.318,120.82076s-9.18937,32.74522-9.18937,32.74522,4.01226-12.29563,4.01226-32.80992S133.37526,90.08168,133.37526,90.08168Z" fill="#130c0e"/><path d="M103.93045,69.82625l2.7827.12942c7.57152.38828,16.24318,3.30041,16.24318,10.80721a7.09468,7.09468,0,0,1-1.359,4.72412,6.24923,6.24923,0,0,0,2.91212-5.63011c0-7.5068-9.90122-10.93664-19.41416-10.93664h0c-6.40666,0-12.6192,1.55313-16.24318,4.78883C92.67024,71.05581,98.23563,69.82625,103.93045,69.82625Z" fill="#fff"/><path d="M139.1995,86.19885c8.28338,4.46526,13.65463,10.93664,14.88419,13.58991.64714-8.99522-6.21253-23.94412-14.237-28.66824,0,0-2.718.453-8.02451,4.78883a16.193,16.193,0,0,0-4.59469,6.66552A38.16687,38.16687,0,0,1,139.1995,86.19885Z" fill="#ad9567"/></svg>