<svg version="1.1" id="Layer_1" xmlns="http://www.w3.org/2000/svg" x="0" y="0" viewBox="0 0 236.1 193.9" style="enable-background:new 0 0 236.1 193.9" xml:space="preserve"><style>.st1{fill-rule:evenodd;clip-rule:evenodd}.st1,.st2{fill:#00205c}</style><circle cx="118" cy="59.3" r="58" style="fill-rule:evenodd;clip-rule:evenodd;fill:#fdc039"/><path class="st1" d="m117.9 8.2-1.5 4.2-1.4 3.9-4.4.1c-2.4 0-4.4.1-4.4.2 0 .2 1 1.1 3.7 3.2a25 25 0 0 1 2.8 2.4c.3.3.3.4-.4 2.6-.8 2.7-1.8 6-1.7 6.1l3.6-2.3c1.9-1.3 3.7-2.3 3.9-2.3.3 0 3.4 2 6.5 4.2l.9.5c.1-.1-.4-1.9-1-4.1l-1.1-4.3c0-.2 1.4-1.4 3.6-3l3.6-2.7-3-.1-4.7-.3-1.7-.1-1.4-4-1.5-4.2c-.2-.3-.3-.2-.4 0zM78.9 37.5l-1.4 4-1.4 3.7-4.4.3-4.4.3c-.1.1.1.3 3.9 3.2 2.1 1.6 2.9 2.3 2.8 2.6l-.3 1.3-1.1 4-.8 3c.1.1 1.7-1 3.7-2.3l3.8-2.5 3.5 2.3c3.4 2.4 3.9 2.7 3.9 2.4l-1.1-4.2c-1-3.4-1.1-4.1-.9-4.3l3.2-2.6c2.9-2.2 3.5-2.8 3.4-3l-4.2-.2-4.4-.3c-.3-.2-.8-1.6-2.3-5.7l-1-2.4c-.3-.1-.4.1-.5.4zM156.7 37.5l-1.5 4.1-1.3 3.6-.8.1-3 .1a18 18 0 0 0-5.1.4l5.3 4.2c1.1.8 1.3 1.1 1.3 1.5l-1 3.9c-1.3 4.2-1.3 4.4-1.1 4.4a68 68 0 0 0 3.8-2.4L157 55l3.6 2.4a50 50 0 0 0 3.7 2.4l.1-.3-1.1-4.2c-1-3.7-1.1-3.9-.8-4.2a48 48 0 0 1 3.2-2.6c2.9-2.2 3.4-2.7 3.3-2.9l-4-.2-4.3-.2c-.5-.1-.8-.7-2.2-4.8l-1.3-3.4c-.3 0-.4.2-.5.5zM91.2 82.1l-1.4 4c-.7 1.8-.7 1.9-1.3 2l-8.3.4c-.3 0 .5.7 3.1 2.7l3.6 2.9a49.3 49.3 0 0 1-2.2 8.5c.1.2.8-.3 4.4-2.7l3.1-2 2.3 1.5c2.6 1.9 4.8 3.3 4.9 3.3.2 0 0-.9-1.1-4.7l-1-3.8 3.1-2.6 3.4-2.7.4-.4-1.3-.1-4-.1-3.1-.2c-.6-.2-.7-.6-1.8-3.7-1.2-3.6-1.6-4.5-1.8-4.5-.2.1-.6 1-1 2.2zM144.3 80.8l-2.5 6.8-.2.5-1.8.1-3.7.1-2.8.1-.9.1 1.5 1.2a37 37 0 0 1 5.5 4.6l-1.1 4.2-1.1 4.1 3.3-2 3.8-2.4.6-.3 3.6 2.5a17 17 0 0 0 3.7 2.3c.1-.1-1.6-6-2.2-7.9-.1-.4-.1-.6.6-1.2l3.2-2.6c3.5-2.7 3.4-2.6 1.2-2.7l-4.1-.1-2.6-.2c-.3-.1-.5-.5-1-1.9-1-3.2-2.2-6.2-2.3-6.2-.3.1-.5.5-.7.9z"/><path class="st2" d="m18.9 167.1.1-9.4-9.4-.1v9.4l-9.6-.1.2-28.2a28 28 0 0 1 14.3-3.6c5.2 0 10.6 1.4 14.2 3.8l-.2 28.2h-9.6zm.2-24.1c-1.3-.6-2.9-.9-4.7-.9-1.7 0-3.4.3-4.7.9v7.7l9.4.1V143zM46.2 167.2l-12.4-.1.2-28.1 12.4.1a23 23 0 0 1 14.1 4.3l-.1 19.7a23.3 23.3 0 0 1-14.2 4.1zm5.6-20.7c-1.1-.7-3-1.2-5.4-1.2h-3.8l-.1 15.7h3.8c2.4 0 4.3-.4 5.4-1.1l.1-13.4zM93.6 167.5l.1-21.3c-1.4-.5-3.4-.9-5.9-1l-.1 22.3-8.4-.1.1-22.3c-2.4.1-4.4.4-5.9.9l-.1 21.3-8.4-.1.2-25.3c5-2.3 11.3-3.4 18.5-3.3 7.2 0 13.4 1.1 18.4 3.6l-.2 25.3h-8.3zM107.3 167.6l.2-28.2 8.7.1-.2 28.2-8.7-.1zM138.3 167.8l.1-9a9.5 9.5 0 0 0-4.7-.9h-3.5l-.1 9.9-8.7-.1.2-28.2 12.5.1c5.9 0 9.9 1.1 13.1 3.6l-.1 9.5c-1.3.9-3.1 1.5-5.4 1.9 2.2.4 4.3 1.2 5.6 2.1l-.1 11.1h-8.9zm.2-21.8c-1.1-.7-2.2-.8-4.5-.8h-3.9v6.8h3.8a10 10 0 0 0 4.6-.8V146zM168.7 168l.1-8.5-8.4-.1-.1 8.5-8.6-.1.2-25.3c3.3-2.1 8.2-3.3 12.9-3.2a24 24 0 0 1 12.8 3.4l-.2 25.3h-8.7zm.2-21.7a9 9 0 0 0-4.2-.8c-1.6 0-3 .3-4.2.8v7l8.4.1v-7.1zM182.4 168.1l.2-28.2 8.7.1-.1 21.1 12 .1v7l-20.8-.1zM221.5 168.9a32 32 0 0 1-14.5-3.4v-7.2l9.6.1v2.9a15.6 15.6 0 0 0 9.7.1v-4l-19.3-3.9.1-14a31 31 0 0 1 14.5-3.2 30 30 0 0 1 14.4 3.4v7.2l-9.6-.1v-2.9c-1.5-.5-2.9-.7-4.8-.7-1.7 0-3.2.2-4.8.7v4.2l19.3 3.9-.1 13.7a31.5 31.5 0 0 1-14.5 3.2z"/><g><path class="st2" d="m47.3 130.4.1-17.7c-1-.5-2.1-.8-3.9-.8-1.7 0-2.9.2-3.9.7l-.1 17.7h-7.2l.1-20.9c2.8-1.8 6.9-2.9 11.2-2.8 4.2 0 8.3 1.1 11.1 3l-.1 20.9-7.3-.1zM69.8 131c-4.2 0-8.2-1-11.3-2.9l.1-18.6a23 23 0 0 1 11.4-2.8c4.1 0 8.2 1 11.3 2.9l-.1 18.6a23 23 0 0 1-11.4 2.8zm4.2-18.1a9.6 9.6 0 0 0-4.1-.8c-1.6 0-3 .3-4.1.7l-.1 11.9c1.1.5 2.5.8 4.1.8 1.6 0 3-.3 4.1-.8l.1-11.8zM99.4 130.7v-7.5c-1-.5-2.1-.7-3.9-.7h-2.9l-.1 8.2h-7.3l.1-23.4 10.4.1c4.9 0 8.2.9 10.9 3v7.9c-1.1.7-2.6 1.2-4.5 1.6 1.8.3 3.6 1 4.6 1.7l-.1 9.3-7.2-.2zm.1-18.1c-.9-.6-1.8-.7-3.7-.7h-3.2v5.6h3.2c1.9 0 3-.2 3.8-.7l-.1-4.2zM125 115.3v-2.4c-1.1-.4-2.3-.5-3.6-.5-1.3 0-2.5.1-3.6.5v4.4l11.5.1v5.6l-11.5-.1-.1 8.1h-7.2l.1-21.5a25 25 0 0 1 10.9-2.3c3.9 0 7.7.8 10.8 2.4v5.9l-7.3-.2zM146.5 131.4c-4.2 0-8.2-1-11.3-2.9l.1-18.6a23 23 0 0 1 11.4-2.8c4.1 0 8.2 1 11.3 2.9l-.1 18.6a22.2 22.2 0 0 1-11.4 2.8zm4.2-18a9.6 9.6 0 0 0-4.1-.8c-1.6 0-3 .3-4.1.7l-.1 11.9c1.1.5 2.5.8 4.1.8 1.6 0 3-.3 4.1-.8l.1-11.8zM161.9 131.1l.1-23.4h7.3l-.1 17.6 10 .1v5.9l-17.3-.2zM196.9 131.3v-7.9a8 8 0 0 0-4.6-1.1h-2.6l-.1 9h-7.3l.1-23.4h7.3l-.1 8.7h2.7c2.1 0 3.5-.4 4.5-1V108h7.2l-.1 9.3c-1.1.8-3 1.7-5.2 2.1 2.2.5 4.1 1.3 5.3 2.4l-.1 9.6-7-.1z"/></g><g><path class="st2" d="M15.7 186.2h-1.4v6.4h-1.4l.1-15.4h2.8c2 0 3 .5 3.9 1.7v5.7c-1 1.1-2.1 1.6-4 1.6zm2.5-6.7c-.5-.6-1.2-.9-2.5-1h-1.4v6.4h1.4c1.3 0 1.9-.3 2.5-.9v-4.5zM29.4 192.7v-6.1c-.5-.6-1.3-.9-2.5-.9h-1.7v7h-1.4l.1-15.4h3.2c2 0 2.9.4 3.8 1.6v5.3c-.4.4-1 .7-1.7 1 .7.2 1.4.5 1.8 1v6.6l-1.6-.1zm0-13.3c-.5-.6-1.1-.8-2.4-.8h-1.8v5.9h1.7c1.2 0 1.9-.3 2.4-.8l.1-4.3zM39.2 192.9c-1.5 0-2.8-.5-3.9-1.5l.1-12.9c1.1-1 2.4-1.4 3.9-1.4s2.8.4 3.9 1.4l-.1 12.9a5.2 5.2 0 0 1-3.9 1.5zm2.6-13.6a4 4 0 0 0-2.5-.8c-1 0-1.8.3-2.5.8l-.1 11.4c.7.5 1.5.8 2.5.8s1.8-.3 2.5-.8l.1-11.4zM53.5 182.6v-3.5c-.6-.4-1.3-.6-2.2-.6-.8 0-1.5.1-2.2.6v5.3h4v1.4h-4v7h-1.4l.1-14.5a5.7 5.7 0 0 1 3.6-1.1c1.3 0 2.5.3 3.6 1.1v4.3h-1.5zM62.7 193c-1.2 0-2.6-.3-3.7-1.1l.1-13.5a6.2 6.2 0 0 1 3.7-1.1c1.2 0 2.6.3 3.7 1.1v4.3h-1.4v-3.5c-.6-.4-1.4-.6-2.3-.6-.8 0-1.6.2-2.3.6v5h4v1.3h-4v5.5c.6.4 1.5.6 2.3.6.8 0 1.6-.2 2.3-.6v-3.4h1.4v4.3a7 7 0 0 1-3.8 1.1zM74.4 193.1c-1.2 0-2.5-.3-3.6-1.2v-4.2h1.4v3.4a4.3 4.3 0 0 0 4.4 0v-3.9l-5.8-3.5v-5.2a5.7 5.7 0 0 1 3.6-1.1c1.3 0 2.5.3 3.6 1.2v4.2h-1.4v-3.4c-.6-.4-1.3-.6-2.2-.6-.8 0-1.5.2-2.2.6v3.8l5.8 3.5v5.4c-1 .7-2.3 1-3.6 1zM86.1 193.2c-1.2 0-2.5-.3-3.6-1.2v-4.2h1.4v3.4a4.3 4.3 0 0 0 4.4 0v-3.9l-5.8-3.5v-5.2a5.7 5.7 0 0 1 3.6-1.1c1.3 0 2.5.3 3.6 1.2v4.2h-1.4v-3.4c-.6-.4-1.3-.6-2.2-.6-.8 0-1.5.2-2.2.6v3.8l5.8 3.5v5.4c-1 .7-2.3 1-3.6 1zM94.5 193.1l.1-15.4H96l-.1 15.4h-1.4zM104.5 193.3c-1.5 0-2.8-.5-3.9-1.5l.1-12.9c1.1-1 2.4-1.4 3.9-1.4s2.8.4 3.9 1.4l-.1 12.9a5 5 0 0 1-3.9 1.5zm2.6-13.5a4 4 0 0 0-2.5-.8c-1 0-1.8.3-2.5.8l-.1 11.4c.7.5 1.5.8 2.5.8s1.8-.3 2.5-.8l.1-11.4zM119.3 193.2l.1-13.4c-.6-.5-1.3-.8-2.4-.8-1.1 0-1.8.2-2.4.8l-.1 13.4h-1.4l.1-14.1c.9-.9 2.3-1.4 3.8-1.4s2.9.6 3.8 1.5l-.1 14.1-1.4-.1zM130.9 193.3v-6.6h-4.2v6.6h-1.4l.1-14.2c.9-.9 2.2-1.4 3.5-1.3a5 5 0 0 1 3.5 1.4l-.1 14.2-1.4-.1zm.1-13.5c-.6-.5-1.3-.8-2.1-.8s-1.5.2-2.1.7v5.5h4.2v-5.4zM137 193.4l.1-15.4h1.4l-.1 14.1h4.7v1.3H137zM159.4 193.5v-7.3h-4.7v7.3h-1.4l.1-15.4h1.4v6.8h4.7v-6.8h1.4l-.1 15.4h-1.4zM169.4 193.7c-1.5 0-2.8-.5-3.9-1.5l.1-12.9c1.1-1 2.4-1.4 3.9-1.4s2.8.4 3.9 1.4l-.1 12.9a5.2 5.2 0 0 1-3.9 1.5zm2.6-13.5a4 4 0 0 0-2.5-.8c-1 0-1.8.3-2.5.8l-.1 11.4c.7.5 1.5.8 2.5.8s1.8-.3 2.5-.8l.1-11.4zM181.5 193.8a6 6 0 0 1-3.7-1.3l.1-13.2a5.7 5.7 0 0 1 3.7-1.2 6 6 0 0 1 3.7 1.3v4.1h-1.4v-3.4c-.6-.5-1.4-.7-2.3-.7-.8 0-1.6.2-2.3.7l-.1 11.7c.6.5 1.5.7 2.3.7.8 0 1.6-.2 2.3-.7v-3.4h1.4v4.1c-1 .9-2.4 1.3-3.7 1.3zM195.7 193.7v-6c-.5-.7-1.4-1.3-2.9-1.3h-1.5v7.3h-1.4l.1-15.4h1.4v6.9h1.5c1.4 0 2.3-.5 2.9-1.2v-5.7h1.4v6.2c-.4.5-1.3 1.1-2.1 1.3a5 5 0 0 1 2.2 1.4v6.5h-1.6zM205.4 193.9c-1.2 0-2.6-.3-3.7-1.1l.1-13.5a6.2 6.2 0 0 1 3.7-1.1c1.2 0 2.6.3 3.7 1.1v4.3h-1.4v-3.5c-.6-.4-1.4-.6-2.3-.6-.8 0-1.6.2-2.3.6v5h4v1.3h-4v5.5c.6.4 1.5.6 2.3.6s1.6-.2 2.3-.6v-3.4h1.4v4.3a6.7 6.7 0 0 1-3.8 1.1zM217.9 188v5.9h-1.4V188c-.9-.1-2-.6-2.8-1.3l.1-8.2h1.4v7.6a3 3 0 0 0 2.1.8c.8 0 1.6-.2 2.1-.7v-7.6h1.4l-.1 8.2c-.7.6-1.8 1.1-2.8 1.2z"/></g><path class="st1" d="M136.8 71.3c-2.6 2-3.1 2.5-3.1 3l.2.6c.7.4-.7 1.5-3.2 2.6-1.1.4-1.7.6-2.6.6-1.1 0-1.4-.1-2.9-.8l-2.9-1.7-1.2-.8-.1-12.3V50.3l4.3-.1 4.3-.1.7-.5c.9-.6 2.1-2.1 2.1-2.5 0-.5-1.1-1.7-2.1-2.1-.8-.4-1.2-.4-5.3-.5l-4.4-.1.9-1.1 1.3-1.8c.5-.7.8-2.8.6-3.7-.5-3.1-4.2-5.3-7.2-4.3-1.8.6-3 1.7-3.7 3.4-.2.5-.3 1-.2 2.1a7 7 0 0 0 2 4.5l.9 1-4.5.1c-4.5.1-4.5.1-5.4.6-1.2.6-2 1.6-1.9 2.2l1.1 1.5c1.3 1.3 1.7 1.4 6.4 1.4h3.8v24.6l-1 .6c-3.7 2.4-5.1 2.9-6.9 2.6-1-.2-3.7-1.4-4.6-2.1l-.4-.3.3-.7.3-.7-.7-.6a149.8 149.8 0 0 0-8.6-6c-.2.2.1 1.6 1.1 4.9 1.3 4.5 2.4 7.9 2.6 7.9l.5-.4.5-.4 2.4 1.4c3.4 2.1 7.7 3.7 11 4.3 2.3.4 3.3.9 5.1 2.7l1.5 1.5 1.7-1.6a14 14 0 0 1 2.5-2c.4-.2 1.5-.5 2.4-.6a36 36 0 0 0 11.5-4.5c1.6-1 1.9-1.1 2.2-.9l.4.3.3.3c.3.1.3.1 1.7-4.2 1.4-4.4 2.4-8.3 2.3-8.5-.1-.8-2.1.5-6 3.4zm-17.7-30.2-1-.6-1.2.6c-1.4.8-1.7.7-2.2-.4-.8-1.5-.2-4.1 1-5 1.1-.8 3.4-.9 4.6-.1 1.3.8 1.9 2.6 1.5 4.2-.2.9-.9 1.8-1.4 1.8-.2.1-.7-.2-1.3-.5z"/><path class="st2" d="m158.5 102.6-1.9-2a56.7 56.7 0 1 0-95.2-41.3 56 56 0 0 0 18 41.3l-1.9 2a59.4 59.4 0 1 1 81 0z"/></svg>