<?xml version="1.0" encoding="UTF-8" standalone="no"?>
<!-- Created with Inkscape (http://www.inkscape.org/) -->

<svg
   xmlns:dc="http://purl.org/dc/elements/1.1/"
   xmlns:cc="http://creativecommons.org/ns#"
   xmlns:rdf="http://www.w3.org/1999/02/22-rdf-syntax-ns#"
   xmlns:svg="http://www.w3.org/2000/svg"
   xmlns="http://www.w3.org/2000/svg"
   version="1.1"
   width="361.675193146"
   height="276.49117743" viewBox="0 0 538.58264 411.73227"
   id="svg8721">
  <defs
     id="defs8723" />
  <metadata
     id="metadata8726">
    <rdf:RDF>
      <cc:Work
         rdf:about="">
        <dc:format>image/svg+xml</dc:format>
        <dc:type
           rdf:resource="http://purl.org/dc/dcmitype/StillImage" />
        <dc:title></dc:title>
      </cc:Work>
    </rdf:RDF>
  </metadata>
  <g
     transform="translate(-112.885,-318.22767)"
     id="layer1">
    <g
       transform="matrix(3.1407014,0,0,3.1407014,-1491.5165,-1275.2628)"
       id="g8962">
      <g
         transform="matrix(1.25,0,0,-1.25,612.82446,540.03638)"
         id="g3993">
        <path
           d="m 0,0 c -1.08,0 -2.144,-0.066 -3.193,-0.185 1.138,-0.245 4.726,-1.063 7.95,-2.295 7.363,-2.816 15.578,-9.041 15.91,-20.145 0,0 2.148,-4.501 7.526,-8.848 0.019,0.166 0.038,0.333 0.053,0.5 0.08,0.858 0.125,1.724 0.125,2.602 C 28.371,-12.727 15.643,0 0,0"
           id="path3995"
           style="fill:#076940;fill-opacity:1;fill-rule:nonzero;stroke:none" />
      </g>
      <g
         transform="matrix(1.25,0,0,-1.25,612.82446,610.96838)"
         id="g3997">
        <path
           d="m 0,0 c 0.348,0 0.695,0.015 1.041,0.026 0.25,0.01 0.5,0.021 0.747,0.037 0.22,0.014 0.439,0.031 0.657,0.05 0.241,0.02 0.484,0.042 0.725,0.069 0.222,0.025 0.442,0.054 0.661,0.084 0.121,0.017 0.241,0.034 0.36,0.052 -1.674,1.412 -3.269,3.005 -4.253,4.584 0,0 0.928,-2.677 1.34,-3.602 0,0 -9.944,9.038 -25.94,13.075 C -19.776,5.799 -10.554,0 0,0"
           id="path3999"
           style="fill:#076940;fill-opacity:1;fill-rule:nonzero;stroke:none" />
      </g>
      <g
         transform="matrix(1.25,0,0,-1.25,634.85146,533.20838)"
         id="g4001">
        <path
           d="M 0,0 0.137,0.044 0.667,2.202 0.783,2.54 0.577,2.248 -0.853,0.544 -0.806,0.41 0,0 z"
           id="path4003"
           style="fill:#0a0a09;fill-opacity:1;fill-rule:nonzero;stroke:none" />
      </g>
      <g
         transform="matrix(1.25,0,0,-1.25,577.61997,540.15838)"
         id="g4005">
        <path
           d="M 0,0 C 1.165,1.254 0.664,2.513 -0.373,2.556 -2.886,2.66 -4.775,3.156 -6.49,3.752 -8.173,1.932 -9.717,-0.019 -11.099,-2.087 -8.177,-2.636 -5.15,-3.022 -2.044,-3.18 -1.779,-2.586 -1.084,-1.167 0,0"
           id="path4007"
           style="fill:#0a0a09;fill-opacity:1;fill-rule:nonzero;stroke:none" />
      </g>
      <g
         transform="matrix(1.25,0,0,-1.25,643.91634,541.20088)"
         id="g4009">
        <path
           d="M 0,0 0.521,0.212 2.05,1.953 2.193,2.498 1.981,3.019 1.49,3.45 1.348,3.442 -1.012,0.756 -0.997,0.543 -0.544,0.143 0,0 z"
           id="path4011"
           style="fill:#0a0a09;fill-opacity:1;fill-rule:nonzero;stroke:none" />
      </g>
      <g
         transform="matrix(1.25,0,0,-1.25,610.59909,529.42838)"
         id="g4013">
        <path
           d="M 0,0 0.409,-0.186 0.913,-0.167 1.308,0.048 1.495,0.458 1.398,3.076 1.182,3.471 0.773,3.657 0.268,3.638 -0.125,3.422 -0.313,3.012 -0.217,0.396 0,0 z"
           id="path4015"
           style="fill:#0a0a09;fill-opacity:1;fill-rule:nonzero;stroke:none" />
      </g>
      <g
         transform="matrix(1.25,0,0,-1.25,610.14022,620.89451)"
         id="g4017">
        <path
           d="M 0,0 -0.07,-0.351 -0.703,-2.482 -0.608,-2.588 0.297,-2.641 0.404,-2.547 0.029,-0.356 0,0 z"
           id="path4019"
           style="fill:#0a0a09;fill-opacity:1;fill-rule:nonzero;stroke:none" />
      </g>
      <g
         transform="matrix(1.25,0,0,-1.25,580.57896,612.03276)"
         id="g4021">
        <path
           d="M 0,0 0.688,-0.589 0.831,-0.577 1.854,1.396 2.043,1.698 1.776,1.463 -0.012,0.141 0,0 z"
           id="path4023"
           style="fill:#0a0a09;fill-opacity:1;fill-rule:nonzero;stroke:none" />
      </g>
      <g
         transform="matrix(1.25,0,0,-1.25,526.39446,530.30126)"
         id="g4025">
        <path
           d="m 0,0 c 0,0 0.749,-1.399 2.263,-3.538 5.46,-2.57 12.228,-5.133 19.75,-6.627 C 14.944,-8.116 7.541,-4.882 0,0"
           id="path4027"
           style="fill:#0a0a09;fill-opacity:1;fill-rule:nonzero;stroke:none" />
      </g>
      <g
         transform="matrix(1.25,0,0,-1.25,661.94747,613.06126)"
         id="g4029">
        <path
           d="m 0,0 c 1.064,1.385 2.05,2.818 2.955,4.296 0.516,0.843 0.999,1.703 1.461,2.573 0.523,0.985 1.02,1.982 1.475,2.999 6.243,-8.235 7.54,-16.737 7.54,-16.737 C 10.946,-4.865 7.506,-2.326 0,0 m -39.298,-17.148 c -0.009,0 -0.016,0.001 -0.024,0.001 -0.102,0 -0.205,0 -0.307,0.002 l 0,0.005 c -23.249,0.161 -42.495,17.129 -46.205,39.365 4.546,-1.97 10.432,-3.939 17.728,-5.269 0.407,-0.075 0.806,-0.157 1.207,-0.238 4.958,-10.248 15.453,-17.317 27.601,-17.317 0.235,0 0.465,0.013 0.698,0.018 l 0,-0.001 c 16.602,0.373 29.946,13.939 29.946,30.631 l 0,0.031 c -0.016,16.912 -13.728,30.614 -30.644,30.614 -2.033,0 -4.016,-0.202 -5.938,-0.58 -2.217,2.257 -3.772,5.706 -4.628,9.591 -0.362,1.646 -1.156,3.693 -2.439,5.708 4.134,1.183 8.493,1.83 13.005,1.83 26.034,0 47.144,-21.082 47.192,-47.106 l 0.002,0 0,-0.057 c 0,-0.01 0,-0.02 0,-0.031 0,-0.788 -0.021,-1.57 -0.06,-2.349 l -0.001,0 C 6.624,2.956 -13.643,-16.767 -38.6,-17.13 l 0,0 c -0.233,-0.004 -0.463,-0.018 -0.698,-0.018 M -39.36,6.577 c 0.984,-1.58 2.579,-3.172 4.253,-4.585 -0.12,-0.017 -0.24,-0.035 -0.361,-0.052 -0.218,-0.029 -0.438,-0.059 -0.66,-0.084 -0.242,-0.027 -0.484,-0.048 -0.726,-0.069 -0.218,-0.019 -0.436,-0.036 -0.656,-0.05 -0.247,-0.016 -0.498,-0.027 -0.748,-0.036 -0.346,-0.012 -0.692,-0.027 -1.04,-0.027 -10.554,0 -19.776,5.8 -24.662,14.375 15.996,-4.036 25.94,-13.074 25.94,-13.074 -0.413,0.924 -1.34,3.602 -1.34,3.602 m 25.909,13.132 c 0.147,-0.084 0.31,-0.174 0.461,-0.259 -0.01,-0.024 -0.018,-0.047 -0.028,-0.07 -0.143,0.109 -0.295,0.227 -0.433,0.329 m -4.653,-8.499 c -2.088,2.865 -2.654,5.695 -2.682,5.848 0.068,-0.048 1.85,-1.434 5.322,-2.373 -0.793,-1.226 -1.673,-2.389 -2.64,-3.475 m 7.052,16.237 c -0.015,-0.167 -0.034,-0.334 -0.053,-0.5 -5.378,4.347 -7.526,8.848 -7.526,8.848 -0.332,11.104 -8.547,17.329 -15.91,20.144 -3.225,1.233 -6.813,2.051 -7.95,2.296 1.049,0.119 2.113,0.185 3.193,0.185 15.643,0 28.371,-12.727 28.371,-28.371 0,-0.878 -0.046,-1.744 -0.125,-2.602 m -79.099,-0.388 c 3.5,-0.514 10.813,-0.31 10.813,-0.31 -14.008,3.401 -24.304,11.845 -24.304,11.845 3.473,-1.227 15.16,-3.062 15.34,-3.09 -15.754,4.739 -24.608,17.299 -24.608,17.299 3.295,-1.645 16.579,-6.178 16.579,-6.178 -12.975,7.519 -19.257,19.257 -19.257,19.257 17.671,-11.443 34.6,-13.874 48.21,-13.037 -0.057,2.294 1.82,5.005 2.51,5.846 0.868,1.066 1.053,4.342 -2.693,4.429 -3.889,0.093 -6.773,1.604 -6.773,1.604 0,0 -5.013,2.333 -11.672,1.578 -2.936,-0.333 -6.729,-0.823 -9.34,-0.31 -0.118,0.025 -1.372,0.859 -0.616,1.922 0.574,0.815 2.678,1.295 5.699,2.623 5.062,2.222 8.274,3.923 8.274,3.923 1.27,2.209 5.705,7.253 13.443,7.253 7.739,0 11.608,-3.772 14.026,-7.35 2.418,-3.58 1.645,-7.158 4.935,-12.768 2.719,-4.643 6.294,-5.707 7.451,-5.937 0.019,-0.002 0.038,-0.004 0.057,-0.006 2.928,-0.942 16.052,-5.768 17.276,-16.986 0,0 0.883,5.046 -2.478,9.996 0.051,-0.048 0.106,-0.092 0.16,-0.141 4.499,-4.07 5.385,-8.529 5.012,-13.701 0.549,-2.664 2.884,-5.544 10.514,-10.873 -0.341,-1.551 -0.812,-3.051 -1.396,-4.496 -5.844,3.31 -8.886,5.612 -10.125,8.176 -0.676,-3.868 -1.449,-8.111 -1.651,-12.821 0.833,-1.531 2.369,-3.38 5.172,-5.144 -0.873,-0.844 -1.8,-1.631 -2.774,-2.359 -0.915,0.631 -1.675,1.251 -2.294,1.83 0.115,-1.031 0.288,-2.062 0.504,-3.063 -1.504,-0.952 -3.1,-1.766 -4.776,-2.426 -4.042,4.298 -5.302,8.071 -5.302,8.071 -0.101,-2.47 1.029,-8.342 1.029,-8.342 -5.146,3.709 -8.65,10.093 -8.65,10.093 -0.004,-2.341 1.478,-6.876 1.504,-6.965 0,0 -6.422,8.181 -29.271,13.27 -11.87,2.643 -20.528,7.288 -20.528,7.288 m -18.291,39.149 c 7.541,-4.882 14.943,-8.116 22.013,-10.165 -7.523,1.494 -14.291,4.057 -19.75,6.627 -1.514,2.139 -2.263,3.538 -2.263,3.538 m 34.49,-4.133 c 1.715,-0.597 3.604,-1.093 6.118,-1.197 1.036,-0.043 1.537,-1.302 0.372,-2.556 -1.084,-1.167 -1.779,-2.586 -2.044,-3.18 -3.106,0.158 -6.133,0.544 -9.055,1.093 1.382,2.069 2.926,4.019 4.609,5.84 M 6.906,12.311 c 0.059,0.157 0.112,0.316 0.169,0.474 0.125,0.334 0.248,0.669 0.364,1.005 0.142,0.407 0.275,0.815 0.406,1.226 0.104,0.332 0.21,0.663 0.308,0.997 0.126,0.426 0.24,0.856 0.355,1.285 0.085,0.323 0.172,0.645 0.252,0.971 0.111,0.453 0.21,0.911 0.307,1.369 0.065,0.306 0.134,0.611 0.193,0.919 0.097,0.497 0.178,0.998 0.26,1.499 0.043,0.273 0.092,0.544 0.133,0.817 0.082,0.578 0.151,1.16 0.214,1.743 0.022,0.2 0.05,0.398 0.07,0.599 0.079,0.825 0.142,1.653 0.181,2.485 l -0.005,0 c 0.036,0.78 0.057,1.563 0.057,2.349 0,13.213 -5.147,25.636 -14.488,34.978 -9.345,9.344 -21.766,14.49 -34.98,14.49 -4.966,0 -9.822,-0.728 -14.444,-2.131 -2.903,3.495 -7.461,6.423 -14.047,6.264 -10.294,-0.248 -14.213,-5.86 -15.585,-7.965 -1.628,-0.998 -5.04,-2.712 -8.125,-4.027 -5.905,-2.517 -5.943,-2.602 -6.316,-4.052 -0.367,-1.419 1.088,-3.08 1.236,-3.067 0,0 3.159,-0.893 8.878,-0.182 5.547,0.688 8.548,-0.318 11.455,-1.426 -1.747,-1.956 -3.316,-4.032 -4.713,-6.203 -18.362,4.085 -31.876,14.263 -31.876,14.263 0.59,-2.256 1.335,-4.268 2.147,-6.057 -5.813,3.113 -9.294,5.733 -9.294,5.733 3.032,-11.587 10.08,-16.923 10.08,-16.923 -3.268,0.715 -7.861,3.064 -7.93,3.089 4.017,-9.678 12.977,-16.375 12.977,-16.375 l -4.636,0.72 c 5.151,-7.517 17.199,-12.459 17.199,-12.459 l -5.356,0.41 c 0,0 3.045,-2.737 9.34,-5.775 1.435,-10.676 6.286,-20.541 14.03,-28.287 9.344,-9.343 21.766,-14.49 34.98,-14.49 0.235,0 0.465,0.015 0.698,0.018 l 0,-0.011 c 0.266,0.004 0.529,0.022 0.793,0.03 0.447,0.013 0.892,0.025 1.335,0.05 0.375,0.022 0.749,0.053 1.122,0.082 0.432,0.034 0.863,0.066 1.291,0.111 0.38,0.039 0.756,0.091 1.133,0.14 0.421,0.053 0.841,0.104 1.257,0.169 0.38,0.058 0.756,0.128 1.134,0.196 0.41,0.073 0.822,0.143 1.23,0.226 0.378,0.077 0.75,0.166 1.125,0.252 0.405,0.092 0.809,0.181 1.21,0.283 0.371,0.095 0.737,0.203 1.105,0.306 0.399,0.112 0.8,0.219 1.196,0.342 0.364,0.111 0.722,0.236 1.083,0.357 0.394,0.131 0.788,0.259 1.178,0.4 0.357,0.129 0.707,0.271 1.06,0.409 0.389,0.15 0.778,0.297 1.161,0.457 0.348,0.146 0.689,0.304 1.033,0.458 0.381,0.17 0.766,0.336 1.143,0.516 0.339,0.162 0.67,0.337 1.005,0.506 0.375,0.189 0.753,0.374 1.123,0.573 0.332,0.179 0.655,0.372 0.985,0.558 0.363,0.208 0.731,0.409 1.09,0.626 0.326,0.197 0.645,0.409 0.968,0.614 0.351,0.223 0.705,0.44 1.052,0.673 0.322,0.216 0.636,0.447 0.953,0.671 0.336,0.239 0.679,0.47 1.009,0.718 0.323,0.239 0.634,0.494 0.95,0.741 0.318,0.25 0.64,0.491 0.954,0.748 0.332,0.274 0.654,0.564 0.981,0.848 0.285,0.248 0.575,0.486 0.856,0.74 0.436,0.396 0.859,0.81 1.285,1.223 0.158,0.156 0.323,0.302 0.482,0.46 0.047,0.049 0.092,0.1 0.141,0.148 0.513,0.519 1.017,1.046 1.506,1.582 0.2,0.221 0.39,0.45 0.586,0.673 0.009,0.011 0.02,0.022 0.03,0.034 1.334,-0.318 2.613,-0.623 3.786,-0.916 7.824,-1.956 13.649,-7.08 13.649,-7.08 0.34,8.528 -3.538,16.56 -8.474,22.803"
           id="path4031"
           style="fill:#e8dfca;fill-opacity:1;fill-rule:nonzero;stroke:none" />
      </g>
      <g
         transform="matrix(1.25,0,0,-1.25,667.46746,604.47538)"
         id="g4033">
        <path
           d="M 0,0 C 0.165,-0.205 0.324,-0.408 0.479,-0.609 3.314,-4.285 4.467,-7.24 4.467,-7.24 4.466,-7.239 4.466,-7.239 4.465,-7.239 L 4.466,-7.24 c -2.027,1.843 -4.017,3.378 -5.927,4.668 -0.905,-1.478 -1.891,-2.911 -2.955,-4.297 7.506,-2.326 10.946,-4.864 13.431,-6.868 0,0 -1.297,8.502 -7.54,16.736 C 1.02,1.982 0.523,0.985 0,0"
           id="path4035"
           style="fill:#0a0a09;fill-opacity:1;fill-rule:nonzero;stroke:none" />
      </g>
      <g
         transform="matrix(1.25,0,0,-1.25,673.05096,613.52513)"
         id="g4037">
        <path
           d="M 0,0 C 0,0 -1.153,2.955 -3.988,6.63 -1.16,2.963 -0.007,0.013 -0.002,0.001 -0.001,0.001 -0.001,0 0,0"
           id="path4039"
           style="fill:#e8dfca;fill-opacity:1;fill-rule:nonzero;stroke:none" />
      </g>
      <g
         transform="matrix(1.25,0,0,-1.25,560.33059,563.14788)"
         id="g4041">
        <path
           d="m 0,0 c 0.194,-0.075 10.206,-3.967 22.138,0.929 0,0 -20.801,-1.546 -35.116,11.739 0,0 20.698,-7.516 37.38,-0.72 -0.087,-0.063 -6.733,-5.007 -13.187,-6.173 0,0 3.425,-0.425 9.893,1.538 4.55,1.381 10.43,4.984 18.119,3.197 0,0 -8.788,-0.136 -15.653,-7.001 0,0 11.27,6.76 21.45,1.13 1.234,-0.683 2.298,-1.434 3.221,-2.229 -0.158,0.166 -0.316,0.333 -0.487,0.495 0,0 4.716,-3.245 5.767,-9.34 0.486,-2.819 0.329,-5.006 0.033,-6.733 -0.248,-1.769 -0.629,-2.896 -0.629,-2.896 -0.269,-1.217 -0.466,-2.379 -0.596,-3.491 -0.086,-0.74 -0.145,-1.46 -0.176,-2.157 -0.016,-0.35 -0.024,-0.693 -0.027,-1.032 -0.026,-3.383 0.586,-6.255 1.52,-8.766 l 0,0.001 0,-0.001 c 0,0 -2.378,1.843 -4.267,6.14 -0.823,1.793 -1.529,3.973 -1.869,6.513 0,0.002 0,0.003 -0.002,0.006 -0.015,0.12 -0.038,0.232 -0.053,0.353 -0.003,0.036 -0.007,0.075 -0.011,0.111 -0.188,1.315 -0.309,2.734 -0.332,4.275 l 0,-0.017 0,0.017 0,0.002 c -0.002,0.093 -0.005,0.185 -0.005,0.278 0,-0.093 0.003,-0.185 0.005,-0.278 -0.019,1.292 0.026,2.666 0.152,4.123 0,0 -0.327,-0.725 -0.781,-1.96 -1.164,-3.155 -3.166,-9.638 -2.721,-15.856 l -10e-4,0.002 0,-0.002 c 0,0 -3.26,3.801 -5.364,7.925 -0.141,0.275 -0.275,0.551 -0.403,0.828 0,0 -1.928,-2.743 -1.722,-6.552 0,0 -2.407,1.814 -5.762,3.817 0.09,-0.053 0.204,-0.091 0.331,-0.119 -2.951,1.716 -6.955,3.65 -11.693,4.913 0,0 9.733,1.812 14.389,6.577 0,0 -9.747,-4.223 -23.824,0.541 0,0 11.371,-0.108 18.085,5.198 0,0 -16.57,-4.006 -27.802,4.675 m 17.916,17.143 c 0.02,0.035 0.031,0.057 0.031,0.057 4.44,5.631 2.707,11.479 2.707,11.479 0,0 -1.164,-1.49 -5.55,-1.49 -1.299,0 -3.249,0.407 -4.406,1.138 -3.088,1.948 1.239,6.497 6.761,4.223 0,0 -0.108,2.897 -3.004,4.061 0,0 0.785,0.352 2.355,0.325 0,0 -5.953,3.401 -14.753,-1.305 0,0 4.169,3.805 10.028,4.312 1.253,0.108 2.445,-10e-4 3.569,-0.277 7.253,-1.362 9.992,-7.712 10.58,-11.146 1.224,-7.159 2.867,-9.912 2.867,-9.912 -0.018,0.001 -10.421,0.466 -12.738,-5.483 0,0 -0.104,1.996 1.553,4.018 M 4.383,32.956 c 0,0 -1.213,0.5 -0.69,1.423 0,0 1.906,1.624 5.361,1.816 0,0 -1.93,-2.665 -4.671,-3.239 m -11.98,-5.074 c -5.644,-1.017 -4.778,0.252 -4.371,0.371 0.947,0.279 6.686,2.591 6.686,2.591 -0.812,-0.92 0.879,-1.196 2.599,-0.487 3.318,1.59 0.542,1.787 0.542,1.787 0,0 2.164,1.098 3.812,1.577 0,0 -2.126,-2.027 0.845,-3.688 2.395,-1.341 3.275,-2.384 3.275,-2.384 0,0 -3.926,1.939 -13.388,0.233 M 32.845,17.31 c 0.031,-0.006 0.049,-0.009 0.049,-0.009 0,0 -0.018,0.003 -0.049,0.009 M 18.102,14.434 c 0.003,0.009 0.006,0.021 0.007,0.035 -0.001,-0.014 -0.004,-0.026 -0.007,-0.035 -0.007,-0.018 -0.011,-0.038 -0.012,-0.06 0.001,0.022 0.005,0.042 0.012,0.06 m 29.093,-30.477 c 0,-0.033 0.006,-0.065 0.009,-0.097 -0.003,0.032 -0.009,0.064 -0.009,0.097 M 11.671,-20.16 c 22.849,-5.089 29.271,-13.269 29.271,-13.269 -0.027,0.088 -1.509,4.623 -1.504,6.964 0,0 3.503,-6.384 8.65,-10.093 0,0 -1.13,5.872 -1.029,8.343 0,0 1.259,-3.774 5.301,-8.072 1.677,0.66 3.273,1.474 4.776,2.426 -0.216,1.001 -0.388,2.032 -0.503,3.063 0.619,-0.578 1.378,-1.199 2.294,-1.829 0.974,0.728 1.901,1.514 2.774,2.358 -2.803,1.765 -4.339,3.613 -5.173,5.144 0.203,4.71 0.975,8.954 1.652,12.822 1.239,-2.565 4.28,-4.867 10.124,-8.176 0.585,1.444 1.055,2.945 1.397,4.495 -7.63,5.33 -9.966,8.21 -10.514,10.873 0.373,5.173 -0.514,9.631 -5.013,13.702 -0.053,0.049 -0.108,0.093 -0.16,0.14 3.361,-4.949 2.478,-9.996 2.478,-9.996 -1.223,11.218 -14.348,16.044 -17.275,16.986 -0.02,0.002 -0.038,0.004 -0.058,0.007 -1.156,0.23 -4.732,1.293 -7.451,5.936 -3.29,5.61 -2.516,9.188 -4.934,12.769 -2.418,3.578 -6.287,7.349 -14.026,7.349 -7.739,0 -12.174,-5.043 -13.444,-7.253 0,0 -3.211,-1.7 -8.274,-3.923 -3.021,-1.327 -5.124,-1.808 -5.698,-2.623 -0.756,-1.063 0.497,-1.897 0.616,-1.922 2.611,-0.513 6.403,-0.023 9.339,0.31 6.66,0.755 11.672,-1.578 11.672,-1.578 0,0 2.884,-1.511 6.774,-1.604 3.745,-0.086 3.561,-3.363 2.692,-4.429 -0.69,-0.841 -2.567,-3.552 -2.51,-5.845 -13.609,-0.837 -30.538,1.594 -48.209,13.036 0,0 6.282,-11.738 19.256,-19.257 0,0 -13.284,4.533 -16.579,6.179 0,0 8.854,-12.56 24.608,-17.299 -0.18,0.028 -11.867,1.862 -15.34,3.09 0,0 10.296,-8.444 24.304,-11.846 0,0 -7.312,-0.204 -10.813,0.31 0,0 8.659,-4.645 20.529,-7.288"
           id="path4043"
           style="fill:#0a0a09;fill-opacity:1;fill-rule:nonzero;stroke:none" />
      </g>
      <g
         transform="matrix(1.25,0,0,-1.25,625.74747,587.59125)"
         id="g4045">
        <path
           d="M 0,0 C -0.087,-0.741 -0.145,-1.46 -0.176,-2.157 -0.145,-1.46 -0.087,-0.741 0,0"
           id="path4047"
           style="fill:#e8dfca;fill-opacity:1;fill-rule:nonzero;stroke:none" />
      </g>
      <g
         transform="matrix(1.25,0,0,-1.25,619.22522,580.78825)"
         id="g4049">
        <path
           d="M 0,0 0,0.002 0,0 z"
           id="path4051"
           style="fill:#e8dfca;fill-opacity:1;fill-rule:nonzero;stroke:none" />
      </g>
      <g
         transform="matrix(1.25,0,0,-1.25,619.72271,586.719)"
         id="g4053">
        <path
           d="M 0,0 C 0,0.001 0,0.003 -0.002,0.006 0,0.003 0,0.001 0,0"
           id="path4055"
           style="fill:#e8dfca;fill-opacity:1;fill-rule:nonzero;stroke:none" />
      </g>
      <g
         transform="matrix(1.25,0,0,-1.25,627.27821,579.60788)"
         id="g4057">
        <path
           d="m 0,0 c -0.198,-1.158 -0.455,-2.115 -0.629,-2.896 0,0 0.38,1.127 0.629,2.896"
           id="path4059"
           style="fill:#e8dfca;fill-opacity:1;fill-rule:nonzero;stroke:none" />
      </g>
      <g
         transform="matrix(1.25,0,0,-1.25,615.03634,597.90125)"
         id="g4061">
        <path
           d="M 0,0 0,0.001 C -0.018,0.022 -3.264,3.812 -5.364,7.924 -3.26,3.801 0,0 0,0"
           id="path4063"
           style="fill:#e8dfca;fill-opacity:1;fill-rule:nonzero;stroke:none" />
      </g>
      <g
         transform="matrix(1.25,0,0,-1.25,625.49359,591.57751)"
         id="g4065">
        <path
           d="M 0,0 C 0.002,0.339 0.011,0.682 0.027,1.032 0.011,0.682 0.002,0.339 0,0"
           id="path4067"
           style="fill:#e8dfca;fill-opacity:1;fill-rule:nonzero;stroke:none" />
      </g>
      <g
         transform="matrix(1.25,0,0,-1.25,622.05909,594.86051)"
         id="g4069">
        <path
           d="m 0,0 c 1.889,-4.296 4.267,-6.141 4.267,-6.141 l 0,0.002 C 4.263,-6.135 1.853,-4.027 0,0"
           id="path4071"
           style="fill:#e8dfca;fill-opacity:1;fill-rule:nonzero;stroke:none" />
      </g>
      <g
         transform="matrix(1.25,0,0,-1.25,619.41509,575.632)"
         id="g4073">
        <path
           d="m 0,0 c -0.126,-1.457 -0.171,-2.831 -0.152,-4.123 l 0,-0.002 C -0.128,-5.666 -0.007,-7.085 0.18,-8.4 -0.101,-5.975 -0.276,-3.197 0,0"
           id="path4075"
           style="fill:#e8dfca;fill-opacity:1;fill-rule:nonzero;stroke:none" />
      </g>
      <g
         transform="matrix(1.25,0,0,-1.25,595.08284,568.99138)"
         id="g4077">
        <path
           d="m 0,0 c -6.713,-5.306 -18.084,-5.198 -18.084,-5.198 14.077,-4.764 23.823,-0.541 23.823,-0.541 -4.656,-4.765 -14.388,-6.577 -14.388,-6.577 4.737,-1.263 8.741,-3.197 11.692,-4.913 1.629,-0.374 6.094,1.351 7.701,6.836 0,0 0.791,-2.026 2.645,-4.499 0,0 0.347,4.258 5.125,10.877 0,0 1.774,2.202 0.952,3.645 0,0 4.633,-0.902 3.171,-9.43 0,0 4.251,10.059 -2.194,16.884 C 19.521,7.879 18.457,8.63 17.223,9.313 7.042,14.944 -4.228,8.184 -4.228,8.184 c 6.866,6.865 15.653,7.001 15.653,7.001 -7.689,1.787 -13.569,-1.816 -18.118,-3.197 -6.469,-1.964 -9.894,-1.538 -9.894,-1.538 6.455,1.166 13.101,6.11 13.188,6.173 -16.683,-6.796 -37.38,0.72 -37.38,0.72 C -26.464,4.058 -5.664,5.604 -5.664,5.604 -17.596,0.708 -27.608,4.6 -27.802,4.675 -16.569,-4.006 0,0 0,0"
           id="path4079"
           style="fill:#e8dfca;fill-opacity:1;fill-rule:nonzero;stroke:none" />
      </g>
      <g
         transform="matrix(1.25,0,0,-1.25,623.37871,581.24113)"
         id="g4081">
        <path
           d="M 0,0 C 1.462,8.527 -3.171,9.43 -3.171,9.43 -2.349,7.987 -4.123,5.785 -4.123,5.785 -8.9,-0.834 -9.248,-5.092 -9.248,-5.092 c -1.854,2.472 -2.645,4.499 -2.645,4.499 -1.607,-5.485 -6.072,-7.21 -7.701,-6.837 -0.127,0.029 -0.241,0.066 -0.331,0.12 3.356,-2.003 5.763,-3.817 5.763,-3.817 -0.207,3.809 1.721,6.552 1.721,6.552 0.128,-0.278 0.263,-0.553 0.403,-0.829 2.1,-4.113 5.347,-7.902 5.364,-7.922 l 0.001,-0.002 c -0.445,6.217 1.558,12.701 2.721,15.855 0.454,1.236 0.781,1.96 0.781,1.96 -0.276,-3.197 -0.1,-5.975 0.18,-8.4 0.004,-0.035 0.008,-0.075 0.012,-0.11 0.014,-0.121 0.038,-0.234 0.052,-0.353 0.002,-0.003 0.002,-0.005 0.002,-0.006 0.341,-2.541 1.046,-4.72 1.869,-6.514 1.853,-4.027 4.263,-6.134 4.267,-6.139 l 0,0 c -0.934,2.511 -1.545,5.383 -1.519,8.766 0.002,0.339 0.011,0.682 0.027,1.032 0.031,0.697 0.089,1.416 0.176,2.157 0.13,1.112 0.327,2.273 0.596,3.49 0.174,0.781 0.431,1.738 0.629,2.897 0.295,1.727 0.452,3.913 -0.034,6.733 -1.05,6.094 -5.767,9.34 -5.767,9.34 0.171,-0.162 0.329,-0.329 0.488,-0.496 C 4.251,10.059 0,0 0,0"
           id="path4083"
           style="fill:#ffffff;fill-opacity:1;fill-rule:nonzero;stroke:none" />
      </g>
      <g
         transform="matrix(1.25,0,0,-1.25,563.47509,525.60701)"
         id="g4085">
        <path
           d="M 0,0 C -2.971,1.662 -0.844,3.688 -0.844,3.688 -2.493,3.209 -4.656,2.111 -4.656,2.111 c 0,0 2.776,-0.197 -0.542,-1.786 -1.721,-0.709 -3.411,-0.434 -2.599,0.487 0,0 -5.739,-2.312 -6.687,-2.591 -0.407,-0.12 -1.273,-1.389 4.371,-0.372 9.463,1.706 13.388,-0.232 13.388,-0.232 0,0 -0.88,1.043 -3.275,2.383"
           id="path4087"
           style="fill:#f68616;fill-opacity:1;fill-rule:nonzero;stroke:none" />
      </g>
      <g
         transform="matrix(1.25,0,0,-1.25,565.80971,521.95288)"
         id="g4089">
        <path
           d="M 0,0 C 2.741,0.574 4.671,3.239 4.671,3.239 1.215,3.047 -0.69,1.423 -0.69,1.423 -1.213,0.5 0,0 0,0"
           id="path4091"
           style="fill:#ffffff;fill-opacity:1;fill-rule:nonzero;stroke:none" />
      </g>
      <g
         transform="matrix(1.25,0,0,-1.25,582.94347,545.18038)"
         id="g4093">
        <path
           d="M 0,0 C 0.001,0.021 0.004,0.042 0.011,0.06"
           id="path4095"
           style="fill:none;stroke:none" />
      </g>
      <g
         transform="matrix(1.25,0,0,-1.25,601.44746,541.52188)"
         id="g4097">
        <path
           d="M 0,0 C 0,0 -0.018,0.003 -0.049,0.009"
           id="path4099"
           style="fill:none;stroke:none" />
      </g>
      <g
         transform="matrix(1.25,0,0,-1.25,582.96672,545.06201)"
         id="g4101">
        <path
           d="M 0,0 C -0.001,-0.014 -0.004,-0.025 -0.007,-0.035"
           id="path4103"
           style="fill:none;stroke:none" />
      </g>
      <g
         transform="matrix(1.25,0,0,-1.25,592.20134,537.00351)"
         id="g4105">
        <path
           d="m 0,0 c -0.507,1.573 -0.334,4.781 -0.734,7.446 -1.056,7.052 -6.554,11.047 -10.046,11.465 0.325,-0.039 0.628,-0.102 0.937,-0.161 -1.123,0.276 -2.316,0.386 -3.568,0.277 -5.86,-0.506 -10.029,-4.312 -10.029,-4.312 8.8,4.706 14.753,1.306 14.753,1.306 -1.57,0.026 -2.355,-0.326 -2.355,-0.326 2.896,-1.164 3.005,-4.06 3.005,-4.06 -5.523,2.274 -9.849,-2.275 -6.762,-4.224 1.157,-0.731 3.107,-1.137 4.407,-1.137 4.385,0 5.55,1.489 5.55,1.489 0,0 1.732,-5.848 -2.708,-11.479 0,0 -0.011,-0.022 -0.031,-0.057 C -6.328,-2.247 -4.073,-0.706 0,0"
           id="path4107"
           style="fill:#076940;fill-opacity:1;fill-rule:nonzero;stroke:none" />
      </g>
      <g
         transform="matrix(1.25,0,0,-1.25,580.78471,546.74226)"
         id="g4109">
        <path
           d="m 0,0 c 2.316,5.949 12.72,5.484 12.738,5.483 0,0 -1.643,2.754 -2.867,9.912 -0.589,3.435 -3.328,9.784 -10.58,11.147 -0.31,0.058 -0.613,0.121 -0.937,0.16 C 1.845,26.284 7.343,22.289 8.399,15.237 8.799,12.572 8.626,9.364 9.133,7.791 5.061,7.085 2.806,5.544 1.552,4.018 -0.104,1.997 0,0 0,0"
           id="path4111"
           style="fill:#ffffff;fill-opacity:1;fill-rule:nonzero;stroke:none" />
      </g>
      <g
         transform="matrix(1.25,0,0,-1.25,619.33509,583.32301)"
         id="g4113">
        <path
           d="M 0,0 C -0.002,0.032 -0.008,0.064 -0.008,0.097"
           id="path4115"
           style="fill:none;stroke:none" />
      </g>
      <g
         transform="matrix(1.25,0,0,-1.25,619.22522,580.78588)"
         id="g4117">
        <path
           d="M 0,0 0,-0.001"
           id="path4119"
           style="fill:none;stroke:none" />
      </g>
      <g
         transform="matrix(1.25,0,0,-1.25,619.22522,580.78588)"
         id="g4121">
        <path
           d="M 0,0 C -0.001,0.094 -0.004,0.185 -0.004,0.279"
           id="path4123"
           style="fill:none;stroke:none" />
      </g>
      <g
         transform="matrix(1.25,0,0,-1.25,619.22522,580.78825)"
         id="g4125">
        <path
           d="M 0,0 0,-0.017"
           id="path4127"
           style="fill:none;stroke:none" />
      </g>
      <g
         transform="matrix(1.25,0,0,-1.25,673.04846,613.52388)"
         id="g4129">
        <path
           d="M 0,0 C -0.005,0.012 -1.158,2.962 -3.986,6.629 -4.141,6.831 -4.3,7.034 -4.465,7.239 -4.927,6.369 -5.41,5.509 -5.926,4.667 c 1.91,-1.291 3.9,-2.826 5.927,-4.668 L 0,0 z"
           id="path4131"
           style="fill:#ffffff;fill-opacity:1;fill-rule:nonzero;stroke:none" />
      </g>
      <g
         transform="matrix(1.25,0,0,-1.25,645.13409,588.425)"
         id="g4133">
        <path
           d="m 0,0 c 0.138,-0.102 0.29,-0.22 0.433,-0.329 0.01,0.023 0.018,0.046 0.027,0.07 C 0.31,-0.174 0.147,-0.084 0,0"
           id="path4135"
           style="fill:#ffffff;fill-opacity:1;fill-rule:nonzero;stroke:none" />
      </g>
      <g
         transform="matrix(1.25,0,0,-1.25,635.96534,591.73863)"
         id="g4137">
        <path
           d="m 0,0 c 0.027,-0.153 0.594,-2.983 2.682,-5.848 0.967,1.086 1.846,2.249 2.639,3.474 C 1.85,-1.434 0.067,-0.048 0,0"
           id="path4139"
           style="fill:#ffffff;fill-opacity:1;fill-rule:nonzero;stroke:none" />
      </g>
      <g
         transform="matrix(1.25,0,0,-1.25,622.18972,620.58988)"
         id="g4141">
        <path
           d="m 0,0 -0.431,0.125 -0.843,-0.151 -0.081,-0.117 0.222,-1.238 0.117,-0.082 0.842,0.152 0.362,0.268 0.127,0.432 L 0.27,-0.363 0,0 z"
           id="path4143"
           style="fill:#0a0a09;fill-opacity:1;fill-rule:nonzero;stroke:none" />
      </g>
      <g
         transform="matrix(1.25,0,0,-1.25,610.95259,627.99413)"
         id="g4145">
        <path
           d="M 0,0 0.149,0.798 0.034,1.411 -0.061,1.518 -1.719,1.616 -1.827,1.521 -2.012,0.927 -1.96,0.118 -4.272,0.256 -3.821,1.035 -2.082,6.512 -2.193,7.172 1.223,6.968 1.034,6.327 2.109,0.679 2.462,-0.146 0,0 z M -7.983,1.007 -11.95,2.151 -11.485,2.854 -9.979,8.08 -10,8.925 -7.581,8.228 -8.121,7.44 -9.306,3.327 -9.202,3.141 -7.848,2.751 -6.753,2.8 -7.983,1.007 z m -9.032,5.202 1.245,-0.66 1.083,-0.174 -1.573,-1.504 -3.648,1.935 0.6,0.594 2.55,4.804 0.155,0.828 2.225,-1.18 -0.693,-0.659 -2.006,-3.779 0.062,-0.205 z m -3.507,7.76 -2.546,-5.155 -0.215,-0.872 -1.878,1.603 0.6,0.546 0.278,0.558 -0.012,0.143 -1.263,1.079 -0.141,-0.011 -0.508,-0.362 -0.447,-0.679 -1.762,1.505 0.829,0.349 4.69,3.322 0.311,0.594 2.601,-2.222 -0.537,-0.398 z m -10.609,1.291 -1.344,1.949 0.805,0.25 2.572,1.772 0.359,0.187 -0.416,-0.106 -4.148,-0.901 -0.029,0.042 2.319,3.555 0.246,0.351 -0.303,-0.268 -2.571,-1.773 -0.52,-0.664 -1.228,1.784 0.803,0.248 4.465,3.079 0.52,0.661 1.428,-2.072 -1.681,-2.566 -0.162,-0.174 0.219,0.091 2.995,0.658 1.457,-2.114 -0.805,-0.248 -4.465,-3.078 -0.516,-0.663 z M -1.379,84.002 1.74,84.117 3.098,82.856 3.256,78.529 2.239,77.434 3.176,76.562 1.695,75.75 l -1.356,1.26 -1.46,-0.052 -1.357,1.262 -0.162,4.427 1.261,1.355 z m 8.465,-5.452 0.964,4.325 -0.074,0.841 2.41,-0.536 -0.422,-0.732 -0.863,-3.883 0.108,-0.437 0.349,-0.282 0.393,-0.09 0.438,0.11 0.284,0.35 0.864,3.883 -0.071,0.84 2.261,-0.503 -0.42,-0.731 -0.963,-4.326 -0.012,-0.514 -1.562,-0.992 -2.9,0.645 -0.993,1.563 0.209,0.469 z m 8.053,-3.178 3.778,4.332 0.163,0.65 3.052,-1.547 -0.429,-0.515 -1.265,-5.607 -0.004,-0.9 -2.2,1.117 0.454,0.672 0.141,0.608 -0.046,0.135 -1.481,0.752 -0.137,-0.044 -0.407,-0.471 -0.275,-0.764 -2.066,1.047 0.722,0.535 z m 8.042,-4.608 3.59,4.084 0.341,0.772 3.29,-2.891 0.131,-1.989 -2.791,-3.177 -1.992,-0.131 -3.29,2.892 0.721,0.44 z m 9.576,-9.805 3.753,1.954 1.9,-0.6 1.256,-2.412 -1.515,-1.56 -0.2,1.259 -0.318,0.607 -0.544,0.396 -0.566,-0.01 -1.875,-0.976 -0.331,-0.455 0.013,-0.676 0.36,-0.697 0.917,-0.886 -2.146,-0.346 -1.303,2.503 0.599,1.899 z m 8.684,-5.671 0.695,-2.367 -0.841,0.015 -5.203,-1.526 -0.7,-0.469 -0.695,2.369 0.842,-0.015 5.202,1.525 0.7,0.468 z m 2.079,-11.333 -1.942,-0.856 0.253,1.075 -0.071,0.782 -0.109,0.092 -4.211,-0.385 -1.022,-0.446 -0.242,2.658 1.085,-0.255 4.211,0.382 0.092,0.11 -0.073,0.784 -0.445,1.009 2.067,-0.489 0.407,-4.461 z m -0.27,-5.942 -0.709,-0.012 -1.593,-0.564 -0.313,-0.062 0.286,-0.136 1.407,-0.937 0.688,-0.187 -0.276,-2.198 -0.727,0.649 -3.27,2.182 -1.645,0.205 -1.089,-0.22 0.323,2.598 1.003,-0.48 1.543,-0.191 3.812,1.351 0.865,0.451 -0.305,-2.449 z M 28.809,11.409 28.58,9.572 26.237,7.746 l -1.808,1.206 1.05,0.373 1.135,0.884 0.147,0.306 -0.067,0.331 -0.246,0.318 -0.356,0.042 -1.447,-0.681 -1.272,0.158 -1.02,1.31 0.227,1.837 2.223,1.735 1.677,-1.119 -0.87,-0.295 -1.127,-0.88 -0.145,-0.305 0.067,-0.33 0.123,-0.158 0.282,-0.036 1.448,0.68 1.344,-0.164 1.207,-1.549 z m 7.765,10.302 -1.266,-5.393 -1.266,5.393 -5.393,1.267 5.393,1.267 1.266,5.393 1.266,-5.393 5.395,-1.267 -5.395,-1.267 z M 20.619,4.392 16.631,2.576 l -0.104,0.839 -2.254,4.949 -0.56,0.629 3.985,1.815 1.866,-0.701 1.752,-3.849 -0.697,-1.866 z M 10.16,0.822 9.019,2.919 8.801,2.981 8.256,2.883 8.175,2.767 8.431,1.33 8.824,0.582 6.443,0.155 6.551,0.991 5.59,6.345 5.199,7.093 9.511,7.867 11.031,6.81 11.377,4.875 10.646,3.825 11.677,2.066 12.39,1.222 10.16,0.822 z m 38.471,38.824 10e-4,0 c 0.039,0.779 0.06,1.561 0.06,2.349 0,0.011 -10e-4,0.021 -10e-4,0.031 l 0,0.057 -0.001,0 C 48.642,68.107 27.532,89.189 1.498,89.189 c -4.512,0 -8.872,-0.647 -13.005,-1.83 1.283,-2.014 2.077,-4.062 2.439,-5.708 0.856,-3.884 2.411,-7.334 4.628,-9.591 1.921,0.378 3.905,0.58 5.938,0.58 16.916,0 30.627,-13.702 30.644,-30.614 l 0,-0.031 c 0,-16.691 -13.344,-30.258 -29.946,-30.63 l 0,0 C 1.963,11.36 1.732,11.347 1.498,11.347 c -12.148,0 -22.644,7.07 -27.602,17.317 -0.4,0.082 -0.799,0.163 -1.207,0.238 -7.295,1.33 -13.181,3.3 -17.728,5.269 3.711,-22.235 22.956,-39.204 46.206,-39.364 l 0,-0.006 c 0.102,-0.002 0.205,-0.002 0.307,-0.002 0.008,0 0.015,-0.001 0.024,-0.001 0.234,0 0.465,0.014 0.698,0.018 l 0,0 c 24.957,0.364 45.224,20.086 46.435,44.83"
           id="path4147"
           style="fill:#0a0a09;fill-opacity:1;fill-rule:nonzero;stroke:none" />
      </g>
      <g
         transform="matrix(1.25,0,0,-1.25,633.58684,617.43313)"
         id="g4149">
        <path
           d="M 0,0 -0.438,0.354 -1,0.375 -1.594,0.103 -1.646,-0.03 l 1.481,-3.254 0.2,-0.073 0.549,0.247 0.355,0.44 0.022,0.56 L 0,0 z"
           id="path4151"
           style="fill:#0a0a09;fill-opacity:1;fill-rule:nonzero;stroke:none" />
      </g>
      <g
         transform="matrix(1.25,0,0,-1.25,579.27159,603.93338)"
         id="g4153">
        <path
           d="m 0,0 -1.457,2.114 -2.995,-0.657 -0.219,-0.091 0.162,0.173 1.68,2.566 -1.427,2.073 -0.52,-0.662 -4.466,-3.079 -0.802,-0.248 1.228,-1.784 0.52,0.664 2.57,1.774 0.304,0.268 -0.246,-0.352 -2.319,-3.554 0.029,-0.043 4.148,0.901 0.416,0.106 -0.359,-0.186 -2.572,-1.773 -0.805,-0.249 1.343,-1.95 0.517,0.663 4.465,3.079 L 0,0 z"
           id="path4155"
           style="fill:#ffffff;fill-opacity:1;fill-rule:nonzero;stroke:none" />
      </g>
      <g
         transform="matrix(1.25,0,0,-1.25,583.13334,609.91063)"
         id="g4157">
        <path
           d="m 0,0 -0.19,-0.302 -1.023,-1.972 -0.142,-0.013 -0.688,0.589 -0.013,0.141 1.788,1.322 L 0,0 z m -0.642,1.528 -4.69,-3.322 -0.829,-0.349 1.763,-1.505 0.446,0.679 0.508,0.362 0.142,0.011 1.262,-1.079 0.012,-0.143 -0.277,-0.557 -0.6,-0.546 1.877,-1.604 0.215,0.873 2.546,5.154 0.538,0.398 -2.602,2.223 -0.311,-0.595 z"
           id="path4159"
           style="fill:#ffffff;fill-opacity:1;fill-rule:nonzero;stroke:none" />
      </g>
      <g
         transform="matrix(1.25,0,0,-1.25,592.97946,614.429)"
         id="g4161">
        <path
           d="m 0,0 -2.225,1.18 -0.155,-0.828 -2.549,-4.804 -0.6,-0.594 3.648,-1.935 1.573,1.503 -1.083,0.175 -1.245,0.66 -0.062,0.205 2.005,3.779 L 0,0 z"
           id="path4163"
           style="fill:#ffffff;fill-opacity:1;fill-rule:nonzero;stroke:none" />
      </g>
      <g
         transform="matrix(1.25,0,0,-1.25,599.44984,624.06825)"
         id="g4165">
        <path
           d="M 0,0 -0.104,0.187 1.081,4.3 1.621,5.087 -0.797,5.784 -0.777,4.939 -2.283,-0.287 -2.748,-0.99 1.219,-2.134 2.449,-0.341 1.354,-0.39 0,0 z"
           id="path4167"
           style="fill:#ffffff;fill-opacity:1;fill-rule:nonzero;stroke:none" />
      </g>
      <g
         transform="matrix(1.25,0,0,-1.25,610.51121,624.19588)"
         id="g4169">
        <path
           d="M 0,0 -0.905,0.053 -1,0.159 -0.367,2.291 -0.297,2.641 -0.268,2.285 0.107,0.094 0,0 z M 2.815,-3.185 2.462,-2.36 1.387,3.288 1.576,3.93 -1.84,4.134 l 0.111,-0.66 -1.739,-5.478 -0.451,-0.779 2.312,-0.137 -0.052,0.808 0.185,0.594 0.108,0.095 1.658,-0.098 0.095,-0.107 0.115,-0.612 -0.149,-0.799 2.462,-0.146 z"
           id="path4171"
           style="fill:#ffffff;fill-opacity:1;fill-rule:nonzero;stroke:none" />
      </g>
      <g
         transform="matrix(1.25,0,0,-1.25,622.42471,621.89363)"
         id="g4173">
        <path
           d="M 0,0 -0.362,-0.268 -1.204,-0.42 -1.321,-0.338 -1.543,0.9 -1.462,1.017 -0.619,1.168 -0.188,1.043 0.082,0.68 0.127,0.432 0,0 z M 1.468,-1.056 2.2,-0.005 1.854,1.929 0.333,2.986 -3.979,2.213 l 0.391,-0.748 0.961,-5.355 -0.107,-0.835 2.38,0.426 -0.393,0.749 -0.255,1.436 0.081,0.117 0.545,0.098 0.217,-0.062 1.141,-2.097 2.23,0.399 -0.712,0.845 -1.032,1.758 z"
           id="path4175"
           style="fill:#ffffff;fill-opacity:1;fill-rule:nonzero;stroke:none" />
      </g>
      <g
         transform="matrix(1.25,0,0,-1.25,634.76046,620.77113)"
         id="g4177">
        <path
           d="m 0,0 -0.354,-0.439 -0.55,-0.248 -0.2,0.074 -1.48,3.254 0.051,0.132 0.594,0.272 0.563,-0.02 L -0.939,2.67 0.022,0.561 0,0 z m 0.518,4.329 -1.867,0.701 -3.984,-1.816 0.56,-0.629 2.253,-4.948 0.105,-0.839 3.987,1.815 0.698,1.866 -1.752,3.85 z"
           id="path4179"
           style="fill:#ffffff;fill-opacity:1;fill-rule:nonzero;stroke:none" />
      </g>
      <g
         transform="matrix(1.25,0,0,-1.25,643.77546,611.59151)"
         id="g4181">
        <path
           d="m 0,0 -1.449,-0.68 -0.281,0.035 -0.124,0.159 -0.066,0.33 0.145,0.305 1.127,0.88 0.87,0.295 -1.677,1.119 -2.224,-1.735 -0.226,-1.837 1.02,-1.31 1.272,-0.158 1.446,0.681 L 0.189,-1.958 0.436,-2.276 0.503,-2.607 0.356,-2.913 -0.779,-3.797 -1.83,-4.17 -0.021,-5.376 2.322,-3.55 2.55,-1.713 1.344,-0.165 0,0 z"
           id="path4183"
           style="fill:#ffffff;fill-opacity:1;fill-rule:nonzero;stroke:none" />
      </g>
      <g
         transform="matrix(1.25,0,0,-1.25,610.44284,525.15051)"
         id="g4185">
        <path
           d="M 0,0 0.393,0.215 0.898,0.234 1.307,0.048 1.523,-0.346 1.62,-2.964 1.433,-3.375 1.038,-3.589 0.534,-3.608 0.125,-3.422 -0.092,-3.027 -0.188,-0.41 0,0 z m -0.713,-5.317 1.46,0.052 1.356,-1.26 1.48,0.812 -0.937,0.872 1.018,1.095 L 3.506,0.581 2.148,1.842 -0.971,1.727 -2.232,0.373 -2.07,-4.055 -0.713,-5.317 z"
           id="path4187"
           style="fill:#ffffff;fill-opacity:1;fill-rule:nonzero;stroke:none" />
      </g>
      <g
         transform="matrix(1.25,0,0,-1.25,624.41446,533.15338)"
         id="g4189">
        <path
           d="m 0,0 1.563,0.993 0.011,0.514 0.963,4.326 0.42,0.73 -2.26,0.504 0.07,-0.841 -0.863,-3.883 -0.285,-0.349 -0.437,-0.11 -0.393,0.089 -0.35,0.282 -0.107,0.438 0.862,3.883 0.422,0.731 L -2.793,7.843 -2.719,7.002 -3.683,2.677 -3.892,2.208 -2.9,0.645 0,0 z"
           id="path4191"
           style="fill:#ffffff;fill-opacity:1;fill-rule:nonzero;stroke:none" />
      </g>
      <g
         transform="matrix(1.25,0,0,-1.25,635.57234,530.39826)"
         id="g4193">
        <path
           d="M 0,0 0.206,0.292 0.09,-0.046 -0.439,-2.204 -0.577,-2.248 -1.383,-1.838 -1.429,-1.704 0,0 z m -2.938,-3.523 0.407,0.472 0.137,0.043 1.481,-0.752 0.046,-0.135 -0.141,-0.607 -0.454,-0.673 2.2,-1.117 0.005,0.9 1.264,5.607 0.429,0.515 -3.052,1.548 -0.162,-0.651 -3.779,-4.332 -0.721,-0.534 2.065,-1.048 0.275,0.764 z"
           id="path4195"
           style="fill:#ffffff;fill-opacity:1;fill-rule:nonzero;stroke:none" />
      </g>
      <g
         transform="matrix(1.25,0,0,-1.25,642.65172,540.25538)"
         id="g4197">
        <path
           d="M 0,0 2.359,2.686 2.502,2.693 2.993,2.262 3.205,1.741 3.062,1.197 1.533,-0.544 1.012,-0.756 0.468,-0.614 0.015,-0.213 0,0 z M 2.382,-2.627 5.173,0.549 5.042,2.538 1.752,5.429 1.411,4.657 l -3.59,-4.084 -0.72,-0.44 3.29,-2.892 1.991,0.132 z"
           id="path4199"
           style="fill:#ffffff;fill-opacity:1;fill-rule:nonzero;stroke:none" />
      </g>
      <g
         transform="matrix(1.25,0,0,-1.25,655.46121,556.86488)"
         id="g4201">
        <path
           d="M 0,0 -0.917,0.886 -1.277,1.583 -1.29,2.258 -0.958,2.713 0.917,3.689 1.482,3.699 2.026,3.303 2.344,2.697 2.544,1.438 4.059,2.998 2.803,5.41 0.903,6.01 -2.85,4.056 -3.449,2.156 -2.146,-0.346 0,0 z"
           id="path4203"
           style="fill:#ffffff;fill-opacity:1;fill-rule:nonzero;stroke:none" />
      </g>
      <g
         transform="matrix(1.25,0,0,-1.25,654.32346,561.35651)"
         id="g4205">
        <path
           d="M 0,0 0.695,-2.369 1.396,-1.9 6.599,-0.374 7.439,-0.389 6.744,1.978 6.044,1.51 0.842,-0.015 0,0 z"
           id="path4207"
           style="fill:#ffffff;fill-opacity:1;fill-rule:nonzero;stroke:none" />
      </g>
      <g
         transform="matrix(1.25,0,0,-1.25,662.81596,568.12413)"
         id="g4209">
        <path
           d="m 0,0 0.073,-0.784 -0.092,-0.11 -4.211,-0.382 -1.085,0.255 0.242,-2.658 1.023,0.446 4.21,0.385 L 0.269,-2.94 0.34,-3.722 0.087,-4.797 2.029,-3.941 1.623,0.52 -0.445,1.009 0,0 z"
           id="path4211"
           style="fill:#ffffff;fill-opacity:1;fill-rule:nonzero;stroke:none" />
      </g>
      <g
         transform="matrix(1.25,0,0,-1.25,664.31559,577.98)"
         id="g4213">
        <path
           d="m 0,0 -3.812,-1.352 -1.543,0.191 -1.003,0.48 -0.323,-2.597 1.089,0.219 1.644,-0.205 3.271,-2.181 0.727,-0.65 0.276,2.199 -0.689,0.187 -1.407,0.937 -0.285,0.135 0.312,0.063 1.593,0.564 0.71,0.011 0.305,2.45 L 0,0 z"
           id="path4215"
           style="fill:#ffffff;fill-opacity:1;fill-rule:nonzero;stroke:none" />
      </g>
      <g
         transform="matrix(1.25,0,0,-1.25,656.67034,597.68763)"
         id="g4217">
        <path
           d="M 0,0 -1.266,5.393 -2.532,0 -7.925,-1.267 -2.532,-2.534 -1.266,-7.927 0,-2.534 5.395,-1.267 0,0 z"
           id="path4219"
           style="fill:#f68616;fill-opacity:1;fill-rule:nonzero;stroke:none" />
      </g>
    </g>
  </g>
</svg>
