<svg version="1.1" id="rapid-city_xA0_Image_1_" xmlns="http://www.w3.org/2000/svg" x="0" y="0" viewBox="0 0 431 335" style="enable-background:new 0 0 431 335" xml:space="preserve"><style>.st0{fill:#fff}.st1{fill:#cc2437}.st2{fill:#0c0808}.st4{fill:#f5f3f1}</style><path class="st0" d="M100.5 179.8c-7.9.2-13.1 6.2-12.8 13.4.3 7.2 5.7 13.1 14.3 12.3 6.6-.6 11.4-6.1 11.1-13.1-.3-7.9-6-12.4-12.6-12.6z"/><path class="st1" d="M0 143.4c1.4-.4 1.5-1.8 2.1-2.7l4.6-8.7 4-7.8 3.1-5.7c.9-1.6 1.7-3.3 2.8-4.7a10 10 0 0 1 2.9-2.5l4.9-3.1 9.5-6 5.4-3c2.2-1.3 4.2-2.8 6.4-4l7.6-4.1c1.4-.8 2.6-1.7 4-2.4l6.6-3.6 5.2-3 5-2.5c1.4-.7 2.7-1.6 4.1-2.4l5-2.5 4-2.1 7.9-4 10-4.9 8.7-3.9 7.5-3.5 8.8-3.7 6-2.7 9.2-3.6 4.4-2a57 57 0 0 1 4.4-1.6l3.8-1.4 10-3.6 6.2-2.3 6.7-2.3 9.3-3.3 6.1-1.9 4.4-1.4 9.4-2.7 5.8-1.7 5.2-1.4 5.2-1.5 11.8-3 9.8-2.2 6.1-1.4 6.9-1.2 8.6-2a373 373 0 0 1 11.2-1.9 341.3 341.3 0 0 1 21.5-3.3l8.5-1.3c3.3-.4 6.7-.6 10.1-.9l7.2-.7 7.1-.5 26.9-.4c1.4 0 2.7.3 4.1.4 4.5.3 9 .8 13.3 2.3 3.4 1.1 6.8 2.5 10 4.1 2.6 1.2 5 2.9 7.4 4.4 1.3.9 2.3 2.2 3.6 3 2.8 1.8 4.9 4.4 6.9 6.9 1.4 1.8 2.9 3.6 3.9 5.6 1.8 3.5 3.9 6.8 4.7 10.7.5 2.1 1.5 4 1.8 6.1.6 3.6 1.1 7.3 1.3 10.9.2 3-.1 6-.3 8.9-.1 1.9-.6 3.9-.9 5.8l-1.5 8.9-2 9.1-1.1 5.8-1.1 5-.8 4.7c-.6 3.1-1.1 6.3-2 9.3a69.4 69.4 0 0 1-5.7 14.1l-2.6 4.5c-.4.8-.4 1.5.2 2.3l4.6 7.2 3.5 4.9 4.7 7.1 5.5 8 4.2 6.6c1 1.6 2.2 3 3.3 4.6 1.3 1.8 2.7 3.5 3.7 5.5.4.7.2 1.9 0 2.9l-1.4 5.8c-.6 2.9-1 5.9-1.5 8.8l-1.3 6.2-2 7.9c-.5 2.1-1 4.3-1.7 6.3a172.2 172.2 0 0 1-6.9 17.6 116.1 116.1 0 0 1-13.1 21.6l-3.8 5.3-4.5 5.6a50.5 50.5 0 0 1-7.7 8.3c-1.7 1.6-3.7 3-5.6 4.4l-4.5 3.5-4.4 2.8a108 108 0 0 1-3.5 2.1c-1.5.8-3 1.7-4.6 2.4l-6.6 3-7.8 2.9-9.2 2.9c-2.4.7-4.8 1.2-7.2 1.7l-7.3 1.4-8.6 1c-4 .5-8 .7-12 .5l-8.4-.3c-2.2-.2-4.3-.7-6.5-.9-1-.1-1.7.1-1.6 1.5.2 1.4-1.2 3-2.6 3.3l-10.5 1.8-5.9 1.1-7.7 1.2-12.1 2-10.7 1.7-13.2 2.4-9.4 1.6-17.1 2.9-9.2 1.5-9 1.4c-3.7.6-7.3 1.4-11 2.1l-10.8 1.7-10.9 1.9-9.8 1.5c-3.2.5-6.3 1.2-9.5 1.8l-8.2 1.4-9.3 1.7c-1.1.2-1.5-.3-1.2-1.4l1.4-7.2 2.2-10.4 1.3-7 1.1-4.8 1.4-7.4 2.1-9.7 1.8-9.6 2-9.2 1.6-8.1 1.3-6.5a242.6 242.6 0 0 1 3.2-15.6c.8-3.5 1.6-7 2.2-10.5l2-10.7 1.3-5.8 1.3-7.8c.3-1.9 1.5-3.3 2.8-4.6l5.9-6 4.4-4.3c1.6-1.5 3.6-1.9 5.7-2.3l7.2-1.4 5.1-1.1c.5-.1 1.1-.7 1.2-1.1l1.9-8.2 1.7-8.4 1.9-8.4.7-3.2c.2-1.1-.2-1.4-1.3-1.2l-13.9 3.5-6.7 1.6-10.6 2.8-13.5 3.4-9.5 2.3-7.4 1.9-9.8 2.4-9.5 2.5-6.6 1.5 6.7-22.1-40.9 10.5c3.7-8.2 7-16.5 11.6-24.5h-2L50 140.5l-11.6 1.3-10.7.9-7 .7-9.1.8-6.5.5-5.4.4.3-1.7z"/><path class="st1" d="M422.2 177c.9 1.3 1.2 2.5.9 4.1-1.9 8.6-3.4 17.2-5.5 25.7a120.7 120.7 0 0 1-22.8 46.4c-3.1 3.8-5.9 7.9-9.2 11.5a80.4 80.4 0 0 1-22.5 16.7 120.7 120.7 0 0 1-35.5 11.8c-7.8 1.3-15.7 2.3-23.7 2.1a65.3 65.3 0 0 1-18.1-3c-1.9-.6-2-.5-2.3 1.4l-.1.4c-.7 3.6-.9 3.8-4.5 4.4l-37.4 6.2-30.3 5.1-36 6.2-42.9 7.3-8.9 1.6-.7.1c-1.2.1-1.4-.1-1.2-1.3l2.9-14.3 8.7-41.9 12.4-60.4a9.8 9.8 0 0 1 3.3-5.9c1.9-1.7 3.8-3.6 5.5-5.5a9.5 9.5 0 0 1 5.9-3.1l14.8-2.9c1.1-.2 1.7-.8 1.9-1.9l5.7-28.7 3.5-17.3.2-1.3-87.2 22.3-.4-.3 7.9-20.4-39.5 9.6c3-8 6.2-15.6 10.2-23.1l-62.9 7.1 2.6-5.1c1.9-3.7 3.7-7.3 5.8-10.9a8 8 0 0 1 2.8-3A795.8 795.8 0 0 1 121 64.1a683 683 0 0 1 55.4-22.5 610.8 610.8 0 0 1 103.9-27.2c7.9-1.3 15.7-2.6 23.6-3.7a506.2 506.2 0 0 1 43.7-3.2 218 218 0 0 1 19.8.3 48 48 0 0 1 43.1 35.9 52 52 0 0 1 1.2 20.8c-1.3 8.4-3 16.7-4.7 25-1.2 6.2-2.5 12.5-3.9 18.7-1.7 7.8-5 15-9.5 21.7-1.5 2.2-1.5 2.2 0 4.4l28.6 42.7z" id="XMLID_1_"/><path class="st2" d="M100.5 179.8c6.7.3 12.3 4.7 12.6 12.6.3 7-4.6 12.5-11.1 13.1-8.5.8-13.9-5.1-14.3-12.3a12.5 12.5 0 0 1 12.8-13.4zm10.3 13.1c.3-5.9-4.3-11.5-11.1-11.3-4.7.2-9.6 4-9.6 10.7-.1 6.8 4 10.8 10.2 11.2 5.3.5 10.8-4.5 10.5-10.6z"/><path class="st2" d="m119.4 142.3 1.5-.4 59.2-16.8c7.7-2.1 15.5-3.8 23.2-5.7 1.2-.3 1.5 0 1.2 1.1l-3 14.9-7.6 37.2-5.8 28.8c-.2 1-.8 1.7-1.9 1.9l-18.9 3.3c-1.7.3-2 .5-2.3 2.2l-2.5 12.2-8.1 39.9-7.5 37-.2 1.9 1.7-.1 13.9-2.4 29.1-5.2 29.2-5.1 29.2-5.2 24.1-4.2c1.2-.2 1.8-.9 2-2l2-10a447 447 0 0 0 1.8-8.8l1.1 1.3c1.2 1.3 2.3 2.8 3.6 4 5.9 5.5 13.1 8 21 8.9a84 84 0 0 0 19.4-.5c8.5-1.1 16.8-3.2 25-6 11.6-4 22-10.1 30.6-18.8a81.4 81.4 0 0 0 18-28.9 184 184 0 0 0 8.4-31.8c.4-1.9 0-3.5-1.1-5.1L390 156.5l-2.2-3.3c-.9-1.3-1.1-1.3-2.2-.2l-.3.3-13.1 13.8c-1.4 1.5-3 2.8-4.5 4.1l-.3-.2.2-1.5c1-5 2-10.1 2-15.3.1-5.9-.8-11.6-3.8-16.8-.5-.8-.4-1.5.4-2.1l4.9-3.7a49.4 49.4 0 0 0 17.5-28.9l6.4-31.5a61.3 61.3 0 0 0 1.6-19.1 32 32 0 0 0-3.8-12.3A33.6 33.6 0 0 0 372 23.7c-6.2-1.8-12.6-1.9-19-2.1-8-.2-16.1 0-24 .9-7.1.8-14.3 1.5-21.4 2.5-11.8 1.7-23.6 3.8-35.4 5.6-14 2.2-27.8 5.2-41.5 8.6A639 639 0 0 0 89.6 92.6c-13.5 7-26.6 14.6-39.3 22.9l-1.1.8.2.4 29.9-3.7c10-1.2 19.9-2.5 30.1-3l-17.2 22.3.3.2 39-9.5.1.4c-4.4 6.2-9.1 11.8-12.2 18.9z"/><path class="st2" d="M422.2 177c.9 1.3 1.2 2.5.9 4.1-1.9 8.6-3.4 17.2-5.5 25.7a120.7 120.7 0 0 1-22.8 46.4c-3.1 3.8-5.9 7.9-9.2 11.5a80.4 80.4 0 0 1-22.5 16.7 120.7 120.7 0 0 1-35.5 11.8c-7.8 1.3-15.7 2.3-23.7 2.1a65.3 65.3 0 0 1-18.1-3c-1.9-.6-2-.5-2.3 1.4l-.1.4c-.7 3.6-.9 3.8-4.5 4.4l-37.4 6.2-30.3 5.1-36 6.2-42.9 7.3-8.9 1.6-.7.1c-1.2.1-1.4-.1-1.2-1.3l2.9-14.3 8.7-41.9 12.4-60.4a9.8 9.8 0 0 1 3.3-5.9c1.9-1.7 3.8-3.6 5.5-5.5a9.5 9.5 0 0 1 5.9-3.1l14.8-2.9c1.1-.2 1.7-.8 1.9-1.9l5.7-28.7 3.5-17.3.2-1.3-87.2 22.3-.4-.3 7.9-20.4-39.5 9.6c3-8 6.2-15.6 10.2-23.1l-62.9 7.1 2.6-5.1c1.9-3.7 3.7-7.3 5.8-10.9a8 8 0 0 1 2.8-3A795.8 795.8 0 0 1 121 64.1a683 683 0 0 1 55.4-22.5 610.8 610.8 0 0 1 103.9-27.2c7.9-1.3 15.7-2.6 23.6-3.7a506.2 506.2 0 0 1 43.7-3.2 218 218 0 0 1 19.8.3 48 48 0 0 1 43.1 35.9 52 52 0 0 1 1.2 20.8c-1.3 8.4-3 16.7-4.7 25-1.2 6.2-2.5 12.5-3.9 18.7-1.7 7.8-5 15-9.5 21.7-1.5 2.2-1.5 2.2 0 4.4l28.6 42.7z" id="XMLID_2_"/><path class="st0" d="M110.8 192.9c.3 6-5.2 11-10.6 10.7-6.1-.4-10.2-4.5-10.2-11.2.1-6.7 4.9-10.5 9.6-10.7 6.9-.3 11.5 5.3 11.2 11.2zm-7.6.2c.8-.9 1.6-1.6 2-2.4.7-1.4 0-4.1-2.4-4.8-2.1-.6-4.3-.4-6.5-.2-.2 0-.6.6-.6.9l-.1 12.3c0 .8.2 1.3 1 1.4.8 0 1.1-.6 1.1-1.3v-3.6c0-.5.4-1.4.6-1.4.9 0 1.9.1 2.7.5 1.7.7 1.5 2.5 1.8 3.9.4 1.9.9 2.3 2.7 1.6-.4-2.5-.1-5.2-2.3-6.9z"/><path class="st1" d="m351.1 135.2 1.8-1c2.9-1.7 6-3.3 8.8-5.1 9.6-6.4 16.3-15 18.8-26.5 2.6-12 4.9-24.1 7.3-36.1.9-4.7 1.5-9.3.8-14.1a24.9 24.9 0 0 0-24.4-21.6 515.4 515.4 0 0 0-98.8 9.5 752.3 752.3 0 0 0-136.9 41.9 280.1 280.1 0 0 0-38 18.9c-1.2.7-2.3 1.7-3.5 2.5l.2.3 1.6-.1a692.3 692.3 0 0 1 32.1-3.9c5.5-.4 11-.5 16.5-.8l1.2.1c-8 6.3-16.7 11.2-23.5 18.7l37.8-6.2.3.5-1 .7c-3.3 3.2-6.7 6.4-9.9 9.8-1.1 1.1-1.8 2.5-2.7 3.8l.3.2.9-.2 26.7-7.1c14.9-3.9 29.9-7.2 45-9.9 1.9-.3 2-.2 1.6 1.7l-3.7 18.7-8.1 40.7-7.3 36.7c-.4 2.1-.7 2.5-2.9 2.9l-17.3 3c-2.4.4-2.8.9-3.3 3.3l-5.9 29.6-8.7 42.3c-.1.5 0 1 0 1.6.8-.1 1.5-.1 2.1-.3l13.9-2.5 32.3-5.7 33.9-6.1 28.3-5c1.1-.2 1.6-.8 1.9-1.9l3.3-16.5 11-54.1.7-4.1-1.4.2-16.3 2.9c-1.1.2-1.4 0-1.2-1.2l.1-.7 4.5-22.3c.2-1.1.7-1.8 1.9-2 3.7-.6 7.3-1.3 11-1.8 3.6-.6 7.3-.9 11 0 1.5.4 2.3 1.1 2.4 2.6s.2 3 0 4.4a195 195 0 0 1-2.4 11l-9.3 36.6a49.8 49.8 0 0 0-1.6 19.2c1.2 7.7 5 13.4 12 17a33 33 0 0 0 14.1 3.5c13.3.4 26.2-2.1 38.7-6.6a70 70 0 0 0 24.1-13.9 74.8 74.8 0 0 0 19-28.6c3.7-9.2 5.6-18.9 7.7-28.6.2-1.2 0-2.3-.7-3.3l-10.4-15.5-1.7-2.2-10.8 10.9a37 37 0 0 1-9.2 6.4c-1.8.9-3.7 1.4-5.8 1.2-2.1-.2-2.8-1.2-2.4-3.2l3.3-16.8a39 39 0 0 0 .4-15.6c-1.2-5.4-3.8-9.7-9.3-11.7l-.9-.5z"/><path class="st1" d="M405.8 179.9a6.1 6.1 0 0 1 1 5.1 193.4 193.4 0 0 1-8.4 31.8 81.4 81.4 0 0 1-18 28.9 77.7 77.7 0 0 1-30.6 18.8c-8.1 2.8-16.4 4.9-25 6-6.4.8-12.9 1.2-19.4.5a35 35 0 0 1-21-8.9c-1.3-1.2-2.4-2.7-3.6-4l-1.1-1.3-1.8 8.8-2 10c-.2 1.1-.8 1.8-2 2l-24.1 4.2-29.2 5.2-29.2 5.1-29.1 5.2-13.9 2.4-1.7.1.2-1.9 7.5-37 8.1-39.9 2.4-12.2c.4-1.7.6-1.9 2.3-2.2l19-3.3c1.1-.2 1.7-.9 1.9-1.9l5.8-28.8 7.6-37.2 3-14.9c.2-1.2 0-1.4-1.2-1.1-7.8 1.9-15.5 3.5-23.2 5.7-19.8 5.5-39.5 11.2-59.2 16.8l-1.5.4c3-7.1 7.8-12.7 12-18.6l-.1-.3-39 9.5-.3-.2 17.2-22.3c-10.2.5-20.1 1.8-30.1 3l-29.9 3.8-.2-.4 1.1-.8a452.2 452.2 0 0 1 39.3-22.9 644 644 0 0 1 141.1-53.5c13.7-3.4 27.6-6.3 41.5-8.6 11.8-1.9 23.6-3.9 35.4-5.6 7.1-1 14.2-1.7 21.4-2.5 8-.9 16-1.1 24-.9 6.4.2 12.8.3 19 2.1a33.1 33.1 0 0 1 24.6 28.4c.7 6.5-.2 12.8-1.6 19.1l-6.4 31.5a50 50 0 0 1-22.4 32.7c-.8.6-.9 1.2-.4 2.1a30.8 30.8 0 0 1 3.8 16.8c-.1 5.2-1.1 10.2-2 15.3l-.2 1.5.3.2 4.5-4.1 13.1-13.8.3-.4c1.2-1.2 1.3-1.2 2.2.1l2.2 3.3c5.5 7.6 10.7 15.4 16 23.1z" id="XMLID_6_"/><path class="st2" d="M103.2 193.1c2.2 1.6 1.9 4.3 2.5 6.7-1.8.6-2.4.2-2.7-1.6-.3-1.4-.1-3.2-1.8-3.9-.8-.4-1.8-.5-2.7-.5-.2 0-.5.9-.6 1.4v3.6c0 .8-.3 1.3-1.1 1.3s-1.1-.5-1-1.4l.1-12.3c0-.3.4-.8.6-.9 2.2-.2 4.3-.4 6.5.2 2.3.7 3.1 3.4 2.4 4.8-.6 1.1-1.4 1.7-2.2 2.6zm-5.3-.7 2.9-.1c1.1-.1 2-.6 2.5-1.7a2 2 0 0 0-.4-2.2c-1-1-2.4-1.4-3.8-1.2-.9.1-1.2.7-1.1 1.6l-.1 3.6z"/><path class="st0" d="m154 117.3 1.4-.1c13.8-3.7 27.5-7.6 41.4-10.9 11-2.7 22.2-4.8 33.3-7.1l2.7-.3c-.3.5-.6.7-.9.9l-10.1 6.2a4.8 4.8 0 0 0-2.6 3.7c-1.9 10.3-4.1 20.6-6.1 30.9L207 172l-5.2 26.5-2.8 14.4c-.2 1-.7 1.5-1.6 1.6l-8.8 1.5-10.3 1.7c-1.7.3-2.1.8-2.4 2.5l-.3 2.2-4.9 24-6.9 33.6-.7 4h1.8l16.5-3 23.5-4.2 22.4-4 22.5-4 13.1-2.2c1.5-.3 2.4-1 2.7-2.6l.9-4.9 11.4-55.7.5-3.4a929 929 0 0 0-19 3.4l.2-1.8 6.6-32.7c.3-1.6.7-1.9 2.3-2.2l12.9-2.1c4.2-.6 8.3-1.3 12.6-.6 4.3.7 7.1 3 7.4 7 .2 2.6.3 5.3-.4 7.8l-9.2 36.5c-1.7 6.9-3.7 13.7-4 20.8-.2 4.6.3 9.2 2.8 13.2 3.4 5.4 8.8 7.7 14.8 8.6 6.1.9 12.3.5 18.4-.3 7.7-1 15.1-2.9 22.4-5.5a62.5 62.5 0 0 0 37.8-33.9c4.7-10.3 7.6-21.1 9.7-32.1.1-.7-.1-1.6-.5-2.3l-7-10.6c-.5-.8-1-.9-1.7-.2l-3.2 3.2c-3.9 3.8-8 7.3-13 9.7-3 1.4-6.1 2.2-9.5 1.6-4.2-.7-6.7-4.2-5.9-8.3.8-4.5 1.8-8.9 2.7-13.3 1.1-5.4 2-10.9 1.3-16.5-.6-5.5-3.2-8.8-8.5-10-6.3-1.5-12.6-.8-18.9-.1l-6 .9c1.4-.7 2.9-1.1 4.4-1.5 9.5-3 18.9-6.4 27.6-11.4a41 41 0 0 0 21.4-29.5c1.7-9.9 3.9-19.7 5.8-29.5.8-4.1 1.7-8.1 1.6-12.3a20.2 20.2 0 0 0-19.9-20.5 273 273 0 0 0-41.4 1.6c-7.1.6-14.2 1.3-21.3 2.2-9.4 1.3-18.7 2.9-28.1 4.4a649.3 649.3 0 0 0-93.8 24.5 591 591 0 0 0-63.9 26.2l-2 1c17.2-2.4 34.2-5.8 51.9-7l-1.3.8a906 906 0 0 1-10 5.4c-6.5 3.5-13 6.9-18.6 11.6l-4.1 3.7.2.3c15-3.6 29.6-8.6 45.1-10l-.9.7c-4.8 3.3-9.7 6.4-14.4 9.8-2.8 2.1-5.2 4.4-7.8 6.6l-.1.1.1-.1c0 .1 0 0 0 0z"/><path class="st0" d="M397.9 182.4c.7 1 1 2.1.7 3.3-2 9.7-4 19.4-7.7 28.6a75.6 75.6 0 0 1-19 28.6 73.7 73.7 0 0 1-24.1 13.9c-12.5 4.5-25.4 7-38.7 6.6-4.9-.2-9.6-1.2-14.1-3.5-7-3.6-10.9-9.3-12-17a48 48 0 0 1 1.6-19.2l9.3-36.6a195 195 0 0 0 2.4-11c.3-1.4.2-3 0-4.4-.1-1.5-.9-2.2-2.4-2.6-3.7-.9-7.3-.5-10.9 0l-11 1.9c-1.2.2-1.7.9-1.9 1.9l-4.5 22.3-.1.7c-.1 1.2.1 1.4 1.2 1.2l16.3-2.9 1.4-.2-.7 4.1-11 54.1-3.3 16.6c-.2 1.1-.7 1.7-1.9 1.9l-28.3 5-33.9 6.1-32.3 5.7-13.9 2.5-2.1.3c0-.6-.1-1.1 0-1.6l8.7-42.3 5.9-29.6c.5-2.4.9-2.9 3.3-3.3l17.3-3c2.1-.4 2.5-.7 2.9-2.9l7.3-36.7 8.1-40.7 3.7-18.7c.4-1.9.3-2-1.7-1.7a633.6 633.6 0 0 0-45 9.9l-26.7 7.1-.9.2-.3-.2c.9-1.3 1.6-2.7 2.7-3.8l9.9-9.8 1-.8-.3-.5-37.8 6.2c6.8-7.5 15.5-12.4 23.5-18.7-.5-.1-.8-.2-1.2-.1-5.5.2-11 .3-16.5.8-6 .5-11.9 1.1-17.9 1.8l-14.2 2-1.7.1-.2-.3c1.2-.8 2.3-1.8 3.5-2.5a269 269 0 0 1 38-18.9 771.5 771.5 0 0 1 136.9-41.9c10.7-2 21.5-3.7 32.3-5.2 15.4-2.1 30.9-3.4 46.4-4 6.7-.3 13.4-.3 20.1-.3a25 25 0 0 1 24.4 21.6c.7 4.8.1 9.5-.8 14.1-2.4 12.1-4.7 24.1-7.3 36.1a42.4 42.4 0 0 1-18.8 26.5c-2.8 1.9-5.8 3.4-8.8 5.1l-1.8 1 .9.6c5.5 2 8.1 6.3 9.3 11.7a39 39 0 0 1-.4 15.6l-3.3 16.8c-.4 2 .4 3 2.4 3.2 2.1.2 4-.3 5.8-1.2 3.4-1.6 6.5-3.7 9.2-6.4l10.8-10.9 1.7 2.2a1067 1067 0 0 1 10.5 15.5z" id="XMLID_3_"/><path class="st0" d="M97.9 192.4v-3.7c-.1-.9.3-1.4 1.1-1.6 1.4-.2 2.8.1 3.8 1.2.6.6.7 1.5.4 2.2-.4 1.1-1.3 1.6-2.5 1.7l-2.8.2z"/><path class="st2" d="M313.6 103.6c.3-3.3-.6-5.1-3.1-5.8a14 14 0 0 0-5-.5l-24.4 3.5c-1 .1-1.7.7-1.8 1.7l-.5 2.6-6.5 31.7c-.2 1.2 0 1.4 1.3 1.2 4.9-.9 9.7-1.7 14.6-2.8 4.2-.9 8.5-2 12.6-3.4a14 14 0 0 0 9.2-9.6c1.8-6 3.2-12.3 3.6-18.6z"/><g id="XMLID_4_"><path class="st2" d="M393.1 184.1c.4.6.6 1.6.5 2.3-2.1 11-5 21.9-9.7 32.1a62.5 62.5 0 0 1-37.8 33.9c-7.3 2.6-14.8 4.5-22.5 5.5-6.1.8-12.2 1.2-18.4.3-6-.9-11.4-3.2-14.8-8.6-2.5-4-3.1-8.6-2.9-13.2.4-7.1 2.3-14 4-20.8 3.1-12.2 6.3-24.3 9.2-36.5.6-2.5.6-5.2.4-7.8-.3-4-3.1-6.3-7.4-7s-8.4 0-12.6.6l-12.9 2.1c-1.6.3-2 .6-2.3 2.2l-6.6 32.7-.2 1.8 19-3.4c-.2 1.2-.2 2.3-.5 3.4l-11.4 55.7-.9 4.9c-.2 1.6-1.1 2.4-2.7 2.6l-13.1 2.2-22.5 4-22.3 4-23.5 4.2-16.5 3h-1.8l.7-4 6.9-33.6 4.9-24 .3-2.2c.3-1.7.7-2.2 2.4-2.5l10.2-1.7 8.8-1.5c.9-.2 1.5-.7 1.6-1.6l2.8-14.4 5.2-26.5 6.1-31.4c2-10.3 4.2-20.6 6.1-30.9a4.8 4.8 0 0 1 2.6-3.7l10.1-6.2c.3-.2.7-.4.9-.9l-2.7.3c-11.1 2.3-22.3 4.4-33.3 7.1-13.9 3.4-27.6 7.3-41.4 10.9l-1.4.1c2.6-2.2 5-4.5 7.7-6.4 4.7-3.4 9.6-6.6 14.4-9.8l.9-.8c-15.5 1.4-30.1 6.4-45.1 10l-.2-.2 4.1-3.7c5.7-4.7 12.2-8.1 18.6-11.6l10-5.4 1.3-.8c-17.7 1.3-34.7 4.7-51.9 7.1l2-1a634.5 634.5 0 0 1 122.2-43.3c11.8-2.8 23.6-5.5 35.5-7.4 9.4-1.5 18.7-3.1 28.1-4.5 7.1-1 14.2-1.6 21.3-2.2a448 448 0 0 1 23.3-1.6c6-.3 12.1-.2 18.1 0 11.3.4 19.7 9.2 19.9 20.5.1 4.2-.8 8.2-1.6 12.3-1.9 9.8-4.1 19.6-5.8 29.5a40.8 40.8 0 0 1-21.4 29.5c-8.7 5-18.1 8.4-27.6 11.4-1.5.5-3 .9-4.4 1.5l6-.9c6.3-.7 12.6-1.4 18.9.1 5.3 1.3 7.9 4.6 8.5 10.1.6 5.6-.3 11.1-1.4 16.5l-2.7 13.3c-.8 4.1 1.8 7.6 6 8.3 3.4.6 6.5-.2 9.5-1.6 5-2.4 9.1-5.8 13-9.7l3.2-3.2c.7-.7 1.2-.6 1.7.2 2.6 3.2 5 6.7 7.3 10.3zM154 117.3z"/></g><path class="st2" d="M154 117.3v.2h-.2l.2-.2z"/><path d="M306.9 97.2c-2.9.3-5.6.4-8.2.8l-17.5 2.8c-1 .2-1.8.7-1.9 1.8l-.5 2.5-6.5 31.8c-.2 1.2 0 1.4 1.1 1.2a630 630 0 0 0 13.4-2.5c4.4-1 8.8-2 13-3.3 4.9-1.6 8.4-4.8 10-9.8 2-6.5 3.4-13.1 3.8-19.9.1-2.3-1-4.1-3.2-4.7-1.2-.5-2.5-.6-3.5-.7z" style="fill:#040403"/><path class="st4" d="M305.4 102.2c-.8 0-1.7 0-2.5.2l-17.3 2.6c-1.8.3-1.9.5-2.3 2.5l-2.9 14.1-1.8 9c-.2 1.2.1 1.5 1.4 1.3l2.5-.4c5.7-1 11.4-2.1 16.8-4.3 2.8-1.1 4.6-3 5.7-5.8 2-5.4 2.9-11 3.7-16.6.3-2.2.4-3.1-2.6-2.7l-.7.1z"/><path class="st4" d="M310.4 97.8c2.2.6 3.4 2.4 3.2 4.7a84.4 84.4 0 0 1-3.8 19.9c-1.6 5-5.1 8.3-10 9.8-4.3 1.4-8.7 2.4-13 3.3-4.4 1-8.9 1.7-13.4 2.5-1.2.2-1.4 0-1.1-1.2l6.5-31.8.5-2.5c.2-1.2.9-1.6 1.9-1.8l17.5-2.8c2.6-.4 5.2-.5 8.2-.8 1 .2 2.3.3 3.5.7z" id="XMLID_5_"/><path d="m305.4 102.2.6-.1c3-.3 2.9.5 2.6 2.7a79.6 79.6 0 0 1-3.7 16.6 9.4 9.4 0 0 1-5.7 5.8 81.3 81.3 0 0 1-19.3 4.7c-1.3.2-1.6-.1-1.4-1.3l1.8-9 2.9-14.1c.4-2 .6-2.2 2.3-2.5l17.3-2.6c.9-.2 1.8-.2 2.6-.2z" style="fill:#ce2538"/></svg>