<svg version="1.1" id="Layer_1" xmlns="http://www.w3.org/2000/svg" x="0" y="0" viewBox="0 0 720.3 578.6" style="enable-background:new 0 0 720.3 578.6" xml:space="preserve"><style>.st0{fill:#fff}.st1{fill:#38d430}.st2{fill:#c1c5c8}</style><path class="st0" d="M140.6 186a48.7 48.7 0 0 0-31.2 13.8l-21.6-11.5c-.1-39.1 19.1-98.9 32-116.6 3.8-5.3 3.9-12.5.1-18a94.9 94.9 0 0 0-30.4-25.8 131.2 131.2 0 0 0-63.6 8.3 23 23 0 0 0-13.4 15.2c-29.5 103 1.2 154 11.3 167.2 3 3.9 6.9 7.2 11.3 9.6l51.3 27.2c-.4 9.4.9 18 3.8 24.7a70 70 0 0 0 18.1 23.2c-4.7-.1-20-2.2-27.4-4.3a33.3 33.3 0 0 0 11.2 21.5c-3 .3-13.3.2-18.4-1a51.4 51.4 0 0 0 21 18.7c-2.2.7-13.6 1.5-17 .3 4.4 4.6 14 10.9 20.2 13a115 115 0 0 1-22.1 3.2c2.1 1.9 5.6 4.6 8.9 6.7l-5.2 1.3c-3.4.2-6.7.8-10.3 1.7a61 61 0 0 0-46.9 50.4L8.4 502.1c-3.1 19.9 5 31.1 10.1 36.1l7.4 7.3.1.1a32.6 32.6 0 0 0 23.5 9c6.2-.4 12.1-2.7 17.5-6.9l5 4.3 34.9-8.6 3.4-21.8 87.4-21.6-.7.9a20.1 20.1 0 0 0-4.1 16.1 68 68 0 0 0 28.7 45c15.9 11.1 36.6 16.7 61.6 16.7l7.8-.2c22.5-1 56-6.2 87.4-25.3 25.7-15.7 45-37.5 57.4-65 1.3.7 2.6 1.4 4 1.9 5.6 2.1 12 2.9 17.6 3.5 3.3.4 8.3.9 9.9 1.7 13.2 9.8 23.9 9.1 29.9 8.9a47.7 47.7 0 0 0 31.6-13.7l16.3 8.7c1.1 2.6 3 4.9 5.7 6.3l14.8 7.9a13 13 0 0 0 8.7 1.2l5.9-1.3c3.6-.8 6.6-3.1 8.3-6.4l17.2-32.3a12.5 12.5 0 0 0-5.2-17l-14.8-7.9a13 13 0 0 0-8.7-1.2l-.9.2-7.4-4 5.9-38 19.5-4.8-3.8 24.9 45-10.9 10.8-11.5c8.3 1.8 15.9.4 19.3-.4a55.3 55.3 0 0 0 40.5-45.9l.8-5h.1l13.1-84.2c3.1-19.8-5.1-31.1-10.3-36.1l-7.4-7.4c-6.7-6.4-19.2-13-40.1-8a64.3 64.3 0 0 0-28.4 15.2 48.7 48.7 0 0 0-31.8-.2l1.5-9.8a24.3 24.3 0 1 0-40.3-16.7c-6.5 0-13.3.2-20.5.8-5.7-12.3-15.8-24.9-33.3-27.8-16.9-2.8-55.9 1-88.2 14.4a90.2 90.2 0 0 1-1.1-36.8c1.3-.6 2.8-1.3 4-2.1 16 2.7 35.1-2.6 49.2-13.8 15.1-12 27.7-32.3 19.2-68.9 0 0-4.2 4.8-7.6 7-3.4-9.7-10.1-20.1-29.8-29.9.1-6.6-.6-13.6-3.3-20.3-1.2-2.9-5.1-11.6-13.6-13.9-8.8-2.3-16.2 3.1-24 8.9a97.1 97.1 0 0 1-21 12.7C360.5-.2 310 6.1 290 10.5c-27.1-12.7-65.4-17.6-91.5 7.3-19 .6-37.3 8.4-49.5 21.4A62.2 62.2 0 0 0 132.7 89l1.2 10.5a186 186 0 0 1 1.5 15.7c-9.3-1.4-18.4.3-24.9 3.5-3.7 1.8-6.3 5-7.3 8.7-.9 3.7-.2 7.5 2.1 10.7a124.3 124.3 0 0 0 52.6 43c.4 2.5.8 4.9 1.4 7.2a45.7 45.7 0 0 0-18.7-2.3z"/><path d="m702.3 240.2-7.4-7.4c-4.9-4.7-14.1-9.5-30.7-5.4a52.3 52.3 0 0 0-28.8 18c-5.3-4.1-14-7.4-27.9-4l-.3.1c-7 1.7-13.2 4.5-18.5 8.2l5.1-32.7a14.1 14.1 0 1 0-14.8-.9l-.1.8c-13.1-1.2-27.6-.9-43.1.6-5.3-15.2-14.1-26.2-28.3-28.5-15.3-2.5-59.3 1.4-92.4 18.2a93.4 93.4 0 0 1-3.8-58.5c4.9-1 8.4-3.3 10.6-5.3 23.4 6.5 64.9-11.2 62.7-51.3 0 0-4.6 4.2-9.4 6.5 3.9-10.7-.4-26.1-14.3-34.6-6.1 22.3-23.2 26.1-41.4 37.2 21.3-23 29.8-47.5 22.7-69-9.9-22.4-20.4 6.2-52.7 15.6-30.2-40.3-83.7-31-100.8-26.7-26.8-13.7-63.6-17.9-86 6.9-31.4-1-63.6 21-60 60.2 1.3 13.7 5.1 31.6 1.1 40.5a33.2 33.2 0 0 0-28.8-.7c-1.7.8-2.8 2.6-1.4 4.6a113.2 113.2 0 0 0 53.9 41.7 70.7 70.7 0 0 0 4.4 20.6l4 1.1a100 100 0 0 0 1.9 10.7c-5.2-.6-9.9-1.3-12.5-3.3-11.6-8.6-18.8-7-24.5-6.8a38.1 38.1 0 0 0-29 16.2l-33.8-18c-2.2-40 18.3-107.5 33.8-128.7a5.6 5.6 0 0 0 0-6.3A82.4 82.4 0 0 0 86.5 38 118.2 118.2 0 0 0 30 45.9a12.8 12.8 0 0 0-7.4 8.6c-24.7 86.2-6.5 137.4 9.6 158.4 2.2 2.8 4.9 5.1 8 6.8L97 249.6a52.6 52.6 0 0 0 2.4 26.4c6 13.9 24.2 28 40.7 37.2-16.1 1.2-30.7 1-43.4-1.4 5.2 9.4 28.2 13.5 34.7 13.5 0 0-16 4.2-34.9 3.5 0 0 20.4 10.4 50.2 8.9 0 0-16.8 6.1-39.8 7.6 0 0 20.4 6.3 31.7 4.8 0 0-20.5 7.7-37.9 9.5 0 0 9.4 1.8 23.3 2.2l-12.8 3.2-5.3 1.3-25.2 6.2A51.3 51.3 0 0 0 31.9 416l-13.6 87.4c-2.4 15.4 3.5 23.7 7.2 27.3l7.4 7.4c3.6 3.4 18.2 14.2 33.6-4.3l8 6.9 23.3-5.8 3.4-21.8 161.4-39.9a57.2 57.2 0 0 1-51.2 30.5c-5.8.2-9.7 5.6-8.7 11.3 5 29.1 31.1 55.6 87.6 53.1 55.3-2.4 117.7-28.4 141.5-98.3 2.9 5.2 6.9 8.8 11.4 10.5 9.5 3.6 24.3 2.3 29.8 6.4 11.6 8.6 18.8 7 24.5 6.8a38 38 0 0 0 28.8-16l28.2 15-.2.4a2.5 2.5 0 0 0 1 3.3l14.8 7.9a2 2 0 0 0 1.7.2l5.9-1.3c.7-.2 1.3-.6 1.6-1.2l17.2-32.3c.6-1.2.2-2.6-1-3.3l-14.8-7.9a2 2 0 0 0-1.7-.2l-4.6 1-33.5-17.8c1.5-10.5.7-20.5-2.3-27.5a39.8 39.8 0 0 0-4.6-7.8l15.7-3.9-4.7 30.3 7-11.6-.7 16.2 5.6-10.9 2.7 8.7 5.7-36.6 40.8-10.1-3.9 25 27.3-6.6 13.2-14.1a30.3 30.3 0 0 0 19.8 1.4 45 45 0 0 0 32.9-37.7l3.6-22.4 10.4-66.6c2.5-14.3-2.5-22.5-7.1-26.9z"/><path class="st0" d="m60.7 473.3 7.9-8.4-4.2 27.1c-1.5 9.7-4.8 13.5-9 14.5-3.4.9-5.6-.7-4.2-9.2l10.3-66.1 2.9-18.5c1-6.2 3.2-10.2 8.1-11.5 4.7-1.2 5.8 2 4.9 8.3L74 430.3l17.7-18.8 1-6.3c2.3-14.5-7.1-17-18.9-14.1a31.9 31.9 0 0 0-25.1 26.5L35.1 505c-1.8 11.6 3.5 16.5 13.2 14.1a27 27 0 0 0 16.2-11.8l10.8 9.4 13.1-84.4-25.6 27.1-2.1 13.9zM288.3 426.3l12.5-80.2c8.9-2 10.8-.5 13.1 1.4l2.4-15.5-43.8 10.8-2.4 15.5c3.1-3.3 5.7-5.9 14.6-8.3l-12.5 80.2c-1.5 9.5-4.1 12.2-7.3 15.6l26.3-6.5c-2.4-1.9-4.3-3.5-2.9-13zM553 360.8l12.5-80.2c8.9-2 10.8-.5 13.1 1.4l2.4-15.5-43.8 10.8-2.4 15.5c3.1-3.3 5.7-5.9 14.6-8.3l-12.5 80.2c-1.5 9.5-4.1 12.2-7.3 15.6l26.3-6.5c-2.5-1.9-4.4-3.5-2.9-13zM150.2 387c1.5-9.5 4.1-12.2 7.3-15.6l-20.5 5.1-6.1 39.2-14.9 15.7 8.1-51.8-20.5 5.1c2.4 2 4.3 3.6 2.9 13.1l-11.9 76.5c-1.5 9.5-4.1 12.2-7.3 15.6l20.5-5.1 6-38.3 14.9-15.8-7.9 50.9 20.5-5.1c-2.4-2-4.3-3.6-2.9-13.1l11.8-76.4zM206 378.7l-10.1 64.9a31.9 31.9 0 0 1-25.1 26.5c-11.8 2.9-21.2.4-18.9-14.1l10.6-68c2.3-14.5 13.2-22 25-25 13.8-3.4 20.6 2.4 18.5 15.7zm-20.2-5.3c-4.7 1.2-6.9 5.2-7.9 11.4l-10.4 66.8c-1 6.2.1 9.4 4.9 8.3 4.9-1.2 7.1-5.2 8.1-11.5l10.4-66.8c.9-6.3-.2-9.5-5.1-8.2zM368.9 318.1a27 27 0 0 0-16.2 11.8l-10.8-9.4-15.4 99-8.9 2.2c-7 1.7-12.4 11.5-13.7 19.3 2.4-5 10.3-7.3 13.9-8.2l6.9-1.7-1 6.4c-1.5 9.5-4.1 12.2-7.3 15.7l17.4 15 6.4-40.9 6.6-1.6a31.9 31.9 0 0 0 25.1-26.5l10.4-66.9c1.7-11.6-3.7-16.6-13.4-14.2zm-2.7 21.7-9.8 62.8c-1 6.2-3.2 10.2-7.9 11.4l-6.6 1.6 11-70.5c1.5-9.7 4.8-13.5 9-14.5 3.5-.8 5.6.8 4.3 9.2zM412.3 322.1c1.5-9.5 4.1-12.2 7.3-15.6l-25.6 6.3c2.4 2 4.3 3.6 2.9 13.1L385 402.4c-1.5 9.5-4.1 12.2-7.3 15.6l25.6-6.3c-2.4-2-4.3-3.6-2.9-13.1l11.9-76.5zM609.8 258.5c-11.8 2.9-22.7 10.4-25 25l-10.6 68c-2.3 14.5 7.1 17 18.9 14.1a31.9 31.9 0 0 0 25.1-26.5l3.8-24.4-17.7 18.8-1.6 10.4c-1 6.2-3.2 10.2-8.1 11.5-4.7 1.2-5.8-2-4.9-8.3l3-19.1 26.3-27.8a27 27 0 0 0 7.5-14.2l1.8-11.7c2.1-13.4-4.7-19.2-18.5-15.8zm3.3 18.6-2.4 15.5c-.5 2.9-2.1 6-4.5 8.6l-11.1 11.7 5.1-32.6c1-6.2 3.2-10.2 7.9-11.4 4.9-1.3 5.9 1.9 5 8.2zM509 283.5a31.9 31.9 0 0 0-25.1 26.5l-3 19.2 17.7-18.8.8-5.2c1-6.2 3.2-10.2 8.1-11.5 4.7-1.2 5.8 2 4.9 8.3l-2.2 13.9-26.2 27.7a28.2 28.2 0 0 0-7.6 14.4l-3.1 19.8c-1.8 11.6 3.5 16.5 13.2 14.1a27 27 0 0 0 16.2-11.8l10.8 9.4 14.3-92c2.3-14.5-7.1-17-18.8-14zm-6.4 81.4c-1.5 9.7-4.8 13.5-9 14.5-3.4.9-5.6-.7-4.2-9.2l2.9-18.7c.5-3.2 2.3-6.5 4.9-9.3l10.7-11.3-5.3 34zM458 296.1a27 27 0 0 0-16.2 11.8l-10.8-9.4-15 96.2c-1.5 9.5-4.1 12.2-7.3 15.6l25.6-6.3c-2.4-2-4.3-3.6-2.9-13.1l3.9-25.2 7.1-7.5 4.3 3.6c1 .8 1.4 2.1 1.1 3.7l-4.5 28.9c-.7 4.3 2.4 6.8 6.9 5.7l12.4-3.1c-2.4-2-4.3-3.6-2.9-13.1l4-25.6c.6-3.6-.4-6.7-2.6-8.7l-5.9-5 6.8-7.2c3.8-4.1 6.4-8.9 7.1-13.4l2.2-13.8c1.8-11.5-3.6-16.5-13.3-14.1zm-2.7 21.7-2.1 13.3c-.4 2.4-1.7 4.9-3.7 7.1l-11.7 12.4 4.3-27.4c1.5-9.7 4.8-13.5 9-14.5 3.4-.9 5.5.6 4.2 9.1zM667.1 300.2l-5-4.3c-8.7-7.5-8.2-8.8-7.4-14l2.5-15.8c1-6.2 3.2-10.2 7.9-11.4 4.9-1.2 6 2 5 8.2l-2.9 18.6 13 11.3 5.3-34.3c2.3-14.5-7.1-17-18.9-14.1a31.9 31.9 0 0 0-25.1 26.5l-2.6 15.8c-1.7 10.8-1.7 12 8.7 20.8l5 4.3c8.7 7.5 8.2 8.8 7.4 14l-3.3 21.9c-1.3 8.4-4.1 11.2-7.5 12.1-4.3 1.1-6.6-1.4-5-11.1l3.4-22.5-13-11.3-10.2 66 14.7-15.7c1.8 4 6.6 6.1 13.6 4.4a25.7 25.7 0 0 0 18.9-22.1l4.2-26.6c1.7-10.7 1.7-12-8.7-20.7zM246.3 394.9l-5-4.3c-8.7-7.5-8.2-8.8-7.4-14l.9-6c1-6.2 3.2-10.2 7.9-11.4 4.9-1.2 6 2 5 8.2l-1.4 8.8 13 11.3 3.8-24.5c2.3-14.5-7.1-17-18.9-14.1a31.9 31.9 0 0 0-25.1 26.5l-1.1 6.1c-1.7 10.8-1.7 12 8.7 20.8l5 4.3c8.7 7.5 8.2 8.8 7.4 14l-1.8 12.1c-1.3 8.4-4.1 11.2-7.5 12.1-4.3 1.1-6.6-1.4-5-11.1l1.9-12.7-13-11.3L205 466l14.7-15.7c1.8 4 6.6 6.1 13.6 4.4a25.7 25.7 0 0 0 18.9-22.1l2.7-16.8c1.8-10.9 1.8-12.1-8.6-20.9z"/><g><path class="st1" d="M187.6 328.2c.2-2.6-1.1-3.6-3.9-3.2-2.1.3-4.5 1.7-4.8 4-.4 2.8 2.1 2.7 4.4 2.9 4 .4 9.9.5 9.1 5.7-1 6.4-7.2 9.6-13 10.4-6.2.9-10.2-.9-9-7.4l5.9-.8c-.7 2.9.7 4.6 3.8 4.2 2.3-.3 5.5-1.5 5.9-4.2.5-3-3.4-2.7-5.6-2.9-3.6-.3-8.6-1.3-7.8-5.9.9-5.9 7.1-9.2 12.6-10.1 5.3-.8 8.9 1.2 8.1 6.4l-5.7.9zM216.5 340.9l13.9-28.4 6.9-1.6 5.3 24-5.9 1.4-1.1-5.1-10.7 2.5-2.9 6-5.5 1.2zm18.3-13.7-2-10.3h-.1L227 329l7.8-1.8zM268 302.9l6.3-1.8a1568 1568 0 0 1 3.8 18.8h.1l10.3-22.9 5.7-1.7-14.1 29.4-6.3 1.8c-1.8-7.9-3.8-15.8-5.8-23.6zM312.3 315a3938 3938 0 0 1 13.9-29.6l6.9-2.2 5.3 23.6-5.9 1.9-1.1-5-10.7 3.4-2.9 6.3-5.5 1.6zm18.4-15.3-2-10.2h-.1l-5.7 12.6 7.8-2.4zM380.8 293.4l-7.3-18.7-.1.1-3.4 22-5.4 1.7 4.1-26.6 8.6-2.7 7.1 17.7.1-.1 3.2-20.8 5.4-1.7-4.1 26.5-8.2 2.6zM433.2 278.1l-7.3-19-.1.1-3.4 21.9-5.4 1.5 4.1-26.4 8.6-2.4 7.1 18 .1-.1 3.2-20.7 5.4-1.4-4.1 26.3a340 340 0 0 0-8.2 2.2zM467.5 269.5l13.9-28.3 6.9-1.4 5.3 24.3-5.9 1.1-1.1-5.1-10.7 2.2-2.9 6-5.5 1.2zm18.4-13.4-2-10.4h-.1l-5.7 12 7.8-1.6zM520 260l4.1-25.8 5.8-.7-1.6 10.1 10.3-1 1.6-10.1 5.9-.4-4.1 25.6-5.8.5L538 247l-10.3 1-1.8 11.3-5.9.7z"/></g><g><path class="st1" d="M457.9 106c6.1-6.7 9.7-17.8 5.9-23.3-2.4 11.9-18.7 21.3-27.3 25.5 8.7-.7 17-.1 21.4-2.2zM468.7 112.1c-13.6 10.5-29.2 2.6-45.6 11.2 3.5-.1 7.7 1.2 9.8 2.6-1.6.7-10.2 3.6-10.8 5 28.4 5.2 44.2-12.6 46.6-18.8zM394.5 123.3c-35.3 25.9-87.6 47.5-151.9 56.9a162.5 162.5 0 0 1-58.9-1.3c.4 3.2.8 5.5 2 7.1 29.9 8.3 70.9 4.7 100.3-1.8 37.2-8.2 85.8-28.6 107.2-47.3-3 1.4-12.2 5.3-25.8 9.1.1-.1 22.1-12.6 27.1-22.7zM399.6 125.5c8.1 3.7 3.5 10.5 3.5 10.5 3.4 2.2 9.4 2 11.3-3.2 2.3-6.3-6.7-12.9-14.8-7.3z"/></g><g><path class="st0" d="M291.7 38.6c-10.2-6.2-54.1-27.2-77.3-1a3.3 3.3 0 0 0-.4 3.9c19 34.1 13.9 63.9-5 66.5-5.8.8-23.4-3.9-23-29.1a76 76 0 0 1 8.4-31.8c1.1-1.9-.7-4.1-2.7-3.6-30 7.6-36.1 24-33.1 57.6 1.7 18.6 1.6 41.9-23.5 36.1 28.9 12.8 32.5-15.4 30.7-34.8-3.3-36 8.3-43.9 17.3-48.4a67.4 67.4 0 0 0-5 29.5c.5 25.7 18.6 35.2 30.6 35.1 15.3-.2 43-18.2 15.9-77.5 23.8-17.2 57.7 2.4 68.5 9.1C359 91.1 412.6 72.9 429.4 42c-30.9 27.2-69.5 37.9-137.7-3.4z"/><path class="st0" d="M216.9 151.8a145 145 0 0 1-7.4 10.4c-2.5-.3-6.5-1.4-12.4-3.5a2 2 0 0 0-1.7.2c-.4.3-.7.8-.7 1.3-.1 2.3 0 4.6 1 5.7l.8.5a35.9 35.9 0 0 0 13.3 2.1c.8-.1 5.3-6.4 7.9-10.2l2.8-4.1c5.4 3.6 11.8 7.7 19 11.8l1.3.5c4.2.8 11.6-2.9 12.8-3.8.3-.2.5-.6.6-1 .5-1.6.4-3.7-.3-5.8-.3-.8-.8-1.4-1.5-1.7-.5-.2-1-.1-1.4.2-5.8 4-9.8 5.6-11.7 5.8-1.1-.5-7.1-3.7-16.3-9.9 3.9-6 9.3-14.7 15.1-24.6l-3.7-2.2a605.9 605.9 0 0 1-15.1 24.3 346.7 346.7 0 0 1-22.8-17.3l-2.4 3.2c.7.9 10.7 10.1 22.8 18.1z"/></g><g><path class="st0" d="M538 454.9c-1.2 4-2.8 7.8-4.6 11.5l29.4 15.7 5.6-11-30.4-16.2zM172.4 261.5a73 73 0 0 0-5 9.6l52.4 28 17.5-4.4-64.3-34.2-.6 1zM38.2 95.2l42.4-3.5c3.9-11.4 8.1-21.3 12-28.4-2.4-4.3-8-7.4-10.1-8.4a119.1 119.1 0 0 0-43.8 6.2 6.2 6.2 0 0 0-3.9 4c-2.5 8-4.6 15.7-6.2 23.1l9.6 7zM104.5 224l-38.7-20.6c-3.4-9-3.7-22.8-2.1-38.5H35.3l-11.1-10.6a109.1 109.1 0 0 0 17.5 49.9l58.3 31.1c1.3-3.9 2.8-7.7 4.5-11.3z"/><g><path class="st1" d="M465.8 428.5c1.3-2 2.4-4.1 3.5-6.3l-12.2 3 8 4.3.7-1zM536 460.8c-.8 1.9-1.6 3.9-2.5 5.7l29.4 15.7 2.8-5.5-29.7-15.9zM170.1 265.4l-2.8 5.8 52.4 28 9.2-2.3-58.8-31.5zM38.2 95.2c1.8-8.2 4.3-16.7 7.3-25.7-4.4-4.4-9.2-7-9.2-7-.7.7-1.2 1.5-1.5 2.5-2.5 8-4.6 15.7-6.2 23.1l9.6 7.1zM102.2 229.2l-53.8-28.7a95 95 0 0 1-13.1-35.6l-11.1-10.6a109.1 109.1 0 0 0 17.5 49.9l58.3 31.1 2.2-6.1z"/></g></g><g><path class="st0" d="m180.5 249.2 11.6 6.2c6.2-17.9 2-32.8-17.2-33.6-21.7-.8-18.4-9.1-28.7-8.9-29.3.7-34.9 45-28.6 57.2 5.1 9.8 23.5 26.2 49.8 35.3 3.8 1.3 12.9-.7 23.7-5.9l-27.8-14.8-1 6.2c-7.9-10.7-6-26.9 1.8-36.4 8.6-10.5 17.3-17.5 28-14.7a29.5 29.5 0 0 0-11.6 9.4zM503 208c-5.6-1.6-12.5-2.1-20-1.6-36.1 2.1-88.3 24.5-104.6 36.4a61 61 0 0 1 20.1-25.4c-7.4-24.5-7.1-50.9 0-69.6a256 256 0 0 1-59.6 32.9c.9 3.5 1.9 7.1 2.7 10.8 2.5 11.9 3.1 24.5-6.6 36-8.5 10-27.2 10.8-60.8 5.6 28.7-7.1 47.5-31.1 58.2-49.8a319.8 319.8 0 0 1-43.2 14.3c-19.9 4.7-48 6.4-75.5 4.2 6.6 18.1 22.1 31.3 33.9 32.7l5.4.5c-8.6 7-19.7 12.6-26.8 8.6-6.2-3.5-12.6-14.1-14.6-33.9-.3-2.5-.4-5.2-.5-8.1-4.5-.4-8.9-.9-13.3-1.5a115 115 0 0 0 32.3 55.1 500.2 500.2 0 0 1 30.7 33.1l8.8-2.5c74.1-21.2 155-48.7 223.3-61.9 6.5-1.3 12.9-2.4 19.2-3.4-2.6-7.1-5.8-11.6-9.1-12.5zM492 477.1c29.3-.7 34.9-45 28.6-57.2a41.4 41.4 0 0 0-6.5-8.7l-33.4 8.3c-.7 6-3.1 11.7-6.6 16-8.6 10.5-17.3 17.5-28 14.7 4.5-1.7 8.3-5.2 11.3-9l-9.9-5.3c-7 16.8-4 31.6 15.8 32.4 21.7.7 18.4 9 28.7 8.8zM362.3 448.8l-6 38.2-23 5.6-32.9-28.5-15.4 3.8c-11.8 33.1-33.7 47.4-55.5 50.5-3.4.5-5.3 4.3-3.4 7.2 13 19.8 40.6 24.4 62.9 23.1 82.2-4.8 120.7-59.4 130.8-114.2l-57.5 14.3z"/></g><g><path class="st1" d="M236.6 230.2a7.8 7.8 0 0 1-7.8 1.1 7.8 7.8 0 0 1-3.8-10.9c3.6 4.1 7.6 7.4 11.6 9.8zM320.5 201.1a9.7 9.7 0 1 1-13.3 14.1c5-4.4 9.4-9.2 13.3-14.1z"/></g><g><path class="st2" d="M269.7 285.8A242.8 242.8 0 0 0 220 244c3.1 3.7 6.4 7.5 10.2 11.2a500.2 500.2 0 0 1 30.7 33.1l8.8-2.5zM493 223.9c6.5-1.3 12.9-2.4 19.2-3.4-2.7-7.1-5.9-11.6-9.2-12.5-5.6-1.6-12.5-2.1-20-1.6 4.6 3.3 7.8 9.8 10 17.5zM378.4 242.7a61 61 0 0 1 20.1-25.4c-7.4-24.5-7.1-50.9 0-69.6a256 256 0 0 1-59.6 32.9c.9 3.5 1.9 7.1 2.7 10.8a270 270 0 0 0 19.4-7.9c-.5 20 4.3 41 17.4 59.2zM253.2 235c7.5.4 14.5-.3 21-1.9 28.7-7.1 47.5-31.1 58.2-49.8a319.8 319.8 0 0 1-43.2 14.3c-19.9 4.7-48 6.4-75.5 4.2 6.6 18.1 22.1 31.3 33.9 32.7l5.6.5zm35.1-19.4c-15.1 7.9-36.2 7-37.1-3.8-3.5 4.2-1.4 9.4.6 10.8a18 18 0 0 1-7.7-1 24.2 24.2 0 0 1-11.5-10.7 249 249 0 0 0 69.5-7.5c-3.6 5-8.1 9.2-13.8 12.2zM182.4 240c-6.7-3-19.5.2-30.3-7.2-8-5.5-10.8-8.7-16.3-4-7 6.1-17.1 25-17.5 42.5 5.8 9.9 23.9 25.4 49.2 34.1 3.8 1.3 12.9-.7 23.7-5.9l-27.8-14.8-1 6.2c-7.9-10.7-6-26.9 1.8-36.4 5.7-7 11.6-12.6 18.2-14.5zM445.4 458c2.4 5.9 8 9.8 17.9 10.2 21.7.8 18.4 9.1 28.7 8.9 29.3-.7 34.9-45 28.6-57.2a41.4 41.4 0 0 0-6.5-8.7l-10.4 2.6c2.4 22.3-31.7 49.2-58.3 44.2zM380.2 444.3c-8.5 36.4-31.5 78.6-91.9 89.4-22.2 4-52.8-.8-62.2-8.1 13 19.8 40.6 24.4 62.9 23.1 82.2-4.8 120.7-59.4 130.8-114.2l-39.6 9.8zM200.1 208.2l11.7 1.4c-.3-2.5-.4-5.2-.5-8.1-4.5-.4-8.9-.9-13.3-1.5.4 2.7 1.2 5.5 2.1 8.2z"/></g><g><path d="M438.6 503.8h-3.5v-1.9h9.1v1.9h-3.5v9.7h-2.2v-9.7zm7.9-1.9h3.3l3.1 8.9h.1l3.1-8.9h3.3v11.6h-2.2v-9.6h-.1l-3.4 9.6h-1.8l-3.4-9.6h-.1v9.6h-2.2v-11.6z"/></g></svg>