<svg xmlns="http://www.w3.org/2000/svg" xml:space="preserve" id="Layer_1" x="0" y="0" style="enable-background:new 0 0 976.4 791" version="1.1" viewBox="0 0 976.4 791"><style>.st0{fill:#b4975a}.st1{fill:#007485}.st2{fill:#3fbfcb}.st3{fill:#fff}</style><g id="Gold_00000067932318887121022790000011147131425661260704_"><path d="m47.4 541-.1-1.5.1 1.5zM115.6 496.7l.7-.4-.7.4zM46.5 528.1l.1 4.2v.1-.1l-.1-4.2zM118.6 495.1l.3-.1-.3.1zM46.8 534l.1.8-.1-.8z" class="st0"/><path d="m975.9 275.1-67.3-8.2c-31-3.1-59-.5-87.3-16.6-.8-1.9 98.8-56 88.6-58.4-41.1-3.8-125.5-21.4-165.6-10.5C760.2 132.1 766 82 767.9 31.3l.3-10.3c0-.7-.9-1.1-1.4-.7-59.3 49.4-115.8 98.4-180.5 139.8a269.9 269.9 0 0 0-55.4-3.7c30.9-43.3 74.7-90.5 58.8-137.8-8.5-27.9-.7-21.4-30.4-.2-103.5 74-360.7 198.3-418.4 339.9-.7 1.2-.6 2.8.2 3.9 8.6 10.7 17.2 24.1 25.6 34.9-30.3 33.3-92.1 79.5-110.7 64.7-28.9-8-46.3 13.6-51.7 39.6a106 106 0 0 0 14.9 91.1l-3.6 9c20.7 126.2 146.4 198.1 281 188.7-27.2-58.9 5.6-94.3 76.8-114.2 115.2-33.8 207.7 43.7 308.3-50.9 65.9-5.8 190.4 19.7 257.2 27.9 1.5.2 2.4-1.6 1.3-2.7l-79.9-79.2c-25.4-19.6-25.3-65.7-18.7-82.5L970 446.2c1.7-.6 2-2.9.4-3.8-33.9-22.1-98.4-46.1-108.5-90.3-.2-2.4 123.1-73.9 114-77z" class="st0"/><path d="m142.1 480.1 1-.7-1.1.8.1-.1zM46.9 535.6v.5-.5z" class="st0"/></g><g id="Tessie_TEal_00000093867528349803863720000010260483524733320329_"><path d="M470.1 329.6h1.4c22.7-2 46.5 9.7 63.6 31.3 8.6-17.3 1.3-36.6-9.4-51.9a387 387 0 0 1-55.6 20.6zM706.4 339.5a141 141 0 0 0 39.6 8.2c17-6.7 34.1-13.2 51.4-19.3 0-.6.1-.5.4-.1l4.9-1.7 19.9-19.8c-32.8-5.6-53.9-15.9-67.5-38a283.3 283.3 0 0 0-54.9 35.2 20.9 20.9 0 0 0 6.2 35.5zM802 353.6c-36.8 22.8-102.8 70.5-55.5 92.8 13.2-3.1 26.6-5.6 40.2-7.7l14.9-2.3 33.5-19.8c-29-13.6-31.2-44.6-33.1-63zM785.5 472.3c-18.7 6.6-77.6 28.2-100.2 47.4-20.1 23 17.8 34.5 38.1 43.9l13.2 1.5c9 1.3 18.1 2.7 27.1 4.7l28.1-8.9a148 148 0 0 1-6.3-88.6zM575.2 364.9c-33.1 22.6 7.2 19.5 23.9 10.9 18-7.3 30.8-17.5 28.7-22.7-11.7-9.3-39.7 4.5-52.6 11.8zM607.1 327.6c-18.9 10 .4 15.3 15.1 9.9 33.8-13 .1-19.5-15.1-9.9zM206.8 492.7s-.1 0 0 0z" class="st1"/><path d="M551.6 420.5h-.2l-6.7.4h-.3l-8 .2h-6.1l-6.2-.2c-4.4 4.5-9.3 9.7-14.6 14.8-5 4.8-10.3 9.2-16.1 12.8l-.6.4-.4.2c-4 2.4-8.1 4.4-12.4 5.7-32.7.1-72.5 1.8-111.5 15.7l.1-.3v-.1l.3-.4.4-.4.1-.1.6-.5.7-.5.1-.1 1-.7 1.2-.8.1-.1 1.3-.8.2-.1 1.5-.9 1.6-.9.3-.1 1.7-.9h.1l1.8-1 .3-.1 1.9-1 .3-.1 2-1h.1l.5-.3.1-.1 3-1.4 2.4-1.1c5.2-2.4 10.4-4.6 15.7-6.6l2.3-.9 6.1-2.2.2-.1 6-2 .3-.1 6.1-1.8h.2l6.2-1.6c8.8-2.7 16.2-5.8 22.4-9.2l1.7-.9c23.2-13.2 29.7-30.4 30.2-44.6a57 57 0 0 0-2.1-17.1c-2.9-1.2-5.8-2.2-8.7-3.1l-4.5-1.2h-.2l-4.5-1c13 48.4-22.2 60.4-63.9 66.8h-.2l-2.8.4h-.2l-7.3 1-1.7.2-.9.1-19.7 2.6h-.4c-19.8 2.7-38.7 5.9-52.4 12.9l-.1.1-2.3 1.2v-.1l.1-.2.2-.4.1-.3.1-.2.2-.5.1-.2.2-.5.1-.2.3-.6.1-.2.9-1.8.1-.1.4-.8.1-.2.4-.9.1-.2 1.1-2.2v-.1l.6-1 .1-.2.5-1 .1-.2a89.2 89.2 0 0 1 5.4-8.4l.1-.1c.7-.8 1.3-1.5 2-2 .1.1-3.4-.2-8.2-1.2-5-1-10.1-2.7-14.5-5.2-3.1-1.7-6-3.8-8.1-6.3l-.3-.4-1-1.5h.1a45.8 45.8 0 0 1-9.7-13.9s12-3 25.5-9.1c4.1-1.9 8.4-4 12.5-6.5a60.7 60.7 0 0 0 19.7-17.4c3-4.6 6.3-9.4 10-14.2a119 119 0 0 1 29.4-27.2l-1.2.4a1224 1224 0 0 1 56.6-42.3c6.9-5.7 12.9-10.9 18.1-15.7l.1-.1 2.5-2.3.3-.3 2.2-2.1.3-.3 2.2-2.1.2-.2 6.3-6.4.2-.2 1.6-1.7.4-.4 1.3-1.4.4-.5.5-.6.2-.3c22.1-26 3.1-27.4-25.8-19.8h-.1l-.4.1-3.7 1-.7.2-3.7 1.1-.8.2-3.8 1.2-.8.3-3.8 1.3-.8.3-3.9 1.3-.8.3-4 1.4-.7.2h-.1a490.8 490.8 0 0 0-44 18.6l-.1.1a245 245 0 0 0-21 12.3 596.9 596.9 0 0 0-60.6 48l.7-2.2 2.7-7.2 1.2-2.4c1.6-3.2 3.4-6.4 5.5-9.4v-.1l4.8-6.6c4.2-5.2 8.8-10.2 13.8-15l.2-.2 2.9-2.8.1-.1 2.7-2.5.6-.5 2.8-2.5.3-.5a71 71 0 0 0-11.1-6.5 1053.3 1053.3 0 0 0-74.7 68.2 78.9 78.9 0 0 0-12.3 17.3c-8.6 16.7-4.4 29.2 2.2 37.6 7 9 16.8 13.3 16.8 13.3-8.4 6.6-15.9 11.5-15.9 11.5l-1.2-.3.5.4.8.7-.3.1-.3.1-3.4.7-.8.2-3.7.7-9.1 1.7-7.4 1.4-.3.3-.1.1-7 7.7-.3.3a532.3 532.3 0 0 1-29.9 30.2l-.3.3a370 370 0 0 1-24.3 20.8l-6 4.6-.3.2-5.8 4.3-.1.1-.2.1-1.1.8.2-.1.1-.1a998 998 0 0 0 27.6-9.4l8.1-9.2c.9-1 2-1.8 3.2-2.2l17.6-6.8 6.9-8.1c.9-1 2-1.9 3.2-2.4l.1-.1 13.7-5.8c1.8-.8 3.8-1 5.6-.5l2.9.7.6-2.8a9.1 9.1 0 0 1 6.3-6.7l9.4-2.7 5-1.5-.9 7.6a8.9 8.9 0 0 1-5.7 7.3l-3.8 1.4c2 .7 3.2 2.8 2.7 5l-1.5 6.7a8 8 0 0 1-3.8 5l-11.2 5.8-2.5 11.3-.2.8a7.3 7.3 0 0 1-3.5 4l-13.2 6.5-1.9 8.5c1.5 1 2.9 2.1 4.2 3.4l2.2 2.2 1.7 1.9a450 450 0 0 0 39.2-18.7c6.7-3.8 13.3-7.8 19.6-12.1a142 142 0 0 0 18.6-15.1l-.5.7a332 332 0 0 1-14.8 19.1 378.4 378.4 0 0 1-41.9 44.4l-.1.1a161 161 0 0 1-9.2 7.6l-.1 1.1v.1a44 44 0 0 1-5.5 12.6l-.3.6-.8 1.4a2 2 0 0 1-.4.6l-.9 1.5-.3.4-1.3 2-.2.4-1.1 1.6-.4.6-1 1.5-.4.5-2.7 4c-3.7 5.3-7.2 10.3-9.6 14.1l-.9 1.5-.2.3-.7 1.3.1-1.1.1-1.1v-.1l.2-1.2a422 422 0 0 1 2.7-12.3l.4-1.5.1-.3.5-2.1c1.4-6 2.7-12.3 3.4-17.8l.1-1.2v-.4l.1-1.1v-.4c.1-1.7.2-3.3.1-4.7v-.2l-.1-.9v-.2l-.1-.9-.2-1.1-.3-.9-.1-.2-.3-.6-.5-.7-.2-.3v-.1a33 33 0 0 0-5.5-5.7l-.1-.1a31.7 31.7 0 0 0-5.8-3.7l-1.8-.9c-44-7.4-69.2 36.2-103.4 42.5a41.6 41.6 0 0 1-41.1-14.7l-.5-.5.4 3.1.5 3 .7 2.9c.3 1 .5 1.9.9 2.8a47 47 0 0 0 3.1 7.3l.1.3a74.8 74.8 0 0 0 30.8 29.2l.8.4 2.4 1.3 1 .5 2.5 1.2.8.4 3.4 1.6 2.7 1.2s-12 13.3-32.9 13.3l1.2 4.4.3 1.1 1.4 4.3 1.6 4.3.3.8a131 131 0 0 0 3.7 8.6l.2.5c1.4 2.9 2.8 5.8 4.4 8.6l.1.2 5 8.5 2.7 4.2 2.3 3.4s3.7-2.5 7.7-4.2c0 0 11.9 18.9 27.1 35.5a124 124 0 0 0 17.8 16.5l-.2-.4-.1-.3-.1-.2-.2-.4-.3-.5-.5-.9-.1-.1-.4-.7-.2-.3-.1-.2a507.8 507.8 0 0 1-17-34.4 66.7 66.7 0 0 1-3.9-11.8l-.2-1.2-1.1-.4-.2-.1-8.9-3.3-.3-.1-1.7-.6.1-.1.2-.1c1.3-.6 5.9-2.7 12.8-5.2h.1l5.1-1.8 1.4-.5 4.3-1.4 1.7-.5 4.9-1.4.8-.2a189 189 0 0 1 22.2-4.5s6.2-1.9 12.7-2.1c0 0 13.1 38.1 40.6 60.2a72 72 0 0 0 15.9 9.9l-.8-1.3c-2.7-4.3-6.2-10.8-9.5-18.3-3.2-6.9-6-14-8.1-21.3-2-6.5-3.4-12.8-3.8-18.1l-2.4-1.1-.2-.1-1.4-.7h-.1l-3.4-1.8-.3-.2a63.3 63.3 0 0 1-6.1-3.9c-1.4-1-2.7-2-3.7-3.1l-.9-.9.2-.2.4-.2.2-.1.5-.2.3-.1.5-.1c9.4-4.2 20.5-15.5 75.6-23.5 29.2-4.2 52.9-33.7 52.9-33.7 31.4-53.6 87.2-79.6 168.2-82.2 1-3.1 2.3-6 3.8-8.9l.2-.3 1.2-2.1.4-.7 1.3-2 .4-.5 1.5-2.1.2-.3c3.4-4.7 7.5-9 12.1-12.6l.2-.2 2.1-1.6.4-.3 2.1-1.4.5-.3c2.4-1.5 4.9-2.8 7.4-3.9h.1l1.1-.5 2.6-1 1.1-1.2c7.1-9.7 16.1-17.7 25.5-25l3.6-2.7h-.5c-.4-.4-.7-.4-.9-.3zM176 566.7c-1 4.3-3.6 8-7.2 10.5a59.2 59.2 0 0 1-43.7 10.1s-.4-2.9-.7-7.1c-.1-9.1-1.3-20.2 4.7-27.8 8.4-6.8 21.9-27 34.9-19 5.3 4 13 10.6 13.7 15.1.1.1.4 9.9-1.7 18.2z" class="st1"/></g><g id="Tahoe_Turquose_00000044899288671568774010000010883037212005100731_"><path d="M96.8 592.9h-.2l-.4.1-.6.1h-.2l-.8.1-1 .1h-.3l-1.2.1H92c-7.6.8-15.4.5-23-.6l-5.3 13.3c21.1.1 33.1-13.2 33.1-13.2zM88.3 552.8c34.2-6.3 59.4-50 103.4-42.5l-.2-.1-.5-.2-1-.4-.8-.3c-2.6-.9-5.3-1.4-8.1-1.7-6.4-.2-25.5-2.8-31.5-1.1-15.8 3.3-35 24-50.5 28.2-18.4 6.7-38.1-3.5-51.6-14.7a67.4 67.4 0 0 0-.8 17.7l.5.3a41.4 41.4 0 0 0 41.1 14.8zM136.2 489.1c13.2-8.7 36.1-4 50.8-3.4a39.6 39.6 0 0 1 19.8 7l1.9-8.5 13.2-6.5a6.9 6.9 0 0 0 3.7-4.8l2.5-11.3 11.2-5.8c1-.5 1.9-1.3 2.5-2.2a9 9 0 0 0 1.3-2.8l1.5-6.7c.5-2.2-.7-4.3-2.7-5l3.8-1.4a8.9 8.9 0 0 0 4.5-3.8 7.7 7.7 0 0 0 1.2-3.5l.9-7.6-5 1.5-9.4 2.7a9 9 0 0 0-6.3 6.7l-.6 2.8-2.9-.7a8.4 8.4 0 0 0-5.6.5l-13.7 5.8-.1.1a7 7 0 0 0-3.2 2.4l-6.9 8.1c-5.9 2.4-11.7 4.6-17.6 6.8a7.4 7.4 0 0 0-3.2 2.2l-8.1 9.2a998 998 0 0 1-27.6 9.4l-.1.1-.2.1a263 263 0 0 1-26.3 16.4 77.4 77.4 0 0 0 20.7-7.8zM149.5 569.3c-2.9.9-6 1.5-9.4 1.9-1.9.2-3.7 1-5.2 2.3a33 33 0 0 0-9.7 13.9c20.7 3.4 36.3-5 43.7-10.1 3.6-2.5 6.1-6.3 7.2-10.5 2-8.4 1.7-18.1 1.7-18.1s-8.4 14.7-28.3 20.6zM493.3 123.9l.1-.1 6.2-7.6.9-1.1 1.1-1.4 4.6-6.4-6 6.4-.1.1a9653.3 9653.3 0 0 0-60.8 49.1c2.3 3.8 3.7 8 4.2 12.3a593 593 0 0 0 49.8-51.3zM337.4 263.5l.9-.9.4-.2 17.2-15.3c19.4-15.6 33.6-23.5 41.9-47.7l1-3a28 28 0 0 1 4 13.7 90.4 90.4 0 0 0 32.2-36.3l4-10.7a7567 7567 0 0 0-102 84.8l-10.7 9.1a71 71 0 0 1 11.1 6.5zM518.3 388.7a93 93 0 0 0-30.8-19.5 57 57 0 0 1 2.1 17.1c-.5 14.2-6.9 31.4-30.2 44.6l-1.7.9c-6.3 3.4-13.7 6.5-22.5 9.2a82.5 82.5 0 0 1 26.2-2.5c17.1-4.1 50.4-28.3 56.9-49.8zM487.4 289.6c-4.3-.8-8.9-1.4-13.9-1.8l-1.8.7a1257.1 1257.1 0 0 1-84.3 34.9l-.7.3a124.8 124.8 0 0 0-29.4 27.2c-3.8 4.8-7 9.6-10 14.2a60.7 60.7 0 0 1-19.7 17.4c-4.1 2.5-8.4 4.6-12.5 6.5-13.5 6.1-25.5 9.1-25.5 9.1a47 47 0 0 0 9.7 13.9l.9.3c7.2 1.1 49.1-5 60.1-19.4 21.2-18.8 55.9-55.4 78.6-67.7a40 40 0 0 0-4.2 22.6 58.7 58.7 0 0 1 29.9-17.1h.1l5.5-1.1 9.3-2.7a349.6 349.6 0 0 0 46.3-17.9l-.3-.4-1-1.4-.5-.7-1.4-1.8-.7-.9-.8-1-.7-.9-1.4-1.7-.8-.5a87.6 87.6 0 0 0-26.5-9.3l-4.3-.8zM563.6 333.2a61 61 0 0 0 21.1-58.6 388.1 388.1 0 0 1-52.6 31.3 82.4 82.4 0 0 1 31.5 27.3zM596.1 266.2l-.3 3.7.1-.7 1.7 2.1a38.9 38.9 0 0 1 7.1 21.9v2.5c4.7-4.6 9-9.2 12.8-14.2l3.4-5a74.4 74.4 0 0 0 5.7-19.5c.7-5.8.6-11.3 0-16.6a389.6 389.6 0 0 1-24 20.7 84.9 84.9 0 0 0-7.8-13.9 68.2 68.2 0 0 1 1.3 19zM705.9 245.2c-21.1 9.1-27.6 31.9-42 48.3 37.7-24.2 75.1-48.4 113.5-71.2-25.3.3-49.7 10.5-71.5 22.9zM579.7 443.7c-3.5-7.4-27.7.4-28.1 9.9a186.6 186.6 0 0 1-33.7 5.6l-.1.2-1 3.3c-2 7.4-2.3 15.2-.2 22.3 13.4-2.2 26.6-5.6 39.2-10.6a148.1 148.1 0 0 0 64.2-47.3c5-6.5 9.5-13.5 13.1-20.9l.1-.1a169.3 169.3 0 0 1-53.5 37.6zM802.7 326.5a95 95 0 0 1-4.9 1.7l-.4.1a1695.7 1695.7 0 0 0-128.8 52.3l-5.9 20.5a969.2 969.2 0 0 0 192.9-91.8c-17.8 5.4-35.5 11.1-52.9 17.2zM526.3 605.8c-15.1-4.8-36.1 4.2-35.3 22.4 27.3-17.8 62.6 15.5 84.1-25.1.7-1.5 1.4-3.1 1.9-4.7-14.6 11.9-33.1 12.1-50.7 7.4zM763.8 569.8c-9-1.9-18.1-3.4-27.1-4.7l-13.2-1.5-5.5-.5-11.5-.8c-28.7-1.5-57.5 0-85.8 4.7-10 2.8-36 2-27 18.7 5.5 6.8 14.9 1.5 22 1a482 482 0 0 1 47.8-6.7c45.9-4.9 92-.6 137.6 5.7l9.4 1.1a155 155 0 0 0-46.7-17zM609.8 521c78-45.1 166.7-71.1 255.3-86.8-21.1-2.5-42.5-.7-63.6 2.3-35 4.7-69.5 12.5-103.1 23.4l-5.5 1.8-4 1.3c-17.2 6-34.1 12.7-50.7 20.2a494 494 0 0 1-44 37.9c31.4-9.5-2 36.1-21.5 27a8.2 8.2 0 0 0 6 5.7c13 5.6 46.4-20.4 31.1-32.8zM539.4 508.5zM517 575.9c21.1-1 38.7-16.8 55.6-28.1-1.2-5.7 2.2-11.3 5.7-15.6-12.8 8.5-29.9 18.2-43.1 26.2 0 0-24.1 7.2-8.7-22.5l.3-1c1-4.9 4.8-11.2 7.9-16.7 1.7-3.2 3.3-6.4 4.6-9.7 0 0-18.8 5.5-28.4 10.1-4.9 2.3-7.5 4.4-3.8 5.4-5.1.4-40.2 22.7-49.4 35.2-23.2 25.3-27.7 33.8-45 35.3-17.3 1.6-18.1-13.5-18.1-13.5s11 20.8 36.5-7.9l-3 2.1-.1-.1c-25.4 16.7-35.1 8.8-16.8-20.2-43 8.3-78.1 40.7-92.5 82.6 1.3-1.9 16.3-21 27-30.9 3.4 15.2 26.7-5.3 11.6-10.2a67.3 67.3 0 0 1 28.5-14.8c-1.7 15.5 14.6 23 28 20.7 39.4-3.6 54.4-59.8 98.1-74.2-13.4 12.2-19.6 45.4 5.1 47.8zm-148.7 7.6c-10.3 7.2-19.6 15.6-29.2 23.7 13-19.3 36.5-43.3 61-43.2-11.1 6.3-21.5 12.2-31.8 19.5zM122 686.4A279.5 279.5 0 0 1 94.9 651c-4 1.7-7.7 4.2-7.7 4.2l.1.1a167 167 0 0 0 47.8 44.7l.7.4 3.9 2.3h.1a107.4 107.4 0 0 1-17.8-16.3zM170.6 629.1c-6.5.3-12.7 2.1-12.7 2.1 11.6 31.7 33.8 59.1 69.3 68-5.8-2.6-11-6-15.9-9.9-27.6-22.2-40.7-60.2-40.7-60.2zM227.1 699.1zM572.7 548.1zM457.4 516.5l-1.1.2c-7 1.5-15.2 2.1-19.8 7.9-.3.4-.6.7-.8 1.2-1.6 2.4-5.1 12.7-.9 10.4 2.4-1.3 5-2 7.7-2.4 10.3-1.6 23.4-3.9 21-16.4-1.4-2.7-3.9-1.4-6.1-.9zM633.4 405.8l-.1.3.1-.3zM633.5 405.7l.4-.8-.5 1 .1-.2zM633.4 405.8zM507.2 105.9zM506.4 107.1zM506.9 106.3l-.1.2v-.1l.1-.1zM507.1 106s0-.1 0 0c0-.1 0 0 0 0zM526.6 535.9zM316.7 570.1s-23.7 29.5-52.9 33.7c-31.4 4.6-48.4 10.2-59.1 15-5.7 2.6-9.6 4.9-12.8 6.7l-.8.5-.2.1-.7.3-.3.1-.6.3-.3.1-.8.4-.5.1-.3.1-.5.2-.2.1-.4.2-.2.2c1.9-.6 3.9-1 5.8-1.3l1-.2 1.3-.2.9-.1 1.5-.2h.6l1.8-.1h.1l4.3-.2c8.7-.2 17.5.4 26-.6 36.1-1.9 62.8-7.3 87-36 15.1-13.3 29-29.5 47.1-38.7a201.5 201.5 0 0 0-46.8 19.5z" class="st2"/><path d="m241.3 404.6 1.2.3s7.5-4.8 15.9-11.5c0 0-9.8-4.4-16.8-13.3-6.6-8.4-10.8-20.9-2.2-37.6a81.3 81.3 0 0 1 12.3-17.3c13-14.3 41.5-39.8 74.7-68.2-10.2-4.3-21-4-31.8-.6-39.1 15.7-82.6 66.5-94.4 99.1-6.9 12.6 29.7 39.5 41.1 49.1z" class="st2"/></g><g id="white_00000176043238164948621540000005593482120811295894_"><path d="M539.4 508.5c.3-.1.3-.1 0 0zM518.7 450.8h.1c0-.1 0-.1-.1 0 0-.1 0 0 0 0zM551.6 453.6c.4-9.5 24.6-17.3 28.1-9.9a167.7 167.7 0 0 0 53.6-37.6c1.9-3.9 3.7-8 5-12.1a208 208 0 0 1-86.9 26.4h1.4a145.7 145.7 0 0 0-30.3 28.9 56.8 56.8 0 0 0-4.6 10c12.2-1.1 23.4-3 33.7-5.7zM428.3 575.1c1-.4 2-1.4 3-2.1l-3 2.1zM339.1 607.2c9.5-8.1 18.9-16.5 29.2-23.7 10.3-7.3 20.7-13.1 31.8-19.5-24.5-.1-48 23.9-61 43.2zM535.8 541.1c-4.5 4.2-10.8 0-8.8-6.1l-.3 1c-15.4 29.7 8.7 22.5 8.7 22.5 13.2-8 30.3-17.7 43.1-26.2-3.5 4-7.2 10.5-5.6 15.9 19.5 9.1 52.9-36.5 21.5-27 6.4-4 12.2-9 18-14.3 7.2-6.1 14.2-12.5 20.9-18.7 4.1-3.2 8.4-6.1 13-8.3a654.5 654.5 0 0 0-110.5 61.2zM439.2 162.8l.1.2c22.6-19.9 47.5-35.5 67.9-57.1-10.3 10.3-31.7 22-46.1 30.4a1247.6 1247.6 0 0 0-167.9 112.9c5.6.4 19.1 2.7 18.6 2.8l-2.1.3-.5.1-1.6.3-.5.1-1.6.3-.5.1-1.7.4-.4.1-1.8.5-.3.1-1.9.6-.2.1-2 .7h-.1l-2.1.8a45.2 45.2 0 0 1 31.8.6c36.7-31.4 79-66.3 112.8-93.9l.1-.4zM539.4 508.5a89.4 89.4 0 0 0-28.8 5.6c-18.1 5.3-32.8 17.1-46.8 29.9-11 9.5-21.6 19.7-32.4 29-25.6 28.7-36.6 7.9-36.5 7.9 0 0 .8 15.1 18.1 13.5 17.3-1.6 21.8-10.1 45-35.3 2.3-3.1 6.1-6.8 10.7-10.6l.6-.5 1-.8.7-.6 1-.8.7-.5 1.6-1.2.6-.5 1.1-.8.8-.6 1-.7.8-.6 1.1-.8.6-.5 1.7-1.2.7-.5 1.1-.7.8-.5 1.1-.7.7-.5 1.7-1.1.5-.3 1.3-.8.7-.4 1.1-.7.7-.4 1.2-.7.5-.3 1.6-.9.5-.3 1.1-.6.5-.3 1-.6.5-.3 1.4-.8.1-.1 1.2-.6.4-.2.8-.4.4-.2.8-.4.2-.1.9-.4.2-.1.6-.2.2-.1.5-.1.2-.1.5-.1c-2.2-1-1.3-2.5 1.3-4.1l2.5-1.3c5.4-2.6 13.7-5.4 19.9-7.5l8-2.5zM689.2 157.3a1043 1043 0 0 1-202.5 124.2l-15 7 1.8-.7c14.4.9 27.5 4.6 39.8 9.6l4.6 2.3.8.5a94.1 94.1 0 0 1 15.9 7.1l-2.5-1.3a394.4 394.4 0 0 0 52.6-31.3c3.4 16-.5 32.8-9.9 46.3l2.1-2.8c2.6-3.8 5-7.7 7-11.8l.2-.4a127 127 0 0 0 10.9-32.6l.8-4-.1.7c.8-7.5.7-15.1-1-22.6 2.1 3 5.2 8 7.8 13.9 8.6-6.9 16.6-13.8 24-20.7a65.5 65.5 0 0 1-5.6 36.1c3.2-5.1 5.9-10.4 8.2-15.9 3.4-8.2 5.9-16.8 7.7-25.5l.8-4-.1.6c.7-6.9.6-13.8-.8-20.7a89 89 0 0 1 6.9 12.6c8.7-8.7 16.3-17.6 23.3-26.6a340.8 340.8 0 0 0 22.8-31.6l1.7-2.4 8.7-12.4.7-2.7-11.6 9.1z" class="st3"/></g><g id="Black_00000098214153290242909320000006113326199293912719_"><path d="m797.4 328.3.4-.1c-.2-.3-.4-.4-.4.1zM164.1 533.5c-12.5-8.6-28.8 14.3-34.9 19-3.2 3.3-3.8 8-4.4 12.5-1.3 10.9.5 22.4.5 22.4a33 33 0 0 1 9.7-13.9 8.9 8.9 0 0 1 5.2-2.3c3.4-.4 6.5-1.1 9.4-1.9 19.9-5.9 28.3-20.7 28.3-20.7-.8-4.5-8.6-11.1-13.8-15.1z"/><path d="M830.8 568.4c-28-44.8-5.6-96.6-5.6-96.6l100.2-32.3c-41-19.3-82.1-50-87.3-97.5l85.1-52.5c-44.9-5.2-107.4-.1-136-42.4l.5-1.4 67.9-40.3c-47-6.1-102.2-13.3-145.9 9.2 21.1-47 29.6-100 37.4-150.7-77.7 69.4-166 125.1-252.7 182.1 24.8-24.1 47.4-45.3 71.6-67.5-28.4-2.9-55.8-.9-84.6 5.5 27.6-32.7 99.3-121.2 91.1-149.1-70.9 58.7-388.3 206.7-398.6 330.2l.6 5.8c5.5 9.5 12.2 17.7 20.9 26.5C166 433.5 85.7 500.5 51.5 483.6c-14.2-.3-24.2 11.1-26.9 24.3a83.3 83.3 0 0 0 19.1 80.7l-6.1 15.3c21.7 74.9 64.6 156.7 230.1 164.9 0 0-25.5-78.9 100.4-113.1 128.8-34.6 216.4 41.7 304.3-51 64.8-7.1 151.6 11.1 216.3 21.4-12.3-12.4-49.6-42.9-57.9-57.7zm-8.3-261.7-19.9 19.8c17.5-6.1 35.2-11.8 52.9-17.2a969.2 969.2 0 0 1-192.9 91.8l5.9-20.5c25.5-11.6 51.3-22.7 77.4-33-16-1-29.2-4.3-39.6-8.2a21 21 0 0 1-6.2-35.6 283.3 283.3 0 0 1 54.9-35.2c13.6 22.2 34.8 32.5 67.5 38.1zm-45-84.4c-38.5 22.8-75.8 47-113.5 71.2 14.4-16.4 20.9-39.2 42-48.3 21.7-12.4 46.1-22.6 71.5-22.9zM229.6 625.4c-14.3 1.7-29.7-1.2-43.3 2.9a68 68 0 0 0 18.6 12c1.2 18.4 15.2 48.4 22.3 58.9-35.5-8.9-57.6-36.3-69.3-68-29.2 4-53.6 15.7-53.7 15.7l12.2 4.5c1.5 12.6 21.4 47.8 23.4 51.5a166.5 166.5 0 0 1-52.6-47.6 152.7 152.7 0 0 1-23.4-49l5.3-13.3a91.2 91.2 0 0 0 27.6 0c-32-13.6-55.9-35.3-49.3-72.9 13.4 11.3 33.2 21.5 51.6 14.7 15.5-4.3 34.7-24.9 50.5-28.2 6-1.7 25.2 1 31.5 1.1 9.5.7 18.4 5.6 24 13.4 6.3 6.4-6 43.3-6.1 51.1 5-9.4 26.3-35.4 26.9-46.1a346.8 346.8 0 0 0 52.9-54.2c8.4-10.4 13.5-17.7 13.5-17.7a134.4 134.4 0 0 1-18.6 15.1 329.8 329.8 0 0 1-58.8 30.9 39.5 39.5 0 0 0-27.9-14.4c-14.7-.6-37.6-5.3-50.8 3.4a74.2 74.2 0 0 1-20.6 7.6c39.3-21.6 72.4-53 102.1-86.2l25-4.8c-9.6-8.4-49.6-37.1-42.5-50.2 13.5-37.6 69.4-99.3 111.8-103.7.4 0-13.1-2.4-18.6-2.8a1257.1 1257.1 0 0 1 167.9-112.9c14.4-8.4 35.8-20.1 46.1-30.4-14.5 21.2-42.3 49.9-63.7 69.4-.5-4.3-1.8-8.5-4.2-12.3l-.1-.2c-6.4 21.2-18.7 34.9-36.3 47.3a28 28 0 0 0-4-13.7c-8.2 26.6-22.8 34.6-42.9 50.8-21.5 19.8-48.9 39.7-56.8 68.3 0 0 24.3-23 61.8-48.7 22.1-18.5 214-95.5 81.1 15.2a1224 1224 0 0 0-56.6 42.3c112.9-42.2 222-99.7 315.4-176.3a373.2 373.2 0 0 1-57.4 125.4c5.1-13.8 4.2-30.7-5.8-42.2-4.5 24.4-14 47.9-33 64.6.3-9.6-2.5-19.2-8.8-26.5-4.4 24-13.7 47.3-32.3 63.9a87.7 87.7 0 0 0-44.9-33c13.9 16.1 26.6 39.9 16.3 60.8-27-34.3-71-43.6-100.4-13.1a41 41 0 0 1 4.2-22.6c-22.7 12.3-57.4 48.9-78.6 67.7-11.8 15.4-58.5 21.3-61.1 19.1 7.5 12.3 32.5 15 32.1 14.6-5.9 5-13.5 22.5-13.5 22.6 49-27.8 174.7-.5 151.9-85.4a100.3 100.3 0 0 1 48.7 24.9c-6.4 21.5-39.8 45.7-56.8 49.8-32.2-3.4-93.3 27.9-93 31.8 39-13.8 78.8-15.6 111.5-15.7 17.9-5.4 32.7-22.1 44.1-33.9 39.5 2.2 79.9-7.2 114.3-26.7-4 12-10.6 23-18.2 33.1a148.1 148.1 0 0 1-64.2 47.3c-12.6 5-25.8 8.4-39.2 10.6a47 47 0 0 1 5.8-35.7 62.2 62.2 0 0 0-37.6 38.7c-81 2.5-136.8 28.6-168.2 82.2a195 195 0 0 1 47-19.4c-18.1 9.1-31.9 25.4-47.1 38.7-24.4 28.6-51.1 34-87.2 35.9zm392.5-287.9c-14.7 5.3-34 .1-15.1-9.9 15.3-9.6 49-3.1 15.1 9.9zm-23 38.3c-16.8 8.6-57 11.7-23.9-10.9 13-7.3 40.9-21.2 52.6-11.8 2.1 5.2-10.7 15.4-28.7 22.7zM421.4 400c-8.7 2.3-29.7 3.7-35.7 3.6 8-4 33-26.3 37.4-30.8 18.9-3.1 13 25.8-1.7 27.2zm21 133.8c-2.7.4-5.4 1.1-7.7 2.4-4.4 2.2-.3-9.5 1.8-11.6 4.7-5.8 12.9-6.4 19.8-7.9 2.4-.3 5.6-2.5 7.1.6 2.4 12.6-10.7 15-21 16.5zm132.8 69.3c-21.5 40.5-56.8 7.3-84.1 25.1-.8-18.3 20.2-27.2 35.3-22.4 17.6 4.7 36.1 4.5 50.8-7.4a39 39 0 0 1-2 4.7zm3.5-49.3a8 8 0 0 1-6.1-6c-16.9 11.4-34.5 27.1-55.6 28.1-24.7-2.4-18.5-35.6-4.8-47.8-43.8 14.4-58.7 70.6-98.1 74.2-13.4 2.3-29.7-5.2-28-20.7-10.7 2-20 8.2-28.5 14.8 15.1 5-8.2 25.4-11.6 10.2-10.7 9.9-25.7 29-27 30.9a124.2 124.2 0 0 1 92.5-82.6c-19.1 30.1-7.8 37.5 19.8 18.1 27.8-21.4 50.7-54.5 87.5-60.8 5.9-1.4 14.3-2.5 20.6-3.8-1.5 7.8-19.1 28.4-10.3 33.7 2.2 1.3 4.8.4 6.6-1.1 11.7-8 23.7-15.7 35.9-23a608.2 608.2 0 0 1 174.8-71.7c-47.3-22.3 18.7-69.9 55.5-92.8 2 18.3 4.2 49.4 33.1 63l-33.5 19.8c21.1-3 42.4-4.8 63.6-2.3-88.6 15.7-177.3 41.8-255.3 86.8 15.3 12.6-18.1 38.6-31.1 33zm222.4 31.9c-45.5-6.3-91.7-10.6-137.6-5.7a513.5 513.5 0 0 0-47.8 6.7c-7.1.6-16.6 5.9-22-1-8.9-16.7 17-15.9 27-18.7 33.9-5.5 68.5-6.7 102.7-3.4-20.3-9.4-58.2-20.9-38.1-43.9 22.6-19.1 81.4-40.8 100.2-47.4a148 148 0 0 0 6.4 88.6l-28.1 8.9a155 155 0 0 1 46.7 17l-9.4-1.1z"/><path d="M639.7 233.7a39 39 0 0 1 6.8 23.2 49.9 49.9 0 0 1-2 13.2l-1 3.1c26-35.6 44.9-78.9 56.6-122.6v-.1l-10.4 14.8a359.7 359.7 0 0 1-24.1 33.3 263.5 263.5 0 0 1-22 24.9 89 89 0 0 0-6.9-12.6l.4 2.5c.8 5.3 1 10.7.6 16.1l-.2 2.1.1-.6 1.6 2 .5.7z" style="fill:#3fbeca"/></g></svg>