<svg version="1.1" id="Layer_1" xmlns="http://www.w3.org/2000/svg" x="0" y="0" viewBox="0 0 874.4 826.3" style="enable-background:new 0 0 874.4 826.3" xml:space="preserve"><style>.st0,.st1{fill-rule:evenodd;clip-rule:evenodd;fill:#11213a}.st1{fill:#7b212e}.st2{fill:#11213a}.st3,.st4{fill-rule:evenodd;clip-rule:evenodd;fill:#fff}.st4{fill:#bfbebe}</style><path class="st0" d="M468.4 0c3.7.4 7.4 1 11.2 1.3a226.8 226.8 0 0 1 130.5 55.3 228.2 228.2 0 0 1 55.1 71.6 442 442 0 0 1 33.5 93.3c.8 3.1 1.1 6.3 1.9 9.4a9 9 0 0 0 2.6 4.1l49 46.7 2.7 2.5h-61.8l25.7 45.1h-37.4l27.8 52.4h-24.4l5.9 22.9 22.8 90.6c.5 2.2 1.5 2.4 3.3 2.1l27.2-4.5c1.7-.3 2.6.2 3.1 2.1l26.2 92.9.5 2.6H209.7v-.3l102.8-21.2v-.8l-62.4-11.3v-138h-46.4v-3.9l.1-131c0-2.8-.7-3.6-3.5-3.6l-66 .1h-3.1l-.2-.7 16.1-11.8 48.2-35.1c1.2-.9 2.4-2.5 2.5-3.9 1.4-13 4.3-25.7 7.6-38.4a275.6 275.6 0 0 1 38.8-85.5 230 230 0 0 1 126.7-93c13.7-4.1 27.7-7.3 42-8.8 9.4-1 18.8-1.7 28.2-2.5l1.9-.6 25.4-.1zM329.7 74.5l-1.1 4.9-29.7 118.7c-.7 2.7-.1 4 2.4 4.8 9.9 3.1 19.9 6.2 29.7 9.5a14 14 0 0 0 11.5-1c7.3-3.9 14.4-8.2 21.8-11.9 3.6-1.8 4.7-4.6 5.1-8.3 1.3-11.8 2.9-23.6 4.4-35.4l4.4-34.8c1.3-10.1 1.8-20.3 4-30.1 2.6-11.7 6.7-23.1 10.2-34.6.3-.8 1.3-1.6 2.2-2l41.1-16c.8-.3 2.2-.3 2.9.2 12.9 7.9 25.7 15.9 38.4 24a5 5 0 0 1 1.9 3c1.8 8.4 3.6 16.8 5.2 25.2 2 10.6 4.7 21.1 4.8 32l.6 48c.1 7.9.2 15.8.1 23.7 0 2.1.6 3.4 2.5 4.5l14.5 8.3c17.5 9.4 34.3 5.5 50.7-3.2 2.4-1.3 3.5-3.2 3.5-6.2l-.1-77.4c0-1.2 0-2.4-.4-3.5-2.6-7.1-5.2-14.3-8.2-21.3-6.1-14.4-12.5-28.7-18.8-43.1l-1-2.8 98.4 77.9.2-1-1.4-3.2a169.1 169.1 0 0 0-92.6-85.7 219 219 0 0 0-65.8-14.8 251 251 0 0 0-52 .8 208.1 208.1 0 0 0-69.2 21.1 222.2 222.2 0 0 0-84.7 75.1l-1.1 2.1.4.3c21.4-15.9 43-31.6 65.2-47.8zm44.1 271.1-99.9 23.7-4.2-10.1-30.5-74.3c-.4-.9-1.4-2.1-2.2-2.1-2.9-.3-5.8-.1-8.7-.1V395l83.4-12.8-1.8 2.4-33.7 38.6c-.9 1-1.7 2.5-1.7 3.8-.2 5.4 0 10.7-.1 16.1 0 1.8.7 2.4 2.3 2.5 3.6.4 7.2.7 10.7 1.2 13 1.9 26 3.7 39 6 9 1.6 14.7 7.8 15.3 16.1.4 6.1 2.4 11.6 5 16.9l3.8 7.3-76.2-38.1c0 6.6.1 12.6-.1 18.6-.1 2.1.7 3.1 2.5 4l94 51.3 3.2 1.6-.1-184.9zM191 257.2h500.7l-1.2-1.3c-6.8-6.4-13.7-12.8-20.4-19.4a10 10 0 0 0-7.9-3.1l-426.7.1h-5.6c-.8 0-1.8.2-2.5.6a2868 2868 0 0 0-36.4 23.1zm528.6 279.9-208.5 25.3v.2h211.5l-3-25.5zM350 283.2l-.1-.4h-70.8c5.6 5.5 10.8 10.5 15.8 15.7 1.3 1.3 2.3 1.5 4.1.9 9.3-3.1 18.7-6 28-9l23-7.2zM220.9 704.4c.3 17.3-2.5 34-9.4 49.9a62.3 62.3 0 0 1-41.4 37.3 670.3 670.3 0 0 0-45.5 14.8 61 61 0 0 1-52.3-5.2 116.2 116.2 0 0 1-39-36.4 183.4 183.4 0 0 1-33-109.6c.9-18.1 4.4-35.6 13.6-51.6a59.1 59.1 0 0 1 34.8-28.5c16.8-5.2 33.4-10.7 50.1-16.3a59.4 59.4 0 0 1 46 3.7c16.9 8.1 30 20.6 41 35.4a175.2 175.2 0 0 1 32.2 75.2c1.8 10.3 2.6 20.8 3.9 31.2l-1 .1zM34.7 641c3.1-15.5 6.2-31 15.8-44.1a145.1 145.1 0 0 0-2.7 44.3c4.4-27.2 13.2-51.8 33-72.2l-3.3 1.1c-10.7 4-21.2 8.3-32 11.8a25.1 25.1 0 0 0-12.9 9.9 79.6 79.6 0 0 0-13.5 50.1c0 1.5.2 2.9.4 4.4l.5 4.2c3.7-17.7 7.1-35.2 17.9-50.2a96.8 96.8 0 0 0-3.2 40.7zM232.4 826.3v-60.9h638v60.9h-638zm160.4-53.5c0 10.1-.5 20 .2 29.8.6 8.6 7 13.9 15.1 14.1 7.8.2 14.8-4.7 15.5-12.2 1-10.4.8-21 1.1-31.5h-12.9v4.9c0 6.6.1 13.3-.1 19.9-.1 2.2-.1 5-3.3 5.3-1.9.2-3.2-2.1-3.2-5.7-.1-7.1 0-14.3 0-21.4v-3.1l-12.4-.1zm454.8 42.8c-4-14.1-7.8-27.8-11.8-41.5-.2-.6-1.2-1.2-1.9-1.3l-12.4-.1-12.3 42.8h13.3l1.4-5.1h9c.3 1 .6 1.8.7 2.7.1 2 1 2.7 3 2.6 3.4-.2 6.9-.1 11-.1zm-150.4-29.2c1-3 2.2-6.2 3.2-9.6.2-.5-.3-1.5-.8-1.8a18 18 0 0 0-18.8-.9c-5 3.3-7.5 10.8-5.9 17.2 1.4 5.3 5.4 7.2 10.1 8.6 1 .3 1.7 1.9 2.5 2.9-1.2.4-2.7 1.4-3.7 1.1-2.5-.8-4.9-2.3-7.4-3.6l-1.9 5.8c-2.2 6.6-2 7 4.7 9.4 10.3 3.7 19.5-.8 21.6-10.8 1.5-7.3-.3-14.3-9.1-16.2-.8-.2-1.8-.4-2.4-1-.8-.6-1.3-1.5-1.9-2.2.9-.5 2-1.6 2.8-1.4 2.4.5 4.6 1.5 7 2.5zm-436.1 28.9h12.8v-28.5h6.8v-13.9h-26.1v14h6.6l-.1 28.4zm278.4-42.5v42.5h24.4V804c.1-1.9-.6-2.6-2.5-2.5h-9.8v-28.7h-12.1z"/><path class="st1" d="m719.9 747.2-16.3-4a50.3 50.3 0 0 1-18.2-8.5 13.5 13.5 0 0 1-5.6-11.5v-35.1H654.7l-2.8-.1h-.7c-1.4 0-2.5.4-3.2 1.1-1.1 1.1-1.2 2.6-1.2 3.8l.1 30.4v13.5h-44.2V620.6h44.4l29.5.1c15.6.2 29.2 4.4 40.3 12.6a24 24 0 0 1 10.1 16.1 28.9 28.9 0 0 1-12.6 27.5l-1.7 1.4-2.1 1.7 2.2 1.5 3.1 2.1a82 82 0 0 0 7.3 4.7c1.3.7 1.6 1.3 1.6 3.1l-.1 42.6v14.5l-4.8-1.3zm-52.4-108.6-17.1.1c-1.9 0-3.5 2.5-3.5 4l-.1 15.3v10.8c0 1.4.3 2.4 1.1 3.1a4.3 4.3 0 0 0 3.1 1.1h28.9v-34.3l-12.4-.1z"/><path class="st2" d="M647.1 618.4v4l29.4.1c15.2.2 28.4 4.3 39.2 12.2 5.3 3.9 8.5 9 9.4 14.8 1 6.5-1.1 13.6-5.6 19.6-1 1.3-2.3 2.6-3.5 3.8l-2.7 2.3-1.7 1.4-4.1 3.4 4.5 3 3 2.1c2.4 1.6 4.8 3.3 7.4 4.8l.5.3.1 1-.1 42.6v12l-2.5-.6-16.2-4a49 49 0 0 1-17.5-8.2 11.4 11.4 0 0 1-4.8-9.9v-37H654.8l-2.7-.1h-.8c-2 0-3.5.6-4.7 1.7-1.6 1.6-1.8 3.8-1.8 5.3l.1 30.4v11.5h-40.2V622.5H647.1v-4.1m3.8 56.5h30.7v-38.3H667.3l-17.1.1c-3 0-5.5 3.3-5.5 6l-.1 15.3v10.8a6 6 0 0 0 1.6 4.5 6.9 6.9 0 0 0 4.7 1.6m-3.8-56.5-43.2.1-3.2.1v120.3h48.2v-5.2c0-13.6.1-27.2-.1-40.7 0-2.2.6-3 2.5-3h.6l3 .1 4.7-.1H678v33c0 5.4 2.1 9.8 6.4 13.1 5.7 4.3 12.1 7 18.9 8.8 7.7 2.1 15.5 3.8 23.7 5.8V691c0-2.3-.5-3.7-2.6-4.8-3.5-2-6.7-4.4-10.2-6.7 1.8-1.5 3.3-2.6 4.6-3.9 1.4-1.3 2.8-2.7 4-4.3 9.1-12.1 9.9-29.4-4.6-40a70.2 70.2 0 0 0-41.5-13c-10 .2-19.8.1-29.6.1zm3.8 52.5c-1.5 0-2.1-.5-2.1-2.2l.1-26c0-.7 1-2 1.6-2l17.1-.1h10.3v30.3h-27z"/><path class="st1" d="M530.3 737.3c-12.4 0-22.5-.1-31.9-.3-13.7-.3-25.6-4-35.6-11.1a14.3 14.3 0 0 1-6.5-12.7V708c.1-19 .3-38.6-.1-57.9-.3-18.4 11.4-25.1 21.3-27.5a90.5 90.5 0 0 1 20-2.4l37.7-.2h44.2v42.6h-46v-25.4h-34v32.5h38.2v18h-38.2v33.5h32.7v-26.7h44.8V737h-1.2l-22.7.1c-7.6.2-15.1.2-22.7.2z"/><path class="st2" d="M535.2 622h42.1v38.6h-42v-25.4h-38v36.5h38.2v14h-38.2v37.5H534v-26.7h40.8V735l-21.9.1-22.7.1c-12.4 0-22.5-.1-31.9-.3a60.5 60.5 0 0 1-34.4-10.7 12.7 12.7 0 0 1-5.7-11.1V708c.1-19 .3-38.6-.1-58-.3-17.1 10.6-23.3 19.8-25.5a81.4 81.4 0 0 1 19.5-2.3l37.8-.2m0-4c-12.6 0-25.2 0-37.8.2-6.8.1-13.8.8-20.4 2.4-13.7 3.3-23.1 12.6-22.8 29.5.4 21 .2 42 0 63 0 6.2 2.5 10.9 7.4 14.4a64.8 64.8 0 0 0 36.7 11.5c10.7.2 21.3.3 32 .3l45.4-.1h3.2v-46.5h-48.8v26.7h-28.7v-29.5h38.2v-22h-38.2v-28.5h30v25.4h50v-46.5l-2.2-.1-44-.2z"/><path class="st1" d="M750.3 737.2v-27.9h44.3v8.3c0 .9.1 2.3 1.1 3.3 1.1 1.1 2.7 1.1 3.2 1.1H822.7c.6 0 2.1 0 3.1-1.1 1.1-1.1 1.1-2.6 1.1-3.1a1401 1401 0 0 1 0-29c0-1.4-.3-2.5-1.1-3.3-1.1-1.1-2.6-1.1-3.5-1.1h-.4l-10.5.1-11.7.1c-5.6 0-10.2-.1-14.6-.3a46.7 46.7 0 0 1-28.9-9.6c-4-3.3-6-7.3-6-12.1v-5.1c.1-5.8.1-11.9-.1-17.8-.2-4.4 1.7-7.7 5.9-10.8a40 40 0 0 1 18.5-6.9c8.6-1.1 16.3-1.7 23.6-1.8l33-.1H872.4v28.8H828v-12.4h-33.7v32.6l1.9.1 1.1.1 2.2.1h17.9l11.3.2c13.5.5 24.8 3.9 34.3 10.5 6.6 4.6 9.4 9.8 8.9 16.5l-.4 9.2c-.1 4.3-.2 8.8-.8 13.1-2.1 14.1-15 17.2-20.5 17.9-4.3.5-8.6.6-12.3.6h-44.2l-43.4-.2z"/><path class="st2" d="M831.1 622H870.4v24.8H830v-12.4h-37.7v36.5l3.8.2 1 .1 2.4.1h18l11.2.2c13.1.5 24 3.8 33.3 10.1 6 4.2 8.5 8.7 8.1 14.7l-.4 9.3c-.1 4.5-.2 8.7-.8 12.9-1.8 12.3-12.5 15.4-18.8 16.2-4.2.5-8.4.6-12.1.6h-85.6v-23.9h40.3v6.2c0 .7-.1 3 1.6 4.8 1.1 1.2 2.7 1.7 4.7 1.7h23.9c1.9 0 3.4-.6 4.5-1.7 1.7-1.7 1.7-3.9 1.7-4.6a1401 1401 0 0 1 0-29c0-2-.5-3.5-1.7-4.7-1.7-1.7-3.9-1.7-5-1.7H822.1l-10.6.1-11.7.1c-5.6 0-10.2-.1-14.5-.3a44.2 44.2 0 0 1-27.7-9.2 12.7 12.7 0 0 1-5.2-10.5v-5.1c.1-5.9.1-11.9-.1-17.9-.1-3.7 1.4-6.5 5-9.1a38.8 38.8 0 0 1 17.6-6.6c8.5-1.1 16.1-1.7 23.3-1.7l32.9-.2m0-4-33 .1c-7.9.1-15.9.8-23.8 1.8-6.9.9-13.6 3.1-19.4 7.3-4.2 3.1-6.9 6.9-6.7 12.5.3 7.6.1 15.2.1 22.9a17 17 0 0 0 6.7 13.6 49 49 0 0 0 30.1 10.1l14.6.3 22.3-.2h.3c1.5 0 2.7.1 2.6 2.3v29c0 1.6-.6 2.2-2.2 2.2h-23.9c-1.8 0-2.3-.7-2.3-2.4v-10.3h-48.3v31.9h89.6c4.2 0 8.4-.1 12.5-.6 10.6-1.3 20.4-7 22.3-19.5 1.1-7.4.7-14.9 1.3-22.4.7-8.3-3.4-13.9-9.8-18.3a64.7 64.7 0 0 0-35.4-10.8l-11.3-.2-17.3.1h-.7l-3.2-.1v-28.7h29.7V651h48.4v-32.8h-4.1l-39.1-.2z"/><path class="st1" d="m382.8 737.2-36.4-.2a40.6 40.6 0 0 1-27.3-9.3 21.6 21.6 0 0 1-8-16.3c-.2-22.7-.1-45.8-.1-68.1v-23h44.3v98.1H384.2a4 4 0 0 0 3-1.1c1.1-1.1 1-2.6 1-3.1V710h44.9v27.2h-50.3z"/><path class="st2" d="M353.4 622.3v98.1H384.3a6 6 0 0 0 4.4-1.7 6.3 6.3 0 0 0 1.6-4.6v-2.2h40.9v23.2H382.8l-36.4-.2c-10.8-.1-19.3-3-26-8.8a19.3 19.3 0 0 1-7.3-14.8c-.2-22.7-.1-45.7-.1-68.1v-21h40.4m4-3.9h-48.2l-.1 1.4c0 30.6-.1 61.2.1 91.7 0 7.1 3.3 13.1 8.7 17.8a43 43 0 0 0 28.6 9.8l36.4.2 48.9-.1h3.5v-31.2h-48.9v6.3c0 1.4-.4 2.1-2 2.1h-26.9l-.1-98z"/><path class="st1" d="M240.9 620.2h43.4v116.7h-43.4z"/><path class="st2" d="M282.3 622.2V735h-39.4V622.2h39.4m4-4h-47.4v120.7h47.4V618.2z"/><path class="st3" d="m329.7 74.5-65.4 47.6-.4-.3 1.1-2.1c21.7-32.4 50-57.3 84.7-75.1 21.8-11.2 44.9-18 69.2-21.1a251 251 0 0 1 52-.8c22.7 1.8 44.7 6.2 65.8 14.8a169.1 169.1 0 0 1 92.6 85.7l1.4 3.2c.1.1 0 .4-.2 1l-98.4-77.9 1 2.8 18.8 43.1c3 7 5.5 14.2 8.2 21.3.4 1.1.4 2.3.4 3.5l.1 77.4c0 3-1.1 4.9-3.5 6.2-16.4 8.7-33.1 12.7-50.7 3.2-4.9-2.6-9.6-5.6-14.5-8.3-1.9-1-2.5-2.3-2.5-4.5.1-7.9 0-15.8-.1-23.7l-.6-48c-.1-10.9-2.8-21.4-4.8-32-1.6-8.4-3.4-16.8-5.2-25.2a5 5 0 0 0-1.9-3l-38.4-24c-.7-.5-2.1-.5-2.9-.2l-41.1 16c-.9.3-2 1.2-2.2 2-3.5 11.5-7.6 22.9-10.2 34.6-2.2 9.8-2.7 20.1-4 30.1l-4.4 34.8c-1.5 11.8-3.1 23.6-4.4 35.4-.4 3.7-1.5 6.4-5.1 8.3-7.4 3.8-14.5 8-21.8 11.9a14 14 0 0 1-11.5 1c-9.8-3.4-19.8-6.4-29.7-9.5-2.5-.8-3.1-2.1-2.4-4.8 10-39.5 19.9-79.1 29.7-118.7.5-1.2.8-2.6 1.3-4.7zM373.8 345.6v185l-3.2-1.6-94-51.3c-1.7-.9-2.5-1.9-2.5-4 .2-6 .1-12 .1-18.6l76.2 38.1-3.8-7.3a45.8 45.8 0 0 1-5-16.9c-.6-8.3-6.3-14.5-15.3-16.1-12.9-2.3-26-4.1-39-6a206 206 0 0 0-10.7-1.2c-1.6-.2-2.4-.7-2.3-2.5.1-5.4-.1-10.8.1-16.1 0-1.3.9-2.8 1.7-3.8a6203 6203 0 0 1 33.7-38.6l1.8-2.4-83.4 12.8V282.8c2.9 0 5.9-.2 8.7.1.8.1 1.8 1.2 2.2 2.1l30.5 74.3 4.2 10.1 100-23.8z"/><path class="st4" d="m191 257.2 36.4-23.2c.7-.4 1.6-.5 2.5-.6h5.6l426.7-.1c3.2 0 5.6.8 7.9 3.1 6.6 6.6 13.6 12.9 20.4 19.4l1.2 1.3-500.7.1zM719.6 537.1l3 25.5H511.1v-.2l208.5-25.3z"/><path class="st3" d="m350 283.2-23 7.2c-9.3 3-18.7 5.9-28 9-1.7.6-2.8.4-4.1-.9l-15.8-15.7h70.8l.1.4z"/><path class="st4" d="M34.7 641a96.7 96.7 0 0 1 3-40.7c-10.8 15-14.2 32.5-17.9 50.2a60 60 0 0 1-.5-4.2l-.4-4.4a79.4 79.4 0 0 1 13.5-50.1c3.3-4.6 7.2-8 12.9-9.9 10.8-3.6 21.4-7.8 32-11.8l3.3-1.1c-19.8 20.4-28.5 45-33 72.2-.8-10.9-1.4-26.8 2.7-44.3-9.3 13.2-12.5 28.6-15.6 44.1z"/><path class="st3" d="M392.8 772.8h12.3v24.5c0 3.6 1.3 5.9 3.2 5.7 3.3-.3 3.3-3.1 3.3-5.3.2-6.6.1-13.3.1-19.9v-4.9h12.9c-.3 10.6-.2 21.1-1.1 31.5-.7 7.5-7.7 12.4-15.5 12.2-8.2-.2-14.5-5.4-15.1-14.1-.6-9.7-.1-19.6-.1-29.7zM847.6 815.6h-11.1c-2 .1-2.9-.6-3-2.6 0-.9-.4-1.7-.7-2.7h-9l-1.4 5.1h-13.3l12.3-42.8c4.3 0 8.4-.1 12.4.1.7 0 1.7.7 1.9 1.3 4.1 13.7 7.9 27.5 11.9 41.6zm-19.1-27-.4-.1-2.1 11.1h4.6l-2.1-11zM697.2 786.4c-2.5-.9-4.6-2-6.9-2.5-.8-.2-1.9.9-2.8 1.4.6.8 1.1 1.7 1.9 2.2.7.5 1.6.8 2.4 1 8.7 1.9 10.6 8.9 9.1 16.2-2.1 10-11.3 14.5-21.6 10.8-6.7-2.4-6.9-2.8-4.7-9.4l1.9-5.8c2.6 1.3 4.9 2.7 7.4 3.6 1 .3 2.5-.7 3.7-1.1-.8-1-1.5-2.6-2.5-2.9-4.7-1.4-8.7-3.3-10.1-8.6-1.6-6.4.9-13.9 5.9-17.2a18 18 0 0 1 18.8.9c.5.4.9 1.3.8 1.8-1 3.3-2.2 6.6-3.3 9.6zM261.1 815.3v-28.5h-6.6v-14h26.1v13.9h-6.8v28.5l-12.7.1zM539.5 772.8h12.2v28.7h9.8c1.9-.1 2.6.6 2.5 2.5v11.3h-24.4l-.1-42.5zM677.7 670.9H651c-1.6 0-2.3-.5-2.3-2.2l.1-26c0-.7 1-2 1.6-2l27.3-.1v30.3z"/><path d="m828.5 788.6 2.2 10.9h-4.6l2.1-11.1.3.2z" style="fill-rule:evenodd;clip-rule:evenodd"/><path class="st4" d="m329.2 74 19 41.3 33.7-27.4-13.1 109.2s-23 15-31.2 16c-8.3 1-38.6-9.7-39.6-11.8-1.1-2.1 31.2-127.3 31.2-127.3zM480.6 70.3l48.9 42.7 24.7-12.6 7.6 18s1.7 78.4 0 82.3c-1.7 3.9-14.1 10.7-24.4 11.8a43.3 43.3 0 0 1-29.2-4.5c-12.6-6.2-17.2-8.9-18.5-12.1-1.3-3.2-9.1-125.6-9.1-125.6z"/><path class="st1" d="m238.4 283.8 35.7 85.4 100-23.6v186l-99.8-54.5v59l122 18.9 50.6-88.3-59-61.5 67.4-110.7L278.5 333z"/><path class="st1" d="m230.1 394.6 81.4-12.3-37.2 43.1v-30.6zM562.3 307v41.3l22.5-23.6zM602.8 292.1v32l-29.3 57.6 55.1-52.3v-37.3zM453.8 546.1l99.5-70 2.3 42.2 43.8-83.5 54.5-33.4 17.4 107z"/><path d="M205.6 657.3c14.2 60.6 4.9 115.2-42 125.8-24.4 5.5-78.4-36.2-92.9-96.7C60 641.5 66.7 577 108 567.5c37.5-8.6 83.4 29.2 97.6 89.8z" style="fill:#7b212e"/></svg>