<svg xmlns="http://www.w3.org/2000/svg" viewBox="0 0 206.8 307.1"><path d="M202.2 127.7c9.6-28.1 5.1-57.6-22.8-69.3-1.6-35.1-18-54.6-51.5-58.4 5 15.7 6.6 30.2-.7 46.2l-23.8-9.3-23.8 9.3c-7.3-16.1-5.7-30.6-.7-46.2C45.4 3.8 29 23.3 27.4 58.3-.5 70.1-5 99.6 4.6 127.7c5 27.5-15 27.5 11.6 64.2l-3.1 3.6c20.6 14.8 37 38.4 30.2 55.5l-5.4 9.3c25.1 6.5 47.9 23.8 65.5 46.8 18-23.3 40.3-40.2 65.6-46.8l-5.4-9.3c-6.8-17.1 9.5-40.7 30.1-55.5l-3.1-3.5c26.7-36.8 6.7-36.9 11.7-64.3Z" style="fill:#45286c"/><path d="M159.1 183.7a53 53 0 0 0 5.8 10.1c-24 24.1-24.2 45.8-23 54.8a137 137 0 0 0-38.5 27.6c-1.8-3.1-10.3-22.7.3-35.9 11 0 22 1.4 32.9 2.9a60.6 60.6 0 0 0-65.9 0l-5.7-5.5c-1.1-11-6.2-26.8-23.1-43.8 1.8-2.4 4-5.9 5.8-10.1a278 278 0 0 0 12 9.5l-5 10c7.2 8.3 12.7 18.3 17.7 28.2l5.1-2.6c-.1-8 2.3-16.4 6.3-23.1 1.8 6.6 4 13.1 7.3 19.1a86.7 86.7 0 0 1 24.4 0c3.3-6 5.5-12.5 7.3-19.1 4 6.7 6.5 15.1 6.3 23.1l5.1 2.6a141 141 0 0 1 17.7-28.2l-5-10a278 278 0 0 0 12-9.5ZM41.2 110.4c-3.7-7.8-14.9-16.6-17.4-23.8 0 0-7.1 11.1-1.3 24 0 0 .3-9.5 1.9-10.4l-1.2-4.7 2.2 1.7c4.7 4.1 10 10.1 14 16.6l1.8-3.4ZM95.8 151c5.5-3.4 6.8-10.3 7.6-16.2.8 5.9 2 12.8 7.6 16.2 2.9-2 5-6 6.3-9.3 5.3-15.3 14.1-39.2 34.4-35.2 9.8-23.9 15.1-54.7.1-77.7-.4 15.8-9.1 29.7-15.3 43.8-3.7 9.4-11.9 18.7-10.2 29.2-18.7-15.3-.6-26.9-12.3-36.5-13.9 2.4-22.8 17.2-16.7 33.9 4.4 15.2-4.9 29.9-10 36.5 2 5.2 3.9 11.7 8.6 15.1ZM71.3 74.7C64.8 60 55.6 45.4 55 28.9a52.9 52.9 0 0 0-8.2 27.2 102.3 102.3 0 0 0 8 49.8c14.7-2.8 18.9-20.2 16.5-31.3Zm-42.7 34c-5 5-1.8 13.7-.3 19.7 2.4 7.9 1.8 16-.2 24.1 14.3-18.4-2.1-30 .5-43.8Zm139.2 52.9a95.3 95.3 0 0 1-12.6 12.8 255.2 255.2 0 0 1-20.2 15.8l5.9 11.7a124 124 0 0 0-8.4 12.9 63 63 0 0 0-11-15.8 52.9 52.9 0 0 1-8.3 15.9 107 107 0 0 0-19.6 0 55.3 55.3 0 0 1-8.3-15.9 58.2 58.2 0 0 0-11 15.8c-2.6-4.4-5.3-8.8-8.4-12.9l5.9-11.7A166.5 166.5 0 0 1 39 161.5c2.7-4.3 6.7-7.8 10.6-11-3.3-7.6-5.3-17.5-.1-24.8 16.6-20.9 28.1 11.8 37.8 23.5 3.5 3.8 7.8 7.4 12.7 5.4a11 11 0 0 1 3.4 5.1 10 10 0 0 1 3.4-5.1c6.9 2.4 12.1-4.1 16.3-10.1 7.4-12.3 20.1-37.8 34.2-18.8 5.2 7.2 3.2 17.1-.1 24.8a46 46 0 0 1 10.6 11Zm-39.4 23.3c-6.1-7-14.6-7.2-14.6-7.2 4.5 3.6 6 9 6 9-9.2 3.9-16.4 12.7-16.4 12.7s-7.2-8.8-16.4-12.7c0 0 1.5-5.4 6-9 0 0-8.5.2-14.6 7.2l3.2 7.1s16.4 7.2 21.8 15.8c5.4-8.6 21.8-15.8 21.8-15.8l3.2-7.1Zm25.6-47.3c-5.7-5.9-14.3-1-19 3.8-6.7 6.7-12.1 14.5-18.8 21.1-2.3 2.2-4.9 5-8.2 5.2-1.8-1.2-3.9-2.6-4.6-4.6-.7 2-2.8 3.4-4.6 4.6-3.3-.2-5.8-3-8.2-5.2-6.7-6.7-12.1-14.4-18.8-21.1-4.7-4.8-13.3-9.6-19-3.8-2.6 2.6-2.1 7 .5 9.4.9-4.5 4.2-6.1 7.9-3.6-.8 3.4-1.4 8.7.4 14.4-3.6.3-7.8-.6-7.8-.6a32 32 0 0 0 16.2 13c-4.7.8-8.9-.6-8.9-.6 8 7.3 25.6 9.7 35.4 4 4.4 4.9 7 15.5 7 15.5v-19.5c15.9 11.7 30.9 8.3 42.4 0 0 0-4.2 1.4-8.9.6 6.7-2.6 12.6-7 16.2-13 0 0-4.3.9-7.8.6 1.8-5.7 1.2-11 .4-14.4 4.2-2.3 6.5-1.3 7.9 3.6 2.6-2.3 3-6.8.5-9.4Zm28.7-16a40 40 0 0 0 0 27.8c1.8 6 3.2 10.5-2 19.9-1.5-.8-3.4-1.5-5.4-1.9 1.3-1.7 2.5-3.6 3.6-5.3a46.3 46.3 0 0 0-10.7-14.4 36.9 36.9 0 0 0 1.3-16.7c.1-5.6 1.5-11.3 3.4-16.6a86 86 0 0 1 8.5-17.2 69.7 69.7 0 0 0-16.8 21.9 23 23 0 0 0-1.4-1.9 34 34 0 0 1 8.7-15.6 53.7 53.7 0 0 0 11.1-15c3.1 5.5 5.7 16.2-.3 35Zm-2-7.6c-.3-1.9-.7-4.3-2.5-5.3 3.4 11.3-14.1 24.8.5 43.8-2-8-2.6-16.2-.2-24.1 1.4-4.6 2.7-9.4 2.2-14.4Z" style="fill:#636567"/><path d="M138.9 148.2c1.1 3 2.2 8 0 12.5a12.6 12.6 0 0 1-17.7 5.1c1.7-1.6 3.2-3.3 4.7-5 1.3 6 7.2 4.9 7.6-1.1l-3.4-.4 3.2-3a5 5 0 0 0-1.1-2.2c2.1-2.1 4.3-4.1 6.7-5.9Zm-58 12.6c-1.3 6-7.2 4.9-7.6-1.1l3.4-.4-3.2-3a5 5 0 0 1 1.1-2.2 62.8 62.8 0 0 0-6.7-5.9c-4.1 8.5 1.7 21.3 13.3 19.3 1.4-.3 2.8-.8 4.3-1.6a73.3 73.3 0 0 1-4.7-5Z" style="fill:#aa852f"/><path d="m106.6 155 .2-.2c6.9 2.4 12.1-4.1 16.3-10.1 7.4-12.3 20.1-37.8 34.2-18.8 2.6 3.7 3.4 8 3.1 12.4 0 0-15.7-20-30.8 3.7a75 75 0 0 1-17 20.6c-2.7 2-6.6.4-7-2.9-.3-2.6.6-4.1 1-4.7Zm48.6-3.1c-.3 2-1 3.7-2 5.2a32 32 0 0 1-16.2 13c4.7.8 8.9-.6 8.9-.6a35.5 35.5 0 0 1-23.4 7.5c9.7 4.2 12.2 8.8 12.2 8.8a120 120 0 0 0 29.1-24.8c-1.2-3.7-8.4-9.1-8.4-9.1ZM137.3 106s5.5-4.3 15.5-2.2c9.1-23.5 13.4-52.7-1-74.9 0 0 11.8 26.4-14.5 77.1Zm-33.9 83v10.5s7.2-8.8 16.4-12.7c0 0-1.5-5.4-6-9l-6.4 8.1a59 59 0 0 1 2.6-12.2 39.5 39.5 0 0 1-6.6-4.1v19.5Zm36 46.1a25.8 25.8 0 0 0-5.1-3.7l-5.1-2.6c.1-8-2.3-16.4-6.3-23.1a96 96 0 0 1-5.7 15.8v.1c.6 3.3 5.4 5.3 5.4 5.3-3.5 1-7-2.2-7-2.2a86.7 86.7 0 0 0-24.4 0c-3.3-6-5.5-12.5-7.3-19.1a44.3 44.3 0 0 0-6.2 19.9C79.8 227 84 227 84 227c-2.9 2.3-6.3 1.7-6.4 1.7-2.3 2.6-2.3 7-2.3 7 23.6-15.7 64.2-.7 64.2-.7Zm-11.6-39.5-5.2 1.8a50.8 50.8 0 0 1 9.8 11.6l4.8-8.6-6.6-12-2.9 7.2Zm-24.4 14.6-3.3-2.4-2.8 4.8a56 56 0 0 1 14.8 0c4.7-6.4 6.2-12 6.2-12-6.9.7-14.9 9.7-14.9 9.7Zm26.9 37.5c-12.8-5.4-29.8-1.9-29.8-1.9a37.4 37.4 0 0 0 1.1 26.1c5-14.2 28.8-24.2 28.8-24.2ZM89.4 158c1.7 1 3.8 2.1 5.9 2.2 2.8 0 5-2.2 4.6-5.4-4.9 1.9-9.3-1.6-12.7-5.4-5.3-6.3-11-18.9-17.8-25.7 3.8 6.9 5.8 14.3 9.6 21.4 2.5 4.9 5.7 9.8 10.5 12.9Zm19.7-60c-1.6 10.2-3.3 26.6 5 36.8 0 0 3.3-19.3 11.7-23.7 0 0-8.5-4.1-9.7-8.9-1.1-4.6 1.7-14.1-8.2-20.5-1-.7-2.2-1-3.4-1 4.4 5.3 6 8.2 4.6 17.2ZM65.6 80.2c1.6 11-6.3 24.2-6.3 24.2h.3c10.8-5.3 13.8-20 11.7-29.7C64.8 60 55.6 45.4 55 28.9c-6.5 24 10.6 51.2 10.6 51.2ZM45.4 161s2.1-4.7 4.2-10.4a46 46 0 0 0-10.6 11 166.5 166.5 0 0 0 32.8 28.7s-24-21.9-26.4-29.3Z" style="fill:#afb0b2"/><path d="M154 137.6c-5.7-5.9-14.3-1-19 3.8-6.7 6.7-12.1 14.5-18.8 21.1-2.3 2.2-4.9 5-8.2 5.2-1.8-1.2-3.9-2.6-4.6-4.6-.7 2-2.8 3.4-4.6 4.6-3.3-.2-5.8-3-8.2-5.2-6.7-6.7-12.1-14.4-18.8-21.1-4.7-4.8-13.3-9.6-19-3.8-2.6 2.6-2.1 7 .5 9.4.9-4.5 4.2-6.1 7.9-3.6-.8 3.4-1.4 8.7.4 14.4-3.6.3-7.8-.6-7.8-.6a32 32 0 0 0 16.2 13c-4.7.8-8.9-.6-8.9-.6 8 7.3 25.6 9.7 35.4 4 4.4 4.9 7 15.5 7 15.5v-19.5c15.9 11.7 30.9 8.3 42.4 0 0 0-4.2 1.4-8.9.6 6.7-2.6 12.6-7 16.2-13 0 0-4.3.9-7.8.6 1.8-5.7 1.2-11 .4-14.4 4.2-2.3 6.5-1.3 7.9 3.6 2.6-2.3 3-6.8.5-9.4Zm-72.8 29.9c-11.6 2-17.4-10.8-13.3-19.3 2.3 1.8 4.5 3.8 6.7 5.9a9 9 0 0 0-1.1 2.2l3.2 3-3.4.4c.4 6 6.4 7.1 7.6 1.1 1.5 1.7 3 3.4 4.7 5-1.5.8-2.9 1.4-4.3 1.6Zm57.7-6.8a12.6 12.6 0 0 1-17.7 5.1c1.7-1.6 3.2-3.3 4.7-5 1.3 6 7.2 4.9 7.6-1.1l-3.4-.4 3.2-3a5 5 0 0 0-1.1-2.2c2.1-2.1 4.3-4.1 6.7-5.9 1.1 3 2.2 8 0 12.5Zm-35.5 47.1C98 199.2 81.6 192 81.6 192l-3.2-7.1c6.1-7 14.6-7.2 14.6-7.2-4.5 3.6-6 9-6 9 9.2 3.9 16.4 12.7 16.4 12.7s7.2-8.8 16.4-12.7c0 0-1.5-5.4-6-9 0 0 8.5.2 14.6 7.2l-3.2 7.1s-16.4 7.2-21.8 15.8Zm75.1-79.4c-2.4 7.9-1.8 16 .2 24.1-14.5-18.9 2.9-32.5-.5-43.8 1.8 1 2.2 3.5 2.5 5.3.5 4.9-.7 9.7-2.2 14.4Zm15.3-3.3c8.8-26.4 4.2-49.6-18.1-58.8-1.4 7.4-1 13.7-6.5 20.7 3.9-26.6 3.2-68.3-29.3-75.4 4 16-1.4 30.8-7.8 46l-28.7-11.2-28.7 11.2c-6.4-15.3-11.8-30-7.8-46C34.4 18.7 33.7 60.3 37.6 87c-5.6-7-5.1-13.3-6.5-20.7C8.8 75.5 4.2 98.7 13 125.1c7.7 27.7-15.5 25.9 10.6 62 3.1-2.4 8.1-11.5 12.8-6.9-5 9.5-6 8.8-10.8 14.2 31.5 26 30 52.7 25.2 61a126.5 126.5 0 0 1 52.5 38.1c6.3-7.4 24.7-28.4 52.5-38-4.9-8.3-6.4-35.1 25.1-61-4.7-5.4-5.7-4.8-10.7-14.2 4.7-4.6 9.8 4.6 12.8 6.9 26.2-36.1 3-34.3 10.6-62ZM97.2 99.4c-6.1-16.7 2.8-31.5 16.7-33.9 11.7 9.5-6.4 21.2 12.3 36.5-1.7-10.5 6.5-19.8 10.2-29.2 6.2-14.1 14.9-28 15.3-43.8 15 23.1 9.7 53.8-.1 77.7-20.3-4-29.1 19.9-34.4 35.2a20.9 20.9 0 0 1-6.3 9.3c-5.6-3.4-6.8-10.3-7.6-16.2-.8 5.9-2 12.8-7.6 16.2-4.6-3.4-6.6-9.9-8.6-15.1 5.1-6.6 14.4-21.3 10-36.5ZM46.8 56.2c.7-9.1 2.6-19.8 8.2-27.2.5 16.5 9.7 31.1 16.3 45.8 2.3 11-1.8 28.5-16.5 31.3a102.5 102.5 0 0 1-8-49.8Zm-18.7 96.2c2-8 2.6-16.2.2-24.1-1.5-6-4.7-14.7.3-19.7-2.6 13.8 13.8 25.3-.5 43.8Zm-2.7-55.2c-.7-.7-1.5-1.2-2.2-1.7l1.2 4.7c-1.7.9-1.9 10.4-1.9 10.4-5.8-12.9 1.3-24 1.3-24 2.5 7.2 13.7 16 17.4 23.8l-1.8 3.4c-4-6.5-9.3-12.5-14-16.6Zm116.5 151.3a137 137 0 0 0-38.5 27.6c-1.8-3.1-10.3-22.7.3-35.9 11 0 22 1.4 32.9 2.9a60.6 60.6 0 0 0-65.9 0l-5.7-5.5c-1.1-11-6.2-26.8-23.1-43.8 1.8-2.4 4-5.9 5.8-10.1a278 278 0 0 0 12 9.5l-5 10c7.2 8.3 12.7 18.3 17.7 28.2l5.1-2.6c-.1-8 2.3-16.4 6.3-23.1 1.8 6.6 4 13.1 7.3 19.1a86.7 86.7 0 0 1 24.4 0c3.3-6 5.5-12.5 7.3-19.1 4 6.7 6.5 15.1 6.3 23.1l5.1 2.6a141 141 0 0 1 17.7-28.2l-5-10a278 278 0 0 0 12-9.5 53 53 0 0 0 5.8 10.1c-24 24.1-24.2 45.8-23 54.8Zm13.4-74.1a255.2 255.2 0 0 1-20.2 15.8l5.9 11.7a124 124 0 0 0-8.4 12.9 63 63 0 0 0-11-15.8 52.9 52.9 0 0 1-8.3 15.9 107 107 0 0 0-19.6 0 55.3 55.3 0 0 1-8.3-15.9 58.2 58.2 0 0 0-11 15.8c-2.6-4.4-5.3-8.8-8.4-12.9l5.9-11.7a166.5 166.5 0 0 1-32.8-28.7c2.7-4.3 6.7-7.8 10.6-11-3.3-7.6-5.3-17.5-.1-24.8 16.6-20.9 28.1 11.8 37.8 23.5 3.5 3.8 7.8 7.4 12.7 5.4a11 11 0 0 1 3.4 5.1 10 10 0 0 1 3.4-5.1c6.9 2.4 12.1-4.1 16.3-10.1 7.4-12.3 20.1-37.8 34.2-18.8 5.2 7.2 3.2 17.1-.1 24.8a46 46 0 0 1 10.6 11 95.3 95.3 0 0 1-12.6 12.8Zm27.4-25c1.8 6 3.2 10.5-2 19.9-1.5-.8-3.4-1.5-5.4-1.9 1.3-1.7 2.5-3.6 3.6-5.3a46.3 46.3 0 0 0-10.7-14.4 36.9 36.9 0 0 0 1.3-16.7c.1-5.6 1.5-11.3 3.4-16.6a86 86 0 0 1 8.5-17.2 69.7 69.7 0 0 0-16.8 21.9 23 23 0 0 0-1.4-1.9 34 34 0 0 1 8.7-15.6 53.7 53.7 0 0 0 11.1-15c3.1 5.5 5.7 16.2-.3 35a40 40 0 0 0 0 27.8Z" style="fill:#010101"/></svg>