<svg version="1.1" id="Layer_1" xmlns="http://www.w3.org/2000/svg" x="0" y="0" viewBox="0 0 1169.3 1169.3" style="enable-background:new 0 0 1169.3 1169.3" xml:space="preserve"><style>.st0{fill:#fdfdfd}.st1{fill:#010101}.st2{fill:#b5a167}</style><path class="st0" d="M0 584.3a584.7 584.7 0 0 0 1169.3.8A585.4 585.4 0 0 0 584.7 0 584.6 584.6 0 0 0 0 584.3z"/><path class="st1" d="M0 584.3A584.6 584.6 0 0 1 584.7 0a585.4 585.4 0 0 1 584.6 585.1A584.7 584.7 0 0 1 0 584.3zm955.9-201.4.7.6-2 4.6a61.6 61.6 0 0 0-3.8 38.1 83 83 0 0 0 34.4 50.8c3.6 2.6 4.4 5 3.7 9-1.4 7.7-2.4 15.5-3.4 23.2-.5 3.9.8 4.9 4.4 3.4l51.7-21.1c2.7-1.1 3.1-2.1 1.9-4.7-4.4-10.4-8.7-20.8-12.8-31.4-1.2-3-2.6-4.2-6-4.5a30.3 30.3 0 0 1-25.4-38.4c3.5-10.7 11.5-16.3 22-19a28.5 28.5 0 0 1 36.1 19.8c3.1 9.6 1 18.1-4.9 25.8-1.6 2.1-1.7 3.4.3 5.4 9 9.1 17.9 18.4 26.7 27.7 1.9 2 3 2.3 5.1.3a60.5 60.5 0 0 0 19.6-40.9 83.2 83.2 0 0 0-16.1-55.4 72 72 0 0 0-56.2-31.9 82.1 82.1 0 0 0-60.3 20.7l-2.5 1.9-1-3.3c-2.6-10.3-5-20.7-7.7-31-.9-3.4-.2-5.7 2.3-8.3 19.7-19.9 39.2-40 58.7-60 3.1-3.2 3.1-3.2-.1-6.4l-14.7-14.3-17-16.5-38.6 39.5-.8-1.5c-8-33.1-16.1-66.2-24-99.4-.7-3.1-1.8-5.6-4.9-7.2L821 261.3l16.2 16.2-21.9 19.8c-1.3 1.2-2.3 1.6-3.7.2-.8-.8-1.8-1.4-2.8-2.1a362.4 362.4 0 0 0-189.9-75.1 363 363 0 0 0-257.1 74.1l-7.2 5.5-19.2-17.3c-4.7-4.3-4.4-3.2-.2-7.2l23.5-21.9-3.5-3.9-62.3-67c-9.5-10.2-19.1-20.4-28.6-30.8-1.9-2.1-3.1-2.2-5.1-.2-4.4 4.4-9 8.5-13.5 12.7l-19.5 18.2 3.8 4.2 26.9 28.9c1.1 1.2 2.5 2.1.5 4L232.2 243l-3.5-3.9-26.6-28.5c-2.8-3-2.8-3-5.7-.4l-30 27.9-2.7 2.7 62.9 67.6-13.2 7.7a9.1 9.1 0 0 0-4.6 6.2c-1.9 8.3-4 16.5-6 24.7l-5.4 21.9-79.1-79.2-2 4.1c-5.5 13.5-10.9 27.1-16.6 40.6-1.3 3-.9 4.7 1.5 6.7 11.6 9.8 23 19.8 34.4 29.7l5 4.5-14.7.9c-13.5.7-27 1.4-40.4 1.8-3 .1-4.5 1.3-4.7 3.8-.1 1.3.8 3 1.8 4.1l34.3 37 2.7 3.5-9.7-.6-42.9-2.7c-2.6-.2-3.9.7-4.8 3l-6.9 17.1-11.3 28h4.4l122-1 30.5-.2c1.7 0 3.3 0 4.1-2 .7-1.8.4-3.1-.8-4.5-.8-.8-1.4-1.9-2.1-2.8l-31-41a69 69 0 0 1-2.2-3.4l5.4-1 52.3-7.8c1.8-.3 3.4-.3 4.3-2.5 1-2.5-.9-3.3-2.1-4.5l-10.6-10.6.8-1.1c1.7.8 3.4 1.6 5 2.6 12.5 7.4 23.1 17.6 37 22.7l-.9 1.7a360.3 360.3 0 0 0-40.8 148.4 361.4 361.4 0 0 0 60.2 222.5c1.5 2.3 2 3.6-.5 5.7-8.7 7.3-17 14.9-25.5 22.4-.9.8-1.9 1.4-3.1 2.2l-4.8-32.1c-.4-3.1-1.3-5.7-4.3-7.5l-112.6 96.4 32.7 38.2 16.6-14.2 21.7-18.5c3.7-3.2 3.8-3.2 4.7 1.9.8 4.4 1.4 8.9 2.1 13.3l10.7 68.6c1.2 7.7 2.3 15.5 3.7 23.2.7 4 2.2 4.4 5.1 1.8l22.4-19.2 85.8-73.5c4.2-3.6 3.7-2.8.6-6.4l-27-31.5c-2.8-3.3-2.9-3.3-6-.6l-35.7 30.5-4.8 3.9c-.8-5.5-1.5-10.5-2.4-15.4-.5-2.8.2-4.5 2.6-6.2 16.4-11.9 32.7-24 49.1-36.1 3.3-2.5 3.3-2.4 6.2.6a362.8 362.8 0 0 0 231.9 114.7c34.5 3.6 68.9 1.9 103-4.5A362.8 362.8 0 0 0 852 834.2c3-3.2 2.3-3.1 5.9-.5 6.6 4.8 13.1 9.7 19.7 14.4 2 1.4 2.2 2.5 1.6 4.9a95 95 0 0 0-3.4 17.5c-2 30.4 26.6 51.7 48 50.6a50.5 50.5 0 0 0 30.7-12.9c3.6-3.1 6.8-6.9 10.3-10.2 2.8-2.6 5.6-5.4 8.9-7.1 6.8-3.6 13.9 1.2 13.4 8.9a21.9 21.9 0 0 1-25 18.8c-6.3-.7-4.8-1.1-6.8 4.4-3.3 9.2-6.2 18.6-9.5 27.8-1 2.7-.6 3.6 2.3 4.4a49.1 49.1 0 0 0 40.7-6.2 80 80 0 0 0 31.8-38.1c10.3-25.2 3.6-50.3-17.1-65.6a39.8 39.8 0 0 0-48.3-1.8c-5.3 3.3-5.3 3.3-10.1-.9l-.7-.7c-1.9-1.3-2.3-2.7-1.4-5 2.8-7.8 5.2-15.8 7.7-23.7 1.7-5.4 1.2-4.3-3-5.8a38.7 38.7 0 0 0-34.1 3c-2.3 1.4-3.7 1.2-5.5-.5-4.8-4.4-9.7-8.6-14.6-12.9-2.1-1.9-5.6-3.7-5.8-5.8-.2-2.4 2.4-5.1 4-7.6a363 363 0 0 0 55.6-247.4A360 360 0 0 0 910 416.9l-1.7-3.5c2.5-1.3 4.8-2.2 6.9-3.6l17.8-11.9c7.6-5.1 15.2-10 22.9-15zm.1 604.9L891.8 962c-5.2-2.1-5.1-2.1-4.2-7.4 1.2-7.2 2-14.5.6-21.8a41.7 41.7 0 0 0-49-34 81.5 81.5 0 0 0-31.6 14.2l-62.1 43.6c-.7.5-1.6.8-2 1.5-.4.6-.6 1.7-.4 2.4.3.9 1.1 1.7 1.6 2.5l78.9 112.3 2.8 3.7 39.1-27.3c1.6-1.1 1.8-2.1.6-3.6a3370.9 3370.9 0 0 1-22.1-31.6c4.8-3.4 9.5-6.6 14-10 2.1-1.6 3.9-1.7 6.4-.7 12.7 5.2 25.6 10.1 38.3 15.4 2.9 1.2 4.8.9 7.2-.8 14.2-10.2 28.5-20.2 42.8-30.2.9-.5 1.7-1.2 3.3-2.4zm-229.1-31.5h-1.3l-103.8 30.2c-3.8 1.1-3.8 1.1-2.7 4.9l23.5 80.8 15.4 52.6c1 3.6 1.1 3.6 4.7 2.5l11.5-3.3 89.9-26.1c3.7-1.1 3.8-1.2 2.8-4.6l-7.3-24.9c-1.2-3.9-1.2-3.9-5-2.9l-17.2 5c-12.3 3.6-24.6 7-36.8 10.7-2.3.7-3.1.5-3.8-2-1.4-5.6-3.2-11.1-4.9-16.9l5-1.5 51.2-14.9c2.3-.7 3.4-1.3 2.3-4.1-1.2-2.9-1.7-6.1-2.6-9.1l-6.8-23-19 5.4c-12.3 3.6-24.6 7.1-36.8 10.8-2.5.7-3.8 1-4.5-2.1-1.3-5.5-3.1-10.8-4.8-16.6l25.5-7.4 32-9.3c1.4-.4 3.5-.4 2.7-3.1-3.2-10.2-6.2-20.7-9.2-31.1zM608.8 119.7c-.3-5-.7-10-.8-15-.1-2.4-.6-3.5-3.5-3.3-11.4.9-22.9 1.6-34.4 2.4-6.5.4-13 .7-19.4 1.2-2.1.2-3-.4-3-2.6-.1-4.7-.4-9.3-.9-14-.3-2.6.5-3.4 3.2-3.5l35.4-2.1c6.5-.4 13-1 19.4-1.3 2.3-.1 3.1-.8 2.9-3.3-.8-9.1-1.3-18.3-1.7-27.4-.1-2.8-.9-3.6-3.8-3.4l-98.7 6.5c-7.7.5-7.6.5-7.1 8.4l4.8 75.3 3.6 54.3c.3 4.4.4 4.3 4.9 4.2l2.5-.1 78.8-5c7-.4 13.9-1.1 20.9-1.5 2-.1 2.8-.7 2.6-3-.7-8.6-1-17.3-1.6-25.9-.2-3.7-.3-3.8-4.1-3.6-9.5.5-18.9 1.2-28.4 1.8l-24.9 1.4c-4.2.2-4.1.1-4.4-4.2l-.7-9.5c-.3-6.6-1.3-5.9 5.4-6.3l50.9-3.1c2.5-.1 3.5-.7 3.2-3.5-.6-4.6-.8-9.2-1.1-13.9zm-204.7 56.7 2.7-1.3 48.4-19.8c4.4-1.8 4.4-1.8 2.5-6.3l-6.3-15.2-4.5-11.1c-.6-1.5-1.4-2.2-3-1.3-.7.4-1.5.6-2.3.9l-47.4 19.5c-3.6 1.5-3.6 1.5-5.2-2.3l-4.5-11.1c-1.5-3.6-1.4-3.6 2.3-5.2l.9-.3 48.4-19.8c3.6-1.5 3.6-1.6 2.1-5.3-3.3-8.2-6.8-16.2-9.9-24.5-1.1-2.9-2.1-3.2-4.9-2l-94.9 38.8c-3.3 1.3-3.3 1.4-1.9 5l50.8 124.5c1.5 3.7 1.5 3.7 5.3 2.1l47.9-19.7c15.5-6.4 31-12.7 46.6-18.9 2.9-1.1 3.3-2.2 2.1-5-3.5-7.9-6.7-15.9-9.8-24-.9-2.3-1.8-2.6-4-1.7-5.6 2.5-11.3 4.7-17 7-11.2 4.6-22.5 9-33.6 13.8-2.8 1.2-3.8.4-4.7-2l-6.1-14.8zM239 1006.7l45.9 26.1c1.7 1 2.7.3 4-.6 3.7-2.6 7.4-5.1 11-7.8 2-1.5 3.5-1.7 5.8-.4 13.7 7.9 27.4 15.7 41.2 23.4 1.9 1 2.5 2.2 2.3 4.4-.5 4.5-.6 9-1.2 13.4-.3 2.5.6 3.8 2.8 5l40.8 23 3.8 1.9v-3.4l-2.7-159.4c0-2.3 0-4.7-.3-7a6 6 0 0 0-1.9-3.1c-1.9-1.9-3.6-.5-5.3.5l-61.8 35.5c-27.9 16-55.9 32-84.4 48.5zm272 44.4-1.3 69c-.1 5.5 0 4.8 4.9 4.8l36.5.5c22.5.4 45 1 67.4 1.5 4.5.1 4.5.1 4.6-4.5l.4-25.5c.1-3.7 0-3.7-3.7-3.8l-55.5-1c-3.8-.1-3.8-.1-3.7-3.9.7-35.1 1.3-70.3 2.1-105.4.1-2.7-.4-3.8-3.4-3.8-14.3-.1-28.6-.5-43-.8-4-.1-4 0-4.1 4l-1.2 68.9zm178.2-879.3.2-1.7 24.4-99.7c1.2-5 1.2-5-3.6-6.1-13.1-3.2-26.2-6.2-39.2-9.6-2.8-.7-3.6-.3-4.3 2.6-3.3 14.1-6.9 28.1-10.3 42.1-7.2 29.7-14.4 59.4-21.8 89.1-.9 3.4.3 4 2.9 4.5l11.6 2.8c29.4 7.1 58.8 14.2 88.1 21.5 2.9.7 3.6.1 4.2-2.6a578 578 0 0 1 6.2-25.2c.8-3.1-.6-3.7-2.9-4.3l-21.8-5.2-33.7-8.2zm-225.7 939.1c3.5.9 2.8-2.2 3.2-3.7l33.9-134.9c.7-2.7-.1-3.5-2.4-4.1-14-3.4-28.1-6.7-42.1-10.5-3.3-.9-3.9.1-4.5 2.8-3.9 16-8 31.9-12 47.9l-22 87.5c-.7 2.6-.2 3.6 2.3 4.1 3.6.7 7.1 1.7 10.7 2.6l32.9 8.3zm291.4-882.3c13.8 7.3 27.5 14.4 41.1 21.7 2.5 1.3 2.8-.4 3.5-1.8l17-32.2 46-87.3c2.3-4.3 2.1-3.4-1.6-5.4l-18.9-10-20.7-11c-22.2 42.4-44.2 84.1-66.4 126zm331.5 442c0-21-17-38.1-38-38.3a38.3 38.3 0 0 0-.4 76.7 38.3 38.3 0 0 0 38.4-38.4zM77.6 647a38.3 38.3 0 1 0 76.6-.4 38.3 38.3 0 0 0-76.6.4z"/><path class="st0" d="M955.9 382.9c-7.6 5-15.3 9.9-22.9 15l-17.8 11.9c-2 1.3-4.3 2.3-6.9 3.6l1.7 3.5a357.6 357.6 0 0 1 37.3 119.3 363 363 0 0 1-55.6 247.4c-1.6 2.5-4.2 5.2-4 7.6.2 2.1 3.7 3.9 5.8 5.8 4.9 4.3 9.8 8.5 14.6 12.9 1.9 1.7 3.2 1.9 5.5.5a38.7 38.7 0 0 1 34.1-3c4.2 1.5 4.7.4 3 5.8-2.5 7.9-5 15.9-7.7 23.7-.8 2.3-.5 3.7 1.4 5l.7.7c4.8 4.3 4.8 4.3 10.1.9a39.8 39.8 0 0 1 48.3 1.8c20.8 15.3 27.4 40.4 17.1 65.6a80 80 0 0 1-31.8 38.1 49.1 49.1 0 0 1-40.7 6.2c-2.9-.8-3.2-1.7-2.3-4.4 3.3-9.2 6.2-18.6 9.5-27.8 2-5.5.4-5.1 6.8-4.4a21.9 21.9 0 0 0 25-18.8c.5-7.7-6.6-12.5-13.4-8.9-3.3 1.8-6.1 4.6-8.9 7.1-3.5 3.3-6.7 7-10.3 10.2a50 50 0 0 1-30.7 12.9c-21.5 1.1-50.1-20.2-48-50.6a95 95 0 0 1 3.4-17.5c.6-2.4.4-3.5-1.6-4.9-6.7-4.7-13.1-9.7-19.7-14.4-3.6-2.6-2.9-2.7-5.9.5a362.8 362.8 0 0 1-200.3 110.2 355.9 355.9 0 0 1-103 4.5 363 363 0 0 1-231.9-114.7c-2.9-3-2.9-3.1-6.2-.6-16.4 12-32.7 24.2-49.1 36.1-2.4 1.7-3.1 3.5-2.6 6.2.9 4.9 1.5 9.9 2.4 15.4l4.8-3.9 35.7-30.5c3.1-2.7 3.2-2.7 6 .6l27 31.5c3.1 3.6 3.6 2.8-.6 6.4l-85.8 73.5-22.4 19.2c-3 2.5-4.4 2.2-5.1-1.8-1.4-7.7-2.5-15.4-3.7-23.2l-10.7-68.6c-.7-4.4-1.3-8.9-2.1-13.3-.9-5.1-.9-5.1-4.7-1.9L178 897.8 161.4 912l-32.7-38.2 112.6-96.4c2.9 1.7 3.8 4.4 4.3 7.5l4.8 32.1 3.1-2.2c8.5-7.5 16.9-15.1 25.5-22.4 2.5-2.1 2-3.4.5-5.7a363.3 363.3 0 0 1-60.2-222.5 359.9 359.9 0 0 1 40.8-148.4l.9-1.7c-13.9-5.1-24.6-15.4-37-22.7l-5-2.6-.8 1.1 10.6 10.6c1.2 1.2 3 2 2.1 4.5-.9 2.2-2.5 2.3-4.3 2.5l-52.3 7.8-5.4 1 2.2 3.4 31 41c.7.9 1.3 1.9 2.1 2.8 1.3 1.4 1.6 2.7.8 4.5-.8 2-2.4 2-4.1 2l-30.5.2-122 1H44l11.3-28c2.3-5.7 4.7-11.3 6.9-17.1.9-2.4 2.1-3.2 4.8-3l42.9 2.7 9.7.6-2.7-3.5-34.3-37c-1-1.1-1.9-2.8-1.8-4.1.2-2.5 1.7-3.7 4.7-3.8 13.5-.4 27-1.2 40.4-1.8l14.7-.9-5-4.5-34.4-29.7c-2.4-2-2.8-3.7-1.5-6.7 5.7-13.4 11.1-27 16.6-40.6l2-4.1 79.1 79.2 5.4-21.9 6-24.7a9.1 9.1 0 0 1 4.6-6.2c4.2-2.3 8.3-4.8 13.2-7.7l-62.9-67.6 2.7-2.7 30-27.9c2.8-2.6 2.9-2.6 5.7.4l26.6 28.5 3.5 3.9c8.6-8 16.8-15.8 25.2-23.4 2-1.8.7-2.7-.5-4L230 186.7l-3.8-4.2 19.5-18.2c4.5-4.2 9.1-8.3 13.5-12.7 2-2 3.2-1.9 5.1.2 9.4 10.3 19 20.5 28.6 30.8a19742 19742 0 0 1 62.3 67l3.5 3.9-23.5 21.9c-4.3 4-4.5 2.9.2 7.2l19.2 17.3 7.2-5.5a363 363 0 0 1 257.1-74.1 362.4 362.4 0 0 1 189.9 75.1c.9.7 1.9 1.3 2.8 2.1 1.4 1.4 2.4.9 3.7-.2l21.9-19.8-16.2-16.2 100.4-102.8c3.1 1.6 4.2 4.1 4.9 7.2a17928 17928 0 0 0 24 99.4l.8 1.5 38.6-39.5 17 16.5 14.7 14.3c3.3 3.2 3.3 3.2.1 6.4l-58.7 60c-2.5 2.6-3.2 4.9-2.3 8.3 2.7 10.3 5.2 20.6 7.7 31l1 3.3 2.5-1.9a82.1 82.1 0 0 1 60.3-20.7 72 72 0 0 1 56.2 31.9 83.7 83.7 0 0 1 16.1 55.4 60 60 0 0 1-19.6 40.9c-2.1 2-3.3 1.7-5.1-.3-8.8-9.3-17.7-18.6-26.7-27.7-1.9-2-1.9-3.2-.3-5.4a27 27 0 0 0 4.9-25.8 28.5 28.5 0 0 0-36.1-19.8c-10.5 2.7-18.5 8.4-22 19a30.3 30.3 0 0 0 25.4 38.4c3.4.3 4.8 1.6 6 4.5 4.1 10.5 8.4 21 12.8 31.4 1.1 2.6.7 3.7-1.9 4.7-17.3 6.9-34.4 14.1-51.7 21.1-3.7 1.5-4.9.6-4.4-3.4 1-7.8 2-15.5 3.4-23.2.7-4-.1-6.5-3.7-9a82.9 82.9 0 0 1-34.4-50.8 62.3 62.3 0 0 1 3.8-38.1l2-4.6.3-1.2-1.1.6zm-8.8 490.3 6.6-8c3-3.8 3-3.9-.5-6.9L839.2 758l-54.7-48.2c-2.9-2.6-2.5-3.3-5.8 0l-18.6 18.1c-.9.9-1.5 2.1-2.3 3.1l-12 10.4c1.4 1.2 2.2 2 3.1 2.6l61.5 45 102 74.9 21.4 15.5c.9.6 2.6 1.2 3.3.8 3.5-2.1 6.7-4.6 10-7zM410.2 733.1l-21.8-20.5c-4.5-4.2-4.5-4.2-9.2 0L230.8 843.2c-6.1 5.4-12.3 10.7-18.3 16.2-.7.7-1.5 2.6-1.1 3 4.1 5.1 6.9 11.6 13.7 14 1 .9 1.8 1.9 2.9 2.6 4 2.8 4 2.7 8.1-.3l44.9-33 97.5-71.6c13.2-9.7 26.4-19.5 39.7-29.1 2.1-1.5 2.2-2.5.4-4.1-2.9-2.5-5.6-5.2-8.4-7.8zm534.9-405c-1.1-.9-2.1-2-3.4-2.7l-84.8-49.3c-2.9-1.7-4.5-1.3-6.8.8l-26.3 23.8c-3 2.7-7.3 4.9-8.4 8.2-1.1 3.5.6 8.1 1.5 12.1.8 3.7.1 6.3-3 9-26.9 23.4-53.5 47-80.3 70.5-3.3 2.9-3.3 3-.1 6.2l26.4 25.9 20.8 20.1c4.6 4.6 9.1 9.2 13.8 13.6.5.5 1.8.5 2.5.2 1.1-.4 1.9-1.3 2.9-2l83.8-61.6c1.3-.9 2.9-1.4 4.4-2.1l15.1 8.2c1.4-.6 3-1 4.3-1.9 4.6-2.9 9.1-6 13.7-9.1 10.9-7.3 21.7-14.7 32.7-21.8 2.6-1.7 3.1-3.1 2.3-6-2.4-8.7-4.4-17.5-6.6-26.3-1.4-5.3-3-10.5-4.5-15.8zm-723.3 0c-.5 1.2-1.2 2.3-1.5 3.5l-9.2 37.8c-1.1 4.6-1.1 4.6 3 7.4l28.1 18.8c5.1 3.4 10.3 6.5 15.5 9.7l1.5 1.3c2.6 2.5 5.1 2.6 8.3.5 4-2.7 8.4-4.7 12.6-7l71.5 52.8c6.1 4.5 12.2 9.1 18.5 13.5 1.2.8 2.5 2.8 4.3 1 4.7-4.6 9.2-9.4 13.8-14.1.9-.7 2-1.2 2.8-2l44.5-43.8c2.7-2.7 2.7-2.8 0-5.2L434 401l-82.5-72.6c-1.6-1.4-2.6-2.6-1.8-5.1 1-3.3 1.2-6.9 2.1-10.2.8-2.9.2-4.9-2.2-6.9-10.9-9.6-21.6-19.3-32.4-29-3.5-3.1-3.5-3.1-7.5-.8l-84 48.8c-1.4.8-2.6 1.9-3.9 2.9zm358.8 553.3V277.7c-1.5 1.3-2.5 2-3.4 2.9l-46.7 45.9-71.9 70.9L354 500.6a10 10 0 0 0-3.2 7.9v151c0 3.7 1.2 6.2 3.8 8.6 9.2 8.4 18.3 17 27.4 25.6l60.2 57 31.6 29.8 59.1 56 44.9 42.7 2.8 2.2zm8.6.3 3.6-3.3L813.5 663a8.4 8.4 0 0 0 2.9-6.5v-152c0-2.8-.9-4.6-2.8-6.5L592.9 280.5l-3.6-3.2-.1 604.4zM302.4 264.3c-3.5-3.7-6.7-6.8-9.5-10.3-1.9-2.3-3.2-2.6-5.4-.3-6.3 6.2-12.8 12-19.3 18-5 4.6-4.9 4.6 0 9.6 1.4 1.5 2.5 1.6 4.2.6l30-17.6zm598.1 20.9-7-28.4-15.2 15.5 22.2 12.9z"/><path class="st0" d="M956 987.8a48.2 48.2 0 0 1-3.3 2.5l-42.8 30.2c-2.4 1.7-4.3 2-7.2.8-12.7-5.3-25.6-10.2-38.3-15.4-2.5-1-4.2-1-6.4.7-4.5 3.4-9.2 6.6-14 10l19.5 27.9c.9 1.2 1.6 2.5 2.6 3.7 1.3 1.5 1.1 2.4-.6 3.6l-39.1 27.3-2.8-3.7-78.9-112.3c-.6-.8-1.4-1.6-1.6-2.5-.2-.7 0-1.7.4-2.4s1.3-1 2-1.5l62.1-43.6c9.6-6.7 19.9-12 31.6-14.2a41.8 41.8 0 0 1 49 34c1.3 7.4.6 14.6-.6 21.8-.9 5.3-1 5.3 4.2 7.4l64.2 25.7zm-128.6-41.7c-.6.1-2.3.3-3.9.7-7.3 1.9-12.7 7-18.7 11.2-.5.3-.6 1.9-.2 2.4 5.8 8.5 11.8 16.9 17.7 25.4.8 1.2 1.6 1.4 2.8.4 4.6-3.4 9.4-6.4 13.8-9.9 5.5-4.4 7.3-12 4.9-18.6a18 18 0 0 0-16.4-11.6zM726.9 956.3c3 10.4 6 20.9 9.2 31.4.8 2.7-1.3 2.7-2.7 3.1l-32 9.3-25.5 7.4c1.7 5.7 3.5 11.1 4.8 16.6.7 3.2 2 2.9 4.5 2.1 12.2-3.7 24.5-7.2 36.8-10.8l19-5.4 6.8 23c.9 3 1.4 6.2 2.6 9.1 1.1 2.7.1 3.4-2.3 4.1l-51.2 14.9-5 1.5c1.7 5.8 3.5 11.3 4.9 16.9.6 2.5 1.5 2.6 3.8 2 12.2-3.7 24.5-7.2 36.8-10.7l17.2-5c3.7-1.1 3.8-1.1 5 2.9l7.3 24.9c1 3.5 1 3.6-2.8 4.6l-89.9 26.1-11.5 3.3c-3.6 1-3.7 1-4.7-2.5l-15.4-52.6-23.5-80.8c-1.1-3.8-1.1-3.8 2.7-4.9l103.8-30.2c.3-.4.6-.3 1.3-.3zM608.8 119.7c.3 4.7.5 9.3 1 13.9.3 2.7-.7 3.3-3.2 3.5-17 .9-33.9 2-50.9 3.1-6.6.4-5.7-.3-5.4 6.3l.7 9.5c.2 4.4.2 4.4 4.4 4.2l24.9-1.4 28.4-1.8c3.8-.2 3.9-.1 4.1 3.6.5 8.6.9 17.3 1.6 25.9.2 2.3-.6 2.8-2.6 3-7 .4-13.9 1-20.9 1.5l-78.8 5-2.5.1c-4.5.2-4.6.2-4.9-4.2l-3.6-54.3-4.8-75.3c-.5-7.9-.6-7.9 7.1-8.4 32.9-2.1 65.8-4.2 98.7-6.5 2.9-.2 3.7.7 3.8 3.4.4 9.1 1 18.3 1.7 27.4.2 2.5-.7 3.2-2.9 3.3l-19.4 1.3-35.4 2.1c-2.6.1-3.4.8-3.2 3.5.5 4.6.7 9.3.9 14 .1 2.2.9 2.8 3 2.6l19.4-1.2c11.5-.8 22.9-1.4 34.4-2.4 2.9-.2 3.4.9 3.5 3.3l.9 15zM404.1 176.4c2.1 5.2 4.2 10.1 6 15 .9 2.5 1.9 3.2 4.7 2 11.1-4.8 22.4-9.2 33.6-13.8 5.7-2.3 11.4-4.5 17-7 2.2-1 3.2-.6 4 1.7a549 549 0 0 0 9.8 24c1.2 2.8.8 3.9-2.1 5-15.6 6.2-31.1 12.6-46.6 18.9l-47.9 19.7c-3.7 1.5-3.8 1.5-5.3-2.1l-50.8-124.5c-1.5-3.6-1.4-3.6 1.9-5l94.9-38.8c2.8-1.2 3.8-.9 4.9 2 3.1 8.2 6.6 16.3 9.9 24.5 1.5 3.7 1.5 3.8-2.1 5.3l-48.4 19.8-.9.3c-3.7 1.6-3.7 1.6-2.3 5.2l4.5 11.1c1.6 3.8 1.6 3.8 5.2 2.3l47.4-19.5 2.3-.9c1.6-.9 2.4-.2 3 1.3l4.5 11.1 6.3 15.2c1.8 4.5 1.8 4.5-2.5 6.3l-48.4 19.8c-.7.1-1.4.5-2.6 1.1zM239 1006.7l84.4-48.6 61.8-35.5c1.8-1 3.5-2.3 5.3-.5.8.8 1.7 2 1.9 3.1.3 2.3.3 4.6.3 7l2.7 159.4v3.4l-3.8-1.9-40.8-23c-2.2-1.2-3.1-2.5-2.8-5 .5-4.5.7-9 1.2-13.4.2-2.1-.4-3.3-2.3-4.4-13.8-7.7-27.5-15.5-41.2-23.4-2.3-1.3-3.8-1.1-5.8.4-3.6 2.7-7.3 5.2-11 7.8-1.3.9-2.3 1.6-4 .6a12809 12809 0 0 0-45.9-26zm91.1-4.4 22.5 12.6 2.4-30.5a2246 2246 0 0 0-24.9 17.9zM511 1051.1l1.2-69c.1-4 .1-4.1 4.1-4 14.3.3 28.6.7 43 .8 3 0 3.5 1.1 3.4 3.8-.8 35.1-1.4 70.3-2.1 105.4-.1 3.8-.1 3.8 3.7 3.9l55.5 1c3.8.1 3.8.1 3.7 3.8l-.4 25.5c-.1 4.6-.1 4.6-4.6 4.5l-67.4-1.5-36.5-.5c-4.8-.1-5 .6-4.9-4.8l1.3-68.9zM689.2 171.8l33.8 8.3 21.8 5.2c2.3.5 3.8 1.2 2.9 4.3-2.3 8.3-4.3 16.7-6.2 25.2-.6 2.6-1.4 3.3-4.2 2.6-29.3-7.3-58.7-14.4-88.1-21.5l-11.6-2.8c-2.6-.6-3.7-1.1-2.9-4.5 7.4-29.7 14.6-59.4 21.8-89.1 3.4-14 7-28.1 10.3-42.1.7-2.9 1.5-3.3 4.3-2.6 13 3.3 26.1 6.4 39.2 9.6 4.8 1.2 4.8 1.2 3.6 6.1l-24.4 99.7c-.2.3-.2.8-.3 1.6zM463.5 1110.9l-32.9-8.2c-3.5-.9-7.1-1.9-10.7-2.6-2.6-.5-3-1.5-2.3-4.1l22-87.5c4-16 8.1-31.9 12-47.9.7-2.7 1.2-3.7 4.5-2.8 14 3.8 28 7.1 42.1 10.5 2.3.6 3.1 1.3 2.4 4.1l-33.9 134.9c-.4 1.4.3 4.5-3.2 3.6zM754.9 228.6l66.4-125.8 20.7 11 18.9 10c3.7 2 3.9 1.1 1.6 5.4l-46 87.3-17 32.2c-.7 1.4-1 3.1-3.5 1.8-13.6-7.5-27.3-14.6-41.1-21.9zM1086.4 670.6A38.3 38.3 0 0 1 1048 709a38.3 38.3 0 0 1 .4-76.7c21 .2 38 17.2 38 38.3zM77.6 647a38.3 38.3 0 1 1 76.6-.4 38.3 38.3 0 0 1-76.6.4z"/><path class="st2" d="m580.6 881.4-2.8-2.2-44.9-42.7-59.1-56-31.6-29.8-60.2-57c-9.1-8.6-18.2-17.2-27.4-25.6a10.7 10.7 0 0 1-3.8-8.6v-151c0-3.2.8-5.6 3.2-7.9l104.6-103.2 71.9-70.9 46.7-45.9c.9-.9 1.9-1.6 3.4-2.9v603.7zm-89.1-291.1c4.1-.5 11.2-1 18.2-2.4a34.1 34.1 0 0 0 17.4-8.1c5.8-5.6 6.3-11.4 1.5-17.7a39.8 39.8 0 0 0-17.6-12.7 111.5 111.5 0 0 0-60.9-8 45 45 0 0 0-20 7.1c-8.5 5.9-9.7 14-2.6 21.5 3.3 3.4 7.3 6.4 11.5 8.6a115 115 0 0 0 52.5 11.7zm-20.6 63.2c0 6.7 3.7 12.4 9.2 14.6 4.5 1.9 8.5-.4 8.9-5.3.5-6.3-2.1-11.3-7.2-14.8-2.4-1.6-5-2.6-7.9-.9-2.7 1.7-3.1 4.2-3 6.4zM516.7 506c6.3-.2 13.8-7.6 14-14 .1-3.5-3-6.7-6.6-6.7-6.4-.1-14.3 7.9-14.1 14.4.2 3.9 2.9 6.4 6.7 6.3zm21 151.9c-2.4-.2-5.1.9-6.8 4.1-1.6 3.1.1 5.6 1.8 7.7 3.3 4.1 8 6 13.2 6 2.7 0 5.4-1 6.6-3.7 1.3-2.8.7-5.6-1.3-7.9-3.1-3.9-7.3-6-13.5-6.2zm-.6 45.9c-.2-.6-.5-1.9-1.1-3-2.4-4.9-8.9-8.2-15-7.8-2.6.2-4.8 1-6.1 3.5-1.5 2.7-.7 5.2.9 7.4 3.3 4.7 8.2 6.7 13.7 6.9 4.2.2 7.5-2.9 7.6-7zm-92.9-37.9c-4.5.1-6.7 2.4-7.1 6.4a16.3 16.3 0 0 0 9.5 15.1c4.1 1.6 7.2.2 8.6-4 1.8-5.3-1.9-13.6-7.5-16.4-1.3-.6-2.8-.9-3.5-1.1zm62.4 62.1c-6.5-.2-10 3.3-8.4 8.5 2 6.4 12.5 11.2 18.6 8.5 3.2-1.4 4.5-4.3 3.4-7.7-1.6-5.1-7.5-9.1-13.6-9.3zM483 472.2c0 4 2.3 6.4 6 6.5 7 .3 14.9-8.3 14.2-15.2-.3-3.3-2.7-5.3-6-5.4-6.9-.2-14.3 7.2-14.2 14.1zm75 47c-.1-3.8-2.4-6-6.2-6.4-6.3-.7-14.1 7-14.6 13.9a6 6 0 0 0 5.2 6.3c8.4 1.2 15.7-8.5 15.6-13.8zm-54 116.1a16 16 0 0 0 8.1 12.8c2.4 1.5 5.2 1.8 7.6.3 2.4-1.6 3-4.4 2.8-7.1-.5-5.2-3-9.5-7.3-12.5-2.4-1.7-5-2.6-7.9-.9-2.6 1.5-3.2 4-3.3 7.4z"/><path class="st1" d="M589.2 881.7V277.4l3.6 3.2 220.7 217.5a8.3 8.3 0 0 1 2.8 6.5v152c0 2.8-1 4.6-2.9 6.5L592.7 878.5l-3.5 3.2zm113.3-341.6c-14 .4-30 2.8-44.7 10.1a58.4 58.4 0 0 0-14.2 9.9c-7.7 7.5-6.4 16.3 2.8 22 3.5 2.1 7.4 3.8 11.4 4.9 15.9 4.5 31.9 3.7 48 .5 10.7-2.1 21-5.4 30-11.6a40 40 0 0 0 9.5-9.3 11 11 0 0 0-2-15.7 42.8 42.8 0 0 0-11.5-6.7 80.9 80.9 0 0 0-29.3-4.1zm-29.9 194.5c0-3.1-2-5.5-5-6.4-5.9-1.6-14.3 2.3-17 7.7-2.1 4.3-.4 8 4.1 9.3 6 1.7 14.8-2.4 17.2-8.1.4-.8.5-1.8.7-2.5zM640 664.9c.1-3.4-2-5.9-5.3-6.7a16.4 16.4 0 0 0-16.6 7.6c-2.3 4.4-.6 8.2 4.3 9.5 6 1.6 14.2-2.4 16.8-8l.8-2.4zm41-4.7c.1 7.6 4.9 10.5 10.4 7.2 5.3-3.1 8-8 7.8-14.1-.1-6-4.7-8.7-9.9-5.9a16 16 0 0 0-8.3 12.8zm-15-24.4c.2-4.2-1-6.7-3.4-8-2.7-1.5-5.2-.7-7.5.8a16 16 0 0 0-7.5 12.8c-.2 2.7.3 5.5 2.9 7 2.7 1.6 5.5 1.1 8-.6 4.6-2.9 6.9-7.3 7.5-12zm66.9 38.4c.2-6.4-3.8-9.7-8.9-8-5.8 1.9-10.8 10.6-9.4 16.5 1.1 4.7 4.6 6.6 9 4.6 6-2.6 8.4-7.7 9.3-13.1zm-72.8-174.8c0-5.9-6-12.6-12.4-13.9-5-1-8.5 2.2-7.9 7.3.7 6.2 7.2 12.6 13.3 13.1 4.1.4 7-2.3 7-6.5zm27.2-27.4c0-6.4-6.9-13.6-13.4-13.9-4.5-.3-7.1 2.5-6.9 7 .3 6.2 7.1 13 13.4 13.4 4.3.4 6.9-2.1 6.9-6.5zm-31.1 227.7c0-3.5-1.8-5.7-5-6.5-5.9-1.5-14.4 2.4-17 7.8-2.1 4.3-.4 7.9 4.3 9.2 6.1 1.7 14.8-2.4 17.1-8.2l.6-2.3zM632.9 527c.2-6.8-7.9-14.6-14.8-14.1a6 6 0 0 0-5.9 6.1c-.2 6.8 8 14.6 14.8 14.2 3.5-.3 5.7-2.7 5.9-6.2zM280.1 400.1c-4.2 2.3-8.6 4.3-12.6 7-3.2 2.1-5.7 2-8.3-.5l-1.5-1.3 9.1-34.6c.7-2.5.4-4.3-1.8-6.1-9.9-8.4-19.6-16.9-29.4-25.4-4.5-3.9-9.2-7.5-13.8-11.2 1.3-1 2.5-2.1 3.9-2.9l84-48.8c3.9-2.3 4-2.3 7.5.8 10.8 9.7 21.5 19.4 32.4 29 2.3 2.1 2.9 4.1 2.2 6.9-.9 3.4-1.1 6.9-2.1 10.2-.7 2.4.2 3.6 1.8 5.1l82.5 72.6 1.5 1.3c2.7 2.4 2.7 2.5 0 5.2L391 451.2c-.8.8-1.9 1.3-2.8 2l-3.3-2.9-79-59.3-19.1-14.4c-2.5 8.3-4.6 15.9-6.7 23.5zM903.3 409l-15.1-8.2c-.7-1.3-1.6-2.4-2.1-3.8-1.5-4.9-2.8-9.9-4.2-14.8-.5-1.7-1.2-3.3-1.9-5.2l-32.9 25.1-66.2 50.5-20.8-20.1-26.4-25.9c-3.3-3.2-3.3-3.2.1-6.2 26.7-23.5 53.4-47.1 80.3-70.5 3.1-2.7 3.8-5.2 3-9-.9-4-2.7-8.6-1.5-12.1 1.1-3.3 5.4-5.6 8.4-8.2l26.3-23.8c2.3-2.1 3.9-2.5 6.8-.8l84.8 49.3c1.2.7 2.3 1.8 3.4 2.7l-6.8 4.9c-13.7 10.8-27.3 21.8-41.1 32.5-2.6 2-3.4 3.8-2.3 7.1 1.7 5.2 2.8 10.6 4 15.9 1.3 6.9 2.7 13.8 4.2 20.6zM225 876.5c-6.8-2.5-9.6-8.9-13.7-14-.4-.4.4-2.3 1.1-3 6-5.5 12.2-10.8 18.3-16.2l148.4-130.6c4.7-4.2 4.7-4.2 9.2 0l21.8 20.5c-.9 1.2-1.6 2.8-2.8 3.7L235.2 868.1c-3.4 2.6-6.8 5.5-10.2 8.4zM757.7 731c.8-1.1 1.4-2.2 2.3-3.1l18.6-18.1c3.3-3.3 2.9-2.6 5.8 0l54.7 48.2 114 100.3c3.5 3.1 3.5 3.1.5 6.9l-6.6 8c-.7-.7-1.2-1.5-2-2.1L768.6 738.6c-3.4-2.6-7.2-5.1-10.9-7.6z"/><path class="st2" d="M757.7 731c3.7 2.5 7.4 5 11 7.7l176.4 132.5c.8.6 1.3 1.4 2 2.1-3.3 2.4-6.5 4.9-10 7.1-.7.4-2.4-.2-3.3-.8l-21.4-15.5-102-74.9-61.5-45-3.1-2.6c4.1-3.8 8-7.2 11.9-10.6zM903.3 409l-4.5-20.4c-1.2-5.3-2.3-10.7-4-15.9-1.1-3.3-.3-5.1 2.3-7.1 13.8-10.7 27.4-21.7 41.1-32.5l6.8-4.9c1.5 5.3 3.1 10.5 4.5 15.9 2.3 8.8 4.2 17.6 6.6 26.3.8 2.9.3 4.3-2.3 6-11 7.1-21.8 14.5-32.7 21.8l-13.7 9.1c-1.1.6-2.7 1-4.1 1.7zM280.1 400.1l6.6-23.5 19.1 14.4 79 59.3c1.2.9 2.2 1.9 3.3 2.9l-13.8 14.1c-1.8 1.7-3.1-.2-4.3-1-6.2-4.4-12.3-9-18.5-13.5l-71.4-52.7zM780.8 452.5 847 402l32.9-25.1 1.9 5.2c1.4 4.9 2.7 9.9 4.2 14.8.4 1.3 1.4 2.5 2.1 3.8-1.5.7-3.1 1.2-4.4 2.1l-83.8 61.6c-.9.7-1.8 1.5-2.9 2-.7.3-2.1.3-2.5-.2l-13.7-13.7zM225 876.5c3.4-2.8 6.7-5.8 10.3-8.5l172.1-131.2c1.2-.9 1.9-2.5 2.8-3.7 2.8 2.6 5.4 5.3 8.3 7.8 1.9 1.7 1.7 2.6-.4 4.1-13.3 9.6-26.5 19.4-39.7 29.1l-97.5 71.6-44.9 33c-4.1 3-4.1 3-8.1.3-1.1-.7-1.9-1.7-2.9-2.5zM221.8 328.1c4.6 3.7 9.3 7.4 13.8 11.2 9.8 8.4 19.5 17 29.4 25.4 2.1 1.8 2.4 3.5 1.8 6.1a3493 3493 0 0 0-9.1 34.6l-15.5-9.7-28.1-18.8c-4.1-2.8-4.1-2.8-3-7.4l9.2-37.8c.3-1.3 1-2.5 1.5-3.6z"/><path class="st1" d="m302.4 264.3-30.1 17.6c-1.7 1-2.7.9-4.2-.6-4.9-5.1-5-5 0-9.6 6.4-6 13-11.9 19.3-18 2.3-2.2 3.5-2 5.4.3 2.9 3.5 6.1 6.6 9.6 10.3zM900.5 285.2l-22.2-12.8 15.2-15.5 7 28.3zM955.9 382.9l1-.5-.3 1.2-.7-.7zM827.4 946.1c7.5.1 13.8 4.9 16.3 11.7 2.4 6.6.7 14.1-4.9 18.6-4.4 3.5-9.2 6.6-13.8 9.9-1.2.9-2 .8-2.8-.4-5.9-8.5-11.9-16.9-17.7-25.4-.4-.5-.2-2.1.2-2.4 5.9-4.2 11.3-9.4 18.7-11.2 1.7-.5 3.3-.7 4-.8zM330.1 1002.3l24.8-17.9-2.4 30.5a1497 1497 0 0 0-22.4-12.6z"/><path class="st0" d="M491.5 590.3c-20.3-.6-37.1-3.4-52.5-11.8a48.7 48.7 0 0 1-11.5-8.6c-7.2-7.5-5.9-15.6 2.6-21.5 6-4.2 13-6.1 20-7.1 21-3.1 41.4-.3 60.9 8 6.7 2.9 13 6.6 17.6 12.7 4.7 6.4 4.3 12.2-1.5 17.7a34.1 34.1 0 0 1-17.4 8.1c-6.9 1.5-14.1 2-18.2 2.5zM470.9 653.5c-.1-2.3.3-4.8 3-6.4 2.9-1.7 5.5-.8 7.9.9 5.2 3.6 7.8 8.5 7.2 14.8-.4 4.9-4.4 7.1-8.9 5.3a15.4 15.4 0 0 1-9.2-14.6zM516.7 506c-3.9.1-6.5-2.4-6.7-6.4-.2-6.4 7.7-14.5 14.1-14.4 3.6.1 6.7 3.3 6.6 6.7-.2 6.5-7.7 13.9-14 14.1zM537.7 657.9c6.2.1 10.4 2.3 13.6 6.2 1.9 2.3 2.6 5.1 1.3 7.9-1.3 2.7-3.9 3.7-6.6 3.7-5.2 0-9.8-1.9-13.2-6-1.8-2.1-3.4-4.6-1.8-7.7 1.6-3.2 4.3-4.3 6.7-4.1zM537.1 703.8a7.1 7.1 0 0 1-7.7 7 16.7 16.7 0 0 1-13.7-6.9c-1.6-2.2-2.4-4.7-.9-7.4 1.3-2.5 3.5-3.3 6.1-3.5 6.1-.4 12.6 2.9 15 7.8.6 1.2 1 2.4 1.2 3zM444.2 665.9c.6.2 2.1.4 3.4 1.1 5.6 2.8 9.3 11.1 7.5 16.4-1.4 4.2-4.5 5.6-8.6 4-5.5-2.2-10-9.3-9.5-15.1.5-4 2.8-6.3 7.2-6.4zM506.6 728c6 .2 12 4.2 13.6 9.2 1.1 3.4-.1 6.3-3.4 7.7-6.1 2.7-16.6-2.1-18.6-8.5-1.5-5.1 1.9-8.6 8.4-8.4zM483 472.2c-.1-6.9 7.3-14.3 14.1-14.1 3.4.1 5.7 2.1 6 5.4.7 7-7.2 15.5-14.2 15.2-3.7-.1-5.9-2.5-5.9-6.5zM558 519.2c.1 5.3-7.2 15-15.6 13.8a6 6 0 0 1-5.2-6.3c.5-6.9 8.3-14.6 14.6-13.9 3.8.5 6.1 2.6 6.2 6.4zM504 635.3c0-3.5.7-5.9 3.3-7.4 2.9-1.6 5.5-.8 7.9.9a17 17 0 0 1 7.3 12.5c.3 2.7-.4 5.5-2.8 7.1-2.4 1.5-5.2 1.2-7.6-.3-5-3-7.6-7.6-8.1-12.8zM702.5 540.1c11.4 0 20.6.8 29.2 4.2a39 39 0 0 1 11.5 6.7 11 11 0 0 1 2 15.7 40 40 0 0 1-9.5 9.3 77 77 0 0 1-30 11.6c-16 3.2-32.1 4-48-.5a47.9 47.9 0 0 1-11.4-4.9c-9.3-5.7-10.5-14.5-2.8-22 4.1-4 9.1-7.4 14.2-9.9 14.8-7.5 30.7-9.8 44.8-10.2zM672.6 734.6c-.2.7-.3 1.7-.7 2.6-2.3 5.7-11.2 9.8-17.2 8.1-4.6-1.3-6.2-5-4.1-9.3 2.6-5.5 11.1-9.4 17-7.7 3 .8 5 3.2 5 6.3zM640 664.9l-.8 2.4c-2.5 5.7-10.8 9.6-16.8 8-4.9-1.3-6.6-5.1-4.3-9.5 2.8-5.4 10.8-9 16.6-7.6 3.3.8 5.4 3.3 5.3 6.7zM681 660.2c.4-5 3-9.8 8.4-12.7 5.2-2.9 9.8-.1 9.9 5.9.1 6.1-2.6 11-7.8 14.1-5.6 3.2-10.4.3-10.5-7.3zM666 635.8c-.6 4.7-2.9 9.1-7.5 12.1-2.5 1.6-5.3 2.2-8 .6-2.6-1.6-3.1-4.3-2.9-7a16 16 0 0 1 7.5-12.8c2.3-1.5 4.8-2.3 7.5-.8 2.4 1.2 3.5 3.7 3.4 7.9zM732.9 674.2c-.9 5.4-3.3 10.5-9.2 13.1-4.4 2-7.9.1-9-4.6-1.4-5.9 3.6-14.7 9.4-16.5 5.1-1.7 9 1.6 8.8 8zM660.1 499.4c0 4.2-2.9 6.8-7.1 6.5-6.1-.5-12.6-6.9-13.3-13.1-.6-5.1 2.9-8.3 7.9-7.3 6.5 1.3 12.5 8 12.5 13.9zM687.3 472c0 4.4-2.6 6.8-6.9 6.5-6.3-.4-13.1-7.2-13.4-13.4-.2-4.6 2.4-7.3 6.9-7 6.5.4 13.3 7.5 13.4 13.9zM656.2 699.7c-.1.5-.2 1.5-.6 2.4-2.3 5.8-11 9.9-17.1 8.2-4.7-1.3-6.3-4.9-4.3-9.2 2.6-5.5 11.1-9.4 17-7.8 3.1.7 5 2.9 5 6.4zM632.9 527c-.1 3.6-2.3 5.9-5.9 6.2-6.8.5-15-7.4-14.8-14.2.1-3.5 2.3-5.9 5.9-6.1 6.8-.6 15 7.2 14.8 14.1z"/></svg>