<svg version="1.1" id="Layer_1" xmlns="http://www.w3.org/2000/svg" x="0" y="0" viewBox="0 0 837.3 715.8" style="enable-background:new 0 0 837.3 715.8" xml:space="preserve"><style>.st0{fill:#a8afb4}.st1{fill:#002856}.st2{fill:#fff}</style><path class="st0" d="m837.3 57.3-31-43.5h-83l-5.6 4c-.9-3.8-2.7-6.6-4.2-8.5C708.4 3 700.2 0 688.4 0H213.6l-1.4 13.7H86.4l-30.8 90.7h10.1l-25.9 76.4h-10L0 268.5h73.1L85 403.3a290.3 290.3 0 0 0 46.4 121.9l5.7 8.3C186 602.6 259.2 648.2 312 674.4A601.2 601.2 0 0 0 415.8 715l2.6.7 2.6-.7c1.8-.5 44.7-11.8 99.9-38.7 50-24.3 119.4-66.4 169-129.6l19.4.3 30-30.3-14.5-25.3c13.8-28 22.8-57.6 27-88.1l14-156 14.6-10.1 30.7-93.3-16.2-22.9h20.8l21.6-63.7zM724.8 512.2l1.7 3-21.5 21.7-559.8-9.2a230 230 0 0 1-5.5-8.1l37.7-.6-.1-1.5v-.6l-1.8.1-5-10.4-.2-.1-.1-.2-39.5-1.1c-1.5-2.6-3.1-5.3-4.5-8l44.1-11.4.1-6.5-48.3 10-2-4 50.6-27 .1-7.1-48.1 17.7 69.6-40.1 1.6-4.2c.1-.3.3-.6.6-.7l36.3-19c.3-.2.7-.2.9 0l2 .6c.8-1.2 1.7-2.3 2.8-3.2 5-4 42-26 43.6-26.9l.2-.1h3.1c4.4-.7 12.5-1.9 18.8-2.5l1.7-1a21.1 21.1 0 0 1 14.5-14.1c2.8-.6 5.3-.1 7.2 1.2l1.5-.3 24.3-13.9a37 37 0 0 1 24.3-19.1 22 22 0 0 1 9.5-.2l44.3-25.3c6.5-14.7 25.3-29.3 45.2-34.1 6.2-1.5 12-1.9 16.9-1.2l3.4-1.9a69.2 69.2 0 0 1 27-13.7c2.4-1.4 30.3-13.6 41.9-17 6.6-1.9 10.7-1.6 10.8-1.6l.4.1c4.5 1.9 11.7 11.1 11.9 15.9l.2 1.7.1.6A83.4 83.4 0 0 1 615 379.7l12.8 23.7 1.6 2 13.2 1.3 2.5-1.2h.6c1.4 0 5.8.1 8.4 2.3h.3v.3l.4.4c4.1 5.1 8.9 12.1 14.1 20l-.8 1-.3.4-1.2 1.4-2.8 3.3 3.3-.1h5.5l7.4 11.7-1.2 1.4-1.2 1.5-3.4 4.1 5.8-.1h4.2l7.3 12.1-1.4 1.8-1.1 1.3-2.6 3.3 4.6-.1h4.3l5.4 9.2-.8 1-2.5 3.3-2.1 2.7h9.4l6.9 12h5.6l.8 1.4c4.2 6.5 6.8 11.1 6.8 11.1z"/><path class="st1" d="M809.4 110.8 826 59.9l-24.9-35h-74.5l-25.9 18.6c1.9-2.5 3.5-5.1 4.8-8 4.6-10.2 2.7-15.8.3-18.8-3.1-3.8-8.8-5.6-17.3-5.6H222.8l-3 29.5-11.1-15.8H93.8L69.9 95.2H80L47.2 192H37.1l-22.9 67.3H82L95 403c4.1 30.4 13 58.1 25.2 83.3l-.2.1 2 4h.2l4.1 7.8h-.1l4.5 8h.2a347 347 0 0 0 8.9 14.4h-.1l5.5 8.1h.1c92.3 130.3 273 177.6 273 177.6s172.5-45.1 266.5-168.7l20.2.3 21.5-21.7-1.7-3-6.8-11.8-.8-1.4h-5.6l-1.2-2.2a275.5 275.5 0 0 0 31.1-94.9L756 244.6l15.6-12.8 28-86.3-24.5-35 8.5.3h25.8z"/><path class="st0" d="M193.7 424.5c.1-.3.3-.6.6-.7l36.3-19c.3-.2.7-.2.9 0l2 .6c.8-1.2 1.7-2.3 2.8-3.2 5-4 42-26 43.6-26.9l.2-.1h3.1c4.4-.7 12.5-1.9 18.8-2.5l1.7-1c1-3.1 2.7-6 4.9-8.4l-8.3-4.4-18.3-13-16.8-9.9-16.8-10.5-22.3 15.2-12.9 21-19.1 13.7-37.5 11.4-17.6 2.4s-4.7 3.9-7.4 8.2c2.9 20.5 7.2 37.6 14.4 55.5l46-23.9 1.7-4.5zM633.7 317.6c2.1 24-6 46.2-20.6 61.9l12.8 23.7-5.4.1.3.6-5.1.1-.3-.6-6.3.1 31.7 3 2.5-1.2h.6c1.4 0 5.8.1 8.4 2.3h.3v.3l.4.4c4.1 5.1 8.9 12.1 14.1 20l-.8 1-.3.4-1.2 1.4-2.8 3.3 3.3-.1h5.5l7.4 11.7-1.2 1.4-1.2 1.5-3.4 4.1 5.8-.1h4.2l3.5 5.8a246.5 246.5 0 0 0 18.2-63.4l5.1-65.6 3.6-46.4-22.2-11.9-33.3-26.1-3.2-.8-12.3 13.5-17.1 11.5-7.2 5.3a85.1 85.1 0 0 1 16.2 42.8z"/><path class="st0" d="m153.4 380.9 40.3-11.4 14.9-10.9 13.9-22.3 26.3-17.1 30.9 18.3 19.9 14.6 24.6-24-27.6-15.3-25.5-3.6-17.6-5.2-16.1-15.5-8.4-6.1-5.3-3.1s-7.4 12-13.4 17c-1.8 1.5-20.8 14.9-38.5 30-8.9 7.6-17.9 14.4-27 23.3-2.5 2.4-5.2 5.7-7.8 8-5.5 4.8-9.7 10.3-9.1 8.6l2.8 21.6 6.3-4.4 16.4-2.5zM129.8 356.3s8.5-9.8 31.2-28.8l22.6-18.6c1.3-1.1 7.1-4.2 8.3-5.3l-16.4-7.3-15-17.3-16.4-16.5-10.2 6-13.3 17 6.1 72.7 3.1-1.9z"/><path class="st0" d="m197 299 13-10.1 11.3-16.3 8.1 2.1 7.8 5 20.5 18.9 9.7 2.1 15-9.9 22.1-29.6-8.2-1.6-6.7-2.9-15.9-9.4-16.5-14.9-5.9 3.1-9.4 9.8-33.5 24.7-41.5 9.9 12.4 12.5zM306.3 355.3l7.9 3.7a18 18 0 0 1 4.2-1.6c2.8-.6 5.3-.1 7.2 1.2l1.5-.3 24.3-13.9a37 37 0 0 1 24.3-19.1 22 22 0 0 1 9.5-.2l44.3-25.3c6.5-14.7 25.3-29.3 45.2-34.1l3.9-.8-17.6-17.1-22.4-11-14 7.9-14 14.2-8.8 15.1-25.5 22.7-45.1 32.8-24.9 25.8z"/><path class="st0" d="m288.5 294-12.9 9.9 24.4 3.4 29.5 17.1 40.3-29.6 27.9-23.9 4.9-8.3s-19.7-2.7-26.3-4.9c-4.7-1.5-28.4-20.8-28.4-20.8L315 257.7l-20.1 28-6.4 8.3z"/><path class="st2" d="m224.6 233.9 9.4-28.2h8l1.7-12.4h-27.1l-6.5 12.4h8.2l-9.4 28.2h-44.5l9.4-28.2h7.5l66.5-124.8h39.7l-16.6 124.8h7.7l-9.4 28.2h-44.6zm7.1-68.8h15.7l5.2-39.3-20.9 39.3zM282.7 233.9l9.4-28.2h8.1l32.1-96.5h-8.1l9.4-28.2h44.5l-9.4 28.2h-8.1l-32.1 96.5h8.1l-9.4 28.2h-44.5zM340.9 233.9l9.4-28.2h8.1l32.1-96.5h-8.1l9.4-28.2h44.5l-9.4 28.2h-8.1l-32.1 96.5h21.5l4.1-12.4h28.4l-13.5 40.6h-86.3zM440.8 233.9l9.4-28.2h8.1l32.1-96.5h-8.1l9.4-28.2H581l-13.5 40.6h-28.2l4.1-12.4h-24.7l-11.4 34.1H546l-9.4 28.3h-38.7l-11.4 34.1h24.7l4.1-12.4h28.2L530 233.9h-89.2zM642.9 233.9h-30.3l-3.3-62.3H601l-11.3 34.1h8.1l-9.4 28.2h-44.5l9.4-28.2h8.1l32.1-96.5h-8.1l9.4-28.2h76l12.6 16-18.7 56.2-25.3 18 2 34.5h11l-9.5 28.2zm-32.5-90.7h29.3l11.3-34.1h-29.3l-11.3 34.1zM757.9 223.7l-29.7 21.4h-60.9l-15.5-21.4 11.2-33h35.2l-5.6 16.6h35.6l15.5-45.6h-48.1l-15.4-21.5 26.6-78.4 30-21.5h60.9l15.2 21.4-11.2 33h-35.2l5.6-16.6h-35.6L721 123.7h48.4l15.2 21.5-26.7 78.5zM155.6 245.1h-37.8l-1.7-83.5h-10.4l-15.5 45.6h10.1L87.5 245H31.9l12.8-37.8h10.1L98.6 78h-10l12.8-37.8h94.8l15.2 21.5-25.6 75.3-32.2 24.1 1.1 46.2h13.7l-12.8 37.8zm-37.1-121.4h36.6L170.6 78H134l-15.5 45.7z"/><path class="st0" d="M134 78h36.6l-4.4-4.8h-36.5l-18.1 54.6 6.9-4.1z"/><g><path class="st0" d="m231.7 165.1 20.9-39.3-6.3-.3-24 44.2zM383.8 104.9l-1.4 4.2h8.1l5.9-4.2zM563.3 117.2h-22.6l-1.4 4.3h28.3l13.5-40.6-7 5.1zM325.7 104.9l-1.4 4.2h8l5.9-4.2zM243.6 193.3l5.9-4.3h-37.2l-9.1 21.3 6.8-4.6 6.6-12.4zM282.5 80.9 264 210.3l6.8-4.6 16.6-124.8zM621.7 109.1h29.4l5.9-4.2h-39.5l-13.9 43 6.8-4.7zM422.6 104.9h-8l-34.7 105.4 6.8-4.6 32.1-96.6h8.1l9.4-28.2-7 5.1zM679.1 92.7l-18.7 56.2-25.3 18 1.9 34.5 4.3 4.3-1.9-34.5 25.3-18L683.4 97l-12.7-16.1h-.9zM593.4 109.1l5.9-4.2h-12.6l-1.4 4.2zM514.4 104.9l-13.9 43 6.8-4.7 11.4-34.1h24.7l5.9-4.2zM537.7 152.2l-5.4 15.1h-38.7l-13.9 43 6.9-4.6 11.3-34.1h38.7l9.4-28.4zM483.8 104.9l-1.4 4.2h8l5.9-4.2zM364.5 104.9h-8.1l-34.7 105.4 6.9-4.6 32.1-96.6h8.1l9.4-28.2-7 5.1zM615.2 167.3h-18.5l-13.9 43 6.8-4.6 11.4-34.1h8.3zM536.7 198.4l-10.8 31.2h-77.3l-7.8 4.3h89.3l13.6-40.6zM584 229.6h-32.4l-7.8 4.3h44.5l9.4-28.2-5.7 5.1zM329.7 210.8l-6.7 18.8h-32.5l-7.8 4.3h44.5l9.4-28.2zM434 198.4l-11.1 31.2h-74.2l-7.8 4.3h86.3l13.5-40.6zM652.3 205.7l-5.7 5.1-7.9 18.8h-19.9l-6.2 4.3h30.3zM732.2 73.2l-18.1 54.6 6.9-4.1L736.5 78h35.6l5.9-4.8zM698.3 190.7l-7.2 5.1-5.3 15.6 6.9-4.1zM695.7 161.6h48.1l5.8-4.8h-49.8z"/><path class="st0" d="m768.4 123.7 11.8 16.7-26.6 78.5-29.7 21.4h-51.1l-5.5 4.8h60.9l29.7-21.4 26.7-78.5-15.2-21.5zM797.7 40.2h-.9l11.8 16.6-11.2 33h-29.3l-1.6 4.8h35.2l11.2-33zM271.5 210.8l-6.7 18.8h-32.4l-7.8 4.3h44.5l9.4-28.2zM204.5 229.6h-32.4l-7.8 4.3h44.5l9.4-28.2h-5.7zM207 56.9l-25.5 75.2-34.3 25.2.6 54.1 6.9-4.1-1.1-46.2 32.2-24.1 25.5-75.3-15.1-21.5h-1zM83.1 240.3H39.9l-8 4.8h55.5l12.8-37.8-7.2 5.1zM98.6 78l5.9-4.8H90.2L88.6 78zM121.9 156.8h-20.6l-18 54.6 6.9-4.1 15.4-45.7h10.5zM161.1 212.4l-9.9 27.9h-25.9l-7.5 4.8h37.8l12.8-37.8z"/></g><g><path class="st2" d="M240.6 68h-12.8l4.9-47.9h11.2l-5 36.9 26.5-36.9h12.4L272.5 57l27.4-36.9h10.7l-37 47.9h-13l5.5-35.7L240.6 68zM337.6 19.2c5 0 8.9.6 11.6 1.9 3.3 1.5 5.3 4 5.8 7.5a29 29 0 0 1-3.4 15.5 45.1 45.1 0 0 1-13.6 18 37.2 37.2 0 0 1-22.8 6.9c-8.6 0-14-2.1-16.2-6.2-2.2-4.2-1.5-10.4 2.3-18.8a47 47 0 0 1 10.1-15c3.6-3.5 7.7-6 12.4-7.6 4.2-1.5 8.8-2.2 13.8-2.2zM312.9 44c-2.3 5.1-3.1 9.1-2.5 11.9.8 3.3 3.6 5 8.5 5 4.7 0 9-1.5 12.6-4.6 3.3-2.8 6.2-6.8 8.6-12.1 1.3-2.9 2.2-5.4 2.5-7.4.5-2.8.2-5-1-6.5-1.4-1.9-4-2.8-7.7-2.8a19 19 0 0 0-12.2 4.4 30.9 30.9 0 0 0-8.8 12.1zM389.1 28.7h-12.9l-5.5 12.2h12.9c3.6 0 6.2-.4 8-1.3a10 10 0 0 0 4.2-4.8c.9-2 1.1-3.3.7-4.1-.8-1.4-3.2-2-7.4-2zM358.4 68h-10.5l21.6-47.9h25.9c6 0 9.9 1.1 11.7 3.3 1.9 2.3 1.7 6-.6 11.2a22.2 22.2 0 0 1-16 13.4l3.3 20.1H382l-2.7-18.7h-12.4L358.4 68zM459.8 20.1l-3.7 8.2h-17.3c-4 0-7.5 1.2-10.5 3.5a37.8 37.8 0 0 0-9.7 13.9 22.2 22.2 0 0 0-2.6 9.4c.1 1.9 1 3.2 2.6 3.9 1.2.5 3.2.8 6 .8H442l-3.7 8.3h-17.8c-7.9 0-12.9-2-15-6.1-2.1-3.9-1.4-9.6 1.9-17a46 46 0 0 1 13.1-17.9c5.9-4.6 13.2-7 21.9-7h17.4zM505.5 20.1l-3.8 8.3h-17.3c-3.8 0-7.1.9-10.1 2.8a19.4 19.4 0 0 0-6.9 8.4h29.2l-3.7 8.3h-29.2c-1.9 4.3-2.3 7.3-1.2 9.1 1.1 1.8 3.7 2.6 7.8 2.6h17.3l-3.7 8.3h-17.8c-7.9 0-12.9-2-15-6.1-2.1-3.9-1.4-9.6 1.9-17a46 46 0 0 1 13.1-17.9c5.9-4.6 13.2-7 21.9-7h17.5zM529.5 20.1h27.7l-3.9 8.6h-26.1c-5.5 0-9.1 2.1-11 6.3-.7 1.5-.7 2.7-.2 3.6.6 1.1 2.2 1.6 4.5 1.6h13.9c6 0 9.7 1.1 11.2 3.4 1.3 2.1 1 5.4-1.1 10.1-2.1 4.7-5 8.3-8.5 10.5-4 2.5-9.1 3.8-15.5 3.8h-28.1l3.9-8.6h26.4c3.2 0 5.7-.6 7.4-1.7 1.4-.9 2.6-2.5 3.6-4.6.6-1.4.7-2.5.3-3.2-.7-1-2.5-1.5-5.6-1.5H516c-5.8 0-9.5-1.1-11.2-3.4-1.7-2.3-1.5-5.8.7-10.5 2.1-4.7 5-8.3 8.6-10.6 3.9-2.5 9.1-3.8 15.4-3.8zM567.9 68H557l17.8-39.5h-16.1l3.7-8.3h43.2l-3.7 8.3h-16.2L567.9 68zM648.8 20.1l-3.7 8.3h-17.3c-3.8 0-7.1.9-10.1 2.8a18.5 18.5 0 0 0-6.8 8.4H640l-3.7 8.3H607c-1.9 4.3-2.3 7.3-1.2 9.1 1.1 1.8 3.7 2.6 7.8 2.6h17.3l-3.7 8.3h-17.8c-7.9 0-12.9-2-15-6.1-2.1-3.9-1.4-9.6 1.9-17a46 46 0 0 1 13.1-17.9c5.9-4.6 13.2-7 21.9-7h17.5zM677.7 28.7h-12.9l-5.5 12.2h12.9c3.6 0 6.2-.4 8-1.3a10 10 0 0 0 4.2-4.8c.9-2 1.1-3.3.7-4.1-.8-1.4-3.2-2-7.4-2zM647 68h-10.5l21.6-47.9H684c6 0 9.9 1.1 11.7 3.3 1.9 2.3 1.7 6-.6 11.2a25 25 0 0 1-6.3 8.6A22 22 0 0 1 679 48l3.3 20.1h-11.8l-2.7-18.7h-12.4L647 68z"/></g><g><path class="st2" d="M243.9 253.1s-3.9 5.4-5.1 5.1c-1.2-.3-7.8 5.5-7.8 5.5l-17.6 7.2 12.9-7.8 5.6-3.6 4.4-4.9 5.1-5.1 11.2-9.8 3.9 5.7 1.7 5.1-2.3 20.9-5-20.7-4.6 6.9-2.4-4.5zM137.6 287.9l-1.4 10.7 4.6-12.3 1.4-18.5-5.4 5.1-11.2 14.8.3 8.1z"/><path class="st1" d="m142.8 293.7-3.7 8.8-5.2 10.7 7.7-8.6 6.9-4.9 11.8 10.9-.2-3.7-3.4-9.2 2.8-6 10.4 3.9-12-14.4-13.1-13.4-.1 19.5z"/><path class="st2" d="M217.9 295.8c1.3-1-1.5 15.2-1 14.6 1.6-1.6 4.6-20.3 6.2-22.8l.3-5.6s-9.3 15.5-15.3 20.3c-5.9 4.8-68 58.1-68 58.1l28.6-13.8c6.6-6.3 11.2-8.5 29.8-26.9.7-.7 3.2-8.2 3.6-8.4 1.2-.5-1.8 14.3.1 12.4 1.4-1.5 5.8-16.3 6.9-17.5 7-8 7.1-9.1 8.8-10.4z"/><path class="st1" d="m222.3 313.2 5.2-28.6 8.2 6 16.3 18-11.4-4.8-3.9.2-6-5.9z"/><path class="st2" d="m412.2 294 15.7-31.5 3.2 3.3 6.5-20.2-.3-4-8.9 8.8-16 24.1-12 10.6-17 14.9-20.3 13.2 22.6-9.1 22.4-15.5z"/><path class="st1" d="m438 261-4.1 10.2-5.8 12.4 8.8-9.9 7.1-3 10.4-1.6-1-4.6.6-4.6 22 7.4-19.6-16.4-14.2-9-2.1 14zM659.8 273.9v42.8l5.8-6.8 3.5-11.1 17.1 62.6-1.8-49.3 1.9-10.4 15.1 26.2v-20.3l-3.1-16.6 11.5 2-3.7-6.5-19.3-10.4-9.6-7.4-16.2-14.9.8 14.9zM258.4 236.8l-2.5 2.2.8 2 2.5 3.2 8.5 27.3 2.8-18.2 10.6 1.1-11.4-7.5zM343.9 273.2l-3.2 9.8.2 22.3 8.6-24.7 5.5-5.6 13.2 15.5-1.4-26.6 3.9 2.5 16.8-2.4-15.7-2.8-22.6-19.3-1.3 20.6z"/><path class="st2" d="m655.2 271.9-.3 27.3v19.4l-4.7 19.8-2.3-45.6-7.5 17.3.4-27.2-3.7-3.7-10.3-3 12.6-9.1 7.2-2.9 9.4-13.1 2.5 15zM344.5 242.9l-3.8 22.1-5.8 17-1.9-7-11.3 4.8 1.7-7.8-10.7 16.5-25 13.8 10-9 22.2-30.8zM211.4 399.7l16.7-27.7 9.9 4.3 2.5-33.6 3.6-8.6-12.7 8.3-8.7 17.2-24 20.5-37.4 13.8 52.1-12.2z"/><path class="st1" d="m245.7 345.6.4 21.1-1.5 21.4 9.5-17 1.5-9.3 13.6 12.2 1.1-16 9.8 3.9 14.8 2.4-19.9-15.7-18.5-11.8-7.2-6.2z"/></g><path class="st1" d="m726.5 515.2-1.7-3-6.8-11.8-.8-1.4h-5.6l-6.9-12H695.3l2.1-2.7 2.5-3.3.8-1-5.4-9.2H691l-4.6.1 2.6-3.3 1.1-1.3 1.4-1.8-7.3-12.1H680l-5.8.1 3.4-4.1 1.2-1.5 1.2-1.4-7.4-11.7h-5.5l-3.3.1 2.8-3.3 1.2-1.4.3-.4.8-1c-5.2-7.9-10-14.8-14.1-20l-.4-.4v-.3h-.3c-2.6-2.2-7-2.3-8.4-2.3h-.6l-2.5 1.2-13.2-1.3-1.6-2S621.1 390 615 379a83.4 83.4 0 0 0-27.7-130.8l-.1-.6-.2-1.7c-.2-4.9-7.4-14-11.9-15.9l-.4-.1c-.1 0-4.2-.4-10.8 1.6a440 440 0 0 0-41.9 17 69.8 69.8 0 0 0-27 13.7l-3.4 1.9c-4.9-.7-10.6-.3-16.9 1.2-20 4.8-38.7 19.5-45.2 34.1l-44.3 25.3a22 22 0 0 0-9.5.2 36.6 36.6 0 0 0-24.3 19.1l-24.3 13.9-1.5.3a8.7 8.7 0 0 0-7.2-1.2c-6.4 1.3-12.4 7.4-14.5 14.1l-1.7 1c-6.3.6-14.4 1.8-18.8 2.5h-3.1l-.2.1c-1.6 1-38.7 22.9-43.6 26.9a12 12 0 0 0-2.8 3.2 10 10 0 0 1-2-.6.8.8 0 0 0-.9 0l-36.3 19c-.3.1-.5.4-.6.7l-1.6 4.2-69.6 40.1 48.1-17.7-.1 7.1-50.6 27 2 4 48.3-10-.1 6.5-44.1 11.4 4.5 8 39.5 1.1.1.2.2.1 5 10.4 1.8-.1v.6l.1 1.5-37.7.6 5.5 8.1 559.8 9.2 21.5-21z"/><g><path class="st0" d="m674.4 452.8 3.4-4.1-.5.6-2.9 3.5zM555.7 250.1l-13.5 3.6v.2a17 17 0 0 0 2.8 3.8l10.5-2.8a22 22 0 0 1 .2-4.4v-.4zM636 444.6l38.9-.6-3.9-6.3h-.9l-36 .6 1.9 6.3zm44.2 8.1-5.8.1 3.4-.1h2.4zm-41.4.5 31.9-.5 4.3-5.2-37.9.6 1.7 5.1zm1.8 5.6 1.3 3.9 44-.6-.3-.5-3.2-5.3h-1.2l-41.2.6.6 1.9zm-121.1 14.9a5067.7 5067.7 0 0 1 84.3-1.3l37-.4-1.7-5.3a14386.7 14386.7 0 0 0-119.2 1.9c-2.1.1-14.3 3-24.7 5.7h.4c10-.4 21.4-.6 23.9-.6zm65.2-24.7-5.5.1-56.4 1.2c-1.9.1-13.3 2.9-23 5.4h.4l22.2-.4c9.5-.3 28.6-.7 56.8-1.1l46-.7 9.7-.1-1.6-5-46.7.8c-.7-.2-1.3-.2-1.9-.2zm48-14.7.2.5 21.2-.4 6.3-.1 4.1-4.7-.1-.2-33 .6 1.3 4.3zm23.2 32.1h-3.2l-9.6.1.7 2.1v.1l1 3.1 12.8-.1 6.7-.1h.6l17.6-.2 3.7-4.6-.5-.9c-4.3.2-15.3.3-29.8.5zM526 490.6a12611 12611 0 0 1 120.2-1.4l-1.8-5.6-22.3.2-32.9.3-62.8.9c-2.2.1-17 3.1-29.8 5.9h.2l29.2-.3zm77.4-129.1v-.1.1zm4.3-3.9c-1.3.1-2.5.8-3.4 2.1l-.9 1.8c-.4 2.3.2 4.8 1.8 6.4 2 1.9 4.8 1.4 6.4-1 .4-.5.6-1.1.9-1.8a7 7 0 0 0-1.8-6.3 3.7 3.7 0 0 0-3-1.2zm-66-108 .1.2v.1l14.9-4c.5-1.4 1.2-2.8 1.9-4-.9.2-1.9.4-3 .8l-16.4 5.1c1.6.7 2.5 1.8 2.5 1.8zm63.8 36.6c.4-.5.6-1 .8-1.6.3-2.1-.3-4.4-1.9-6a4.5 4.5 0 0 0-3.6-1.6c-1 .1-2 .6-2.7 1.4-.4.5-.7 1.1-.9 1.6-.3 2.1.4 4.4 1.9 6 2 2.2 4.8 2.2 6.4.2zm-38.2-20c4.8 1.1 9.3-3.3 10-9.9.7-6.6-2.5-12.9-7.3-14.2-.6-.2-1.3-.2-1.9-.2l.8.1c3.5 1 5.9 5.6 5.4 10.5s-3.8 8.1-7.4 7.3c-3.6-.8-6.1-5.6-5.5-10.6a10 10 0 0 1 2.3-5.5c-2 1.7-3.4 4.6-3.8 8.1-.8 6.8 2.5 13.2 7.4 14.4zm47.5 54.9c.3 3.2 2.5 5.8 4.9 5.7h.1c1.6-.1 3-1.4 3.6-3.3l.1-1.8c-.3-3.2-2.5-5.8-4.9-5.7-1.7.1-3 1.4-3.7 3.2-.1.7-.2 1.3-.1 1.9zM572 392.3c2.3-.4 4.2-2.3 5-4.8l.1-1.9c-.2-3.4-2.6-6-5.4-5.9h-.4c-2.3.3-4.2 2.2-5 4.7l-.2 2c.3 3.6 2.9 6.3 5.9 5.9zm42.8-72.9c0-.1.1-.1 0 0l.1-.2-.1.2zm15.4 107.2 33.2-.6c-2.4-3.7-4.8-7.1-7-10.2l-.6-.8-.8-1.1-.9-1.2-.6-.8a23 23 0 0 1-1.4-1.9c-.8-1.1-3.5-1.5-5.6-1.5l-19.2 9 2.9 9.1zm-7.7-12.6 1 .3 1.7.5 11.9-5.5-52.6-5c16 3.8 31.1 7.8 38 9.7zM611 381.8l-3.2 3.6 10 18.6 5.1-.1-11.9-22.1zM483.9 276.7l-59.1 33.4c-3.1 3.2-4.4 3.5-6.9 7.8l60.2-32.5c1.8-3 3.7-6 5.8-8.7zm-14.3 180.4c3.2-.4 6-4.9 6.3-10 .2-5.1-2.1-8.8-5.3-8.4-3.3.5-6 5-6.2 10-.3 4.9 2 8.7 5.2 8.4v.8-.8zm-1.8-3.6c-2 .2-3.5-1.9-3.3-4.9.1-3 1.8-5.5 3.8-5.9 2.1-.3 3.6 1.9 3.4 4.9-.1 3-1.9 5.6-3.9 5.9zm-8.3-14.5h-.3c-4 .7-7.5 6-7.8 11.6-.2 5.6 2.8 9.8 6.7 9.3 2.4-.3 4.6-2.1 6.1-4.7a15.8 15.8 0 0 1 .7-13.4c-1.2-1.9-3.1-3.1-5.4-2.8zM448 451.1a10 10 0 0 0 2.6 7.9 14.4 14.4 0 0 1-1.8-8c.1-3.3 1.2-6.4 2.7-9a15.5 15.5 0 0 0-3.5 9.1zm-109.7 31.4c.1-3.6-1.1-6.8-2.6-7.1-.7-.1-1.4.4-1.9 1.4l-25.9 3.5.5 1.6 24.5-3.3c.5-1 1.2-1.5 1.9-1.4 1.5.3 2.7 3.5 2.6 7 0 1.3-.2 2.4-.5 3.4.8-.9 1.4-2.8 1.4-5.1zm68.5-15.5-33.7 6c.3.4.5 1 .7 1.6l31.9-5.7c.7-1.3 1.6-2 2.6-1.8.9.1 1.6 1 2.1 2.3l.1-3.6c-.3-.4-.7-.6-1.2-.7-.8-.1-1.7.6-2.5 1.9zm25.8-49-151.3 29.9L426 400.7l-1.3-3.3-144 43.1 139.2-55.8-1.5-3.4-135.6 47.1 130.7-54.3c-6.2-6.9-12.7-6.2-14.3-5.9h-.2l-121.6 49.5-.4 31 4.7 10.1 151.5-39.5-.6-1.3zm221 81.4 53.6-.3-.2-.3-.5-.8v-.1l-2.8-4.9h-.1l-52 .4 2 6zm-3.3-10.2 38-.3h1.8l4.5-5.7h-4.5l-14.2.1h-1.6l-25.8.2 1.8 5.7zm64.9 14.1-125.7.8c-36.5.3-61 .5-73.1.8l-28.3.3-16.6.2-1.2 7.1 17.1-.2 28.4-.3a43355 43355 0 0 1 203.6-1.3l-4.2-7.4zm-68-23.7 48.6-.5-1.8-3.2a2 2 0 0 0-.4-.6h-1.3l-46.2.5 1.1 3.8zm-340.3-84.1 74.6-34.9.6-3.6-74.5 35.8-.7 2.7zm195.4-1.4a77.8 77.8 0 0 1-23.4-26.8l-13.6-.5 14.4 30.1a118 118 0 0 1 22.6-2.8zm-1.3 43.5h.3l20.5-.5c8.8-.3 26.6-.7 52.9-1.2l3.5-.1 32.3-.6 18.6-.3-1.5-4.8-4.4.1-48.3.9c-26.2.5-43.9 1-52.6 1.3-1.9 0-12.4 2.7-21.3 5.2zm21.5-66.6.1-.3-.1.3zm2.1 6.9c2.6 2.3 6.7 1.7 9-1.3.6-.8 1.1-1.6 1.4-2.5.4-2.5-.2-5.1-2.1-6.7a5.8 5.8 0 0 0-4.1-1.5c-1.8.1-3.6 1-4.9 2.6-.6.8-1.1 1.6-1.4 2.5-.5 2.5.2 5.2 2.1 6.9zm-6.5-97.7v-.1c.1 0 0 .1 0 .1zM447 373l11 32.1 2.7-.8-10.7-31.2c-7.4-18.6-17.8-24.2-26-25.3 7.7 2.3 16.5 8.9 23 25.2zm-62.4-18.7 22.7-10.9.2-1-22.4 9.9-.5 2zm-1.9-.9-73.1 32.4-1.6 5.4 74.4-35.8.3-2zm.6 6.4 23.1-10.8.6-3.9-22.8 11-.9 3.7zm30.7-36.5-21.5 11.5a84.5 84.5 0 0 0-3.6 7.4l22-11.3c.9-2.6 1.9-5.2 3.1-7.6zM263.7 506.7c0 .9-.1 1.8-.3 2.6.3-1 .6-2.1.6-3.4 0-2.9-1-5.1-2.2-5-.8.1-1.5 1.1-1.9 2.5l-8.5 1.1.1.7 8.2-1c.4-1.4 1.1-2.4 1.9-2.5 1.2-.1 2.2 2.1 2.1 5zM250 502l-.2.2c.7.1 1.3.7 1.7 1.8l.7-.1c-.5-1.7-1.3-2.5-2.2-1.9zm11.5-102.3-27.2 14.8-.5 75.4 26.7-5.4 1-84.8zm-22.3 22.8c0-5.5 1.5-7.9 3.4-8.9l7.4-3.9c2-1 3.6-1.4 3.6 4.5l-.2 17.4c-.1 5.8-1.7 8.6-3.7 9.4l-7.3 2.9c-1.8.7-3.3-.5-3.2-6.1v-15.3zm20.1 60.3-24.3 5 .2-32.7 24.4-8.7-.3 36.4zm3.5 17.6-.2.2c1.1.7 1.8 2.7 1.8 5.3 0 3.2-1.2 5.8-2.6 6.1.4.6.9.8 1.4.6 1.4-.6 2.4-3.9 2.3-7.4 0-3.6-1.3-5.7-2.7-4.8zm149.5-18 26.6-5.2 2.1-49.3-26.9 7.1-1.8 47.4zm25.3-6.5-23.8-4.3 24.2-6-.4 10.3zm1.9-44.7-.4 10.4-23.9-5.2 24.3-5.2zm-.5 11.3-.4 10.4-23.9-4.9 24.3-5.5zm-.5 11.9-.4 10.3-23.8-4.6 24.2-5.7zm-187.3 54c0 1-.1 2-.3 2.8.4-1 .6-2.2.6-3.6 0-2.9-.8-5.1-2-4.9-.7.1-1.3 1.1-1.6 2.5l-7.7 1c-.3-1.2-.9-2-1.6-1.9-.7.1-1.3 1.1-1.7 2.6.4-1 .9-1.7 1.4-1.8.6-.1 1.2.6 1.6 1.9l7.7-1c.4-1.4 1-2.4 1.7-2.5 1.1-.2 1.9 2 1.9 4.9zm-1.3 5.2h.5c.7-.3 1.3-1.3 1.7-2.8l-.5.1c-.4 1.3-1 2.3-1.7 2.7zm-8.2-70.8c-.3-1.1-.4-2.6-.4-4.4l.1-15.4c0-3.8.7-6.7 2.1-8.5l-.7.4c-1.1.6-2.6 2-2.6 7.5l-.1 15.4c-.1 3.4.5 5.1 1.6 5zm-49-4.8-1.9 5-15 6.9-.6 49 50.3-8.1.5-42.4-46.8 11.2 46.9-20.4v-3.8L185.6 448l40.6-21.7.1-12.7-30.4 15.7-3.2 8.7zm31.2 17.8-.2 16.6-.2 16.9-46.2 7 .3-26.7 46.3-13.8zm-3.8 63.2c-1.8.9-3.4-2.5-3.9-7.8l-.4.1c.4 6.3 2 10.1 3.5 9.9l.4-.1c1.1-.5 2.2-2.8 3-6.1-.9 2.1-1.7 3.6-2.6 4zm45.4-132.2a476.9 476.9 0 0 0-28.2 17.6 15.2 15.2 0 0 0-4.6 8.3l28.5-15.6a20 20 0 0 1 4.3-10.3zm181.4 93.9c.2-4.8 1.8-9.4 4.2-13a22.1 22.1 0 0 0-5 13.1c-.2 4.9 1.2 9.1 3.7 11.6-2-3-3.1-7-2.9-11.7zm-153-17.7-13.1 3.2-5.8-13.6v-.6l-9.2 3-.3 27.9 5.2-.9 5.7-11.6 17.2-6.6.3-.8zm46 24.1h-2l-.2.3c-.5 1-1.2 1.5-1.9 1.6h-.6c-.6-.1-1.1-.6-1.5-1.3l-2.2.2c-.2 1.4-.3 2.9-.2 4.5.2 4.9 2.2 8.4 4.5 7.6 2.6-.9 4.6-6.5 4.3-12l-.2-.9zm31.9-14.6c-.8-.2-1.7.3-2.4 1.4l-31.8 2.2.8 1.3 30-1.6c.7-1.1 1.5-1.7 2.4-1.4 1.7.5 2.8 4.3 2.3 8.4-.2 1.4-.5 2.6-.9 3.6.9-1.1 1.6-3.1 1.9-5.5.4-4.1-.6-7.9-2.3-8.4zm38.4 17.5-.2-1.4v-.4l-.1-1.1-.1-1.6v-2.6l.1-1.7c-.5.5-1 .8-1.6.8h-.6c-.7-.1-1.3-.6-1.8-1.5l-4 .6v2.1c.4 6.4 3.3 10.9 6.4 9.9.8-.3 1.5-.8 2.2-1.6l-.3-1.5zm5.4 5.3c-.9-1.8-1.5-4-1.5-6.4l.1-2.4 24.5-4.5.1-.6.1-1.3-26.6 5.2c-.1 4.2 1.2 7.7 3.3 10zm-45-7.1-.8-.1c-.6-.2-1.2-.8-1.6-1.6l-5.1.1v2.1c.3 5.6 2.6 9.5 5.3 8.6 2.7-.9 4.8-6.2 5-11.8-.8 1.6-1.7 2.6-2.8 2.7zm-59.2 1.7-3.7.4-.1.2c-.3.5-.7.8-1.1 1l-.8.5h-.5c-.4 1.7-.6 3.6-.5 5.4.2 4.3 1.9 7.4 3.8 6.7 1.9-.7 3.9-5.2 3.7-10.5a17 17 0 0 0-.8-3.7zm-28.4 1.3c-1.1.6-2.1 2.4-2.6 4.6l.2.1 5.1-3.1c-.5-1.2-1.3-1.8-2.1-1.8l-.6.2zm-1.6 14.2c.6.7 1.2 1.1 1.9.9.9-.3 1.9-1.7 2.5-3.6l-4.4 2.5c.1 0 0 .1 0 .2zm25.9-18.9c0 1.5-.3 2.8-.7 3.9a9.7 9.7 0 0 0 1.5-5.7c.1-3.3-1-5.6-2.3-5.2-.6.2-1.2 1-1.7 2.1l-23.7 15a.8.8 0 0 0-.8-.2c-.6.2-1.2 1.1-1.6 2.3.2-.3.5-.5.8-.6.3-.1.6 0 .8.2l23.6-15c.4-1.1 1-1.9 1.7-2.1 1.4-.3 2.5 2 2.4 5.3zm213-199.7c2.6 2.4 6.6 2.5 8.8 0 .6-.7 1-1.5 1.3-2.3a7.3 7.3 0 0 0-7.1-8.3 6 6 0 0 0-3.9 1.8c-.6.6-1 1.4-1.3 2.2-.3 2.3.4 4.8 2.2 6.6zm-103.5 31c2.6-4.7 5.7-8.9 9-12.6l-16.3 9.2a56.3 56.3 0 0 0-14 15l21.3-11.6zm53.7 10.3c.8 27.7 14.9 52 35.4 65.5l2.3.2 5.7-.2 2.6-.1c-9-6.5-16.6-15-22.4-25a85 85 0 0 1-14.3-44.2 78.4 78.4 0 0 1 34-68.5c-26.2 11.2-44.3 39.6-43.3 72.3zm-164 59.1a2266 2266 0 0 1-35.1 15.5l35.7-18.4 1.5-5.3c-21.1 11-36.7 19-36.3 18.1l37.1-20.4c1.1-2.8 2.3-5.4 3.8-7.7l-29.4 16.7-.1.2-.4.2c-8.6 4.3-14.5 13.3-16.4 24.7l38.6-18.6 1-5zm78.6-43.1a66 66 0 0 1 2.4-6.7c-21.5 11.4-50.5 26.8-74 39.1-1 1.9-1.8 3.8-2.7 5.9l74.3-38.3zm4.5-11.3.5-.9a48 48 0 0 1 7.4-10.5l-12.5 7.1c-2.6-.8-5.8-.8-9.3 0a32.9 32.9 0 0 0-22.7 18.2l-30.9 17.5c-2.6 2.7-5 6-7.1 9.7l37.3-20.5 37.3-20.6zm85.1-63.7c-18.7 4.5-36.8 18.4-42.8 31.9l60.2-32.8c-4.8-1-10.8-.7-17.4.9zm-12.9 194-.4.1c-6.2 1-11.5 8.8-11.9 17.4-.4 8.4 4.2 14.8 10.3 14.3l-.1 1.5.1-1.5c6.4-.6 12-8.4 12.5-17.3.4-8.8-4.4-15.2-10.5-14.5zM530.6 284l-.1.5v.1l.1-.6zm-23 37.2a7 7 0 0 0-6.3 4.9l-.1 1.6c.2 4 3.4 7.1 7.1 6.9h.2a7 7 0 0 0 6.1-4.9l.1-1.6c-.1-4-3.3-7.1-7.1-6.9zm9.8 5.9c-.8-26.7 17.4-48.6 41-49.5a41.9 41.9 0 0 1 28.8 10.3c-6.9-5-15.2-7.7-23.9-7.4-21.5.9-38 20.5-36.8 44.1 1.2 24 20.1 43.2 42.2 42.5 20.1-.6 35.7-17.5 37.1-38.6.3 25.4-16.6 46.4-39.3 48.3h.9c26.5-.9 46.3-25.3 44-54.1-2.2-28.2-24.8-49.9-50.4-48.9-25.5 1-45.1 24.3-43.8 52.3.2.3.2.6.2 1zm79.6-29.7v15.7h-3.9l-7.4 44.3h-16.4l-1.7-8.5-1.7 8.5h-16.4l-7.4-44.3h-3.9v-17.4h57.4l1.4 1.7zM191.1 520.3c-1.5.8-2.8-2.2-3.2-6.8l-.3.1c.2 5.4 1.6 8.6 2.8 8.5l.3-.1c.9-.4 1.8-2.3 2.4-4.9-.6 1.7-1.3 2.9-2 3.2zm24.8-16.7h.2a33 33 0 0 1 1-5.9c-.5 1.6-.9 3.6-1.2 5.9zm-28.2 4.6h.2c.1-1.7.4-3.4.7-4.8-.4 1.3-.7 3-.9 4.8zm-6.3-.4c-.6.1-1.2 1.4-1.4 3 .3-.7.6-1.2 1-1.3.5-.1.9.5 1.2 1.5l5.8-.8c.3-1.1.7-1.9 1.2-2 .8-.1 1.5 1.7 1.5 4l-.1 1.4c.3-.8.5-1.9.5-3.1 0-2.3-.6-4.1-1.5-4-.5.1-1 .9-1.2 2l-5.8.8c-.3-.9-.7-1.6-1.2-1.5zm26.8-4.2c-.8.1-1.5 1.7-1.7 3.7.3-.9.8-1.5 1.2-1.6.6-.1 1.1.7 1.4 1.9l7.2-1c.3-1.4.9-2.4 1.5-2.5 1-.2 1.9 2.1 1.8 5l-.1 1.7c.4-1 .6-2.4.6-3.9 0-2.9-.8-5.1-1.8-5-.6.1-1.2 1.1-1.5 2.5l-7.2 1c-.3-1.2-.8-1.9-1.4-1.8zm.6 16.5c-1.9 1-3.5-3.5-3.6-10.1a46.3 46.3 0 0 0-.2 1.6c.2 6.4 1.7 10.6 3 10.5l.3-.1c.8-.4 1.7-2.2 2.3-4.7-.5 1.5-1.1 2.5-1.8 2.8zm-79.1-16.8 40.5-3.9v-5.1l-41.8 8.1c.8 1.3.6-.4 1.3.9zm-7.7-13.9 48.2-9.9v-6.6L121.3 488l.7 1.4zm153.5-73.6v-1.4l.1-.1v-4.2l29.3-13.7.3-2.5-38.6 18.5-.4 4.2-.4 35.7 9.2-3 .5-33.5zm-104.6 35.3v-3.4l-48.3 21.2 48.3-17.8zm11.1 70.1c-1.5.8-2.8-2.9-2.9-8.1a55.4 55.4 0 0 1-.2 1.3c.1 5.2 1.4 8.6 2.4 8.5l.2-.1c.7-.3 1.4-1.8 1.9-3.9-.4 1.2-.9 2-1.4 2.3z"/><path class="st2" d="M601.2 275.8a4 4 0 0 0-2.7 1.5 5 5 0 0 0-1.2 2.9c.2-.6.5-1.2.9-1.6.7-.9 1.7-1.4 2.7-1.4 1.2-.1 2.5.5 3.6 1.6a7.4 7.4 0 0 1 1.9 6c.8-2.3.3-5.3-1.6-7.2a4.7 4.7 0 0 0-3.6-1.8zm-4.2 26.3a48.6 48.6 0 0 1 8.2 23.1c.6-1.4.7-3.5.7-3.5a46.5 46.5 0 0 0-8.9-24.2v4.6zm33 142.6-2-6.3-4.3.1 1.9 6.3 4.4-.1zm-19-87.1a3.7 3.7 0 0 0-3-1.2c-1.3.1-2.5.8-3.4 2.1-.7.9-1 2-1.2 3.1.2-.7.5-1.3.9-1.9.9-1.3 2.2-2 3.4-2.1 1.1 0 2.1.4 3 1.2a7 7 0 0 1 1.8 6.3c.8-2.6.3-5.7-1.5-7.5zm30 122-1.2-3.8-4.8.1 1.1 3.8 4.9-.1zm-17.3-159c-.3-3.2-2.5-5.8-4.9-5.7-2 .1-3.6 2-4 4.5.7-1.8 2-3.2 3.7-3.3 2.4-.1 4.6 2.5 4.9 5.7l-.1 1.8c.3-1 .5-2 .4-3zm12 142.2-1.8-5.7-4.5.1 1.7 5.7 4.6-.1zm-77.8-211.2c-1.1 7.6 3 14.8 9.1 16l2.1.2c5-.3 9.2-5 10.1-11.3 1-7.4-3-14.5-8.9-15.9-.8-.2-1.6-.3-2.4-.2-4.9.3-9.1 5-10 11.2zm12.1-9.5c4.8 1.3 8 7.6 7.3 14.2-.7 6.6-5.2 11-10 9.9-4.9-1.1-8.3-7.6-7.5-14.3.4-3.5 1.9-6.4 3.8-8.1a9.3 9.3 0 0 0-2.3 5.5c-.6 5 1.9 9.7 5.5 10.6 3.6.8 6.8-2.5 7.4-7.3.5-4.8-1.8-9.5-5.4-10.5l-.8-.1c.7-.1 1.4-.1 2 .1zm77.3 257.4-1.9-6.1h-5l1.8 6.1h5.1zm-83.9-219.1a37 37 0 0 0-26.3 12.8l1.3-.8a38 38 0 0 1 53.3 3.3h3.9a39.5 39.5 0 0 0-32.2-15.3zm24.6-24.2a83.5 83.5 0 0 1 40.8 66 82.9 82.9 0 0 1-17.4 59.1A83.5 83.5 0 0 0 588 252.1a28 28 0 0 1 0 4.1zm70.7 183.3 4.8-.1 3 4.7 8.4-.1-3.9-6.3h-.9l-9.8.2-1.6 1.6zm10.4 18.5 5.8-.1 2.6 4.3 8.3-.1-.3-.5-3.2-5.3h-1.2l-10.8.1-1.2 1.6zm-41-38.1 13.2-6.2c2.1 0 4.8.4 5.6 1.5 2.4 3 5 6.7 7.9 10.8l8.7-.2c-2.4-3.7-4.8-7.1-7-10.2l-.6-.8-.8-1.1-.9-1.2-.6-.8a23 23 0 0 1-1.4-1.9c-.8-1.1-3.5-1.5-5.6-1.5l-19.2 9 .7 2.6zm53.2 56.5 4.6-.1a93 93 0 0 1 1.6 2.8l8.3-.1-1.8-3.2a2 2 0 0 0-.4-.6h-1.3l-10.2.1-.8 1.1zm17.7 22.7h8.2l-.2-.3-.5-.8v-.1l-2.8-4.9h-.1l-8.1.1c1.3 2 2.4 4.1 3.5 6zM515.1 326.8a7 7 0 0 0-7.1-6.9 7.1 7.1 0 0 0-6.6 6.2 7 7 0 0 1 6.3-4.9c3.7-.2 6.9 2.9 7.1 6.9l-.1 1.6c.3-.9.4-1.9.4-2.9zm62.3 57.5c-.2-3.4-2.6-6-5.4-5.9h-.4c-2.7.4-4.9 2.9-5.4 6 .8-2.5 2.8-4.5 5.1-4.8h.4c2.8-.1 5.1 2.5 5.4 5.9l-.1 1.9c.3-.9.5-2 .4-3.1zM523.7 275a6 6 0 0 0-3.9 1.8c-.9 1-1.5 2.2-1.7 3.5.3-.8.7-1.6 1.4-2.2 1-1.1 2.4-1.7 3.9-1.8 1.8-.1 3.6.6 4.9 2a7.6 7.6 0 0 1 2.2 6.4c.9-2.5.3-5.6-1.9-7.7a6.5 6.5 0 0 0-4.9-2zm9.5 91.1a5.6 5.6 0 0 0-4.1-1.5c-1.8.1-3.6 1-4.9 2.6a7.7 7.7 0 0 0-1.7 3.8c.3-.9.8-1.8 1.4-2.6a6.9 6.9 0 0 1 4.9-2.6c1.5-.1 2.9.4 4.1 1.5a7.5 7.5 0 0 1 2.1 6.7c1-2.8.4-5.9-1.8-7.9zm56.8-56.6h3.3v-10h-15.8v10h2.4l-2.6 17.8-5.5-27.8h-8.3l-5.5 27.8-2.6-17.7h2.4v-10H542v10h3.3l7.4 44.3h10.2l4.7-23.5 4.7 23.5h10.2l7.5-44.4zm-113.4 92.4s42-2.5 53.5-1.6c16.3 1.3 82.9 19.3 88.3 20.8l1.7 5.7 4.1-.1-2.6-8.1c-5.4-1.5-72-19.4-88.3-20.8-15.1-1.2-56.6.7-56.7 4.1zM402 370.2 280.7 419l128.2-45.8a13.5 13.5 0 0 0-6.9-3zM245.6 504.8l.7-.1c.4-4.9 1.9-9.2 3.9-10.5.8-.5 1.5-.5 2.2-.1-.5-.5-1.1-.7-1.6-.6-.3 0-.6.2-.9.4-2 1.3-3.6 5.7-4.3 10.9zm134-175.1c1.5-.3 2.9-.5 4.2-.5l1.3-.7a20 20 0 0 0-8.4.2 33.7 33.7 0 0 0-22.4 17.3l5.1-2.9a34.4 34.4 0 0 1 20.2-13.4zM258.2 503.1l.8-.1c.5-5 2.1-9.5 4.2-10.8 1-.7 2.1-.5 2.9.4-.7-.9-1.5-1.3-2.2-1.2-.3 0-.7.2-1 .4-2.3 1.3-4 5.8-4.7 11.3zm136.9-178.9-74.5 41.6c-.9 1-1.8 2.1-2.6 3.3 22.9-12.1 51.8-27.7 73.3-39.4 1.2-2 2.4-3.8 3.8-5.5zm-83.8 48.4 1.3-2.4-31.9 17.8c-.4.8 12.5-5.8 30.6-15.4zm-50.8 20c.7-1.2 1.6-2.3 2.5-3.3L235.7 406c-.4.9 8.4-3.8 24.8-13.4zm454.7 110.8a24131.8 24131.8 0 0 0-243.7 2.1c-.2 1.1 214.4 1.2 239.4 1.1 2 3.4 1.5 2.1 2.6 4.1h6.1s-.3-.3-4.4-7.3zm-490.5-84.5v-2.6l-29 15c-.4.8 29-12.4 29-12.4zM535.9 247c1.4-.1 2.5.3 3.4.7l16.4-5.1 3-.8c2.3-3.6 5.5-6.1 9.3-7.1a9.2 9.2 0 0 0-4.5.4c-8.8 2.6-23.3 9.4-31.9 12.2l3.8-.4.5.1zM238.8 523.4l.4-.1c1.8-.8 3.7-5.3 4.2-11.3h-.2c-.7 3.6-2 6.4-3.5 7.1-2.2 1-4.2-3.1-4.4-9.1-.2-6 1.3-12 3.5-13.6.5-.4 1.1-.4 1.6-.3a2 2 0 0 0-1-.3c-.3 0-.5.1-.8.3-2.5 1.7-4.3 9.2-4 16.3.4 7.1 2.4 11.1 4.2 11zm188.7-8.4 8-15-11.7 12.4-2.8-18.9-1 13.4-1.4 2.1-1.4-.9-10.5-14.3 5.6 11.1-15.7-10.2a62 62 0 0 1-.6-12.8l-5.9.8c-.1 2 0 4.1.1 6.1l.1 1.8-6-3.9.1-3.2h-.3v3l-7.8-5.1 7.7 7.2c-.1 2.2-.3 4.3-.6 6.4l-30.7-13 35.1 20.6-29.5-7.7-.1-1.1c-.1-2.4-.1-4.8.1-7.2l-5.1.1v6.8l-12-3.1 12.1 4.7c.3 3.3.8 6.3 1.5 9.1l-19.2-1.7-8.5-5.5c-.1-3 0-5.9.3-8.8l-4.7.5c-.2 2.6-.3 5.3-.2 8 .1 1.9.3 3.8.6 5.5l-15.6-7 16 9.2.8 3.4-23.3-6.3a59 59 0 0 1 .4-8.5l-4.4 2.6-.1 5.5c.1 3.1.6 6 1.2 8.6l-3.9-.4 4 .8 1.4 4.2-9.4-.3a42.2 42.2 0 0 0 3.7-16.4l-.7.4a30.2 30.2 0 0 1-4.8 15.9l-2.3-.1-8.1-5.1a40.5 40.5 0 0 1-1.1-6.8l.1-1.5c0-9.1 2.9-18.1 7-20.6 3.7-2.2 7.1 1.4 8.5 8.4l.7-.4c-1.5-7.5-4.9-12.2-9-11.7-.7.1-1.4.3-2.1.7-5.6 3.1-9.7 15.2-9.2 26.9.1 2.5.4 4.8.9 6.9l-5.3-2.2c.1-1.6.2-3.4.1-5.1v-.5c0 1.9-.1 3.8-.4 5.5l-1.6-.6 1.5.9a20 20 0 0 1-.9 3.7l-5.1-1.3 4.9 2a9 9 0 0 1-1.8 3.1l-4.4-.3c-.9-1.3-1.6-3.4-1.9-6l-1.2.1c.1 3.3.7 6.2 1.5 8.3l-5.9-.1c.9-2.1 1.5-4.8 1.9-8h-.3c-.7 3.8-2.2 6.8-3.9 7.5-2 .8-3.8-1.9-4.5-6.3l-1.1.1c.4 6.7 2.6 11.5 5.1 10.5 1-.4 1.9-1.7 2.8-3.5l6.6.9c.4.9.9 1.5 1.5 1.9l-58.7 3.2 240.7-4.6-13.7-1.6 16.7-7.1-18.9 3.9zm-158.9-6 5.8 3.5.6 1.8-6.9-1.7.5-3.6zm-7.5 7.3 3.4.8-.6.3c-1 .4-1.9 0-2.8-1.1zm3.3 5 .8-.9 3.3.5-4.1.4zm1.8-2.8.4-1 4.5 1h-4.9zm.9-2.1.8-2.9 8.3 3.4.1.2-9.2-.7zm12.7-3.1c-.5-.9-.9-2-1.3-3.3l4.1 4h-1.2l-1.6-.7zm2.3.9.9.1.5.5-1.4-.6zm5.8.8-.3-.2.4.1-.1.1zm8.3 5.3-.4-.4-.4-.2-5.9-3.7.5-.9 10.8 1.3c.7 1.3 1.6 2.5 2.5 3.3l-7.1.6zm10.4-.9c-.7-.6-1.4-1.5-2.1-2.6l13.2 1.6-11.1 1zm-3.2-4.8-1.2-3.6 20.5 4.2-19.3-.6zm-1.3-4.4c-.5-2.4-.9-5.1-1-8v-.4l18.8 7.1-8.4-.2 11.8 1.5 2.2.8.7 1.5-24.1-2.3zm26.9-1-.5-1.7 3 1.7H329zm10 .2-11.2-5c-.4-2-.6-4.2-.8-6.5l12.8 11.5h-.8zm-3-6.5 19.6 4.2 1.1 2.7-10.3-.2-10.4-6.7zm20.7 13.3-3.4-2.2 6.3.8.9 1-3.8.4zm5.1-6.3-.7-1.7 8.7 1.9-8-.2zm-1.9-5.2c-.6-2.3-1.1-4.8-1.4-7.5l24.6 9.5-23.2-2zm23.5-9.6c.4-2 .6-4.1.8-6.3l6.7 6.2.7 3.5-8.2-3.4zm77.9-31.4c-6.1 1-11.2 8.5-11.6 16.7v2.3-1.2c.3-7.6 5.1-14.5 10.7-15.4 5.8-1 10.3 4.7 9.9 12.7-.4 7.9-5.4 14.7-11.1 15.4h.6c6.2-.6 11.8-8.1 12.2-16.7.5-8.7-4.4-14.9-10.7-13.8zm-2.1-24.5c-4.1.8-7.6 5.9-7.8 11.5v1.6-.8c.2-5.1 3.4-9.9 7.2-10.6 2.3-.4 4.3.7 5.5 2.9l.8-1.8c-1.3-2.2-3.3-3.3-5.7-2.8zm-34.3-129.1 59.1-33.4-.5.7c1.5-2 3.1-4 4.8-5.9l-62 35.1a59.8 59.8 0 0 0-7.6 10c2.1-3.1 3.4-3.6 6.2-6.5zm54.7-38.9c3.5-.8 6.7-1.3 9.7-1.4l4-2.2c-4.8-.8-10.7-.6-17.3 1-19.1 4.6-37.1 18.4-43.6 32.1l7.4-4a72.3 72.3 0 0 1 39.8-25.5zm-21.8 188.6h.5c2.3-.3 4.5-2 6-4.5l-.4-.8c-1.3 3-3.6 5-6.1 5.3zm21.9-135.5a84.6 84.6 0 0 0 14.4 44.4c-7-12-11.3-26.1-11.8-41.1-1.3-38.2 22.1-70.3 54.5-78.6a8 8 0 0 0-1.7-.2h-.4c-2.2.3-6.8.6-9.5 1.2l-1.7.4a77.4 77.4 0 0 0-43.8 73.9zM369.5 454.6c-1 .1-2.1.5-3.2 1.1-4.8 2.6-8.8 9.7-11.1 18.4l5.4-.3c1.9-6.5 4.9-11.6 8.5-13.7 5.4-3.2 10.6 1.3 13.3 10.6l.7-.1c-2.4-10.4-7.6-16.8-13.6-16zm68.7 21.9 1.9-47.1-24.4 6.4.2.4 23.5-5-.4 10.4-22.9-5 5.4 9.8 17.4-3.9-.4 10.4-15.1-3.1 4 7.2 11.1-2.6-.4 10.3-7.2-1.4 2 3.6 5.2-1.3-.4 9.9.5 1zm-128.7-6.1c-.8.1-1.6.4-2.4.8-3.3 1.9-6.2 6.8-8 12.9l4.5-2.9c.4-1.1 1-1.8 1.6-2.1l.6-.3h.3c1-1.6 2.1-2.8 3.3-3.6 2.9-1.8 5.7-.4 7.7 3.1l.9-.1c-2-5.2-5.1-8.2-8.5-7.8zm27.3-8.6c-.9.1-1.8.4-2.8.9-3.9 2.2-7.1 7.6-9.2 14.5l5.1-.7c1.7-4.6 4-8.1 6.6-9.7 4.3-2.6 8.5.6 10.9 7.6h.6c-2.1-8.2-6.3-13.2-11.2-12.6zm71.8-11.9c.9-.5 1.7-.8 2.6-1l.2-4.8h-2c-1.3.2-2.5.6-3.8 1.3-6.2 3.3-11.2 12.5-13.8 23.6l6.2-1.1c2.3-8.5 6-15.3 10.6-18zM423 308.6l-19 10.6a67.5 67.5 0 0 0-6 6.9l20.6-11.1c1.3-2.3 2.8-4.4 4.4-6.4z"/></g><path class="st0" d="M196.4 534.6c93.5 96.7 222.5 131.3 222.5 131.3s129-34.6 222.5-131.3h-445z"/><g><path class="st1" d="M419.6 622c-10.6 0-19.2 5.8-19.2 12.9v6.3c0 7.1 8.6 12.9 19.2 12.9s19.2-5.8 19.2-12.9v-6.3c0-7.2-8.6-12.9-19.2-12.9z"/><path class="st2" d="M419.6 645c-9.3 0-16.8-4.9-16.8-11v5.8c0 6.1 7.5 11 16.8 11s16.8-4.9 16.8-11V634c0 6.1-7.5 11-16.8 11zM419.6 625.8c6.4 0 12 1 15.5 4a20.8 20.8 0 0 0-15.5-5.9 21 21 0 0 0-15.5 5.9c3.5-3 9.1-4 15.5-4z"/></g><g><path class="st1" d="M516.9 621.1c-2.1-4.1-9.4-17.3-14.7-17.3-.6 0-1.1.1-1.5.4l-32.2 15.4-2.4.2c-7.2 0-10.6-4.3-10.8-4.5l-26.5-26 44.9-43.8-10.4-8.3-43.7 43-43.7-43-10.4 8.3 44.9 43.8-26.4 25.8-.1.1c-.1.2-3.6 4.5-10.8 4.5l-2.4-.2-32.2-15.4a3 3 0 0 0-1.6-.4c-5.3 0-12.6 13.2-14.7 17.3l-.8 1.5 1.6.5 38.9 13.4c2.9 1 5.8 1.5 8.6 1.5 7.4 0 11.7-3.5 12-3.7l37-36.1 37.1 36.2c.2.1 4.6 3.6 11.9 3.6 2.8 0 5.7-.5 8.6-1.5L516 623l1.6-.5-.7-1.4z"/><path class="st2" d="m464.2 542.6 5.2 2.3-5.3-4.3-42.5 41.5 1.1 1.1zM383.5 619.3s-5.5 5.8-16.7 1.5l.8-1.3-6.9-2.9-.8 1.3-6-2.8.8-1.3-7.3-3.6-.8 1.3-8.1-4.4c-4.6-2.5-11.8 12.4-11.8 12.4s8.4-12.3 11.9-10.4l7 3.8-8.4 13.2 7.8 2.7 7.8-12.3 5.9 2.9-7.5 11.6 7.2 2.5 7.2-11.1 1.1.4c11.3 4.4 16.8-1.5 16.8-1.5l29.8-29.1-1.1-1.1-28.7 28.2z"/><path class="st2" d="M512.4 619.5s-7.1-14.9-11.8-12.4l-8.1 4.4-.8-1.3c-2.2 1.1-4.6 2.4-7.3 3.6l.8 1.3-6 2.8-.8-1.3a78.5 78.5 0 0 1-6.9 2.9l.8 1.3c-11.3 4.3-16.7-1.5-16.7-1.5L375 540.6l-5.3 4.3 5.2-2.3 80.6 78.7s5.5 5.9 16.8 1.5l1.1-.4 7.2 11.1 7.2-2.5-7.5-11.6 5.9-2.9 7.8 12.3 7.8-2.7-8.4-13.2 7-3.8c3.6-1.9 12 10.4 12 10.4z"/></g><g><path class="st1" d="M372.5 606.7V594h-7v12.7h-15.6v-37.9h15.6v12.3h7v-12.3h15.6v37.9z"/><path class="st2" d="M361.7 584.9h14.6v-12.3h8v30.3h-8v-12.6h-14.6v12.6h-8v-30.3h8v12.3z"/><g><path class="st1" d="m472 606.7-3.4-.1a35.2 35.2 0 0 1-7.1-1.4c-1.1-.5-2.2-1-3.3-1.7-1.4-.9-2.5-1.9-3.5-3s-1.8-2.4-2.4-3.8c-.5-1.2-.9-2.4-1.2-3.7-.3-1.2-.4-2.5-.5-3.8v-2.3l.1-.8c.2-2.8.9-5.3 1.9-7.4 1.1-2.3 2.6-4.2 4.4-5.7 1.9-1.5 4.1-2.5 6.8-3.2a36 36 0 0 1 8.5-1l17.1-.1v12.8h-16.9c-1.7 0-2.7.3-3.3.5-.6.3-.8.5-.8.6-.4.7-.7 1.5-.9 2.3-.2.9-.4 1.8-.4 2.8v2.3l.2 1 .3.9.1.2.1.2.1.2.5.5.6.4.3.1 1.4.2 1.4.1 17.4-.1v12.9H472z"/><path class="st2" d="M467.7 578.6a5.4 5.4 0 0 0-2.7 2.2 15 15 0 0 0-1.8 6.9v2.8l.3 1.5.5 1.4c.1.5.4.9.7 1.3l1.1 1.2c.4.4.9.7 1.3.9.5.3 1 .4 1.6.5l1.7.2 1.7.1h13.5v5.3H472l-3.2-.1-3-.4c-1-.1-2-.4-2.9-.8a15 15 0 0 1-5.4-3.7c-.7-.8-1.3-1.8-1.8-2.7l-1-3-.4-3.1v-1.9l.1-.6c.2-2.4.7-4.5 1.5-6.2a11 11 0 0 1 3.3-4.3c1.4-1.1 3.2-2 5.4-2.5 2.1-.6 4.7-.8 7.5-.8h13.2v5.2h-13.1c-1.7-.2-3.3.1-4.5.6z"/></g></g></svg>