<?xml version="1.0" encoding="utf-8"?>
<!-- Generator: Adobe Illustrator 13.0.0, SVG Export Plug-In . SVG Version: 6.00 Build 14948)  -->
<!DOCTYPE svg PUBLIC "-//W3C//DTD SVG 1.1//EN" "http://www.w3.org/Graphics/SVG/1.1/DTD/svg11.dtd">
<svg version="1.1" id="Layer_1" xmlns="http://www.w3.org/2000/svg" xmlns:xlink="http://www.w3.org/1999/xlink" x="0px" y="0px"
	 width="360" height="278" viewBox="0 0 499.997 386.45" enable-background="new 0 0 499.997 386.45"
	 xml:space="preserve">
<g>
	<path fill="#010101" d="M296.511,68.679c0.688,1.159,3.403,5.732,5.491,9.247h-17.892C286.64,76.041,295.01,69.797,296.511,68.679z
		 M492.369,132.981c-5.662-6.247-12.987-8.47-20-9.023c0-0.872,0-46.033,0-46.033H460.17H399.91
		c-8.131-4.722-22.944-13.334-22.944-13.334c8.207-7.725,12.888-15.802,13.9-17.672c0.035-0.073,18.376-34.559,18.376-34.559
		s-55.313,6.689-64.357,8.371c-0.233-1.066,0.018,1.341-0.205,0.347l-4.381-19.373l-15.302,12.658c0,0-1.642,1.357-2.633,2.185
		c-0.963-3.516-2.027-7.412-2.027-7.412s-15.132,13.679-15.171,13.714c-0.453-4.507-0.973-9.704-0.973-9.704
		s-17.304,18.184-17.977,18.894c-0.506-5.05-1.062-10.539-1.062-10.539s-18.581,19.532-18.6,19.541
		c-0.35-3.522,10.868-23.18,10.868-23.18l-38.987,15.061H225.27l-15.637-22.22l-15.638,21.397l-16.628,0.181l-15.675-17.896
		l-15.882,18.229l-10.246,0.308L90.819,12.122l25.838,54.542c0,0,12.585,54.384,11.976,54.51
		c-12.341,2.555-25.871,9.142-41.353,20.138l-12.005,8.527l2.971,14.422c0.006,0.021,0.045,0.219,0.045,0.633
		c0,0.69-0.108,1.969-0.666,3.967c-7.467,26.779-29.515,78.689-65.523,154.296c-4.723,9.923-7.898,17.902-9.711,24.396
		c-1.021,3.663-1.446,6.993-1.446,10c0,9.537,4.275,15.825,7.339,19.103c5.111,5.464,14.682,11.253,31.265,7.819
		c10.142-2.111,21.388-7.253,34.381-15.729l8.636-5.619l1.396-10.229c0.508-3.695,0.966-5.733,1.26-6.788
		c0.398-1.429,1.379-4.366,3.502-9.915c14.363,32.542,37.669,31.849,47.542,29.796c18.106-3.751,32.521-16.501,44.051-38.678
		c1.693-0.974,3.418-2.053,5.156-3.234c5.037,2.085,11.559,3.107,20.185,1.331c6.068-1.246,12.559-3.49,19.285-6.66
		c0,0,12.005-5.672,12.364-5.839c4.271,1.939,9.825,3.156,16.907,2.335c3.486,4.686,9.459,9.81,19.754,12.605
		c10.604,2.862,21.469,3.178,32.325,0.956c12.881-2.647,25.195-8.161,36.59-16.378c9.918-7.155,18.733-16.029,26.377-26.271
		c11.175,4.236,23.645,1.776,29.279,0.616c16.28-3.348,31.175-10.977,44.262-22.676c13.191-11.798,22.47-26.172,27.566-42.729
		c1.677-5.436,2.526-10.689,2.526-15.626c0-4.803-0.863-9.277-2.414-13.469c2.604-2.143,5.206-4.281,5.206-4.281
		c11.865-9.755,19.077-19.207,22.063-28.892c0.878-2.852,1.306-5.723,1.306-8.547C499.053,144.027,496.75,137.809,492.369,132.981z"
		/>
	<path fill="none" stroke="#010101" stroke-width="1.8875" d="M296.511,68.679c0.688,1.159,3.403,5.732,5.491,9.247h-17.892
		C286.64,76.041,295.01,69.797,296.511,68.679z M492.369,132.981c-5.662-6.247-12.987-8.47-20-9.023c0-0.872,0-46.033,0-46.033
		H460.17H399.91c-8.131-4.722-22.944-13.334-22.944-13.334c8.207-7.725,12.888-15.802,13.9-17.672
		c0.035-0.073,18.376-34.559,18.376-34.559s-55.313,6.689-64.357,8.371c-0.233-1.066,0.018,1.341-0.205,0.347l-4.381-19.373
		l-15.302,12.658c0,0-1.642,1.357-2.633,2.185c-0.963-3.516-2.027-7.412-2.027-7.412s-15.132,13.679-15.171,13.714
		c-0.453-4.507-0.973-9.704-0.973-9.704s-17.304,18.184-17.977,18.894c-0.506-5.05-1.062-10.539-1.062-10.539
		s-18.581,19.532-18.6,19.541c-0.35-3.522,10.868-23.18,10.868-23.18l-38.987,15.061H225.27l-15.637-22.22l-15.638,21.397
		l-16.628,0.181l-15.675-17.896l-15.882,18.229l-10.246,0.308L90.819,12.122l25.838,54.542c0,0,12.585,54.384,11.976,54.51
		c-12.341,2.555-25.871,9.142-41.353,20.138l-12.005,8.527l2.971,14.422c0.006,0.021,0.045,0.219,0.045,0.633
		c0,0.69-0.108,1.969-0.666,3.967c-7.467,26.779-29.515,78.689-65.523,154.296c-4.723,9.923-7.898,17.902-9.711,24.396
		c-1.021,3.663-1.446,6.993-1.446,10c0,9.537,4.275,15.825,7.339,19.103c5.111,5.464,14.682,11.253,31.265,7.819
		c10.142-2.111,21.386-7.253,34.381-15.729l8.636-5.619l1.396-10.229c0.508-3.695,0.966-5.733,1.26-6.788
		c0.398-1.429,1.379-4.366,3.502-9.915c14.363,32.542,37.669,31.849,47.542,29.796c18.106-3.751,32.521-16.501,44.051-38.678
		c1.693-0.974,3.418-2.053,5.156-3.234c5.037,2.085,11.559,3.107,20.185,1.331c6.068-1.246,12.559-3.49,19.285-6.66
		c0,0,12.005-5.672,12.364-5.839c4.271,1.939,9.825,3.156,16.907,2.335c3.486,4.686,9.459,9.81,19.754,12.605
		c10.604,2.862,21.469,3.178,32.325,0.956c12.881-2.647,25.195-8.161,36.59-16.378c9.918-7.155,18.733-16.029,26.377-26.271
		c11.175,4.236,23.645,1.776,29.279,0.616c16.28-3.348,31.175-10.977,44.262-22.676c13.191-11.798,22.47-26.172,27.566-42.729
		c1.677-5.436,2.526-10.689,2.526-15.626c0-4.803-0.863-9.277-2.414-13.469c2.604-2.143,5.206-4.281,5.206-4.281
		c11.865-9.755,19.077-19.207,22.063-28.892c0.878-2.852,1.306-5.723,1.306-8.547C499.053,144.027,496.75,137.809,492.369,132.981z"
		/>
	<path fill="#AAABAB" d="M317.417,186.791c-0.623,0.72-1.217,1.457-1.814,2.184c0.223-4.319-0.573-9.255-4.208-13.259
		c-2.965-3.259-8.655-6.706-18.942-4.593c-7.785,1.598-16.126,6.601-25.341,15.278c-0.329-0.451-0.657-0.917-0.998-1.287
		c-2.646-2.912-7.721-5.989-16.902-4.104c-4.377,0.902-9.401,2.763-15.233,5.635c3.914-6.343,6.244-10.91,7.297-14.323
		c0.719-2.349,1.024-4.436,1.024-6.279c0-4.479-1.766-7.557-3.549-9.522c-1.166-1.281-2.51-2.296-4.024-3.045h48.091h9.597h34.003
		h23.14h17.646c0,0,2.701-6.964,2.715-7.005c2.279,0,2.598,0,4.876,0c0.015,0.046,2.726,7.005,2.726,7.005h7.756
		c-2.35,0.896-4.511,2.053-6.489,3.422c-4.934-1.32-10.411-1.375-16.377-0.152C346.795,159.952,331.657,170.062,317.417,186.791z
		 M317.997,273.806c-3.425,3.688-6.984,5.864-10.891,6.67c-2.684,0.553-4.912,0.988-6.752-2.738c2.317,0.27,4.982,0.184,8.054-0.449
		c3.075-0.63,6.306-1.844,9.695-3.595C318.072,273.725,318.033,273.782,317.997,273.806z M152.683,154.673
		c0.115-0.41,0.205-0.805,0.296-1.199h20.54c-10.32,9.371-21.847,20.245-34.168,32.888
		C149.484,164.412,151.824,157.759,152.683,154.673z M141.199,238.377c10.635-12.563,19.104-23.341,26.002-32.131
		c7.962-10.153,14.254-18.169,19.638-23.478c2.086-2.056,5.128-4.76,8.657-7.799c-1.25,2.725-2.079,4.783-2.579,6.403
		c-0.531,1.718-0.745,3.288-0.745,4.708c0,3.229,1.116,5.652,2.164,7.228c-3.59,1.432-7.412,3.273-11.531,5.56l-5.881,3.266
		l0.589,6.706c0.026,0.308,0.043,0.619,0.043,0.934c0,1.374-0.25,2.874-0.742,4.474c-2.339,7.575-8.307,21.065-17.748,40.089
		c-4.113,8.288-7.57,15.528-10.419,21.819C146.011,267.688,143.361,255.618,141.199,238.377z M423.068,153.474
		c-0.971,0.789-1.926,1.599-2.87,2.447c-0.194,0.173-0.379,0.359-0.577,0.536l-8.801-2.983h7.888H423.068z M483.331,141.177
		c-6.257-6.897-17.409-5.704-27.491-3.632c-4.402,0.902-8.681,2.217-12.835,3.919c0-6.943,0-15.244,0-20.11
		c3.252,0,17.166,0,17.166,0V90.126h-10.358H388.36h-0.142h-6.384h-25.106l-8.009,16.749V90.126h-10.368h-45.938h-9.597h-0.765
		h-43.936h-13.7h-4.941h-88.907l11.561,42.448c-3.781-1.116-4.409-0.824-11.018,0.543c-10.66,2.211-22.687,8.148-36.762,18.141
		l-5.517,3.917l1.366,6.621c0.582,2.829,0.305,6.308-0.819,10.344c-7.65,27.432-29.94,80.009-66.266,156.267
		c-4.41,9.271-7.346,16.604-8.97,22.425c-2.525,9.049,0.269,14.509,3.054,17.492c4.324,4.625,11.011,6.037,19.871,4.2
		c8.617-1.794,18.493-6.366,30.193-13.996l3.97-2.583l0.64-4.696c0.481-3.506,1.018-6.344,1.602-8.425
		c1.256-4.515,5.495-16.033,17.406-44.043c1.549,9.194,3.609,17.722,6.24,25.461c9.808,28.879,25.354,32.148,36.67,29.8
		c15.067-3.125,27.357-14.785,37.402-35.563c3.568-1.787,7.296-4.158,11.229-7.134l2.594-1.961
		c3.997,4.359,10.112,5.736,18.182,4.069c5.122-1.048,10.686-2.982,16.54-5.739l5.767-2.726l0.171-6.369
		c0.045-1.624,0.239-3.032,0.563-4.087c1.259-4.091,4.089-10.599,10.124-20.648c-0.486,1.395-0.986,2.816-1.38,4.098
		c-1.035,3.341-1.55,6.405-1.55,9.179c0,4.474,1.334,8.196,3.997,11.126c2.84,3.129,8.286,6.438,18.105,4.417
		c1.791-0.371,3.609-0.892,5.46-1.571c0.365,1.995,1.044,3.655,1.752,4.939c2.611,4.75,7.466,8.117,14.424,10.004
		c8.726,2.36,17.692,2.622,26.666,0.778c11.187-2.296,21.919-7.115,31.916-14.324c9.743-7.038,18.391-15.86,25.713-26.246
		c1.368-1.939,2.88-4.345,4.546-7.219c0.407,0.588,0.815,1.101,1.192,1.521c6.898,7.594,19.06,6.253,28.88,4.235
		c14.147-2.904,27.124-9.571,38.589-19.82c11.504-10.29,19.601-22.816,24.035-37.229c1.327-4.289,1.988-8.303,1.988-12.031
		c0-5.814-1.61-10.925-4.83-15.275l-0.693-0.936l-10.871-9.326c-0.103-0.096-0.163-0.156-0.219-0.219
		c0.018-0.106,0.041-0.212,0.091-0.396c1.83-5.933,4.374-7.393,6.084-7.906c0.371,0.51,0.905,1.377,1.543,2.896l5.39,12.833
		l10.743-8.841c9.957-8.19,15.902-15.735,18.156-23.063C487.737,150.148,486.735,144.925,483.331,141.177z"/>
	<path fill="#AAABAB" d="M368.558,59.11c11.515-8.497,18.327-22.941,18.6-23.458l6.8-13.33l-15.838,2.774l-32.414,4.783
		c0,0-5.316,5.525-5.316,4.816c0-3.556-3.155-18.109-3.155-18.109l-17.05,16.996c-0.467-0.437-0.089,0.368-0.743,0l-2.222-8.498
		l-19.237,19.439l-0.884-9.199l-18.961,20.756l-1.11-11.582l-12.166,13.318l-7.435,8.143l-0.867-9.02l-12.164,13.316L227.666,88.57
		l-1.04,11.508c-0.44,5.117,2.249,9.418,7.188,11.543c0.02,0.005,0.362,0.134,0.925,0.308c-0.214,1.571-0.163,3.248,0.363,4.947
		c1.001,3.284,3.529,5.887,7.11,7.329c0.028,0.007,11.439,4.533,11.439,4.533l43.546-8.949l-8.153-4.942l29.548-6.076l-10.467-6.338
		l28.557-5.867l-8.319-5.043l31.304-6.449l-10.213-6.177l28.068-5.771l-15.744-9.535C361.714,63.556,367.405,60.255,368.558,59.11z"
		/>
	<path fill="#E6BF2E" d="M343.929,41.769c8.79-1.876,31.03-5.453,31.03-5.453s-5.68,11.02-16.118,18.208
		c0,0-6.444,6.644-14.428,7.73c0,0-20.104,0.683-15.263-5.101C329.151,57.153,335.146,43.637,343.929,41.769z"/>
	<path fill="none" stroke="#010101" stroke-width="7.7262" d="M343.929,41.769c8.79-1.876,31.03-5.453,31.03-5.453
		s-5.68,11.02-16.118,18.208c0,0-6.444,6.644-14.428,7.73c0,0-20.104,0.683-15.263-5.101
		C329.151,57.153,335.146,43.637,343.929,41.769z"/>
	<path fill="#E6BF2E" d="M330.404,76.406l21.586-4.253c0,0-8.62-5.004-18.365-6.657c0,0-7.05-2.3-12.464-1.022
		c0,0-5.038,6.472,0.623,8.652L330.404,76.406z"/>
	<path fill="none" stroke="#010101" stroke-width="7.2911" d="M330.404,76.406l21.586-4.253c0,0-8.62-5.004-18.365-6.657
		c0,0-7.05-2.3-12.464-1.022c0,0-5.038,6.472,0.623,8.652L330.404,76.406z"/>
	<path fill="#E6BF2E" d="M313.46,87.305l21.593-4.266c0,0-8.612-5-18.361-6.652c0,0-7.053-2.298-12.464-1.018
		c0,0-5.042,6.467,0.62,8.649L313.46,87.305z"/>
	<path fill="none" stroke="#010101" stroke-width="7.2911" d="M313.46,87.305l21.593-4.266c0,0-8.612-5-18.361-6.652
		c0,0-7.053-2.298-12.464-1.018c0,0-5.042,6.467,0.62,8.649L313.46,87.305z"/>
	<path fill="#E6BF2E" d="M291.673,97.749l21.586-4.266c0,0-8.61-5.009-18.363-6.652c0,0-7.048-2.3-12.466-1.019
		c0,0-5.043,6.47,0.63,8.652L291.673,97.749z"/>
	<path fill="none" stroke="#010101" stroke-width="7.2911" d="M291.673,97.749l21.586-4.266c0,0-8.61-5.009-18.363-6.652
		c0,0-7.048-2.3-12.466-1.019c0,0-5.043,6.47,0.63,8.652L291.673,97.749z"/>
	<path fill="#E6BF2E" d="M254.22,118.891l21.585-4.255c0,0-8.612-5.011-18.364-6.666c0,0-7.052-2.293-12.462-1.01
		c0,0-5.044,6.471,0.617,8.648L254.22,118.891z"/>
	<path fill="none" stroke="#010101" stroke-width="7.2911" d="M254.22,118.891l21.585-4.255c0,0-8.612-5.011-18.364-6.666
		c0,0-7.052-2.293-12.462-1.01c0,0-5.044,6.471,0.617,8.648L254.22,118.891z"/>
	<path fill="#E6BF2E" d="M313.765,51.729l14.317-15.047c0,0,0.921,9.139-2.01,17.613c0,0-1.03,6.639-4.819,10.307
		c0,0-8.762,0.958-8.273-4.531L313.765,51.729z"/>
	<path fill="none" stroke="#010101" stroke-width="7.2911" d="M313.765,51.729l14.317-15.047c0,0,0.921,9.139-2.01,17.613
		c0,0-1.03,6.639-4.819,10.307c0,0-8.762,0.958-8.273-4.531L313.765,51.729z"/>
	<path fill="#E6BF2E" d="M295.06,60l14.324-15.048c0,0,0.912,9.14-2.01,17.612c0,0-1.026,6.639-4.827,10.313
		c0,0-8.762,0.956-8.266-4.539L295.06,60z"/>
	<path fill="none" stroke="#010101" stroke-width="7.2911" d="M295.06,60l14.324-15.048c0,0,0.912,9.14-2.01,17.612
		c0,0-1.026,6.639-4.827,10.313c0,0-8.762,0.956-8.266-4.539L295.06,60z"/>
	<path fill="#E6BF2E" d="M274.536,72.315l14.317-15.043c0,0,0.92,9.137-2.011,17.607c0,0-1.021,6.642-4.827,10.318
		c0,0-8.758,0.954-8.262-4.542L274.536,72.315z"/>
	<path fill="none" stroke="#010101" stroke-width="7.2911" d="M274.536,72.315l14.317-15.043c0,0,0.92,9.137-2.011,17.607
		c0,0-1.021,6.642-4.827,10.318c0,0-8.758,0.954-8.262-4.542L274.536,72.315z"/>
	<path fill="#E6BF2E" d="M255.497,80.668l14.318-15.044c0,0,0.92,9.135-2.01,17.61c0,0-1.023,6.64-4.823,10.315
		c0,0-8.762,0.954-8.271-4.536L255.497,80.668z"/>
	<path fill="none" stroke="#010101" stroke-width="7.2911" d="M255.497,80.668l14.318-15.044c0,0,0.92,9.135-2.01,17.61
		c0,0-1.023,6.64-4.823,10.315c0,0-8.762,0.954-8.271-4.536L255.497,80.668z"/>
	<path fill="#E6BF2E" d="M330.404,76.406l21.586-4.253c0,0-8.62-5.004-18.365-6.657c0,0-7.05-2.3-12.464-1.022
		c0,0-5.038,6.472,0.623,8.652L330.404,76.406z"/>
	<path fill="none" stroke="#E6BF2E" stroke-width="0.6508" d="M330.404,76.406l21.586-4.253c0,0-8.62-5.004-18.365-6.657
		c0,0-7.05-2.3-12.464-1.022c0,0-5.038,6.472,0.623,8.652L330.404,76.406z"/>
	<path fill="#E6BF2E" d="M313.46,87.305l21.593-4.266c0,0-7.317-3.712-18.361-6.652c0,0-7.053-2.298-12.464-1.018
		c0,0-5.042,6.467,0.62,8.649L313.46,87.305z"/>
	<path fill="none" stroke="#E6BF2E" stroke-width="0.6508" d="M313.46,87.305l21.593-4.266c0,0-7.317-3.712-18.361-6.652
		c0,0-7.053-2.298-12.464-1.018c0,0-5.042,6.467,0.62,8.649L313.46,87.305z"/>
	<path fill="#E6BF2E" d="M293.018,97.229l20.241-3.746c0,0-8.306-4.39-18.363-6.652c0,0-7.048-2.3-12.466-1.019
		c0,0-5.043,6.47,0.63,8.652L293.018,97.229z"/>
	<path fill="none" stroke="#E6BF2E" stroke-width="0.6508" d="M293.018,97.229l20.241-3.746c0,0-8.306-4.39-18.363-6.652
		c0,0-7.048-2.3-12.466-1.019c0,0-5.043,6.47,0.63,8.652L293.018,97.229z"/>
	<path fill="#E6BF2E" d="M244.979,106.96c0,0-5.044,6.471,0.617,8.648"/>
	<path fill="#E6BF2E" d="M224.941,181.564c-5.726,3.655-10.619,5.909-14.696,6.743c-6.139,1.263-8.614-0.03-7.424-3.886
		c0.4-1.3,1.229-3.3,2.493-5.996c1.256-2.696,2.091-4.703,2.495-6c0.272-0.887,0.301-1.894,0.09-3.024
		c6.66-3.656,12.031-5.91,16.111-6.747c6.687-1.375,9.143,0.829,7.358,6.611C230.583,171.817,228.437,175.918,224.941,181.564z
		 M187.836,207.93c7.109-3.948,13.241-6.451,18.396-7.506c6.928-1.425,9.465,0.875,7.606,6.909c-0.833,2.71-2.291,6.1-4.372,10.18
		c-18.075,35.334-29.008,59.138-32.793,71.414c-1.831,5.935-2.001,10.651-0.504,14.158c-6.473,4.895-12.19,7.849-17.152,8.871
		c-8.924,1.837-11.934-1.956-9.032-11.37c2.518-8.174,8.638-22.056,18.366-41.646c9.717-19.587,15.846-33.469,18.363-41.64
		C187.723,214.025,188.094,210.9,187.836,207.93z"/>
	<path fill="none" stroke="#010101" stroke-width="7.7278" d="M224.941,181.564c-5.726,3.655-10.619,5.909-14.696,6.743
		c-6.139,1.263-8.614-0.03-7.424-3.886c0.4-1.3,1.229-3.3,2.493-5.996c1.256-2.696,2.091-4.703,2.495-6
		c0.272-0.887,0.301-1.894,0.09-3.024c6.66-3.656,12.031-5.91,16.111-6.747c6.687-1.375,9.143,0.829,7.358,6.611
		C230.583,171.817,228.437,175.918,224.941,181.564z M187.836,207.93c7.109-3.948,13.241-6.451,18.396-7.506
		c6.928-1.425,9.465,0.875,7.606,6.909c-0.833,2.71-2.291,6.1-4.372,10.18c-18.075,35.334-29.008,59.138-32.793,71.414
		c-1.831,5.935-2.001,10.651-0.504,14.158c-6.473,4.895-12.19,7.849-17.152,8.871c-8.924,1.837-11.934-1.956-9.032-11.37
		c2.518-8.174,8.638-22.056,18.366-41.646c9.717-19.587,15.846-33.469,18.363-41.64C187.723,214.025,188.094,210.9,187.836,207.93z"
		/>
	<path fill="#E6BF2E" d="M243.776,231.52c21.081-30.879,38-47.626,50.757-50.248c9.686-1.993,12.807,2.583,9.374,13.71
		c-2.435,7.909-7.813,20.202-16.122,36.869c-8.303,16.668-13.681,28.975-16.136,36.934c-1.976,6.397-2.252,11.345-0.821,14.861
		c-6.448,4.888-12.237,7.85-17.38,8.908c-8.628,1.769-11.483-2.066-8.571-11.523c2.16-6.992,5.757-15.838,10.813-26.532
		c12.731-26.947,19.505-41.722,20.305-44.328c0.881-2.863,0.545-4.134-1.012-3.813c-2.98,0.612-12.634,12.138-28.959,34.58
		c-16.331,22.436-26.228,39.275-29.686,50.533c-0.614,1.981-0.952,4.271-1.024,6.864c-5.123,2.421-9.854,4.073-14.205,4.969
		c-7.873,1.62-10.817-0.793-8.825-7.255c1.024-3.326,2.895-7.657,5.612-12.994l6.604-13.05
		c15.989-32.23,25.607-53.604,28.846-64.118c0.881-2.859,1.243-5.464,1.086-7.826c6.818-3.686,12.443-5.99,16.865-6.899
		c6.98-1.437,9.446,1.143,7.422,7.737C257.592,202.544,252.61,213.419,243.776,231.52z"/>
	<path fill="none" stroke="#010101" stroke-width="7.7278" d="M243.776,231.52c21.081-30.879,38-47.626,50.757-50.248
		c9.686-1.993,12.807,2.583,9.374,13.71c-2.435,7.909-7.813,20.202-16.122,36.869c-8.303,16.668-13.681,28.975-16.136,36.934
		c-1.976,6.397-2.252,11.345-0.821,14.861c-6.448,4.888-12.237,7.85-17.38,8.908c-8.628,1.769-11.483-2.066-8.571-11.523
		c2.16-6.992,5.757-15.838,10.813-26.532c12.731-26.947,19.505-41.722,20.305-44.328c0.881-2.863,0.545-4.134-1.012-3.813
		c-2.98,0.612-12.634,12.138-28.959,34.58c-16.331,22.436-26.228,39.275-29.686,50.533c-0.614,1.981-0.952,4.271-1.024,6.864
		c-5.123,2.421-9.854,4.073-14.205,4.969c-7.873,1.62-10.817-0.793-8.825-7.255c1.024-3.326,2.895-7.657,5.612-12.994l6.604-13.05
		c15.989-32.23,25.607-53.604,28.846-64.118c0.881-2.859,1.243-5.464,1.086-7.826c6.818-3.686,12.443-5.99,16.865-6.899
		c6.98-1.437,9.446,1.143,7.422,7.737C257.592,202.544,252.61,213.419,243.776,231.52z"/>
	<path fill="#E6BF2E" d="M271.502,295.424c-1.589,5.155,1.206,8.702,8.377,10.651c7.172,1.938,14.469,2.145,21.876,0.627
		c9.781-2.011,19.091-6.203,27.934-12.581c8.844-6.38,16.606-14.313,23.306-23.812c6.695-9.497,17.807-32.325,33.334-68.49
		c7.347-17.165,14.145-30.095,20.384-38.796c-4.658-1.577-9.456-1.856-14.402-0.841c-4.955,1.012-8.773,3.267-11.48,6.75
		c-4.36-2.702-9.803-3.38-16.338-2.042c-13.357,2.751-26.423,11.619-39.188,26.616c-12.767,15-21.837,31.222-27.215,48.678
		c-5.847,18.964-3.104,27.283,8.234,24.954c11.291-2.324,27.188-16.107,47.698-41.363c-14.061,31.463-23.54,49.828-28.431,55.094
		c-4.897,5.258-10.368,8.515-16.397,9.76c-10.326,2.116-17.029-2.441-20.114-13.681
		C279.356,282.808,273.495,288.962,271.502,295.424z M326.229,241.226c-2.824,0.584-3.342-2.042-1.539-7.88
		c3.675-11.926,8.651-22.906,14.922-32.935c6.267-10.022,12.343-15.641,18.221-16.852c5.658-1.161,9.642,1.877,11.984,9.106
		C348.451,223.455,333.928,239.644,326.229,241.226z"/>
	<path fill="none" stroke="#010101" stroke-width="7.7278" d="M271.502,295.424c-1.589,5.155,1.206,8.702,8.377,10.651
		c7.172,1.938,14.469,2.145,21.876,0.627c9.781-2.011,19.091-6.203,27.934-12.581c8.844-6.38,16.606-14.313,23.306-23.812
		c6.695-9.497,17.807-32.325,33.334-68.49c7.347-17.165,14.145-30.095,20.384-38.796c-4.658-1.577-9.456-1.856-14.402-0.841
		c-4.955,1.012-8.773,3.267-11.48,6.75c-4.36-2.702-9.803-3.38-16.338-2.042c-13.357,2.751-26.423,11.619-39.188,26.616
		c-12.767,15-21.837,31.222-27.215,48.678c-5.847,18.964-3.104,27.283,8.234,24.954c11.291-2.324,27.188-16.107,47.698-41.363
		c-14.061,31.463-23.54,49.828-28.431,55.094c-4.897,5.258-10.368,8.515-16.397,9.76c-10.326,2.116-17.029-2.441-20.114-13.681
		C279.356,282.808,273.495,288.962,271.502,295.424z M326.229,241.226c-2.824,0.584-3.342-2.042-1.539-7.88
		c3.675-11.926,8.651-22.906,14.922-32.935c6.267-10.022,12.343-15.641,18.221-16.852c5.658-1.161,9.642,1.877,11.984,9.106
		C348.451,223.455,333.928,239.644,326.229,241.226z"/>
	<path fill="#E6BF2E" d="M392.409,235.151c-0.318,11.267,3.669,16.051,11.957,14.345c8.422-1.729,14.176-7.587,17.251-17.559
		c1.613-5.252-2.563-12.243-12.548-20.964c-3.121-4.235-3.543-10.049-1.254-17.443c3.571-11.605,10.009-21.568,19.301-29.89
		c9.285-8.319,19.563-13.636,30.808-15.947c14.038-2.886,20.128-1.299,18.26,4.761c-1.628,5.282-6.575,11.318-14.831,18.111
		c-3.036-7.235-7.112-10.33-12.233-9.277c-7.222,1.481-12.173,6.57-14.848,15.249c-1.409,4.584-0.312,8.427,3.294,11.536
		c3.306,2.83,6.632,5.68,9.969,8.555c3.228,4.355,3.645,10.393,1.271,18.093c-3.896,12.651-10.916,23.501-21.041,32.552
		c-10.128,9.06-21.384,14.856-33.767,17.396c-15.849,3.259-22.46,0.615-19.819-7.934
		C376.159,250.303,382.239,243.113,392.409,235.151z"/>
	<path fill="none" stroke="#010101" stroke-width="7.7278" d="M392.409,235.151c-0.318,11.267,3.669,16.051,11.957,14.345
		c8.422-1.729,14.176-7.587,17.251-17.559c1.613-5.252-2.563-12.243-12.548-20.964c-3.121-4.235-3.543-10.049-1.254-17.443
		c3.571-11.605,10.009-21.568,19.301-29.89c9.285-8.319,19.563-13.636,30.808-15.947c14.038-2.886,20.128-1.299,18.26,4.761
		c-1.628,5.282-6.575,11.318-14.831,18.111c-3.036-7.235-7.112-10.33-12.233-9.277c-7.222,1.481-12.173,6.57-14.848,15.249
		c-1.409,4.584-0.312,8.427,3.294,11.536c3.306,2.83,6.632,5.68,9.969,8.555c3.228,4.355,3.645,10.393,1.271,18.093
		c-3.896,12.651-10.916,23.501-21.041,32.552c-10.128,9.06-21.384,14.856-33.767,17.396c-15.849,3.259-22.46,0.615-19.819-7.934
		C376.159,250.303,382.239,243.113,392.409,235.151z"/>
	<polygon fill="#E6BF2E" points="145.53,100.488 161.555,100.488 167.41,124.091 175.794,100.488 191.655,100.488 200.146,124.257 
		206.003,100.488 221.946,100.488 209.893,143.111 193.329,143.111 183.739,116.274 174.204,143.111 157.667,143.111 	"/>
	<polygon fill="none" stroke="#010101" stroke-width="8.6939" points="145.53,100.488 161.555,100.488 167.41,124.091 
		175.794,100.488 191.655,100.488 200.146,124.257 206.003,100.488 221.946,100.488 209.893,143.111 193.329,143.111 
		183.739,116.274 174.204,143.111 157.667,143.111 	"/>
	<polygon fill="#FFFFFF" points="145.53,100.488 161.555,100.488 167.41,124.091 175.794,100.488 191.655,100.488 200.146,124.257 
		206.003,100.488 221.946,100.488 209.893,143.111 193.329,143.111 183.739,116.274 174.204,143.111 157.667,143.111 	"/>
	<path fill="#E6BF2E" d="M61.605,349.853c-10.514,6.851-19.389,11.016-26.639,12.522c-9.401,1.947-13.014-0.966-10.839-8.751
		c1.443-5.188,4.223-12.105,8.344-20.758c36.745-77.149,59.043-129.799,66.89-157.939c1.58-5.674,1.905-10.743,0.983-15.218
		c12.767-9.062,23.724-14.547,32.869-16.446c8.417-1.744,11.579,1.14,9.487,8.636c-1.267,4.551-6.161,15.97-14.679,34.269
		l-23.679,55.281c59.361-73.769,112.117-107.533,123.519-124.633c2.058-3.084,2.377,2.886-3.078,12.514
		c-5.142,9.064-25.047,22.997-45.217,44.126c-21.585,22.607-38.023,44.072-52.411,65.65c-1.026,25.684,20.351,70.42,37.22,66.924
		c0.334-0.067,0.707-0.148,1.118-0.233c-9.23,22.64-20.498,35.341-33.811,38.104c-10.558,2.184-18.805-5.472-24.751-22.995
		c-5.954-17.513-8.962-38.975-9.031-64.393C77.6,302.721,66.134,330.56,63.49,340.043C62.787,342.555,62.152,345.833,61.605,349.853
		z"/>
	<path fill="none" stroke="#010101" stroke-width="7.7278" d="M61.605,349.853c-10.514,6.851-19.389,11.016-26.639,12.522
		c-9.401,1.947-13.014-0.966-10.839-8.751c1.443-5.188,4.223-12.105,8.344-20.758c36.745-77.149,59.043-129.799,66.89-157.939
		c1.58-5.674,1.905-10.743,0.983-15.218c12.767-9.062,23.724-14.547,32.869-16.446c8.417-1.744,11.579,1.14,9.487,8.636
		c-1.267,4.551-6.161,15.97-14.679,34.269l-23.679,55.281c59.361-73.769,112.117-107.533,123.519-124.633
		c2.058-3.084,2.377,2.886-3.078,12.514c-5.142,9.064-25.047,22.997-45.217,44.126c-21.585,22.607-38.023,44.072-52.411,65.65
		c-1.026,25.684,20.351,70.42,37.22,66.924c0.334-0.067,0.707-0.148,1.118-0.233c-9.23,22.64-20.498,35.341-33.811,38.104
		c-10.558,2.184-18.805-5.472-24.751-22.995c-5.954-17.513-8.962-38.975-9.031-64.393C77.6,302.721,66.134,330.56,63.49,340.043
		C62.787,342.555,62.152,345.833,61.605,349.853z"/>
	<path fill="#E6BF2E" d="M224.941,181.564c-5.726,3.655-10.619,5.909-14.696,6.743c-6.139,1.263-8.614-0.03-7.424-3.886
		c0.4-1.3,1.229-3.3,2.493-5.996c1.256-2.696,2.091-4.703,2.495-6c0.272-0.887,0.301-1.894,0.09-3.024
		c6.66-3.656,12.031-5.91,16.111-6.747c6.687-1.375,9.143,0.829,7.358,6.611C230.583,171.817,228.437,175.918,224.941,181.564z
		 M187.836,207.93c7.109-3.948,13.241-6.451,18.396-7.506c6.928-1.425,9.465,0.875,7.606,6.909c-0.833,2.71-2.291,6.1-4.372,10.18
		c-18.075,35.334-29.008,59.138-32.793,71.414c-1.831,5.935-2.001,10.651-0.504,14.158c-6.473,4.895-12.19,7.849-17.152,8.871
		c-8.924,1.837-11.934-1.956-9.032-11.37c2.518-8.174,8.638-22.056,18.366-41.646c9.717-19.587,15.846-33.469,18.363-41.64
		C187.723,214.025,188.094,210.9,187.836,207.93z"/>
	<path fill="none" stroke="#E6BF2E" stroke-width="0.6508" d="M224.941,181.564c-5.726,3.655-10.619,5.909-14.696,6.743
		c-6.139,1.263-8.614-0.03-7.424-3.886c0.4-1.3,1.229-3.3,2.493-5.996c1.256-2.696,2.091-4.703,2.495-6
		c0.272-0.887,0.301-1.894,0.09-3.024c6.66-3.656,12.031-5.91,16.111-6.747c6.687-1.375,9.143,0.829,7.358,6.611
		C230.583,171.817,228.437,175.918,224.941,181.564z M187.836,207.93c7.109-3.948,13.241-6.451,18.396-7.506
		c6.928-1.425,9.465,0.875,7.606,6.909c-0.833,2.71-2.291,6.1-4.372,10.18c-18.075,35.334-29.008,59.138-32.793,71.414
		c-1.831,5.935-2.001,10.651-0.504,14.158c-6.473,4.895-12.19,7.849-17.152,8.871c-8.924,1.837-11.934-1.956-9.032-11.37
		c2.518-8.174,8.638-22.056,18.366-41.646c9.717-19.587,15.846-33.469,18.363-41.64C187.723,214.025,188.094,210.9,187.836,207.93z"
		/>
	<path fill="#E6BF2E" d="M243.776,231.52c21.081-30.879,38-47.626,50.757-50.248c9.686-1.993,12.807,2.583,9.374,13.71
		c-2.435,7.909-7.813,20.202-16.122,36.869c-8.303,16.668-13.681,28.975-16.136,36.934c-1.976,6.397-2.252,11.345-0.821,14.861
		c-6.448,4.888-12.237,7.85-17.38,8.908c-8.628,1.769-11.483-2.066-8.571-11.523c2.16-6.992,5.757-15.838,10.813-26.532
		c12.731-26.947,19.505-41.722,20.305-44.328c0.881-2.863,0.545-4.134-1.012-3.813c-2.98,0.612-12.634,12.138-28.959,34.58
		c-16.331,22.436-26.228,39.275-29.686,50.533c-0.614,1.981-0.952,4.271-1.024,6.864c-5.123,2.421-9.854,4.073-14.205,4.969
		c-7.873,1.62-10.817-0.793-8.825-7.255c1.024-3.326,2.895-7.657,5.612-12.994l6.604-13.05
		c15.989-32.23,25.607-53.604,28.846-64.118c0.881-2.859,1.243-5.464,1.086-7.826c6.818-3.686,12.443-5.99,16.865-6.899
		c6.98-1.437,9.446,1.143,7.422,7.737C257.592,202.544,252.61,213.419,243.776,231.52z"/>
	<path fill="none" stroke="#E6BF2E" stroke-width="0.6508" d="M243.776,231.52c21.081-30.879,38-47.626,50.757-50.248
		c9.686-1.993,12.807,2.583,9.374,13.71c-2.435,7.909-7.813,20.202-16.122,36.869c-8.303,16.668-13.681,28.975-16.136,36.934
		c-1.976,6.397-2.252,11.345-0.821,14.861c-6.448,4.888-12.237,7.85-17.38,8.908c-8.628,1.769-11.483-2.066-8.571-11.523
		c2.16-6.992,5.757-15.838,10.813-26.532c12.731-26.947,19.505-41.722,20.305-44.328c0.881-2.863,0.545-4.134-1.012-3.813
		c-2.98,0.612-12.634,12.138-28.959,34.58c-16.331,22.436-26.228,39.275-29.686,50.533c-0.614,1.981-0.952,4.271-1.024,6.864
		c-5.123,2.421-9.854,4.073-14.205,4.969c-7.873,1.62-10.817-0.793-8.825-7.255c1.024-3.326,2.895-7.657,5.612-12.994l6.604-13.05
		c15.989-32.23,25.607-53.604,28.846-64.118c0.881-2.859,1.243-5.464,1.086-7.826c6.818-3.686,12.443-5.99,16.865-6.899
		c6.98-1.437,9.446,1.143,7.422,7.737C257.592,202.544,252.61,213.419,243.776,231.52z"/>
	<path fill="#E6BF2E" d="M271.502,295.424c-1.589,5.155,1.206,8.702,8.377,10.651c7.172,1.938,14.469,2.145,21.876,0.627
		c9.781-2.011,19.091-6.203,27.934-12.581c8.844-6.38,16.606-14.313,23.306-23.812c6.695-9.497,17.807-32.325,33.334-68.49
		c7.347-17.165,14.145-30.095,20.384-38.796c-4.658-1.577-9.456-1.856-14.402-0.841c-4.955,1.012-8.773,3.267-11.48,6.75
		c-4.36-2.702-9.803-3.38-16.338-2.042c-13.357,2.751-26.423,11.619-39.188,26.616c-12.767,15-21.837,31.222-27.215,48.678
		c-5.847,18.964-3.104,27.283,8.234,24.954c11.291-2.324,27.188-16.107,47.698-41.363c-14.061,31.463-23.54,49.828-28.431,55.094
		c-4.897,5.258-10.368,8.515-16.397,9.76c-10.326,2.116-17.029-2.441-20.114-13.681
		C279.356,282.808,273.495,288.962,271.502,295.424z M326.229,241.226c-2.824,0.584-3.342-2.042-1.539-7.88
		c3.675-11.926,8.651-22.906,14.922-32.935c6.267-10.022,12.343-15.641,18.221-16.852c5.658-1.161,9.642,1.877,11.984,9.106
		C348.451,223.455,333.928,239.644,326.229,241.226z"/>
	<path fill="none" stroke="#E6BF2E" stroke-width="0.6508" d="M271.502,295.424c-1.589,5.155,1.206,8.702,8.377,10.651
		c7.172,1.938,14.469,2.145,21.876,0.627c9.781-2.011,19.091-6.203,27.934-12.581c8.844-6.38,16.606-14.313,23.306-23.812
		c6.695-9.497,17.807-32.325,33.334-68.49c7.347-17.165,14.145-30.095,20.384-38.796c-4.658-1.577-9.456-1.856-14.402-0.841
		c-4.955,1.012-8.773,3.267-11.48,6.75c-4.36-2.702-9.803-3.38-16.338-2.042c-13.357,2.751-26.423,11.619-39.188,26.616
		c-12.767,15-21.837,31.222-27.215,48.678c-5.847,18.964-3.104,27.283,8.234,24.954c11.291-2.324,27.188-16.107,47.698-41.363
		c-14.061,31.463-23.54,49.828-28.431,55.094c-4.897,5.258-10.368,8.515-16.397,9.76c-10.326,2.116-17.029-2.441-20.114-13.681
		C279.356,282.808,273.495,288.962,271.502,295.424z M326.229,241.226c-2.824,0.584-3.342-2.042-1.539-7.88
		c3.675-11.926,8.651-22.906,14.922-32.935c6.267-10.022,12.343-15.641,18.221-16.852c5.658-1.161,9.642,1.877,11.984,9.106
		C348.451,223.455,333.928,239.644,326.229,241.226z"/>
	<path fill="#E6BF2E" d="M392.409,235.151c-0.318,11.267,3.669,16.051,11.957,14.345c8.422-1.729,14.176-7.587,17.251-17.559
		c1.613-5.252-2.563-12.243-12.548-20.964c-3.121-4.235-3.543-10.049-1.254-17.443c3.571-11.605,10.009-21.568,19.301-29.89
		c9.285-8.319,19.563-13.636,30.808-15.947c14.038-2.886,20.128-1.299,18.26,4.761c-1.628,5.282-6.575,11.318-14.831,18.111
		c-3.036-7.235-7.112-10.33-12.233-9.277c-7.222,1.481-12.173,6.57-14.848,15.249c-1.409,4.584-0.312,8.427,3.294,11.536
		c3.306,2.83,6.632,5.68,9.969,8.555c3.228,4.355,3.645,10.393,1.271,18.093c-3.896,12.651-10.916,23.501-21.041,32.552
		c-10.128,9.06-21.384,14.856-33.767,17.396c-15.849,3.259-22.46,0.615-19.819-7.934
		C376.159,250.303,382.239,243.113,392.409,235.151z"/>
	<path fill="none" stroke="#E6BF2E" stroke-width="0.6508" d="M392.409,235.151c-0.318,11.267,3.669,16.051,11.957,14.345
		c8.422-1.729,14.176-7.587,17.251-17.559c1.613-5.252-2.563-12.243-12.548-20.964c-3.121-4.235-3.543-10.049-1.254-17.443
		c3.571-11.605,10.009-21.568,19.301-29.89c9.285-8.319,19.563-13.636,30.808-15.947c14.038-2.886,20.128-1.299,18.26,4.761
		c-1.628,5.282-6.575,11.318-14.831,18.111c-3.036-7.235-7.112-10.33-12.233-9.277c-7.222,1.481-12.173,6.57-14.848,15.249
		c-1.409,4.584-0.312,8.427,3.294,11.536c3.306,2.83,6.632,5.68,9.969,8.555c3.228,4.355,3.645,10.393,1.271,18.093
		c-3.896,12.651-10.916,23.501-21.041,32.552c-10.128,9.06-21.384,14.856-33.767,17.396c-15.849,3.259-22.46,0.615-19.819-7.934
		C376.159,250.303,382.239,243.113,392.409,235.151z"/>
	<path fill="#E6BF2E" d="M61.605,349.853c-10.514,6.851-19.389,11.016-26.639,12.522c-9.401,1.947-13.014-0.966-10.839-8.751
		c1.443-5.188,4.223-12.105,8.344-20.758c36.745-77.149,59.043-129.799,66.89-157.939c1.58-5.674,1.905-10.743,0.983-15.218
		c12.767-9.062,23.724-14.547,32.869-16.446c8.417-1.744,11.579,1.14,9.487,8.636c-1.267,4.551-6.161,15.97-14.679,34.269
		l-23.679,55.281c59.361-73.769,112.117-107.533,123.519-124.633c2.058-3.084,30.01-13.12,22.181-5.294
		c-3.08,3.084-71.768,52.284-123.731,126.555c6.169,44.188,21.195,71.449,38.064,67.953c0.334-0.067,0.707-0.148,1.118-0.233
		c-9.23,22.64-20.498,35.341-33.811,38.104c-10.558,2.184-18.805-5.472-24.751-22.995c-5.954-17.513-8.962-38.975-9.031-64.393
		C77.6,302.721,66.134,330.56,63.49,340.043C62.787,342.555,62.152,345.833,61.605,349.853z"/>
	<path fill="none" stroke="#E6BF2E" stroke-width="0.6508" d="M61.605,349.853c-10.514,6.851-19.389,11.016-26.639,12.522
		c-9.401,1.947-13.014-0.966-10.839-8.751c1.443-5.188,4.223-12.105,8.344-20.758c36.745-77.149,59.043-129.799,66.89-157.939
		c1.58-5.674,1.905-10.743,0.983-15.218c12.767-9.062,23.724-14.547,32.869-16.446c8.417-1.744,11.579,1.14,9.487,8.636
		c-1.267,4.551-6.161,15.97-14.679,34.269l-23.679,55.281c59.361-73.769,112.117-107.533,123.519-124.633
		c2.058-3.084,30.01-13.12,22.181-5.294c-3.08,3.084-71.768,52.284-123.731,126.555c6.169,44.188,21.195,71.449,38.064,67.953
		c0.334-0.067,0.707-0.148,1.118-0.233c-9.23,22.64-20.498,35.341-33.811,38.104c-10.558,2.184-18.805-5.472-24.751-22.995
		c-5.954-17.513-8.962-38.975-9.031-64.393C77.6,302.721,66.134,330.56,63.49,340.043C62.787,342.555,62.152,345.833,61.605,349.853
		z"/>
	<path fill="#F7E5AD" d="M139.218,146.869c0,0-3.523-7.054-35.533,13.288c0,0,5.381,13.173-10.037,46.933
		c0,0-55.896,120.285-58.978,127.235c0,0-23.755,42.563,16.439,16.787c0,0-21.594,8.872-9.084-15.227
		c0,0,75.883-156.876,73.825-170.772C115.851,165.113,115.485,153.23,139.218,146.869z"/>
	<path fill="#F7E5AD" d="M225.477,128.152l-0.271-4.615c0,0-80.797,68.571-119.51,120.7l8.223-2.052
		C113.919,242.185,194.447,148.64,225.477,128.152z"/>
	<path fill="#F7E5AD" d="M401.545,164.564c0,0-8.22-4.112-16.448,5.14c0,0,9.258-5.14,12.332,1.024L401.545,164.564z"/>
	<path fill="#F7E5AD" d="M122.861,243.151c0,0-0.844,34.998,23.819,62.752c0,0,22.822,14.848-13.143,32.318
		c0,0,23.988-23.242,11.778-28.002C145.316,310.219,112.584,270.895,122.861,243.151z"/>
	<path fill="#F7E5AD" d="M226.27,164.958l-13.829,5.695l-2.049,6.791C210.392,177.443,212.91,180.37,226.27,164.958z"/>
	<path fill="#F7E5AD" d="M207.358,202.279c0,0-13.118,2.743-16.777,6.71c0.915,2.743,1.828,5.793-0.917,11.897
		c0,0-34.774,74.733-36.604,81.138c0,0,3.932,3.188,5.186,6.405c0,0,10.019-11.366,4.882-13.419c0,0,34.469-81.446,35.688-83.888
		C200.951,207.768,207.358,202.279,207.358,202.279z"/>
	<path fill="#F7E5AD" d="M237.25,203.8c0.819-2.555,0.809-3.814,0.916-4.879c0,0,13.083-6.745,16.167-3.66
		c0,0-7.933,0.611-11.897,9.761l-36.604,80.226c0,0-7.693,13.495,4.27,12.204c0,0-19.521,9.151-14.031-3.97
		C196.071,293.482,229.929,226.678,237.25,203.8z"/>
	<path fill="#F7E5AD" d="M283.616,197.396c0,0,11.176-14.066,14.034-10.98c0,0-3.719,4.388-6.575,10.556l-36.168,79.128
		c0,0-5.149,11.897,7.356,10.368c0,0-17.953,8.482-15.249-3.05C247.014,283.417,282.667,207.672,283.616,197.396z"/>
	<path fill="#F7E5AD" d="M301.917,186.716c0,0-9.307-16.464-49.39,35.945c-0.003,0,23.104-25.69,30.826-25.69
		c0,0,6.229-0.144,11.554-7.201C298.584,184.883,301.917,186.716,301.917,186.716z"/>
	<path fill="#F7E5AD" d="M379.705,169.943l-7.969,8.524c0,0-18.841-24.794-63.986,50.25
		C307.75,228.717,334.558,159.874,379.705,169.943z"/>
	<path fill="#F7E5AD" d="M467.555,160.182c0,0,10.984-9.457,4.887-11.513c0,0-33.256-6.178-57.659,34.693
		c0,0,26.237-30.501,49.723-30.197C464.505,153.165,469.608,152.99,467.555,160.182z"/>
	<path fill="#F7E5AD" d="M429.147,179.129c0,0-6.016,11.671,7.41,20.521c0,0,11.175,7.813,4.463,18.185
		c0,0,13.726-11.593-3.355-24.403C436.5,192.86,431.425,191.099,429.147,179.129z"/>
	<path fill="#F7E5AD" d="M424.85,224.542c0,0,1.83,14.947-13.418,24.714c0,0-20.747,12.201-21.353-9.456
		c0,0-13.729,10.978-13.122,20.128c0.291,4.346,7.627,1.222,7.627,1.222s-9.36-0.344,1.932-8.341
		c1.013-0.711,17.896,13.015,34.166-7.318C420.682,245.49,427.597,238.576,424.85,224.542z"/>
	<path fill="#F7E5AD" d="M323.273,287.077c0,0-10.371,9.76-23.794,6.405c-5.085-1.119-7.683-3.638-11.592-12.506
		c0,0-10.368,5.998-11.186,16.575c-0.524,6.86,8.944,6.504,8.944,6.504s-5.689-4.88,0-10.573c0.461-0.46,5.295,4.883,15.055,5.492
		c7.321,0.304,19.93-0.609,33.752-18.507c0,0,18.712-20.341,22.781-56.941C357.234,223.526,346.657,270.707,323.273,287.077z"/>
	<path fill="#F7E5AD" d="M324.848,199.078c0,0-38.756,56.993-20.744,62.364c0,0,7.24-1.712,16.187-8.217
		c0,0-12.541,4.559-11.972-7.409C307.75,233.275,313.46,226.413,324.848,199.078z"/>
	<path fill="#F7E5AD" d="M102.571,254.365c0,0,1.73,87.278,24.507,83.209l5.129-11.398
		C132.207,326.175,108.27,322.187,102.571,254.365z"/>
	<path fill="#F7E5AD" d="M324.286,289.136c0,0,25.068-31.926,33.617-66.12c0,0,7.421-10.251,15.967-21.649
		c0,0-23.543,64.16-39.417,79.101L324.286,289.136z"/>
	<path fill="#F7E5AD" d="M415.466,183.689c0,0-5.697,13.113,3.419,21.658c0,0,8.549,10.828,5.7,18.239c0,0-5.128-8.55-9.686-12.535
		C414.9,211.051,401.793,204.778,415.466,183.689z"/>
	<path fill="#F7E5AD" d="M368.162,197.937c0,0-31.347,49.015-46.165,45.026c0,0-1.141,3.419-3.989,4.561
		C318.007,247.524,333.398,258.349,368.162,197.937z"/>
	<rect x="126.768" y="62.843" fill="#010101" width="121.127" height="28.778"/>
	<rect x="126.768" y="62.843" fill="none" stroke="#010101" stroke-width="2.1519" width="121.127" height="28.778"/>
	<rect x="145.863" y="69.518" fill="#E6BF2E" width="71.47" height="16.608"/>
	<rect x="145.863" y="69.518" fill="none" stroke="#010101" stroke-width="6.5652" width="71.47" height="16.608"/>
	<rect x="145.863" y="69.518" fill="#E6BF2E" width="71.47" height="16.608"/>
	<rect x="128.874" y="69.518" fill="#E6BF2E" width="115.36" height="18.256"/>
	<rect x="128.874" y="69.518" fill="none" stroke="#E6BF2E" stroke-width="0.6508" width="115.36" height="18.256"/>
	<polygon fill="#E6BF2E" points="238.43,41.327 220.753,41.327 209.473,25.277 198.757,40.494 185.733,41.265 172.71,40.494 
		161.996,25.277 150.714,41.327 133.037,41.327 108.973,31.388 129.367,66.02 183.096,66.02 188.369,66.02 242.1,66.02 
		262.49,31.388 	"/>
	<polygon fill="none" stroke="#E6BF2E" stroke-width="0.6508" points="238.43,41.327 220.753,41.327 209.473,25.277 198.757,40.494 
		185.733,41.265 172.71,40.494 161.996,25.277 150.712,41.327 133.037,41.327 108.973,31.388 129.367,66.02 183.096,66.02 
		188.369,66.02 242.1,66.02 262.49,31.388 	"/>
	<path fill="#F7E5AD" d="M165.134,41.997l-4.045-11.623l-8.206,14.098l-22.345,0.368l-13.256-5.527l14.446,22.96l86.979-0.059
		C218.708,62.215,182.316,58.676,165.134,41.997z"/>
	<path fill="#010101" d="M136.709,79.298h2.214c0.759,0,1.288,0.09,1.594,0.271c0.3,0.188,0.457,0.425,0.457,0.724
		c0,0.32-0.157,0.579-0.46,0.769c-0.31,0.189-0.833,0.286-1.579,0.286h-2.226V79.298z M132.322,83.516h7.509
		c0.317,0,0.97-0.044,1.953-0.138c0.728-0.067,1.277-0.175,1.654-0.329c0.583-0.242,1.05-0.58,1.388-0.994
		c0.336-0.419,0.51-0.888,0.51-1.414c0-0.643-0.242-1.179-0.717-1.602c-0.478-0.432-1.217-0.731-2.226-0.902
		c0.663-0.165,1.169-0.389,1.513-0.671c0.521-0.422,0.784-0.938,0.784-1.532c0-0.708-0.364-1.305-1.092-1.785
		c-0.726-0.476-1.768-0.72-3.131-0.72h-8.146V83.516z M136.709,75.479h1.918c0.664,0,1.127,0.083,1.396,0.246
		c0.266,0.161,0.399,0.391,0.399,0.682c0,0.313-0.134,0.552-0.399,0.718c-0.27,0.166-0.738,0.249-1.414,0.249h-1.9V75.479z"/>
	<path fill="#010101" d="M152.016,83.516v-4.094h0.388c0.395,0,0.748,0.075,1.066,0.232c0.234,0.119,0.494,0.377,0.784,0.777
		l2.321,3.085h4.915l-2.114-2.919c-0.104-0.149-0.31-0.356-0.612-0.628c-0.302-0.272-0.53-0.453-0.686-0.534
		c-0.238-0.122-0.616-0.246-1.137-0.375c0.647-0.106,1.157-0.241,1.527-0.396c0.582-0.253,1.042-0.58,1.373-0.985
		c0.336-0.409,0.502-0.892,0.502-1.447c0-0.644-0.216-1.189-0.652-1.633c-0.436-0.448-1.009-0.751-1.719-0.918
		c-0.711-0.168-1.74-0.25-3.087-0.25h-7.234v10.086H152.016z M152.016,75.46h1.905c0.802,0,1.342,0.085,1.628,0.264
		c0.285,0.17,0.431,0.421,0.431,0.747c0,0.219-0.087,0.416-0.272,0.588c-0.18,0.166-0.415,0.271-0.702,0.314
		c-0.57,0.094-0.951,0.136-1.152,0.136h-1.837V75.46z"/>
	<path fill="#010101" d="M172.207,83.516h4.544l-5.26-10.086h-4.767l-5.281,10.086h4.445l0.711-1.665h4.904L172.207,83.516z
		 M167.524,79.663l1.534-3.622l1.552,3.622H167.524z"/>
	<polygon fill="#010101" points="178.194,73.43 182.252,73.43 187.546,79.001 187.546,73.43 191.633,73.43 191.633,83.516 
		187.546,83.516 182.283,77.977 182.283,83.516 178.194,83.516 	"/>
	<path fill="#010101" d="M194.59,83.516h6.449c0.774,0,1.635-0.092,2.592-0.277c0.698-0.125,1.354-0.395,1.957-0.8
		c0.608-0.4,1.081-0.899,1.422-1.494c0.344-0.592,0.517-1.429,0.517-2.507c0-0.687-0.116-1.339-0.345-1.952
		c-0.233-0.616-0.603-1.155-1.114-1.615c-0.515-0.465-1.157-0.823-1.939-1.069c-0.787-0.25-1.813-0.373-3.089-0.373h-6.449V83.516z
		 M200.015,75.724c1.129,0,1.939,0.196,2.42,0.587c0.486,0.398,0.729,1.127,0.729,2.196c0,0.805-0.112,1.386-0.32,1.741
		c-0.229,0.364-0.524,0.617-0.909,0.757c-0.383,0.145-1.028,0.216-1.939,0.216h-1.069v-5.498H200.015z"/>
	<path fill="#010101" d="M210.24,81.427c0.644,0.782,1.488,1.358,2.523,1.721c1.038,0.365,2.351,0.543,3.939,0.543
		c1.554,0,2.851-0.208,3.9-0.63c1.047-0.423,1.845-1.008,2.402-1.764c0.554-0.752,0.828-1.718,0.828-2.9
		c0-1.622-0.635-2.885-1.904-3.79c-1.267-0.9-3.069-1.35-5.408-1.35c-2.273,0-4.054,0.457-5.333,1.378
		c-1.275,0.917-1.916,2.198-1.916,3.844C209.272,79.663,209.592,80.642,210.24,81.427z M214.409,76.285
		c0.527-0.442,1.23-0.667,2.11-0.667c0.915,0,1.639,0.218,2.173,0.657c0.536,0.438,0.805,1.134,0.805,2.084
		c0,1.132-0.257,1.918-0.768,2.348c-0.512,0.441-1.231,0.658-2.171,0.658c-0.911,0-1.628-0.223-2.157-0.672
		c-0.528-0.444-0.794-1.176-0.794-2.196C213.607,77.467,213.877,76.731,214.409,76.285z"/>
	<polygon fill="#010101" points="226.213,73.43 230.271,73.43 235.565,79.001 235.565,73.43 239.653,73.43 239.653,83.516 
		235.565,83.516 230.3,77.977 230.3,83.516 226.213,83.516 	"/>
	<polygon fill="#F7E5AD" points="209.106,29.868 202.535,40.479 210.62,40.479 	"/>
	<path fill="#010101" d="M239.812,116.904l1.724-15.791c0,0,81.815-48.8,90.429-50.237l5.743,11.483L239.812,116.904z"/>
	<path fill="#E6BF2E" d="M345.266,42.316c-4.855,0.67-11.006,8.087-13.302,11.432c-16.065,9.015-87.244,45.65-104.665,66.59v8.59
		c0,0,74.52-56.521,109.566-67.479c4.38,0.66,9.604-0.421,9.604-0.421c7.6-1.117,16.28-10.943,16.28-10.943
		c9.76-8.137,12.071-13.263,12.071-13.263S353.766,41.143,345.266,42.316z"/>
	<path fill="none" stroke="#E6BF2E" stroke-width="0.6508" d="M345.266,42.316c-4.855,0.67-11.006,8.087-13.302,11.432
		c-16.065,9.015-87.244,45.65-104.665,66.59v8.59c0,0,74.52-56.521,109.566-67.479c4.38,0.66,9.604-0.421,9.604-0.421
		c7.6-1.117,16.28-10.943,16.28-10.943c9.76-8.137,12.071-13.263,12.071-13.263S353.766,41.143,345.266,42.316z"/>
	<path fill="#F7E5AD" d="M346.215,44.85l23.74-5.149c-12.58,7.804-15.581,10.292-21.328,13.311c0,0-9.295,4.068-14.954,5.501
		c0,0-0.233-7.608,10.078-12.764L346.215,44.85z"/>
	<polygon fill="#E6BF2E" points="229.835,100.488 246.722,100.488 246.722,115.339 265.158,115.339 265.158,100.488 
		282.051,100.488 282.051,143.111 265.158,143.111 265.158,125.844 246.722,125.844 246.722,143.111 229.835,143.111 	"/>
	<polygon fill="none" stroke="#010101" stroke-width="8.6939" points="229.835,100.488 246.722,100.488 246.722,115.339 
		265.158,115.339 265.158,100.488 282.051,100.488 282.051,143.111 265.158,143.111 265.158,125.844 246.722,125.844 
		246.722,143.111 229.835,143.111 	"/>
	<polygon fill="#E6BF2E" points="293.173,100.488 338.351,100.488 338.351,109.545 310.067,109.545 310.067,116.304 336.38,116.304 
		336.38,125 310.067,125 310.067,133.45 339.197,133.45 339.197,143.111 293.173,143.111 	"/>
	<polygon fill="none" stroke="#010101" stroke-width="8.6939" points="293.173,100.488 338.351,100.488 338.351,109.545 
		310.067,109.545 310.067,116.304 336.38,116.304 336.38,125 310.067,125 310.067,133.45 339.197,133.45 339.197,143.111 
		293.173,143.111 	"/>
	<path fill="#E6BF2E" d="M384.599,143.111h17.653l-20.418-42.623h-18.577l-20.394,42.623h17.244l2.71-7.004h19.053L384.599,143.111z
		 M366.381,126.932l5.963-15.366l5.948,15.366H366.381z"/>
	<path fill="none" stroke="#010101" stroke-width="8.6939" d="M384.599,143.111h17.653l-20.418-42.623h-18.577l-20.394,42.623
		h17.244l2.71-7.004h19.053L384.599,143.111z M366.381,126.932l5.963-15.366l5.948,15.366H366.381z"/>
	<polygon fill="#E6BF2E" points="398.58,100.488 449.812,100.488 449.812,110.994 432.636,110.994 432.636,143.111 415.75,143.111 
		415.75,110.994 398.58,110.994 	"/>
	<polygon fill="none" stroke="#010101" stroke-width="8.6939" points="398.58,100.488 449.812,100.488 449.812,110.994 
		432.636,110.994 432.636,143.111 415.75,143.111 415.75,110.994 398.58,110.994 	"/>
	<polygon fill="#FFFFFF" points="229.835,100.488 246.722,100.488 246.722,115.339 265.158,115.339 265.158,100.488 
		282.051,100.488 282.051,143.111 265.158,143.111 265.158,125.844 246.722,125.844 246.722,143.111 229.835,143.111 	"/>
	<polygon fill="#FFFFFF" points="293.173,100.488 338.351,100.488 338.351,109.545 310.067,109.545 310.067,116.304 336.38,116.304 
		336.38,125 310.067,125 310.067,133.45 339.197,133.45 339.197,143.111 293.173,143.111 	"/>
	<path fill="#FFFFFF" d="M384.599,143.111h17.653l-20.418-42.623h-18.577l-20.394,42.623h17.244l2.71-7.004h19.053L384.599,143.111z
		 M366.381,126.932l5.963-15.366l5.948,15.366H366.381z"/>
	<polygon fill="#FFFFFF" points="398.58,100.488 449.812,100.488 449.812,110.994 432.636,110.994 432.636,143.111 415.75,143.111 
		415.75,110.994 398.58,110.994 	"/>
	<path fill="#E6BF2E" d="M313.765,51.729l14.317-15.047c0,0,0.921,9.139-2.01,17.613c0,0-1.03,6.639-4.819,10.307
		c0,0-9.569,1.193-9.077-4.301L313.765,51.729z"/>
	<path fill="none" stroke="#E6BF2E" stroke-width="0.6508" d="M313.765,51.729l14.317-15.047c0,0,0.921,9.139-2.01,17.613
		c0,0-1.03,6.639-4.819,10.307c0,0-9.569,1.193-9.077-4.301L313.765,51.729z"/>
	<path fill="#F7E5AD" d="M315.98,52.242l9.866-10.08c0,0-0.028,3.351-2.576,9.471c0,0-1.377,4.629-3.72,7.614
		c0,0-5.523,2.972-4.561-0.809L315.98,52.242z"/>
	<path fill="#E6BF2E" d="M295.06,60l14.324-15.048c0,0,0.912,9.14-2.01,17.612c0,0-1.026,6.639-4.827,10.313
		c0,0-11.246,5.237-10.751-0.257L295.06,60z"/>
	<path fill="none" stroke="#E6BF2E" stroke-width="0.6508" d="M295.06,60l14.324-15.048c0,0,0.912,9.14-2.01,17.612
		c0,0-1.026,6.639-4.827,10.313c0,0-11.246,5.237-10.751-0.257L295.06,60z"/>
	<path fill="#E6BF2E" d="M274.536,72.315l14.317-15.043c0,0,0.92,9.137-2.011,17.607c0,0-1.021,6.642-4.827,10.318
		c0,0-9.972,4.34-9.483-1.155L274.536,72.315z"/>
	<path fill="none" stroke="#E6BF2E" stroke-width="0.6508" d="M274.536,72.315l14.317-15.043c0,0,0.92,9.137-2.011,17.607
		c0,0-1.021,6.642-4.827,10.318c0,0-9.972,4.34-9.483-1.155L274.536,72.315z"/>
	<path fill="#E6BF2E" d="M255.497,80.668l14.318-15.044c0,0,0.92,9.135-2.01,17.61c0,0-1.812,10.945-4.466,11.479
		c0,0-9.526-0.355-9.035-5.844L255.497,80.668z"/>
	<path fill="none" stroke="#E6BF2E" stroke-width="0.6508" d="M255.497,80.668l14.318-15.044c0,0,0.92,9.135-2.01,17.61
		c0,0-1.812,10.945-4.466,11.479c0,0-9.526-0.355-9.035-5.844L255.497,80.668z"/>
	<path fill="#F7E5AD" d="M297.168,61.198l9.413-10.626c0,0-1.32,5.219-3.864,11.335c0,0-1.381,4.632-3.72,7.616
		c0,0-3.418,1.104-2.451-2.675L297.168,61.198z"/>
	<path fill="#F7E5AD" d="M276.566,73.293l9.944-10.79c0,0-0.771,4.591-3.319,10.711c0,0-1.376,4.629-3.716,7.615
		c0,0-3.276,0.934-3.453-1.987L276.566,73.293z"/>
	<path fill="#F7E5AD" d="M257.486,82.31l9.966-10.885c0,0-0.213,3.893-2.761,10.013c0,0-1.373,4.624-3.716,7.611
		c0,0-3.758,2.753-4.034-1.043L257.486,82.31z"/>
	<polygon fill="#E6BF2E" points="257.719,91.524 262.278,93.649 259.451,101.093 255.561,103.747 	"/>
	<polygon fill="none" stroke="#E6BF2E" stroke-width="0.6508" points="257.719,91.524 262.278,93.649 259.451,101.093 
		255.561,103.747 	"/>
	<path fill="#010101" d="M378.09,296.977h-2.975v8.245h-1.71v-8.245h-2.979v-1.407h7.664V296.977z M385.168,302.667l2.718-7.098
		h2.622v9.652h-1.71v-7.848h-0.049l-3.022,7.848h-1.171l-3.018-7.848h-0.051v7.848h-1.713v-9.652h2.626L385.168,302.667z"/>
</g>
</svg>
