<?xml version="1.0" encoding="utf-8"?>
<!-- Generator: Adobe Illustrator 13.0.0, SVG Export Plug-In . SVG Version: 6.00 Build 14948)  -->
<!DOCTYPE svg PUBLIC "-//W3C//DTD SVG 1.1//EN" "http://www.w3.org/Graphics/SVG/1.1/DTD/svg11.dtd">
<svg version="1.1" id="Layer_1" xmlns="http://www.w3.org/2000/svg" xmlns:xlink="http://www.w3.org/1999/xlink" x="0px" y="0px"
	 width="373" height="266" viewBox="0 0 499.976 357.46" enable-background="new 0 0 499.976 357.46"
	 xml:space="preserve">
<g>
	<path d="M221.5,56.094c-30.078-17.542-44.907-20.189-64.465-17.439c-19.559,2.752-41.564,29.28-50.324,41.259l-67.358-0.259
		l223.689,260.64l35.955-40.61c4.467,2.611,6.819,3.088,3.72,12.498l42.349,11.704l4.756-11.052
		c16.52-8.65,24.083-16.157,29.33-33.097c11.333-7.964,14.881-11.247,14.013-30.328c9.671-4.436,13.443-5.365,18.666-16.413
		c7.323-5.391,8.743-7.269,10.653-13.857l39.836-8.325c10.608-2.548,20.521-7.93,24.592-25.342
		c4.068-17.414,7.896-32.709,9.845-49.895c1.951-17.186,3.179-30.841,3.22-41.204c0.04-10.363-5.537-29.695-22.023-29.759
		c-16.487-0.063-21.195-0.082-30.382-0.117c-9.186-0.035-18.399,7.467-19.844,15.469l-34.855-0.369
		c-12.683-9.234-18.556-12.789-41.659-6.99c0,0-4.674-9.674-7.941-17.93c-3.266-8.255-2.053-17.437-15.65-33.738
		C314.026,4.636,293.793-1.33,274.473,0.243c-19.319,1.575-38.451,15.633-39.87,17.04L221.5,56.094z"/>
	<path fill="#E13A3E" stroke="#E13A3E" stroke-width="4.2393" stroke-miterlimit="5" d="M58.506,87.736l51.667,0.198
		c0,0,25.069-42.478,55.097-42.447c31.001,0.029,53.975,20.166,59.965,24.253l11.162-32.019l7.687-0.678
		c0.149-0.157-0.149-7.241-4.367-12.733c4.234,1.253,7.23,3.384,9.697,5.337c0.532-0.954-2.984-5.312-5.267-8.677
		c3.878,1.606,7.227,3.737,11.806,7.288c-1.572-4.068-4.205-9.024-5.784-11.857c3.175,1.426,8.462,4.803,12.862,8.352
		c-0.512-3.888-3.674-8.847-5.957-12.212c3.353,1.427,8.286,4.449,12.862,7.999c-1.043-3.714-1.913-6.719-4.726-10.97
		c4.053,1.96,6.871,4.441,12.155,8.349c-0.871-2.829-2.802-5.486-5.089-8.322c4.215,1.606,9.87,5.515,12.869,7.114
		c-2.107-3.717-3.887-4.783-6.682-7.974c6.152,2.497,13.921,8.004,17.445,10.136c-2.455-3.989-4.585-6.199-7.734-9.215
		c6.682,2.5,13.924,7.648,17.975,10.845c-1.575-3.363-4.391-6.729-6.149-8.68c23.278,9.981,28.525,26.854,30.779,31.023
		c2.919,5.4,3.706,13.386,5.161,16.984c3.335,7.082,6.328,10.765,6.745,14.862c0.338,3.358-1.45,8.914-1.45,8.914
		c13.788-3.037,31.051-13.394,47.149,3.715l46.279,0.089c0.391-9.979,5.109-14.917,15.071-14.878
		c9.962,0.038,9.403,0.036,19.035,0.073c13.381,0.051,21.554,1.123,22.131,20.231c0.581,19.108-3.059,42.485-5.065,54.562
		s-4.283,25.461-6.935,34.598c-2.645,9.133-7.225,18.96-29.057,23.469c-14.936,3.087-33.942,7.201-33.942,7.201
		c-1.325,5.058-1.723,11.917-11.454,15.588c-1.527,7.15-5.62,14.375-19.397,15.119c-0.271,23.489,0.161,26.761-13.634,31.3
		c-1.543,10.681-8.044,24.964-28.215,33.014l-2.673,6.877l-28.498-8.058c0,0,0.831-9.624-9.843-13.107l-0.142-8.924l-38.844,42.068
		L58.506,87.736z"/>
	<path fill="#9E7053" d="M58.488,87.736l51.666,0.198c0,0,25.071-42.478,55.099-42.447c31,0.029,53.975,20.166,59.965,24.251
		l11.162-32.017l7.687-0.678c0.149-0.157-0.15-7.241-4.367-12.733c4.235,1.253,7.23,3.384,9.694,5.337
		c0.535-0.954-2.981-5.312-5.264-8.677c3.878,1.604,7.228,3.737,11.806,7.288c-1.574-4.068-4.205-9.024-5.785-11.857
		c3.176,1.426,8.464,4.803,12.864,8.352c-0.513-3.888-3.675-8.847-5.957-12.212c3.352,1.427,8.286,4.449,12.862,7.999
		c-1.044-3.714-1.914-6.719-4.727-10.97c4.055,1.96,6.871,4.441,12.155,8.349c-0.87-2.829-2.805-5.486-5.089-8.322
		c1.282-0.552,9.87,5.515,12.869,7.114c-2.107-3.717-4.221-5.313-6.685-7.974c4.586,1.607,13.924,8.004,17.448,10.136
		c-3.159-5.135-9.214-9.766-7.734-9.215c6.699,2.5,13.924,7.648,17.975,10.845c-1.578-3.363-4.393-6.729-6.149-8.68
		c23.279,9.981,28.523,26.854,30.779,31.023c2.919,5.4,3.704,13.386,5.161,16.984c3.336,7.08,6.325,10.765,6.742,14.862
		c0.341,3.358-1.447,8.914-1.447,8.914c13.79-3.037,31.051-13.394,47.15,3.715l46.278,0.089c0.392-9.979,5.109-14.917,15.071-14.878
		c9.962,0.038,9.401,0.036,19.036,0.073c13.377,0.051,21.551,1.123,22.132,20.231c0.579,19.106-3.06,42.485-5.067,54.562
		c-2.006,12.076-4.283,25.461-6.935,34.598c-2.644,9.133-7.225,18.96-29.057,23.469c-14.936,3.087-33.945,7.201-33.945,7.201
		c-1.322,5.058-1.723,11.917-11.45,15.588c-1.527,7.15-5.621,14.375-19.4,15.119c-0.268,23.489,0.163,26.761-13.634,31.3
		c-1.541,10.681-8.045,24.964-28.213,33.014l-2.673,6.877l-28.498-8.058c0,0,0.831-9.624-9.843-13.107l-0.143-8.924l-38.846,42.068
		L58.488,87.736z"/>
	<path d="M68.507,93.074l44.512,0.171c0,0,6.644-12.812,18.697-23.834c12.055-11.024,24.563-17.807,30.688-18.018
		c6.124-0.213,19.081-1.105,35.296,8.143c16.216,9.246,24.436,15.166,28.894,19.895l13.094-36.69l11.542-0.274
		c-0.241-3.098-1.069-5.309-2.736-8.671c4.138,4.034,7.654,8.331,9.806,11.916c-0.073-4.592-1.6-8.926-3.703-13.792
		c4.401,4.256,8.929,9.396,12.699,16.962c-1.289-9.366-2.556-13.347-7.818-22.595c7.085,6.738,9.859,8.56,16.106,22.303
		c-0.841-11.426-1.59-15.255-9.85-26.416c10.091,9.048,11.735,10.407,18.924,24.743c0.385-8.417-0.007-14.132-10.437-26.241
		c8.745,6.569,15.608,13.719,20.516,23.865c0.437-6.475-1.248-12.78-10.218-23.178c9.331,7.572,16.246,16.843,18.809,24.331
		c0.315-6.006,0.52-12.836-8.981-23c9.039,7.69,15.427,15.9,17.042,24.089c1.205-6.885,0.575-11.244-6.331-22.222
		c9.148,9.927,14.008,16.835,15.715,31.974c4.496-5.694,2.714-16.595-2.438-24.033c4.804,6.143,8.372,12.338,9.172,18.406
		c0.801,6.066,3.256,11.023,4.656,14.091c1.404,3.066,3.505,7.313,4.438,8.966c0.938,1.652,0.45,6.125-0.971,8.476
		c-1.424,2.351-0.736,7.298-0.276,10.833c0,0,16.272-6.297,22.167-7.922c5.893-1.628,16.271-4.886,26.115,7.635l55.345,0.213
		c0.04-10.128,4.535-15.999,11.366-15.973c6.832,0.027,20.49,0.079,24.26,0.093c3.766,0.015,11.528,2.399,11.483,14.647
		c-0.046,12.247-0.322,22.372-3.232,44.5c-2.908,22.129-7.262,51.317-15.763,57.408c-8.502,6.091-11.325,5.14-16.748,6.295
		c-5.422,1.155-39.6,8.326-39.6,8.326c-0.268,8.242-3.584,13.884-10.184,14.8c-1.919,9.413-5.939,13.637-12.534,14.082
		c-6.599,0.446-7.067-0.732-10.827-2.634c-4.255,4.463-9.683,7.269-18.604-0.068c-6.851,4.92-13.915,4.893-20.25-1.018
		c-6.604,2.329-12.728,3.01-16.701-5.954c-14.152,5.598-33.741,17.063-20.212,50.088l-38.315,42.247L68.507,93.074z"/>
	<path fill="none" d="M280.572,68.569l3.291,1.188c-3.07,2.58-5.197,4.22-6.617,6.099C278.2,72.328,279.154,69.977,280.572,68.569z"
		/>
	<path fill="#E13A3E" d="M168.486,185.192c10.416-14.092,16.098-21.606,14.787-48.461l8.95,0.034
		c-1.994,28.726-5.779,32.95-21.393,51.263L168.486,185.192z"/>
	<path fill="#E13A3E" d="M137.063,149.272l-18.754-22.681c9.948-15.036,9.492-18.806,3.879-29.191
		c14.677-19.255,33.581-35.67,41.111-33.756c7.528,1.913,22.143-1.329,64.415,30.393l89.904,17.301c0,0-6.127,0.919,4.724-2.808
		c10.847-3.727,35.189-11.345,40.089-13.034c14.854-5.125,36.155,29.106,30.207,45.1c0,0-6.3-15.333-15.224-22.434
		c-8.923-7.1-10.798-8.989-15.513-8.537c-4.709,0.453-44.81,16.786-44.81,16.786l-91.761-24.847
		c-24.428-17.051-34.584-22.738-50.791-21.391c-10.837,0.899-24.554,15.45-28.811,20.144c11.771,1.459,21.655,3.381,11.23,19.355
		C146.537,135.649,137.063,149.272,137.063,149.272z"/>
	<polygon fill="#FFFFFF" points="114.177,98.313 116.046,102.56 89.197,102.456 263.174,305.673 297.709,267.651 299.572,272.365 
		263.149,312.735 79.321,98.179 	"/>
	<polygon fill="#FFFFFF" points="387.851,98.89 439.023,99.087 439.054,103.278 391.074,103.095 	"/>
	<polygon fill="#FFFFFF" points="406.518,144.652 439.064,111.663 438.963,117.929 406.961,151.721 	"/>
	<path fill="#FFFFFF" d="M445.737,112.538l33.221-2.7c0,0,0.267-8.007,0.29-14.131c0.022-6.123-1.134-12.251-8.199-12.277
		c-7.064-0.027-11.305-0.043-17.665-0.069c-6.355-0.023-8.259,5.151-8.294,13.865C445.057,105.939,445.737,112.538,445.737,112.538z
		"/>
	<path fill="#FFFFFF" d="M442.235,165.986l29.204,0.112c0,0-1.688,10.591-3.35,13.883c-1.661,3.292-4.753,11.287-15.126,13.604
		c-10.372,2.314-52.094,11.104-52.094,11.104l-0.903-9.896c1.415-0.702,2.836-1.871,2.836-1.871s14.849-3.004,19.325-3.931
		C426.606,188.065,437.215,185.518,442.235,165.986z"/>
	<path fill="#FFFFFF" d="M251.904,50.794l-10.126-0.51c0,0-16.919,51.514-18.35,55.984c-1.43,4.469-2.864,10.115,0.885,15.312
		c3.747,5.195,7.966,10.63,9.372,12.754c1.404,2.124,2.34,3.777,2.082,9.899c-0.259,6.123-1.708,15.303,5.094,22.629
		c6.802,7.329,10.554,11.111,24.445,13.521c13.887,2.41,16.246,0.769,16.246,0.769l8.746-7.503l9.289-27.521
		c8.019-2.796,14.154-5.833,15.823-11.716c1.671-5.881,5.253-18.585,6.205-20.937c0.951-2.352,1.677-7.06,0.038-9.893
		c3.55-4.461,8.049-11.272,0.299-16.014l4.06-14.822c-2.347-3.07-3.042-5.43-3.031-7.784c0,0-7.544,0.913-6.155,7.983
		c0,0-4.246,1.869-21.662-1.024c-4.474-0.488-20.505,3.455-21.531,25.119c-1.376-8.956-0.425-11.779,0.29-14.603
		c-0.69-3.771-0.667-9.658,2.179-15.534C265.993,62.625,261.058,59.543,251.904,50.794z"/>
	<path d="M248.091,62.319l-14.066,44.461c-1.669,5.41-2.152,8.47,1.598,13.195c3.751,4.725,7.258,11.097,7.258,11.097
		c-0.999,14.833-0.558,22.372,4.365,29.221c-3.031-8.96-2.513-20.499-0.581-33.445l-7.945-16.047l12.43-47.292L248.091,62.319z"/>
	<polygon points="281.971,133.106 279.824,140.635 274.646,139.438 280.327,132.394 	"/>
	<polygon points="284.797,133.116 286.446,133.359 290.889,141.855 284.294,141.122 	"/>
	<path d="M288.112,128.185l3.833-16.237c8.484-1.146,14.85-3.24,19.34-7.463c2.812,4.486,4.959,13.345-6.416,15.049
		c-6.125,0.919-10.121-1.687-10.121-1.687l-2.634,10.823L288.112,128.185z"/>
	<polygon points="257.868,153.74 262.34,154.935 259.477,164.345 255.714,163.151 	"/>
	<polygon points="266.34,155.893 269.635,156.375 266.775,165.549 263.244,165.064 	"/>
	<polygon points="273.401,156.861 277.875,157.348 274.543,166.757 270.541,166.271 	"/>
	<polygon points="281.88,157.6 286.114,158.323 281.137,166.782 277.837,167.005 	"/>
	<path d="M262.564,96.291c5.63,5.438,11.03,10.169,16.91,13.018c-2.37,3.523-3.08,4.464-4.259,5.165
		c-8.251,1.146-13.43,0.42-16.939-5.245C254.762,103.562,256.902,99.096,262.564,96.291z"/>
	<path fill="#E13A3E" d="M257.402,100.748c-3.64,5.286-3.455,9.375-0.729,12.389c2.725,3.013,9.334,6.926,18.982,1.133
		c-9.896,1.199-13.869-0.936-16.148-3.329C256.497,107.779,256.504,104.454,257.402,100.748z"/>
	<path fill="#E13A3E" d="M294.541,117.787L294.541,117.787c3.16,1.344,16.587,5.185,19.102-6.375
		c-0.465,6.269-4.456,11.553-10.551,11.176c-6.093-0.376-8.82-3.035-8.82-3.035L294.541,117.787z"/>
	<path fill="#E13A3E" d="M116.73,107.979l-14.131,0.063l10.199,11.934C115.876,115.983,116.599,111.629,116.73,107.979z"/>
	<path fill="#E13A3E" d="M405.826,136.407c-1.132-12.075-4.387-18.153-11.182-27.835l38.391,0.071L405.826,136.407z"/>
	<path fill="#E13A3E" d="M263.212,296.251l-55.104-64.272c0,0,1.014-18.602,5.642-27.77c4.627-9.169,6.411-13.754,1.509-25.432
		c-4.9-11.677-0.999-15.902,0.068-17.664c1.384,7.777,2.786,10.608,8.066,15.929c5.278,5.32,6.658,13.804,2.379,24.387
		c-4.28,10.579,12.36,1.106,13.787-2.421s4.273-8.814,0.414-15.896c5.282,4.258,7.06,2.147,5.576,20.156
		c-1.483,18.015-7.258,50.14-7.258,50.14c3.866,5.67,5.28,4.968,7.385,8.86c2.104,3.893,3.853,8.493,8.431,12.751
		c2.168-12.356,2.893-16.948,9.626-22.929c6.736-5.979,1.827-15.89,0.08-20.487c-1.748-4.6-6.67-11.683-6.29-18.042
		c0.379-6.357,4.996-13.403,3.254-19.418c4.568,6.377,6.659,13.449,5.911,24.754c-0.75,11.302,6.647,16.629,6.969,25.109
		c0.322,8.479-8.544,16.923-6.805,24.349s2.726,7.781,4.839,9.559c2.219-8.118,3.646-10.585,6.129-14.109
		c2.486-3.522,9.947-14.093-0.252-25.788c-10.201-11.7-1.03-8.484-1.03-8.484l2.519-12.003c-4.565-7.083-3.493-9.905-0.644-15.899
		s2.507-8.469,2.156-9.884c3.524,2.841,3.875,3.196,1.717,13.431c-0.369,3.888,3.156,6.018,3.483,12.731
		c0.328,6.716-4.639,11.994-0.066,16.605c4.578,4.608,5.272,7.791,3.125,14.496c-2.144,6.704,0.682,7.066,1.734,8.837
		c1.446-8.825,2.159-10.588,4.646-14.467c2.49-3.875,2.851-5.64,1.809-10.591c-1.04-4.95,7.82-12.334,7.82-12.334
		s-0.349-1.415-4.913-8.849c-4.563-7.438-5.595-14.508,5.077-34.253c3.507,7.434-0.055,14.487-0.435,21.551
		c-0.382,7.064,2.44,7.78,4.902,10.972c2.461,3.188,17.692-6.648,17.692-6.648s0.365-3.53-1.719-13.075
		c-2.082-9.548,2.906-20.48,0.103-26.144c0,0,5.687-9.87,5.713-16.229c4.908,9.558,4.902,11.324,0.933,33.566
		c-1.085,6.354,1.956,9.899,3.71,12.734c0,0-8.236,31.174-14.253,33.623c-4.894,2.452-25.771,9.094-24.679,31.884l-0.053,0.051
		L263.212,296.251z"/>
	<polygon points="228.386,256.904 194.975,217.914 198.886,211.219 211.261,208.438 219.408,203.171 227.88,204.614 
		234.965,199.345 243.793,200.79 249.419,207.173 253.968,219.201 313.723,206.713 320.12,196.49 330.731,193.351 333.905,194.775 
		342.413,187.036 353.705,190.263 362.565,182.523 374.209,186.453 385.548,177.663 395.425,181.589 397.437,209.858 
		392.785,224.679 390.646,230.675 321.75,231.472 321.647,227.703 261.306,240.426 259.167,245.714 251.017,251.339 243.256,248.13 
			"/>
	<path fill="#9E7053" d="M312.308,206.943c1.917-9.181,3.355-15.298,12.544-16.44c4.947-0.453,8.478,0.739,8.478,0.739
		c4.02-4.695,6.384-7.04,10.623-6.79c4.237,0.253,6.823,1.676,8.467,2.625c3.314-3.99,5.915-6.338,10.155-6.793
		c4.243-0.453,8.236,1.681,10.586,3.102c4.732-5.163,7.331-7.979,13.69-7.72c6.359,0.261,8.936,3.803,8.936,3.803
		c4.243-0.689,6.819,2.618,8.461,4.509c1.924-9.887,2.927-25.897,2.927-25.897l31.214-33.331
		c-0.326,23.787,0.058,39.789-6.547,49.44c-4.499,6.578-6.629,9.162-14.171,10.548c-7.544,1.383-12.728,2.306-12.728,2.306
		c-0.252,4.237-1.436,5.175-4.977,7.75c0,0-0.012,3.537,0.667,10.84c0.679,7.301-0.046,11.068-4.761,13.17
		c0.684,5.89,0.667,9.893-7.354,13.629c2.611-5.876,2.396-10.353,1.703-13.886c4.487-3.519,5.438-5.635,4.755-12.229
		c-0.679-6.596-1.352-15.313-2.514-20.027c-1.161-4.716-3.035-6.137-7.279-5.683c-4.24,0.455-8.73,4.677-7.813,10.806
		c0.919,6.123,2.064,14.844,2.064,14.844l-5.187,1.394c0,0-1.375-10.838-2.299-15.317c-0.925-4.479-3.503-7.785-8.92-7.102
		c-5.422,0.688-6.854,5.865-6.164,9.87s2.064,14.844,2.064,14.844l-4.951,1.397c0,0-1.374-10.839-1.828-14.376
		c-0.46-3.535-2.563-8.25-8.217-7.095c-5.658,1.156-6.618,5.624-5.931,11.045c0.687,5.421,2.302,13.433,2.302,13.433l-5.187,1.63
		c0,0-1.609-9.898-2.535-14.849c-0.919-4.947-3.271-6.135-7.279-5.209c-4.008,0.929-5.425,1.862-7.809,9.863L312.308,206.943z"/>
	<polygon fill="#FFFFFF" points="257.362,225.101 317.703,212.144 319.547,222.514 260.616,235.477 	"/>
	<path d="M319.268,233.933c6.69,5.683,10.215,7.814,17.645,5.371c1.994,1.535,3.757,2.84,5.991,3.436l-0.776,18.25l4.6-1.395
		l1.001-16.013c4.712-0.099,7.069-0.443,10.608-2.548c1.766,0.948,4.117,1.783,4.117,1.783l-1.586,14.715l4.006-1.283l1.697-12.242
		c4.358,0.018,7.418,0.029,11.667-2.426l0.771,14.133c0.327,6.831-1.949,17.069-26.904,13.909c0,0-2.717,2.464-2.607,4.583
		c0,0,10.594,0.747,16.721,0.419c-5.725,18.349-10.925,23.745-27.073,28.275l-1.674,5.883l-20.468-6.086
		c-2.204-7.897-5.021-10.614-9.725-12.871l0.29-13.659C301.027,261.656,298.617,245.631,319.268,233.933z"/>
	<path fill="#9E7053" d="M192.985,214.729c4.612-5.399,10.042-8.676,16.869-7.943c3.433-4.58,7.923-8.45,16.86-5.235
		c9.805-8.205,21.452-4.979,25.294,6.571c5.511,16.578,6.054,18.631,8.38,25.705c2.329,7.075,2.85,15.275-5.369,18.705
		c-7.552,3.148-12.241-1.933-12.828-2.406c-1.792,6.354-5.57,8.693-11.222,8.791l-12.192-14.649l-6.168-18.98l3.302-1.286
		c0,0,5.829,15.567,8.393,22.29c2.565,6.723,6.915,8.74,10.218,7.104c3.304-1.635,5.903-4.097,3.459-11.762
		c-2.442-7.664-7.568-22.404-7.568-22.404l4.126-1.279c0,0,7.458,20.519,9.324,25.355c1.866,4.834,6.219,6.146,8.931,4.746
		c2.714-1.404,4.966-4.577,3.105-10.589c-1.862-6.011-7.568-22.642-9.201-27.591c-1.627-4.951-5.843-9.493-11.98-7.936
		c-3.654,0.926-5.672,5.278-6.148,6.57c-3.167-3.074-6.604-3.902-9.41-2.979c-3.892,1.279-5.548,3.746-6.499,5.862
		c-5.297-0.609-8.126,0.322-10.606,1.846c-2.478,1.519-4.487,3.513-5.323,6.219L192.985,214.729z"/>
	<path stroke="#E13A3E" stroke-width="1.4131" d="M412.749,178.356l1.012-18.132l17.973-19.008
		C431.202,157.466,430.65,178.426,412.749,178.356z"/>
	<path fill="#FFFFFF" d="M284.127,69.832l-3.556-1.263c-1.838,3.053-2.418,4.287-3.18,7.42
		C279.257,73.479,282.224,70.797,284.127,69.832z"/>
	<g>
		<path fill="#9E7053" stroke="#9E7053" stroke-width="7.0656" stroke-miterlimit="6" d="M31.527,102.922
			c3.129-1.96,3.511-4.591,2.303-6.001c-4.748-5.546-12.406-3.167-15.889-1.901c-3.692,1.344-9.042,5.526-6.124,8.963
			c1.317,1.55,4.852,4.218,10.574,2.573l4.518,5.278c-15.354,3.069-19.542-3.723-20.83-5.238c-4.769-5.617-3.133-12.07,7.38-16.269
			c14.041-5.608,21.447-1.926,26.195,3.62c1.036,1.209,6.676,7.617-3.61,14.253L31.527,102.922z"/>
		<path fill="#9E7053" stroke="#9E7053" stroke-width="7.0656" stroke-miterlimit="6" d="M34.126,138.793l31.031-12.407l4.231,5.002
			L44.9,141.428l9.412,11.039l-6.593,2.303L34.126,138.793z"/>
		<path fill="#9E7053" stroke="#9E7053" stroke-width="7.0656" stroke-miterlimit="6" d="M83.681,168.858l-1.337,0.503
			c-6.653,3.259-16.954,6.961-26.058-3.675c-6.74-7.873,0.595-14.538,8.758-17.319c8.032-2.737,18.405-2.6,25.085,5.266
			c3.709,4.365,3.499,10.606-2.911,14.117l-4.481-5.232c1.23-0.512,3.863-3.772,2.025-5.92c-2.849-3.328-6.309-5.876-16.265-2.701
			c-2.278,0.726-10.377,4.582-6.529,9.078c4.537,5.3,9.224,4.333,11.074,3.656l-4.119-4.831l6.669-2.468L83.681,168.858z"/>
		<path fill="#9E7053" stroke="#9E7053" stroke-width="7.0656" stroke-miterlimit="6" d="M86.612,181.022l5.504-1.304
			c2.212-0.45,3.86-0.328,6.016-0.847l0.057,0.066c-0.873,0.747-2.731,2.105-4.131,3.188l-3.937,3.019L86.612,181.022z
			 M84.848,198.496l24.521-20.061l-4.962-5.867l-37.684,4.59l4.394,5.191l7.71-0.903l6.47,7.597l-4.957,4.129L84.848,198.496z"/>
		<path fill="#9E7053" stroke="#9E7053" stroke-width="7.0656" stroke-miterlimit="6" d="M34.766,120.457l5.502-1.301
			c2.212-0.454,3.861-0.33,6.018-0.851l0.057,0.068c-0.873,0.745-2.731,2.105-4.131,3.187l-3.936,3.021L34.766,120.457z
			 M33.002,137.933l24.521-20.061l-4.962-5.867l-37.684,4.589l4.394,5.19l7.712-0.904l6.469,7.601l-4.957,4.127L33.002,137.933z"/>
		<path fill="#9E7053" stroke="#9E7053" stroke-width="7.0656" stroke-miterlimit="6" d="M110.286,197.89l5.007-1.946
			c1.756,1.874,4.974,6.156,2.193,7.167c-2.062,0.751-3.77-1.13-5.343-2.981L110.286,197.89z M101.534,218.626
			c0,0,0.055,0.041,1.324-0.551c-1.1-2.78,11.977-3.394,10.937-9.361c3.447,2.396,5.99,1.76,9.485,0.483
			c8.767-3.203,5.723-8.475,0.621-14.484l-6.661-7.782l-31.481,12.646l4.117,4.864l8.27-3.306c1.559-0.566,2.228-0.828,3.758-1.426
			l4.604,5.243c1.043,1.256,0.76,2.968-0.644,3.456c-3.67,1.282-8.93,4.507-8.93,4.507L101.534,218.626z"/>
		<path fill="#9E7053" stroke="#9E7053" stroke-width="7.0656" stroke-miterlimit="6" d="M108.12,225.895l12.23-4.772l12.289-14.958
			l5.034,5.941l-8.74,8.993l0,0l15.904-0.926l4.941,5.831l-25.235,0.018l-12.036,4.953L108.12,225.895z"/>
		<path fill="#9E7053" stroke="#9E7053" stroke-width="7.0656" stroke-miterlimit="6" d="M136.744,259.621l12.753-5.666
			l-6.566-7.751l-13.117,5.296l-4.093-4.837l30.813-12.667l4.352,5.141l-11.076,4.491l6.597,7.733l11.41-4.103l4.186,4.948
			l-31.158,12.259L136.744,259.621z"/>
		<path fill="#9E7053" stroke="#9E7053" stroke-width="7.0656" stroke-miterlimit="6" d="M142.989,267.007l31.133-12.287l3.86,4.563
			l-31.134,12.29L142.989,267.007z"/>
		<path fill="#9E7053" stroke="#9E7053" stroke-width="7.0656" stroke-miterlimit="6" d="M153.309,279.174l25.395-10.347
			l-4.272-5.022l5.511-2.2l13.005,15.311l-5.557,2.149l-3.943-4.64l-25.917,9.737L153.309,279.174z"/>
		<path fill="#9E7053" stroke="#9E7053" stroke-width="7.0656" stroke-miterlimit="6" d="M177.999,308.277l19.427-7.9l-0.058-0.066
			c-2.575,0.538-5.092,1.145-7.697,1.65l-14.679,2.774l-3.74-4.416l16.432-11.414l-0.058-0.066c-2.387,0.823-4.658,1.949-7.104,2.71
			l-12.475,5.002l-4.106-4.856l30.921-12.515l6.226,7.343l-19.256,12.529l0.057,0.068c2.152-0.517,10.822-2.392,13.058-2.808
			l12.325-2.531l6.112,7.208l-31.057,12.403L177.999,308.277z"/>
		<path fill="#9E7053" stroke="#9E7053" stroke-width="7.0656" stroke-miterlimit="6" d="M215.601,303.629l13.996,16.45l-5.71,2.363
			l-9.823-11.522l-6.012,2.282l9.06,10.625l-5.969,2.468l-8.624-10.117l-7.448,2.396l10.424,12.224l-6.424,2.277l-14.5-17.043
			L215.601,303.629z"/>
		<path fill="#9E7053" stroke="#9E7053" stroke-width="7.0656" stroke-miterlimit="6" d="M231.663,322.523l4.522,5.335
			L222.804,344.2l0.141,0.034c3.442-1.604,8.645-3.668,12.316-5.003l7.97-3.104l4.203,4.972l-31.246,12.155l-4.291-5.066
			l12.236-15.476l-0.142-0.035c-2.854,1.257-6.947,2.687-9.932,3.77l-9.266,3.404l-4.321-5.104L231.663,322.523z"/>
	</g>
	<g>
		<path stroke="#E13A3E" stroke-width="2.1197" d="M31.52,102.928c3.129-1.959,3.51-4.592,2.303-6.002
			c-4.749-5.547-12.406-3.166-15.889-1.899c-3.691,1.342-9.042,5.525-6.124,8.962c1.317,1.55,4.852,4.218,10.576,2.574l4.518,5.277
			c-15.355,3.069-19.542-3.722-20.831-5.237c-4.768-5.618-3.134-12.071,7.38-16.27c14.041-5.609,21.447-1.925,26.195,3.62
			c1.035,1.209,6.676,7.617-3.611,14.253L31.52,102.928z"/>
		<path stroke="#E13A3E" stroke-width="2.1197" d="M34.119,138.799l31.032-12.407l4.232,5l-24.489,10.042l9.413,11.039l-6.594,2.302
			L34.119,138.799z"/>
		<path stroke="#E13A3E" stroke-width="2.1197" d="M83.675,168.864l-1.338,0.502c-6.653,3.26-16.954,6.961-26.056-3.674
			c-6.74-7.872,0.594-14.538,8.756-17.319c8.033-2.737,18.406-2.6,25.085,5.265c3.71,4.366,3.501,10.606-2.911,14.118l-4.479-5.232
			c1.23-0.512,3.863-3.772,2.024-5.92c-2.849-3.327-6.31-5.877-16.265-2.701c-2.277,0.726-10.377,4.581-6.529,9.076
			c4.538,5.302,9.226,4.335,11.075,3.658l-4.117-4.831l6.667-2.468L83.675,168.864z"/>
		<path stroke="#E13A3E" stroke-width="2.1197" d="M86.606,181.026l5.502-1.301c2.213-0.452,3.861-0.33,6.016-0.848l0.058,0.065
			c-0.873,0.748-2.731,2.106-4.13,3.188l-3.938,3.019L86.606,181.026z M84.842,198.502l24.521-20.061l-4.963-5.867l-37.684,4.59
			l4.395,5.192l7.71-0.904l6.468,7.597l-4.956,4.128L84.842,198.502z"/>
		<path stroke="#E13A3E" stroke-width="2.1197" d="M34.759,120.463l5.504-1.302c2.213-0.452,3.861-0.329,6.016-0.85l0.058,0.067
			c-0.871,0.746-2.731,2.106-4.13,3.188l-3.936,3.021L34.759,120.463z M32.997,137.938l24.52-20.06l-4.963-5.867L14.87,116.6
			l4.395,5.19l7.71-0.904l6.469,7.599l-4.957,4.128L32.997,137.938z"/>
		<path stroke="#E13A3E" stroke-width="2.1197" d="M110.279,197.895l5.007-1.945c1.757,1.875,4.974,6.155,2.195,7.167
			c-2.064,0.751-3.772-1.13-5.345-2.98L110.279,197.895z M101.529,218.632c0,0,0.054,0.04,1.324-0.551
			c-1.101-2.78,11.976-3.393,10.937-9.361c3.447,2.395,5.99,1.759,9.483,0.482c8.767-3.202,5.724-8.475,0.623-14.483l-6.663-7.783
			l-31.479,12.647l4.115,4.863l8.27-3.305c1.558-0.566,2.228-0.827,3.759-1.427l4.604,5.245c1.042,1.256,0.759,2.966-0.643,3.454
			c-3.67,1.283-8.931,4.509-8.931,4.509L101.529,218.632z"/>
		<path stroke="#E13A3E" stroke-width="2.1197" d="M108.112,225.9l12.23-4.773l12.289-14.958l5.034,5.943l-8.74,8.992l0,0
			l15.905-0.925l4.942,5.829l-25.237,0.018l-12.035,4.955L108.112,225.9z"/>
		<path stroke="#E13A3E" stroke-width="2.1197" d="M136.736,259.627l12.755-5.667l-6.568-7.75l-13.117,5.295l-4.091-4.835
			l30.813-12.667l4.351,5.14l-11.078,4.49l6.597,7.734l11.411-4.103l4.185,4.948l-31.158,12.259L136.736,259.627z"/>
		<path stroke="#E13A3E" stroke-width="2.1197" d="M142.981,267.013l31.135-12.288l3.858,4.561l-31.133,12.294L142.981,267.013z"/>
		<path stroke="#E13A3E" stroke-width="2.1197" d="M153.302,279.18l25.396-10.347l-4.271-5.022l5.51-2.199l13.004,15.309
			l-5.557,2.15l-3.941-4.641l-25.917,9.738L153.302,279.18z"/>
		<path stroke="#E13A3E" stroke-width="2.1197" d="M177.992,308.282l19.428-7.899l-0.058-0.067
			c-2.574,0.535-5.093,1.146-7.696,1.648l-14.681,2.777l-3.741-4.416l16.434-11.413l-0.058-0.067
			c-2.388,0.822-4.66,1.95-7.105,2.709l-12.474,5.003l-4.105-4.854l30.919-12.517l6.226,7.342l-19.256,12.53l0.058,0.069
			c2.152-0.519,10.821-2.392,13.059-2.81l12.326-2.527l6.111,7.205l-31.057,12.403L177.992,308.282z"/>
		<path stroke="#E13A3E" stroke-width="2.1197" d="M215.595,303.634l13.995,16.452l-5.711,2.361l-9.822-11.521l-6.012,2.283
			l9.06,10.625l-5.969,2.466l-8.622-10.116l-7.449,2.395l10.423,12.225l-6.424,2.276l-14.499-17.042L215.595,303.634z"/>
		<path stroke="#E13A3E" stroke-width="2.1197" d="M231.658,322.528l4.521,5.337l-13.382,16.341l0.142,0.035
			c3.443-1.605,8.646-3.668,12.316-5.003l7.968-3.104l4.207,4.971l-31.249,12.155l-4.291-5.069l12.236-15.473l-0.141-0.035
			c-2.853,1.257-6.947,2.687-9.932,3.77l-9.266,3.404l-4.323-5.104L231.658,322.528z"/>
	</g>
	<g>
		<path d="M31.527,102.923c3.13-1.959,3.512-4.591,2.305-6.002c-4.75-5.546-12.408-3.167-15.889-1.899
			c-3.693,1.343-9.043,5.524-6.124,8.961c1.315,1.552,4.85,4.22,10.574,2.575l4.518,5.278c-15.355,3.068-19.543-3.724-20.83-5.24
			c-4.769-5.617-3.135-12.07,7.38-16.269c14.04-5.608,21.447-1.926,26.195,3.622c1.035,1.209,6.676,7.615-3.611,14.251
			L31.527,102.923z"/>
		<path d="M34.126,138.793l31.033-12.405l4.232,5L44.9,141.43l9.414,11.037l-6.594,2.304L34.126,138.793z"/>
		<path d="M83.683,168.859l-1.338,0.502c-6.653,3.259-16.953,6.961-26.056-3.673c-6.741-7.875,0.594-14.539,8.757-17.321
			c8.031-2.737,18.406-2.598,25.085,5.266c3.709,4.367,3.499,10.606-2.912,14.118l-4.479-5.233c1.23-0.512,3.863-3.772,2.024-5.918
			c-2.849-3.33-6.309-5.877-16.263-2.703c-2.279,0.728-10.379,4.583-6.529,9.078c4.537,5.3,9.224,4.334,11.074,3.656l-4.118-4.831
			l6.668-2.467L83.683,168.859z"/>
		<path d="M86.614,181.022l5.502-1.303c2.213-0.451,3.861-0.328,6.018-0.848l0.056,0.066c-0.871,0.747-2.731,2.106-4.129,3.188
			l-3.937,3.019L86.614,181.022z M84.85,198.496l24.521-20.059l-4.964-5.867l-37.684,4.588l4.395,5.191l7.71-0.903l6.47,7.601
			l-4.957,4.125L84.85,198.496z"/>
		<path d="M34.768,120.457l5.502-1.301c2.214-0.452,3.861-0.33,6.018-0.849l0.056,0.067c-0.871,0.746-2.731,2.104-4.129,3.188
			l-3.936,3.02L34.768,120.457z M33.004,137.934l24.521-20.062l-4.964-5.867l-37.684,4.59l4.395,5.191l7.71-0.904l6.47,7.599
			l-4.957,4.127L33.004,137.934z"/>
		<path d="M110.286,197.89l5.007-1.946c1.756,1.874,4.975,6.159,2.195,7.167c-2.063,0.751-3.772-1.13-5.343-2.981L110.286,197.89z
			 M101.536,218.626c0,0,0.055,0.041,1.324-0.551c-1.099-2.777,11.977-3.394,10.937-9.361c3.447,2.397,5.99,1.76,9.483,0.483
			c8.767-3.203,5.724-8.475,0.622-14.484l-6.663-7.782L85.76,199.577l4.115,4.864l8.27-3.306c1.559-0.563,2.229-0.825,3.759-1.426
			l4.604,5.243c1.042,1.256,0.759,2.968-0.644,3.456c-3.671,1.282-8.932,4.507-8.932,4.507L101.536,218.626z"/>
		<path d="M108.121,225.895l12.229-4.772l12.289-14.955l5.035,5.938l-8.74,8.993l0,0l15.904-0.926l4.941,5.831l-25.237,0.018
			l-12.035,4.953L108.121,225.895z"/>
		<path d="M136.745,259.624l12.753-5.667l-6.567-7.753l-13.117,5.296l-4.093-4.837l30.813-12.667l4.351,5.141l-11.077,4.494
			l6.598,7.733l11.409-4.105l4.186,4.948l-31.158,12.262L136.745,259.624z"/>
		<path d="M142.99,267.007l31.133-12.287l3.858,4.563l-31.133,12.29L142.99,267.007z"/>
		<path d="M153.309,279.174l25.396-10.344l-4.271-5.025l5.511-2.196l13.003,15.309l-5.556,2.147l-3.943-4.64l-25.917,9.741
			L153.309,279.174z"/>
		<path d="M178,308.28l19.426-7.903l-0.058-0.066c-2.575,0.538-5.093,1.145-7.697,1.65l-14.681,2.774l-3.739-4.413l16.432-11.413
			l-0.058-0.07c-2.388,0.823-4.66,1.953-7.105,2.71l-12.473,5.002l-4.105-4.854l30.919-12.517l6.226,7.343l-19.256,12.529
			l0.057,0.068c2.154-0.517,10.822-2.392,13.06-2.808l12.325-2.528l6.111,7.208l-31.055,12.4L178,308.28z"/>
		<path d="M215.603,303.629l13.995,16.45l-5.709,2.363l-9.824-11.522l-6.012,2.282l9.061,10.625l-5.968,2.468l-8.624-10.117
			l-7.449,2.396l10.425,12.224l-6.424,2.277l-14.5-17.043L215.603,303.629z"/>
		<path d="M231.665,322.525l4.521,5.333l-13.38,16.342l0.141,0.034c3.443-1.604,8.645-3.668,12.316-5.003l7.969-3.102l4.207,4.969
			l-31.249,12.157l-4.292-5.068l12.236-15.476l-0.141-0.035c-2.853,1.26-6.948,2.687-9.932,3.77l-9.266,3.407l-4.323-5.106
			L231.665,322.525z"/>
	</g>
</g>
</svg>
