<?xml version="1.0" encoding="utf-8"?>
<!-- Generator: Adobe Illustrator 13.0.0, SVG Export Plug-In . SVG Version: 6.00 Build 14948)  -->
<!DOCTYPE svg PUBLIC "-//W3C//DTD SVG 1.1//EN" "http://www.w3.org/Graphics/SVG/1.1/DTD/svg11.dtd">
<svg version="1.1" id="Layer_1" xmlns="http://www.w3.org/2000/svg" xmlns:xlink="http://www.w3.org/1999/xlink" x="0px" y="0px"
	 width="338.29753268" height="295.597781065" viewBox="12.162 5.169 499.685 436.615"
	 enable-background="new 12.162 5.169 499.685 436.615" xml:space="preserve">
<g>
	
		<radialGradient id="SVGID_1_" cx="406.3579" cy="-1251.2568" r="151.468" gradientTransform="matrix(0.7382 0 0 -0.7382 -54.3223 -704.3198)" gradientUnits="userSpaceOnUse">
		<stop  offset="0" style="stop-color:#FAAB53"/>
		<stop  offset="0.233" style="stop-color:#FCC587"/>
		<stop  offset="0.5447" style="stop-color:#FDE4C8"/>
		<stop  offset="0.7723" style="stop-color:#FFF8F0"/>
		<stop  offset="0.89" style="stop-color:#FFFFFF"/>
	</radialGradient>
	<circle fill="url(#SVGID_1_)" cx="246.515" cy="220.53" r="111.962"/>
	<path fill="#66B4C0" stroke="#66B4C0" stroke-width="0.0734" d="M376.779,149.404c0,0-3.254-11.478,13.917-13.557
		c0,0,2.262,0.271,1.267-1.808c0,0-4.247-4.971-20.335-4.971c0,0-15.997,0.272-21.418-3.614c0,0-8.135-5.333,2.71-12.202
		c0,0,4.247-1.898,6.599-2.349c0,0,2.711-0.271,1.987-2.441c0,0-4.608-3.885-19.882-2.892c0,0-11.207,0.814-16.088,1.899
		c0,0-15.544,2.17-20.605-1.537c0,0-7.682-6.688,3.254-14.279c0,0,5.332-2.983,12.11-4.609c0,0,1.987-0.271,0.994-1.626
		c0,0-4.973-4.972-20.516-3.886c0,0-20.515,2.711-22.593-4.157l0.721,2.621c0,0,4.066,16.087,32.175,29.282l37.506,15.364
		C348.583,124.642,372.623,134.762,376.779,149.404z"/>
	<path fill="#008394" stroke="#008394" stroke-width="0.0725" d="M391.962,134.04c0,0-4.638-5.452-21.026-4.851
		c0,0-9.158,0.121-15.063-1.205c0,0,17.354,8.797,20.728,20.605c0,0-2.532-10.483,14.462-12.772c0,0-9.522-1.205-15.186,6.266
		c0,0-1.445-2.41-3.254-4.58c0,0,2.772,0.241,6.87-0.481c0,0-7.229,0.362-10.847-2.892c0,0,3.375,0.723,10.004,0
		c0,0,4.82,0,7.23,0.723c0,0-1.688-1.326-8.195-1.807c0,0-8.915,0.12-12.894-2.05c0,0,1.809,0.362,7.711-0.12
		C372.502,130.877,385.153,129.431,391.962,134.04z"/>
	<path fill="#008394" stroke="#008394" stroke-width="0.0725" d="M310.684,108.343c0,0,6.869,0.603,16.39-0.843
		c0,0,21.207-4.581,33.619,0.24c0,0-10.726-3.013-26.391,0.481c0,0-10.724,2.531-13.737,2.531c0,0,2.892,2.169,17.594,0.121
		c0,0,13.497-2.169,18.195-1.085c0,0-10.122,0.242-17.834,2.29c0,0-5.182,1.446-8.797,1.807c0,0,3.134,1.687,13.258,0.362
		c0,0,3.131-0.362,4.818-0.362c0,0-3.254,0.482-5.544,1.325c0,0-4.219,1.085-6.99,1.205c0,0,2.651,1.929,9.521,4.218
		c0,0-0.12-7.833,15.184-10.001c0,0-16.146,3.494-12.471,13.556l-27.415-10.905C320.083,113.284,311.287,109.91,310.684,108.343z"/>
	<path fill="#008394" stroke="#008394" stroke-width="0.0725" d="M278.872,78.94c0,0,5.665,3.978,15.786,3.133
		c0,0,20.605-2.44,26.629,3.343c0,0-9.519-4.549-23.375-1.778c0,0-7.834,2.049-13.857,0.844c0,0,2.53,3.375,14.581,2.169
		c0,0,11.085-1.206,15.182,0.722c0,0-8.193-0.843-14.339,0.484c0,0-7.472,2.048-12.412,0.603c0,0,2.531,3.735,12.049,3.615
		c0,0,3.495,0.12,4.339,0.241c0,0-3.494,0.361-5.183,0.361c0,0-5.661,0.361-9.157-0.844c0,0,4.821,5.181,10.725,8.556
		c0,0-0.994-9.851,20.454-13.346c0,0-21.298,3.826-17.621,17.624c0,0-18.499-9.339-24.04-24.764L278.872,78.94z"/>
	<path stroke="#000000" stroke-width="0.072" d="M442.394,301.505c0,0,0,13.739-6.146,23.138c0,0-3.615-7.593-13.737-10.484
		l16.629-5.784L442.394,301.505z"/>
	<path fill="#66B4C0" stroke="#000000" stroke-width="0.072" d="M172.709,83.88c0,0-16.81-4.518-22.052-28.558
		c0,0-0.903-2.892-2.53-1.445c0,0-5.061,9.579,4.88,30.546C153.007,84.423,159.153,94.546,172.709,83.88z"/>
	<path fill="#FFFFFF" stroke="#FFFFFF" stroke-width="0.0725" d="M148.851,55.865c0,0-3.163,8.042,5.513,28.015l6.598,3.075
		C160.961,86.955,148.489,75.204,148.851,55.865z"/>
	<path stroke="#000000" stroke-width="0.0725" d="M152.193,84.333c-10.122-23.499-3.977-31.089-3.977-31.089
		c2.53-1.085,2.892,1.807,2.892,1.807c5.062,24.582,22.052,27.835,22.052,27.835l-1.355,1.175c0,0-15.003-2.169-21.69-28.738
		c0,0-0.182-1.807-1.446-1.084c0,0-5.241,5.603,4.339,29.463L152.193,84.333z"/>
	<path fill="#66B4C0" stroke="#000000" stroke-width="0.072" d="M192.051,41.765c0,0-9.128-14.912-22.505-12.11
		c0,0-1.807,1.808,1.175,5.151c0,0,14.551,13.015,14.551,31.903l2.531-5.062C187.802,61.647,186.898,44.748,192.051,41.765z"/>
	<path fill="#FFFFFF" stroke="#FFFFFF" stroke-width="0.0725" d="M186.989,62.552c0,0-0.904-17.894-15.544-29.644
		c0,0,11.207,5.423,16.81,20.064l-0.362,9.76L186.989,62.552z"/>
	<path fill="#008394" stroke="#008394" stroke-width="0.0734" d="M154.271,100.268c0,0-13.495,2.291-20.364-13.014
		c0,0-1.205-1.687-2.892-0.723c0,0-4.217,4.098,3.253,18.438c0,0,6.869,11.327,17.353,16.991l3.977-3.374l-0.722-4.459l3.013-6.267
		l-0.361-3.133L154.271,100.268z"/>
	<path fill="#008394" stroke="#0091AE" stroke-width="0.0725" d="M253.445,58.213c0,0,3.375-28.799-3.614-43.259
		c0,0-4.7-10.966-12.292-9.038c0,0-3.013,1.566-3.013,10.001c0,0,0.964,19.04-9.64,31.572l7.109,6.869L253.445,58.213z"/>
	<path d="M73.254,94.612c-0.792,3.598-1.499,7.211-2.115,10.793c-3.015,17.521-3.981,34.979-2.874,51.89
		c1.348,20.593,5.42,33.9,6.286,36.545l25.91,16.908c0,0,8.932-17.367,33.075-12.108c0,0,32.272,1.435,23.667,27.251
		c0,0,2.629,2.629,3.823,6.931c0,0,5.02,1.674,8.128,10.758c0,0,3.825,2.629,5.737,6.216l20.495,11.813l-12.128,17.775l-14.353,8.41
		c0,0-8.835-28.679-32.741-14.335c0,0-11.087,10.52-15.151,18.646c0,0-5.903,10.351-20.365-5.785c0,0-0.362-3.373-9.4-4.099
		c0,0-12.894-28.797,0.824-51.559l-52.827-31.006l-0.389-0.209l-0.208-0.393c-6.077-11.438-11.855-24.852-15.86-39.401
		C12.583,122.586,12.082,90.257,12.17,81.233l0.248-19.762c0,0,0.005-0.465,0.005-0.458l0.271-0.376
		c6.365-8.78,14.704-13.036,15.056-13.214l0.563-0.284l0.591,0.213c26.705,9.663,35.709,24.952,42.285,36.118
		c0.326,0.555,0.647,1.1,0.965,1.635C72.153,85.104,74.399,89.725,73.254,94.612z"/>
	<g>
		<path fill="#B98544" stroke="#000000" stroke-width="0.1403" d="M33.449,144.827c0.142,0.874,0.329,1.854,0.476,2.726
			l26.189,3.041C52.919,148.883,41.571,146.125,33.449,144.827z"/>
		<path fill="#B98544" stroke="#000000" stroke-width="0.1403" d="M69.214,84.956c-6.096-10.789-14.89-25.261-40.037-34.578
			c-0.297,3.543-1.083,12.536-1.282,24.425c2.787,2.329,15.694,12.851,41.021,29.48c0.596-3.412,1.275-6.849,2.027-10.274
			C70.943,94.009,72.02,89.919,69.214,84.956z"/>
		<path fill="#B98544" stroke="#000000" stroke-width="0.1403" d="M65.842,130.695c-18.733-10.473-33.681-19.772-36.426-21.457
			c0.071,0.866,0.01,1.464,0.089,2.331c0.157,1.7,0.177,3.525,0.359,5.289c2.494,0.944,11.079,4.369,35.971,13.942
			C65.838,130.765,65.841,130.73,65.842,130.695z"/>
	</g>
	<path fill="#B98544" stroke="#000000" stroke-width="0.3588" d="M113.218,230.791c-29.36-15.821-62.999-36.601-64.964-37.687
		c-2.67-6.25-5.232-12.796-7.334-21.415l26.369-0.373c2.083,15.138,5.425,24.518,5.425,24.518l39.597,24.18
		C112.311,220.013,109.872,225.054,113.218,230.791z"/>
	<path fill="#B98544" stroke="#000000" stroke-width="0.3588" d="M109.632,236.887l-67.038-39.141l4.063-3.107l66.321,38.304
		C112.979,232.943,110.35,235.213,109.632,236.887z"/>
	<g>
		<g>
			<path fill="#B98544" stroke="#000000" stroke-width="0.1291" d="M33.157,148.185c-0.184-1.082-0.333-2.198-0.507-3.279
				l-8.18,7.519c0.209,0.84,0.429,1.687,0.646,2.534L33.157,148.185z"/>
			<path fill="#B98544" stroke="#000000" stroke-width="0.3588" d="M39.008,172.646l-6.759,4.981
				c2.611,6.917,5.499,13.417,8.665,19.418l5.026-3.363v-0.001C43.325,187.521,41.519,181.61,39.008,172.646z"/>
		</g>
		<path fill="#B98544" stroke="#000000" stroke-width="0.1291" d="M18.824,123.746l9.875-6.619c0,0-0.386-7.147-0.448-7.918
			c-0.012-0.132,0.01,0.13,0,0c-0.001-0.008,0,0.006,0,0l-10.445,6.94C18.104,118.6,18.44,121.131,18.824,123.746z"/>
		<path fill="#B98544" stroke="#000000" stroke-width="0.1291" d="M27.167,74.593c0.004-0.192-0.005-3.781,0.26-10.541
			c0.246-6.308,0.934-12.657,0.989-13.333v-0.001c-2.403,1.437-8.002,5.182-12.528,11.27c-0.01,0.892-0.24,19.274-0.24,19.274
			c0,0.083-0.001,0.183-0.002,0.271L27.167,74.593z"/>
	</g>
	<path fill="#E13A3E" d="M116.606,279.021l6.616,9.336l1.875-4.788l2.441-3.694c-6.459-6.416-15.231-17.813-18.599-25.25
		c-1.401-0.01-1.979,1.746-1.91,3.002c1.545,6.771,4.622,11.869,7.722,17.927L116.606,279.021z"/>
	<path fill="#B98544" stroke="#000000" stroke-width="0.152" d="M177.903,273.729l6.193,6.91l9.36-16.95l-17.606-10.307
		c0,0,2.539,6.124,1.284,8.814C177.133,262.197,179.016,265.333,177.903,273.729z"/>
	<path fill="#008394" d="M96.681,233.637l-2.211-1.228c-11.793,17.891-1.531,46.442-1.531,46.442c4.788,0.592,8.758,2.7,11.72,4.179
		l4.908,1.123C90.92,266.943,92.338,240.518,96.681,233.637z"/>
	<path fill="#FFFFFF" d="M109.768,251.208c-2.758-3.465-2.763-9.412-2.35-11.83l-9.533-5.172
		c-3.267,9.592-2.589,18.434-0.044,26.074c2.2,6.587,7.697,14.881,11.313,19.395l4.207,5.462l-0.367,1.149v-1.673
		c-4.004-6.037-9.815-22.148-8.192-28.289c0,0,0.528-1.031,1.126-1.27c0,0,0.239-2.391,2.509-2.63
		C108.437,252.424,108.709,251.186,109.768,251.208z"/>
	<path fill="#008394" d="M141.431,235.96c0,8.68-1.775,13.81-1.775,13.81l0.106,0.454c-0.604-0.586-1.092-0.849-1.092-0.849
		s2.332,5.117,0.591,9.271c-1.591,3.8-7.614,5.544-10.376,5.892c-10.678-6.678-16.084-11.268-16.829-11.976
		c-2.237-3.148-3.742-9.517-1.991-13.576c1.514-3.511,5.557-4.365,8.549-0.461l-1.301-2.415l-0.82-1.951
		c-1.77-4.204-2.847-8.469-2.623-10.374c0.209-1.789,0.396-2.929,0.62-3.815l0.291-1.149l-1.024-0.601l-4.431-2.598
		c1.333-1.984,4.52-5.107,11.392-5.107C126.243,210.516,141.431,212.29,141.431,235.96z"/>
	<path fill="#008394" d="M139.035,270.71l-7.22-2.408c11.501-3.974,10.597-9.13,10.209-13.208c-0.082-0.849-0.273-1.584-0.522-2.226
		c1.001-5.583,2.101-12.904,2.101-16.515c0-6.953-1.134-12.27-3.043-16.286l0,0c0.161,0.021,0.334,0.042,0.514,0.073
		c5.314,0.904,10.314,2.246,15.202,8.465c0.007,0.004,0.014,0.005,0.021,0.009c3.484,4.446,5.72,11.064,4.404,27.074l0.139,0.314
		l-2.507-1.367c0,0,5.924,10.22-1.844,14.762L139.035,270.71z"/>
	<path d="M132,202.128c0,0-2.095,2.556-2.303,7.731c0,0,6.418,2.278,10.56,8.074c0,0,9.73-0.207,15.319,6.832
		c0,0,2.823-8.375-3.094-15.368c0,0-3.585-6.096-18.537-8.953C132.659,200.567,132,202.128,132,202.128z"/>
	<path fill="#008394" d="M128.103,209.543c-2.471-0.75-5.063-1.093-7.582-1c-8.298,0.306-11.582,3.816-12.848,6.111l-4.593-2.694
		c2.619-4.747,7.662-9.062,13.228-11.134c5.144-1.917,10.535-1.468,15.197-0.752C129.205,202.486,128.347,205.188,128.103,209.543z"
		/>
	<path fill="#008394" d="M163.088,274.56l-3.825-2.87c5.829-5.64,3.35-12.846,2.888-13.83c0.757-2.697,2.26-12.573-0.645-22.118
		c5.071,4.861,6.934,10.76,7.318,23.131l-2.104-0.79C166.72,258.083,174.893,267.965,163.088,274.56z"/>
	<g>
		<path fill="#008394" d="M175.609,260.851c-0.896-7.171-3.301-10.577-5.411-13.752c0.524,3.348,0.854,9.113,0.75,13.931
			c0,0,4.576,7.712-5.217,15.652l1.912,1.435c0,0,13.703-7.044,6.533-17.441L175.609,260.851z"/>
	</g>
	<line fill="none" stroke="#000000" stroke-width="0.0384" x1="161.267" y1="234.136" x2="165.57" y2="236.648"/>
	<g>
		<path fill="#66B4C0" d="M305.859,313.524l2.138-5.131c0,0-21.49-16.931-25.398-46.886c-3.906-29.956,17.541-49.292,39.724-64.468
			c12.776-8.74,11.07-16.28,2.604-26.048c-8.466-9.769-43.63-32.56-47.536-32.56c-3.908,0-9.117,9.768-9.117,9.768
			c4.559,9.768,13.023,6.511,13.023,6.511c3.255,11.071,14.324,15.208,14.324,15.208l0.182,11.207l-6.326,4.519
			c-19.521,2.35-27.064,15.955-27.064,15.955c-5.861,0-20.838,5.208-31.908,11.722c-11.069,6.511-16.932,20.835-16.932,20.835
			c-7.813,3.908-11.721,27.353-11.721,41.027l2.704,1.077c-1,6.386-0.919,15.199,2.944,22.44l-1.742-0.728
			c-1.953,11.07,7.162,30.607,7.162,30.607c0,8.466,7.165,26.048,7.165,26.048c44.281,16.932,85.958,8.465,102.238,4.558
			c9.117-1.302,9.769-8.467,9.769-8.467l-0.876-0.365C336.033,347.367,341.958,338.134,305.859,313.524z"/>
		<path fill="#008394" d="M306.042,312.952c1.954-7.813-0.651-3.257-0.651-3.257c-15.63-20.187-21.49-37.769-22.793-55.351
			c-1.302-17.583,7.814-31.908,31.909-51.443c12.646-10.254,24.688-14.813,9.117-33.211c-15.712-18.568-47.887-30.679-47.887-30.679
			s-5.512,3.329-8.116,10.492c-2.605,7.163-7.816,20.188-7.816,20.188c-5.86,24.095-13.675,25.396-20.187,27.351
			c-6.511,1.954-15.627-11.722-15.627-11.722l8.185-0.215c3.705-48.622-28.372-53.833-28.372-53.833
			c-7.319,9.061-26.463,22.417-33.864,27.351c-7.814,5.21-44.933,11.721-51.444,11.721c-6.511,0-26.047,16.931-32.559,20.838
			c-6.511,3.908-3.907-6.512-3.907-15.629c0-23.443,14.326-27.35,14.326-29.955c0,0,0.405-7.284,7.163-5.861
			c6.187,1.302,13.023,0.65,13.023,0.65c19.537-3.906,38.421-21.489,38.421-21.489s-2.135-2.572-0.651-4.559
			c6.215-8.316,3.255-10.418-1.303-16.28c-4.558-5.86-3.289-11.182-0.976-14.652c0.543-0.812,12.047,4.559,12.047,4.559
			c13.023-0.65,23.443-23.768,23.443-23.768c0-18.233,5.861-22.792,5.861-22.792c18.884-8.465,38.421,12.372,38.421,12.372
			c13.385-1.166,21.7,5.16,21.7,5.16s3.046-0.603,19.978,2.001c5.389,13.181,5.845,20.249,5.845,20.249
			c4.821,19.039,51.679,37.362,60.166,40.082c33.732,10.812,37.104,28.406,37.104,28.406s12.02-0.991,18.988,10.163
			c0,0,29.837,3.066,35.135,35.411"/>
		<path d="M187.524,60.289c-3.255,8.792-10.745,25.071-24.746,27.025l0.977,0.976c10.418-1.954,20.512-13.024,23.769-20.513V60.289z
			"/>
		<path d="M228.875,98.708c5.861-8.14,23.769-24.745,35.166-18.884l-0.326,3.581C259.807,80.801,248.411,78.197,228.875,98.708z"/>
		<path d="M257.519,58.695c-6.001-3.192-13.051-5.542-22.632-5.18c4.252,0.223,13.557,1.626,17.931,6.095"/>
		<path d="M212.614,123.773c-11.396,8.447-30.937,27.276-39.402,32.567c-10.162,6.351-30.121,8.685-47.553,11.397
			c-14.651,2.279-34.837,18.233-38.095,20.512c-3.255,2.279-4.558,1.954-4.558-0.652c0-2.603-0.602-25.679,8.465-36.141
			c4.232-4.883,10.745-5.208,15.955-9.117c-5.535,2.279-9.442,2.604-12.698,2.931c-3.256,0.326-9.117,7.813-12.046,16.932
			c-2.932,9.116-5.537,35.164,1.626,30.932c7.163-4.233,28.707-21.345,39.397-22.792c15.913-2.154,36.616-3.409,49.791-11.982
			c22.611-14.716,29.279-26.13,39.279-34.584L212.614,123.773z"/>
		<g>
			
				<ellipse transform="matrix(0.8679 -0.4968 0.4968 0.8679 -45.7148 103.7514)" stroke="#000000" stroke-width="0.8368" cx="172.205" cy="137.824" rx="6.052" ry="2.737"/>
			
				<ellipse transform="matrix(0.8677 -0.497 0.497 0.8677 -45.6712 103.8242)" fill="#66B4C0" cx="172.241" cy="137.724" rx="4.917" ry="2.395"/>
		</g>
		<g>
			
				<ellipse transform="matrix(-0.2125 -0.9772 0.9772 -0.2125 275.4716 541.5288)" stroke="#000000" stroke-width="0.8368" cx="355.942" cy="159.765" rx="6.052" ry="2.738"/>
			
				<ellipse transform="matrix(-0.2122 -0.9772 0.9772 -0.2122 275.3113 541.3357)" fill="#69BCD0" cx="355.855" cy="159.696" rx="4.917" ry="2.396"/>
		</g>
		<g>
			<path stroke="#000000" stroke-width="0.8368" d="M343.725,144.624c-2.24-2.144-4.965-3.171-6.086-2.297
				c-1.121,0.873-0.217,3.32,2.021,5.463c2.239,2.144,4.965,3.171,6.088,2.297C346.872,149.212,345.963,146.766,343.725,144.624z"/>
			<path fill="#69BCD0" d="M343.382,144.812c-1.819-1.741-4.091-2.532-5.071-1.767c-0.984,0.766-0.307,2.798,1.516,4.539
				c1.819,1.741,4.091,2.532,5.071,1.767C345.88,148.586,345.201,146.554,343.382,144.812z"/>
		</g>
		<g>
			<path stroke="#000000" stroke-width="0.8368" d="M354.822,146.522c-1.317-1.94-3.172-3.133-4.139-2.664
				c-0.969,0.469-0.688,2.423,0.628,4.365c1.315,1.94,3.17,3.133,4.141,2.664C356.42,150.417,356.139,148.464,354.822,146.522z"/>
			<path fill="#69BCD0" d="M354.538,146.61c-1.069-1.577-2.623-2.523-3.474-2.112c-0.848,0.409-0.668,2.022,0.403,3.599
				c1.068,1.576,2.625,2.521,3.473,2.112C355.787,149.796,355.608,148.187,354.538,146.61z"/>
		</g>
		<g>
			
				<ellipse transform="matrix(0.8679 -0.4968 0.4968 0.8679 -42.1035 100.8644)" stroke="#000000" stroke-width="0.8368" cx="168.583" cy="129.591" rx="3.844" ry="1.738"/>
			
				<ellipse transform="matrix(0.8679 -0.4967 0.4967 0.8679 -42.0645 100.8463)" fill="#66B4C0" cx="168.613" cy="129.527" rx="3.124" ry="1.522"/>
		</g>
		<g>
			
				<ellipse transform="matrix(0.8285 -0.56 0.56 0.8285 -40.3313 122.0681)" stroke="#000000" stroke-width="0.8368" cx="179.129" cy="126.881" rx="3.844" ry="1.739"/>
			
				<ellipse transform="matrix(0.8284 -0.5602 0.5602 0.8284 -40.3015 122.118)" fill="#66B4C0" cx="179.144" cy="126.831" rx="3.125" ry="1.521"/>
		</g>
		<path d="M183.257,106.565c-2.442-0.977-6.559-6.879-7.047-17.136c0.977,5.617,3.422,15.742,11.926,16.718L183.257,106.565z"/>
		<path d="M203.479,131.92c8.141,1.954,31.258,10.745,28.653,52.747c1.953-14.326,3.255-42.979-27.026-54.049L203.479,131.92z"/>
		<path d="M210.642,125.733c14.977,3.583,28.978,28.001,24.745,58.284c0,0,8.792,1.952,11.721-7.815
			c2.932-9.767,4.233-24.095,1.953-38.42c-2.278-14.327-5.534-18.885,0.652-37.769c2.28-7.49,4.884-13.025,2.28-17.908l-1.954,0.976
			c1.627,2.279,2.278,3.582,1.301,7.815c-0.976,4.233-3.254,12.374-6.187,16.281c-2.93,3.907-11.721,17.582-32.234,16.603
			C212.92,123.778,209.34,125.733,210.642,125.733z"/>
		<path d="M242.225,183.365c-3.255,0.977-12.047,1.302-14.978,0.652c-2.929-0.652-5.321,0.503-1.953,4.883
			c3.256,4.233,10.149,11.958,18.233,8.141c23.444-11.07,17.257-53.399,36.144-64.469c-5.515-0.448-12.209,9.582-19.863,36.142
			c-5.535,19.209-12.384,25.313-18.233,26.698c-6.094,1.444-11.396-4.233-14.327-7.163c-1.007-1.008-2.184-3.834,0.977-2.931
			C230.503,185.97,240.271,184.017,242.225,183.365z"/>
		<path d="M268.273,147.549c4.233-5.862,9.117-11.07,15.953-11.397C280.322,136.152,273.483,136.152,268.273,147.549z"/>
		<path d="M307.345,308.718c-8.792-8.791-22.368-31.588-23.444-49.164c-2.336-38.174,33.017-56.704,43.306-64.468
			c11.311-8.533,0.326-26.373-12.697-35.165c-7.847-5.296-26.374-17.583-37.443-20.839l-1.305,0.652
			c16.608,6.438,35.026,19.086,40.699,23.769c13.025,10.744,20.103,24.001,4.234,34.513c-9.581,6.348-73.364,42.157-14.325,113.632
			L307.345,308.718z"/>
		<path d="M284.226,136.152c-1.628,0.652-1.628,4.233-1.303,5.862l-7.907-2.641C275.016,139.372,278.041,135.826,284.226,136.152z"
			/>
		<g>
			
				<ellipse transform="matrix(0.2677 0.9635 -0.9635 0.2677 486.5561 -100.7823)" cx="309.579" cy="269.694" rx="5.074" ry="2.295"/>
			<path fill="#03ABC4" d="M307.671,270.175c-0.609-2.195-0.237-4.214,0.832-4.512c1.068-0.297,2.431,1.241,3.04,3.434
				c0.607,2.195,0.236,4.214-0.834,4.512C309.642,273.907,308.281,272.369,307.671,270.175z"/>
		</g>
		<g>
			<path d="M299.741,253.632c-1.3-2.812-1.39-5.725-0.197-6.501c1.191-0.777,3.212,0.874,4.513,3.686
				c1.301,2.813,1.389,5.726,0.197,6.503C303.063,258.096,301.042,256.446,299.741,253.632z"/>
			<path fill="#03ABC4" d="M300.033,253.372c-1.058-2.286-1.068-4.69-0.025-5.372c1.041-0.681,2.744,0.62,3.801,2.906
				c1.058,2.285,1.068,4.69,0.023,5.371C302.791,256.958,301.088,255.656,300.033,253.372z"/>
		</g>
		<g>
			<path d="M297.938,264.746c-1.41-1.874-1.936-4.015-1.177-4.78c0.758-0.763,2.515,0.138,3.923,2.013s1.936,4.017,1.178,4.781
				C301.102,267.521,299.346,266.623,297.938,264.746z"/>
			<path fill="#03ABC4" d="M298.111,264.506c-1.144-1.525-1.534-3.303-0.87-3.972c0.663-0.669,2.129,0.025,3.273,1.548
				c1.144,1.523,1.534,3.303,0.869,3.971C300.721,266.723,299.255,266.029,298.111,264.506z"/>
		</g>
		<path d="M358.138,151.456"/>
		<path d="M98.005,141.871c0,0-1.711,2.626-1.711,3.968c0,1.344,1.771-0.244,1.771-0.244L98.005,141.871z"/>
		<path d="M105.84,140.406c-2.402-0.616-5.861-0.977-6.511,1.302c-0.652,2.278-1.304,4.231-1.304,4.231l-3.907,0.978
			c2.605-2.605,2.309-4.559,2.635-6.186c0.326-1.628,6.809-2.28,8.762-1.302c0,0,13.474,3.539,26.579-5.663l-2.648,2.928
			C129.445,136.694,115.416,142.863,105.84,140.406z"/>
		<path d="M268.507,146.904c3.258,3.255,5.625,8.461,13.766,8.461c0.977,4.558,7.163,12.372,14.001,13.999
			c0.326,3.582-0.325,5.536,0.326,8.792c0.65,3.256-0.977,3.908-2.605,4.559c-1.627,0.651-2.072,1.93-1.748,3.233
			c-4.232-0.652-24.625,6.535-28.858,15.978c-7.489,0-45.259,13.024-48.188,32.232c-13.35,9.444-13.675,32.232-11.396,42.981
			l-5.181-5.008c-3.733-14.001,5.332-38.298,15.273-38.298c-8.004-10.006,31.775-33.949,48.515-33.21
			c-1.629-3.908,16.77-16.28,25.56-15.304c0,0,2.441-3.255,4.723-3.907c2.278-0.65,3.255-0.65,2.604-3.256
			c-0.65-2.605-0.975-6.186,0-7.814c-4.231,0.326-13.351-7.488-13.999-14.001c-3.581,0-7.253,1.308-13.114-7.809"/>
		<path d="M215.525,233.181c13.023-2.605,51.119,2.276,62.19,13.998c-9.117-7.813-36.143-15.3-63.819-11.722L215.525,233.181z"/>
		<path d="M263.388,200.622c5.536,0,26.373,4.884,29.305,13.675c-3.584-3.908-7.815-11.07-33.538-12.047L263.388,200.622z"/>
		<path d="M292.369,184.341c7.813-1.953,24.418,0,28.977,8.466c-8.467-6.837-12.888-8.779-33.074-6.5L292.369,184.341z"/>
		<path d="M296.6,169.363c-1.303-0.976,15.629-4.557,21.165-3.254c-5.536-1.628-18.233-1.953-23.118,3.254H296.6z"/>
		<path d="M281.947,155.689c2.279-2.606,7.163-4.558,10.746-4.558c-3.908,0.325-10.746,1.301-12.699,4.558H281.947z"/>
		<path d="M208.037,300.904c1.055,20.242-0.512,37.605,57.632,33.537c-11.721,2.604-46.235,2.277-52.423-5.536
			c-6.187-7.814-8.792-25.724-8.792-25.724S205.758,298.953,208.037,300.904z"/>
		<path d="M211.618,328.255c0.651,4.558,1.953,22.465,12.699,29.304l1.953,0.649c0,0-9.442-2.604-11.396-27.023"/>
		<path d="M240.271,291.462c6.512,0.326,34.84-0.978,43.956-5.536c-6.186,2.604-13.673,7.814-39.072,6.839L240.271,291.462z"/>
		<path fill="#FFFFFF" d="M188.175,104.57c0,0,8.41,2.939,13.906,2.175c13.015-1.807,18.2-13.082,18.98-14.224
			c0.903-1.32,3.907-10.092,3.907-10.092c-0.65-13.677-10.418-17.91-21.163-21.816C199.245,78.521,194.671,95.631,188.175,104.57z"
			/>
		<path fill="#FFFFFF" d="M162.453,94.477c-2.605,3.907-4.294,10.553,3.256,16.932c0,0,13.123-4.556,15.676-4.752
			c2.351-0.181-0.373-0.783-0.373-0.783S165.661,95.811,162.453,94.477z"/>
		<ellipse transform="matrix(0.6201 -0.7845 0.7845 0.6201 15.4919 199.369)" cx="213.618" cy="83.687" rx="6.465" ry="5.43"/>
		
			<ellipse transform="matrix(0.6201 -0.7846 0.7846 0.6201 16.4548 199.2529)" fill="#FFFFFF" cx="213.952" cy="82.637" rx="2.603" ry="2.185"/>
		<path d="M161.954,94.726c-1.953,3.582-4.699,10.484,3.345,17.082l1.712-0.725c-3.255-1.954-10.094-9.768-4.232-15.955
			C162.778,95.128,162.511,94.681,161.954,94.726z"/>
		<ellipse transform="matrix(0.9801 0.1984 -0.1984 0.9801 24.2723 -32.2465)" cx="173.035" cy="104.987" rx="3.684" ry="3.223"/>
		
			<ellipse transform="matrix(0.62 -0.7846 0.7846 0.62 -16.4208 176.6844)" fill="#FFFFFF" cx="174.208" cy="105.296" rx="1.374" ry="1.155"/>
		<path d="M181.385,106.656c3.404-0.091,1.502-0.836,2.848-0.788c-5.298-1.116-9.732-5.531-12.338-10.74
			C172.75,98.832,177.5,106.023,181.385,106.656z"/>
		<path d="M191.756,106.197c-8.14-0.325-19.535,0.326-32.233,8.792c-12.698,8.465-26.048,22.141-42.98,25.396
			c16.607-4.559,21.702-5.833,41.677-22.141C174.175,105.221,189.477,106.197,191.756,106.197z"/>
		<path fill="#008394" d="M147.094,140.011c1.952-2.931,2.604-13.024-1.628-12.698c-4.233,0.325-14,4.558-23.444,20.187"/>
		<path d="M130.163,143.918c5.535-6.837,9.442-9.442,11.396-9.442c1.954,0,0.976,4.231,0.65,5.208
			C140.581,138.057,140.581,135.127,130.163,143.918z"/>
		<path d="M122.021,147.499c5.209-9.442,13.025-21.164,24.095-21.488c4.232-0.326,4.557,11.07,0.977,14.001
			c1.952-2.931,2.604-13.025-1.628-12.699C141.232,127.637,131.465,131.871,122.021,147.499z"/>
	</g>
	<line fill="none" stroke="#000000" stroke-width="0.0384" x1="346.984" y1="229.989" x2="341.331" y2="231.589"/>
	<g>
		<g>
			<polygon stroke="#000000" stroke-width="0.0492" points="211.197,362.953 180.696,339.693 162.687,375.313 67.553,399.288 
				67.553,441.752 368.337,369.322 368.337,322.907 			"/>
			<g>
				<g>
					<path stroke="#000000" stroke-width="24.6891" d="M450.999,216.11c7.776-24.109,34.221-21,34.221-21
						c4.146,0.519,9.116,0.35,9.116,0.35l1.285,25.895l-4.658,1.147c-3.329-20.569-13.521-20.392-13.521-20.392
						c-9.075,1.037-9.332,9.851-9.332,9.851c-1.557,10.888,14.518,20.999,14.518,20.999c25.924,18.922,14.259,42.774,14.259,42.774
						c-10.629,23.589-35.776,18.145-35.776,18.145c-2.852-1.035-11.113-1.738-11.113-1.738l-0.762-28.043l4.552-1.119
						c4.346,26.906,19.751,24.307,19.751,24.307c10.095-2.707,8.574-14.921,8.574-14.921c-1.299-10.888-15.097-19.635-15.097-19.635
						c-11.207-9.005-15.047-17.131-15.047-17.131l-4.555,1.121c-5.921-23.716-15.781-20.98-15.781-20.98
						c-5.371,0.668-5,7.109-5,7.109v64.032c0,10.89,9.332,8.297,9.332,8.297v5.442l-41.123,10.432v-6.002
						c12.021-3.868,11.104-12.465,11.104-12.465v-69.578c-16.28,0.417-20.746,27.691-20.746,27.691l-5.229,1.444
						c-5.703-25.146-21.418-18.408-21.418-18.408c-8.975,2.593-8.139,8.816-8.139,8.816v27.479l7.261-1.814
						c11.147-3.109,8.553-13.998,8.553-13.998l4.808-1.45v33.546l-4.556,1.122c-0.267-14.225-9.324-12.22-9.324-12.22l-6.741,1.61
						v29.756c-0.259,8.037,5.186,5.965,5.186,5.965l10.112-2.334c12.962-3.889,16.025-26.941,16.025-26.941l4.713-1.578
						l-0.951,31.571l-81.937,20.313l-19.514-33.994c-3.111-4.927-5.445-4.147-5.445-4.147l0.021,30.239
						c0.236,8.645,8.3,6.054,8.3,6.054l0.04,5.965l-39.73,9.849l0.036-2.526c-17.852,11.473-32.959,11.078-32.959,11.078
						c-32.406-0.516-30.851-39.402-30.851-39.402c-0.517-25.665,17.63-44.591,17.63-44.591
						c20.221-19.442,44.517-18.664,44.517-18.664v31.095l-4.554,1.121c-5.146-24.039-14.039-21.068-14.039-21.068
						c-23.073,6.998-23.591,49.255-23.591,49.255c-0.259,39.146,20.221,34.739,20.221,34.739
						c15.295-2.333,19.802-32.731,19.802-32.731l5.085-1.489l-0.777,26.962c10.888-3.111,10.398-11.406,10.398-11.406v-64.028
						c0.613-9.85-8.583-6.783-8.583-6.783v-5.922l37.155-9.05v5.948c-8.988,2.861-8.264,9.582-8.264,9.582v29.419
						c2.191-0.136,5.067-4.013,5.067-4.013l19.705-32.406c3.11-6.222-5.398-5.386-5.398-5.386v-5.847l153.165-37.504V216.11
						L450.999,216.11z M325.006,320.843c0,0,5.705,0,5.717-12.646v-61.76c0,0,0.578-7.168-6.423-5.612c0,0-5.517,0.948-10.701,8.725
						l-18.438,28.157l20.513,33.283C315.676,310.991,320.34,319.544,325.006,320.843z"/>
					<path stroke="#000000" stroke-width="24.6891" d="M80.972,382.282l0.052,6.803l-39.373,8.854v-6.15
						c0,0,10.135-0.863,10.125-11.924V316.46c0,0,1.631-7.188-7.874-6.586v-6.401l40.267-9.594c0,0,22.814-6.739,25.147,18.147
						c0,0,2.136,17.693-15.654,26.993l15.913,29.782c0,0,2.685,6.116,12.23,6.168l0.991,4.719l-28.678,6.448l-15.566-34.965
						c0,0-1.729-3.629-6.374-1.717v25.232C72.18,374.688,71.64,383.837,80.972,382.282z M72.18,307.793v34.393
						c0,0,17.262,0,16.742-22.121c0,0,0.691-16.591-8.986-17.802l-15.9,3.802L72.18,307.793z"/>
					<path stroke="#000000" stroke-width="24.6891" d="M161.511,319.2c-0.865,49.947-19.701,49.083-19.701,49.083
						c-13.483,0.345-12.619-40.615-12.619-40.615c1.383-45.626,19.876-45.106,19.876-45.106
						C162.375,282.733,161.511,319.2,161.511,319.2z M153.56,275.3c0,0-16.245,0.177-26.788,11.753c0,0-19.185,19.529-18.492,46.839
						c0,0-1.384,42.514,29.553,41.651c0,0,41.306,0,44.591-59.108C182.424,316.435,184.151,276.166,153.56,275.3z"/>
				</g>
				<g>
					<path fill="#FFFFFF" stroke="#FFFFFF" stroke-width="12.3433" d="M450.999,216.11c7.776-24.109,34.221-21,34.221-21
						c4.146,0.519,9.116,0.35,9.116,0.35l1.285,25.895l-4.658,1.147c-3.329-20.569-13.521-20.392-13.521-20.392
						c-9.075,1.037-9.332,9.851-9.332,9.851c-1.557,10.888,14.518,20.999,14.518,20.999c25.924,18.922,14.259,42.774,14.259,42.774
						c-10.629,23.589-35.776,18.145-35.776,18.145c-2.852-1.035-11.113-1.738-11.113-1.738l-0.762-28.043l4.552-1.119
						c4.346,26.906,19.751,24.307,19.751,24.307c10.095-2.707,8.574-14.921,8.574-14.921c-1.299-10.888-15.097-19.635-15.097-19.635
						c-11.207-9.005-15.047-17.131-15.047-17.131l-4.555,1.121c-5.921-23.716-15.781-20.98-15.781-20.98
						c-5.371,0.668-5,7.109-5,7.109v64.032c0,10.89,9.332,8.297,9.332,8.297v5.442l-41.123,10.432v-6.002
						c12.021-3.868,11.104-12.465,11.104-12.465v-69.578c-16.28,0.417-20.746,27.691-20.746,27.691l-5.229,1.444
						c-5.703-25.146-21.418-18.408-21.418-18.408c-8.975,2.593-8.139,8.816-8.139,8.816v27.479l7.261-1.814
						c11.147-3.109,8.553-13.998,8.553-13.998l4.808-1.45v33.546l-4.556,1.122c-0.267-14.225-9.324-12.22-9.324-12.22l-6.741,1.61
						v29.756c-0.259,8.037,5.186,5.965,5.186,5.965l10.112-2.334c12.962-3.889,16.025-26.941,16.025-26.941l4.713-1.578
						l-0.951,31.571l-81.937,20.313l-19.514-33.994c-3.111-4.927-5.445-4.147-5.445-4.147l0.021,30.239
						c0.236,8.645,8.3,6.054,8.3,6.054l0.04,5.965l-39.73,9.849l0.036-2.526c-17.852,11.473-32.959,11.078-32.959,11.078
						c-32.406-0.516-30.851-39.402-30.851-39.402c-0.517-25.665,17.63-44.591,17.63-44.591
						c20.221-19.442,44.517-18.664,44.517-18.664l2.48-0.195l5.646,29.069l-8.126,2.221l-4.554,1.121
						c-5.146-24.039-14.039-21.068-14.039-21.068c-23.073,6.998-23.591,49.255-23.591,49.255
						c-0.259,39.146,20.221,34.739,20.221,34.739c15.295-2.333,19.802-32.731,19.802-32.731l5.085-1.489l-0.777,26.962
						c10.888-3.111,10.398-11.406,10.398-11.406v-64.028c0.613-9.85-8.583-6.783-8.583-6.783v-5.922l37.155-9.05v5.948
						c-8.988,2.861-8.264,9.582-8.264,9.582v29.419c2.191-0.136,5.067-4.013,5.067-4.013l19.705-32.406
						c3.11-6.222-5.398-5.386-5.398-5.386v-5.847l153.165-37.504V216.11L450.999,216.11z M325.006,320.843c0,0,5.705,0,5.717-12.646
						v-61.76c0,0,0.578-7.168-6.423-5.612c0,0-5.517,0.948-10.701,8.725l-18.438,28.157l20.513,33.283
						C315.676,310.991,320.34,319.544,325.006,320.843z"/>
					<path fill="#FFFFFF" stroke="#FFFFFF" stroke-width="12.3433" d="M80.972,382.282l0.052,6.803l-39.373,8.854v-6.15
						c0,0,10.135-0.863,10.125-11.924V316.46c0,0,1.631-7.188-7.874-6.586v-6.401l40.267-9.594c0,0,22.814-6.739,25.147,18.147
						c0,0,2.136,17.693-15.654,26.993l15.913,29.782c0,0,2.685,6.116,12.23,6.168l0.991,4.719l-28.678,6.448l-15.566-34.965
						c0,0-1.729-3.629-6.374-1.717v25.232C72.18,374.688,71.64,383.837,80.972,382.282z M72.18,307.793v34.393
						c0,0,17.262,0,16.742-22.121c0,0,0.691-16.591-8.986-17.802l-15.9,3.802L72.18,307.793z"/>
					<path fill="#FFFFFF" stroke="#FFFFFF" stroke-width="12.3433" d="M161.511,319.2c-0.865,49.947-19.701,49.083-19.701,49.083
						c-13.483,0.345-12.619-40.615-12.619-40.615c1.383-45.626,19.876-45.106,19.876-45.106
						C162.375,282.733,161.511,319.2,161.511,319.2z M153.56,275.3c0,0-16.245,0.177-26.788,11.753c0,0-19.185,19.529-18.492,46.839
						c0,0-1.384,42.514,29.553,41.651c0,0,41.306,0,44.591-59.108C182.424,316.435,184.151,276.166,153.56,275.3z"/>
				</g>
				<g>
					<path stroke="#000000" stroke-width="5.1847" d="M450.999,216.11c7.776-24.109,34.221-21,34.221-21
						c4.146,0.519,9.116,0.35,9.116,0.35l1.285,25.895l-4.658,1.147c-3.329-20.569-13.521-20.392-13.521-20.392
						c-9.075,1.037-9.332,9.851-9.332,9.851c-1.557,10.888,14.518,20.999,14.518,20.999c25.924,18.922,14.259,42.774,14.259,42.774
						c-10.629,23.589-35.776,18.145-35.776,18.145c-2.852-1.035-11.113-1.738-11.113-1.738l-0.762-28.043l4.552-1.119
						c4.346,26.906,19.751,24.307,19.751,24.307c10.095-2.707,8.574-14.921,8.574-14.921c-1.299-10.888-15.097-19.635-15.097-19.635
						c-11.207-9.005-15.047-17.131-15.047-17.131l-4.555,1.121c-5.921-23.716-15.781-20.98-15.781-20.98
						c-5.371,0.668-5,7.109-5,7.109v64.032c0,10.89,9.332,8.297,9.332,8.297v5.442l-41.123,10.432v-6.002
						c12.021-3.868,11.104-12.465,11.104-12.465v-69.578c-16.28,0.417-20.746,27.691-20.746,27.691l-5.229,1.444
						c-5.703-25.146-21.418-18.408-21.418-18.408c-8.975,2.593-8.139,8.816-8.139,8.816v27.479l7.261-1.814
						c11.147-3.109,8.553-13.998,8.553-13.998l4.808-1.45v33.546l-4.556,1.122c-0.267-14.225-9.324-12.22-9.324-12.22l-6.741,1.61
						v29.756c-0.259,8.037,5.186,5.965,5.186,5.965l10.112-2.334c12.962-3.889,16.025-26.941,16.025-26.941l4.713-1.578
						l-0.951,31.571l-81.937,20.313l-19.514-33.994c-3.111-4.927-5.445-4.147-5.445-4.147l0.021,30.239
						c0.236,8.645,8.3,6.054,8.3,6.054l0.04,5.965l-39.73,9.849l0.036-2.526c-17.852,11.473-32.959,11.078-32.959,11.078
						c-32.406-0.516-30.851-39.402-30.851-39.402c-0.517-25.665,17.63-44.591,17.63-44.591
						c20.221-19.442,44.517-18.664,44.517-18.664v31.095l-4.554,1.121c-5.146-24.039-14.039-21.068-14.039-21.068
						c-23.073,6.998-23.591,49.255-23.591,49.255c-0.259,39.146,20.221,34.739,20.221,34.739
						c15.295-2.333,19.802-32.731,19.802-32.731l5.085-1.489l-0.777,26.962c10.888-3.111,10.398-11.406,10.398-11.406v-64.028
						c0.613-9.85-8.583-6.783-8.583-6.783v-5.922l37.155-9.05v5.948c-8.988,2.861-8.264,9.582-8.264,9.582v29.419
						c2.191-0.136,5.067-4.013,5.067-4.013l19.705-32.406c3.11-6.222-5.398-5.386-5.398-5.386v-5.847l153.165-37.504V216.11
						L450.999,216.11z M325.006,320.843c0,0,5.705,0,5.717-12.646v-61.76c0,0,0.578-7.168-6.423-5.612c0,0-5.517,0.948-10.701,8.725
						l-18.438,28.157l20.513,33.283C315.676,310.991,320.34,319.544,325.006,320.843z"/>
					<path stroke="#000000" stroke-width="5.1847" d="M80.972,382.282l0.052,6.803l-39.373,8.854v-6.15
						c0,0,10.135-0.863,10.125-11.924V316.46c0,0,1.631-7.188-7.874-6.586v-6.401l40.267-9.594c0,0,22.814-6.739,25.147,18.147
						c0,0,2.136,17.693-15.654,26.993l15.913,29.782c0,0,2.685,6.116,12.23,6.168l0.991,4.719l-28.678,6.448l-15.566-34.965
						c0,0-1.729-3.629-6.374-1.717v25.232C72.18,374.688,71.64,383.837,80.972,382.282z M72.18,307.793v34.393
						c0,0,17.262,0,16.742-22.121c0,0,0.691-16.591-8.986-17.802l-15.9,3.802L72.18,307.793z"/>
					<path stroke="#000000" stroke-width="5.1847" d="M161.511,319.2c-0.865,49.947-19.701,49.083-19.701,49.083
						c-13.483,0.345-12.619-40.615-12.619-40.615c1.383-45.626,19.876-45.106,19.876-45.106
						C162.375,282.733,161.511,319.2,161.511,319.2z M153.56,275.3c0,0-16.245,0.177-26.788,11.753c0,0-19.185,19.529-18.492,46.839
						c0,0-1.384,42.514,29.553,41.651c0,0,41.306,0,44.591-59.108C182.424,316.435,184.151,276.166,153.56,275.3z"/>
				</g>
				<g>
					<path fill="#E13A3E" stroke="#000000" stroke-width="0.4927" d="M450.999,216.11c7.776-24.109,34.221-21,34.221-21
						c4.146,0.519,9.116,0.35,9.116,0.35l1.285,25.895l-4.658,1.147c-3.329-20.569-13.521-20.392-13.521-20.392
						c-9.075,1.037-9.332,9.851-9.332,9.851c-1.557,10.888,14.518,20.999,14.518,20.999c25.924,18.922,14.259,42.774,14.259,42.774
						c-10.629,23.589-35.776,18.145-35.776,18.145c-2.852-1.035-11.113-1.738-11.113-1.738l-0.762-28.043l4.552-1.119
						c4.346,26.906,19.751,24.307,19.751,24.307c10.095-2.707,8.574-14.921,8.574-14.921c-1.299-10.888-15.097-19.635-15.097-19.635
						c-11.207-9.005-15.047-17.131-15.047-17.131l-4.555,1.121c-5.921-23.716-15.781-20.98-15.781-20.98
						c-5.371,0.668-5,7.109-5,7.109v64.032c0,10.89,9.332,8.297,9.332,8.297v5.442l-41.123,10.432v-6.002
						c12.021-3.868,11.104-12.465,11.104-12.465v-69.578c-16.28,0.417-20.746,27.691-20.746,27.691l-5.229,1.444
						c-5.703-25.146-21.418-18.408-21.418-18.408c-8.975,2.593-8.139,8.816-8.139,8.816v27.479l7.261-1.814
						c11.147-3.109,8.553-13.998,8.553-13.998l4.808-1.45v33.546l-4.556,1.122c-0.267-14.225-9.324-12.22-9.324-12.22l-6.741,1.61
						v29.756c-0.259,8.037,5.186,5.965,5.186,5.965l10.112-2.334c12.962-3.889,16.025-26.941,16.025-26.941l4.713-1.578
						l-0.951,31.571l-81.937,20.313l-19.514-33.994c-3.111-4.927-5.445-4.147-5.445-4.147l0.021,30.239
						c0.236,8.645,8.3,6.054,8.3,6.054l0.04,5.965l-39.73,9.849l0.036-2.526c-17.852,11.473-32.959,11.078-32.959,11.078
						c-32.406-0.516-30.851-39.402-30.851-39.402c-0.517-25.665,17.63-44.591,17.63-44.591
						c20.221-19.442,44.517-18.664,44.517-18.664v31.095l-4.554,1.121c-5.146-24.039-14.039-21.068-14.039-21.068
						c-23.073,6.998-23.591,49.255-23.591,49.255c-0.259,39.146,20.221,34.739,20.221,34.739
						c15.295-2.333,19.802-32.731,19.802-32.731l5.085-1.489l-0.777,26.962c10.888-3.111,10.398-11.406,10.398-11.406v-64.028
						c0.613-9.85-8.583-6.783-8.583-6.783v-5.922l37.155-9.05v5.948c-8.988,2.861-8.264,9.582-8.264,9.582v29.419
						c2.191-0.136,5.067-4.013,5.067-4.013l19.705-32.406c3.11-6.222-5.398-5.386-5.398-5.386v-5.847l153.165-37.504V216.11
						L450.999,216.11z M325.006,320.843c0,0,5.705,0,5.717-12.646v-61.76c0,0,0.578-7.168-6.423-5.612c0,0-5.517,0.948-10.701,8.725
						l-18.438,28.157l20.513,33.283C315.676,310.991,320.34,319.544,325.006,320.843z"/>
					<path fill="#E13A3E" stroke="#000000" stroke-width="0.4927" d="M80.972,382.282l0.052,6.803l-39.373,8.854v-6.15
						c0,0,10.135-0.863,10.125-11.924V316.46c0,0,1.631-7.188-7.874-6.586v-6.401l40.267-9.594c0,0,22.814-6.739,25.147,18.147
						c0,0,2.136,17.693-15.654,26.993l15.913,29.782c0,0,2.685,6.116,12.23,6.168l0.991,4.719l-28.678,6.448l-15.566-34.965
						c0,0-1.729-3.629-6.374-1.717v25.232C72.18,374.688,71.64,383.837,80.972,382.282z M72.18,307.793v34.393
						c0,0,17.262,0,16.742-22.121c0,0,0.691-16.591-8.986-17.802l-15.9,3.802L72.18,307.793z"/>
					<path fill="#E13A3E" stroke="#000000" stroke-width="0.4927" d="M161.511,319.2c-0.865,49.947-19.701,49.083-19.701,49.083
						c-13.483,0.345-12.619-40.615-12.619-40.615c1.383-45.626,19.876-45.106,19.876-45.106
						C162.375,282.733,161.511,319.2,161.511,319.2z M153.56,275.3c0,0-16.245,0.177-26.788,11.753c0,0-19.185,19.529-18.492,46.839
						c0,0-1.384,42.514,29.553,41.651c0,0,41.306,0,44.591-59.108C182.424,316.435,184.151,276.166,153.56,275.3z"/>
				</g>
				<polygon stroke="#000000" stroke-width="0.0492" points="396.318,257.398 380.517,261.677 380.517,273.198 396.976,267.929 				
					"/>
				<polygon stroke="#000000" stroke-width="0.0492" points="436.481,240.276 436.152,285.047 440.102,283.404 440.761,257.398 
					452.943,253.775 448.002,245.873 441.09,247.191 				"/>
				<path stroke="#000000" stroke-width="0.0492" d="M463.805,262.333c0,0,0,13.168,8.229,15.143
					C472.035,277.476,476.312,269.247,463.805,262.333z"/>
				<polygon stroke="#000000" stroke-width="0.0492" points="320.276,257.066 306.12,277.806 320.932,300.85 322.25,258.383 				"/>
				<path stroke="#000000" stroke-width="0.0492" d="M248.839,305.128l0.329-11.521l-14.813,2.304c0,0-3.292-17.118-7.242-21.065
					c0,0-14.814,8.228-14.814,40.159c0,0-0.658,23.373,10.205,24.688c0,0,11.191-5.596,12.179-31.603L248.839,305.128z"/>
				<path stroke="#000000" stroke-width="0.0492" d="M148.106,292.949c0,0-9.219,6.584-9.876,33.577c0,0,0,25.02,4.28,31.603
					c0,0,10.533-5.924,10.533-40.491C153.042,317.637,153.042,298.875,148.106,292.949z"/>
			</g>
		</g>
		<path fill="#FFFFFF" stroke="#FFFFFF" stroke-width="0.4694" d="M110.229,398.783c0.031,0.126,0.038,0.313,0.019,0.555
			c-0.018,0.243-0.072,0.375-0.157,0.396c-0.809,0.291-1.501,0.67-2.073,1.141c-0.573,0.47-1.15,1.081-1.731,1.839l-4.828,6.657
			l7.536,8.917c0.478,0.56,1.076,1.011,1.794,1.354c0.717,0.341,1.682,0.487,2.889,0.436c0.063-0.017,0.124,0.048,0.183,0.19
			c0.059,0.145,0.095,0.249,0.111,0.313c0.047,0.192,0.041,0.403-0.014,0.63c-0.057,0.229-0.144,0.335-0.26,0.317
			c-1.091,0.069-2.597,0.288-4.515,0.663c-1.921,0.377-3.371,0.684-4.351,0.927l-6.374-8.053c-0.234-0.303-0.528-0.586-0.888-0.849
			c-0.359-0.261-0.741-0.343-1.146-0.24l0.043,6.875c-0.001,0.181,0.011,0.386,0.035,0.618c0.023,0.232,0.048,0.401,0.074,0.507
			c0.111,0.449,0.298,0.771,0.562,0.965c0.263,0.194,0.985,0.213,2.168,0.055c0.063-0.015,0.124,0.048,0.181,0.192
			c0.06,0.144,0.096,0.25,0.112,0.313c0.037,0.146,0.023,0.345-0.041,0.586c-0.064,0.242-0.149,0.377-0.255,0.402
			c-1.045,0.259-2.085,0.489-3.12,0.688c-1.036,0.202-1.979,0.406-2.831,0.617c-0.831,0.206-1.751,0.463-2.761,0.771
			c-1.009,0.307-1.992,0.579-2.951,0.817c-0.021,0.006-0.066-0.042-0.135-0.138c-0.07-0.095-0.122-0.217-0.16-0.365
			c-0.037-0.15-0.017-0.343,0.062-0.577c0.078-0.231,0.157-0.371,0.236-0.414c1.22-0.461,1.952-0.926,2.199-1.392
			c0.246-0.469,0.355-1.164,0.33-2.087l-0.156-14.851c-0.004-0.202-0.012-0.396-0.026-0.586c-0.013-0.188-0.04-0.368-0.082-0.541
			c-0.116-0.468-0.304-0.788-0.562-0.961c-0.258-0.176-0.981-0.192-2.168-0.058c-0.048-0.012-0.105-0.082-0.172-0.211
			c-0.067-0.132-0.107-0.229-0.122-0.291c-0.038-0.15-0.023-0.347,0.04-0.589c0.064-0.241,0.149-0.377,0.257-0.403
			c1.042-0.259,2.082-0.489,3.119-0.689c1.036-0.197,1.979-0.403,2.833-0.616c0.83-0.206,1.685-0.447,2.567-0.722
			c0.882-0.274,1.802-0.533,2.761-0.77c0.021-0.006,0.061,0.02,0.12,0.072c0.059,0.056,0.106,0.152,0.143,0.303
			c0.037,0.148,0.027,0.368-0.026,0.651c-0.053,0.285-0.123,0.439-0.208,0.461c-1.017,0.365-1.632,0.803-1.843,1.321
			c-0.212,0.516-0.313,1.201-0.303,2.058l0.043,6.469c0.469-0.118,0.833-0.286,1.096-0.509s0.499-0.496,0.711-0.822l5.244-7.439
			c0.148-0.219,0.283-0.455,0.401-0.71c0.117-0.255,0.149-0.489,0.097-0.702c-0.07-0.278-0.253-0.453-0.554-0.525
			c-0.3-0.072-0.76-0.076-1.377-0.014c-0.049-0.014-0.111-0.08-0.188-0.207c-0.075-0.13-0.122-0.225-0.138-0.288
			c-0.037-0.15-0.045-0.341-0.023-0.571c0.021-0.231,0.086-0.361,0.192-0.388c0.767-0.19,1.509-0.345,2.225-0.467
			s1.49-0.285,2.321-0.491c0.809-0.2,1.446-0.387,1.913-0.56c0.466-0.171,1.008-0.335,1.625-0.487
			c0.022-0.006,0.065,0.04,0.136,0.137C110.139,398.513,110.193,398.634,110.229,398.783z"/>
		<path fill="#FFFFFF" stroke="#FFFFFF" stroke-width="0.4694" d="M142.747,390.143c0.041,0.531,0.115,1.146,0.219,1.844
			c0.105,0.697,0.201,1.308,0.285,1.83c0.063,0.344,0.175,0.911,0.335,1.697c0.161,0.787,0.289,1.369,0.384,1.754
			c0.016,0.063-0.062,0.145-0.228,0.243c-0.168,0.098-0.316,0.162-0.444,0.194c-0.105,0.024-0.251,0.034-0.435,0.021
			c-0.183-0.01-0.283-0.048-0.299-0.112c-0.36-1.269-1.093-2.357-2.201-3.269c-1.109-0.914-2.313-1.207-3.611-0.886l-0.896,0.223
			c-0.469,0.116-0.894,0.318-1.275,0.604c-0.382,0.289-0.577,0.908-0.589,1.86l0.075,6.731l1.375-0.343
			c1.065-0.263,1.869-0.667,2.414-1.207c0.544-0.543,0.87-1.415,0.979-2.62c0.005-0.064,0.085-0.148,0.243-0.245
			c0.158-0.095,0.29-0.158,0.396-0.183c0.149-0.038,0.32-0.054,0.515-0.044c0.194,0.01,0.279,0.05,0.251,0.124
			c-0.002,0.634-0.006,1.298-0.016,1.989c-0.01,0.692-0.012,1.319-0.008,1.883c-0.007,0.885,0.019,1.604,0.077,2.152
			c0.058,0.553,0.087,1.289,0.091,2.218c-0.021,0.096-0.113,0.186-0.273,0.269c-0.16,0.086-0.282,0.138-0.366,0.158
			c-0.214,0.054-0.389,0.068-0.53,0.048c-0.141-0.02-0.219-0.063-0.236-0.128c-0.184-1.288-0.579-2.13-1.185-2.521
			c-0.606-0.392-1.387-0.47-2.347-0.233l-1.375,0.34l0.066,6.972c0,0.183,0.012,0.387,0.036,0.621
			c0.022,0.229,0.049,0.399,0.075,0.506c0.122,0.491,0.343,0.792,0.664,0.904c0.323,0.112,0.696,0.116,1.123,0.01l2.109-0.521
			c1.576-0.393,2.878-1.341,3.906-2.851c1.027-1.513,1.572-3.01,1.632-4.494c-0.01-0.042,0.057-0.092,0.2-0.15
			c0.143-0.059,0.247-0.097,0.311-0.11c0.171-0.042,0.381-0.038,0.631,0.014c0.25,0.051,0.363,0.114,0.335,0.188
			c-0.029,0.978-0.037,2.223-0.022,3.736c0.013,1.512,0.04,2.759,0.081,3.745c-1.183,0.247-2.822,0.614-4.917,1.1
			s-3.782,0.888-5.06,1.203c-1.28,0.316-2.956,0.756-5.033,1.317c-2.077,0.56-3.709,0.998-4.896,1.315
			c-0.021,0.006-0.066-0.04-0.135-0.137c-0.07-0.094-0.122-0.217-0.16-0.365s-0.017-0.341,0.062-0.575
			c0.077-0.234,0.157-0.373,0.236-0.415c1.22-0.463,1.952-0.927,2.199-1.396c0.245-0.467,0.356-1.159,0.331-2.083l-0.156-14.851
			c-0.005-0.201-0.009-0.399-0.01-0.59c-0.002-0.192-0.024-0.371-0.066-0.544c-0.116-0.469-0.303-0.79-0.562-0.964
			c-0.259-0.173-0.981-0.19-2.167-0.055c-0.07-0.006-0.132-0.076-0.188-0.21c-0.057-0.131-0.092-0.23-0.106-0.295
			c-0.038-0.148-0.028-0.345,0.024-0.584c0.053-0.238,0.132-0.371,0.24-0.396c0.964-0.219,2.41-0.542,4.338-0.975
			c1.928-0.432,3.414-0.778,4.458-1.037c1.021-0.255,2.536-0.647,4.54-1.179C140.194,390.858,141.714,390.445,142.747,390.143z"/>
		<path fill="#FFFFFF" stroke="#FFFFFF" stroke-width="0.4694" d="M178.847,396.488c-0.082,0.947-0.136,2.278-0.163,3.991
			c-0.029,1.714-0.021,3.154,0.02,4.319c-1.204,0.256-2.719,0.591-4.549,1.01c-1.83,0.42-3.384,0.788-4.662,1.105
			c-1.279,0.316-2.956,0.756-5.033,1.315c-2.077,0.562-3.698,0.996-4.864,1.308c-0.043,0.012-0.098-0.03-0.169-0.127
			c-0.068-0.096-0.122-0.217-0.159-0.365c-0.037-0.149-0.016-0.343,0.062-0.575c0.077-0.234,0.156-0.373,0.235-0.417
			c1.219-0.461,1.952-0.924,2.198-1.392c0.246-0.469,0.357-1.161,0.333-2.085l-0.156-14.852c0.011-0.228,0.011-0.432,0.001-0.609
			c-0.01-0.179-0.037-0.354-0.08-0.523c-0.116-0.469-0.304-0.79-0.56-0.964c-0.259-0.173-0.981-0.192-2.169-0.057
			c-0.069-0.004-0.132-0.073-0.186-0.208c-0.058-0.133-0.092-0.231-0.107-0.295c-0.037-0.148-0.024-0.345,0.04-0.588
			c0.065-0.241,0.139-0.373,0.225-0.395c1.023-0.253,2.063-0.483,3.119-0.688c1.058-0.205,2.001-0.411,2.832-0.617
			c0.811-0.201,1.735-0.459,2.776-0.772c1.04-0.315,2.019-0.587,2.936-0.813c0.042-0.011,0.093,0.012,0.152,0.063
			c0.059,0.053,0.106,0.153,0.143,0.304c0.037,0.148,0.021,0.369-0.042,0.655c-0.064,0.286-0.14,0.441-0.223,0.463
			c-1.204,0.434-1.925,0.878-2.163,1.332c-0.238,0.457-0.36,1.17-0.367,2.144l0.124,14.315c0,0.184,0.008,0.471,0.026,0.861
			c0.019,0.39,0.046,0.66,0.083,0.809c0.121,0.493,0.342,0.794,0.664,0.904c0.323,0.114,0.696,0.116,1.123,0.012l0.863-0.216
			c1.575-0.388,2.934-1.41,4.074-3.061c1.139-1.652,1.84-3.459,2.099-5.424c-0.005-0.021,0.07-0.055,0.227-0.104
			c0.157-0.052,0.29-0.09,0.396-0.116c0.191-0.048,0.394-0.024,0.61,0.068C178.77,396.297,178.868,396.392,178.847,396.488z"/>
		<path fill="#FFFFFF" stroke="#FFFFFF" stroke-width="0.4694" d="M208.902,385.505c0.081,1.834-0.059,3.665-0.418,5.496
			c-0.311,1.568-0.858,2.968-1.64,4.189c-0.782,1.223-1.759,1.978-2.931,2.271c-1.021,0.253-1.898,0.022-2.629-0.689
			c-0.731-0.712-1.299-1.889-1.706-3.527c-0.417-1.683-0.66-3.482-0.728-5.399c-0.068-1.917,0.069-3.686,0.413-5.309
			c0.344-1.624,0.893-3.03,1.648-4.225c0.756-1.194,1.741-1.941,2.955-2.242c1.002-0.248,1.867-0.021,2.595,0.679
			c0.727,0.701,1.298,1.884,1.709,3.545C208.576,381.934,208.821,383.671,208.902,385.505z M210.51,375.168
			c-2.19-1.038-4.522-1.253-6.992-0.64c-3.899,0.966-6.879,3.245-8.94,6.83c-2.061,3.588-2.626,7.254-1.697,11.003
			c0.739,2.981,2.199,4.99,4.376,6.021c2.177,1.032,4.513,1.239,7.005,0.621c3.876-0.962,6.853-3.236,8.923-6.825
			c2.072-3.592,2.644-7.259,1.713-11.01C214.165,378.208,212.702,376.208,210.51,375.168z"/>
		<path fill="#FFFFFF" stroke="#FFFFFF" stroke-width="0.4694" d="M264.262,360.583c0.026,0.105,0.031,0.287,0.016,0.539
			c-0.018,0.254-0.076,0.392-0.185,0.419c-0.792,0.265-1.397,0.698-1.814,1.299c-0.417,0.602-0.922,1.574-1.516,2.918l-9.023,21.199
			c-0.006,0.068-0.091,0.151-0.259,0.251c-0.169,0.098-0.37,0.176-0.604,0.234c-0.235,0.058-0.468,0.074-0.698,0.054
			c-0.232-0.021-0.353-0.054-0.364-0.096l-3.54-7.568l-4.441,9.579c-0.027,0.076-0.124,0.162-0.292,0.261
			c-0.167,0.099-0.369,0.177-0.602,0.234c-0.214,0.053-0.438,0.061-0.672,0.031c-0.233-0.033-0.356-0.07-0.365-0.113l-8.208-17.095
			c-0.546-1.107-0.985-1.807-1.318-2.097c-0.332-0.291-0.979-0.376-1.943-0.247c-0.068-0.007-0.131-0.076-0.187-0.21
			c-0.056-0.133-0.091-0.229-0.106-0.296c-0.037-0.149-0.044-0.338-0.023-0.568c0.022-0.232,0.076-0.36,0.162-0.38
			c1.044-0.261,1.86-0.434,2.449-0.523s1.32-0.242,2.193-0.459c0.809-0.2,1.573-0.42,2.294-0.655
			c0.722-0.234,1.467-0.447,2.233-0.638c0.043-0.012,0.094,0.034,0.152,0.133c0.059,0.1,0.106,0.224,0.144,0.371
			c0.032,0.127,0.038,0.313,0.019,0.555s-0.07,0.374-0.156,0.394c-0.542,0.183-0.815,0.451-0.815,0.813
			c-0.001,0.363,0.264,1.065,0.793,2.109l5.704,11.237l1.998-4.531l-3.62-7.616c-0.508-1.048-0.937-1.723-1.282-2.022
			c-0.345-0.3-0.78-0.415-1.309-0.354c-0.069-0.004-0.131-0.076-0.187-0.207c-0.056-0.135-0.091-0.23-0.107-0.297
			c-0.037-0.148-0.044-0.339-0.023-0.569c0.022-0.232,0.085-0.362,0.192-0.389c0.555-0.138,1.269-0.285,2.145-0.445
			c0.876-0.162,1.613-0.314,2.209-0.464c0.703-0.174,1.441-0.386,2.215-0.633c0.775-0.251,1.514-0.462,2.217-0.636
			c0.021-0.006,0.067,0.04,0.136,0.137c0.069,0.096,0.123,0.22,0.16,0.368c0.033,0.127,0.033,0.313,0.002,0.559
			c-0.029,0.245-0.086,0.378-0.172,0.398c-0.607,0.196-0.948,0.483-1.023,0.864c-0.076,0.381,0.121,1.055,0.587,2.025l1.368,2.781
			l1.299-2.968c0.39-0.887,0.597-1.646,0.623-2.274c0.025-0.628-0.383-0.906-1.224-0.834c-0.07-0.004-0.133-0.073-0.187-0.206
			c-0.056-0.135-0.102-0.229-0.14-0.287c-0.037-0.15-0.051-0.339-0.039-0.567c0.012-0.229,0.07-0.357,0.177-0.385
			c0.66-0.163,1.273-0.287,1.842-0.371c0.567-0.085,1.094-0.187,1.584-0.309c0.468-0.116,0.915-0.254,1.337-0.417
			c0.423-0.161,1.008-0.334,1.755-0.52c0.021-0.005,0.071,0.046,0.155,0.148c0.082,0.104,0.14,0.221,0.171,0.345
			c0.031,0.13,0.043,0.313,0.034,0.553c-0.007,0.24-0.064,0.372-0.171,0.399c-0.821,0.249-1.526,0.752-2.119,1.51
			c-0.592,0.758-1.157,1.699-1.69,2.827l-2.438,5.351l3.279,6.516l5.518-13.58c0.492-1.207,0.658-2.042,0.499-2.498
			c-0.158-0.46-0.695-0.62-1.61-0.483c-0.049-0.01-0.106-0.081-0.172-0.211c-0.067-0.131-0.107-0.228-0.123-0.293
			c-0.037-0.148-0.046-0.339-0.023-0.569c0.021-0.232,0.087-0.361,0.192-0.388c0.915-0.226,1.567-0.36,1.953-0.399
			s0.93-0.146,1.634-0.321c0.639-0.157,1.127-0.306,1.466-0.447c0.34-0.142,0.872-0.302,1.596-0.479
			c0.041-0.012,0.093,0.032,0.15,0.132C264.178,360.312,264.226,360.434,264.262,360.583z"/>
		<path fill="#FFFFFF" stroke="#FFFFFF" stroke-width="0.4694" d="M300.517,351.558c0.031,0.128,0.038,0.313,0.02,0.555
			c-0.02,0.242-0.082,0.375-0.188,0.403c-1.241,0.467-1.965,0.968-2.171,1.504c-0.207,0.537-0.294,1.187-0.264,1.947l0.971,19.229
			c0.015,0.064-0.036,0.15-0.156,0.261c-0.122,0.107-0.343,0.202-0.66,0.281c-0.32,0.079-0.56,0.115-0.719,0.11
			c-0.159-0.006-0.282-0.043-0.366-0.111l-14.884-12.692l0.609,11.618c-0.02,0.842,0.14,1.46,0.474,1.851
			c0.335,0.392,1.09,0.499,2.268,0.318c0.042-0.011,0.098,0.055,0.167,0.195c0.067,0.143,0.111,0.246,0.128,0.309
			c0.037,0.148,0.038,0.34,0.006,0.576c-0.03,0.231-0.09,0.36-0.176,0.383c-0.62,0.152-1.274,0.286-1.97,0.402
			c-0.694,0.116-1.33,0.244-1.905,0.387c-0.619,0.153-1.245,0.339-1.882,0.552s-1.231,0.39-1.784,0.527
			c-0.021,0.006-0.067-0.04-0.136-0.136c-0.069-0.095-0.123-0.219-0.161-0.368c-0.037-0.148-0.037-0.336-0.002-0.559
			c0.036-0.223,0.094-0.355,0.173-0.399c1.22-0.46,1.989-0.956,2.311-1.489c0.32-0.531,0.467-1.21,0.442-2.042l-0.381-13.709
			c0-0.183-0.006-0.339-0.017-0.472s-0.043-0.316-0.104-0.55c-0.179-0.724-0.539-1.263-1.077-1.615
			c-0.539-0.352-1.315-0.471-2.326-0.354c-0.048-0.013-0.105-0.083-0.172-0.214c-0.067-0.13-0.108-0.226-0.124-0.292
			c-0.036-0.149-0.04-0.341-0.007-0.572c0.033-0.236,0.091-0.364,0.179-0.386c0.447-0.109,0.952-0.22,1.513-0.323
			c0.561-0.104,1.022-0.202,1.385-0.293c0.468-0.116,0.892-0.237,1.266-0.365c0.377-0.128,1.215-0.353,2.515-0.675l13.328,11.482
			l-0.676-10.379c-0.078-0.863-0.294-1.459-0.646-1.79c-0.354-0.331-1.181-0.426-2.479-0.283c-0.07-0.008-0.14-0.074-0.204-0.206
			c-0.066-0.13-0.107-0.227-0.124-0.292c-0.038-0.149-0.043-0.339-0.022-0.571c0.021-0.231,0.087-0.358,0.191-0.386
			c0.641-0.159,1.266-0.279,1.878-0.363s1.271-0.215,1.973-0.389c0.681-0.168,1.302-0.355,1.861-0.563
			c0.56-0.205,1.169-0.39,1.829-0.554c0.021-0.006,0.066,0.04,0.138,0.136C300.426,351.286,300.481,351.409,300.517,351.558z"/>
		<path fill="#FFFFFF" stroke="#FFFFFF" stroke-width="0.4694" d="M321.778,360.43l3.503-7.619l1.448,6.391L321.778,360.43z
			 M337.922,364.058c-0.068-0.142-0.125-0.207-0.167-0.197c-1.268,0.18-2.149,0.133-2.646-0.142
			c-0.497-0.271-0.874-0.963-1.127-2.078l-4.26-18.141c-0.012-0.042-0.132-0.067-0.36-0.08c-0.229-0.011-0.461,0.014-0.696,0.07
			c-0.188,0.05-0.385,0.126-0.585,0.23c-0.199,0.104-0.293,0.19-0.275,0.255l-10.431,21.546c-0.535,1.127-1.141,2.061-1.816,2.791
			c-0.676,0.733-1.648,1.325-2.918,1.774c-0.08,0.044-0.132,0.175-0.156,0.396c-0.022,0.223-0.019,0.405,0.02,0.555
			s0.091,0.271,0.159,0.367c0.068,0.095,0.114,0.142,0.136,0.137c0.746-0.185,1.361-0.366,1.849-0.544s1.083-0.354,1.785-0.527
			c0.874-0.218,1.62-0.373,2.242-0.471c0.619-0.099,1.389-0.259,2.304-0.485c0.104-0.026,0.17-0.157,0.192-0.387
			c0.021-0.232,0.014-0.423-0.024-0.572c-0.016-0.063-0.058-0.166-0.126-0.307s-0.124-0.207-0.168-0.195
			c-0.645,0.136-1.09,0.134-1.34-0.007c-0.251-0.143-0.415-0.373-0.495-0.692c-0.059-0.233-0.026-0.563,0.094-0.99
			s0.277-0.842,0.47-1.253l1.331-2.84l6.166-1.529l0.602,2.7c0.223,0.896,0.253,1.589,0.091,2.082
			c-0.159,0.492-0.953,0.96-2.381,1.403c-0.08,0.044-0.138,0.177-0.172,0.398c-0.036,0.224-0.034,0.41,0.002,0.56
			c0.038,0.148,0.09,0.271,0.16,0.368c0.068,0.096,0.112,0.142,0.135,0.136c1.022-0.254,2.113-0.554,3.272-0.896
			c1.158-0.345,2.216-0.634,3.176-0.872c0.872-0.217,1.819-0.425,2.846-0.624c1.026-0.196,2.049-0.422,3.073-0.675
			c0.104-0.026,0.169-0.155,0.191-0.386c0.021-0.232,0.014-0.424-0.022-0.571C338.035,364.3,337.992,364.2,337.922,364.058z"/>
	</g>
	<path stroke="#000000" stroke-width="0.0359" d="M426.625,313.906c0,0,31.376,17.979,14.643,36.623c0,0,4.303,4.303-0.241,9.563
		c0,0,0.959,2.867,0.241,5.976l8.127,3.585c0,0,4.302,3.827,5.735,10.521c0,0-1.911,7.409-7.887,10.994c0,0-7.411-0.717-9.562-3.824
		l-0.956-2.628l-6.216-3.109c0,0-7.65,3.109-14.582,1.196c0,0-7.411,3.586-14.342,0.238c0,0-13.389,7.41-26.775-3.348
		c0,0-13.864,2.869-20.082-5.019c0,0-8.125-7.172,1.199-19.602c0,0-1.913-5.978-2.421-10.87l-16.569-9.668l78.677-19.97l4.658,0.137
		L426.625,313.906z"/>
	<path d="M398.181,325.217c22.793,10.212,39.38,24.579,39.545,24.723c2.119,2.103,3.142,4.102,3.004,5.906
		c-0.085,1.122-0.606,1.936-1.033,2.429c-3.68-2.679-26.242-18.48-59.473-28.521L398.181,325.217z M435.781,375.016
		c-0.794,1.536-2.587,2.146-3.096,2.291c-28.555-4.506-56.794-19.552-57.075-19.704c-5.224-2.659-4.371-7.095-4.331-7.285
		c0.518-3.182,2.775-5.067,3.842-5.797c3.354,1.899,32.564,18.213,60.69,26.796C436.304,372.775,436.298,374.017,435.781,375.016z"
		/>
	<path fill="#008394" d="M423.689,377.249c-1.807,1.536-3.499,2.729-5.093,3.642c1.558,0.107,4.912,0.194,7.684-0.768
		c0.82-0.286,2.27-1.035,3.204-1.684C427.542,378.085,425.612,377.683,423.689,377.249z"/>
	<path fill="#008394" d="M413.216,374.513c-2.569,3.063-9.607,6.396-9.607,6.396c4.512,1.512,8.633,0.774,11.851-0.539
		c2.808-1.141,4.923-2.718,6.014-3.634C418.672,376.059,415.915,375.309,413.216,374.513z"/>
	<path fill="#008394" d="M374.84,359.072c-1.593-0.812-2.715-1.783-3.503-2.782c-4.966-2.822-8.023-5.017-8.023-5.017
		c-8.59,6.063-8.382,14.251-8.382,14.251c0.08,9.603,9.387,11.504,9.387,11.504c6.533,1.832,17.03,1.155,27.872-9.336
		c0.175-0.171,0.308-0.327,0.409-0.47C382.023,362.899,374.976,359.143,374.84,359.072z"/>
	<path fill="#008394" d="M394.873,368.14c-6.495,6.988-11.905,9.227-16.776,10.201c1.591,1.283,9.236,6.793,19.718,3.541
		c2.673-0.822,5.193-1.991,7.86-3.98c1.55-1.179,3.122-2.595,4.706-4.249C404.794,371.906,399.539,369.992,394.873,368.14z"/>
	<g>
		<path d="M431.305,377.082c0.461,0.077,0.92,0.153,1.38,0.225L431.305,377.082z"/>
	</g>
	<path fill="#B98544" stroke="#000000" stroke-width="0.1459" d="M437.144,375.957c-0.938,1.643-2.589,2.452-3.533,2.791
		l7.072,3.202l2.607-2.814L437.144,375.957z"/>
	<path fill="#008394" d="M420.841,315.975c10.987,5.899,17.813,12.272,21.542,21.988c0.171,0.815,0.504,7.418-3.264,11.05
		c-0.103-0.108-0.194-0.215-0.303-0.321c-0.167-0.145-13.417-13.204-43.061-25.855L420.841,315.975z"/>
	<path fill="#0091AE" d="M360.432,347.167c-1.019-0.527-2.47-1.278-4.181-2.163c0.024,4.718,1.081,7.148,1.929,8.343
		c0.875-0.981,1.915-1.95,3.119-2.886C360.97,349.716,360.546,348.53,360.432,347.167z"/>
	<path fill="#B98544" stroke="#000000" stroke-width="0.1459" d="M343.512,336.18l17.103,8.537c0.15-0.587,0.384-1.177,0.732-1.75
		c0.318-0.525,0.672-1.015,1.083-1.496l0.069-0.084l0.077-0.074l0.063-0.056l-13.174-6.582L343.512,336.18z"/>
	<path fill="#FFFFFF" d="M369.823,353.195c-0.008-0.029-0.014-0.058-0.021-0.086c-0.051-0.22-0.095-0.431-0.127-0.635
		c-0.008-0.036-0.012-0.07-0.016-0.105c-0.028-0.194-0.053-0.378-0.066-0.554c-0.004-0.035-0.006-0.069-0.008-0.104
		c-0.01-0.172-0.019-0.33-0.019-0.48c0-0.03,0-0.061-0.002-0.089c0-0.146,0.004-0.278,0.009-0.4
		c0.002-0.023,0.002-0.047,0.004-0.069c0.008-0.118,0.016-0.222,0.025-0.309c0.002-0.015,0.002-0.031,0.004-0.044
		c0.011-0.09,0.021-0.158,0.028-0.21c0-0.006,0.002-0.01,0.002-0.015c0.007-0.05,0.013-0.08,0.013-0.082
		c0.659-4.036,3.593-6.271,4.78-7.024c-0.772-7.206,2.829-11.456,4.055-12.67c-0.068-0.29-0.131-0.596-1.085-2.83l-15.833,4.002
		l1.127,2.483c1.158,2.506,1.963,3.831,2.38,4.434c0.02-0.041,0.04-0.082,0.06-0.113c0.35-0.549,1.174-0.059,1.174-0.059
		c-0.979,1.304-0.369,2.758-0.369,2.758s-0.291,0.114-0.728,0.416l-1.358,1.269c-0.299,0.352-0.605,0.757-0.912,1.258
		c-1.354,2.228-0.363,4.884,0.158,5.979c0.066-0.061,0.106-0.093,0.106-0.093c4.077,2.495,6.185,3.747,6.848,4.141l0,0
		C369.959,353.697,369.883,353.444,369.823,353.195z"/>
	<path d="M398.181,325.217c22.793,10.212,39.38,24.579,39.545,24.723c2.119,2.103,3.142,4.102,3.004,5.906
		c-0.085,1.122-0.606,1.936-1.033,2.429c-3.68-2.679-26.242-18.48-59.473-28.521L398.181,325.217z M435.781,375.016
		c-0.794,1.536-2.587,2.146-3.096,2.291c-28.555-4.506-56.794-19.552-57.075-19.704c-5.224-2.659-4.371-7.095-4.331-7.285
		c0.518-3.182,2.775-5.067,3.842-5.797c3.354,1.899,32.564,18.213,60.69,26.796C436.304,372.775,436.298,374.017,435.781,375.016z"
		/>
	<g>
		<path fill="#E13A3E" d="M401.149,354.251c2.3-0.669,3.928-1.852,4.838-3.519c1.486-2.729,0.818-6.124,0.287-7.904l-0.363-1.224
			c-7.676-3.457-16.482-6.902-26.228-9.85c-1.096,1.124-4.071,4.813-3.401,11.044c2.084,1.176,11.121,6.204,23.259,11.92
			L401.149,354.251z"/>
		<path fill="#E13A3E" d="M438.682,360.098c-1.226-0.9-6.154-4.432-14.072-8.968c0.423,2.208,0.575,5.359-0.995,8.103
			c-1.007,1.761-2.574,3.076-4.644,3.935c5.641,2.234,11.472,4.339,17.259,6.111C437.22,368.648,440.102,366.219,438.682,360.098z"
			/>
	</g>
	<path fill="#FFFFFF" stroke="#000000" stroke-width="0.3588" d="M408.444,340.484c5.736,2.642,10.802,5.269,15.111,7.672
		c1.807-1.234,3.206-4.219,2.843-6.831c-3.998-2.783-8.915-5.972-14.508-9.146C412.408,335.189,410.601,339.016,408.444,340.484z"/>
	<path d="M375.121,344.521c3.354,1.899,32.564,18.213,60.69,26.794"/>
	<g>
		<path fill="#FFFFFF" stroke="#000000" stroke-width="0.3588" d="M401.557,355.662c4.761,2.206,9.942,4.486,15.332,6.671
			c6.916-1.832,7.203-7.803,5.982-12.188c-4.312-2.415-9.403-5.065-15.192-7.736C409.071,347.074,408.895,353.531,401.557,355.662z"
			/>
		<path fill="#FFFFFF" stroke="#000000" stroke-width="0.3588" d="M411.981,372.416c2.073-0.992,3.671-3.354,4.006-8.211
			c-5.564-2.258-10.908-4.618-15.793-6.895c-0.291,5.589-2.102,8.258-4.466,9.387C400.607,368.628,406.122,370.625,411.981,372.416z
			"/>
	</g>
	<path fill="#B98544" stroke="#000000" stroke-width="0.1589" d="M363.687,340.28l0.202-0.185c-0.002-0.038,0-0.08,0-0.12
		c-0.206-0.302-0.351-0.51-0.351-0.51c-0.503-0.729-1.352-2.139-2.536-4.711c-0.047-0.111-0.271-0.696-0.271-0.696l-1.076-2.063
		l-7.277,1.685L363.687,340.28z"/>
	<path fill="#B98544" stroke="#000000" stroke-width="0.1589" d="M437.583,374.952l4.83,2.499l1.085,0.495l-5.157-7.732
		c-0.339,0.317-0.655,0.563-0.916,0.742C437.9,372.429,437.951,373.769,437.583,374.952z"/>
	<path stroke="#000000" stroke-width="0.0725" d="M184.639,69.059c0,0,0.724-19.882-14.46-33.982c0,0-5.06-6.146,1.808-6.506
		c0,0,13.917,0,21.147,12.291l-1.808,1.445c0,0-7.049-13.375-20.245-12.471c0,0-1.807,0.181-1.625,1.626
		c0,0-0.181,1.626,1.807,3.434c0,0,13.558,11.749,14.642,31.633L184.639,69.059z"/>
	<path stroke="#000000" stroke-width="0.0725" d="M254.5,59.342C258.748,3.627,238.953,5.21,238.953,5.21
		c-4.914,0.108-4.921,8.429-4.921,8.429c0.496,17.462-6.731,29.029-10.351,33.007l1.989,1.808c0,0,11.026-11.93,9.399-35.248
		c0,0,0.361-8.314,5.061-7.049c0,0,17.715,1.266,12.472,51.877L254.5,59.342z"/>
	<path stroke="#000000" stroke-width="0.0725" d="M248.714,52.697c-2.718-10.875-14.01,0.208-14.01,0.208
		c6.42-14.168,5.83-30.703,5.83-30.703c-0.838-8.964-0.182-11.168-0.182-11.168c1.029-4.242,5.193,2.172,5.193,2.172
		s-4.031-4.495-4.29-1.428c0,0-0.073,5.099,0.373,8.906c0,0,1.14,15.061-2.261,25.539c0,0,8.51-3.146,9.281,5.956L248.714,52.697z"
		/>
	<path stroke="#000000" stroke-width="0.0725" d="M150.054,121.96c-22.653-15.424-20.726-32.295-20.726-32.295
		c0.482-5.301,4.338-3.857,4.338-3.857c7.713,15.907,19.763,13.979,19.763,13.979l0.662-0.181l0.544,1.265
		c0,0-13.557,2.893-21.148-13.557c0,0-2.17-1.989-3.073,1.627c0,0-2.35,17.713,21.69,32.354l-1.084,1.084L150.054,121.96z"/>
	<path stroke="#000000" stroke-width="0.0725" d="M155.176,112.079c-15.907-3.073-21.871-19.521-21.871-19.521
		c-1.626-3.614-1.085,1.265-1.085,1.265s0.121-2.953,0.725-0.663c0,0,6.506,17.593,21.689,19.882L155.176,112.079z"/>
	<path d="M204.13,61.916c5.859-0.651,20.837,8.14,20.837,20.514c1.303-8.14-7.164-21.165-20.187-22.141L204.13,61.916z"/>
	<path d="M188.254,104.125c5.535,1.954,21.736,7.607,33.132-12.253c-4.232,8.791-13.19,21.05-33.537,13.023"/>
	<path stroke="#000000" stroke-width="0.072" d="M446.296,301.315c0,0-1.911,10.345-8.242,22.603l-1.807-1.083
		c0,0,5.06-9.4,7.157-20.074L446.296,301.315z"/>
	<polygon stroke="#000000" stroke-width="0.0359" points="342.981,336.571 440.948,311.266 439.681,309.097 339.725,335.488 	"/>
	<path fill="#FFFFFF" stroke="#FFFFFF" stroke-width="0.1295" d="M298.589,211.028c4.616-3.847,13.575-11.145,19.447-14.599
		c0,0,3.855-2.892-6.269-7.471c0,0,6.749,3.856,3.857,6.025c0,0-9.641,4.82-17.112,10.604c0,0-2.171,1.687-5.062-0.482
		c0,0-11.326-6.508-24.583-6.025c0,0,16.351,1.817,24.668,11.548C293.537,210.627,295.531,213.575,298.589,211.028z"/>
	<path fill="#FFFFFF" stroke="#FFFFFF" stroke-width="0.1295" d="M279.233,207.516c0,0,9.4,2.651,13.015,10.604
		c0,0-6.459,7.883-10.072,14.631l-16.417,4.183c0,0-19.542-7.245-44.849-6.763c0,0,14.944-3.616,48.443,4.096
		c0,0,11.569-11.566,17.836-16.146C287.186,218.12,290.801,214.746,279.233,207.516z"/>
	<path fill="#FFFFFF" stroke="#FFFFFF" stroke-width="0.1295" d="M299.96,182.029c0,0,15.364,0,21.691,7.05
		c0,0,3.252,3.375,4.698-0.723c0,0,3.014-8.314-6.99-19.159c0,0-4.037-3.253-17.953,0.542c0,0,14.7-2.47,17.229,1.869
		c0,0,3.737,4.639,3.916,11.326c0,0,0.364,2.411-2.288,1.206C320.264,184.139,310.082,179.861,299.96,182.029z"/>
	<path fill="#FFFFFF" stroke="#FFFFFF" stroke-width="0.1295" d="M295.141,166.906c0,0,5.904-3.857,15.664-3.375
		c0,0,2.29,0.121,1.205-1.205c0,0-5.783-5.181-14.341-9.64c0,0-4.939-1.445-11.085,1.326c0,0,7.712-2.169,11.566,0.362
		c0,0,5.604,3.073,7.412,5.422c0,0,1.084,1.265,0,1.808C305.563,161.605,298.513,163.412,295.141,166.906z"/>
	<path fill="#FFFFFF" stroke="#FFFFFF" stroke-width="0.1295" d="M291.916,149.313c0,0-10.663-5.844-15.002-7.291
		c0,0-2.771-0.604-5.664,4.94c0,0,3.374-5.061,5.906-3.493l9.157,5.302c0,0-3.797,0.903-6.324,4.699
		C279.989,153.47,284.868,149.495,291.916,149.313z"/>
	<path fill="#E13A3E" stroke="#E13A3E" stroke-width="0.0725" d="M246.216,134.01c0,0-6.989,6.508-3.015,17.112
		c0,0,2.533,8.313,2.533,12.291c0,0-1.808-8.314-4.34-11.929c0,0-3.615-7.954-0.361-14.461c0,0-9.036,3.977-2.892,16.629
		c0,0,8.676,18.437,2.892,26.751C241.034,180.403,251.277,174.86,246.216,134.01z"/>
	<path stroke="#000000" stroke-width="0.0725" d="M412.143,201.131c0,0-1.113-9.724-6.535-16.231c0,0,6.356,6.651,8.522,15.508
		L412.143,201.131z"/>
	<path d="M187.198,77.871c-0.326-11.397,0.326-26.375,0.326-30.931c0-4.56,5.535-9.117,13.024-8.466
		c7.488,0.65,29.303,4.232,33.211,21.163c-4.884-13.675-27.025-22.467-38.095-17.258C184.594,47.59,190.78,65.498,187.198,77.871z"
		/>
	<path d="M154.639,118.57c-1.954-1.627-1.628-5.209,0.325-7.814c1.954-2.604,2.931-3.906,0.651-7.488
		c-2.279-3.582-10.129-14.616-4.233-20.514c2.604-2.604,14,7.815,17.582,6.513c-4.232,0.325-13.022-3.908-14.978-4.233
		c-1.953-0.325-3.581,2.93-2.929,5.862c0.65,2.93,2.604,8.792,5.209,11.07s3.907,4.884,1.953,7.488
		c-1.953,2.606-3.256,6.187-1.953,7.814L154.639,118.57z"/>
	<path d="M157.895,97.407c-4.885-6.838,0.325-9.443,23.117,9.118C167.337,97.407,156.592,89.593,157.895,97.407z"/>
	<path d="M157.466,118.585c0,0,16.629-15.063,39.162-11.93c0,0-6.386-1.325-8.074-2.29l-1.807,1.807
		C186.747,106.173,170.96,106.294,157.466,118.585z"/>
	<path d="M199.761,106.536c0,0-11.93,0.121-9.038-5.301l-0.964,0.843l-1.566,2.772c0,0,8.314,2.41,11.569,2.049L199.761,106.536
		L199.761,106.536z"/>
	<path d="M191.205,100.268c0,0-1.929,3.255,0.241,4.821l-3.253-0.242l2.531-4.939L191.205,100.268z"/>
	<path stroke="#000000" stroke-width="0.0837" d="M246.415,108.115c0,0-1.674,9.829-0.628,15.893c0,0-21.541,15.057-50.817,15.685
		c0,0,13.176-13.384,17.567-15.267C212.536,124.426,231.776,127.354,246.415,108.115z"/>
	<path fill="#FFFFFF" stroke="#FFFFFF" stroke-width="0.0837" d="M244.74,111.042c0,0-0.836,8.365-0.278,11.711
		c0,0-21.47,13.663-44.613,15.335c0,0,10.316-10.596,13.383-12.826C213.233,125.262,232.75,127.493,244.74,111.042z"/>
	<path stroke="#000000" stroke-width="0.0837" d="M228.429,122.543c0,0,3.294,6.264,3.765,10.457l6.888-4.123
		c0,0-1.557-5.61-4.53-10.134L228.429,122.543z"/>
	<path stroke="#000000" stroke-width="0.0837" d="M227.422,122.907c0,0,3.634,5.665,3.656,9.883l0.9-0.446
		c0,0-0.953-5.744-3.431-10.558L227.422,122.907z"/>
	<path stroke="#000000" stroke-width="0.0837" d="M220.768,124.295c0,0,2.68,4.126,3.16,10.054l0.922-0.402
		c0,0-0.37-4.759-2.835-10.037L220.768,124.295z"/>
	<path stroke="#000000" stroke-width="0.0837" d="M212.455,124.918c0,0,2.8,5.365,3.253,11.294l0.923-0.399
		c0,0-0.487-5.987-2.93-11.276L212.455,124.918z"/>
	<path stroke="#000000" stroke-width="0.0837" d="M205.386,131.051c0.689,1.958,1.366,4.416,1.6,6.986l0.918-0.411
		c0,0-0.345-3.587-1.674-7.644"/>
	<path stroke="#000000" stroke-width="0.0837" d="M245.158,126.1l0.281-16.312l-5.681,6.082
		C239.757,115.87,243.904,119.512,245.158,126.1z"/>
	<polygon fill="#FFFFFF" stroke="#FFFFFF" stroke-width="0.0837" points="103.095,338.967 100.168,341.373 102.887,345.136 	"/>
	<path fill="#FFFFFF" stroke="#FFFFFF" stroke-width="0.0837" d="M285.033,271.507v-11.711c0,0-0.558-2.649,4.461-4.044l7.25-2.229
		l-0.42-1.115l-3.9,0.141l-4.881,1.811l-2.65,2.37l-1.672,3.486l0.557,13.243L285.033,271.507z"/>
	<path d="M460.429,312.239c0.779,0.401,1.415,1.001,1.912,1.806c0.494,0.804,0.742,1.682,0.742,2.636
		c0,1.382-0.493,2.567-1.478,3.552c-0.988,0.988-2.17,1.479-3.545,1.479c-1.386,0-2.569-0.491-3.554-1.479
		c-0.986-0.984-1.479-2.17-1.479-3.552c0-1.336,0.475-2.508,1.43-3.521c0.952-1.015,2.197-1.521,3.733-1.521
		C458.903,311.639,459.651,311.839,460.429,312.239z M455.177,311.118c-0.969,0.462-1.778,1.199-2.423,2.216
		c-0.646,1.017-0.968,2.132-0.968,3.347c0,1.727,0.609,3.2,1.83,4.423c1.22,1.221,2.697,1.833,4.428,1.833
		c1.721,0,3.194-0.612,4.418-1.838c1.227-1.226,1.839-2.699,1.839-4.418c0-1.688-0.604-3.154-1.81-4.396
		c-1.205-1.242-2.741-1.863-4.609-1.863C457.046,310.421,456.144,310.653,455.177,311.118z M456.629,317.3h0.353
		c0.407,0,0.738,0.114,0.992,0.347c0.253,0.232,0.546,0.665,0.877,1.303l0.557,1.07h1.657l-0.776-1.33
		c-0.349-0.589-0.604-0.971-0.764-1.149c-0.161-0.177-0.378-0.316-0.648-0.419c0.598-0.109,1.047-0.32,1.344-0.63
		c0.297-0.311,0.445-0.722,0.445-1.234c0-0.528-0.179-0.973-0.531-1.335c-0.354-0.361-0.921-0.544-1.7-0.544h-3.145v6.641h1.339
		L456.629,317.3L456.629,317.3z M457.864,314.44c0.462,0,0.809,0.073,1.037,0.222c0.227,0.146,0.345,0.368,0.345,0.663
		c0,0.325-0.118,0.562-0.349,0.706s-0.622,0.219-1.171,0.219h-1.097v-1.808h1.234V314.44z"/>
	<path fill="#FFFFFF" stroke="#FFFFFF" stroke-width="0.072" d="M371.036,212.257c0,0,1.549-17.147,9.078-26.489
		c0,0,2.789,17.426,3.886,23.736L371.036,212.257z"/>
	<path d="M86.923,189.394c0,0,12.547-12.547,41.267-25.373l-10.596,6.971c0,0-12.008,5.521-31.657,20.188L86.923,189.394z"/>
	<path d="M188.675,104.969c-0.847,1.243-0.85-0.101-1.802,0.903c4.233-5.21,12.048-27.676,13.35-35.166
		c1.303-7.488,7.163-27.023,16.606-14.976c-2.605-0.977-9.979-5.786-15.629,15.303C197.108,86.305,193.043,98.557,188.675,104.969z"
		/>
	<path fill="#66B4C0" stroke="#69BCD0" stroke-width="0.0725" d="M278.203,78.419c0,0,4.346,19.582,37.361,32.901
		c0,0,37.152,14.233,44.335,19.24c0,0,14.161,7.836,16.699,19.114l-6.661,0.124c0,0-3.695-16.8-34.576-27.046
		c0,0-50.886-17.149-56.741-38.062C278.62,84.692,278.759,80.371,278.203,78.419z"/>
	<path stroke="#000000" stroke-width="0.0725" d="M277.908,74.12c0,0,0.725,7.351,14.101,7.592c0,0,23.617-3.133,29.644,3.614
		c0,0,1.265,1.537-1.085,2.17c0,0-24.224,4.337-15.186,17.714c0,0,7.592,4.338,22.054,1.446c0,0,24.944-3.976,33.619,1.084
		c0,0,2.53,1.445-0.361,3.254c0,0-15.664,2.892-12.41,11.929c0,0,4.336,5.785,25.425,5.785c0,0,15.907,0.362,18.678,5.664
		c0,0,0.723,1.446-1.084,1.807c0,0-16.75,0.964-13.736,13.376l-0.965,0.121v-1.085c0,0-4.337-9.941,13.917-13.013
		c0,0,2.171,0.361,1.085-1.446c0,0-3.977-4.88-19.341-4.519c0,0-8.856,0.723-16.269-1.266l-8.494-4.157
		c0,0-7.05-8.494,11.749-13.556c0,0,2.892-0.362,1.807-2.17c0,0-7.59-5.422-33.257-0.722c0,0-9.941,2.35-16.991,1.265l-8.133-4.338
		c0,0-8.677-11.207,16.807-17.712c0,0,2.351,0,1.628-1.267c0,0-5.061-6.145-28.56-2.893c0,0-11.568,0.905-13.915-2.892
		L277.908,74.12z"/>
	<polygon fill="#8C8C8C" stroke="#000000" stroke-width="0.3588" points="185.769,273.112 177.613,268.092 177.403,272.275 
		183.26,277.641 	"/>
	<path d="M176.706,261.75c0,0,2.789,1.951,1.395,10.315l5.298,4.882l-0.419,1.115l-6.413-5.717c0,0,1.812-7.388-0.698-10.594h0.837
		V261.75z"/>
	<path d="M193.296,262.586c0,0-7.806,7.667-11.013,15.335l1.535,0.277l11.571-13.802L193.296,262.586z"/>
	<polygon points="176.009,275.621 184.096,280.639 187.023,271.507 177.682,266.071 	"/>
	<path fill="#66B4C0" stroke="#66B4C0" stroke-width="0.0725" d="M371.191,178.1c0,0,3.065,4.447,5.296,5.841
		c0,0-2.647,4.879-5.994,10.735c0,0-7.11,13.245-7.666,20.912l8.209-3.331c0,0-0.678-10.456,8.522-24.955l0.556-5.855
		C380.114,181.446,378.163,182.005,371.191,178.1z"/>
	<path stroke="#000000" stroke-width="0.0837" d="M381.229,183.12c-1.446,8.642-5.855,15.057-5.855,15.057
		c-4.46,10.317-2.37,14.081-2.37,14.081h-3.624c0-6.134,2.788-12.547,2.788-12.547c5.296-11.432,7.251-15.3,7.056-17.986
		L381.229,183.12z"/>
	<path stroke="#000000" stroke-width="0.0725" d="M368.915,175.319c0,0,3.373,5.302,10.122,6.749c0,0-1.083,16.387,5.607,27.472
		l3.138-1.325c0,0-8.224-13.663-5.993-27.326C381.788,180.889,374.7,181.345,368.915,175.319z"/>
	<path fill="#66B4C0" stroke="#66B4C0" stroke-width="0.0725" d="M363.663,151.054c0,0,24.673-3.64,28.855,12.393
		c0,0,28.58,0.278,34.297,36.945l4.603-3.608c0,0-2.647-28.569-35.831-36.945C395.586,159.838,387.085,144.642,363.663,151.054z"/>
	<path stroke="#000000" stroke-width="0.0725" d="M433.091,196.503c-6.023-32.776-36.461-37.09-36.461-37.09
		c-12.292-17.352-34.223-7.953-34.223-7.953s25.306-6.507,31.814,9.4c0,0,30.919,3.349,35.256,35.883L433.091,196.503z"/>
	<polygon stroke="#000000" stroke-width="0.0492" points="459.442,189.255 239.313,242.869 245.318,245.806 459.661,192.916 	"/>
	<path d="M199.22,137.654c0,0-18.403,19.449-29.278,23.841c0,0-10.664,6.273-44.961,8.365c0,0,27.813-2.51,44.752-9.41
		C169.733,160.449,188.764,147.274,199.22,137.654z"/>
	<path fill="#66B4C0" stroke="#69BCD0" stroke-width="0.072" d="M280.988,88.51c0,0-1.673,10.666-7.948,17.149
		c0,0,5.021-8.783,5.856-22.795L280.988,88.51z"/>
	<path d="M221.713,99.686c-1.302-9.442,4.558-24.42,13.349-32.56c9.032-8.363,22.792-12.697,38.095-8.466
		c5.212,3.583,12.046,33.862-4.232,53.4c5.536-12.374,14.977-25.723,3.582-49.817C264.365,58.659,226.921,54.754,221.713,99.686z"/>
	<path d="M279.328,81.188c3.257,7.488,13.493,20.307,40.7,31.257c26.699,10.745,51.993,17.95,57.535,37.471l-1.53-0.354
		c-5.211-11.721-11.124-19.119-55.028-35.164C312.301,111.217,283.238,97.793,279.328,81.188z"/>
</g>
</svg>
