<svg xmlns="http://www.w3.org/2000/svg" viewBox="0 0 200 137" width="200" height="137">
	<style>
		tspan { white-space:pre }
		.shp0 { fill: #9c9da1 } 
		.shp1 { fill: #ebebeb } 
		.shp2 { fill: #cc1d30 } 
		.shp3 { fill: #121942 } 
	</style>
	<g >
		<path class="shp0" d="M130.69 0.2C129.95 0.29 129.05 0.43 128.7 0.51C128.35 0.59 127.68 0.77 127.23 0.92C126.77 1.07 125.99 1.36 125.5 1.57C125 1.79 124.2 2.22 123.7 2.54C123.21 2.86 122.63 3.26 122.42 3.43C122.21 3.61 121.67 4.1 121.22 4.54C120.78 4.98 120.1 5.77 119.73 6.3C119.35 6.83 118.76 7.87 118.41 8.61C118.05 9.35 117.62 10.39 117.45 10.92C117.28 11.45 116.99 12.52 116.8 13.3C116.62 14.08 116.3 15.44 116.09 16.32C115.88 17.21 115.59 18.48 115.43 19.15C115.28 19.82 115.12 20.4 115.07 20.45C115.03 20.49 114.04 20.45 112.88 20.36C111.71 20.26 109.08 20.14 107.01 20.08C104.95 20.03 103.27 19.96 103.27 19.92C103.27 19.88 103.57 18.18 103.93 16.13C104.45 13.23 104.6 12.12 104.59 11.12C104.59 10.21 104.51 9.54 104.31 8.84C104.16 8.29 103.88 7.54 103.7 7.16C103.51 6.79 103.13 6.14 102.84 5.72C102.56 5.29 101.97 4.6 101.54 4.18C101.1 3.75 100.35 3.13 99.86 2.8C99.37 2.47 98.37 1.91 97.63 1.56C96.89 1.2 95.74 0.75 95.07 0.55L93.85 0.19L40.49 0.13L40.49 9.7C44.03 13.29 45.45 14.76 45.94 15.29C46.43 15.82 47.32 16.81 47.92 17.48C48.51 18.15 49.41 19.13 49.92 19.66C50.42 20.19 51.1 20.95 51.43 21.33C51.76 21.72 52.19 22.36 52.4 22.75C52.61 23.14 52.82 23.74 52.86 24.1C52.91 24.46 52.88 25.13 52.8 25.64C52.71 26.13 52.55 27.03 52.44 27.63C52.33 28.23 52.19 28.81 52.14 28.92C52.09 29.03 51.47 29.27 50.72 29.48C49.99 29.69 48.44 30.17 47.28 30.56C46.11 30.94 44.39 31.54 43.43 31.9C42.48 32.26 40.84 32.92 39.78 33.38C38.73 33.83 36.97 34.66 35.87 35.2C34.78 35.75 33.23 36.58 32.42 37.04C31.6 37.5 30.28 38.3 29.47 38.81C28.66 39.33 27.42 40.16 26.71 40.66C26.01 41.16 24.88 42.01 24.22 42.55C23.55 43.08 22.71 43.77 22.36 44.08C22.01 44.38 21.12 45.19 20.39 45.87C19.66 46.55 18.41 47.82 17.63 48.71C16.84 49.59 15.82 50.81 15.36 51.41C14.9 52.01 14.14 53.06 13.67 53.75C13.2 54.44 12.78 55.01 12.75 55.01C12.71 55.01 10.98 52.74 8.9 49.96C6.82 47.19 4.83 44.54 4.47 44.08C4.12 43.62 3.18 42.42 2.4 41.41C1.61 40.4 0.9 39.6 0.83 39.62C0.76 39.65 0.66 40.01 0.61 40.43C0.56 40.85 0.43 42.69 0.31 44.53C0.2 46.37 0.09 49.09 0.07 50.57C0.05 52.06 0.08 53.96 0.13 54.81C0.19 55.66 0.3 57.08 0.38 57.96C0.46 58.85 0.64 60.49 0.78 61.62C0.92 62.76 1.12 64.23 1.23 64.9C1.33 65.57 1.62 67.11 1.87 68.31C2.11 69.51 2.48 71.19 2.68 72.03C2.88 72.88 3.17 74.01 3.31 74.54C3.45 75.07 3.83 76.34 4.14 77.37C4.46 78.39 5.01 80.04 5.36 81.03C5.71 82.02 6.21 83.35 6.47 83.99C6.73 84.62 7.17 85.69 7.46 86.36C7.74 87.04 8.5 88.65 9.15 89.96C9.8 91.27 10.6 92.8 10.92 93.37C11.24 93.93 11.83 94.95 12.23 95.62C12.64 96.29 13.61 97.79 14.39 98.96C15.16 100.13 16.09 101.46 16.45 101.91C16.8 102.37 17.62 103.42 18.27 104.23C18.92 105.04 20.08 106.4 20.85 107.25C21.62 108.1 22.71 109.25 23.27 109.82C23.82 110.39 24.88 111.43 25.62 112.12C26.36 112.82 27.67 113.98 28.52 114.69C29.37 115.4 30.73 116.48 31.53 117.09C32.33 117.7 33.57 118.6 34.27 119.09C34.98 119.58 36.25 120.42 37.09 120.96C37.94 121.5 39.26 122.31 40.04 122.77C40.81 123.23 42.83 124.31 44.52 125.16C46.21 126.01 47.64 126.71 47.69 126.71C47.75 126.72 48.24 126.93 48.78 127.18C49.33 127.44 50.84 128.07 52.15 128.59C53.45 129.11 55.47 129.85 56.63 130.25C57.79 130.65 59.7 131.25 60.86 131.6C62.02 131.94 63.52 132.37 64.19 132.55C64.86 132.72 66.53 133.13 67.91 133.45C69.28 133.76 71.18 134.17 72.13 134.35C73.08 134.53 74.9 134.85 76.17 135.06C77.44 135.27 79.14 135.53 79.95 135.64C80.76 135.75 82.17 135.93 83.09 136.04C84 136.14 85.99 136.35 87.51 136.48C89.02 136.62 91.88 136.8 93.85 136.89C96.12 136.98 99.24 137 102.37 136.95C105.08 136.9 107.5 136.84 107.75 136.81C108 136.78 108.96 136.73 109.9 136.69C110.83 136.65 112.94 136.5 114.57 136.35C116.21 136.21 118.3 136 119.22 135.9C120.13 135.79 121.23 135.65 121.65 135.59C122.08 135.52 122.68 135.44 123 135.39C123.32 135.35 124.64 135.14 125.94 134.93C127.25 134.72 128.92 134.43 129.66 134.29C130.4 134.15 131.93 133.83 133.06 133.58C134.18 133.33 135.94 132.93 136.96 132.68C137.99 132.43 139.95 131.92 141.32 131.53C142.69 131.15 144.71 130.55 145.8 130.2C146.9 129.85 148.77 129.22 149.97 128.8C151.17 128.38 153.18 127.62 154.45 127.11C155.72 126.6 157.48 125.86 158.36 125.47C159.24 125.08 161.11 124.2 162.52 123.5C163.93 122.8 166.04 121.7 167.2 121.05C168.36 120.4 170.01 119.44 170.85 118.91C171.7 118.38 173.2 117.39 174.18 116.72C175.17 116.05 176.58 115.03 177.32 114.46C178.06 113.89 179.19 113 179.82 112.48C180.45 111.95 181.49 111.06 182.13 110.48C182.76 109.91 183.86 108.86 184.57 108.15C185.28 107.44 186.29 106.4 186.8 105.83C187.32 105.27 188.27 104.17 188.91 103.39C189.55 102.62 190.42 101.52 190.85 100.95C191.28 100.39 192.12 99.2 192.72 98.32C193.31 97.43 194.12 96.16 194.51 95.49C194.91 94.82 195.52 93.68 195.88 92.95C196.25 92.23 196.74 91.16 196.98 90.57C197.22 89.99 197.6 88.96 197.82 88.29C198.04 87.62 198.39 86.46 198.59 85.72C198.8 84.98 199.08 83.79 199.22 83.09C199.35 82.38 199.57 81.05 199.7 80.13C199.87 78.86 199.93 77.62 199.93 74.93C199.93 72.73 199.87 70.93 199.77 70.17C199.68 69.5 199.49 68.28 199.35 67.47C199.21 66.66 198.95 65.44 198.77 64.77C198.59 64.1 198.27 63 198.06 62.33C197.84 61.66 197.41 60.47 197.09 59.7C196.77 58.92 196.31 57.88 196.06 57.38C195.82 56.89 195.27 55.91 194.85 55.2C194.44 54.49 194.03 53.8 193.94 53.66C193.86 53.52 193.33 52.71 192.77 51.86C192.2 51.01 191.28 49.74 190.72 49.03C190.15 48.32 189.03 47.06 188.22 46.22C187.4 45.38 186.05 44.09 185.2 43.35C184.36 42.62 182.91 41.48 182 40.83C181.08 40.17 179.64 39.2 178.8 38.67C177.95 38.13 176.6 37.33 175.78 36.88C174.97 36.43 173.48 35.65 172.45 35.15C171.43 34.64 169.67 33.82 168.55 33.33C167.42 32.83 166.02 32.23 165.44 31.99C164.85 31.75 164.38 31.49 164.38 31.42C164.38 31.35 164.7 30.08 165.07 28.6C165.45 27.11 165.93 25.4 166.14 24.8C166.34 24.2 166.74 23.36 167.02 22.94C167.29 22.52 167.87 21.83 168.29 21.41C168.71 20.99 169.46 20.36 169.96 19.99C170.45 19.63 171.65 18.82 172.62 18.18C173.59 17.55 175.44 16.33 176.72 15.48C178 14.62 179.48 13.62 180.01 13.25C180.54 12.87 181.15 12.46 181.36 12.33C181.7 12.13 181.77 11.97 181.96 11.03C182.08 10.44 182.36 9.01 182.58 7.84C182.8 6.67 183.18 4.74 183.41 3.53C183.65 2.33 183.89 1.04 183.94 0.67L184.05 0C137.53 0.02 131.75 0.06 130.69 0.2Z" />
		<path class="shp1" d="M43.47 3.07C43.42 3.1 43.4 4.32 43.42 5.77L43.44 8.42C44.85 9.91 45.87 10.98 46.62 11.76C47.37 12.54 48.53 13.78 49.19 14.52C49.85 15.27 51.06 16.59 51.88 17.47C52.7 18.34 53.66 19.44 54.02 19.91C54.38 20.37 54.85 21.1 55.06 21.53C55.28 21.95 55.55 22.67 55.67 23.13C55.83 23.75 55.87 24.22 55.81 24.93C55.77 25.46 55.68 26.21 55.62 26.6C55.56 26.99 55.33 28.18 55.1 29.24C54.88 30.3 54.65 31.24 54.6 31.33C54.56 31.41 53.57 31.75 52.4 32.07C51.24 32.39 49.14 33.03 47.73 33.5C46.32 33.97 44.27 34.71 43.18 35.15C42.09 35.59 40.82 36.12 40.36 36.32C39.9 36.52 38.4 37.25 37.03 37.93C35.65 38.62 33.69 39.68 32.67 40.3C31.65 40.92 30.32 41.75 29.72 42.15C29.13 42.56 27.94 43.41 27.1 44.04C26.25 44.68 24.93 45.75 24.15 46.42C23.38 47.1 21.99 48.42 21.07 49.37C20.15 50.31 18.86 51.75 18.2 52.56C17.54 53.38 16.52 54.76 15.94 55.65C15.36 56.53 14.54 57.94 14.13 58.77L13.39 60.29C12.72 59.53 12.22 58.99 11.86 58.6C11.49 58.22 9.38 55.47 7.16 52.5L3.14 47.1C2.98 48.99 2.97 50.7 3.01 52.11C3.05 53.53 3.14 55.47 3.21 56.42C3.28 57.37 3.46 59.17 3.59 60.4C3.73 61.64 4.02 63.72 4.24 65.03C4.46 66.34 4.89 68.54 5.2 69.91C5.52 71.29 5.98 73.17 6.23 74.09C6.48 75.01 6.95 76.57 7.27 77.56C7.59 78.55 8.16 80.2 8.55 81.22C8.93 82.25 9.48 83.64 9.76 84.31C10.05 84.98 10.7 86.43 11.22 87.52C11.73 88.62 12.6 90.32 13.14 91.31C13.68 92.3 14.41 93.6 14.77 94.2C15.13 94.8 15.94 96.08 16.57 97.03C17.21 97.99 18.2 99.4 18.77 100.18C19.34 100.96 20.39 102.29 21.09 103.14C21.8 103.98 23.04 105.4 23.85 106.28C24.66 107.17 26.04 108.57 26.92 109.39C27.79 110.21 29.17 111.46 29.98 112.16C30.79 112.85 32.26 114.03 33.25 114.78C34.23 115.53 35.82 116.66 36.77 117.3C37.72 117.94 39.39 119 40.49 119.66C41.58 120.31 43.63 121.45 45.04 122.17C46.44 122.89 48.4 123.84 49.39 124.28C50.38 124.72 52.11 125.44 53.24 125.88C54.36 126.33 56.21 127.01 57.34 127.4C58.46 127.78 60.37 128.4 61.56 128.75C62.76 129.11 64.78 129.66 66.05 129.98C67.32 130.29 69.3 130.76 70.47 131.01C71.63 131.26 73.94 131.69 75.59 131.98C77.25 132.27 79.44 132.61 80.46 132.75C81.48 132.89 83.79 133.15 85.59 133.33C87.38 133.51 89.63 133.72 90.58 133.79C91.53 133.87 94.62 133.96 97.44 134C100.41 134.04 104.04 134.01 106.09 133.93C108.02 133.85 111.02 133.67 112.75 133.53C114.47 133.39 116.67 133.19 117.62 133.08C118.57 132.97 120.41 132.73 121.72 132.56C123.02 132.38 125.24 132.03 126.65 131.78C128.06 131.54 130.19 131.14 131.39 130.89C132.59 130.64 134.32 130.26 135.23 130.05C136.15 129.83 137.33 129.54 137.86 129.4C138.39 129.26 139.46 128.97 140.23 128.75C141.01 128.54 142.39 128.14 143.31 127.87C144.22 127.6 145.84 127.09 146.89 126.74C147.95 126.39 149.39 125.89 150.1 125.63C150.8 125.37 152.13 124.87 153.04 124.51C153.96 124.15 155.57 123.48 156.63 123.02C157.69 122.56 159.47 121.74 160.6 121.2C161.73 120.66 163.49 119.76 164.51 119.2C165.53 118.65 167.09 117.76 167.97 117.23C168.85 116.7 170.46 115.68 171.56 114.95C172.65 114.23 174.29 113.07 175.21 112.38C176.12 111.69 177.54 110.58 178.35 109.91C179.16 109.23 181.06 107.44 182.58 105.91C184.1 104.38 185.89 102.47 186.56 101.66C187.24 100.84 188.19 99.63 188.68 98.96C189.17 98.29 189.92 97.22 190.35 96.58C190.78 95.94 191.43 94.93 191.8 94.33C192.16 93.73 192.86 92.43 193.34 91.44C193.82 90.45 194.43 89.06 194.69 88.36C194.94 87.65 195.35 86.41 195.58 85.59C195.81 84.78 196.12 83.51 196.27 82.77C196.42 82.02 196.63 80.78 196.74 80C196.85 79.22 196.97 77.37 197.01 75.89C197.07 73.86 197.03 72.66 196.87 71.07C196.76 69.9 196.49 68.08 196.27 67.02C196.06 65.96 195.58 64.17 195.2 63.04C194.83 61.91 194.2 60.32 193.82 59.5C193.44 58.69 192.83 57.53 192.48 56.93C192.13 56.33 191.54 55.35 191.17 54.75C190.8 54.15 190.1 53.11 189.62 52.44C189.14 51.76 188.21 50.58 187.54 49.8C186.88 49.02 185.65 47.74 184.81 46.95C183.97 46.16 182.73 45.07 182.06 44.53C181.39 44 180.01 42.99 178.99 42.29C177.97 41.6 176.41 40.61 175.53 40.1C174.65 39.59 173.03 38.72 171.94 38.16C170.85 37.61 169.32 36.87 168.55 36.52C167.77 36.17 166.56 35.64 165.86 35.35C165.15 35.05 163.74 34.49 162.72 34.1C161.69 33.7 160.85 33.37 160.84 33.37C160.82 33.36 161.1 32.25 161.45 30.91C161.79 29.57 162.28 27.66 162.54 26.67C162.79 25.68 163.17 24.38 163.38 23.78C163.6 23.17 164.04 22.22 164.37 21.66C164.72 21.05 165.39 20.2 166.05 19.53C166.65 18.92 167.57 18.1 168.1 17.71C168.63 17.32 169.89 16.46 170.92 15.8C171.94 15.13 174.13 13.69 175.78 12.58C177.44 11.47 178.88 10.47 178.99 10.34C179.1 10.2 179.46 8.62 179.84 6.63C180.21 4.71 180.49 3.14 180.48 3.12C180.47 3.11 169.3 3.09 155.67 3.08C132.8 3.06 130.8 3.08 129.85 3.28C129.29 3.4 128.45 3.61 127.99 3.75C127.54 3.89 126.67 4.27 126.07 4.58C125.47 4.9 124.61 5.46 124.15 5.83C123.69 6.2 123 6.88 122.61 7.34C122.23 7.81 121.61 8.76 121.25 9.46C120.89 10.16 120.44 11.19 120.26 11.76C120.08 12.32 119.58 14.29 119.16 16.13C118.73 17.97 118.17 20.37 117.91 21.46C117.66 22.56 117.41 23.5 117.37 23.56C117.33 23.61 116.58 23.6 115.7 23.52C114.81 23.45 112.65 23.3 110.89 23.19C109.07 23.08 105.97 23 103.72 23.01C100.46 23.03 99.75 23 99.77 22.86C99.79 22.76 100.2 20.37 100.69 17.54C101.19 14.72 101.63 12.14 101.67 11.82C101.72 11.51 101.69 10.81 101.61 10.28C101.52 9.66 101.3 8.97 101 8.35C100.65 7.63 100.28 7.13 99.5 6.35C98.9 5.75 98.09 5.1 97.57 4.8C97.07 4.52 96.27 4.12 95.77 3.93C95.28 3.73 94.49 3.46 94.01 3.32C93.18 3.09 92.11 3.08 68.34 3.05C54.7 3.03 43.51 3.04 43.47 3.07Z" />
		<path class="shp2" d="M52.27 8.98C52.17 9.05 52.13 9.16 52.18 9.24C52.23 9.32 53.18 10.12 54.29 11.03C55.4 11.94 56.73 13.07 57.24 13.54C57.75 14.01 58.48 14.73 58.86 15.13C59.24 15.54 59.77 16.16 60.05 16.51C60.33 16.87 60.76 17.5 61.02 17.93C61.28 18.35 61.7 19.19 61.94 19.79C62.19 20.39 62.48 21.29 62.58 21.78C62.69 22.28 62.78 23.03 62.78 23.45C62.78 23.91 62.49 25.63 62.08 27.63C61.69 29.5 61.19 31.88 60.98 32.9C60.77 33.93 60.57 34.89 60.53 35.05C60.49 35.29 60.3 35.39 59.55 35.6C59.03 35.74 57.12 36.35 55.29 36.96C53.45 37.56 50.89 38.48 49.58 38.99C48.28 39.51 46.52 40.23 45.68 40.61C44.83 40.98 43.01 41.85 41.64 42.53C40.27 43.22 38.45 44.18 37.6 44.66C36.76 45.15 35.35 46.01 34.47 46.57C33.58 47.13 32.4 47.91 31.84 48.3C31.27 48.7 30.32 49.4 29.72 49.85C29.13 50.31 28.29 50.97 27.87 51.32C27.44 51.68 26.74 52.32 26.3 52.75C25.85 53.18 25.49 53.6 25.5 53.69C25.5 53.78 25.61 53.83 25.78 53.8C25.94 53.77 27.37 53.34 28.96 52.83C30.54 52.32 33.11 51.53 34.66 51.09C36.21 50.64 38.17 50.09 39.01 49.86C39.86 49.64 41.59 49.19 42.86 48.88C44.13 48.57 46.17 48.08 47.41 47.79C48.64 47.51 51.32 46.94 53.36 46.53C55.41 46.11 57.36 45.72 57.71 45.67L58.33 45.56C58.21 46.16 57.74 48.44 57.21 51.02C56.68 53.6 56.16 56.09 56.05 56.55C55.95 57.01 55.55 58.94 55.16 60.85C54.77 62.76 54.33 64.84 54.19 65.48C54.06 66.12 53.69 67.88 53.37 69.4C53.06 70.92 52.51 73.57 52.15 75.28C51.8 76.99 51.51 78.54 51.51 78.72C51.51 78.97 51.59 79.06 51.92 79.15C52.15 79.22 52.68 79.36 53.11 79.47C53.53 79.58 54.63 79.81 55.54 79.99C56.46 80.16 58.07 80.45 59.13 80.63C60.19 80.81 61.83 81.07 62.78 81.21C63.73 81.35 65.69 81.61 67.14 81.79C68.58 81.97 70.63 82.2 71.68 82.32C72.74 82.43 74.59 82.64 75.78 82.77C76.98 82.91 78.21 83.02 78.51 83.02C79.03 83.02 79.06 83 79.17 82.54C79.24 82.28 79.35 81.83 79.42 81.54C79.5 81.26 79.61 80.77 79.67 80.45C79.74 80.13 80.15 78.31 80.58 76.4C81.02 74.5 81.58 72.04 81.83 70.94C82.08 69.85 82.33 68.75 82.38 68.5C82.43 68.25 82.75 66.86 83.08 65.42C83.41 63.97 84.02 61.31 84.43 59.5C84.85 57.7 85.68 54.03 86.29 51.34C86.9 48.66 87.59 45.62 87.83 44.6C88.07 43.57 88.32 42.7 88.39 42.67C88.45 42.63 89.74 42.5 91.24 42.37C92.75 42.25 94.84 42.09 95.9 42.03C96.96 41.96 99.23 41.87 100.96 41.82C102.77 41.77 105.68 41.8 107.82 41.88C109.86 41.97 112.74 42.12 114.22 42.22C115.7 42.33 117.92 42.5 119.15 42.62C120.39 42.73 121.43 42.86 121.48 42.9C121.52 42.95 121.36 43.77 121.12 44.72C120.88 45.68 120.37 47.79 119.98 49.42C119.6 51.04 118.96 53.67 118.58 55.26C118.19 56.85 117.7 58.88 117.49 59.76C117.28 60.64 116.88 62.32 116.59 63.49C116.31 64.65 115.85 66.56 115.57 67.73C115.29 68.9 114.69 71.41 114.22 73.32C113.76 75.23 112.98 78.45 112.49 80.48C111.95 82.69 111.63 84.27 111.69 84.39C111.78 84.59 112.01 84.6 114.03 84.52C115.26 84.48 117.05 84.38 118 84.31C118.95 84.25 120.71 84.07 121.91 83.92C123.11 83.78 124.98 83.51 126.07 83.34C127.17 83.16 128.87 82.84 129.85 82.62C130.84 82.41 132.34 82.06 133.18 81.85C134.03 81.63 135.38 81.27 136.19 81.03C137.01 80.79 138.59 80.28 139.72 79.89C140.85 79.5 141.97 79.1 142.22 79C142.46 78.89 142.73 78.73 142.81 78.64C142.88 78.54 143.13 77.65 143.36 76.66C143.59 75.67 143.98 74.02 144.22 73C144.47 71.97 144.8 70.56 144.97 69.85C145.14 69.14 145.81 66.34 146.45 63.62C147.08 60.89 147.83 57.71 148.11 56.55C148.39 55.38 148.82 53.59 149.06 52.56C149.3 51.54 149.59 50.28 149.7 49.77C149.88 48.95 149.94 48.84 150.19 48.83C150.35 48.83 150.88 48.95 151.38 49.1C151.87 49.25 152.94 49.62 153.75 49.93C154.56 50.24 155.74 50.82 156.37 51.22C157.01 51.62 157.87 52.22 158.3 52.56C158.72 52.9 159.55 53.69 160.15 54.32C160.75 54.94 161.57 55.95 161.96 56.55C162.36 57.15 162.94 58.16 163.26 58.8C163.58 59.43 164.01 60.47 164.23 61.11C164.44 61.75 164.71 62.79 164.82 63.42C164.93 64.06 165.02 65.1 165.02 65.74C165.02 66.37 164.94 67.39 164.84 67.99C164.73 68.59 164.51 69.48 164.34 69.98C164.17 70.47 163.82 71.31 163.55 71.84C163.28 72.37 162.83 73.15 162.55 73.58C162.27 74 161.65 74.81 161.17 75.38C160.7 75.94 159.83 76.84 159.24 77.38C158.65 77.91 157.79 78.64 157.34 79C156.88 79.35 155.9 80.05 155.16 80.55C154.42 81.05 153.03 81.88 152.08 82.4C151.13 82.92 149.72 83.65 148.94 84.01C148.17 84.38 146.64 85.03 145.55 85.47C144.46 85.9 142.78 86.51 141.83 86.82C140.88 87.12 139.67 87.5 139.14 87.66C138.61 87.81 137.78 88.04 137.28 88.17C136.79 88.3 135.61 88.55 134.66 88.74C133.71 88.92 132.5 89.15 131.97 89.25C131.44 89.35 130.23 89.52 129.28 89.63C128.32 89.74 126.28 89.95 124.73 90.09C123.18 90.23 121.51 90.37 121.01 90.41C120.52 90.44 118.93 90.54 117.49 90.63C116.04 90.71 112.01 90.78 108.52 90.77C105.03 90.77 100.85 90.71 99.23 90.62C97.61 90.54 95.77 90.44 95.13 90.41C94.5 90.37 92.48 90.22 90.65 90.08C88.81 89.94 86.16 89.71 84.75 89.57C83.34 89.43 80.52 89.12 78.48 88.87C76.43 88.62 73.35 88.22 71.62 87.98C69.89 87.73 67.39 87.35 66.05 87.14C64.71 86.92 63.07 86.65 62.4 86.54C61.73 86.43 59.19 85.97 56.76 85.52C54.33 85.07 50.67 84.36 48.62 83.93C46.58 83.51 43.98 82.96 42.86 82.71C41.73 82.47 40.46 82.18 40.04 82.08C39.58 81.97 39.19 81.94 39.08 82C38.92 82.09 39.01 82.23 39.53 82.73C39.88 83.07 40.77 83.84 41.51 84.45C42.25 85.05 43.55 86.07 44.39 86.71C45.24 87.35 46.88 88.51 48.05 89.28C49.21 90.06 51.05 91.23 52.15 91.89C53.24 92.55 54.91 93.51 55.86 94.03C56.81 94.55 58.69 95.52 60.03 96.19C61.36 96.85 63.32 97.78 64.38 98.25C65.44 98.72 67.17 99.46 68.23 99.88C69.28 100.31 71.13 101.02 72.33 101.46C73.52 101.91 75.57 102.62 76.87 103.05C78.18 103.48 80.45 104.17 81.93 104.59C83.41 105.01 86.01 105.68 87.7 106.09C89.39 106.49 91.61 106.98 92.63 107.18C93.65 107.39 95.67 107.76 97.12 108.01C98.56 108.26 100.58 108.58 101.6 108.72C102.62 108.86 104.5 109.09 105.77 109.24C107.03 109.38 109.43 109.61 111.08 109.76C112.74 109.9 115.62 110.08 117.49 110.16C119.59 110.25 123.44 110.27 127.61 110.23C131.31 110.19 135.14 110.09 136.13 110.02C137.12 109.95 138.7 109.83 139.65 109.75C140.61 109.68 142.59 109.5 144.07 109.36C145.55 109.22 146.89 109.08 147.05 109.04C147.21 109.01 147.34 109.04 147.34 109.11C147.34 109.18 146.43 110.38 145.31 111.78C144.19 113.17 142.59 115.12 141.75 116.1C140.91 117.08 140.14 117.99 140.04 118.13C139.86 118.36 139.87 118.38 140.36 118.37C140.64 118.37 141.76 118.16 142.86 117.92C143.95 117.67 145.71 117.23 146.76 116.94C147.82 116.65 149.7 116.08 150.93 115.67C152.16 115.26 154.01 114.6 155.03 114.19C156.05 113.79 157.55 113.17 158.36 112.81C159.17 112.45 160.87 111.64 162.14 111.01C163.41 110.37 165.31 109.33 166.37 108.69C167.42 108.05 168.81 107.18 169.44 106.76C170.08 106.33 171.14 105.58 171.81 105.08C172.48 104.59 173.69 103.63 174.5 102.96C175.31 102.28 176.76 100.97 177.71 100.04C178.66 99.11 179.97 97.72 180.62 96.95C181.27 96.18 182.22 94.99 182.73 94.31C183.24 93.63 183.95 92.59 184.3 92C184.65 91.41 185.32 90.15 185.79 89.19C186.26 88.24 186.88 86.82 187.17 86.04C187.45 85.27 187.83 84.14 188.01 83.54C188.19 82.94 188.47 81.78 188.65 80.97C188.82 80.15 189.03 78.88 189.13 78.14C189.22 77.4 189.3 75.75 189.3 74.48C189.3 73.2 189.22 71.61 189.13 70.94C189.03 70.27 188.82 69.06 188.65 68.24C188.48 67.43 188.16 66.22 187.94 65.54C187.72 64.87 187.3 63.77 187.01 63.1C186.72 62.43 186.11 61.27 185.66 60.53C185.21 59.79 184.48 58.66 184.04 58.03C183.61 57.39 182.79 56.32 182.22 55.65C181.66 54.98 180.8 54.01 180.31 53.51C179.83 53.01 179.03 52.23 178.53 51.78C178.04 51.33 177.08 50.52 176.42 49.99C175.75 49.45 174.63 48.6 173.93 48.1C173.22 47.6 172.1 46.85 171.43 46.43C170.76 46.01 169.95 45.52 169.63 45.34C169.32 45.16 168.63 44.76 168.1 44.46C167.57 44.16 166.04 43.38 164.7 42.73C163.36 42.07 161.69 41.3 160.99 41C160.28 40.7 159.13 40.22 158.42 39.94C157.72 39.66 156.19 39.09 155.03 38.67C153.87 38.25 152.86 37.91 152.79 37.91C152.72 37.92 152.56 37.84 152.44 37.75C152.24 37.6 152.26 37.48 152.6 35.98C152.81 35.1 153.55 31.83 154.26 28.72C154.96 25.61 155.69 22.58 155.89 21.98C156.09 21.38 156.51 20.43 156.82 19.86C157.21 19.16 157.75 18.47 158.49 17.74C159.45 16.77 160.02 16.36 163.41 14.27C165.51 12.96 168.16 11.31 169.3 10.59C170.43 9.88 171.36 9.22 171.36 9.12C171.36 8.96 168.98 8.93 153.88 8.93C139.66 8.93 136.21 8.96 135.43 9.11C134.9 9.2 134 9.43 133.44 9.6C132.88 9.78 132.07 10.1 131.65 10.31C131.22 10.52 130.53 10.94 130.11 11.24C129.69 11.55 129.08 12.07 128.76 12.42C128.43 12.76 128.02 13.3 127.83 13.62C127.56 14.09 127.3 15.14 126.52 18.96C126 21.57 125.24 25.3 124.85 27.25C124.46 29.19 124.1 30.82 124.05 30.87C124 30.92 123.04 30.88 121.91 30.79C120.78 30.69 118.91 30.54 117.75 30.46C116.58 30.38 114.85 30.27 113.9 30.21C112.95 30.16 111.28 30.09 110.19 30.06C109.09 30.03 106.1 30.01 103.52 30.01C100.95 30.01 97.52 30.05 95.9 30.1C94.28 30.15 92.45 30.24 91.84 30.3L90.73 30.39C91.22 27.9 91.47 26.6 91.6 25.9C91.74 25.19 92.14 23.11 92.49 21.27C92.85 19.43 93.32 16.97 93.54 15.81C93.86 14.15 93.93 13.5 93.87 12.85C93.82 12.38 93.65 11.74 93.48 11.37C93.31 11.02 92.92 10.5 92.61 10.22C92.31 9.95 91.68 9.54 91.22 9.33L90.39 8.93C60.67 8.88 52.38 8.92 52.27 8.98Z" />
		<path fill-rule="evenodd" class="shp0" d="M103.14 48.15C104.65 48.18 107.19 48.32 108.78 48.46C110.36 48.6 111.67 48.73 111.68 48.74C111.69 48.76 111.25 50.77 110.7 53.21C110.15 55.65 109.32 59.35 108.85 61.43C108.37 63.52 107.68 66.61 107.3 68.31C106.92 70 106.17 73.33 105.64 75.7C105.1 78.06 104.49 80.75 104.29 81.67C104.08 82.59 103.77 83.69 103.29 84.89L102.61 84.93C102.23 84.95 100.77 84.91 99.36 84.83C97.95 84.76 95.99 84.61 95 84.5C94.02 84.4 92.58 84.23 91.8 84.12C91.02 84.02 89.55 83.84 88.53 83.72C87.51 83.61 86.66 83.51 86.64 83.49C86.62 83.48 86.72 82.92 86.86 82.25C87 81.58 87.43 79.56 87.83 77.75C88.22 75.95 88.92 72.77 89.38 70.68C89.83 68.6 90.58 65.16 91.05 63.04C91.51 60.92 92.2 57.74 92.59 55.97C92.97 54.2 93.48 51.86 93.73 50.76C93.97 49.67 94.24 48.73 94.33 48.68C94.42 48.63 94.66 48.58 94.88 48.58C95.09 48.58 95.58 48.52 95.96 48.44C96.35 48.37 97.5 48.25 98.53 48.19C99.55 48.14 101.62 48.11 103.14 48.15ZM98.06 51.17C97.34 51.2 96.72 51.24 96.68 51.28C96.64 51.31 96.29 52.79 95.9 54.56C95.5 56.32 94.87 59.19 94.49 60.92C94.11 62.65 93.42 65.83 92.95 67.99C92.48 70.14 91.99 72.43 91.84 73.06C91.7 73.7 91.43 74.97 91.23 75.89C91.04 76.81 90.71 78.29 90.51 79.19C90.3 80.09 90.16 80.85 90.2 80.89C90.23 80.92 90.67 81.02 91.16 81.09C91.65 81.17 92.55 81.28 93.15 81.35C93.74 81.41 95.13 81.55 96.22 81.66C97.31 81.76 98.87 81.88 99.68 81.92L101.15 82C101.48 81.15 101.61 80.61 101.66 80.26C101.7 79.91 101.82 79.27 101.92 78.85C102.02 78.42 102.25 77.44 102.43 76.66C102.61 75.88 102.81 74.99 102.88 74.67C102.95 74.35 103.23 73.08 103.51 71.84C103.79 70.6 104.37 68 104.81 66.06C105.24 64.11 106.14 60.15 106.79 57.25C107.45 54.36 108 51.84 108.03 51.66C108.07 51.35 108.05 51.34 106.98 51.25C106.38 51.2 104.48 51.13 102.75 51.1C101.03 51.07 99.56 51.06 99.49 51.09C99.42 51.11 98.77 51.15 98.06 51.17ZM50.32 53.09C50.41 53.08 50.48 53.11 50.48 53.14C50.48 53.18 50.22 54.32 49.91 55.68C49.6 57.04 48.65 61.25 47.79 65.03C46.94 68.81 46.11 72.51 45.93 73.26C45.76 74 45.44 75.41 45.23 76.4C45.01 77.39 44.81 78.3 44.77 78.43C44.74 78.55 44.6 78.65 44.46 78.65C44.32 78.65 43.32 78.43 42.25 78.15C41.17 77.87 39.49 77.37 38.5 77.04C37.51 76.72 35.93 76.13 34.98 75.74C34.03 75.35 32.41 74.61 31.39 74.1C30.37 73.59 28.93 72.81 28.19 72.36C27.45 71.92 26.27 71.14 25.56 70.65C24.86 70.15 23.7 69.27 23 68.69C22.29 68.11 21.04 66.93 20.21 66.08C19.38 65.22 18.73 64.47 18.75 64.42C18.78 64.37 19.2 64.06 19.68 63.73C20.17 63.41 21.2 62.78 21.97 62.35C22.75 61.92 24.33 61.12 25.5 60.58C26.66 60.04 28.62 59.21 29.85 58.73C31.09 58.26 32.99 57.57 34.08 57.22C35.17 56.86 36.87 56.33 37.86 56.05C38.85 55.77 40.81 55.24 42.22 54.89C43.63 54.54 45.5 54.1 46.38 53.92C47.26 53.73 48.47 53.48 49.07 53.35C49.67 53.22 50.23 53.1 50.32 53.09ZM42.99 57.72C41.86 58.01 40.42 58.38 39.78 58.56C39.15 58.73 37.62 59.19 36.39 59.57C35.15 59.95 33.22 60.61 32.09 61.03C30.97 61.45 29.41 62.06 28.64 62.39C27.86 62.72 26.35 63.42 25.27 63.94C24.2 64.47 23.32 64.94 23.32 65C23.32 65.05 23.67 65.41 24.1 65.8C24.54 66.19 25.3 66.82 25.8 67.21C26.3 67.59 27.29 68.29 27.99 68.76C28.7 69.23 29.74 69.88 30.3 70.2C30.86 70.52 31.9 71.07 32.61 71.43C33.31 71.78 34.23 72.23 34.66 72.42C35.08 72.61 35.94 72.96 36.58 73.21C37.21 73.46 38.19 73.83 38.76 74.03C39.32 74.23 40.39 74.57 41.13 74.79C41.87 75 42.48 75.17 42.5 75.15C42.51 75.13 42.58 74.86 42.65 74.54C42.71 74.22 42.92 73.3 43.11 72.48C43.3 71.67 43.47 70.89 43.5 70.75C43.53 70.61 43.82 69.34 44.14 67.92C44.46 66.51 45.13 63.56 45.62 61.37C46.11 59.18 46.54 57.28 46.57 57.16C46.62 56.99 46.56 56.94 46.35 56.95C46.19 56.95 45.83 57.02 45.55 57.08C45.27 57.15 44.11 57.44 42.99 57.72Z" />
		<path class="shp3" d="M9.3 62.43C9.27 62.48 9.41 63.36 9.61 64.39C9.82 65.41 10.19 67.06 10.45 68.05C10.7 69.04 11.23 70.83 11.62 72.03C12.01 73.24 12.72 75.2 13.2 76.4C13.68 77.61 14.41 79.34 14.83 80.26C15.25 81.18 15.96 82.62 16.4 83.47C16.84 84.32 17.64 85.77 18.17 86.69C18.7 87.6 19.56 89.02 20.09 89.83C20.61 90.65 21.48 91.92 22.01 92.66C22.55 93.4 23.63 94.82 24.41 95.81C25.19 96.8 26.4 98.25 27.09 99.02C27.79 99.8 29.14 101.22 30.1 102.17C31.06 103.13 32.5 104.49 33.31 105.2C34.12 105.91 35.36 106.95 36.07 107.52C36.77 108.09 38.22 109.19 39.3 109.96C40.37 110.73 41.98 111.83 42.88 112.41C43.78 112.98 45.24 113.86 46.12 114.37C47.01 114.88 48.73 115.8 49.97 116.43C51.2 117.05 52.96 117.9 53.88 118.3C54.79 118.71 56.46 119.4 57.59 119.85C58.72 120.29 60.25 120.86 60.99 121.12C61.73 121.38 63.25 121.87 64.38 122.22C65.51 122.56 67.18 123.05 68.1 123.29C69.01 123.54 70.77 123.97 72.01 124.25C73.24 124.54 74.71 124.86 75.27 124.97C75.84 125.08 76.9 125.26 77.64 125.36C78.38 125.46 79.74 125.63 80.65 125.74C81.57 125.85 82.87 126 83.54 126.07C84.21 126.14 85.88 126.29 87.25 126.39C88.63 126.5 91.11 126.65 92.76 126.72C94.42 126.79 96.88 126.85 98.24 126.85C99.59 126.85 101.99 126.79 103.56 126.71C105.12 126.64 107.56 126.47 108.97 126.32C110.38 126.18 112.28 125.95 113.2 125.81C114.11 125.66 115.73 125.37 116.78 125.16C117.84 124.95 119.28 124.63 119.99 124.46C120.69 124.28 122.02 123.9 122.93 123.61C123.85 123.33 125.29 122.82 126.14 122.48C126.98 122.15 128.28 121.57 129.02 121.19C129.76 120.82 130.84 120.21 131.42 119.83C132 119.45 132.48 119.06 132.48 118.98C132.48 118.85 131.32 118.81 127.13 118.8C123.53 118.8 120.78 118.72 118.71 118.58C117.01 118.46 114.51 118.25 113.13 118.11C111.76 117.97 109.94 117.77 109.1 117.66C108.25 117.55 106.75 117.34 105.77 117.2C104.78 117.06 103.42 116.85 102.75 116.74C102.09 116.64 100.47 116.35 99.17 116.1C97.86 115.86 95.99 115.48 95 115.28C94.02 115.07 91.88 114.58 90.26 114.19C88.64 113.8 85.87 113.07 84.11 112.57C82.35 112.07 79.38 111.15 77.51 110.53C75.65 109.91 72.82 108.91 71.24 108.3C69.65 107.69 67.32 106.76 66.05 106.22C64.78 105.68 62.96 104.89 62.01 104.45C61.06 104.02 58.98 103.01 57.4 102.21C55.81 101.42 54.11 100.55 53.62 100.27C53.13 100 52.2 99.49 51.57 99.13C50.94 98.78 49.84 98.15 49.14 97.74C48.43 97.33 47.02 96.48 46 95.84C44.97 95.2 42.99 93.9 41.58 92.94C40.17 91.99 37.8 90.3 36.32 89.18C34.84 88.07 32.83 86.5 31.84 85.68C30.85 84.87 29.47 83.7 28.76 83.09C28.06 82.47 26.59 81.14 25.5 80.13C24.4 79.12 22.53 77.29 21.33 76.06C20.13 74.84 18.75 73.4 18.25 72.87C17.76 72.34 16.66 71.1 15.8 70.11C14.94 69.12 13.62 67.56 12.87 66.64C12.12 65.72 11.09 64.37 10.58 63.65C10.06 62.92 9.58 62.33 9.5 62.33C9.43 62.33 9.34 62.37 9.3 62.43Z" />
	</g>
</svg>