<svg enable-background="new 0 0 109.402 91.565" height="290.523097" viewBox="0 0 109.402 91.565" width="344.206712" xmlns="http://www.w3.org/2000/svg"><path d="m87.892 41.042c.183.366.549.021.893.081.816 0 1.633-.163 2.528-.144.629-.121 1.245-.041 1.872-.162 1.039.041 2.16-.223 3.299-.123 1.448-.163 3.02-.26 4.521-.367l.047.042c-.207.264-.656.143-.94.204-.715.1-1.445.141-2.245.264-2.71.428-5.536.817-8.306 1.261-.528-.018-.898.225-1.447.207-.143 0-.222.162-.122.261.185.123-.039.392.106.492-.187.224.035.489-.023.731.163.145.345.081.529 0 2.078-.1 4.439-.162 6.371-.242.37-.039.655.019 1.06-.039.473-.125.998.162 1.446-.084.838.061 1.978-.083 2.814-.059 1.402-.083 3.074-.143 4.584-.245.061 0 .1.102.061.14-1.895.123-3.915.512-5.64.715-2.122.202-4.18.446-6.314.732-1.568.022-3.142.305-4.666.407-.222.082 0 .306 0 .388.063.265.021.549.224.752-.141.162.037.244.02.408.182.123.47.143.654.143.914.186 1.811-.041 2.747.102.571-.061 1.221-.039 1.791 0l7.297-.039c2.192 0 4.865.129 7.266.313-.122.162-.59-.171-.755-.07-1.525-.02-2.931.062-4.416.121-.266.063-.676.125-.922.063-.505-.022-1.075.121-1.545.062l-.223.06-5.378.306c-1.158.081-2.424.143-3.565.243-.568-.06-1.224.265-1.833.103-.631.062-1.101.183-1.729.183.039.183.146.428.062.651.061.185-.328.449.061.531.387.143.832-.061 1.221.102.447-.041.995.023 1.408.185.446-.102.935.062 1.342.037.328.106.732.024 1.016.124 3.467.367 6.886.631 10.309 1.1 1.019 0 1.953.287 2.971.223 0 .043.102.104.043.145-.242.082-.49-.041-.793 0-.637 0-1.261 0-1.856-.019-.547.221-1.015-.083-1.567.121-.92-.081-1.871.019-2.79.061-2.037-.103-4.232.06-6.172-.142-1.362-.123-2.851-.227-4.236-.389-.122-.021-.201-.166-.345-.082-.142.205.085.39.039.612.046.204-.082.449.061.593-.262.465.021.896-.143 1.362-.178.123-.506-.021-.729.123-.301.205.061.529-.022.731.331.222.653.348 1.042.43 1.772.672 3.521 1.223 5.254 1.875.447.12.871.24 1.282.465 1.611.53 3.158 1.121 4.744 1.693.711.262 1.464.568 2.223.713.039.061.119.061.098.162-.201.061-.387 0-.589-.043-.877-.163-1.731-.305-2.582-.449-.33-.121-.674-.141-.981-.242-3.323-.873-6.579-2.158-9.978-2.951-.123 0-.208-.023-.327.061.306.387.119.896.343 1.303-.063.102-.119.284.084.325 1.729.428 3.546.896 5.152 1.526 1.16.388 2.366.774 3.525 1.2.771.37 1.605.655 2.419.98.737.202 1.409.649 2.16.833.063.084.185.084.104.184-.306.063-.592-.16-.876-.16-2.73-.572-5.581-1.367-8.329-2.16-1.651-.53-3.403-.936-4.95-1.754-.184-.019-.097.127-.122.246" fill="#fff"/><path d="m87.892 41.042c.183.366.549.021.893.081.816 0 1.633-.163 2.528-.144.629-.121 1.245-.041 1.872-.162 1.039.041 2.16-.223 3.299-.123 1.448-.163 3.02-.26 4.521-.367l.047.042c-.207.264-.656.143-.94.204-.715.1-1.445.141-2.245.264-2.71.428-5.536.817-8.306 1.261-.528-.018-.898.225-1.447.207-.143 0-.222.162-.122.261.185.123-.039.392.106.492-.187.224.035.489-.023.731.163.145.345.081.529 0 2.078-.1 4.439-.162 6.371-.242.37-.039.655.019 1.06-.039.473-.125.998.162 1.446-.084.838.061 1.978-.083 2.814-.059 1.402-.083 3.074-.143 4.584-.245.061 0 .1.102.061.14-1.895.123-3.915.512-5.64.715-2.122.202-4.18.446-6.314.732-1.568.022-3.142.305-4.666.407-.222.082 0 .306 0 .388.063.265.021.549.224.752-.141.162.037.244.02.408.182.123.47.143.654.143.914.186 1.811-.041 2.747.102.571-.061 1.221-.039 1.791 0l7.297-.039c2.192 0 4.865.129 7.266.313-.122.162-.59-.171-.755-.07-1.525-.02-2.931.062-4.416.121-.266.063-.676.125-.922.063-.505-.022-1.075.121-1.545.062l-.223.06-5.378.306c-1.158.081-2.424.143-3.565.243-.568-.06-1.224.265-1.833.103-.631.062-1.101.183-1.729.183.039.183.146.428.062.651.061.185-.328.449.061.531.387.143.832-.061 1.221.102.447-.041.995.023 1.408.185.446-.102.935.062 1.342.037.328.106.732.024 1.016.124 3.467.367 6.886.631 10.309 1.1 1.019 0 1.953.287 2.971.223 0 .043.102.104.043.145-.242.082-.49-.041-.793 0-.637 0-1.261 0-1.856-.019-.547.221-1.015-.083-1.567.121-.92-.081-1.871.019-2.79.061-2.037-.103-4.232.06-6.172-.142-1.362-.123-2.851-.227-4.236-.389-.122-.021-.201-.166-.345-.082-.142.205.085.39.039.612.046.204-.082.449.061.593-.262.465.021.896-.143 1.362-.178.123-.506-.021-.729.123-.301.205.061.529-.022.731.331.222.653.348 1.042.43 1.772.672 3.521 1.223 5.254 1.875.447.12.871.24 1.282.465 1.611.53 3.158 1.121 4.744 1.693.711.262 1.464.568 2.223.713.039.061.119.061.098.162-.201.061-.387 0-.589-.043-.877-.163-1.731-.305-2.582-.449-.33-.121-.674-.141-.981-.242-3.323-.873-6.579-2.158-9.978-2.951-.123 0-.208-.023-.327.061.306.387.119.896.343 1.303-.063.102-.119.284.084.325 1.729.428 3.546.896 5.152 1.526 1.16.388 2.366.774 3.525 1.2.771.37 1.605.655 2.419.98.737.202 1.409.649 2.16.833.063.084.185.084.104.184-.306.063-.592-.16-.876-.16-2.73-.572-5.581-1.367-8.329-2.16-1.651-.53-3.403-.936-4.95-1.754-.184-.019-.097.127-.122.246" fill="none" stroke="#fff" stroke-miterlimit="10" stroke-width="1.144"/><path d="m48.789.126c.328.103.611-.102 1.022-.02.973.101 1.955.55 2.968.55 1.185.042 2.467-.181 3.793.02 1.137.08 2.319.346 3.424.528 1.258.329 2.52.695 3.703 1.141.75.185 1.298.491 2.013.816 2.529 1.077 4.807 2.646 6.866 4.583.568-.042 1.141-.021 1.666.182.329.141.696.366.999.55l1.405 1.407c.042.224.288.224.348.425 1.038 2.365.04 5.296 1.061 7.66-.045.183.12.221.161.365.471.833.918 1.222 1.304 2.097.61.877 1.223 1.877 1.813 2.811.387.651.858 1.466 1.183 2.117.285.368 1.123 1.793 1.321 2.18.023.284.37.408.328.713.305.227.324.673.61.896.02.142 0 .306.164.349.223.649.734 1.157.871 1.81.166.183.189.529.37.713.204.487.369.957.652 1.443.184.268.1.715.364.98.285.877.266 1.692.512 2.565-.159.387.099.794.036 1.141.269.125-.099.366.127.51.099.325-.102.651.08.957-.041.489.039.978-.061 1.427.183.366.549.021.893.081.816 0 1.633-.164 2.528-.144.629-.121 1.245-.041 1.871-.163 1.04.042 2.161-.223 3.3-.122 1.448-.163 3.02-.261 4.521-.368l.047.042c-.207.264-.656.144-.94.204-.715.1-1.445.142-2.245.265-2.71.427-5.535.816-8.306 1.26-.528-.018-.897.226-1.447.208-.143 0-.222.161-.122.261.185.123-.039.391.106.492-.187.224.035.488-.023.731.163.144.345.08.529 0 2.078-.1 4.439-.163 6.371-.243.37-.039.655.02 1.06-.039.473-.125.998.163 1.446-.083.838.06 1.978-.083 2.814-.06 1.402-.082 3.074-.143 4.584-.245.061 0 .1.102.061.14-1.895.123-3.915.513-5.64.715-2.122.202-4.179.447-6.314.733-1.568.021-3.142.304-4.666.407-.222.081 0 .305 0 .387.063.265.021.55.224.753-.141.161.038.244.02.407.182.124.47.143.654.143.914.185 1.811-.041 2.747.102.571-.06 1.22-.04 1.791 0l7.297-.04c2.192 0 4.803-.062 7.205.123-.125.161-.53.021-.694.12-1.525-.02-2.931.061-4.416.121-.266.064-.676.124-.922.064-.505-.022-1.075.119-1.545.06l-.223.06-5.377.305c-1.159.082-2.425.146-3.566.244-.568-.06-1.224.266-1.833.104-.631.061-1.1.184-1.729.184.039.183.146.428.062.651.061.183-.328.448.061.53.387.142.832-.061 1.221.101.447-.04.995.024 1.408.185.446-.102.935.063 1.342.039.328.105.732.023 1.016.123 3.467.367 6.886.631 10.309 1.1 1.019 0 1.953.286 2.971.223 0 .043.102.103.043.146-.242.081-.491-.043-.793 0-.637 0-1.261 0-1.856-.019-.547.219-1.015-.084-1.567.119-.919-.081-1.871.02-2.79.061-2.037-.102-4.233.061-6.171-.142-1.363-.122-2.852-.226-4.237-.388-.122-.021-.201-.165-.345-.083-.142.207.085.392.04.612.045.205-.082.451.06.594-.262.465.021.896-.142 1.361-.179.125-.507-.02-.73.125-.301.205.061.528-.021.73.33.221.652.348 1.041.43 1.771.672 3.521 1.221 5.254 1.875.447.121.871.24 1.282.465 1.61.531 3.158 1.121 4.744 1.692.711.263 1.464.569 2.223.714.039.061.119.061.098.161-.201.062-.387 0-.589-.042-.877-.162-1.731-.305-2.582-.449-.33-.121-.674-.14-.981-.242-3.323-.873-6.579-2.157-9.978-2.953-.123 0-.208-.021-.327.063.306.387.119.895.343 1.303-.063.103-.119.285.084.324 1.729.428 3.546.896 5.152 1.527 1.16.387 2.366.775 3.525 1.201.771.369 1.605.654 2.42.979.736.203 1.408.65 2.159.833.063.083.185.083.104.184-.305.063-.592-.161-.876-.161-2.73-.571-5.581-1.366-8.329-2.159-1.651-.531-3.403-.936-4.95-1.753-.184-.019-.097.125-.122.245.221.164.101.449.208.654.038.383.118.709 0 1.035-.312.021-.656-.244-.984-.063.044.188.309.105.269.328-.306-.019-.346.367-.553.408-.139-.512-.386-.855-.73-1.283-.105 0-.044.101-.06.143l.076.08c.309 1.121.267 2.18.511 3.321.144.428-.122.752.083 1.139-.183.287.143.652-.1.854.038.287-.105.552-.145.815-.325 0-.245-.672-.672-.427-.23.327-.612.447-.876.732-.038.082.062.142 0 .205-.263-.672-.998-1.082-1.61-1.427-.103 0-.205.021-.264.084.022.099.038.224.141.242.021.59.637 1.037.61 1.567.21 0-.121.347.188.307.263.285.12.752.449.979-.062.322.526.73 0 .893-.35.126.16.246-.086.429-.305.306-.672.571-.731 1.04h-.039c-.063-.386-.268-.631-.37-.979-.428-.12-.038-.528-.488-.652-.083-.221-.2-.488-.444-.607-.268.021-.351.262-.614.303-.263-.281-.307-.795-.69-.975.04.344.28.672.245.975.121.104.016.347.161.39.144.426.204.955.571 1.322-.246.346-.266.794-.185 1.2.161.102.063.429.244.449-.06.284.388.426.103.61.104.103.182.041.285.063 0 .082-.061.181.059.242-.04.205.244.387.124.549-.141-.099-.105-.426-.364-.386-.063.287.182.634.162.979.062.324.097.671-.021.977-.165-.408-.466-.755-.652-1.164-.287-.344-.389-.75-.731-1.057l-.061-.163c-.389-.571-.818-1.058-1.104-1.669-.119-.063-.225-.145-.365-.145-.063.369.124.756 0 1.121.022.389.349.631.349 1.06.465.998.672 2.2.813 3.381-.243.326.019.754-.122 1.099.019.043.059.06.04.104l-.04.058c-.121-.955-2.467-5.741-3.117-6.452-.06-.063-.161-.08-.242-.063l-.023.043c.306.933.489 1.973.774 2.951.325 1.121.571 2.261.935 3.463-.099.141.104.244.086.387-.063.141.201.262.039.407-.447-.407-.776-.918-.977-1.466-.225-.59-.511-1.182-.879-1.711-.14-.125-.304 1.586-.304 1.586-.306-.039-.201-.405-.365-.609-.043-.447-.384-.691-.446-1.102-.246-.387-.451-.793-.593-1.18-.224-.287-.205-.919-.757-.772-.24.303-.569.694-.729.917.061.222.08.447.08.691.326.731.873 1.2 1.322 1.853.165.327.225.569.306.955-.102.102-.019.288-.081.407-.148.024-.13-.161-.231-.241-.099-.08-.261-.121-.387-.063-.181.125.042.306 0 .431 0 1.24.082 2.688-.507 3.767-.143-.103.038-.183.022-.286-.022-.467-.246-.855-.289-1.283-.083-.058-.099-.138-.083-.242-.181-.369-.528-.774-.648-1.201-.062-.166-.185-.305-.242-.448 0-.287-.411-.407-.331-.713-.385-.55-.425-1.202-.952-1.673-.107-.019-.268-.06-.349.063-.245.224-.041.529-.139.856-.21.078-.27-.307-.495-.327-.529.082-.549.712-.772 1.08.02.549.02 1.079.266 1.565.061.348.284.654.326 1 .242.612.428 1.241.388 1.873-.02.266-.02.51-.188.734-.02-.35.084-.775-.081-1.162-.079-.102-.18-.043-.281-.059-.206.119-.042.406-.246.506-.224.023-.346-.18-.57-.04-.221.208.104.37-.101.571.12.267-.045.61 0 .896 0 .264 0 .59-.102.854-.167-.041-.39-.143-.531 0-.204.101-.282.285-.347.489-.325.408-.325.915-.857 1.202.107.186.046.426 0 .631-.179.309-.442.428-.625.715-.146.791-.614 1.484-1.35 1.893-.223.183-.45.367-.732.426-.566.327-1.239.613-1.89.41-.671.12-1.225.771-1.998.549-.596 0-.96.773-1.57.307-1.672.895-3.623.262-5.397.348-.428-.106-.691.201-1.158.018l-1.119-.246c-.203.165-.41-.078-.637-.06-.584-.163-1.157-.285-1.67-.61.022-.164-.098-.226-.158-.326.02-.365-.102-.592-.164-.938-.164-.346-.446-.754-.855-.874-.427-.083-.733.202-.979.427-.104-.47-.203-.835-.405-1.223-.022-.387-.084-.854-.165-1.283.122-.12-.059-.266-.077-.387-.287-.284-.755-.529-.793-.978-.206-.245-.329-.551-.313-.875-.141-.081 0-.183-.077-.307-.225-.63.021-1.322-.37-1.894.062-.549-.199-1.058-.446-1.488-.327-.242-.669-.752-1.122-.527-.1.162-.1.428-.264.446.043-.201 0-.425-.202-.507-.163.082 0 .365-.04.55-.022 1.196-.369 2.362-.469 3.501-.41.287-.062.773-.021 1.142.037.388.104.855.12 1.263-.731-1.018-1.364-2.018-1.771-3.136-.118-.185-.224-.448-.508-.388-.143.182-.224.408-.327.611-.161-.043.044-.203-.062-.305-.119-.468-.201-.957-.017-1.386 0-.63.364-1.284.199-1.873-.06-.284.085-.755-.302-.896-.448-.082-.756-.367-1.221-.327l-.103.081c0 .387.121.732-.024 1.039-.061.246.102.57-.061.796.04.569.102 1.261-.141 1.769-.102-.324-.042-.914-.508-1.035-.162 0-.288.103-.387.221-.022.834-.086 1.631-.124 2.445 0 .491-.062 1.037-.425 1.346.161-.959-.368-1.957-.388-2.869-.288-1.43-.534-2.793-.798-4.2-.103-.039-.02-.226-.08-.306-.163 0-.655 6.272-.655 7.149-.221-.548-.366-1.345-.55-2.014-.199-.612-.199-1.224-.547-1.731-.062-.347-.182-.593-.366-.897-.245-.185-.306-.613-.611-.65-.184.14 0 .284-.101.406-.125.875-.286 1.896-.385 2.873-.146.178-.064.385-.104.61l-.081.283c-.244-.363-.103-.977-.305-1.468-.161-.383-.161-.833-.594-.956-.121-.021-.164.123-.244.162-.019.57-.181 1.102-.142 1.65-.242 0-.567-.163-.731.103v2.322c-.143.206-.226-.144-.368-.104-.346-.059-.651-.304-1.019-.283-.038-.43-.203-.935-.245-1.344-.04-.57-.181-1.098-.164-1.67-.059-.263.021-.551-.078-.836-.043-.283-.063-.591-.388-.65-.265 0-.305.283-.466.449-.247.508-.388 1.078-.448 1.666-.43-.16-.898-.16-1.328-.182-.305.164.105.388-.119.611-.124.082-.207-.063-.308-.12-.061-.388-.528-.327-.548-.712-.898-.879-.916-2.284-1.649-3.223-.144-.404-.204-.791-.327-1.158l-.099-.102c-.165.18-.023.469-.128.648.105.125-.017.269-.06.389-.141-.061-.2-.1-.324-.182-.774.062-.471 1.039-.895 1.404-.146-.08-.329-.244-.49-.062-.101.204-.085.387-.122.612-.159-.084.021-.326-.041-.489-.042-.366-.226-.733-.325-1.099-.267-.533-.449-1-.613-1.591-.143-.239-.774-.063-.61-.53.08-.265.265-.592.063-.873-.124-.106-.327-.144-.472-.062-.283.367-.69.589-1.076.853.162-.264.507-.51.446-.897-.407-.444-.49-1.099-.813-1.584-.98.101-1.486 1.017-2.139 1.629-.366.343-.286.918-.57 1.304-.226.184-.306.488-.591.693-.122-.98-.529-1.813-.592-2.792-.122-.772-.326-.629-.486-1.344-.041-.079-.104-.14-.184-.224-.348-.141-.508-.08-.694.123-.162.592-.162.813-.285 1.381-.206-.304-.386-.752-.588-1.059-.307-.711-.472-1.443-.819-2.176-.017-.244-.16-.469-.261-.695-.063-.223-.471-.426-.366-.71-.043-.083-.164-.228-.307-.164.122-.226-.182-.388 0-.591-.225-.186-.083-.386-.225-.592.164-.367-.387-.508-.124-.896.124-.406-.263-.812.102-1.14-.018-.142.205-.121.164-.306-.142-.062-.182.164-.245.225-.08-.122.146-.225 0-.386l.146-.125c-.065-.099-.226-.119-.167-.304.021-.041.102-.062.061-.123-.12-.082.125-.322-.061-.489-.019-.183 0-.345.061-.55.083.043.165-.143.246-.082-.061-.061-.14-.159-.264-.101.081-.286-.162-.489-.145-.813-.017-.856-.591-1.59-1.14-2.299-.181-1.041-1.179-1.449-1.992-1.937-.084-.633-.43-1.121-.613-1.713-.266-.324-.142-.608-.489-.896-.083-.285-.201-.551-.366-.774.042-.364-.324-.527-.324-.875-.083-.306-.369-.447-.329-.794-.224-.186-.161-.487-.345-.692.08-.103-.042-.264-.102-.368-.366-.568-.02-1.302-.652-1.729-.123-.243-.061-.449-.222-.674-.065-.952.203-1.608.305-2.563l.06-.083c-.123-.41.307-1.143-.365-1.285-.431-.08-.878.127-1.243.327-.121-.022-.103-.103-.103-.2.284-.492.225-1.144.55-1.613.085-.486.326-.691.305-1.241-.06-.083-.22-.061-.305-.02-.427.408-.836.857-1.261 1.181-.084-.143.162-.264.162-.428.122-1.243.348-2.67.263-3.788-.162-.283-.671-.45-.366-.875.49-2.752 1.63-5.171 2.465-7.762.101-.12.246-.244.224-.425-.103-.142-.245-.205-.369-.287-.345-.019-.466.43-.813.349.06-.328.368-.632.571-.959.285-.449.693-.914.878-1.466-.104-.143.098-.143.078-.264.02-.448-.263-.855.02-1.222.166-.428.674-.958.429-1.466-.325-.367.165-.653.285-.979.406-.366.835-.712 1.1-1.161 0-.367-.041-.873.123-1.162-.061-.281.245-.445.245-.728.14-.33.449-.695.649-1.08.081-.081.245-.207.245-.37.366-.405.673-.754.999-1.141.141-.263-.226-.366-.386-.448-.124 0-.247-.039-.347-.139.448-.37.507-.999.874-1.407.142-.613.614-1.18.918-1.692.427-.445.835-.936 1.366-1.301.119-.083.079-.246 0-.348-.431-.486-1.204-.733-1.632-1.283 0-.445.551-.469.67-.854.082-.184.328-.162.492-.121.246.223.507.019.733-.083.041-.593-.447-1.122-.855-1.589-1.101-1.118-2.487-2.035-3.522-3.177-.633-.787-.912-1.91-.507-2.947 1.973-2.445 5.01-3.485 8.083-3.566.305-.122.715.02 1.06-.06 3.604.019 6.782.611 10.408.834.975.081 1.813.06 2.871.02 2.058-.488 4.072-1.061 6.151-1.383 2.847-.469 5.452-.856 8.308-1.079 2.362-.124 4.544-.287 6.883-.043" fill="#231f20"/><path d="m49.035 1.874c.143.204-.02.327-.187.364-.584.043-1.299.226-1.891.267-2.097.162-4.236.324-6.046 1.365-.106 0-.123-.061-.187-.142.323-.367.856-.531 1.302-.754 1.204-.571 2.469-.978 3.769-1.1 1.08-.267 2.117-.143 3.24 0" fill="#e56b1f"/><path d="m31.072 4.012c-.265.407-.55.795-.957 1.163 0 .161.186.161.283.242.39.122.917-.062 1.268.163.036.245-.206.283-.351.389-1.221.569-2.32 1.382-3.461 1.995-.567.324-1.181.731-1.731.875l-.061-.081c.571-.632.996-1.345 1.607-1.935.023-.224-.262-.04-.365-.163-.161-.042-.366-.103-.449-.224l.062-.184c1.405-.835 2.688-1.691 4.051-2.566.145.042.145.223.104.326" fill="#e56b1f"/><path d="m40.87 4.298c-1.692 1.77-3.669 2.973-5.398 4.541-1.975 1.406-3.544 3.217-4.744 5.316-.021.446-.407.671-.389 1.14-.183.446-.57.957-.794 1.404-.528.835-.653 1.752-1.02 2.667-.019.451-.223.878-.285 1.325-.06.285-.242.569-.162.834-.203.388-.224.917-.346 1.364-.263 1.06-.712 2.015-1.12 2.953-.793 1.713-2.422 2.609-3.909 3.525-.55.243-1.04.549-1.509.978-.039.04-.019.121-.019.182.243.306.447-.02.733 0 1.24-.307 2.361-.978 3.664-.815l.083.08-.326.248c-1.834.813-4.154 1.099-5.397 2.971l-.263.306c.407.407 1.2.143 1.648.223.346.041.756-.061 1.038 0 .083-.04.106-.019.227-.019l.039.122c-1.772 1.16-2.913 2.79-4.051 4.38-.307.286-.249.794-.593 1.056-.081-.038-.265.022-.223-.14.102-.774.264-1.568.509-2.323.14-.547.387-1.119.57-1.649-.022-.102-.061-.185-.144-.244-.45-.104-.671.607-1.078.142-.041-.631.018-1.203.225-1.73.591-1.569 2.034-2.464 3.218-3.542h.021c.403-.39.955-.714 1.341-1.164-.083-.264-.343-.203-.61-.243-.345.081-.672.163-.998.303-.145-.019-.285-.1-.184-.284.43-1.18 1.63-2.239 2.871-2.567 1.307-.629 2.364-1.507 3.056-2.749-.223-.224-.55.022-.793.063-.122.038-.268.141-.366.038.671-1.852 1.362-3.602 2.2-5.354.161-.507.406-.957.627-1.466 1.51-2.951 3.097-5.888 5.441-8.288.955-.878 1.851-1.712 2.892-2.325.936-.669 1.935-1.138 2.912-1.73l1.406.265z" fill="#e56b1f"/><path d="m17.813 4.561c-.041.246-.263.348-.366.552-1.709 2.524-4.256 4.968-7.433 5.192-.061-.04-.082-.101-.082-.182 2.991-1.384 3.81-6.231 7.716-5.744.087.059.146.079.165.182" fill="#e56b1f"/><path d="m46.49 5.214c2.098.344 3.726 1.425 5.455 2.544.245 0 .305.308.573.368.649.327 1.035.915 1.646 1.303-.019.122-.139.223-.258.202-.797.083-1.611.225-2.307-.121-1.445-.469-2.525-1.425-3.808-2.201-.63-.366-1.138-.649-1.854-.916-.466.021-.854-.345-1.365-.263-.692-.305-1.547-.286-2.259-.591 0-.101.079-.183.184-.203.324-.041.693-.184.999-.161.245-.164.548.018.792-.145.734.102 1.464-.019 2.202.184" fill="#e56b1f"/><path d="m70.478 8.595c.06.144.041.283-.04.406-.469.123-.975-.123-1.386-.285-1.997-.753-3.867-1.793-6.13-1.793-.896.162-1.669.204-2.565.348-1.586.246-2.908.446-4.38-.267 0-.1-.121-.142-.075-.262.139-.246.421-.144.608-.287.976-.407 2.157-.487 3.156-.672 1.323-.12 2.521-.102 3.972-.021 1.055.101 2.218.408 3.256.775 1.323.467 2.525 1.118 3.584 2.058" fill="#e56b1f"/><path d="m44.719 9.063c.142.282.303.612.485.876 0 .141-.08.306-.225.343-.2-.018-.406-.16-.484-.242-.816-.327-1.673-.388-2.53-.531-2.277.022-4.151 1.773-5.783 3.22-.346.02-.468.631-.854.325.629-2.301 2.648-4.054 4.746-5.01.465-.103.795-.447 1.324-.447 1.262-.531 2.747.242 3.321 1.466" fill="#e56b1f"/><path d="m32.007 7.758c-.222.53-.79.734-1.12 1.182-2.055 2.016-3.665 4.216-5.477 6.537-1.18 1.466-2.505 3.157-3.869 4.501-2.689 1.894-4.685 4.277-7.106 6.518-.144.325-.593.549-.735.854-.122.083-.326.205-.364.369-.468.305-.817.792-1.306.975l-.059-.06c.119-.266.324-.51.385-.814.244-.287.307-.673.512-.958.852-1.549 1.993-3.056 3.013-4.481.139-.082.183-.366.425-.326.123-.06 0-.142 0-.223 1.285-1.65 2.405-3.421 3.363-5.235 0-.103-.023-.222-.123-.265-1.12 1.364-2.363 2.668-3.627 3.889l-.224-.019c.019-.385.386-.631.369-1.036.404-.573.569-1.346.975-1.957.45-.979.895-1.914 1.223-2.954-.146-.324.411-.652 0-.876-.263-.061-.406.164-.614.266-.079.203-.302.324-.424.51-1.16 1.261-1.998 2.585-3.158 3.868-.059.102-.144.021-.224 0 .224-.834.815-1.61 1.285-2.403.205-.407.611-.876.872-1.303.045-.348.25-.61.492-.835-.143-.286-.532-.164-.734-.307-.916-.243-1.854.204-2.771-.18v-.081c1.061-1 2.364-1.367 3.789-1.468l.081.06.021-.06c1.67-.042 3.259.182 4.97.122.958-.122 1.913-.266 2.749-.732.976-.327 1.913-.796 2.912-1.123.489-.182.916-.425 1.426-.609.938-.49 1.978-.898 2.953-1.427.059-.022.082.064.12.081" fill="#e56b1f"/><path d="m49.4 11.201c1.913 1.12 3.867 2.525 6.173 2.81.121.02.243.082.304.205-.389.489-1.198.163-1.713.121-.505-.244-1.096-.406-1.626-.551-.269.145.079.348-.182.43-.411.039-.674-.389-1.061-.469-1.464-.998-2.891-1.999-4.01-3.341 0-.082-.063-.184.06-.224.696.123 1.344.691 2.055 1.019" fill="#e56b1f"/><path d="m74.451 11.953c.145.43.345.796.489 1.203.489 1.262.835 2.627 1.119 3.932.083.303.245.569.245.895.144.446.306.815.449 1.242-.084.325.242.531.202.833.184.349.407.735.508 1.142.349.571.635 1.181 1.142 1.672.041.1-.062.161-.12.181-.733.041-1.122-.569-1.633-.896-.631-.671-1.196-1.322-1.548-2.179-.161-.102-.183-.367-.346-.508-.386-1.041-1.118-1.874-1.383-2.995-.271-.223-.307-.591-.45-.896-.654-1.486-1.771-2.913-3.174-3.746-1.47-.429-3.544-.834-5.072-.124l-.206-.019c.041-.306.428-.346.673-.489 1.245-.57 2.547-.998 4.032-.877 1.486-.019 2.915.408 4.197 1.06.306.184.633.407.876.569" fill="#e56b1f"/><path d="m60.357 11.749.124-.121c.079.143.321.205.509.245.142-.081-.123-.325.142-.305 0 .243.265.265.427.347.836.08 1.653-.022 2.403-.205.101-.063.204.123.125.205-1.142.446-2.385.468-3.569.955-.424-.365-1.055.081-1.584-.1-1.262 0-2.568-.123-3.688-.632-.182-.081-.405-.143-.528-.305.445-.429 1.16-.429 1.793-.55 1.3-.045 2.521.222 3.846.466" fill="#e56b1f"/><path d="m68.829 12.749c-.021.184 1.223.874 1.575 1.344.053.325.196.55.399.795.328 2.241 1.811 3.787 3.281 5.477.159.021.692 1.079 1.077.734.326-.264.451.368.654.387-.041.163.142.285.181.428-.12.732-.144 1.65-.467 2.321-.042.264-.241.469-.325.714-1.734 2.889-5.562 2.687-7.455 5.518-.059.16-.146.366-.205.489-.123.365-.265.853-.302 1.324.037.303-.063.547 0 .813-.021.142.037.347-.124.367-.264-.139-.239-.503-.22-.758.026-.333.026-.653.026-.986 0-.319-.031-.614.025-.936.062-.352.263-.615.371-.945.146-.429.407-.876.345-1.323.123-.408-.101-.733-.366-.998-.093-.097-.245.537-.246.546-.175.296-.543.358-.812.513-.143.08-.324-.021-.366-.143-.102-.691 0-1.323-.102-2.057.102-.448-.101-.896.325-1.282l1.283-1.203c.221-.671.445-1.404.671-2.097.225-.956.549-2.017.386-3.076-.097-.205 0-.487-.141-.652-.16-.689-.608-1.465-1.099-1.914-.222-.122-.404.121-.633-.042-.26-.099-.199-.405-.448-.528-.201.448-.345.978-.243 1.467 0 0 .145.753.243.834.188.164.249.45.324.674.188.305.675 1.772.757 2.199 0 0-.021.325-.021.487-.142.164-.286.387-.53.327-.103-.245-.368-.489-.407-.713-.284-.286-.406-.713-.711-1.037-.085-.286-1.384-2.608-1.894-3.485-.063-.286.079-.611.121-.875.327-.184.184-.651.628-.694.286.043.654.204.838-.08-.203-.265-.367-.49-.305-.855.181-.691.834-.937 1.425-1.201.326.122 1.648-.306 2.076-.227.148.063.309.185.411.349" fill="#fff"/><path d="m50.126 21.11c-.706 0-1.41.006-2.115-.006.545.199 2.184 1.271 2.49 1.718.354.505.729 2.646.971 2.953.371.344.13 1.377.064 1.793-.059.386.009 1.137-.387 1.358-.349.196-.485.03-.642-.214-.18-.278-.222-.393-.548-.552-.18-.087-.821-.427-1.034-.206-.289.301 1.918 2.969 1.977 3.319.044.318.118.638.201.952.046.172.381 1.133.109 1.226-.16-.021-.404-.021-.343-.246-.021-.751-.486-1.525-.875-2.24-.668-1.243-2.667-1.688-3.909-1.952-.702-.149-1.414-.346-2.127-.46-.844-.134-1.688-.148-2.472-.544-.902-.453-1.778-.763-2.58-1.428-.409-.339-.673-.599-.946-1.05-.661-1.102-.579-2.297-.519-3.557.048-.854.421-1.522.704-2.303.241-.661.551-1.563.928-2.125.228-.337.616-.588.851-.928.4-.575.932-1.043 1.396-1.559-.013.033-.045.185.03.129.105-.388.57-.45.879-.695.448-.14.855-.323 1.34-.3l.061.06c.108-.202.413-.098.6-.161.791-.061 1.908-.341 2.602.249-.183.061-.37.203-.487.244-.244.445-.737.875-1.064 1.281.084.162-.141.204-.166.344-.323.49-.63 1.201-.877 1.69 0 .307-.162.734-.246 1.1.041.061.041.162.144.203.285-.019.124-.327.285-.447.167-.365.49-.61.572-.997l.755-.752c.225.063.245-.182.427-.224.27-.101.328-.508.656-.466l1.242-.978c.199.206.408.572.465.881.165.08.208.323.208.323-.025.185.261.999.261 1.02.061 0 .039.184.12.244h-.021" fill="#fff"/><path d="m63.412 14.216c.063.244-.225.404-.244.63-.266.733-.549 2.667-.591 2.81l.042 1.486c.143.305.038.632.206.939-.106.388.24.632.22 1.017.306.469.329 1.161.732 1.567.205.162.184.45.389.593.039.163-.061.202-.162.224-.388-.449-.774-.836-1.139-1.305-.267-.652-.697-1.201-.878-1.915-.61-1.65-.733-3.726-.141-5.436.039-.346.504-.408.772-.61.247-.082.593-.185.794 0" fill="#e56b1f"/><path d="m34.125 14.967c0 .389-.241.796-.466 1.124-.226.403-.348.955-.674 1.363.021.162-.141.223-.186.345-.037.488-.385.835-.487 1.304-.344 1.118-.772 2.035-1.038 3.196-.162.552-.265.937-.388 1.489-.08.549-.264 1.179-.406 1.771-.043.551-.204 1.137-.204 1.628-.369.448-.326 1.1-.732 1.466-.06 0-.101.102-.163.022-.081-.775-.387-1.447-.406-2.2-.348-1.384-.45-2.911-.284-4.319.224-.956.51-1.974 1.26-2.768 1.303-1.611 2.384-3.136 3.992-4.421z" fill="#e56b1f"/><path d="m49.991 15.987c.37 1.059.954 1.935 1.489 2.911.609 1.202 1.201 2.404 1.813 3.565-.083.57.306 1.077.306 1.669.041.409.122.835.201 1.243-.16.448 0 1.1-.221 1.487.02.139-.044.245-.124.306-.325-.021-.488-.428-.612-.693-.468-.572-.408-1.447-.611-2.178.063-.287-.509-1.754-.632-2.263-.221-.346-.303-.732-.464-1.1-.147-.834-.389-1.709-.614-2.505-.225-.263-.142-.609-.367-.895-.123-.672-.443-1.14-.572-1.814.205-.223.368.124.408.267" fill="#e56b1f"/><path d="m55.1 17.046c1.083.02 2.263.365 2.914 1.345-.059.081 0 .262-.161.222-.367-.04-.55-.385-.897-.467-1.202-.509-2.688-.654-4.029-.509-.348-.021-.433-.366-.715-.49-.021-.14.145-.163.223-.223.894.083 1.754.164 2.665.122" fill="#e56b1f"/><path d="m58.564 21.791c.121.427.268.834.345 1.281.308 1 .225 1.877.088 2.875-.206 1.098-.696 2.096-1.511 2.871-.284.305-.631 0-.938-.022-.486-.509-.813-1.04-1.02-1.649-.159-.122-.204-.388-.12-.569.447-1.081 1.446-2.037 1.404-3.28-.12-1.731-1.813-2.545-3.113-3.34-.021-.082-.102-.141-.184-.122.063-.305.486-.122.712-.246 1.629-.102 3.584.632 4.337 2.201" fill="#e56b1f"/><path d="m10.665 20.141c.021.49-.387.894-.487 1.384-.164.185-.182.408-.265.613 0 .284-.39.366-.245.67-.324.451-.449.98-.732 1.427-.268.714-.652 1.363-.896 2.098-.388.569-.593 1.343-.855 1.975-.146.406-.614.143-.818.326-.121 0-.222 0-.325-.102-.061-.203.103-.389.163-.593.083-.383.268-.855.366-1.242.143-.119.143-.304.205-.467.449-.815.794-1.689 1.301-2.442v-.124c.754-1.16 1.531-2.197 2.285-3.338.018-.143.159-.205.303-.185" fill="#e56b1f"/><path d="m33.134 21.903c.016.411-.123.778-.107 1.19-.105.198-.032.398-.137.597-.383.151-1.021.167-1.021.716.028.277.381.46.286.748.23.613-.044 1.328.17 1.895-.075.184.15.335.016.505-.259.366-.613.504-1.04.596-.198-.107.062-.291-.062-.382.031-.43.123-.964.062-1.406.015-.185-.03-.428-.03-.671-.017-.259-.123-.52-.151-.795-.214-.429.365-.612.476-1.024.303-.352.592-.702.791-1.054.229-.322.489-.564.671-.915z" fill="#e56b1f"/><path d="m61.577 23.117c.127.247.24.503.309.757.08.299.108.644.144.951.098.896.05 1.837-.047 2.722-.096.908-.117 1.894-.505 2.738-.224.488-.346.935-.631 1.384-.104.102-.226.019-.329.041-.239-.185-.036-.553-.299-.754.139-.693-.025-1.63.199-2.261.042-1.139.203-2.117.248-3.301-.105-.465.059-1.019-.088-1.525.146-.633-.262-1.264-.221-1.895-.164-.102-.063-.305-.226-.426.023-.08.123-.143.207-.143.331 0 .796.929.937 1.166.101.174.205.359.302.546" fill="#e56b1f"/><path d="m74.633 23.033c-.202.427-.425.854-.653 1.264-.18.731-.871 1.283-1.284 1.813-.083.059-.18.099-.26.059.446-.326.385-.917.689-1.302-.225-.98 1.083-1.122 1.428-1.834z" fill="#231f20"/><path d="m20.401 24.051c-.203.449-.244 1.099-.814 1.224-.081-.064-.268.081-.268-.125.125-.426.187-1.058.718-1.181.137.022.282-.081.364.082" fill="#e56b1f"/><path d="m65.084 25.864c.101 1.323-.227 2.301-.104 3.604-.102.468.243.897-.145 1.263.021.39-.427.631-.552.997-.242.122-.242.552-.549.367l-.261-.346c.183-.569.485-1.141.611-1.732.019-.142.301-.386 0-.508-.327.02-.512-.122-.713-.264.386-.916.688-1.916 1.036-2.872.081-.204.142-.448.204-.674.124-.163.41-.021.473.165" fill="#e56b1f"/><path d="m69.826 27.025c-.161.244-.421.408-.649.549-.02-.019-.039-.061-.085-.041v-.083c.389-.282.694-.649.98-1.036.142.201-.224.365-.246.611" fill="#231f20"/><path d="m74.553 28.144c-.144.96.488 1.978-.085 2.932-.301.695-.711 1.428-1.22 2.018-.14.123-.306.264-.407.446-.183.123-.325.266-.448.451-1.12.507-1.668 1.872-2.954 1.67l-.034-.043c.034-.061-.17-1.221.547-1.485.344-.165.712-.429 1.077-.386.796-.307 1.568-.715 2.139-1.429.185-.058.185-.324.326-.486.428-.346.082-.836.307-1.264-.06-.385.101-.915-.06-1.281-.128-.573-.37-1.162-.066-1.773.146-.245.372-.346.631-.407.364.244.205.712.247 1.037" fill="#fff"/><path d="m18.239 27.451c.105.592-.177 1.224-.709 1.549-.102.081-.306.104-.43.019-.079-.038-.037-.2.024-.281.079-.511.223-1.287.853-1.45.122.023.205.063.262.163" fill="#e56b1f"/><path d="m80.882 27.92c.187.409.553.632.757 1.061.206.282.389.568.49.894.896 1.183 1.24 2.708 2.16 3.91.24.406.587.875.79 1.323.104.082.325.222.226.367-.591.022-.73-.672-1.14-1.06-.186-.366-.549-.669-.917-.955h-.268c0 1.037-.303 2.077-.2 3.179-.08.221.039.509-.064.689 0 .53 0 .959-.056 1.428.12.041-.024.101 0 .161-.105.509.201.918.12 1.445.225.186 0 .449.1.674-.079.571.59 1.466-.364 1.669-.348.102-.715.125-1.021-.019-.061-.203-.182-.49-.203-.713-.186-.04-.021-.305-.186-.366-.282-.958-.385-1.936-.404-3.036.041-.671.122-1.486.062-2.118.204-.428.083-1.017.182-1.446.101-1.528.287-3.136.084-4.602-.308-1.08-.367-2.097-1.097-3.013 0-.104.16-.123.238-.063z" fill="#e56b1f"/><path d="m13.578 28.49c-.165.347-.406.694-.528 1.02-.288.202-.267.611-.492.855-.383 1.061-.771 2.261-.813 3.381.042.651-.184 1.222 0 1.792-.225.59.019 1.242-.018 1.811.06 1.488.425 2.791.526 4.279-.347.812-.814 1.607-1.487 2.3-.323.02-.547.611-.854.227.061-.592-.121-1.123-.02-1.693-.039-.285-.039-.591 0-.873-.039-.185-.145-.41-.063-.592-.082-.206 0-.468-.061-.735 0-.264.205-.55 0-.835.044-.531 0-.956.044-1.526-.083-.082-.021-.225-.044-.347.164-.081-.021-.205.044-.326-.162-.774.12-1.446.017-2.301-.082-.366.166-.837.083-1.242.123-.611.061-1.181.141-1.835.39-.325.451-.61.819-.997.75-.978 1.423-1.894 2.502-2.445.083 0 .162.022.204.082" fill="#e56b1f"/><path d="m53.493 29.223c.286.45.227 1.02.55 1.487.431 1.221.529 2.607.798 3.85 0 .163-.123.222-.185.325-.268.063-.287-.266-.511-.346-.426-.305-.914-.754-1.366-1.12-.261-.488-.162-1.101-.241-1.587-.044-.612-.225-1.265-.123-1.916.14-.099.02-.223.123-.366-.061-.244.305-.408.143-.694.06-.142.201-.203.323-.283.451-.102.288.446.489.65" fill="#e56b1f"/><path d="m43.803 29.469c.145.652.145 1.283.202 1.975.12.285.201.631.264.896.101.164.101.367.265.487.124.39.367.796.795.94 1.078.957 2.342.591 3.646 1.099.288.024.406.102.649.221.059-.004.488.387.668.679 0 .01 0 .015-.001.02-.004.014-.012.029-.019.043-.021.043-2.286.214-2.971-.211-.268-.017-.588-.263-.588-.263s-.836-.552-1.283-.714c-.896-.73-1.648-1.467-2.261-2.461-.022-.594-.144-1.327-.265-1.959.078-.244-.164-.346-.082-.59-.102-.121-.102-.325-.082-.468.021-.12.123-.059.181-.144.391-.019.637.184.882.45" fill="#fff"/><path d="m77.565 30.507c.491 1.301.165 2.873-.569 4.032-.306.306-.63.59-.999.835-.341.123-.485-.287-.729-.387-.327-.733.404-1.263.586-1.833.246-.163.144-.408.307-.609-.202-.615-.202-1.203 0-1.814.145-.265.629-.265.629-.653-.019-.142-.24-.203-.08-.347.08-.058.228-.1.327-.058.182.264.449.509.528.834" fill="#e56b1f"/><path d="m36.308 29.898c-.227.588-.754 1.118-.9 1.771-.385.59-.646 1.262-.916 1.894-.324.935-.631 1.934-.854 2.911.063.245-.081.346-.264.386-1.06 0-2.059-.609-2.77-1.403l.062-.163c1.326-1.548 2.668-2.996 4.096-4.563.507-.304.894-.833 1.507-.896z" fill="#e56b1f"/><path d="m6.492 30.71c-.266 1.386-.531 3.258-2.178 3.687-.329-.143.101-.406.101-.63.305-1.06.08-2.587 1.384-3.14.201.023.549-.221.693.083" fill="#e56b1f"/><path d="m70.803 30.894c-.14.082-.284.367-.488.286-.14 0-.122-.185-.08-.286.08-.104.185-.223.328-.267.101.104.345.023.24.267" fill="#fff"/><path d="m56.612 31.059c.449-.103.874-.206 1.322-.307.163-.021.286.123.348.244-.041.692.242 1.223.282 1.854-.445.244-.792-.103-1.201-.266-.468-.225-.957-.63-1.239-1.017-.222-.163-.247-.47-.43-.673-.038-.103.042-.163.122-.205.246.062.491.387.796.37" fill="#e56b1f"/><path d="m72.964 31.016c-.082.305-.102.609-.327.834-.491.775-1.446 1.629-2.565 1.53-.12 0-.083.039-.204.018-.082-.163-.203 0-.284-.06-.445-.103-.918-.225-1.144-.673-.097-.306-.059-.672.144-.916-.04-.101.064-.203.125-.264.55.14.589.833.997 1.221.366.407 1.06.102 1.467-.021.691-.466 1.061-1.2 1.551-1.852.117 0 .177.123.24.183" fill="#e56b1f"/><path d="m47.714 31.709c.014.185-.165.244-.289.324-.202-.04-.324-.201-.468-.345-.02-.103.021-.184.102-.245.242.019.469.142.655.266" fill="#fff"/><path d="m42.537 34.275c-.303.304-.793.325-1.223.448-1.118.203-2.397.162-3.175-.857-.308-.345-.449-.956-1.059-.936-.039-.448.447-.65.775-.835 1.321-.753 2.684 0 3.827.671.49.327.776.959.855 1.509" fill="#e56b1f"/><path d="m49.645 32.401c.246.386-.021.711-.161 1.039-.609.47-1.387.692-2.077.692-.979-.142-1.895-.855-2.385-1.731-.021-.142.042-.203.163-.246.654.368.979.957 1.651 1.264.449.243 1.059.182 1.486-.039.184-.183.402-.389.342-.674.168-.245.061-.59.269-.835.283.042.551.327.712.53" fill="#e56b1f"/><path d="m63.147 34.038c.328-.021.63-.265.735-.61-.02-.02.016-.041.041-.062l.119.021c.489.467 1.428 1.32 2.077 1.874.321.292.689.843.897 1.177.102.16.14.325.102.409-.04.082-.682.867-1.062.613-.454-.2-1.178-.407-1.259-.451-1.192-.423-4.596-2.714-4.447-3.337-.031-.115.118-.447.186-.485.202-.101.421-.163.696-.086.675.205 1.224.753 1.915.937" fill="#e56b1f"/><path d="m36.772 33.398c-.326.754-.504 1.589-.444 2.424-.166.345.079.651.062 1.018.182.308.057.816.507.957 1.142.061 1.977-.834 3.094-.937.836.345 1.754.549 2.652.671.12.144.384 0 .526.125.364.122.753.039 1.162.244.326-.061.57.161.854.265-.163.243-.43.079-.651.243-.876.467-1.952.693-2.688 1.446-.164-.062-.223.061-.265.184-.486.467-.856 1.078-1.243 1.609-.164.08-.325-.02-.47-.083-1.71-1.364-3.479-2.443-5.17-3.786 0-.63.344-1.06.466-1.673.228-.892.672-1.668 1.118-2.462.164-.08.289-.489.49-.245" fill="#e56b1f"/><path d="m69.541 34.05c-.039.04-.061.083-.102.062-.02-.082.062-.103.102-.062" fill="#231f20"/><path d="m61.317 36.698c.22-.039.241.266.449.308.584.241.952.485 1.521.792.448.103.938.306 1.447.183.224.081.307.307.407.49.329.366.653.998 1.203.935.773-.305 1.364-1.14 2.258-.955.288.445-.06.976-.26 1.341-.227.571-.572 1.081-.368 1.674.1.243.344.424.568.59.446-.041.815-.408 1.222-.449.164 0 .204.142.307.222-.103.633.406 1.121.793 1.569.408.451.896 1.039 1.142 1.649.08.512-.104.939-.307 1.367-.366.612-.754 1.221-1.198 1.79-.206.104-.387.388-.611.246-.593-.814-.752-1.895-1.083-2.853-.753-1.28-1.507-2.381-2.363-3.602-.075 0-.137-.186-.201-.044.103.815.186 1.549.349 2.366.119.324.326.649.388 1.037-.148.303.264.548.201.877.142.142.1.346.181.507.144.98.45 1.853.227 2.851-.266.306-.608.021-.895.185-1.57-.125-2.467-1.57-3.159-2.77-.796-1.364-1.894-3.279-3.744-3.035l-.043.062c-.855.038-2.199.387-2.686-.612.036-.285-.551-.57-.062-.694.629.105 1.359.246 1.951.145.407-.021.839-.165 1.181-.368-.101-.202-.362-.345-.506-.529-1.185-.958-2.73-1.505-3.563-2.914-.04-.12.018-.202.144-.241 1.977.1 3.949 1.077 5.374 2.525.407.608.997 1.261 1.223 1.975.182.06.409.101.609.039.122-.284-.038-.591.021-.917-.1-.059 0-.243-.1-.324-.022-.488-.326-.977-.496-1.467-.28-.591-.649-1.119-1.097-1.608-1.056-1.468-2.548-2.486-3.644-3.827.328-.411.693.161 1.08.117.712.43 1.508.775 2.14 1.367" fill="#e56b1f"/><path d="m6.367 36.008c-.079.345-.324.631-.467.956-.693 1.017-1.528 1.77-2.057 2.891-.142.124-.204.285-.204.449-.264.262-.548.813-.978.693-.181-.062-.078-.306-.059-.448.144-.674.857-1.47.304-2.098.367-.817 1.06-1.386 1.732-1.977.449-.324 1.081-.631 1.65-.529z" fill="#e56b1f"/><path d="m27.123 37.714c.06.877.042 1.572-.125 2.405.167.205-.099.446-.06.672-.388 1.121.143 2.26-.449 3.277-.04.349-.224.694-.224 1.083-.143.466-.343.935-.386 1.384-.225.385-.674 0-1.02.184-.733.142-1.425.511-2.199.529-.306 0-.588-.144-.753-.408-.081-.183-.122-.365-.262-.51v-.591h.017c.022-.976.245-2.115.692-3.014.776-1.447 1.709-2.726 2.546-4.194.389-.733.794-1.548.878-2.425.04-.141.203-.141.307-.098.668.386.913 1.056 1.038 1.706" fill="#e56b1f"/><path d="m73.696 36.515c.166.527.186 1.221.265 1.751-.079.306.043.971-.348 1.526-.037.327-.059.695-.242.999-.08.286-.064.206-.064.206.046.364-.098.793-.075 1.2-.063.142-.247.122-.349.223-.551.02-1.366-.671-1.366-.671s-.161-.184-.283-.283c-.695-.737-.489-1.733-.592-2.527.213-.317.865-.019 1.119-.163.257-.144.084-.655.349-.875.061-.673.185-1.548.939-1.773.28-.059.527.202.647.387" fill="#e56b1f"/><path d="m85.163 38.471c.021.286.1.608.223.894.166.715.289 1.611.326 2.322-.283.082-.549.225-.815.022-.344-.387-.344-.733-.406-1.222-.102-.162 0-.326-.083-.508-.143-1.04-.143-2.078-.368-3.015.127-.266.331.06.432.161.304.429.404.979.691 1.346" fill="#e56b1f"/><path d="m78.011 37.371c.251.63.187 1.243.165 1.891-.285.268-.631-.098-.897.103-.06.225.226.347.247.55.304.572.872 1.407.468 1.956-.103.102-.242.185-.305.266.161.06.387-.062.573-.081.223.039.444.16.564.363.309.674-.69.815-.771 1.346.221.266.59-.221.692.183-.061.206.163.469-.144.51-.265.103-.469-.286-.67-.041.039.815-.594 1.466-.836 2.219-.391.734-.733 1.387-.939 2.161-.12.12-.12.286-.142.426.223.186.446.225.69.062.654-.265.718-1.306 1.615-1.163.1.27-.106.592-.106.919-.367.57-.282 1.483-1.199 1.464-.328 0-.47-.242-.753-.324-.857-.305-1.855-.043-2.591-.591.166-.305.616-.612.776-.978.609-.65 1.079-1.508 1.567-2.259.161-.306.368-.653.492-.999.22-.306.342-.63.445-.976.307-.612.471-1.284.751-1.915-.061-.103 0-.183-.018-.286-.57.243-1.202.673-1.51 1.181-.239.408-.446.773-.73 1.162-.206.408-.875.426-.778.957-.22.246-.058.651-.32.876.019.183-.183.367-.06.487-.146.062-.146.39-.244.552-.146.364-.412.549-.434.957-.445.588-.629 1.363-1.281 1.729-.038.061-.084.123-.02.186.367.121.69-.224 1.059-.186.387-.018.797.104 1.039.409-.302.448-.691.999-1.119 1.364.305.348 1.283.184 1.119.957-.468.877-1.651.856-2.342 1.487.124.224.655.205.674.591.141.612-.469 1.139-.145 1.754.429.243.187.527.145.895.06.404.1.835-.104 1.177-.753.694-1.526-.26-2.322-.118-1.018-.164-2.361-.102-3.457-.043-.45-.121-.922-.059-1.351-.162-.079-.449-.079-1.018.204-1.488.184-.607.772-1.077 1.146-1.525 1.196-.814 1.196-2.26 2.071-3.238.551-.529 1.122-.979 1.692-1.383.042-.248.304-.184.429-.347.484-.448 1.036-.757 1.402-1.322-.017-.25.331-.39.271-.614.159-.184.035-.408.22-.588-.102-.267.083-.676-.061-.9.082-.08-.041-.161-.041-.242.06-.325.143-.733.226-1.081-.041-.223.101-.386.224-.588.161-.246.467-.285.771-.328.348-.732.878-1.197 1.121-1.954-.04-.265.105-.63-.243-.814-.145-.083-.167-.221-.185-.366-.014-.148.366-.164.366-.164s.694-.022.896-.04c.063.018.142.1.223.04.086-.082.024-.183-.081-.225-.183.021-.404-.182-.404-.182-.162-.225-.572-.325-.572-.694-.428-.55-.609-1.403-.406-2.076-.041-.083 1.1-.202 1.279-.333.408-.3 1.185-.843 1.794-.646z" fill="#fff"/><path d="m53.493 39.059c.265-.101.671-.346.671-.732.408.082.612.448.937.691.756.613.9 1.711.636 2.629-.103.143-.103.348-.283.409-1.064-.51-2.101-1.041-3.158-1.527-.083-.205-.247-.225-.449-.247-.325-.674-1.264-.894-1.224-1.831.083.02.041-.104.125-.104.1.043.184.081.26-.02.165-.304.592-.082.86-.039.547.223 1.013.67 1.625.771" fill="#e56b1f"/><path d="m48.425 39.792c.264.247.63.327.872.55-.035.223-.408.223-.282.511.02.144.04.286.162.365.12.021.246.042.346.021.873.039 1.71.307 2.524.59 0 .166-.202.104-.303.144-.366.061-.8-.183-1.04.143-.061.223.24.243.265.428.571.774 1.485-.042 2.219-.06.569.386 1.225.529 1.774.974.65.105 1.015.594 1.178 1.202.105.491.021.858.084 1.345-.101 1.159.181 2.16.955 3.054.063.287.33.512.405.816.774 1.119 1.573 2.277 2.265 3.439.262.309.405.713.729 1.021.311.528.615 1.14 1.124 1.528.325.447.673.834.633 1.423-.167.165-.181.448-.409.473-.732-.103-1.282-.96-2.017-.778-.077.166.103.205.223.287.207.306.554.447.593.754-2.483.037-4.645.59-7.231.67-.914-.018-1.791.082-2.646-.265-.266-.263-.51-.589-.408-.956-.102-.589.408-.976.408-1.568.182-.448.673-.366 1.08-.51-.226-.283-.652-.244-.921-.488-.223.061-.281.365-.442.531-.491.648-1.001 1.301-1.447 1.953-.491.51-.755 1.203-1.343 1.567-.246-.021-.185-.345-.146-.506.186-.775.448-1.511.798-2.2.141-.489.285-1.001.448-1.488-.714-.734-1.772-.916-2.261-1.871.141-.531-.532-.451-.773-.738-.695-.322-1.146-.998-1.633-1.629-.184-.222-.201-.506-.081-.752-.017-.242.447-.285.264-.549-.221.123-.528.123-.75 0-.674-.486-1.058-1.199-1.711-1.646-.204-.245-.246-.573-.145-.857.346-.39.776-.673 1.262-.938.55-.059.734.672 1.161.814.735.672 1.143 1.428 1.913 2.141.776.975 2.101 1.463 3.339 1.199.187-.102-.059-.266-.078-.406-.164-.245-.507-.446-.365-.793.078-.245.443-.245.608-.451l-.101-.102c-.406.123-.858.063-1.26.043.035-.185-.043-.429.18-.553.083 0 .163 0 .183-.078-.06-.328-.425-.084-.629-.226-.184-.183-.773 0-.552-.427.043-.043.022-.082.022-.125-.061-.122-.229-.041-.306-.041-2.118-.345-2.406-2.892-4.258-3.806-.429-.408-.713-1.162-.61-1.773.408-.508.836-.998 1.427-1.18.324.143.853-.02 1.018.407 0 .386.018.978-.368 1.182-.201.02-.424.04-.59.162.53.633 1.242.102 1.937.447.326.286.526.509.772.857.525.632.897 1.568 1.834 1.711.081.124.141.323.328.344.238.044.466-.059.585-.262.223-.449-.362-.712-.511-1.08-.321-.49.29-.899-.119-1.302-.878-1.345-3.094-1.162-3.337-2.935.65-.368 1.484-.325 2.156-.243z" fill="#fff"/><path d="m6.878 39.776-.04.241c-1.528 1.284-2.729 2.669-3.786 4.379-.146.082-.286.225-.491.165-.183-.023-.183-.204-.245-.348.041-.713.324-1.283.774-1.833 0-.204.285-.306.429-.447.487-.591 1.101-1.061 1.731-1.466.367-.386 1.178-1.55 1.628-.691" fill="#e56b1f"/><path d="m94.735 40.853-.063.042z" fill="#231f20"/><path d="m94.387 40.976.084-.061h.039z" fill="#231f20"/><path d="m92.597 40.997c.018.101-.146 0-.183 0z" fill="#231f20"/><path d="m17.735 44.069c.381.248.667.715 1.18.735.121.141.063.348.142.49-.079.101-.266.101-.325.202-.021.144.079.387-.104.49-.163.958-.327 1.875-.512 2.812-.182.731-.26 1.504-.362 2.258.081.123-.042.284-.063.429-.185.426.044.914-.223 1.279.77.653 1.079 1.715 1.101 2.652-.022.527.04 1.035-.225 1.484-.121.021-.228-.019-.282-.121-.308-1.306-.35-2.67-1.41-3.606.042-.549-.184-1.199 0-1.792-.079-1.486.369-3.439-1.077-4.52-.165-.104-.349-.327-.571-.349-.124-.06-.143-.184-.085-.282l.021-1.162c-.021-.571 0-1.201 0-1.854.164-.449-.225-.979.143-1.282 1.265.019 1.918 1.344 2.652 2.137" fill="#e56b1f"/><path d="m86.139 43.073c-.161.223-.405.122-.61.039-.041-.06-.061-.1 0-.162.182.081.61-.184.61.123" fill="#e56b1f"/><path d="m83.186 43.357c.122.163.145.348.063.529-.308.532-.919.367-1.404.431-.165-.024-.226-.125-.313-.248.066-.468.513-.751.94-.895.309-.04.47.06.714.183" fill="#e56b1f"/><path d="m7.467 44.458c.226 1.73.39 3.402.734 5.111h-.021l.103.752c.121.104.02.308.081.431.268.773.387 1.545.651 2.299.225.633.508 1.119.732 1.732 0 .103-.018.121.021.223.306-.102.103-.407.164-.61-.079-.468.063-.956-.02-1.424.162-.165-.144-.409.083-.595-.063-.424.079-.914.057-1.402.126-.266.045-.549.186-.775 0-.283.02-.552.124-.813.261-.553.324-1.079.61-1.631.345-.631.65-1.14 1.096-1.71.247-.083.388.143.513.284.263 1.305-.062 2.834.469 4.075.059.813.468 1.549.629 2.36.144.387.328.776.469 1.163.122.303.305.529.387.855.181.406.469.814.629 1.201-.019.284.265.448.367.691.145.408.408.775.513 1.144.347.345.507.832.731 1.22.449.67.731 1.323 1.121 2.017.038.223.22.364.304.549.244.551.532 1.101.836 1.628.061.287-.203.491-.286.734-.141.347-.366.672-.488 1.062-.224.404-.958 1.505-.895 1.788-.143.246-.776 1.65-1.118 2.039-.042.282-.205.408-.25.713-.021.264-.445 1.1-.485 1.346-.164.078-.328.221-.51.159-.124-.036-.369-.59-.429-.772-.365-.021-.06-.715-.528-.488-.08.061-.08.348-.125.488-.404-.062-.282.387-.444.59-.124.165-.306.549-.634.632-.144.019-.222-.042-.325-.121.144-.364-.245-.53-.141-.856-.391-.164-.31-1.24-.407-1.463-.266-.369-.693-1.998-.816-2.162-.04.082-.712-2.77-.917-4.092-.103-.572-.243-1.142-.186-1.714-.057-.364-.14-.793-.057-1.159-.103-.183 0-.408-.166-.588-.082 0-.161 0-.202.079.102.326-.306.408-.448.509-.611.022-.326-.752-.57-1.039.204-.285-.163-.427.042-.711-.205-.691 0-1.509-.205-2.263-.163-.058-.042-.267-.124-.407-.101-.224-.182-.447-.386-.611-.326.266-.386.634-.51.961-.265.384-.08.975-.548 1.281-.102.143-.325.162-.469.082-.672-.815-.916-1.955-.916-2.934.1-.266-.042-.65.123-.959.14-1.262.506-2.4.998-3.563-.061-.489.447-.709.081-1.141-.449-.063-.51.432-.915.53-.144-.062-.432.062-.47-.162.201-1.245.47-2.405 1.02-3.462.036-.287.079-.593.304-.796-.02-.224.345-.325.181-.59-.244-.104-.467-.386-.548-.528.224-.145.367-.387.631-.369.569.162.326.775.569 1.182" fill="#e56b1f"/><path d="m5.96 44.396c.062.245-.223.326-.283.531-.367.59-.634 1.261-.999 1.892-.041.468-.385.55-.551.979-.285.162-.406.529-.774.449-.143-.127.061-.287 0-.449.285-1.469 1.284-2.586 2.487-3.463.018.041.08.022.12.061" fill="#e56b1f"/><path d="m87.057 45.477c0 .102-.061.141-.124.181h-.06c-.185-.323-.529-.63-.57-1.016.082-.062.161-.08.263-.08.308.201.471.589.491.915" fill="#e56b1f"/><path d="m83.126 45.294c.102.465-.039.996-.162 1.403-.304.306-.835.142-1.183.042-.202-.123-.202-.324-.262-.528-.062-.247.281-.284.119-.488-.02-.104-.083-.204 0-.327.123-.307.512-.408.834-.468.265.017.533.099.654.366" fill="#e56b1f"/><path d="m62.838 49.508v.141c-.323.063-.609-.098-.89-.141-1.51-.205-3.402.082-4.117-1.465-.102-.756-.263-1.671.266-2.262.449-.407.935.041 1.386.12 1.588.837 2.017 2.65 3.355 3.607" fill="#e56b1f"/><path d="m51.313 46.943c.228.162.469.365.554.609-.226-.041-.534-.285-.774-.084-.285.084-.511.307-.755.393-.164.1-.307.242-.506.223.241-.365.894-.365.995-.895-.283-.432-.815-.043-1.117-.164.038-.164.264-.043.363-.186.288-.204.288-.426.323-.712.288.226.573.611.917.816" fill="#231f20"/><path d="m43.533 46.981c0 .267.063.633-.14.854-.202.125-.348-.142-.444-.241-.127-.263-.389-.49-.367-.837.302-.18.83-.202.951.224" fill="#231f20"/><path d="m38.995 47.01c.27.035.507.154.652.459-.122.412.527.531.59.858-2.098.896-4.378 1.159-6.416 2.177-1.1.553-2.385.98-3.584 1.244-.489.04-.427-.468-.633-.755-.427-.833-.67-1.812-.752-2.709-.123-.241 9.812-1.321 10.143-1.274" fill="#e56b1f"/><path d="m85.916 47.469c.085.555.31 1.123.367 1.614.043.161-.162.119-.204.22-.224.063-.527.021-.632-.22-.08-.226-.12-.614-.345-.836-.041-.187.16-.471-.022-.612 0-.186-.019-.326.226-.367.245-.02.428.063.61.201" fill="#e56b1f"/><path d="m83.067 47.553c.284.489.284 1.201.448 1.75-.186.328-.696.248-1.021.227l-1.202-.446c-.101-.491.061-1.06.24-1.508.39-.431 1.087-.245 1.535-.023" fill="#e56b1f"/><path d="m25.779 48.121c.365.406.283 1 .365 1.526-.042 1.022.406 2.039.589 3.117l-.079.166c-1.65 1.058-3.339 1.892-5.094 2.767-.082.021-.142 0-.181-.058.284-.877 1.281-1.651 1.037-2.649-.284-.283-.509-.55-.874-.729.203-.412.387-.818.549-1.245 0-.448.242-.855.264-1.264.162-.65.471-1.362 1.079-1.711.448-.285 1.019.063 1.426-.225.308.102.673.065.919.305" fill="#e56b1f"/><path d="m41.598 49.57c.126.346-.242.506-.443.629-2.282 1.225-4.522 2.303-6.784 3.402-.671.305-1.323.674-1.975.997-.632.183-.999-.385-1.304-.774-.205-.08-.325-.324-.285-.567v-.084c.429-.386 1.04-.427 1.488-.813 1.304-.49 2.42-1.08 3.743-1.466.674-.206 1.345-.469 2.081-.612.306-.162.672-.182 1.018-.265.653-.264 1.362-.368 2.038-.591.162-.018.324.021.423.144" fill="#e56b1f"/><path d="m62.229 50.568c1.387.549 3.018 1.119 4.464.649.104-.019.138.081.183.163-.079.104-.045.285.104.285.343.143.73.122 1.075.309-.101.322-.424.567-.671.832-.426.346-.976.51-1.488.693-.099.021-.2-.02-.263-.123.042-.205.185-.366.389-.428.161.062.446.041.485-.202-.138-.349-.57-.144-.874-.162-.531.405-.49 1.669-1.348 1.28-.402-.264-.361.365-.729.349-.181.017-.43.017-.592-.104-.262-.304-.406-.711-.366-1.099.104-.327.67-.021.69-.426-.343-.573-1.134-.388-1.463-.959-.754-.916-1.936-1.121-2.77-1.69.466-.162 1.138.022 1.669.141.469.104.996.408 1.505.492" fill="#fff"/><path d="m70.175 49.936c0 .367-.43.347-.491.693-.387.365-.877.896-1.443.67-.124-.447-.451-.06-.675-.283.573-.367 1.202-.957 1.936-1.02.182-.182.467-.163.673-.06" fill="#fff"/><path d="m45.817 49.875c-.079.286 0 .59.121.855.266.365.631.733.978.976l-.064.042c-.731-.368-1.871-.346-2.194-1.344.322-.304.772-.304 1.159-.529" fill="#231f20"/><path d="m81.801 49.936c1.1.226 2.587.244 2.813 1.549.142.753.04 1.488.182 2.238l-.081.348c-.267.063-.387-.225-.634-.205-1.157-.59-1.977-1.363-3.051-2.117-.167-.204-.286-.368-.205-.611-.081-.385.084-.938.468-1.222.165-.001.364-.122.508.02" fill="#e56b1f"/><path d="m78.136 52.237c-.02.161-.224.203-.324.326-.753-.304-1.122-.938-1.896-1.183-.101 0-.26-.061-.245-.201-.015-.146.145-.123.228-.187.89.083 1.564.714 2.237 1.245" fill="#fff"/><path d="m41.886 51.424v.121c-1.873 1.832-3.992 3.053-6.05 4.584-.386.242-.731.711-1.282.547-.711-.121-1.1-.67-1.631-1.099 1.692-1.589 3.973-2.506 6.051-3.442.714-.328 1.404-.754 2.137-1.039.264.058.513.265.775.328" fill="#e56b1f"/><path d="m51.867 51.666c-.226.122-.41-.346-.57-.428-.021-.103.141-.084.202-.059.163.12.325.305.368.487" fill="#231f20"/><path d="m75.408 52.033c-.185.227-.468.245-.714.227-.037-.022-.14-.043-.061-.125.222-.123.51-.244.774-.162v.06z" fill="#fff"/><path d="m54.413 52.377c-.044.021-.085.084-.145.063-.079-.144-.327-.224-.226-.366.165.02.327.143.371.303" fill="#231f20"/><path d="m81.353 52.807c1.223.753 2.286 1.691 3.423 2.689-.062.282.228.633-.062.814-1.568-.634-3.194-1.386-4.396-2.609 0-.386-.122-.873.202-1.199.343-.08.51.305.833.305" fill="#e56b1f"/><path d="m42.519 52.99c.102.287.183.633.123.957-.349.611-.837 1.162-1.062 1.832-.386.35-.61.897-.92 1.346-.465.753-.953 1.445-1.421 2.201-.247.383-.413.955-.836 1.138-.245-.122-.548.183-.675-.162.063-.511.063-1.12 0-1.627 1.346-1.407 2.467-2.608 3.608-4.138-.023-.039-.023-.082-.062-.101h-.081c-1.446 1.203-2.67 2.386-4.074 3.622-.55-.02-1.101-.203-1.507-.689.083-.285.467-.349.595-.59 1.547-1.344 3.215-2.404 4.824-3.646.162-.062.323-.226.504-.327.23-.428.798-.162.984.184" fill="#e56b1f"/><path d="m71.05 52.807c.022.083-.083.145-.166.184-.059-.019-.159.041-.202-.039-.019-.164.144-.244.243-.268.062 0 .161.023.125.123" fill="#231f20"/><path d="m48.546 53.113c.179.182.428.427.447.632-.12.119-.244-.082-.368-.082-.486 0-.911-.266-1.239-.55.303.083.63-.205.851-.407.205.041.168.304.309.407" fill="#231f20"/><path d="m76.834 53.58c-.348.306-.714.856-1.265.713-.141-.08-.387-.185-.365-.385-.043-.225.164-.408.307-.469.117 0 .222-.227.405-.183.288.141.632.183.918.324" fill="#fff"/><path d="m74.879 53.48c.038.526.325 1.24-.061 1.688-.308.367-.897.101-1.285.144-.205-.123-.509-.203-.551-.47.511-.467 1.021-1.036 1.528-1.548.123.02.325.001.369.186" fill="#fff"/><path d="m81.008 54.559h-.022c.921.856 1.995 1.752 2.932 2.811.185.04.205.204.328.326-.08.509-.716.509-1.119.611-.325-.103-.508-.469-.756-.675-.404-.549-.936-1.036-1.426-1.526v-.082c-.525-.569-.975-.976-1.607-1.424.205-.285.426-.529.672-.813.367.22.612.507.998.772" fill="#e56b1f"/><path d="m88.16 53.928.036.02z" fill="#231f20"/><path d="m28.445 56.291c.063.322-.285.367-.447.508-1.608 1.202-3.38 2.323-5.012 3.482-.426.061-.57-.348-.833-.608.059-.328-.305-.512-.164-.836-.1-.433-.305-.899-.343-1.349 1.502-1.301 3.214-2.155 4.904-3.094.489-.287.877.223 1.223.51.284.409.529.898.672 1.387" fill="#e56b1f"/><path d="m44.351 55.029v.061c-1.325 1.342-2.627 2.787-4.034 4.01-.039-.02-.101-.02-.143-.02 0-.326.348-.568.389-.896.225-.284.286-.57.47-.898.504-.994 1.201-2.057 1.916-2.89.138-.101.322-.12.463-.041z" fill="#e56b1f"/><path d="m50.884 54.659c-.077.164-.24 0-.363-.062-.082-.062-.041-.183-.021-.263.205-.04.347.184.384.325" fill="#231f20"/><path d="m79.197 54.762c.813 1.465 2.036 2.752 3.013 4.076-.018.549-.105 1.178-.183 1.666l-.531-.058c-.976-1.672-1.772-3.483-2.709-5.177.162-.138-.038-.671.41-.507" fill="#e56b1f"/><path d="m54.249 55.535c.02.104.02.227 0 .328-.124-.041-.285-.205-.329-.347l.021-.144c.124.001.248.044.308.163" fill="#231f20"/><path d="m68.929 55.535c.061.267-.326.244-.465.449l-.165-.041c.122-.181.304-.55.63-.408" fill="#231f20"/><path d="m79.438 57.898c.145.429.312.672.409 1.1h-.019c-.756-.773-1.405-1.629-2.122-2.402.144-.267.43-.55.634-.816.525.652.755 1.366 1.098 2.118" fill="#e56b1f"/><path d="m68.688 56.736c0 .104-.063.245-.206.245-.163-.019-.428.04-.488-.142.043-.244.325-.226.224-.529.246.019.325.266.47.426" fill="#231f20"/><path d="m44.389 56.717c-.12.43-.264.876-.345 1.285-1.629 1.343-2.869 2.931-4.642 3.867h-.205c.12-.569.286-1.223.67-1.69.449-.755.921-1.16 1.593-1.729.712-.551 1.444-1.164 2.157-1.713.244-.124.57-.305.772-.02" fill="#e56b1f"/><path d="m74.531 57.247c.14.142.225.306.188.528-.288.369-.777.369-1.186.531-.143.021-.35-.02-.408-.185-.017-.427-.263-1.142.203-1.405.429.105.977.105 1.203.531" fill="#fff"/><path d="m80.436 61.035c.122.223.167.486.145.731-1.143-.692-2.258-1.976-3.239-2.973.122-.367-.611-.773-.016-1.017l.119-.492c1.201 1.003 2.627 2.226 2.991 3.751" fill="#e56b1f"/><path d="m31.051 59.895c-.589.528-1.101 1.18-1.631 1.855-.404.303-.813.73-1.323.854-.16-.226.083-.449-.02-.691.103-.471-.101-1.061-.04-1.489.02-.651-.143-1.342.122-1.973-.082-.327.265-.47.285-.794.284-.328.589.078.897.182.691.611.997 1.425 1.71 2.056" fill="#e56b1f"/><path d="m54.962 66.879c-.021-.099.038-1.953.877-2.281.138-.038.24.085.366.143.281-.123.019-.426.305-.568.446-.323 1.161-.371 1.626-.063.346.285.428.713.635 1.123.02.201.346.405.099.567-.323.246-.14.51-.244.813.06.472.406.776.631 1.185.085.225.35.404.35.69.226.063.504-.081.688-.263.105-.164.35-.389.327-.613.121-.12.182-.322.104-.468l-.12-.244c-.044.021-1.263-1.119-.938-1.974.183-.123.385-.164.552-.349.241-.405.098-1.2.748-1.323.867-.541 1.285.145 1.599 1.146.229.714 1.34 2.938 1.01 3.374 0 0 .45 1.508.551 1.531.079.121.187.549.203.795 0 0-.08 3.051.059 3.398.164.242-.053.873-.105 1.125-.065.312-.056.784-.312.989-.248.195-.921.317-1.235.364-.521.072-1.008.203-1.565.203-.562 0-1.132-.028-1.694 0-.536.029-1.095.121-1.628.066-.265-.022-.521-.074-.782-.099-.177-.019-.311-.019-.467-.062-.34-.086-.648-.17-.938-.402-.871-.696-1.115-2.096-1.217-3.133-.055-.516-.423-1.299-1.135-.887-.242.144-.488.287-.771.123-.367-.203-.307-.976-.307-.976s-.465-.838-.69-1.101c-.146-.43.609-.486.63-.49.02-.002.769.314 1.158.225.237.012.167-.036.33-.102.754-.387-.043-1.201.73-1.608l.328-.244" fill="#c03440"/><path d="m57.037 59.547c-.037.43-.182.876-.609 1.041-.182.08-.387.139-.588.08-.267-.266-.352-.63-.352-1.02.085-.225.226-.548.512-.548.365.043.835.082 1.037.447" fill="#fff"/><path d="m25.635 59.915c-.268.548-.286 1.121-.468 1.71-.266.732-.366 1.59-.673 2.258.061.125-.081.208-.163.208-.307 0-.367-.348-.59-.512-.062-.386-.346-.61-.388-.997-.103-.282-.184-.588-.328-.814.084-.205-.139-.264 0-.488.45-.816 1.388-1.364 2.264-1.631.164-.04.346.103.346.266" fill="#e56b1f"/><path d="m43.679 60.059c-.183.633-.062 1.463-.609 1.975-.474 1.058-1.508 1.486-2.322 2.219-.33.225-.758.551-1.142.732-.063-.019-.165-.019-.165-.078.165-.43.144-.834.388-1.267.063-.507.284-.896.527-1.34.677-1.06 1.572-1.978 2.652-2.607.223.098.55.12.671.366" fill="#e56b1f"/><path d="m67.994 60.016c.123.163.024.389-.084.512.022.038.084.061.065.119-.246.165-.533 0-.732.266-.145-.019-.286-.186-.308-.324-.018-.125-.077-.348.044-.448.264.08.06-.286.281-.306.245-.083.61-.063.734.181" fill="#fff"/><path d="m70.538 60.281c.327.365-.345 3.402-.647 4.094-.266.813-.632 1.609-.936 2.382l-.045.041s-.262.651-.505.938c-.266.121-.207.488-.451.629-.164.326-.532.469-.835.634-.261 0-.571-.042-.651-.308.08-.387.408-1.65.408-1.65s.082-.73.243-1.035c.103-.145.512-1.51.548-1.998.243-1.061.959-3.585.999-3.727.51-.508 1.363-.405 1.872 0" fill="#fff"/><path d="m59.747 60.262c.103.143-.104.266-.121.406-.306.201-.675.428-1.041.265-.264-.206-.57-.548-.628-.874.344-.205.814.039 1.221.081z" fill="#fff"/><path d="m66.369 60.159c-.023.06.018.122.039.163.076.02.16.206.122.305-.046.123.018.305-.161.367-.087-.02-.148 0-.208.061 0 0-.202.041-.284.082.042.224-.956-.185-.63-.49-.124-.059-.104-.2-.062-.305.286-.162.691-.061.935-.267.084.023.187-.038.249.084" fill="#fff"/><path d="m63.674 60.423c.286.041.61-.122.774.144.103.039.165.142.206.266-.104.242.1.486-.206.609-.137-.041-.97-.061-1.237-.123-.266-.039-.329-.323-.387-.547.04-.326.404-.184.563-.369.105-.001.168.102.287.02" fill="#fff"/><path d="m33.209 61.055c-.021.164-.162.142-.243.244-1.486 1.729-2.788 4.826-5.62 4.356l-.104-.12c.122-.285.122-.629.366-.854.023-.307.35-.61.513-.918.69-.914 1.787-1.69 2.687-2.484.203-.102.446-.327.609-.508.124-.104.204-.268.369-.309.488.184 1.059.184 1.423.593" fill="#e56b1f"/><path d="m47.445 60.546c-.264.896-.549 1.916-.914 2.853-.081.568-.305 1.018-.367 1.566-.121.346-.226.734-.286 1.08-.082.529-.223.896-.262 1.404-.207.305-.024.671-.25.957-.097.367-.097.756-.097 1.1-.431.143-.899.549-.938 1.081 0 .487-.082 1.077.083 1.608-.083.162.082.406.018.61.021.388.064.856.325 1.203-.077.079.043.16.062.244.288.835.548 1.709.676 2.585.139.408.122.754.185 1.223.074.426.162.855.199 1.342.102.103 0 .287 0 .41 0 .363.102.67 0 .974 0 .126.102.267 0 .37.061.265.081.65-.021.957-.118.039-.302.141-.426 0-.408-.389.286-.877-.12-1.242-.246-.571-.472-1.102-.653-1.713-.123-.08-.063-.262-.143-.364-.163-.53-.369-.978-.448-1.548-.205-.04 0-.307-.165-.389 0-.588-.382-1.08-.427-1.69-.102-.629-.243-1.22-.388-1.832.083-.16-.017-.226-.061-.386.02-.527-.384-1.018-.121-1.528-.083-.224.044-.366-.041-.549-.488 0-.448-.49-.57-.791.141-.167-.208-.248 0-.371-.08-.265-.06-.593-.121-.833.062-.693.041-1.344.183-1.956.227-1.06.55-2.138.957-3.157.081-.162.346-.101.469-.041.12.079.166.244.226.385-.105.228.038.369.017.633-.122.897.043 1.67-.242 2.548.08.141-.061.323-.061.466-.327.675-.408 1.491-.634 2.16.043.041.061.08.104.061.264-.795.342-1.854 1.223-2.139.101-.303.159-.73.366-.997.102-.634.364-1.244.53-1.874l.428-1.223c-.083-.245.2-.487.182-.795.384-.711.589-1.547 1.079-2.239.016-.103.042-.263.183-.285.078.039.241-.001.261.122" fill="#fff"/><path d="m33.724 63.133c-.208.957.057 1.914-.125 2.873l.101.793s.024.406.024.51c.032.123.008.472-.034.768-.019.116-.073 1.35-.029 1.797.063.305.14.713-.062.957-.327.143-.532-.508-.572-.551-.165-.04-.713-2.302-.975-3.299-.106-.182-.45-1.139-.411-1.404-.101-.145-.143-.345-.264-.408-.285.303-.812 1.202-.938.979-.078-.408.185-.754.473-1.059.324-.305.466-.713.875-.916.183-.264.402-.488.648-.675.365-.264.693-.61 1.164-.61z" fill="#e56b1f"/><path d="m21.806 64.252c.306.979.959 1.834 1.22 2.751-.12.324.084.508-.16.833-.326.104-.369.53-.612.755-.591.834-.997 1.873-1.63 2.709.039.14-.145.283 0 .406.225.122.184-.183.327-.244.591-1.06 1.161-2.3 2.159-3.177.243-.083.385.182.57.162.161-.041.263.387.384.041-.017-.368.288-.674.594-.854v-.123c.081.082.202-.041.267-.019l-.024-.063c.204 0 .632-.062.979-.182.183-.143.265.12.489.04.04.021 0 .08.021.122-.389.16-.773.488-.998.792-.208-.06-.023.146-.186.204-.67.428-1.079 1.242-1.568 1.794-.018.161-.101.366-.204.487-.448.672-.852 1.428-1.222 2.158-.08.408-.346.754-.446 1.141-.493.875-.449 1.791-.858 2.688-.139.225-.1.592-.407.694-.203.018-.264-.162-.303-.306-.084-.854.303-1.467-.041-2.221-.203.146-.203.61-.57.51-.364-.363-.081-.938-.243-1.467.058-.326-.246-.529-.471-.753-.264-.063-.2.287-.264.386-.039.268-.182.551-.469.676-.14.119-.449.078-.61-.063-.123-.405-.245-.897-.061-1.344-.04-.144-.122-.267.021-.39 0-.304.04-.791-.225-.935-.244.08-.103.429-.347.57.041.469-.426.754-.387 1.2-.324.227-.387 1.121-.895.776l.041-.041c.162-.612.062-1.305.387-1.896-.165-.225.263-.506-.084-.692.041-.202.534-.282.205-.549.164-.144.894-2.711 1.201-2.933 0-.125.428-.776.428-1 .409-.467.715-1.141 1.119-1.668.084-.367.411-.572.53-.916.469-.432.735-.938 1.2-1.366.676.127.939.798 1.143 1.307" fill="#fff"/><path d="m20.522 64.598c0 .713-.043 1.607-.447 2.22.122.187-.103.266-.103.471-.202.347-.102.713-.386 1.037-.04.327-.203.61-.243.938l-.062.08c-.205-.285-.349-.713-.795-.631-.224.184-.409.405-.651.532.099-.839.998-1.329 1.403-1.998.105-.125.145-.243.224-.388.024-.366.368-.674.346-1.039.146-.469.474-.895.654-1.324z" fill="#231f20"/><path d="m79.112 66.329c.265.021.265.37.533.429.184.04.161.022.325.022.06-.062.241-.104.364-.044.323.062.162.184.162.184s-.74.654-.976.674c-.244.079-.145.322-.06.508.121.224.302.469.262.732 0 0 .696 1.141.696 1.346-.145.182-.185.284-.41.224.041-.466-1.303-.859-1.524-1.158-.268-.411-.989-1.479-.959-1.897.028-.418.53-.59.53-.59.061-.082.65-.388.487-.572-.16-.285-.326-.51-.487-.793l.141-.246c.39.325.615.795.916 1.181" fill="#fff"/><path d="m49.788 67.836c.307.671-.794 1.203 0 1.708.55.979.834 2.022 1.083 3.099-.146.346.179.836 0 1.201.159.286-.087.635.074.96-.18.345-.729.261-1.054.243-.246-.143-.529-.227-.675-.489-.182-.673-.368-1.383-.368-2.118-.223-.123.085-.306-.08-.449-.058-.69-.058-1.444-.019-2.116-.025-.123-.124-.793-.061-1.101-.078-.354.151-1.311.326-1.406.308.081.59.202.774.468" fill="#fff"/><path d="m45.512 67.389c.042.061-.04.061-.063.104l-.06-.063c.041-.041.083-.041.123-.041" fill="#fff"/><path d="m76.61 68.143c.346.324.652.713.854 1.162.428.405.306 1.159.673 1.711.04.182.126.424.126.629.177.123.061.347.16.506-.205.125-.265-.139-.366-.219-.326-.451-.715-.834-1.061-1.224-.101-.305-.368-.347-.509-.653-.023-.061-.121-.08-.121-.141.082-.041.121-.184.039-.245-.078-.041-.201-.021-.284-.041.102-.019.102-.122.102-.202l-.725-.742.277-1.011c.324.044.552.348.835.47" fill="#fff"/><path d="m29.381 69.081c-.425.365-.754.856-1.101 1.261-.101.262-.283.53-.443.756-.269.547-.573 1.116-.798 1.688.083.39-.165.692-.061.999.385-.186.144-.653.285-.979.062-.184.224-.43.405-.43.368-.061.226.368.328.551-.103.204-.021.469.021.611.06-.021.162-.061.122-.163.062-.509-.043-1.021.1-1.567-.038-.287.041-.59.247-.793.263-.043.324.203.365.405.038.836.244 1.688.021 2.548.062.041.084.041.144 0 .161-.41.224-.998.712-1.102.286-.061.45.104.711.143.227.732.997 1.159 1.141 1.873l-.244.447c.552.04.999-.164 1.51-.02.121.187-.082.467-.082.631-.184.51.037 1.427-.756 1.508 0 .508-.182.918-.327 1.404-.078.104-.221.123-.345.063-.082-.673-.021-1.303-.284-1.954-.084.039-.14.181-.14.304-.084.143-.226.308-.39.371-.244.037-.45-.045-.571-.229.121-.407.553-.633.571-1.102-.04-.182.059-.426 0-.59.102-.387-.06-.813.059-1.238-.039-.022-.059-.105-.118-.084-.185.387-.409.795-.49 1.162-.121.895-.368 1.893-.064 2.828-.119.266 0 .428-.057.693.038.652-.083 1.385-.47 1.996-.142.572.104 1.263-.365 1.673-.267.037-.244-.248-.325-.41-.247-1.487.199-2.971-.309-4.317-.202-.224-.181-.67-.487-.713-.304.59.202 1.791-.837 1.791-.22-.141-.385-.488-.669-.506-.145.202-.327.324-.51.486-.328.063-.469-.284-.574-.469-.138-.426-.038-.956-.077-1.403.101-.431-.043-.937-.167-1.407-.058-.039-.183-.142-.201 0 .284 1 .143 2.262.324 3.237-.506.408-.506-.47-.935-.549-.04.264.203.47.164.754.062.144.305-.038.282.161-.282.084-.077.348-.077.492.12.304.077.795.12 1.08-.263.263-.469-.164-.674-.226-.528-.632-.385-1.426-.733-2.121.124-.547-.243-.991-.142-1.505-.204-.652-.262-1.527-.058-2.261.566-1.241 1.892-1.793 2.584-2.953.063-.062.022-.142-.037-.203-1.021 1.08-1.838 1.792-2.732 2.972-.204.064-.305.387-.567.266.059-.266-.047-.445.098-.69-.161-.104.082-.084.04-.184.104-.735.429-1.609.938-2.261.205-.082.286-.287.286-.488.261-.083.346-.551.508-.652.103-.265.569-.245.552-.632.304-.367.527-.653.893-.955.165-.042.408-.042.471.099 0 .164.163.224.244.326.063 0 .101.038.142.063-.062.181-.245.161-.386.181-.143-.02-.242-.04-.367.04l-.082.063c.634.569 1.123-.51 1.772-.549.081-.041.12.099.182.142.673-.165 1.265-.511 1.836-.854.282.142-.087.306-.126.491" fill="#fff"/><path d="m74.386 71.021c.157.354.289.72.391 1.112.019.183-.224.222-.346.161-.162 0-.102-.161-.141-.263-.139-.142-.243-.308-.334-.49.315-.359.096-.04.43-.52" fill="#fff"/><path d="m27.222 70.443c-.123.225-.469.326-.549.611-.104.042-.185.123-.306.123v-.081l.69-.694c.066.021.165-.041.165.041" fill="#231f20"/><path d="m25.635 70.546c-.084.082-.161.224-.286.304-.06-.123.104-.263.161-.386.041.02.084.02.125.082" fill="#231f20"/><path d="m54.192 72.1c.108 1.553.19 3.029.387 4.609 0 0-.101.697-.434.819-.629.173-1.228-.135-1.711-.544-.226-.453-.32-.874-.37-1.382-.269-1.379.424-2.724 1.518-3.458.227-.101.391-.212.61-.044" fill="#fff"/><path d="m35.836 72.785c-.078.408 0 .895-.346 1.24-.162.836-.649 1.651-.693 2.549-.512.672-.512 1.547-.895 2.261.061.264-.203.425-.122.671h-.021c.021.083 0 .244-.143.225-.243-.287-.283-.613-.631-.835.714-1.021-.101-2.096.122-3.073.285-.879 1.018-1.551 1.467-2.324.163-.02.163-.223.267-.348.281-.201.244-.875.731-.668z" fill="#fff"/><path d="m66.7 71.994c.147.398.352.637.427 1.02.081.725.355 1.4.047 2.053-.216.605-.216 1.416-.904 1.803-.574.139-1.37.408-1.808-.049-.545-.64.075-1.389.272-2.049.29-.969.556-1.969.912-2.936.049-.123-.001-.342.198-.383.342-.066.675.235.856.541" fill="#fff"/><path d="m25.757 73.518v.021h-.063c0-.079-.06-.222.084-.284.019.061.042.204-.021.263" fill="#231f20"/><g fill="#fff"><path d="m72.758 73.986c.104.305.327.57.367.896l.105.123c.182.551.263 1.159.428 1.668-.024.205-.207.289-.368.369-.288.021-.532 0-.754-.244-.674-.939-.345-2.224-.487-3.281.387-.263.488.307.709.469"/><path d="m76.426 73.724c.184.285.489.63.448.976-.086.123-.227.244-.364.185-.43-.308-.471-.859-.39-1.345.084-.061.367-.023.306.184"/><path d="m37.69 74.21c.065.409.082.815.204 1.203-.063.426.102.894.122 1.362-.122.367.064.979-.348 1.226-.239.06-.182-.205-.263-.327-.247-1.142.146-2.507-.528-3.525.122-.181.693-.245.813.061"/><path d="m56.62 76.886c-.06.284-.159.692-.504.753-.309.124-.57.124-.836-.02-.268-.246-.284-.693-.201-1.018.099-.186.241-.308.444-.347.472.019.734.404 1.097.632"/><path d="m58.224 76.967c-.118.244.087.592-.258.715-.267.037-.55.02-.755-.123-.146-.166-.285-.307-.285-.551.139-.307.446-.307.753-.387.225.02.448.16.545.346"/><path d="m41.417 78.629c.326.205.164.674.429.899.061.567.283 1.524-.284 1.788-.145.083-.367.064-.529.023-.285-.365-.163-.754-.41-1.119-.023-.409-.144-.836-.06-1.243-.084-.267-.084-.61 0-.856-.102-.185.036-.285 0-.447.06-.101.226-.101.307-.021.178.304.443.63.547.976"/><path d="m22.296 78.001.037.162z"/><path d="m62.456 79.75c.263.122-.021.305-.042.471-.407.26-1.076.201-1.587.141-.428-.244-.896-.285-1.246-.674-.06.021-.139-.018-.161.063.102.1.083.268.125.391-.428.689-1.408.26-2.059.404-.081-.04-.203 0-.224-.123.021-.224-.39-.367-.246-.633 1.466-1.627 3.708-.244 5.44-.04"/><path d="m25.29 79.609c.078.224-.229.16-.327.141l-.038-.061c.058-.123.26-.225.365-.08"/><path d="m26.917 80.117c.227.164.104.469.104.693-.122.119-.226.365-.451.264-.221-.183-.161-.69-.201-.998.04-.123-.02-.307.04-.428.386-.263.405.264.508.469"/><path d="m37.018 80.117c.103.389.227.732.063 1.039-.082.203-.322.121-.448.121-.324-.428-.104-.916-.243-1.324.018-.058 0-.164.08-.184.226-.019.408.184.548.348"/><path d="m67.91 81.93c-.2.043-.488-.082-.649.021.431.549.633 1.304.529 1.935-.04.082-.202.185-.099.264-.104.226-.104.512-.347.633-.266.671-.753 1.305-.9 2.014-.058.469-.689.266-.791.735-.593.345-.96.978-1.61 1.323-1.059.51-2.241 1.117-3.422 1.469-.652 0-1.201.243-1.815.363-.974-.161-1.849.267-2.783.041-1.105.226-2.282-.021-3.383.019-.895 0-1.569-.587-2.382-.423-.145-.126-.386-.044-.51-.225-.205-.489-.037-1.021-.124-1.529.208-.245-.061-.508.102-.774.063-.979.306-1.77.553-2.665.06-.104.286-.248.102-.369-.349.226-.713.226-1.018 0-.409.592-.898.998-1.321 1.527-.249.145-.432.45-.755.286-.41-.671.078-1.406.342-2.038-.202-.161-.509.125-.731-.042-.348-.119-.242-.526-.531-.71-.036-.123-.122-.307-.019-.426.104-.287.429-.307.633-.49.795-.247 1.71-.551 2.505-.368 1.446.021 3.01.47 4.541.121.303 0 .547-.039.815.183.101.287.183.614.198.879-.404.143-.996.121-1.38.326-.061.123.099.184.16.241.55.041.815.472 1.163.818.204.304.427.69.793.854.081-.078-.021-.143-.039-.184-.672-.734-.55-1.914-.103-2.71.161-.142.243-.347.344-.529.716-.223 1.593-.468 2.243.021.021.227-.286.143-.286.348-.29.305-.732.366-.999.672 0 .121-.04.264.021.346.368.166.688-.266 1.077-.326.187-.101.392.123.53-.043.062-.57-.305-1.178.327-1.463 1.24-.205 2.811-.304 4.054-.389.322-.183.694-.122 1.08-.219 1.3-.21 4.012.36 3.885.483"/><path d="m25.474 80.607c.12.346.161.752.548.875.063.041.04.101.04.164-.243.078-.49.244-.733.018-.224-.323-.123-.814-.468-1.078-.019-.123.064-.186.163-.225.243-.043.325.082.45.246"/></g><path d="m64.186 81.891c.04.262-.304.082-.387.161-.266.101-.548.426-.712.733.06.223-.165.325-.124.529-.081.121-.125.285-.161.426-.163-.162-.084-.529-.205-.752.305-.144.59-.468.714-.793.164-.082.305-.285.511-.367.121.02.283-.041.364.063" fill="#231f20"/><path d="m60.948 82.803c-.206.369-.609.084-.854.33l-.186.019c0-.144-.02-.308.021-.449.29-.142.813-.142 1.019.1" fill="#231f20"/><path d="m52.66 85.128c.1.039.161-.041.267-.062.262.324.017.691-.084.996-.226.023-.264.348-.448.226-.125-.283-.449-.55-.692-.653.064-.183.165-.201.206-.404.161-.08-.126-.267.037-.412.185.145.448.247.714.309" fill="#231f20"/><path d="m49.748 86.553c-.185.285-.166.693-.473.915-.22.308-.61.55-.992.612-.166 0-.431-.142-.242-.323.138-.556.196-1.324.934-1.45.287-.036.588.019.773.246" fill="#fff"/><path d="m64.754 87.836c-.063.183-.18 0-.264 0-.404.103-.608.449-.853.711-.9-.262-1.45.513-2.242.513v-.062c.45-.246.919-.369 1.223-.797.326-.164.814-.141 1.157-.386.267-.121.329-.448.509-.633 0-.243-.099-.485-.137-.69.385.364.325.915.607 1.344" fill="#231f20"/><path d="m59.177 88.915c.016.226.222.328.386.426.08 0 .206-.098.227.042-.146.184-.105.448-.37.571-.203-.123-.469-.062-.648-.183.203-.267.079-.612.18-.896-.042-.49.288-.918.104-1.407.488.326.121.917.121 1.447" fill="#231f20"/><path d="m51.927 88.244c.566.407 1.202 1.364 2.115 1.016.285.044.51-.143.698-.324.176.1.117.428.138.609 0 .305-.062.714-.344.856-.267-.038-.181-.43-.433-.53-.06-.201-.261-.285-.424-.408-.369-.159-.49.266-.771.266 0-.243-.247-.305-.389-.365-.162.061-.328.082-.49.061-.346-.18-.346-.672-.695-.916.062-.224.37-.327.595-.265" fill="#231f20"/><path d="m57.547 89.158c-.063.244-.099.635-.143.918-.448-.246-.999.021-1.428.141 0-.059-.041-.184.085-.225v-.264c.448-.183 1.015-.183 1.387-.57z" fill="#231f20"/><path d="m59.889 1.486c1.264.326 2.524.692 3.707 1.142" fill="#231f20"/><path d="m42.166 25.322c.368.293.739.607 1.088.914.675.338 1.063 1.136 1.489 1.647.042.092.06.202.005.272-.221-.51-.813-.577-1.123-.96-1.004.008-.859-1.298-1.481-1.791z" fill="#231f20"/><path d="m52.722 59.262c-.428.239-.273.742-.482 1.168.062.193-.111.392-.053.605-.15.746-.229 1.557-.162 2.311-.016.856.08 1.729.119 2.558l.026.052s.219 1.578.401 1.792c.051.362.354.613.587.866.252.086.554.146.715-.079.046-.396.159-1.538.147-1.692.102.014.015-.748.102-1.062-.052-.17.002-1.593.122-2.067.111-1.082.189-2.216.217-3.367.153-.139.024-.336.031-.483-.316-.645-1.158-.826-1.77-.602" fill="#fff"/><path d="m58.643 76.935c.128.246-.079.59.266.714.269.042.554.02.758-.124.138-.159.282-.305.282-.548-.145-.309-.446-.309-.756-.389-.219.02-.443.166-.55.347" fill="#fff"/><path d="m60.376 76.935c.118.246-.087.59.265.714.263.042.549.02.752-.124.142-.159.283-.305.283-.548-.142-.309-.448-.309-.751-.389-.225.02-.449.166-.549.347" fill="#fff"/><path d="m62.193 76.711c.059.287.159.691.511.753.303.122.572.122.835-.022.261-.242.286-.688.201-1.018-.102-.182-.245-.304-.45-.344-.465.019-.729.408-1.097.631" fill="#fff"/><path d="m61.487 60.364c-.287.041-.609-.124-.771.144-.105.039-.164.144-.203.264.098.244-.103.488.203.611.141-.041.965-.063 1.24-.123.267-.039.329-.328.389-.551-.04-.324-.407-.181-.573-.367-.1 0-.164.106-.285.022" fill="#fff"/><path d="m77.363 59.752c-.057.066-.21.04-.291.035-.001-.005 0-.008.005-.012-.224.004-.421-.047-.543.164-.099.164-.113.373-.129.562-.019.417-.116.817-.198 1.213-.047.199-.056.288.114.431-.05.1.287.4.354.496.137.189.234.4.344.598.099.183.243.244.368.396.046.062.148.229.241.103.038-.051.006-.276.002-.346-.005-.139-.108-.455-.014-.57.165.158.267.378.447.529.184.156.386.271.583.398.361.234.625.584.971.826.135.095.321.292.489.268.083-.396-.103-.768-.162-1.156-.062-.39-.125-.791-.288-1.158-.16-.365-.302-.696-.521-1.031-.212-.323-.413-.637-.636-.941-.135-.185-.312-.365-.488-.508-.157-.128-.45-.296-.648-.297" fill="#e56b1f"/><path d="m75.311 69.989c-.151.048-.21-.017-.296-.075-.024-.021-.293.635-.26.715.184.373.368.733.446.809.286.439.882 1.74.882 1.74s.168-.142.168-.164c.235-.318-.365-2.482-.697-2.887-.094-.201-.23-.154-.23-.154.189.016-.05-.032-.013.016" fill="#fff"/><path d="m31.602 37.66c.558.392 1.09.731 1.705 1.053.563.299 2.568 1.822 3.102 2.139 1.029.607 2.424 1.309 3.181 2.284.67.863-.496.895-1.165.895-.869 0-5.276-1.129-6.777-1.406-.541-.103-1.919-.218-2.205-.683-.313-.507-.113-1.596.098-2.088.209-.493.81-1.376.827-1.431-.243-.302-.967-1.429-.824-1.603.098-.127.24-.231.43-.187" fill="#e56b1f"/><path d="m39.121 45.477c-.165-.23-.567-.228-.845-.341-.314-.126-8.62-1.871-8.879-1.569-.185.217-.297.496-.469.729-.235.321-.6 1.524-.283 1.883.292.333 1.71.212 2.172.233.949.038 1.913 0 2.861 0 1.024 0 2.022-.039 3.052-.081.46-.017.934-.035 1.405-.076.636-.056.662-.383 1.031-.701" fill="#e56b1f"/><path d="m41.229 22.806c.485.312 1.042.519 1.573.729 1.114.413 2.305.837 3.123 1.772.633-.006 1.209.384 1.761.753l.729.68c.04.179.273.258.31.436.204.162.411.531.651.526.374-.349-.133-.662-.087-1.056-.006-.428-.225-.713-.255-1.179-.124-.398-.11-.83-.372-1.191-.073-.464-.35-.761-.536-1.149-.323-.355-.803-.633-1.222-.894-.316.094-.39.39-.683.523-1.089.507-2.242.099-3.302-.238-.542-.105-1.259-.129-1.69.288" fill="#231f20"/><path d="m75.38 21.68c-.393.342-.857.599-1.31.853-.936.51-1.945 1.04-2.554 1.98-.563.076-1.023.495-1.468.895l-.566.7c-.011.163-.209.265-.221.43-.157.17-.296.524-.511.55-.376-.266.034-.606-.055-.952-.049-.382.104-.664.071-1.084.059-.369-.007-.754.186-1.106.001-.424.209-.725.324-1.094.241-.357.636-.668.975-.953.294.044.396.297.673.38 1.038.312 2.013-.201 2.912-.638.469-.163 1.113-.277 1.544.039" fill="#231f20"/><path d="m82.588 63.473c.438-.609.727-1.154.941-1.863.187-.626.126-1.358.418-1.926.5.373.627 1.83.777 2.461.2.851.091 1.764.347 2.543-.062.046-.14.087-.204.117-.139-.437-.811-.858-1.198-1.02-.265.19-.716-.289-1.081-.312" fill="#e56b1f"/><path d="m81.617 64.107c.536.217.695 1.525.906 2.018.153.359.638 2.004.1 2.197-.454-.715-1.134-1.284-1.547-2.024-.483-.877.108-1.397.541-2.006" fill="#e56b1f"/><path d="m36.758 13.513c-.147.426-.352.794-.49 1.201-.494 1.262-.838 2.628-1.121 3.93-.083.307-.246.571-.246.896-.14.45-.307.816-.448 1.241.084.329-.243.531-.204.837-.184.344-.405.732-.511 1.142-.345.567-.631 1.179-1.138 1.67-.044.1.061.162.123.182.731.041 1.12-.572 1.627-.896.632-.673 1.204-1.326 1.55-2.18.163-.102.182-.367.346-.51.387-1.036 1.122-1.872 1.386-2.992.263-.223.305-.59.449-.898.648-1.484 1.772-2.91 3.172-3.747 1.469-.427 3.548-.832 5.076-.12l.201-.021c-.041-.306-.425-.347-.674-.487-1.24-.571-2.544-.999-4.033-.878-1.484-.021-2.906.407-4.191 1.059-.309.185-.633.408-.874.571" fill="#e56b1f"/></svg>