<svg enable-background="new 0 0 49.611 34.137" height="260.768096" viewBox="0 0 49.611 34.137" width="383.482494" xmlns="http://www.w3.org/2000/svg"><path d="m0 0h49.61v34.137h-49.61z" fill="none"/><path d="m41.482 6.268-36.173-6.268-4.893 3.339 2.935 4.722-3.351 3.668 4.047 4.565-3.005 3.104 3.727 4.613h-.273l-2.276 3.292 4.457 6.834h29.785c5.247-.006 9.604-4.6 9.61-9.831.009-2.823-.607-5.113-2.715-6.91 4.793-1.257 6.273-5.467 6.25-10.663l.004-.465" fill="#fff"/><path d="m42.648 16.963-.634.13.519.387c2.32 1.745 2.949 3.869 2.959 6.827 0 2.453-1.028 4.771-2.676 6.469-1.648 1.702-3.903 2.782-6.354 2.782h-29.472l-4.072-6.244 1.882-2.72h1.182l-4.167-5.161 3.02-3.121-4.057-4.578 3.295-3.606-2.873-4.624 4.241-2.893 35.992 6.236h7.596c-.043 5.287-1.502 9.117-6.381 10.116" fill="#013a81"/><path d="m43.068 25.415c0 2.861-3.383 5.856-6.662 5.856 0 0-16.236 0-17.169 0-.938 0-2.39-.436-2.078-1.892.31-1.453.516-2.237.726-2.965.206-.726.414-1 1.352-1 .932.001 23.831.001 23.831.001" fill="#c41230"/><g fill="#fff"><path d="m30.816 7.48c-4.813 0-8.716 3.909-8.717 8.714.001 4.815 3.903 8.719 8.717 8.719h12.463v-.83h-12.463c-4.354-.01-7.88-3.533-7.886-7.889.006-4.346 3.532-7.875 7.886-7.883h16.609c-.051 1.618-.416 3.413-1.446 4.814-1.12 1.518-3.003 2.645-6.337 2.652h-6.751v.831h3.376c4.207.036 7.598 3.449 7.605 7.662-.008 4.23-3.428 7.656-7.658 7.663-7.794 0-28.976 0-28.976 0v.833c.01-.002 28.976-.002 28.976-.002 4.691 0 8.49-3.806 8.49-8.494 0-3.386-1.984-6.301-4.851-7.665 3.394-.045 5.552-1.278 6.796-2.989 1.271-1.742 1.61-3.902 1.612-5.721v-.415"/><path d="m21.029 15.5c.185-3.03 2.01-5.929 4.415-7.482h-20.017l-3.404 3.665 3.328 3.817"/><path d="m25.279 24.023c-2.454-1.496-4.004-4.124-4.26-7.147h-15.366l-2.492 2.541 3.79 4.606"/><path d="m35.503 6.801h-31.048l-1.886-3.114 3.146-2.211"/><path d="m17.244 25.39h-11.852l-1.294 1.869 2.906 4.153h8.688"/></g><path d="m9.217 2.717-3.112-.518-2.392 1.452 1.35 2.389h2.651l-.989-1.874" fill="#c41230"/><path d="m10.41 2.925 1.871.308-1.916 1.455.461 1.352h-2.129l-.889-1.769" fill="#013a81"/><path d="m13.475 3.445.884.105-2.006 1.503.295.987h-1.046l-.297-1.158" fill="#c41230"/><path d="m9.092 8.781h-2.987l-2.853 2.908 2.641 3.118h2.936l-2.492-2.997" fill="#c41230"/><path d="m10.284 8.781h3.323l-2.645 2.973 2.28 3.053h-3.114l-2.545-2.997" fill="#013a81"/><path d="m15.01 8.781h.886l-2.965 3.079 2.389 2.947h-.885l-2.386-2.947" fill="#c41230"/><path d="m9.859 17.598h-3.632l-1.768 1.977 2.96 3.682h3.065l-2.645-3.322" fill="#c41230"/><path d="m10.794 17.648h3.531l-2.334 2.287 2.539 3.322h-3.114l-2.693-3.429" fill="#013a81"/><path d="m15.212 17.648h.882l-2.135 2.554 2.34 3.055h-.883l-2.334-3.115" fill="#c41230"/><path d="m8.817 26.065h-2.854l-.933 1.354 2.33 3.368h2.545l-2.078-3.063" fill="#c41230"/><path d="m9.543 26.116h2.753l-1.086 1.714 2.125 2.957h-2.654l-2.123-3.063" fill="#013a81"/><path d="m13.437 26.116h.888l-1.198 1.817 2.127 2.854h-1.039l-1.919-2.854" fill="#c41230"/><path d="m30.918 23.374c-4.017 0-7.269-3.159-7.269-7.179 0-4.015 3.252-7.269 7.269-7.269h15.788c0 3.282-2.662 5.939-5.94 5.939h-8.603l-.52 2.415h4.572c3.626 0 6.424 2.601 6.97 6.093" fill="#c41230"/></svg>