<svg version="1.1" id="Layer_1" xmlns="http://www.w3.org/2000/svg" x="0" y="0" viewBox="0 0 397.7 291.5" style="enable-background:new 0 0 397.7 291.5" xml:space="preserve"><style>.st1,.st2,.st3,.st4,.st5,.st7,.st8{fill-rule:evenodd;clip-rule:evenodd;fill:#081e3f}.st2,.st3,.st4,.st5,.st7,.st8{fill:#fcb519}.st3,.st4,.st5,.st7,.st8{fill:#fff}.st4,.st5,.st7,.st8{fill:#78bae6}.st5,.st7,.st8{fill:#201f1e}.st7,.st8{fill:#11100f}.st8{fill:#080806}</style><path d="m228.1 291.2 6.6-.9a80.6 80.6 0 0 0 55.1-35.7 83.6 83.6 0 0 0 13.3-61.8 78.7 78.7 0 0 0-17.9-38.1c-.5-.6-1.3-1.2-1.1-1.9.1-.3 1.1-.5 1.8-.6l35.8-6.3c11.5-2.1 23.2-3.8 34.5-6.9a78 78 0 0 0 41.6-28c-10.6-3.5-20.9-7.5-31.8-9.7a60.2 60.2 0 0 0-26.7-.2c-21.1 5.1-42 10.9-63 16.4l-23.5 6.1h-.4l.2-.3 4.1-5.5c7.8-10.4 14-21.7 20.3-33 1.9-3.4 4-6.6 5.5-10.2-1.1-.2-2 .3-2.9.6-6.6 1.8-13 4.3-19.7 5.6-3.1.6-3.1.6-2.9-2.5.2-2.9.2-2.9 3-3.7l.4-.1c12.7-3.5 25.5-6.5 38.3-9.8.5-.1 1.1-.1 1.3-.5.4-1.4.2-2.8.1-4.1-.1-.9-1.1-.8-1.8-1a184.4 184.4 0 0 0-35.3-8.9c-.8-.1-1.4-.3-1.6-1.3a39.8 39.8 0 0 0-9.8-19.5c-.7-.8-.8-1.4-.2-2.3l8.1-12.3c1.4-2.1.9-4.3-1.4-5.5a88.4 88.4 0 0 0-22.3-7.9l-4.9-.7c-.9-.1-1.8-.3-2.8-.3-1.7 0-2.5-.2-2.6-.2l-1-.1-2.4-.1h-2.9c-1.2.3-1.3.1-2.5.3l-2.4.2c-1.8.4-3.8.5-5.6.9a51.2 51.2 0 0 0-41.6 44.4c-.5 4.4-1.1 8.8-2.8 12.9a4.2 4.2 0 0 1-3.2 2.8c-8 2.1-16.1 4.1-23.6 7.6-.7.3-1.3.2-1.9 0a73.7 73.7 0 0 0-25.6-3.4 90.4 90.4 0 0 0-38.2 9.7 4.8 4.8 0 0 0-2.6 3c-.4 1.8-1.6 2.7-3.4 3.1-1.9.4-3.7.2-5.6.2a39 39 0 0 0-24.5 8.7c-2.9 2.3-5.5 5.1-8.5 7.4-3.9 3.1-8.7 4.4-13.1 6.5-6.5 3-11.2 7.5-13 14.7-.2.9-.1 2-1 2.8v5.8c.6.5.6 1.2.8 1.8.6 1.9 1.4 3.8 2.9 5.2a18 18 0 0 1 4.3 6.6l1.3 2.6c5.7 11.1 13.6 19.5 26.5 21.9 6.3 1.2 12.6 2.5 19 .5 2.4-.8 4.9 0 7.7.2a62.8 62.8 0 0 1-19 18l3.3.5c3.5.5 7.1.8 10.4 2.5 3.8 1.9 7.5 4.2 11.5 5.8.7.3.7.9.9 1.5 2.1 5.4 5.7 9.5 10.8 12.3 5.6 3 11.2 2.5 15.3-1.4 1.1-1 1.8-.9 2.9-.2a282 282 0 0 1 28.7 20.6 94.7 94.7 0 0 1 23.4 27c3.9 7 9.3 12.9 15.3 18a84 84 0 0 0 43.8 19.5c1.5.2 3.2.1 4.7.5l2.3.3 4.3.2h.5l4.8-.3h.8m124-154c-11.5 2.7-23.2 4.4-34.8 6.5l-37.2 6.6-1.6.4c2.4 2.7 4.8 5.2 6.9 8a75 75 0 0 1 16.4 43.5 80.5 80.5 0 0 1-27.1 66.1 73.5 73.5 0 0 1-41.8 19.2 80.9 80.9 0 0 1-70.7-24.8 52.3 52.3 0 0 1-8.5-11.3 103.7 103.7 0 0 0-27.4-30.5 316.6 316.6 0 0 0-27.9-19.5c-1.2-.7-1.8-.9-2.8.3-4.2 4.8-10.5 5.1-16.2.9-3.6-2.6-6-6.1-7-10.5-.1-.6-.2-1.1-.9-1.4-4-1.3-7.5-3.6-11.2-5.5-2.5-1.2-5-2.2-8.1-2.9A67.8 67.8 0 0 0 66.8 165c.8-1.2.5-1.6-.9-1.7l-7.3-.4c-1.5 0-3.1-.3-4.5.2a29.2 29.2 0 0 1-15.8.1 32.3 32.3 0 0 1-17-7.7 43.7 43.7 0 0 1-8.5-11.2c-.9-1.7-1.9-3.4-2.6-5.2-1-2.4-2.3-4.5-4.2-6.4-3.2-3.1-3.4-7.1-2.6-11.2a18.6 18.6 0 0 1 11.4-14.3l9.3-4.1c4.7-2 8-5.8 11.7-9.1 7-6.2 15.2-9.3 24.6-9.4 2.1 0 4.1.1 6.2-.4 2.6-.6 4.4-2.1 5.1-4.6a3 3 0 0 1 1.8-2c14.2-7 29.1-10 44.9-9 6.6.4 13 2 19.3 4.1l.2-.2c-.1-1.1.9-1 1.5-1.3 6.7-3 13.8-5 20.9-6.6 4.2-.9 6.2-3.2 7.3-7 1.3-4.4 1.8-8.9 2.6-13.4a46.1 46.1 0 0 1 30.3-37.6 64.4 64.4 0 0 1 47.1.9c2.8 1 5.6 2.4 8.3 3.6 1.3.6 1.4 1 .6 2.2l-8.9 13.5c-.7 1-.6 1.6.2 2.5 5.7 6.1 9.8 13 10.8 21.4.2 1.3.8 1.6 1.8 1.7a167 167 0 0 1 31.1 7.2l5 1.7.5.4-10.8 2.7c-10.2 2.6-20.3 5-30.4 7.9-1.6.5-2.3 1.2-2.1 2.9.1 1.1.3 2.3-1.1 3-.4.2-.3.5 0 .9 1 1 1.3 2.3 1.5 3.6.2 1.1.7 1.5 1.8 1.3 5.5-.6 10.6-2.2 15.9-3.8l4.2-1.3c.3.4.1.7 0 .9-7 12.7-13.9 25.4-22.7 37-2.4 3.1-4.9 6-7.5 8.9-.5.6-1 1-1.9.9-.6 0-1.5-.3-1.2.9.2.8.6 1.2 1.5.9l13.7-3.6c26.8-7 53.4-14.3 80.3-21a64.2 64.2 0 0 1 32 1c7 1.8 13.8 4.2 20.6 6.5 1.9.6 1.9.6.5 2.1a73 73 0 0 1-40 23.8z" style="fill:#fcb519"/><path class="st1" d="m310.9 158.7-1.8 4.6c-.1.4-.1.9-.7.9-.5 0-.7-.4-.9-.8-.6-1.7-1.3-3.3-2.3-4.9v4.5c0 .6.1 1.2-.9 1.2-.9 0-.7-.6-.7-1.1v-5.8c0-.5-.3-1.2.6-1.2.8 0 1.7-.4 2.1.7l1.9 5c.7-1.8 1.3-3.2 1.7-4.6.3-1.3 1.2-1.2 2.2-1.2 1.1.1.6 1 .7 1.5v5.6c0 .7-.1 1-.9 1-.7 0-.8-.4-.7-.9v-4.5h-.3zM297.6 160.7v-1.8c.2-1.3-.2-2-1.6-1.7-.4.1-1.1.2-1.1-.5 0-.8.6-.6 1.1-.6h4.9c.4 0 .9-.1.9.6s-.5.6-.9.6c-1.7-.3-1.8.6-1.7 2v4c0 .5.1 1.1-.8 1.1s-.7-.6-.7-1.1l-.1-2.6z"/><path class="st2" d="M282.4 74.6v-.3h.2l-.2.3z"/><path class="st1" d="M138 72.7c-.1-1.1.9-1 1.5-1.3 6.7-3 13.8-5 20.9-6.6 4.2-.9 6.2-3.2 7.3-7 1.3-4.4 1.8-8.9 2.6-13.4a46.1 46.1 0 0 1 30.3-37.6 64.4 64.4 0 0 1 47.1.9c2.8 1 5.6 2.4 8.3 3.6 1.3.6 1.4 1 .6 2.2L247.7 27c-.7 1-.6 1.6.2 2.5 5.7 6.1 9.8 13 10.8 21.4.2 1.3.8 1.6 1.8 1.7a167 167 0 0 1 31.1 7.2l5 1.7.5.4-10.8 2.7c-10.2 2.6-20.3 5-30.4 7.9-1.6.5-2.3 1.2-2.1 2.9.1 1.1.3 2.3-1.1 3-.4.2-.3.5 0 .9 1 1 1.3 2.3 1.5 3.6.2 1.1.7 1.5 1.8 1.3 5.5-.6 10.6-2.2 15.9-3.8l4.2-1.3c.3.4.1.7 0 .9-7 12.7-13.9 25.4-22.7 37-2.4 3.1-4.9 6-7.5 8.9-.5.6-1 1-1.9.9-.6 0-1.5-.3-1.2.9.2.8.6 1.2 1.5.9L258 125c26.8-7 53.4-14.3 80.3-21a64.2 64.2 0 0 1 32 1c7 1.8 13.8 4.2 20.6 6.5 1.9.6 1.9.6.5 2.1a75.4 75.4 0 0 1-40.1 23.2c-11.5 2.7-23.2 4.4-34.8 6.5l-37.2 6.6-1.6.4c2.4 2.7 4.8 5.2 6.9 8a75 75 0 0 1 16.4 43.5 80.5 80.5 0 0 1-27.1 66.1 73.5 73.5 0 0 1-41.8 19.2 80.9 80.9 0 0 1-70.7-24.8 52.3 52.3 0 0 1-8.5-11.3 103.7 103.7 0 0 0-27.4-30.5A316.6 316.6 0 0 0 97.6 201c-1.2-.7-1.8-.9-2.8.3-4.2 4.8-10.5 5.1-16.2.9-3.6-2.6-6-6.1-7-10.5-.1-.6-.2-1.1-.9-1.4-4-1.3-7.5-3.6-11.2-5.5-2.5-1.2-5-2.2-8.1-2.9a67.8 67.8 0 0 0 15.4-17.3c.8-1.2.5-1.6-.9-1.7l-7.3-.4c-1.5 0-3.1-.3-4.5.2a29.2 29.2 0 0 1-15.8.1 32.3 32.3 0 0 1-17-7.7 43.7 43.7 0 0 1-8.5-11.2c-.9-1.7-1.9-3.4-2.6-5.2-1-2.4-2.3-4.5-4.2-6.4-3.2-3.1-3.4-7.1-2.6-11.2a18.6 18.6 0 0 1 11.4-14.3l9.3-4.1c4.7-2 8-5.8 11.7-9.1 7-6.2 15.2-9.3 24.6-9.4 2.1 0 4.1.1 6.2-.4 2.6-.6 4.4-2.1 5.1-4.6a3 3 0 0 1 1.8-2c14.2-7 29.1-10 44.9-9a75.5 75.5 0 0 1 19.7 4.1c.1.7-.1.5-.1.4zm43.6 25.2.2.2-.7 1-10.3 12.2c-.5.6-1.3 1.2-.7 2.2a29 29 0 0 0 11.8 12.2c.9.5 1.6.4 2.4-.4 2.4-2.4 5.3-4.1 8.5-5.4 2.8-1.1 5.7-1.7 8.9-2.2a24.7 24.7 0 0 1-4.9-7 78.2 78.2 0 0 1-5.5-16.3c-.4-1.3-.9-1.7-2.2-1.7-6.5.1-13.1-.2-19.4-2a2 2 0 0 0-1.1 0l-7.6 2.4c-.7.2-.9.5-.7 1.2 1.5 4.2 2.5 8.5 4.8 12.3.7 1.3 1.3 1.3 2.5.5a282 282 0 0 1 14-9.2zm21.1 39.7c1.1-.2 2.2-.3 3.2-1.2l-3.1.6a37 37 0 0 1-27.1-6.3 56.5 56.5 0 0 1-19.9-29.4c-.6-1.8-1-3.8-2.3-5.3a56.4 56.4 0 0 0-13.4-12.4c-8-5-16.9-7.1-26.2-7.4a81 81 0 0 0-21.3 2c.3.5.7.5 1 .6a57 57 0 0 1 14.3 5.7c6.8 4 12.2 9.2 15.2 16.5 3.1 7.5 3.1 15.2.8 22.9a16.3 16.3 0 0 1-7.8 10.5c-1.3.7-.5 1.2.3 1.6 3.2 1.5 6.1 3.4 9.2 5.1 2.1 1.2 4.4 2.1 6.7 2.6.7.2 1.5.4 2.7-.2l-1.7-1.3c-2-2.1-3.4-4.5-3.7-7.3-.9-8.1 6.6-16.7 14.8-17.3 6-.4 10.3 2.5 13.9 6.9a62.8 62.8 0 0 1 9.8 19.5c.5 1.4 1 1.8 2.6 1.4a1861 1861 0 0 1 32-7.8zM82.2 92.9a38.8 38.8 0 0 0-16.9-1.6 45 45 0 0 0-25.8 9.7 47.9 47.9 0 0 1-19.8 11.3l-.8.3a9 9 0 0 0-5.2 5.7c-.6 1.9-.6 3.9-1.1 5.9-.5 2.4 0 4 1.9 5.6 2.8 2.5 4.1 6.1 5.8 9.4 2.6 5.2 6.2 9.6 11.4 12.3a30 30 0 0 0 17.1 3.3c7.9-.7 15.6.2 23.3 1.5 4.6.8 9 2.5 13.5 3.7 2 .5 3.9.9 5.4-.9l.3.1c-.1 1.5.1 2.9.4 4.3.8 5.1 3.9 8.6 8.6 9.4 1.4.3 2.8.2 4.2.1.9-.1 1.3.1 1.5 1.1 1.1 5.2 2.8 10.4-.4 15.8 2.3-.5 4.3-1 6.2-1.9.7-.3 1-.7 1.1-1.5l1.4-8.1c.1-.6.2-1.1.8-1.3a21 21 0 0 0 6-3.4c.4.6.2 1.2-.1 1.6-2.3 2.4-2.3 5.5-2.5 8.5 0 .5-.1 1-.3 1.4-.9 1.7.4 2.4 1.5 3 1.4.7 2.4.1 3-1.1.4-.7.6-1.6.8-2.4.6-2.6.8-5.3.8-7.9 0-.6-.2-1.2.7-1.4 1.5-.3 2.3-1.5 3-2.7.6-.9 1-1.9 2-2.6.4 1.7.4 3.3-.3 4.8-1.4 3-.7 6.2-1.2 9.3-.2 1.1 1.2 1.9 2.1 2.3.7.3.9-.9 1.3-1.5 1.4-2.4 2.4-5 3.3-7.7.9-2.5 1.4-5.2 4.1-6.7.5-.2.7-1 1.4-.6.5.3.3.9.3 1.3l-.4 2c-.4 1.2-.8 2.4-.8 3.7 0 .9.2 1.8 1.2 2 .9.2 1-.8 1.2-1.3 2-4.1 2.9-8.6 3.9-13 .3-1.5-.1-2.3-1.2-3.2-3.2-2.7-6.7-5.3-9-8.9a5.7 5.7 0 0 0-3.8-2.6 52 52 0 0 1-18.4-8.7 5 5 0 0 0-2.9-.9 29.9 29.9 0 0 1-25.1-11.6c-2.4-3-4.9-5.9-7.9-8.2a30.4 30.4 0 0 0-25.7-5.8c-3.9.8-7.1-.7-10-3.2a38 38 0 0 0 17.6-3.2 12 12 0 0 1 7-.4c9.2 1.7 16.8 6 22.4 13.6 1.1 1.6 2.6 3 3.5 4.7 2.6 4.7 7.5 4.1 11.6 5.4 1.5.5 2.9-.7 4.3-1.2 4.3-1.6 6.7-4.8 7.6-9.2 1-4.8.9-9.5 0-14.3-3.1-16.5-19-25.3-35-20.1-1 .3-1.5.6-.6 1.7 1 1.2 1.7 2.5 2.1 4l-.4.3zm292.2 23.2a64.3 64.3 0 0 0-15.8-5.4c-4-.8-7.9-1.1-11.9-.1l-59.3 14.1-111.9 26.5c-1.6.4-3.7.4-4.5 1.4-.6.8.5 2.9.8 4.4.2 1.2.5 1.5 1.8 1.2l76.8-15.9 112.5-23.6 11.5-2.6zm-189 56.7c6-.6 11.4-1.4 16.5-3.4a35 35 0 0 0 13.7-9.2h-1.3l-39.5 6.9c-1.2.2-1.3.8-1.2 1.8.9 6.8.8 13.5.3 20.3a18.5 18.5 0 0 1-13.5 17.3c-3.7 1.3-7.3 1.1-10.3-1.8a12.4 12.4 0 0 1 3.5-20.5c1-.4 1.3-.9 1.3-2-.1-2.4-.5-4.7-.9-7-.1-.7.3-1.9-1.3-2-1.3 0-1.9.5-2.2 1.7-.8 3.1-2.1 5.9-4 8.5-1.2 1.7-2.6 3.1-4.9 3-3.5-.2-5.6 1.7-7.2 4.5l-.3.4c-2.7 4-3.2 4.1-7.8 2.2l-.8-.4c-.4-.2-.6-.2-.9.1-2.9 3.3-6.2 3.5-9.9 1.3-.4-.3-.9-.8-1.5-.2-1.3 1.4-3 2.3-4.7 3.3l.6.4c10.1 5 19.1 11.6 27.2 19.5.8.8 1.5.8 2.5.5l8.6-2.8c8-2.8 16-5.7 23-10.7 8.5-6 13.4-13.8 12-24.7-.1-1.2.2-1.6 1.4-1.2l9.1 2.6c7 2 13.7 1.8 20.3-1.4a51.6 51.6 0 0 0 23.5-23c.2-.3.4-.7.2-1-.2-.3-.7-.1-1 0l-4.3.9c-1.2.2-2 .8-2.8 1.8-1.7 2.4-3.5 4.8-5.4 7.1-6.2 7.5-13.5 12.6-23.9 11.6-4.6-.5-9.3-1.6-14.1-4.4zm18.7-138.9v-.3l.6-.4c6.8-3.5 14-4.8 21.6-3.6a27 27 0 0 1 15.4 7.9c3.5 3.6 5.7 7.9 6.8 12.8.2.9-.1 2.3 1.7 2.2 2.3-.1 2.4-.2 1.9-2.6a27.4 27.4 0 0 0-17.8-21.3 39.4 39.4 0 0 0-20.4-1.8c-5.3.8-10.6 2-15.3 4.9-10.3 6.2-14.3 15.9-15.3 27.3-.1 1.1.5 1.2 1.3.9 14.3-3.5 28.8-5.1 43.4-6.1 1.9-.1 3.9-.2 5.8-.5.5-.1 1.5.1 1.3-1-.8-6.8-3.1-12.6-9.4-16-3.8-2.1-8-2.7-12.3-2.8-3-.1-6.1.2-9.3.4zm54.3 119.9 2.1 1.5a64 64 0 0 1 24.2 69.4 57.6 57.6 0 0 1-35.8 41.4 68.3 68.3 0 0 1-50.5-.1 93.8 93.8 0 0 1-31.2-19.1c-.6-.5-1.1-1.5-2-.5-.9 1 .3 1.4.7 1.8a71.8 71.8 0 0 0 70.9 26.1 61.4 61.4 0 0 0 41.5-25 67.2 67.2 0 0 0 12.3-50 62.4 62.4 0 0 0-27.1-44.7c-1.7-.9-3.1-1.7-5.1-.8zm3.8-63.8a94.2 94.2 0 0 1-21.8 1.5 48.3 48.3 0 0 1-22.7-7c-1-.6-1.7-.7-2.8-.2a57.3 57.3 0 0 1-14.6 5c-1 .2-1.5.7-1.3 1.7l.2 1.4c1.4 11.1 7 19.1 17.2 23.7a61.2 61.2 0 0 0 24.7 4.5 2 2 0 0 0 1.7-.8l2.7-3.2c.4-.5 1.4-1.1 1-1.8-.4-.8-1.3.1-2-.1-2.3-.4-3.9.5-4.9 2.7-.4.9-1.2 1.1-2.1 1.1-2.5 0-5.1 0-7.6-.4-6.2-1-12.1-2.7-17.1-6.6-.4-.3-1.1-.6-1-1.4.9 0 1.6.5 2.4.8 3.9 1.6 7.9 3.1 12 4 1.7.4 3.4.7 5.2.6.6 0 1.1-.4 1.2-1 .1-.7-.7-.6-1.1-.7a51.8 51.8 0 0 1-17-7.7c1-.3 1.6.2 2.3.4 5 1.7 10 3.7 15.3 4.4 3.1.4 4 0 5.5-2.7.5-.9.4-1.3-.7-1.5a43 43 0 0 1-15-5.8c-.6-.4-1.4-.6-1.8-1.5l.8.1a65.6 65.6 0 0 0 15.8 4.1c3.1.5 3.9.1 5-2.7.4-1 .3-1.4-.9-1.6a48.9 48.9 0 0 1-18.6-7.4c.5-.3.7-.1 1 0 6 2.5 12.3 3.7 18.6 4.5 1.4.2 2.5-.1 3.1-1.5.2-.6.4-1.3 1.3-1.4 2.9-.3 5.8-.7 8.9-.7-.2 1.5-1.5 2.2-1.7 3.5 5.6.4 6.8-.8 8.8-6.3zm-79.1-3.9c1.9.3 3.4-.1 4.9-.2 8.3-.8 16.4-2.4 24.1-5.5 7.4-3 14.6-6.5 22.2-9.1 10.6-3.6 21.7-5.5 32.6-7.6l11.5-2.3-.8-.5a88 88 0 0 0-16.9-2.2c-10.2-.5-20.3.2-30.5 1.2-8 .7-16 1.5-24 2.8-1.2.2-1.6.5-1.4 1.7.7 5.7-2 9.8-6.1 13.2a52 52 0 0 1-15.6 8.5zm7.6-19.4c.1-1-.3-1.1-1.2-.9a189.4 189.4 0 0 0-38.4 10.1c-2 .7-2 1-.3 2.4 2.3 1.9 5 3.2 7.6 4.5 4.5 2.3 8.9 2.9 13.7.6 5.5-2.6 11-5 15.3-9.6 1.9-2 3-4.4 3.3-7.1zm24.4 121.7-.4-.4-8 6.5c-11.5 9.4-24 17.2-37.8 22.9-5.9 2.5-11.8 5-17.9 7-1.2.4-1.3.9-.6 1.8.6.8 1.4 1.6 1.9 2.5.8 1.6 1.9 1.6 3.4 1.1 5.3-1.7 10.5-3.7 15.6-6.1a116.8 116.8 0 0 0 36.9-25.7c2.7-2.8 5.1-6 6.9-9.6zM175.3 54.6l.3 5.5c0 .4-.1 1 .6 1.1 1.2.2 2.8-1 2.8-2.4 0-8 2.1-15.3 6.7-21.8 3.6-5.1 8.3-9.1 13.7-12.3.9-.6 1.1-1 .5-1.9l-3.6-6.9c-.5-1-.9-.9-1.6-.3-1.6 1.2-3.3 2.3-4.7 3.7a45.2 45.2 0 0 0-14.7 35.3zm50.8-46.3c-2.4-.1-2.4-.1-2.6.8-.4 2.9-.7 5.8-1.2 8.6-.4 2 0 2.6 2.1 2.9 5.4.6 10.4 2.6 15.6 4.1.7.2 1.4.5 2-.4l6.2-8.8c.6-.8.5-1.2-.4-1.6-7-2.9-14.2-5-21.7-5.6zm-77.4 128.6c-.8-.1-1.5.3-2.3.5-1.7.4-3.3.7-5 .5a5 5 0 0 1-4.7-4.1c-.7-2.9 1.3-7 4.2-8.6 2.9-1.7 5.8-1.3 8.5 1.2 4 3.8 6.2 8.8 8.2 13.8 4.6 11.6 7.3 23.7 9.6 35.9.4 2 .5 4.1 1.3 6.3v-4.2a149 149 0 0 0-6.8-34.3c-1.9-6.1-4.1-12-7.9-17.3-5-6.9-13.2-5.2-17.3-.4-3.3 3.9-2.9 10 .7 12.9 3.3 2.8 8.5 1.8 11.5-2.2zm85.9 42.5-1 1.3-24.8 34.2c-.7 1-1.4 1.4-2.7 1.4-2.3-.1-4.7-.3-7.4.1l10 5.8c1.1.7 1.6.8 2.4-.6l22.9-40.5c.4-.5.9-.9.6-1.7zm12 16.8c2 0 3.8-.4 5.3-1.7 1.5-1.3 1.3-2.4-.6-2.9-3.9-1-7.5-2.6-10.9-4.8-1.2-.8-2.5-1.3-3.8-1.7-1.2-.4-2.1-.2-2.6 1.1l-2.8 5.9c-.2.4-.7.9-.4 1.3.3.4.9.2 1.4 0 1.7-.8 3.2-.2 4.7.4 3.1 1.1 6.4 2.1 9.7 2.4zM222.9 80.9l.7.3a38.2 38.2 0 0 0 19 4.7c1 0 1.2-.4.6-1.2-1.2-1.9-3.1-3-5.1-3.8-2.1-.8-4.3-1-6.8-1.7 4.2-1.9 8.3-1.7 12.8-1.6l-3-2.6c2.4 0 4.4.5 6.5.7.5 0 1.2.4 1.4-.3.2-1-.2-1.9-.6-2.8-.5-.9-1.2-.2-1.8 0-6.9 1.9-13.7 4-20.4 6.5-1.1.3-2.3.7-3.3 1.8zM236.3 211c2.7.2 4.1-.5 5.1-2.2.5-.9.9-2-.6-2.5l-11.5-3.9a4.7 4.7 0 0 0-4 .7c-1.9 1.3-1.9 2.7 0 4 3.6 2.3 7.6 3.5 11 3.9zm-4.3 7.1c1.9.1 3.4-.3 4.5-1.6.6-.7 1.1-1.8-.2-2.2-4.1-1.5-8.3-2.8-12.5-4.2-1.2-.4-3.3 1-3.5 2.1-.3 1.6.6 2.4 2.1 2.8l4.4 1.7c1.8.7 3.5 1.4 5.2 1.4zm-140.7-39c-2.1-4.3-7.3-5.1-10.9-1.9-5.5 4.9-6.2 15.7-1.2 21.4.4-.9-.2-1.6-.4-2.4a16.8 16.8 0 0 1 2.8-15c1.7-2.2 4-3.5 6.9-2.9 1 .1 1.8.4 2.8.8zm143.4 18.1-2 .1c-1 .2-1.8.6-2 1.8-.1 1.2.4 1.9 1.5 2.3l9.1 3.1c1.3.4 3.8-.6 4.2-1.8.4-1.6-.8-2.3-1.9-2.9a19.6 19.6 0 0 0-8.9-2.6zm-8.7 26.6c2.2 0 3.8 0 4.8-1.3.4-.5 1.2-1.4-.1-1.9-3.3-1.2-6.6-2.3-10-3.3-1.4-.4-2.3.5-2.8 1.7-.6 1.2.1 2 1.1 2.5 2.3 1.5 4.9 2.2 7 2.3zm-88.4-78.5 4.1 5c.9 1.2 1.9 1.6 3.6 1.2 4.2-1 4.2-.9 3-4.9-.3-.9-.4-2-1.1-2.4-.6-.5-1.4.5-2.2.7-1 .2-2 .5-3 .4h-4.4zm17.3 58c-2.4-3.4-3-7-1-10.8 2.1-3.9 5.5-5 9.8-4.5-2.5-1.9-5.1-2.4-7.7-1-3.9 2-5.6 5.4-5.6 9.7 0 3.1 1.6 5.3 4.5 6.6zm52-193.4-1.5.4c-1.8.3-2.4 1.2-1.8 3 .6 1.8.8 3.8 1.2 5.7.6 3.1.6 3.1 3.7 2.3.8-.2 1.1-.4 1-1.3l-1.7-9.3c-.2-.4-.2-.9-.9-.8zm41.8 94c4.2.6 6-.3 7.5-3.4.2-.5.6-1-.4-1.2-3.2-.6-6.1 1.2-7.1 4.6zm-4.8 7.3c5 .5 6.9-.5 7.7-4.1-4.9-.3-5.8.2-7.7 4.1zm-36.7 25.2.3-.1-.3-.2-.3.1.3.2zm-42.9 52v-.1.1zm51-.7v-.1.1z"/><path class="st3" d="M252.7 123.5h-.4l.2-.3.2.3zM82.3 92.8c-.4-1.5-1.1-2.8-2.1-4-.9-1-.4-1.4.6-1.7a26.3 26.3 0 0 1 35 20.1c.9 4.8 1 9.5 0 14.3-.9 4.4-3.3 7.6-7.6 9.2-1.4.5-2.8 1.7-4.3 1.2-4.1-1.3-9-.7-11.6-5.4-.9-1.7-2.3-3.1-3.5-4.7a34.4 34.4 0 0 0-22.4-13.6c-2.3-.4-4.8-.4-7 .4a37.8 37.8 0 0 1-17.6 3.2c2.9 2.5 6.2 4 10 3.2 9.5-2 18 .1 25.7 5.8 3.1 2.3 5.6 5.2 7.9 8.2a29.9 29.9 0 0 0 25.1 11.6 5 5 0 0 1 2.9.9 53.7 53.7 0 0 0 18.4 8.7c1.8.3 2.8 1.1 3.8 2.6 2.4 3.6 5.8 6.2 9 8.9 1.1.9 1.6 1.7 1.2 3.2-1 4.4-1.9 8.9-3.9 13-.3.5-.3 1.5-1.2 1.3-1-.2-1.2-1.1-1.2-2 0-1.3.4-2.5.8-3.7l.4-2c.1-.5.2-1.1-.3-1.3-.6-.4-.9.4-1.4.6-2.7 1.4-3.2 4.1-4.1 6.7a47 47 0 0 1-3.3 7.7c-.3.6-.6 1.8-1.3 1.5-.9-.4-2.3-1.2-2.1-2.3.5-3.1-.2-6.3 1.2-9.3.7-1.4.8-3 .3-4.8-1.1.7-1.5 1.7-2 2.6-.8 1.2-1.6 2.4-3 2.7-.9.2-.7.9-.7 1.4a29.9 29.9 0 0 1-1.6 10.3c-.6 1.2-1.6 1.9-3 1.1-1.2-.6-2.4-1.2-1.5-3 .2-.4.3-.9.3-1.4.2-3 .2-6.1 2.5-8.5.4-.4.5-1 .1-1.6a19.8 19.8 0 0 1-6 3.4c-.6.2-.7.7-.8 1.3l-1.4 8.1c-.1.8-.5 1.2-1.1 1.5-1.9.9-3.8 1.4-6.2 1.9 3.2-5.4 1.5-10.6.4-15.8-.2-1-.6-1.1-1.5-1.1-1.4.1-2.8.2-4.2-.1-4.6-.9-7.7-4.3-8.6-9.4-.2-1.4-.4-2.9-.4-4.3l-.3-.1c-1.6 1.8-3.4 1.4-5.4.9-4.5-1.2-8.9-2.9-13.5-3.7a90.8 90.8 0 0 0-23.3-1.5 30 30 0 0 1-17.1-3.3A26.6 26.6 0 0 1 20 139.4c-1.6-3.3-3-6.9-5.8-9.4-1.8-1.7-2.4-3.3-1.9-5.6.4-1.9.5-4 1.1-5.9a8.3 8.3 0 0 1 5.2-5.7l.8-.3c7.7-1.9 14-6.2 19.8-11.3A45.8 45.8 0 0 1 65 91.5c5.7-.7 11.4-.4 16.8 1.5l.2.2.1-.1c.3-.2.2-.3.2-.3zM99 107c0 .2 0 .3.3.2l-.3-.2-.3-.5c-6-6.5-17.2-8.5-25-4.5-2 1-3.9 2.3-5.5 4.4l2.4-.3c.9-.2 1.8-.4 2.6-.8a27.3 27.3 0 0 1 21.7.2c1.4.6 2.6 1.4 4.1 1.5zm-14.3 46.3c.2.2.4.3.7.1l-.5-.2-1.4-.7-34.4-13.1-7.3-2.6-.2.3 6.3 7.8c-3.2.1-9.7-1.6-13.5-3.2-2-.9-3.5-2-4.6-3.9-.8-1.5-1.9-2.8-2.8-4.3-1.6-2.8-4.4-3.3-7.8-4 3.1 4.3 4.5 8.9 7.3 12.8l1 1.1a32 32 0 0 0 19.7 8.2c5.7.2 11.4.2 17.1 0 6.8-.3 13.6.5 20.4 1.7zm-5.6-15C70 126 56.9 123.8 43 124l36.1 14.3zm21.6 11.5-.2.4 1.8 1.1c6.3 3.7 12.7 7.2 17.6 12.7.3.3.7.5 1.1.4 1.2-.4 2.6-.4 3.9-1.2a58.4 58.4 0 0 0-24.2-13.4zm11.6-1 1.4.8c6.2 3.3 12.4 6.5 18.1 10.6.6.4 1.1.6 1.8.3s1.9-.1 2.1-.8c.2-.8-.9-1.2-1.5-1.6-6.5-5.1-14-7.7-21.9-9.3zm-12.4 1z"/><path class="st2" d="m202.7 137.6-32.1 7.8c-1.6.4-2.1 0-2.6-1.4-2.4-7-5.1-13.7-9.8-19.5-3.6-4.4-7.8-7.3-13.9-6.9-8.2.6-15.7 9.1-14.8 17.3a12 12 0 0 0 3.7 7.3l1.7 1.3c-1.2.5-2 .3-2.7.2-2.4-.5-4.6-1.5-6.7-2.6-3.1-1.7-6-3.6-9.2-5.1-.8-.4-1.6-.9-.3-1.6 4.3-2.2 6.5-6.1 7.8-10.5a33.4 33.4 0 0 0-.8-22.9c-3-7.4-8.4-12.6-15.2-16.5a57 57 0 0 0-14.3-5.7c-.3-.1-.7-.1-1-.6a85 85 0 0 1 21.3-2c9.3.4 18.2 2.4 26.2 7.4 5.2 3.3 9.6 7.6 13.4 12.4 1.2 1.5 1.7 3.5 2.3 5.3a56.7 56.7 0 0 0 19.9 29.4 37.2 37.2 0 0 0 27.1 6.3v.6z"/><path class="st4" d="m374.4 116.1-11.7 2.6-112.5 23.6-76.8 15.9c-1.2.3-1.6 0-1.8-1.2-.2-1.5-1.4-3.6-.8-4.4.8-1 2.9-1 4.5-1.4l111.9-26.5 59.3-14.1c4-.9 7.9-.6 11.9.1a63 63 0 0 1 16 5.4z"/><path class="st2" d="M185.4 172.8c4.8 2.7 9.5 3.9 14.5 4.4 10.4 1.1 17.7-4.1 23.9-11.6 1.9-2.3 3.7-4.7 5.4-7.1a4 4 0 0 1 2.8-1.8l4.3-.9c.4-.1.8-.3 1 0 .2.3 0 .7-.2 1a53 53 0 0 1-23.5 23 27.5 27.5 0 0 1-20.3 1.4l-9.1-2.6c-1.2-.4-1.5 0-1.4 1.2 1.4 10.9-3.6 18.6-12 24.7-7 5-15 7.9-23 10.7l-8.6 2.8c-1 .3-1.7.2-2.5-.5a105 105 0 0 0-27.2-19.5l-.6-.4c1.7-1 3.4-2 4.7-3.3.5-.5 1 0 1.5.2 3.6 2.3 7 2.1 9.9-1.3.3-.4.6-.3.9-.1l.8.4c4.5 1.9 5 1.8 7.8-2.2l.3-.4c1.6-2.8 3.7-4.7 7.2-4.5 2.3.1 3.7-1.3 4.9-3a30 30 0 0 0 4-8.5c.3-1.3.9-1.8 2.2-1.7 1.5 0 1.2 1.3 1.3 2 .4 2.3.8 4.6.9 7 0 1.1-.3 1.6-1.3 2a12.4 12.4 0 0 0-3.5 20.5c3 2.9 6.7 3.1 10.3 1.8a18.7 18.7 0 0 0 13.5-17.3c.5-6.8.6-13.5-.3-20.3-.1-.9 0-1.6 1.2-1.8l39.5-6.9h1.3a34 34 0 0 1-13.7 9.2c-5.6 2-11 2.8-16.9 3.4zM204.1 33.9c3.2-.2 6.3-.5 9.5-.4 4.3.1 8.5.7 12.3 2.8 6.3 3.4 8.7 9.3 9.4 16 .1 1.1-.8 1-1.3 1l-5.8.5c-14.6 1-29.1 2.6-43.4 6.1-.9.2-1.4.2-1.3-.9 1-11.4 5-21.2 15.3-27.3 4.7-2.8 10-4 15.3-4.9 6.9-1.1 13.8-.7 20.4 1.8a27.5 27.5 0 0 1 17.8 21.3c.5 2.3.4 2.4-1.9 2.6-1.8.1-1.5-1.3-1.7-2.2a26.2 26.2 0 0 0-6.8-12.8 27 27 0 0 0-15.4-7.9c-7.6-1.2-14.8.1-21.6 3.6l-.6.4c-.2 0-.2.1-.2.3z"/><path class="st4" d="M258.4 153.8c2-.9 3.4-.2 4.9.8a62 62 0 0 1 27.1 44.7 67 67 0 0 1-12.3 50 61.6 61.6 0 0 1-41.5 25 77 77 0 0 1-37.2-2.4 71.1 71.1 0 0 1-33.7-23.7c-.4-.5-1.5-.9-.7-1.8 1-1 1.5 0 2 .5a93.8 93.8 0 0 0 31.2 19.1 68.8 68.8 0 0 0 50.5.1 57.2 57.2 0 0 0 35.8-41.4 64.5 64.5 0 0 0-24.2-69.4l-1.9-1.5z"/><path class="st2" d="M262.2 90c-2.1 5.5-3.2 6.7-8.7 6.3.3-1.3 1.5-2 1.7-3.5-3 0-5.9.4-8.9.7-.8.1-1 .8-1.3 1.4-.6 1.5-1.7 1.7-3.1 1.5-6.4-.8-12.7-2-18.6-4.5-.3-.1-.6-.2-1 0a43.5 43.5 0 0 0 18.6 7.4c1.2.1 1.2.6.9 1.6-1.1 2.8-1.9 3.1-5 2.7-5.4-.8-10.7-2-15.8-4.1l-.8-.1c.4.9 1.2 1.1 1.8 1.5a43 43 0 0 0 15 5.8c1.1.2 1.2.6.7 1.5-1.5 2.8-2.4 3.1-5.5 2.7-5.3-.7-10.3-2.6-15.3-4.4-.7-.2-1.3-.7-2.3-.4a51.8 51.8 0 0 0 17 7.7c.4.1 1.2-.1 1.1.7-.1.5-.6.9-1.2 1a18 18 0 0 1-5.2-.6c-4.2-.9-8.1-2.3-12-4-.8-.3-1.5-.8-2.4-.8-.1.8.6 1 1 1.4a36.7 36.7 0 0 0 17.1 6.6c2.5.4 5.1.4 7.6.4.9 0 1.7-.2 2.1-1.1.9-2.2 2.5-3.1 4.9-2.7.7.1 1.6-.7 2 .1.4.7-.6 1.2-1 1.8l-2.7 3.2c-.5.5-1 .8-1.7.8-8.5-.1-16.9-.9-24.7-4.5a28.4 28.4 0 0 1-17.2-23.7l-.2-1.4c-.3-1.1.2-1.6 1.3-1.7 5.1-.8 9.9-2.8 14.6-5 1.1-.5 1.8-.4 2.8.2a48.7 48.7 0 0 0 22.7 7c7.2.5 14.4-.4 21.7-1.5zm-43.3 8.7zm.9.5-.1-.1-.1.1.1.1.1-.1zM183.1 86.1a52 52 0 0 0 15.7-8.7c4.1-3.5 6.8-7.6 6.1-13.2-.1-1.2.3-1.5 1.4-1.7 7.9-1.2 16-2 24-2.8 10.1-.9 20.3-1.6 30.5-1.2 5.7.3 11.3 1 16.9 2.2.2 0 .3.2.8.5L267 63.5c-11 2.1-22 4-32.6 7.6-7.6 2.6-14.8 6-22.2 9.1a79.7 79.7 0 0 1-24.1 5.5c-1.6.3-3.1.7-5 .4z"/><path class="st3" d="m181.6 97.9-14.1 9.2c-1.2.8-1.8.8-2.5-.5-2.3-3.9-3.3-8.2-4.8-12.3-.2-.7.1-1 .7-1.2l7.6-2.4h1.1a67 67 0 0 0 19.4 2c1.3 0 1.8.4 2.2 1.7a92 92 0 0 0 5.5 16.3c1.2 2.5 2.7 4.8 4.9 7-3.2.4-6.1 1-8.9 2.2-3.2 1.3-6.1 3-8.5 5.4-.8.8-1.4.8-2.4.4a29 29 0 0 1-11.8-12.2c-.6-1 .2-1.6.7-2.2L181 99.1l.7-1 .1-.4-.2.2z"/><path class="st2" d="M190.7 66.7a12 12 0 0 1-3.3 7.1c-4.2 4.6-9.8 6.9-15.3 9.6-4.8 2.3-9.2 1.7-13.7-.6-2.6-1.4-5.3-2.6-7.6-4.5-1.7-1.4-1.6-1.6.3-2.4a205.3 205.3 0 0 1 38.4-10.1c.9-.2 1.3-.1 1.2.9zM215.1 188.4a41.7 41.7 0 0 1-6.9 9.7 132.9 132.9 0 0 1-52.5 31.8c-1.5.5-2.6.5-3.4-1.1-.5-.9-1.2-1.7-1.9-2.5-.7-.9-.6-1.4.6-1.8 6.1-2 12-4.6 17.9-7a152 152 0 0 0 37.8-22.9l8-6.5.4.3z"/><path class="st4" d="M175.3 54.6c.2-14 4.4-26 14.7-35.4l4.7-3.7c.7-.5 1.1-.6 1.6.3l3.6 6.9c.6 1 .4 1.4-.5 1.9a42.5 42.5 0 0 0-13.7 12.3 37 37 0 0 0-6.7 21.8c0 1.3-1.6 2.6-2.8 2.4-.7-.1-.6-.7-.6-1.1l-.3-5.4zM226.1 8.3c7.6.6 14.7 2.7 21.7 5.7.9.4 1 .8.4 1.6l-6.2 8.8c-.6 1-1.3.6-2 .4-5.2-1.5-10.2-3.5-15.6-4.1-2.1-.2-2.6-.9-2.1-2.9.6-2.8.8-5.7 1.2-8.6.1-1 .2-1 2.6-.9zM148.7 136.9c-3 4-8.2 5-11.6 2.3-3.6-2.9-4-9-.7-12.9 4.1-4.9 12.4-6.5 17.3.4 3.8 5.2 6 11.2 7.9 17.3a149 149 0 0 1 6.8 34.3v4.2c-.8-2.2-.9-4.3-1.3-6.3-2.3-12.2-5-24.3-9.6-35.9-2-5-4.2-10-8.2-13.8-2.6-2.5-5.5-2.9-8.5-1.2-2.9 1.7-4.9 5.7-4.2 8.6a5.1 5.1 0 0 0 4.7 4.1 14 14 0 0 0 5-.5c.8-.3 1.5-.8 2.4-.6zM234.6 179.4c.3.8-.2 1.2-.5 1.7l-22.9 40.5c-.8 1.4-1.3 1.3-2.4.6l-10-5.8c2.7-.4 5.1-.2 7.4-.1a3 3 0 0 0 2.7-1.4l24.8-34.2c.2-.4.5-.9.9-1.3z"/><path class="st3" d="M246.6 196.2c-3.3-.2-6.5-1.3-9.7-2.4-1.5-.5-3-1.2-4.7-.4-.4.2-1 .4-1.4 0-.3-.4.2-.9.4-1.3.9-2 2-3.9 2.8-5.9.6-1.3 1.4-1.5 2.6-1.1 1.3.4 2.6.9 3.8 1.7 3.4 2.2 7 3.8 10.9 4.8 1.9.5 2.1 1.6.6 2.9-1.5 1.3-3.3 1.6-5.3 1.7zM222.9 80.9c1-1.1 2.2-1.4 3.2-1.8 6.7-2.6 13.5-4.6 20.4-6.5.5-.1 1.3-.8 1.8 0s.8 1.8.6 2.8c-.2.7-.9.4-1.4.3-2-.2-4-.7-6.5-.7l3 2.6c-4.4-.1-8.5-.3-12.8 1.6 2.5.7 4.8.9 6.8 1.7 2.1.8 3.9 1.9 5.1 3.8.5.8.4 1.2-.6 1.2-6.7.1-13.1-1.3-19-4.7l-.6-.3zM236.3 211c-3.4-.4-7.4-1.6-10.9-3.9-2-1.2-1.9-2.7 0-4 1.2-.8 2.6-1.2 4-.7 3.8 1.2 7.7 2.5 11.5 3.9 1.4.5 1.1 1.6.6 2.5-1.1 1.7-2.6 2.4-5.2 2.2zM232 218.1c-1.7 0-3.4-.7-5.2-1.3l-4.4-1.7c-1.5-.5-2.4-1.2-2.1-2.8.2-1.1 2.3-2.5 3.5-2.1 4.2 1.3 8.4 2.7 12.5 4.2 1.3.4.8 1.5.2 2.2a5.6 5.6 0 0 1-4.5 1.5z"/><path class="st4" d="m91.3 179.1-2.8-.9c-3-.6-5.2.7-6.9 2.9a17 17 0 0 0-2.8 15c.2.8.8 1.5.4 2.4-5-5.6-4.3-16.5 1.2-21.4 3.7-3.1 8.8-2.3 10.9 2z"/><path class="st3" d="M234.7 197.2c3.2.2 6.2 1 9 2.6 1.1.6 2.3 1.4 1.9 2.9-.3 1.1-2.9 2.2-4.2 1.8l-9.1-3.1c-1.2-.4-1.7-1.1-1.5-2.3.1-1.2 1-1.6 2-1.8l1.9-.1zM226 223.8c-2.1-.1-4.7-.8-7-2.3-.9-.6-1.7-1.3-1.1-2.5.6-1.2 1.5-2.1 2.8-1.7 3.4 1 6.7 2.1 10 3.3 1.3.4.5 1.4.1 1.9-1 1.3-2.6 1.3-4.8 1.3z"/><path class="st2" d="M137.6 145.3h4.4c1 0 2-.2 3-.4.8-.2 1.6-1.2 2.2-.7.6.5.8 1.6 1.1 2.4 1.2 4 1.2 3.9-3 4.9-1.6.4-2.6 0-3.6-1.2a76.2 76.2 0 0 0-4.1-5z"/><path class="st4" d="M154.9 203.3c-3-1.3-4.6-3.5-4.6-6.6 0-4.3 1.8-7.7 5.6-9.7 2.6-1.4 5.2-1 7.7 1-4.2-.5-7.7.7-9.8 4.5-1.9 3.8-1.3 7.4 1.1 10.8zM206.9 9.9c.6-.2.7.4.8.9l1.7 9.3c.2.9-.2 1.2-1 1.3-3 .7-3 .8-3.7-2.3-.4-1.9-.6-3.9-1.2-5.7-.6-1.9 0-2.7 1.8-3l1.6-.5z"/><path class="st2" d="M248.7 103.9c1-3.4 3.8-5.2 7.2-4.6 1 .2.6.7.4 1.2-1.6 3.2-3.3 4-7.6 3.4zM243.9 111.2c1.9-4 2.8-4.5 7.7-4.1-.8 3.7-2.7 4.7-7.7 4.1z"/><path class="st5" d="m202.7 137.6.1-.6 3.1-.6c-.9.8-2 1-3.2 1.2zM207.2 136.4l-.3-.2.3-.1.3.2-.3.1z"/><path class="st2" d="m138 72.7.2.2c-.1.2-.3.1-.4 0l.2-.2zM164.3 188.4l-.1-.1h.1z"/><path class="st1" d="m215.3 187.7-.1-.1h.1zM84.7 153.3a92.8 92.8 0 0 0-20.4-1.8c-5.7.2-11.4.2-17.1 0-7.6-.3-14-3.3-19.7-8.2l-1-1.1c-2.8-3.9-4.2-8.5-7.3-12.8 3.4.7 6.1 1.2 7.8 4 .8 1.5 1.9 2.8 2.8 4.3a9.2 9.2 0 0 0 4.6 3.9 42.5 42.5 0 0 0 13.5 3.2l-6.3-7.8.2-.3 7.3 2.6 34.4 13.1 1.4.7-.2.2zM79.1 138.3 43 124c13.9-.2 27 2 36.1 14.3zM99 107c-1.5 0-2.7-.9-4.1-1.4a27.3 27.3 0 0 0-21.7-.2c-.8.4-1.7.6-2.6.8-.6.2-1.3.2-2.4.3 1.6-2.1 3.5-3.4 5.5-4.4 7.8-4 19-2 25 4.5l.3.4zM100.7 149.8c9 2.7 17.2 6.8 24.2 13.5-1.4.8-2.7.8-3.9 1.2-.4.1-.8-.1-1.1-.4-5-5.5-11.4-9-17.6-12.7l-1.8-1.1.2-.5zM112.3 148.8a50.3 50.3 0 0 1 21.9 9.3c.6.5 1.7.8 1.5 1.6-.2.7-1.4.5-2.1.8-.7.3-1.2.1-1.8-.3-5.7-4.1-12-7.3-18.1-10.6l-1.4-.8z"/><path d="m84.8 153.2.5.2c-.3.3-.5.1-.7-.1l.2-.1z" style="fill-rule:evenodd;clip-rule:evenodd;fill:#0e0e0d"/><path class="st7" d="M99.9 149.8v-.1h.1z"/><path class="st8" d="m82.3 92.8.2.2-.1.1-.2-.2.1-.1z"/><path class="st7" d="m99 107 .3.2c-.3.1-.3 0-.3-.2z"/><path class="st8" d="m218.9 98.7.1.1h-.1zM219.8 99.2l-.1.1-.1-.1.1-.1.1.1zM181.6 97.9l.3-.2-.1.4-.2-.2z"/></svg>