<svg version="1.1" id="Layer_1" xmlns="http://www.w3.org/2000/svg" x="0" y="0" viewBox="0 0 332.7 195.7" style="enable-background:new 0 0 332.7 195.7" xml:space="preserve"><style>.st0{fill:#fff}.st1{fill:#ff7800}</style><path d="m246.1 38.6-.1-.3c-2.8-7.9-9.7-24-28.7-34.9L212.9.9l1 3.4c2.3 8.1 4 19.6 4.2 20.1-.7-.7-1.3-1.2-1.7-1.8a90.8 90.8 0 0 0-31.3-18c-15-5-25-4.7-33.5-4.5l-2.6.1 3 2.3c3.4 2.5 6.7 5.4 9.6 8.5l1.7 1.8c-4-.6-7.9-.9-11.6-.9l-7.9.1c-9.6.4-28.9 4.1-40.7 13l-3.7 2.8 3.5.8c5 1.2 15.8 4.9 16.7 5.1l.2.1a77.6 77.6 0 0 0-33.7 24.6v-.1l-26.5 6.8-11.9 3.1h-.3l-33.6 8.9-4.6 4.5L6.7 115l5.3-1.4-3.7 43.1-.6.2-4.6 4.5L0 195.7l46.1-17.2 2.3-2.1h1.2c1.6 0 3.2-.3 4.6-.8l21.4-7.6 4.6-4.5.2-1.7c2.3.7 4.5.9 6.8 1a37.2 37.2 0 0 0 19.5-5.9c3 6 6.6 11.5 10.8 16.6.7.9 7.9 7.9 12.3 9.7l4.9 2.1-.6-3.9c-.7-3.5-1.9-12.1-1.8-12.8v-.6c1.9 2 3.5 3.4 4.7 4.5l.5.4c6.6 5.8 15.9 11.1 22.9 14.7a51.4 51.4 0 0 0 18.3 5.6c.2 0 11.8 1.2 16.6.5l3.1-.4-3.5-3.1c-3.1-2.7-11.5-10.8-12.1-11.3l4.3.7c1.5.2 3.1.3 4.7.3 4.7.1 10.3-.5 13.8-.8l1.7-.1a70.9 70.9 0 0 0 22.5-5.9 49.2 49.2 0 0 0 20.4-15.3l.7-1-3.2.2c-4 .3-14.8-.4-15-.5l-.9-.1 5-2.9a105 105 0 0 0 22-19.8c3-3.4 6-8.4 7.4-11.5 1.6-3.5 3-7 3.3-10.9l.1-1.6 19.2-4.5.2-.4h1.7c9.6.1 20.2-4.4 26.7-10.9l4.6-4.5a28.6 28.6 0 0 0 7.9-18.9c0-3.1-.5-6.1-1.9-9l.6-.6 4-30.1-21.3 3-.5.5a31.7 31.7 0 0 0-19.5 3v-.1l-7.6 1.1 2-15.9-36.8 13.3-2.8 2.9z"/><path class="st0" d="m81.3 64.4-.9 22.3-5.6 1.5a3 3 0 0 0-.6.9l-10 19.8c5.7.3 9 4.6 10.1 7.4l.2-1.5a52.3 52.3 0 0 1 10.2-24.9A32.3 32.3 0 0 1 109.3 78l3.9.2c5 .8 10 3.6 12.9 8.4l.4.7 1.6-13 28.4-6.7c3.7-2.3 7.9-3.6 11.8-3.5 2.4 0 4.8.6 7 2a20.8 20.8 0 0 1 20.8-6.1c4.3 1.5 6.9 5 7.9 8.8a30 30 0 0 1 32.5-17.5c2.9.5 5.7 1.8 7.9 3.5 1.1.9 2.1 1.9 3 3.1l1.2-9.2 3.4-.8 1-9.1 27.1-9.9-1.7 14.5 7.4-1.1-.8 5.4.3-.3a27.1 27.1 0 0 1 20.4-9.4c2 0 4.3.4 6.6 1l1-1.2 13.9-2-2.5 21.2-5.5.9c4.5 3.1 6.3 7.9 6.3 12.6 0 4.2-1.5 8.4-3.3 11.6-4.3 7.6-16.3 13.8-26.8 13.7-1.3 0-2.6-.1-3.9-.4l-.9 1.2-14.9 3.5.2-1.6-.2.2a20.4 20.4 0 0 1-7.7 3.5c-2.5 1-5.7 1.7-8.8 1.7-2 0-4.2-.4-6.2-1.5l-1.1-.7a12.1 12.1 0 0 1-4.3-6.2 27.3 27.3 0 0 1-8.3 11.3c-5.9 4.8-14 8.4-21.6 8.3-4.3 0-8.6-1.2-12.2-4.3-.9-.8-1.7-1.6-2.3-2.5l-1.3 11.3-24.5 7.2v.2l-24.6 7.2v.2l-31.8 9.9 1.1-10.3-2 3.3a42.5 42.5 0 0 1-16.6 13.8 29.2 29.2 0 0 1-11.9 2.5 18 18 0 0 1-14.4-6.5L76 160.2l-18.7 6.6c-.9.3-1.9.6-3 .6-3.7 0-5.8-2.3-6.9-4.7l-.9 8-36.7 13.7 2.1-24.4 4.4-1.7c.4-.1.6-.2.8-.5l-.1-.3.1-.5 4.6-54.2-5.3 1.4 1.8-23.7 36.5-9.6 26.6-6.5z"/><path class="st0" d="m84.9 76 .5-10.6c4.4-7 10.8-13.5 17.2-18.2a82.9 82.9 0 0 1 24.6-12.5l4.3-1.3-3.3-1.2c-5.1-1.8-10.4-2.8-15.7-4.2l-5.2-1.4 5.3-3.2a77.1 77.1 0 0 1 38.9-8.1c8 .1 16.3.9 24.1 4.6a124.2 124.2 0 0 0-15.3-14.4l-3.2-2.3 6.9.2A86.5 86.5 0 0 1 213.7 25c2.2 2.2 5.2 5.4 8.1 9.4A89 89 0 0 0 218 9.5l-.5-1.7 2.3 1.6a64.3 64.3 0 0 1 22.6 29.9l1.6 3.9-.3 2.7-2.3 2.3a21 21 0 0 0-4.3-1.2 35.6 35.6 0 0 0-29.9 9.3l-3.3 3.4a17.7 17.7 0 0 0-13.1-5 24.7 24.7 0 0 0-16.4 6c-2.1-.8-4.1-1.1-6-1.1a27 27 0 0 0-13.6 3.9l-30.7 7.2-4.6 4.5v.2c-1.8-.7-3.7-1.3-5.6-1.5a31 31 0 0 0-4.3-.3l-4.1.4-3.2.7-3.1.9-1.8.6c1.6-2.6 3.5-5 5.4-7.3-3.4.8-6.8 2-10.3 3.5l-1.1.4c-.5.3-1.4.8-2.3 1L84.9 76zM252.3 112.8a46 46 0 0 1-4.7 6 28 28 0 0 0 4.3-1.9l2.8-1.6a15 15 0 0 1 3.2-1.9l.8-.8 1.5-.2c1.6-.2 3.3-.8 4.3-1.2l1-.4v.8c0 3.3-2.1 8.4-2.5 9a50.2 50.2 0 0 1-6.7 10.6 104.3 104.3 0 0 1-21.5 19.2 50.2 50.2 0 0 1-16.3 7.2l1 .4c6 2.1 17 2.5 20.2 2.4l3.5-.1-2.1 1.7a51.9 51.9 0 0 1-12.8 7.7l-7.1 2.7a78 78 0 0 1-14.4 2.9l-1.7.1c-3.5.3-9 .8-13.4.8-1.5 0-3 0-4.2-.3a68.2 68.2 0 0 1-14.1-3.3c2.5 3.6 9.9 11.9 13.3 14.6l4.1 3.4-4.7-.2a57 57 0 0 1-24.3-6.1c-6.9-3.6-15.9-8.7-22.2-14.2l-.4-.3c-2.5-2.2-6.7-6-11.4-13.2v1.1c0 5.5.7 11 1.7 16.5l.9 5.1-3.5-2.4c-2-1.4-6.2-5.2-6.8-5.8a92.4 92.4 0 0 1-10-15.4l1.3-.4 41.1-13 24.7-7.1.3-.3 24-7.1 4.6-4.5c2.4.7 4.8 1 7.1 1a39.7 39.7 0 0 0 27-11.4l3.7-3.6.8.7c2.5 1.8 5.1 2.5 7.6 2.8z"/><path class="st1" d="M241.8 47.4c-.3-1.5-1.8-3.9-2.7-6.7-2.4-7-9.1-17.3-12.5-20.2l-2.1-1.8.7 3a79 79 0 0 1 .2 23l-.4 2.1-1.9-3.5a69.3 69.3 0 0 0-11.8-15.4 87.3 87.3 0 0 0-39.8-19.6l-2.2-.2 1.9 1.6a46.7 46.7 0 0 1 13.1 15.9l1.3 3.2c0 .3-6.4-2.9-10.5-4.9a64.5 64.5 0 0 0-30.7-4.5c-8.8.3-18.7 2.4-26.3 6.4 1.4.5 2.8.6 4.1.9a44.9 44.9 0 0 1 18.1 6.5c2.3 1.4 2.9 2.2-.1 2.5a79.4 79.4 0 0 0-34.8 14.7 61.1 61.1 0 0 0-17.8 20.1c1.3-.4 2.5-1.1 3.8-1.7a43.3 43.3 0 0 1 21.3-4.3l-.1.3c-3.2 3-6.2 6.3-8.9 9.9l1-.3 2.5-.4 2.7-.2a24.8 24.8 0 0 1 10.1 1.7v-.2l4.6-4.5 30.7-7.2c4.2-2.4 8.8-3.8 13.4-3.8 1.9 0 4 .3 6.1 1.1a25 25 0 0 1 23.4-4.9c2.5.9 4.5 2.4 6.1 4l3.5-3.5a35 35 0 0 1 29.8-9.3c1.5.3 3 .6 4.3 1.2l.1-.4-.2-.6zM248.4 111.5a62.8 62.8 0 0 1-12.7 12.8l-.3.3c2.4.5 5.5-.3 9-1.1a36.8 36.8 0 0 0 14.2-6.2l2.4-1.8-1.1 2.5c-.8 1.9-3.9 7.4-6.4 10.4-6 6.9-12.8 13.3-20.6 18.4a76.3 76.3 0 0 1-11.1 5.5c-4.6 1.7-10.4 2.5-15.4 3.3a58 58 0 0 0 12 5.9c2.5.9 8.7 1.4 12.1 1.5h2.2l-1.5.8a85 85 0 0 1-10.9 4.6 75.2 75.2 0 0 1-13.5 2.8c-4.4.3-13.7 1.2-18.4.7a63 63 0 0 1-22.2-7l-1.6-.8a63 63 0 0 0 14.8 21.2c-.5.5-2.6-.4-4.1-.7-4.4-1-7.3-1.8-11.4-4-6.9-3.5-15.6-8.5-21.4-13.7-2.5-2.3-7.6-6.8-13.5-17.4v-.1l23.8-7.5 24.6-7.2.3-.3 24-7 4.6-4.6c2.4.7 4.7.9 7 1a38.7 38.7 0 0 0 27.2-11.7l3.6-3.4.9.9c1 .8 2.1 1.4 3.4 1.9z"/><path d="m152.2 73.2-20.7 4.9-1.6 12.7h1c2.3-.8 2.4 0 2.1 2.5l-3.5 29.7c0 .8-.4 1.9-2 2.4l-.8.1-1.4 13.7 23.5-7.4 1.6-13.3-1.3.1c-.9.4-.5-1-.4-2.5l2.7-23.8c.7-7.3 5.8-8.1 5.2-.6l-4.1 38.7 21-6.1 1.4-13-1.2.3c-1.2.4-1-.7-1.4-1.2l3.2-26c.5-4.3 6.1-6.3 5.6-.4l-3.9 39.1 20.7-6.1 1.5-12.5-.9.3c-.8.3-1.3-.3-1.7-.8l3.3-29.9c.5-4.2-1.6-8.6-5.5-9.8-5.3-2-12.8 0-18.2 6.7l-1 1.3-1.4-1.5c-4.6-4.8-15.1-1.8-20.6 4.7l-1.5 1.8.3-4.1zM25.5 99.6l-4.9 57.8c0 1.4.2 3.4-3.2 4.6l-2.1.8-1.4 15.6 28.5-10.6 1.7-15.5-2.6 1.1c-1 .4-2.4.5-2.1-2.6l1.7-18.7 5.3-1.5c4-1.4 5.8-.4 5.2 6.7L50 157.2c-.3 3.5 1.7 7.4 5.5 5.9l16.4-5.8 1.6-14.8-1.9.7c-2.4.8-2-3.4-1.9-5.3.3-8.6 2.3-14 .7-19.6a7.3 7.3 0 0 0-9.8-4.9l-3.6.6 13.3-26.6c.8-1.4 1.6-2.7 2.9-3l3-.8.6-14.1L55.1 75 54 89.5l2.7-.8c.8 0 .4 1 .2 1.4L43 119.2c-.2.5-1.3 1.2-1.1-.7l2-23.2c0-1.5.7-3.2 1.8-3.5l3.1-.9 1-14.5-28.4 7.5L20.3 99l3.4-.9c.8-.4 1.9.3 1.8 1.5zM88.4 93.2a47 47 0 0 0-9.4 23 53.2 53.2 0 0 0 0 25.4c3.4 9.7 14.6 10.5 23.6 6.6 5.7-2.5 11.1-7 14.9-12.5a52.6 52.6 0 0 0 7.8-22.8c1-8 2.1-16.8-1.9-23.5a14.5 14.5 0 0 0-10.1-6.4 27.6 27.6 0 0 0-24.9 10.2zM212.8 63.6c-8 8.8-9.7 21-9.2 32.3.2 4.7 1 9.8 4.5 12.8 7.4 6.5 20.4 2.8 28.6-4.1 3.6-2.8 6.1-6.6 7.5-10.8.5-1.2.9-2.6 1-3.8l.3-1.6-11.1 2.6-.3 1.6c-1.1 2.6-2.6 5.3-5.3 6.7-2.3.9-5.2.5-6.2-1.6-1.4-2.3-1.1-5.2-.8-7.7l.5-3.1 24.2-5.7.1-1.4c.9-6 1-10.9-.9-15.9a12.8 12.8 0 0 0-9.9-7.8 25.9 25.9 0 0 0-23 7.5zM288.5 50.7a16 16 0 0 0-3.7 15.3c1.7 4.8 7.8 6.2 13 7.9 3 .8 6 3 5 5.8-.9 2-3.1 3.2-5.8 3.5-1 .3-4.2.6-5.1-3.5l-.5-1.8-8.8 1.8-2.2 15.6 7.7-1.8 1.5-2.1 1.1.3c10 2.9 23.8-4 27.9-11.2 3.6-6.3 5.2-17.4-5.1-20.4l-8.8-2.8c-2.6-1-3.1-3.4-2.3-4.5 1.3-2.1 4.9-3.1 7-1.7 1.1.8 1.6 1.2 1.6 2.7l.1 1.8L321 54l1.7-12.8-7.3 1-1.9 2-.9-.4a22.5 22.5 0 0 0-24.1 6.9zM253.5 52.7l-1.2.3-1.5 10.7 1.1-.3 2.6-.5-3.3 29.5c-.4 2.7.7 5.4 3.1 7.1 3.2 2.5 8.1 1.6 12.4 0a24 24 0 0 0 6.3-2.9l2.3-1.9 1.5-10.2-1.3.5c-2.3 1.1-3.7.8-4.6.2-.9-.7-1.1-1.6-.8-2.7l2.6-23.1 7.1-1.2 1.5-10.2-7.3 1 1.6-13.2-18.6 6.7-1 9.7-2.5.5z"/><path d="m278.3 62.5-3.8.7-2.1 18.4 4.4-1.9.4-2.5 8.9-1.8a13 13 0 0 1-6.9-7.3c-.5-1.9-.9-3.8-.9-5.6z"/><path class="st1" d="M124.5 151v-.1l-10.4 3.2v.2c2.6 5.1 5.7 9.7 9.3 14.1l2.4 2.6-.8-3.6a48.5 48.5 0 0 1-.5-16.4z"/><path class="st0" d="m95.8 127.2 2.2-19.8c.4-3 1-7.1 3.4-8.5 1.1-.8 2.5-.9 3.3-.1 1.9 1.6 1.1 4.6 1.1 7.1l-2.1 19.5c-.4 3.7-1.6 9.1-4.6 9.6-3.7.7-3.3-4.4-3.3-7.8zM84.2 79.9l.8-.4c2.5-1.4 6-2.8 7.8-3.5l1-.3-1.6 2.7-1.3.6c-2 .9-4.7 2.2-5.9 3.1l-1 .6.2-2.8zM225.1 67.9c.7-1.7 4.5-3.4 5.5 0 .4 1.5.5 4.2-.2 6.3L230 76l-7.3 1.7.2-1.4c.3-2.6.9-6 2.2-8.4z"/><path d="M310 105c0-2.3 1.9-4.1 4.2-4.1 2.3 0 4.1 1.9 4.1 4.1 0 2.3-1.9 4.1-4.2 4.1a4 4 0 0 1-4.1-4.1zm7.6 0c0-1.9-1.5-3.5-3.5-3.5a3.5 3.5 0 0 0-3.5 3.5c0 1.9 1.5 3.5 3.4 3.5 2 0 3.5-1.5 3.6-3.5zM229.2 89.1l-4.8 1.1v.5l-.3 2.5c0 1.1.2 2 .6 2.7l.4.1.6-.2c1.2-.6 2.1-1.9 3.1-4.2l.4-2.5zM46.3 148.1l.8-10.1.1-1.8v-.8l-2.9.9-1.1 13.2 3.1-1.4zM294 77.8l.4 1.4.2.7.5-.1c1-.1 1.7-.3 2.2-.6-.4-.3-1-.7-1.9-.9l-1.4-.5zM49.2 95.5l-1.6.5-.1.3-.4 4.9 2.6-5.6-.5.1z"/><path d="M312.4 102.6h2.4c.9 0 1.4.6 1.4 1.3 0 .6-.4 1.1-.9 1.2.3 0 .6.3.7.8l.1 1.4h-.9l-.1-.8c0-.8-.4-1.1-.8-1.1h-.9v1.9h-1v-4.7zm2.1 2.2c.4 0 .7-.3.7-.7 0-.4-.3-.7-.7-.7h-1.2v1.4h1.2z"/></svg>