<svg xmlns="http://www.w3.org/2000/svg" viewBox="0 0 591.6 516.3" style="enable-background:new 0 0 591.6 516.3" xml:space="preserve"><style>.st1{fill:#bbb}.st2{fill:#011e41}.st3{fill:#fff}.st4{fill:#d15e14}.st5{fill:#f5a800}</style><g id="Artwork"><path class="st1" d="m572.8 295.7-1.3-10a6 6 0 0 0-3.1-4.6l-19.7-11.5c-1-.6-2.1-.9-3.2-.9l-1.7.2-50.5 14.4-12.8-15.1c-.9-1-2.1-1.8-3.4-2.1l-11-2.6-8.8-17.6.2-16.8v-.8c9.7-1 17.4-3.3 17.8-3.4l.7-.2c.7-.2 1.4-.6 2-1.1l.6-.5c1.5-1.2 2.9-2.6 4.2-4.3a54 54 0 0 0 12.1-3.3c3-1.2 5.7-3 8-5.2a44.7 44.7 0 0 0 20.9 4.9c15.6 0 24.7-8 28.9-13.2a34.1 34.1 0 0 0 16.9-10.5 39.7 39.7 0 0 0 8.8-20.7 41.4 41.4 0 0 0 13.1-29.7 41 41 0 0 0-11.2-27.9 39.5 39.5 0 0 0-25.2-32.8c-4.8-2-10.9-3.1-16.8-3.1a43.2 43.2 0 0 0-25.4-8.1c-12.7 0-24.1 6-30.8 16.1a36.4 36.4 0 0 0-12.6 6 24.4 24.4 0 0 0-4.6 4.5l-3.6-.1-8.4.2-1.9.1c-2.6.1-5.1.3-7.5.6a65.8 65.8 0 0 0-37.7-10.4c-5.3 0-10.9.5-16.7 1.4-4.1.7-8.5 1.8-12.7 3.3l-7.1-.5a84.3 84.3 0 0 0 25.6-24.6c5.7-8.3 14.3-20.8 6.9-34.8-6.1-11.6-17.7-14.3-29.5-15.3-2.3-6.2-8.9-16-27.5-16.1h-.5c-12.7 0-78.9 1.4-132.6 28.6l-1.5.8c-25.9 1.9-44.1 9.9-58.8 25.9a60.1 60.1 0 0 0-15.1 27.7 54.2 54.2 0 0 0-10.7 16.8l-.3.8c-.3.8-.4 1.7-.4 2.6l.1.9c.6 10.2 4.5 18.9 4.6 19.3l.7 1.6a6.4 6.4 0 0 0 3.4 3.3l.3.1.3 3.3a67.8 67.8 0 0 0-12.5 17.4l-.8 1.8c-.7 1.8-.6 3.7.3 5.4l.9 1.6a69.6 69.6 0 0 0-5.7 11.2c-14.3 11.3-22.7 21.8-23.1 22.2l-.8 1c-.8.9-1.2 2.1-1.4 3.3l-.1 1.2c-.5 4.7-.4 12.5-.1 18.8-11.7-12.6-19.5-22.7-19.6-22.8l-2.1-2.7a6.3 6.3 0 0 0-5-2.5c-.9 0-1.8.2-2.6.6l-3.1 1.4a146.3 146.3 0 0 0-55.9 49.2L1 241.1a6.3 6.3 0 0 0 .7 7.6l2.2 2.4c20.2 22 44.1 38.2 61.3 48.2l-21.9 28a6.5 6.5 0 0 0-1.3 3.8l-.5 34.6-9.5 2.7c-2 .6-3.6 2.1-4.3 4.1a6 6 0 0 0 1 5.8l14.5 19.2 2.2 17.3c.2 2 1.4 3.7 3.1 4.7l20.4 11.7a6 6 0 0 0 3.2.8l1.7-.2 38.8-11.1a6 6 0 0 0 3.2-2.2l12.3-15.7 1.5 5.8-1 69.1-6.9 28.3a6.5 6.5 0 0 0 7.9 7.7l54.1-15.5L189 509c.7 1.5 2 2.6 3.5 3.2l10.4 3.8c.7.3 1.4.4 2.2.4l1.7-.2 79-22.5c1-.3 1.9-.8 2.6-1.5l10.3-9.7c1-1 1.7-2.3 1.9-3.6l2.9-18.6 244.6-70a6 6 0 0 0 3.2-2.2l20.1-25.7a5.8 5.8 0 0 0 1.3-3.8l.5-32.1 7.9-2.2c1.9-.5 3.5-2 4.2-3.8.7-1.8.5-3.9-.5-5.6l-12-19.2zm-10.1 22.7-.6 38.5-18.4 23.5L294 451.8l-3.7 23.8-8.5 8-76.8 21.9-7.5-2.7-8.4-17.2-55.6 15.9 5.5-22.4 1-71.7-4.3-17-7.3-24.5-.3 19.6-19.9 25.5-35.7 10.2-17-9.8-2.3-18-12.5-16.6 11.4-3.5.3-40.7 21.9-27.9 15.3-4.4a264.6 264.6 0 0 1-78-56.3s18.2-29.2 51.7-44.7c0 0 34.6 45 70.7 66.8l13-5.6-21.1-11.7s-.6-2.5-.2-6.8a133.6 133.6 0 0 1-23.5-17.5s-1.1-18.8-.3-26.4c0 0 8.7-10.9 23.6-22.3 0 0 2.8-7.6 5.7-12 1.3-1.9 3.2-3.4 5-4.5a34.6 34.6 0 0 1-4.4-6.2s2.7-6.4 13.9-17.9c-.7-3.4-1.3-8.7-.8-14.5a32 32 0 0 1-5.5-1.7s-3.2-7.2-3.7-15.6c0 0 2.9-8 10.7-15.5 0 0 .7-12.2 13-25.5 11.9-12.9 27.7-21.1 53.9-22.6l3.4-1.8C269.9 11 337.4 10.5 345 10.6c9.6 0 15.5 3.2 17.7 9.5.7 2 .9 4.1.5 6.1l3.2.1c10.7.6 21.7 1.3 26.3 10 4.4 8.3-.8 15.9-6.3 23.9-15 21.9-36.7 32.5-70.1 34.4-3 .2-6 .2-9 .2-3.1 0-6.1-.1-9-.3.5 2.5.9 4.9 1.1 7.1 9.5-2 16.4-1.8 16.4-1.8a93 93 0 0 1 19.5 7 94 94 0 0 1 29.1-5.6c6.3-.1 10.6.3 13.5.8 4.3-1.7 8.9-3 13.2-3.7 28.8-4.8 44.2 4.8 49.9 9.7a57 57 0 0 1 10.5-1.2c9.5-.2 15.7-.5 18.9.8 1.4-2.9 3.2-5.7 5.6-7.4a21.5 21.5 0 0 1 13.2-4.8c3.5-8.9 13.9-16.9 28.2-15a31 31 0 0 1 17.5 7.9c5.9-.5 12.1.5 16.4 2.2a28.6 28.6 0 0 1 18.8 27.5 31.3 31.3 0 0 1 11.1 23.2 30.1 30.1 0 0 1-12.6 24.4 32.7 32.7 0 0 1-6.6 19.1c-4 4.4-9.6 7.5-15.2 7.9a25 25 0 0 1-23 12.3 30.6 30.6 0 0 1-21.3-7.6l-3.7 1.6a15.1 15.1 0 0 1-7.8 7c-6.1 2.5-11.6 3-14.4 3.1a17 17 0 0 1-4.4 6s-18.1 5.5-32.8 2.7c0 0-7.4-4-13.5-10.5l7 13.9 14.1 10.3-.2 17.2 12.2 24.3 14.5 3.3 16.3 19.2 55.3-15.8 16.3 9.5 1.3 10.2 10.1 16.2-10.1 2.9z"/><path class="st2" d="m459.6 295-26.6-4.9 8-4.9-7.1-11.1 7.9-10.1 11.7 18.2 12.9 1.6 13.1 16-13.7 4z"/><path class="st2" d="m441.7 266.6 10.9 17 13 1.6 11.3 13.8-10.5 3-5.9-8.4-23.4-4.3 6-3.7-7.3-11.5 5.9-7.5m.3-5.2-2.6 3.3-6 7.6-1.3 1.7 1.1 1.8 5.7 8.9-3.4 2.1-6.6 4.1 7.7 1.4 22.2 4.1 5.2 7.4 1.2 1.7 2-.6 10.5-3 4.4-1.3-2.9-3.5-11.3-13.8-.8-.9-1.2-.1-11.6-1.4-10.1-15.8-2.2-3.7z"/><path class="st3" d="M211.1 250.2c-6.1 12.8-4.6 21.7-3.3 25.9 4.4 3.6 11.9 6.8 20.2-2.5 0 0 13.6 4.6 20.4-9.3 0 0 9.9 3.5 15.7-6.6.5-5.1-.1-10.3-1.3-14.2-4.5-14.7-20-16.8-20-16.8 2.9 2.7 6 6.4 7.7 11.7 5.1 15.6-3.4 17.9-3.4 17.9-.8-13.2-4.9-23.9-14.6-25.8-4.3-.8-7.7-.1-10.1 1l.8.4a23.2 23.2 0 0 1 12.6 23.4c-.7 9.6-9.9 10.8-9.9 10.8s2.7-7.3 1.9-14.3c-1.1-10.3-5.2-11.6-12.7-15.7-7.5-4.1-9-.6-15-1.5-6-.8-9.8 2.3-4.9 9 5 6.9 15.9 6.6 15.9 6.6z"/><path class="st3" d="M186 243.5c-.5-3.9 1-7.8 2.3-10.9 2.9-6.8 10-4.1 17.2-4.9 2.7-.3 4.5-.5 6.2-.5l2.2-1.8c-.7-1.9-2.2-3.7-5.9-4.1-8.4-1-20.5.3-20.5.3a52.9 52.9 0 0 0-14.1 16.2c-5.7-15.8 6.2-24.4 13.5-24.8 6.4-.3 16.5-.9 24.9 1l-9.3-13.6-2.4-1.6c-5.4-2.3-21.1-7-40.4 6.5a47.6 47.6 0 0 0-17.7 22.1l28 23 16-6.9z"/><path class="st1" d="m169.8 250.5-28-23c-3.2 8.2-3.1 14.6-3.1 14.6l21.5 12.5 9.6-4.1z"/><path class="st2" d="m561.3 289.1-16.3-9.5-55.3 15.8-16.3-19.2-14.5-3.3-12.2-24.3.2-17.2-14.1-10.4-7-13.9a60.2 60.2 0 0 0 13.5 10.5c14.6 2.9 32.8-2.7 32.8-2.7 1.8-1.4 3.2-3.7 4.4-6 2.8-.1 8.3-.6 14.4-3.1 4.1-1.7 6.4-4.5 7.8-7 1-.3 2.3-.9 3.7-1.6 2.6 2.5 9.4 7.5 21.3 7.6 13.2.1 19.8-7.1 23-12.3 5.6-.3 11.2-3.5 15.2-7.9 5-5.5 6.3-14.2 6.6-19.1a30 30 0 0 0 12.6-24.4c.2-11.4-7-19.5-11.1-23.2.1-12-6.3-22.4-18.8-27.5a37 37 0 0 0-16.4-2.2 30 30 0 0 0-17.5-7.9 25.7 25.7 0 0 0-28.2 15c-2.3 0-7.3.5-13.2 4.8a20 20 0 0 0-5.6 7.4c-3.2-1.2-9.4-1-18.9-.8-3.7.1-7.2.5-10.5 1.2-5.7-4.9-21.1-14.5-49.9-9.7a67 67 0 0 0-13.2 3.7c-2.9-.5-7.2-.9-13.5-.8a97 97 0 0 0-29.1 5.6 89.5 89.5 0 0 0-19.5-7s-6.9-.2-16.4 1.8c-.2-2.2-.6-4.6-1.1-7.1 2.9.2 5.9.3 9 .3l9-.2c33.5-1.9 55.1-12.5 70.1-34.4 5.5-8 10.7-15.6 6.3-23.9-4.6-8.7-15.6-9.4-26.3-10l-3.2-.1c.4-2 .3-4.1-.5-6.1-2.2-6.2-8.2-9.4-17.7-9.5-7.5 0-75.1.5-128.3 27.5l-3.4 1.8c-26.2 1.5-42 9.7-53.9 22.6-12.3 13.3-13 25.5-13 25.5a45.6 45.6 0 0 0-10.7 15.5c.5 8.4 3.7 15.6 3.7 15.6 1.7.7 3.6 1.2 5.5 1.7-.5 5.7.1 11 .8 14.5-11.2 11.5-13.9 17.9-13.9 17.9 1.2 2.3 2.8 4.3 4.4 6.2a16.4 16.4 0 0 0-5 4.5c-3 4.4-5.7 12-5.7 12-14.9 11.4-23.6 22.3-23.6 22.3-.8 7.6.3 26.4.3 26.4 5.7 6.2 17.7 14 23.5 17.5a23 23 0 0 0 .2 6.8l21.1 11.7-13 5.6c-36.2-21.7-70.7-66.8-70.7-66.8C29.8 214.7 11.6 244 11.6 244c25.3 27.6 56.7 46 78 56.5l-15.3 4.4-21.9 27.9-.4 40.6-11.4 3.5 12.5 16.6 2.3 18 17 9.8 35.7-10.2 19.9-25.4.3-19.6 7.3 24.5 4.3 17-1 71.7-5.5 22.4 55.6-15.9 8.4 17.2 7.5 2.7 76.7-21.9 8.5-8 3.7-23.8 249.8-71.5L562 357l.6-38.5 10-2.9-10.1-16.2-1.2-10.3zm-9 66.5-12.5 16-24.5 7-10.2-5.9-1.9-11.9-3.1-5 18.2-5.2 1.7 10 13.5-3.9 3.1-4 .1-5.3.1-4.5 4.2-5.1.2-.3-31.8 9.1-7-4 .4-26.7 10-12.8 4.2-5.4 24.3-7 10.8 6.3 1.1 8.4 3.1 5-18.2 5.2-1.4-7.2-13.1 3.7-.2.3-4.6 6.2-.1 7.9 1.4.9 24.1-6.9 8.6 4.9-.5 30.2zM281.2 472.4l-2.3 2.2-2.5.7-34 9.7-1.9-10.4-3.5 12-7.4 2.1-1.4-14.4-4.2 16-7.7 2.2.3-19.3-.4 1.3-5.7 19.7-2.6.8-2.5-.9-23.7-51.9-9.3 2.7-4.2-4.4v1.8l-.4 28.9 4.5 9.5-26.1 7.5 2.5-10.3 1.1-74.1-1.3-5.1-1-3.9 50.2-14.3 14.2 10.4-.4 26.1-16.3 20 11.1 21.6.5-1 20.3-77.3 30.2-8.6-3.3 10.2 15.8 57.6 4.5 7.9-5.5 1.6-15 4.3.2-9.3-.6-2.4-1.1-.8-22.3 6.4-2-6-2.7 11 3.2 8.3-18.5 5.3.1.2 2.6 5.1 5-1.4 27.9-8 1.2 8.2 3-9.4 6.8-1.9.5 12.7 4.3-14.1 6.5-1.9-.3 18.7 4.5-15.6 1.3-4.6 9.2-2.6 1.6 1.3-3 19.9zm-162.9-88.1-14 17.9-28 8-11.4-6.6-2.1-16.4-4.1-5.5 21.7-6.2 2.5 14.3 12.2-3.5 3.6-4.6.2-14.5 4.8-6-34.3 9.8-7.6-5 .5-32 16-20.4 28.4-8.1 11.4 6.6 1.2 13.9 4.1 5.5-22.3 6.4-1.6-12.1-16.2 4.6-.2.3-3.4 4.6-.2 14.6 2.2.8 29-8.3 8.2 5.1-.6 36.8zM30.8 239.1c11.9-15.1 29-24.8 29-24.8A269 269 0 0 0 83 239.1a45.4 45.4 0 0 0-3.9 16s4.2-5.9 9-11.3l7 6.1a84.4 84.4 0 0 0-8.5 19.5s7.6-8.5 15-14.2l9.7 7.4a59 59 0 0 0-16 23.4l1.4-1.3c3.3-3.1 12.7-11.3 21.9-16.8a192 192 0 0 0 12.9 8.3l59.1-24.8c2.2 1.9 5.3 3.7 9.7 5.3l-.1.7c-.3 1.5-.8 5.3-.5 9.4l-87.3 32.7c-6.9-2.6-13.6-5.8-20.2-9.2-7.2-3.8-14.1-7.9-20.6-12.1-1.8-8.2-2.4-17.2-2.4-17.2a92.7 92.7 0 0 0-4.1 12.9l-6.9-4.8c1.9-9.5 5.9-23.1 5.9-23.1a96 96 0 0 0-12.3 18.3l-7.6-5.9a231.7 231.7 0 0 1 19.7-27.9 108.6 108.6 0 0 0-26.5 22.4c-6.3-5.3-10.1-8.8-10.1-8.8 1.1-1.8 2.3-3.4 3.5-5zm83-36s12.8-13.9 23.8-18.3l1.5-8c.7-1.6 1.3-4.4 1.3-4.4a32 32 0 0 1 6.4-3.7c3.4 2.4 6 3.7 6 3.7l-4.9 4.8-2.1 5.9c7.5-.2 13.4 2.9 13.4 2.9s-9.6 1.2-15.8 3.9c-6.3 2.8-20.8 15.5-20.8 15.5-.2 4 1 9.6 1 9.6a38 38 0 0 0 9.5 5.3 61.2 61.2 0 0 0-3.9 7.6c-7.8-3.6-15.1-9.3-15.1-9.3-1-6.7-.3-15.5-.3-15.5zm242.9-88h2.5a15.4 15.4 0 0 0-2.9 13.1s13.8-16.8 36.2-18.4a40.6 40.6 0 0 1 28.6 7.1l-4.2 3.2a26.3 26.3 0 0 0-8 9.7 15.2 15.2 0 0 0-.8 10.5s12.7-16.2 30.5-20.5c17.8-4.3 25.2-1.5 25.2-1.5l12.2 19s-4 .4-7.4 3.2a78 78 0 0 0 22.2 15.1c5.2 5.5 8.6 9.9 10.5 13.9 2.2 4.7 2.1 8.8-.1 12.8-.8 1.5-1.9 2.8-3 3.8a18.8 18.8 0 0 0-6.8-6.6c-1.4-.8-3-1.5-4.9-2.1a22.7 22.7 0 0 0 4.4 12.4s-4.1 6-12.1 8.2c-1.2-4-3.4-7.6-5.1-10.2l-2.7-3.7c.2 1.5.2 3.2.1 4.8-.3 4.2-1.3 8-1.3 8s-4.4 6.8-10.7 9.5c-6.3 2.8-18 1.1-18 1.1a21.5 21.5 0 0 1-7.6-8l8.3-2c1.5 1.7 3.3 3.1 5.4 3.6 6.9 2 8.7-2.8 8.7-2.8-1.8-.8-3.2-2.3-4.4-4a29.3 29.3 0 0 1-4.1-12.4c4-.7 6.2-2.8 6.2-2.8s-19.7-1.3-27.8-22.5c0 0-2 1.5-3.5 4.1l-10.6 4.7c1.9-9.4 8.8-16 8.8-16L343 170.5c13.9-8.7 47.6-24.2 47.6-24.2-30.3-3.3-145 59.4-145 59.4 25.8-25.4 121-64.9 121-64.9-33.7 1.1-112.3 42.6-112.3 42.6 18.3-17.1 75-42 75-42-23.4 2.2-51.7 16.5-60.2 21 .8-10.4-5.2-14.9-5.2-14.9.1 8-3.5 14.7-3.5 14.7s-2.6 4.4-15.6 8.3c-24.7 7.5-71.5 5.3-71.5 5.3a67.4 67.4 0 0 1-29.9-24.3c2.4-14 22.3-24 22.3-24s-6.4-.2-11.6 1.4c-.1-2.8.1-5.1.5-6.8 13.1 1 26.4-.9 26.4-.9 10.7-13.2 27-23.5 27-23.5 15.8-3.9 30.2 1.4 30.2 1.4a90.7 90.7 0 0 0 11.9 27.1c3.4 4.8 6.9 8.6 10.3 11.5 12.3 10.5 23.2 9.8 23.2 9.8s4.3-1.2 9.6-6.7c5.3-5.6 4.1-12 4.1-12s-8.8-.4-17-2.5c-1.8-.5-3.4-1.1-4.9-1.8 6-3.2 17.8-9 28.2-11.3 6.6-1.4 12.4-.9 16.9.1l-2.3 1.5c-10.4 8-10.4 15.1-10.4 15.1s28.3-12.6 48.9-14.8zm131.1-9.5c1.1 5.9 4.9 8.9 4.9 8.9s-3.3-13.7 8-21.1A19 19 0 0 1 522 93a14.9 14.9 0 0 0-4.9 12.4s4.7-9.6 20.8-8.3c16.1 1.3 22.3 16.6 22 26.8-.2 9.6-5.2 13.1-5.2 13.1s6.4.5 10.8-4.6c.8 2.4 1.8 6.3 1.6 11.4-.3 9.2-10.3 22.3-22.4 22.2 0 0 2.7 4.4 10.2 4.2-.6 3.3-2.2 8.1-6.9 9.8-8.8 3.2-17.7.7-17.7.7 1.6 3.5 3.5 6 5.6 7.9-1.7 2.1-5.2 4.7-12.3 4.9-6.6.2-10.6-1.9-12.9-3.8 3.2-3.9 6.1-8.4 5.5-14.9l16.2-5.8c-7.6-7.5-8-17.2-7.7-21.7 6.9-1.1 9.7-6.9 9.7-6.9-8.9.2-18.1-.9-23.9-10.1-5.8-9.2-1.8-17.5-1.8-17.5s-6.7 1.1-8.3 7.8l-18 9.8-5.5-11.3c2.7-8.7 8-12.2 10.9-13.5zm9.3 197.5 2.2 18.4-4.8-1-3.4-.7-10.4 3.1-1.1 1.3-.8 53.8 5.5 9.4-5 1.4-21.3 6.1 3.6-11.4.7-47.7.1-4.8 4.3-4.1.3-.3-16.1 4.6-8.3 6.4 2.8-19.8 51.7-14.7zM441 399.8l-4.7 1.3-20.1 5.8 2.4-9.9.9-62.5-2.2-8.6 21.8-6.2-2.4 9.9-.9 62.5 5.2 7.7zm-4.4-140.6L420.3 280l-21.1 6-4.1-4.6-.3 23.7 4.4 10.8-24 6.9 2.4-9.9.9-62.5-1.2-4.7-1-3.9 47-13.4 13.6 10-.3 20.8zm-241.3-15.4c-4.9-6.7-1.1-9.8 4.9-9 6 .8 7.4-2.6 15 1.5 7.5 4 11.6 5.3 12.7 15.7.8 6.9-1.9 14.3-1.9 14.3s9.2-1.3 9.9-10.8a23 23 0 0 0-13.4-23.8c2.4-1.1 5.8-1.8 10.1-1 9.7 1.8 13.8 12.6 14.6 25.8 0 0 8.6-2.3 3.4-17.9-1.7-5.2-4.8-9-7.7-11.7 0 0 15.5 2.1 20 16.8 1.2 3.8 1.8 9 1.3 14.2a23.4 23.4 0 0 1-6.2 14.8l-8.9 1.8s-2 6.6-7.8 10.1c0 0-9.6.6-15.8-1.9 0 0-6.7 8.4-13.5 5.9-5.1-1.8-13.6-4-19.7-8.2l10.8-4.2a9.3 9.3 0 0 0 6 2.9s-.6-1-1.1-2.8c-1.4-4.2-2.8-13.1 3.3-25.9-.2-.2-11.1.1-16-6.6zm229.3-72.2-11.6 8 14.8-4.8 2.7 2.2-18.5 11 24.4-5.6c-.1 1.4 0 2.8.2 4.2l-30.1 9c-1-5.3-3.1-10.4-6.6-15.3l22.7-11.1 2 2.4zM382.5 227c-5.7 3-11.4 3.5-14.8 3.4.3-6.3-2.9-10.6-2.9-10.6s-3.9 15.5-16.1 20.3a37 37 0 0 1-21.6 1c.3-3.2 0-6.3-1-8.7 0 0-4 13.1-12.3 16.3a29.4 29.4 0 0 1-15.9.7c.3-3.5-.3-6.8-1.4-8.8 0 0-4.2 9.6-10.5 12.7a23.3 23.3 0 0 1-11.1 2.4c0-3.8-.6-8-1.8-12.2a40.5 40.5 0 0 0-13.3-20.5 13 13 0 0 1 7.3-5.3 31.7 31.7 0 0 1 24.2 1.7s-1.8-5.4-9.2-8.8a37.3 37.3 0 0 1 21.7-11.1c13.5-1.9 21.5 3.7 21.5 3.7s-2.5-9.2-14.7-11.2a25.5 25.5 0 0 1 21.5-9.5c16.5.9 24.6 8.1 24.6 8.1a20.2 20.2 0 0 0-12-12.4c2.4-2 7.6-4.9 18.2-5.1 4.1-.1 7.8.4 11.1 1.4 9.7 2.9 15.7 10 18.6 18.7 3.9 11.5-1.1 29-10.1 33.8zm-18.2 98.9-22.3 6.4 2.4-9.9.7-45.5-19.8 50.9-5.3-3.1-13-29.3-.6 37.8 3.3 8.3-5.1 1.5-19.3 5.5 2.4-6 1-66.4-1.2-4.7-1-3.9 33-9.4-3.7 9.2 12 28 14.6-39.5 1.7-4.7 22.4-6.4-4.3 10.5-.9 62.5 3 8.2zm-100.6 17-1.1-.8-22.3 6.4-2-5.9-2.7 11 2.1 8.6-4.8 1.4-20.5 5.9 4.7-10.6 17.3-65.9c2.7.5 6.1.8 9.7.6a7 7 0 0 0 2.8-.8c1.6-.8 2.9-2 3.9-3.5 2.8-3.8 4-8.9 4-8.9s3.7 0 8.3-1.2l1.9-.6s1-.8 2.3-2.3l-2.9 6.9 15.8 57.6 4.5 7.9-21.5 6.2h-.1l1.3-9.6-.7-2.4zM141.8 227.6c2.8-7 7.9-15.3 17.7-22.1 19.2-13.4 35-8.8 40.4-6.5l2.4 1.6 9.3 13.6c-8.4-1.9-18.5-1.3-24.9-1-7.2.3-19.2 9-13.5 24.8 0 0 4.8-9.4 14.1-16.2 0 0 12.1-1.3 20.5-.3 3.6.4 5.2 2.3 5.9 4.1-.8.5-1.5 1.1-2.2 1.8-1.7-.1-3.5.2-6.2.5-7.3.8-14.3-2-17.2 4.9-1.3 3.1-2.8 7-2.3 10.9l-16.3 7-9.6 4.2-21.5-12.5c.3-.2.1-6.6 3.4-14.8zm5.3 79.8-1.3 9.6 9.2 31.2 9.7-41.6 1.1-4.5 20.6-5.9-3.6 10.1 8 32.1 11.6-37.5-.7-6a50.4 50.4 0 0 0 13.6 2.1 18 18 0 0 0 3.2-.6l-19 68 3.1 7.9-15.6 4.5-11.3-48.4-11.1 45.9 3.2 8-4 1.2-17.3 5-19.6-65.8-4.4-7.9 24.6-7.4zm353.4-178.1c.3 1.7.7 3.4 1.3 4.9l-11.2 6.8-4.1-2.4-.7-1.3 14.7-8zm14.9 20.5-9.9 4.2-3.5-3.9 10.4-4.9 3.3 1.3-.3 3.3zm-3 14-2.1-3.4 6.1-2.3c.4 1.3.9 2.6 1.6 4l.7 1-5.7 2-.6-1.3zm-14.3-17.4c-1.6-1.3-3.2-2.6-4.8-3.6l9.8-6.1c1.1 1.9 2.6 3.7 4.4 5.2l-9.4 4.5zm-232.7-20.5c10.4 8.9 23.8 9.7 23.8 9.7-2.6 3.2-7.3 4.8-7.3 4.8s-8.8.8-21.6-12.5c-12.4-12.8-16.1-35.2-16.1-35.2 4.8 0 5.4 3.6 5.4 3.6s2.7 18.4 15.8 29.6zm12.1 320.6 2.4-9.9.9-62.5-2.2-8.6 45.9-13.1 10.5 9.7-.2 11.8-5.7 8.4 10.7 4.6-.4 28.2-16.2 18.4-45.7 13zm69.4-19.8 2.4-9.9.9-62.5-2.2-8.6 45.9-13.1 10.5 9.7-.2 11.8-5.7 8.3 10.7 4.6-.4 28.2-16.2 18.4-45.7 13.1zm118.7-141.5 11.3 13.8-10.5 3-5.9-8.4-23.4-4.3 6-3.7-7.3-11.5 6-7.6 10.9 17 12.9 1.7zM366.4 36.6c16.8 1 19.9 2.8 15.8 10.3l-.1.1-1.8 3-.3.4-2.4 3.6C364 73.8 344.4 82.6 315 84.2c-29.4 1.7-52.8-6.8-52.8-6.8 23.2-15.5 101-33.1 101-33.1-51.1 1-114.6 28.3-114.6 28.3-2.6-3.6-10-6.6-10-6.6 33.2-19.1 106.6-30.7 127.8-29.4zm-20.8-15.7c10.7.1 7.2 4 5.1 5.7-9 .7-20.3 2.2-32.4 4.3a330.8 330.8 0 0 0-61.9 15c-6-2.6-13.7-4.2-20-5.1 45.2-18.2 96.7-20 109.2-19.9zM144 105.7s3.7-8.3 11.4-13.6c.3-7.2 3.3-22.6 21.4-33.6a86.7 86.7 0 0 1 67.7-7.3c-2.8 1.2-5.4 2.5-7.9 3.8-6.7-2-19.9-4-38.9 1.4-20.4 5.8-31.3 15-34 33.5l16.7-.9s8.9-11.9 21.4-14.3c0 0 23.2-4.7 32.2 4.3 0 0-21.7-1.2-30.1-.1-8.4 1.2-19.5 16.7-19.5 16.7s-14-1.2-22.2.4c-6 1.2-13.8 11.9-13.8 11.9l-2.1 6c0 .1-2.6-4.1-2.3-8.2z"/><path class="st2" d="m367.2 369 1.1.9 12.3-3.6 6.5-8.1.1-7.4-3-2.2-15.8 4.7-1 1.3zM301.1 405.4l-3.5-4.4-.3 23.7 1.7 1.3 13.7-3.9 8.6-10 .2-10.6-2.7-1.1zM370.5 385.6l-3.5-4.4-.4 23.7 1.7 1.3 13.7-3.9 8.7-10 .2-10.6-2.8-1.2zM230.7 433.1l17.6-5 1.2-1.5-9.1-38.6-10.8 44.3zM169.7 428.7l15-4.2 7.8-10 .3-11.3-7.7-5-15 4.3-1.2 1.5-.3 23.9zM297.8 388.9l1.1.8 12.4-3.5 6.5-8.2.1-7.3-3-2.3-15.8 4.7-1.1 1.3zM240 333.5l1.2.8 17.6-5 1.1-1.5-8.5-35.3-.5-3.3-.7 3.7zM410.6 245.9l-13.9 4-1.1 1.4-.3 19.7 1.2.8 13.7-3.9 5.8-4.6 2.4-5.3.1-6.9-2.2-4z"/><path class="st4" d="m146.3 388.3 17.3-5-2.9-6.9 12.9-53.3 1.9 5.1 11.3 48.4 15.6-4.5-4 1.1-2.8-7.4 18.7-67.1.9-2h-2.8c-3.9-.3-7.4-1.1-10.8-2.1l.7 6-11.6 37.5-2.6 10.2-9.7-39 2.8-7.7-16.5 4.7-9.7 41.6-3.2 7-10.3-34.6 1-7.7-18.3 5.2-2-3.6 4.4 7.9 19.7 66.2zM432.5 259.5l.2-17-12.4-9.1-43 12.3 1.2 4.7-.9 62.5-2.4 9.9 24-6.9-5.1 1.5-3.4-8.5.4-28.6 4.1 1.1 4.1 4.6 21.1-6 16.3-20.8-4.2.3zm-14.1-1.5-2.4 5.3-1.3 4.6-5.7 4.5-13.4 3.8-4.5-3.3.3-23.1 5.2.1 13.9-4.1 5.7 1.3 2.2 4v6.9zM235.6 337.6l10.5-41.8.8-3.1c-.8.4-1.8.7-2.8.8-3.5.3-6.9-.1-9.7-.6l-17.3 65.9-4.7 10.6 20.5-5.9-2.2-6.4 4.9-19.5z"/><path class="st4" d="M264.1 347.3v.2l-1 7.4 21.5-6.2-5.5 1.6-3-5.4-16-58.4 3-7.3c-4.5 1.2-8.3 1.2-8.3 1.2s-1.2 5-4 8.9l.5 3.3 8.6 35.3-1.2 1.5-2.5 4.9-19.4 5.5 1.5 2.7 2 5.9 22.3-6.4 1.1.8.6 2.4-1.3 9.6 1.1-7.5z"/><path class="st1" d="m160.7 376.4 2.9 6.9 4-1.2-3.2-8 11.1-45.9-1.9-5zM195.6 366l2.8 7.4 4-1.1-3.1-7.9 19-68a18 18 0 0 1-3.2.6l-.9 2-18.6 67zM256.2 334.2l2.5-4.9-17.6 5-1.1-.8 10.2-40.7.6-3.6a11.8 11.8 0 0 1-3.9 3.5l-.8 3.1-10.5 41.8-4.8 19.5 2.2 6.4 4.8-1.4-2.1-8.6 2.7-11-1.5-2.7 19.3-5.6zM142.5 312.9l-1 7.6 10.3 34.6 3.2-7-9.2-31.1 1.3-9.6-24.9 7.1 2 3.6zM178.5 309.5l9.7 38.9 2.6-10.1-8-32.1 3.6-10.1-20.6 5.9-1.1 4.5 16.6-4.7zM264.1 347.3l-1.1 7.6h.1v-.1l1-7.4zM390.6 308.9l3.5 8.5 5.1-1.4-4.4-10.9.4-23.7-4.2-1.1zM276.1 344.8l3 5.4 5.5-1.6-4.5-7.9-15.8-57.6 2.9-6.9c-1.3 1.5-2.3 2.3-2.3 2.3l-1.9.6-3 7.3 16.1 58.4zM376.3 241.8l1 3.9 43-12.2 12.4 9.1-.2 16.9 4.1-.3.3-20.9-13.5-9.9z"/><path class="st1" d="m396.5 271.8-1.2-.8.3-19.7 1.1-1.4h-5.2l-.3 23.1 4.4 3.2 13.4-3.8 5.7-4.4 1.3-4.7-5.8 4.6z"/><path class="st4" d="m204.7 467.6 5.4-1.5-.1-.2 18.5-5.3-5.1 1.4-2.8-6.7 4.6-19 12.3-49.7 3 1.3 9.1 38.6-1.2 1.5-1.4 4.6-20.5 5.9 1.5 2.7 2 6 22.3-6.4 1.1.8.6 2.4-.2 9.3 15-4.3-3-5.4-16-58.3 2.6-8-26.4 7.5 1.2-4.5-20.3 77.3-.5 1 .1 2-2.4 5.5-13.3-25.9 4.6-3.1 16.5-20.4-4.2.3.3-22.2-13-9.5-46.1 13.2 1.3 5.1-1.1 74.1-2.5 10.3 26.1-7.5-5.3 1.5-3.4-7.2.5-37 4.1 4.3v-1.8l4.2 4.4 9.3-2.7 23.7 51.9 2.5.9 2.6-.8 5.7-19.7-7.2 2-4.7-8.7zm-38-33.8-2.3-1.7.4-31.1 5.1 1.7-1 1.3 1.2-1.5 14.9-4.3 7.7 5-.3 11.3-.2 3-9.1 11.6-16.4 4.7zM272.2 458.4l-4.5 15.6-.8 3.9-24.5 7 34-9.7 3.1-18.9zM339.6 415l-4.2 4.8.4-28.5-11.6-5 5.1-4.1 5.7-8.4-4.2-.1.1-7.5-9.5-8.7-41.7 11.9-1-3.9 2.2 8.6-.9 62.5-2.4 9.9 45.9-13.1 16.1-18.4zm-45.7-41.9h5.2l15.8-4.6 3 2.2-.1 7.3-6.5 8.2-1.5 4.6-14 4-2.3-1.7.4-20zm27.4 39-8.7 10 8.5-9.7-.1 4.6-8.3 9.3-16.9 4.8-2.8-2.1.4-29.8 4.1 1.8 3.5 4.4 17.6-5 2.8 1.1-.1 10.6zM229.7 488.6l7.3-2.1v-.1l-7.3 2.1zM216.4 492.3l7.7-2.2-7.7 2.2zM404.7 400l.4-28.5-11.6-5 5.1-4.1 5.7-8.3-4.2-.1.1-7.5-9.5-8.7-41.7 11.9-1-3.9 2.2 8.6-.9 62.5-2.4 9.9 45.9-13.1 16.2-18.4-4.3 4.7zm-41.5-46.7h5.2l15.8-4.6 3 2.2-.1 7.3-6.5 8.2-1.5 4.6-14 4-2.3-1.7.4-20zm27.5 39-8.7 10 8.5-9.7-.1 4.6-8.3 9.3-16.9 4.8-2.8-2.1.4-30 4.1 2 3.5 4.4 17.6-5 2.8 1.1-.1 10.6zM548.5 329.7l-7.4-4.2-24.2 6.9-2.5-1.7.1-11.2 4.3-5.9 4.5-1.3.2-.3 13.1-3.7 1.4 7.2 18.1-5.2-5.6 1.7-1.7-2.7-1-8-9.6-5.6-25.6 7.3-10 12.8-.4 26.7 7 4 31.8-9.1-.3.3 4.7-1.3-8.9 11-.1 5.3-3.1 4-1.4 4.7-16 4.5-1.7-10-12 3.4-2.2-3.5 3.1 5 1.9 11.9 10.2 5.9 24.6-7 12.5-16-4.2.4zM432.6 332.7l1.8-7.5-16 4.6-1-3.9 2.2 8.6-.9 62.5-2.5 9.9 20.2-5.8-4.7-6.2zM444.9 322.2l.6-4.4-2.7 19.8 8.2-6.4 16.1-4.5-.3.3 5.7-1.7-10.1 10.6-.7 47.6-3.6 11.4 21.3-6.1-4.7-7.4.8-56.9 5.2-1.6 10.5-3.1 3.4.7-1.5-12.1z"/><path class="st1" d="m246.9 432.7 1.4-4.6-17.6 5-1.1-.8 10.8-44.3-3-1.3-12.2 49.7-4.7 18.9 2.8 6.7 5.1-1.4-3.2-8.3 2.7-11.1-1.5-2.6zM297.3 424.7l.3-23.7-4.1-1.8-.4 29.8 2.8 2.1 16.9-4.9 8.3-9.2v-4.6l-8.4 9.7L299 426zM309.8 390.8l1.5-4.6-12.4 3.5-1.1-.8.2-14.5 1.1-1.3h-5.2l-.3 20 2.2 1.7zM207.8 394.7l-.3 22.2 4.2-.3.3-26.1-14.1-10.4-50.2 14.4 1 3.9 46.1-13.2zM203.9 466l2.4-5.4v-2L195.2 437l-4.6 3.1z"/><path class="st1" d="m252.2 377.3-2.6 8 16.1 58.3 3 5.4 5.5-1.5-4.4-8-15.9-57.6 3.3-10.2-30.2 8.6-1.2 4.5zM273.5 453.8l-1.3 4.6 7.3-2.1-3.1 18.9 2.5-.7 2.3-2.1 3.1-19.9-1.6-1.3zM212.7 471.1l-2.6-5.1-5.4 1.6 4.5 8.7 7.2-2 .3-1.3 1-3.3zM547.8 301.3l1 8 1.7 2.7 5.6-1.7-3.1-5-1.1-8.4-10.7-6.3-24.4 7-4.2 5.4 25.6-7.3zM540.7 337.7l-4.2 5.1v4.6l8.9-11zM192.5 414.5l-7.8 10-15 4.2-1.1-.8.3-23.9 1-1.2-5.1-1.7-.5 31 2.4 1.7 16.5-4.7 9.1-11.6zM163.7 474.8l3.4 7.1 5.4-1.5-4.6-9.5.5-28.8h-.1l-4-4.3zM474.7 381.4l4.7 7.4 5-1.4-5.5-9.4.8-53.8 1-1.3-5.2 1.6zM436.8 329.6l2.4-9.9-21.8 6.2 1 3.9 16-4.6-1.8 7.5-.9 62.2 4.7 6.2 4.6-1.3-5.1-7.8zM444.9 322.2l48.2-13.8 1.5 12.1 4.7 1-2.2-18.4-51.6 14.7zM466.8 327l-4.3 4.1-.1 4.8 10.1-10.6zM514.2 355.9l1.7 10 16-4.5 1.4-4.7-13.5 3.9-1.7-10-18.1 5.2 2.2 3.5z"/><path class="st1" d="m520 327.4-1.4-1 .1-7.9 4.6-6.2-4.5 1.3-4.3 5.9-.1 11.2 2.5 1.7 24.2-6.9 7.4 4.2-.4 26.3 4.2-.4.4-30.2-8.6-4.9zM379.1 370.9l1.5-4.6-12.3 3.6-1.1-.9.2-14.4 1-1.3h-5.2l-.3 20 2.3 1.6zM366.6 404.9l.4-23.7-4.2-2-.4 30 2.8 2.1 16.9-4.9 8.3-9.3.1-4.6-8.5 9.8-13.7 3.9zM321.4 357.5l9.5 8.7-.1 7.6h4.1l.2-11.7-10.5-9.7-45.9 13.1 1 3.9zM335.8 391.3l-.4 28.5 4.2-4.8.4-28.2-10.7-4.6-5.2 4.1zM390.8 337.7l9.4 8.7-.1 7.5 4.2.1.2-11.7-10.6-9.7-45.8 13.1 1 3.9zM405.1 371.4l-.4 28.6 4.2-4.9.4-28.1-10.7-4.6-5.1 4z"/><path class="st3" d="m250.1 126.2-9.3-2.8s-3.6 0-13.1 2.9c-9.5 3-33.8 19-33.8 19l-13.5 2.5-.7 9.2s-3.7 1.5-8.3 2.5c1.1 2.4 3.1 6.2 6.2 8.3 0 0-6 .9-12.5-7.6-5.9.1-8.8-.8-8.8-.8l-5.2-5.6-7.7-2.3s11.5 17.9 29.9 24.3c0 0 46.8 2.2 71.5-5.3 13-3.9 15.6-8.3 15.6-8.3s3.6-6.8 3.5-14.7c0 0-1-4.1-3.5-9.8a59.5 59.5 0 0 1-10.3-11.5zm-32.3 32.1c5.1-4.6 27-9.9 27-9.9a43 43 0 0 0-5.1-2.8A81 81 0 0 0 223 151c3.5-3.3 7.5-6.1 10.4-7.9-3.2-1.1-5.4-1.5-5.4-1.5-12.8 5.3-30.9 20.2-30.9 20.2 4.8-13.9 30-27.5 30-27.5s8 1.4 17 6.5c8.9 5.1 12.2 11.1 12.2 11.1-11.6 2.8-38.5 6.4-38.5 6.4z"/><path class="st1" d="M451.1 194.6c1.1 1.7 2.6 3.2 4.4 4 0 0-1.7 4.8-8.7 2.8-2-.6-3.8-1.9-5.4-3.6l-8.3 2c1.7 2.8 4.3 6.3 7.6 8 0 0 11.7 1.6 18-1.1 6.3-2.8 10.7-9.5 10.7-9.5s1-3.8 1.3-8c-6.2 7.1-14.1 6.9-19.6 5.4zM473.5 187.9c1.7 2.6 3.9 6.2 5.1 10.2 8-2.2 12.1-8.2 12.1-8.2a19 19 0 0 0-2-8.4c-4.2 5.5-11.9 6.4-15.2 6.4zM491.3 179.6c3.3 1.9 5.4 4.3 6.8 6.6 1.1-1 2.2-2.3 3-3.8 2.2-4.1 2.3-8.1.1-12.8a19 19 0 0 1-9.9 10z"/><path class="st5" d="m318.2 115 2.3-1.5a38 38 0 0 0-16.9-.1 119.4 119.4 0 0 0-28.2 11.3c1.5.7 3.1 1.4 4.9 1.8 8.1 2 17 2.5 17 2.5s1.2 6.4-4.1 12-9.6 6.7-9.6 6.7-10.8.7-23.2-9.8c2.5 5.6 3.5 9.8 3.5 9.8s6 4.6 5.2 14.9c8.6-4.6 36.8-18.8 60.2-21 0 0-56.7 24.9-75 42 0 0 78.7-41.6 112.3-42.6 19.4-6.6 35-9.7 42.2-10.9a28 28 0 0 1 8-9.7c1.4-1.2 2.8-2.2 4.2-3.2-6.7-5-15.5-8-28.6-7.1-22.4 1.5-36.2 18.4-36.2 18.4-1.2-4.8.1-9.2 2.9-13.1h-2.5c-20.6 2.2-48.9 15-48.9 15s.1-7.4 10.5-15.4z"/><path class="st3" d="M245.6 205.7s114.8-62.7 145-59.4c0 0-33.7 15.5-47.6 24.2l77.1-20.8s-6.9 6.6-8.8 16l10.6-4.7c1.5-2.5 3.5-4.1 3.5-4.1a34 34 0 0 0 27.8 22.5s-2.2 2.1-6.2 2.8c.3 2.7 1.3 8.3 4.1 12.4a18.5 18.5 0 0 0 19.7-5.5c.1-1.6.1-3.2-.1-4.8 0 0 1.2 1.4 2.7 3.7 3.3-.1 11-.9 15.3-6.4-1.2-2.5-2.4-4-2.4-4 1.9.6 3.5 1.3 4.9 2.1 2.2-.9 6.7-3.5 9.9-10.1-1.8-4-5.2-8.5-10.5-13.9a78 78 0 0 0-22.2-15.1c3.5-2.8 7.4-3.2 7.4-3.2l-12.2-19s-7.4-2.8-25.2 1.5c-17.8 4.3-30.5 20.5-30.5 20.5-.6-2.6-1.1-6.2.8-10.5-7.1 1.2-22.8 4.3-42.2 10.9.1-.1-95.1 39.4-120.9 64.9z"/><path class="st4" d="m180.4 147.9 13.5-2.5c1-4.2 2.6-7.2 2.6-7.2-3.1-.6-5-3-5-3l-8.2 4.2c-6.8-3-7.8-10.2-7.8-10.2 5 2.4 8 3 8 3l6.4-3.4c6.6-14.9 19-24.6 19-24.6 17.9-3.5 25.6 6.1 25.6 6.1l-6 .6c1.9 1.8 1.6 6.6 1.6 6.6 4.8.6 10.6 6 10.6 6l9.3 2.8-2.1-3.1c-6.6-10.4-9.8-24-9.8-24s-14.4-5.3-30.2-1.4c0 0-16.3 10.3-27.1 23.4 0 0-13.3 1.9-26.4.9-.4 1.7-.6 4.1-.5 6.8 5.2-1.6 11.6-1.4 11.6-1.4s-19.9 10-22.3 24l7.7 2.3c.2 0 11.6 1.2 29.5-5.9z"/><path class="st1" d="M518 162.1c-.7-1.3-1.2-2.6-1.6-4l-6.1 2.3 2.1 3.4.6 1.3 5.7-2-.7-1zM502.1 150.1l3.5 3.9 9.9-4.2.4-3.3-3.3-1.3-10.5 4.9z"/><path class="st1" d="m482.5 130.6 18-9.8c1.5-6.8 8.3-7.8 8.3-7.8s-3.9 8.3 1.8 17.5c5.8 9.2 14.9 10.3 23.9 10.1 0 0-2.7 5.8-9.7 6.9-.3 4.5.1 14.2 7.7 21.7l-16.2 5.8c.6 6.5-2.3 10.9-5.5 14.9 2.3 1.9 6.3 4 12.9 3.8 7.1-.2 10.6-2.8 12.3-4.9-2.1-1.8-4-4.4-5.6-7.9 0 0 8.9 2.5 17.7-.7 4.7-1.7 6.4-6.5 6.9-9.8-7.5.2-10.2-4.2-10.2-4.2 12 .1 22.1-13.1 22.4-22.2.1-5.2-.8-9-1.6-11.4-4.5 5.1-10.8 4.6-10.8 4.6s5-3.6 5.2-13.1c.3-10.2-5.9-25.6-22-26.8-16.1-1.3-20.8 8.3-20.8 8.3-.2-5.7 1.8-9.7 4.9-12.4a19 19 0 0 0-21.3.4c-11.3 7.4-8 21.1-8 21.1s-3.9-3-4.9-8.9c-2.9 1.2-8.2 4.8-10.9 13.7l5.5 11.1z"/><path class="st1" d="m503.1 136.7-9.8 6.1a75 75 0 0 1 4.8 3.6l9.4-4.5a18 18 0 0 1-4.4-5.2zM486.5 138.6l4.1 2.4 11.2-6.8c-.6-1.5-1-3.2-1.3-4.9l-14.7 7.9.7 1.4zM406.4 195.6l30.1-9c-.2-1.4-.3-2.8-.2-4.2L412 188l18.5-11-2.7-2.2-14.8 4.8 11.6-8c-.8-.9-1.5-1.7-2-2.5l-22.7 11.1c3.4 5 5.6 10.1 6.5 15.4z"/><path class="st4" d="M392.6 193.1a27.7 27.7 0 0 0-18.6-18.7 23.4 23.4 0 0 1 3.4 23.2c-4 10.1-13.2 12.8-13.2 12.8-1.5-5.9-6.6-11.2-6.6-11.2s-1.1 13.9-11.5 21.6c-8.2 6.1-18.4 4.6-18.4 4.6.9-5.5-3-12.6-3-12.6s-1.9 7.4-11.2 14.9c-10 8.1-16.7 5.9-16.7 5.9-.2-4.8-3.4-7.1-3.4-7.1-4.9 14.4-15 16.8-20.4 17a45 45 0 0 1 1.8 12.2c3.5.1 7.4-.5 11.1-2.4 6.3-3.2 10.5-12.7 10.5-12.7 1.1 2 1.7 5.3 1.4 8.8 3.1.6 9.8 1.6 15.9-.7 8.2-3.2 12.3-16.3 12.3-16.3 1 2.4 1.3 5.5 1 8.7a37 37 0 0 0 21.6-1c12.2-4.7 16.1-20.3 16.1-20.3s3.2 4.4 2.9 10.6c3.4.1 9.1-.3 14.8-3.4 9.1-4.8 14.1-22.3 10.2-33.9z"/><path class="st5" d="M293.6 226.5s3.1 2.3 3.4 7.1c0 0 6.6 2.2 16.7-5.9 9.3-7.5 11.2-14.9 11.2-14.9s4 7.1 3 12.6c0 0 10.2 1.4 18.4-4.6 10.4-7.7 11.5-21.6 11.5-21.6s5.1 5.3 6.6 11.2c0 0 9.2-2.7 13.2-12.8a23.4 23.4 0 0 0-3.4-23.2c-3.3-1-7-1.5-11.1-1.4-10.6.2-15.8 3.1-18.2 5.1a20 20 0 0 1 12 12.4s-8-7.2-24.6-8.1a25.7 25.7 0 0 0-21.5 9.5c12.1 2.1 14.7 11.2 14.7 11.2s-8-5.6-21.5-3.7a38.6 38.6 0 0 0-21.7 11.1c7.4 3.4 9.2 8.8 9.2 8.8-7.5-4-15.9-4.1-24.2-1.7-3.6 1-5.9 3.2-7.3 5.3a39.5 39.5 0 0 1 13.3 20.5c5.2-.1 15.3-2.5 20.3-16.9zM133.3 220.5a39.6 39.6 0 0 1-9.5-5.3s-1.1-5.6-1-9.6c0 0 14.5-12.7 20.8-15.5 6.3-2.8 15.8-3.9 15.8-3.9s-5.9-3.1-13.4-2.9l2.1-5.9 4.9-4.8s-2.6-1.3-6-3.7a32 32 0 0 0-6.4 3.7s-.6 2.8-1.3 4.4l-1.5 8c-11 4.3-23.8 18.3-23.8 18.3s-.7 8.8.5 15.6c0 0 7.3 5.7 15.1 9.3a36 36 0 0 1 3.7-7.7zM63.8 230.4l5.8-5c-3.3-3.6-6.6-7.3-9.7-11.2 0 0-17.1 9.7-29 24.8 3.4 3.3 7 6.4 10.6 9.5 5.2-5.5 13.2-12.8 22.3-18.1zM200.2 257.4l.1-.7a30.7 30.7 0 0 1-9.7-5.3l-59.1 24.8s-5-2.9-12.9-8.3a148.1 148.1 0 0 0-21.9 16.8c9.7 5 16 7.7 16 7.7l87.5-35z"/><path class="st4" d="M41.4 248.5c-3.6-3-7.1-6.2-10.6-9.5a45.4 45.4 0 0 0-3.6 5s3.7 3.5 10.1 8.8l4.1-4.3zM112.4 299.5l87.3-32.7c-.3-4.1.2-7.9.5-9.4l-87.5 34.9s-6.3-2.7-16-7.7a32 32 0 0 0-1.4 1.3l-3.1 4.3c6.6 3.5 13.3 6.6 20.2 9.3z"/><path class="st3" d="m44.1 258.4 7.6 5.9A101 101 0 0 1 64 246s-4 13.5-5.9 23.1l6.9 4.8c.9-3.3 2.3-8.3 4.1-12.9 0 0 .5 9 2.4 17.2 6.5 4.2 13.4 8.3 20.6 12.1l3.1-4.3a59.9 59.9 0 0 1 16-23.4l-9.7-7.4a124 124 0 0 0-15 14.2c2.2-7.8 6-15.1 8.5-19.5l-7-6.1c-4.8 5.4-9 11.3-9 11.3.4-6.8 2.4-12.6 3.9-16-4.5-4.2-9-8.8-13.5-13.6l-5.8 5c.2-.1-14.3 17.7-19.5 27.9z"/><path class="st2" d="m228.6 110.8 6-.6s-7.8-9.6-25.6-6.1c0 0-12.5 9.7-19 24.6l-6.4 3.4s-3-.6-8-3c0 0 1 7.2 7.8 10.2l8.2-4.2s1.9 2.4 5 3c0 0-1.6 3-2.6 7.2 0 0 24.4-16.1 33.8-19 9.5-2.9 13.1-2.9 13.1-2.9s-5.7-5.4-10.6-6c-.1 0 .2-4.8-1.7-6.6zM198.2 130l1.5-2.9c1.1 2 2.6 3.5 4.6 4.5l-2.7 2c-2.4-.4-3.4-3.6-3.4-3.6zm26.1-7.8c-5.9 1.4-11 3.9-14.9 6.2-2.5-1.1-3.7-2.9-3.7-2.9s4 .4 9.1-2a7.3 7.3 0 0 0 3.9-4.5c-.6.3-1.3.5-2.1.5a5.2 5.2 0 0 1-5.1-4.8l.2-1.5 1.2-1.1c3.2-.8 8-.4 8-.4 3.8 4.1 3.4 10.5 3.4 10.5z"/><path class="st3" d="m199.7 127.1-1.5 2.9s1 3.2 3.4 3.6l2.7-2a10 10 0 0 1-4.6-4.5zM212.8 112.1l-1.2 1.1-.2 1.5a5.1 5.1 0 0 0 5.1 4.8c.8 0 1.5-.2 2.1-.5a7.3 7.3 0 0 1-3.9 4.5c-5.1 2.4-9.1 2-9.1 2s1.2 1.8 3.7 2.9c3.9-2.3 9-4.8 14.9-6.2 0 0 .4-6.4-3.4-10.4 0 0-4.8-.5-8 .3z"/><path class="st2" d="M244.1 140.7c-8.9-5.1-17-6.5-17-6.5s-25.2 13.7-30 27.5c0 0 18.1-14.9 30.9-20.2 0 0 2.2.5 5.4 1.5a73.4 73.4 0 0 0-10.4 7.9s9-4.1 16.7-5.4c1.7.8 3.5 1.7 5.1 2.8 0 0-21.9 5.3-27 9.9 0 0 26.9-3.6 38.4-6.5 0 .1-3.2-5.9-12.1-11zM151.1 153.8l5.2 5.6s3 1 8.8.8c6.6 8.5 12.5 7.6 12.5 7.6-3-2.1-5.1-5.9-6.2-8.3 4.7-.9 8.3-2.5 8.3-2.5l.7-9.2c-17.9 7.2-29.3 6-29.3 6z"/><path class="st4" d="M256.4 45.9a322.9 322.9 0 0 1 61.9-15c12.1-2.1 23.3-3.5 32.4-4.3 2.1-1.8 5.6-5.7-5.1-5.7-12.5-.1-64 1.7-109.2 19.9 6.3 1 14.1 2.6 20 5.1z"/><path class="st3" d="M249.6 96.3s-.6-3.6-5.4-3.6c0 0 3.7 22.4 16.1 35.2 12.8 13.2 21.6 12.5 21.6 12.5s4.7-1.6 7.3-4.8c0 0-13.5-.8-23.8-9.7-13.1-11.2-15.8-29.6-15.8-29.6z"/><path class="st1" d="M148.4 108.1s7.8-10.7 13.8-11.9c8.2-1.6 22.2-.4 22.2-.4s11.1-15.6 19.5-16.7c8.4-1.2 30.1.1 30.1.1-9-9-32.2-4.3-32.2-4.3-12.5 2.2-21.4 14.1-21.4 14.1l-16.7.9c2.8-18.5 13.7-27.7 34-33.5 19-5.4 32.2-3.3 38.9-1.4 2.5-1.3 5.1-2.6 7.9-3.8a86.2 86.2 0 0 0-67.7 7.3 41.1 41.1 0 0 0-21.4 33.6c-7.7 5.2-11.4 13.6-11.4 13.6-.4 4.2 2.3 8.4 2.3 8.4l2.1-6z"/><path class="st4" d="M380 50.4zM238.6 65.9s7.4 3 10 6.6c0 0 63.4-27.3 114.6-28.3 12.3-1.1 17.6-.1 18.9 2.5 4.1-7.5 1-9.3-15.8-10.3-21.1-1.1-94.5 10.5-127.7 29.5zM382.1 47z"/><path class="st1" d="M248.4 264.4c-6.7 13.9-20.4 9.3-20.4 9.3-8.4 9.3-15.8 6.1-20.2 2.5l1.1 2.8a8.4 8.4 0 0 1-6-2.9l-10.8 4.2c6.1 4.3 14.6 6.4 19.7 8.2 6.8 2.4 13.5-5.9 13.5-5.9 6.2 2.4 15.8 1.9 15.8 1.9 5.8-3.6 7.8-10.1 7.8-10.1l8.9-1.8c3.9-3.7 5.7-9.2 6.2-14.8-5.7 10.1-15.6 6.6-15.6 6.6z"/><path class="st5" d="M363.2 44.3s-77.8 17.6-101 33.1c0 0 23.4 8.5 52.8 6.8 29.4-1.7 49.1-10.5 62.6-30.3l2.4-3.6.3-.4 1.8-3 .1-.1c-1.4-2.5-6.7-3.5-19-2.5z"/><path class="st3" d="m267.7 474 .2-18.7-6.5 1.9-4.3 14.1-.5-12.7-6.8 1.9-3 9.4-1.2-8.2-27.9 8-1 3.3-.3 19.3 7.7-2.2 4.2-16 1.4 14.4 7.3-2.1 3.5-11.9 1.9 10.4 24.5-7z"/><path class="st4" d="m114.6 351.8-7-4.3-28.7 8.2-3.7-1.4.3-17.5 3-4.9 4.6-1.2.2-.3 16.1-4.7 1.6 12.1 22.3-6.4-6 1.7-2.3-3.1-1.2-13.5-10.3-5.9-29.6 8.4 4.3-5.4-16 20.4-.5 32 7.7 5 34.2-9.7 4.6-1.2-9.5 11.7.1-4.6-.2 14.5-3.6 4.6-2.5 4.9-13.6 3.9-2.5-14.3-15.2 4.3-2.6-3.4 4.2 5.5 2 16.4 11.5 6.6 28-8 14-17.9-4.2.3z"/><path class="st1" d="m76.4 380.8 2.5 14.3 13.6-3.9 2.5-4.9-12.2 3.4-2.5-14.2-21.7 6.2 2.6 3.4zM108.2 360.1l-4.6 1.2-4.8 5.9-.1 4.6zM103.5 310.6l10.3 5.9L115 330l2.3 3.1 6-1.7-4.2-5.4-1.1-13.9-11.5-6.6-28.3 8.1-4.3 5.4z"/><path class="st1" d="m81.7 350.7-2.2-.8.2-14.6 3.4-4.6-4.6 1.2-3 4.9-.3 17.5 3.7 1.4 28.7-8.2 7 4.3-.5 32.8 4.2-.3.5-36.8-8.1-5.1z"/><path class="st4" d="m356.8 321.4 1-63.3 3.2-7.7-18.8 5.4-14.6 39.4-2.7 7.4-13.6-31.9 2.8-6.9-26.7 7.7 1.2 4.6-1 66.4-2.4 6 19.3-5.5-2.3-6 .7-48.8 4 7.3 13.1 29.2 5.3 3.1-2.5-1.5 20.7-53.7 1.6 4.3-.7 45.5-2.4 9.9 22.3-6.4-5.1 1.5z"/><path class="st1" d="m302.2 337 2.3 6 5.1-1.5-3.2-8.2.5-37.8-4-7.3zM322.8 326.3l2.5 1.5 19.8-50.9-1.6-4.3zM311.3 270.7l13.6 31.9 2.7-7.4-11.9-27.9 3.7-9.2-33 9.4 1 4 26.7-7.7zM366.3 244.7l-22.4 6.4-1.7 4.7 18.8-5.4-3.2 7.7-1 63.3 2.4 6 5.1-1.5-3.2-8.3.9-62.4z"/><path class="st4" d="M262.2 77.4s12 4.4 29.7 6.2c0 0 27.1-8.5 40.4-20.4l-50 12.7a393 393 0 0 0 59-26.2c-24.8 6.4-63.8 17.5-79.1 27.7"/></g></svg>