<svg version="1.1" id="Mariners_Logo" xmlns="http://www.w3.org/2000/svg" x="0" y="0" viewBox="0 0 457.2 265.3" style="enable-background:new 0 0 457.2 265.3" xml:space="preserve"><style>.st0{fill:#00354f}.st2{fill:#00ac43}.st5{fill:#c6c6c6}</style><g id="Mariners_Type"><path class="st0" d="M53 263.6h22.5c-3.9-3.8-5-11.4-5-11.4s-5.9-31.6-6.5-37.3c-.5-5.1 2.9-8.1 2.9-8.1h-19L37.8 229l-10.2-22.2H8.7s3.4 3 2.9 8.1c-.6 5.7-6.5 37.3-6.5 37.3s-1.1 7.6-5 11.4h22.5s-2.6-1.8-2.3-7.5c.5-10.6 3.8-26.9 3.8-26.9l13.8 28.1 13.8-28.1s3.2 16.3 3.8 26.9c.1 5.7-2.5 7.5-2.5 7.5zM221.8 255.3v-40.1c0-6.6 2.5-8.3 2.5-8.3h-18.5s2.5 1.8 2.5 8.3v40.1c0 6.6-2.5 8.3-2.5 8.3h18.5s-2.5-1.8-2.5-8.3zM455.8 240.5c-.8-1.7-2-3.3-3.5-4.5-5.4-4.7-13-5.6-19.6-7.7-1.4-.5-3.2-1-4.1-2.3-.8-1-1-2.9-.3-4 1.5-2.9 5.9-3.3 8.6-3 3 .4 8.2 2 11.7 3.9.7-10.5 7.5-15.4 7.5-15.4s-8.9-.6-13.5-.7c-6.8-.1-15.1-.3-20.9 4-2.7 2-5 4.5-6.2 7.7a19.3 19.3 0 0 0-.4 11.4c2.3 8.2 11.1 10.3 18.4 12.2 1.8.4 3.5.9 5.2 1.5 1.5.6 3.8 1.6 4.6 3.1.7 1.4.4 3.3-.6 4.4-1.1 1.2-2.9 1.6-4.5 1.7-4.1.4-8.1-1.1-11.7-3-3.5-1.9-6.4-4.4-6.4-4.4l-8.2 10.2 4 3.2c3.3 2.3 7 4 11 5 7.7 2 17.2 2 23.8-3a16 16 0 0 0 5.9-9.3c.9-3.4.8-7.6-.8-11zM114.9 206.8H99s2.7 2.9 1.1 6.8c-.2.5-12.4 32.9-17.4 43.6a23 23 0 0 1-4.4 6.4h18.8c-1.2-1.4-1.4-3.9-.7-5.6l2.8-6.8h19l2.8 6.8a6 6 0 0 1-.7 5.6h19.1c-2.4-2.5-3.7-5-4.6-6.9-5.5-12.3-19.9-49.9-19.9-49.9zM103.5 239l5.2-14.9 5.2 14.9h-10.4zM181.6 243.1a18 18 0 0 0 11.5-17.5c0-5.4-1.8-9.8-5.1-13.1a22.5 22.5 0 0 0-16.5-5.8h-28.3s2.1 1.7 2.5 7.6V256c-.3 4.6-1.6 6.6-2.2 7.6h18.2c-.7-1.1-2.2-4-2.3-9.9v-8.1h8.3s5.8 10 14 18h18.8a79.6 79.6 0 0 1-18.9-20.5zm-9.7-10.1h-12.5v-14.1h12.5c4 0 7.3 3.2 7.3 7-.1 4-3.3 7.1-7.3 7.1zM343 251.2h-26.1V241H342v-12.2h-25.2V219h26.1s-1.1-7 2.4-12.3h-44.5s2.5 1.8 2.5 8.3v40.1c0 6.6-2.5 8.3-2.5 8.3h44.5c-3.5-5.2-2.3-12.2-2.3-12.2zM289 255.3v-40.2c0-6.6 2.5-8.3 2.5-8.3h-18.6s2.3 1.8 2.5 8.3v24.4L249 206.8h-14.8s2.5 1.8 2.5 8.3v40.2c0 6.6-2.5 8.3-2.5 8.3h18.5s-2.3-1.8-2.5-8.3v-26.4l27.4 34.7h14s-2.6-1.8-2.6-8.3zM392.6 243.1a18 18 0 0 0 11.5-17.5c0-5.4-1.8-9.8-5.1-13.1a22.5 22.5 0 0 0-16.5-5.8h-28.3s2.1 1.7 2.5 7.6V256c-.3 4.6-1.6 6.6-2.2 7.6h18.2c-.7-1.1-2.2-4-2.3-9.9v-8.1h8.3s5.8 10 14 18h18.8c-11.9-8.8-18.9-20.5-18.9-20.5zm-9.7-10.1h-12.5v-14.1h12.5c4 0 7.3 3.2 7.3 7 0 4-3.3 7.1-7.3 7.1z"/></g><g id="M_Logo"><path id="Keyline" d="M356.1 118.5a94.6 94.6 0 0 0-24 10.3c-8.4 5.1-17.8 10.7-28 5.6-5.1-2.6-8.5-9.3-8.7-14.8l-.4-20.2h36c1.4 0 2.5 1.1 2.5 2.4 0 2.5-3.5 8.9-5.7 12.4l-3.4 5.4 37.6-16.1-2.3 9.1 58.8-27.8L359.7 57l2.3 9.1L324.3 50l3.4 5.4c2.2 3.5 5.7 10 5.7 12.4 0 1.3-1.1 2.4-2.5 2.4h-36l.4-20.2c.2-5.4 3.6-12.2 8.7-14.8 10.2-5.1 19.6.5 28 5.6 7.5 4.5 15.5 8 24 10.3 35.5 9.5 57-4.6 63.8-9-28.5-6.1-37.9-16.6-48.4-26-9.4-8.3-17.4-10-18.8-10.3h-.2c3.1 3.4 6.3 7.2 7.7 11.7.6 2.1 1.4 5.9-.8 7.3-2 1.3-5-.8-6.3-1.8-4-2.9-8.2-6.4-16-11.8a59 59 0 0 0-38.2-11 45.3 45.3 0 0 0-30.6 18.1c-3.6 5-6.7 10.4-9.7 18.3l-8.7-2.5V67H242l-.9-5.5c-3.2-19.4-1.6-24.5 3.6-29.1 0 0 3.4-3.1 8-5.9l1.7-1-4.3-8.7H185l-16.3 36.6-16.3-36.6H87.3L83 25.5l1.7 1c4.6 2.8 8 5.8 8 5.8 5.2 4.6 6.9 9.7 3.6 29.1l-.9 5.5H64.3l-3.6-3.2H39.9l-2.6 2.6v36.9l2.8 2.8h20.6l3.6-3.2h24.5l-3.9 19.7c-.2 1-2.9 13.1-11.3 21.1a35.1 35.1 0 0 1-5.1 3.8l-1.8 1 4.3 8.8h78.5l4.3-8.8-1.8-1c-1.3-.7-2.6-1.7-4.1-2.9-2.9-3-6.2-9.6-5.7-18.8l1.6-13.1.1-.4 21.5 44.9h6.8l21.5-44.9 1.7 13.5c.4 9.1-2.8 15.8-5.8 18.8a24 24 0 0 1-4.1 2.9l-1.8 1 4.3 8.8h78.4l2.4-4.9a45.2 45.2 0 0 0 29.8 17.1 58.5 58.5 0 0 0 38.2-11c7.9-5.4 12-8.9 16-11.8 1.3-1 4.3-3.1 6.3-1.8 2.2 1.4 1.5 5.2.8 7.3a32.2 32.2 0 0 1-7.7 11.7h.2c1.4-.3 9.4-2 18.8-10.5 10.5-9.4 19.9-19.9 48.4-26-6.5-4.1-28.1-18.3-63.5-8.8z" style="fill:#e5e5e5"/><g id="Trident_1_"><path class="st0" d="M372.3 121.8c-21.3 1.8-30.2 8.2-38.7 13.5a66.8 66.8 0 0 1-14.5 7c-7.3 2.3-16.6.9-22.7-4.1-2.5-2-5.6-5.7-7-12-2.7-11.6-1.9-32.7-1.9-32.7h43.2c4.8 0 8.8 3.8 8.7 8.6 0 2-.8 3.9-2 5.3L363.7 96c4.1-1.4 7.1 2 4.8 6.2l36-17.2-36-17.2c2.3 4.2-.8 7.7-4.8 6.2l-26.3-11.4c1.2 1.4 2 3.3 2 5.3a8.6 8.6 0 0 1-8.7 8.6h-43.2s-.8-21 1.9-32.6a21.2 21.2 0 0 1 7.2-12.2 25.3 25.3 0 0 1 22.5-4c5.1 1.6 9.8 4.2 14.5 7 8.5 5.3 17.3 11.7 38.7 13.5 21.4 1.8 32-3.8 33.2-4.4a71.3 71.3 0 0 1-40-25.1c-.2-.2-.6 0-.5.3 1.2 2.7 2.1 6 1.4 8.8-2 7.6-11.9 3-16 .3-8.2-5.4-15.7-11.6-24.7-15.8-8.6-4-18.6-6.3-28-4.7A37.2 37.2 0 0 0 276.3 20a63 63 0 0 0-12.9 25.5c0 .2-.2.2-.4.2l-5.9-1.7c-.2-.1-.4.1-.4.3v30.8h-162c-.2 0-.3.1-.3.3v19.4c0 .2.1.3.3.3h162v30.8c0 .2.2.3.4.3l5.9-1.7c.2 0 .3 0 .4.2a62.3 62.3 0 0 0 12.9 25.5c5.6 6.3 13.1 11 21.4 12.4 9.4 1.6 19.5-.7 28-4.7 9-4.2 16.4-10.4 24.7-15.8 4.2-2.7 14-7.3 16 .3.7 2.8-.2 6-1.4 8.8-.1.3.3.5.5.3 10.9-11.8 21.1-20.8 40-25.1-1.2-.8-11.9-6.4-33.2-4.6z"/><g id="Green_Highlight"><path class="st2" d="m388.3 84.9-15.2-6.6-.1.3a6 6 0 0 1-3.2 3.3c-1.5.6-3.9.6-5.4 0L346.1 73l5.7 11.9h36.5zM370.5 134.2a9.5 9.5 0 0 0-7-3.1s6.6-2.8 17.5-1.9c-4.3 1.9-6.3 3.9-9.3 6.7-.3-.7-.7-1.2-1.2-1.7zM370.5 35.6a9.5 9.5 0 0 1-7 3.1s6.6 2.8 17.5 1.9c-4.3-1.9-6.3-3.9-9.3-6.7-.3.6-.7 1.1-1.2 1.7zM288 84.9a37.6 37.6 0 0 0-9.8 13.5 38.8 38.8 0 0 0-15.9-5.2 38.4 38.4 0 0 0 0-16.6c5.6-.5 11-2.3 15.9-5.2 2.2 5.2 5.5 9.8 9.8 13.5M341.6 84.9h-46.7v-2.7h41.4zM254.6 84.9h-11.7l-.6-2.7h12.3z"/><g><path class="st2" d="m280.7 39.1-2.3 19.7c-.4 3.1-2.2 5.9-4.9 7.5l-8.6 4.9v-16l4.4 4.9 11.4-21zM280.7 130.7l-11.5-21-4.4 4.9V98.7l8.6 4.9a9.8 9.8 0 0 1 4.9 7.5l2.4 19.6z"/></g></g><path id="Star" class="st0" d="m281.8 84.9-5.8 1.8.1 6-3.5-4.9-5.8 1.9 3.7-4.8-3.7-4.9 5.8 1.9 3.5-4.9-.1 6z"/></g><path id="Mask_Block" style="fill:#e0e0e0" d="M103.4 92.7H234v10.2H103.4z"/><g id="Handle"><path class="st2" d="M46.6 96.8V73.1h10.6l3.6 3.2h44.5v17.2H60.8l-3.6 3.3z"/><path class="st0" d="m61.8 73.7-3.3-3a1 1 0 0 0-.7-.3H45a1 1 0 0 0-1 1v26.9c0 .5.4 1 1 1h12.8c.2 0 .5-.1.7-.3l3.3-3h46.1V73.7H61.8zm23 5.2h5.3l-8.7 12h-5.3l8.7-12zm-14.2 12h-5.3l8.7-12h5.3l-8.7 12zm-14.4 3.2h-6.9V75.7h6.9l3.6 3.2h8.7l-8.7 12-3.6 3.2zm46.5-3.2H86.9l8.7-12h7.1v12z"/></g><g id="M_Backgound"><path id="M_Background" class="st0" d="M261.5 149.8c-11.7-9.8-14.8-25.6-15-26.2L235 62.5c-4.1-24.5-1.1-30 10.1-38.2.6-.5.3-1.5-.5-1.5H189l-20.2 45.4-20.2-45.4H92.7c-.8 0-1.1 1-.5 1.5 11.2 8.2 14.2 13.7 10.1 38.2-.7 4.5-11.4 60.7-11.5 61.1-.1.6-3.2 16.4-15 26.2-.6.5-.3 1.4.5 1.4H144c.8 0 1.1-1 .5-1.4-3.3-2.7-9.2-11.1-8.5-24.5l4.2-34.2 28.3 59.3 28.3-59.3 4.2 34.2c.7 13.3-5.2 21.8-8.5 24.5-.6.5-.3 1.4.5 1.4h67.7c1.1 0 1.4-.9.8-1.4z"/><path id="M_White_Background" d="M203.4 144.8h45.1c-7.9-7.8-9.9-22.7-9.9-22.7s-11.1-64.9-12.8-76.5c-1.8-11.6 5.8-16.5 5.8-16.5h-38.3l-24.6 53.6-24.6-53.6h-38.3c6.9 8.3 5.3 20 5 21.5-3.2 19-12.9 71.5-12.9 71.5s-1.5 12.7-9 22.7H134c-1-.6-6.3-5.1-4.2-25.3 2.6-24.8 8.1-49.1 8.1-49.1l30.7 65.9 30.7-65.9s5.5 24.3 8.1 49.1c2.3 20.2-3 24.7-4 25.3z" style="fill:#fff"/></g><g id="M_Shadow"><path class="st5" d="M144.2 29.1s-9.2 5.2-9.6 5.9c-.3.5 4.4 11.1 10.9 25.2l-1.1 5.3 6.1-2.8-1.5 5.2c9.4 20.4 19.6 42 19.8 42.3V82.7l-24.6-53.6z"/><path class="st5" d="m199.5 70.5-30.8 65.9v-26.2l28.6-57zM129.9 119.5c2.4-22.8 8.1-49.1 8.1-49.1l-8.4-22.2s-4.9 28.5-9.6 53l-6.7 6.5 8.2-.3-4.2 7.6c-1.2 6.1-2.4 10.7-3.3 14.4-2.9 11.9-20.8 15.4-20.8 15.4h41c-1.1-.6-6.4-5.1-4.3-25.3zM248.5 144.8c-6.4-7.6-9.3-22.7-9.3-22.7s-9.6-52.6-12.7-71.6c-.3-1.7-1.8-13.2 5-21.4l-8.2 4.2-13.1 6.6.3.9a3 3 0 0 0 2.3 1.2h4.9c.2 0 .4.2.4.4l.3 13c-2 .1-4.1.5-4.7.6l-.2.3 1.3 10.1c0 .3.3.5.6.7 1.5.5 5.2.6 5.2.6l2.2 64.2c.3 8.4-19.6 13-19.6 13H237l11.5-.1z"/></g></g></svg>