<svg version="1.1" id="Layer_1" xmlns="http://www.w3.org/2000/svg" x="0" y="0" viewBox="0 0 203.5 157.3" style="enable-background:new 0 0 203.5 157.3" xml:space="preserve"><style>.st0{fill:#ffd200}.st2{fill:#fff}.st3{fill:#f47920}.st4{fill:#008da8}.st8{fill:#96c0e6}</style><linearGradient id="SVGID_1_" gradientUnits="userSpaceOnUse" x1="-294.5" y1="383.7" x2="-293.8" y2="383"><stop offset="0" style="stop-color:#20ac4b"/><stop offset="1" style="stop-color:#19361a"/></linearGradient><path class="st0" d="m171.3 62.9 3.5-.3h.1l.8-.1c2.4-.4 6.1-1 8.9-3.4 1.5-1.3 17.8-23.5 17.9-23.7 1.2-1.6 1.1-3 .8-3.9-.7-2.3-3.1-3.3-4-3.7h-.1c-5.4-1.9-10.6-1.3-12.8 1.5l-.1.2c-.1.1-9.6 14.4-13.7 18.6l-.1.1c-.1.1-2.1 2.3-6.1 3a10 10 0 0 0-9.5-5.1c-2.2-6.6 9.3-19.3 9.3-19.3-35.8 19.6-20.9-15.9-20.9-15.9-28 25.4-26.4-7.1-26.4-7.1C101.2 28.7 94.7 0 94.7 0s-6.5 28.7-24.4 3.7c1.6 32.6-24 9.3-26.4 7.1 0 0 14.9 35.5-20.9 15.9 0 0 30.2 33.4-16.5 19.9 0 0 9.6 5.4 14.8 11.7l-7 .6-1.8 10 5.2 4.1A64.8 64.8 0 0 1 0 77c50.9 5.7 6.5 30.4 6.5 30.4 4.2-1.2 7.7-2 10.8-2.6a23.9 23.9 0 0 0-2.8 7.2L12 123.4a12 12 0 0 0 1 8.5l-2.9.9-5 24.6 74.9-22-2.5 11.5 87.8-26.3c4.6-1.4 7.6-6.4 8.5-10.8l6.2-30.2c2.8-.9 5.9-1.8 9.4-2.5-14.1-1.6-20.9-4.6-23.3-8.2.7-1.6 1.2-3.6 1.4-5.5 1.4-.3 2.7-.4 3.8-.5zm-36.6-10.2-6.4.4a37 37 0 0 0-2.5-11.5c3.4 3.2 6.4 7 8.9 11.1zM67 38.8v1.9l.7.2c0 1.2.2 2.7.7 3.9L66.1 48l-1.3 2.3-.1.3a5.5 5.5 0 0 0-.1 3.1c-2.5-.9-5.5-1.2-8.4-.3l-1.7-.5A49.8 49.8 0 0 1 67 38.8z"/><path d="M198.5 30.2c-4.5-1.6-8.5-1.1-9.8.6 0 0-9.6 14.5-14 19 0 0-2.5 3.5-9.7 4.2a7.2 7.2 0 0 0-8.8-5.1 6.3 6.3 0 0 0-7.8-.3c-3.4-1.1-6.6 1.2-7.9 4.4-.9.5-1.7 1.1-2.4 2.3l-12.5.7a36 36 0 0 0-8-23.4c1.1-6.6-4.6-9.5-9.8-6.7-6.5-2-15.3-2.1-21.7.2-3.9-1.6-9.7-2.2-10.5 3.5-.2 1.6.1 3.3 1 4.8l-1.7 1.3c-1.6.2-3.2.8-4.9.5l-.1 2.6.7.2c-.2 1.5-.3 5.2 1.2 6.1-1.2 1.4-2.4 2.8-3.3 4.4-.6.9-.9 1.6-1.1 2.1-.5 1.4.1 2.5 2 3.9l.7 1.2c-.4 1-.2 2.4.5 3.1l-2.1.1c-1.6-2.5-7-5.7-12.3-3.4-2.4-1.5-4.7-.8-6.6 1.1-3-.5-6 .6-6.9 4.1L23.1 63v-.7L20.9 61l-4.2.4-1.1 6.4 3.5 2.7 4.3-.5.1-.9L44 67.6c-1.6 4.4-.6 7.4 2 9.4 0 0-7.7 8.6-5.7 20.6l-14.2 4c-4.3 1.3-7.7 6.9-8.7 11.9L15 124.8c-.6 2.9-.2 5.4 1.1 7.1a5.5 5.5 0 0 0 3.4 2l-6.8 2-3.5 16.7 75.1-22-2.4 11.4 82.4-24.2c3.4-1 5.7-5.1 6.4-8.5l6.4-30.3-12.7 3.7a161 161 0 0 0-1.2-14.1 12 12 0 0 0 1.5-7.7l9.8-.8c2.3-.4 5.9-.7 8.4-2.9.9-.8 12.9-17 17.5-23.3 1.1-1.6.3-2.8-1.9-3.7zm-61.4 31.9c.6 4.2 3.5 7.7 5.2 8.5-.2.6-1.6 1.2-2.1 1.7a21 21 0 0 0-8.9-9.8l5.8-.4z" style="fill:#522e91"/><path class="st2" d="M104.7 29c-.9.9-1.3 2.1-1.9 3.1L96 36.3a20.6 20.6 0 0 0-11.3-.1c-2.3-.9-3.3-1.1-6.2-.3l4.5-3.7c7-5.7 16.9-4.8 21.7-3.2zM73.5 51.3c1.6.1 2.8.4 2.8.8s-1.3.6-2.9.5c-1.6-.1-2.9-.4-2.8-.8 0-.3 1.3-.5 2.9-.5zM48.6 60.1a8 8 0 0 1 1.9-.3c2.3-1.6 3.6-1.5 5.1-.6 4.4-2.5 8.5.7 8.5.7-3.7-.4-5.7-.4-7.1.4-2 1.1-1.1 3.9-.2 5.1l.6.7c0 .1-.9.1-1.4-.1-2-.8-1.6-4-.8-5.2-1.9.9-1.6 3.2-1.8 4.4-.1.9-2.1 2.2-3.2-.1-.5-.9-.6-2.5-.4-3.6-1.3.8-1.3 2.5-1.3 3.4 0 2.3-2.1 1.3-2.5.1-.6-1.7-.2-4.1 2.6-4.9zM155.7 69.6c1 .7 1.5.8 2.6.6.2 3.6.6 8.9.1 14.1l-20.6 6.1c.4-2.5 1.3-4.6 3.1-6.8 0 0-1.6 0-3.5 1.1 2.6-5.5 7.8-9.4 9.6-15.3-3.2-1.6-5-4.2-6-7.2-.8-2.5-1-3.4.9-5.4.8-.8 1.9-1.3 2.9-1.5l2.9-.6c2.3-.3 1.2 3.7-2.2 4.2 2.7 1.7 5.2 4.2 6.1 7.4a6 6 0 0 0 .2-3.3c.1-.1 1.7.1 2.2-.9 1 1 5 1.7 5.9-.9 1.2 1.4.9 6-4.2 8.4z"/><path class="st2" d="M159.8 54.3c0 6.8-5.9 7.1-4.7-.5-1.8 2.4-.7 3.6-1.6 5.1-1 1.7-3.1 0-3-1.3l.4-.9c.9-2.2-.4-4.4-2.9-4.1-1.1.1-2.5.4-3.6.7.7-2 2.5-2.9 5-2 1.7-1.4 4-1.4 5.9.4 3.4-.8 5.8-.5 6.7 2.5l-2.2.1z"/><path class="st3" d="m166.9 78.5 7.4-2.1c-2.7-.8-5.6-1.8-7.9-3.3l.5 5.4zM42.4 77.2a9 9 0 0 1-1.9-6.8l-15.3 1.2c-3.1 2.8-8 4.4-12.2 5.4 5.9 1.4 13.2 4.1 14.8 9.4 1.1 3.7-.6 7.8-5.3 12.4l14.8-4.2c-.3-8 3.1-14.3 5.1-17.4zM72.8 32c-.1-.9-.2-1.9 0-2.9.5-3.3 2.2-5 3.7-5.8 3.2-1.9 7.3-.9 9.5-.2 6.3-2 14.6-2.1 21.5-.2a9.5 9.5 0 0 1 9.3.7 8.8 8.8 0 0 1 3.5 8c1 1.2 2 2.7 2.9 4.3a51.3 51.3 0 0 1 14.1 15.9l1.1-.9c1.8-3.4 5.4-6.1 9.6-5.4 1.8-.9 3.7-1.2 5.5-.9.1-2.9 1.6-6.7 4.5-11.3-2.6.9-5.9 1.8-9 1.8-3.3 0-5.9-1-7.5-3-2.3-2.8-2.7-7.3-1.2-13.7a24 24 0 0 1-12.3 4.7c-4.2 0-9.3-2.3-11-12.5-2.4 2.5-6.7 6-11.3 6-4.4 0-8.1-3-10.9-9-2.8 6-6.5 9-10.9 9-4.6 0-8.8-3.5-11.3-6-1.7 10.2-6.8 12.5-11 12.5a24 24 0 0 1-12.3-4.7c1.5 6.4 1.1 10.9-1.2 13.7-1.6 2-4.2 3-7.5 3-3.1 0-6.5-.9-9-1.8 4.4 6.7 5.6 11.6 3.7 14.9-1.5 2.6-4.8 3.9-9.8 3.9-2.3 0-4.7-.3-6.7-.6 3.7 2.9 6.3 5.7 7.9 8.2l14.4-1a8 8 0 0 1 7.9-4.4 9 9 0 0 1 2.9-1.5A51.7 51.7 0 0 1 67.6 35c-.4.4 2.7-1.8 5.2-3z"/><g><path class="st3" d="M69.9 93.2 67 94c-.4.1-.9.5-1 .9l-1.2 6.2.1.4.5.2h.3l2.9-.8c.4-.1.9-.5 1-.9l1.2-6.2-.1-.4c-.2-.2-.5-.3-.8-.2zm-.7 1.2-1 5.6-1.6.5 1-5.6 1.6-.5zM76.1 91.5l-3.4 1-1.4 7.6 1.5-.4L74 93l1.4-.4-.4 2.1-1 .3-.3.4.6 3.7 1.7-.5-.6-3.1h.1c.5-.1 1-.4 1.1-1l.5-2.7-.1-.4-.9.1zM80.5 90.2l-1.5.5-1.5 7.6 3.8-1.1.2-1-2.2.7zM85.7 88.8 82.3 97l1.5-.4.6-1.5 1.7-.5V96l1.6-.4-.5-7.1-1.5.3zm.4 4.7-1.2.3 1.1-2.6.1 2.3zM93 90.3l-1.5-3.2-.9.3-1.4 7.6 1.4-.4.7-3.7 1.5 3.1.9-.2 1.4-7.7-1.4.4zM99.4 84.9l-2.4.7-1.4 7.6 2.5-.7c.9-.3 2-.9 2.1-1.8l.9-5c.1-.3 0-.5-.1-.7-.2-.2-.9-.3-1.6-.1zm-2.1 6.9 1-5.6.7-.2h.6s.1.1 0 .2l-.9 4.6c0 .3-.3.6-1 .8l-.4.2zM107.7 82.9c-.1-.2-.4-.2-.7-.1l-2.9.8c-.4.1-.9.5-1 .9l-1.2 6.2.1.4.5.2h.3l2.9-.8c.4-.1.9-.5 1-.9l1.2-6.2-.2-.5zm-1.5 1.1-1 5.6-1.6.5 1-5.6 1.6-.5z"/></g><g><path class="st2" d="m154.5 96.2 1.5-7-8.6 2.5c-1.5.4-3.1 2.9-3.7 5.5l-5 23.7 5.6-1.7 4.5-21.4 5.7-1.6zM35.1 119.3c-.4-.5-.9-.6-1.5-.4L26 121l1.8-8.5 22.3-6.6 1.6-7.7-24.6 7.3c-2.4.7-5.1 4.7-5.9 8.8l-2.4 11.3c-.3 1.6-.2 3 .4 3.7.4.5.9.6 1.5.4l7.5-2.2-1.8 8.5-10.4 3.2-1.6 7.7 12.8-3.7c2.4-.7 5.1-4.7 5.9-8.8l2.4-11.3c.3-1.8.1-3.1-.4-3.8z"/><path class="st2" d="M52.2 110.2c-.3-.6-.8-.8-1.1-.8l-.4.1-8.2 2.4c-1.5.4-3.1 2.8-3.7 5.5l-4 19.2c-.3 1.2-.2 2.4.1 3 .3.6.8.8 1.1.8l.4-.1 8.2-2.4c1.5-.4 3.1-2.8 3.7-5.5l4-19.2a5 5 0 0 0-.1-3zm-6.1 7.2-3 14.5-2.3.7 3-14.5 2.3-.7zM76.5 103.1c-.3-.6-.8-.8-1.1-.8l-.4.1-11 3.2-1.5 7 7.9-2.3-.7 3.3-5.2 1.5c-1.5.4-3.1 2.8-3.7 5.5L58 134l10.9-3.2c1.5-.4 3.1-2.9 3.7-5.5l4-19.2a5 5 0 0 0-.1-3zm-8.2 17.4-.9 4.3-2.3.7.9-4.3 2.3-.7z"/><path class="st2" d="m52.6 98 4.1 4.8-7.1 33.7 5.7-1.7 8.4-40.1zM170.5 91.5l1.5-7-11.2 3.3c-1.5.4-3.1 2.8-3.7 5.5l-1.7 8.5c-.3 1.3-.2 2.4.1 3.1.3.6.8.8 1.1.8l.4-.1 5.5-1.6-.8 3.7-13.3 3.9-1.4 7 16.2-4.8c1.5-.4 3.1-2.8 3.7-5.5l1.7-8.5c.3-1.3.2-2.4-.1-3-.3-.6-.8-.8-1.1-.8l-.4.1-5.5 1.6.8-3.7 8.2-2.5zM141.2 94.7c-.3-.6-.8-.8-1.1-.8l-.4.1-10.9 3.2-1.5 7 7.9-2.3-.7 3.3-5.2 1.5c-1.5.4-3.1 2.8-3.7 5.5l-2.9 13.5 10.9-3.2c1.5-.4 3.1-2.8 3.7-5.5l4-19.2c.3-1.3.3-2.4-.1-3.1zm-8.2 17.4-.9 4.3-2.3.7.9-4.3 2.3-.7zM122.2 116.3l2.9-13.7c.3-1.2.2-2.4-.1-3-.3-.6-.8-.8-1.1-.8l-.4.1-8.6 2.4c-1.5.4-3.1 2.8-3.7 5.5l-4 19.2c-.3 1.2-.2 2.4.1 3 .3.6.8.8 1.1.8l.4-.1 11.3-3.2 1.5-6.9-8.3 2.3.7-3.3 8.2-2.3zm-3.3-9.6-.9 4.3-2.7.7.9-4.3 2.7-.7zM107 112.3c-.2-.3-.5-.5-.7-.5 1.3-1 2.5-3.1 2.9-5.2l2.1-10c.3-1.6.2-3-.4-3.7-.4-.5-.9-.6-1.5-.4L82.9 100c-1.5.4-3.1 2.8-3.7 5.5l-5 23.7 5.6-1.7 4.5-21.4 5.7-1.7.8-3.7 3 3.1-6.8 32.4 14.2-4.2c1.8-.5 3.4-3.3 3.9-5.7l2.2-10.4c.3-1.5.2-2.9-.3-3.6zm-8.3-2 1.8-8.5 3.6-1.1-1.8 8.5-3.6 1.1zm-3.4 16.2 1.8-8.5 3.6-1.1-1.8 8.5-3.6 1.1z"/></g><path class="st2" d="M121.3 61.2a34.6 34.6 0 0 0-7.5-26.8c2.6-7-5.7-7.7-10.6 1.7l-.3-1.4a42.1 42.1 0 0 1-4.8 3.5v1.4l-1.1-.1c.3 7.1-6 7.8-11.4 5.4l-3.4 2.7 2.4-4.5c-.4-.9-.5-2-1-2.9-1.1-1.8-2.5-1.4-3.9-.4-.7.4-6.8 8.1-7.7 9.3 6-.3 11.3 2 6 8-2.6-3-3.9 3.5 3.5 2.6 4.6-.6 6.4-4.2 11.7-1.9 0 0-2.6.1-6.9 2.2a14.3 14.3 0 0 1-6.8 1.6c5.1 3.4 15-2.8 19.9-4.6a57 57 0 0 0 7.2-2.9c6-3.1 7-4.8 6.5-11.7 1.2 4.6 2.9 9.7-3.9 13.3-10.8 5.7-21.7 9.3-29.9 18.5 1.6-3.7.5-6.5.5-8.2-15.3 4.4-21.3 15.5-24.9 24.9-.8-7.4 2.4-11.7 2.4-11.7a6.8 6.8 0 0 1-5.9-8.1 7.2 7.2 0 0 0 7.9 5.1c2.1-2.9 4.6-5.8 7.6-7.9.8-1.9 1-3-1-4.8-1.5-1.3-4.5-1.6-6.4-1.7-2.5-.1-1.5 3.7 2.1 4-3 1.7-4.1 2.7-5.1 6a4 4 0 0 1-.3-3.4c-.6 0-1.2-.1-1.7-.6a2.4 2.4 0 0 1-3.9.2c-5 .9-1.5 9.9 3.7 11.9 0 0-1.7.8-3.8.7a28 28 0 0 0-3.7 15.1l13.7-3.9c1.6-7.2 5.8-14 10.3-16.3 0 0-3.6 6-4 14.5l39.5-11.2c1.5-3 3.2-4.5 3.2-4.5S107 89 120.2 95.5l13.3-3.9-.1-.3c-1.2-5.1.7-9.3 2.4-11.9.5-.8 1.1-1.6 1.7-2.2l.3-.3c-2.4-7.6-11.5-13.9-16.5-15.7z"/><g><path class="st4" d="M147.7 92.8c-1 .3-2.5 2.3-3 4.7l-4.6 22 3.4-1L148 97l5.7-1.7 1-4.6-7 2.1zM33.8 119.8l-9.2 2.7 2.3-10.8.2-.1 22.1-6.6 1.1-5.4-23 6.8c-2 .6-4.4 4.4-5.2 8.1l-2.4 11.3c-.3 1.3-.2 2.4.2 2.8.1.2.2.1.4.1l9.2-2.7-2.3 10.8-.5.2-9.9 2.9-1.1 5.4 11.1-3.2c2-.6 4.4-4.3 5.2-8l2.4-11.3c.3-1.3.2-2.4-.2-2.8-.1-.3-.2-.2-.4-.2z"/><path class="st4" d="M51 110.5h-.1l-8.2 2.4c-1 .3-2.4 2.3-3 4.7l-4 19.2c-.2 1-.2 1.9 0 2.4l.2.2h.1l8.2-2.4c1-.3 2.4-2.3 3-4.7l4-19.2c.2-1 .2-1.9 0-2.4l-.2-.2zm-7 22.2-4.6 1.3 3.5-16.8 4.6-1.3-3.5 16.8zM75.3 103.4h-.1l-10.3 3-1 4.6 7.9-2.3-1.2 5.6-5.8 1.7c-1 .3-2.4 2.3-3 4.7l-2.5 11.8 9.2-2.7c1-.3 2.5-2.3 3-4.7l4-19.2c.2-1 .2-1.9 0-2.4l-.2-.1zm-7 22.1-4.6 1.3 1.4-6.6 4.6-1.3-1.4 6.6zM54.4 98.5l3.4 4v.2L51 135l3.4-1 7.9-37.8zM161.1 88.8c-1 .3-2.5 2.3-3 4.7l-1.7 8.5c-.2 1-.2 1.9 0 2.4l.2.2h.1l7.2-2.1-1.2 6.1-13.3 3.9-1 4.6 14.5-4.3c1-.3 2.5-2.3 3-4.7l1.7-8.5c.2-1 .2-1.9 0-2.4l-.2-.2h-.1l-7.2 2.1 1.2-6.1 8.2-2.4 1-4.6-9.4 2.8zM140.1 95h-.1l-10.3 3-1 4.6 7.9-2.3-1.2 5.6-5.8 1.7c-1 .3-2.5 2.3-3 4.7l-2.5 11.8 9.2-2.7c1-.3 2.5-2.3 3-4.7l4-19.2c.2-1 .2-1.9 0-2.4l-.2-.1zm-7.1 22.2-4.6 1.3 1.4-6.6 4.6-1.3-1.4 6.6zM124 102.4c.2-1 .2-1.9 0-2.4l-.2-.2h-.2l-8.6 2.4c-1 .3-2.4 2.3-2.9 4.7l-4 19.2c-.2 1-.2 1.9 0 2.4l.2.2h.1l10.7-3 1-4.6-8.3 2.3 1.2-5.6.5-.2 7.8-2.1 2.7-13.1zm-5.1 9.4-4.9 1.3 1.4-6.6 5-1.3-1.5 6.6zM105.9 112.7l-2.3-.4 2-1.3a7.8 7.8 0 0 0 2.7-4.7l2.1-10c.3-1.3.2-2.4-.2-2.8-.1-.2-.2-.1-.4-.1L90.6 99l4.5 4.6-6.6 31.1L101 131c1.2-.4 2.7-2.7 3.1-5l2.2-10.4c.3-1.2.2-2.3-.1-2.8l-.3-.1zm-6 13.6L94 128l2.3-10.8 5.9-1.7-2.3 10.8zm-2.5-14.5 2.3-10.8 5.9-1.7-2.3 10.8-5.9 1.7zM80.3 105.7l-4.6 22 3.4-1 4.5-21.4 5.7-1.7 1-4.6-7 2c-1.1.3-2.5 2.3-3 4.7z"/><path d="m68.8 62.1 4.2-.2.8 1.1-4.3.2-.7-1.1zm56.8-4.2 11-.6-.3 1.3-11 .7.3-1.4zM18.3 62.5l1.9-.1-.8 4.5-2 .1.9-4.5zm24.3.8.1 1.2L23 66l.1-1.2 19.5-1.5zm155.5-30.7s-4.5-.9-5.9 1.4L179 52.4c-2 2.6-8.5 4.5-11.3 4.7l-6.5.6.2-1.4 5.2-.4c3.6-.4 8.5-2.3 10.7-4.7L190.5 33c.5-.6 2-2.2 7.6-.4zm-124.8 11L72 41.1l1.9.4-.8-2 2.9.7-2.7 3.4zm15 .2a4 4 0 0 0 2-.8 80 80 0 0 1-2.8-3.2l4.7 3.3-2.1-3.4 3.5 2.5-1.1-2.5 2.1.4c.2 2.7-1.3 4.2-4.1 4.1-1 0-2.2-.3-2.2-.4zm10-7.2h-.9l5.2-3 .3-.2-4.6 3.2zm-19.8 1.5a9.6 9.6 0 0 0-5.8-.5c2-.7 3.8-.9 5.8-.2 1.9-1 4-1 5.9 0 4-1.1 7.5-1.2 11.3.1-3.3-.6-7.7-.6-11.4.6a5 5 0 0 0-5.8 0z" style="fill-rule:evenodd;clip-rule:evenodd;fill:#008da8"/></g><path d="M107.2 33.7c1-3.2 4.7-3.7 5.4-2.1 0 0-3.6-.1-3.1 4.2l-2.3-2.1z" style="fill-rule:evenodd;clip-rule:evenodd;fill:#522e91"/><path d="m81.6 30.6 1.1-1 1.1-.8c-2.3-1.1-4.5-1.3-5.8.9 2.6-1.2 3.4-.3 3.6.9z" style="fill-rule:evenodd;clip-rule:evenodd;fill:#fff"/><g><path class="st8" d="M111.1 35.4c1.1-.8 2.5-2.5 1.5-3.7 0 0-3.2-.1-3.1 3.5v.5c.7-4 2.8-2.5 1.6-.3zM153.5 58.9c.7-1.1.3-2.1.7-3.4-.7.4-1.9.9-3-.6.1.6 0 1.2-.3 1.8l-.4.9c-.2 1.3 1.9 3 3 1.3zM159.4 56.9c-1 .3-3.2.9-4.5-1.2 0 4.7 3.5 4.9 4.5 1.2zM56 66c.5.2 1.5.2 1.4.1l-.6-.7a5 5 0 0 1-.9-1.8l-.8.1-.6-.2c.1 1 .5 2.1 1.5 2.5zM48.6 64.9v-1.5c-1.1.2-2.1.1-2.8-.4-.1.7 0 1.4.2 2 .5 1.2 2.5 2.1 2.6-.1zM53.4 65.2l.1-1.7c-1.4 1.3-2.9.6-3.7.1l.4 1.5c1 2.2 3 1 3.2.1z"/><path class="st2" d="M73.4 52.7c1.6.1 2.9-.2 2.9-.5 0-.4-1.2-.7-2.8-.8-1.6-.1-2.9.2-2.9.5-.1.3 1.2.7 2.8.8z"/><path class="st8" d="m120.2 95.5 8.2-2.4a39 39 0 0 0-6.3-2.5 18.8 18.8 0 0 1-12.3-11.3l-.5-1.4-.1.5c.3 4.8 2.2 12.8 11 17.1zM158.3 70.2c-1.1.2-1.6.1-2.6-.6 4.8-2.3 5.4-6.5 4.5-8.1-1.2 7.4-11.3 7.5-14.3 2.2 0 .9.1 1.9.4 2.8-1.8-.6-4.6-4.8-5.9-7.2-.1.8.1 1.7.6 3 1 3 2.8 5.6 6 7.2l-.3.9c1.9 1 4.4 3 6.2 3.2l-1.8-2.4c1.6 1.1 2.5.9 3.6.4 1.6 4 1.1 9.8.3 13.9l3.4-1c.5-5.4.1-10.6-.1-14.3z"/><g><path class="st8" d="M52.3 73a7 7 0 0 0 6.9 3.1c2.1-2.9 4.6-5.8 7.6-7.9.8-1.9 1-3-1-4.8l-.9-.6c-.3 5.4-9.8 13.8-12.6 10.2z"/></g><path class="st8" d="M118.9 62.3a20 20 0 0 0 0-13.1c-.4 1.7-.9 3.4-1.8 5 .9-4.5-1.5-12.8-5.1-16.9v.9l-.3 2c-1.4 5.5-7.8 8.3-13.6 6.7a6 6 0 0 0 2.7 3c-2.3.4-4.7.1-6.9-.8a7 7 0 0 0 4.1 4.3c-2 .8-4.5.6-6.5-.2.7 1.1 1.5 2.1 2.4 3a12.2 12.2 0 0 0-11.2 1.5C76.9 55 85.1 47 89 47c5.4 0 8.3-.6 7.8-7.6.3 7.1-6 7.9-11.4 5.4L82 47.5l2.4-4.5-.1-.2a3 3 0 0 0-2.6-.2c.6.5 1.2 1.4 1 2.2-.7-.5-1.5-.5-2.3-.3.5.8.9 1.8.7 2.7-.7-.5-1.5-.7-2.3-.6 1 .7 1.7 1.3 1.8 2.5-.6-.4-1.6-.7-2.6-.5.5.4 1.2 1.3 1.3 2.3 1.3 1.3 1.2 3.3-1.4 6.3-2.6-3-3.9 3.5 3.5 2.6 4.6-.6 6.4-4.2 11.7-1.9 0 0-2.6.1-6.9 2.2a14.3 14.3 0 0 1-6.8 1.6c5.1 3.4 15-2.8 19.9-4.6a57 57 0 0 0 7.2-2.9c6-3.1 7-4.8 6.5-11.7 1.2 4.6 2.9 9.7-3.9 13.3-10.8 5.7-21.7 9.3-29.9 18.5 1.6-3.7.5-6.5.5-8.1-15.3 4.4-21.3 15.5-24.9 24.9v-.2c-.7-7.3 2.4-11.6 2.4-11.6a6.8 6.8 0 0 1-5.9-8.1s-.2-1.2.6-2.2c-.6-.1-1.1-.4-1.5-.8a3 3 0 0 0-2.1 1.4l-.1.2c-1.3 2.9 1.8 8.8 5.9 10.3l-1.7.5-2.1.2a28 28 0 0 0-3.7 15.1L60.3 92c1.6-7.2 5.8-14 10.3-16.3 0 0-3.6 6-4 14.5l8.7-2.5c.2-3 .6-5.7 1.1-7.7 1.3 2.7 3 4.4 3 4.4s4-12.1 28.5-23a19 19 0 0 0-5.6 7c18-9.9 29.5 3.1 32.3 7.3-1.8-6.2-9.5-12-15.7-13.4z"/></g><g><path class="st0" d="M171.9 121.1v.5h-1v2.7h-.6v-2.7h-1v-.5h2.6zm3.6 3.3-.1-1.9v-.9l-.3 1-.6 1.8h-.7l-.6-1.9-.2-.9v.9l-.1 1.9h-.6l.2-3.3h1l.6 1.6.2.8.2-.8.6-1.6h.9l.3 3.3h-.8z"/></g></svg>