<svg version="1.1" id="Layer_1" xmlns="http://www.w3.org/2000/svg" x="0" y="0" viewBox="0 0 212.5 160" style="enable-background:new 0 0 212.5 160" xml:space="preserve"><style>.st0{fill:#b0b7bc}.st1{fill:#fff}.st4{fill:#c41230}.st5{fill:#002b5c}</style><path class="st0" d="M195.3 45.6V2.9h-31.1l1.5-2.9H46.9l1.5 2.9H17.2v40.6h3.3A40.2 40.2 0 0 0 0 78.5v.7C14.9 70.3 27.9 65 30.8 63.8l.1 1.1.1 1.4c2.8 30.6 27.2 55.2 65.6 66.8l9.7 26.9 9.7-26.9c39.1-11.7 63.8-36.3 66.6-66.8l.2-2c4.3 1.7 16.2 6.9 29.7 15v-.7c0-13.7-6.8-25.7-17.2-33z"/><path class="st1" d="M61.9 5.4H59v-.7h4.3v-.2c-.1-.8-.6-1-1.4-1H59c-1 0-1.4.3-1.4 1.3v.5c0 1 .4 1.3 1.4 1.3h3v.8h-4.5v.2c.1.9.6 1 1.4 1H62c1 0 1.4-.3 1.4-1.3v-.6c-.1-.9-.4-1.3-1.5-1.3zm8.5-1.8h-3.7c-1 0-1.4.3-1.4 1.3v2.5c0 .5.1.8.3 1 .2.2.5.3 1.1.3h3.7c1 0 1.4-.3 1.4-1.3V4.9c-.1-1-.4-1.3-1.4-1.3zm-.1 3.9h-3.5V4.7h3.5v2.8zm9.5-3.9h-1.5v3.9h-3V3.6h-1.5v3.8c0 1 .4 1.3 1.4 1.3h3.1c1 0 1.4-.3 1.4-1.3V3.7l.1-.1zm1.1 1.1h2.3v4h1.5v-4H87V3.6h-6.1v1.1zm11.9.7h-3.3V3.6H88v5.1h1.5V6.6h3.3v2.1h1.5V3.6h-1.5v1.8zm11.6 1.3v.8h-2.8V4.8h2.8v.7h1.5v-.6c0-1-.4-1.3-1.4-1.3h-3c-.6 0-.9.1-1.1.3-.2.2-.3.5-.3 1v2.5c0 .5.1.8.3 1 .2.2.5.3 1.1.3h3c1 0 1.4-.3 1.4-1.3v-.7h-1.5zm6.7-3.1-1.3-.1v.1L107 8.4l-.1.2h1.5v-.1l.5-1h3l.6 1v.1h1.7l-.1-.2-3-4.8zm-1.6 2.8.8-1.5.8 1.5h-1.6zm10 .5h.2c.5 0 1.3-.1 1.3-1.1V4.7c0-1-.7-1.1-1.3-1.1h-4.4v5.1h1.5V6.9h.9l2 1.8h2.2l-.4-.3-2-1.5zm-.4-1.2h-2.4v-1h2.4c.4 0 .4.1.4.2v.6c0 .2 0 .2-.4.2zm9.9-1.8c-.2-.2-.5-.3-1.1-.3h-3.7c-1 0-1.4.3-1.4 1.3v2.5c0 1 .4 1.3 1.4 1.3h3.7c1 0 1.4-.3 1.4-1.3V4.9c0-.5-.1-.8-.3-1zm-4.7 3.6V4.7h3.5v2.7h-3.5zm8.6-3.9h-1.5v5.2h5.2V7.5h-3.7V3.6zm6.6 0H138v5.2h1.5V3.6zm7 2.6v.4l-.3-.2-3.5-2.8h-1v5.1h1.4V5.5l.1.1 3.7 3h1v-5h-1.4v2.6zm9.7 2.2-2.9-4.8v-.1H152v.1l-2.8 4.8-.2.3h1.5v-.1l.5-1h3l.6 1v.1h1.7l-.1-.3zm-4.4-2 .8-1.5.8 1.5h-1.6z"/><path style="fill:none" d="M129.6 102"/><path d="M144.2 48.5c36.9 8 64.4 24.3 64.4 24.3a38.2 38.2 0 0 0-16.5-25.6V6.1h-34.4l3.7 5.1H51.1l3.8-5.1H20.4v34.2h11.4S6.6 50.4 4 72.8c0 0 28.4-16.8 66.1-24.7a190.2 190.2 0 0 0-34.7 15.7l-1.2.7.1 1.4c2.9 31.1 29.1 55.7 70.2 66l.5 5-3.6-2.2a.3.3 0 0 0-.4 0c-.1.1-.2.3-.1.4l5.2 14.7v.2h.6v-.2l5.2-14.7c.1-.1 0-.3-.1-.4a.3.3 0 0 0-.4 0l-3.6 2.2.5-5c41.8-10.4 68.4-35 71.2-66l.1-1.4-1.2-.7c-12-6.6-23.3-11.7-34.2-15.3z" style="fill:#003468"/><path class="st4" d="M59.4 105a59.5 59.5 0 0 1-20.7-38 148 148 0 0 1 61.2-20.3A87 87 0 0 0 77.8 57c-14.2 9.5-25.6 13.4-35.9 12.3l-.3.1-.1.3c2.8 8.3 12.7 28.3 44.9 38l3.4-3.8s-1.8 8.3-4.5 13.9h.1c.1 0 9.7-.1 17.2-5.5l1.4 15A105.9 105.9 0 0 1 59.4 105z"/><path class="st1" d="m108.6 127.4 1.4-15a33.2 33.2 0 0 0 17.2 5.5l.2-.1c-2.8-5.4-4.6-13.8-4.6-13.8l3.4 3.8c32.2-9.8 42-29.8 44.8-38.1l-.1-.3-.3-.1c-10.3 1.1-21.7-2.8-35.9-12.3a86.6 86.6 0 0 0-22-10.3c19.4 1.2 39.8 7.9 62.2 20.4-3.3 27.9-27.9 50.3-66.3 60.3z"/><path class="st4" d="M89.3 80.4c-5.1 3.4-7.7 7-8.7 8.7 2.7-2.5 5.8-4.6 9.2-6.4l-.5-2.3zM88.5 74.5a30 30 0 0 0-10 9.5c2.9-2.7 6.3-5 10.2-6.9l-.2-2.6zM82.7 94.2c2.5-2.3 5.3-4.3 8.5-6l-.5-2.2c-4.7 3.3-7 6.6-8 8.2z"/><path class="st4" d="m106.3 128.4 2-22.8 3.6 2.8a24 24 0 0 0 9.8 4.3l-1.1-3.3-2.4-7.1 4-.9c26.2-5.8 37.8-18.4 42.7-27.6a69.8 69.8 0 0 1-32.2-13.1 82.4 82.4 0 0 0-26.3-11.2h-.1c-3 .7-15 3.7-26.2 11.2a66 66 0 0 1-32.2 11.9A66 66 0 0 0 80.8 63a101 101 0 0 1 15.5-7.3c-.6.9-1 1.8-1.3 2.9-1.6 7 .8 3-3.4 8.7-4.2 5.7 3.6 21.8 3.6 31.2C99 88 89.1 74.9 93.8 68.8c3.9-5 2.3-2.7 3.7-9.2 1-4.9 6.3-6.6 8.8-7.1 2.5.5 7.7 2.1 8.8 7.1 1.3 6.5-.2 4.2 3.7 9.2 4.8 6.1-5.2 19.2-1.1 29.7-5.9-11.8 2.9-25.2-1.7-29-4.5-3.8-3.2-7-4.3-10.3-.8-2.5-3.9-3.2-5.3-3.5v72.7z"/><path class="st1" d="M92.9 59.2c-1.2.2-4.7 1.2-3.1 7 3.8-5.2 2.2-2.5 3.1-7zM116.7 59.2c1.2.2 4.7 1.2 3.1 7-3.9-5.2-2.3-2.5-3.1-7z"/><g><path class="st5" d="m124 74.5-.2 2.6c3.9 1.9 7.3 4.2 10.2 6.9a30 30 0 0 0-10-9.5zM123.2 80.4l-.5 2.3c3.5 1.8 6.6 4 9.2 6.4-1-1.7-3.6-5.3-8.7-8.7zM121.9 86l-.5 2.2c3.2 1.7 6 3.7 8.5 6a31.6 31.6 0 0 0-8-8.2z"/></g><g><path class="st1" d="M62.1 37.1c0 4.1 2.7 6.8 6.2 6l.1-26.5h-6.2l-.1 20.5zM56.7 24.4h2.9v-4.2h-2.9v-3.6h-6.3v4l-10.9 4.3h10.9v18.2l-4.8.6V27.9H32.9v-9.1l6-2.6v6.1l6.8-2.8v-7.3H26.1v22.1h12.8V44s-16.6 5.3-27.8 19c0 0 21.4-12.3 51.6-18.7 0 0-1.8-.9-6.1-1.2l.1-18.7zM81.2 16.6h-9.6v18.8c0 4.1 2.7 7 6.2 6.5l.1-21.3h3.3L81 34c0 4.1 2.7 7 6.2 6.5l.1-17c.1-4.1-2.3-6.8-6.1-6.9zM100.3 16.6h-9.6l.1 17.5c0 4.1 2.7 5.8 6.2 5.7l9.4-.2.1-11.7h-8.1l1.9 3.5v4.5l-3.2.1V20.6l3.3.1v4.2h6.2v-1.2c-.1-4.2-2.9-7.3-6.3-7.1zM119.5 16.6h-9.6l.1 17.2c0 4.1 2.7 6 6.1 6.2V29.8l3.2-1.3v4.3c0 4.1 2.7 7.5 6.2 7.7l.1-7.7c.3-3.4-4.9-5.8-4.9-5.8 3.9-.4 5-2.1 5-2.1v-1.2c0-4.2-2.7-7.3-6.2-7.1zm-.1 8.5h-3.3v-4.6l3.3.1v4.5zM186.5 50.3V27.9h-12.7v-9.3l6-2.5v8.5l6.8-2.8v-9.7H167v22.1h12.8v12.7l-.2-.1s-7.7-2.6-16.3-3.8V16.6h-6.2l-.1 13h-3.2v-13h-6.3l.1 11c0 4.1 2.7 5.9 6.2 5.9h3.1v8.9c-3.6-.1-7 .2-9.8 1.2 0 0 3.9.8 9.8 2.3v.1l2.9.7a209.5 209.5 0 0 1 26.6 8.9c4.9 2.1 10 4.5 15 7.3 0 0-3.6-5.5-14.9-12.6zM138.5 16.6h-9.6l.1 18.3c0 4.1 2.7 6.2 6.1 6.7v-10l3.2-1.2v4.2c0 4.1 2.7 7.7 6.2 8.2l.2-19.2c.1-4.1-2.7-7.2-6.2-7zm-.1 10.5h-3.3v-6.5l3.3.1v6.4z"/></g><g><path class="st0" d="M81.1 28.1V34.4c.1 2.8 1.5 5 3.6 5.9l.1-14.7-3.7 2.5zM71.6 28.1v7.4c0 3 1.4 5.3 3.6 6.2V25.6l-3.6 2.5zM62.1 28.1v9c0 3 1.4 5.2 3.6 5.9l.1-17-3.7 2.1zM138.4 30.4v4.3c0 3 1.4 5.7 3.6 7.2l.1-12.9-3.7 1.4zM129 28v6.9c0 2.9 1.4 4.9 3.5 5.9V25.5L129 28zM94.3 39.5v-14L90.7 28v6.1c0 3 1.5 4.8 3.6 5.4zM103.7 39.7l.1-10.8-3.6 2.4v.1l-.1 4.5v3.9zM151.2 33.1v-7.6l-3.6 2.5a5.3 5.3 0 0 0 3.6 5.1zM113.5 25.5l-3.6 2.5v5.7c0 3 1.4 4.8 3.5 5.6V31l.1-5.5zM123 32.5c.1-1.6-2.1-3.3-3.6-4.1v4.2c0 3 1.4 5.6 3.6 6.9v-7zM54.1 43.2v-20l-3.7 1.7v18.2l-4.8.6-2.6 3.6V30.7h-8.8l-8.1 3.4h12.8V44s-15.5 4.9-26.7 17.7L11.1 63l1.5-.8 1.4-.7 1.9-.9C23.8 56.7 41 49 62.7 44.4c-4.9-1.8-8.6-1.2-8.6-1.2zM183.8 53.3V30.7h-12.7v-5.2l-4.2 2.5v6.1h12.8v12.7l-.5-.2c-1.5-.5-8.4-2.6-16-3.7l-2.6-.4V25.4l-3.7 2.5v14.4c-2.5-.1-5 .1-7.2.5l-1.7.4-.8.3 7.3 1.7.8.2.5.1.8.2.5.1v.2l2.9.7a209.5 209.5 0 0 1 26.6 8.9l2.8 1.2 2.3 1a129 129 0 0 1 9.8 5l-.5-.7a57.6 57.6 0 0 0-14.3-11.9l-2.9 3.1z"/></g><path class="st4" d="M106.3 139.9v6.7l3-8.6z"/></svg>