<svg version="1.1" id="Layer_1" xmlns="http://www.w3.org/2000/svg" x="0" y="0" viewBox="0 0 453.1 389.8" style="enable-background:new 0 0 453.1 389.8" xml:space="preserve"><style>.st0{fill:#002b5c}.st1{fill:#6799c8}.st2{fill:#ffc425}.st3{fill:#fff}.st4{fill:#e5b53b}</style><path class="st0" d="M357.7 322.3h-2.6v-1h6.3v1h-2.6v7h-1.1v-7zM362.4 321.3h1.6l2.6 6.1 2.5-6.1h1.6v8h-1.1v-6.6l-2.7 6.6h-.7l-2.7-6.6v6.6h-1.1v-8z"/><g><path class="st1" d="m422.3 277.8 3.5-2.5 14.2-35.4-20.7-14.7 2.1-5.2c.9-2.2 1.3-4.5 1.3-6.7a16.3 16.3 0 0 0-6.6-13.1l-7.5-5.3a16.2 16.2 0 0 0-13.4-2.8l-51.5 10.5c19.8-11 23.9-23 23.9-30.6 0-4.9-1.6-8.5-2.5-10.3-2.5-4.6-10.2-13.9-28.6-7l.1-1.7-.1-1.6a20 20 0 0 0 4.9-12.2l-.2-2.3a23 23 0 0 0-23.4-16.7c-1 0-2.2.3-3.4.7l-1-.7c-.6-3.1-1.4-6.4-2.6-8.4l-.2-.4c-1.5-2.6-6.2-10.8-15.8-16.1a88.8 88.8 0 0 0-41.1-8.7l-1.4-.5c-5-1.6-19-1.7-27.6.8-3.8-.7-7.1-.9-9.6-.6a27.7 27.7 0 0 0-21.9 14.1l-2.7.6a120.7 120.7 0 0 0-61.1-12.1c-6.1.4-17.4 1.1-18.3 9.4l-.1 1c0 2.5.9 4.4 2.2 5.7-17.4 2.9-29.2 8.8-30.8 15.6l-.3 2.3c0 2.3.8 4.5 2.4 6.1l.9.7-.8.1c-3.9-2.7-9-3.2-13.1-3.1a238.8 238.8 0 0 1-20.1-29.4c.4-.9 1.2-2.3 2.5-4.2 11.7-17.6 50.5-54.7 79.8-59.8 4.5-.8 7.9-4.4 8.5-8.9l.1-1.2c0-4.1-2.4-7.8-6.3-9.5C107.3 1.3 103.6 1.1 102 1c-50.3-2.9-56.2.8-58.2 2C38.2 6.4 27 27.6 18.6 44.7 11.7 58.9.1 84.1 0 93.3c0 4.3 0 9.4 35.3 52.7a34.8 34.8 0 0 0-1.8 11.3c0 14.6 8 30.8 23.5 48.1l-.1 1.8.2 3.3c-.9-.1-1.8-.3-2.8-.1-2.1.3-7 1.9-8.4 9.4-.2 1.3-.5 4.1-.5 7.9 0 11.4 2.3 31.7 14.5 45.7.7.8 1.5 1.4 2.5 1.9l-42.9 8.9-6.5 16.4 9.1 6.5L.4 361.3 39 388.5 59.3 374l11.3 8 8.4-6 31.3-6.4 28.6 20.2c6.4-4 15.6-8.2 21.9-10.9 10.5 3 21.2 5.2 31.7 6.4 42.6 4.9 77.9-3.8 107.9-26.3a84.2 84.2 0 0 0 27.7-11.7 82.4 82.4 0 0 0 29.4-37.2l10 7 85.5-17.5-30.7-21.8z"/><path class="st0" d="m410.6 277.8 9.6-6.8 11.5-28.6-19.5-13.8-1.2-.8 4-10.1c1.4-3.5 1-7.1-1-9.9a9.5 9.5 0 0 0-2-2l-7.4-5.2a10 10 0 0 0-8.2-1.7L288.5 221c5.7-3.3 11.2-7.2 17.2-11.8A118 118 0 0 0 342 196c15.4-9 18.7-17.8 18.7-23.8 0-3.5-1.2-6-1.7-7-2.7-5-9.2-9.4-24.2-2.3a24 24 0 0 1-7.3-2.2 13 13 0 0 0 2.3-7.6c0-1.2-.2-2.5-.5-3.7 3.6-3.4 5.3-7.3 5.3-10l-.1-1a16.5 16.5 0 0 0-16.5-11.2c-1.2 0-3.2.8-5.3 2.4-1-2-3-4.1-5.4-4.6-.5-3.6-1.4-7.9-2.4-9.5l-.2-.4a34.4 34.4 0 0 0-13.2-13.6c-7.9-4.4-28.9-9.7-38.5-7.7l-2.9-1a58 58 0 0 0-25.1 1.3c-3.8-.8-6.9-1.1-9.2-.8-11.7 1.5-16.4 8.2-18.3 14a13 13 0 0 0-7.4 1.4c-14.3-7.4-31-11.3-45.1-12.6-5-.5-26.9-.8-27.3 3.4v.3c0 2.6 4.2 2.9 8.1 3.4 11.7 1.6 13.7 3.5 13.7 4.6 0 1.3-4.4 2.3-13 2.9-27.1 2.1-37 9.6-37.6 12-1 4.1 5.3 2.9 6.9 2.5 13.4-2.8 25.3.8 25.3 3.1 0 1.6-5.8 3.1-12.1 4.2a57.3 57.3 0 0 0-17.5 5.9 9.6 9.6 0 0 0-8.8-.8c-2.6-3.2-6.5-3.5-8.5-3.6h-.3l-5.7-.1C50 109.8 45.2 101.1 44.3 98c0 0-.1-2 4.1-8.2C61 70.6 101 32.4 132.6 26.9a3.5 3.5 0 0 0 2.9-3.1c.2-1.6-.7-3.1-2.1-3.7-8.3-3.6-28-11.9-31.8-12.2-4.9-.3-48.4-2.8-54.3.8-6.5 4-40.5 71.9-40.6 84.5v.1c0 2.5.7 7.8 35.7 50.6l.2 1.7a27.1 27.1 0 0 0-2.3 11.5c0 10.5 5 25.7 23.8 45.9-.2 1.4-.4 2.7-.4 4a17 17 0 0 0 3.3 10.4c2.7 3.6 7 5.9 12.4 7-1.2 5.5-2.1 10.8-2.6 15.8A57.6 57.6 0 0 1 59 219.5c-1-1.8-2.3-2.7-3.6-2.5-1.4.2-2.3 1.6-2.8 4-.8 4.3-1.8 31.5 12.5 47.9 1.2 1.4 5.7 1.7 12.1.4.5 3.5 1 6.7 1.6 9.5l-54.2 11.3-3.2 8.1 9.1 6.5-21.8 54.1L39 380.2l20.3-14.5 11.3 8 5.7-4.1 49.5-10.1a185 185 0 0 0-9 6.4l22.5 15.9c7-3.9 13.9-7.2 20.9-10.1a193 193 0 0 0 33 6.8c41.2 4.7 75.5-3.8 104.2-25.8a76.6 76.6 0 0 0 26.8-11.1 76.3 76.3 0 0 0 29.7-42.3l15 10.5 67.3-13.8-25.6-18.2z"/><path class="st2" d="M273.2 356.6a146.4 146.4 0 0 1-52.8 3.7c15.7-.4 27.7-2.3 40.2-5.4-23.1-.4-55.5.9-89.4 12.7 7.5 1.9 15.2 3.3 23.1 4.2 21.4 2.5 42.2.5 62.1-5.6-22.5 4-45.9 1.8-62.1-2.5 34.7 4.5 60.5-.5 78.9-7.1zM106.7 217.7c-7.7 4.9-14.7 6-20 6.1-1.3 4.7-2.6 11.9-3.3 20.5a43.2 43.2 0 0 0 18.8 2.8 80 80 0 0 1 11.6-21.4l-7.1-8z"/><path class="st1" d="m191 153.1 4.6 1.3a117 117 0 0 1 2.9-9.1l-.1-.4a39 39 0 0 1-4-3.8c-.8 2.6-2.4 8.1-3.4 12z"/><path class="st2" d="M289 209.9c-14.7 10.1-88.5 32-107.7-6.5-2.1-4.3-.7-16.6 6.1-25.3a47.6 47.6 0 0 0-18.7 9.8c-1 .8-4.3 2.3-5.3-1.3-.9-3.5.3-15 10-29.3 1.6-2.4 4.2-7 9.2-5.9l4.9 1c.7-3.6 2-10.6 3.3-15.2-1.5-1.9-3.1-3.9-4.3-5.9-17.8 4.6-50.6 14.6-75.4 44.9 7.6 4.6 11.6 13.2 8.2 24.1l4.8 5.9c-1-15.3 4.2-22.4 5.5-23.1 2-1 4.5.4 6.9 5-.5-6.5 1.1-12.6 3.4-14.1.8-.5 2.7-.8 6.2 2.9-1.2-3-1.9-5.2-2-6.1-.4-4.1 17.6-24.5 38.7-33.3-16.8 10.2-33.9 28.8-33.5 34 .4 4.9 12.8 24.6 19.5 33.3a35 35 0 0 1 9.5-19.1c-6.1 11.3-7.3 26.3-5.2 29.1 27.7 37 98.5 10.7 122.6-5.4l-6.7.5z"/><path class="st2" d="M353 168.3c-1.8-2.5-10.6-4.8-32.9 12-11.3 8.5-37.5 26.5-61.3 16.3 13.3 2.6 34-.2 57.5-20.1 3-2.6 8.1-6.4 13.7-9.7a27.8 27.8 0 0 1-11.7-6.2c-5-4.4-10.3-6-14.1-5.8a8.3 8.3 0 0 1 6-1.7c4.6-16.2 10.9-16.8 14.9-13.9a6 6 0 0 0-3 .2c1.7 1.7 3.1 3.5 4.1 5.2 1-1.5 1.9-3.2 2-4.7.2-2.3-4.2-7.5-9.2-7-5 .5-10.2 9.8-11.6 17-.7-3.9-.6-7.2 0-9.9a98.6 98.6 0 0 1-12.4 7c4-.2 7.6.4 10 1.9-4.1-.6-28.5 3.4-36.4 8.8a24 24 0 0 1 5.1-4.1 67.5 67.5 0 0 1-16.9.7c3.3 2.7 6.8 4.9 9.8 6.3-5.9 0-15.3-4-28.1-20.1-4.3-5.4-9.6-13.8-23-13.3-4.1.1-14 4.9-13.6 14.3.1 3.4 2 11.7 7.2 15a20.8 20.8 0 0 1-8.3-6.3 38 38 0 0 0-1.9 5 80.7 80.7 0 0 1 15.5 6.7c-.4-1.6-.7-3.4-.8-5.2a18.8 18.8 0 0 1 5.4-14.1h-.1c-3.8.2-8.1 2.2-8.9 8.3-2.4-3.4-.1-10.9 6.7-12.2 7.7-1.5 13.8 2.6 24.6 13.1 4.8 4.7 19.4 15.7 25.1 13.6 2.2-.8 1.6-3.4 1.6-3.4 1.8 2.6 1.7 6.8-2.8 7.2-1 .1-4.7.3-11.1-2.9-.9 2.2-2.3 4.1-4 5.8a21.8 21.8 0 0 1-15 5.8c2.2 2.9 3.9 6 5.1 9.5-6.4-10-28.7-27.6-58-31.3-2.4-.3-3.2 1.4-3.7 2.1-.5.7-8.7 12-9.7 23.1 8.7-8.1 44.8-16.1 60.8 1.5a55.3 55.3 0 0 0-16.8-5.8c-2.4 2.1-3.2 6.3.7 9 4.5 3.1 65.5 37.1 125 3.9 10.4-5.4 18.6-15.9 14.5-21.6zM96.8 275c.1-5.1.7-10.1 1.7-14.8a50.3 50.3 0 0 1-14.9 7c.3 3.4.8 6.9 1.4 10.3l11.8-2.5z"/><path class="st3" d="M322 144.6c.2 1.1.2 2.3.1 3.5-.3-.5-.8-.8-1.4-.8-1 0-1.8 1.1-1.8 2.5s.8 2.4 1.8 2.5a8.6 8.6 0 0 1-3.9 3.3c1.9 1 3.6 2.2 4.9 3.2 4-4.5 2.6-10.3.3-14.2z"/><path class="st1" d="M307.7 134.8c-2.1 2.1-27.9 19.7-55.8 15.4-1.6-1.5-3.1-3-4.5-4.6 10 1.8 36.8 2.2 59.6-15.5 1.5 1 2.9 2.6.7 4.7z"/><path class="st1" d="M288.5 104.9a97.4 97.4 0 0 0-29.1-7.6c11.6 4.8 24.3 11.8 28.8 18 3 4.2 5.4 11.9 5.5 18.3a85 85 0 0 0 9-5.1c-.5-4.3-1.4-9.7-2.4-11.4-1.1-1.6-3.7-7.8-11.8-12.2z"/><path class="st1" d="M248.6 97c6.8 2.5 32.2 13.3 37.1 21.6 2.7 4.6 4.2 7.9 4 17a91 91 0 0 1-16 5.2c-.2-3.1-.7-8.2-1.8-12.7-3.4-14.3-24.1-25.9-40-31 5.6-.8 14.5-1 16.7-.1z"/><path class="st1" d="M217.9 98.2c8.5-.6 45.6 12.5 49.7 30.5a52.2 52.2 0 0 1 1 13.1 72.8 72.8 0 0 1-24.6-.3l-1.5-2.1c-8.8-14-18.6-17.9-27.8-16.4-2.4.4-4.4 1-6.2 1.8-2.4-1.6-6.3-4.6-6.6-6.1-.3-1.9-1.4-19.2 16-20.5zM197.6 113.6c-.2 3.2.1 5.7.2 6.4.3 1.9 4.1 5.2 6.6 7.1l-2.4 2.2c-4-3.1-11.6-9.9-8.1-14.6.6-.7 2.4-1 3.7-1.1zM198.1 138.2a49.3 49.3 0 0 1-6.6-7.5c-.7-1-.5-4-.3-6.3 1.8 2.6 4.6 5.5 8.7 8.3-1 1.9-1.5 3.8-1.8 5.5z"/><path class="st2" d="m187.8 113.7-.4 2.8a153.3 153.3 0 0 0-48.7-15.8c23.5.8 40.9 8.1 49.1 13zM146.8 108.6c.3-1.2.2-2.9-1.4-4.5a135.3 135.3 0 0 1 41.4 16.5l-.4 5.3-7.2 1.9a143.7 143.7 0 0 0-49.3-12.3c13.6-1 16.4-4.7 16.9-6.9z"/><path class="st2" d="M168.2 131.3c-9.2-4.6-34.4-15.4-60.2-12.5 1.9-.5 4.4-1 7.2-1.5a140 140 0 0 1 58.5 12.2l-5.5 1.8z"/><path class="st2" d="M111.2 137.5c13.8-2.4 16.6-6.2 16.8-9.3.2-3.4-2.7-6.2-7.7-7.9 19.1 2 35.7 9.4 42.5 12.9-5.6 2.1-11.1 4.6-16.6 7.5A98.3 98.3 0 0 0 105 139c2.3-.7 4.5-1.2 6.2-1.5z"/><path class="st3" d="M127.1 268.7v-2.4c.1-1.7-.1-2.8-.7-3.9l-3.6-3.9c-3.5-3.1-9.2-9.8-1-23.7l-3.9-4.4a81.7 81.7 0 0 0-14.5 43.1l23.7-4.8z"/><path class="st2" d="M109 151.8c-2.6-.5-5-4-8.5-6 14.1-1.8 26.3.8 32.8 2.7-5.4 3.6-10.8 7.8-16.2 12.6 1.5-4.8-2-8-8.1-9.3zM137.5 145.8a101.3 101.3 0 0 0-40.1-2.1l-.8-.8a90.5 90.5 0 0 1 45.2.3l-4.3 2.6z"/><path class="st3" d="M155.8 221c26.8 21.9 66 31.2 92.6 12.4-52.9 16.9-80.1-10.9-80.3-17.8l.1-4.2a77.3 77.3 0 0 1-13-16.9 69 69 0 0 1-11.4-13.5c-.7-1-1.4-1.2-1.8 0-1.1 3-.6 17.4 4.3 28.3-5.9-4.4-10.5-16.2-14.1-19.8-.3-.3-.9-.3-1.2.4-1.7 3.1-4 15.1 2.5 27.3l11.7 14c1.3-.2 2.9-.3 4.6-.2 13-6.2 25 9.2 25.9 10.2a55.6 55.6 0 0 1 10 15.3l14-2.9a45 45 0 0 1-14.5-6.1c11.1 3.4 23.2 5 36.7 1.5a90.3 90.3 0 0 1-66.1-28zM279.9 210.1c-5.1 2.1-11.6 4.4-19 6.3.2-3.2.6-6 .8-7.9 6.4 1 12.4 1.5 18.2 1.6zM256.2 217.5c-9.6 2.2-20.2 3.6-30.4 3.1 3.8-8.1 8.2-15.6 10.2-18.9a127 127 0 0 0 20.9 5.9 162 162 0 0 0-.7 9.9z"/><path class="st3" d="M208.1 187.2a414.8 414.8 0 0 0-16.8 20 36.6 36.6 0 0 1-5.1-6.5c-2.4-3.8.9-15.7 7.4-24 5-.7 9.8-.6 14.3-.1-3 3.7-1.9 7.9.2 10.6zM248.2 167.7A12 12 0 0 1 232 163a16 16 0 0 1-1.2-2.7c.5.3 1.1.5 1.7.4 2-.1 3.6-2 3.5-4.2-.1-2.3-1.8-4-3.8-4-.5 0-1 .2-1.4.4.4-1.3 1-2.4 1.8-3.5-2.2-2-4.8-4.1-7.7-5.4a14.5 14.5 0 0 0-6.7 12.7c.1 3.3 1.1 6.4 2.7 9 3.6 2.2 7 4.8 10 7.6 1.3.4 2.7.6 4.1.7a17 17 0 0 0 12.1-4.8l1.1-1.5z"/><g><path class="st2" d="M58.4 230.8c.3 4.1.9 7.9 1.7 11.3a50.5 50.5 0 0 0 32 12c-6.4 1.6-20-1-30.9-7.5.8 2.9 1.6 5.4 2.5 7.6a38.5 38.5 0 0 0 19.9 2.4c-4.5 2.3-13 2.4-18.6.6 1.9 4 3.7 6.2 4.6 6.3 13 .9 24.2-5.7 32.3-12.2-24.1 2.2-36.3-11-43.5-20.5z"/></g><g><path class="st4" d="m88 189 1.9-1.6M91.8 185.4c2.1-2.4 3.6-5 4.6-6.6"/><path class="st1" d="m115.6 195.6-8.9-10.9c-.5-1.8-1.3-4-2.8-6l.3-.5c10.6 2.6 12 11.8 11.4 17.4zM90.7 144.6c.7.9 1.5 2 2.6 3.1-.7.2-1.5.5-2.4 1.2a9.5 9.5 0 0 0-7.1-3.2l-.1-2.5c1.7-1.5 4.5-1.9 7 1.4zM78.3 146.4l-1.3.5a65.8 65.8 0 0 1-15.5 4c-1.4.1-2.6.4-3.5.6-5.9-3.4-6.3-7.3-6.3-7.3 1.3-3 10.5-3.9 12.6-4 2.2-.1 2.9-.5 9.1-.1 4 .3 4.8 3.7 4.9 6.3z"/><path class="st2" d="M43.5 86.3a26.3 26.3 0 0 0-5 11.1l.1 1.7c1 4.9 9.9 18.1 23.4 36-2.6.2-6 .8-8.9 1.9-18.9-24.7-28.8-39.7-29.6-43.5v-.2c.1-1.8 2.8-7.2 6.7-14.1 4.1-.4 13.4-1.2 19.6-1.2-2.5 3-4.6 5.8-6.3 8.3z"/><path class="st3" d="m34.4 41.9-3 6a78 78 0 0 0 3.7 8.8s-3.1-3.3-5.2-5.9l-3.8 7.7c1 2.7 2.5 6.3 3.3 7.8l-4.6-5.2-2.4 5.1c1.6 2.6 3.8 6 5.7 8.1a653 653 0 0 1 10.6-17.8l1.9-3.1c-1.4-2.5-4.3-7.2-6.2-11.5zM45.4 54.1l-3.7 6c3.9-.4 13.4-1.1 19.5-.3 0 0-12.8 1.8-21.4 3.4l-2.9 4.7c4-.3 12.8-.8 17.9-.4-10.9 1.9-14.7 2.4-19.9 3.6l-2.8 4.7c4.2-.4 14-1.2 20.4-1.2 6.1-7.1 14-14.9 22.7-22.4-7.8.2-22.3.5-29.8 1.9z"/><path class="st2" d="M47.7 50.4c7.4-11.5 14-21.5 16-23.9 3.8-.9 30.8-1.4 53-1a152.8 152.8 0 0 0-37 22.9c-7.1.2-23.7.5-32 2z"/><path class="st2" d="M50.5 13.6c3.3-1.7 35.3-.8 50.8.1 1.5.1 10.1 3.5 19.7 7.5-58.2.1-59.8 1.5-60.4 2a377 377 0 0 0-17.5 26.4 92.8 92.8 0 0 1-6.6-11.9 170.8 170.8 0 0 1 14-24.1zM12.6 92.9a94 94 0 0 1 8.1-22.8c1.5 2.5 3.6 5.7 5.5 7.8-7.3 13.4-6.9 15.5-6.6 16.6 1 4.6 11.7 20.2 30.4 44l-.8.5a5 5 0 0 0-2.9.6C26 114.7 12.8 97.1 12.6 93.3v-.4z"/><path class="st1" d="M47 151.4c1.2 1.2 2.6 2.3 4 3.2a2 2 0 0 0-.8 1.4c-1.6 9.6 4.9 14 10.7 17.1-.8 1.3-1.2 3-.7 4.6 3.4 11.3 22.2 14 23.5 13.6h.2l11.3 13.1c-11.4 7.2-22.3-1.7-28.9-7.3-3.8-3.6-24.4-29.1-19.3-45.7z"/><path class="st1" d="M69.2 206.4c9 7.4 23.9 7.1 29.4 2l4.8 5.5a35.7 35.7 0 0 1-20 4.9c-11.2-.7-14.2-7.3-14.2-12.4zM62.1 156c2.4-.4 11.2-1.5 17-4 6.4-2.7 8.6 2.7 9.2 6.2-1.3.1-2.4.4-3.1.9-3 2-8.3 4.1-11.4 5.4-2.1.9-5.3 2-7.4 3.4-7.9-3.4-9.6-9.4-9.6-9.4s1.4-1.9 5.3-2.5zM77 168.7c2.9-.9 10-4.2 11.6-5.4 1.6-1.2 5.6.1 7.7 2 5.5 5 5 8.7 3.8 11.2l-5.2-6.5-1.9 4.7c-2.4 5.1-6.6 10.3-8 10a27.8 27.8 0 0 1-16.8-9.1c-.2-2.7 5.9-6 8.8-6.9zM96.3 150.6c2.5 2 5.6 4 9.7 5.2 2.6.8 7.1 6.9-2.6 10.9a30 30 0 0 0-4-4.9A11.6 11.6 0 0 0 94 159a20 20 0 0 0-1.2-6.6c.7-.8 1.8-1.6 3.5-1.8z"/><path class="st2" d="M96.4 178.8c-.9 1.7-2.5 4.2-4.6 6.6l25.6 32.3-27.5-30.3L88 189c12 14 14.1 16.2 27 30.9l3.7.1 3.6-9.6c-12.6-14.9-14.4-17.4-25.9-31.6z"/></g><g><path class="st1" d="m93.5 284.7-21.6 54 8-5.7L98 287.8zM61.8 291.1l-21.6 54.1 8-5.7 18.1-45.2zM51.8 349l-20.3 14.5 4.5 3.1 20.3-14.5zM126.3 289.8l-.1-.1h.1l3.4-8.4-4.5-3.1-25.7 64 7 5-2.5-1.8zM79.4 352.7l4.5 3.1 27.1-5.5-4.5-3.1zM63.2 357l4.4 3.1 12.4-8.7 3.5-8.9zM214.6 259.9l-25.9 64.7 4.5 3.2 25.9-64.7zM195 329.1l-24.4 5 4.5 3.1 24.3-5z"/><g><path class="st1" d="m159.4 292.3-12.9 2.6-13.1 32.6 8-5.8 9.5-23.6 6.7-1.4-7.6 18.9zM144.6 343.4l24.4-4.9-4.5-3.2-24.4 5zM179.5 292.2 175 289v.1l-16.8 41.8 4.5 3.1 16.7-41.8h.1z"/><path class="st1" d="m143.8 331.1-18.3 13.1 4.5 3.1 10.3-7.3-.2.3z"/></g><g><path class="st1" d="m299.4 267.7-4.5-3.2v.1l-7.7 19.2-33.7 24 12.5-2.6 25.6-18.2 7.7-19.3h.1zM266.4 270.4l-9.1 22.6 8-5.7 5.5-13.7 6.7-1.4 1.8-4.4zM290.9 309.5l-45.1 9.2 4.4 3.2 45.1-9.3z"/></g><g><path class="st1" d="m320.9 283.8 13-32.5-4.5-3.1-16.5 41.3M304.4 307.6l4.5 3.2 8.7-6.2c2.9-4.5 4.4-8.3 5.2-10l-18.4 13z"/><path class="st1" d="m357.9 242.3-20.8 52-1.1 2.8c-9.9 24.5-29.8 44.9-74.6 43.3-37.4-1.3-82.2 1.4-125.6 23.7l4.5 3.2c43.4-22.2 88.3-24.9 125.6-23.7 44.9 1.5 64.8-18.9 74.6-43.3l1.1-2.8 20.8-52-4.5-3.2z"/></g><g><path class="st1" d="M246.1 265.2h.1l3.4-8.4-4.5-3.1-26 64.7 4.5 3.2 22.6-56.3zM225.4 322.9l-24.3 4.9 4.4 3.2 24.4-5z"/></g><g><path class="st1" d="m417.3 243.6-4.5-3.2v.1l-7.7 19.2-33.7 24 12.5-2.6 25.7-18.3 7.7-19.2zM384.3 246.3l-9.1 22.6 8.1-5.7 5.5-13.7 6.6-1.4 1.8-4.4zM405.9 286l-42.2 8.6 4.5 3.2 42.2-8.7z"/></g><g><path class="st3" d="m125.2 278.2-27.1 5.5 7 4.9-14.8 37-18.4 13.1 21.6-54-27.1 5.5 7 4.9-14.8 37-18.4 13.1 21.6-54.1-27 5.6 6.9 4.9L22 351l-1.8 4.4 11.3 8.1L51.8 349l11.4 8 20.3-14.5-4.1 10.2 27.1-5.5-7-5zM214.6 259.9l-24.3 5 6.2 4.4-25.9 64.8 24.4-5-6.3-4.5zM245.1 253.7l-24.4 5 6.3 4.4-25.9 64.7 24.3-4.9-6.3-4.5zM175 289l-10.2-7.2-38.6 7.9 6.3 4.4-17.2 42.8 10.2 7.2 18.3-13-3.7 9.2 24.4-5-6.3-4.4L175 289zm-25 26.6-16.6 11.8 13.1-32.6 12.9-2.6-9.4 23.4zM294.9 264.5l-10.2-7.2-38.6 7.9 6.3 4.4-16.8 41.8v.1l10.2 7.2 45.1-9.2-10.3-7.3-27.2 5.6 33.7-24 7.8-19.3zm-21 16.7L257.3 293l9-22.6 12.9-2.6-5.3 13.4zM412.8 240.4l-10.2-7.2-38.6 7.9 6.3 4.4-16.8 41.8v.1l10.2 7.2 42.2-8.6-10.2-7.3-24.3 5 33.7-24 7.7-19.3zm-21 16.7-16.6 11.8 9-22.6 12.9-2.6-5.3 13.4z"/><path class="st3" d="m333.5 247.3 6.3 4.4-10.4 25.9-16.6 11.8 16.6-41.3-24.4 5 6.3 4.4-17.2 42.8 10.2 7.2 18.3-13c-2.5 5.4-12.5 33.1-52.4 33-19.5 0-81.3-.2-134.6 36.6 43.4-22.2 88.3-24.9 125.6-23.7 44.9 1.5 64.8-18.9 74.6-43.3l1.1-2.8 20.8-52-24.2 5z"/></g></g><g><path class="st3" d="M256.4 235.6 255 239l7.9-1.6-6.2 15.7 5.3-1 6.3-15.8 5.9-1.2 1.4-3.4zM287.8 246.8l-10.5 2.2c-1.9.4-2.7-.2-2.4-1.6l.3-1.1 4.9-12.3a7.5 7.5 0 0 1 4.8-4.2l10.5-2.2c1-.2 1.7 0 2.1.5.4.5.4 1.3 0 2.2l-4.9 12.3a6 6 0 0 1-4.8 4.2zm-.5-3.1 4.9-12.3-6.7 1.4-4.9 12.3 6.7-1.4zM387.3 226.4l-10.5 2.2c-1.9.4-2.7-.2-2.4-1.6l.3-1.1 4.9-12.3c.4-.9 1-1.8 1.9-2.6.9-.8 1.9-1.3 2.9-1.5l10.5-2.2c1-.2 1.7 0 2.1.5.4.5.4 1.3 0 2.2l-4.9 12.3a6 6 0 0 1-4.8 4.1zm-.5-3 4.9-12.3-1.3.3-5.4 1.1-4.9 12.3 6.7-1.4zM341.7 221.3l1.4-3.4-16.9 3.4 2.1 1.5-6.8 17.1 14-2.9 1.4-3.4-8.6 1.7 1.7-4.3 8.6-1.8 1.4-3.4-8.6 1.7 1.8-4.4zM369.6 213.4c-.4-.5-1.1-.7-2.1-.5l-8.5 1.7-8.5 1.7 2.1 1.5-6.8 17.1 14-2.9a6.4 6.4 0 0 0 4.8-4.2l4.9-12.3c.5-.8.5-1.6.1-2.1zM359.4 229l-6.8 1.4 4.9-12.3 6.8-1.4-4.9 12.3zM308.1 239.5l6.2-15.7-8.4 1.7 2.1 1.5-6.7 17 14.5-2.9 1.4-3.5z"/></g><g><path class="st1" d="M128.7 250.5c-.6-1.8 1-6.8 1-6.8l-3.6-4c-2.4 4-5.3 8.5-.1 14.1a8 8 0 0 1 2.7-3.3c0 .1 0 0 0 0zM144.5 241c1.2-1.8 1.6-2.7 1.6-4.6 2-.4 5.6-.9 7.5.3 5.8 4.7 8.5 11.9 7.5 13.3-4.5 6.5-12.6 10.2-13.5 9.8-14.7-7-4.7-16.5-3.1-18.8zM138 273c-4.6.5-6.3-4-5.6-6.9.6-2.4-.5-6.1-2.9-8.9.3-.6.8-1.2 1.5-1.7 2.6 4.8 6.1 8.5 7.9 8.9l3.2.5c.2.9.6 2 1.2 3-1.1 2.9-3.6 4.9-5.3 5.1zM150.3 264.2c9.3-2.8 13.8-11 13.8-11 5.2 1.1 7.4 4.5 8.3 7.5-4.9 4.4-10.5 9-17.5 8.6-1.2 0-3.5-2.9-4.6-5.1zM163.2 277.1c-1.5-.1-2.7-1.4-3-3.6 4.2-1.2 9-3.6 14-7.9 4.3 2 4.4 4 4.4 4a24 24 0 0 1-15.4 7.5zM158 233.7c8.8.7 25.5 23.9 23.5 30.3-1.3-1.1-2.8-2-4.3-2.5 1.2-8.1-8.2-13-11.5-13.4 1.3-5.7-2.2-10.4-7.7-14.4z"/></g><path class="st3" d="M140.1 239.5a9.2 9.2 0 0 0 2.3-5.3l-7.3-8.6-2.8 7.3 5.5 8.1-7.2-6.4h-2.8l8.9 10.1c.3-.9 1.4-3 3.4-5.2z"/><path class="st3" d="m128.5 230.5-8.8-8.3h-2.8l9 10.2h3.8l3.5-9.1-8.9-10.6-2.9 7.6 7.1 10.2z"/></g></svg>