<svg version="1.1" id="Layer_1" xmlns="http://www.w3.org/2000/svg" x="0" y="0" viewBox="0 0 447.5 408.7" style="enable-background:new 0 0 447.5 408.7" xml:space="preserve"><style>.st0{fill:#d0d2ce}</style><path id="Second_Trap_3_" class="st0" d="M201.2 391.7a86.7 86.7 0 0 1-37.6-34.1c-4.7-8-6.9-14.8-7.8-18.2-17.1-6.4-28.8-16.4-34.7-29.7a60.7 60.7 0 0 1 0-44.2 82 82 0 0 0-39.4-2.6l2.6 3.3s-60.1 6.9-74.3-52.3l-2.3 2-2.1-5.2a72 72 0 0 1-3.2-45.5A61 61 0 0 1 22 133.3a68.5 68.5 0 0 1 33-14c-4.9-8.2-11.6-8.9-11.6-8.9S56 94.4 96.7 121v-4.3l39.5 27c-8.2-54.4 30.3-89 30.3-89l-1 10.5C193.2 22.3 237 0 237 0c-2.7 23 9 36.8 9 36.8-.7-4.1-1.4-7-1.4-7 55.3 39.2 74.4 95.9 66.8 113.8l39.6-26.8v4.3c37.8-25.5 52.4-11.5 52.4-11.5s-6.4 2-10.3 9.8a69 69 0 0 1 32.6 14 59.2 59.2 0 0 1 19.6 32.1 78.4 78.4 0 0 1-5.5 51.1l-2.2-2.2a68.1 68.1 0 0 1-31.4 40.6c-14.6 8.7-31.4 10.9-32.1 11l-8.8 1.1 2.6-3.9a87 87 0 0 0-41.9 3.2 62.7 62.7 0 0 1-1.4 43.8c-5.9 13-17 22.8-33.1 29.2a92.8 92.8 0 0 1-45.3 52.3c-10.5 12.2-23.1 17-23.1 17s-10.6-4.1-21.9-17zm157.2-152.6a47 47 0 0 1 13.5 17.9c1.3-3.5 2.8-9.9.3-18.3-1.7-.7-3.6-1-5.6-1-2.5-.1-5.3.4-8.2 1.4zm-282.6-.6a32.7 32.7 0 0 0 1 16.3 48.4 48.4 0 0 1 13-15.8 25 25 0 0 0-8.1-1.4c-2.1-.1-4.2.3-5.9.9z"/><path id="First_Trap_3_" d="M203.6 388.5a78.4 78.4 0 0 1-44.5-52.1C103.6 317 124.8 267 124.8 267s3.2 5.4 7 7.5a23 23 0 0 1 2.6-7.7c-26.5-13.9-55.3-7.5-55.3-7.5s4.1-12.4 18.6-21c-10.2-6.2-20.2-5.6-25.6-2.6-3.8 16.8 3.9 26.6 3.9 26.6s-52.6.3-63.9-55.7L9 209.2c-12.3-30.4-.9-59.9 15.2-72.7a65.1 65.1 0 0 1 35.6-13.7c-.2-7.5-8.5-12.6-8.5-12.6s3-1.2 7.9-.9c12.3.7 29.1 10.5 41.2 19.5v-4.5c10.3 7 30.9 21.3 40.7 27.7-8.5-47.2 19.8-83.8 19.8-83.8s-.5 4.7.6 9c33-48 70.8-69.9 70.8-69.9-1.3 17.8 9.9 37.2 23.5 47.5-1.2-5.9-3.8-12.9-3.8-12.9l7.4 6.8c4.2 3.9 19 18.1 31 37.4 14.9 23.8 20.1 46 15.5 66 13.4-8.9 39.2-26.5 41-27.7v4.5c12.1-9 28.9-18.6 41.2-19.5 3.5-.2 7.9.9 7.9.9s-7.1 4.9-8.5 12.6c7.3.5 22 2.9 35.6 13.7 16.1 12.8 27.5 42.6 15.2 73l-3.1-3a63.9 63.9 0 0 1-31.1 44.9c-14.1 8.4-30.5 10.4-30.5 10.4s7.1-10.5 1.7-26.3c-5.3-2.8-13.4-3.6-25.6 2.6 13.3 6.6 18.5 20.7 18.5 20.7s-21.3-6.5-55 7.8a23 23 0 0 1 2.7 7.6c3.6-3.4 6.1-7.4 6.1-7.4s19 49.7-33.7 69.3c0 0-9.7 35.2-44.5 52.1a54.2 54.2 0 0 1-20.6 15.9s-8.5-2.9-19.6-15.7z" style="fill:#1e4183"/><path id="White_Face_3_" d="M223.5 320.1c29.5 0 52.6 17.2 52.6 17.2s-2.4 19.6-26.4 35.7c0 0 3.5-9.2.3-15.9 0 0-7.5 22.5-26.5 34.3-19.1-11.8-26.5-34.3-26.5-34.3-3.3 8.2.3 15.9.3 15.9-24-16.1-26.4-35.7-26.4-35.7s23.1-17.2 52.6-17.2zm210.8-133.2c-2.2-57-52.5-55.9-62.7-50.8.8-7.8 6.8-15.4 6.8-15.4-31.7 15.6-55.3 46.6-66.4 66.7-1.8 12.1-10.9 28.8-28.6 32.9-12.2 2.8-26.1 5.2-26.1 5.2-1.8 5.5-.4 12.7-.4 12.7s-9.8-8.8-7.3-24.5c10.2-12.7 12.2-12.3 20.5-21.1 0 0-7.6 9-10.5 18.8 3.7-5.2 44.1-27.8 44.1-27.8l15.1-25.8c-28.4 16.3-36.6 22-36.6 22s32.2-43.9-9.4-94.3c.8 34.2-33.4 52.2-33.4 52.2s24.2-35.3 12.5-69.7c-12.1-10.9-27-26.2-28.4-40.3-62.4 52.6-60.8 84.8-60.8 84.8-4.3-6.2-5.1-11.3-5.1-11.3-17.5 51.5 8.4 78.6 8.4 78.6s-8.2-5.7-36.6-22l15.1 25.8s40.4 22.7 44.1 27.8c-2.9-9.7-10.5-18.8-10.5-18.8 8.3 8.8 10.3 8.4 20.5 21.1 2.5 15.7-7.3 24.5-7.3 24.5s1.5-7.2-.4-12.7c0 0-14.9-2.4-26.1-5.2-17.6-4.4-27.6-22.2-29.4-34.3a145.5 145.5 0 0 0-65.6-65.3s6 7.6 6.8 15.4c-10.1-5.1-60.5-6.2-62.7 50.8 0 0 3.9-7.6 7.6-10.8 0 0-8.6 55.7 40.5 72.7 0 0-4.1-22.6 16.3-30.2 0 0-3 3.2-4.1 6 0 0 23.9-8 46.2 18.4 0 0-10.6-.3-18.2 5.5 0 0 44.7 2.8 53 24.3 7.4 19.2-10.5 19.2-15.1 9.1 0 0-1.1 6.8 2.3 12.3 0 0-5.1-.4-12.3-9.1-2 20.8 24.3 50.2 51.7 38.9 33.4-13.8 35.7-18.4 35.8-24.5.2-12.6-10.4-12.8-10.4-12.8s-3.4-7.8-8.3-7.4c-3.3.3-1.2 4.4-1.2 4.4s-14.9-5-14.5-17.5c0 0 4.6 4.3 8.8 5.5 0 0 4.6-4.3 13.6-4.5 8.9-.2 9 4.4 17.5 4.4s8.6-4.6 17.6-4.4c8.9.2 15.3 4.5 15.3 4.5 4.2-1.2 7.1-5.5 7.1-5.5.3 12.5-14.5 17.5-14.5 17.5s2.1-4.1-1.2-4.4c-4.9-.4-8.3 7.4-8.3 7.4s-10.1.3-9.9 12.9c.1 6.1 1.5 10.9 36.9 24.4 27.6 10.5 53.7-18.1 51.7-38.9-7.1 8.7-12.2 9.1-12.2 9.1 3.4-5.5 2.3-12.3 2.3-12.3-4.7 10.2-22.5 10.1-15.1-9.1 8.3-21.5 53-24.3 53-24.3-7.7-5.8-18.2-5.5-18.2-5.5 21.4-25.5 46.2-18.5 46.2-18.5-.9-1.8-4-5.8-4-5.8 19.4 8 16.3 30.1 16.3 30.1 49.1-17 40.5-72.7 40.5-72.7a49.7 49.7 0 0 1 7.7 10.8z" style="fill:#fff"/><path id="Shadow_Layer_3_" class="st0" d="M223.5 391.3c-19.1-12.6-26.3-40-26.3-40s-4.7 8.1-3.3 16.7c-15.4-17.2-17.5-32.2-17.5-32.2a70 70 0 0 1 68.2-3.7c1.6 18.6-6 40.6-21.1 59.2zM259.8 276c-4.6 5.4-11.1 7.7-11.1 7.7s2.1-4.1-1.2-4.4c-4.9-.4-8.3 7.4-8.3 7.4s-10.1.3-9.9 12.9c.1 5.7 1.3 10.2 30.4 21.9-17.3-13.4-5.8-35.6.1-45.5zm-74.7-91.6 29.5 18.8c-25.1-39.4-20.1-98.3 4.8-167.4-56.4 50.5-52.9 88.4-52.9 88.4s-5.8-7-7.6-9.9a84.7 84.7 0 0 0 11 66.4s9.1 4.9 20.1 10.5l-4.9-6.8zm34.7 32.9-24-14.4c6 6.3 7.8 10.1 7.8 10.1 2.1 15.2-7.2 23.4-9.7 26.5-2.9 3.6-7.6 7.9-9.8 14.4 1.7-7.6 5.4-13 7.3-15.6.3-1.7 1.4-8.3-.4-12.7 0 0-19.6-.3-30.8-3.1-17.6-4.4-33.3-22.4-35.1-34.4 0 0-12-27.8-42.3-37.1 0 0 1.9 5.1 2.4 7.3-18.5-9-41.3-13.7-63.5-1.5-8.5 13.8-7.7 30.1-7.7 30.1s3.5-6.9 7.6-10.8c-1.8 11.2-4 57.4 40.5 72.7-2.2-19.5 9.2-27.5 16.3-30.2 0 0-3.4 3.6-4.1 6 12.2-7.2 51.1 2.2 63.6 32.4 0 0 13.1 5.1 17.4 15.8 7.5 19.2-10.5 19.2-15.1 9.1 0 0 1.4 13.7 13.8 21-4.2-.7-7.8-1.8-10.8-3.1 1.3 6.7 9.8 27.5 31.9 26.3a35 35 0 0 0 6.8-2c33.4-13.8 35.7-18.4 35.8-24.5.2-12.6-10.4-12.8-10.4-12.8s-3.4-7.8-8.3-7.4c-3.3.3-1.2 4.4-1.2 4.4s-14.9-5-14.5-17.5c0 0 5.3 1.4 8.4 1.7 2.7-1.6 7.2-5.6 13.8-5.6 9 0 12.8 4 18.5 3.2 2.4-11.2-.1-33.1-4.2-48.3zm71.4 62.3-.1 1.2.1-1.2zm135.5-103.5s-4 31-14.9 43.1c-9.1-7.6-17.4-27.1-58.9-20.7 0-4.4 2.7-8.6 2.7-8.6-44.1 25.1-63.2 59.8-64.2 89.3 2.9-27.8 54.6-30.7 54.6-30.7-7.7-5.8-18.2-5.5-18.2-5.5 21.4-25.5 46.2-18.5 46.2-18.5-.9-1.8-4-5.8-4-5.8 19.4 8 16.3 30.1 16.3 30.1a56.5 56.5 0 0 0 31.1-24.3 74.5 74.5 0 0 0 9.3-48.4zM318 285.1c-7.1 8.7-12.2 9.1-12.2 9.1 3.4-5.5 2.3-12.3 2.3-12.3-3.3 7.1-14 10-16.7 1.5 1.7 12.9 8.3 19 13.6 21.9-1.3 3.2-6 14.2-23.1 20.8 0 0 15.9.2 29.1-18.4 5-7.2 7.7-15.4 7-22.6zm-23.8-65.2c-13.6 7.5-36.9 5.7-36.9 5.7-1.7 5.3-.5 12.7-.5 12.7 5.9-.1 27.8-4.5 37.4-18.4"/></svg>