<svg version="1.1" id="Layer_1" xmlns="http://www.w3.org/2000/svg" xmlns:xlink="http://www.w3.org/1999/xlink" x="0" y="0" viewBox="0 0 366.2 259.5" style="enable-background:new 0 0 366.2 259.5" xml:space="preserve"><style>.st0{fill:#231f20}.st4{fill:#fff;stroke:#231f20;stroke-width:2.602}.st5,.st6,.st9{clip-path:url(#SVGID_2_)}.st6,.st9{fill:#b1790c}.st9{fill:#fff}.st10{fill:#7d4802}.st13{fill:#b1790c}.st14{fill:#bf311a}.st15{fill:#fff}.st21{fill:#00483a;stroke:#fff;stroke-width:1.345}.st22,.st23{fill:#231f20;stroke:#231f20;stroke-width:1.5632}.st23{fill:#fdfbf8;stroke-width:1.0867}.st24{fill:#dfc090}</style><path class="st0" d="M327.3 56.3 187 259.5 22.2 90.5z"/><path style="fill:#8a1d03;stroke:#8a1d03;stroke-width:2.602" d="m319.2 61-133 177.7L35.8 93.2z"/><path style="fill:#fff;stroke:#8a1d03;stroke-width:2.602" d="M319.7 61 186.2 232.1 35.8 93.2z"/><path class="st0" d="m274.6 30.2-10.8 8.7-15.1-16.5-8.9-.4-21.1-17.8L165.5 42l-49.2 10.1-16.2-11.4-45.7 51.7 124.8 116.3L309.5 67.2z"/><path style="fill:#00483a;stroke:#231f20;stroke-width:1.7845" d="m63.7 92.6 36.7-52.4 15.4 14.3 56.9-8.6 47-41.5 22.7 22.3 9.7 2.6 13.6 15.1 8.5-12.8 31.4 37L181.7 199 68.4 102.5z"/><path class="st4" d="m191.7 30.1 27.6-25.5 19.1 19.8 10.6.3 18.6 20-21.1-13.2-6.6 6-10.6-14.3-6.3 11.2-7.3-16z"/><path class="st4" d="m254.8 50.9 19.4-18.3 15.6 18.7-15.2-9.9zM69.6 81.7l31-40.1L120.1 63l-18.3-3.2z"/><defs><path id="SVGID_1_" d="m185.4 215.6-101.9-108s.4-75 65.6-92.9c72.5-19.9 149.3 61.4 149.3 61.4l-113 139.5z"/></defs><clipPath id="SVGID_2_"><use xlink:href="#SVGID_1_" style="overflow:visible"/></clipPath><path class="st5" d="M253.6 163.7c1.6-7.7-11.3-4.2-14.6-5.1.9.3 1.7 1 2.4 1.5-14.6.9-7.4-3.4-8.8-6.3-1.7-3.8-3.8-5.6-3.5-10.5.2-4.8 1.7-9.4 3.2-14.1 3.8-11.6 4.8-24 4.4-35.6-.3-8.8.4-18.3-1.4-26.7-.8-4-19.2-17.3-19.1-21.4.1-3.2-.6-5.8 7.4-5.2 4.4-1.2 15.7 4.6 23.8 3.1-1.4 1.2-3.2 3.1-4.3 3.2 23.5 1.4 36.3 25 45.9 31.6-.7 0-6.9-1.5-7.7-1.5 7.3 2.8 8.9 6.3 13.4 13.9-.5.1 3.1-2.2 4.8-2.3.4 2.3-7.7 3-5.9 4.9 1.7 1.8-39.3 71-46.9 72.8.7-3.6 10.5-1.2 8.9-6.3.1 1-1.8 2.9-2 4z"/><path class="st6" d="M276 67c2.6 3 3.4 5.2 7.9 8.5-4.5-2.4-7.2-.2-8.6-.3 13.9 5.1 14.5 11.5 15.8 15 0-.1 1.1 20.8-25.4 35.6.4 6.5-14.3 18.7-12.7 17.6-.4 3.6-.2 3.2-2.3 6.7-.2-1.9-1.3-4-1.8-6.1-1 2.3-3 6.1-5 8-1.5-8.6-10.3-15.2-9.2-24.8.6 2 1.4-44.9 1.4-53.3 2.7-.9-17.2-13.8-18-16.9-2.6-9.6 1.6-14.2 4.3-14.6 5-.6 18.8 3.5 21.8 2.3-.4.4-4.2.7-4.5 2.8 8.5.2 26.8 8.6 36.3 19.5z"/><path class="st5" d="M135.2 59.1c2.7-3.8 3.4-5.3 8-7.9-1 1.4-.9.3-1.4 1.8 2.7-4.6 9.9-9.3 16.2-7.8-1.1 1.2-3.7.3-4.5 1.6 4.4-2.9-12.7-7.9-9.8-13 1.5-2.6 2.3-3.1 4.6-5.3 0 .7-6.7 2.6-6.7 3.3 3.2-4.2 8.9-9.3 20.4-11-2.7 2.8-2 3.9-.3 5.4-3.5 0-1.7-2.4 6.5-5.2 3.2-1.1 7.2.7 11.1-2.4-.1.1-1.5 2.1-.6 2.7-1.5.6 6-2.7 12.6-3.2 1.3 0 7.1 1.2 7.8 2.6.5.2-3.3-.4-1.7 1.2 1.6.6 4.3 1 7.4 4.1 7.2 7.3 21.9 15.1 21.1 20 10.4 6.3 12.2 40.6 16 45.2-2.8-1.4-.6 5.5 1.3 6-1.9 8.2 21.8 21.8 5.3 38.3 8.8 6.6-6.8 20.7-6.2 24.8 1 6.5-48.7 53.1-48.5 52.5-10.4 13.6-13.6 2.3-13.4 1.8-8.4 2-14.4-5.1-8.6-9.3 5.5-3.9 12.1-4.6 14.4-10.5 2-5.1 4.2-10 2.7-15.4-1.2-4.2-2.5-8.9-3.9-13.2-1.1 1.1-2.5 1.9-3.9 2.7 1.6-2.6-8.2-11.4-12-14.7l-2.9-.6c-.4.8-2.2.8-2.5 1.7-8.5-7.6 13.7-16.2 17.8-18.8 9.2-5.9 20-13.2 24.1-22.4.8-1.8.1-4.2.8-6 1-2.8 3.1-5.3 4-8.2 1.5-4.8.3-7.5-.4-12.4-1.3-8.7-2-15.3-8.6-23a40.1 40.1 0 0 0-15.7-11.4c-5.2-1.4-14-.6-19.1-1-6.2-.5-13.4-.2-18.8 1.9a55.7 55.7 0 0 0-12.1 6.4l-.5-1.3z"/><path class="st6" d="M178.4 137.3c6.2-1.7 3 15.2 2.9 15.2 6.6-26.1 11.6-18.1 12.9-15.2a8.7 8.7 0 0 1 1 6.4c1.8-2.3-.6.2.9-1.9.3.8 5.5 15.9 5.8 16.3.4-13 4.1-22.4 3.9-22.3-1.6 2-2.6 22.5 9.4 28.3-1.4-4.3.8-16.9 5.3-19.9 2.6.5-1.7 3.6 1.4 7.7l3.3-10c.3-1 1.3 12.4 1.8 11.5 8.1 1 2.6 14.9.9 19.8 4.3-4.4 4.7-9.8 8-14 .9 1.1 2.1 6.3 3.2 7.4 2.4-10.8-11.2-8-11.9-12.6 0 0 12.1 25.7 13.9-20.9 13.2-7.2-1.1-26.2 3.2-34.6 0 0-3.6-25-3.3-24.7-11.6-13.3-3-11-15.4-24.5-.5-.6.3 3.8-2.8 5 2.2-4.9-.1-11.4-4.5-14.1-2.2-2.1-3.3-3.5-6.3-6.1-8-6-11.6-11.6-19.3-11.7-1.2-.2-1-1.1 2.7-2.1-12.4-2.2-10.2 3.6-19.2 3.7-.3-1-.5-1.3 1.3-2.5-5.3 1.6-5.6-.4-10.8 1.3-9.5 3.3-12.2 13 .3 9.7.5-.6 4.2 4.3-.3 5.3-1.1 1.5-4.8 5.1-5.4 6.7 1.5-1.3 2.6-3.3 4.1-3.9 2.7-.8 1.1.7 1.5 1 1.6-1.4.6-5.5 2.4-6.6.3.5 1.4.2 2.8.4l4.2-.7c.3 0-2.5 1.1-2.1 1.1 2.7 0-1.7-3.8-2.2-2.7.4-6.8 12-6.4 15.2-6.9-8.4 3-6.5 3-6.6 4.1 2-2.1 11.4-1.9 18.1 3.2-6.3-1.9-13.1-2.3-12 .9 4.1-.9 10.2.4 13.7 10.7-10.1-12.4-7 2.4-13.1 1.3-4.7-.9-14-1.4-18.4-.7.4-.7.4-1.6 1-2.4-1.9 1.4-4.2 2.2-6.1 3.5v-1.1a34.8 34.8 0 0 1-11.9 2.6c-.2-.4 0-.7-.2-1.1-1.5 1.5-3.7 2.4-4.6 4 6.6 1.5 33.8 6.3 40.5 8.8 2.8 1.1-6.4 50.3-9.2 77.3z"/><path class="st5" d="m196.8 200.9-.5-65.6-82.5-22.6 61.3 88zM249.5 104.8c7.9 9.1-2.8 28.1-1.6 29.6-7.6 13.9 9.5 10.9 6.3 21.1.8-1.5 7.8-15.2 9.4-15-.3-.5.6-3.3.3-3.8.8-2.6-2.4 2-2.7 1.5 2.2 4.3-4.3-3.8 1.5-10.5 13.8-15.7-13.2-22.9-13.2-22.9z"/><path d="M236.9 112c5.1 18.3-9.8 27.6-12.4 24.4-7.6 13.9-10 49.3 6.2 24.8-.3.6 11.1-15.4 11.9-15.3a39 39 0 0 1 2.2-15.3c3.1-10.1-7.9-18.6-7.9-18.6z" style="clip-path:url(#SVGID_2_);fill:#7d4802"/><path class="st5" d="M209.6 92.4c1.3 2 1.7 5.5 2.4 6.9 3.8-9.8-2.7-23.2-7.4-27 24.3 20.9 2 35.4 8.2 46.2-6.4-.7-9.2 27.5-8 34.2-.7 11.2-5.5 9.2-11.1 10.1-4.8.1 22-48.3 2.2-9.7-19.5-12.7 12.6-29.8 13.7-60.7z"/><path d="M238.9 162.9c.7 2.4 3.1 3.4 5.4 8.9-.7-.8-1.7-1.4-2.5-2.2a45.8 45.8 0 0 1-4.2 18c.5-2 .9-4.3.1-6.3-2.2 2.6-3.9 5.4-6.6 7.6 3.9-5.4 3.8-15.5 2.1-13.9 1.2-3.6 1.1-7.4 2.1-11-.9 1.1-5.1 8.4-6.4 9.2a44.8 44.8 0 0 0 7.7-18" style="clip-path:url(#SVGID_2_);fill:#6c3c00"/><path class="st6" d="M198 216.1a176 176 0 0 0 7.8-3.6c2.8-1.4.4-2.9-2-2.3-2.3.6-5.7 4-5.8 5.9z"/><path class="st9" d="M202.7 211.1c-1.3.8-2 1.8-3.1 2.8 1.3-1 3.8-1.6 4.8-2.7-.8-.2-1.4-.3-2.1 0M192.5 211.9c-1.4.6-3.4 1.7-4 2.9 1.5-1.2 3.9-1.5 5.4-2.6-.3-.7-1.1-.6-1.9-.5"/><path d="M163.3 169.5c-7.4-4.1 11.4-10.6 2.7-18.2L114.8 114c-9.5-4.9-8-13.5-13.3-17.1-.8 7.6-15.3 25.3-21.5 30.3 0 0-22.4 14.3-15.9 31.4-.9-.6-2.2-.8-3.1-1.3 1.8 3.1 1.6 10.9 6.2 13.9-2.3-1.1 5.1 18.9 33.4 29.3 56.2 20.6 93.3-14.1 62.7-31z"/><path class="st10" d="M66.5 164.2c4.4 2.8 2.3 1.1 2.3 1.1s-7.7-16.8 7.6-31.2c1.4-1.3 11.2-11.1 12.1-12.7 0 1.3-7.1 10.1-7.8 10.8-8.5 8.1-7.2 22.5-2.3 26.4-1.8.8-4.3-3.6-4.1-2.2 1.6 11.5 11.3 14.2 11.3 13.8 2.8 3.5 13.8 1 15.2 2.4-1.8 0-5.3 12.1-7.1 12.3-4.7.4-20.5 2-27.2-20.7z"/><path d="M91.1 130.1c.3-2.2 3.2-8.7 3.4-8.8.8.4 2.4 3.4 3.2 3.6-.2-.7-3.8-7.3 3.1-17-7 5.9-7.5 9.1-9.7 22.2z" style="fill:#4f2800"/><path d="M134 173.2c.2 2.2 3.1 3.1 5.1 3.9-.6-.5-1-1.3-1.5-1.9 1.3.5 3.8.5 5.2-.8-2.5-.2-5.8-.6-8.1-1.5l-.7.3z" style="fill:#613900"/><path d="M192.8 63.2c-8-12 4.3-4 7.6-.3-.2-.2 2.8-12-4-16.7a8 8 0 0 0-.4-2.4c-1.1-3-3.9-5.5-7.2-5.6-.7 0-2.4-.2-3 0-4.7-4.8-21.4-14.3-27.9-12.9-.6.7-.8-2.7 2.4-4.4-4.9 1.5-13.9-2.1-21.7 5.9-2.4-.1-11.5-1.8-20.4 10.8-4.8 6.8-12.2 12.8-8.4 11.4-3.6 4.5-7 3.7-11.5 6.8 0 0-3.4 2.4-1.5 7.6.2.7 5.5 4.8 5.5 4.8-7.9 5.8-4.2 14.9-7.3 18.3 1.1-1 3.7-2.2 5.2-3.8.9 2.5-6.8 1.9-4.5 20.5.6-3.1 3.2-3.9 2.5.2-.5 5.7 2 3.8 4.1 9.8-.2.2 2.8 8 2.8 6.8 3.4 7.7 18-1.8 19.6 7.4.2-1.2 26.4 17 31.2 15.9 3.4-3.3 14.3-9.6 16.4-12.5-.1 1 6.7 2 9.4-.2 23.4-18.6 20.4-26.9 19.4-31.5 2.5.1 1.2-4.3 3 .6 3.8-12.4-8.3-32-11.3-36.5z"/><path class="st13" d="M127.8 50.2c-3.7 2.3-1 3.7-11.6 7.8.6-.3 9.6-2.1 10.2-2.6 1 1.7-2.8 5.3-3.8 6.9 8.4-2.5-.5 6.6 5.6 16.2-3.1-8 2.4-17 6-14.4 1.7 1.2 1.1 1.3 1.7 4.7.4-2.4.9-5.4 3.9-6 .1-.4-.1-2-.2-2.4-.9.5-.4.9-1.4 1 0-.3-.4-.1-.4-.4-2.4 2.3-7.6-.8-5.5-4-3.2-.1-3.1 2.5-3.7 4.3-2.8-3.9 2-9.5 5-12.2-.2-.1-2.8-.5-5.8 1.1z"/><path class="st13" d="M199.5 96.5c3.3-1.5 3.2-4.5 3.2-4.5.7-3.3-1-15.2-5.4-22.6-6.9-11.1-.9-9.9 2.2-8.9-1.1-9.7-4-9.1-6.8-10.3 7.3-4.7-1.7-12.4-5.4-10.7-4.5.1-4.1-3.4-10.8-6.6-7.3-3.3-17.6-10.1-22.3-5.1-.6-3.1 1.3-2.5 4.2-6-5 3.2-13.5-.8-17.2 7.7-5-5-17.2 2.7-21.1 11.2 6.9-9.2 17.2-13.6 22-8.4 6.6-3.8 10.8-1.7 11-1.8-.7.9-7.5 2.2-7.9 4.1 9.3-4 27.4.7 25-.2-6.3-1.5-17.6 1.6-17.7 1.3-2.1.7-10.1 3.9-10.9 6.3 3.9-2.4 7.6-.6 9-.4-.4-.5 18-6.5 12 0 5.8-3.7 7.5.4 11.6-2.8-5.3 5.8 9.1 9.1 3.2 13.5-3.2-10.1-12.1-9.8-15.9-7.9-1.2-2.9-11.1.7-11 5.6-1.1-2-1.3-5.7-8.4-5.9 1.1.8 2.3 2 2.4 2.3-4.4-2.2-13.6-1.3-17.8 1.1 2.2 0 3.8 1.2 4.7 1.6-1.3 2.2-3 4.2-3.3 6.7 1.2-2 2.9-3.7 4.7-4.3 1.2-.4 2.5 1.3 4.2.1-1.2 8.2 13.5 3.7 12.8 4.2-4.1 1.5-5.3 2.6-6.2 4.5-.2 4 3.3-2.4 6.9.8-2.7.1-5.4 2.3-5.2 4.5 2.3-.9 2.4-1.8 3.2-2 2.5-.1-1.5 2.3-.3 1.8-4.2 1.9-6.9 5.5-4.5 4.2 1.3-.7 4-1 2.9 1.9-.6 1.6-11.4 1.7-9.3 9.7a62.5 62.5 0 0 1 1.8 18.7c5.2-8.1-2.5-11.4 2.1-15.3-.4-11.2 12.8-4.1 15.8-11.3.4 1.3 1.5 2 2.7 2.6-1.3-.9 10.8-5.2 6.7 6.8 1.8-3.8 5-8.8 3.3-3.3 3-.6 2.6-5.5 3-6.4 1.3 5.2-1 9.7-3.3 14.6-2.1 4.3-6.3 9-4.3 14.1.4-1.3 5-6.5 5.9-9.1.6 2.4 4.1 3.6 5.8 2.2 1.7-1.4.8-12 4.1-14.5-2.5 7.8 1.8 13.4.4 22.3-2.2 15.4-13.1 12-13 9.3 1 5.6-7.2 13.6-5.5 19.2 4.8-4 12.4-.6 4.3 9.5 5.1-3 20.5-26.8 21.1-20.6.8-.4 16.4-10.8 11.3-23.5zm-32.5-38c-1.8.9.3 5.6.8 6.8-.5-.5-1.2-.9-1.7-1.5l.4 2.2c-1-2.2-3.1-2.7-4.6-4.3a8 8 0 0 0 1.5 3.4c-2-2.6-5.9-3.9-7.2-6.8-.1.2-.2 1.2-.4 1.4-.6-2.2-2.6-3.1-5.1-4.2 1.3.4 2.1 0 3.3.6-.2-.8 1.4-3.4 1.8-4.3-1.2 5.6.8 4.6 1.2 4.7 2.3-.6 3.3-6.2 7-6 3.4.2 3.4 4.1 5.9 5.6-.6 0-.8.2-1.2.3.2 1.8 1.9 4.1 2.6 6l.1.3-.1-.3c-.7-1.4-3-4.6-4.3-3.9z"/><path class="st10" d="M173.3 53.1c6.2 3.2 1.5 0-1.3 1.8 1.4 1.3 2.2 1.5 4.9 1.6-4.4 4.8 2.1 6.8-.6 14.2 0-1.4-1.7-10.3-5.3-5.5 3.1-8.7-1-9.3-3.4-13.4.9.3 4.8 2.6 5.7 1.3z"/><path class="st14" d="M158.8 103.6c-.1-.5.4-1 .4-1.5s-.6-1-.6-1.6c0-.6.6-.9.6-1.3 0-.5-.4-1.1-.5-1.5-.2-1.2 0-2.2.4-3.3v-.1c.7-2.2 1.8-4.3 2.9-6.4-.7 1.1-1.4 2.7-2.4 3.5.1-1.4.6-3.2-1.1-4-1.3-.7-3.1.3-4 1.3-2.2 2.3-2.4 5.8-2.4 8.8-.8-2-1-3.5-.5-5.6.5-2 1.6-3.4-.5-4.4-.7-.4-1.1-.3-1.7-.9-.4-.3-.3-1.2-.9-1.2-1.1 0-1.5 2.5-1.6 3.2-.6 2.5-1.5 5.4-1.6 7.9-.1 1.5.1 3 1.2 3.8 1.3.9 2.2.3 3.6.5 1.7.2 5.1 1.8 5 1.7-2.6-.9-7.1.2-8.5 1.4-2 1.8 0 2.4 1.5 3.4 1.4 1 2.1 3.1 3.3 4.1l.7.4c1.8.8 3.5-1 4.7-2.1.8-.7 1.4-1.6 2.3-2.1 3-2.1.3-1.5-.3-4z"/><path class="st10" d="M147.9 107.2c-1.5-1-3.5-1.6-1.5-3.4 1.4-1.3 5.9-2.3 8.5-1.4-1.5-1-3.3-1.6-5-1.7-1.4-.1-2.3.4-3.6-.5-1.2-.8-1.3-2.3-1.2-3.8.1-2.5 1-5.5 1.6-7.9.2-.7.5-3.2 1.6-3.2.7 0 .5.9.9 1.2.7.6 1 .5 1.7.9 2.1 1 1 2.4.5 4.4-.5 2.1-.3 3.6.5 5.6 0-3 .3-6.5 2.4-8.8.9-1 2.7-2 4-1.3 1.7.8 1.2 2.6 1.1 4 1-.8 1.7-2.3 2.4-3.5l.2-.3c1-2 2.5-5.5 2.3-7.8-.1-1-.6-2.4-1.6-2.8-.5-.2-3.1.9-2.9 1.9-.8-4.8-3.2-.8-3.6-.4-.9-1.9-2.5-.2-3.6 0-.5.1-1.3-.4-2-.1-.7.3-2.3.7-2.7 1.3-1.3.2-1.8-1.5-3.9.3-.7.6-.1 2.2-.7 3.3-1 2-1 5.9-.8 8.1.2 2.6-1.4 8.5 1.1 10.4 1.1.8 2.6.3 3.9.5-1.2.7-4.3 1.1-4.2 3.1.1 1.6 2.3 1.9 3.4 2.3 1.9.7 2.6 2.9 4.3 3.8l.1-.1c-1-1-1.8-3.1-3.2-4.1z"/><path class="st15" d="M159.3 80.6c-.6-1.1-2.3-.7-2.6.4-1-1.3-2-1-3-.2.1-.6-1.2-1-1.6-.2l-.1-.4c-.5-1.2-1.6-.7-2.3.3-1 1.3-.4 4 .3 4.7-.1-1.2 1.1-2.3 1.8-3.5-.1.9.2 1.9.8 2.5.3-.6.8-.7 1.2-1 .8.7 2.4.8 3.2 0 .4.8 2 .5 2.3.2.2.3.2.8.3 1.3 1.3-.7.8-4.9-.3-4.1zM145.2 80.3c2-.5 1.2 1.7.9 2.8-.5 1.8-.9 3.4-1.1 5.2-.2 2.4-.1 4.7-.1 7.1-.8-2.1-1.5-4.3-1.9-6.5-.1-1-.3-2.1-.3-3.2.2-2.2-.2-4.7 2.5-5.4zM159.3 92.6c1.8-2.3 2.9-4.3 3.3-5.2.4-1 1-2.8 1.2-3.9.2-1.2.8-4.2-.5-5.1-1.4-1-2.4 1.2-2.4 2.3.2 2.7.2 6.7-1.6 11.9zM142.2 102.6a30 30 0 0 0 1.9 9.9c.4 1.3.9 3.3.1 4.6-.7 1.1-2.3.7-3-.2-.7-.9-.6-3.4-.6-4.5-.1-3.1.1-6.9 1.6-9.8zM160.2 100.5c2.7 2.5 2.9 7.1 2.4 10.6-.2 1.2-1 4.3-2.4 4.8-1.3.5-2-1-2.1-2.1-.1-1.5 1.1-2.3 1.7-3.6 1.4-3 .7-6.6.4-9.7zM146.3 114.1c-.8 2.1.7 3.5 2.6 3.3l1-.4c.2 0 .4.4 1 .4.9 0 1.4-.1 1.9-.8.8.6 1.8.4 2.5.2 0 0 .9.4 1.4 0 .9-.8.7-3.3-.2-3.8-.1.6-.8.7-1 1.1-.9-.9-2.2-1.3-3-.1-1.4-1.1-3.2.2-3.2.2-1 .3-1.6-.3-2.5-1.2-.2.2-.3.4-.5 1.1z"/><path class="st0" d="M163 71.4c-1.5 3-1.4-1.7-1.6-2.6-1.5 0-.4 2.3-1.4 3-.4.3-1.3 0-1.9.2-.6.2-.8 1-1.6.6-1.1-.7.4-3.7-1.4-3.6-1.6.1-.6 2.8-.6 3.7-1.4.5-3-1.2-2.9-2.6-.5 0-.9.2-1.4.5-.5-.9-2-.6-1.5-1.9.1-.3 3.2-2.3 3.1-2.3.9.9 3.9-1.2 5-1.4 1.2-.2 4.3.8 5.4 1.4 1.9.8 1.5 3.6.8 5z"/><path class="st14" d="M138.1 58.2c0 1.4-1.2 2.4-2.5 2.4a2.5 2.5 0 0 1-2.4-2.5c0-1.4 1.2-2.4 2.5-2.4 1.4 0 2.4 1.1 2.4 2.5zM164.5 57.7c0 1.4-1.2 2.4-2.5 2.4a2.5 2.5 0 0 1-2.4-2.5c0-1.4 1.2-2.4 2.5-2.4s2.4 1.1 2.4 2.5z"/><path class="st15" d="M135.9 56.6c-.7 0 .3.4.3 1.1 0 .2 0 .9.2 1 1 .2.7-.6.7-.8.1-.7-.5-1.3-1.2-1.3zM162.4 55.8c-.7 0 .5.4.4 1.1 0 .7-.1 1.1.3 1.2.6.1.4-.3.5-1 .1-.4-.5-1.3-1.2-1.3z"/><path d="M161 54.5a4 4 0 0 0-1.5 2.1c-.1.4-1.1 1.1-.7 1.2.6.3 1.6-.1 2.2-.5 1-.9 1.6-2.3 1.7-3.5-.8-.2-1.7.7-1.7.7zM135.3 55.5c-.5.3-.4.3-.1.9.3.7 1 1.2 1.9 1.4.7.3 1.5.5 2-.1.9-.7-.9-1.2-1.7-2l-2.1-.2z"/><path d="M162.1 58.6c.4 0 .8-.4.8-1 0-.5-.3-1-.8-1-.4 0-.8.4-.8 1 0 .5.4 1 .8 1zM135.6 59c.4 0 .8-.4.8-1 0-.5-.3-1-.8-1-.4 0-.8.4-.8 1s.3 1 .8 1z"/><path class="st10" d="M117.3 72.5c-.1.1-1.1 5.1 2.3 5.9-6.1 4.6 1.1 11.9 1.3 12.6 5.4 6 4.7-4.8 4-6.2 2.4-.7 1.7 11.4 7.7 5 6 5.9 1.3 15-.6 26.2 1.3 1.9-2.6-22.4-10.5-13.9-.2-9-9.6-14-3.9-22.9-1.3 1.5-2.6-1.3-2.7-1.3.1-.6 2.4-5.4 2.4-5.4zM109.9 100.2c2.6-8.2 11.1 4.7 6.4-7.6-.9-.2-15.4-.2-8.7-17.1-9.7 13.1 1.4 24.8 2.3 24.7zM139.5 118.9c-3.2 8.4 11 9.7 11.5 15.5 2.7-10.4-7.2-5.8-2.1-12 0 0-7 4.7-9.4-3.5z"/><path class="st0" d="M243.9 184.2h4.4v1.2h-1.5v3.6h-1.5v-3.6h-1.5v-1.2zM249 184.2h1.9l.7 2.9.7-2.9h1.9v4.7H253v-3.6l-.9 3.6H251l-.9-3.6v3.6H249v-4.7z"/><g><path d="M124.9 152.8S60.7 96.3 51.7 88.7c-9-7.6-11.6-11.2-11.8-17-.2-5.8-.2-50.7 0-56.9.2-6.2 1.9-8.2 4.5-9.6 2.6-1.4 4.3-1.7 6.3-2.6 2-.9 6.7-1.2 7.8 4.3 1 5.5 3.9 65.6 5.3 72.8C66 91 69.2 94.4 87 109.1a9508 9508 0 0 1 37.3 31l-26.5-15.9 27.1 28.6z" style="fill:#b1790c;stroke:#231f20;stroke-width:4.2039;stroke-miterlimit:8"/><path d="M63 8.1c1.2 11 5 62.6 6.5 70.9 1.6 8.3 4.9 11.3 13.9 19 9 7.6 29.3 22.5 29.3 22.5l-.4 3 6 2-3 1.7 4.7 4.5 3.4 1.7 1.5 1.3 3.7 1.3-.1 7.4s-46.1-37.6-52.8-43.6A35 35 0 0 1 63 74.6c-.7-7.4-4.3-65.1-4.5-67.9-.2-4.3-5.8-4.7-5.8-4.7S62-1.2 63 8.1z" style="fill:#dfc090;stroke:#231f20;stroke-width:2.8028"/><path d="M40.9 11.4s15.7-2.6 17.7-.9c2.1 1.7 5 2.6 5 2.6L68 66s-4.2-4.8-6.2-5.6c-2-.8-21.4 7.4-21.4 7.4l.5-56.4z" style="fill:#fff;stroke:#231f20;stroke-width:2.6851"/><path style="fill:#231f20;stroke:#231f20;stroke-width:.671" d="m40.9 11.4 15.8-1.2-4.2 2.3 3 1.6-7.4 3.1 10 .7 6.1 4.7-6-1.4-10.5 2.2 11.8 1.5.3 5.9-14.3 2.5 13.2 1.2 5.5 3.1-5.5.2-5.9.3 7.8 1.9.3 6.2-15.3 3.3 15.2.7 5.7 2.4-5.6.5-14.1 4.4 14.3-1.8 5.1 4-4.1-1.5-.4 1.5-21.8 7.9z"/></g><g><path d="M328.5 127.8a47.4 47.4 0 0 0-30.7 1.8 18 18 0 0 0-4.3 2.9l.3-1.3.7-3.2h-69.2l11.8 7.4-4.9 23.2-4.9 4.5h-10.6l7.6-35.2H66.6l2.4-11.1-2.1-.7a56.4 56.4 0 0 0-19.9-2.6c-11 0-20.6 2.8-28.7 8.4a39.6 39.6 0 0 0-15.9 25.2c-.7 3.4-1.1 6.5-1.1 9.4 0 7.1 2.1 12.8 6.4 17.2a32 32 0 0 0 23.9 8.9 101.7 101.7 0 0 0 23.5-2.9v.1h19.2l3.7-17.1s2.9.2 3.1.4c.1.1.5.8.9 3.5v.4l-.1 10.3v2.6H284.5l.1-.3c4.6 1.2 9.4 1.8 14.4 1.8 6.3 0 12-1.3 16.9-4 5.2-2.7 8.5-7.5 10-14.1.4-2.1.6-3.6.6-5 0-1.9-.3-3.5-.9-4.9l5.1-24.8-2.2-.8zm-38.1 28.6c2.6 1.9 6.3 3.6 11.1 5 3.2 1 4.2 1.8 4.4 2.1-.1.3-.3.7-1.2 1.1-1.3.5-3 .8-4.9.8-3.3 0-6.3-.5-9-1.4a8 8 0 0 1-.4-.9l-.6-1.5-2.4-2.3-2.6 1.7-5.6 3.5h-12.9l.4-2.1.2-1.2h14.4l.4-2 2.3-10.1.7-3.2h-14.4l.4-1.7.3-1.2h13.2l1.5 3.7 1.2 3c.5 3.7 2.1 5.7 3.5 6.7zm21.4-11.5c-3-.8-3.9-1.5-4.2-1.8a2 2 0 0 1 1.1-.8c1.3-.4 3-.6 5-.6 2.4 0 4.5.3 6.5.7a14 14 0 0 1 1.7 5l.1 1.8c-2.6-1.7-6-3.1-10.2-4.3zm-230.5-2.2 3-.1c1.6 0 2.7.3 3.5.7l.1.1v.3l-.1.6v.2c-.2.9-.6 2.1-1.4 2.4-.6.3-1.3.2-2.6.2l-2.1-.1h-1l.6-4.3zM40.7 163l-2 .3-.4.1-2.7.2c-4 0-6.8-1.2-8.4-3.8a11.5 11.5 0 0 1-1.7-6.2l.2-2.1 5.2 3.1 10.1 6.2-.3 2.2zm-12-20.6a17 17 0 0 1 5.2-5.8c4-2.8 8.8-4.2 14.5-4.2a29.4 29.4 0 0 1 8.2 1.2c.4.7.8 2.4 1.1 3.4.7 2.5 1.2 4.4 2.5 5.3l.4.2H40.8l-12.1-.1z" style="fill:#231f20;stroke:#231f20;stroke-width:2.6899"/><path class="st21" d="M83.2 138.4c2.3 0 4 .3 5.2 1.1.9.5 1.4 1.4 1.4 2.6l-.2 1.3c-.4 2.2-1.4 3.7-2.9 4.3-1.5.7-3.1.3-5.6.3H77l1.5-7.4-8.7-2.2h13.4zm15.3 37-.3-6.9c-.3-4.4-.2-6.7-.6-8.4-.4-1.7.1-2-1-3.9-1.2-1.8-10.8-3.3-12.5-3.4 3.3.3 12.5.9 16.2-4.1a17.6 17.6 0 0 0 4.5-11.1c0-2.6-.9-4.5-2.6-5.9-2.3-1.9-6-2.9-10.8-2.9h-24l-10.1 46.7h14.3l3.7-17.1h3.1c1.7 0 3 .4 3.7 1.3.8.9 1.2 2.5 1.5 4.9.1.5.2 1.3.2 2.7v1.6l-.2 6.7h14.9zM131.9 128.8h32.5l-2.5 12-20 19.5-12 3.7h22.3l4.9-3.7-3.3 15.1H116.7l2.6-12 20.7-20.1 3.8-3.7h-15.6l-6 4.9 3.8-15.7zM171.7 128.8h32.5l-2.6 12-20 19.5-11.9 3.7h22.2l4.9-3.7-3.3 15.1h-37.1l2.7-12 20.7-20.1 3.8-3.7h-13.4l-6.7 4.9 3.7-15.7zM201.8 175.4H196l10.4-46.7h14.3l-7 32.3-6.6 2.9h20.4l6-5.6-3.5 17.1h-28.2z"/><path class="st21" d="M239.1 175.4h-9l9.1-43-5.7-3.6h22.7l-10.1 46.7h-7zM108.7 175.4h-9l9.1-43-5.7-3.6h21L114 175.4h-5.3zM252 175.4h-5.6l10-46.7h34.4l-3.5 15.2-2.2-5.2H261l6.8 3.2-1.1 4.9h14.4l-2.3 10.1H257l6.8 3.2-1.1 5.2h16.6l7.1-4.5-4.3 14.5H252z"/><path class="st21" d="m282.6 174.7 3.8-14.3c1.1.6 1.4 3.8 2.6 4.2 3 1.1 6.4 1.7 10.2 1.7 2.2 0 4.2-.3 5.8-1 1.5-.6 2.4-1.6 2.7-3l.1-.6c0-1.7-2.1-3.3-6.2-4.5-4.5-1.3-8-2.9-10.4-4.6-1.6-1.1-2.4-3.1-2.4-5.9 0-1.4.2-2.9.5-4.6 1.2-5.6 4.2-9.6 9-11.9a36 36 0 0 1 15.9-3.4c4.9 0 9.2.6 13.1 1.7l-3.5 17.1c-.1-2.1-1.8-6.9-3.2-7.2a29.7 29.7 0 0 0-13.1-.2 4 4 0 0 0-2.9 3.2c0 1.9 2 3.3 6.1 4.4a32 32 0 0 1 10.3 4.6c1.7 1.2 2.5 3.3 2.5 6.1 0 1.3-.2 2.8-.5 4.4-1.3 5.8-4.2 10-8.8 12.4a33.2 33.2 0 0 1-15.8 3.7c-5.7-.1-10.9-.9-15.8-2.3zM8.7 170.1a21 21 0 0 1-5.6-15.3c0-2.7.3-5.7 1-8.8A37 37 0 0 1 19 122.4c7.7-5.3 16.9-8 27.4-8a47.8 47.8 0 0 1 19.1 2.5l-4.7 21.7c-1.3-.9-2-8.1-3.7-8.8l-1.7-.6a33 33 0 0 0-7.6-1c-6.2 0-11.5 1.5-15.9 4.6a21.9 21.9 0 0 0-8.6 14c-.4 1.9-.7 3.5-.7 5.1 0 3 .7 5.5 2.1 7.6 2.1 3.3 5.5 4.9 10.4 4.9a20 20 0 0 0 3-.2c.6-.1 1.3-.3 4.2-.6l.9-5.9-11.6-7.1 25.4 3.1-29-10.5 12.3.2h21.5l-6.9 31.7a86 86 0 0 1-23.9 3.1c-9.6 0-17-2.7-22.3-8.1z"/><path class="st22" d="M69.9 125.8c-1-.8-1.5-1.8-1.5-3.1 0-.6.1-1.3.3-1.9l1.9-8.4-2.6-1.8h10.6l-2.9 9.7c-.2.5-.2 1-.2 1.4l.2 1c.3.6 1 .9 2.1.9 1.2 0 2-.3 2.7-.9.6-.6 1.1-1.4 1.4-2.5l1.8-8-2.6-1.7h10.5l-2.9 10a8.2 8.2 0 0 1-4.2 5.2 16.7 16.7 0 0 1-7.8 1.6c-3 .2-5.3-.4-6.8-1.5z"/><path class="st22" d="m98.5 117.1-3 10.2h-5.6l3-10.2h-5l1-3.3h16.3l-2.8 3.3h-3.9zM110.3 121.4h-4l3.5-4.8.5 4.8zm6.5 5.8-2.4-13.5H107l-10.2 13.5h5.6l2.1-2.9h6l.3 2.9h6z"/><path class="st22" d="m126.6 127.2 1.5-5.3h-4.9l-1.6 5.3H116l3.2-11.2-2-2.3h8.4l-1.4 4.9h4.9l1.5-4.9h5.6l-3.4 11.6 2.6 1.9h-8.8z"/><path class="st23" d="m101.1 116.5 2.8-3.3H89.5l.9-3.2H79.9l2.6 1.7-1.8 8a5.5 5.5 0 0 1-1.4 2.5c-.6.6-1.5.9-2.7.9-1.1 0-1.9-.3-2.1-.9-.2-.3-.2-.6-.2-1l.2-1.4 2.9-9.7H66.8l2.6 1.8-1.9 8.4-.3 2c0 1.3.5 2.3 1.5 3.1 1.5 1.1 3.7 1.7 6.7 1.7 3.2 0 5.8-.5 7.8-1.6a8.2 8.2 0 0 0 4.2-5.2l1-3.5h3.2l-3 10.2h5.6l3-10.2h3.9zM134.9 113.2h-5.6l-1.5 4.9H123l1.4-4.9H116l2 2.3-2.8 9.8-2.2-12.1h-7.3l-10.2 13.5h5.6l2.1-2.9h6l.3 2.9H120.4l1.6-5.3h4.9l-1.5 5.3h8.7l-2.6-1.9 3.4-11.6zm-29.8 7.6 3.5-4.8.5 4.8h-4z"/></g><g><path d="M126.2 166c-3.9 3.8-8.4 2.9-13.3 3.2-6.9.5-9.2 7.9-15.7 9-6 .9-10.3 10.4-2.7 13.2 11 3.6-1.3-2.6 7.4.3-.8 1.3-6.8 0-7.1-.2-.4-.3-5.3 2-3.7 2.5-2.2.2-10.1 1.4-9.1 1.5 10.2.7 14 4 17.1 6a74.2 74.2 0 0 0 21.3 5.6c-.1 1.6-5.3.7-5.2.9 6.4 6.6 35.6 0 38.8.9 7.4 2.1 6.7 1.5 16.7-1.6.4-.8 3.8-2.3 5.7-3.6 8.8-4.1 16.1-14.6 16.1-14.6s2.8-5.6 2.1-8.4c-9.4 8.4-14.9 12-19.7 13.2 0 0 6.7-3.3 12.6-8.2 9.4-7.9 11.4-13.9 11.4-19.1-1.3 1.6-6 5.4-11.3 9.3-3.7 2.8-9 4.7-9 4.7s-6.4 3.5-6.3 2.6c4.2-2.2 17.7-9 24.9-19 3-4.1 3.5-6.9 3.8-11.8-19.8 17.2-34.5 20.9-34.5 20.9 13.1-8.2 14.8-9.3 23-14.9 1.4-1.4 4.5-2.9 5.4-4.9a126.2 126.2 0 0 0-39.1 12.2c-2.6.8-2.8 2.2-3.7 1.6 6.1-4.1 13.5-6.9 13.5-6.9s5.1-1.5 6.4-3c-2.9-1.1-13-1.4-16.2-.7-2.9.1-7.5 1.7-10.3 2.8-2 1-2.7 1.4-1.7.6-1.7.7-.2-.1-4.7.2 0 .1-8.2 1.1-12.9 5.7z"/><path class="st10" d="M159.2 203.6c5.7-1.1 3.2 5.5 13.8 1.5-4.7.7-10.1-1-6.2-5-.7-1.4-9.4-4.2-4.5-7.5-6.7-.3-1.4 9.7-14.8 11.6-5.1.7-7.6 2.4-6.8 2.4 5.9.1 18.5-3 18.5-3z"/><path class="st24" d="M162.4 174.2s-5.2 3.7-9.2-1.2c-4.3-5.2 19.3-15.6 41.1-19.1-.7.6-4.3 3.2-5 3.5-9.9 5.1-8.7 4.9-18.4 11-6 3.8-7.8 4.6-7.8 4.6l-.7 1.2z"/><path class="st15" d="M161.5 174.2c.8-1.7 3.9-3.2 7.7-5.5 4.5-2.7 6.4-5.2 17.6-10.4-12.8 4.6-32.9 13.4-28.4 16.6l3.1-.7z"/><path class="st13" d="M166.7 168.4c-6 2.7-8.2.4-5.5-.7 1.4-.6 6.7-3.4 14.9-6.8 4.5-1.9-1-2.1 15.7-5.9a85 85 0 0 0-36.5 14.2c-2.3 1.4-1.4 6.3 4.3 4.3-2.8-1.9 4.5-2.8 7.1-5.1z"/><path class="st24" d="M164.9 175.1s-7.7 1.4-4.5 7.1c2.3 4.1 9.3 2.1 9.8 1.2.5-.8 26.2-14.6 29.1-25.1.5-1.2.8-3.3 1.2-4.6-20.1 16.6-26.5 17.5-33.4 21.1l-2.2.3z"/><path class="st13" d="M169.2 174.7c0 .1 19.2-9 26.7-15.7-4.6 4.3-5.2 6.2-20.3 15.4-3.6 2.2-9.2 3.4-7.4 4.6-3.2 1-2.8 5.4-6.3 3.7-.3.1-1.3-2.6-1.5-2.5-.2-1.4 1.7-3.7 3.4-3.9l5.4-1.6z"/><path class="st15" d="M199.2 157.7c-4.3 9.5-22 21.4-26.7 23.5-2.1.9-3.3 4.6-7.8 2.4 1.9-1.3.5-3.8 7.6-4.9 2.3-.3 4.9-2.4 6.9-3.6a66.7 66.7 0 0 0 20-17.4z"/><path class="st24" d="M165.5 187.6s-2.9 2.3-1.6 4.8c1.3 2.5 3.5 2 3.5 2s.1 3.3 16.1-7.5c6.9-4.6 7.4-6.5 11-10.7 2.6-3.1 3.8-8.4 3.7-9-.1-.5-4.1 6.6-14.7 12.2-4.1 2.2-13.2 5.5-13.2 5.5l-4.8 2.7z"/><path class="st13" d="M175.3 183.9c9.2-3.4 16.5-7.2 20.9-13.5-1.8 3.6-.4 2.6-5 6.9a46 46 0 0 1-12 7.9c-9.4 3.5-9.6 1.7-12.5 4.1.7-.2 4.8-1.7 5.9-.5-2.8.5-6.4 2.2-6.8 4.5-4-1.2.5-5.7 1.9-6.5 2.3-1.3 5-2 7.6-2.9z"/><path class="st15" d="M190.7 180.1c-.8 2-17.7 16-24.2 13.6.5-3.2 4.2-4.3 6.5-4.3 2.6 0 15.8-7.9 17.7-9.3z"/><path class="st24" d="M170.4 196.8s-2.5 2.2-1.4 5.3c.5 1.4 1.9 1.5 3.4 1.6 1.6.1 5.7-2.3 5.7-2.3s8.9-5.3 14.3-14.2c.5-1.2 1.5-4.1 1.7-5.4-3.8 4.1-9.1 9-13.8 11.1l-9.9 3.9z"/><path class="st13" d="M170.1 201.5c1.5-2.3 3.2-3.6 5.2-3.4.9.1 9.9-4.5 10.9-7.5.8-1 5.8-5.7 5.6-5.8 0-.1-6.2 5.3-6.3 5.2-4.4 4.7-14.6 6.2-15.3 7.6-2 2.4-.1 3.9-.1 3.9z"/><path class="st15" d="M170.2 201.7c.5.3 1.2-1.4 3.3-2.4.4-.2 1.6.9 2.1.7a64.5 64.5 0 0 0 16.9-13.8c-3.6 6.8-16.7 18-20.9 16.6l-1.4-1.1z"/><path class="st24" d="M148.9 167.7s-6.3 1.6-6.9-1.2c-.6-2.8 1.2-4.5 3.1-5.6 10.8-6.6 26.1-3.1 26.1-3.1s.5-.3-3.2 1a58.5 58.5 0 0 0-16.9 7.1l-2.2 1.8z"/><path class="st15" d="M148.6 167a58.4 58.4 0 0 1 17.4-7.9c.3 0-20 2.7-20.8 8 .6 0 1.1.5 1.2.5l2.2-.6z"/><path class="st13" d="M144.1 166.1c.9-1.2 9.1-8.2 24.5-8.5-11.4-1.7-23.4 2.1-26 6.5-1.3 2.2 1.5 2 1.5 2z"/><path class="st13" d="M105.5 177c4.6-2 4.3-3.4 9-3.7-8.2 4-3.1 10.5-8 14.5 1.1-.2 15.1-15.4 11.7-11.8 3.3-.4 8.3-3 10.7-1.1.4.3.9 1.4-.2 3.3 2.8-1.6 5.3-1.8 8.7-1.8 2.2-.1 1.9-.1 2.7 2l-1.5-.1c-1.6.7 2 1.9-1.2 4.1-.3.2-2.1 2.7-2.6 3 5.2-2.9 11.3-9.5 14.8 1 10.1-6.2 13.7 1.8 10.6 5.1 1.1-1.4 5.7-5.5-2-8.5-5.7-2.2-1.9-2-2.4-4.9-.3-1.8-7.4.5-7.5 0 0-2 .6-5.6-7.3-5.8 2.8-1.6 7.8.9 9.8-2.7.1-.2-14.2 2.7-13.1-4.2.2-1.5 3.8-3.9 3.6-3.9-6.6-1.3-11.7 5.5-13.7 6.7-6 3.6-16.4 2.3-22.1 8.8z"/><path class="st10" d="M141.2 179.3c3.6-7.1-5.5-10.4-4.3-14.5.8-2.8-4.2 6.8-5.2 6.7-18-1.7-18.5 8.1-22.5 14.3 13.1-9.8 19.6-6.2 15.6-3.8 9.8-8.8 13.4-.4 10.4 3.8-.1-.1 5.5-5.6 6-6.5z"/></g><g><path d="M364.2 60.5c4.1 8.9-5.9 11.2-9.1 3.5-3.2-7.6 5.1-12.5 9.1-3.5z" style="stroke:#000;stroke-width:2.0813"/><path style="stroke:#000;stroke-width:1.3009" d="m226.9 128.9-10 3.3L355.3 58l3.7 1.2L223.7 133z"/><path style="fill:#dfc090;stroke:#231f20;stroke-width:2.602" d="m223.4 133.6 10.8-.3-6.7 2.5 1.8 3-4 .5-16.6 17.1L362 66.3l-2.5-7.1z"/><path style="fill:#fff;stroke:#231f20;stroke-width:1.3009;stroke-miterlimit:8" d="m353.4 63.2 1.9 7-58.4 33.9-2.2-9.5z"/><path style="fill:#b1790c;stroke:#231f20;stroke-width:1.0009;stroke-miterlimit:8" d="m212.8 135.8-14.9 6.3-13.7-5.9 9.9-4.6z"/><path style="fill:#dfc090;stroke:#231f20;stroke-width:2.002;stroke-miterlimit:8" d="m218.3 137.2-37.4-.5 9.3-5.4z"/><path style="fill:#231f20;stroke:#231f20;stroke-width:1.3009;stroke-miterlimit:8" d="m294.7 93.6 2.4 10.7 2.1-1.4-2.2-9.2h6.6l.4-4.4 3 5.6.3-7.8.4.5 4.4 7.9 1.1-.6-2.2-9.7 3.5-1.7 3.1 6.1-1.6-6.9 2.7-1.4 2.7 2.6-.1-4.1 4.2 4.4-1.4-6.4 2.4 2.3.4-3.2 3.1 8.4 1.9-1.1-2.5-8.3 5.1.4.3-3 3.5 4-1.4-5.8 3.2-1 2.5 2.6-1.1-3.3 4 5-.4-7.6 3.4 6.3-2.3-7.4 4-1.8 4.4 6.6.9-.9-2-7.4z"/></g></svg>