<svg version="1.1" id="Layer_1" xmlns="http://www.w3.org/2000/svg" xmlns:xlink="http://www.w3.org/1999/xlink" x="0" y="0" viewBox="0 0 443.4 359.4" style="enable-background:new 0 0 443.4 359.4" xml:space="preserve"><style>.st0{fill:#fff}.st1{fill:#101820}.st3{fill:#e2e3e4}.st4{fill:#0055b8}.st5{fill:#003764}.st7{clip-path:url(#SVGID_2_)}.st8{fill:#cececd}.st9{fill:#d4ebf8}</style><path class="st0" d="M242.3 359.4c-31.8 0-61.5-9.4-84.5-26.5l-.8 1-4.4 5.9-4 5.5-6-3.2A143.1 143.1 0 0 1 94.8 299a169.3 169.3 0 0 1-28.6-67 169.4 169.4 0 0 1 3.9-77.4A220.3 220.3 0 0 1 116.6 72l9.2-10.6 20.6 66.9 47 3.1c-30.4 12.3-61 52-61.4 78.6-.4 25.2-.9 50.8 9.3 68.9l11.8-10.4 7.2-6.5 4.7 8.5c14.7 26.4 44.1 44.1 77.5 47.1 1.9-3.2 3.7-6.5 5.3-9.7l2.6-5 5.5.9c3.2.5 6.7.8 10.3.8 32.7 0 89.6-22.9 95.2-108.6l15.5-.2c3.4 38.6-6.9 73.1-29.9 100a131.7 131.7 0 0 1-60.5 40 215 215 0 0 1-7.8 16.6l-1.7 3.3-3.7.7c-10.3 2-20.7 3-31 3z"/><path class="st1" d="m166.3 141.4-26.1-6.7-17.7-57.6c-95.1 110.1-40.1 223.8 23.9 258.1 4.3-5.9 5.7-7.6 9.9-13.5 27.5 23.7 69.9 35.8 115.6 27.1a242 242 0 0 0 9-19.5 122 122 0 0 0 88.4-132.8c-6.3 95.9-75.6 121.1-114.4 115-2.5 4.8-5.2 9.5-8 14.2-41-1.9-73.2-23.9-88.5-51.4l-18.6 16.4c-28.9-38.1-23.2-117.8 26.5-149.3z"/><path d="M242.3 346.2a126 126 0 0 1-82.5-28.6l-4.4-3.8-3.4 4.7-5.5 7.5-1.6 2.1a134.2 134.2 0 0 1-39.3-36.9 155.3 155.3 0 0 1-26.3-61.7c-6.3-33.9-3.9-85.3 41-141.4l14 50.4 19.7 5.2a106.9 106.9 0 0 0-34.9 63.8c-5.8 32.1-1.6 62.5 14.3 83.6l16-1.9 7.7-6.8a112.8 112.8 0 0 0 89.5 48.4l3.2.2 1.7-2.7 6.4-11.2a102.6 102.6 0 0 0 73.8-24.1 114 114 0 0 1-52.1 30.8l-2.6.7-1 2.5a208 208 0 0 1-7.6 16.7c-8.7 1.7-17.5 2.5-26.1 2.5z" style="fill:#95999d"/><path class="st3" d="M139.2 139.8c-27.8 30.6-49.7 110.9-16 151.3 5.5-.5 3.7-.6 9.1-1.5-13.7-21.1-18.8-51.9-13.3-81.9a106.6 106.6 0 0 1 34.9-63.8l-14.7-4.1zM242.5 335l5.1.1 1.7-3 .5-.9-3.2-.1c-37.3-1.7-71-20.1-89.5-48.4l-8.8 7.7a124.8 124.8 0 0 0 94.2 44.6zM327.9 296.8l3.8-3.7a102.8 102.8 0 0 1-73.8 24.1l-3.3 5.8c39-.4 54.6-11.8 73.3-26.2z"/><path class="st0" d="m440.8 199.9 2.4-17.3a25.5 25.5 0 0 0-10.3-24.2 21.8 21.8 0 0 0-14.1-5.1l-2.9.2-97 12.7-12.2-25-146.9 18.6-13.6 29.1-27.3 3.6 4.5-27.6L9.2 180.1 0 229.8l25.1-3.3-14.7 110.2 53.8-35.1L440.8 252l-12.3-33.6a25.5 25.5 0 0 0 12.3-18.5z"/><path class="st0" d="m308 95.4-3.6-9.3c-12.8-33.1-22.7-64.7-22.1-70.5l1-7.5L218 0l-1.8.8c-3.4 1.4-7.1 3.1-10.8 4.8a20.4 20.4 0 0 0-12-3.3h-.6a47.8 47.8 0 0 0-29.6 11.6c-9.5 8.5-7.6 17-6.3 20.2v.1a152.5 152.5 0 0 0-32.7 29.3l-2.2 3 19.4 64.8 35.3 5.4 9.5-4.1 5.7-.2c12 35.6 19 70.2 21.9 107.7l.4 5.9 5.8 1c7.4 1.2 14.9 2.6 22.3 4.1l8.2 1.6.7-8.3c4.2-47.2 1.9-90.5-7.1-135.7a231 231 0 0 1 54-12.5l9.9-.8zM234.8 91a27.3 27.3 0 0 0-14.7-4 45.6 45.6 0 0 0-22.4 6.1c-11.4 6.8-12.7 15.1-12.2 20-3.1 1.8-6 3.7-8.9 5.6l-18.8-4.7-12.6-42.2c6.6-6.2 13.1-11.9 19.7-17.1l2.9 7.5 47-28.6-1.4-9.1c2.9-1.3 5.8-2.7 8.8-3.9l40.2 6.8c4.3 19.7 8 31.3 15.4 51.1-15.7 3.8-30 8-43 12.5z"/><path class="st1" d="M163.8 31.4c-.9-2.2-1.5-6.8 4.4-12 2.9-2.6 7-5 11.6-6.8a40 40 0 0 1 13.1-2.9c7.8-.2 10.5 3.6 11.3 5.8.3.8.5 1.7.5 2.6l1.8 11.7-35.1 21.4-7.6-19.8z"/><path class="st4" d="M198.9 17.7c-1.2-3-8.8-2.9-17 .3-8.2 3.2-13.9 8.3-12.7 11.3l5.2 13.4L200.3 27l-1.3-8.3-.1-1z"/><path class="st0" d="M221.2 13a257.2 257.2 0 0 0-84.6 56.7l15.1 50.7 26.2 6.5c24.4-17 59.8-31.6 109.7-42.9a346.6 346.6 0 0 1-19.2-63l-47.2-8z"/><path class="st4" d="m139.8 62.6 17.1 54.1 24.9 10.3 47.2-24 47.4-13.2-49.8-11.1-23.3-60.5-49 30c-.5.1-14.5 14.4-14.5 14.4z"/><path class="st5" d="m156.8 116.7 24.9 10.3 47.2-24 47.4-13.2-49.8-11.1z"/><path class="st1" d="M219 7.6c-32.4 13.5-75.2 41.7-88.9 60.3l17.1 57.2 31.9 7.9c8.9-10.9 71.7-40.4 118.3-44.2 0 0-24.1-62.3-22.5-74.1L219 7.6zm68.7 76.3c-49.9 11.3-85.3 25.8-109.7 42.9l-26.2-6.5-15.1-50.7a258.7 258.7 0 0 1 84.6-56.7l47.3 8c5.2 25.5 9.4 37.4 19.1 63z"/><path class="st1" d="M212.6 14.1s6.8 18.5 14 34.1c-7.4-31.5-4.3-36.9-4.3-36.9l-9.7 2.8zM229.5 55.6l3 17-45.1 27.5 50.1-24.2 28.6 1.1-26.2-4.8zM291 87.2 274.8 79l14.4 2.5zM149.2 123.2l18.6-12.5-21 8.5zM139.7 85.7c.6 0 8.5-2.5 8.5-2.5l-7.1 7.8-1.4-5.3zM259.2 18.4 258 31.7l-2.9-14.8z"/><path class="st1" d="m245.9 74 1.2-4.2 2.8 5.1zM206.6 18.7l10.5 35.4L203 20.7zM276.6 88.3l-38.3-7 32.5 8zM155.7 117.7l15.9 5.1-14.8-6.1zM156.2 116.8l-7.6-26.3 9.9 24.1z"/><ellipse transform="rotate(-21.5 206 104.4)" cx="205.9" cy="104.4" rx="12.9" ry="3.1" style="fill:#bbbbbc"/><path class="st1" d="m172.8 20.8 3.6 5.4-.5-6.8zM186.1 15.8l1.4 4h3.1l-2.5-1.7-.3-3zM221.1 239.6c-3.2-43.1-12-83-27.9-125.3l-.1-.2c-.7-2.5-1.5-8.8 8.3-14.5a38 38 0 0 1 8.7-3.7 33 33 0 0 1 13.7-1.1c8 1.2 10.6 5.9 11.4 8.6l.1.3a461.2 461.2 0 0 1 8.3 140.1c-7.4-1.6-15-3-22.5-4.2z"/><path class="st4" d="M228.4 101.7c-1.2-3.7-9.1-4.9-17.5-2.5-8.5 2.4-14.3 7.3-13.3 10.8a424.4 424.4 0 0 1 27.6 124.1l11.9 2.2c4.1-43.2 1.5-88.7-8.7-134.6z"/><path class="st5" d="M228.6 101.5c-1.2-3.7-9.1-4.9-17.5-2.5a31 31 0 0 0-6.1 2.4c8.3-2.3 16.1-1.1 17.2 2.6 10 44.6 12.7 88.8 9.1 131l6.1 1.2c4.1-43.3 1.5-88.8-8.8-134.7z"/><path class="st1" d="M199.2 122.4c10.5-11 29.6-12.2 34.8-9.3l8.2 56.2-.5 56.6s-15.7-2.7-19.1 6.1l-10.3-67.5-13.1-42.1z"/><defs><path id="SVGID_1_" d="M228.7 101.6c-1.2-3.7-9.1-4.9-17.5-2.5-8.5 2.4-14.3 7.3-13.3 10.8A424.4 424.4 0 0 1 225.5 234l11.9 2.2c4.1-43.2 1.5-88.7-8.7-134.6z"/></defs><clipPath id="SVGID_2_"><use xlink:href="#SVGID_1_" style="overflow:visible"/></clipPath><g class="st7"><path class="st0" d="M198.5 127a54.4 54.4 0 0 1 36.7-10.4l4.1 27.9c-13.3-7.5-25.3-9.4-35.9-5.2l-4.9-12.3zM203.8 144.3l5.1 22.6c8.2-7 18.7-12.4 30.8-16.8a44.6 44.6 0 0 0-35.9-5.8zM211.3 170.6c11.1-1.8 21.3-6.2 30.3-4.4l-1.3-12.9a116.7 116.7 0 0 0-29 17.3zM211.4 174a62.8 62.8 0 0 1 30-2.8l-.1 25.9a51.7 51.7 0 0 0-28.1-12.9l-1.8-10.2zM212.6 187.5a60.5 60.5 0 0 1 28.7 13.6l-.2 18.4a25.2 25.2 0 0 0-20.5 7.1l-8-39.1z"/></g><g class="st7"><path class="st3" d="M233.1 139.8c.4.3-.4.9-.8.6-2.5-1.2-5.1-1.6-7.7-2.2a54.4 54.4 0 0 1 14.9 6.4l-4.1-27.9c-3.1-.3-6.1-.3-9 0 1.2 7.9-2.1 16.8 6.7 23.1zM214.9 142.7a56.5 56.5 0 0 1 14.7 4.7c2.3 1.2.2 3.7 1.7 6 2.7-1.2 5.5-2.3 8.4-3.3-8.7-5-17-7.4-24.8-7.4zM241.6 166.1l-1.3-12.9-5.2 2.4c1.6 2.5 1.9 5.7 1.6 8.9.1.1.2.3.1.5l-.1.7c1.7 0 3.3.1 4.9.4z"/><path class="st8" d="M236.1 170.5c-.8 6.7-1.7 13.7-6.3 18.7 4 2 7.9 4.7 11.6 7.9l.1-25.9c-1.8-.4-3.6-.6-5.4-.7zM226.7 191.8c2.8 2.7 4.8 6.1 6.2 10 1.2 3.3 2 6.7 2.5 10.2.4 2.5-.2 5.1-.1 7.6 1.9-.2 3.8-.2 5.8 0l.2-18.4c-4.6-4-9.5-7.1-14.6-9.4z"/></g><path class="st1" d="m164.9 166.6 137.6-17.4 19 39-177.7 23.5z"/><path class="st4" d="m159.6 201.3 11.9-28 124.6-16 12.7 26.5z"/><path class="st1" d="M431.5 167.2c-.8-.9-2-2-3.3-3.1a14.2 14.2 0 0 0-11.2-3.2L110.1 201l4.5-27.6-99 13.3L9.3 221l24.6-3.2L20 321.6l41.6-27.1 102.9-13.6 6.1-.8 120.1-15.9 102.7-13.6 1-7.6 2.8 7.7 33.6-4.8-11.6-31.7a18.2 18.2 0 0 0 14.3-15.3l2.4-17.3c.6-5.2-1-10.4-4.4-14.4z"/><g><path class="st0" d="m202.2 185.9-3.8.5-.6-5.2c-.2-1.2-.2-2.1-.2-2.5l-1 2.4-2.7 5.9-3.6.5-1.9-12.6 3.6-.5.7 6.1.2 1.4v.9l.9-2.2 3.2-6.8 3.1-.4.7 5.9.2 2.4 1.2-2.7 3-6.2 3.8-.5-6.8 13.6zM213.8 184.5l-3.5.4 2.4-13.2 3.5-.4-2.4 13.2zM230.4 173.4a5.8 5.8 0 0 0-3.3-.7c-2.3.3-4 2.1-4.1 4.2-.1 2.1 1.2 3.4 3.4 3.1 1.1-.1 1.9-.5 3-1.3l-.6 3.3a8 8 0 0 1-3.3 1.1c-3.8.5-6.3-1.8-6.1-5.7.2-4 3.3-7.3 7.5-7.8 1.5-.2 2.8 0 4.1.6l-.6 3.2zM245.2 180.5l-3.5.4 1-5.3-4.5.6-1 5.3-3.5.4 2.4-13.2 3.5-.4-.9 5.1 4.5-.6.9-5.1 3.5-.4-2.4 13.2zM253.8 179.4l-3.5.4 2.4-13.2 3.5-.4-2.4 13.2zM268.7 167.4l-2.7.3-1.9 10.3-3.5.4 1.9-10.3-2.7.3.5-2.8 9-1.1-.6 2.9zM282.4 175.8l-3.4.4-.4-2.2-4.6.6-1.2 2.4-3.9.5 7.1-13.7 4.3-.5 2.1 12.5zm-4.8-7.6-.2-1.4-.6 1.4-1.7 3.4 3-.4-.5-3z"/></g><g><path class="st0" d="m244 194.9-16.2 13-3.3 24.4-10.9-21 2.1-15.5-10.2 1.3-19.6 2.7 9.4 4.4-9 66.5 19.6-2.6 5.1-37.6 10.9 21.1-2 14.4 19.6-2.6 9-65.9zM109.3 209.5l-4.2 31.1-14.1 1.9 4.2-31.1-19.3 2.7-10.4 1.4 9.4 4.4-9 66.5 19.5-2.6 4.1-30.1 14-1.9 9.8-1.3-10.5 7-3.3 24.3 19.5-2.7 7.9-57.9z"/><path class="st0" d="m296.6 184.6-6.6.9-16.9 2.3-7.2 1-19.6 2.6 9.4 4.4-9 66.5 33.5-4.5 12.1-1.6a10 10 0 0 0 8.5-8.5l7-51.9a10 10 0 0 0-11.2-11.2zm-14.2 56.7a7.1 7.1 0 0 1-6.1 6.1l-8.6 1.2-9.6 1.3 10.4-6.9 6-44.2 7.8-1.1a4.7 4.7 0 0 1 5.3 5.3l-5.2 38.3z"/><path class="st0" d="m358.9 176.4-5.8.8-16.8 2.3-10.2 1.4-19.6 2.6 9.4 4.4-9 66.5 19.6-2.6 14-1.9 13.1-1.8a8.5 8.5 0 0 0 7.3-7.3l2.2-16.5-19.6 2.6-1.5 11.7-14 1.9-9.6 1.3 10.4-6.9 2-14.4 25.9-3.6 1.4-11.2-25.8 3.5 2.5-18.5 14-1.9-1.2 9.1 19.6-2.6 1.3-9.3c.7-5.6-4-10.4-9.6-9.6zM169.8 201.6l-8.2 60.9-4.4.6-19.6 2.6 10.5-6.9 7.5-55.3-9.8 1.3-19.6 2.6 9 4.3-9 66.7 16.8-2.3 17-2.3 9.9-1.3a13 13 0 0 0 11-11l6.6-48.7-17.7-11.2z"/><path class="st0" d="m416.3 168.5-1.9.3-19.6 2.6-17.8 2.4-10.6 1.4 9.8 4.6-9.2 66.9 19.6-2.6 4.3-31.6 11 30.1 18.6-2.6-11.5-31.8 7.9-1.1c4.8-.6 8.6-4.4 9.2-9.2l2.4-17.3c.9-7-5.1-13.1-12.2-12.1zm-9.4 28.9-14.1 1.9 1.5-11.1-9.5-4.5 19.6-2.6 4.9-.7-2.4 17zM21.8 193.4l-3.5 19L60 207l-18.1 6.8-12.5 92.7 29.3-19.1 8.9-66.4-10.3-7.6L69 211l1.2-5.3 30.4-3.7 3.5-19.1z"/><path class="st9" d="m205.9 268.2 3.3-24.4-17.1 3.8 11.9-17.4-12.7 3.3-5 37.3zM221.8 251.7l-1.9 14.4 19.6-2.6 3.7-27.5-26.4 6zM102.7 257.6l-3.3 24.3 19.6-2.7 3.8-27.7-17.9 4.6zM85.4 283.8l3.2-23.4-13.9 3.7 7-13L70 256l-4.2 30.5zM280.1 257.9l12.1-1.6a10 10 0 0 0 8.5-8.5l2.5-18.7-12.7 3.2 9-9-15.2 3.4-2 14.5c-.4 3.2-3 5.7-6.2 6.2l-8.5 1.1-9.6 1.3 10.4-6.9 1.8-13.1-19.8 4.5-3.8 28.1 33.5-4.5zM326.5 251.8l14-1.9 13.1-1.8a8.5 8.5 0 0 0 7.3-7.3l2.2-16.5-19.6 2.6-1.5 11.7-14 1.9-9.6 1.3 10.4-6.9 1.7-12.8-19.9 5-3.7 27.3 19.6-2.6zM142.9 276.3l17-2.3 9.9-1.3a13 13 0 0 0 11-11l3.6-26.3-19.9 5.2-3 22-4.4.6-19.6 2.6 10.5-6.9 2-14.5-19.9 5.2-3.9 29 16.7-2.3zM386.6 244.1l3.9-28.5-14.8 4.2 7.9-11-11.7 3-4.9 35zM402 242.6l18.5-2.6-10.8-29.7-17.8 4.9zM58.7 287.5l3.8-28.3L34.2 271l-4.8 35.6z"/></g><path class="st1" d="m137.7 129.6-1.3-6.3-11.1 15.4-2.7-6.6s-10.3 9-13.6 29.7c6.7-14.6 11.6-17.7 11.6-17.7l5 8c4.8-9.1 9.6-14 14.1-17.5l-2-5z"/></svg>