<?xml version="1.0" encoding="UTF-8" standalone="no"?>
<!-- Created with Inkscape (http://www.inkscape.org/) -->

<svg
   xmlns:dc="http://purl.org/dc/elements/1.1/"
   xmlns:cc="http://creativecommons.org/ns#"
   xmlns:rdf="http://www.w3.org/1999/02/22-rdf-syntax-ns#"
   xmlns:svg="http://www.w3.org/2000/svg"
   xmlns="http://www.w3.org/2000/svg"
   xmlns:sodipodi="http://sodipodi.sourceforge.net/DTD/sodipodi-0.dtd"
   xmlns:inkscape="http://www.inkscape.org/namespaces/inkscape"
   width="288.5"
   height="302"
   viewBox="0 0 288.5 302"
   id="svg61226"
   version="1.1"
   inkscape:version="0.91 r13725"
   sodipodi:docname="hamilton bulldogs.svg">
  <defs
     id="defs61228">
    <clipPath
       id="clipPath58901"
       clipPathUnits="userSpaceOnUse">
      <path
         inkscape:connector-curvature="0"
         id="path58903"
         d="m 302.25,474.924 72.024,0 0,72 -72.024,0 0,-72 z" />
    </clipPath>
  </defs>
  <sodipodi:namedview
     id="base"
     pagecolor="#ffffff"
     bordercolor="#666666"
     borderopacity="1.0"
     inkscape:pageopacity="0.0"
     inkscape:pageshadow="2"
     inkscape:zoom="0.51598204"
     inkscape:cx="372.04724"
     inkscape:cy="526.1811"
     inkscape:document-units="px"
     inkscape:current-layer="layer1"
     showgrid="false"
     units="px"
     inkscape:window-width="1280"
     inkscape:window-height="744"
     inkscape:window-x="-4"
     inkscape:window-y="-4"
     inkscape:window-maximized="1" />
  <metadata
     id="metadata61231">
    <rdf:RDF>
      <cc:Work
         rdf:about="">
        <dc:format>image/svg+xml</dc:format>
        <dc:type
           rdf:resource="http://purl.org/dc/dcmitype/StillImage" />
        <dc:title></dc:title>
      </cc:Work>
    </rdf:RDF>
  </metadata>
  <g
     inkscape:label="Layer 1"
     inkscape:groupmode="layer"
     id="layer1"
     transform="translate(0,-750.36216)">
    <g
       id="g58897"
       transform="matrix(4.3884029,0,0,-4.3884029,-1343.3304,3144.0985)">
      <g
         id="g58899"
         clip-path="url(#clipPath58901)">
        <g
           id="g58905"
           transform="translate(371.6264,501.4178)">
          <path
             d="m 0,0 -2.792,2.034 c 0.254,0.253 0.475,0.497 0.505,0.586 0.071,0.222 0.197,1.547 -0.029,1.907 -0.227,0.36 -1.118,0.775 -1.121,1.069 -0.003,0.295 0.202,1.328 -0.021,1.541 -0.224,0.214 -0.667,0.422 -1.183,0.555 -0.328,0.083 -1.061,0.215 -1.547,0.297 0.033,0.55 0.053,1.105 0.053,1.659 10e-4,1.859 -0.189,3.687 -0.558,5.463 l 6.332,5.446 -6.271,0.126 5.851,10.125 -1.475,0.259 c -0.088,0.015 -4.944,0.862 -11.846,1.626 l 1.14,4.825 -6.199,-4.324 c -0.455,0.041 -0.915,0.08 -1.378,0.117 -2.822,1.461 -5.896,2.401 -9.098,2.77 l -3.152,7.742 -2.755,-7.71 c -0.506,-0.053 -1.064,-0.147 -1.562,-0.228 -0.273,0.358 -0.565,0.758 -0.834,1.166 l -0.072,0.043 c -0.045,0.005 -1.197,0.116 -2.608,-0.33 -0.793,-0.251 -1.713,-0.648 -3.01,-1.542 -1.678,-0.292 -2.833,-0.771 -3.702,-1.784 l -5.911,3.549 1.303,-4.231 c -6.64,-0.773 -11.224,-1.659 -11.307,-1.674 l -1.439,-0.282 5.631,-9.761 -6.017,-0.338 6.397,-5.107 c -0.435,-1.908 -0.669,-3.891 -0.669,-5.93 0,-1.708 0.159,-3.392 0.472,-5.035 l -6.421,-5.341 8.166,-0.296 c 1.311,-3 3.187,-5.758 5.569,-8.143 0.278,-0.276 0.562,-0.549 0.85,-0.812 l -1.97,-8.125 6.735,4.636 c 2.651,-1.522 5.545,-2.569 8.576,-3.098 l 4.611,-7.989 4.613,7.984 c 2.932,0.506 5.737,1.502 8.322,2.941 l 7.067,-4.439 -1.949,6.773 c 0.525,0.447 1.039,1.039 1.527,1.765 0.573,0.852 1.073,1.835 1.495,2.912 1.362,1.755 2.488,3.659 3.36,5.671 l 0.819,-0.721 2.678,-0.136 c 0,0 0.976,1.067 1.202,1.425 L 0,0 Z"
             style="fill:#231f20;fill-opacity:1;fill-rule:nonzero;stroke:none"
             id="path58907"
             inkscape:connector-curvature="0" />
        </g>
        <g
           id="g58909"
           transform="translate(340.9381,516.9467)">
          <path
             d="m 0,0 c -0.112,-0.385 -0.51,-0.678 -0.976,-0.682 -0.537,-0.005 -0.955,0.375 -0.936,0.848 0.011,0.271 0.164,0.514 0.393,0.673 C -1.513,0.836 -1.506,0.83 -1.5,0.826 -1.685,0.952 -1.855,1.08 -2.011,1.203 -2.622,1.002 -3.062,0.547 -3.084,0.018 -3.116,-0.689 -2.378,-1.256 -1.435,-1.248 -0.57,-1.24 0.163,-0.747 0.296,-0.117 0.091,-0.037 -0.006,0.004 0,0"
             style="fill:#ffffff;fill-opacity:1;fill-rule:nonzero;stroke:none"
             id="path58911"
             inkscape:connector-curvature="0" />
        </g>
        <g
           id="g58913"
           transform="translate(355.8182,516.785)">
          <path
             d="m 0,0 c -0.069,-0.033 -0.142,-0.062 -0.215,-0.093 0.109,-0.126 0.172,-0.282 0.167,-0.452 -0.007,-0.414 -0.396,-0.752 -0.868,-0.756 -0.47,-0.003 -0.846,0.326 -0.836,0.74 0,0.014 0.002,0.027 0.004,0.042 -0.219,-0.036 -0.45,-0.066 -0.694,-0.083 -0.006,-0.05 -0.012,-0.1 -0.013,-0.151 -0.017,-0.661 0.583,-1.19 1.336,-1.183 0.755,0.007 1.377,0.549 1.391,1.208 C 0.277,-0.454 0.174,-0.203 0,0"
             style="fill:#ffffff;fill-opacity:1;fill-rule:nonzero;stroke:none"
             id="path58915"
             inkscape:connector-curvature="0" />
        </g>
        <g
           id="g58917"
           transform="translate(348.2447,505.9237)">
          <path
             d="M 0,0 C 0.113,0.191 0.42,0.658 0.793,0.906 0.936,0.74 1.313,0.265 1.475,0.021 1.251,-0.077 0.629,-0.288 0,0"
             style="fill:#ffffff;fill-opacity:1;fill-rule:nonzero;stroke:none"
             id="path58919"
             inkscape:connector-curvature="0" />
        </g>
        <g
           id="g58921"
           transform="translate(350.1021,505.9416)">
          <path
             d="M 0,0 C 0.25,0.423 0.661,0.782 0.815,0.907 1.19,0.556 1.429,0.134 1.52,-0.043 0.91,-0.275 0.243,-0.087 0,0"
             style="fill:#ffffff;fill-opacity:1;fill-rule:nonzero;stroke:none"
             id="path58923"
             inkscape:connector-curvature="0" />
        </g>
        <g
           id="g58925"
           transform="translate(352.1597,505.8242)">
          <path
             d="M 0,0 C 0.241,0.41 0.635,0.883 0.783,1.057 1.187,0.702 1.438,0.129 1.52,-0.077 1.023,-0.296 0.27,-0.089 0,0"
             style="fill:#ffffff;fill-opacity:1;fill-rule:nonzero;stroke:none"
             id="path58927"
             inkscape:connector-curvature="0" />
        </g>
        <g
           id="g58929"
           transform="translate(354.0894,505.7622)">
          <path
             d="M 0,0 C 0.065,0.365 0.473,0.92 0.681,1.169 1.021,1.019 1.354,0.479 1.459,0.292 1.108,0.023 0.284,0 0,0"
             style="fill:#ffffff;fill-opacity:1;fill-rule:nonzero;stroke:none"
             id="path58931"
             inkscape:connector-curvature="0" />
        </g>
        <g
           id="g58933"
           transform="translate(355.774,506.1049)">
          <path
             d="M 0,0 C 0.077,0.311 0.282,0.685 0.373,0.841 0.716,0.651 0.973,0.284 1.077,0.122 0.631,-0.086 0.181,-0.036 0,0"
             style="fill:#ffffff;fill-opacity:1;fill-rule:nonzero;stroke:none"
             id="path58935"
             inkscape:connector-curvature="0" />
        </g>
        <g
           id="g58937"
           transform="translate(347.5411,505.8453)">
          <path
             d="M 0,0 C -0.802,-0.066 -1.519,-0.25 -2.397,-0.98 -2.352,0.518 -2.442,2.735 -2.498,3.826 -1.072,2.123 -0.302,0.65 0,0"
             style="fill:#ffffff;fill-opacity:1;fill-rule:nonzero;stroke:none"
             id="path58939"
             inkscape:connector-curvature="0" />
        </g>
        <g
           id="g58941"
           transform="translate(359.1393,506.8816)">
          <path
             d="m 0,0 c -0.037,-0.469 -0.07,-0.852 -0.146,-1.151 -0.477,0.387 -1.137,0.54 -1.554,0.6 C -0.894,1.403 0.027,2.5 0.4,2.863 0.138,1.646 0.06,0.704 0,0"
             style="fill:#ffffff;fill-opacity:1;fill-rule:nonzero;stroke:none"
             id="path58943"
             inkscape:connector-curvature="0" />
        </g>
        <g
           id="g58945"
           transform="translate(335.6176,504.117)">
          <path
             d="M 0,0 1.074,-1.841 0.32,-1.627 -0.211,-2.089 -0.613,-0.762 -1.71,-0.423 0,0 Z m -2.621,-4.077 c 0.902,0.284 0.438,1.599 0.438,1.599 l 0.817,-0.815 0.002,-1.816 c 0,0 1.721,-0.166 1.798,0.871 0.079,1.036 -0.047,1.36 -0.047,1.36 l 0.911,-1.236 1.081,0.654 3.97,0.426 -1.881,0.358 2.841,0.161 c 0,0 0.326,0.436 0.519,1.389 0.024,0.115 0.067,0.22 0.031,0.148 l -4.17,0.136 4.773,0.691 c 0,0 0.113,0.123 0.51,0.428 -3.12,-0.28 -6.287,-0.6 -6.287,-0.6 L 1.43,-0.285 c 0,0 -2.302,1.868 -2.964,1.923 C -2.193,1.693 -2.497,1.387 -3.395,0.989 -4.293,0.591 -4.222,0.517 -4.76,-0.093 c -0.538,-0.613 1.124,-1.681 0.893,-1.911 -0.23,-0.231 -0.434,-1.876 -0.165,-2.687 0.103,-0.314 0.306,-0.547 0.528,-0.709 0.964,-0.032 1.36,0.485 0.883,1.323"
             style="fill:#ffffff;fill-opacity:1;fill-rule:nonzero;stroke:none"
             id="path58947"
             inkscape:connector-curvature="0" />
        </g>
        <g
           id="g58949"
           transform="translate(368.837,504.8357)">
          <path
             d="M 0,0 -0.611,1.451 -1.351,1.723 -1.668,3.476 -3.621,4.089 -4.572,3.696 -6.175,1.592 -8.456,0.716 c 0,0 -0.489,-0.042 -1.259,-0.105 0.983,-0.954 0.867,-2.071 0.648,-2.765 1.359,0.127 2.249,0.194 2.249,0.194 l 2.245,-0.986 1.194,-0.626 2.124,0.971 -0.087,0.952 L 0,0 Z"
             style="fill:#ffffff;fill-opacity:1;fill-rule:nonzero;stroke:none"
             id="path58951"
             inkscape:connector-curvature="0" />
        </g>
        <g
           id="g58953"
           transform="translate(368.837,504.8357)">
          <path
             d="M 0,0 -0.611,1.451 -1.351,1.723 -1.668,3.476 -3.621,4.089 -4.572,3.696 -6.175,1.592 -8.456,0.716 c 0,0 -0.489,-0.042 -1.259,-0.105 0.176,-0.174 0.319,-0.352 0.431,-0.533 -0.038,0.061 -0.083,0.136 -0.132,0.209 L -7.125,0.412 -6.838,0.551 -7.103,0.167 -9.175,-0.1 c 0,0 -0.03,0.05 -0.077,0.13 0.313,-0.536 0.37,-1.085 0.317,-1.556 l 2.499,0.214 c 0,0 0.848,0.356 1.006,1.539 0.369,0.158 0.462,-0.134 1.225,1.249 0,0 -0.355,-1.628 0.238,-1.759 0,0 -0.958,-0.414 -0.842,-0.979 0,0 0.073,-0.406 0.14,-0.928 l -0.414,-0.534 0.51,-0.222 1.194,-0.626 2.124,0.971 -0.087,0.952 L 0,0 Z"
             style="fill:#ffffff;fill-opacity:1;fill-rule:nonzero;stroke:none"
             id="path58955"
             inkscape:connector-curvature="0" />
        </g>
        <g
           id="g58957"
           transform="translate(320.7997,530.5653)">
          <path
             d="M 0,0 -0.483,1.573 C -5.047,1.049 -8.669,0.467 -10.565,0.138 l 4.676,-8.105 C -4.433,-4.953 -2.427,-2.252 0,0"
             style="fill:#fdbf00;fill-opacity:1;fill-rule:nonzero;stroke:none"
             id="path58959"
             inkscape:connector-curvature="0" />
        </g>
        <g
           id="g58961"
           transform="translate(351.3037,492.0602)">
          <path
             d="m 0,0 0,0 c -0.295,-0.332 -0.677,-0.584 -1.086,-0.757 l -0.004,0 c -0.473,-0.199 -0.978,-0.292 -1.418,-0.273 -0.062,0.004 -0.125,0.01 -0.188,0.014 -0.074,0.013 -0.132,0.024 -0.175,0.03 -0.434,0.093 -0.726,0.323 -0.821,0.637 -0.008,0.025 -0.015,0.05 -0.022,0.078 l -10e-4,0 C -5.553,-1.359 -6.767,-1.77 -7.418,-1.524 l -0.002,0 c -0.012,0.004 -0.026,0.006 -0.036,0.011 -0.201,0.085 -0.344,0.241 -0.424,0.456 -1.339,-1.465 -2.52,-1.632 -3.191,-1.565 -0.002,10e-4 -0.004,10e-4 -0.006,10e-4 -0.109,0.014 -0.156,0.019 -0.165,0.022 -0.088,0.019 -0.125,0.027 -0.136,0.029 -0.079,0.018 -0.148,0.041 -0.217,0.067 -0.049,0.017 -0.091,0.034 -0.123,0.05 -0.086,0.038 -0.154,0.072 -0.219,0.111 -0.071,0.044 -0.155,0.098 -0.228,0.16 -0.039,0.034 -0.064,0.055 -0.075,0.066 -0.183,0.166 -0.325,0.365 -0.415,0.583 -0.011,0.033 -0.025,0.064 -0.035,0.098 -0.938,-1.402 -2.47,-2.424 -4.288,-2.895 l -10e-4,0 c 1.486,-0.288 3.008,-0.435 4.556,-0.435 4.755,-0.002 9.189,1.4 12.908,3.814 C 0.314,-0.665 0.152,-0.349 0,0"
             style="fill:#fdbf00;fill-opacity:1;fill-rule:nonzero;stroke:none"
             id="path58963"
             inkscape:connector-curvature="0" />
        </g>
        <g
           id="g58965"
           transform="translate(340.5521,517.1227)">
          <path
             d="m 0,0 c -0.046,-0.244 -0.286,-0.435 -0.572,-0.438 -0.312,-0.004 -0.555,0.218 -0.544,0.493 0.007,0.174 0.115,0.327 0.272,0.416 -0.099,0.064 -0.196,0.127 -0.289,0.193 -0.229,-0.161 -0.38,-0.403 -0.393,-0.674 -0.021,-0.473 0.399,-0.853 0.936,-0.848 0.465,0.004 0.864,0.297 0.976,0.682 C 0.254,-0.119 0.126,-0.061 0,0"
             style="fill:#b47f3a;fill-opacity:1;fill-rule:nonzero;stroke:none"
             id="path58967"
             inkscape:connector-curvature="0" />
        </g>
        <g
           id="g58969"
           transform="translate(359.2652,514.5766)">
          <path
             d="m 0,0 c 1.3,-2.557 1.849,-4.817 1.982,-7.794 0,0 1.083,0.347 1.075,0.346 0.492,2.832 0.322,5.372 -0.274,8.362 C 2.696,1.352 2.596,1.783 2.487,2.21 2.49,2.21 2.492,2.212 2.493,2.213 2.371,2.134 2.257,2.086 2.16,2.077 1.982,2.059 1.857,2.15 1.783,2.326 0.968,4.265 0.242,5.312 0.24,5.314 0.073,5.57 0.045,5.61 0.008,5.666 -0.231,4.943 -0.635,4.372 -0.996,3.971 l 0,-0.002 C -1.067,3.893 -1.079,3.882 -1.062,3.898 0.457,2.647 0.359,0.956 0,0"
             style="fill:#fdbf00;fill-opacity:1;fill-rule:nonzero;stroke:none"
             id="path58971"
             inkscape:connector-curvature="0" />
        </g>
        <g
           id="g58973"
           transform="translate(353.9767,512.426)">
          <path
             d="M 0,0 C 0,0 0.585,0.105 0.606,-0.258 0.629,-0.649 0.493,-0.869 0.016,-1.225 0.016,-1.225 0.86,-0.056 0,0"
             style="fill:#cba569;fill-opacity:1;fill-rule:nonzero;stroke:none"
             id="path58975"
             inkscape:connector-curvature="0" />
        </g>
        <g
           id="g58977"
           transform="translate(350.6678,512.7314)">
          <path
             d="m 0,0 c 0,0 0.615,0.055 0.931,-0.391 0.506,-0.713 0.205,-1.284 0.205,-1.284 0,0 0,1.264 -1.136,1.675"
             style="fill:#cba569;fill-opacity:1;fill-rule:nonzero;stroke:none"
             id="path58979"
             inkscape:connector-curvature="0" />
        </g>
        <g
           id="g58981"
           transform="translate(322.8759,526.0905)">
          <path
             d="M 0,0 C -0.264,0.632 -0.472,1.301 -0.622,1.978 -0.682,1.921 -0.741,1.864 -0.801,1.802 -3.992,-1.386 -6.163,-5.324 -7.156,-9.616 c 0.023,0.073 0.111,0.336 0.16,0.473 0,0.001 0.001,0.004 0.002,0.007 0.058,0.165 0.102,0.277 0.119,0.327 0.002,0.004 0.004,0.007 0.005,0.009 0.004,0.008 0.006,0.016 0.008,0.021 0.347,1.595 1.574,3.288 2.937,4.752 C -2.17,-1.549 -0.706,-0.438 0,0"
             style="fill:#fdbf00;fill-opacity:1;fill-rule:nonzero;stroke:none"
             id="path58983"
             inkscape:connector-curvature="0" />
        </g>
        <g
           id="g58985"
           transform="translate(338.0998,534.7348)">
          <path
             d="m 0,0 c 1.378,-0.989 2.425,-1.359 2.664,-1.438 6.222,-0.092 7.781,-1.425 8.918,-2.401 0.124,-0.106 0.243,-0.207 0.357,-0.296 0.846,-0.665 2.339,-1.5 2.849,-1.78 0,0 0.704,0.196 1.047,0.294 C 11.492,-1.981 5.901,0.102 0,0"
             style="fill:#fdbf00;fill-opacity:1;fill-rule:nonzero;stroke:none"
             id="path58987"
             inkscape:connector-curvature="0" />
        </g>
        <g
           id="g58989"
           transform="translate(340.8864,484.5629)">
          <path
             d="m 0,0 -2.015,-3.491 -2.016,3.463 c 0,0 2.676,-0.087 4.031,0.028"
             style="fill:#fdbf00;fill-opacity:1;fill-rule:nonzero;stroke:none"
             id="path58991"
             inkscape:connector-curvature="0" />
        </g>
        <g
           id="g58993"
           transform="translate(358.0777,530.4488)">
          <path
             d="m 0,0 0.282,0.124 0.24,-0.193 C 2.475,-1.648 4.82,-3.748 5.893,-5.964 L 9.443,0.216 -1.049,1.624 -1.336,0.377 -0.81,-0.317 C -0.516,-0.211 -0.244,-0.106 0,0"
             style="fill:#fdbf00;fill-opacity:1;fill-rule:nonzero;stroke:none"
             id="path58995"
             inkscape:connector-curvature="0" />
        </g>
        <g
           id="g58997"
           transform="translate(355.295,516.5731)">
          <path
             d="m 0,0 c 0.107,-0.08 0.175,-0.199 0.173,-0.336 -0.006,-0.247 -0.241,-0.45 -0.523,-0.453 -0.283,-0.004 -0.508,0.196 -0.502,0.443 0,0.038 0.008,0.074 0.018,0.107 l -0.391,-0.064 c -0.002,-0.014 -0.002,-0.031 -0.004,-0.046 -0.009,-0.414 0.367,-0.743 0.836,-0.739 0.472,0.002 0.862,0.341 0.868,0.754 0.006,0.173 -0.06,0.33 -0.171,0.456 L 0,0 Z"
             style="fill:#b47f3a;fill-opacity:1;fill-rule:nonzero;stroke:none"
             id="path58999"
             inkscape:connector-curvature="0" />
        </g>
        <g
           id="g59001"
           transform="translate(322.2051,532.5674)">
          <path
             d="M 0,0 C 0,0 0.218,0.922 0.81,2.19 L -2.509,4.16 0,0 Z"
             style="fill:#b47f3a;fill-opacity:1;fill-rule:nonzero;stroke:none"
             id="path59003"
             inkscape:connector-curvature="0" />
        </g>
        <g
           id="g59005"
           transform="translate(353.2279,533.4952)">
          <path
             d="M 0,0 C 0,0 1.358,-0.871 1.67,-1.21 L 4.239,3.68 0,0 Z"
             style="fill:#b47f3a;fill-opacity:1;fill-rule:nonzero;stroke:none"
             id="path59007"
             inkscape:connector-curvature="0" />
        </g>
        <g
           id="g59009"
           transform="translate(337.7334,537.7052)">
          <path
             d="M 0,0 C 0,0 1.338,0.014 1.902,-0.058 L 1.15,5.407 0,0 Z"
             style="fill:#b47f3a;fill-opacity:1;fill-rule:nonzero;stroke:none"
             id="path59011"
             inkscape:connector-curvature="0" />
        </g>
        <g
           id="g59013"
           transform="translate(365.0602,521.3369)">
          <path
             d="M 0,0 C 0,0 -0.115,-1.037 -0.575,-1.96 L 4.205,-0.083 0,0 Z"
             style="fill:#b47f3a;fill-opacity:1;fill-rule:nonzero;stroke:none"
             id="path59015"
             inkscape:connector-curvature="0" />
        </g>
        <g
           id="g59017"
           transform="translate(323.6238,489.1674)">
          <path
             d="M 0,0 C 0,0 -1.14,0.792 -1.449,1.134 L -3.469,-4.086 0,0 Z"
             style="fill:#b47f3a;fill-opacity:1;fill-rule:nonzero;stroke:none"
             id="path59019"
             inkscape:connector-curvature="0" />
        </g>
        <g
           id="g59021"
           transform="translate(314.2587,501.1496)">
          <path
             d="M 0,0 C 0,0 -0.308,0.962 -0.538,1.613 L -5.912,0.244 0,0 Z"
             style="fill:#b47f3a;fill-opacity:1;fill-rule:nonzero;stroke:none"
             id="path59023"
             inkscape:connector-curvature="0" />
        </g>
        <g
           id="g59025"
           transform="translate(313.3408,517.5873)">
          <path
             d="M 0,0 0.461,1.614 -4.759,3.884 0,0 Z"
             style="fill:#b47f3a;fill-opacity:1;fill-rule:nonzero;stroke:none"
             id="path59027"
             inkscape:connector-curvature="0" />
        </g>
        <g
           id="g59029"
           transform="translate(351.7322,521.2669)">
          <path
             d="m 0,0 c -0.062,0.271 -0.111,0.552 -0.199,0.834 0,0 1.524,-1.554 2.991,-1.433 1.466,0.119 2.155,0.988 1.363,1.892 0,0 -1.62,-1.583 -5.75,0.803 0,0 -0.457,-3.214 1.518,-4.811 1.565,-1.262 5.256,-1.144 6.675,1.81 C 1.618,-5.168 0.305,-1.436 0,0"
             style="fill:#b47f3a;fill-opacity:1;fill-rule:nonzero;stroke:none"
             id="path59031"
             inkscape:connector-curvature="0" />
        </g>
        <g
           id="g59033"
           transform="translate(333.5582,537.451)">
          <path
             d="m 0,0 -0.696,-1.277 c 0,0 2.795,-3.185 4.881,-3.817 0,0 -3.27,2.331 -4.185,5.094"
             style="fill:#b47f3a;fill-opacity:1;fill-rule:nonzero;stroke:none"
             id="path59035"
             inkscape:connector-curvature="0" />
        </g>
        <g
           id="g59037"
           transform="translate(353.8179,527.4978)">
          <path
             d="m 0,0 c 0,0 0.37,-0.052 0.682,-0.472 0,0 2.634,1.172 3.916,1.599 L 4.55,1.494 C 4.55,1.494 1.975,0.273 0,0"
             style="fill:#b47f3a;fill-opacity:1;fill-rule:nonzero;stroke:none"
             id="path59039"
             inkscape:connector-curvature="0" />
        </g>
        <g
           id="g59041"
           transform="translate(359.0116,525.1035)">
          <path
             d="m 0,0 c 0,0 -0.206,-1.733 -0.192,-2.192 0.059,-2.061 2.133,-2.94 2.575,-5.284 0,0 0.47,2.198 -1.917,4.936 0,0 -0.011,1.179 -0.466,2.54"
             style="fill:#b47f3a;fill-opacity:1;fill-rule:nonzero;stroke:none"
             id="path59043"
             inkscape:connector-curvature="0" />
        </g>
        <g
           id="g59045"
           transform="translate(359.3123,501.8147)">
          <path
             d="m 0,0 c 0,0 -2.41,-1.01 -2.489,-3.22 -0.031,-0.841 -0.187,-1.818 -0.504,-2.746 0.09,-0.564 0.224,-1.787 -0.145,-2.468 0,0 -0.167,0.987 -0.31,1.4 -0.155,-0.295 -0.331,-0.577 -0.53,-0.833 -0.072,-0.375 -0.218,-0.92 -0.507,-1.422 0,0 -0.002,0.249 -0.253,0.651 -0.533,-0.412 -1.173,-0.68 -1.933,-0.723 0,0 2.766,-4.558 5.76,2.912 C 0.166,-3.732 -0.007,-0.421 0,0"
             style="fill:#b47f3a;fill-opacity:1;fill-rule:nonzero;stroke:none"
             id="path59047"
             inkscape:connector-curvature="0" />
        </g>
        <g
           id="g59049"
           transform="translate(362.6193,517.3168)">
          <path
             d="m 0,0 c -0.205,-0.18 -0.417,-0.3 -0.633,-0.358 0.006,0.007 0.015,0.015 0.022,0.021 -0.088,-0.078 -0.174,-0.144 -0.255,-0.193 0.108,-0.427 0.208,-0.859 0.295,-1.296 0.595,-2.99 0.777,-5.562 0.284,-8.395 0.035,0.006 0.176,0.135 0.176,0.135 l 0.154,0.362 0.553,0.466 C 0.921,-6.763 0.849,-4.036 0.333,-1.432 0.235,-0.949 0.124,-0.47 0,0"
             style="fill:#b47f3a;fill-opacity:1;fill-rule:nonzero;stroke:none"
             id="path59051"
             inkscape:connector-curvature="0" />
        </g>
        <g
           id="g59053"
           transform="translate(333.3478,497.2049)">
          <path
             d="m 0,0 c -1.216,-1.811 -2.452,-3.325 -3.545,-4.066 0.414,-0.823 1.315,-1.447 2.831,-0.481 1.434,0.915 2.713,2.441 3.986,4.562 -1.28,-1.242 -2.891,-0.87 -2.891,-0.87 L 0,0 Z"
             style="fill:#b47f3a;fill-opacity:1;fill-rule:nonzero;stroke:none"
             id="path59055"
             inkscape:connector-curvature="0" />
        </g>
        <g
           id="g59057"
           transform="translate(339.6387,509.5559)">
          <path
             d="m 0,0 c 1.33,2.468 3.44,3.313 3.44,3.313 -2.575,0.138 -5.898,-4.044 -7.801,-6.799 0.655,-0.426 1.51,-1.022 1.92,-1.313 C -1.86,-3.526 -1.022,-1.616 0,0"
             style="fill:#b47f3a;fill-opacity:1;fill-rule:nonzero;stroke:none"
             id="path59059"
             inkscape:connector-curvature="0" />
        </g>
        <g
           id="g59061"
           transform="translate(366.4253,504.2336)">
          <path
             d="m 0,0 0.458,-0.865 -0.61,-1.014 -2.062,0.347 -0.478,-0.619 0.5,-0.833 2.277,-0.538 1.071,1.523 L 1.07,-1.047 2.205,0.368 0,0 Z"
             style="fill:#b47f3a;fill-opacity:1;fill-rule:nonzero;stroke:none"
             id="path59063"
             inkscape:connector-curvature="0" />
        </g>
        <g
           id="g59065"
           transform="translate(356.2466,500.6347)">
          <path
             d="m 0,0 c -1.072,-0.841 -1.845,-2.67 -1.845,-2.67 0.285,1.246 0.791,2.108 1.337,2.707 C -0.542,0.041 -0.575,0.044 -0.61,0.049 -1.21,0.12 -1.848,0.242 -2.497,0.38 -2.6,0.355 -2.712,0.329 -2.84,0.295 -3.789,0.056 -4.853,-2.492 -4.853,-2.492 c 0.423,1.763 0.955,2.653 1.464,3.066 -2.748,0.6 -5.508,1.158 -6.539,-1.117 0,0 0.036,2.331 1.569,2.578 1.533,0.248 6.417,-1.128 8.234,-1.306 C 0.909,0.63 1.502,0.891 1.84,1.279 2.08,1.62 2.222,1.98 2.26,2.323 2.26,2.343 2.261,2.379 2.263,2.436 2.267,2.595 2.248,2.745 2.218,2.874 2.211,2.908 2.204,2.929 2.201,2.936 2.186,2.983 2.169,3.029 2.152,3.074 1.429,3.617 0.383,3.722 -0.228,3.397 c 0,0 0.465,-0.294 1.033,-1.203 0,0 -6.854,3.467 -11.918,0.123 -0.698,-0.782 -1.308,-1.947 -1.847,-3.708 -1.25,-4.046 -3.533,-7.404 -3.523,-7.397 -0.309,-0.78 1.405,-3.892 6.022,5.67 0,0 -10e-4,-3.722 -1.487,-5.478 0,0 3.443,-0.352 5.949,4.424 0,0 0.182,-1.705 -1.297,-3.452 0,0 3.117,0.333 4.606,3.114 0,0 0.366,-0.865 -0.396,-1.75 3.254,0.807 1.963,4.054 3.7,6.262 C 0.427,-0.008 0.223,-0.011 0,0"
             style="fill:#b47f3a;fill-opacity:1;fill-rule:nonzero;stroke:none"
             id="path59067"
             inkscape:connector-curvature="0" />
        </g>
        <g
           id="g59069"
           transform="translate(330.2248,537.024)">
          <path
             d="m 0,0 c 0,0 -1.496,-0.428 -2.388,-1.281 0,0 -4.509,-0.54 -4.054,-6.678 0,0 0.363,5.765 3.838,5.663 0,0 1.328,2.028 2.604,2.296"
             style="fill:#b47f3a;fill-opacity:1;fill-rule:nonzero;stroke:none"
             id="path59071"
             inkscape:connector-curvature="0" />
        </g>
        <g
           id="g59073"
           transform="translate(356.9973,511.4086)">
          <path
             d="m 0,0 c -0.252,0.033 -0.492,0.015 -0.722,-0.019 -0.05,-0.261 -0.141,-0.516 -0.267,-0.746 -0.539,-0.984 -2.038,0.533 -2.038,0.533 0,0 0.011,0.012 0.024,0.024 l -0.002,0 c 0,0 0.792,1.098 0.059,1.217 -0.015,-10e-4 -0.032,-10e-4 -0.052,-0.004 -0.479,-0.058 -1.241,-1.215 -0.83,-1.691 0.631,-0.726 0.848,-1.084 1.162,-1.906 0.472,-1.237 2.174,-1.543 2.882,-1.615 0.526,1.125 1.076,1.94 1.502,2.464 C 1.391,-0.84 0.861,-0.111 0,0"
             style="fill:#b47f3a;fill-opacity:1;fill-rule:nonzero;stroke:none"
             id="path59075"
             inkscape:connector-curvature="0" />
        </g>
        <g
           id="g59077"
           transform="translate(354.5855,513.8071)">
          <path
             d="M 0,0 C 0.126,0 0.243,-0.012 0.356,-0.03 0.08,0.184 -0.273,0.311 -0.711,0.311 -2.462,0.31 -2.086,-0.065 -3.255,0.001 c -1.167,0.068 -2.188,0.512 -3.142,0.443 -0.823,-0.06 -2.259,-0.655 -1.58,-1.671 -1.212,0.393 -2.387,0.104 -3.435,-0.499 -0.083,-0.048 -0.162,-0.096 -0.243,-0.146 -1.854,-1.168 -3.3,-3.261 -3.854,-4.136 -0.595,-1.069 -1.05,-2.163 -1.525,-3.202 0.407,0.035 1.458,0.107 2.783,0.193 0.358,0.829 0.727,1.695 1.105,2.599 0,0 -0.199,-1.017 -0.66,-2.57 0.346,0.024 0.708,0.046 1.076,0.07 0.482,2.018 2.3,2.318 2.723,2.362 -0.039,1.515 -0.12,2.921 -0.127,3.003 -0.029,0.231 0.113,0.33 0.158,0.354 0.125,0.07 0.278,0.046 0.413,-0.063 l 0.017,-0.015 0.015,-0.016 c 1.163,-1.308 1.952,-2.508 2.45,-3.383 1.697,-0.204 5.152,0.234 5.141,2.086 -0.442,0.971 -0.919,1.511 -0.919,1.511 0.04,0.117 0.068,0.234 0.088,0.349 -0.007,-0.013 -0.011,-0.02 -0.011,-0.02 0,0 0,1.264 -1.135,1.674 0,0 -0.134,0.012 -0.246,0.002 -0.671,-0.052 -0.449,-0.679 0.077,-1.146 0.699,-0.619 -0.677,-0.889 -0.677,-0.889 -0.775,0.136 -0.354,-0.274 -2.01,1.056 -1.648,1.33 0.13,2.116 1.084,2.185 0.956,0.07 1.977,-0.373 3.146,-0.44 C -1.373,-0.375 -1.75,-0.001 0,0"
             style="fill:#b47f3a;fill-opacity:1;fill-rule:nonzero;stroke:none"
             id="path59079"
             inkscape:connector-curvature="0" />
        </g>
        <g
           id="g59081"
           transform="translate(338.0998,534.7348)">
          <path
             d="m 0,0 c 5.9,0.102 11.492,-1.981 15.835,-5.621 0.321,0.088 0.638,0.179 0.952,0.268 C 12.18,-1.512 6.159,0.556 -0.128,0.093 -0.085,0.063 -0.041,0.03 0,0"
             style="fill:#b47f3a;fill-opacity:1;fill-rule:nonzero;stroke:none"
             id="path59083"
             inkscape:connector-curvature="0" />
        </g>
        <g
           id="g59085"
           transform="translate(369.5717,501.9749)">
          <path
             d="M 0,0 -1.625,0.611 -1.576,-0.158 0,0 Z"
             style="fill:#b47f3a;fill-opacity:1;fill-rule:nonzero;stroke:none"
             id="path59087"
             inkscape:connector-curvature="0" />
        </g>
        <g
           id="g59089"
           transform="translate(354.08,489.3882)">
          <path
             d="M 0,0 C -0.422,-0.363 -1.157,-0.964 -1.409,-1.104 L 3.513,-4.322 1.266,-0.077 C 1.301,-0.052 0.444,-0.19 0,0"
             style="fill:#b47f3a;fill-opacity:1;fill-rule:nonzero;stroke:none"
             id="path59091"
             inkscape:connector-curvature="0" />
        </g>
        <g
           id="g59093"
           transform="translate(337.275,527.154)">
          <path
             d="m 0,0 c 0.885,0.27 1.156,-0.74 1.156,-0.74 0,0 3.603,-6.845 7.963,-3.683 0.039,-0.211 0.032,-0.417 -0.013,-0.614 0.058,-3.611 -3.787,-2.459 -6.124,-0.744 -1.193,0.88 -2.383,3.071 -2.71,3.7 -0.039,0.068 -0.069,0.127 -0.088,0.172 0,0 -3.655,-1.089 -5.299,-2.911 0,0 3.585,4.353 5.115,4.82 m -6.526,-15.7 c 1.537,1.613 4.149,3.13 4.149,3.13 -1.816,-0.123 -6.259,-1.873 -6.259,-1.873 3.674,3.233 7.792,4.247 7.792,4.247 l -0.065,0.318 c -2.539,1.059 -3.462,3.053 -3.462,3.053 3.332,-1.143 4.031,-0.727 4.031,-0.727 -0.878,1.803 -0.916,3.502 -0.916,3.502 2.502,-2.852 4.418,-5.812 9.625,-4.812 5.192,0.994 1.208,6.792 -0.657,7.947 0,0 -1.539,-0.819 -4.713,1.673 0,0 0.235,-2.203 4.731,-2.922 -0.696,-1.991 -4.174,-0.899 -5.391,1.326 -1.21,2.223 -2.035,2.327 -2.035,2.327 0,0 -0.105,0.283 -1.339,0.333 -1.175,-0.316 -4.657,-1.425 -5.7,-3.672 0,0 1.199,0.001 2.098,-0.206 0,0 -8.918,-3.899 -10.557,-11.428 l -0.077,-0.384 c -0.083,-0.464 -0.141,-0.938 -0.167,-1.428 0,0 0.447,1.34 3.241,3.016 0,0 -2.57,-3.24 -2.571,-8.604 0.448,2.57 3.13,3.799 3.13,3.799 -3.826,-5.903 -3.455,-17.969 2.049,-20.804 0.246,-0.074 0.505,-0.14 0.773,-0.198 1.26,-0.279 2.532,-0.372 3.773,-0.184 3.09,0.526 5.184,2.698 6.549,4.922 0.636,1.061 1.226,2.317 1.764,3.798 0.343,1.002 0.486,1.673 0.486,1.673 -0.964,-0.166 -1.907,-0.32 -2.565,-0.42 -1.041,-2.104 -2.395,-4.253 -4.122,-6.008 -2.057,-2.073 -3.939,-1.551 -4.674,0.204 -0.582,-0.364 -1.122,-0.5 -1.593,-0.331 -3.041,1.107 -1.637,5.091 -1.637,5.091 0,0 -0.422,-8.721 6.218,-0.124 l -0.46,0.118 -0.286,0.365 -1.018,0.564 -0.299,0.496 c -1.693,-2.033 -3.29,-3.212 -3.69,-1.103 -0.544,2.899 0.475,4.276 0.475,4.276 0,0 -2.319,-8.544 3.292,-2.262 l 0.35,2.246 c -0.428,0.436 -1.248,1.298 -1.248,1.298 l 1.515,2.138 3.26,0.688 c 0.086,-0.043 0.213,-0.116 0.364,-0.209 1.694,3.149 4.036,5.693 4.036,5.693 0,0 -4.688,-2.261 -8.448,-5.197 5.591,8.621 18.657,8.347 18.657,8.347 C 2.168,-10.614 -6.526,-15.7 -6.526,-15.7"
             style="fill:#b47f3a;fill-opacity:1;fill-rule:nonzero;stroke:none"
             id="path59095"
             inkscape:connector-curvature="0" />
        </g>
        <g
           id="g59097"
           transform="translate(352.45,533.9354)">
          <path
             d="M 0,0 0.778,-0.441 5.016,3.24 0,0 Z"
             style="fill:#cba569;fill-opacity:1;fill-rule:nonzero;stroke:none"
             id="path59099"
             inkscape:connector-curvature="0" />
        </g>
        <g
           id="g59101"
           transform="translate(336.8831,537.6042)">
          <path
             d="M 0,0 C 0,0 0.619,0.087 0.85,0.101 L 2.001,5.508 0,0 Z"
             style="fill:#cba569;fill-opacity:1;fill-rule:nonzero;stroke:none"
             id="path59103"
             inkscape:connector-curvature="0" />
        </g>
        <g
           id="g59105"
           transform="translate(313.7204,502.7632)">
          <path
             d="M 0,0 C 0,0 -0.569,2.076 -0.612,2.534 L -5.374,-1.369 0,0 Z"
             style="fill:#cba569;fill-opacity:1;fill-rule:nonzero;stroke:none"
             id="path59107"
             inkscape:connector-curvature="0" />
        </g>
        <g
           id="g59109"
           transform="translate(313.8021,519.2005)">
          <path
             d="M 0,0 C 0,0 0.445,1.809 1.041,2.802 L -5.22,2.27 0,0 Z"
             style="fill:#cba569;fill-opacity:1;fill-rule:nonzero;stroke:none"
             id="path59111"
             inkscape:connector-curvature="0" />
        </g>
        <g
           id="g59113"
           transform="translate(320.1551,485.0815)">
          <path
             d="m 0,0 1.391,5.824 c 0,0 0.34,-0.418 0.629,-0.604 L 0,0 Z"
             style="fill:#cba569;fill-opacity:1;fill-rule:nonzero;stroke:none"
             id="path59115"
             inkscape:connector-curvature="0" />
        </g>
        <g
           id="g59117"
           transform="translate(351.6458,521.7715)">
          <path
             d="M 0,0 C 0,0 0.648,-6.573 6.684,-1.408 6.684,-1.408 1.864,-4.116 0,0"
             style="fill:#cba569;fill-opacity:1;fill-rule:nonzero;stroke:none"
             id="path59119"
             inkscape:connector-curvature="0" />
        </g>
        <g
           id="g59121"
           transform="translate(357.0517,502.8294)">
          <path
             d="M 0,0 C -0.568,0.908 -1.033,1.202 -1.033,1.202 -0.421,1.528 0.629,1.422 1.351,0.875 1.229,1.266 0.504,2.384 -2.45,1.658 -2.012,1.554 -1.783,1.431 -1.565,1.092 -4.784,2.094 -6.093,2.014 -7.384,1.883 -9.237,1.697 -10.735,1.492 -11.957,0.096 -6.89,3.486 0,0 0,0"
             style="fill:#cba569;fill-opacity:1;fill-rule:nonzero;stroke:none"
             id="path59123"
             inkscape:connector-curvature="0" />
        </g>
        <g
           id="g59125"
           transform="translate(357.0517,502.8294)">
          <path
             d="M 0,0 C -0.568,0.908 -1.033,1.202 -1.033,1.202 -0.421,1.528 0.629,1.422 1.351,0.875 1.229,1.266 0.504,2.384 -2.45,1.658 -2.012,1.554 -1.783,1.431 -1.565,1.092 -4.784,2.094 -6.093,2.014 -7.384,1.883 -9.237,1.697 -10.735,1.492 -11.957,0.096 -6.89,3.486 0,0 0,0"
             style="fill:#cba569;fill-opacity:1;fill-rule:nonzero;stroke:none"
             id="path59127"
             inkscape:connector-curvature="0" />
        </g>
        <g
           id="g59129"
           transform="translate(336.0047,501.2393)">
          <path
             d="M 0,0 C 0,0 0.124,-0.324 0.047,-1.36 -0.03,-2.397 -1.75,-2.23 -1.75,-2.23 l -0.003,1.814 -0.816,0.815 c 0,0 0.463,-1.313 -0.439,-1.598 0.477,-0.839 0.079,-1.358 -0.889,-1.323 0.522,-0.669 1.695,-0.065 1.695,-0.065 0,0 -0.194,-0.905 0.627,-1.075 0.822,-0.174 1.666,0.145 1.956,0.635 0.29,0.488 0.534,1.799 0.534,1.799 L 0,0 Z"
             style="fill:#cba569;fill-opacity:1;fill-rule:nonzero;stroke:none"
             id="path59131"
             inkscape:connector-curvature="0" />
        </g>
        <g
           id="g59133"
           transform="translate(335.6176,504.117)">
          <path
             d="M 0,0 1.074,-1.841 0.32,-1.627 -0.211,-2.089 -0.613,-0.762 -1.71,-0.423 0,0 Z"
             style="fill:#cba569;fill-opacity:1;fill-rule:nonzero;stroke:none"
             id="path59135"
             inkscape:connector-curvature="0" />
        </g>
        <g
           id="g59137"
           transform="translate(339.3071,503.2746)">
          <path
             d="m 0,0 4.773,0.691 c 0,0 -0.328,-0.249 -0.603,-0.827 L 0,0 Z"
             style="fill:#cba569;fill-opacity:1;fill-rule:nonzero;stroke:none"
             id="path59139"
             inkscape:connector-curvature="0" />
        </g>
        <g
           id="g59141"
           transform="translate(342.9271,501.6015)">
          <path
             d="m 0,0 -2.841,-0.161 1.88,-0.357 -3.97,-0.426 -1.076,-0.646 5.214,0.69 c 0.4,0.309 0.644,0.638 0.793,0.9"
             style="fill:#cba569;fill-opacity:1;fill-rule:nonzero;stroke:none"
             id="path59143"
             inkscape:connector-curvature="0" />
        </g>
        <g
           id="g59145"
           transform="translate(364.271,501.2271)">
          <path
             d="M 0,0 0,0.016 -0.028,0.022 0,0 Z"
             style="fill:#cba569;fill-opacity:1;fill-rule:nonzero;stroke:none"
             id="path59147"
             inkscape:connector-curvature="0" />
        </g>
        <g
           id="g59149"
           transform="translate(359.6806,502.4286)">
          <path
             d="m 0,0 0.092,-0.075 3.155,-0.064 1.298,-1.03 -0.492,0.824 0.434,0.563 C 4.419,0.741 4.348,1.144 4.348,1.144 4.23,1.71 5.191,2.123 5.191,2.123 4.597,2.254 4.952,3.882 4.952,3.882 4.188,2.501 4.094,2.791 3.726,2.634 3.568,1.451 2.722,1.096 2.722,1.096 L 0.223,0.881 C 0.185,0.533 0.09,0.227 0,0"
             style="fill:#cba569;fill-opacity:1;fill-rule:nonzero;stroke:none"
             id="path59151"
             inkscape:connector-curvature="0" />
        </g>
        <g
           id="g59153"
           transform="translate(361.9991,505.3868)">
          <path
             d="M 0,0 -0.289,-0.139 -2.58,-0.265 c 0.13,-0.198 0.244,-0.387 0.244,-0.387 l 2.07,0.267 L 0,0 Z"
             style="fill:#cba569;fill-opacity:1;fill-rule:nonzero;stroke:none"
             id="path59155"
             inkscape:connector-curvature="0" />
        </g>
        <g
           id="g59157"
           transform="translate(361.1707,506.7448)">
          <path
             d="M 0,0 0.094,0.027 C -0.041,3.172 -0.675,5.42 -1.905,7.832 -1.547,8.787 -1.45,10.479 -2.967,11.73 -3.22,11.458 -3.444,11.275 -3.559,11.186 -1.933,9.887 -2.412,7.65 -2.48,7.367 -0.956,4.452 -0.28,2.477 0,0"
             style="fill:#cba569;fill-opacity:1;fill-rule:nonzero;stroke:none"
             id="path59159"
             inkscape:connector-curvature="0" />
        </g>
        <g
           id="g59161"
           transform="translate(358.601,530.3798)">
          <path
             d="M 0,0 -0.241,0.193 -0.523,0.069 c -1.145,-0.5 -2.931,-0.998 -4.656,-1.48 L -5.713,-1.56 c -0.51,0.28 -2.003,1.115 -2.849,1.779 -0.114,0.09 -0.233,0.192 -0.357,0.298 -1.138,0.974 -2.694,2.309 -8.917,2.4 -0.463,0.149 -3.905,1.383 -6.959,6.022 l -0.128,0.191 -0.227,0.031 c -0.108,0.017 -2.673,0.341 -5.849,-1.875 -3.131,-0.575 -4.612,-1.984 -5.382,-5.136 l -2.525,4.198 1.867,-5.777 0.477,0.603 c -0.198,-1.687 0.108,-3.714 0.838,-5.463 -0.743,-0.46 -1.998,-1.387 -3.926,-4.028 0.712,0.789 1.227,1.17 1.927,1.794 0.917,0.82 1.814,1.534 2.539,2.081 -0.656,1.779 -1.03,3.826 -0.604,5.674 0.752,3.302 2.248,4.528 5.189,5.043 1.114,0.786 2.125,1.233 2.918,1.487 1.603,0.514 2.659,0.374 2.703,0.369 l 0.035,-0.007 0.02,-0.028 c 3.311,-5.019 7.082,-6.161 7.259,-6.211 6.124,-0.079 7.62,-1.361 8.711,-2.295 0.13,-0.11 0.251,-0.213 0.375,-0.311 0.99,-0.774 2.818,-1.768 3.066,-1.9 l 0.699,0.197 c 1.742,0.485 3.546,0.99 4.716,1.499 l 0.043,0.02 0.038,-0.03 c 2.68,-2.161 5.786,-5.381 5.368,-8.453 -0.262,-1.924 -1.227,-3.398 -1.967,-4.033 0.978,0.262 1.845,1.701 2.47,4.279 C 6.651,-5.831 2.894,-2.34 0,0"
             style="fill:#cba569;fill-opacity:1;fill-rule:nonzero;stroke:none"
             id="path59163"
             inkscape:connector-curvature="0" />
        </g>
        <g
           id="g59165"
           transform="translate(342.0759,521.2096)">
          <path
             d="M 0,0 C -2.469,1.148 -4.104,3.128 -4.528,3.863 -4.202,3.234 -3.012,1.044 -1.819,0.164 0.517,-1.553 4.363,-2.703 4.304,0.908 4.029,-0.26 2.317,-1.071 0,0"
             style="fill:#cba569;fill-opacity:1;fill-rule:nonzero;stroke:none"
             id="path59167"
             inkscape:connector-curvature="0" />
        </g>
        <g
           id="g59169"
           transform="translate(332.6375,525.0982)">
          <path
             d="m 0,0 c -0.896,0.207 -2.097,0.206 -2.097,0.206 1.141,2.552 5.699,3.672 5.699,3.672 0,0 -3.505,0.373 -7.014,-1.103 C -3.439,2.699 -3.465,2.616 -3.493,2.539 -3.837,1.333 -4.526,-1.152 -4.948,-2.332 -4.98,-2.459 -5.013,-2.584 -5.047,-2.713 c 0,0 -0.673,-1.455 -1.354,-0.502 -0.587,0.452 -1.085,1.028 -1.504,1.636 -1.731,-1.11 -5.496,-4.11 -6.918,-9.872 0.022,0.017 0.042,0.027 0.059,0.028 1.117,1.001 2.424,1.999 3.217,2.018 0,0 -5.512,-6.18 -4.062,-12.215 0,0 0.641,3.755 2.461,4.916 0,0 -1.877,-8.378 0.671,-11.661 l 0.018,0.085 c -0.122,0.63 -0.469,3.151 1.209,5.542 0,0 -0.838,-5.415 1.543,-9.469 0.923,-1.522 2.324,-2.835 4.435,-3.55 0.117,-0.025 0.231,-0.051 0.33,-0.081 -5.515,2.824 -5.887,14.902 -2.058,20.809 0,0 -2.684,-1.23 -3.131,-3.799 0.002,5.364 2.572,8.604 2.572,8.604 -2.794,-1.676 -3.242,-3.016 -3.242,-3.016 C -10.35,-4.524 0,0 0,0"
             style="fill:#cba569;fill-opacity:1;fill-rule:nonzero;stroke:none"
             id="path59171"
             inkscape:connector-curvature="0" />
        </g>
      </g>
    </g>
  </g>
</svg>
