<svg xmlns="http://www.w3.org/2000/svg" viewBox="0 0 200 169" width="200" height="169">
	<style>
		tspan { white-space:pre }
		.shp0 { fill: #b3b5b8 } 
		.shp1 { fill: #282423 } 
		.shp2 { fill: #900027 } 
		.shp3 { fill: #fbfcfc } 
	</style>
	<g >
		<path class="shp0" d="M141.88 0.38C141.29 0.46 140.2 0.7 139.46 0.9C138.73 1.11 137.52 1.51 136.79 1.8C136.05 2.1 134.68 2.74 133.75 3.24C132.82 3.73 131.17 4.72 130.09 5.43C129.01 6.13 127.32 7.34 126.34 8.11C125.36 8.87 123.76 10.19 122.78 11.03C121.81 11.88 119.93 13.61 118.6 14.89C117.28 16.16 115.06 18.45 113.66 19.97L111.11 22.73L107.05 23.01C104.56 20.58 103 19.15 101.96 18.26C100.93 17.38 99.49 16.17 98.75 15.58C98.01 14.98 96.49 13.81 95.36 12.98C94.23 12.14 92.3 10.8 91.07 9.99C89.84 9.18 87.75 7.91 86.43 7.16C85.1 6.42 82.89 5.29 81.52 4.67C80.14 4.04 77.85 3.14 76.43 2.67C75 2.2 73.08 1.65 72.14 1.45C71.21 1.26 69.64 1 68.66 0.89C67.68 0.78 66.55 0.74 66.16 0.81C65.77 0.88 65.04 1.09 64.55 1.28C64.06 1.48 63.02 2.06 62.23 2.58C61.45 3.1 59.97 4.31 58.95 5.28C57.92 6.25 56.25 8.04 55.22 9.27C54.19 10.5 52.68 12.5 51.87 13.73C51.05 14.95 49.98 16.76 49.49 17.74C48.99 18.72 48.37 20.16 48.11 20.95C47.76 21.98 47.6 22.87 47.54 24.16C47.47 25.56 47.52 26.16 47.78 27.01C47.96 27.6 48.11 28.13 48.12 28.19C48.12 28.25 47.68 28.64 47.14 29.06C46.6 29.48 45.68 30.28 45.09 30.85C44.19 31.72 43.59 32.07 41.34 33.1C39.87 33.78 37.7 34.87 36.52 35.54C35.34 36.21 33.49 37.35 32.41 38.07C31.33 38.79 29.77 39.93 28.93 40.59C28.1 41.26 26.71 42.49 25.83 43.32C24.95 44.15 23.56 45.68 22.73 46.71C21.9 47.74 20.77 49.3 20.22 50.18C19.67 51.07 18.89 52.51 18.47 53.39C18.06 54.27 17.42 55.92 17.06 57.05C16.69 58.2 16.35 59.64 16.3 60.34C16.24 61.06 16.28 61.86 16.4 62.22C16.51 62.56 16.82 63.07 17.09 63.35L17.59 63.86C17.24 65.83 17.16 67.06 17.19 67.85L17.23 69.3C15.02 71.62 13.86 73.06 13.24 73.99C12.61 74.92 11.72 76.44 11.25 77.37C10.78 78.3 10.12 79.82 9.77 80.76C9.42 81.69 7.45 87.3 5.39 93.24C3.33 99.17 1.43 104.7 1.18 105.54C0.92 106.37 0.6 107.67 0.45 108.43C0.3 109.19 0.18 110.68 0.18 111.73C0.18 113.06 0.28 114.08 0.53 115.07C0.73 115.86 1.17 117.06 1.51 117.75C1.85 118.43 2.56 119.56 3.09 120.24C3.61 120.93 4.6 121.96 5.28 122.53C6.03 123.16 7.22 123.91 8.3 124.43C9.29 124.9 10.57 125.41 11.16 125.56C11.75 125.72 13 125.94 13.93 126.05C14.88 126.17 16.49 126.21 17.59 126.16C18.67 126.1 22.61 125.73 26.34 125.33C30.07 124.93 33.57 124.52 34.11 124.42C34.65 124.31 35.85 124.03 36.79 123.78C37.72 123.53 39.21 123 40.09 122.61L41.7 121.89C66.37 119.19 70.3 118.82 70.4 118.97C70.48 119.08 70.78 119.94 71.08 120.87C71.37 121.8 71.81 123.52 72.05 124.7C72.29 125.88 72.58 127.84 72.69 129.07C72.82 130.37 72.86 132.38 72.8 133.88C72.74 135.3 72.57 137.35 72.41 138.43C72.25 139.51 71.92 141.31 71.67 142.44C71.42 143.57 70.75 145.89 70.18 147.61C69.61 149.32 68.77 151.61 68.3 152.69C67.84 153.77 66.98 155.61 66.39 156.79C65.8 157.97 64.63 160.13 63.79 161.6C62.4 164.05 62.27 164.36 62.26 165.26C62.26 165.97 62.38 166.45 62.69 167.03C62.93 167.47 63.47 168.07 63.9 168.37C64.47 168.76 64.93 168.93 65.6 168.97C66.16 169.01 67.35 168.85 68.66 168.55C69.84 168.29 71.77 167.79 72.95 167.45C74.13 167.11 76.5 166.31 78.21 165.67C79.93 165.03 82.83 163.83 84.64 163C86.46 162.18 89.31 160.78 90.98 159.89C92.65 158.99 95.22 157.54 96.7 156.66C98.17 155.77 100.7 154.17 102.32 153.09C103.94 152.01 106.79 149.99 108.66 148.59C110.53 147.2 113.28 145.04 114.78 143.8C116.27 142.56 118.6 140.57 119.96 139.38C121.31 138.19 124.74 134.88 127.59 132.02C130.44 129.17 133.7 125.8 134.84 124.52C135.98 123.25 137.73 121.24 138.74 120.06C139.75 118.89 141.55 116.72 142.73 115.25C143.91 113.78 144.93 112.52 144.98 112.45C145.04 112.38 147.66 112.08 150.8 111.78C153.95 111.49 156.92 111.14 157.41 111.01C157.9 110.87 158.75 110.56 159.29 110.31C159.83 110.06 160.59 109.62 160.98 109.33L161.7 108.81C163.08 109.44 163.96 109.74 164.55 109.9C165.14 110.05 166.25 110.17 167.01 110.17C167.77 110.17 170.62 109.97 173.35 109.72C177.08 109.38 178.66 109.17 179.73 108.84C180.62 108.58 181.67 108.08 182.5 107.53C183.24 107.05 184.21 106.22 184.66 105.69C185.11 105.17 185.69 104.37 185.95 103.93C186.2 103.49 189.37 94.95 193 84.95C196.63 74.94 199.69 66.34 199.8 65.83C199.91 65.31 200 64.35 200 63.69C200 63.03 199.88 62 199.73 61.41C199.58 60.83 199.2 59.82 198.9 59.19C198.5 58.38 197.9 57.59 196.89 56.58C195.81 55.5 195.13 54.98 194.17 54.53C192.92 53.94 192.89 53.91 192.59 52.95C192.42 52.41 191.98 51.32 191.6 50.54C191.23 49.76 190.5 48.47 189.99 47.69C189.48 46.9 188.57 45.66 187.98 44.92C187.38 44.19 186.08 42.78 185.1 41.8C184.11 40.82 182.41 39.31 181.34 38.45C180.26 37.58 178.22 36.1 176.81 35.15L174.24 33.43C172.92 30.8 172.06 29.32 171.47 28.43C170.88 27.55 169.58 25.89 168.59 24.73L166.79 22.64C167.28 21.38 167.38 20.55 167.4 19.43C167.41 18.12 167.32 17.48 167.02 16.58C166.8 15.94 166.2 14.78 165.7 13.99C165.19 13.21 164.08 11.86 163.24 10.99C162.39 10.12 161.13 8.95 160.45 8.38C159.76 7.82 158.19 6.67 156.96 5.84C155.74 5 153.49 3.62 151.96 2.78C150.44 1.93 148.71 1.09 148.13 0.89C147.54 0.7 146.53 0.46 145.89 0.36C145.25 0.26 144.33 0.19 143.84 0.2C143.35 0.21 142.46 0.29 141.88 0.38Z" />
		<path class="shp1" d="M141.34 4.22C140.65 4.37 139.41 4.75 138.57 5.07C137.74 5.39 136.61 5.88 136.07 6.15C135.53 6.42 134.37 7.09 133.48 7.63C132.6 8.17 130.83 9.39 129.55 10.35C128.28 11.3 126.43 12.77 125.45 13.63C124.46 14.48 122.3 16.52 120.64 18.15C118.98 19.79 116.85 21.97 115.91 23C114.97 24.03 113.9 25.22 113.53 25.63L112.86 26.38L105.63 26.77C103.13 24.3 101.65 22.91 100.71 22.09C99.78 21.26 98.17 19.9 97.14 19.06C96.11 18.22 94.46 16.93 93.48 16.2C92.5 15.46 90.73 14.22 89.55 13.43C88.38 12.65 86.69 11.58 85.8 11.06C84.92 10.54 83.11 9.58 81.79 8.91C80.46 8.25 78.41 7.33 77.23 6.87C76.05 6.4 74.04 5.76 72.77 5.43C71.49 5.11 69.82 4.76 69.06 4.65C68.3 4.54 67.4 4.46 67.05 4.46C66.71 4.46 66.01 4.66 65.49 4.92C64.98 5.17 64.11 5.71 63.58 6.12C63.04 6.53 61.79 7.67 60.81 8.65C59.82 9.63 58.31 11.31 57.45 12.39C56.58 13.47 55.44 14.99 54.91 15.78C54.38 16.56 53.55 17.97 53.05 18.9C52.56 19.83 51.96 21.15 51.73 21.84C51.49 22.52 51.24 23.53 51.17 24.07C51.09 24.63 51.12 25.35 51.23 25.76C51.33 26.15 51.64 26.69 51.91 26.95C52.19 27.22 52.71 27.56 53.08 27.71C53.45 27.86 54.07 27.99 54.46 27.99C54.86 27.99 55.18 28.07 55.18 28.17C55.18 28.26 54.52 28.7 53.71 29.13C52.9 29.56 51.55 30.4 50.71 31C49.88 31.59 48.47 32.76 47.59 33.58C46.25 34.83 45.71 35.2 44.38 35.78C43.49 36.16 41.6 37.08 40.18 37.81C38.75 38.55 36.83 39.63 35.89 40.21C34.96 40.78 33.39 41.86 32.41 42.59C31.43 43.32 29.46 45.09 28.04 46.52C26.61 47.94 24.99 49.76 24.43 50.54C23.87 51.32 22.97 52.81 22.43 53.84C21.9 54.87 21.28 56.15 21.07 56.69C20.86 57.23 20.49 58.39 20.26 59.27C19.93 60.5 19.88 60.91 20.05 61C20.17 61.07 20.73 61.17 21.29 61.23C21.86 61.28 22.32 61.39 22.33 61.46C22.33 61.53 22.12 62.07 21.86 62.66C21.6 63.25 21.15 64.65 20.86 65.78C20.49 67.21 20.31 68.42 20.26 69.75L20.18 71.66C18.31 73.53 17.39 74.55 16.94 75.14C16.49 75.73 15.75 76.85 15.3 77.64C14.84 78.42 14.16 79.82 13.77 80.76C13.38 81.69 11.18 87.86 8.88 94.48C6.57 101.1 4.52 107.24 4.32 108.12C4.11 109 3.89 110.21 3.83 110.79C3.76 111.38 3.8 112.47 3.91 113.2C4.05 114.08 4.37 115.06 4.84 116.05C5.43 117.27 5.85 117.85 7.03 119.01C8.11 120.09 8.82 120.62 9.82 121.1C10.56 121.46 11.64 121.88 12.23 122.04C12.82 122.19 14.35 122.36 15.63 122.41C17.56 122.49 19.09 122.39 24.91 121.77C28.74 121.36 32.44 120.94 33.13 120.84C33.81 120.73 35.06 120.45 35.89 120.21C36.73 119.98 38.17 119.43 39.11 119L40.8 118.22C65.58 115.57 72.78 114.83 72.79 114.85C72.81 114.88 73.04 115.42 73.31 116.05C73.58 116.69 74.07 118.01 74.41 119C74.74 119.98 75.21 121.58 75.44 122.56C75.68 123.54 76 125.19 76.15 126.22C76.31 127.24 76.49 129.33 76.55 130.85C76.61 132.51 76.57 134.58 76.44 136.02C76.32 137.34 76.07 139.31 75.88 140.39C75.69 141.47 75.33 143.19 75.08 144.22C74.83 145.25 74.25 147.22 73.8 148.59C73.35 149.96 72.59 152.05 72.1 153.22C71.62 154.4 70.63 156.57 69.9 158.04C69.18 159.51 67.98 161.73 67.24 162.98C66.09 164.93 65.94 165.26 66.25 165.26C66.45 165.26 67.47 165.05 68.53 164.81C69.58 164.56 71.61 163.99 73.04 163.54C74.46 163.1 77.07 162.16 78.84 161.46C80.61 160.76 84.1 159.17 86.61 157.92C89.11 156.67 92.53 154.84 94.2 153.85C95.87 152.85 98.6 151.13 100.27 150.02C101.94 148.91 104.47 147.14 105.89 146.08C107.32 145.03 109.68 143.19 111.15 142.01C112.62 140.82 115.15 138.69 116.78 137.27C118.4 135.86 121.99 132.45 124.75 129.7C127.51 126.95 130.92 123.42 132.32 121.85C133.73 120.28 136.05 117.59 137.49 115.88C138.93 114.16 140.86 111.78 141.79 110.58L143.48 108.4C144.87 108.55 147.56 108.39 150.36 108.14C153.16 107.88 155.79 107.59 156.21 107.5C156.62 107.4 157.37 107.12 157.86 106.87C158.35 106.63 159.09 106.12 159.51 105.74C159.93 105.36 160.46 104.7 160.7 104.27L161.12 103.49C162.3 104.73 163.03 105.31 163.51 105.57C163.98 105.84 164.96 106.18 165.67 106.33C166.9 106.59 167.25 106.58 172.54 106.08C176.38 105.73 178.38 105.47 178.93 105.25C179.37 105.08 180.01 104.76 180.36 104.54C180.7 104.32 181.32 103.8 181.73 103.37C182.14 102.94 182.63 102.27 182.83 101.88C183.03 101.49 186.11 93.15 189.68 83.34L196.16 65.51C196.16 62.14 196.11 61.85 195.67 61.01C195.4 60.5 194.84 59.71 194.42 59.26C194 58.81 193.15 58.18 192.5 57.86C191.86 57.54 191.02 57.22 190.63 57.16L189.91 57.03C189.29 54.62 188.66 53.01 188.09 51.88C187.53 50.75 186.5 49.06 185.79 48.13C185.08 47.2 183.47 45.44 182.21 44.21C180.94 42.98 178.95 41.25 177.77 40.37C176.59 39.49 174.66 38.15 173.48 37.4L171.34 36.03C170.23 33.6 169.48 32.21 168.96 31.38C168.43 30.54 167.5 29.22 166.88 28.43C166.26 27.65 164.91 26.13 163.88 25.05L162 23.09C162.92 21.98 163.32 21.36 163.47 20.99C163.62 20.62 163.75 19.88 163.75 19.34C163.75 18.76 163.6 17.98 163.37 17.43C163.17 16.91 162.75 16.13 162.45 15.69C162.15 15.25 161.33 14.3 160.64 13.58C159.94 12.85 158.69 11.72 157.86 11.06C157.02 10.4 155.62 9.38 154.73 8.79C153.85 8.2 152.4 7.3 151.52 6.78C150.63 6.26 149.23 5.5 148.39 5.08C147.56 4.66 146.45 4.23 145.94 4.12C145.42 4.01 144.46 3.93 143.79 3.94C143.13 3.94 142.03 4.07 141.34 4.22Z" />
		<path class="shp2" d="M141.61 9.19C141.07 9.35 140.06 9.71 139.38 10.01C138.69 10.3 137.4 10.97 136.52 11.49C135.63 12.01 134.11 13.03 133.13 13.76C132.14 14.49 130.5 15.81 129.46 16.7C128.43 17.59 126.34 19.59 124.82 21.15C123.3 22.71 120.98 25.27 119.66 26.83C118.35 28.4 116.13 31.21 114.72 33.07L112.17 36.46C111.31 40.05 111.02 41.23 110.98 41.4C110.91 41.66 111.01 41.72 111.61 41.72C112.25 41.72 112.58 41.51 114.87 39.7C116.27 38.59 118.21 37.08 119.2 36.34C120.18 35.6 122.19 34.16 123.66 33.12C125.13 32.09 127.48 30.51 128.88 29.62C130.28 28.72 132.61 27.29 134.06 26.45C135.51 25.6 138.02 24.24 139.64 23.43C141.26 22.61 143.27 21.65 144.11 21.3C144.94 20.94 146.47 20.33 147.5 19.94C148.53 19.55 150.3 18.97 151.43 18.64C152.56 18.32 154.22 17.9 155.12 17.71L156.76 17.38C155.89 16.28 155.03 15.32 154.29 14.55C153.55 13.77 152.3 12.66 151.52 12.08C150.73 11.49 149.57 10.75 148.93 10.43C148.29 10.11 147.21 9.67 146.52 9.46C145.83 9.25 144.67 9.04 143.93 8.99C143.03 8.94 142.27 9 141.61 9.19ZM66.57 10.92C65.72 11.53 64.28 12.67 63.38 13.46C62.47 14.24 61.22 15.53 60.6 16.31C59.97 17.1 59.22 18.22 58.93 18.81C58.63 19.4 58.3 20.4 58.2 21.04C58.09 21.67 58.05 22.29 58.11 22.42C58.18 22.58 58.81 22.64 60.31 22.64C61.47 22.64 63.29 22.72 64.38 22.82C65.46 22.92 67.22 23.12 68.3 23.27C69.38 23.42 71.27 23.75 72.5 24C73.73 24.25 75.94 24.8 77.41 25.22C78.88 25.64 81.29 26.44 82.77 27C84.24 27.56 86.81 28.68 88.48 29.49C90.15 30.29 92.32 31.42 93.3 31.99C94.29 32.57 95.93 33.6 96.96 34.29C98 34.97 99.76 36.24 100.89 37.09C102.02 37.95 103.81 39.42 104.87 40.36L106.79 42.07L106.77 36.99C105.77 35.33 105.12 34.33 104.67 33.69C104.23 33.06 103.21 31.73 102.4 30.75C101.6 29.77 99.86 27.93 98.54 26.65C97.22 25.38 95.3 23.68 94.28 22.88C93.25 22.08 91.37 20.73 90.09 19.88C88.81 19.02 86.68 17.72 85.36 16.97C84.03 16.23 81.74 15.04 80.27 14.33C78.79 13.63 76.26 12.53 74.64 11.89C73.02 11.25 71.03 10.52 70.22 10.27C69.41 10.01 68.61 9.81 68.44 9.81C68.27 9.81 67.43 10.31 66.57 10.92Z" />
		<path class="shp3" d="M159.11 28.03C159.11 29.23 158.99 30.9 158.85 31.73C158.7 32.57 158.38 33.97 158.12 34.85C157.86 35.73 157.35 37.1 156.99 37.88C156.62 38.67 155.99 39.79 155.59 40.38C155.2 40.97 154.43 41.89 153.89 42.43C153.35 42.97 152.42 43.69 151.82 44.03C151.22 44.38 150.72 44.72 150.72 44.79C150.72 44.86 150.83 44.92 150.98 44.92C151.13 44.92 152.8 45.25 154.69 45.66C156.58 46.06 160.17 46.9 162.68 47.52C165.18 48.14 167.25 48.64 167.27 48.62C167.28 48.6 167.42 48.1 167.58 47.51C167.73 46.92 167.86 45.82 167.86 45.06C167.86 44.3 167.73 43.05 167.58 42.29C167.42 41.53 167.06 40.19 166.77 39.31C166.47 38.43 165.73 36.66 165.11 35.39C164.49 34.11 163.52 32.31 162.95 31.38C162.39 30.44 161.34 28.82 160.63 27.77C159.92 26.71 159.29 25.85 159.22 25.85C159.16 25.85 159.11 26.83 159.11 28.03Z" />
		<path class="shp2" d="M149.16 27.56C148.88 27.69 147.96 28.12 147.1 28.51C146.14 28.96 145.56 29.32 145.61 29.46C145.65 29.58 146 30.44 146.39 31.38C146.77 32.31 147.26 33.71 147.46 34.5C147.67 35.28 147.92 36.54 148.03 37.3C148.13 38.06 148.21 39.17 148.21 39.75C148.21 40.76 148.23 40.81 148.57 40.65C148.77 40.55 149.33 40.05 149.83 39.53C150.32 39.02 151.21 37.91 151.8 37.08C152.39 36.25 152.92 35.4 152.97 35.21C153.03 35.01 152.82 33.95 152.52 32.85C152.21 31.74 151.75 30.42 151.49 29.9C151.23 29.39 150.71 28.6 150.33 28.15C149.68 27.37 149.63 27.34 149.16 27.56ZM65.89 30.15C65.37 30.68 64.65 31.63 64.28 32.27C63.91 32.9 63.34 34.07 63.03 34.85C62.72 35.64 62.31 36.84 62.14 37.53C61.96 38.21 61.72 39.62 61.6 40.65C61.47 41.73 61.43 43.19 61.5 44.12C61.56 45 61.69 46.23 61.79 46.84C61.95 47.89 61.99 47.95 62.46 47.96C62.73 47.96 64.33 47.7 66.03 47.38C67.72 47.06 69.11 46.72 69.11 46.62C69.11 46.52 68.73 45.56 68.28 44.48C67.82 43.4 67.26 41.76 67.02 40.82C66.65 39.39 66.59 38.84 66.66 37.26C66.72 36.01 66.87 35.03 67.12 34.32C67.32 33.73 67.82 32.75 68.21 32.13C68.61 31.52 69.23 30.7 69.6 30.3C69.97 29.91 70.23 29.55 70.18 29.5C70.13 29.45 69.35 29.36 68.46 29.3L66.82 29.19L65.89 30.15Z" />
		<path class="shp0" d="M137.41 31.27C136.72 31.49 135.44 31.98 134.55 32.34C133.67 32.71 132.16 33.41 131.21 33.89C129.65 34.67 129.49 34.8 129.68 35.07C129.8 35.25 130.22 35.79 130.61 36.28C131 36.77 131.33 37.19 131.33 37.2C131.34 37.22 132.34 36.89 133.57 36.46C134.8 36.04 136.45 35.57 137.23 35.42C138.02 35.27 139.14 35.17 139.73 35.19C140.32 35.21 141.06 35.37 141.38 35.53C141.7 35.7 142.12 36.09 142.32 36.41C142.6 36.87 142.68 36.92 142.68 36.63C142.68 36.44 142.55 35.84 142.4 35.3C142.24 34.76 141.9 33.96 141.65 33.51C141.39 33.07 140.78 32.29 140.28 31.77C139.75 31.22 139.23 30.83 139.02 30.84C138.82 30.85 138.1 31.04 137.41 31.27Z" />
		<path class="shp2" d="M57.58 32.25C56.8 32.52 55.88 32.88 55.54 33.06C55.19 33.24 54.55 33.63 54.11 33.94C53.67 34.24 52.99 34.77 52.6 35.11C52.22 35.46 51.57 36.22 51.16 36.8L50.42 37.86C46.7 39.06 44.62 39.91 43.39 40.53C42.17 41.14 40.4 42.12 39.46 42.7C38.53 43.28 36.96 44.36 35.98 45.09C35 45.83 33.27 47.35 32.14 48.48C31.01 49.61 29.6 51.24 29.01 52.1C28.43 52.95 27.99 53.7 28.04 53.75C28.08 53.8 29.29 53.15 30.71 52.29C32.14 51.44 34.35 50.24 35.63 49.62C36.9 49.01 38.91 48.19 40.09 47.8C41.27 47.4 42.91 47 43.75 46.9C44.58 46.8 45.31 46.76 45.36 46.8C45.41 46.85 45.26 47.19 45.03 47.56C44.8 47.92 44.23 49.02 43.75 50C43.28 50.99 42.64 52.59 42.33 53.57C41.98 54.7 41.86 55.31 42.01 55.23C42.13 55.16 43.24 54.66 44.46 54.1C45.69 53.55 48.18 52.51 50 51.79C51.82 51.07 54.17 50.17 55.23 49.8C56.75 49.26 57.13 49.06 57.04 48.85C56.97 48.7 56.76 48.16 56.58 47.64C56.4 47.13 56.16 46.13 56.05 45.41C55.94 44.7 55.89 43.37 55.95 42.43C56 41.5 56.18 40.09 56.34 39.31C56.5 38.52 56.91 37.04 57.25 36.01C57.6 34.98 58.16 33.62 58.5 32.98C58.84 32.34 59.09 31.81 59.06 31.79C59.02 31.78 58.36 31.98 57.58 32.25Z" />
		<path class="shp0" d="M74.91 32.69C74.68 33 74.33 33.65 74.14 34.14C73.95 34.63 73.7 35.61 73.59 36.32C73.48 37.03 73.39 38.12 73.39 38.73C73.39 39.34 73.45 40.23 73.53 40.69C73.6 41.16 73.7 41.54 73.75 41.54C73.8 41.54 73.89 41.32 73.96 41.05C74.02 40.78 74.25 40.34 74.45 40.07C74.65 39.8 75.08 39.44 75.4 39.28C75.72 39.11 76.42 38.87 76.96 38.75C77.58 38.6 78.62 38.54 79.73 38.59C80.71 38.63 82.4 38.83 83.48 39.04C85.15 39.36 85.47 39.38 85.63 39.17C85.72 39.04 86.08 38.15 86.43 37.2C86.77 36.25 87.01 35.44 86.96 35.39C86.92 35.34 85.83 34.93 84.55 34.49C83.28 34.04 81.31 33.44 80.18 33.15C79.05 32.87 77.49 32.52 76.72 32.38L75.32 32.13L74.91 32.69Z" />
		<path class="shp3" d="M136.96 35.48C136.13 35.66 134.76 36.04 133.93 36.33C133.09 36.62 132.19 36.95 131.92 37.06L131.43 37.26C131.95 38.02 132.27 38.58 132.48 39C132.69 39.41 132.86 39.99 132.86 40.29C132.86 40.58 132.78 40.86 132.68 40.91C132.58 40.96 132.32 40.92 132.1 40.81C131.88 40.7 131.17 40.05 130.54 39.35L129.38 38.09C124.19 40.62 122.68 41.42 122.68 41.49C122.68 41.57 123.42 41.65 124.33 41.68C125.24 41.7 127.15 41.81 128.57 41.9C130 42 132.33 42.2 133.75 42.35C135.17 42.5 137.3 42.74 138.48 42.88C139.66 43.03 140.83 43.19 141.07 43.24C141.47 43.32 141.55 43.24 141.83 42.48C142 42.01 142.26 41.08 142.41 40.42C142.56 39.76 142.69 38.76 142.71 38.19C142.74 37.44 142.65 37 142.39 36.55C142.19 36.2 141.75 35.76 141.42 35.57C141.01 35.34 140.42 35.21 139.64 35.19C139 35.17 137.8 35.3 136.96 35.48Z" />
		<path class="shp0" d="M126.88 36.27C126.68 36.39 125.43 37.2 124.11 38.06C122.78 38.91 121.14 40.03 120.45 40.53L119.21 41.45C122.25 41.61 122.64 41.57 122.86 41.36C123.01 41.21 124.47 40.45 126.11 39.67C127.76 38.88 129.1 38.18 129.1 38.11C129.11 38.03 128.73 37.53 128.26 36.98C127.79 36.44 127.37 36 127.32 36.01C127.27 36.02 127.07 36.14 126.88 36.27ZM88.56 38.15C88.12 39.13 87.81 39.97 87.86 40C87.91 40.04 88.79 40.33 89.82 40.65C90.85 40.96 92.78 41.62 94.11 42.11C95.43 42.59 96.6 43.06 96.7 43.15C96.81 43.25 97.57 43.24 98.66 43.11C99.64 43 100.57 42.85 100.71 42.78C100.9 42.69 100.26 42.21 98.57 41.17C97.25 40.35 94.67 38.93 92.86 38.02C91.04 37.1 89.51 36.36 89.45 36.36C89.4 36.36 88.99 37.17 88.56 38.15Z" />
		<path class="shp2" d="M130.36 37.67C129.92 37.88 129.51 38.07 129.46 38.09C129.42 38.12 129.86 38.67 130.45 39.32C131.04 39.98 131.74 40.62 132.01 40.76C132.28 40.89 132.58 40.96 132.68 40.91C132.78 40.86 132.86 40.58 132.86 40.29C132.86 39.99 132.69 39.41 132.48 39C132.27 38.58 131.95 38.02 131.76 37.75C131.58 37.48 131.37 37.26 131.29 37.27C131.22 37.28 130.8 37.45 130.36 37.67Z" />
		<path class="shp3" d="M76.88 38.76C76.38 38.88 75.72 39.11 75.4 39.28C75.08 39.44 74.65 39.8 74.45 40.07C74.25 40.34 74.02 40.78 73.96 41.05C73.89 41.32 73.8 41.54 73.75 41.54C73.7 41.54 73.85 42.64 74.07 43.99C74.3 45.34 74.52 46.48 74.57 46.53C74.62 46.58 75.24 46.51 75.95 46.38C76.65 46.25 79.24 45.84 81.7 45.45C84.15 45.07 88.29 44.47 90.89 44.12C93.5 43.78 95.91 43.45 96.25 43.4C96.64 43.34 96.81 43.24 96.7 43.14C96.6 43.06 95.59 42.64 94.46 42.23C93.33 41.81 91.35 41.15 90.06 40.75L87.71 40.02C86.53 42.57 86.37 42.78 86.03 42.74C85.81 42.72 85.53 42.5 85.4 42.25C85.25 41.98 85.2 41.5 85.26 41C85.31 40.56 85.4 40.04 85.46 39.84C85.55 39.52 85.39 39.45 83.45 39.07C82.29 38.83 80.54 38.62 79.55 38.59C78.53 38.56 77.38 38.63 76.88 38.76Z" />
		<path class="shp2" d="M85.36 40.32C85.24 40.74 85.19 41.37 85.25 41.72C85.31 42.06 85.46 42.44 85.58 42.57C85.7 42.7 85.94 42.8 86.12 42.79C86.33 42.79 86.63 42.36 87.03 41.49L87.64 40.2C86.91 39.89 86.44 39.74 86.14 39.67C85.6 39.56 85.57 39.58 85.36 40.32Z" />
		<path class="shp0" d="M170.01 42.2C170.01 42.28 171.16 43.5 172.56 44.92C173.97 46.35 175.54 48.11 176.05 48.85C176.56 49.58 177.1 50.58 177.25 51.07C177.49 51.83 177.5 52.04 177.29 52.47C177.16 52.74 176.77 53.09 176.43 53.25C176 53.45 175.32 53.53 174.29 53.53C173.45 53.52 172.04 53.38 171.16 53.22C170.28 53.06 167.63 52.45 165.27 51.86C162.91 51.27 159.74 50.51 158.21 50.17C156.69 49.83 153.92 49.27 152.05 48.92C150.19 48.58 146.73 48.02 144.38 47.69C142.02 47.35 138.44 46.92 136.43 46.72C134.42 46.52 131.64 46.28 130.27 46.18C128.89 46.08 125.36 45.91 122.41 45.8C119.46 45.69 115.04 45.65 112.59 45.72C110.13 45.78 106.64 45.91 104.82 46.01C103 46.11 99.75 46.35 97.59 46.54C95.43 46.74 92.09 47.1 90.18 47.35C88.26 47.59 85.69 47.95 84.46 48.15C83.24 48.34 80.91 48.75 79.29 49.05C77.67 49.35 74.57 49.98 72.41 50.46C70.25 50.94 66.96 51.74 65.09 52.24C63.22 52.74 60.37 53.55 58.75 54.04C57.13 54.53 54.84 55.26 53.66 55.66C52.48 56.05 49.87 56.97 47.86 57.7C45.84 58.43 43.23 59.31 42.05 59.65C40.88 59.99 39.19 60.4 38.3 60.55C37.38 60.71 36.34 60.78 35.85 60.72C35.36 60.66 34.85 60.46 34.64 60.26C34.45 60.06 34.28 59.68 34.28 59.41C34.28 59.14 34.52 58.44 34.81 57.85C35.11 57.26 35.81 56.21 36.38 55.51C36.95 54.81 37.75 53.83 38.17 53.32C38.59 52.82 38.87 52.41 38.79 52.4C38.72 52.4 37.78 53.15 36.7 54.06C35.62 54.98 33.98 56.45 33.06 57.32C32.13 58.2 30.67 59.8 29.8 60.88C28.87 62.03 27.87 63.53 27.37 64.51C26.6 66.01 26.52 66.3 26.52 67.37C26.52 68.36 26.6 68.69 26.98 69.27C27.24 69.66 27.83 70.18 28.32 70.46C28.8 70.72 29.82 71.06 30.58 71.21C31.34 71.36 32.69 71.49 33.57 71.49C34.46 71.49 36.08 71.37 37.19 71.22C38.29 71.07 40 70.76 40.98 70.51C41.96 70.27 46.42 68.88 50.89 67.41C55.36 65.95 60.75 64.22 62.86 63.58C64.97 62.94 68.26 61.97 70.18 61.43C72.09 60.89 75.63 59.97 78.04 59.38C80.44 58.79 83.66 58.07 85.18 57.78C86.7 57.48 89.07 57.08 90.45 56.89C91.82 56.69 94.11 56.43 95.54 56.32C97.03 56.2 99.07 56.16 100.36 56.23C101.58 56.29 102.87 56.41 103.21 56.49C103.81 56.63 103.82 56.64 103.39 56.75C103.15 56.81 100.82 57.38 98.21 58.01C95.61 58.65 91.79 59.65 89.73 60.23C87.67 60.82 84.78 61.72 83.3 62.22C81.83 62.73 80.54 63.22 80.45 63.32C80.33 63.44 81.3 63.46 83.39 63.38C85.11 63.32 88.73 63.19 91.43 63.1C94.13 63 100.6 62.97 105.8 63.02C111.01 63.07 115.95 63.15 116.79 63.2C117.62 63.25 119.55 63.37 121.07 63.47C123.7 63.64 124.33 63.6 133.74 62.8C139.18 62.33 143.64 61.88 143.65 61.79C143.66 61.71 143.06 61.4 142.32 61.12C141.58 60.83 138.97 59.92 136.52 59.1C134.06 58.28 130.85 57.27 129.38 56.86C127.9 56.44 126.66 56.08 126.61 56.04C126.56 56.01 126.56 55.94 126.61 55.89C126.66 55.84 127.46 55.72 128.39 55.63C129.45 55.53 131.03 55.53 132.59 55.63C133.96 55.73 136.21 55.97 137.59 56.17C138.96 56.37 141.7 56.85 143.66 57.25C145.63 57.64 149.44 58.53 152.14 59.22C154.84 59.91 157.98 60.7 159.11 60.98C160.24 61.25 162.41 61.84 163.93 62.28C165.45 62.71 167.74 63.28 169.02 63.53C170.29 63.78 172.02 64.07 172.86 64.17C173.69 64.27 175.14 64.35 176.07 64.35C177 64.35 178.33 64.23 179.02 64.08C179.71 63.94 180.67 63.63 181.16 63.39C181.65 63.16 182.36 62.62 182.73 62.19C183.11 61.76 183.52 61.02 183.67 60.52C183.81 60.03 183.93 59.27 183.93 58.83C183.93 58.39 183.77 57.39 183.57 56.6C183.37 55.82 182.81 54.37 182.32 53.39C181.84 52.41 180.87 50.85 180.17 49.92C179.47 48.98 178.32 47.63 177.62 46.92C176.92 46.2 175.7 45.12 174.91 44.53C174.13 43.93 172.92 43.18 172.23 42.86C171.54 42.54 170.76 42.23 170.5 42.17C170.23 42.11 170.01 42.13 170.01 42.2Z" />
		<path class="shp2" d="M100.27 56.53C99.88 56.61 98.15 56.89 96.43 57.14C94.71 57.4 91.9 57.88 90.18 58.22C88.46 58.56 85.61 59.2 83.84 59.65C82.07 60.09 79.42 60.8 77.95 61.24C76.47 61.67 73.74 62.54 71.88 63.17C70.01 63.81 67.24 64.8 65.71 65.39C64.19 65.98 62.6 66.61 62.18 66.79C61.57 67.05 61.35 67.27 61.13 67.83C60.98 68.22 60.88 68.63 60.92 68.73C60.96 68.85 71.16 68.05 90.98 66.38C107.48 64.98 121.16 63.83 121.38 63.83C121.6 63.82 121.79 63.74 121.79 63.64C121.79 63.54 121 63.43 119.96 63.38C118.95 63.33 117.48 63.25 116.7 63.2C115.91 63.15 111.01 63.07 105.8 63.02C100.6 62.97 94.13 63 91.43 63.1C88.73 63.19 85.11 63.32 83.39 63.38C81.3 63.46 80.33 63.44 80.45 63.32C80.54 63.22 81.83 62.73 83.3 62.22C84.78 61.72 87.67 60.82 89.73 60.23C91.79 59.65 95.61 58.65 98.21 58.01C100.82 57.38 103.15 56.81 103.39 56.74C103.84 56.63 103.84 56.63 103.3 56.5C103.01 56.43 102.37 56.38 101.88 56.38C101.38 56.38 100.66 56.44 100.27 56.53Z" />
		<path class="shp3" d="M160.41 66.38C159.22 66.49 158.16 66.66 158.06 66.76C157.97 66.86 155.47 73.64 152.5 81.83C149.54 90.01 146.7 97.81 146.19 99.16C145.68 100.51 145.31 101.65 145.36 101.69C145.41 101.73 147.46 101.57 149.91 101.34C152.37 101.1 154.39 100.89 154.41 100.86C154.43 100.83 155.56 97.75 156.91 94.01C158.27 90.28 159.42 87.18 159.46 87.13C159.51 87.09 162.37 86.8 165.8 86.49C169.24 86.18 172.07 85.97 172.1 86.02C172.12 86.07 171.05 89.13 169.72 92.83C168.39 96.54 167.35 99.6 167.41 99.65C167.48 99.7 169.51 99.56 171.93 99.33C174.36 99.1 176.35 98.9 176.36 98.88C176.38 98.87 178.93 91.85 182.03 83.3C185.14 74.74 187.68 67.62 187.68 67.48C187.68 67.28 187.49 67.36 187.01 67.73C186.64 68.02 185.9 68.46 185.36 68.69C184.82 68.93 183.89 69.23 183.3 69.35C182.71 69.47 181.31 69.59 180.18 69.61L178.13 69.65C175.72 76.25 175 78.22 174.97 78.28C174.94 78.34 172.06 78.65 168.57 78.96C165.08 79.27 162.22 79.5 162.22 79.47C162.21 79.44 163.19 76.7 164.41 73.37C165.62 70.05 166.56 67.28 166.5 67.22C166.44 67.17 165.69 66.9 164.85 66.63C164 66.36 163.14 66.15 162.95 66.16C162.75 66.18 161.61 66.28 160.41 66.38ZM139.55 67.84C135.13 68.28 131.47 68.69 131.4 68.77C131.34 68.84 129.26 74.4 126.78 81.11C124.3 87.83 122.17 93.63 122.03 93.99L121.79 94.66C124.21 94.5 125.75 94.36 126.77 94.24L128.64 94.04C131.23 86.99 132.04 84.88 132.11 84.81C132.18 84.73 134.66 84.43 137.63 84.14C141.47 83.76 143.36 83.5 144.15 83.24C144.77 83.03 145.71 82.6 146.25 82.27C146.79 81.95 147.64 81.25 148.14 80.73C148.64 80.2 149.17 79.54 149.33 79.24C149.48 78.95 150.23 77.02 151 74.96C151.91 72.49 152.41 70.89 152.46 70.24C152.52 69.43 152.46 69.15 152.11 68.63C151.87 68.29 151.36 67.83 150.98 67.61C150.49 67.34 149.86 67.19 148.93 67.13C148.06 67.08 144.77 67.33 139.55 67.84ZM111.73 70.58C109.62 70.79 108.86 70.93 108.75 71.13C108.67 71.28 106.95 75.89 104.93 81.38C102.9 86.87 101.15 91.8 101.04 92.34C100.92 92.91 100.9 93.63 100.97 94.04C101.06 94.48 101.32 94.95 101.67 95.29C101.99 95.59 102.6 95.92 103.08 96.05C103.55 96.17 104.51 96.27 105.22 96.27C105.94 96.27 109.49 95.98 113.13 95.64C116.76 95.29 119.75 94.99 119.76 94.97C119.78 94.95 120.24 93.77 120.79 92.34C121.33 90.92 121.78 89.66 121.78 89.54C121.78 89.38 121.58 89.34 121.12 89.41C120.75 89.46 117.92 89.74 114.82 90.03C109.81 90.49 109.15 90.52 108.79 90.29C108.57 90.14 108.39 90.01 108.39 89.98C108.39 89.96 110.02 85.51 112.01 80.09L115.63 70.25C114.79 70.28 113.28 70.42 111.73 70.58ZM52.23 71.43C52.04 71.48 50.99 71.86 49.91 72.28C48.83 72.71 46.98 73.37 45.8 73.77C44.63 74.17 42.66 74.78 41.43 75.14C40.2 75.49 38.03 76.02 36.61 76.3C35.18 76.59 33.25 76.92 32.32 77.04C31.39 77.15 29.5 77.26 28.13 77.26C26.6 77.27 25.36 77.19 24.96 77.05C24.38 76.86 24.22 76.88 23.81 77.15C23.55 77.32 22.96 77.94 22.49 78.53C22.03 79.12 21.37 80.08 21.02 80.67C20.67 81.26 20.11 82.42 19.77 83.25C19.43 84.09 17.41 89.76 15.29 95.86C13.16 101.97 11.23 107.66 10.98 108.52C10.73 109.38 10.48 110.48 10.42 110.97C10.37 111.46 10.4 112.19 10.5 112.58C10.61 112.97 11.04 113.69 11.48 114.18C11.98 114.76 12.6 115.22 13.23 115.5C13.94 115.81 14.64 115.94 15.89 116C17.14 116.07 19.4 115.9 24.46 115.35C28.25 114.95 31.82 114.53 32.41 114.44C33 114.34 34 114.09 34.64 113.89C35.28 113.69 36.21 113.32 36.7 113.07C37.19 112.83 38.07 112.28 38.66 111.87C39.25 111.45 40.29 110.52 40.97 109.79C41.66 109.07 42.5 108.04 42.85 107.5C43.2 106.96 43.7 105.99 43.97 105.36C44.23 104.72 45.9 100.39 47.67 95.73C49.44 91.07 50.87 87.25 50.85 87.23C50.82 87.21 46.75 87.69 41.79 88.3L32.77 89.41C30.77 94.79 30.21 96.37 30.23 96.39C30.25 96.4 31.92 96.27 33.93 96.08C35.94 95.9 37.61 95.76 37.64 95.78C37.66 95.8 37.07 97.59 36.33 99.74C35.59 101.9 34.83 103.9 34.65 104.2C34.47 104.49 34.14 104.86 33.9 105.02C33.67 105.17 33.2 105.4 32.86 105.51C32.51 105.63 30.42 105.93 28.21 106.17C26 106.41 23.83 106.61 23.39 106.61C22.95 106.61 22.41 106.49 22.19 106.34C21.92 106.16 21.79 105.89 21.79 105.54C21.79 105.24 23.4 100.37 25.37 94.71C27.34 89.04 29.15 84.11 29.39 83.74C29.63 83.37 30.08 82.96 30.4 82.82C30.73 82.68 34.98 82.15 40.36 81.57C45.51 81.02 49.78 80.51 49.84 80.44C49.9 80.37 50.61 78.39 51.43 76.03C52.24 73.68 52.92 71.65 52.93 71.53C52.95 71.41 52.87 71.32 52.77 71.33C52.67 71.34 52.43 71.39 52.23 71.43ZM96.52 72.01C92.55 72.4 89.29 72.81 88.66 72.99C88.07 73.17 87.23 73.49 86.79 73.71C86.34 73.94 85.58 74.43 85.09 74.82C84.6 75.2 83.81 76.08 83.35 76.76C82.63 77.8 82.01 79.31 79.45 86.19C77.21 92.23 76.38 94.68 76.31 95.46C76.23 96.39 76.27 96.62 76.64 97.16C76.87 97.5 77.38 97.94 77.77 98.13C78.28 98.38 78.95 98.5 80.18 98.55C81.25 98.59 84.33 98.37 88.57 97.96C92.25 97.61 95.31 97.27 95.36 97.22C95.41 97.16 95.9 95.9 96.45 94.42C97 92.93 97.44 91.71 97.43 91.69C97.42 91.67 94.6 91.93 91.16 92.25C87.72 92.58 84.75 92.78 84.55 92.71C84.36 92.64 84.14 92.46 84.08 92.33C84.02 92.19 84.19 91.43 84.47 90.65C84.74 89.87 85.04 89.02 85.14 88.78L85.31 88.33C96.07 87.31 99.2 86.99 99.21 86.96C99.22 86.93 99.67 85.7 100.21 84.23L101.2 81.56C100.34 81.49 97.28 81.74 93.84 82.07C90.4 82.4 87.55 82.64 87.5 82.61C87.45 82.57 87.67 81.84 87.99 80.98C88.31 80.12 88.73 79.24 88.93 79.02C89.12 78.8 89.53 78.5 89.82 78.35C90.17 78.17 92.32 77.9 96.12 77.55C99.28 77.25 102.12 76.97 102.41 76.92C102.9 76.84 102.99 76.7 103.55 75.18C103.88 74.28 104.34 73.04 104.58 72.42L105 71.31C103.69 71.34 100.25 71.65 96.52 72.01Z" />
		<path class="shp1" d="M139.46 73.25C137.84 73.41 136.44 73.59 136.34 73.65C136.24 73.71 135.74 74.89 135.22 76.28C134.71 77.66 134.31 78.82 134.33 78.86C134.35 78.9 135.9 78.78 137.77 78.6C139.63 78.42 141.44 78.23 141.79 78.16C142.13 78.1 142.57 77.97 142.77 77.88C142.96 77.79 143.26 77.5 143.42 77.23C143.59 76.96 143.97 76.03 144.27 75.16L144.81 73.57C144.14 73 143.77 72.91 143.21 72.93C142.77 72.94 141.08 73.09 139.46 73.25Z" />
		<path class="shp3" d="M76.99 73.96C74.96 74.18 74.22 74.32 74.11 74.52C74.04 74.66 72.42 79 70.53 84.14C68.63 89.29 66.91 93.69 66.71 93.92C66.51 94.15 66.12 94.45 65.85 94.59C65.58 94.73 64.17 94.96 62.72 95.11C61.27 95.25 59.65 95.38 59.11 95.38C58.43 95.39 58.04 95.3 57.86 95.1C57.62 94.85 57.95 93.84 61.12 85.34C63.06 80.12 64.69 75.69 64.74 75.5C64.84 75.14 64.83 75.14 61.48 75.45C59.28 75.66 58.08 75.84 58 75.99C57.93 76.11 56.18 80.82 54.1 86.46C52.02 92.1 50.26 97.07 50.18 97.51C50.11 97.95 50.11 98.6 50.19 98.94C50.28 99.28 50.49 99.76 50.66 99.99C50.84 100.22 51.3 100.58 51.7 100.78C52.09 100.98 52.89 101.18 53.48 101.22C54.07 101.26 57.1 101.04 60.22 100.74C64.84 100.29 66.15 100.1 67.28 99.73C68.04 99.47 69.18 98.92 69.82 98.5C70.46 98.08 71.33 97.35 71.76 96.87C72.19 96.39 72.7 95.68 72.91 95.29C73.11 94.89 75.01 89.86 77.13 84.1L80.98 73.64C80.01 73.67 78.5 73.8 76.99 73.96ZM138.66 96.11C137.97 96.19 137.07 96.3 136.65 96.35C135.94 96.44 135.77 96.59 133.93 98.67C132.85 99.9 131.88 100.9 131.79 100.9C131.67 100.9 131.64 100.18 131.71 98.9L131.81 96.89C127.57 97.35 126.32 97.49 126.29 97.5C126.27 97.51 125.44 99.18 124.46 101.21C123.48 103.25 122.69 104.95 122.72 105C122.75 105.05 123.49 105.03 124.38 104.95L125.98 104.81L128.75 99.21L128.57 104.47C130.16 104.32 130.89 104.24 131.21 104.19C131.69 104.12 132.17 103.68 134.06 101.53C135.31 100.12 136.4 99 136.47 99.04C136.55 99.08 136.1 100.12 135.49 101.34C134.88 102.57 134.42 103.62 134.46 103.67C134.51 103.73 135.27 103.71 136.15 103.63L137.74 103.49L141.43 95.91C140.25 95.94 139.35 96.02 138.66 96.11ZM111.61 99.04C109.69 99.26 108.1 99.45 108.08 99.46C108.06 99.47 107.23 101.12 106.25 103.13C105.27 105.14 104.46 106.86 104.46 106.96C104.46 107.06 104.6 107.11 104.78 107.07C104.95 107.02 105.65 106.94 106.34 106.88C107.03 106.82 107.81 106.73 108.08 106.69C108.5 106.62 108.67 106.38 109.24 105.15C109.69 104.18 110.04 103.65 110.31 103.55C110.55 103.46 110.9 103.47 111.16 103.57C111.45 103.69 111.81 104.16 112.21 104.96L112.82 106.16C116.38 105.78 117.43 105.66 117.46 105.65C117.49 105.64 117.29 105.1 117 104.47C116.67 103.71 116.32 103.21 116.01 103.04C115.74 102.89 115.53 102.71 115.53 102.64C115.53 102.57 115.64 102.51 115.76 102.51C115.88 102.51 116.46 102.28 117.05 102C117.64 101.72 118.39 101.2 118.71 100.84C119.14 100.35 119.27 100.05 119.24 99.61C119.21 99.2 119.07 98.97 118.75 98.81C118.48 98.68 117.67 98.6 116.7 98.61C115.81 98.62 113.52 98.81 111.61 99.04Z" />
		<path class="shp1" d="M111.88 100.48C111.68 100.52 111.38 100.83 111.21 101.17C111.03 101.51 110.89 101.83 110.89 101.88C110.89 101.93 111.19 101.97 111.56 101.97C111.93 101.97 112.71 101.85 113.3 101.71C113.92 101.57 114.51 101.3 114.69 101.09C114.86 100.89 114.96 100.64 114.91 100.54C114.86 100.45 114.24 100.38 113.53 100.39C112.81 100.4 112.07 100.44 111.88 100.48Z" />
		<path class="shp3" d="M94.73 100.74C94.04 100.83 92.88 101.07 92.14 101.27C91.41 101.47 90.29 101.89 89.66 102.2C89.03 102.52 88.15 103.09 87.71 103.49C87.27 103.88 86.68 104.6 86.4 105.09C86.09 105.64 85.89 106.25 85.89 106.69C85.88 107.24 85.99 107.52 86.38 107.9C86.68 108.2 87.23 108.47 87.77 108.59C88.33 108.72 89.33 108.75 90.45 108.68C91.43 108.61 92.92 108.4 93.75 108.2C94.58 108 95.87 107.55 96.61 107.19C97.44 106.79 98.29 106.2 98.85 105.64C99.34 105.14 99.92 104.35 100.14 103.89C100.36 103.42 100.54 102.82 100.54 102.55C100.54 102.28 100.4 101.86 100.22 101.62C100.05 101.39 99.65 101.08 99.33 100.96C99.01 100.83 98.13 100.69 97.37 100.64C96.6 100.6 95.42 100.64 94.73 100.74ZM78.57 102.59C76.66 102.81 74.17 103.08 73.04 103.2L70.98 103.42C70.29 104.78 70.13 105.2 70.18 105.24C70.23 105.28 71.13 105.22 72.19 105.11C73.24 105 74.11 104.95 74.11 105C74.12 105.05 73.55 106.29 72.86 107.76C72.16 109.23 71.6 110.48 71.6 110.53C71.6 110.58 72.31 110.55 73.17 110.47C74.03 110.39 74.93 110.29 75.18 110.24C75.55 110.17 75.86 109.69 77.05 107.31C78.25 104.92 78.55 104.45 78.93 104.39C79.17 104.34 79.9 104.26 80.54 104.2C81.17 104.14 81.92 104.06 82.19 104.01C82.57 103.95 82.78 103.73 83.13 103.04L83.57 102.15C82.4 102.18 80.49 102.37 78.57 102.59Z" />
		<path class="shp1" d="M92.77 102.87C92.28 103.07 91.57 103.52 91.2 103.89C90.83 104.26 90.39 104.9 90.22 105.32C89.91 106.07 89.92 106.09 90.32 106.48C90.66 106.81 90.89 106.87 91.79 106.83C92.38 106.8 93.24 106.62 93.71 106.42C94.17 106.22 94.78 105.84 95.06 105.57C95.34 105.31 95.72 104.79 95.91 104.42C96.1 104.05 96.25 103.61 96.26 103.44C96.26 103.27 96.12 102.99 95.94 102.82C95.72 102.61 95.33 102.52 94.64 102.52C94.1 102.52 93.26 102.68 92.77 102.87Z" />
		<path class="shp3" d="M60 104.49C59.17 104.58 57.9 104.81 57.19 105C56.48 105.2 55.57 105.52 55.18 105.71C54.79 105.91 54.18 106.35 53.84 106.69C53.46 107.07 53.21 107.49 53.21 107.76C53.21 108.01 53.33 108.33 53.48 108.48C53.63 108.62 54.05 108.82 54.42 108.91C54.79 109 56 109.14 57.12 109.22C58.23 109.3 59.21 109.45 59.3 109.55C59.4 109.66 59.3 109.87 59.06 110.1C58.84 110.31 58.38 110.57 58.04 110.68C57.69 110.8 57.11 110.89 56.74 110.89C56.37 110.89 55.91 110.8 55.71 110.71C55.52 110.61 55.36 110.37 55.36 110.17C55.36 109.85 55.27 109.83 54.6 109.92C54.18 109.98 53.28 110.12 52.59 110.23C51.46 110.42 51.33 110.48 51.28 110.88C51.24 111.16 51.38 111.53 51.67 111.86C52.09 112.37 52.19 112.4 53.69 112.46C54.56 112.5 55.99 112.43 56.88 112.31C57.76 112.2 59.08 111.91 59.82 111.68C60.56 111.45 61.6 110.95 62.13 110.58C62.67 110.21 63.26 109.62 63.45 109.28C63.65 108.93 63.75 108.5 63.69 108.3C63.63 108.1 63.42 107.84 63.22 107.72C63.02 107.6 62.35 107.42 61.74 107.32C61.13 107.22 59.98 107.14 59.2 107.14C58.41 107.14 57.65 107.06 57.5 106.97C57.28 106.84 57.27 106.76 57.46 106.53C57.58 106.38 57.98 106.17 58.35 106.07C58.72 105.98 59.28 105.89 59.6 105.89C60 105.89 60.26 106.01 60.45 106.29C60.72 106.69 60.73 106.69 62.55 106.46C63.55 106.33 64.44 106.17 64.52 106.1C64.6 106.04 64.64 105.79 64.61 105.55C64.58 105.32 64.35 104.98 64.11 104.81C63.85 104.63 63.21 104.46 62.59 104.41C62 104.36 60.83 104.4 60 104.49Z" />
		<path class="shp0" d="M124.91 109.15L115.09 110.22C110.25 113.31 107.73 114.86 106.38 115.67C105.03 116.47 103.95 117.17 103.97 117.22C104 117.27 105.1 117.04 106.43 116.7C107.75 116.35 109.84 115.76 111.07 115.38C112.3 114.99 114.71 114.18 116.43 113.57C118.15 112.97 119.65 112.43 119.78 112.39C119.9 112.35 120 112.35 120 112.4C120 112.45 118.13 113.88 115.85 115.58C113.56 117.28 109.85 119.99 107.58 121.6C105.32 123.21 102.53 125.16 101.39 125.95C100.11 126.83 99.43 127.4 99.61 127.43C99.78 127.46 100.43 127.31 101.07 127.09C101.71 126.88 103 126.4 103.93 126.03C104.86 125.66 106.83 124.81 108.3 124.13C109.78 123.45 112.13 122.28 113.53 121.53C114.93 120.77 116.11 120.15 116.16 120.15C116.21 120.15 116.25 120.21 116.26 120.29C116.26 120.36 115.19 121.4 113.89 122.59C112.59 123.78 110.31 125.77 108.84 127.02C107.37 128.27 104.65 130.42 102.81 131.81C100.96 133.19 99.53 134.35 99.64 134.37C99.74 134.4 100.65 134.13 101.65 133.78C102.66 133.43 105.03 132.55 106.92 131.82C108.81 131.09 110.4 130.51 110.45 130.54C110.51 130.56 107.79 132.87 104.43 135.67C101.06 138.47 96.9 141.88 95.18 143.25C93.46 144.63 91.21 146.39 90.18 147.18C89.15 147.97 87.6 149.11 86.74 149.71C85.88 150.32 85.22 150.86 85.27 150.91C85.32 150.95 86.66 150.3 88.26 149.45C89.85 148.61 92.37 147.19 93.84 146.31C95.31 145.42 97.8 143.84 99.38 142.79C100.95 141.75 103.4 140.02 104.82 138.96C106.25 137.9 108.42 136.21 109.64 135.21C110.87 134.21 112.92 132.48 114.19 131.36C115.46 130.25 117.98 127.89 119.79 126.13C121.6 124.36 124.15 121.75 125.45 120.33C126.76 118.91 128.68 116.74 129.74 115.52C130.79 114.29 132.57 112.15 133.68 110.75C134.8 109.35 135.71 108.17 135.71 108.12C135.71 108.07 135.49 108.04 135.22 108.05C134.95 108.06 130.31 108.56 124.91 109.15Z" />
		<path class="shp2" d="M97.23 112.14C88.39 113.11 81.12 113.9 81.07 113.91C81.02 113.91 81.28 114.54 81.64 115.3C82 116.06 82.58 117.52 82.92 118.55C83.27 119.58 83.71 121.22 83.91 122.2C84.11 123.18 84.35 124.83 84.46 125.86C84.56 126.89 84.64 128.45 84.64 129.33C84.64 130.22 84.52 132.02 84.38 133.35C84.24 134.67 83.99 136.43 83.83 137.27C83.68 138.1 83.35 139.59 83.1 140.57C82.86 141.55 82.37 143.27 82.02 144.4C81.67 145.53 81.01 147.45 80.54 148.68C80.07 149.9 79.24 151.93 78.69 153.18C78.13 154.43 77.68 155.53 77.68 155.63C77.68 155.73 78.38 155.3 79.24 154.67C80.1 154.04 81.73 152.97 82.86 152.29C83.99 151.61 85.83 150.39 86.96 149.57C88.09 148.75 89.7 147.56 90.54 146.91C91.37 146.27 93.46 144.62 95.18 143.25C96.9 141.88 101.06 138.47 104.43 135.67C107.79 132.87 110.51 130.56 110.45 130.54C110.4 130.51 108.81 131.09 106.92 131.82C105.03 132.55 102.66 133.43 101.65 133.78C100.65 134.13 99.74 134.4 99.64 134.37C99.53 134.35 100.96 133.19 102.81 131.81C104.65 130.42 107.37 128.27 108.84 127.02C110.31 125.77 112.59 123.78 113.89 122.59C115.19 121.4 116.26 120.36 116.26 120.29C116.25 120.21 116.21 120.15 116.16 120.15C116.11 120.15 114.93 120.77 113.53 121.53C112.13 122.28 109.78 123.45 108.3 124.13C106.83 124.81 104.86 125.66 103.93 126.03C103 126.4 101.71 126.88 101.07 127.09C100.43 127.31 99.78 127.46 99.61 127.43C99.43 127.4 100.11 126.83 101.39 125.95C102.53 125.16 105.32 123.21 107.58 121.6C109.85 119.99 113.56 117.28 115.85 115.58C118.13 113.88 120 112.45 120 112.4C120 112.35 119.9 112.35 119.78 112.39C119.65 112.43 118.15 112.97 116.43 113.57C114.71 114.18 112.3 114.99 111.07 115.38C109.84 115.76 107.75 116.35 106.43 116.7C105.1 117.04 104 117.27 103.97 117.22C103.95 117.17 105.03 116.47 106.38 115.66C107.73 114.86 110.15 113.38 111.74 112.37C113.34 111.35 114.64 110.49 114.64 110.44C114.64 110.39 114.34 110.36 113.97 110.37C113.6 110.38 106.07 111.18 97.23 112.14Z" />
		<path class="shp1" d="M152.06 118.57C151.99 118.7 151.97 118.96 152.03 119.13C152.12 119.38 152.35 119.44 153.17 119.44L154.2 119.44L154.02 124.17L155.36 124.25L155.58 119.53L157.68 119.62C157.68 118.57 157.65 118.55 156.83 118.55C156.36 118.55 155.13 118.5 154.09 118.43C152.56 118.34 152.17 118.37 152.06 118.57ZM158.53 118.66C158.48 118.75 158.3 120.02 158.13 121.49C157.97 122.96 157.86 124.17 157.89 124.18C157.92 124.19 158.21 124.25 158.53 124.32C159.06 124.42 159.11 124.39 159.18 123.94C159.23 123.67 159.33 122.75 159.41 121.89C159.49 121.03 159.59 120.33 159.64 120.33C159.69 120.32 160.03 121.25 160.4 122.38L161.07 124.43L162.55 124.34L164.38 119.89L164.55 124.52L165.89 124.61C165.72 120.26 165.66 118.98 165.65 118.96C165.64 118.94 165.19 118.9 164.65 118.87L163.67 118.82C162.42 121.65 162.01 122.47 161.96 122.47C161.92 122.47 161.59 121.66 161.25 120.67C160.91 119.68 160.58 118.84 160.54 118.81C160.49 118.78 160.04 118.7 159.54 118.63C159.04 118.57 158.59 118.58 158.53 118.66Z" />
	</g>
</svg>