<svg height="311.804782" viewBox="0 0 72.02399 69.966" width="320.71349" xmlns="http://www.w3.org/2000/svg"><g fill="#fff"><path d="m54.4538-.00024-1.528 1.521-1.527-1.521h-30.774l-1.527 1.521-1.528-1.521h-17.57v1.142s5.447 2.027 5.447 5.674v51.558a7.50317 7.50317 0 0 0 7.493 7.494h18.134c3.712 0 4.377 4.098 4.377 4.098h1.122s.665-4.098 4.38-4.098h18.131a7.50359 7.50359 0 0 0 7.495-7.494v-51.55803c0-3.647 5.445-5.674 5.445-5.674v-1.142zm11.41 6.816v51.558a6.7877 6.7877 0 0 1 -6.78 6.78h-18.131c-3.972 0-4.941 4.099-4.941 4.099s-.968-4.099-4.938-4.099h-18.134a6.7881 6.7881 0 0 1 -6.779-6.78v-51.55803c0-3.94495-5.35-6.102-5.35-6.102h16.465l1.822 1.815 1.822-1.815h30.185l1.821 1.815 1.823-1.815h16.465s-5.35 2.157-5.35 6.102" transform="translate(.00021 .00024)"/><path d="m50.16379 48.48477a1.03117 1.03117 0 0 0 -.002-1.455l-.96-.958-2.441 2.447.961.958a1.03206 1.03206 0 0 0 1.455-.002z" transform="translate(.00021 .00024)"/><path d="m24.98969 21.93188-2.441 2.446.961.958a1.03058 1.03058 0 0 0 1.456-.00305l.987-.989a1.02911 1.02911 0 0 0 -.003-1.454z" transform="translate(.00021 .00024)"/><path d="m52.926 3.71478-1.577-1.572h-30.672l-1.579 1.572-1.578-1.572h-12.578s2.648.655 2.648 4.673v51.558a5.3651 5.3651 0 0 0 5.35 5.35h18.133c4.526 0 4.939 3.306 4.939 3.306s.413-3.306 4.94-3.306h18.132a5.36594 5.36594 0 0 0 5.351-5.35v-51.55805c0-4.01794 2.648-4.673 2.648-4.673h-12.579zm-11.974 58.58c-4.94 0-4.94 2.436-4.94 2.436s0-2.436-4.939-2.436h-18.133a3.92527 3.92527 0 0 1 -3.92-3.921v-35.816l39.854 39.737zm-2.562-29.566 1.234 1.229-8.726 8.752-1.269-1.264 3.856-7.177-5.509 5.527-1.235-1.229 8.725-8.753 1.27 1.265-3.856 7.176zm9.339 20.666-1.767 1.772c-.865.868-.89 1.348-.89 1.348l-.163.163-1.349-1.342a10.68161 10.68161 0 0 1 1.169-1.4l1.712-1.719a1.029 1.029 0 0 0 -.001-1.454l-.961-.959-3.721 3.734-1.235-1.23 8.726-8.751 2.518 2.509a2.32163 2.32163 0 0 1 .004 3.274l-1.139 1.142a2.31873 2.31873 0 0 1 -2.34.57 2.32266 2.32266 0 0 1 -.563 2.343m-.433-9.222-2.223-2.217-2.198 2.206 2.041 2.036-1.281 1.286-2.043-2.037-2.68 2.69 2.223 2.216-1.281 1.286-3.458-3.447 8.726-8.752 3.456 3.447zm-4.707-3.534-.849.851-1.233-1.229.797-.799a1.1929 1.1929 0 0 0 -1.69-1.684l-4.898 4.911a1.19324 1.19324 0 1 0 1.69 1.685l1.49-1.494-.844-.843 1.281-1.286 2.078 2.072-4.686 4.7-.9-.897 1.072-1.075a2.456 2.456 0 0 1 -2.91-.338c-.63-.627-1.099-2.155.444-3.701l5.001-5.017a2.93485 2.93485 0 0 1 4.157 4.144m-16.518-2.742-1.234-1.229 1.875-2.544-1.573-1.569-2.538 1.882-1.233-1.23 10.301-7.18 1.551 1.547zm1.489-12.697-1.139 1.142a2.322 2.322 0 0 1 -2.341.569 2.32177 2.32177 0 0 1 -.562 2.343l-1.767 1.772c-.866.869-.892 1.35-.892 1.35l-.162.162-1.348-1.343a10.58285 10.58285 0 0 1 1.168-1.399l1.713-1.719a1.03121 1.03121 0 0 0 -.002-1.455l-.961-.958-3.721 3.734-1.234-1.231 8.726-8.752 2.516 2.50995a2.32285 2.32285 0 0 1 .006 3.275m29.038 29.176-.909.912-1.233-1.23.857-.86a1.02849 1.02849 0 1 0 -1.457-1.452c-1.865 1.869.716 4.894-1.82 7.438-1.698 1.704-3.441 1.591-4.589.446a2.93361 2.93361 0 0 1 -.006-4.15l1.223-1.226 1.233 1.229-1.17 1.174a1.1922 1.1922 0 1 0 1.688 1.684c1.901-1.905-.609-5.001 1.913-7.53 1.431-1.435 2.928-1.686 4.264-.354a2.77064 2.77064 0 0 1 .006 3.919m6.408 1.233-37.138-37.026h37.138zm0-48.793v10.88h-53.986v-10.88a6.05165 6.05165 0 0 0 -.955-3.243h9.699l1.334 1.328 1.333-1.328h31.162l1.333 1.328 1.335-1.328h9.698a6.06013 6.06013 0 0 0 -.953 3.243" transform="translate(.00021 .00024)"/><path d="m27.801 32.646 3.361-4.56-4.55 3.375z"/><path d="m34.68039 52.08044h-2.444l-.159.764h-.633l.16-.764h-2.444l-.16.764h-1.475l.16-.764h-2.443l-.161.764h-2.083a3.75653 3.75653 0 0 0 -2.568-.969 4.4533 4.4533 0 0 0 -2.034.502h-1.599a4.52578 4.52578 0 0 0 -.403.234h-1.364c-.114.072-.225.151-.331.233h-1.323c-.063.048-.124.097-.184.149h21.297z" transform="translate(.00021 .00024)"/><path d="m34.43521 53.24875h-2.444l-.16.762h-.632l.16-.762h-2.444l-.16.762h-1.474l.16-.762h-2.444l-.16.762h-.993a3.60541 3.60541 0 0 0 -.467-.762h-6.177c-.083.081-.162.166-.238.254h-1.599c-.072.082-.141.167-.207.254h-1.365c-.062.082-.123.167-.181.254h-1.322c-.033.049-.064.1-.094.149h22.05z" transform="translate(.00021 .00024)"/><path d="m34.19 54.41577h-2.444l-.16.762h-.633l.161-.762h-2.444l-.094.452h-1.475l.094-.452h-2.444l-.159.762h-.431a3.80691 3.80691 0 0 0 -.161-.762h-7.667c-.043.083-.084.167-.124.254h-1.598c-.037.083-.073.168-.105.253h-1.365c-.031.084-.062.17-.088.255h-1.323c-.016.049-.03.099-.044.149h22.313z" transform="translate(.00021 .00024)"/><path d="m33.9455 55.58185h-2.444l-.16.762h-.632l.16-.762h-6.363l-.159.762h-.229c.017-.101.032-.203.042-.306a3.915 3.915 0 0 0 .022-.456h-8.273c-.018.084-.033.169-.046.254h-1.598c-.012.066-.019.134-.026.202l-.006.053h-1.364c-.008.085-.013.17-.016.253h-1.322c-.002.05-.002.1-.002.15h22.225z" transform="translate(.00021 .00024)"/><path d="m30.60641 59.84485h-.632l.161-.763h-2.444l-.161.763h-1.475l.161-.763h-2.444l-.161.763h-2.326a4.80055 4.80055 0 0 0 1.233-.763h-5.672a3.46322 3.46322 0 0 0 .273.255h-1.598a3.56928 3.56928 0 0 0 .343.254h-1.725a3.63545 3.63545 0 0 0 .458.254h-1.699c.121.055.244.105.372.15h21.801l.192-.913h-4.498z" transform="translate(.00021 .00024)"/><path d="m30.85172 58.67807h-.632l.16-.762h-2.444l-.16.762h-1.474l.16-.762h-2.444l-.16.762h-.916a5.035 5.035 0 0 0 .577-.762h-7.429c.035.086.073.171.114.254h-1.598c.043.087.088.171.138.254h-1.365c.052.087.107.172.166.254h-1.323c.038.05.075.1.114.149h22.982l.191-.911h-4.497z" transform="translate(.00021 .00024)"/><path d="m33.70029 56.74905h-2.443l-.16.762h-.633l.16-.762h-6.363l-.159.762h-.365a4.50652 4.50652 0 0 0 .288-.762h-8.201c.006.086.015.171.025.254h-1.598c.012.085.026.17.043.254h-1.365c.017.086.038.171.062.254h-1.324c.013.05.029.099.044.15h23.851l.031-.15h-2.052zm-5.679.762h-1.475l.064-.305h1.475z" transform="translate(.00021 .00024)"/><path d="m50.334 16.695h4.532v-1.685h-2.915v-3.524h2.676v-1.685h-2.676v-2.89h2.915v-1.685h-4.532z"/><path d="m37.978 16.695h4.532v-1.685h-2.916v-3.524h2.677v-1.685h-2.677v-2.89h2.916v-1.685h-4.532z"/><path d="m47.36 12.468-2.169-7.242h-1.662v11.469h1.616v-7.243l2.169 7.243h1.662v-11.469h-1.616z"/><path d="m16.6492 5.2262h1.617v11.46899h-1.617z"/><path d="m35.078 9.801h-2.214v-4.575h-1.616v11.469h1.616v-5.209h2.214v5.209h1.617v-11.469h-1.617z"/><path d="m19.01 6.911h1.914v9.784h1.619v-9.784h1.914v-1.685h-5.447z"/><path d="m57.40451 11.80267h1.26a.95815.95815 0 0 1 .955.955v2.252a9.98917 9.98917 0 0 0 .148 1.685h1.766v-.21405a2.37015 2.37015 0 0 1 -.298-1.47095v-2.322a2.15208 2.15208 0 0 0 -1.165-1.908 2.15319 2.15319 0 0 0 1.165-1.908v-1.497a2.15444 2.15444 0 0 0 -2.148-2.149h-3.299v11.46903h1.616zm0-4.892h1.26a.95731.95731 0 0 1 .955.954v1.298a.95815.95815 0 0 1 -.955.955h-1.26z" transform="translate(.00021 .00024)"/><path d="m14.321 5.226-2.215 4.729v-4.729h-1.615v11.469h1.615v-3.288l.656-1.396 1.559 4.684h1.616l-2.231-6.703 2.231-4.766z"/><path d="m27.67429 4.94885a2.72456 2.72456 0 0 0 -2.723 2.725v6.573a2.72351 2.72351 0 1 0 5.447 0v-1.634h-1.616v1.566a1.1075 1.1075 0 0 1 -2.215 0v-6.438a1.1075 1.1075 0 0 1 2.215 0v1.047h1.616v-1.114a2.72478 2.72478 0 0 0 -2.724-2.725" transform="translate(.00021 .00024)"/></g><path d="m25.868 18.583 37.138 37.026v-37.026z" fill="#cf0a2c"/><path d="m38.912 48.137 2.681-2.691 2.042 2.038 1.282-1.286-2.042-2.036 2.199-2.207 2.223 2.218 1.282-1.286-3.456-3.447-8.727 8.752 3.458 3.446 1.282-1.285z" fill="#cf0a2c"/><path d="m38.39 32.729-5.51 5.526 3.856-7.176-1.27-1.265-8.725 8.753 1.235 1.23 5.509-5.528-3.856 7.177 1.269 1.264 8.726-8.752z" fill="#cf0a2c"/><path d="m23.51767 29.25391a2.32439 2.32439 0 0 0 .563-2.343 2.32042 2.32042 0 0 0 2.34-.569l1.139-1.142a2.32275 2.32275 0 0 0 -.005-3.275l-2.517-2.51-8.726 8.752 1.235 1.231 3.721-3.73395.961.95795a1.03121 1.03121 0 0 1 .001 1.455l-1.712 1.719a10.614 10.614 0 0 0 -1.168 1.398l1.347 1.344.162-.162s.026-.481.892-1.35zm1.472-7.322.96.958a1.02911 1.02911 0 0 1 .003 1.454l-.987.989a1.03058 1.03058 0 0 1 -1.456.00305l-.961-.958z" fill="#cf0a2c" transform="translate(.00021 .00024)"/><path d="m48.292 51.05188a2.31873 2.31873 0 0 0 2.34-.57l1.139-1.142a2.32159 2.32159 0 0 0 -.004-3.274l-2.518-2.509-8.726 8.751 1.235 1.23 3.721-3.734.961.958a1.03121 1.03121 0 0 1 .001 1.455l-1.712 1.719a10.68685 10.68685 0 0 0 -1.169 1.4l1.349 1.342.163-.163s.025-.48.89-1.348l1.767-1.772a2.32266 2.32266 0 0 0 .563-2.343m-1.531-2.533 2.441-2.447.96.958a1.03117 1.03117 0 0 1 .002 1.455l-.987.99a1.03209 1.03209 0 0 1 -1.455.002z" fill="#cf0a2c" transform="translate(.00021 .00024)"/><path d="m31.66907 26.027-10.302 7.179 1.234 1.231 2.537-1.882 1.573 1.569-1.874 2.544 1.234 1.229 7.149-10.323zm-3.868 6.619-1.189-1.185 4.55-3.375z" fill="#cf0a2c" transform="translate(.00021 .00024)"/><path d="m38.333 40.75067-1.282 1.286.845.843-1.49 1.494a1.19324 1.19324 0 1 1 -1.69-1.685l4.899-4.911a1.19289 1.19289 0 1 1 1.689 1.685l-.797.798 1.233 1.229.849-.851a2.93484 2.93484 0 0 0 -4.157-4.144l-5 5.017c-1.544 1.546-1.075 3.074-.445 3.701a2.456 2.456 0 0 0 2.91.338l-1.072 1.076.9.896 4.686-4.7z" fill="#cf0a2c" transform="translate(.00021 .00024)"/><path d="m52.32761 50.81094c-2.522 2.529-.011 5.624-1.913 7.53a1.19219 1.19219 0 1 1 -1.688-1.684l1.171-1.175-1.234-1.229-1.223 1.227a2.93266 2.93266 0 0 0 .007 4.15c1.147 1.145 2.89 1.257 4.588-.446 2.536-2.544-.044-5.569 1.82-7.438a1.02849 1.02849 0 1 1 1.457 1.452l-.857.86 1.233 1.23.91-.913a2.77031 2.77031 0 0 0 -.006-3.918c-1.337-1.332-2.834-1.081-4.265.354" fill="#cf0a2c" transform="translate(.00021 .00024)"/><path d="m54.7489.71375-1.823 1.815-1.821-1.815h-30.184l-1.823 1.815-1.822-1.815h-16.46502s5.35 2.157 5.35 6.102v51.558a6.7881 6.7881 0 0 0 6.779 6.78h18.133c3.971 0 4.939 4.099 4.939 4.099s.969-4.099 4.94-4.099h18.132a6.78832 6.78832 0 0 0 6.78-6.78v-51.55802c0-3.94495 5.349-6.102 5.349-6.102zm9.686 6.102v51.558a5.366 5.366 0 0 1 -5.351 5.35h-18.132c-4.527 0-4.94 3.306-4.94 3.306s-.413-3.306-4.939-3.306h-18.133a5.36573 5.36573 0 0 1 -5.35-5.35v-51.55802c0-4.01794-2.648-4.673-2.648-4.673h12.578l1.578 1.572 1.579-1.572h30.672l1.577 1.572 1.578-1.572h12.579s-2.648.655-2.648 4.673" fill="#0033a0" transform="translate(.00021 .00024)"/><path d="m26.546 57.511h1.475l.064-.305h-1.475z" fill="#0033a0"/><path d="m9.01907 58.37418a3.92615 3.92615 0 0 0 3.921 3.921h18.133c4.939 0 4.939 2.436 4.939 2.436s0-2.436 4.94-2.436h7.922l-39.855-39.738zm26.052 1.62h-21.801c-.127-.044-.251-.094-.372-.149h1.699a3.85065 3.85065 0 0 1 -.458-.254h1.726a3.71851 3.71851 0 0 1 -.344-.254h1.599c-.096-.081-.187-.166-.274-.255h5.672a4.78462 4.78462 0 0 1 -1.233.763h2.327l.161-.763h2.444l-.161.763h1.474l.161-.763h2.444l-.161.763h.632l.16-.763h4.497zm.246-1.167h-22.981c-.04-.049-.077-.099-.114-.149h1.322c-.058-.082-.113-.167-.166-.254h1.365c-.049-.083-.095-.167-.137-.254h1.597c-.041-.083-.079-.168-.114-.254h7.429a4.97314 4.97314 0 0 1 -.577.762h.917l.16-.762h2.444l-.16.762h1.474l.159-.762h2.444l-.159.762h.632l.16-.762h4.497zm.245-1.166h-23.851c-.015-.051-.03-.1-.043-.15h1.323c-.024-.083-.045-.168-.062-.254h1.366c-.018-.084-.032-.169-.044-.254h1.598c-.01-.084-.019-.168-.025-.254h8.201a4.50485 4.50485 0 0 1 -.287.762h.364l.16-.762h6.362l-.16.762h.633l.16-.762h2.443l-.159.762h2.052zm-22.185-4.817h1.322c.107-.082.217-.161.331-.233h1.364c.132-.084.265-.163.404-.234h1.599a4.45949 4.45949 0 0 1 2.034-.502 3.75871 3.75871 0 0 1 2.567.969h2.084l.16-.764h2.444l-.161.764h1.476l.16-.764h2.444l-.16.764h.632l.159-.764h2.444l-.191.913h-21.297c.06-.052.122-.1.185-.149m-1.089 1.166h1.322c.058-.086.119-.171.181-.253h1.365q.099-.132.207-.255h1.599c.076-.087.155-.172.238-.253h6.177a3.5319 3.5319 0 0 1 .467.761h.993l.16-.761h2.444l-.16.761h1.474l.161-.761h2.443l-.16.761h.632l.16-.761h2.444l-.191.911h-22.05c.03-.05.061-.1.094-.15m-.558 1.168h1.323c.026-.085.056-.171.088-.255h1.365c.032-.085.068-.17.105-.254h1.598c.04-.086.081-.171.124-.253h7.667a3.804 3.804 0 0 1 .161.762h.431l.159-.762h2.444l-.094.452h1.474l.095-.452h2.444l-.161.762h.633l.16-.762h2.444l-.192.911h-22.31197c.013-.051.028-.101.044-.149m-.199 1.166h1.322c.004-.083.008-.168.016-.254h1.365c.001-.017.003-.035.005-.053.007-.067.015-.135.026-.201h1.598c.014-.086.028-.171.046-.254h8.274a4.10517 4.10517 0 0 1 -.022.455c-.011.104-.026.205-.043.307h.229l.16-.762h6.362l-.159.762h.631l.161-.762h2.443l-.191.912h-22.225c0-.05 0-.1.002-.15" fill="#0033a0" transform="translate(.00021 .00024)"/><path d="m52.92569 4.9007-1.333-1.328h-31.161l-1.334 1.328-1.334-1.328h-9.698a6.0555 6.0555 0 0 1 .954 3.243v10.88h53.986v-10.88a6.05975 6.05975 0 0 1 .953-3.243h-9.698zm-36.988 11.794h-1.617l-1.559-4.684-.655 1.397v3.287h-1.616v-11.46905h1.616v4.729l2.214-4.729h1.617l-2.232 4.767zm2.328 0h-1.617v-11.46905h1.617zm6.191-9.78406h-1.915v9.78406h-1.618v-9.78406h-1.914v-1.685h5.447zm5.942 1.87805h-1.617v-1.04699a1.107 1.107 0 1 0 -2.214 0v6.437a1.107 1.107 0 0 0 2.214 0v-1.566h1.617v1.634a2.724 2.724 0 1 1 -5.448 0v-6.57305a2.724 2.724 0 1 1 5.448 0zm6.295 7.906h-1.616v-5.209h-2.214v5.209h-1.616v-11.46904h1.616v4.575h2.214v-4.575h1.616zm5.816-9.78406h-2.916v2.89h2.677v1.685h-2.677v3.524h2.916v1.685h-4.532v-11.46898h4.532zm6.467 9.78406h-1.663l-2.168-7.242v7.242h-1.617v-11.46904h1.662l2.17 7.242v-7.242h1.616zm6.811-11.46906h3.3a2.15509 2.15509 0 0 1 2.148 2.149v1.497a2.15319 2.15319 0 0 1 -1.165 1.908 2.15208 2.15208 0 0 1 1.165 1.908v2.322a2.37015 2.37015 0 0 0 .298 1.47095v.21405h-1.766a9.98917 9.98917 0 0 1 -.148-1.685v-2.252a.95836.95836 0 0 0 -.956-.955h-1.259v4.892h-1.617zm-.922 1.685h-2.915v2.89h2.677v1.685h-2.677v3.524h2.915v1.685h-4.532v-11.46898h4.532z" fill="#0033a0" transform="translate(.00021 .00024)"/><path d="m59.61929 9.16254v-1.298a.95726.95726 0 0 0 -.955-.954h-1.26v3.207h1.26a.95815.95815 0 0 0 .955-.955" fill="#0033a0" transform="translate(.00021 .00024)"/></svg>