<?xml version="1.0" encoding="UTF-8" standalone="no"?>
<!-- Created with Inkscape (http://www.inkscape.org/) -->

<svg
   xmlns:dc="http://purl.org/dc/elements/1.1/"
   xmlns:cc="http://creativecommons.org/ns#"
   xmlns:rdf="http://www.w3.org/1999/02/22-rdf-syntax-ns#"
   xmlns:svg="http://www.w3.org/2000/svg"
   xmlns="http://www.w3.org/2000/svg"
   xmlns:sodipodi="http://sodipodi.sourceforge.net/DTD/sodipodi-0.dtd"
   xmlns:inkscape="http://www.inkscape.org/namespaces/inkscape"
   width="126"
   height="137"
   viewBox="0 0 126 137"
   id="svg92673"
   version="1.1"
   inkscape:version="0.91 r13725"
   sodipodi:docname="ottawa 67s.svg">
  <defs
     id="defs92675">
    <clipPath
       id="clipPath79612"
       clipPathUnits="userSpaceOnUse">
      <path
         inkscape:connector-curvature="0"
         id="path79614"
         d="m 54.679,652.433 104.232,0 0,113.24 -104.232,0 0,-113.24 z" />
    </clipPath>
  </defs>
  <sodipodi:namedview
     id="base"
     pagecolor="#ffffff"
     bordercolor="#666666"
     borderopacity="1.0"
     inkscape:pageopacity="0.0"
     inkscape:pageshadow="2"
     inkscape:zoom="3.9635036"
     inkscape:cx="63"
     inkscape:cy="68.5"
     inkscape:document-units="px"
     inkscape:current-layer="layer1"
     showgrid="false"
     units="px"
     inkscape:window-width="1280"
     inkscape:window-height="744"
     inkscape:window-x="-4"
     inkscape:window-y="-4"
     inkscape:window-maximized="1" />
  <metadata
     id="metadata92678">
    <rdf:RDF>
      <cc:Work
         rdf:about="">
        <dc:format>image/svg+xml</dc:format>
        <dc:type
           rdf:resource="http://purl.org/dc/dcmitype/StillImage" />
        <dc:title></dc:title>
      </cc:Work>
    </rdf:RDF>
  </metadata>
  <g
     inkscape:label="Layer 1"
     inkscape:groupmode="layer"
     id="layer1"
     transform="translate(0,-915.36216)">
    <g
       id="g92787"
       transform="translate(-28.153066,694.37359)">
      <g
         transform="matrix(1.25,0,0,-1.25,150.89882,246.18169)"
         id="g79592">
        <path
           inkscape:connector-curvature="0"
           id="path79594"
           style="fill:#ac1f2d;fill-opacity:1;fill-rule:nonzero;stroke:none"
           d="m 0,0 0,-69.242 -17.674,-17.677 -60.245,0 -17.674,17.677 0,69.242 17.626,17.627 60.341,0 L 0,0 Z m -30.033,-63.791 6.352,6.376 0,45.636 -6.328,6.301 -37.121,0 -6.328,-6.301 0,-45.684 6.352,-6.328 37.073,0 z" />
      </g>
      <g
         transform="matrix(1.25,0,0,-1.25,52.348691,357.61107)"
         id="g79596">
        <path
           inkscape:connector-curvature="0"
           id="path79598"
           style="fill:#000000;fill-opacity:1;fill-rule:nonzero;stroke:none"
           d="m 0,0 -18.979,18.979 0,71.086 18.93,18.931 62.185,0 18.93,-18.931 0,-71.086 L 62.088,0 0,0 Z m 61.214,106.77 -60.341,0 -17.626,-17.626 0,-69.243 17.674,-17.677 60.245,0 17.674,17.677 0,69.243 -17.626,17.626 z" />
      </g>
      <g
         transform="matrix(1.25,0,0,-1.25,112.23819,255.81044)"
         id="g79600">
        <path
           inkscape:connector-curvature="0"
           id="path79602"
           style="fill:#ffffff;fill-opacity:1;fill-rule:nonzero;stroke:none"
           d="m 0,0 -35.282,0 -5.022,-5.001 0,-43.836 5.046,-5.026 35.228,0 5.052,5.07 0,43.792 L 0,0 Z" />
      </g>
      <g
         transform="matrix(1.25,0,0,-1.25,67.016691,325.92182)"
         id="g79604">
        <path
           inkscape:connector-curvature="0"
           id="path79606"
           style="fill:#000000;fill-opacity:1;fill-rule:nonzero;stroke:none"
           d="m 0,0 -6.353,6.329 0,45.684 6.329,6.301 37.12,0 6.329,-6.301 0,-45.636 L 37.072,0 0,0 Z m 36.177,56.089 -35.282,0 -5.022,-5.001 0,-43.835 5.046,-5.027 35.229,0 5.051,5.07 0,43.792 -5.022,5.001 z" />
      </g>
      <g
         transform="matrix(1.25,0,0,-1.25,-42.000429,1175.5499)"
         id="g79608">
        <g
           clip-path="url(#clipPath79612)"
           id="g79610">
          <g
             transform="translate(103.054,731.9572)"
             id="g79616">
            <path
               inkscape:connector-curvature="0"
               id="path79618"
               style="fill:#ffffff;fill-opacity:1;fill-rule:nonzero;stroke:none"
               d="m 0,0 c -0.352,-0.646 -1.064,-0.966 -3.379,-1.836 -2.319,-0.869 -5.41,-2.511 -7.148,-4.25 -1.739,-1.738 -4.057,-6.181 -4.636,-8.016 -0.58,-1.835 0.096,-1.546 0.675,-1.546 0.58,0 3.285,0.484 5.988,-0.095 2.704,-0.579 7.436,-1.74 9.176,-9.37 1.738,-7.63 -1.449,-11.494 -4.443,-14.681 -2.993,-3.187 -10.369,-4.532 -14.392,-3.863 -4.635,0.773 -7.533,2.706 -10.43,6.277 -2.898,3.575 -5.042,11.754 -1.835,20.091 2.415,6.278 9.368,12.749 11.782,14.488 2.415,1.738 4.347,2.801 7.439,3.959 3.09,1.16 5.022,1.353 6.469,1.256 1.45,-0.096 2.897,-0.386 4.154,-0.965 0,0 1.16,-0.387 0.58,-1.449" />
          </g>
          <g
             transform="translate(104.986,731.9572)"
             id="g79620">
            <path
               inkscape:connector-curvature="0"
               id="path79622"
               style="fill:#000000;fill-opacity:1;fill-rule:nonzero;stroke:none"
               d="m 0,0 c -0.352,-0.646 -1.062,-0.966 -3.381,-1.835 -2.318,-0.87 -5.501,-2.425 -7.146,-4.25 -2.674,-2.962 -4.058,-6.182 -4.637,-8.017 -0.579,-1.835 0.095,-1.546 0.676,-1.546 0.58,0 3.283,0.484 5.988,-0.095 2.705,-0.581 7.438,-1.74 9.176,-9.37 1.738,-7.63 -1.449,-11.494 -4.443,-14.681 -2.995,-3.187 -10.431,-4.635 -14.392,-3.67 -3.959,0.967 -5.892,2.513 -8.789,6.086 -2.897,3.573 -4.635,12.362 -2.027,20.089 2.606,7.727 7.919,12.749 10.334,14.488 2.414,1.738 4.347,2.801 7.436,3.96 3.092,1.159 5.022,1.352 6.473,1.255 1.447,-0.096 2.897,-0.386 4.152,-0.965 0,0 1.159,-0.387 0.58,-1.449 m -13.426,-34.336 c 2.036,0 3.69,2.141 3.69,4.78 0,2.641 -1.654,4.782 -3.69,4.782 -2.037,0 -3.687,-2.141 -3.687,-4.782 0,-2.639 1.65,-4.78 3.687,-4.78" />
          </g>
          <g
             transform="translate(110.1647,721.5598)"
             id="g79624">
            <path
               inkscape:connector-curvature="0"
               id="path79626"
               style="fill:#ffffff;fill-opacity:1;fill-rule:nonzero;stroke:none"
               d="m 0,0 -3.054,3.443 c 0,0 -0.539,0.599 -0.179,1.078 0.358,0.479 2.575,2.754 4.252,4.91 1.675,2.156 2.873,4.252 2.873,4.252 0,0 0.299,0.359 1.018,0 0.719,-0.36 2.695,-1.138 4.61,-1.557 1.919,-0.419 4.673,-0.779 8.025,-0.599 3.354,0.18 6.468,1.079 7.426,1.378 0.958,0.299 1.438,0.658 1.796,-0.061 0.36,-0.718 0.6,-1.137 1.377,-2.574 0.779,-1.438 1.618,-2.874 1.618,-2.874 0,0 0.538,-0.54 -0.06,-1.139 C 29.104,5.658 26.288,2.964 25.09,1.466 23.894,-0.03 20.838,-4.101 19.403,-6.976 c -1.438,-2.876 -2.815,-7.187 -3.115,-9.043 -0.299,-1.856 -0.419,-5.449 0.06,-7.665 0.48,-2.215 0.029,-3.832 0.39,-4.55 0.358,-0.719 1.018,-1.258 -0.54,-1.019 -1.557,0.24 -3.982,1.019 -6.617,2.994 -2.634,1.977 -4.431,4.493 -4.191,8.684 0.239,4.19 3.293,9.162 5.389,12.035 2.095,2.875 4.251,5.21 5.21,6.288 0.958,1.078 2.214,2.037 0.899,2.515 C 15.569,3.743 12.276,3.982 10.06,3.682 7.845,3.383 5.51,2.485 3.952,1.587 2.394,0.689 1.857,0.15 1.377,-0.27 0.898,-0.689 0.598,-0.629 0,0" />
          </g>
          <g
             transform="translate(104.0192,718.6279)"
             id="g79628">
            <path
               inkscape:connector-curvature="0"
               id="path79630"
               style="fill:#000000;fill-opacity:1;fill-rule:nonzero;stroke:none"
               d="m 0,0 -3.284,3.702 c 0,0 -0.579,0.645 -0.192,1.16 0.386,0.515 2.769,2.962 4.571,5.28 1.802,2.317 3.091,4.571 3.091,4.571 0,0 0.323,0.386 1.094,0 0.773,-0.386 2.897,-1.223 4.958,-1.674 2.062,-0.451 5.022,-0.837 8.629,-0.644 3.605,0.193 6.953,1.159 7.984,1.481 1.031,0.322 1.546,0.708 1.932,-0.064 0.385,-0.773 0.643,-1.224 1.48,-2.769 0.839,-1.545 1.74,-3.09 1.74,-3.09 0,0 0.579,-0.58 -0.066,-1.223 -0.643,-0.644 -3.67,-3.542 -4.956,-5.152 -1.289,-1.609 -4.573,-5.988 -6.117,-9.08 -1.546,-3.089 -3.028,-7.725 -3.35,-9.721 -0.321,-1.996 -0.45,-5.861 0.064,-8.243 0.516,-2.383 1.096,-4.121 1.482,-4.894 0.386,-0.773 1.093,-1.352 -0.581,-1.094 -1.673,0.257 -5.344,1.094 -8.176,3.22 -2.834,2.125 -4.765,4.828 -4.508,9.335 0.258,4.509 3.542,9.853 5.795,12.943 2.254,3.091 4.572,5.602 5.603,6.762 1.03,1.159 2.382,2.189 0.966,2.703 C 16.743,4.025 13.201,4.283 10.818,3.96 8.436,3.638 5.924,2.672 4.249,1.707 2.575,0.74 1.996,0.161 1.481,-0.289 0.967,-0.74 0.645,-0.676 0,0" />
          </g>
          <g
             transform="translate(132.125,706.555)"
             id="g79632">
            <path
               inkscape:connector-curvature="0"
               id="path79634"
               style="fill:#000000;fill-opacity:1;fill-rule:nonzero;stroke:none"
               d="m 0,0 0,1.401 c 0,0 0.097,0.531 0.63,0.531 l 1.882,0 c 0,0 0.532,0.049 0.532,-0.628 l 0,-1.546 c 0,0 0.047,-0.434 -0.29,-1.062 C 2.415,-1.931 2.366,-2.319 1.981,-2.85 1.595,-3.381 1.353,-3.429 0.822,-3.333 c -0.533,0.098 -0.533,0.34 -0.339,1.014 0.194,0.678 0.29,1.112 0,1.546 C 0.194,-0.337 0,-0.242 0,0" />
          </g>
          <g
             transform="translate(148.6903,704.1888)"
             id="g79636">
            <path
               inkscape:connector-curvature="0"
               id="path79638"
               style="fill:#000000;fill-opacity:1;fill-rule:nonzero;stroke:none"
               d="m 0,0 0,-1.546 c 0,0 0.097,-0.531 -0.676,-0.337 -0.967,0.242 -1.787,0.579 -3.478,0.579 -1.69,0 -3.718,-0.773 -3.718,-2.029 0,-1.255 1.449,-1.931 4.251,-3.187 2.799,-1.255 5.022,-2.509 5.022,-4.925 0,-2.415 -1.835,-3.478 -2.85,-3.96 -1.014,-0.483 -3.043,-1.014 -5.311,-1.014 -2.271,0 -3.623,0.289 -4.348,0.58 -0.725,0.29 -0.626,0.385 -0.626,0.772 l 0,1.642 c 0,0 -0.147,0.579 0.868,0.242 1.014,-0.339 1.883,-0.677 3.718,-0.677 1.835,0 3.719,0.58 3.719,2.366 0,1.787 -2.27,2.415 -4.926,3.67 -2.656,1.256 -4.346,2.319 -4.346,4.395 0,2.077 1.883,3.671 4.056,4.25 2.173,0.58 5.167,0.483 6.616,0.193 C -0.58,0.725 -0.724,0.725 -0.387,0.579 -0.049,0.436 0,0.289 0,0" />
          </g>
        </g>
      </g>
    </g>
  </g>
</svg>
