<svg height="295.142974" viewBox="0 0 519.54 452.93" width="338.81884" xmlns="http://www.w3.org/2000/svg"><g transform="translate(-59.07 -147.55)"><path d="m187 148.16c-8.34 1.87-14.56 7.91-17.51 17l-.28.89-.14.92a83.25 83.25 0 0 0 -1.11 12.28c0 7 1.43 14.88 5.91 27.24-1 0-2-.1-3-.13-18.54-.5-29.73 3-35.22 10.91a18 18 0 0 0 -3.16 10.28 20.88 20.88 0 0 0 .34 3.49c-3.46 1.5-6.93 3.1-10.37 4.84l-21.79 10.95 14.33 5.72a82.59 82.59 0 0 0 -10.55 9.74l-10.84 14.24 25.91 4.37c2.67.06 5.9 3.33 5.38 5a59.65 59.65 0 0 0 -10.12 7.38l-.26.21a26.64 26.64 0 0 0 -15.32-7.64c-5.8-.68-14.72.56-24.21 10.37l.32-.32c-1.27 1.2-11.13 11-11.13 23.08a21.66 21.66 0 0 0 .62 5.17c1.58 6.44 5.85 11.56 12.62 15.38a50.26 50.26 0 0 0 -1.78 13c0 8.63 2.43 16.49 7 22a24.21 24.21 0 0 0 17 8.66 62.22 62.22 0 0 0 -5.49 7.88c-11.08 5.1-20.52 15-26.9 28.27a85.73 85.73 0 0 0 -8.18 36.66 73.48 73.48 0 0 0 3.27 21.87 79.74 79.74 0 0 0 -1.34 14.13c0 31.38 19 52.57 24.08 57.67 14.71 24.56 45 40.51 90.29 47.38a329.63 329.63 0 0 0 43.84 3.46c12.39.16 51.8-3.76 51.8-3.76s-69.58-36.18-82.22-57.49c4.1-6 7.68-25.21 7.74-28.64 13.67-13.13 19.82-27.54 19.85-38.78a44.46 44.46 0 0 0 13.24-15.08l.17-.27c14.13-3 27.54-12.93 36.71-21.23 41.74 21.92 81.26 42.28 92.92 48.28.15.3.29.61.44.9-.08.79-.19 1.6-.19 2.34a19.31 19.31 0 0 0 2.67 9.95c3.36 5.66 9.42 9.34 18 10.92a8.53 8.53 0 0 1 3.55 1.72 27.42 27.42 0 0 0 17.58 5.07c7.8 6.44 19.46 7.08 31.26 1.69l3.27.87.45.09c10 2 21.43 2.07 34.09.3h.14.14c42.87-7.13 89.49-32.68 91.46-33.76l3.11-1.71 13.21-28-4.6-5.43c-9.14-10.69-47.18-38.49-51.48-41.62l-5.76-4.19-6.18 3.54c-4.39 2.52-18.71 12.92-21.54 15l-.27.2-.27.22a226.61 226.61 0 0 1 -25.07 18.33c.08-1.25.12-2.47.12-3.67 0-9.13-2.14-16.38-6.37-21.63a21.83 21.83 0 0 0 -4.24-3.93 71.11 71.11 0 0 0 .74-9.17 33 33 0 0 0 -.19-3.62 22.29 22.29 0 0 0 -2.06-7.27 34.41 34.41 0 0 0 4.32-16.92c12.15-3.37 21.62-10.06 27.54-19.65 4.61-7.45 6.92-16.24 6.92-26.27a86 86 0 0 0 -3.21-21.84c3.36-6.93 5.22-16.59 5.22-26.25a63.28 63.28 0 0 0 -2.67-18.84c-7.59-23.76-26.92-21.92-36.22-21-1.61.16-3.87.37-5.66.38-10.25-22.52-27.69-28.35-41.3-26-.33.06-.57.16-.89.23l-4.72.24a123.41 123.41 0 0 0 -26.27-10.25c-8.27-21.83-17.83-33.31-29.84-35.9-6.41-1.38-16.27-.64-26.93 10.73l-.12.13c-.83.92-16.88 18.69-29.27 35.85-12.73-13.07-28.6-28.51-44.08-41.12-25.48-20.83-43.69-29.08-57.25-26.04z" fill="#fff"/><path d="m267.38 419.26s-21.72 24.36-42.12 27c-5.41.7-4.61 12.5-20.66 20 3.43 7.53-1.06 24.73-19.35 40.08 1.71 2.52-.65 23.29-10.59 32.47 0 0-3.32 14.77 63.12 50.47 0 0-113.48 7.42-143.86-46.47 0 0-27.69-26.15-19.13-65.5-10.29-27.6 1.49-68.76 27.53-77.4 1.93-5.22 20.34-35.3 53.9-24.88 0 0 19-44.45 34.26-37.74 0 .01 50.66 72.37 76.9 81.97z" fill="#231f20" stroke="#231f20" stroke-miterlimit="12" stroke-width="2.18"/><path d="m163.14 546.44s-27.39 7.75-53.06-.81c9.21 13.82 46.45 32.6 96.21 35.36 0 .01-27.2-10.75-43.15-34.55z" fill="#ffc425"/><path d="m432 342.13c46.05 64.36-46 64.64-38.76 64.7 33.4.27-89.78-11.68-104.23-2-21.93 14.64-23.92-21.37-48.75-7.26 1.82-.61-19.39 38.68-40.21 44.76-13.6 9.08-9.58 15.39-45.52 17.73-24.33 10.02 42.47-79.33 26.47-87.06-35.91-9.59 30.28-67.38 52.28-68.92 124.54-8.73 176.02 33.69 198.72 38.05z" fill="#231f20" stroke="#231f20" stroke-miterlimit="12" stroke-width="2.18"/><path d="m140.65 295.58c-.08.39-.15.78-.22 1.18-.75-.35-1.5-.67-2.24-.95.73-.1 1.56-.17 2.46-.23z" fill="#fff"/><path d="m310.62 255.51s-115.24-133.85-130.51-86.83c-1.75 12-4.87 16.29 8.87 47.81 0 0-58-7.23-42.89 18.54 0 0 20.92 32.51 43.78 33.3 0 0 61.89-.6 77.86 12.2s42.89-25.02 42.89-25.02z" fill="#231f20" stroke="#231f20" stroke-miterlimit="12" stroke-width="2.18"/><path d="m385.71 312.67s-16.88-171.51-59.71-125.74c0 0-26.94 29.72-37.52 48.71 0 0-36.71-37.79-38.64-12.79 0 0-14.08 41 2.45 52.5 0 0 46.95 28.91 48.6 47s84.82-9.68 84.82-9.68z" fill="#231f20" stroke="#231f20" stroke-miterlimit="12" stroke-width="2.18"/><path d="m284.13 263.41s-16.51-8.73-22.5-3.5c0 0-4.34-2.46-18.31-8.91-10.45-14.68-23.19-13.47-42.3-13.58l-23.02 14.17s-39.3-27.9-14.47-28.24a214 214 0 0 1 40 3.73c4.49 9.58-25.76-51.4-9.19-59.27 0 0 8.89-9.57 86.2 70.36.01 0 10.65 11.88 3.59 25.24z" fill="#b0b7bc"/><path d="m348.44 248.27s1.15-8.61 9.71-17c0 0-7.34-51.57-25.76-39.22 0 0-35.1 41.25-39 57 6.76 7.05 5 5.66 9.57 10.27-.04.01 36.2-11.32 45.48-11.05z" fill="#b0b7bc"/><path d="m451.27 458.56s15.53-4.42 44.41-28.35c0 0 16.44-12 20.53-14.32 0 0 41 29.86 49.6 39.88l-8.65 18.32s-46.46 25.64-88 32.55c-10.61 1.49-21 1.67-30.43-.19l-59.86-17.17s-7.12-3.42-10.78-13.65c0 0-214.9-110.28-218.73-118.23 0 0 263.07 27.79 285.21 34 21.94 1.42-9.81 43.16 16.7 67.16z" fill="#231f20" stroke="#231f20" stroke-miterlimit="12" stroke-width="2.18"/><path d="m301.35 261.94c-25.44-39.69-61.88-28.19-80.29-22.48-9.09-8.15-42.39-19.32-93.48 6.36a120 120 0 0 1 12.34 5.75c-12.74 5.09-20 10.42-27.21 18.29 14.85.42 21.39.17 30 2.17 0 0-8.58 15.83-9.84 29.8-1.85 20.47-39.32 23-25.16 33s208.96-48.97 193.64-72.89z" fill="#231f20" stroke="#231f20" stroke-miterlimit="12" stroke-width="2.18"/><path d="m439.08 249.14c-41.52-28.08-108.85-8.6-108.75 25.57l-12.45.26c-72-4.87-118.91 54.3-120.57 59.59-10.47.36 86.06 30.08 92.83 24.4 32-26.86 51.25 15.66 45.56 10.05-11.35-11.18 2.32-6.82 60.84-16.11 2.51-.4 26 7.27 28.36 8.13 3.05 1.11 12.71 5.11 22.43 3.51 24.26-4 39.76-22.31 28-60.06 5.22-6.11 8.42-26.1 3.93-40.13-7.77-24.35-28.8-7.52-40.18-15.21zm-78.52 66.35a4.13 4.13 0 0 0 -.19 1.07 3.21 3.21 0 0 1 .19-1.07z" fill="#231f20" stroke="#231f20" stroke-miterlimit="12" stroke-width="2.18"/><path d="m319.66 307.17c-.47.34-1 .65-1.43 1a11.36 11.36 0 0 1 1.43-1z" fill="#fff" stroke="#a7b1b7" stroke-width="3.42"/><path d="m292.47 410.27c.08.01.07 0 0 0z" fill="#ffc425" stroke="#0a0203" stroke-width=".28"/><path d="m320.21 380a1.27 1.27 0 0 1 .07-.12.22.22 0 0 0 -.07.12z" fill="#ffc425" stroke="#0a0203" stroke-width=".28"/><path d="m292.6 407.59a0 0 0 0 0 0 0c.08.01.07 0 0 0z" fill="#ffc425" stroke="#0a0203" stroke-width=".28"/><path d="m422.91 353.64c-9-1.69-18.22-5.54-22.32-4.85-187.12 37.21-123.86-35.25-94.25-63.26 10-10.24 11.61-3.83 34.06 13.27 33.93 24.55 62.34 38.58 87.27 45.75 36.35 9.15 40.3-17.16 36.5-41.78 0 0 26.13 63.45-41.26 50.87z" fill="#ffc425"/><path d="m396.09 342.74s-55.18-25.31-77.09-45.68c-15.24 1.83-30.63 31-31.65 32.89 0 0-21.84 38.67 96.32 17.83-.02 0 9.42-1.57 12.42-5.04z" fill="#231f20"/><path d="m385.54 342.38s-61.33-24.95-67.07-35.87c0 0-47.48 35.38-5.79 39.25 0 0 48.75 2.39 72.86-3.38z" fill="#fff"/><path d="m334.48 311.7s-34.4 30.48-31.62 34.28l38.14-30.43z" fill="#231f20"/><path d="m357.09 323s-24.87 24-23 26.73l29.69-22.34z" fill="#231f20"/><path d="m395.59 343.27c-92-14.89-82.92-14.31-99.2-21.2l-4.16 8.64s95.49 18.64 103.36 12.56z" fill="#231f20"/><path d="m407.78 310.44c-28.92.35-36.29-3.15-45.9-8.26-28.84-15.33 11.56-33.27 11.76-33.09 2.97 2.65-.92 7.97 34.14 41.35z" fill="#fff"/><path d="m386.51 287.09s-48.87 13.45 23.49 23.53c0 0-11.41-14.47-23.49-23.53z" fill="#231f20"/><path d="m190.67 323.25c15.09-7.5 30.64-3.37 35.94-7.31-.77 6.91 14.26 15.6 14.7 5.13-29.57-47 34.07-60.43 51.09-55.3-3.17-9.72-26.38-28.06-52-26.84-7.33-6.57-15.66 5.11-28.68 6.32-46.36-22.78-71.57 51.68-70.44 52.3a215.34 215.34 0 0 1 49.39 25.7z" fill="#ffc425"/><path d="m223.47 247.62c-27.42-18.05-52.84-13.3-78-1.78 0 0 34.69 6.73 31.41 16.68 0 0-1-2.7 7.86-1.34z" fill="#ffc425"/><path d="m189.37 258.74c-12.71-12-26.57-12-54.94 4.54 0 0 34 1.28 30.77 11.24 0 0-6.19-1.39 2.68 0z" fill="#ffc425"/><path d="m88.28 342.22c-4.09 14.71.08 31.63 15.66 30.19 2.19 3.42 7.18 4 14.48 2.8 5.88 8.81 13.65 1.88 17.33.62 0 0 12.23 2.48 19.75 3.27 0 0 38.1-16.58 26.75-22.64-10.35-5.52 9.29-3.52 11.51-11 0 0 16.73-15.3 11.93-22-3-4.19-18.56-13.6-36.57-20.78-36.67-17-40.88-9.69-54.39 4.33-17.06 17.65-23.38 22.54-26.45 35.21z" fill="#231f20" stroke="#231f20" stroke-miterlimit="12" stroke-width="2.18"/><path d="m229.08 393.58s-.13-.41-.28-1.14a1 1 0 0 0 .28 1.14z" fill="#fff"/><path d="m139 349.5s-31.71-18.5-43.12-9.11c0 0 8.91-22.23 21.17-23.4 40 9.93 40.7 15.74 39.1 17.37-5.15 5.24-17.15 15.14-17.15 15.14z" fill="#b0b7bc"/><path d="m136.5 359.46c-1.78 1.58-2.6 5.21-3.39 8.47-2.93 12.21-13.43-.72-13.43-3.93a15 15 0 0 1 7.3-14.6s17.81 2.6 9.52 10.06z" fill="#b0b7bc"/><path d="m117.05 368.09c-5.74 2.94-15-5.56-11.8-11.92 0 0 .41-8.4 7.47-11.62 0 0 11.4-.95 8.55 4.95s-8.27 11.29-4.22 18.59z" fill="#b0b7bc"/><path d="m192.35 325.81c-2.22 6.75-10.45 12.76-13.16 10.53-7.28-6-51.25-23.16-60.26-23.32 0 0 11.42-13.85 16.15-13.47 13 1 26.78 6.08 46 14.8 2.83 1.47 12.92 6.55 11.27 11.46z" fill="#b0b7bc"/><path d="m105.26 348.39c-2.38 2.22-1.73 15.64-2.87 15.92-10.8 2.61-9.27-13-8.22-14.12 0 0-.92-3.38 5.81-6.45 1.67-2.3 13.71-3.16 5.28 4.65z" fill="#b0b7bc"/><path d="m164.47 367.71-9.64 4.82c-24.75 3.69-5.19-11.83-5.19-11.83 3.44.57 14.83 7.01 14.83 7.01z" fill="#b0b7bc"/><path d="m125.87 310.67s31.78 9.57 40.4 16.39c0 0 8.9-6 10.71-9.58 0 0-15.85-9.75-41.45-15.37-1.79 1.73-3.24 2.45-9.66 8.56z" fill="#fff"/><path d="m115.76 318.94s-9.22 3.6-16.06 17.14c0 0 12.92-14.35 41.79 5.31 0 0 9.86-8.71 9.57-9.53 0 0-2.95-3.68-35.3-12.92z" fill="#fff"/><path d="m162.47 335.1s-20.15 17.12-19.47 18.35c0 0 2.54 1.75 7.89 2.63 0 0 20.08-17.6 21.73-17.11-5.11-2.12-6.49-3.29-10.15-3.87z" fill="#b0b7bc"/><path d="m92 345.9c.75.51-8.91 7.35 46.28 16l1.11 3.06s-45.45-5-47-14.09z" fill="#231f20"/><path d="m101.22 341.42s-5.1 2.11-6 5.24l6.82 3.15s3.64-6 5.12-7.12a8.57 8.57 0 0 0 -5.94-1.27z" fill="#fff"/><path d="m113 344.1s-5.42 3.22-6.36 6.35l8.06 2.16s4.37-5.31 5.84-6.42c.01 0-4.4-2.72-7.54-2.09z" fill="#fff"/><path d="m127 350a10.14 10.14 0 0 0 -5.91 6.4l9.2 2.15s3.68-4.78 5.17-5.9c.04.01-5.13-3.96-8.46-2.65z" fill="#fff"/><path d="m214.42 356.44s.31-20.76 3.6-27.34c0 0 2.63-9.88 14.23-14.88l21.27 16.61s-26.21 2.24-27.36 32.87c-9.67-5.52-11.74-7.26-11.74-7.26z" fill="#ffc425"/><path d="m172.61 344.23 226.3 115.55c15.09 9.22 48.09 12.22 53.68 10.52l50.41-36.52c6 1.84 33.8 26.85 47.65 36.33-9.69 4.55-69.14 37.9-103.56 31.41-4.63-.93-40-12.13-57.58-22.13l-231.08-123.61z" fill="#ffc425"/><path d="m518.25 487.67s30.72-4.75 23.6-9.56c-11.92-8.05-39.48-27.66-52.87-36.8l-46.47 27.28 23 23.52 11.8 10.74c6.91 4.86 41.98-15.44 40.94-15.18z" fill="#231f20"/><path d="m504.66 490.16 14.36-4s-45.37-30.35-45.13-29.67-9.91 7.06-9.06 6.25z" fill="#fff"/><path d="m524.32 482.47 9.95-4.37s-44.37-30.6-46.42-31.76c-2 2-5.65 3.87-9.05 6.42z" fill="#fff"/><path d="m480.41 498.74 16.69-5.41c-33.45-24.84-37-27.46-37.26-27.59s-10.56 3.75-10.56 3.75z" fill="#fff"/></g><path d="m457.09 276.32-10.53 6.58 49.36 36.86 3.94-10.61z" fill="#ffc425" stroke="#0a0203" stroke-width=".29"/><path d="m452.33 443c2.53-22.32-7.31-29.38-21.41-23.48-10.92.75-20.76 13.48-24.65 12.48 0 0-15.64 3.56 2.79 32.35a10.86 10.86 0 0 0 -2.36 2.89l-2.64-.72-7.88-4.08s-10.18-4.44-15.69 6.4c0 0-22.94 23.48 2.07 28.09 9 1.65 8.75 8.26 22.31 6.31a8.25 8.25 0 0 0 2 .94c7.27 9.45 23.84 3.09 31.64-4.83 9-1.13 16.55-7.91 18.27-13.84-.03 1.63 3.22-22.59-4.45-42.51z" fill="#231f20" stroke="#231f20" stroke-miterlimit="12" stroke-width="2.18" transform="translate(-59.07 -147.55)"/><path d="m441.14 493.64c-19.09.65-22.88-10.21-20.34-15.33s30.2-5.73 30.2-5.73c7.37 17.55-9.86 21.06-9.86 21.06z" fill="#b0b7bc" transform="translate(-59.07 -147.55)"/><path d="m436.42 489.15s-4.92-5.73-4.22-10.09c-3-1.48-9.23 1.56-9.23 1.56s.88 10.16 13.45 8.53z" fill="#fff" transform="translate(-59.07 -147.55)"/><path d="m449.31 456.26s1-10.35-5.22-11.43c-7.4 0-33.29 1.52-31.78 11.77l1 5.48s14.69-9.03 36-5.82z" fill="#b0b7bc" transform="translate(-59.07 -147.55)"/><path d="m447 441.21s2.81-17.86-7.84-18.38c-2.35-.47-18.36 1.77-64.51 14.86l32.72 11.48s19.36-9.17 39.63-7.96z" fill="#b0b7bc" transform="translate(-59.07 -147.55)"/><path d="m416.43 474s-7.2-8 4.57-11.9c0 0 26-6.42 29.2-.58l.58 6.42s-23.97.33-34.35 6.06z" fill="#ffc425" transform="translate(-59.07 -147.55)"/><path d="m345.47 308.49-20.93-10.29 12.06 2.36 9.72 3.41z" fill="#b0b7bc"/><path d="m427.17 427.06-44.17 10.81 9 2.79s38.9-12.5 49.73-10.21c.06 0 3.79-8.64-14.56-3.39z" fill="#fff" transform="translate(-59.07 -147.55)"/><path d="m427.41 449v4.38s-7.29 1.17-11.28 4.1c-.69.83-6.23-7.05 11.28-8.48z" fill="#fff" transform="translate(-59.07 -147.55)"/><path d="m426 463a29 29 0 0 0 .59 3.79 31 31 0 0 0 -7.88 2.92 3.3 3.3 0 0 1 -.21-4.66s4.39-2.52 7.5-2.05z" fill="#fff" transform="translate(-59.07 -147.55)"/><path d="m116 315.27s-12.41-32.49-32.94-11.27c0 0-23.66 22.47 11.88 30.37 0-.01 6.82-18.9 21.06-19.1z" fill="#231f20" stroke="#231f20" stroke-miterlimit="12" stroke-width="2.18" transform="translate(-59.07 -147.55)"/><path d="m99.6 316.86 5.62-7s-2.68-6.77-8.3-7.1c-6.59-.66-9.88 6.58-9.88 6.58z" fill="#fff" transform="translate(-59.07 -147.55)"/><path d="m329.93 315.96-225.78-115.7" fill="#ffc425" stroke="#231f20" stroke-width="1.74"/><path d="m199.59 296.19c-2.88 19.86 15.14 23 28.19 17.43l3.4 8-34 .56s-3.09-2.59-7.64-9.82c.17-2.36 9.1-9.62 10.05-16.17z" fill="#231f20" transform="translate(-59.07 -147.55)"/><path d="m275.28 240.9c-27-4.77-62.43-6.89-89 29.84 0 0 15-29.07 28.59-34-.01-.04 34.44-14.05 60.41 4.16z" fill="#231f20" transform="translate(-59.07 -147.55)"/><path d="m438.93 277.1s-45-17.05-86.65-27c-16.51-1.84-26.38-4-39.9-5.83 0 0 27.44-16.06 94.55-18.74 0 0 25.45-8.12 35.37 32.46 0 .01 10.1 22.59-3.37 19.11z" fill="#231f20" stroke="#231f20" stroke-miterlimit="12" stroke-width="2.18" transform="translate(-59.07 -147.55)"/><path d="m385.18 251.32s1-20.83-69.4-32.6c0 0 15.46-11.4 52.34-4.41 0 0 45.82 9.28 52.17 37.78 0 0-17.46 2.73-35.11-.77z" fill="#231f20" stroke="#231f20" stroke-miterlimit="12" stroke-width="2.18" transform="translate(-59.07 -147.55)"/><path d="m436.15 264.78c1.16-4.61-7.72-29.95-16.73-31.77 1.06-.37-65.44 1.05-88.56 9.05 7.92 2.62 82.63-4.52 87.62.64 6.73 8.18 10.8 22.41 10.81 22.73 0 0 5.71 3.98 6.86-.65z" fill="#ffc425" transform="translate(-59.07 -147.55)"/><path d="m424.7 273.44c1.81-7.93-21.17-35.67-34.22-42.33 1.19-.23-33.66-18.13-53-12.83 10 3.28 43.12 7.57 50.75 20.7 9.71 8.42 25.7 29.63 25.77 29.93.05 0 8.89 12.45 10.7 4.53z" fill="#ffc425" transform="translate(-59.07 -147.55)"/><path d="m419 309.87s6.9-5 3.75-15c-15-11.24-12.56-10-22.51-28-4.92-13.24-19.69-34.1-55.95-4.7 0 0-10 16.29-.52 20.87 8.71-4.54 8.66-5.3 9.57-7.55-2.8-9 23.34-26.68 33.82-1.64-.04-.01 14.18 30.09 31.84 36.02z" fill="#ffc425" transform="translate(-59.07 -147.55)"/><path d="m390.31 294.77s-7.64 1.36-2.66 5.06c0 0-12.11-4.1 0-8.35z" fill="#fff" transform="translate(-59.07 -147.55)"/><path d="m278.67 391.07 19.33 8.29s72-5.94 99-33.41c0 .05-31.7 19.68-118.33 25.12z" fill="#ffc425" transform="translate(-59.07 -147.55)"/><path d="m456.27 275.78s18.54 4.2 0 25.07c0 0 .25 9.72-19.71 8.47-.02 0 14.31-13.94 19.71-33.54z" fill="#fff" transform="translate(-59.07 -147.55)"/><path d="m460.2 302.92s-3.57 3.93-14.46 3.14c0 0 4-9.09 8.07-13.89 7.8-11.17 11.37-2.3 6.39 10.75z" fill="#231f20" transform="translate(-59.07 -147.55)"/><path d="m334.56 400.21a158.47 158.47 0 0 1 -28.9 4.08l54.34 28.62c-2.26-2.74-7.2-8.93-4.65-12.39-10.8-5.58-18.85-17.45-20.79-20.31z" fill="#fff" transform="translate(-59.07 -147.55)"/><path d="m213.52 324s-6.92 2.83-6.33 29.15l-20.11-9.27s19.41-18.19 13.17-22.68c0 0 3.64 4.55 13.27 2.8z" fill="#fff" transform="translate(-59.07 -147.55)"/><path d="m473.52 267.4c-4.75-14.65-28.87-14.42-33 7.2-3.31 11.06-5.28 15.06-8.62 16.65-7.48 11.06-2.95 16.72-2.95 16.72 12.75-8.85 25.1-37.41 25.1-37.41 14.74-14.52 16.8 11.6 17 12.1-.28 10.9-9.41 25.36-14.76 28l9.88-3.29s15.11-23.03 7.35-39.97z" fill="#ffc425" transform="translate(-59.07 -147.55)"/><path d="m458.84 292s-.18 4.69-3.06 7.5c0 0 3.3-1.4 4.88-6.56z" fill="#fff" transform="translate(-59.07 -147.55)"/><path d="m178.17 324.72s-23.85-12.59-28.83-11.37a23.3 23.3 0 0 0 -9 5.22s33.17 12 35.55 14.47c.01-.04-2.84-3.42 2.28-8.32z" fill="#b0b7bc" transform="translate(-59.07 -147.55)"/><path d="m430 389c12.92-14.59 2-27.14 3.29-23 3.46 11.1-17.63 30.33-52.19 22-11.63 7.19-30.24 11.57-36.85 11.35 1.48 7.1 11.33 15.62 18.18 15.64-1.48 7.16.33 8.6 9.83 18.58 0 0 37.33-13 55.76-14.29 2.76-13.82.58-20.62-12.82-17.3 7.59-4.31 19.28 1.29 14.8-12.98z" fill="#ffc425" stroke="#0a0203" stroke-width=".29" transform="translate(-59.07 -147.55)"/><path d="m438.09 380.14s-20.09 24.31-62.94 30.58c14 .58 51.41-12.26 57.63-6.79z" fill="#231f20" transform="translate(-59.07 -147.55)"/><path d="m208.41 388.28s-10.91 32.3 46.92 24c0-.01-48.65-20.41-46.92-24z" fill="#231f20" transform="translate(-59.07 -147.55)"/><path d="m196.31 466.27s-72.41 20.12-94-56.67c0 0-31.92 15.62-19.88 64.29 0 0 37.85 47.67 97.36 25.36.01 0 24.34-17.36 16.52-32.98z" fill="#ffc425" transform="translate(-59.07 -147.55)"/><path d="m222.29 412.49c-3.52-4.57-8.82-11.77-7.26-17.22l-24.4-14a114.87 114.87 0 0 0 -42.81 1.85c-4 7.82 16.44 51.05 67.85 55.54 0 0 36.38-8 40.52-24.62 0-.04-15.14 5.02-33.9-1.55z" fill="#ffc425" transform="translate(-59.07 -147.55)"/><path d="m407.85 472.61c-7.89 3.95-26.61 28.26-2.91 25.63a70.5 70.5 0 0 0 8.55-14.48s-5.64-5.88-5.64-11.15z" fill="#b0b7bc" transform="translate(-59.07 -147.55)"/><path d="m393.51 467.15s-5.67-1.59-7.49 1.35-20.79 25.43 2 21.92l9.61-14s6.23-7.89-4.12-9.27z" fill="#b0b7bc" transform="translate(-59.07 -147.55)"/><path d="m416.82 487-6 11.26s7 10.93 15.52-.31a20.74 20.74 0 0 1 -9.52-10.95z" fill="#b0b7bc" transform="translate(-59.07 -147.55)"/></svg>