<?xml version="1.0" encoding="UTF-8" standalone="no"?>
<!-- Created with Inkscape (http://www.inkscape.org/) -->

<svg
   xmlns:dc="http://purl.org/dc/elements/1.1/"
   xmlns:cc="http://creativecommons.org/ns#"
   xmlns:rdf="http://www.w3.org/1999/02/22-rdf-syntax-ns#"
   xmlns:svg="http://www.w3.org/2000/svg"
   xmlns="http://www.w3.org/2000/svg"
   xmlns:sodipodi="http://sodipodi.sourceforge.net/DTD/sodipodi-0.dtd"
   xmlns:inkscape="http://www.inkscape.org/namespaces/inkscape"
   width="302"
   height="302"
   viewBox="0 0 302 302"
   id="svg93103"
   version="1.1"
   inkscape:version="0.91 r13725"
   sodipodi:docname="soo greyhounds.svg">
  <defs
     id="defs93105">
    <clipPath
       id="clipPath70592"
       clipPathUnits="userSpaceOnUse">
      <path
         inkscape:connector-curvature="0"
         id="path70594"
         d="m 120.586,345.797 28.769,0 0,28.212 -28.769,0 0,-28.212 z" />
    </clipPath>
  </defs>
  <sodipodi:namedview
     id="base"
     pagecolor="#ffffff"
     bordercolor="#666666"
     borderopacity="1.0"
     inkscape:pageopacity="0.0"
     inkscape:pageshadow="2"
     inkscape:zoom="0.51598204"
     inkscape:cx="372.04724"
     inkscape:cy="526.1811"
     inkscape:document-units="px"
     inkscape:current-layer="layer1"
     showgrid="false"
     inkscape:window-width="1280"
     inkscape:window-height="744"
     inkscape:window-x="-4"
     inkscape:window-y="-4"
     inkscape:window-maximized="1"
     units="px" />
  <metadata
     id="metadata93108">
    <rdf:RDF>
      <cc:Work
         rdf:about="">
        <dc:format>image/svg+xml</dc:format>
        <dc:type
           rdf:resource="http://purl.org/dc/dcmitype/StillImage" />
        <dc:title></dc:title>
      </cc:Work>
    </rdf:RDF>
  </metadata>
  <g
     inkscape:label="Layer 1"
     inkscape:groupmode="layer"
     id="layer1"
     transform="translate(0,-750.36216)">
    <g
       id="g93306"
       transform="matrix(8.5073198,0,0,8.5073198,-5199.4314,-4867.2506)">
      <g
         transform="matrix(1.25,0,0,-1.25,611.28905,678.0764)"
         id="g70620">
        <path
           inkscape:connector-curvature="0"
           id="path70622"
           style="fill:#cf2029;fill-opacity:1;fill-rule:nonzero;stroke:none"
           d="M 0,0 C 0,7.79 6.315,14.106 14.105,14.106 21.896,14.106 28.211,7.79 28.211,0 28.211,-7.791 21.896,-14.106 14.105,-14.106 6.315,-14.106 0,-7.791 0,0" />
      </g>
      <g
         transform="matrix(1.25,0,0,-1.25,632.17467,669.26353)"
         id="g70624">
        <path
           inkscape:connector-curvature="0"
           id="path70626"
           style="fill:#ffffff;fill-opacity:1;fill-rule:evenodd;stroke:none"
           d="M 0,0 C -0.882,0.339 -0.986,0.927 -0.695,1.684 L 0.216,4.058 C 0.474,4.731 0.944,5.277 1.887,4.915 2.774,4.575 2.879,3.986 2.589,3.23 L 1.677,0.855 C 1.419,0.181 0.949,-0.364 0,0 M -2.733,0.473 C -3.677,0.457 -3.994,0.964 -4.009,1.774 l -0.044,2.543 c -0.013,0.721 0.218,1.403 1.228,1.421 0.95,0.016 1.268,-0.49 1.282,-1.301 L -1.499,1.894 C -1.486,1.173 -1.717,0.491 -2.733,0.473 m -0.08,4.571 C -3.061,5.04 -3.216,4.87 -3.208,4.387 l 0.046,-2.641 c 0.007,-0.411 0.19,-0.583 0.417,-0.579 0.234,0.004 0.409,0.183 0.402,0.594 l -0.046,2.64 C -2.398,4.883 -2.558,5.048 -2.813,5.044 M 1.638,4.268 C 1.406,4.357 1.199,4.257 1.026,3.807 L 0.08,1.341 C -0.067,0.957 0.037,0.728 0.248,0.647 0.467,0.564 0.697,0.664 0.844,1.048 l 0.947,2.465 c 0.172,0.45 0.086,0.663 -0.153,0.755 m -6.996,-4.316 c -0.619,-0.238 -1.181,-0.145 -1.427,0.495 l -0.242,0.63 0.791,0.303 0.174,-0.454 C -5.948,0.628 -5.788,0.53 -5.587,0.607 -5.304,0.716 -5.289,0.921 -5.408,1.215 -5.601,1.696 -5.597,1.696 -6.524,2.103 -7.1,2.359 -7.513,2.34 -7.874,3.284 -8.182,4.09 -7.934,4.602 -7.186,4.89 -6.818,5.031 -6.5,5.012 -6.27,4.921 -5.891,4.766 -5.742,4.176 -5.613,3.84 L -6.364,3.551 -6.534,3.992 C -6.626,4.234 -6.761,4.31 -6.964,4.232 -7.176,4.15 -7.241,4.01 -7.113,3.665 -6.956,3.237 -6.885,3.216 -6.051,2.822 -5.152,2.4 -4.993,2.372 -4.699,1.614 -4.403,0.852 -4.535,0.268 -5.358,-0.048" />
      </g>
      <g
         transform="matrix(1.25,0,0,-1.25,642.55492,678.6749)"
         id="g70628">
        <path
           inkscape:connector-curvature="0"
           id="path70630"
           style="fill:#ffffff;fill-opacity:1;fill-rule:evenodd;stroke:none"
           d="M 0,0 0.051,0.023 C 0.188,-0.085 0.37,-0.136 0.54,-0.182 l 0.011,-0.034 c -0.284,-0.039 -0.625,0.04 -0.801,0.267 0,0.029 -0.057,0.046 -0.028,0.074 C -0.182,0.091 -0.068,0.08 0,0 m -19.937,0.756 c -0.006,-0.079 -0.091,-0.079 -0.148,-0.102 -0.273,-0.216 -0.551,-0.473 -0.841,-0.649 -0.233,-0.273 -0.529,-0.363 -0.836,-0.516 -0.142,-0.029 -0.318,-0.006 -0.409,0.125 0.051,0.102 0.176,0.176 0.296,0.17 0.057,0.114 0.085,0.273 0.216,0.318 0.165,-0.005 0.244,0.132 0.38,0.165 0.279,0.211 0.501,0.563 0.921,0.512 0.154,-0.006 0.29,0.017 0.421,-0.023 m 0.551,0.307 c 0.256,-0.034 0.574,-0.011 0.779,-0.204 -0.154,-0.052 -0.267,0.096 -0.432,0.074 C -19.158,1 -19.284,0.966 -19.42,1 c -0.074,-0.034 -0.131,0.035 -0.204,0.035 -0.211,0.005 -0.449,-0.012 -0.666,0 0.177,0.113 0.472,0.079 0.666,0.068 0.084,-0.029 0.165,0.023 0.238,-0.04 m 0.796,0.626 c -0.04,-0.097 -0.176,-0.08 -0.267,-0.126 -0.296,-0.125 -0.586,-0.17 -0.926,-0.193 0.05,0.159 0.255,0.205 0.363,0.329 0.216,0.194 0.426,-0.062 0.665,-0.022 0.056,0.006 0.103,-0.006 0.165,0.012 m 5.291,0.841 c 0.034,-0.035 -0.028,-0.017 -0.011,-0.052 -0.136,-0.034 -0.25,-0.164 -0.387,-0.215 -0.278,-0.097 -0.392,-0.393 -0.636,-0.564 -0.279,-0.34 -0.665,-0.693 -1.097,-0.766 -0.04,0.05 -0.086,-0.012 -0.131,-0.012 -0.063,0.022 -0.131,0.045 -0.176,0.091 0.136,0.125 0.273,0.262 0.358,0.42 0.347,0.302 0.654,0.603 1.074,0.796 0.284,0.148 0.591,0.234 0.904,0.307 l 0.102,-0.005 z m 7.445,0.937 c 0.017,-0.096 0.148,-0.034 0.131,-0.142 -0.028,-0.034 -0.08,-0.079 -0.131,-0.062 -0.045,0.045 -0.074,0.102 -0.142,0.09 -0.193,0.143 -0.42,0.177 -0.636,0.256 0.022,0.057 0.085,0.063 0.136,0.075 0.25,0.016 0.426,-0.137 0.642,-0.217 m -1.137,0.347 c 0.052,0.006 0.08,-0.04 0.052,-0.08 L -6.991,3.706 c -0.25,0.102 -0.511,0.21 -0.784,0.222 L -7.826,3.962 C -7.627,4.166 -7.36,3.95 -7.132,3.928 l 0.141,-0.114 z m 1.416,0.79 c 0.244,0.051 0.517,0.04 0.767,-0.028 0.312,0.006 0.648,0.13 0.961,0 0.113,-0.04 0.301,0.045 0.369,-0.074 C -3.523,4.308 -3.665,4.172 -3.831,4.07 -3.865,4.036 -3.904,4.007 -3.887,3.962 c 0.21,0.011 0.454,0.028 0.619,0.182 0.074,0.017 0.103,-0.057 0.153,-0.074 0.103,-0.04 0.217,-0.057 0.302,0.022 -0.017,0.143 -0.171,0.069 -0.256,0.103 L -3.143,4.246 C -3.103,4.337 -2.91,4.161 -2.847,4.274 -2.87,4.371 -2.865,4.502 -2.978,4.53 -3.194,4.49 -3.313,4.252 -3.49,4.166 c -0.023,0.086 0.108,0.069 0.12,0.159 0.023,0.137 0.068,0.279 0.199,0.342 0.204,0.028 0.341,-0.154 0.528,-0.137 0,0.028 0.046,0.034 0.034,0.063 -0.045,0.017 -0.113,0.011 -0.125,0.062 0.018,0.08 0.125,0.057 0.182,0.103 0.301,0.017 0.535,-0.188 0.841,-0.176 0.029,-0.063 -0.142,-0.12 -0.011,-0.171 0.165,-0.086 0.256,0.21 0.393,0.017 C -1.324,4.411 -1.296,4.382 -1.324,4.359 -1.409,4.291 -1.597,4.337 -1.568,4.172 -1.483,4.109 -1.29,4.229 -1.329,4.053 -1.29,4.047 -1.25,4.013 -1.21,4.042 c 0.056,0.05 0.039,0.13 0.102,0.176 0.057,0 0.085,-0.063 0.125,-0.097 0.284,-0.04 0.551,-0.176 0.807,-0.313 C -0.023,3.751 0.068,3.524 0.256,3.581 0.29,3.552 0.284,3.502 0.284,3.456 0.239,3.365 0.136,3.382 0.068,3.365 0.063,3.234 -0.023,3.121 -0.136,3.07 -0.352,3.035 -0.562,3.047 -0.79,3.058 -0.943,3.183 -1.154,3.098 -1.324,3.149 -1.46,3.132 -1.529,3.007 -1.659,2.967 -1.847,2.927 -2.069,2.956 -2.245,2.979 -2.319,3.041 -2.427,3.03 -2.506,3.092 -2.79,3.28 -2.95,3.677 -3.336,3.632 L -3.37,3.592 C -3.302,3.502 -3.137,3.564 -3.052,3.467 -3.006,3.405 -2.955,3.388 -2.938,3.314 -3.029,3.212 -3.183,3.308 -3.296,3.234 -3.808,3.178 -4.257,2.905 -4.512,2.456 -4.569,2.393 -4.49,2.348 -4.546,2.279 l 0.022,-0.016 c 0.12,0.028 0.102,0.255 0.244,0.153 0.245,-0.273 0.262,-0.717 0.637,-0.881 0.29,-0.176 0.648,-0.057 0.961,-0.012 0.096,-0.028 0.21,0.023 0.306,-0.039 0.296,0.034 0.586,-0.097 0.83,-0.228 L -1.535,1.205 C -1.546,1.211 -1.551,1.205 -1.557,1.2 -1.796,1.308 -2.04,1.143 -2.301,1.239 -2.347,1.222 -2.364,1.222 -2.404,1.239 -2.853,1.245 -3.364,1.114 -3.831,1.251 -4.035,1.222 -4.228,1.387 -4.393,1.484 -4.569,1.609 -4.615,1.825 -4.7,2.007 -4.66,2.149 -4.802,2.234 -4.808,2.382 -4.91,2.478 -4.887,2.643 -5.035,2.7 L -5.058,2.774 C -5.166,2.944 -5.354,3.07 -5.547,3.098 -5.575,3.075 -5.535,3.03 -5.519,2.996 -5.348,2.859 -5.166,2.751 -5.047,2.558 -5.024,2.365 -4.842,2.268 -4.842,2.069 -4.74,2.018 -4.859,1.933 -4.802,1.87 -4.734,1.745 -4.694,1.62 -4.598,1.512 -4.484,1.427 -4.416,1.251 -4.245,1.251 -3.932,1.063 -3.523,1.074 -3.154,1.126 -2.54,1.057 -1.955,1.268 -1.375,1.063 -0.676,1.006 0.006,0.716 0.591,0.284 0.869,0.142 1.183,0.057 1.512,0.074 1.671,0.08 1.768,-0.056 1.921,-0.062 1.972,-0.125 2.108,-0.13 2.075,-0.244 1.961,-0.415 1.733,-0.381 1.574,-0.472 1.427,-0.397 1.205,-0.454 1.063,-0.335 0.875,-0.25 0.671,-0.187 0.489,-0.079 0.284,-0.056 0.171,0.114 -0.034,0.142 L -0.955,0.483 C -1.29,0.625 -1.665,0.62 -2.017,0.688 -2.234,0.716 -2.467,0.665 -2.682,0.728 -2.819,0.609 -2.984,0.751 -3.12,0.643 -3.2,0.688 -3.256,0.563 -3.336,0.637 -3.836,0.546 -4.319,0.273 -4.853,0.319 -5.149,0.387 -5.229,0.751 -5.496,0.881 -5.524,0.893 -5.541,0.864 -5.558,0.847 -5.422,0.699 -5.337,0.546 -5.211,0.398 -5.229,0.387 -5.217,0.364 -5.217,0.347 -5.41,0.336 -5.547,0.506 -5.678,0.625 -5.86,0.898 -6.121,1.137 -6.326,1.37 -6.542,1.563 -6.803,1.683 -7.07,1.768 -7.206,1.739 -7.377,1.831 -7.513,1.768 -7.468,1.694 -7.383,1.745 -7.309,1.711 -6.865,1.666 -6.542,1.416 -6.251,1.063 -6.28,0.904 -6.568,0.757 -6.805,0.695 -7.102,0.591 -7.349,0.648 -7.451,0.614 -7.712,0.575 -7.939,0.609 -8.218,0.625 -8.44,0.677 -8.673,0.716 -8.872,0.83 c -0.21,0.097 -0.346,0.199 -0.551,0.307 -0.239,0.199 -0.5,0.347 -0.756,0.5 -0.25,0.25 -0.591,0.284 -0.864,0.489 -0.125,0.023 -0.216,0.119 -0.335,0.153 -0.449,0.199 -0.926,0.33 -1.444,0.358 -0.284,-0.028 -0.557,0.029 -0.835,-0.051 C -13.879,2.581 -14.049,2.439 -14.26,2.405 -14.282,2.314 -14.401,2.37 -14.436,2.291 -14.76,2.109 -15.089,1.927 -15.357,1.637 l -0.028,0 c -0.102,-0.148 -0.261,-0.278 -0.341,-0.437 -0.29,-0.29 -0.557,-0.671 -0.938,-0.842 -0.477,-0.199 -1.051,-0.034 -1.517,0.125 -0.097,0.012 -0.17,0.092 -0.273,0.092 -0.153,0.09 -0.329,0.141 -0.483,0.232 -0.347,0.046 -0.665,0.126 -1.012,0.091 -0.227,0.029 -0.403,-0.039 -0.647,-0.017 -0.29,0 -0.575,-0.068 -0.836,-0.165 -0.312,-0.249 -0.648,-0.539 -1.012,-0.693 -0.096,-0.136 -0.25,-0.131 -0.352,-0.25 -0.227,-0.062 -0.438,-0.233 -0.693,-0.256 -0.08,0.006 -0.165,-0.011 -0.216,0.052 -0.063,0.05 -0.051,0.147 -0.017,0.215 0.176,0.16 0.386,0.296 0.619,0.341 0.12,0.029 0.233,0.068 0.33,0.154 0.136,0 0.205,0.165 0.318,0.233 0.267,0.222 0.574,0.352 0.835,0.591 0.103,0.188 0.325,0.335 0.557,0.341 0.501,-0.006 1.012,-0.256 1.552,-0.165 0.284,0.017 0.534,0.114 0.79,0.193 0.069,0.063 0.182,0.035 0.233,0.126 0.25,0.045 0.443,0.215 0.676,0.307 0.226,0.19 0.552,0.545 0.574,0.59 0.188,0.142 0.29,0.358 0.512,0.449 0.267,0.341 0.608,0.58 0.983,0.779 -0.583,0.077 -1.824,-0.241 -2.609,-0.347 -0.419,-0.056 -0.858,-0.142 -1.245,-0.267 -0.846,-0.131 -1.676,-0.363 -2.54,-0.295 -0.324,-0.085 -0.557,0.039 -0.892,0.011 -0.261,0.068 -0.557,-0.028 -0.767,0.171 -0.023,0.091 -0.023,0.136 0.011,0.216 0.205,0.068 0.443,0.011 0.643,-0.029 0.403,0.046 0.852,-0.051 1.25,0.04 0.199,-0.034 0.414,0.023 0.625,0.028 0.074,0.052 0.21,0.029 0.307,0.063 0.5,0.068 0.978,0.216 1.483,0.289 0.102,0.057 0.239,0.052 0.358,0.081 0.279,0.079 0.529,0.13 0.819,0.193 0.921,0.232 1.754,0.382 2.743,0.325 0.25,0.068 0.65,-0.076 0.906,0.016 0.653,0.198 1.335,0.352 2.017,0.46 0.517,0.051 1.04,0.005 1.535,0.017 0.193,-0.028 0.392,-0.056 0.568,-0.131 0.324,-0.085 0.671,-0.142 1.006,-0.074 0.239,0.074 0.494,0.097 0.716,0.216 0.466,0.074 0.909,0.154 1.381,0.154 0.222,0.046 0.432,-0.057 0.665,-0.051 0.404,-0.046 0.795,-0.154 1.188,-0.205" />
      </g>
      <g
         transform="matrix(1.25,0,0,-1.25,643.8483,683.36565)"
         id="g70632">
        <path
           inkscape:connector-curvature="0"
           id="path70634"
           style="fill:#ffffff;fill-opacity:1;fill-rule:evenodd;stroke:none"
           d="m 0,0 c -0.297,-0.893 -1.211,-0.46 -1.799,-0.264 l 0.193,0.581 C -1.479,0.276 -0.725,-0.06 -0.63,0.225 -0.57,0.406 -0.715,0.526 -1.038,0.634 -1.424,0.763 -1.547,0.795 -2.381,0.543 -2.905,0.387 -3.387,0.264 -4.054,0.486 c -0.791,0.263 -1.089,0.654 -0.905,1.21 0.091,0.271 0.287,0.425 0.485,0.493 0.329,0.109 0.9,-0.137 1.201,-0.238 L -3.457,1.398 -3.893,1.543 c -0.272,0.09 -0.396,0.046 -0.437,-0.077 -0.043,-0.13 0.017,-0.248 0.391,-0.372 0.307,-0.102 0.506,-0.125 1.277,0.088 0.832,0.231 1.105,0.24 1.696,0.043 C -0.217,0.976 0.202,0.608 0,0 m -1.643,-3.096 -0.446,-0.628 -4.204,2.988 0.492,0.69 c 0.498,0.703 0.904,0.482 2.081,-0.354 l 1.221,-0.868 c 1.046,-0.743 1.34,-1.147 0.856,-1.828 m -3.213,-0.945 -2.166,2.618 0.45,0.373 3.287,-3.973 -0.632,-0.523 -2.584,2.389 2.224,-2.687 -0.427,-0.354 -3.288,3.974 0.609,0.503 2.527,-2.32 z m -3.969,1.43 0.566,0.235 1.521,-3.654 c 0.224,-0.538 0.329,-1.207 -0.342,-1.485 -0.674,-0.281 -1.076,0.263 -1.3,0.802 l -1.521,3.654 0.566,0.235 1.567,-3.763 c 0.129,-0.311 0.251,-0.386 0.431,-0.311 0.175,0.073 0.209,0.212 0.079,0.523 l -1.567,3.764 z m -1.581,-5.775 c -0.679,-0.09 -0.949,0.406 -1.053,1.181 l -0.337,2.521 c -0.092,0.69 -0.027,1.396 0.696,1.492 0.683,0.091 0.954,-0.404 1.057,-1.18 l 0.337,-2.522 c 0.092,-0.689 0.027,-1.395 -0.7,-1.492 m -3.764,0.129 -0.606,0.09 0.753,5.101 0.606,-0.09 -0.315,-2.137 0.517,-0.077 0.316,2.137 0.606,-0.089 -0.752,-5.102 -0.607,0.09 0.334,2.261 -0.518,0.077 -0.334,-2.261 z m -1.753,3.919 1.187,1.554 0.508,-0.231 -1.887,-2.48 -0.875,-1.929 -0.559,0.254 0.875,1.929 0.628,3.051 0.562,-0.255 -0.439,-1.893 z m -3.502,-1.709 -1.122,0.922 3.272,3.984 1.123,-0.922 -0.452,-0.549 -0.648,0.533 -0.92,-1.12 0.611,-0.502 -0.451,-0.549 -0.611,0.501 -0.999,-1.216 0.648,-0.533 -0.451,-0.549 z m 0.763,5.496 -0.1,0.139 -1.258,-0.901 c 0.312,-0.435 0.482,-0.196 0.903,0.105 0.308,0.221 0.456,0.337 0.512,0.425 0.04,0.064 0.03,0.11 -0.057,0.232 m -1.212,-1.497 c 0.07,-0.278 -0.104,-0.507 -0.439,-0.746 -0.362,-0.26 -1.056,-0.714 -1.439,-1.078 l -0.334,0.466 c 0.111,0.17 0.209,0.246 0.374,0.364 l 0.923,0.662 c 0.364,0.259 0.435,0.314 0.192,0.654 L -22.376,-3 l -0.357,0.499 4.192,3.001 c 0.812,-1.133 1.127,-1.242 -0.196,-2.191 -0.489,-0.349 -0.787,-0.503 -1.137,-0.357 m 8.862,-1.807 c -0.369,-0.049 -0.169,-0.798 0.166,-3.31 0.107,-0.799 0.654,-0.722 0.548,0.073 -0.327,2.452 -0.331,3.288 -0.714,3.237 m 5.731,3.315 -0.077,-0.109 3.045,-2.163 0.099,0.139 c 0.166,0.235 0.065,0.405 -0.663,0.921 l -1.408,1.001 c -0.623,0.443 -0.797,0.491 -0.996,0.211 m -14.326,1.092 -0.489,-0.184 -0.216,0.574 c 0.171,0.064 0.793,0.248 0.689,0.525 -0.054,0.144 -0.291,0.183 -0.814,-0.012 -2.146,-0.807 -2.97,-1.012 -2.839,-1.36 0.036,-0.095 0.082,-0.171 0.119,-0.222 l 1.281,0.481 -0.114,0.301 0.665,0.251 0.329,-0.876 -2.468,-0.928 c -0.176,0.218 -0.341,0.501 -0.439,0.762 -0.239,0.636 0.183,1.011 0.915,1.287 l 2.381,0.894 c 0.883,0.332 1.369,0.298 1.612,-0.347 0.198,-0.526 0.015,-0.91 -0.612,-1.146" />
      </g>
      <g
         transform="matrix(1.25,0,0,-1.25,637.11217,667.10115)"
         id="g70636">
        <path
           inkscape:connector-curvature="0"
           id="path70638"
           style="fill:#ffffff;fill-opacity:1;fill-rule:evenodd;stroke:none"
           d="M 0,0 0.177,-0.83 -0.569,-1.26 0.301,-1.361 0.478,-2.215 0.824,-1.427 1.679,-1.522 1.031,-0.94 1.373,-0.139 0.624,-0.571 0,0 Z" />
      </g>
      <g
         transform="matrix(1.25,0,0,-1.25,620.75592,667.10115)"
         id="g70640">
        <path
           inkscape:connector-curvature="0"
           id="path70642"
           style="fill:#ffffff;fill-opacity:1;fill-rule:evenodd;stroke:none"
           d="m 0,0 -0.178,-0.83 0.747,-0.43 -0.87,-0.101 -0.178,-0.854 -0.345,0.788 -0.855,-0.095 0.648,0.582 -0.342,0.801 0.749,-0.432 L 0,0 Z" />
      </g>
    </g>
  </g>
</svg>
