<?xml version="1.0" encoding="utf-8"?>
<!-- Generator: Adobe Illustrator 13.0.0, SVG Export Plug-In . SVG Version: 6.00 Build 14948)  -->
<!DOCTYPE svg PUBLIC "-//W3C//DTD SVG 1.1//EN" "http://www.w3.org/Graphics/SVG/1.1/DTD/svg11.dtd">
<svg version="1.1" id="Layer_1" xmlns="http://www.w3.org/2000/svg" xmlns:xlink="http://www.w3.org/1999/xlink" x="0px" y="0px"
	 width="401.848900575" height="248.849753868" viewBox="0 0 500 309.631" enable-background="new 0 0 500 309.631" xml:space="preserve">
<g>
	<path fill="#FFC42A" d="M402.613,114.179c0,0,2.693-42.222-39.525-48.379c0,0-12.465-3.434-30.449,0.745
		c0,0-47.33,10.866-72.363,10.786v-0.976c-1.418,0.371-3.125,0.618-5.016,0.777c-1.893-0.153-3.602-0.393-5.019-0.76v0.974
		c-25.029,0.167-72.396-10.542-72.396-10.542c-17.997-4.117-30.452-0.642-30.452-0.642c-42.202,6.302-39.363,48.512-39.363,48.512
		c-0.811,56.046,41.682,93.351,41.682,93.351l105.764-2.163l105.775,1.808C361.252,207.669,407.549,166.764,402.613,114.179"/>
	<path d="M306.693,281.061c0,0,0.113,0.161,0.313,0.495C307.016,281.037,306.916,280.851,306.693,281.061"/>
	<path d="M299.973,259.196c0,0-0.117,0.172-0.334,0.539C299.627,259.17,299.734,258.971,299.973,259.196"/>
	<path fill="#00549B" d="M327.102,51.645l0.055-0.018c-1.207,0.273-27.326,6.176-49.367,8.828c-0.002-2.246-0.004-4.866-0.004-4.866
		l-7.393,1.938l-14.676,3.842c0.057-0.015-0.196,0.02-0.472,0.059c-0.31-0.042-0.613-0.085-0.613-0.085
		c-0.007-0.005-14.568-3.766-14.568-3.766l-7.398-1.912c0,0,0.009,2.624,0.015,4.87c-22.145-2.586-48.203-8.397-49.411-8.67
		c-0.146-0.031-22.74-4.912-37.225-0.616L146.954,51c-42.442,6.335-53.711,42.302-53.677,62.551c0,0,0.058,1.762,0.078,2.336
		c-0.228,2.973-0.338,5.464-0.334,7.756c0.054,32.869,16.136,60.37,29.25,77.373c0.004,1.636,0.063,36.363,0.074,43.4
		c-13.96,4.964-23.065,17.054-23.042,31.435c0.03,18.658,15.744,33.813,35.03,33.779l231.089-0.389
		c19.281-0.032,34.943-15.241,34.914-33.896c-0.023-12.749-7.58-24.302-19.143-30.008c-0.008-5.944-0.055-31.978-0.059-35.606
		c14.355-16.213,36.584-47.608,36.52-86.636c-0.002-2.318-0.127-4.8-0.361-7.699c0.002-0.004,0.068-2.391,0.068-2.391
		c-0.041-24.674-13.787-55.635-52.309-62.06C362.225,50.217,347.449,46.912,327.102,51.645"/>
	<path fill="#FFC42A" d="M375.299,249.183l-0.07-41.693c13.018-14.302,36.59-45.548,36.527-84.382
		c-0.006-2.52-0.152-5.078-0.371-7.649c0.035-0.79,0.084-1.589,0.082-2.438c-0.031-18.595-9.846-50.272-47.863-56.352
		c-2.508-0.646-16.078-3.717-35.166,0.723l0.033-0.009c-0.383,0.092-32.781,7.473-56.578,9.651
		c-0.004-1.426-0.004-3.798-0.004-3.798l-14.678,3.846c-0.273,0.07-0.977,0.19-1.966,0.306c-0.989-0.114-1.694-0.231-1.969-0.299
		l-14.688-3.798c0,0,0.005,2.377,0.009,3.803c-23.804-2.102-56.231-9.374-56.615-9.463c-0.252-0.061-21.435-4.525-34.259-0.716
		c0-0.002,0.103-0.07,0.103-0.07c-38.839,5.796-48.676,37.94-48.645,56.696c0,0.849,0.041,1.652,0.08,2.445
		c-0.202,2.573-0.342,5.13-0.34,7.651c0.062,36.779,21.302,66.675,34.656,81.857l-5.393,0.007l0.07,43.256
		c-13.761,3.094-23.07,14.034-23.046,27.086c0.025,15.43,13.059,27.916,29.117,27.888l231.09-0.389
		c16.055-0.025,29.045-12.557,29.02-27.988C394.412,263.3,386.436,253.077,375.299,249.183"/>
	<path fill="#00549B" d="M376.809,217.088l-35.781,11.974l37.189,8.151l8.479-3.106l0.164-0.087c0.52-0.258,5.104-2.665,5.09-6.984
		c-0.01-3.029-2.199-5.645-6.523-7.765l-0.201-0.104l-7.357-2.433L376.809,217.088"/>
	<path fill-rule="evenodd" clip-rule="evenodd" fill="#C52034" d="M383.963,222.267l-6.094-2.018l-24.326,8.136l24.441,5.362
		l7.389-2.707C385.373,231.04,393.537,226.973,383.963,222.267"/>
	<path fill="#00549B" d="M128.195,217.505l35.831,11.854l-37.166,8.275l-8.487-3.081l-0.171-0.082
		c-0.518-0.254-5.109-2.648-5.109-6.964c-0.004-3.032,2.178-5.652,6.495-7.791l0.203-0.101l7.352-2.463L128.195,217.505"/>
	<path fill-rule="evenodd" clip-rule="evenodd" fill="#C52034" d="M121.067,222.707l6.082-2.034l24.354,8.053l-24.417,5.441
		l-7.403-2.68C119.683,231.487,111.508,227.446,121.067,222.707"/>
	<path fill="#00549B" d="M271.299,226.511c0.006,4.765-2.551,8.633-5.717,8.64l-25.994,0.043c-3.172,0.005-5.742-3.854-5.75-8.618
		c-0.008-4.771,2.552-8.643,5.72-8.646l25.993-0.043C268.723,217.878,271.291,221.74,271.299,226.511"/>
	<path fill="#00549B" d="M289.742,226.99c0.01,6.632,10.158,9.635,19.584,9.616c9.422-0.013,19.566-3.053,19.553-9.682
		c-0.01-6.632-10.158-9.636-19.59-9.619C299.865,217.322,289.727,220.358,289.742,226.99"/>
	<path fill="#048743" d="M325.711,226.929c0.012,3.581-7.328,6.501-16.393,6.512c-9.059,0.019-16.406-2.877-16.41-6.455
		c-0.01-3.577,7.328-6.498,16.385-6.514C318.359,220.459,325.707,223.349,325.711,226.929"/>
	<path fill="#00549B" d="M175.777,227.18c0.011,6.632,10.159,9.639,19.586,9.623c9.422-0.02,19.561-3.056,19.552-9.688
		c-0.012-6.63-10.165-9.635-19.586-9.616C185.905,217.512,175.765,220.552,175.777,227.18"/>
	<path fill="#048743" d="M211.753,227.121c0.005,3.578-7.333,6.501-16.396,6.519c-9.059,0.011-16.411-2.884-16.418-6.464
		c-0.005-3.58,7.336-6.497,16.396-6.51C204.398,220.652,211.746,223.539,211.753,227.121"/>
	<path fill="#00549B" d="M222.811,39.097c-2.904,0.005-5.573,0.974-7.732,2.594c-2.321-3.563-6.333-5.927-10.896-5.923
		c-2.712,0.007-5.221,0.847-7.301,2.279c-2.183-4.125-6.518-6.946-11.497-6.939c-3.283,0.006-6.276,1.246-8.56,3.274
		c-2.322-3.565-6.335-5.931-10.896-5.923c-4.38,0.007-8.248,2.201-10.595,5.541c-2.328-2.165-5.431-3.501-8.853-3.495
		c-4.933,0.007-9.227,2.781-11.415,6.848c-2.211-1.747-5-2.801-8.032-2.794c-6.377,0.016-11.676,4.65-12.747,10.723
		c-1.263-0.406-2.607-0.633-4.003-0.633c-7.156,0.015-12.969,5.848-12.958,13.004c0.001,0.377,0.026,0.753,0.06,1.126
		c-0.061,0.002-0.122-0.011-0.184-0.011c-7.155,0.011-12.966,5.844-12.956,13.002c0.002,1.764,0.362,3.44,1.004,4.977
		c-5.393,1.581-9.341,6.564-9.334,12.465c0.012,7.155,5.846,12.962,13,12.949c7.155-0.008,9.362,0.568,11.794-12.521
		c0.322-1.738,0.799-3.914,0.156-5.447c0.789-0.236,9.341-8.313,9.335-12.469c0.002-0.38-0.027-0.759-0.062-1.128
		c0.063-0.002,0.125,0.018,0.189,0.006c3.976-0.609,11.673-4.647,12.746-10.723c1.261,0.411,2.609,0.637,4.003,0.635
		c4.932-0.011,9.222-2.781,11.412-6.846c2.214,1.749,5.339,0.674,8.372,0.67c4.38-0.005,7.913-0.085,10.257-3.421
		c2.325,2.167,6.909,2.357,10.328,2.355c3.287-0.009,4.411,2.526,6.694,0.504c2.321,3.563,6.725,3.294,11.288,3.288
		c2.707-0.007,5.168,2.229,7.25,0.801c2.18,4.124,10.077,0.211,12.874,2.55c2.227,1.855,4.245,0.333,6.412-1.288
		c2.32,3.563,7.883,4.418,12.444,4.41c7.154-0.009,11.414-4.331,11.401-11.487C235.794,44.897,229.964,39.084,222.811,39.097
		 M426.207,76.002c0.639-1.537,1-3.213,0.994-4.977c-0.012-7.158-5.848-12.969-12.998-12.956c-0.066-0.002-0.121,0.011-0.186,0.006
		c0.025-0.374,0.051-0.747,0.045-1.125c-0.004-7.155-5.836-12.971-12.992-12.958c-1.4,0-2.742,0.236-4.002,0.646
		c-1.094-6.072-6.402-10.69-12.781-10.679c-3.031,0.004-5.822,1.063-8.029,2.818c-2.205-4.06-6.5-6.815-11.432-6.811
		c-3.416,0.006-6.523,1.354-8.844,3.528c-2.357-3.329-6.234-5.517-10.615-5.51c-4.555,0.008-8.566,2.392-10.871,5.959
		c-2.291-2.013-5.293-3.244-8.574-3.242c-4.979,0.011-9.305,2.845-11.467,6.979c-2.092-1.419-4.609-2.258-7.318-2.249
		c-4.561,0.006-8.564,2.383-10.871,5.955c-2.17-1.614-4.838-2.578-7.744-2.571c-7.15,0.008-12.961,5.844-12.949,13.001
		c0.01,7.152,5.842,12.963,12.994,12.947c4.557-0.002,8.566-2.382,10.877-5.951c2.166,1.611,5.164,2.624,7.512,0.915
		c4.396-3.209,9.664,1.539,11.832-2.593c2.09,1.417,4.475-0.474,7.18-0.478c4.563-0.009,6.973,0.419,9.287-3.15
		c2.285,2.011,6.883,0.441,10.16,0.435c3.422-0.006,6.521-1.349,8.84-3.521c2.357,3.322,6.393,4.438,10.777,4.431
		c3.035-0.006,5.689,2.01,7.902,0.262c2.205,4.054,6.461,4.807,11.393,4.798c1.404,0,2.184,2.667,3.441,2.255
		c4.129,4.63,6.969,7.791,13.344,7.775c0.061,0.003,0.123-0.004,0.193-0.006c-0.029,0.374-0.061,0.747-0.057,1.128
		c0.01,5.9,3.967,10.874,9.367,12.437c-0.633,1.535-0.988,3.216-0.98,4.982c0.012,7.155,5.842,12.962,12.992,12.949
		c7.16-0.008,12.971-5.837,12.957-12.993C435.572,82.542,431.605,77.565,426.207,76.002z"/>
	<path fill="#00549B" d="M96.675,108.559c0.008,6.266-5.062,11.356-11.333,11.367c-6.268,0.009-11.361-5.062-11.369-11.328
		c-0.011-6.273,5.064-11.364,11.332-11.373C91.577,97.217,96.663,102.285,96.675,108.559"/>
	<path fill="#FFFFFF" d="M92.59,108.566c0.007,4.01-3.239,7.27-7.252,7.28c-4.017,0.004-7.271-3.246-7.279-7.256
		c-0.005-4.012,3.238-7.271,7.253-7.278C89.325,101.301,92.583,104.554,92.59,108.566"/>
	<g id="XMLID_1_">
		<g>
		</g>
		<g>
			<path fill="none" stroke="#00549B" stroke-width="4.5534" d="M402.697,112.798c0,0,2.694-42.217-39.522-48.375
				c0,0-12.462-3.434-30.454,0.74c0,0-47.327,10.868-72.363,10.786v-0.967c-1.408,0.37-3.115,0.617-5.007,0.771
				c-1.893-0.154-3.609-0.391-5.018-0.761v0.977c-25.036,0.165-72.404-10.539-72.404-10.539
				c-17.993-4.123-30.444-0.647-30.444-0.647c-42.207,6.303-39.369,48.52-39.369,48.52c-0.812,56.045,41.682,93.347,41.682,93.347
				l105.769-2.159l105.768,1.8C361.334,206.29,407.633,165.39,402.697,112.798z"/>
		</g>
	</g>
	<path fill="#FFC42C" d="M245.216,81.241c0.647,2.803-1.095,5.6-3.898,6.252c-2.804,0.648-5.604-1.094-6.254-3.899l-5.336-23.002
		c-0.646-2.805,1.098-5.6,3.902-6.252c2.8-0.653,5.599,1.093,6.248,3.898L245.216,81.241"/>
	<path fill="none" stroke="#00549B" stroke-width="4.5534" d="M245.216,81.241c0.647,2.803-1.095,5.6-3.898,6.252
		c-2.804,0.648-5.604-1.094-6.254-3.899l-5.336-23.002c-0.646-2.805,1.098-5.6,3.902-6.252c2.8-0.653,5.599,1.093,6.248,3.898
		L245.216,81.241z"/>
	<polyline fill="#00549B" points="384.039,200.009 119.245,200.454 119.271,214.6 388.012,214.15 387.986,200 384.039,200.009 	"/>
	<polyline fill="#FFC42A" points="383.596,210.672 121.167,211.116 121.155,203.934 383.58,203.49 383.596,210.672 	"/>
	<polyline fill="#00549B" points="384.053,238.28 114.551,238.735 114.574,252.883 388.088,252.427 388.064,238.272 384.053,238.28 
			"/>
	<polyline fill="#FFC42A" points="383.641,248.948 118.78,249.395 118.766,242.21 383.629,241.767 383.641,248.948 	"/>
	<path fill="#00549B" d="M121.914,260.49c-0.824,0.002-1.495,0.611-1.494,1.359l0.054,31.881c0.002,0.751,0.675,1.355,1.499,1.354
		l23.809-0.041c0.824,0,1.494-0.603,1.492-1.356l-0.011-5.726c0-0.751-0.673-1.359-1.497-1.359c0,0-13.332,0.025-15.827,0.027
		c-0.002-1.521-0.006-4.022-0.008-5.549c2.426-0.004,13.685-0.024,13.685-0.024c0.827,0,1.497-0.608,1.493-1.361l-0.008-5.488
		c0-0.753-0.671-1.355-1.498-1.355c0,0-11.257,0.015-13.687,0.024c-0.001-1.304-0.005-2.765-0.006-4.07
		c2.473-0.004,15.046-0.023,15.046-0.023c0.828-0.002,1.493-0.614,1.492-1.365l-0.008-5.609c-0.002-0.749-0.671-1.355-1.496-1.357
		L121.914,260.49"/>
	<path fill="#00549B" d="M149.783,261.8l0.052,31.882c0.001,0.753,0.667,1.354,1.495,1.352l13.741-0.021
		c5.397-0.009,9.432-2.258,12.004-6.688c1.802-3.131,2.717-6.971,2.711-11.412c-0.004-1.749-0.222-3.611-0.645-5.539
		c-0.447-2.004-1.285-3.893-2.492-5.605c-1.563-2.207-3.647-3.755-6.191-4.582c-1.463-0.484-3.287-0.74-5.42-0.769l-13.766,0.024
		C150.446,260.442,149.779,261.054,149.783,261.8 M163.922,268.624c3.65-0.005,4.486,1.425,4.755,1.893
		c0.904,1.542,1.365,3.849,1.37,6.865c0.004,2.189-0.312,4.089-0.924,5.641c-1.021,2.577-2.666,3.783-5.17,3.785
		c0,0-2.941,0.008-4.655,0.008c-0.004-2.212-0.027-15.967-0.03-18.186C160.98,268.628,163.922,268.624,163.922,268.624z"/>
	<path fill="#00549B" d="M204.465,260.351c-0.71,0-1.316,0.454-1.464,1.08c0,0-2.667,11.679-4.288,18.759
		c-1.651-7.073-4.384-18.741-4.384-18.741c-0.149-0.629-0.758-1.08-1.463-1.08l-9.667,0.018c-0.821,0.002-1.491,0.612-1.489,1.359
		l0.054,31.883c0.002,0.751,0.67,1.354,1.493,1.352l6.165-0.012c0.824-0.002,1.496-0.604,1.493-1.355c0,0-0.012-6.888-0.021-13.139
		c1.515,6.706,3.036,13.409,3.036,13.409c0.145,0.624,0.759,1.078,1.468,1.076l6.496-0.008c0.709-0.003,1.319-0.459,1.464-1.088
		c0,0,1.511-6.756,3.035-13.505c0.01,6.271,0.021,13.23,0.021,13.23c0.001,0.749,0.674,1.352,1.497,1.354l6.163-0.012
		c0.828-0.002,1.496-0.609,1.494-1.36l-0.053-31.879c0.001-0.747-0.671-1.36-1.496-1.36L204.465,260.351"/>
	<path fill="#00549B" d="M222.771,263.521c-3.479,3.18-5.246,7.913-5.237,14.08c0.01,6.053,1.793,10.792,5.293,14.069
		c2.654,2.722,6.55,4.122,11.529,4.114c4.979-0.009,8.867-1.423,11.557-4.197c3.429-3.253,5.187-7.99,5.173-14.043
		c-0.009-6.181-1.785-10.92-5.285-14.096c-2.638-2.701-6.527-4.1-11.504-4.089C229.332,259.363,225.458,260.768,222.771,263.521
		 M229.235,285.1c-0.001-0.008-0.001-0.008-0.001-0.008c-1.382-1.697-2.08-4.229-2.086-7.509c-0.005-3.288,0.688-5.818,2.061-7.518
		c1.285-1.597,2.96-2.382,5.118-2.387c2.158,0.002,3.826,0.777,5.094,2.37c1.359,1.705,2.055,4.235,2.059,7.51
		c0.006,3.283-0.679,5.813-2.034,7.522c-1.262,1.599-2.93,2.368-5.083,2.374C232.203,287.457,230.524,286.686,229.235,285.1z"/>
	<path fill="#00549B" d="M274.164,260.23c-0.824,0.004-1.49,0.615-1.488,1.364c0,0,0.016,10.36,0.027,16.608
		c-3.416-5.964-9.859-17.218-9.859-17.218c-0.26-0.449-0.775-0.733-1.326-0.733l-6.943,0.014c-0.831,0-1.494,0.615-1.492,1.364
		l0.053,31.877c0.002,0.749,0.672,1.357,1.497,1.357l6.165-0.012c0.82-0.002,1.488-0.609,1.488-1.362c0,0-0.016-10.756-0.029-17.073
		c3.471,6.017,10.188,17.688,10.188,17.688c0.258,0.443,0.771,0.724,1.324,0.726l6.617-0.014c0.826,0,1.496-0.604,1.494-1.355
		l-0.057-31.88c-0.002-0.751-0.67-1.363-1.498-1.363L274.164,260.23"/>
	<path fill="#00549B" d="M285.305,260.215c-0.824,0-1.494,0.609-1.494,1.359l0.01,5.667c0.004,0.757,0.674,1.361,1.5,1.361
		c0,0,5.975-0.012,8.104-0.014c0.004,2.443,0.043,24.852,0.043,24.852c0.002,0.751,0.668,1.355,1.498,1.354l6.682-0.014
		c0.828,0,1.5-0.604,1.498-1.354c0,0-0.041-22.411-0.045-24.851c2.131-0.007,8.104-0.019,8.104-0.019c0.828,0,1.5-0.608,1.498-1.363
		l-0.004-5.67c-0.008-0.748-0.682-1.357-1.512-1.354L285.305,260.215"/>
	<path fill="#00549B" d="M318.066,263.359c-3.477,3.18-5.244,7.915-5.234,14.082c0.012,6.054,1.793,10.792,5.291,14.064
		c2.65,2.727,6.541,4.124,11.523,4.117c4.984-0.012,8.873-1.423,11.563-4.196c3.426-3.252,5.182-7.991,5.174-14.043
		c-0.012-6.187-1.791-10.921-5.285-14.093c-2.637-2.704-6.529-4.102-11.508-4.093C324.623,259.206,320.754,260.605,318.066,263.359
		 M324.523,284.939c-0.004-0.004-0.004-0.004-0.004-0.004c-1.373-1.701-2.074-4.231-2.08-7.515
		c-0.006-3.287,0.688-5.814,2.059-7.516c1.285-1.599,2.965-2.382,5.123-2.384s3.816,0.775,5.086,2.366
		c1.365,1.708,2.055,4.235,2.059,7.512c0.008,3.288-0.674,5.813-2.027,7.52c-1.27,1.601-2.928,2.367-5.082,2.374
		C327.496,287.299,325.813,286.527,324.523,284.939z"/>
	<path fill="#00549B" d="M369.457,260.073c-0.828,0-1.492,0.614-1.49,1.359c0,0,0.014,10.363,0.027,16.609
		c-3.418-5.963-9.863-17.216-9.863-17.216c-0.258-0.449-0.771-0.737-1.332-0.733l-6.939,0.013c-0.818-0.002-1.486,0.613-1.486,1.362
		l0.057,31.881c0.002,0.748,0.668,1.352,1.488,1.354l6.158-0.009c0.832-0.004,1.5-0.611,1.498-1.363c0,0-0.018-10.755-0.025-17.075
		c3.461,6.013,10.186,17.689,10.186,17.689c0.264,0.445,0.77,0.727,1.334,0.727l6.604-0.015c0.834,0,1.498-0.606,1.494-1.355
		l-0.045-31.883c-0.002-0.749-0.672-1.36-1.502-1.354L369.457,260.073"/>
	<path fill="#00549B" d="M242.331,8.187c-1.712,2.499-3.65,5.719-5.456,9.065c-5.124,9.505-7.72,16.955-7.712,22.142
		c0.022,13.63,11.567,24.7,25.724,24.681c14.17-0.026,25.668-11.136,25.646-24.771c-0.008-5.2-2.633-12.454-8.033-22.186
		c-1.775-3.198-3.707-6.361-5.426-8.906C264.727,4.743,261.51-0.011,254.78,0C247.929,0.013,244.424,5.13,242.331,8.187"/>
	<path fill="#FFC42A" d="M247.905,9.728c-1.737,2.514-3.711,5.787-5.58,9.196c-2.841,5.229-7.618,14.879-7.61,20.791
		c0.022,10.863,9.171,19.684,20.394,19.662c11.229-0.015,20.338-8.872,20.32-19.725c-0.006-5.514-4.313-14.351-7.912-20.799
		c-1.852-3.288-3.836-6.529-5.607-9.123c-2.652-3.888-4.113-5.59-6.893-5.583C252.248,4.148,250.517,5.948,247.905,9.728"/>
	<path fill="#00549B" d="M246.185,21.179c-2.047,3.691-6.811,12.842-6.802,17.983c0.013,8.572,7.116,15.534,15.837,15.517
		c8.719-0.011,15.807-6.999,15.793-15.569c-0.008-4.842-4.445-13.34-7.084-17.97c-1.658-2.899-3.502-5.861-5.08-8.134
		c-2.67-3.831-3.199-3.831-3.701-3.833C253.07,9.18,248.189,17.57,246.185,21.179"/>
	<path fill="#FFFFFF" d="M257.58,17.693c0,0,12.205,17.525,7.725,25.903c0,0-1.783,3.849-4.77,4.307c0,0,6.895-7.879,0.33-21.76
		L257.58,17.693"/>
	<path fill="#FFFFFF" d="M249.158,24.875c0,0-15.137,22.243,6.842,24.441l1.465-0.094C257.465,49.221,241.479,49.027,249.158,24.875
		"/>
	<path fill="#FFFFFF" d="M393.824,56.984c0.012,4.012,3.271,7.258,7.275,7.248c4.018-0.007,7.271-3.261,7.26-7.273
		c-0.008-4.01-3.266-7.259-7.283-7.25C397.068,49.717,393.82,52.97,393.824,56.984"/>
	<path fill="#FFFFFF" d="M377.043,46.951c0.006,4.01,3.266,7.254,7.273,7.248c4.016-0.004,7.264-3.259,7.256-7.273
		c-0.008-4.013-3.266-7.259-7.281-7.254C380.283,39.684,377.033,42.937,377.043,46.951"/>
	<path fill="#FFFFFF" d="M357.584,42.961c0.004,4.012,3.266,7.256,7.275,7.251c4.016-0.01,7.258-3.263,7.256-7.275
		c-0.004-4.019-3.264-7.261-7.281-7.252C360.824,35.687,357.574,38.944,357.584,42.961"/>
	<path fill="#FFFFFF" d="M338.121,40.983c0.014,4.012,3.273,7.254,7.285,7.25c4.012-0.006,7.26-3.264,7.256-7.276
		c-0.012-4.017-3.268-7.261-7.279-7.254C341.365,33.705,338.117,36.962,338.121,40.983"/>
	<path fill="#FFFFFF" d="M318.684,43.696c0.006,4.013,3.262,7.257,7.271,7.252c4.02-0.006,7.262-3.262,7.256-7.278
		c-0.008-4.012-3.264-7.258-7.279-7.254C321.92,36.423,318.674,39.68,318.684,43.696"/>
	<path fill="#FFFFFF" d="M299.895,48.425c0.01,4.01,3.268,7.258,7.273,7.25c4.021-0.007,7.27-3.266,7.262-7.274
		c-0.008-4.016-3.268-7.262-7.283-7.256C303.137,41.151,299.889,44.408,299.895,48.425"/>
	<path fill="#FFFFFF" d="M281.283,51.809c0.004,4.005,3.262,7.26,7.271,7.254c4.014-0.009,7.264-3.272,7.258-7.278
		c-0.008-4.014-3.27-7.262-7.281-7.254C284.518,44.535,281.275,47.796,281.283,51.809"/>
	<path fill="#FFFFFF" d="M406.957,71.058c0.008,4.01,3.26,7.256,7.279,7.25c4.008-0.011,7.254-3.263,7.242-7.273
		c-0.004-4.017-3.262-7.265-7.271-7.259C410.193,63.784,406.949,67.041,406.957,71.058"/>
	<path fill="#FFFFFF" d="M415.34,88.472c0.012,4.012,3.266,7.258,7.273,7.254c4.021-0.006,7.271-3.268,7.266-7.278
		c-0.014-4.012-3.271-7.261-7.289-7.254C418.582,81.202,415.334,84.459,415.34,88.472"/>
	<path fill="#FFFFFF" d="M117.572,57.613c0.005,4.015-3.242,7.274-7.254,7.278c-4.013,0.006-7.273-3.24-7.278-7.252
		c-0.009-4.01,3.239-7.27,7.255-7.278C114.309,50.354,117.564,53.601,117.572,57.613"/>
	<path fill="#FFFFFF" d="M134.323,47.523c0.005,4.017-3.243,7.276-7.253,7.283c-4.017,0.004-7.274-3.242-7.279-7.256
		c-0.009-4.013,3.239-7.274,7.252-7.281C131.055,40.263,134.315,43.513,134.323,47.523"/>
	<path fill="#FFFFFF" d="M153.769,43.476c0.004,4.003-3.242,7.265-7.254,7.271c-4.015,0.006-7.272-3.244-7.277-7.248
		c-0.01-4.019,3.239-7.276,7.252-7.28C150.5,36.211,153.761,39.455,153.769,43.476"/>
	<path fill="#FFFFFF" d="M173.215,41.428c0.007,4.008-3.238,7.267-7.251,7.273c-4.011,0.009-7.275-3.239-7.282-7.25
		c-0.007-4.019,3.245-7.278,7.258-7.282C169.953,34.166,173.207,37.41,173.215,41.428"/>
	<path fill="#FFFFFF" d="M192.669,44.072c0.007,4.017-3.238,7.273-7.25,7.282c-4.016,0.002-7.273-3.242-7.279-7.256
		c-0.008-4.017,3.241-7.27,7.255-7.276C189.408,36.815,192.663,40.06,192.669,44.072"/>
	<path fill="#FFFFFF" d="M211.468,48.737c0.009,4.015-3.237,7.273-7.25,7.278c-4.012,0.008-7.273-3.24-7.281-7.254
		c-0.007-4.01,3.244-7.267,7.254-7.276C208.206,41.479,211.463,44.723,211.468,48.737"/>
	<path fill="#FFFFFF" d="M230.099,52.062c0.005,4.012-3.24,7.265-7.253,7.274c-4.014,0.008-7.271-3.238-7.279-7.252
		c-0.005-4.01,3.238-7.27,7.254-7.276C226.834,44.801,230.091,48.049,230.099,52.062"/>
	<path fill="#FFFFFF" d="M104.488,71.735c0.011,4.01-3.24,7.267-7.251,7.275c-4.013,0.006-7.271-3.244-7.278-7.251
		c-0.006-4.015,3.242-7.274,7.252-7.28C101.225,64.472,104.484,67.718,104.488,71.735"/>
	<path fill="#FFFFFF" d="M96.16,89.177c0.005,4.012-3.24,7.267-7.254,7.276c-4.013,0.006-7.268-3.24-7.277-7.25
		c-0.008-4.012,3.241-7.271,7.256-7.282C92.897,81.916,96.152,85.164,96.16,89.177"/>
	<path fill="#FFC42A" d="M262.033,50.929c-0.133,0.081-0.258,0.177-0.377,0.275c-19.88,17.099-20.906,122.32-20.958,134.26
		c0,0.471,0.101,0.934,0.314,1.351c3.326,6.616,18.228,7.695,22.716,7.866c0.932,0.037,1.816-0.363,2.408-1.077
		c0.453-0.546,0.693-1.223,0.691-1.916c-0.002-0.222-0.021-0.438-0.07-0.662c-0.879-3.84-1.234-8.194-1.244-12.753
		c-0.027-15.644,4.104-33.504,5.867-40.431c1.049,0.749,2.307,1.854,3.326,3.015c0.686,1.196,1.008,6.023,1.016,11.772
		c0.01,3.552-0.113,7.46-0.328,11.072c-0.027,1.079-0.039,2.122-0.039,3.117c0.031,19.787,5.84,24.767,8.367,25.997
		c1.523,1.168,5.848,2.521,21.803,2.493c0.836,0,1.633-0.358,2.203-0.978c0.563-0.623,0.84-1.454,0.764-2.291l-0.707-7.636
		c-0.117-1.288-1.732-2.425-2.979-2.718l0.385,0.089c-0.428-0.276-1.111-1.639-1.516-2.913c0.137-0.699,0.178-1.423,0.289-2.127
		c0.455,1.189,1.002,2.262,1.652,3.185c1.479,2.101,3.539,3.267,5.852,3.81c0.881,0.816,2.543,1.973,5.426,2.357
		c7.266,0.983,17.379-3.466,30.066-13.145c1.564,3.553,4.439,7.005,9.236,6.996c1.041-0.004,2.01-0.543,2.547-1.434
		c0.535-0.868,12.525-20.656,13.484-32.708c0.25-0.203,0.531-0.443,0.834-0.709c-0.18,2.478-0.318,5.037-0.314,7.495
		c0.008,4.064,0.396,7.664,1.379,9.833c0.215,0.862,4.176,15.043,24.975,11.155c0.371-0.072,0.725-0.21,1.043-0.41
		c0.186-0.116,3.852-2.458,7.119-5.575c5.432,2.918,13.055,1.33,17.896-0.237c-1.305,16.544-12.314,26.938-14.645,28.919
		c-3.578,0.481-6.145,1.638-7.539,3.497c-0.926,1.249-1.127,2.469-1.127,3.269c-0.002,0.377,0.047,0.658,0.076,0.814
		c0.078,0.368,0.221,0.722,0.42,1.037c7.107,11.019,25.488,10.39,26.268,10.355c0.004-0.003,0.004-0.003,0.004-0.003
		c14.826-0.021,20.904-14.697,22.143-22.921c0.58-1.506,1.311-6.416,1.963-31.252c3.719,4.474,7.865,7.255,12.379,8.185
		c7.113,1.469,12.303-2.089,12.959-2.559c14.703-8.387,19.045-30.834,19.227-31.792c0.188-1.404,0.275-2.777,0.268-4.11
		c-0.023-19.583-19.576-31.754-20.461-32.295c-0.145-0.087-0.471-0.225-0.619-0.288l0.123,0.048
		c-0.592-0.319-1.943-1.913-3.184-3.683c0.699-1.406,1.652-2.554,3.1-3.287c5.422-2.714,14.938-0.389,18.148,0.735
		c0.893,0.314,1.867,0.19,2.658-0.332c0.779-0.523,1.27-1.386,1.322-2.325l1.354-25.006c0.076-1.574-1.084-2.943-2.643-3.13
		c-31.186-3.661-42.6,27.42-42.711,27.734c0.021-0.07,0.049-0.146,0.078-0.212c-1.473,3.34-2.025,6.829-2.021,10.208
		c0.018,10.417,5.393,19.773,5.691,20.291c0.414,0.705,1.109,1.216,1.91,1.399c16.789,3.891,18.941,19.114,19.211,22.199
		c-1.018,2.613-2.363,4.381-4.086,5.095c-2.588,1.074-5.414-0.245-5.447-0.257c-0.301-0.145-0.648-0.245-0.988-0.284
		c-2.656-0.293-7.828-8.078-10.803-14.875c-0.441-1.015-1.402-1.692-2.5-1.781c-0.949-0.079-1.809,0.355-2.424,1.054
		c0.115-9.415,0.277-21.69,0.275-21.703c-0.002-0.419-0.096-0.812-0.264-1.196c-2.994-6.7-6.85-8.239-8.109-8.57
		c-10.166-4.803-24.721-2.104-24.107-2.167c-15.676,1.591-20.279,17.73-21.594,28.631c0.068-1.493,0.121-2.944,0.115-4.324
		c-0.01-4.816-0.518-8.775-1.896-10.622c-0.65-0.86-1.355-1.26-2.018-1.511c-0.838-0.482-8.678-4.812-15.475-0.548
		c-0.525,0.33-0.938,0.821-1.176,1.4c-2.598,6.372-6.168,11.642-8.148,13.047c-0.893-1.042-1.609-2.233-1.607-2.901
		c-0.002-0.094,0.012-0.177,0.037-0.249c0.146-0.358,0.207-0.731,0.213-1.109c-0.008-0.589-0.182-1.17-0.516-1.677
		c-0.566-0.821-1.492-1.31-2.48-1.31l-11.115,0.02c-1.629,0-2.951,1.308-2.986,2.937c-0.004,0.321-0.924,31.476-21.129,45.668
		c-0.225-0.343-0.418-0.731-0.418-1.279c0-0.45,0.096-0.967,0.322-1.565c0.088-0.249,0.15-0.506,0.172-0.764
		c1.734-18.324,5.809-35.718,8.719-37.22c1.016-0.526,1.633-1.57,1.631-2.679c0-0.216-0.021-0.441-0.07-0.66
		c-0.211-0.923-0.904-1.527-1.725-1.908l0.064,0.002c0.455,0.02,0.904-0.063,1.324-0.246c4.77-2.052,12.08-8.193,12.064-18.483
		c-0.002-2.471-0.434-5.187-1.422-8.145c-0.354-1.065-1.275-1.833-2.383-2.003c-8.002-1.238-14.229-1.88-18.814-1.985
		c18.436-10.19,31.193-12.947,31.42-12.988c1.262-0.26,2.215-1.292,2.375-2.567c0.041-0.326,0.061-0.657,0.061-0.983
		c-0.014-6.575-7.908-12.976-9.561-14.246c-0.582-0.441-1.307-0.657-2.029-0.611c-17.393,1.231-61.934,36.525-77.832,49.549
		c2.678-11.698,10.682-35.063,16.922-51.651c0.131-0.345,0.193-0.703,0.191-1.061c0-0.777-0.301-1.543-0.881-2.111
		C288.066,48.663,263.146,50.236,262.033,50.929 M322.346,89.845c-0.004,0-0.047,0.031-0.045,0.035
		C322.313,89.866,322.334,89.855,322.346,89.845z M313.697,99.401c-1.533,2.605-2.695,5.552-2.688,8.75
		c0.002,0.996,0.189,2.018,0.432,3.045c-0.012,0.12-0.068,0.188-0.07,0.313c0.002,1.019,0.285,2.194,0.953,3.263
		c1.305,2.063,3.73,3.362,7.23,3.89c-3.221-0.083-7.836-0.19-7.836-0.19c-1.375-0.035-2.596,0.875-2.959,2.201
		c-0.539,1.999-2.82,10.716-4.58,21.013c-0.629-5.523-1.307-9.25-1.383-9.649c-0.1-0.535-0.352-1.039-0.721-1.45
		c-4.266-4.726-11.945-5.931-17.809-6.097C294.428,114.156,304.41,105.922,313.697,99.401z M311.662,183.789
		c0.428,0.089,0.789,0.346,1.242,0.385C312.463,184.137,312.037,184.001,311.662,183.789z M396.184,156.168
		c-0.002-1.247,0.104-2.952,0.438-5.257c0.699-4.169,1.709-10.813,2.355-17.51c-0.02,0.662-0.029,1.26-0.025,1.738
		c0,0.771,0.018,1.251,0.021,1.469c-0.123,2.259-0.191,4.418-0.188,6.459c0.006,4.312,0.352,8.042,0.936,11.321
		c-2.117,3.559-3.246,4.285-3.293,4.315C396.305,158.229,396.182,157.447,396.184,156.168z M429.92,111.952
		c0.461,0.133,1.088,0.557,1.674,1.591c0.012,0.594,0.018,1.181,0.021,1.779c0.027,16.39-2.705,33.956-7.504,35.674
		c-0.512,0.045-1.873,0.028-3.082-1.345c-0.949-1.08-2.289-3.632-2.295-9.387c-0.014-5.512,1.219-13.995,5.17-26.887
		C425.416,112.55,428.074,111.423,429.92,111.952z M200.742,80.656c-1.271,0.507-19.626,8.239-31.225,34.142
		c-0.429-1.611-0.992-3.272-1.854-5.018c-0.5-1.004-1.523-1.646-2.648-1.664c-21.572-0.233-23.941,2.211-24.708,3.028
		c-0.49,0.503-7.75,8.125-7.735,16.596c0.003,1.578,0.321,3.191,0.924,4.787c0.07,0.967,0.426,2.624,2.056,4.061
		c2.434,2.146,6.405,2.602,12.125,1.386c-0.102,0.022-0.204,0.042-0.314,0.05l13.118-1.33c0.462-0.046,0.916-0.205,1.312-0.465
		c0.4-0.251,0.84-0.692,1.264-1.03c-0.395,1.849-0.796,3.689-1.111,5.663c-0.306-0.218-0.618-0.439-0.995-0.524
		c-2.958-0.701-29.049-6.396-34.695,7.385c-0.854,2.128-20.564,51.927-5.669,69.74c0.222,0.266,0.486,0.49,0.782,0.656
		c0.531,0.314,10.347,7.097,34.876,0.565c0.411-0.113,3.025-1.08,3.353-1.349c0.918-0.747,7.939-4.9,11.914-9.771
		c1.198,1.313,2.727,2.679,5.04,3.783c6.734,3.221,15.895,2.728,27.228-1.467c0.128-0.055,0.255-0.109,0.377-0.173
		c1.271-0.679,31.229-16.964,33.447-34.964c0.017-0.124,0.026-0.249,0.024-0.369c-0.009-4.336-2.928-12.71-13.941-13.378
		c-1.468-0.093-2.787,0.909-3.098,2.352c-0.917,4.237-4.072,16.13-7.634,20.213c-0.069,0.076-0.138,0.165-0.196,0.253
		c-3.525,5.051-10.847,13.204-15.477,13.615c-0.833,0.072-1.442-0.187-2.037-0.734c-1.058-1.612-2.982-5.321-2.987-8.791
		c-0.003-0.407,0.059-0.798,0.121-1.189c4.252-5.813,36.329-50.625,36.278-80.313c-0.013-7.643-2.153-14.274-7.46-18.975
		c-0.305-0.264-0.659-0.469-1.039-0.6c-5.787-1.917-15.089-5.113-16.99-6.064C202.414,80.388,201.525,80.349,200.742,80.656z
		 M133.464,132.028c-0.002-0.087,0.003-0.17,0.007-0.255c-0.002,0.055-0.003,0.157-0.007,0.26
		C133.464,132.03,133.464,132.03,133.464,132.028z M191.07,158.918c-0.027-18.077,14.002-45.172,21.682-57.765
		c0.793,2.503,1.417,7.419,1.43,12.135c-0.448,3.353-12.658,27.933-22.923,47.757C191.206,160.331,191.071,159.674,191.07,158.918z
		 M147.673,202.808c-0.749,0.046-1.463,0.373-1.981,0.918C146.309,203.073,147.129,202.81,147.673,202.808z M52.105,98.792
		c-0.518,0.074-1.009,0.286-1.421,0.612c-1.887,1.486-46.181,36.983-50.372,86.057c-2.179,25.516,7.02,49.911,27.338,72.527
		c0.399,0.437,0.923,0.76,1.502,0.899c1.064,0.262,9.613,2.329,15.208,2.238c2.106,2.525,7.276,6.309,18.759,3.988
		c0.34-0.07,0.67-0.199,0.968-0.376c1.487-0.912,36.646-23.039,51.224-90.223c0.126-0.674,1.498-8.326,1.483-17.948
		c-0.016-10.253-1.606-22.74-7.949-31.461c-3.982-5.486-9.436-8.793-16.11-10.044c-0.867-1.458-2.454-3.513-5.062-4.24
		c-1.602-0.45-4.122-0.513-7.047,1.684c0.199-0.14,0.41-0.269,0.639-0.363c-0.052,0.024-0.85,0.387-2.077,1.059
		c2.416-2.668,4.79-5.348,7.426-8.018c0.562-0.562,0.867-1.33,0.866-2.103c-0.001-0.29-0.044-0.585-0.134-0.869
		c-0.322-1.054-1.196-1.84-2.274-2.059C84.341,100.008,67.027,96.638,52.105,98.792z M40.616,207.321
		c-0.394-3.205-0.595-6.442-0.601-9.703c-0.02-12.401,2.924-25.176,8.417-38.114c-0.606,3.939-1.014,8.097-1.006,12.641
		c0.004,1.788,0.056,3.618,0.168,5.502c0.01,0.096,0.018,0.189,0.033,0.29c0.157,0.978,3.995,24.152,17.56,33.62
		c3.828,2.67,8.035,4.009,12.566,3.994c-3.15,9.728-10.127,26.2-19.083,30.865c-0.899-0.299-1.457-0.483-2.086-0.691
		C54.419,243.216,43.337,229.424,40.616,207.321z M73.238,158.283c-0.023-13.737,6.477-25.547,7.95-28.052
		c0.278,0.044,1.033,0.738,1.466,1.465c0.308,0.515,0.769,0.934,1.314,1.189c2.34,1.09,3.533,8.687,3.553,19.815
		c0.013,9.104-0.805,20.611-2.373,32.808C76.126,177.103,73.253,167.303,73.238,158.283z M46.279,261.003
		c-0.146,0.02-0.29,0.026-0.434,0.028C45.977,261.017,46.148,261.021,46.279,261.003z"/>
	<path fill="#00549B" d="M495.652,89.203l1.355-25.01c-29.178-3.428-39.559,25.763-39.559,25.763
		c-5.527,12.511,3.527,27.779,3.527,27.779c20.842,4.831,21.57,25.663,21.57,25.663c-4.145,11.814-13.875,6.97-13.875,6.97
		c-6.248-0.683-13.225-16.647-13.225-16.647l-5.309,8.187c0.301-16.988,0.408-31.795,0.408-31.795
		c-2.791-6.246-6.268-6.931-6.268-6.931c-9.729-4.848-22.92-2.052-22.92-2.052c-20.832,2.125-19.391,35.456-19.391,35.456
		c-0.484,8.514,0.021,14.395,0.857,18.455c-1.682,2.984-3.861,6.195-5.682,6.559c0,0-5.547,3.484-3.488-11.104
		c0,0,6.191-36.827,0.635-37.51c0,0-6.953-4.157-12.506-0.668c0,0-6.223,15.288-11.781,15.296c0,0-1.295-3.864-3.484-7.636
		l-11.115,0.02c0,0-0.637,34.735-24.227,49.357c0,0-3.104,0.818-2.789-7.636c0,0,3.404-36.123,10.346-39.611l-27.088-0.644
		c0,0-15.875,60.045,1.492,61.402c0,0,9.404,6.693,35.398-14.929c0,0,0.605,12.859,6.859,12.849c0,0,13.957-25.39,13.938-36.503
		c0,0,5.555-4.176,7.629-8.346c0,0-2.746,21.536,0.045,25.702c0,0,2.799,12.492,21.547,8.995c0,0,5.049-3.183,8.332-6.951
		c6.266,6.217,21.518-0.746,21.518-0.746c0.736,22.917-16.604,36.149-16.604,36.149c-7.646,0.708-6.943,4.178-6.943,4.178
		c6.27,9.713,23.633,8.993,23.633,8.993c16.666-0.031,19.41-20.874,19.41-20.874c1-1.662,1.643-20.268,2.047-39.261l1.365,1.753
		c11.846,20.121,25.02,10.374,25.02,10.374c13.889-7.664,18.012-29.898,18.012-29.898c2.746-20.144-18.809-33.31-18.809-33.31
		c-2.088-0.689-5.566-6.243-5.566-6.243C474.113,81.593,495.652,89.203,495.652,89.203 M424.92,153.915
		c0,0-18.053,3.958-3.549-42.511c0,0,9.713-6.562,13.201,1.284C434.572,112.688,435.334,150.625,424.92,153.915z M325.531,115.876
		l14.586,0.675c0,0,14.576-6.281,8.992-22.939c0,0-22.238-3.436-25.006-1.347c0,0-12.488,9.048-9.695,18.767
		C314.408,111.033,313.029,116.593,325.531,115.876z M147.059,135.048l13.115-1.33c0,0,12.13-7.809,4.811-22.611
		c0,0-20.329-0.221-22.513,2.1c0,0-9.878,10.116-6.018,18.817C136.454,132.024,136.003,137.392,147.059,135.048z M300.629,179.128
		c4.139-20.848-0.771-46.536-0.771-46.536c-6.262-6.936-22.926-4.822-22.926-4.822c42.984-46.609,84.641-55.018,84.641-55.018
		c0.682-5.558-8.355-12.487-8.355-12.487c-20.139,1.423-81.863,53.621-81.863,53.621c-1.406-8.33,17.953-59.764,17.953-59.764
		c-2.086-2.08-25.701-0.652-25.701-0.652c-19.417,16.7-19.922,132.009-19.922,132.009c2.79,5.552,20.152,6.213,20.152,6.213
		c-4.893-21.523,5.461-57.659,5.461-57.659c2.777-0.701,7.654,4.85,7.654,4.85c2.783,2.766,1.426,25.005,1.426,25.005
		c-0.652,24.307,6.992,26.381,6.992,26.381c1.393,2.082,20.148,2.047,20.148,2.047l7.24-2.683
		C304.705,190.322,300.629,179.128,300.629,179.128z M223.506,163.979c0,0-3.444,15.984-8.294,21.546
		c0,0-14.551,20.863-22.21,13.233c0,0-4.876-6.936-3.49-13.188c0,0,55.763-76.372,29.706-95.902c0,0-14.596-4.844-17.375-6.224
		c0,0-49.285,19.531-36.633,109.109c0,0-4.84,12.507-17.34,13.225c0,0-8.333,1.401,0.645-29.174c0,0,13.15-29.192,11.752-33.36
		c0,0-26.403-6.207-31.246,5.608c0,0-20.061,50.041-6.142,66.694c0,0,9.086,6.07,32.689-0.218c0,0,13.838-8.197,15.915-13.065
		c0,0,4.886,14.577,31.26,4.809c0,0,29.838-16.021,31.895-32.696C234.635,174.376,234.618,164.657,223.506,163.979z M211.586,97.317
		c9.513-1.491,5.586,15.966,5.586,15.966c-6.729,26.156-28.142,55.708-28.142,55.708C178.572,146.783,211.586,97.317,211.586,97.317
		z M90.764,117.667c0,0-2.79-6.946-8.34-2.766c0,0-34.705,14.639-31.845,62.569c0,0,6.318,39.575,31.314,34.669
		c0,0-8.282,31.276-22.859,37.546l-4.168-1.38c0,0-55.665-58.949,29.623-145.218c0,0-17.369-3.447-31.956-1.334
		c0,0-94.336,74.481-22.658,154.235c0,0,11.116,2.754,15.976,2.056c0,0,2.792,6.948,16.679,4.144c0,0,35.387-21.596,49.861-88.302
		C112.391,173.885,122.027,121.779,90.764,117.667z M87.415,191.295c-32.686-24.252-8.441-63.193-8.441-63.193
		c3.47-2.783,6.254,2.069,6.254,2.069C95.655,135.023,87.415,191.295,87.415,191.295z"/>
</g>
</svg>
