<svg xmlns="http://www.w3.org/2000/svg" viewBox="0 0 200 149" width="200" height="149">
	<style>
		tspan { white-space:pre }
		.shp0 { fill: #b0b8bb } 
		.shp1 { fill: #045b41 } 
		.shp2 { fill: #f7f8f7 } 
		.shp3 { fill: #bc8448 } 
	</style>
	<g >
		<path class="shp0" d="M98.7 0.08C98.46 0.11 98.27 0.19 98.27 0.27C98.27 0.34 98.09 0.4 97.87 0.4C97.65 0.4 97.47 0.46 97.47 0.54C97.47 0.61 97.29 0.67 97.07 0.67C96.85 0.67 96.67 0.73 96.67 0.8C96.67 0.88 96.55 0.94 96.4 0.94C96.25 0.94 96.13 1 96.13 1.07C96.13 1.14 95.95 1.2 95.73 1.2C95.51 1.2 95.33 1.26 95.33 1.34C95.33 1.41 95.15 1.47 94.93 1.47C94.71 1.47 94.53 1.53 94.53 1.61C94.53 1.68 94.35 1.74 94.13 1.74C93.91 1.74 93.73 1.8 93.73 1.87C93.73 1.95 93.55 2.01 93.33 2.01C93.11 2.01 92.93 2.07 92.93 2.14C92.93 2.21 92.75 2.27 92.53 2.27C92.31 2.27 92.13 2.33 92.13 2.41C92.13 2.48 91.95 2.54 91.73 2.54C91.51 2.54 91.33 2.6 91.33 2.68C91.33 2.75 91.21 2.81 91.07 2.81C90.92 2.81 90.8 2.87 90.8 2.94C90.8 3.02 90.62 3.08 90.4 3.08C90.18 3.08 90 3.14 90 3.21C90 3.28 89.82 3.34 89.6 3.34C89.38 3.34 89.2 3.4 89.2 3.48C89.2 3.55 89.08 3.61 88.93 3.61C88.79 3.61 88.67 3.67 88.67 3.75C88.67 3.82 88.49 3.88 88.27 3.88C88.05 3.88 87.87 3.94 87.87 4.01C87.87 4.09 87.69 4.15 87.47 4.15C87.25 4.15 87.07 4.21 87.07 4.28C87.07 4.35 86.89 4.41 86.67 4.41C86.45 4.41 86.27 4.47 86.27 4.55C86.27 4.62 86.09 4.68 85.87 4.68C85.65 4.68 85.47 4.74 85.47 4.82C85.47 4.89 85.29 4.95 85.07 4.95C84.85 4.95 84.67 5.01 84.67 5.08C84.67 5.16 84.55 5.22 84.4 5.22C84.25 5.22 84.13 5.28 84.13 5.35C84.13 5.42 83.95 5.48 83.73 5.48C83.51 5.48 83.33 5.54 83.33 5.62C83.33 5.69 83.15 5.75 82.93 5.75C82.71 5.75 82.53 5.81 82.53 5.89C82.53 5.96 82.41 6.02 82.27 6.02C82.12 6.02 82 6.08 82 6.15C82 6.23 81.82 6.29 81.6 6.29C81.38 6.29 81.2 6.35 81.2 6.42C81.2 6.49 81.02 6.55 80.8 6.55C80.58 6.55 80.4 6.61 80.4 6.69C80.4 6.76 80.28 6.82 80.13 6.82C79.99 6.82 79.87 6.88 79.87 6.96C79.87 7.03 79.69 7.09 79.47 7.09C79.25 7.09 79.07 7.15 79.07 7.22C79.07 7.3 78.89 7.36 78.67 7.36C78.45 7.36 78.27 7.42 78.27 7.49C78.27 7.56 78.09 7.62 77.87 7.62C77.65 7.62 77.47 7.68 77.47 7.76C77.47 7.83 77.29 7.89 77.07 7.89C76.85 7.89 76.67 7.95 76.67 8.03C76.67 8.1 76.55 8.16 76.4 8.16C76.25 8.16 76.13 8.22 76.13 8.29C76.13 8.37 75.95 8.43 75.73 8.43C75.51 8.43 75.33 8.49 75.33 8.56C75.33 8.63 75.21 8.69 75.07 8.69C74.92 8.69 74.8 8.75 74.8 8.83C74.8 8.9 74.62 8.96 74.4 8.96C74.18 8.96 74 9.02 74 9.1C74 9.17 73.82 9.23 73.6 9.23C73.38 9.23 73.2 9.29 73.2 9.36C73.2 9.44 73.02 9.5 72.8 9.5C72.58 9.5 72.4 9.56 72.4 9.63C72.4 9.7 72.22 9.76 72 9.76C71.78 9.76 71.6 9.82 71.6 9.9C71.6 9.97 71.42 10.03 71.2 10.03C70.98 10.03 70.8 10.09 70.8 10.17C70.8 10.24 70.62 10.3 70.4 10.3C70.18 10.3 70 10.36 70 10.43C70 10.51 69.88 10.57 69.73 10.57C69.59 10.57 69.47 10.63 69.47 10.7C69.47 10.77 69.29 10.83 69.07 10.83C68.85 10.83 68.67 10.89 68.67 10.97C68.67 11.04 68.55 11.1 68.4 11.1C68.25 11.1 68.13 11.16 68.13 11.24C68.13 11.31 67.95 11.37 67.73 11.37C67.51 11.37 67.33 11.43 67.33 11.5C67.33 11.58 67.15 11.64 66.93 11.64C66.71 11.64 66.53 11.7 66.53 11.77C66.53 11.84 66.35 11.9 66.13 11.9C65.91 11.9 65.73 11.96 65.73 12.04C65.73 12.11 65.55 12.17 65.33 12.17C65.11 12.17 64.93 12.23 64.93 12.31C64.93 12.38 64.81 12.44 64.67 12.44C64.52 12.44 64.4 12.5 64.4 12.57C64.4 12.65 64.22 12.71 64 12.71C63.78 12.71 63.6 12.77 63.6 12.84C63.6 12.91 63.42 12.97 63.2 12.97C62.98 12.97 62.8 13.03 62.8 13.11C62.8 13.18 62.68 13.24 62.53 13.24C62.39 13.24 62.27 13.3 62.27 13.38C62.27 13.45 62.09 13.51 61.87 13.51C61.65 13.51 61.47 13.57 61.47 13.64C61.47 13.72 61.29 13.78 61.07 13.78C60.85 13.78 60.67 13.84 60.67 13.91C60.67 13.98 60.55 14.04 60.4 14.04C60.25 14.04 60.13 14.1 60.13 14.18C60.13 14.25 59.95 14.31 59.73 14.31C59.51 14.31 59.33 14.37 59.33 14.45C59.33 14.52 59.15 14.58 58.93 14.58C58.71 14.58 58.53 14.64 58.53 14.71C58.53 14.79 58.35 14.85 58.13 14.85C57.91 14.85 57.73 14.91 57.73 14.98C57.73 15.05 57.55 15.11 57.33 15.11C57.11 15.11 56.93 15.17 56.93 15.25C56.93 15.32 56.75 15.38 56.53 15.38C56.31 15.38 56.13 15.44 56.13 15.52C56.13 15.59 56.01 15.65 55.87 15.65C55.72 15.65 55.6 15.71 55.6 15.78C55.6 15.86 55.42 15.92 55.2 15.92C54.98 15.92 54.8 15.98 54.8 16.05C54.8 16.12 54.62 16.18 54.4 16.18C54.18 16.18 54 16.24 54 16.32C54 16.39 53.88 16.45 53.73 16.45C53.59 16.45 53.47 16.51 53.47 16.59C53.47 16.66 53.29 16.72 53.07 16.72C52.85 16.72 52.67 16.78 52.67 16.85C52.67 16.93 52.49 16.99 52.27 16.99C52.05 16.99 51.87 17.05 51.87 17.12C51.87 17.19 51.75 17.25 51.6 17.25C51.45 17.25 51.33 17.31 51.33 17.39C51.33 17.46 51.15 17.52 50.93 17.52C50.71 17.52 50.53 17.58 50.53 17.66C50.53 17.73 50.35 17.79 50.13 17.79C49.91 17.79 49.73 17.85 49.73 17.92C49.73 18 49.55 18.06 49.33 18.06C49.11 18.06 48.93 18.12 48.93 18.19C48.93 18.26 48.81 18.32 48.67 18.32C48.52 18.32 48.4 18.38 48.4 18.46C48.4 18.53 48.22 18.59 48 18.59C47.78 18.59 47.6 18.65 47.6 18.73C47.6 18.8 47.42 18.86 47.2 18.86C46.98 18.86 46.8 18.92 46.8 18.99C46.8 19.07 46.68 19.13 46.53 19.13C46.39 19.13 46.27 19.19 46.27 19.26C46.27 19.33 46.09 19.39 45.87 19.39C45.65 19.39 45.47 19.45 45.47 19.53C45.47 19.6 45.29 19.66 45.07 19.66C44.85 19.66 44.67 19.72 44.67 19.8C44.67 19.87 44.49 19.93 44.27 19.93C44.05 19.93 43.87 19.99 43.87 20.06C43.87 20.14 43.69 20.2 43.47 20.2C43.25 20.2 43.07 20.26 43.07 20.33C43.07 20.4 42.89 20.46 42.67 20.46C42.45 20.46 42.27 20.52 42.27 20.6C42.27 20.67 42.15 20.73 42 20.73C41.85 20.73 41.73 20.79 41.73 20.87C41.73 20.94 41.55 21 41.33 21C41.11 21 40.93 21.06 40.93 21.13C40.93 21.21 40.81 21.27 40.67 21.27C40.52 21.27 40.4 21.33 40.4 21.4C40.4 21.47 40.22 21.53 40 21.53C39.78 21.53 39.6 21.59 39.6 21.67C39.6 21.74 39.42 21.8 39.2 21.8C38.98 21.8 38.8 21.86 38.8 21.94C38.8 22.01 38.62 22.07 38.4 22.07C38.18 22.07 38 22.13 38 22.2C38 22.28 37.88 22.34 37.73 22.34C37.59 22.34 37.47 22.4 37.47 22.47C37.47 22.54 37.29 22.6 37.07 22.6C36.85 22.6 36.67 22.66 36.67 22.74C36.67 22.81 36.49 22.87 36.27 22.87C36.05 22.87 35.87 22.93 35.87 23.01C35.87 23.08 35.69 23.14 35.47 23.14C35.25 23.14 35.07 23.2 35.07 23.27C35.07 23.35 34.95 23.41 34.8 23.41C34.65 23.41 34.53 23.47 34.53 23.54C34.53 23.61 34.35 23.67 34.13 23.67C33.91 23.67 33.73 23.73 33.73 23.81C33.73 23.88 33.55 23.94 33.33 23.94C33.11 23.94 32.93 24 32.93 24.08C32.93 24.15 32.81 24.21 32.67 24.21C32.52 24.21 32.4 24.27 32.4 24.34C32.4 24.42 32.22 24.48 32 24.48C31.78 24.48 31.6 24.54 31.6 24.61C31.6 24.68 31.42 24.74 31.2 24.74C30.98 24.74 30.8 24.8 30.8 24.88C30.8 24.95 30.62 25.01 30.4 25.01C30.18 25.01 30 25.07 30 25.15C30 25.22 29.88 25.28 29.73 25.28C29.59 25.28 29.47 25.34 29.47 25.41C29.47 25.49 29.29 25.55 29.07 25.55C28.85 25.55 28.67 25.61 28.67 25.68C28.67 25.75 28.49 25.81 28.27 25.81C28.05 25.81 27.87 25.87 27.87 25.95C27.87 26.02 27.75 26.08 27.6 26.08C27.45 26.08 27.33 26.14 27.33 26.22C27.33 26.29 27.15 26.35 26.93 26.35C26.71 26.35 26.53 26.41 26.53 26.48C26.53 26.56 26.35 26.62 26.13 26.62C25.91 26.62 25.73 26.68 25.73 26.75C25.73 26.82 25.61 26.88 25.47 26.88C25.32 26.88 25.2 26.94 25.2 27.02C25.2 27.09 25.02 27.15 24.8 27.15C24.58 27.15 24.4 27.21 24.4 27.29C24.4 27.36 24.22 27.42 24 27.42C23.78 27.42 23.6 27.48 23.6 27.55C23.6 27.63 23.42 27.69 23.2 27.69C22.98 27.69 22.8 27.75 22.8 27.82C22.8 27.89 22.62 27.95 22.4 27.95C22.18 27.95 22 28.01 22 28.09C22 28.16 21.88 28.22 21.73 28.22C21.59 28.22 21.47 28.28 21.47 28.36C21.47 28.43 21.29 28.49 21.07 28.49C20.85 28.49 20.67 28.55 20.67 28.62C20.67 28.7 20.49 28.76 20.27 28.76C20.05 28.76 19.87 28.82 19.87 28.89C19.87 28.96 19.75 29.02 19.6 29.02C19.45 29.02 19.33 29.08 19.33 29.16C19.33 29.23 19.15 29.29 18.93 29.29C18.71 29.29 18.53 29.35 18.53 29.43C18.53 29.5 18.41 29.56 18.27 29.56C18.12 29.56 18 29.62 18 29.69C18 29.77 17.76 29.83 17.47 29.83C17.17 29.83 16.93 29.89 16.93 29.96C16.93 30.03 16.81 30.09 16.67 30.09C16.52 30.09 16.4 30.15 16.4 30.23C16.4 30.3 16.22 30.36 16 30.36C15.78 30.36 15.6 30.42 15.6 30.5C15.6 30.57 15.42 30.63 15.2 30.63C14.98 30.63 14.8 30.69 14.8 30.76C14.8 30.84 14.62 30.9 14.4 30.9C14.18 30.9 14 30.96 14 31.03C14 31.1 13.88 31.16 13.73 31.16C13.59 31.16 13.47 31.22 13.47 31.3C13.47 31.37 13.29 31.43 13.07 31.43C12.85 31.43 12.67 31.49 12.67 31.57C12.67 31.64 12.55 31.7 12.4 31.7C12.25 31.7 12.13 31.76 12.13 31.83C12.13 31.91 11.95 31.97 11.73 31.97C11.51 31.97 11.33 32.03 11.33 32.1C11.33 32.17 11.15 32.23 10.93 32.23C10.71 32.23 10.53 32.29 10.53 32.37C10.53 32.44 10.35 32.5 10.13 32.5C9.91 32.5 9.73 32.56 9.73 32.64C9.73 32.71 9.61 32.77 9.47 32.77C9.32 32.77 9.2 32.83 9.2 32.9C9.2 32.98 9.02 33.04 8.8 33.04C8.58 33.04 8.4 33.1 8.4 33.17C8.4 33.24 8.22 33.3 8 33.3C7.78 33.3 7.6 33.36 7.6 33.44C7.6 33.51 7.42 33.57 7.2 33.57C6.98 33.57 6.8 33.63 6.8 33.71C6.8 33.78 6.68 33.84 6.53 33.84C6.39 33.84 6.27 33.9 6.27 33.97C6.27 34.05 6.09 34.11 5.87 34.11C5.65 34.11 5.47 34.17 5.47 34.24C5.47 34.31 5.29 34.37 5.07 34.37C4.85 34.37 4.67 34.43 4.67 34.51C4.67 34.58 4.55 34.64 4.4 34.64C4.25 34.64 4.13 34.7 4.13 34.78C4.13 34.85 3.95 34.91 3.73 34.91C3.51 34.91 3.33 34.97 3.33 35.04C3.33 35.12 3.15 35.18 2.93 35.18C2.71 35.18 2.53 35.24 2.53 35.31C2.53 35.38 2.35 35.44 2.13 35.44C1.91 35.44 1.73 35.5 1.73 35.58C1.73 35.65 1.55 35.71 1.33 35.71C1.11 35.71 0.93 35.77 0.93 35.85C0.93 35.92 0.81 35.98 0.67 35.98C0.52 35.98 0.4 36.04 0.4 36.11C0.4 36.19 0.33 36.25 0.23 36.25C0.1 36.25 0.08 36.81 0.12 38.76C0.15 40.13 0.22 41.28 0.28 41.3C0.35 41.31 0.4 41.87 0.4 42.53C0.4 43.25 0.45 43.74 0.53 43.74C0.61 43.74 0.67 44.09 0.67 44.54C0.67 44.99 0.73 45.34 0.8 45.34C0.87 45.34 0.93 45.7 0.93 46.14C0.93 46.59 0.99 46.95 1.07 46.95C1.14 46.95 1.2 47.3 1.2 47.75C1.2 48.2 1.26 48.55 1.33 48.55C1.41 48.55 1.47 48.85 1.47 49.22C1.47 49.59 1.53 49.89 1.6 49.89C1.67 49.89 1.73 50.13 1.73 50.42C1.73 50.72 1.79 50.96 1.87 50.96C1.94 50.96 2 51.26 2 51.63C2 52 2.06 52.3 2.13 52.3C2.21 52.3 2.27 52.54 2.27 52.83C2.27 53.13 2.33 53.37 2.4 53.37C2.47 53.37 2.53 53.61 2.53 53.9C2.53 54.2 2.59 54.44 2.67 54.44C2.74 54.44 2.8 54.62 2.8 54.84C2.8 55.06 2.86 55.24 2.93 55.24C3.01 55.24 3.07 55.48 3.07 55.77C3.07 56.07 3.13 56.31 3.2 56.31C3.27 56.31 3.33 56.49 3.33 56.71C3.33 56.93 3.39 57.11 3.47 57.11C3.54 57.11 3.6 57.35 3.6 57.65C3.6 57.94 3.66 58.18 3.73 58.18C3.81 58.18 3.87 58.36 3.87 58.58C3.87 58.8 3.93 58.98 4 58.98C4.07 58.98 4.13 59.17 4.13 59.39C4.13 59.61 4.19 59.79 4.27 59.79C4.34 59.79 4.4 59.97 4.4 60.19C4.4 60.41 4.46 60.59 4.53 60.59C4.61 60.59 4.67 60.83 4.67 61.12C4.67 61.42 4.73 61.66 4.8 61.66C4.87 61.66 4.93 61.84 4.93 62.06C4.93 62.28 4.99 62.46 5.07 62.46C5.14 62.46 5.2 62.58 5.2 62.73C5.2 62.88 5.26 63 5.33 63C5.41 63 5.47 63.18 5.47 63.4C5.47 63.62 5.53 63.8 5.6 63.8C5.67 63.8 5.73 63.98 5.73 64.2C5.73 64.42 5.79 64.6 5.87 64.6C5.94 64.6 6 64.72 6 64.87C6 65.02 6.06 65.14 6.13 65.14C6.21 65.14 6.27 65.32 6.27 65.54C6.27 65.76 6.33 65.94 6.4 65.94C6.47 65.94 6.53 66.06 6.53 66.21C6.53 66.35 6.59 66.47 6.67 66.47C6.74 66.47 6.8 66.66 6.8 66.88C6.8 67.1 6.86 67.28 6.93 67.28C7.01 67.28 7.07 67.46 7.07 67.68C7.07 67.9 7.13 68.08 7.2 68.08C7.27 68.08 7.33 68.2 7.33 68.35C7.33 68.49 7.39 68.61 7.47 68.61C7.54 68.61 7.6 68.8 7.6 69.02C7.6 69.24 7.66 69.42 7.73 69.42C7.81 69.42 7.87 69.54 7.87 69.68C7.87 69.83 7.93 69.95 8 69.95C8.07 69.95 8.13 70.07 8.13 70.22C8.13 70.37 8.19 70.49 8.27 70.49C8.34 70.49 8.4 70.67 8.4 70.89C8.4 71.11 8.46 71.29 8.53 71.29C8.61 71.29 8.67 71.41 8.67 71.56C8.67 71.7 8.73 71.82 8.8 71.82C8.87 71.82 8.93 71.95 8.93 72.09C8.93 72.24 8.99 72.36 9.07 72.36C9.14 72.36 9.2 72.48 9.2 72.63C9.2 72.77 9.26 72.89 9.33 72.89C9.41 72.89 9.47 73.02 9.47 73.16C9.47 73.31 9.53 73.43 9.6 73.43C9.67 73.43 9.73 73.61 9.73 73.83C9.73 74.05 9.79 74.23 9.87 74.23C9.94 74.23 10 74.35 10 74.5C10 74.65 10.06 74.77 10.13 74.77C10.21 74.77 10.27 74.89 10.27 75.04C10.27 75.18 10.33 75.3 10.4 75.3C10.47 75.3 10.53 75.42 10.53 75.57C10.53 75.72 10.59 75.84 10.67 75.84C10.74 75.84 10.8 75.96 10.8 76.11C10.8 76.25 10.86 76.37 10.93 76.37C11.01 76.37 11.07 76.49 11.07 76.64C11.07 76.79 11.13 76.91 11.2 76.91C11.27 76.91 11.33 77.03 11.33 77.18C11.33 77.32 11.39 77.44 11.47 77.44C11.54 77.44 11.6 77.56 11.6 77.71C11.6 77.86 11.66 77.98 11.73 77.98C11.81 77.98 11.87 78.1 11.87 78.25C11.87 78.39 11.93 78.51 12 78.51C12.07 78.51 12.13 78.63 12.13 78.78C12.13 78.93 12.19 79.05 12.27 79.05C12.34 79.05 12.4 79.17 12.4 79.32C12.4 79.46 12.46 79.58 12.53 79.58C12.61 79.58 12.67 79.69 12.67 79.82C12.66 79.95 12.79 80.14 12.93 80.25C13.08 80.36 13.2 80.56 13.2 80.69C13.2 80.81 13.26 80.92 13.33 80.92C13.41 80.92 13.47 81.04 13.47 81.19C13.47 81.33 13.53 81.46 13.6 81.46C13.67 81.46 13.73 81.56 13.73 81.69C13.73 81.82 13.85 82.01 14 82.12C14.15 82.23 14.27 82.43 14.27 82.56C14.27 82.69 14.33 82.79 14.4 82.79C14.47 82.79 14.53 82.91 14.53 83.06C14.53 83.21 14.59 83.33 14.67 83.33C14.74 83.33 14.8 83.43 14.8 83.56C14.8 83.69 14.92 83.89 15.07 84C15.21 84.11 15.34 84.3 15.33 84.43C15.33 84.56 15.39 84.67 15.47 84.67C15.54 84.67 15.6 84.77 15.6 84.9C15.6 85.03 15.72 85.22 15.87 85.33C16.01 85.44 16.14 85.64 16.13 85.77C16.13 85.9 16.19 86 16.27 86C16.34 86 16.4 86.11 16.4 86.24C16.4 86.37 16.52 86.56 16.67 86.67C16.81 86.78 16.93 86.96 16.93 87.07C16.93 87.18 17.05 87.36 17.2 87.47C17.35 87.58 17.47 87.78 17.47 87.91C17.47 88.04 17.53 88.14 17.6 88.14C17.67 88.14 17.73 88.25 17.73 88.38C17.73 88.51 17.85 88.7 18 88.81C18.15 88.92 18.27 89.1 18.27 89.21C18.27 89.32 18.39 89.5 18.53 89.61C18.68 89.72 18.8 89.89 18.8 89.98C18.8 90.07 18.98 90.33 19.2 90.55C19.42 90.77 19.6 91.03 19.6 91.12C19.6 91.21 19.72 91.38 19.87 91.49C20.01 91.6 20.14 91.79 20.13 91.92C20.13 92.05 20.19 92.16 20.27 92.16C20.34 92.16 20.4 92.25 20.4 92.36C20.4 92.47 20.64 92.8 20.93 93.09C21.23 93.39 21.47 93.7 21.47 93.79C21.46 93.89 21.59 94.05 21.73 94.16C21.88 94.27 22 94.44 22 94.53C22 94.62 22.18 94.88 22.4 95.1C22.62 95.32 22.8 95.56 22.8 95.63C22.8 95.71 22.98 95.95 23.2 96.17C23.42 96.39 23.6 96.63 23.6 96.7C23.6 96.78 23.84 97.08 24.13 97.37C24.43 97.67 24.67 97.97 24.67 98.04C24.67 98.11 24.91 98.41 25.2 98.71C25.49 99 25.73 99.3 25.73 99.38C25.73 99.45 25.97 99.75 26.27 100.05C26.56 100.34 26.8 100.64 26.8 100.72C26.8 100.79 27.1 101.15 27.47 101.52C27.83 101.89 28.13 102.25 28.13 102.32C28.13 102.39 28.67 103 29.33 103.66C29.99 104.32 30.53 104.92 30.53 105C30.53 105.07 32.6 107.21 35.13 109.74C37.66 112.28 39.79 114.36 39.87 114.36C39.94 114.36 40.48 114.84 41.07 115.43C41.65 116.02 42.19 116.5 42.27 116.5C42.34 116.5 42.82 116.92 43.33 117.43C43.85 117.95 44.33 118.37 44.4 118.37C44.47 118.37 44.71 118.55 44.93 118.77C45.15 118.99 45.39 119.17 45.47 119.17C45.54 119.17 45.96 119.53 46.4 119.98C46.84 120.42 47.26 120.78 47.33 120.78C47.41 120.78 47.65 120.96 47.87 121.18C48.09 121.4 48.33 121.58 48.4 121.58C48.47 121.58 48.71 121.76 48.93 121.98C49.15 122.2 49.39 122.38 49.47 122.38C49.54 122.38 49.84 122.62 50.13 122.92C50.43 123.21 50.74 123.45 50.83 123.45C50.92 123.45 51.09 123.57 51.2 123.72C51.31 123.87 51.49 123.99 51.6 123.99C51.71 123.99 51.89 124.11 52 124.26C52.11 124.4 52.27 124.53 52.37 124.52C52.46 124.52 52.71 124.7 52.93 124.92C53.15 125.15 53.39 125.33 53.47 125.33C53.54 125.33 53.78 125.51 54 125.73C54.22 125.95 54.48 126.13 54.57 126.13C54.66 126.13 54.82 126.25 54.93 126.4C55.04 126.54 55.22 126.66 55.33 126.66C55.44 126.66 55.62 126.78 55.73 126.93C55.84 127.08 56.02 127.2 56.13 127.2C56.24 127.2 56.42 127.32 56.53 127.47C56.64 127.61 56.82 127.73 56.93 127.73C57.04 127.73 57.22 127.85 57.33 128C57.44 128.15 57.62 128.27 57.73 128.27C57.84 128.27 58.02 128.39 58.13 128.54C58.24 128.68 58.42 128.8 58.53 128.8C58.64 128.8 58.82 128.92 58.93 129.07C59.04 129.22 59.22 129.34 59.33 129.34C59.44 129.34 59.62 129.46 59.73 129.61C59.84 129.75 60.04 129.88 60.17 129.87C60.29 129.87 60.4 129.93 60.4 130.01C60.4 130.08 60.51 130.14 60.63 130.14C60.76 130.14 60.96 130.26 61.07 130.41C61.18 130.56 61.36 130.68 61.47 130.68C61.58 130.67 61.76 130.79 61.87 130.94C61.98 131.09 62.17 131.21 62.3 131.21C62.43 131.21 62.53 131.27 62.53 131.34C62.53 131.42 62.64 131.48 62.77 131.48C62.89 131.48 63.09 131.6 63.2 131.75C63.31 131.89 63.51 132.02 63.63 132.01C63.76 132.01 63.87 132.07 63.87 132.15C63.87 132.22 63.97 132.28 64.1 132.28C64.23 132.28 64.42 132.4 64.53 132.55C64.64 132.7 64.84 132.82 64.97 132.82C65.09 132.82 65.2 132.88 65.2 132.95C65.2 133.02 65.31 133.08 65.43 133.08C65.56 133.08 65.76 133.2 65.87 133.35C65.98 133.5 66.17 133.62 66.3 133.62C66.43 133.62 66.53 133.68 66.53 133.75C66.53 133.83 66.65 133.89 66.8 133.89C66.95 133.89 67.07 133.95 67.07 134.02C67.07 134.09 67.17 134.15 67.3 134.15C67.43 134.15 67.62 134.27 67.73 134.42C67.84 134.57 68.04 134.69 68.17 134.69C68.3 134.69 68.4 134.75 68.4 134.82C68.4 134.9 68.52 134.96 68.67 134.96C68.81 134.96 68.93 135.02 68.93 135.09C68.93 135.16 69.05 135.22 69.2 135.22C69.35 135.22 69.47 135.28 69.47 135.36C69.47 135.43 69.57 135.49 69.7 135.49C69.83 135.49 70.02 135.61 70.13 135.76C70.24 135.91 70.44 136.03 70.57 136.03C70.69 136.03 70.8 136.09 70.8 136.16C70.8 136.23 70.92 136.29 71.07 136.29C71.21 136.29 71.33 136.35 71.33 136.43C71.33 136.5 71.44 136.56 71.57 136.56C71.69 136.56 71.89 136.68 72 136.83C72.12 136.99 72.35 137.1 72.57 137.1C72.77 137.1 72.93 137.16 72.93 137.23C72.93 137.3 73.05 137.36 73.2 137.36C73.35 137.36 73.47 137.42 73.47 137.5C73.47 137.57 73.59 137.63 73.73 137.63C73.88 137.63 74 137.69 74 137.76C74 137.84 74.12 137.9 74.27 137.9C74.41 137.9 74.53 137.96 74.53 138.03C74.53 138.11 74.64 138.17 74.77 138.16C74.89 138.16 75.09 138.28 75.2 138.43C75.32 138.59 75.55 138.7 75.77 138.7C75.97 138.7 76.13 138.76 76.13 138.83C76.13 138.91 76.25 138.97 76.4 138.97C76.55 138.97 76.67 139.03 76.67 139.1C76.67 139.18 76.79 139.24 76.93 139.24C77.08 139.24 77.2 139.3 77.2 139.37C77.2 139.44 77.32 139.5 77.47 139.5C77.61 139.5 77.73 139.56 77.73 139.64C77.73 139.71 77.85 139.77 78 139.77C78.15 139.77 78.27 139.83 78.27 139.9C78.27 139.98 78.39 140.04 78.53 140.04C78.68 140.04 78.8 140.1 78.8 140.17C78.8 140.25 78.92 140.31 79.07 140.31C79.21 140.31 79.33 140.37 79.33 140.44C79.33 140.51 79.45 140.57 79.6 140.57C79.75 140.57 79.87 140.63 79.87 140.71C79.87 140.78 79.99 140.84 80.13 140.84C80.28 140.84 80.4 140.9 80.4 140.97C80.4 141.05 80.52 141.11 80.67 141.11C80.81 141.11 80.93 141.17 80.93 141.24C80.93 141.32 81.05 141.38 81.2 141.38C81.35 141.38 81.47 141.44 81.47 141.51C81.47 141.58 81.65 141.64 81.87 141.64C82.09 141.64 82.27 141.7 82.27 141.78C82.27 141.85 82.39 141.91 82.53 141.91C82.68 141.91 82.8 141.97 82.8 142.04C82.8 142.12 82.92 142.18 83.07 142.18C83.21 142.18 83.33 142.24 83.33 142.31C83.33 142.39 83.5 142.45 83.7 142.44C83.91 142.44 84.15 142.56 84.27 142.71C84.38 142.87 84.62 142.98 84.83 142.98C85.04 142.98 85.2 143.04 85.2 143.11C85.2 143.19 85.32 143.25 85.47 143.25C85.61 143.25 85.73 143.31 85.73 143.38C85.73 143.46 85.91 143.52 86.13 143.52C86.35 143.52 86.53 143.58 86.53 143.65C86.53 143.72 86.65 143.78 86.8 143.78C86.95 143.78 87.07 143.84 87.07 143.92C87.07 143.99 87.19 144.05 87.33 144.05C87.48 144.05 87.6 144.11 87.6 144.18C87.6 144.26 87.78 144.32 88 144.32C88.22 144.32 88.4 144.38 88.4 144.45C88.4 144.53 88.52 144.59 88.67 144.59C88.81 144.59 88.93 144.65 88.93 144.72C88.93 144.79 89.05 144.85 89.2 144.85C89.35 144.85 89.47 144.91 89.47 144.99C89.47 145.06 89.71 145.12 90 145.12C90.29 145.12 90.53 145.18 90.53 145.25C90.53 145.33 90.65 145.39 90.8 145.39C90.95 145.39 91.07 145.45 91.07 145.52C91.07 145.6 91.25 145.66 91.47 145.66C91.69 145.66 91.87 145.72 91.87 145.79C91.87 145.86 91.99 145.92 92.13 145.92C92.28 145.92 92.4 145.98 92.4 146.06C92.4 146.13 92.52 146.19 92.67 146.19C92.81 146.19 92.93 146.25 92.93 146.32C92.93 146.4 93.11 146.46 93.33 146.46C93.55 146.46 93.73 146.52 93.73 146.59C93.73 146.67 93.91 146.73 94.13 146.73C94.35 146.73 94.53 146.79 94.53 146.86C94.53 146.93 94.71 146.99 94.93 146.99C95.15 146.99 95.33 147.05 95.33 147.13C95.33 147.2 95.45 147.26 95.6 147.26C95.75 147.26 95.87 147.32 95.87 147.39C95.87 147.47 96.05 147.53 96.27 147.53C96.49 147.53 96.67 147.59 96.67 147.66C96.67 147.74 96.85 147.8 97.07 147.8C97.29 147.8 97.47 147.86 97.47 147.93C97.47 148 97.65 148.06 97.87 148.06C98.09 148.06 98.27 148.12 98.27 148.2C98.27 148.27 98.45 148.33 98.67 148.33C98.89 148.33 99.07 148.39 99.07 148.46C99.07 148.54 99.19 148.6 99.33 148.6C99.48 148.6 99.61 148.67 99.63 148.75C99.65 148.84 100.05 148.9 100.66 148.92C101.35 148.93 101.66 148.88 101.69 148.77C101.71 148.67 101.85 148.6 102 148.6C102.15 148.6 102.27 148.54 102.27 148.46C102.27 148.39 102.45 148.33 102.67 148.33C102.89 148.33 103.07 148.27 103.07 148.2C103.07 148.12 103.19 148.06 103.33 148.06C103.48 148.06 103.6 148 103.6 147.93C103.6 147.86 103.78 147.8 104 147.8C104.22 147.8 104.4 147.74 104.4 147.66C104.4 147.59 104.58 147.53 104.8 147.53C105.02 147.53 105.2 147.47 105.2 147.39C105.2 147.32 105.38 147.26 105.6 147.26C105.82 147.26 106 147.2 106 147.13C106 147.05 106.12 146.99 106.27 146.99C106.41 146.99 106.53 146.93 106.53 146.86C106.53 146.79 106.71 146.73 106.93 146.73C107.15 146.73 107.33 146.67 107.33 146.59C107.33 146.52 107.51 146.46 107.73 146.46C107.95 146.46 108.13 146.4 108.13 146.32C108.13 146.25 108.25 146.19 108.4 146.19C108.55 146.19 108.67 146.13 108.67 146.06C108.67 145.98 108.79 145.92 108.93 145.92C109.08 145.92 109.2 145.86 109.2 145.79C109.2 145.72 109.38 145.66 109.6 145.66C109.82 145.66 110 145.6 110 145.52C110 145.45 110.18 145.39 110.4 145.39C110.62 145.39 110.8 145.33 110.8 145.25C110.8 145.18 110.98 145.12 111.2 145.12C111.42 145.12 111.6 145.06 111.6 144.99C111.6 144.91 111.72 144.85 111.87 144.85C112.01 144.85 112.13 144.79 112.13 144.72C112.13 144.65 112.31 144.59 112.53 144.59C112.75 144.59 112.93 144.53 112.93 144.45C112.93 144.38 113.05 144.32 113.2 144.32C113.35 144.32 113.47 144.26 113.47 144.18C113.47 144.11 113.59 144.05 113.73 144.05C113.88 144.05 114 143.99 114 143.92C114 143.84 114.12 143.78 114.27 143.78C114.41 143.78 114.53 143.72 114.53 143.65C114.53 143.58 114.71 143.52 114.93 143.52C115.15 143.52 115.33 143.46 115.33 143.38C115.33 143.31 115.45 143.25 115.6 143.25C115.75 143.25 115.87 143.19 115.87 143.11C115.87 143.04 115.99 142.98 116.13 142.98C116.28 142.98 116.4 142.92 116.4 142.85C116.4 142.77 116.52 142.71 116.67 142.71C116.81 142.71 116.93 142.65 116.93 142.58C116.93 142.51 117.11 142.45 117.33 142.45C117.55 142.45 117.73 142.39 117.73 142.31C117.73 142.24 117.9 142.18 118.1 142.18C118.31 142.18 118.55 142.07 118.67 141.91C118.78 141.75 119.02 141.64 119.23 141.64C119.44 141.64 119.6 141.58 119.6 141.51C119.6 141.44 119.72 141.38 119.87 141.38C120.01 141.38 120.13 141.32 120.13 141.24C120.13 141.17 120.25 141.11 120.4 141.11C120.55 141.11 120.67 141.05 120.67 140.97C120.67 140.9 120.79 140.84 120.93 140.84C121.08 140.84 121.2 140.78 121.2 140.71C121.2 140.63 121.36 140.57 121.57 140.57C121.78 140.58 122.02 140.46 122.13 140.31C122.24 140.16 122.48 140.04 122.67 140.04C122.85 140.04 123.09 139.92 123.2 139.77C123.31 139.62 123.5 139.5 123.63 139.5C123.76 139.5 123.87 139.44 123.87 139.37C123.87 139.3 124.03 139.24 124.23 139.24C124.45 139.24 124.68 139.13 124.8 138.97C124.91 138.82 125.11 138.7 125.23 138.7C125.36 138.7 125.47 138.64 125.47 138.57C125.47 138.49 125.65 138.43 125.87 138.43C126.09 138.43 126.27 138.37 126.27 138.3C126.27 138.23 126.37 138.17 126.5 138.17C126.63 138.17 126.82 138.05 126.93 137.9C127.04 137.75 127.24 137.63 127.37 137.63C127.49 137.63 127.6 137.57 127.6 137.5C127.6 137.42 127.72 137.36 127.87 137.36C128.01 137.36 128.13 137.3 128.13 137.23C128.13 137.16 128.25 137.1 128.4 137.1C128.55 137.1 128.67 137.04 128.67 136.96C128.67 136.89 128.79 136.83 128.93 136.83C129.08 136.83 129.2 136.77 129.2 136.69C129.2 136.62 129.32 136.56 129.47 136.56C129.61 136.56 129.73 136.5 129.73 136.43C129.73 136.35 129.84 136.29 129.97 136.29C130.09 136.3 130.29 136.17 130.4 136.03C130.51 135.88 130.75 135.76 130.93 135.76C131.12 135.76 131.36 135.64 131.47 135.49C131.58 135.34 131.76 135.22 131.87 135.22C131.98 135.23 132.16 135.1 132.27 134.96C132.38 134.81 132.62 134.69 132.8 134.69C132.98 134.69 133.22 134.57 133.33 134.42C133.44 134.27 133.64 134.15 133.77 134.15C133.89 134.15 134 134.09 134 134.02C134 133.95 134.12 133.89 134.27 133.89C134.41 133.89 134.53 133.83 134.53 133.75C134.53 133.68 134.62 133.62 134.73 133.62C134.84 133.62 135.11 133.44 135.33 133.22C135.55 133 135.82 132.82 135.93 132.82C136.04 132.82 136.13 132.76 136.13 132.68C136.13 132.61 136.25 132.55 136.4 132.55C136.55 132.55 136.67 132.49 136.67 132.41C136.67 132.34 136.77 132.28 136.9 132.28C137.03 132.28 137.22 132.16 137.33 132.01C137.44 131.86 137.64 131.74 137.77 131.74C137.9 131.75 138 131.69 138 131.61C138 131.54 138.1 131.48 138.23 131.48C138.36 131.48 138.56 131.36 138.67 131.21C138.78 131.06 138.96 130.94 139.07 130.94C139.18 130.94 139.36 130.82 139.47 130.68C139.58 130.53 139.76 130.41 139.87 130.41C139.98 130.41 140.16 130.29 140.27 130.14C140.38 129.99 140.56 129.87 140.67 129.87C140.78 129.87 140.96 129.75 141.07 129.61C141.18 129.46 141.37 129.34 141.5 129.34C141.63 129.34 141.73 129.28 141.73 129.2C141.73 129.13 141.84 129.07 141.97 129.07C142.09 129.07 142.29 128.95 142.4 128.8C142.51 128.65 142.68 128.53 142.77 128.53C142.86 128.54 143.11 128.36 143.33 128.13C143.55 127.91 143.81 127.73 143.9 127.73C143.99 127.74 144.16 127.61 144.27 127.47C144.38 127.32 144.56 127.2 144.67 127.2C144.78 127.2 144.96 127.08 145.07 126.93C145.18 126.78 145.36 126.66 145.47 126.66C145.58 126.66 145.76 126.54 145.87 126.4C145.98 126.25 146.14 126.13 146.23 126.13C146.32 126.13 146.58 125.95 146.8 125.73C147.02 125.51 147.26 125.33 147.33 125.33C147.41 125.33 147.65 125.15 147.87 124.92C148.09 124.7 148.34 124.52 148.43 124.52C148.53 124.53 148.69 124.4 148.8 124.26C148.91 124.11 149.07 123.99 149.17 123.99C149.26 123.99 149.51 123.81 149.73 123.59C149.95 123.37 150.19 123.19 150.27 123.19C150.34 123.19 150.64 122.95 150.93 122.65C151.23 122.36 151.53 122.12 151.6 122.12C151.67 122.12 151.91 121.94 152.13 121.71C152.35 121.49 152.59 121.31 152.67 121.31C152.74 121.31 153.04 121.07 153.33 120.78C153.63 120.48 153.93 120.24 154 120.24C154.07 120.24 154.43 119.94 154.8 119.57C155.17 119.21 155.53 118.91 155.6 118.91C155.67 118.91 156.09 118.54 156.53 118.1C156.97 117.66 157.39 117.3 157.47 117.3C157.54 117.3 157.96 116.94 158.4 116.5C158.84 116.06 159.26 115.7 159.33 115.7C159.41 115.7 160.31 114.85 161.33 113.82C162.36 112.79 163.26 111.95 163.34 111.95C163.41 111.95 163.92 111.5 164.47 110.95C165.02 110.4 165.47 109.88 165.47 109.81C165.47 109.74 165.55 109.59 165.66 109.48C165.76 109.37 165.94 109.28 166.06 109.28C166.17 109.28 166.27 109.19 166.27 109.07C166.27 108.96 167.11 108.03 168.13 107C169.16 105.97 170 105.07 170 105C170 104.92 170.48 104.38 171.07 103.79C171.65 103.2 172.13 102.66 172.13 102.59C172.13 102.51 172.37 102.21 172.67 101.92C172.96 101.62 173.2 101.32 173.2 101.25C173.2 101.18 173.5 100.82 173.87 100.45C174.23 100.08 174.53 99.72 174.53 99.65C174.53 99.57 174.77 99.27 175.07 98.98C175.36 98.68 175.6 98.38 175.6 98.31C175.6 98.23 175.78 97.99 176 97.77C176.22 97.55 176.4 97.31 176.4 97.24C176.4 97.16 176.58 96.92 176.8 96.7C177.02 96.48 177.2 96.21 177.2 96.1C177.2 95.99 177.32 95.9 177.47 95.9C177.64 95.9 177.73 95.81 177.73 95.63C177.73 95.49 177.79 95.37 177.87 95.37C177.94 95.37 178 95.28 178 95.16C178 95.05 178.18 94.78 178.4 94.56C178.62 94.34 178.8 94.1 178.8 94.03C178.8 93.95 178.98 93.71 179.2 93.49C179.42 93.27 179.6 93.03 179.6 92.96C179.6 92.88 179.78 92.64 180 92.42C180.22 92.2 180.4 91.93 180.4 91.82C180.4 91.71 180.46 91.62 180.53 91.62C180.61 91.62 180.67 91.51 180.67 91.39C180.66 91.26 180.79 91.06 180.93 90.95C181.08 90.84 181.2 90.68 181.2 90.58C181.2 90.49 181.38 90.24 181.6 90.02C181.82 89.79 182 89.52 182 89.41C182 89.3 182.06 89.21 182.13 89.21C182.21 89.21 182.27 89.12 182.27 89.01C182.27 88.9 182.45 88.63 182.67 88.41C182.89 88.19 183.07 87.92 183.07 87.81C183.07 87.7 183.13 87.61 183.2 87.61C183.27 87.61 183.33 87.49 183.33 87.34C183.33 87.19 183.39 87.07 183.47 87.07C183.54 87.07 183.6 86.97 183.6 86.84C183.6 86.71 183.72 86.51 183.87 86.4C184.01 86.29 184.13 86.11 184.13 86C184.13 85.89 184.25 85.71 184.4 85.6C184.55 85.49 184.67 85.3 184.67 85.17C184.67 85.04 184.73 84.93 184.8 84.93C184.87 84.93 184.93 84.81 184.93 84.67C184.93 84.52 184.99 84.4 185.07 84.4C185.14 84.4 185.2 84.29 185.2 84.16C185.2 84.03 185.32 83.84 185.47 83.73C185.61 83.62 185.74 83.42 185.73 83.29C185.73 83.17 185.79 83.06 185.87 83.06C185.94 83.06 186 82.95 186 82.83C186 82.7 186.12 82.5 186.27 82.39C186.41 82.28 186.54 82.09 186.53 81.96C186.53 81.83 186.59 81.72 186.67 81.72C186.74 81.72 186.8 81.6 186.8 81.46C186.8 81.31 186.86 81.19 186.93 81.19C187.01 81.19 187.07 81.07 187.07 80.92C187.07 80.77 187.13 80.65 187.2 80.65C187.27 80.65 187.33 80.53 187.33 80.39C187.33 80.24 187.39 80.12 187.47 80.12C187.54 80.12 187.6 80 187.6 79.85C187.6 79.7 187.66 79.58 187.73 79.58C187.81 79.58 187.87 79.46 187.87 79.32C187.87 79.17 187.93 79.05 188 79.05C188.07 79.05 188.13 78.94 188.13 78.81C188.13 78.68 188.25 78.49 188.4 78.38C188.55 78.27 188.67 78.03 188.67 77.84C188.67 77.66 188.79 77.42 188.93 77.31C189.08 77.2 189.2 77 189.2 76.87C189.2 76.75 189.26 76.64 189.33 76.64C189.41 76.64 189.47 76.52 189.47 76.37C189.47 76.23 189.53 76.11 189.6 76.11C189.67 76.11 189.73 75.98 189.73 75.84C189.73 75.69 189.79 75.57 189.87 75.57C189.94 75.57 190 75.39 190 75.17C190 74.95 190.06 74.77 190.13 74.77C190.21 74.77 190.27 74.66 190.27 74.53C190.26 74.4 190.39 74.21 190.53 74.1C190.69 73.98 190.8 73.75 190.8 73.53C190.8 73.33 190.86 73.16 190.93 73.16C191.01 73.16 191.07 73.04 191.07 72.89C191.07 72.75 191.13 72.63 191.2 72.63C191.27 72.63 191.33 72.51 191.33 72.36C191.33 72.21 191.39 72.09 191.47 72.09C191.54 72.09 191.6 71.97 191.6 71.82C191.6 71.68 191.66 71.56 191.73 71.56C191.81 71.56 191.87 71.38 191.87 71.16C191.87 70.94 191.93 70.75 192 70.75C192.07 70.75 192.13 70.63 192.13 70.49C192.13 70.34 192.19 70.22 192.27 70.22C192.34 70.22 192.4 70.04 192.4 69.82C192.4 69.6 192.46 69.42 192.53 69.42C192.61 69.42 192.67 69.3 192.67 69.15C192.67 69 192.73 68.88 192.8 68.88C192.87 68.88 192.93 68.7 192.93 68.48C192.93 68.26 192.99 68.08 193.07 68.08C193.14 68.08 193.2 67.96 193.2 67.81C193.2 67.67 193.26 67.54 193.33 67.54C193.41 67.54 193.47 67.36 193.47 67.14C193.47 66.92 193.53 66.74 193.6 66.74C193.67 66.74 193.73 66.56 193.73 66.34C193.73 66.12 193.79 65.94 193.87 65.94C193.94 65.94 194 65.82 194 65.67C194 65.53 194.06 65.4 194.13 65.4C194.21 65.4 194.27 65.28 194.27 65.14C194.27 64.99 194.33 64.87 194.4 64.87C194.47 64.87 194.53 64.69 194.53 64.47C194.53 64.25 194.59 64.07 194.67 64.07C194.74 64.07 194.8 63.89 194.8 63.67C194.8 63.45 194.86 63.26 194.93 63.26C195.01 63.26 195.07 63.08 195.07 62.86C195.07 62.64 195.13 62.46 195.2 62.46C195.27 62.46 195.33 62.28 195.33 62.06C195.33 61.84 195.39 61.66 195.47 61.66C195.54 61.66 195.6 61.42 195.6 61.12C195.6 60.83 195.66 60.59 195.73 60.59C195.81 60.59 195.87 60.41 195.87 60.19C195.87 59.97 195.93 59.79 196 59.79C196.07 59.79 196.13 59.61 196.13 59.39C196.13 59.17 196.19 58.98 196.27 58.98C196.34 58.98 196.4 58.8 196.4 58.58C196.4 58.36 196.46 58.18 196.53 58.18C196.61 58.18 196.67 57.94 196.67 57.65C196.67 57.35 196.73 57.11 196.8 57.11C196.87 57.11 196.93 56.93 196.93 56.71C196.93 56.49 196.99 56.31 197.07 56.31C197.14 56.31 197.2 56.13 197.2 55.91C197.2 55.69 197.26 55.51 197.33 55.51C197.41 55.51 197.47 55.21 197.47 54.84C197.47 54.47 197.53 54.17 197.6 54.17C197.67 54.17 197.73 53.93 197.73 53.63C197.73 53.34 197.79 53.1 197.87 53.1C197.94 53.1 198 52.86 198 52.56C198 52.27 198.06 52.03 198.13 52.03C198.21 52.03 198.27 51.73 198.27 51.36C198.27 50.99 198.33 50.69 198.4 50.69C198.47 50.69 198.53 50.39 198.53 50.02C198.53 49.66 198.59 49.35 198.67 49.35C198.74 49.35 198.8 49.05 198.8 48.69C198.8 48.32 198.86 48.02 198.93 48.02C199.01 48.02 199.07 47.78 199.07 47.48C199.07 47.19 199.13 46.95 199.2 46.95C199.28 46.95 199.33 46.5 199.33 45.88C199.33 45.25 199.39 44.81 199.47 44.81C199.54 44.81 199.6 44.36 199.6 43.74C199.6 43.15 199.66 42.65 199.73 42.63C199.8 42.61 199.9 41.16 199.96 39.16L200.07 35.71C199.5 35.71 199.33 35.65 199.33 35.58C199.33 35.5 199.15 35.44 198.93 35.44C198.71 35.44 198.53 35.38 198.53 35.31C198.53 35.24 198.35 35.18 198.13 35.18C197.91 35.18 197.73 35.12 197.73 35.04C197.73 34.97 197.55 34.91 197.33 34.91C197.11 34.91 196.93 34.85 196.93 34.78C196.93 34.7 196.75 34.64 196.53 34.64C196.31 34.64 196.13 34.58 196.13 34.51C196.13 34.43 196.01 34.37 195.87 34.37C195.72 34.37 195.6 34.31 195.6 34.24C195.6 34.17 195.42 34.11 195.2 34.11C194.98 34.11 194.8 34.05 194.8 33.97C194.8 33.9 194.68 33.84 194.53 33.84C194.39 33.84 194.27 33.78 194.27 33.71C194.27 33.63 194.09 33.57 193.87 33.57C193.65 33.57 193.47 33.51 193.47 33.44C193.47 33.36 193.29 33.3 193.07 33.3C192.85 33.3 192.67 33.24 192.67 33.17C192.67 33.1 192.49 33.04 192.27 33.04C192.05 33.04 191.87 32.98 191.87 32.9C191.87 32.83 191.69 32.77 191.47 32.77C191.25 32.77 191.07 32.71 191.07 32.64C191.07 32.56 190.89 32.5 190.67 32.5C190.45 32.5 190.27 32.44 190.27 32.37C190.27 32.29 190.09 32.23 189.87 32.23C189.65 32.23 189.47 32.17 189.47 32.1C189.47 32.03 189.35 31.97 189.2 31.97C189.05 31.97 188.93 31.91 188.93 31.83C188.93 31.76 188.75 31.7 188.53 31.7C188.31 31.7 188.13 31.64 188.13 31.57C188.13 31.49 187.95 31.43 187.73 31.43C187.51 31.43 187.33 31.37 187.33 31.3C187.33 31.22 187.21 31.16 187.07 31.16C186.92 31.16 186.8 31.1 186.8 31.03C186.8 30.96 186.62 30.9 186.4 30.9C186.18 30.9 186 30.84 186 30.76C186 30.69 185.82 30.63 185.6 30.63C185.38 30.63 185.2 30.57 185.2 30.5C185.2 30.42 185.02 30.36 184.8 30.36C184.58 30.36 184.4 30.3 184.4 30.23C184.4 30.15 184.22 30.09 184 30.09C183.78 30.09 183.6 30.03 183.6 29.96C183.6 29.89 183.42 29.83 183.2 29.83C182.98 29.83 182.8 29.77 182.8 29.69C182.8 29.62 182.68 29.56 182.53 29.56C182.39 29.56 182.27 29.5 182.27 29.43C182.27 29.35 182.09 29.29 181.87 29.29C181.65 29.29 181.47 29.23 181.47 29.16C181.47 29.08 181.29 29.02 181.07 29.02C180.85 29.02 180.67 28.96 180.67 28.89C180.67 28.82 180.55 28.76 180.4 28.76C180.25 28.76 180.13 28.7 180.13 28.62C180.13 28.55 179.95 28.49 179.73 28.49C179.51 28.49 179.33 28.43 179.33 28.36C179.33 28.28 179.15 28.22 178.93 28.22C178.71 28.22 178.53 28.16 178.53 28.09C178.53 28.01 178.35 27.95 178.13 27.95C177.91 27.95 177.73 27.89 177.73 27.82C177.73 27.75 177.55 27.69 177.33 27.69C177.11 27.69 176.93 27.63 176.93 27.55C176.93 27.48 176.75 27.42 176.53 27.42C176.31 27.42 176.13 27.36 176.13 27.29C176.13 27.21 176.01 27.15 175.87 27.15C175.72 27.15 175.6 27.09 175.6 27.02C175.6 26.94 175.42 26.88 175.2 26.88C174.98 26.88 174.8 26.82 174.8 26.75C174.8 26.68 174.62 26.62 174.4 26.62C174.18 26.62 174 26.56 174 26.48C174 26.41 173.88 26.35 173.73 26.35C173.59 26.35 173.47 26.29 173.47 26.22C173.47 26.14 173.29 26.08 173.07 26.08C172.85 26.08 172.67 26.02 172.67 25.95C172.67 25.87 172.49 25.81 172.27 25.81C172.05 25.81 171.87 25.75 171.87 25.68C171.87 25.61 171.75 25.55 171.6 25.55C171.45 25.55 171.33 25.49 171.33 25.41C171.33 25.34 171.15 25.28 170.93 25.28C170.71 25.28 170.53 25.22 170.53 25.15C170.53 25.07 170.35 25.01 170.13 25.01C169.91 25.01 169.73 24.95 169.73 24.88C169.73 24.8 169.55 24.74 169.33 24.74C169.11 24.74 168.93 24.68 168.93 24.61C168.93 24.54 168.75 24.48 168.53 24.48C168.31 24.48 168.13 24.42 168.13 24.34C168.13 24.27 167.95 24.21 167.73 24.21C167.51 24.21 167.33 24.15 167.33 24.08C167.33 24 167.21 23.94 167.07 23.94C166.92 23.94 166.8 23.88 166.8 23.81C166.8 23.73 166.62 23.67 166.4 23.67C166.18 23.67 166 23.61 166 23.54C166 23.47 165.82 23.41 165.6 23.41C165.38 23.41 165.2 23.35 165.2 23.27C165.2 23.2 165.08 23.14 164.93 23.14C164.79 23.14 164.67 23.08 164.67 23.01C164.67 22.93 164.49 22.87 164.27 22.87C164.05 22.87 163.87 22.81 163.87 22.74C163.87 22.66 163.69 22.6 163.47 22.6C163.25 22.6 163.07 22.54 163.07 22.47C163.07 22.4 162.89 22.34 162.67 22.34C162.45 22.34 162.27 22.28 162.27 22.2C162.27 22.13 162.09 22.07 161.87 22.07C161.65 22.07 161.47 22.01 161.47 21.94C161.47 21.86 161.29 21.8 161.07 21.8C160.85 21.8 160.67 21.74 160.67 21.67C160.67 21.59 160.55 21.53 160.4 21.53C160.25 21.53 160.13 21.47 160.13 21.4C160.13 21.33 159.95 21.27 159.73 21.27C159.51 21.27 159.33 21.21 159.33 21.13C159.33 21.06 159.15 21 158.93 21C158.71 21 158.53 20.94 158.53 20.87C158.53 20.79 158.41 20.73 158.27 20.73C158.12 20.73 158 20.67 158 20.6C158 20.52 157.82 20.46 157.6 20.46C157.38 20.46 157.2 20.4 157.2 20.33C157.2 20.26 157.02 20.2 156.8 20.2C156.58 20.2 156.4 20.14 156.4 20.06C156.4 19.99 156.22 19.93 156 19.93C155.78 19.93 155.6 19.87 155.6 19.8C155.6 19.72 155.42 19.66 155.2 19.66C154.98 19.66 154.8 19.6 154.8 19.53C154.8 19.45 154.62 19.39 154.4 19.39C154.18 19.39 154 19.33 154 19.26C154 19.19 153.88 19.13 153.73 19.13C153.59 19.13 153.47 19.07 153.47 18.99C153.47 18.92 153.29 18.86 153.07 18.86C152.85 18.86 152.67 18.8 152.67 18.73C152.67 18.65 152.49 18.59 152.27 18.59C152.05 18.59 151.87 18.53 151.87 18.46C151.87 18.38 151.69 18.32 151.47 18.32C151.25 18.32 151.07 18.26 151.07 18.19C151.07 18.12 150.95 18.06 150.8 18.06C150.65 18.06 150.53 18 150.53 17.92C150.53 17.85 150.35 17.79 150.13 17.79C149.91 17.79 149.73 17.73 149.73 17.66C149.73 17.58 149.55 17.52 149.33 17.52C149.11 17.52 148.93 17.46 148.93 17.39C148.93 17.31 148.75 17.25 148.53 17.25C148.31 17.25 148.13 17.19 148.13 17.12C148.13 17.05 147.95 16.99 147.73 16.99C147.51 16.99 147.33 16.93 147.33 16.85C147.33 16.78 147.15 16.72 146.93 16.72C146.71 16.72 146.53 16.66 146.53 16.59C146.53 16.51 146.41 16.45 146.27 16.45C146.12 16.45 146 16.39 146 16.32C146 16.24 145.82 16.18 145.6 16.18C145.38 16.18 145.2 16.12 145.2 16.05C145.2 15.98 145.02 15.92 144.8 15.92C144.58 15.92 144.4 15.86 144.4 15.78C144.4 15.71 144.28 15.65 144.13 15.65C143.99 15.65 143.87 15.59 143.87 15.52C143.87 15.44 143.69 15.38 143.47 15.38C143.25 15.38 143.07 15.32 143.07 15.25C143.07 15.17 142.89 15.11 142.67 15.11C142.45 15.11 142.27 15.05 142.27 14.98C142.27 14.91 142.09 14.85 141.87 14.85C141.65 14.85 141.47 14.79 141.47 14.71C141.47 14.64 141.29 14.58 141.07 14.58C140.85 14.58 140.67 14.52 140.67 14.45C140.67 14.37 140.55 14.31 140.4 14.31C140.25 14.31 140.13 14.25 140.13 14.18C140.13 14.1 139.95 14.04 139.73 14.04C139.51 14.04 139.33 13.98 139.33 13.91C139.33 13.84 139.15 13.78 138.93 13.78C138.71 13.78 138.53 13.72 138.53 13.64C138.53 13.57 138.35 13.51 138.13 13.51C137.91 13.51 137.73 13.45 137.73 13.38C137.73 13.3 137.61 13.24 137.47 13.24C137.32 13.24 137.2 13.18 137.2 13.11C137.2 13.03 137.02 12.97 136.8 12.97C136.58 12.97 136.4 12.91 136.4 12.84C136.4 12.77 136.22 12.71 136 12.71C135.78 12.71 135.6 12.65 135.6 12.57C135.6 12.5 135.42 12.44 135.2 12.44C134.98 12.44 134.8 12.38 134.8 12.31C134.8 12.23 134.62 12.17 134.4 12.17C134.18 12.17 134 12.11 134 12.04C134 11.96 133.82 11.9 133.6 11.9C133.38 11.9 133.2 11.84 133.2 11.77C133.2 11.7 133.08 11.64 132.93 11.64C132.79 11.64 132.67 11.58 132.67 11.5C132.67 11.43 132.49 11.37 132.27 11.37C132.05 11.37 131.87 11.31 131.87 11.24C131.87 11.16 131.69 11.1 131.47 11.1C131.25 11.1 131.07 11.04 131.07 10.97C131.07 10.89 130.89 10.83 130.67 10.83C130.45 10.83 130.27 10.77 130.27 10.7C130.27 10.63 130.15 10.57 130 10.57C129.85 10.57 129.73 10.51 129.73 10.43C129.73 10.36 129.55 10.3 129.33 10.3C129.11 10.3 128.93 10.24 128.93 10.17C128.93 10.09 128.75 10.03 128.53 10.03C128.31 10.03 128.13 9.97 128.13 9.9C128.13 9.82 127.95 9.76 127.73 9.76C127.51 9.76 127.33 9.7 127.33 9.63C127.33 9.56 127.21 9.5 127.07 9.5C126.92 9.5 126.8 9.44 126.8 9.36C126.8 9.29 126.56 9.23 126.27 9.23C125.97 9.23 125.73 9.17 125.73 9.1C125.73 9.02 125.61 8.96 125.47 8.96C125.32 8.96 125.2 8.9 125.2 8.83C125.2 8.75 125.02 8.69 124.8 8.69C124.58 8.69 124.4 8.63 124.4 8.56C124.4 8.49 124.22 8.43 124 8.43C123.78 8.43 123.6 8.37 123.6 8.29C123.6 8.22 123.48 8.16 123.33 8.16C123.19 8.16 123.07 8.1 123.07 8.03C123.07 7.95 122.89 7.89 122.67 7.89C122.45 7.89 122.27 7.83 122.27 7.76C122.27 7.68 122.09 7.62 121.87 7.62C121.65 7.62 121.47 7.56 121.47 7.49C121.47 7.42 121.29 7.36 121.07 7.36C120.85 7.36 120.67 7.3 120.67 7.22C120.67 7.15 120.49 7.09 120.27 7.09C120.05 7.09 119.87 7.03 119.87 6.96C119.87 6.88 119.69 6.82 119.47 6.82C119.25 6.82 119.07 6.76 119.07 6.69C119.07 6.61 118.95 6.55 118.8 6.55C118.65 6.55 118.53 6.49 118.53 6.42C118.53 6.35 118.35 6.29 118.13 6.29C117.91 6.29 117.73 6.23 117.73 6.15C117.73 6.08 117.55 6.02 117.33 6.02C117.11 6.02 116.93 5.96 116.93 5.89C116.93 5.81 116.81 5.75 116.67 5.75C116.52 5.75 116.4 5.69 116.4 5.62C116.4 5.54 116.22 5.48 116 5.48C115.78 5.48 115.6 5.42 115.6 5.35C115.6 5.28 115.42 5.22 115.2 5.22C114.98 5.22 114.8 5.16 114.8 5.08C114.8 5.01 114.62 4.95 114.4 4.95C114.18 4.95 114 4.89 114 4.82C114 4.74 113.82 4.68 113.6 4.68C113.38 4.68 113.2 4.62 113.2 4.55C113.2 4.47 113.08 4.41 112.93 4.41C112.79 4.41 112.67 4.35 112.67 4.28C112.67 4.21 112.49 4.15 112.27 4.15C112.05 4.15 111.87 4.09 111.87 4.01C111.87 3.94 111.69 3.88 111.47 3.88C111.25 3.88 111.07 3.82 111.07 3.75C111.07 3.67 110.89 3.61 110.67 3.61C110.45 3.61 110.27 3.55 110.27 3.48C110.27 3.4 110.09 3.34 109.87 3.34C109.65 3.34 109.47 3.28 109.47 3.21C109.47 3.14 109.35 3.08 109.2 3.08C109.05 3.08 108.93 3.02 108.93 2.94C108.93 2.87 108.75 2.81 108.53 2.81C108.31 2.81 108.13 2.75 108.13 2.68C108.13 2.6 107.95 2.54 107.73 2.54C107.51 2.54 107.33 2.48 107.33 2.41C107.33 2.33 107.15 2.27 106.93 2.27C106.71 2.27 106.53 2.21 106.53 2.14C106.53 2.07 106.35 2.01 106.13 2.01C105.91 2.01 105.73 1.95 105.73 1.87C105.73 1.8 105.55 1.74 105.33 1.74C105.11 1.74 104.93 1.68 104.93 1.61C104.93 1.53 104.75 1.47 104.53 1.47C104.31 1.47 104.13 1.41 104.13 1.34C104.13 1.26 103.95 1.2 103.73 1.2C103.51 1.2 103.33 1.14 103.33 1.07C103.33 1 103.21 0.94 103.07 0.94C102.92 0.94 102.8 0.88 102.8 0.8C102.8 0.73 102.62 0.67 102.4 0.67C102.18 0.67 102 0.61 102 0.54C102 0.46 101.82 0.4 101.6 0.4C101.38 0.4 101.19 0.33 101.17 0.25C101.15 0.16 100.74 0.09 100.13 0.06C99.58 0.04 98.94 0.05 98.7 0.08Z" />
		<path class="shp1" d="M97.07 6.42C95.49 7.01 93.96 7.58 93.67 7.68C93.37 7.79 92.47 8.11 91.67 8.4C90.86 8.69 89.27 9.28 88.13 9.7C87 10.12 85.41 10.7 84.6 10.99C83.79 11.29 82.83 11.64 82.47 11.77C82.1 11.9 81.32 12.19 80.73 12.42C80.15 12.64 78.23 13.35 76.47 13.98C74.71 14.62 72.79 15.32 72.2 15.54C71.61 15.76 70.86 16.03 70.53 16.14C70.2 16.26 68.88 16.74 67.6 17.22C66.32 17.69 64.52 18.35 63.6 18.68C62.68 19.01 61.63 19.39 61.27 19.53C60.9 19.66 59.79 20.08 58.8 20.44C57.81 20.81 55.89 21.51 54.53 22.01C53.18 22.5 51.59 23.08 51 23.3C50.41 23.51 49.66 23.79 49.33 23.9C49 24.01 47.71 24.48 46.47 24.95C45.22 25.41 43.84 25.92 43.4 26.08C42.96 26.24 42.12 26.54 41.53 26.75C40.95 26.96 39.99 27.31 39.4 27.53C38.81 27.75 36.98 28.42 35.33 29.02C33.68 29.63 31.85 30.3 31.27 30.52C30.68 30.74 30.05 30.97 29.87 31.03C29.68 31.09 28.87 31.38 28.07 31.67C27.26 31.97 26.33 32.31 26 32.43C25.67 32.56 25.1 32.77 24.73 32.91C24.37 33.04 23.47 33.38 22.73 33.65C22 33.92 20.74 34.38 19.93 34.67C19.13 34.96 17.84 35.43 17.07 35.71C16.3 35.99 14.89 36.5 13.93 36.84C12.98 37.19 11.72 37.65 11.13 37.87C10.55 38.1 9.77 38.39 9.4 38.53C9.03 38.66 8.13 38.99 7.4 39.25C6.67 39.51 5.98 39.78 5.87 39.84C5.76 39.9 5.64 40.16 5.62 40.41C5.59 40.66 5.64 41.43 5.73 42.13C5.82 42.83 6.04 44.28 6.22 45.34C6.4 46.41 6.64 47.7 6.75 48.22C6.85 48.73 7 49.39 7.06 49.69C7.13 49.98 7.31 50.74 7.46 51.36C7.61 51.99 7.8 52.71 7.87 52.97C7.94 53.22 8.24 54.31 8.54 55.37C8.84 56.44 9.41 58.28 9.8 59.45C10.19 60.63 10.75 62.22 11.04 63C11.33 63.77 11.67 64.67 11.8 65C11.92 65.33 12.08 65.73 12.14 65.87C12.21 66.02 12.54 66.8 12.87 67.61C13.21 68.42 13.69 69.52 13.94 70.05C14.2 70.59 14.4 71.05 14.4 71.09C14.4 71.13 14.99 72.34 15.71 73.8C16.43 75.25 17.31 76.98 17.66 77.64C18.02 78.31 18.5 79.18 18.74 79.58C18.98 79.99 19.7 81.22 20.35 82.32C21 83.43 22.33 85.53 23.32 87.01C24.3 88.48 25.41 90.1 25.79 90.62C26.17 91.13 26.84 92.03 27.27 92.62C27.7 93.21 28.88 94.72 29.88 95.97C30.88 97.22 32.39 99.02 33.23 99.98C34.07 100.94 35.74 102.76 36.94 104.02C38.15 105.29 39.97 107.12 41 108.09C42.03 109.06 43.2 110.16 43.6 110.54C44 110.91 44.78 111.61 45.33 112.09C45.88 112.56 46.42 113.04 46.53 113.14C46.64 113.25 47.51 113.97 48.45 114.75C49.4 115.53 50.75 116.62 51.45 117.17C52.16 117.72 53.51 118.75 54.47 119.46C55.42 120.16 56.92 121.24 57.8 121.86C58.68 122.47 59.82 123.25 60.33 123.59C60.85 123.93 61.93 124.63 62.73 125.15C63.54 125.66 64.68 126.39 65.27 126.75C65.85 127.12 67.26 127.96 68.4 128.63C69.54 129.29 70.95 130.1 71.53 130.42C72.12 130.74 72.9 131.17 73.27 131.38C73.63 131.58 75.7 132.64 77.87 133.72C80.03 134.81 82.16 135.86 82.6 136.06C83.04 136.25 83.88 136.64 84.47 136.9C85.05 137.17 86.34 137.74 87.33 138.16C88.32 138.59 89.72 139.18 90.43 139.49C91.15 139.79 92.35 140.27 93.1 140.56C93.85 140.85 95.28 141.4 96.27 141.78C97.26 142.16 98.49 142.62 99 142.8L99.93 143.13C101.17 142.53 101.86 142.23 102.27 142.08C102.67 141.93 103.48 141.62 104.07 141.4C104.65 141.18 106.27 140.56 107.67 140.03C109.06 139.5 110.58 138.89 111.03 138.68C111.49 138.47 111.9 138.3 111.93 138.3C111.97 138.3 112.64 138.02 113.43 137.68C114.22 137.35 115.17 136.93 115.53 136.77C115.9 136.6 116.47 136.34 116.8 136.19C117.13 136.04 118.21 135.54 119.2 135.08C120.19 134.62 122.23 133.63 123.73 132.87C125.24 132.1 126.98 131.2 127.6 130.86C128.22 130.52 129.9 129.58 131.33 128.76C132.76 127.95 134.41 126.98 135 126.62C135.59 126.25 136.43 125.74 136.87 125.48C137.31 125.22 139.11 124.04 140.87 122.85C142.63 121.67 145.15 119.9 146.47 118.91C147.79 117.93 149.77 116.4 150.87 115.51C151.97 114.63 153.47 113.39 154.2 112.76C154.93 112.14 156.22 110.99 157.07 110.22C157.91 109.45 159.67 107.77 160.98 106.48C162.29 105.18 164.24 103.16 165.31 101.99C166.39 100.81 167.78 99.24 168.41 98.51C169.04 97.77 170.15 96.42 170.88 95.5C171.62 94.58 172.76 93.1 173.42 92.22C174.07 91.34 175.16 89.83 175.83 88.88C176.5 87.92 177.54 86.36 178.14 85.4C178.75 84.44 179.69 82.91 180.24 81.99C180.78 81.07 181.36 80.08 181.53 79.78C181.69 79.49 182.19 78.59 182.63 77.78C183.08 76.97 184.01 75.13 184.7 73.7C185.4 72.26 186.33 70.25 186.77 69.22C187.21 68.19 187.89 66.56 188.27 65.61C188.65 64.65 189.26 63.02 189.63 61.99C189.99 60.96 190.47 59.55 190.69 58.85C190.91 58.15 191.23 57.1 191.4 56.51C191.58 55.92 191.85 54.96 192 54.37C192.16 53.78 192.37 52.97 192.48 52.56C192.59 52.16 192.73 51.56 192.8 51.23C192.87 50.9 193.05 50.05 193.2 49.35C193.36 48.66 193.54 47.78 193.6 47.42C193.66 47.05 193.81 46.23 193.91 45.61C194.02 44.98 194.18 43.93 194.27 43.27C194.35 42.61 194.48 41.66 194.54 41.16C194.61 40.67 194.67 40.14 194.67 39.99C194.67 39.83 194.52 39.65 194.3 39.54C194.1 39.44 193.66 39.26 193.33 39.15C193 39.03 192.25 38.76 191.67 38.54C191.08 38.33 188.92 37.53 186.87 36.78C184.81 36.03 182.65 35.24 182.07 35.02C181.48 34.8 180.52 34.45 179.93 34.24C179.35 34.03 178.36 33.67 177.73 33.44C177.11 33.2 176.45 32.96 176.27 32.9C176.08 32.84 175.33 32.57 174.6 32.3C173.87 32.03 172.88 31.67 172.4 31.49C171.92 31.32 171.02 30.99 170.4 30.76C169.78 30.53 168.61 30.09 167.8 29.8C166.99 29.51 165.7 29.04 164.93 28.76C164.16 28.48 160.86 27.28 157.6 26.08C154.34 24.89 151.52 23.86 151.33 23.8C151.15 23.75 150.49 23.51 149.87 23.28C149.24 23.05 148.43 22.75 148.07 22.61C147.7 22.48 146.29 21.97 144.93 21.47C143.58 20.98 141.9 20.36 141.2 20.1C140.5 19.84 139.3 19.4 138.53 19.13C137.76 18.85 136.68 18.46 136.13 18.26C135.58 18.06 134.35 17.61 133.4 17.25C132.45 16.9 130.8 16.3 129.73 15.92C128.67 15.53 127.26 15.02 126.6 14.78C125.94 14.53 124.62 14.05 123.67 13.71C122.71 13.37 121.63 12.98 121.27 12.85C120.9 12.71 120.12 12.42 119.53 12.19C118.95 11.97 117.6 11.48 116.53 11.1C115.47 10.72 114.12 10.23 113.53 10.01C112.95 9.79 112.17 9.49 111.8 9.36C111.43 9.22 109.69 8.59 107.93 7.95C106.17 7.31 104.25 6.61 103.67 6.39C103.08 6.18 102.27 5.88 101.87 5.72C101.46 5.57 100.86 5.42 100.53 5.4C100.05 5.36 99.39 5.56 97.07 6.42Z" />
		<path class="shp2" d="M99.05 10.25C98.07 10.89 96.46 11.93 95.47 12.57C94.48 13.22 92.71 14.36 91.53 15.12C90.36 15.87 88.41 17.14 87.2 17.92C85.99 18.71 84.32 19.8 83.48 20.34L81.96 21.33C81.53 20.77 81.25 20.32 81.07 19.97C80.89 19.61 80.51 18.92 80.24 18.42C79.88 17.78 79.66 17.52 79.47 17.52C79.32 17.52 78.99 17.61 78.73 17.72C78.48 17.83 78.07 18.01 77.83 18.12C77.59 18.22 76.29 18.74 74.93 19.26C73.58 19.78 72.26 20.31 72 20.42C71.74 20.53 71.41 20.67 71.27 20.73C71.12 20.78 70.7 20.96 70.33 21.11C69.97 21.27 68.95 21.67 68.07 22.01C67.19 22.35 66.27 22.71 66.03 22.81C65.8 22.92 65.41 23.09 65.17 23.2C64.93 23.3 63.56 23.85 62.13 24.41C60.7 24.97 59.14 25.58 58.67 25.76C58.19 25.95 57.47 26.24 57.07 26.42C56.66 26.59 55.61 27.01 54.73 27.35C53.85 27.69 52.94 28.06 52.7 28.16C52.46 28.27 52.07 28.44 51.83 28.54C51.59 28.65 50.44 29.1 49.27 29.55C48.09 30.01 46.95 30.46 46.73 30.56C46.51 30.66 40.11 33.23 32.5 36.27C24.5 39.47 18.67 41.87 18.67 41.96C18.67 42.09 18.76 42.1 19.03 42.01C19.23 41.94 20.21 41.65 21.2 41.35C22.19 41.06 23.93 40.54 25.07 40.19C26.2 39.85 28.15 39.27 29.4 38.91C30.65 38.54 32.33 38.04 33.13 37.79C33.94 37.54 35.56 37.06 36.73 36.71C37.91 36.37 39.56 35.88 40.4 35.62C41.24 35.36 42.92 34.86 44.13 34.5C45.34 34.15 46.75 33.73 47.27 33.57C47.78 33.41 48.38 33.23 48.6 33.17C48.82 33.11 50.44 32.63 52.2 32.11C53.96 31.59 55.91 31.01 56.53 30.82C57.16 30.63 58.24 30.3 58.93 30.09C59.63 29.88 61.46 29.34 63 28.89C64.54 28.44 65.95 28.02 66.13 27.95C66.32 27.89 67.73 27.47 69.27 27.02C70.81 26.57 72.46 26.08 72.93 25.94C73.41 25.8 74.03 25.6 74.3 25.51C74.63 25.4 74.84 25.39 74.93 25.48C75 25.55 75.3 26.31 75.6 27.15C75.9 28 76.32 29.17 76.53 29.76C76.73 30.35 76.94 30.94 76.99 31.06C77.03 31.19 77.14 31.3 77.23 31.3C77.33 31.3 78.46 30.79 79.77 30.16C81.07 29.54 82.9 28.66 83.83 28.2C84.77 27.75 86.07 27.13 86.73 26.82C87.39 26.51 88.56 25.95 89.33 25.58C90.1 25.21 91.12 24.72 91.6 24.49C92.08 24.26 92.57 24.07 92.7 24.07C92.84 24.07 93.74 25.09 94.99 26.65C96.12 28.07 97.82 30.19 98.77 31.36C99.71 32.54 100.56 33.5 100.64 33.5C100.72 33.5 101.95 32.17 103.36 30.55C104.78 28.92 106.56 26.86 107.33 25.97C108.1 25.08 108.76 24.34 108.8 24.34C108.84 24.34 109.99 24.88 111.37 25.54C112.74 26.21 113.9 26.75 113.93 26.75C113.97 26.75 115.17 27.32 116.6 28.02C118.03 28.72 119.21 29.29 119.23 29.29C119.25 29.29 120.39 29.83 121.77 30.49C123.14 31.16 124.33 31.7 124.4 31.7C124.47 31.7 124.6 31.53 124.68 31.33C124.77 31.13 124.88 30.84 124.94 30.7C125.01 30.55 125.39 29.44 125.81 28.22C126.22 27.01 126.62 25.95 126.68 25.88C126.76 25.79 127.02 25.81 127.44 25.92C127.78 26.01 128.25 26.15 128.47 26.21C128.69 26.27 129.89 26.63 131.13 27C132.38 27.37 133.82 27.8 134.33 27.96C134.85 28.11 135.45 28.29 135.67 28.35C135.89 28.42 136.82 28.69 137.73 28.96C138.65 29.23 140.36 29.73 141.53 30.09C142.71 30.44 143.79 30.76 143.93 30.8C144.08 30.84 144.59 30.99 145.07 31.14C145.54 31.29 146.89 31.69 148.07 32.03C149.24 32.38 150.89 32.87 151.73 33.13C152.58 33.39 154.68 34.01 156.4 34.51C158.12 35.01 159.95 35.55 160.47 35.71C160.98 35.87 161.58 36.05 161.8 36.11C162.02 36.17 163.22 36.53 164.47 36.9C165.71 37.26 167.36 37.76 168.13 37.99C168.9 38.22 169.71 38.46 169.93 38.52C170.15 38.58 171.17 38.88 172.2 39.19C173.23 39.5 174.85 39.98 175.8 40.26C176.75 40.54 178.16 40.96 178.93 41.2C179.7 41.43 180.9 41.78 181.6 41.99C182.44 42.24 182.88 42.31 182.91 42.21C182.93 42.13 182.93 42.06 182.91 42.05C182.89 42.05 179.81 40.82 176.07 39.33C172.33 37.85 168.97 36.5 168.6 36.35C168.23 36.2 167.75 36 167.53 35.9C167.31 35.81 166.71 35.57 166.2 35.38C165.69 35.19 161.49 33.52 156.87 31.68C152.25 29.84 148.29 28.25 148.07 28.15C147.85 28.05 146.81 27.64 145.77 27.23C144.72 26.82 143.84 26.48 143.8 26.48C143.76 26.48 143.34 26.3 142.87 26.08C142.39 25.86 141.95 25.68 141.9 25.68C141.84 25.68 140.99 25.35 140 24.95C139.01 24.56 134.72 22.83 130.47 21.13C126.21 19.42 122.57 17.97 122.37 17.91C122.03 17.8 121.97 17.84 121.69 18.29C121.52 18.57 121.04 19.44 120.62 20.23C120.21 21.02 119.81 21.67 119.73 21.67C119.66 21.67 117.84 20.48 115.7 19.04C113.56 17.59 109.4 14.8 106.47 12.84C103.53 10.88 101.06 9.24 100.98 9.19C100.9 9.14 100.03 9.62 99.05 10.25Z" />
		<path class="shp3" d="M92.13 24.22C92.02 24.29 90.81 24.88 89.43 25.55C88.06 26.21 86.92 26.75 86.9 26.75C86.88 26.75 85.76 27.28 84.4 27.93C83.04 28.59 80.91 29.62 79.67 30.21C78.42 30.81 77.33 31.3 77.23 31.3C77.14 31.3 77.03 31.19 76.99 31.06C76.94 30.94 76.73 30.35 76.53 29.76C76.32 29.17 75.9 28 75.6 27.15C75.3 26.31 75 25.55 74.93 25.48C74.84 25.39 74.63 25.4 74.3 25.51C74.03 25.6 73.41 25.8 72.93 25.94C72.46 26.08 70.81 26.57 69.27 27.02C67.73 27.47 66.32 27.89 66.13 27.95C65.95 28.02 64.54 28.44 63 28.89C61.46 29.34 59.63 29.88 58.93 30.09C58.24 30.3 57.16 30.63 56.53 30.82C55.91 31.01 53.96 31.59 52.2 32.11C50.44 32.63 48.82 33.11 48.6 33.17C48.38 33.23 47.78 33.41 47.27 33.57C46.75 33.73 45.34 34.15 44.13 34.5C42.92 34.86 41.24 35.36 40.4 35.62C39.56 35.88 37.91 36.37 36.73 36.71C35.56 37.06 33.94 37.54 33.13 37.79C32.33 38.04 30.65 38.54 29.4 38.91C28.15 39.27 26.2 39.85 25.07 40.19C23.93 40.54 22.19 41.06 21.2 41.35C20.21 41.64 19.37 41.9 19.33 41.93C19.3 41.96 18.91 42.01 18.47 42.06C18.03 42.1 17.35 42.28 16.97 42.47C16.58 42.65 16.27 42.89 16.27 43C16.27 43.11 16.33 43.79 16.4 44.51C16.48 45.22 16.6 46.32 16.67 46.95C16.75 47.57 16.87 48.48 16.95 48.95C17.03 49.43 17.24 50.58 17.43 51.49C17.61 52.41 17.91 53.74 18.09 54.44C18.26 55.14 18.59 56.31 18.82 57.05C19.05 57.78 19.43 58.98 19.67 59.72C19.91 60.46 20.35 61.66 20.64 62.4C20.93 63.13 21.45 64.4 21.8 65.2C22.14 66.01 22.89 67.64 23.46 68.82C24.04 69.99 24.92 71.69 25.42 72.59C25.92 73.5 26.36 74.24 26.4 74.24C26.44 74.24 26.51 74.04 26.57 73.8C26.62 73.56 26.67 73.09 26.67 72.76C26.67 72.43 26.76 71.62 26.86 70.96C26.97 70.29 27.22 69.18 27.41 68.48C27.61 67.78 28.06 66.58 28.42 65.81C28.79 65.03 29.48 63.8 29.97 63.06C30.53 62.23 31.42 61.17 32.33 60.25C33.38 59.19 34.23 58.48 35.33 57.76C36.18 57.21 37.2 56.6 37.6 56.41C38 56.21 38.72 55.91 39.2 55.73C39.68 55.55 40.55 55.28 41.13 55.13C41.72 54.98 42.8 54.79 43.53 54.7C44.27 54.62 44.91 54.52 44.97 54.49C45.02 54.46 44.96 54.18 44.82 53.87C44.68 53.56 44.45 52.94 44.3 52.5C44.15 52.06 43.88 51.15 43.72 50.49C43.46 49.46 43.41 48.94 43.41 46.88C43.41 44.76 43.44 44.34 43.71 43.4C43.88 42.81 44.27 41.79 44.58 41.13C44.89 40.47 45.35 39.62 45.6 39.26C45.84 38.89 46.38 38.2 46.79 37.73C47.2 37.25 47.98 36.48 48.53 36.01C49.08 35.54 49.95 34.88 50.47 34.54C50.98 34.2 51.91 33.67 52.53 33.36C53.16 33.05 54.21 32.6 54.87 32.37C55.53 32.14 56.76 31.81 57.6 31.64C58.44 31.46 59.64 31.28 60.27 31.23C60.89 31.17 61.7 31.12 62.07 31.1C62.43 31.09 63.27 31.13 63.93 31.19C64.59 31.25 65.54 31.39 66.03 31.5C66.53 31.61 67.25 31.82 67.63 31.98C68.02 32.13 68.54 32.35 68.8 32.47C69.06 32.59 69.75 33 70.33 33.38C70.92 33.77 71.94 34.55 72.6 35.13C73.25 35.71 74.39 36.87 75.13 37.71C75.86 38.55 76.62 39.42 76.8 39.63L77.13 40.02C78.48 39.78 79.56 39.6 80.4 39.45C81.24 39.31 82.71 39.09 83.67 38.97C84.85 38.83 86.5 38.76 88.87 38.76C91.3 38.76 92.79 38.82 93.87 38.97C94.71 39.09 95.76 39.25 96.2 39.33C96.64 39.4 97.75 39.65 98.67 39.88L100.33 40.3C102.92 39.66 104.18 39.38 104.8 39.27C105.42 39.16 106.5 39 107.2 38.91C107.91 38.82 109.93 38.75 111.8 38.75C114.02 38.75 115.76 38.83 117 38.98C118.03 39.1 119.05 39.23 119.27 39.26C119.49 39.29 120.54 39.48 121.6 39.67L123.53 40.02C124.26 39.21 124.92 38.44 125.47 37.79C126.02 37.14 126.92 36.19 127.47 35.67C128.02 35.16 128.8 34.49 129.2 34.18C129.6 33.87 130.38 33.35 130.93 33.02C131.48 32.69 132.32 32.26 132.8 32.07C133.28 31.88 134.06 31.63 134.53 31.52C135.01 31.41 135.94 31.27 136.6 31.22C137.26 31.16 138.04 31.11 138.33 31.11C138.63 31.11 139.44 31.15 140.13 31.2C140.83 31.25 142.03 31.42 142.8 31.57C143.57 31.72 144.89 32.08 145.73 32.36C146.58 32.65 147.75 33.14 148.33 33.45C148.92 33.76 149.64 34.16 149.93 34.35C150.23 34.53 150.95 35.05 151.53 35.51C152.12 35.97 153.01 36.79 153.52 37.33C154.02 37.87 154.72 38.74 155.06 39.26C155.4 39.77 155.84 40.52 156.03 40.93C156.22 41.33 156.48 41.9 156.59 42.2C156.71 42.49 156.93 43.32 157.07 44.04C157.24 44.88 157.33 45.88 157.33 46.85C157.33 47.67 157.24 48.86 157.13 49.49C157.02 50.11 156.81 51.06 156.66 51.59C156.52 52.13 156.25 52.94 156.06 53.4C155.88 53.86 155.73 54.3 155.73 54.37C155.73 54.44 156.47 54.61 157.37 54.73C158.26 54.86 159.36 55.06 159.8 55.17C160.24 55.29 160.96 55.52 161.4 55.7C161.84 55.87 162.56 56.18 163 56.39C163.44 56.6 164.19 57.01 164.67 57.29C165.14 57.58 166.01 58.19 166.6 58.65C167.19 59.11 168.17 60.01 168.78 60.67C169.39 61.32 170.24 62.39 170.68 63.03C171.11 63.67 171.47 64.23 171.47 64.27C171.47 64.3 171.58 64.5 171.71 64.7C171.85 64.9 172.2 65.64 172.5 66.34C172.79 67.04 173.22 68.36 173.44 69.28C173.66 70.2 173.92 71.65 174.01 72.49C174.11 73.45 174.14 74.65 174.09 75.67C174.04 76.57 174.03 77.31 174.07 77.31C174.1 77.31 174.27 77.08 174.45 76.81C174.62 76.53 175.35 75.28 176.06 74.03C176.78 72.78 177.92 70.61 178.61 69.22C179.29 67.82 180.23 65.74 180.7 64.6C181.18 63.46 181.79 61.9 182.06 61.12C182.33 60.35 182.63 59.48 182.73 59.19C182.83 58.89 183.03 58.23 183.18 57.71C183.33 57.2 183.55 56.42 183.67 55.98C183.79 55.53 183.95 54.96 184.01 54.7C184.08 54.45 184.2 53.94 184.28 53.57C184.36 53.2 184.48 52.66 184.55 52.36C184.61 52.07 184.81 50.99 184.99 49.96C185.17 48.93 185.38 47.48 185.46 46.75C185.54 46.01 185.62 44.91 185.63 44.3L185.67 43.19C184.22 42.57 183.5 42.36 183.13 42.32C182.77 42.29 181.96 42.1 181.33 41.92C180.71 41.73 179.6 41.4 178.87 41.18C178.13 40.96 176.75 40.54 175.8 40.26C174.85 39.98 173.23 39.5 172.2 39.19C171.17 38.88 170.15 38.58 169.93 38.52C169.71 38.46 168.9 38.22 168.13 37.99C167.36 37.76 165.71 37.26 164.47 36.9C163.22 36.53 162.02 36.17 161.8 36.11C161.58 36.05 160.98 35.87 160.47 35.71C159.95 35.55 158.12 35.01 156.4 34.51C154.68 34.01 152.58 33.39 151.73 33.13C150.89 32.87 149.24 32.38 148.07 32.03C146.89 31.69 145.54 31.29 145.07 31.14C144.59 30.99 144.08 30.84 143.93 30.8C143.79 30.76 142.71 30.44 141.53 30.09C140.36 29.73 138.65 29.23 137.73 28.96C136.82 28.69 135.89 28.42 135.67 28.35C135.45 28.29 134.85 28.11 134.33 27.96C133.82 27.8 132.38 27.37 131.13 27C129.89 26.63 128.69 26.27 128.47 26.21C128.25 26.15 127.78 26.01 127.44 25.92C127.02 25.81 126.76 25.79 126.68 25.88C126.62 25.95 126.22 27.01 125.81 28.22C125.39 29.44 125.01 30.55 124.94 30.7C124.88 30.84 124.77 31.13 124.68 31.33C124.6 31.53 124.47 31.7 124.4 31.7C124.33 31.7 123.14 31.16 121.77 30.49C120.39 29.83 119.25 29.29 119.23 29.29C119.21 29.29 118.03 28.72 116.6 28.02C115.17 27.32 113.97 26.75 113.93 26.75C113.9 26.75 112.74 26.21 111.37 25.54C109.99 24.88 108.84 24.34 108.8 24.34C108.76 24.34 108.1 25.08 107.33 25.97C106.56 26.86 104.78 28.92 103.36 30.55C101.95 32.17 100.72 33.5 100.64 33.5C100.56 33.5 99.71 32.54 98.77 31.36C97.82 30.19 96.12 28.07 94.99 26.65C93.39 24.65 92.87 24.08 92.63 24.08C92.47 24.09 92.24 24.15 92.13 24.22Z" />
		<path class="shp2" d="M59.67 37.14C59.45 37.18 58.79 37.32 58.2 37.46C57.61 37.61 56.53 38.02 55.8 38.38C55.07 38.74 53.93 39.39 53.27 39.83C52.61 40.27 51.76 40.95 51.39 41.35C51.02 41.74 50.53 42.31 50.31 42.6C50.08 42.89 49.71 43.53 49.47 44C49.23 44.48 48.92 45.33 48.79 45.88C48.65 46.43 48.54 47.3 48.54 47.82C48.53 48.33 48.63 49.23 48.74 49.82C48.85 50.41 49.1 51.34 49.28 51.9C49.47 52.45 49.87 53.41 50.17 54.04C50.48 54.66 51.13 55.77 51.62 56.51C52.11 57.25 52.68 58.07 52.89 58.35C53.1 58.63 53.24 58.89 53.2 58.93C53.16 58.97 52.5 58.9 51.73 58.77C50.8 58.62 49.57 58.54 48.07 58.54C46.74 58.54 45.5 58.6 45.07 58.7C44.66 58.79 44.06 58.93 43.73 59.01C43.4 59.08 42.77 59.27 42.33 59.42C41.89 59.56 41.11 59.89 40.6 60.15C40.09 60.41 39.4 60.81 39.07 61.04C38.74 61.27 37.96 61.9 37.33 62.45C36.71 63 35.93 63.75 35.59 64.12C35.25 64.5 34.74 65.16 34.44 65.61C34.15 66.05 33.72 66.77 33.5 67.21C33.28 67.65 32.94 68.46 32.74 69.02C32.54 69.57 32.26 70.53 32.11 71.16C31.96 71.78 31.76 72.86 31.65 73.56C31.54 74.34 31.47 75.89 31.47 77.58C31.47 79.08 31.53 80.86 31.6 81.52C31.68 82.18 31.87 83.46 32.04 84.36C32.21 85.3 32.4 86.03 32.5 86.07C32.59 86.11 32.69 86.06 32.72 85.97C32.75 85.88 32.84 85.23 32.93 84.53C33.02 83.83 33.17 82.96 33.27 82.59C33.36 82.22 33.57 81.53 33.74 81.05C33.9 80.58 34.29 79.64 34.61 78.98C34.92 78.32 35.41 77.43 35.69 77C35.97 76.57 36.25 76.27 36.3 76.33C36.36 76.39 36.46 77.13 36.54 77.98C36.61 78.82 36.72 80.06 36.78 80.72C36.85 81.38 36.84 82.34 36.78 82.86C36.72 83.37 36.61 84.28 36.53 84.87C36.46 85.45 36.34 86.87 36.25 88.01C36.17 89.16 36.14 91.07 36.18 92.29C36.22 93.5 36.35 94.93 36.46 95.47C36.58 96 36.77 96.68 36.9 96.98C37.03 97.27 37.19 97.49 37.27 97.47C37.34 97.44 37.47 97.09 37.55 96.69C37.64 96.29 37.78 95.76 37.86 95.5C37.94 95.24 38.19 94.73 38.42 94.36C38.64 93.99 38.99 93.53 39.18 93.32C39.37 93.12 39.62 92.95 39.73 92.95C39.85 92.95 40.07 93.27 40.25 93.72C40.43 94.15 40.94 95.25 41.38 96.17C41.82 97.09 42.6 98.56 43.11 99.44C43.62 100.33 44.51 101.74 45.08 102.59C45.65 103.43 46.77 104.94 47.56 105.93C48.35 106.92 49.81 108.55 50.8 109.55C51.79 110.54 53.14 111.81 53.8 112.37C54.46 112.92 55.57 113.8 56.27 114.31C56.96 114.82 57.86 115.45 58.27 115.72C58.67 115.98 59.36 116.4 59.8 116.66C60.24 116.92 60.91 117.29 61.3 117.49C61.68 117.68 62.03 117.84 62.07 117.84C62.1 117.84 62.13 117.78 62.13 117.7C62.13 117.63 61.79 117.32 61.37 117.01C60.94 116.71 60.18 116.12 59.67 115.71C59.15 115.31 58.25 114.55 57.67 114.04C57.08 113.52 55.92 112.44 55.09 111.62C54.25 110.81 52.93 109.42 52.15 108.53C51.37 107.65 50.19 106.2 49.52 105.32C48.86 104.44 48.01 103.27 47.64 102.72C47.27 102.17 46.59 101.09 46.13 100.31C45.67 99.54 44.92 98.16 44.46 97.24C44.01 96.32 43.51 95.3 43.36 94.96C43.21 94.63 42.9 93.88 42.66 93.29C42.43 92.7 42.03 91.59 41.78 90.82C41.53 90.05 41.18 88.87 41 88.21C40.82 87.55 40.59 86.55 40.48 86C40.38 85.45 40.23 84.61 40.15 84.13C40.07 83.65 39.93 82.72 39.84 82.06C39.75 81.35 39.68 79.48 39.68 77.51C39.68 75.11 39.75 73.67 39.92 72.43C40.05 71.47 40.24 70.24 40.35 69.68C40.47 69.13 40.68 68.35 40.83 67.95C40.98 67.54 41.2 67.06 41.32 66.88C41.44 66.69 41.63 66.36 41.74 66.14C41.85 65.93 42.41 65.26 43 64.67C43.83 63.82 44.33 63.45 45.27 62.97C45.93 62.63 46.77 62.26 47.13 62.13C47.5 62.01 48.28 61.81 48.87 61.7C49.56 61.56 50.7 61.49 52.13 61.49C53.34 61.48 54.84 61.56 55.47 61.65C56.09 61.75 56.81 61.88 57.07 61.94C57.32 62 57.56 62.02 57.6 61.98C57.64 61.94 57.61 61.83 57.53 61.73C57.46 61.63 56.9 60.96 56.28 60.24C55.67 59.51 54.75 58.29 54.24 57.51C53.73 56.74 53.08 55.61 52.79 55.01C52.5 54.4 52.15 53.53 52.01 53.07C51.86 52.61 51.68 51.78 51.6 51.23C51.5 50.5 51.5 49.95 51.61 49.22C51.7 48.56 51.94 47.83 52.29 47.08C52.73 46.16 53.04 45.74 53.92 44.87C54.57 44.23 55.43 43.55 56.07 43.17C56.65 42.83 57.58 42.36 58.13 42.13C58.68 41.9 59.49 41.6 59.93 41.45C60.37 41.3 61.24 41.15 61.87 41.1C62.7 41.05 63.23 41.09 63.87 41.25C64.34 41.37 65.15 41.68 65.67 41.94C66.18 42.19 66.97 42.72 67.42 43.1C67.87 43.49 68.53 44.16 68.89 44.61C69.25 45.05 69.83 45.89 70.17 46.48C70.52 47.07 70.93 47.9 71.1 48.34C71.26 48.77 71.49 49.16 71.6 49.19C71.71 49.23 72.25 49.04 72.8 48.78C73.35 48.51 74.13 48.17 74.53 48.01C74.94 47.85 75.66 47.6 76.13 47.46C76.61 47.32 77.54 47.08 78.2 46.93C78.86 46.78 79.73 46.6 80.13 46.53C80.54 46.46 81.41 46.3 82.07 46.18C82.95 46.02 84.15 45.96 86.67 45.96C89.39 45.95 90.32 45.99 91.33 46.18C92.03 46.31 92.83 46.48 93.1 46.55C93.38 46.62 93.8 46.73 94.03 46.8C94.27 46.86 94.77 47.02 95.13 47.15C95.5 47.28 96.23 47.58 96.77 47.83C97.3 48.08 97.76 48.28 97.8 48.28C97.84 48.28 97.87 48.06 97.87 47.78C97.87 47.51 97.81 46.95 97.73 46.55C97.64 46.03 97.5 45.73 97.27 45.54C97.09 45.4 96.38 45.04 95.7 44.75C95.02 44.47 94.08 44.12 93.6 43.98C93.12 43.84 92.19 43.61 91.53 43.46C90.87 43.32 89.61 43.14 88.73 43.05C87.77 42.96 86.25 42.93 84.93 42.98C83.72 43.03 82.19 43.16 81.53 43.27C80.87 43.37 80.03 43.52 79.67 43.59C79.3 43.65 78.4 43.87 77.67 44.06C76.93 44.25 76 44.54 75.6 44.68C75.2 44.83 74.43 45.18 73.9 45.45C73.37 45.72 72.91 45.91 72.89 45.88C72.86 45.84 72.64 45.3 72.4 44.67C72.15 44.05 71.74 43.18 71.49 42.73C71.23 42.29 70.81 41.66 70.55 41.33C70.29 41 69.78 40.46 69.42 40.13C69.06 39.79 68.52 39.35 68.22 39.14C67.92 38.93 67.25 38.56 66.73 38.31C66.22 38.06 65.32 37.74 64.73 37.59C64.15 37.44 63.16 37.25 62.53 37.18C61.91 37.11 61.1 37.06 60.73 37.07C60.37 37.08 59.89 37.11 59.67 37.14ZM137 37.25C136.49 37.34 135.62 37.55 135.07 37.7C134.52 37.85 133.74 38.11 133.33 38.27C132.93 38.44 132.3 38.78 131.93 39.04C131.57 39.3 130.94 39.81 130.53 40.17C130.13 40.53 129.53 41.2 129.2 41.65C128.87 42.1 128.37 42.92 128.08 43.47C127.79 44.02 127.46 44.77 127.33 45.14C127.15 45.69 127.05 45.81 126.79 45.82C126.61 45.82 126.44 45.78 126.4 45.73C126.36 45.68 126.03 45.49 125.67 45.31C125.3 45.12 124.25 44.73 123.33 44.43C122.42 44.13 121.07 43.77 120.33 43.62C119.6 43.47 118.49 43.29 117.87 43.21C117.24 43.13 115.89 43.03 114.87 42.98C113.74 42.93 112.36 42.96 111.4 43.05C110.52 43.14 109.17 43.34 108.4 43.49C107.63 43.64 106.49 43.93 105.87 44.15C105.24 44.36 104.23 44.79 103.62 45.11C103.01 45.42 102.44 45.8 102.37 45.94C102.29 46.09 102.2 46.65 102.15 47.18C102.07 48.1 102.08 48.15 102.34 48.15C102.49 48.15 102.67 48.1 102.74 48.03C102.81 47.97 103.41 47.7 104.07 47.44C104.73 47.18 105.81 46.82 106.47 46.64C107.13 46.46 108.12 46.24 108.67 46.15C109.22 46.07 110.3 45.95 111.07 45.89C111.84 45.84 112.89 45.81 113.4 45.83C113.91 45.84 114.9 45.9 115.6 45.94C116.3 45.99 117.41 46.11 118.07 46.22C118.73 46.32 119.6 46.46 120 46.53C120.4 46.61 121.33 46.82 122.07 47C122.8 47.18 123.91 47.49 124.53 47.69C125.16 47.89 126.24 48.31 126.93 48.64C127.63 48.96 128.26 49.23 128.33 49.23C128.41 49.23 128.58 48.94 128.72 48.59C128.86 48.24 129.15 47.59 129.37 47.15C129.59 46.71 129.98 46.01 130.25 45.61C130.52 45.21 131.12 44.46 131.6 43.96C132.08 43.45 132.89 42.77 133.4 42.43C133.91 42.1 134.72 41.67 135.2 41.49C135.79 41.27 136.45 41.14 137.27 41.1C138.14 41.05 138.71 41.09 139.33 41.25C139.81 41.37 140.8 41.72 141.53 42.01C142.27 42.31 143.38 42.86 144 43.24C144.62 43.63 145.49 44.3 145.93 44.74C146.38 45.18 146.93 45.81 147.16 46.14C147.39 46.48 147.74 47.17 147.94 47.68C148.27 48.51 148.31 48.8 148.32 50.22C148.33 51.69 148.29 51.95 147.9 53.17C147.66 53.9 147.15 55.08 146.76 55.78C146.38 56.48 145.72 57.53 145.3 58.12C144.88 58.71 144.08 59.73 143.53 60.39C142.98 61.05 142.53 61.64 142.53 61.69C142.53 61.75 142.61 61.82 142.7 61.85C142.79 61.88 143.38 61.81 144 61.7C144.74 61.56 145.99 61.49 147.6 61.48C149.04 61.48 150.43 61.54 150.93 61.64C151.41 61.73 152.19 61.93 152.67 62.08C153.14 62.24 153.98 62.59 154.53 62.88C155.08 63.16 155.88 63.68 156.3 64.03C156.72 64.38 157.34 65.03 157.68 65.47C158.02 65.91 158.46 66.61 158.67 67.01C158.87 67.41 159.14 68.05 159.26 68.41C159.38 68.78 159.54 69.38 159.61 69.75C159.68 70.12 159.84 71.05 159.95 71.82C160.07 72.61 160.19 74.62 160.23 76.37C160.28 78.37 160.24 80.15 160.14 81.25C160.05 82.21 159.86 83.72 159.71 84.6C159.56 85.48 159.24 86.99 159 87.94C158.76 88.9 158.32 90.37 158.03 91.22C157.74 92.07 157.31 93.24 157.07 93.83C156.84 94.42 156.18 95.83 155.61 96.97C155.04 98.11 154.23 99.62 153.8 100.31C153.38 101.01 152.67 102.13 152.23 102.79C151.79 103.45 150.87 104.71 150.2 105.6C149.52 106.48 148.31 107.95 147.51 108.87C146.7 109.79 145.3 111.25 144.39 112.11C143.48 112.96 142.1 114.19 141.33 114.83C140.56 115.47 139.78 116.15 139.6 116.35C139.42 116.54 139.09 116.84 138.87 117C138.6 117.2 138.87 117.11 139.67 116.75C140.33 116.45 141.29 115.92 141.8 115.57C142.31 115.23 143.3 114.52 144 114.01C144.7 113.49 145.81 112.59 146.47 112.01C147.13 111.43 148.31 110.29 149.1 109.48C149.89 108.67 151.12 107.32 151.84 106.48C152.55 105.64 153.41 104.56 153.76 104.07C154.1 103.59 154.71 102.71 155.11 102.12C155.51 101.53 156.27 100.3 156.8 99.38C157.33 98.46 158.05 97.13 158.4 96.44C158.75 95.74 159.24 94.66 159.48 94.04C159.73 93.42 160.02 92.89 160.13 92.85C160.26 92.81 160.53 93.01 160.85 93.37C161.14 93.7 161.57 94.38 161.82 94.9C162.07 95.41 162.32 96.07 162.37 96.35C162.42 96.64 162.57 96.92 162.7 96.99C162.89 97.08 162.97 97.02 163.12 96.67C163.22 96.43 163.41 95.63 163.53 94.9C163.7 93.93 163.76 92.81 163.75 90.82C163.75 88.78 163.67 87.45 163.45 85.67C163.28 84.34 163.14 82.6 163.14 81.79C163.14 80.98 163.22 79.37 163.33 78.21C163.44 77.05 163.56 76.1 163.6 76.1C163.64 76.1 163.9 76.44 164.19 76.87C164.48 77.29 164.94 78.09 165.23 78.65C165.51 79.2 165.97 80.37 166.26 81.25C166.54 82.14 166.85 83.34 166.94 83.93C167.04 84.52 167.16 85.06 167.23 85.13C167.29 85.21 167.34 85.42 167.35 85.6C167.36 85.88 167.38 85.89 167.43 85.67C167.47 85.52 167.54 85.34 167.61 85.27C167.67 85.19 167.81 84.68 167.92 84.13C168.03 83.58 168.19 82.56 168.29 81.86C168.38 81.16 168.46 79.29 168.46 77.71C168.46 75.89 168.4 74.42 168.28 73.7C168.18 73.07 167.93 71.9 167.73 71.09C167.52 70.28 167.11 68.99 166.8 68.21C166.46 67.37 165.91 66.33 165.42 65.62C164.9 64.86 164.08 63.94 163.2 63.11C162.43 62.39 161.47 61.55 161.07 61.25C160.66 60.94 159.73 60.4 159 60.04C158.23 59.66 157.1 59.25 156.33 59.06C155.6 58.87 154.31 58.66 153.47 58.58C152.32 58.46 151.49 58.46 150.2 58.58C149.25 58.67 148.2 58.79 147.87 58.87C147.54 58.94 147.1 58.98 146.9 58.96C146.54 58.92 146.54 58.92 147.5 57.62C148.03 56.91 148.83 55.65 149.28 54.81C149.73 53.98 150.29 52.79 150.53 52.16C150.77 51.54 151.04 50.54 151.15 49.96C151.25 49.37 151.33 48.45 151.33 47.92C151.33 47.38 151.24 46.51 151.13 45.98C151.02 45.44 150.77 44.68 150.59 44.27C150.4 43.87 149.91 43.09 149.49 42.55C149.07 42 148.46 41.31 148.12 41.01C147.78 40.71 146.97 40.1 146.32 39.66C145.67 39.23 144.71 38.68 144.2 38.44C143.69 38.21 142.88 37.89 142.4 37.72C141.92 37.56 141.05 37.34 140.47 37.24C139.88 37.13 139.07 37.06 138.67 37.06C138.26 37.07 137.51 37.16 137 37.25Z" />
		<path class="shp3" d="M61.13 41.15C60.99 41.18 60.6 41.27 60.27 41.36C59.94 41.44 59.1 41.74 58.4 42.03C57.7 42.31 56.65 42.83 56.07 43.17C55.43 43.55 54.57 44.23 53.92 44.87C53.04 45.74 52.73 46.16 52.29 47.08C51.94 47.83 51.7 48.56 51.6 49.22C51.5 49.95 51.5 50.5 51.6 51.23C51.68 51.78 51.87 52.61 52.01 53.07C52.15 53.53 52.5 54.4 52.79 55.01C53.08 55.61 53.73 56.74 54.24 57.51C54.75 58.29 55.67 59.51 56.28 60.24C56.9 60.96 57.46 61.63 57.53 61.73C57.61 61.83 57.64 61.94 57.6 61.98C57.56 62.02 57.32 62 57.07 61.94C56.81 61.88 56.09 61.75 55.47 61.65C54.84 61.56 53.34 61.48 52.13 61.49C50.7 61.49 49.56 61.56 48.87 61.7C48.28 61.81 47.5 62.01 47.13 62.13C46.77 62.26 45.93 62.63 45.27 62.97C44.33 63.45 43.83 63.82 43 64.67C42.41 65.26 41.85 65.93 41.74 66.14C41.63 66.36 41.44 66.69 41.32 66.88C41.2 67.06 40.98 67.54 40.83 67.95C40.68 68.35 40.47 69.13 40.35 69.68C40.24 70.24 40.05 71.47 39.92 72.43C39.75 73.67 39.68 75.11 39.68 77.51C39.68 79.48 39.75 81.35 39.84 82.06C39.93 82.72 40.07 83.65 40.15 84.13C40.23 84.61 40.38 85.45 40.48 86C40.59 86.55 40.82 87.55 41 88.21C41.18 88.87 41.53 90.05 41.78 90.82C42.03 91.59 42.43 92.7 42.66 93.29C42.9 93.88 43.21 94.63 43.36 94.96C43.51 95.3 44.01 96.32 44.46 97.24C44.92 98.16 45.67 99.54 46.13 100.31C46.59 101.09 47.27 102.17 47.64 102.72C48.01 103.27 48.86 104.44 49.52 105.32C50.19 106.2 51.37 107.65 52.15 108.53C52.93 109.42 54.25 110.81 55.09 111.62C55.92 112.44 57.08 113.52 57.67 114.04C58.25 114.55 59.15 115.31 59.67 115.72C60.18 116.13 60.92 116.7 61.32 116.98C61.71 117.27 62.08 117.59 62.13 117.7C62.19 117.81 62.52 118.05 62.88 118.24C63.24 118.42 64.4 119.09 65.46 119.73C66.53 120.36 68.12 121.24 69 121.67C69.88 122.11 70.87 122.57 71.2 122.7C71.53 122.83 71.98 123.02 72.2 123.12C72.42 123.22 73.14 123.49 73.8 123.71C74.46 123.94 75.08 124.12 75.17 124.12C75.26 124.12 73.66 122.45 71.62 120.41C69.53 118.32 67.4 116.06 66.74 115.23C66.11 114.42 65.22 113.21 64.76 112.55C64.31 111.89 63.61 110.69 63.19 109.88C62.78 109.07 62.26 107.92 62.03 107.34C61.8 106.75 61.5 105.84 61.35 105.33C61.2 104.81 60.99 103.91 60.87 103.32C60.75 102.74 60.59 101.47 60.51 100.51C60.43 99.55 60.41 97.97 60.46 96.97C60.51 95.98 60.64 94.53 60.75 93.76C60.85 92.99 60.98 92.02 61.02 91.62L61.11 90.88C59.51 89.12 58.79 88.28 58.47 87.88C58.16 87.47 57.72 86.78 57.49 86.34C57.27 85.9 56.99 85.17 56.87 84.73C56.76 84.29 56.67 83.54 56.67 83.06C56.67 82.58 56.76 81.77 56.87 81.25C56.98 80.74 57.2 79.99 57.36 79.58C57.52 79.18 57.78 78.63 57.93 78.36C58.08 78.09 58.44 77.58 58.73 77.21C59.03 76.85 59.52 76.34 59.83 76.09C60.14 75.84 60.74 75.44 61.16 75.2C61.59 74.97 62.38 74.62 62.93 74.44C63.48 74.25 64.47 74.02 65.13 73.91C65.79 73.8 66.81 73.67 67.4 73.63C67.99 73.58 69.43 73.61 70.6 73.69C71.77 73.77 73.36 73.93 74.13 74.04C74.9 74.14 75.89 74.29 76.33 74.36C76.77 74.42 77.76 74.61 78.53 74.76C79.3 74.92 81.25 75.34 82.87 75.71C84.48 76.07 85.94 76.4 86.1 76.44C86.3 76.48 86.44 76.43 86.51 76.27C86.58 76.14 86.67 75.84 86.71 75.6C86.78 75.26 86.75 75.16 86.57 75.11C86.44 75.07 85.85 74.95 85.27 74.83C84.68 74.72 83.81 74.53 83.33 74.42C82.86 74.3 81.93 74.02 81.27 73.8C80.61 73.58 79.65 73.2 79.13 72.96C78.62 72.73 77.84 72.31 77.4 72.03C76.96 71.75 76.21 71.21 75.73 70.82C75.26 70.44 74.62 69.8 74.32 69.41C74.01 69.01 73.62 68.41 73.44 68.08C73.25 67.75 73 67.18 72.87 66.81C72.74 66.44 72.56 65.66 72.48 65.07C72.37 64.36 72.36 63.71 72.44 63.13C72.52 62.5 72.74 61.9 73.24 60.92C73.62 60.19 74.24 59.2 74.61 58.72C74.99 58.24 75.56 57.63 75.88 57.36C76.2 57.1 76.71 56.75 77 56.59C77.29 56.44 77.83 56.27 78.2 56.22C78.61 56.17 79.13 56.2 79.53 56.31C79.9 56.41 80.36 56.57 80.57 56.66C80.77 56.76 81.18 57.07 81.48 57.35C81.79 57.62 82.15 58.07 82.28 58.35C82.42 58.63 82.63 59.14 82.75 59.49C82.87 59.84 83.15 60.51 83.36 60.99C83.58 61.47 84.04 62.43 84.39 63.13C84.73 63.83 85.27 64.88 85.59 65.47C85.92 66.06 86.52 67.11 86.94 67.81C87.35 68.51 88.13 69.78 88.67 70.62C89.2 71.47 89.79 72.41 89.99 72.72C90.18 73.03 90.39 73.31 90.47 73.34C90.54 73.37 91.23 73.34 92 73.27C92.79 73.2 96.26 73.17 99.93 73.2C104.9 73.25 106.8 73.32 107.87 73.47C108.95 73.64 109.3 73.65 109.42 73.52C109.5 73.44 110.26 72.25 111.1 70.89C111.95 69.53 113.04 67.72 113.53 66.88C114.02 66.03 114.92 64.34 115.52 63.13C116.12 61.92 116.71 60.68 116.83 60.39C116.95 60.09 117.15 59.58 117.27 59.25C117.38 58.92 117.62 58.41 117.79 58.12C117.96 57.82 118.33 57.39 118.61 57.16C118.9 56.93 119.51 56.61 119.97 56.46C120.42 56.3 121.04 56.18 121.33 56.18C121.63 56.18 122.21 56.31 122.63 56.47C123.17 56.68 123.67 57.02 124.31 57.64C124.82 58.12 125.49 58.91 125.81 59.39C126.12 59.86 126.64 60.8 126.96 61.46C127.52 62.64 127.53 62.69 127.52 64C127.51 64.99 127.43 65.58 127.21 66.27C127.04 66.79 126.69 67.63 126.42 68.14C126.15 68.64 125.57 69.45 125.13 69.93C124.69 70.4 123.97 71.05 123.53 71.36C123.09 71.67 122.22 72.2 121.6 72.54C120.98 72.88 119.96 73.34 119.33 73.57C118.71 73.8 117.54 74.16 116.73 74.37C115.93 74.57 114.67 74.85 113.93 74.97C113.2 75.09 112.55 75.23 112.49 75.28C112.43 75.33 112.51 75.63 112.66 75.94C112.81 76.25 112.99 76.54 113.07 76.57C113.14 76.61 114.17 76.4 115.37 76.11C116.56 75.82 118.07 75.46 118.73 75.31C119.39 75.17 120.41 74.96 121 74.84C121.59 74.73 122.41 74.57 122.83 74.5C123.25 74.43 123.94 74.31 124.37 74.24C124.79 74.17 125.58 74.05 126.13 73.98C126.68 73.9 128.18 73.77 129.47 73.69C131.2 73.58 132.18 73.58 133.27 73.7C134.07 73.78 135.24 73.98 135.87 74.13C136.49 74.28 137.36 74.55 137.8 74.73C138.24 74.91 139.02 75.34 139.52 75.68C140.03 76.03 140.71 76.61 141.03 76.97C141.34 77.34 141.84 78.09 142.13 78.65C142.41 79.2 142.78 80.13 142.94 80.72C143.13 81.44 143.23 82.18 143.23 82.99C143.23 83.67 143.14 84.49 143.03 84.87C142.92 85.23 142.65 85.9 142.43 86.34C142.2 86.78 141.64 87.61 141.18 88.17C140.71 88.74 139.99 89.6 139.57 90.08L138.8 90.95C139.1 92.97 139.25 94.15 139.33 94.86C139.4 95.58 139.47 97.18 139.46 98.41C139.46 99.66 139.37 101.27 139.26 102.05C139.15 102.83 138.95 103.92 138.8 104.49C138.65 105.06 138.38 106 138.19 106.57C138 107.14 137.5 108.33 137.07 109.21C136.64 110.09 135.92 111.39 135.46 112.08C135.01 112.78 134.24 113.87 133.75 114.49C133.27 115.12 132.37 116.2 131.75 116.9C131.13 117.6 129.87 118.92 128.95 119.85C128.02 120.77 126.67 122.08 125.93 122.75C125.2 123.43 124.63 124.02 124.67 124.06C124.7 124.11 125.33 123.95 126.07 123.71C126.8 123.47 128.21 122.92 129.2 122.49C130.19 122.05 131.39 121.48 131.87 121.22C132.34 120.96 133.3 120.41 134 120.01C134.7 119.6 135.51 119.11 135.8 118.91C136.09 118.71 136.54 118.47 136.8 118.37C137.06 118.26 137.75 117.82 138.33 117.38C138.92 116.95 139.52 116.45 139.67 116.28C139.81 116.12 140.56 115.46 141.33 114.82C142.1 114.19 143.48 112.96 144.39 112.11C145.3 111.25 146.7 109.79 147.51 108.87C148.31 107.95 149.52 106.48 150.2 105.6C150.87 104.71 151.79 103.45 152.23 102.79C152.67 102.13 153.38 101.01 153.8 100.31C154.23 99.62 155.04 98.11 155.61 96.97C156.18 95.83 156.84 94.42 157.07 93.83C157.31 93.24 157.74 92.07 158.03 91.22C158.32 90.37 158.76 88.9 159 87.94C159.24 86.99 159.56 85.48 159.71 84.6C159.86 83.72 160.05 82.21 160.14 81.25C160.24 80.15 160.28 78.37 160.23 76.37C160.19 74.62 160.07 72.61 159.95 71.82C159.84 71.05 159.68 70.12 159.61 69.75C159.54 69.38 159.38 68.78 159.26 68.41C159.14 68.05 158.87 67.41 158.67 67.01C158.46 66.61 158.02 65.91 157.68 65.47C157.34 65.03 156.72 64.38 156.3 64.03C155.88 63.68 155.08 63.16 154.53 62.88C153.98 62.59 153.14 62.24 152.67 62.08C152.19 61.93 151.41 61.73 150.93 61.64C150.43 61.54 149.04 61.48 147.6 61.48C145.99 61.49 144.74 61.56 144 61.7C143.38 61.81 142.79 61.88 142.7 61.85C142.61 61.82 142.53 61.75 142.53 61.69C142.53 61.64 142.98 61.05 143.53 60.39C144.08 59.73 144.88 58.71 145.3 58.12C145.72 57.53 146.38 56.48 146.76 55.78C147.15 55.08 147.66 53.9 147.9 53.17C148.29 51.95 148.33 51.69 148.32 50.22C148.31 48.8 148.27 48.51 147.94 47.68C147.74 47.17 147.39 46.48 147.16 46.14C146.93 45.81 146.38 45.18 145.93 44.74C145.49 44.3 144.62 43.63 144 43.24C143.38 42.86 142.27 42.31 141.53 42.01C140.8 41.72 139.81 41.37 139.33 41.25C138.71 41.09 138.14 41.05 137.27 41.1C136.45 41.14 135.79 41.27 135.2 41.49C134.72 41.67 133.91 42.1 133.4 42.43C132.89 42.77 132.08 43.45 131.6 43.96C131.12 44.46 130.52 45.21 130.25 45.61C129.98 46.01 129.59 46.71 129.37 47.15C129.15 47.59 128.86 48.24 128.72 48.59C128.58 48.94 128.41 49.23 128.33 49.23C128.26 49.23 127.63 48.96 126.93 48.64C126.24 48.31 125.16 47.89 124.53 47.69C123.91 47.49 122.8 47.18 122.07 47C121.33 46.82 120.4 46.61 120 46.53C119.6 46.46 118.73 46.32 118.07 46.22C117.41 46.11 116.3 45.99 115.6 45.94C114.9 45.9 113.91 45.84 113.4 45.83C112.89 45.81 111.84 45.84 111.07 45.89C110.3 45.95 109.22 46.07 108.67 46.15C108.12 46.24 107.13 46.46 106.47 46.64C105.81 46.82 104.73 47.18 104.07 47.44C103.41 47.7 102.81 47.97 102.74 48.03C102.67 48.1 102.52 48.15 102.41 48.15C102.25 48.15 102.16 48.42 102.03 49.25C101.94 49.86 101.87 50.99 101.87 51.76C101.87 52.69 101.96 53.51 102.12 54.17C102.26 54.72 102.68 55.9 103.06 56.78C103.46 57.72 103.74 58.58 103.73 58.85C103.73 59.24 103.61 59.43 103.03 59.99C102.57 60.42 102.05 60.76 101.53 60.96C101 61.16 100.44 61.26 99.87 61.26C99.21 61.26 98.82 61.17 98.27 60.91C97.86 60.72 97.3 60.38 97.01 60.14C96.72 59.91 96.41 59.52 96.31 59.29C96.21 59.04 96.17 58.69 96.22 58.48C96.27 58.28 96.56 57.51 96.87 56.78C97.18 56.04 97.53 55.14 97.64 54.77C97.76 54.4 97.92 53.59 98.01 52.97C98.14 52.05 98.13 51.48 97.99 50.06L97.8 48.3C96.35 47.63 95.6 47.32 95.2 47.18C94.8 47.03 94.27 46.86 94.03 46.8C93.8 46.73 93.38 46.62 93.1 46.55C92.83 46.48 92.03 46.31 91.33 46.18C90.32 45.99 89.39 45.95 86.67 45.96C84.15 45.96 82.95 46.02 82.07 46.18C81.41 46.3 80.54 46.46 80.13 46.53C79.73 46.6 78.86 46.78 78.2 46.93C77.54 47.08 76.61 47.32 76.13 47.46C75.66 47.6 74.94 47.85 74.53 48.01C74.13 48.17 73.35 48.51 72.8 48.78C72.25 49.04 71.71 49.23 71.6 49.19C71.49 49.16 71.26 48.77 71.1 48.34C70.93 47.9 70.52 47.07 70.17 46.48C69.83 45.89 69.25 45.05 68.89 44.61C68.53 44.16 67.87 43.49 67.42 43.1C66.97 42.72 66.18 42.19 65.67 41.94C65.15 41.68 64.37 41.38 63.93 41.27C63.49 41.15 62.74 41.07 62.27 41.08C61.79 41.09 61.28 41.12 61.13 41.15Z" />
		<path class="shp1" d="M61.33 46.68C60.71 46.82 59.81 47.06 59.33 47.21C58.86 47.37 58.05 47.72 57.53 47.99C57.02 48.26 56.36 48.72 56.06 49.02C55.77 49.31 55.42 49.8 55.28 50.09C55.14 50.38 55 50.84 54.96 51.09C54.92 51.35 54.97 51.86 55.07 52.23C55.16 52.6 55.33 53.08 55.44 53.3C55.54 53.52 55.85 53.99 56.12 54.35C56.38 54.7 57.11 55.37 57.73 55.84C58.36 56.3 59.11 56.82 59.4 56.98C59.69 57.14 60.23 57.39 60.6 57.52C60.97 57.65 61.46 57.79 61.7 57.84C62 57.89 62.13 57.86 62.13 57.75C62.13 57.66 62.04 57.43 61.93 57.25C61.83 57.06 61.74 56.61 61.74 56.24C61.73 55.79 61.84 55.34 62.07 54.87C62.25 54.49 62.44 54.17 62.5 54.17C62.55 54.16 62.87 54.48 63.2 54.86C63.53 55.24 64.14 55.85 64.57 56.2C65.02 56.58 65.56 56.9 65.9 56.99C66.21 57.07 66.63 57.1 66.83 57.05C67.05 57.01 67.31 56.81 67.47 56.54C67.65 56.24 67.73 55.87 67.73 55.34C67.73 54.66 67.69 54.52 67.33 54.17C67.08 53.92 66.8 53.77 66.57 53.77C66.31 53.77 66.04 53.6 65.66 53.2C65.36 52.89 64.85 52.27 64.52 51.83C64.2 51.39 63.66 50.48 63.32 49.82C62.99 49.16 62.63 48.38 62.54 48.08C62.39 47.62 62.39 47.49 62.58 47.08C62.71 46.82 62.8 46.57 62.8 46.51C62.8 46.46 62.73 46.42 62.63 46.42C62.54 46.43 61.96 46.54 61.33 46.68ZM137.07 46.44C137.07 46.46 137.15 46.67 137.26 46.91C137.39 47.17 137.44 47.52 137.39 47.78C137.35 48.02 137.19 48.55 137.03 48.95C136.88 49.36 136.51 50.1 136.21 50.6C135.91 51.1 135.26 52.02 134.77 52.64C133.95 53.67 133.83 53.77 133.4 53.77C133.06 53.77 132.84 53.87 132.6 54.14C132.41 54.34 132.23 54.68 132.18 54.91C132.14 55.13 132.14 55.56 132.19 55.88C132.25 56.3 132.38 56.53 132.7 56.79C133.07 57.09 133.22 57.13 133.67 57.05C133.96 57 134.44 56.82 134.73 56.65C135.03 56.48 135.75 55.84 136.33 55.24L137.4 54.15C137.75 54.63 137.94 55.07 138.06 55.44C138.18 55.81 138.27 56.23 138.27 56.38C138.26 56.52 138.14 56.91 138 57.25C137.85 57.58 137.76 57.88 137.8 57.91C137.84 57.95 138.25 57.87 138.7 57.74C139.16 57.61 139.92 57.28 140.4 57.02C140.88 56.76 141.72 56.2 142.27 55.78C142.82 55.36 143.48 54.75 143.75 54.43C144.02 54.1 144.37 53.56 144.54 53.23C144.79 52.76 144.85 52.41 144.86 51.56C144.86 50.72 144.8 50.38 144.58 49.96C144.43 49.66 144.07 49.21 143.78 48.95C143.5 48.69 143 48.31 142.67 48.12C142.34 47.93 141.74 47.64 141.33 47.48C140.93 47.32 140.03 47.05 139.33 46.88C138.64 46.71 137.84 46.53 137.57 46.49C137.3 46.44 137.08 46.42 137.07 46.44Z" />
		<path class="shp2" d="M79.36 63.03C79.29 63.12 79.07 63.62 78.86 64.13C78.57 64.86 78.47 65.36 78.42 66.34C78.37 67.5 78.39 67.68 78.71 68.38C78.91 68.82 79.34 69.41 79.7 69.75C80.14 70.17 80.76 70.55 81.73 70.98C82.5 71.31 83.37 71.7 83.67 71.83C83.96 71.95 84.5 72.19 84.87 72.35C85.23 72.5 85.58 72.63 85.63 72.63C85.69 72.63 85.73 72.55 85.73 72.46C85.73 72.37 85.09 71.27 84.3 70.02C83.52 68.77 82.17 66.68 81.31 65.37C80.44 64.07 79.68 62.97 79.61 62.93C79.55 62.9 79.44 62.94 79.36 63.03ZM118.98 64.83C118.25 65.92 117.12 67.65 116.47 68.68C115.83 69.71 115.04 70.96 114.72 71.46C114.4 71.95 114.13 72.42 114.13 72.49C114.13 72.57 114.19 72.63 114.27 72.63C114.34 72.63 115.22 72.27 116.23 71.84C117.24 71.41 118.43 70.88 118.87 70.67C119.31 70.47 119.97 69.99 120.34 69.62C120.8 69.17 121.11 68.7 121.31 68.18C121.49 67.71 121.6 67.11 121.6 66.64C121.6 66.22 121.52 65.57 121.42 65.2C121.32 64.84 121.1 64.21 120.92 63.82C120.74 63.42 120.53 63.04 120.45 62.97C120.35 62.88 119.89 63.46 118.98 64.83ZM95.2 75.43C94.5 75.49 93.36 75.66 92.67 75.81C91.97 75.96 91.14 76.19 90.81 76.33C90.47 76.47 90.18 76.7 90.11 76.87C90.05 77.04 90 77.43 90.01 77.74C90.01 78.06 90.1 78.55 90.21 78.85C90.31 79.14 90.59 79.7 90.83 80.1C91.07 80.49 91.6 81.15 92 81.57C92.4 81.99 93.12 82.6 93.6 82.92C94.08 83.24 94.75 83.63 95.1 83.79C95.45 83.94 95.76 84.02 95.8 83.96C95.84 83.91 95.61 83.52 95.29 83.09C94.97 82.67 94.54 82.02 94.33 81.66C94.12 81.29 93.81 80.6 93.65 80.12C93.49 79.64 93.38 79.19 93.41 79.11C93.43 79.04 93.62 78.87 93.83 78.73C94.08 78.55 94.76 78.4 96 78.23C96.99 78.1 98.61 77.86 99.6 77.71C100.59 77.55 101.76 77.37 102.2 77.3C102.64 77.23 104.08 77.02 105.4 76.83C106.72 76.64 107.83 76.46 107.87 76.43C107.9 76.39 107.87 76.31 107.8 76.25C107.73 76.18 107.22 76.06 106.67 75.98C106.12 75.89 104.83 75.74 103.8 75.64C102.77 75.54 100.7 75.42 99.2 75.39C97.7 75.35 95.9 75.37 95.2 75.43Z" />
		<path class="shp0" d="M70.8 76.71C70.25 76.81 69.62 76.95 69.4 77.02C69.18 77.09 68.67 77.27 68.27 77.43C67.86 77.59 67.05 77.96 66.47 78.24C65.85 78.54 65.08 79.05 64.62 79.47C64.18 79.87 63.7 80.48 63.52 80.85C63.31 81.29 63.2 81.75 63.2 82.19C63.2 82.56 63.27 83.1 63.35 83.39C63.43 83.69 63.64 84.23 63.81 84.6C63.98 84.97 64.51 85.84 64.99 86.54C65.47 87.24 66.14 88.2 66.47 88.68C66.8 89.16 67.13 89.79 67.19 90.08C67.27 90.41 67.27 91.34 67.19 92.49C67.11 93.52 67.01 95.14 66.95 96.1C66.89 97.06 66.86 98.44 66.89 99.18C66.91 99.91 67 100.97 67.08 101.52C67.16 102.07 67.31 102.91 67.42 103.39C67.54 103.87 67.77 104.71 67.95 105.26C68.13 105.81 68.64 106.99 69.07 107.87C69.5 108.75 70.26 110.05 70.76 110.75C71.33 111.56 72.49 112.85 73.99 114.34C75.28 115.62 76.75 117.01 77.27 117.43C77.78 117.85 78.56 118.4 79 118.66C79.44 118.93 80.06 119.27 80.37 119.43C80.68 119.58 81.02 119.71 81.13 119.71C81.26 119.71 80.86 119.06 80.1 118.04C79.42 117.12 78.36 115.57 77.74 114.6C77.12 113.62 76.31 112.25 75.94 111.55C75.57 110.85 74.96 109.62 74.58 108.81C74.2 108 73.67 106.67 73.4 105.86C73.13 105.06 72.76 103.69 72.59 102.82C72.34 101.62 72.27 100.83 72.27 99.44C72.27 98.06 72.33 97.37 72.55 96.47C72.71 95.83 73.01 94.91 73.23 94.43C73.45 93.95 73.86 93.23 74.13 92.82C74.4 92.42 74.73 92.01 74.85 91.92C75.03 91.78 75.33 91.87 76.7 92.48C77.6 92.87 78.81 93.35 79.4 93.54C79.99 93.73 80.98 94 81.6 94.14C82.22 94.29 83.09 94.47 83.53 94.55C83.97 94.63 84.84 94.75 85.47 94.83C86.09 94.9 87.41 94.96 88.4 94.96C89.39 94.96 90.89 94.87 91.73 94.77C92.58 94.67 93.87 94.46 94.6 94.31C95.33 94.17 96.17 93.97 96.47 93.87L97 93.69C97.07 92.35 97.02 91.26 96.92 90.42C96.83 89.57 96.69 88.61 96.6 88.28C96.45 87.69 96.43 87.67 95.59 87.39C95.12 87.24 94.4 86.95 94 86.74C93.6 86.54 92.94 86.14 92.53 85.87C92.13 85.6 91.42 85.02 90.95 84.59C90.48 84.15 89.82 83.44 89.48 83.01C89.14 82.57 88.57 81.73 88.2 81.14L87.53 80.07C85.36 79.37 84.04 78.96 83.2 78.69C82.36 78.43 81.49 78.17 81.27 78.11C81.05 78.05 80.42 77.88 79.87 77.72C79.32 77.57 78.51 77.36 78.07 77.26C77.63 77.15 76.94 77 76.53 76.92C76.13 76.84 75.29 76.72 74.67 76.64C74.04 76.57 73.14 76.51 72.67 76.52C72.19 76.53 71.35 76.61 70.8 76.71ZM125.2 76.65C124.8 76.71 124.05 76.83 123.53 76.92C123.02 77.01 121.82 77.28 120.87 77.52C119.91 77.76 118.41 78.18 117.53 78.44C116.65 78.71 115.16 79.18 114.21 79.49L112.49 80.05C111.45 81.61 110.66 82.56 110.07 83.17C109.48 83.78 108.49 84.64 107.87 85.06C107.24 85.49 106.19 86.11 105.53 86.43C104.87 86.76 104.15 87.08 103.93 87.16C103.58 87.28 103.51 87.39 103.37 88.09C103.27 88.52 103.14 89.27 103.07 89.75C103.01 90.23 102.91 91.28 102.85 92.09C102.76 93.45 102.77 93.57 103.01 93.7C103.15 93.78 103.63 93.93 104.07 94.02C104.51 94.12 105.05 94.24 105.27 94.3C105.49 94.35 106.09 94.47 106.6 94.55C107.11 94.63 107.92 94.75 108.4 94.83C108.88 94.9 110.17 94.96 111.27 94.96C112.37 94.96 113.93 94.87 114.73 94.76C115.54 94.66 116.53 94.51 116.93 94.43C117.34 94.36 117.94 94.24 118.27 94.17C118.6 94.1 119.57 93.83 120.43 93.57C121.3 93.31 122.63 92.79 123.4 92.42C124.17 92.05 124.84 91.75 124.9 91.75C124.95 91.76 125.24 92.09 125.53 92.5C125.83 92.9 126.23 93.55 126.43 93.93C126.63 94.32 126.92 94.99 127.08 95.43C127.24 95.87 127.45 96.69 127.55 97.24C127.65 97.79 127.73 98.78 127.73 99.44C127.73 100.11 127.64 101.16 127.53 101.79C127.42 102.41 127.28 103.19 127.21 103.52C127.14 103.86 126.91 104.67 126.69 105.33C126.47 105.99 126.1 107.02 125.87 107.6C125.64 108.19 124.95 109.64 124.34 110.81C123.73 111.99 122.91 113.47 122.52 114.09C122.12 114.72 121.49 115.68 121.11 116.23C120.74 116.78 120.03 117.78 119.54 118.44C118.98 119.19 118.72 119.66 118.83 119.69C118.92 119.71 119.42 119.51 119.93 119.24C120.45 118.96 121.31 118.43 121.85 118.05C122.4 117.68 123.7 116.56 124.74 115.56C125.79 114.57 126.96 113.4 127.35 112.97C127.75 112.54 128.5 111.61 129.03 110.9C129.56 110.19 130.32 108.98 130.72 108.21C131.11 107.43 131.62 106.29 131.84 105.66C132.06 105.04 132.3 104.24 132.38 103.89C132.47 103.54 132.59 103 132.66 102.69C132.73 102.38 132.86 101.58 132.94 100.92C133.04 100.15 133.07 98.81 133.02 97.24C132.97 95.88 132.86 93.86 132.76 92.76C132.66 91.58 132.63 90.53 132.69 90.22C132.75 89.92 133.03 89.32 133.32 88.88C133.61 88.44 134.24 87.53 134.72 86.87C135.2 86.21 135.77 85.31 135.99 84.87C136.22 84.42 136.49 83.73 136.6 83.33C136.71 82.92 136.8 82.43 136.8 82.22C136.8 82.02 136.67 81.51 136.51 81.09C136.31 80.57 136 80.1 135.54 79.65C135.09 79.2 134.4 78.74 133.47 78.26C132.7 77.87 131.65 77.42 131.13 77.24C130.62 77.07 129.69 76.83 129.07 76.72C128.44 76.6 127.48 76.51 126.93 76.52C126.38 76.53 125.6 76.59 125.2 76.65Z" />
		<path class="shp1" d="M77.85 80.54C77.72 80.62 77.5 80.93 77.35 81.23C77.2 81.54 77.07 81.94 77.07 82.12C77.06 82.31 77.15 82.67 77.25 82.93C77.36 83.18 77.55 83.5 77.69 83.63C77.84 83.78 78.09 83.86 78.32 83.83C78.55 83.81 78.81 83.66 78.96 83.46C79.1 83.28 79.25 82.89 79.29 82.59C79.33 82.3 79.33 81.83 79.28 81.56C79.24 81.28 79.05 80.9 78.87 80.72C78.68 80.54 78.43 80.39 78.3 80.39C78.17 80.39 77.97 80.46 77.85 80.54ZM121.13 80.72C120.95 80.9 120.73 81.28 120.65 81.56C120.53 81.93 120.53 82.21 120.65 82.66C120.74 82.99 120.92 83.4 121.07 83.56C121.23 83.75 121.49 83.86 121.73 83.86C122.02 83.86 122.2 83.76 122.38 83.49C122.52 83.29 122.68 82.89 122.73 82.59C122.78 82.3 122.76 81.8 122.68 81.49C122.6 81.18 122.41 80.8 122.27 80.65C122.12 80.51 121.88 80.39 121.73 80.39C121.58 80.39 121.31 80.54 121.13 80.72ZM74.65 84.7C74.49 84.94 74.33 85.34 74.29 85.6C74.26 85.86 74.27 86.28 74.31 86.54C74.35 86.8 74.56 87.17 74.76 87.38C74.97 87.58 75.25 87.75 75.4 87.75C75.55 87.75 75.79 87.61 75.95 87.44C76.11 87.28 76.31 86.9 76.4 86.6C76.53 86.19 76.53 85.94 76.4 85.47C76.32 85.14 76.12 84.73 75.96 84.56C75.79 84.39 75.51 84.26 75.31 84.26C75.06 84.26 74.86 84.39 74.65 84.7ZM124.12 84.41C124.01 84.48 123.81 84.77 123.69 85.04C123.56 85.31 123.46 85.78 123.46 86.07C123.46 86.36 123.58 86.82 123.71 87.07C123.85 87.33 124.11 87.6 124.28 87.66C124.46 87.73 124.7 87.74 124.83 87.7C124.96 87.65 125.19 87.41 125.34 87.17C125.56 86.82 125.61 86.56 125.57 85.85C125.54 85.11 125.48 84.89 125.2 84.61C125.02 84.41 124.75 84.26 124.6 84.26C124.45 84.27 124.24 84.33 124.12 84.41ZM79.61 85.17C79.36 85.41 79.2 85.74 79.14 86.14C79.08 86.47 79.08 86.92 79.12 87.14C79.17 87.36 79.34 87.71 79.5 87.92C79.68 88.15 79.94 88.31 80.13 88.32C80.32 88.32 80.58 88.24 80.71 88.14C80.85 88.03 81.05 87.73 81.15 87.47C81.26 87.22 81.34 86.83 81.34 86.6C81.34 86.38 81.25 85.98 81.14 85.7C81.02 85.43 80.8 85.11 80.63 85C80.47 84.89 80.25 84.8 80.16 84.8C80.06 84.8 79.81 84.96 79.61 85.17ZM119.32 84.97C119.2 85.06 119.01 85.33 118.89 85.57C118.77 85.81 118.67 86.29 118.67 86.64C118.67 87.04 118.77 87.43 118.93 87.71C119.08 87.95 119.31 88.2 119.43 88.26C119.57 88.33 119.79 88.33 119.97 88.26C120.13 88.2 120.39 87.95 120.53 87.71C120.71 87.41 120.8 87.04 120.8 86.54C120.8 86.06 120.72 85.68 120.57 85.47C120.45 85.28 120.25 85.06 120.14 84.97C120.03 84.88 119.84 84.81 119.73 84.81C119.62 84.81 119.44 84.88 119.32 84.97Z" />
		<path class="shp2" d="M121.8 96.43C121.72 96.5 121.13 96.8 120.47 97.09C119.81 97.37 118.76 97.73 118.13 97.88C117.51 98.03 116.58 98.21 116.07 98.29C115.55 98.37 114.29 98.5 113.27 98.57C112.06 98.65 110.72 98.66 109.47 98.57C108.4 98.5 107.02 98.38 106.4 98.3C105.78 98.22 104.85 98.07 104.33 97.97C103.82 97.86 103.04 97.68 102.6 97.57C102.16 97.45 101.44 97.21 101 97.03C100.56 96.85 100.13 96.71 100.03 96.7C99.94 96.7 99.25 96.89 98.5 97.11C97.75 97.34 96.83 97.6 96.47 97.7C96.1 97.79 95.47 97.93 95.07 98.02C94.66 98.1 94.03 98.23 93.67 98.3C93.3 98.37 92.46 98.5 91.8 98.6C91.11 98.7 89.28 98.77 87.47 98.77C85.57 98.77 83.89 98.7 83.2 98.6C82.58 98.5 81.77 98.36 81.4 98.29C81.03 98.22 80.22 98.04 79.6 97.89C78.98 97.74 78.42 97.67 78.37 97.73C78.31 97.79 78.2 98.23 78.12 98.71C78.04 99.19 78.01 100.06 78.05 100.65C78.1 101.24 78.22 101.99 78.32 102.32C78.42 102.65 78.66 103.28 78.86 103.72C79.06 104.17 79.5 104.92 79.83 105.4C80.17 105.87 80.69 106.56 80.99 106.91C81.29 107.27 82.04 108 82.67 108.55C83.29 109.1 83.89 109.54 84 109.54C84.15 109.55 84.22 109.33 84.28 108.71C84.33 108.25 84.51 107.51 84.69 107.07C84.86 106.63 85.31 105.82 85.67 105.28C86.03 104.74 86.77 103.88 87.3 103.37C87.83 102.87 88.76 102.12 89.37 101.72C89.97 101.31 90.56 100.98 90.67 100.99C90.78 100.99 91.47 101.68 92.2 102.53C92.93 103.37 93.56 104.06 93.6 104.06C93.64 104.06 94.48 103.4 95.47 102.58C96.46 101.77 97.37 101.05 97.5 100.98C97.69 100.87 97.93 101.03 98.77 101.78C99.34 102.3 99.86 102.72 99.93 102.72C100.01 102.73 100.62 102.25 101.3 101.66C102.08 100.98 102.64 100.58 102.83 100.59C103 100.59 103.5 100.91 103.96 101.29C104.41 101.67 105.17 102.35 105.66 102.79L106.54 103.59C107.37 102.76 107.95 102.05 108.37 101.48C109.12 100.45 109.14 100.43 109.6 100.52C109.86 100.57 110.37 100.72 110.73 100.86C111.1 101 111.69 101.29 112.03 101.51C112.38 101.74 112.94 102.27 113.27 102.69C113.6 103.11 114.04 103.82 114.26 104.26C114.47 104.7 114.74 105.39 114.85 105.8C114.97 106.2 115.16 107.05 115.27 107.67C115.38 108.3 115.47 109.06 115.47 109.38C115.47 109.79 115.52 109.94 115.67 109.94C115.78 109.94 116.21 109.71 116.63 109.43C117.06 109.14 117.74 108.55 118.17 108.12C118.59 107.69 119.15 107.04 119.41 106.67C119.67 106.3 120.08 105.67 120.32 105.26C120.56 104.86 120.97 104.02 121.24 103.39C121.5 102.77 121.87 101.8 122.04 101.25C122.22 100.7 122.44 99.71 122.53 99.04C122.67 98.03 122.67 97.72 122.51 97.1C122.4 96.68 122.23 96.35 122.12 96.33C122.01 96.31 121.87 96.35 121.8 96.43Z" />
		<path class="shp3" d="M92.93 107.17C92.68 107.48 92.03 108.4 91.49 109.21C90.95 110.02 90.28 111.07 90.01 111.55C89.73 112.03 89.22 112.96 88.86 113.62C88.51 114.28 88.08 115.08 87.91 115.39C87.74 115.71 87.6 116.02 87.6 116.1C87.6 116.17 88 116.01 88.5 115.74C88.99 115.47 89.7 115.09 90.07 114.89C90.43 114.7 91.09 114.41 91.53 114.25C91.97 114.09 92.72 113.87 93.2 113.76C93.68 113.65 94.46 113.56 94.93 113.56C95.41 113.56 96.13 113.64 96.53 113.75C96.94 113.85 97.31 113.9 97.35 113.85C97.4 113.8 97.6 113.09 97.79 112.29C97.99 111.48 98.18 110.69 98.21 110.55C98.25 110.4 98.36 109.98 98.45 109.61C98.55 109.24 98.73 108.49 98.86 107.94C98.99 107.39 99.07 106.86 99.05 106.76C99.02 106.65 98.41 107.05 97.43 107.8C96.57 108.46 95.78 109.01 95.67 109.01C95.56 109.01 95.09 108.47 94.63 107.81C94.17 107.15 93.71 106.61 93.6 106.61C93.49 106.61 93.19 106.86 92.93 107.17ZM100.67 106.76C100.67 106.86 100.82 107.57 101.01 108.34C101.19 109.11 101.4 109.95 101.47 110.21C101.54 110.47 101.78 111.4 102 112.29C102.22 113.17 102.41 113.91 102.43 113.92C102.45 113.94 102.86 113.86 103.33 113.74C103.96 113.58 104.52 113.54 105.33 113.6C106.05 113.64 106.91 113.82 107.67 114.06C108.33 114.28 109.2 114.62 109.6 114.83C110 115.03 110.74 115.43 111.23 115.71C111.73 116 112.16 116.2 112.2 116.16C112.24 116.13 112.05 115.69 111.78 115.19C111.52 114.7 110.79 113.39 110.16 112.29C109.53 111.18 108.66 109.74 108.22 109.07C107.78 108.41 107.19 107.59 106.91 107.24C106.63 106.89 106.31 106.6 106.2 106.6C106.09 106.6 105.65 107.1 105.22 107.7C104.79 108.31 104.35 108.88 104.25 108.96C104.1 109.09 103.77 108.9 102.6 107.98C101.79 107.36 101.03 106.79 100.91 106.72C100.75 106.63 100.68 106.64 100.67 106.76Z" />
		<path class="shp0" d="M98.27 117.85C97.28 117.9 95.93 118.02 95.27 118.1C94.61 118.19 93.41 118.38 92.6 118.53C91.79 118.68 90.56 118.95 89.87 119.13C89.17 119.32 88.06 119.68 87.4 119.94C86.74 120.2 85.97 120.57 85.69 120.77C85.41 120.96 85.09 121.25 84.99 121.41C84.88 121.58 84.8 121.9 84.8 122.12C84.8 122.41 84.91 122.6 85.23 122.84C85.47 123.02 86 123.32 86.4 123.5C86.8 123.67 87.76 123.98 88.53 124.18C89.3 124.37 90.26 124.57 90.67 124.61C91.26 124.68 91.59 124.62 92.4 124.33C92.95 124.13 93.85 123.85 94.4 123.71C94.95 123.56 95.88 123.36 96.47 123.26C97.05 123.16 98.25 123 99.13 122.91C100.38 122.78 101.1 122.78 102.4 122.9C103.32 122.99 104.67 123.19 105.4 123.34C106.13 123.49 107.32 123.82 108.03 124.07C108.75 124.32 109.5 124.52 109.7 124.53C109.9 124.53 110.7 124.37 111.47 124.17C112.24 123.98 113.17 123.69 113.53 123.53C113.9 123.37 114.42 123.04 114.7 122.81C115.09 122.48 115.2 122.29 115.2 121.95C115.19 121.61 115.06 121.39 114.6 120.95C114.27 120.63 113.71 120.23 113.37 120.06C113.02 119.88 112.37 119.61 111.93 119.45C111.49 119.29 110.68 119.04 110.13 118.9C109.58 118.75 108.71 118.55 108.2 118.45C107.69 118.34 106.79 118.19 106.2 118.11C105.61 118.03 104.14 117.91 102.93 117.83C101.72 117.76 100.58 117.71 100.4 117.72C100.22 117.73 99.26 117.79 98.27 117.85Z" />
	</g>
</svg>