<svg enable-background="new 0 0 58.213 41.5" height="269.098111" viewBox="0 0 58.213 41.5" width="371.611676" xmlns="http://www.w3.org/2000/svg"><path d="m0 0v41.499h58.213v-41.499" fill="none"/><path d="m33.534.948c1.444-.445 2.987-.038 3.932 1.105.47.584.522 1.621.162 2.267.276.222.668.414.606.829v.553c.822.069 1.658-.123 2.55-.054 1.559.123 3.396.399 3.978 2.104.293 2.043-.591 3.994-1.436 5.707h14.654.106c.347 5.683-1.144 10.951-4.7 15.083-.744.844-1.744.978-2.818 1.008h-9.846c-.07.03-.054.259-.054.32.998.745 1.782 1.751 1.437 3.042-.092.491-.492.867-.83 1.267.515 1.76-1.129 2.949-2.319 3.871-.722.399-1.451.814-2.381.722-.216.107-.022.399-.161.554-.53 1.021-1.637 1.297-2.604 1.604-1.406.354-3.233.561-4.532-.169-.292.016-.453.314-.722.385-2.027.553-4.393.275-6.082-.83-.553-.346-.814-.906-1.045-1.437-.338-.223-.845-.022-1.221-.161-1.628-.568-3.617-1.813-3.924-3.71.015-.36.176-.66.276-.99-.676-.377-1.298-1.067-1.275-1.882.154-1.067 1.375-1.689 1.882-2.604-.484-.092-1.106.033-1.544.018h-14.99c-.814-1.291-.538-3.319-.384-4.825.814-4.048 1.973-8.033 5.422-10.891l.478-.375h13.231s2.465.168 2.765-.792c.929-2.75 1.121-5.806 3.095-8.126.322-.33.76-.522 1.052-.829-.108-1.312.668-2.504 1.828-3.041 1.436-.661 3.731-.914 5.137 0z" fill="#b8c0d8"/><path d="m33.534.948c1.444-.445 2.987-.038 3.932 1.105.47.584.522 1.621.162 2.267.276.222.668.414.606.829v.553c.822.069 1.658-.123 2.55-.054 1.559.123 3.396.399 3.978 2.104.293 2.043-.591 3.994-1.436 5.707h14.654.106c.347 5.683-1.144 10.951-4.7 15.083-.744.844-1.744.978-2.818 1.008h-9.846c-.07.03-.054.259-.054.32.998.745 1.782 1.751 1.437 3.042-.092.491-.492.867-.83 1.267.515 1.76-1.129 2.949-2.319 3.871-.722.399-1.451.814-2.381.722-.216.107-.022.399-.161.554-.53 1.021-1.637 1.297-2.604 1.604-1.406.354-3.233.561-4.532-.169-.292.016-.453.314-.722.385-2.027.553-4.393.275-6.082-.83-.553-.346-.814-.906-1.045-1.437-.338-.223-.845-.022-1.221-.161-1.628-.568-3.617-1.813-3.924-3.71.015-.36.176-.66.276-.99-.676-.377-1.298-1.067-1.275-1.882.154-1.067 1.375-1.689 1.882-2.604-.484-.092-1.106.033-1.544.018h-14.99c-.814-1.291-.538-3.319-.384-4.825.814-4.048 1.973-8.033 5.422-10.891l.478-.375h13.231s2.465.168 2.765-.792c.929-2.75 1.121-5.806 3.095-8.126.322-.33.76-.522 1.052-.829-.108-1.312.668-2.504 1.828-3.041 1.436-.661 3.731-.914 5.137 0z" fill="none" stroke="#fff" stroke-width=".154"/><path d="m32.598 2.107c.068.169.068.361.223.499.938-.567 2.365-.676 3.318-.054 1.174.899-.984 2.304.774 2.988.207.369.069.883.108 1.32 2.004.016 4.254-.368 6.029.554 1.059 1.098.367 2.826-.055 3.985-.27.66-.568 1.313-.945 1.936-.744.092-1.543.039-2.318.054-.223-.276.222-.66-.17-.829l-2.987.053c-.384.263-.192.846-.161 1.223.107.284.092.609.33.864h19.854c.207 4.385-1.121 8.336-3.318 11.792-.53.807-1.344 1.546-2.266 1.753h-13.364s.308.436.423.573l2.212 2.32c.261.484.914 1.021.438 1.605-.215.468-.83.553-.937 1.052.245.398.468.968.222 1.436-.599 1.145-1.851 1.628-2.934 2.105-.453.076-.852.299-1.383.215-.245.13 0 .322-.053.499-.537 1.866-2.734 1.428-4.201 1.881-.153-.169-.262.085-.445 0-.745-.069-1.613.016-2.043-.722-1.022.898-2.726.623-3.986.446-.906-.238-1.889-.538-2.427-1.437-.069-.238-.069-.515-.223-.722-1.09.138-2.05-.4-2.987-.776-.607-.353-1.536-.783-1.605-1.597-.246-.692.745-1.329 0-1.774-.4-.223-.83-.638-.883-1.105-.039-.508.453-.8.775-1.16l2.736-2.84h-18.334c-.192-.276-.207-.724-.215-1.084-.069-4.193 1.639-8.68 3.533-11.006.715-.879.977-1.155 1.684-1.454h15.573c.691-1.206 1.144-2.523 1.543-3.853l.945-3.318c.43-1.09 1.006-2.465 2.266-2.88.376-.353.176-.952.384-1.382.238-.469.338-1.037.891-1.321 1.113-.307 2.496-.614 3.648-.169z" fill="#fff"/><path d="m31.937 2.222c.192.646.069 1.422.33 2.043.069.139.208.107.33.107.415-.437.315-1.159.884-1.49.691-.291 1.62-.176 2.266.108.36.584-.192 1.189-.162 1.828-.014.191.23.275.277.444-.554.161-1.191.146-1.605.661-.1.431-.038.93-.053 1.382.084.085.222.262.33.108.053-.008.084.03.106.061-.66.715-.622 1.89-1.659 2.319-.697.292-1.681.017-2.096.884-.307.568-.361 1.359-.169 1.989.223.393.606.614 1.052.553 1.344-.229 2.52-.867 3.924-.937-.299.845.07 1.655.277 2.415h-12.719l.668-1.417 1.766-5.698c.208-1.16 1.191-2.212 2.266-2.711.192-.745.261-1.536.607-2.212.891-.646 2.135-.553 3.21-.553z" fill="#003876"/><path d="m31.322 3.16c.207.33.068.883.115 1.214-.898-.146-1.797.015-2.604.276.268-.631.046-1.782 1.053-1.82.514.022 1.152-.116 1.436.33" fill="#fff"/><path d="m31.215 3.543v.338c-.538-.169-1.176-.238-1.659.108l-.169.169c-.007-.14.015-.393.115-.554.292-.292.775-.346 1.214-.392.192.047.43.117.499.331" fill="#008357"/><path d="m34.033 5.871c-.023.553.115 1.214-.33 1.544-.415.015-.73-.215-1.105-.33-1.398-.369-2.942-.07-4.202.391-.376-.321-.238-1.066-.115-1.497.737-.706 1.773-.676 2.711-.884 1.121.016 2.196.1 3.041.776" fill="#fff"/><path d="m33.811 5.924c.1.445.1 1.037-.215 1.329-1.498-.807-3.625-.638-5.146 0l-.107-.116c.146-.353-.1-.867.215-1.159 1.512-.761 3.748-.953 5.253-.054" fill="#003876"/><path d="m36.414 5.755v1.275c-.538.138-1.221-.055-1.713.169h-.223c-.068-.393-.123-.914.054-1.275.483-.361 1.146-.468 1.767-.33z" fill="#003876"/><path d="m42.881 8.244c.277 1.636-.346 3.172-1.053 4.539-.438.085-.99.085-1.436 0 .169-.461.169-.929 0-1.383-.123-.276-.415-.399-.661-.499l-3.647-.054c-.238-.084-.407.161-.614 0 1.536-.898.776-3.709 3.103-3.595 1.505.163 3.493-.499 4.308.992" fill="#003876"/><path d="m36.521 7.361c-.783 1.105-.814 2.627-2.097 3.433-.898.177-1.996.008-2.603.768.03.2-.086.445.168.554 2.25-1.021 4.838-1.044 7.465-.829.246.115.361.36.385.614l-.108.106-3.37-.053c-1.705 0-3.173.576-4.701.991-.338.114-.584-.146-.722-.385-.123-.86.099-1.866.884-2.266.928-.069 1.812-.399 2.381-1.221.313-.562.383-1.244.937-1.713h1.381" fill="#008357"/><path d="m33.096 8.244c-.114.361-.444.622-.668.945-.469.605-1.436.222-2.043.33-.859.1-1.481-.33-2.042-.938v-.115c.968-1.267 2.734-.799 4.147-.829z" fill="#fff"/><path d="m32.098 7.967c.322.184.322.668.223.999-.039.106-.137.19-.223.275-.853.084-1.797.084-2.65 0-.43-.237-.13-.69-.061-.997l.338-.331z" fill="#003876"/><path d="m31.545 8.796c.1-.054.139-.215.277-.161-.094.508-.707.23-1.053.385-.285-.094-.66-.017-.884-.277l.054-.161c.393.315 1.068.315 1.606.214" fill="#fff"/><path d="m30.885 10.018c-.069.292-.43.453-.553.714-.224.684-.347 1.513.275 2.051.016.107-.016.207-.115.276l-4.639-.054c-.514-.392-.668-1.014-.668-1.658.031-.5.085-1.03.607-1.275l.446-.108z" fill="#fff"/><path d="m30.555 10.17c-.668.553-.584 1.49-.5 2.282 0 .207.438.215.223.438l-4.208-.107c-.561-.469-.538-1.26-.438-1.936.049-.458.289-.618.608-.677h1.274z" fill="#003876"/><path d="m29.387 10.348c-.422.622-.607 1.559-.215 2.266-.614.122-1.244.016-1.828-.107-.292-.139-.553-.33-.607-.668-.015-.4-.015-.8.223-1.106.63-.539 1.59-.347 2.427-.385" fill="#fff"/><path d="m28.396 10.456c-.169.138-.43.276-.607.499-.084.307-.084.691 0 .999.192.207.438.261.661.384-.346-.054-1.006.253-1.16-.331-.1-.483-.1-1.075.277-1.436.276-.046.522-.154.829-.115" fill="#008357"/><g fill="#003876"><path d="m10.621 15.222-.328 1.095c-.732.604-1.095 1.238-1.251 1.496-.226.375-.711 1.123-.998 1.936-.288.813-1.116 3.18-1.329 3.764s-.108 2.149-1.382 2.212l-2.32-.063c-.745-.537-.399-1.788-.223-2.373.177-.584.278-1.136.553-1.828.276-.69.789-2.024 1.329-3.095.54-1.069 1.505-3.041 3.21-3.149h2.239z"/><path d="m47.779 27.661.328-1.095c.731-.604 1.095-1.238 1.25-1.496.227-.375.711-1.123.998-1.936s1.117-3.18 1.33-3.764.106-2.149 1.381-2.212l2.32.063c.745.537.399 1.788.223 2.373-.176.584-.277 1.136-.553 1.827s-.789 2.025-1.328 3.096c-.541 1.068-1.506 3.041-3.211 3.147h-2.24z"/><path d="m13.796 17.867c.154.016.33-.038.446.054-.139.807-.362 1.582-.669 2.327-.606-.046-.499-.791-.66-1.221-.154-.246-.33-.438-.607-.553-.361 0-.722.152-.891.499-.146.223-.146.606 0 .829.515.807 1.69 1.291 1.882 2.266.276 1.152-.192 2.296-1.214 2.987-.944.638-2.127.292-3.041-.161-.538-.199-.806.69-1.275.215.123-.829.399-1.589.607-2.373.115-.261.338-.1.499-.054.307.623.346 1.644 1.275 1.713.369-.031.76-.115.937-.499.123-.261.238-.591.115-.883-.499-1.015-1.858-1.676-1.882-2.88.054-.923.415-1.768 1.268-2.32.791-.622 1.928-.238 2.657.223.223.023.399-.046.553-.169"/><path d="m25.409 24.172c.346.275.691.69.384 1.105l-.107.108h-2.934c-.246-.162 0-.4 0-.607.153-.3.514-.223.614-.553.023-.277-.031-.507-.169-.715l-1.989.054c-.192.177-.223.431-.276.661.261.345.606.583.384 1.052l-.162.108-2.104-.001c-.176-1.006 1.213-.99 1.329-1.874l2.542-4.592c-.331-.799.514-.914.937-1.16.253-.084.499-.185.775-.222z"/><path d="m20.263 17.706-.553 2.043c-.077.101-.215.038-.33.054-.4-.3-.108-.898-.607-1.159-.384-.031-.983-.224-1.275.169-.146.645-.368 1.252-.438 1.935.093.177.361.123.5.054.345-.207.56-.944 1.044-.606l-.66 2.427c-.085.1-.223.046-.331.063-.261-.292-.115-.983-.721-.892l-.223.276-.553 2.158c.476.292 1.175.185 1.605-.107.637-.323.499-1.206 1.275-1.221l.107.114c-.261.729-.291 1.574-.66 2.266-.169.208-.622.076-.83.115h-4.195c-.077-.162-.144-.499-.067-.667 1.152-.4.914-1.676 1.275-2.543l.829-3.096c.238-.567-.691-.806-.223-1.328.446-.185 1.068-.123 1.552-.054l3.264-.115c.092-.041.146.053.215.114"/><path d="m30.992 17.706c.238-.046.537-.046.775 0 .346-.1.553-.046.938-.061.115.376-.107.736-.162 1.104-.253.461-.169 1.1-.553 1.444-.568-.13-.292-.892-.445-1.328-.154-.223-.369-.292-.607-.331l-.168.108c-.484 1.812-1.038 3.578-1.437 5.422-.015.261.207.422.392.606.023.276-.031.507-.169.714h-2.988c-.246-.191 0-.438 0-.659l.668-.554 1.436-5.307c0-.123.023-.262-.115-.331-.898-.061-1.037.976-1.49 1.49-.153-.016-.33.039-.445-.055.223-.789.322-1.635.668-2.38 1.267.125 2.504-.013 3.702.118"/><path d="m38.181 17.706c.253-.031.461-.115.722 0-.154.853-.322 1.729-.722 2.488-.952-.069.069-1.444-.884-1.605-.568-.138-.483.569-.66.883l-1.168 4.755c.207.322.584.707.277 1.105-1.13 0-2.127 0-3.257 0-.114-.774.813-.852.937-1.49l1.33-4.976c.015-.116-.017-.208-.115-.277-1.008-.123-1.021 1.075-1.659 1.49-.093-.015-.285.054-.276-.108l.553-2.265.115-.115c1.604.206 3.132.069 4.807.115"/><path d="m50.185 17.644c-.224.737-.323 1.521-.668 2.212-.899-.039-.208-1.575-1.384-1.267-.291.015-.659-.069-.774.275-.092.661-.399 1.244-.438 1.936.178.262.416-.015.607-.053.262-.27.414-.668.829-.668l.108.114-.662 2.488c-.137.138-.237.054-.383 0-.153-.277-.131-.683-.445-.829-.178-.031-.331.023-.446.161-.123.806-.437 1.521-.553 2.327.553.207 1.274.123 1.721-.276.591-.276.437-1.375 1.267-1.053l-.586 2.239-.248.137-5.08-.002c-.068-.177.016-.423.108-.607.138-.261.53-.292.668-.553l1.214-4.37c.068-.469.537-1.183-.107-1.544-.069-.292.092-.53.275-.668.092-.092.602.062 1.545.062l3.209-.115c.068.016.177-.038.223.054"/><path d="m42.604 17.759c.086.622-.537.66-.775 1.16l-1.32 5.084c-.088.184-.101.445.053.445.5.039.938-.054 1.33-.276.49-.377.467-1.214 1.16-1.275.244.253 0 .554 0 .829-.224.569-.121 1.219-.535 1.648l-4.889.011c-.068-.176.016-.422.116-.605.138-.292.483-.315.66-.607l1.274-4.923c.068-.216.104-.504.055-.553-.293-.192-.416-.522-.277-.83.361-.545 1.698-.107 2.282-.23.545-.098.849.009.866.122"/></g><path d="m23.143 22.344c-.277.292-.883.154-1.275.115.33-.668.653-1.359 1.052-1.989.154.538.154 1.252.223 1.874" fill="#fff"/><path d="m36.798 28.245 3.372 3.615c.1.161.168.43.061.606-.322.377-.752.677-1.166.938.222.53.459 1.105.275 1.72-.215.576-.837.661-1.267.991-.814.261-1.659 1.121-2.542.553-.323-.346-.499-.729-.723-1.105l-.107.115c.23.782.538 1.935-.061 2.649-.715.676-1.767.514-2.65.775-.723-.016-1.506.292-2.158-.054-.775-.69-.553-1.813-.829-2.711-.154.177-.154.515-.223.775-.054.761-.246 1.521-.883 1.989-1.49.331-2.942-.084-4.255-.499-.983-.775-.53-2.212-.338-3.202l-.054-.063c-.399.554-.637 1.591-1.543 1.498-1.083-.276-2.105-.722-3.042-1.329-.322-.307-.322-.813-.222-1.213.069-.322.299-.553.33-.891-.384-.284-1.022-.484-1.106-1.045l.108-.499 3.326-3.615h15.697" fill="#003876"/><path d="m21.538 28.98-.223.499-1.82 2.765c-.154.154-.292-.039-.445-.054-.208-.153-.169-.43-.169-.66l2.327-2.765c.107.054.245.092.33.215" fill="#fff"/><path d="m39.232 31.745c-.054.308-.292.53-.553.668h-.169l-2.149-3.372c.106-.138.229-.207.383-.222z" fill="#fff"/><path d="m23.197 29.479c.484.346 1.214.261 1.766.276l-1.382 3.595c-.276.583-.353 1.359-.937 1.712-1.19 0-2.212-.507-2.987-1.382l.053-.607 2.711-4.2c.308.085.499.468.776.606" fill="#fff"/><path d="m38.181 33.189c.015.161.206.33.054.49-.699.808-1.667 1.206-2.704 1.329-.414-.022-.499-.499-.668-.775l-1.604-4.362c0-.061-.008-.138.062-.169.745.192 1.597-.031 2.149-.66l.339.384z" fill="#fff"/><path d="m32.49 29.318c.606 1.889 1.105 3.825 1.658 5.745-.046.944-1.167 1.189-1.882 1.444-.875.138-2.021.275-2.711-.339l-.107-.438-.169-6.136c.238-.047.453.313.722.384.714.238 1.52.176 2.096-.331.124-.114.261-.321.393-.329" fill="#fff"/><path d="m26.407 29.924c.661.315 1.528.154 2.097-.276.084-.016.184.016.169.107l-.223 6.198c-.676.991-2.104.66-3.149.492-.514-.277-1.375-.385-1.382-1.16l1.766-5.806c.261.085.453.361.722.445" fill="#fff"/><path d="m37.352 32.912c-.5.622-1.268.969-2.043.884-.531-.415-.554-1.152-.83-1.712.291.261.606.714 1.053.714.484 0 .968-.246 1.158-.714.024-.361-.029-.692-.168-.999l.054-.055c.306.607.959 1.145.776 1.882" fill="#008357"/><path d="m21.369 31.253c-.008.299-.284.561-.107.883.384.499.967.898 1.605.714.368-.176.798-.468.937-.883h.053c-.384.691-.437 1.713-1.321 1.989-.791.03-1.451-.368-1.935-.99-.1-.721.492-1.206.768-1.713" fill="#008357"/><path d="m33.318 33.189c0 .398.246.837 0 1.213-.76.775-2.004 1.122-3.103.722-.56-.43-.284-1.29-.438-1.935.14 0 .178.215.277.33.346.645 1.075.368 1.659.438.453-.177.991-.261 1.267-.768.062-.169.115-.393.17-.499z" fill="#008357"/><path d="m25.854 33.849c.561.207 1.49.346 1.989-.108.108-.152.33-.253.33-.444l.054.107c-.154.614.154 1.451-.607 1.774-.844.222-1.835.106-2.542-.331-.883-.599.039-1.382 0-2.104.108.384.292.929.776 1.106" fill="#008357"/><path d="m13.543 16.337.307-1.106h42.079l.01 1.106z" fill="#008357"/><path d="m2.33 27.667-.008-1.106h42.394l-.308 1.106z" fill="#008357"/><path d="m46.48 27.667.308-1.106h.712l-.307 1.106z" fill="#003876"/><path d="m45.133 27.667.306-1.106h.712l-.306 1.106z" fill="#003876"/><path d="m12.143 16.328.306-1.107h.713l-.308 1.107z" fill="#003876"/><path d="m10.794 16.328.307-1.107h.712l-.307 1.107z" fill="#003876"/></svg>