<?xml version="1.0" encoding="utf-8"?>
<!-- Generator: Adobe Illustrator 16.0.0, SVG Export Plug-In . SVG Version: 6.00 Build 0)  -->
<!DOCTYPE svg PUBLIC "-//W3C//DTD SVG 1.1//EN" "http://www.w3.org/Graphics/SVG/1.1/DTD/svg11.dtd">
<svg version="1.1" id="Layer_1" xmlns="http://www.w3.org/2000/svg" xmlns:xlink="http://www.w3.org/1999/xlink" x="0px" y="0px"
	 width="145.424px" height="139.839px" viewBox="0 0 145.424 139.839" enable-background="new 0 0 145.424 139.839"
	 xml:space="preserve">
<path fill="#FFFFFF" d="M137.917,107.6l-0.97-0.773c-0.011-0.473-0.104-0.94-0.316-1.435c-0.456-1.055-1.231-1.669-2.217-2.447
	c-0.137-0.108-0.287-0.228-0.454-0.359c-0.641-0.512-1.311-1.047-1.995-1.594c-0.686-0.547-1.389-1.107-2.088-1.666
	c5.791-12.734,7.303-22.857,7.687-26.676l0.011-0.112c1.305-12.575,0.741-21.501-1.828-28.94
	c-5.461-15.815-12.097-22.197-20.203-28.896C108.209,8.643,97.846,3.704,87.818,1.494C83.39,0.516,78.179,0,72.75,0v0.93h-0.001V0
	c-5.688,0-11.416,0.572-15.322,1.529l-0.215,0.053c-1.936,0.474-5.967,1.458-10.865,3.453c-6.042,2.461-11.582,5.702-16.47,9.633
	c-5.537,4.453-9.396,8.462-12.512,12.999c-2.942,4.283-5.248,9.037-7.706,15.897l-0.041,0.111c-3.142,8.706-2.712,20.51-1.799,28.88
	c1.213,11.114,5.169,21.227,7.694,26.772l-0.711,0.568c-1.171,0.935-2.345,1.873-3.37,2.69l-0.235,0.187
	c-1.076,0.857-1.725,1.374-2.206,2.18c-0.558,0.936-0.61,1.81-0.495,2.648H0v32.239h137.934l7.475-5.967l0.016-20.278L137.917,107.6
	z"/>
<path fill="#026937" d="M12.836,44.591c4.378-12.212,8.792-19.112,19.212-27.493C43.114,8.197,54.634,5.503,58.273,4.611
	c5.959-1.459,18.474-2.295,28.802-0.018c9.741,2.149,19.637,7.017,26.286,12.512c7.191,5.942,13.82,11.856,19.218,27.485
	c2.255,6.524,3.023,14.664,1.678,27.636c-0.128,1.233-1.083,12.223-7.846,26.724c0,0-0.721,1.177,0.453,2.116
	c1.676,1.339,3.404,2.716,4.957,3.956c2.146,1.715,1.986,1.375,1.448,3.437c-0.267,1.015-0.54,2.047-1.088,4.118
	c-0.178,0.67-0.597,2.485-2.173,2.485H109.35c-2.224,0-2.014-1.742-2.014-3.543c0-1.001-0.005-2.454-0.005-6.243
	c0-5.401,0.178-4.524,5.648-17.428c1.934-4.849,3.543-9.542,4.228-15.885c1.348-12.502-1.64-21.784-5.84-27.86
	c-0.782-1.13-1.546-2.252-2.403-3.283c-9.296-11.158-19.949-15.607-21.437-16.179c-8.1-3.117-22.132-3.005-29.776,0.044
	c-7.658,3.057-16.232,9.809-21.4,16.202c-0.968,1.198-2.624,3.595-3.224,4.618c-0.405,0.686-6.856,9.878-4.917,26.643
	c0.686,5.927,2.306,11.071,4.186,15.611c5.706,13.228,5.686,12.333,5.686,17.835c0,3.76-0.004,4.923-0.004,5.924
	c0,1.801,0.212,3.543-2.011,3.543H15.424c-1.604,0-2.02-1.833-2.182-2.451c-0.429-1.63-1.091-4.128-1.313-4.978
	c-0.291-1.11-0.24-1.09,1.665-2.611c1.493-1.19,3.305-2.638,4.958-3.956c1.168-0.934,0.454-2.116,0.454-2.116
	c-2.422-5.169-6.614-15.421-7.846-26.724C9.189,54.184,12.239,46.254,12.836,44.591"/>
<path fill="#001F5B" d="M50.839,75.978c-0.779,0.85-1.471,1.812-1.471,1.812s-0.23-0.742-0.374-1.703
	c-0.146-0.96-0.324-2.144-0.324-2.144s1.101-0.985,1.737-2.056c0.635-1.069,0.367-2.201,0.367-2.201
	c0.52,0.432,1.358,1.945,1.507,3.329C52.449,74.575,51.619,75.127,50.839,75.978 M47.956,72.328l-0.347-0.521
	c-0.345-0.522-1.039-0.303-1.039-0.303s0.635-1.097,1.212-1.976c0.576-0.878,1.529-1.124,1.529-1.124s0.404,1.098,0.087,2.167
	C49.08,71.642,47.956,72.328,47.956,72.328 M112.743,71.449c-0.98-2.387-3.691-3.321-4.962-4.5c-1.27-1.18-0.316-1.838-0.779-5.709
	c-0.461-3.869-3.085-3.4-3.605-3.787c-0.721-0.536-1.02-0.96-1.653-2.197c-0.604-1.178-0.793-1.833-3.799-4.472
	c-2.868-2.521-8.22-2.059-10.901-1.977c-2.684,0.083-6.348,1.126-8.597,1.702c-2.25,0.576-6.784,0.446-9.202-0.302
	c-1.2-0.37-2.625-0.933-5.164-0.933s-5.603,1.423-7.043,1.423c-1.443,0-4.057-0.218-4.907-0.009
	c-1.719,0.421-0.831,0.407-2.91,1.356c-0.725,0.332-0.694,0.156-1.597,0.488c-1.259,0.464-1.795,1.507-3.034,2.868
	c-1.955,2.147-2.611,2.662-4.728,5.74c-0.733,1.065-0.254-0.838-1.307,0.759c-0.369,0.562-1.652,1.939-2.146,5.104
	c-0.13,0.831-0.233-0.606-0.718,0.319c-0.361,0.691-0.78,1.914-0.682,3.778c0.055,1.026-0.301-0.666-0.673,0.321
	c-0.094,0.247-0.406,0.849-0.433,2.736c-0.007,0.528-0.201-0.067-0.339,0.307c-0.069,0.19-0.177,0.631-0.069,1.846
	c0.039,0.438-1.578,1.7-1.519,1.946c0.057,0.247,1.181,0.138,1.181,0.138s-0.577,1.016-1.097,1.812
	c-0.518,0.795,0.03,0.768,1.329,0.685c1.297-0.083,2.451-0.796,2.451-0.796s0.433,0.22,0.577,0.521
	c0.145,0.302,0.404,0.111,1.182,0.495c0.779,0.383,1.097,0.438,1.674,1.619c0.578,1.18,1.991,1.18,3.116,1.592
	c1.124,0.411,2.509,1.701,2.509,1.701s0.092,0.464-0.231,3.594c-0.144,1.395,0.008,2.339-0.244,4.708
	c-0.297,2.78-0.646,4.712-0.14,5.379c0.406,0.537,0.084,1.419-0.262,2.03c-0.293,0.515-0.622,1.084-0.461,2.426
	c0.13,1.105,0.353,1.674,0.739,1.674c0.487,0,1.757-0.738,2.912-1.992c2.061-2.243,0.586-2.273,0.316-3.462
	c-0.317-1.405,0.724-1.425,0.513-2.748c-0.403-2.534-0.314-5.516,0.176-7.135c0.491-1.619,1.039-2.964,1.039-2.964
	s1.014,0.369,1.337,0.122c0.763-0.578,0.133-0.752,0.393-1.109c0.26-0.357,0.461,0.466,1.385-0.741
	c0.274-0.359,0.37-0.668,0.461-1.108c0.1-0.481-0.807-1.498-0.807-1.498s0.692-0.989,2.249-2.444
	c1.559-1.455,3.606-2.743,3.606-2.743c-0.34,1.803-0.458,2.114-1.923,5.537c-0.979,2.28-2.068,3.486-2.285,3.922
	c-0.415,0.834-0.796,2.193-0.814,2.61c-0.039,0.88,0.202,2.518,0.155,3.731c-0.041,1.09-0.172,2.718-0.47,4.752
	c-0.498,3.402-1.136,3.573-0.408,5.458c0.557,1.443-0.272,2.302-0.467,2.823c-0.104,0.276-0.877,1.186-0.646,3.324
	c0.156,1.435,0.524,1.791,0.958,1.901c0.432,0.11,2.303-1.324,3.403-2.788c1.963-2.617,0.166-2.262,0.061-4.064
	c-0.074-1.287,0.586-2.031,1.098-2.734c0.322-0.445,0.305-0.795,0.287-1.536c-0.015-0.62-0.187-1.975-0.162-3.495
	c0.027-1.632,0.118-2.974,0.208-3.972c0.071-0.765,0.104-1.448,0.854-2.436c0.749-0.989,0.658-1.59,0.69-2.523
	c0.028-0.788,0.537-1.6,1.547-3.054c1.009-1.455,2.04-3.669,4.837-6.085c2.798-2.416,3.562-3.555,3.562-3.555
	s0.872-0.089,1.858-0.062c3.457,0.095,6.128-1.355,7.84-2.077c1.103-0.464,2.723-0.541,3.572-0.414
	c0.801,0.12,0.632,1.334,0.598,2.063c-0.038,0.832,0.101,1.195-0.236,1.932c-0.466,1.012-1.914,2.226-4.18,2.844
	c-2.222,0.605-2.822,0.857-5.903,1.331c-3.102,0.475-3.832,1.316-3.937,2.219c-0.055,0.465-0.606,1.4-1.242,1.894
	c-0.635,0.494-1.24,1.29-1.269,1.976c-0.029,0.686-0.548,1.4-0.548,1.84c0,0.438,2.103,0.84,3.981,0.055
	c2.63-1.101,1.775-1.583,2.019-2.964c0.184-1.038,0.655-1.15,1.088-1.15c0.431,0,0.616,0.287,1.263,0.466
	c0.421,0.115,1.201-0.137,2.015-0.608c0.817-0.473,1.622-0.863,5.528-2.277c2.983-1.08,7.307-0.958,7.307-0.958
	s0.053,0.725,0.137,1.48c0.077,0.709,0.328,2.098,0.444,3.717c0.114,1.62-0.677,2.074-1.138,2.65
	c-0.46,0.576-1.27,1.235-2.308,2.607c-1.037,1.372-3.028,2.552-3.98,3.43s-1.214,1.566-1.153,2.25
	c0.063,0.725-0.875,1.29-1.253,1.583c-1.293,1.002-1.727,1.863-1.85,3.241c-0.12,1.337,0.075,2.249,0.496,2.331
	c0.395,0.079,2.608-0.618,3.95-1.677c1.834-1.448,1.009-1.642,1.079-2.733c0.055-0.851,0.821-0.935,1.083-0.98
	c0.253-0.045,0.661-0.075,1.113-0.31c0.606-0.316,0.267-1.274,2.271-3.619c2.098-2.456,6.052-4.394,8.102-5.355
	c2.048-0.961,1.414-2.91,0.951-4.228c-0.461-1.317-1.145-3.924-1.059-7.327c0.087-3.402,3.749-5.105,5.309-6.038
	c1.558-0.933,1.845-1.838,1.845-1.838c-0.057,0.988-0.864,2.277-2.741,4.444c-1.874,2.171-2.282,4.234-2.129,4.032
	c0.188-0.244,0.337-0.399,0.395-0.452c0.089-0.082,0.316-0.244,0.472-0.134c0.479,0.337-0.265,1.22-0.812,2.95
	c-0.55,1.729,0.152,4.488,0.2,4.337c0.027-0.084,0.256-0.759,0.75-0.795c0.589-0.043,0.183,1.362,0.901,2.563
	c0.264,0.442-0.044-0.151,0.314-1.072c0.096-0.249,0.306-0.554,0.403-0.452c0.326,0.34,0.862,1.162,1.035,2.693
	c0.162,1.415,2.118,2.577,1.973,2.354c-0.178-0.272-0.121-0.963,0.046-0.847c2.783,1.967,5.481,1.73,5.481,1.73
	c-2.451-3.541-0.773-6.136,1.184-8.206c2.115-2.242,2.187-3.88,2.515-4.011c0.369-0.148,0.345,0.271,0.393,0.606
	c0.022,0.148,0.052,0.627,0.152,0.417C113.949,78.629,113.723,73.837,112.743,71.449"/>
<path fill="#001F5B" d="M15.144,119.938l-1.373,1.092h-3.92v-4.863l3.92-0.003l1.372,1.069L15.144,119.938z M15.141,130.214
	l-1.371,1.056H9.852v-4.897h3.92l1.373,1.05L15.141,130.214z M21.645,121.01v-5.946l-5.355-4.285H3.35l-0.003,25.876l12.897,0.004
	l5.393-4.287l0.009-6l-3.356-2.678L21.645,121.01z"/>
<path fill="#001F5B" d="M35.219,121.606l-1.368,1.117h-3.935v-6.554h3.904l1.399,1.071V121.606z M23.411,110.785l0.015,25.875h6.49
	v-6.446l3.936,6.446h7.875l-5.636-9.236h0.969l4.667-3.729l-0.006-8.631l-5.366-4.279H23.411z"/>
<polygon fill="#001F5B" points="95.409,130.214 94.056,131.27 93.01,131.27 92.534,131.27 91.475,131.27 90.127,130.214 
	90.127,117.253 91.478,116.171 92.686,116.168 92.855,116.168 94.056,116.168 95.409,117.234 95.409,121.009 101.92,121.009 
	101.92,115.064 96.548,110.78 89.049,110.78 83.62,115.064 83.62,132.373 89.038,136.66 96.603,136.66 101.92,132.373 
	101.92,126.373 95.409,126.373 "/>
<polygon fill="#001F5B" points="75.381,121.596 70.072,110.78 63.564,110.78 63.564,136.66 70.082,136.66 70.082,125.794 
	75.417,136.66 81.858,136.66 81.858,110.78 75.378,110.78 "/>
<polygon fill="#001F5B" points="129.132,110.779 123.763,115.063 123.763,122.103 129.11,126.363 134.234,126.363 135.575,127.415 
	135.575,130.214 134.238,131.27 131.625,131.27 130.266,130.214 130.266,127.423 123.763,127.423 123.763,132.373 129.132,136.66 
	136.708,136.66 142.078,132.373 142.078,125.282 136.714,121.011 131.627,121.009 130.268,119.928 130.266,117.247 131.627,116.169 
	132.842,116.169 133.016,116.169 134.21,116.169 135.575,117.235 135.575,119.939 142.078,119.939 142.078,115.063 136.701,110.779 
	"/>
<path fill="#001F5B" d="M115.488,130.214l-1.354,1.051h-1.042h-0.472h-1.067l-1.361-1.051v-12.979l1.361-1.069h1.213h0.171
	l1.197,0.004l1.354,1.067V130.214z M109.058,110.775l-5.37,4.287v17.312l5.37,4.282h7.577l5.36-4.282v-17.312l-5.393-4.287H109.058z
	"/>
<path fill="#001F5B" d="M55.289,130.214l-1.354,1.051h-1.042h-0.473h-1.066l-1.36-1.051v-12.979l1.36-1.069h1.213h0.172l1.196,0.004
	l1.354,1.067V130.214z M48.859,110.775l-5.368,4.287v17.312l5.369,4.282h7.577l5.361-4.282v-17.312l-5.394-4.287H48.859z"/>
<path fill="#FFFFFF" d="M91.844,51.027h-7.772V46.52l-1.617-1.274h-1.436h-0.201l-1.443,0.003l-1.611,1.291v15.476l1.609,1.259
	h1.264h0.569h1.249l1.617-1.259v-4.587h7.772v7.164l-6.348,5.12h-9.032l-6.47-5.12V43.926l6.481-5.116h8.955l6.414,5.116V51.027z
	 M66.786,34.707v2.825v0.429l-3.487-0.001l-1.055-0.838l-0.002-2.404l1.056-0.833h1.125h0.207h1.104L66.786,34.707z M62.242,49.396
	v-2.927v-0.412h3.518l1.026,0.804V49.4l-1.022,0.808h-2.474L62.242,49.396z M69.037,57.498h-9.044l-6.412-5.121v-5.908h7.767v3.332
	l1.624,1.26h3.118l1.594-1.26v-3.341l-1.6-1.256h-6.118l-6.387-5.089l0.002-8.403l6.412-5.116h9.036l6.422,5.116v5.821h-7.769
	v-3.229l-1.628-1.273h-1.425h-0.207h-1.45l-1.625,1.288l0.002,3.202l1.624,1.292l6.073,0.001l2.997,2.387l-2.62,2.07l-0.324,0.255
	v0.401v13.521L69.037,57.498z M72.746,40.647l-2.844-2.263h5.549h0.161L72.746,40.647z M92.419,43.272l-6.412-5.116l-0.251-0.198
	H85.43h-8.955h-0.128v-0.426v-5.821v-0.398l-0.322-0.255l-6.422-5.116l-0.25-0.199h-0.325h-9.036h-0.326l-0.25,0.2l-6.413,5.115
	l-0.319,0.255v0.398v8.403v0.398l0.318,0.255l6.086,4.849H53.58h-0.896v0.853v5.908v0.398l0.319,0.255l6.413,5.12l0.249,0.199h0.327
	h9.044h0.062v6.243v0.4l0.324,0.256l6.469,5.119l0.248,0.197h0.324h9.032h0.328l0.251-0.202l6.349-5.12l0.316-0.255v-0.396v-7.164
	v-0.853h-0.896h-7.772h-0.898v0.853v4.183l-1.038,0.812h-0.93h-0.569h-0.942l-1.034-0.811V46.938l1.044-0.837l1.117-0.002h0.198
	h1.114l1.04,0.822v4.107v0.852h0.898h7.772h0.896v-0.852v-7.101v-0.398L92.419,43.272z"/>
<polygon fill="#026937" points="85.497,69.713 91.844,64.593 91.844,57.43 84.072,57.43 84.072,62.016 82.458,63.275 81.206,63.275 
	80.636,63.275 79.373,63.275 77.763,62.016 77.763,46.54 79.375,45.249 80.818,45.246 81.02,45.246 82.458,45.246 84.072,46.519 
	84.072,51.027 91.844,51.027 91.844,43.926 85.43,38.81 76.475,38.81 72.743,41.757 69.994,43.926 69.994,56.732 69.994,64.593 
	76.464,69.713 "/>
<polygon fill="#026937" points="69.099,57.498 69.099,57.448 69.099,43.926 69.099,43.526 69.423,43.269 72.042,41.2 69.045,38.813 
	62.972,38.812 61.349,37.52 61.347,34.317 62.972,33.03 64.422,33.03 64.629,33.03 66.054,33.03 67.682,34.304 67.682,37.532 
	75.45,37.532 75.45,31.711 69.027,26.596 59.992,26.596 53.58,31.711 53.58,40.114 59.965,45.204 66.083,45.204 67.682,46.459 
	67.682,49.801 66.088,51.061 62.97,51.061 61.347,49.801 61.347,46.469 53.58,46.469 53.58,52.378 59.992,57.498 "/>
</svg>
