<svg height="242.061459" viewBox="0 0 70.11298 41.03802" width="413.118224" xmlns="http://www.w3.org/2000/svg"><path d="m67.312 11.744a3.58679 3.58679 0 0 0 2.008-3.549 4.3836 4.3836 0 0 0 -.492-2.052h.283v-2.025c0-1.879-.856-4.118-4.939-4.118a6.97851 6.97851 0 0 0 -2.54.42505v-.25205h-16.149l-.169.972a5.68284 5.68284 0 0 0 -3.813-1.145 6.66876 6.66876 0 0 0 -2.918.58905v-.41605h-6.304v.396a5.82428 5.82428 0 0 0 -2.213-.396h-27.994l-2.072 11.967h1.065l15.612 19.514h3.07a17.79881 17.79881 0 0 0 31.368 0h3.07l15.928-19.91zm-50.347 19.311-14.969-18.712h19.345q-.522.675-.979 1.4h-15.028l12.731 15.914h.755q.27753.71247.612 1.398zm.739-6.13995a17.797 17.797 0 0 0 .89 4.124h-.232l-3.299-4.124zm-.06-2.502h-4.583l-2.505-3.132h7.509a17.71849 17.71849 0 0 0 -.421 3.132m-9.09-5.635-1.935-2.41705h13.369a17.58828 17.58828 0 0 0 -1.157 2.417zm26.877 23.65895a17.20439 17.20439 0 0 1 -12.623-28.897h-22.095l1.864-10.767h27.489a4.27731 4.27731 0 0 1 2.813.812v-.812h5.104v.904a5.02116 5.02116 0 0 1 3.518-1.077c2.553 0 3.684.98095 4.18 1.94l.307-1.767h15.044v.633a5.227 5.227 0 0 1 3.14-.806c2.879 0 4.339 1.183 4.339 3.518v1.426h-.832a3.56848 3.56848 0 0 1 1.041 2.651c0 1.509-.46 3.518-4.443 3.518a5.0304 5.0304 0 0 1 -3.245-.918v.745h-12.978a17.20437 17.20437 0 0 1 -12.623 28.897m20.368-15.522-3.299 4.124h-.232a17.69288 17.69288 0 0 0 .89-4.124zm-2.581-2.502a17.72127 17.72127 0 0 0 -.421-3.132h7.51l-2.506 3.132zm-1.186-5.635a17.82882 17.82882 0 0 0 -1.158-2.417h13.368l-1.933 2.417zm1.865 14.277h-2.467q.336-.684.612-1.398h.755l12.731-15.914h-15.027q-.4575-.72455-.98-1.4h19.344z" fill="#fff"/><path d="m5.123 7.416h1.158l-.579-3.526z" fill="#fff"/><path d="m49.112 3.889-.579 3.526h1.158z" fill="#fff"/><path d="m29.62619 3.3689h-.438v1.851h.438a.43975.43975 0 0 0 .44-.439v-.973a.43917.43917 0 0 0 -.44-.439" fill="#fff"/><path d="m51.55667 24.15326h-1.35c.018-.306.029-.613.029-.922a14.77653 14.77653 0 0 0 -5.722-11.691h-.391l.045-.261c-.022-.017-.044-.033-.066-.049a4.582 4.582 0 0 1 -.666.242 14.29874 14.29874 0 0 1 4.704 5.367h-9.682l-1.736-5.299-.155-.473h.944v-2.128c.249.96 1.113 2.301 3.99 2.301a4.34 4.34 0 0 0 3.347-1.12l-.163.947h4.286l.141-1.317.14 1.317h7.174v-1.599l.679 1.599h3.455v-1.628c.394.887 1.369 1.801 3.717 1.801 3.499 0 3.971-1.539 3.971-3.045a3.31385 3.31385 0 0 0 -2.031-3.124h1.822v-.953c0-1.308-.401-3.046-3.867-3.046-2.268 0-3.223.744-3.612 1.626v-1.45296h-3.658v1.599l-.679-1.599h-3.455v5.36694l-.929-5.36694h-5.453l-.798 4.604v-1.731c0-.715-.295-3.046-4.087-3.046-2.877 0-3.741 1.341-3.99 2.301v-2.128h-4.159v2.006c-.174-.85-.857-2.006-3.286-2.006h-15.3l-.262 1.373-.262-1.373h-4.906v5.241l-.908-5.241h-5.453l-1.701 9.822h4.287l.141-1.316.141 1.316h28.453l-.155.473-1.736 5.299h-9.682a14.27864 14.27864 0 0 1 4.608-5.299h-.983a14.77951 14.77951 0 0 0 -5.722 11.691c0 .309.011.616.03.922h-1.35l1.46 1.111a14.71822 14.71822 0 0 0 .917 3.47l-.491 1.875.959-.829a14.80863 14.80863 0 0 0 26.56 0l.96.829-.492-1.875a14.67217 14.67217 0 0 0 .918-3.47zm12.615-22.481c3.103 0 3.267 1.463 3.267 2.446v.353h-2.763v-.832a.5035.5035 0 1 0 -1.007 0v.274c0 1.626 3.979 1.069 3.979 4.282 0 1.185-.209 2.446-3.371 2.446-2.906 0-3.371-1.465-3.371-2.446v-.792h2.763v1.165a.608.608 0 0 0 1.216 0v-.37301c0-1.67395-3.979-1.21295-3.979-4.077 0-.983.164-2.446 3.266-2.446m-3.612 3.692a3.23659 3.23659 0 0 0 1.418 1.439h-1.418zm-7.192-3.519h2.458l1.676 3.947v-3.947h2.458v8.622h-2.458l-1.676-3.947v3.947h-2.458zm-6.477 0h4.443l1.493 8.622h-3.035l-.166-1.549h-1.028l-.166 1.549h-3.035zm-1.407 4.606h-3.911v-.235h3.952zm-7.47-2.333c0-1.292.894-2.446 3.487-2.446s3.487 1.154 3.487 2.446v1.498h-2.96v-1.953a.527.527 0 1 0 -1.054 0v4.986a.527.527 0 0 0 1.054 0v-1.598h2.96v1.144c0 1.291-.894 2.446-3.487 2.446s-3.487-1.155-3.487-2.446zm-31.632 6.349-.166-1.549h-1.028l-.165 1.549h-3.036l1.493-8.622h4.444l1.493 8.622zm12.69 0h-2.596v-5.77l-1.097 5.77h-1.75l-1.097-5.77v5.77h-2.596v-8.622h3.81l.758 3.979.758-3.979h3.81zm6.299 0h-5.134v-8.622h4.956v1.742h-1.996v1.633h1.858v1.633h-1.858v1.872h2.174zm.257-2.341h-1.831v-.673h1.831zm0-3.506h-1.831v-.433h1.831zm7.179 5.847h-2.741v-3.393a.439.439 0 0 0 -.439-.439h-.439v3.832h-2.96v-8.622h3.838c1.126 0 2.741.268 2.741 1.95v.824c0 1.359-1.561 1.359-1.561 1.359s1.561.169 1.561 1.418zm.545-3.53a1.78514 1.78514 0 0 0 -.57-.915 1.74314 1.74314 0 0 0 .57-.927zm.6 3.53v-8.622h2.96v8.622h-.541l-.94-2.866-.938 2.866zm1.479 11.111-2.525-4.049 2.525-7.71v11.759l2.526-4.049h8.525l-11.051 4.049 3.986 1.333 2.613 9.971-6.599-11.304v5.597l-6.598 5.707 6.598-11.304-3.985 1.333-7.065-5.38195zm-13.996 4.197.854.649-.347 1.326a14.11166 14.11166 0 0 1 -.507-1.975m.199 4.125 2.364-4.05-1.427.478-2.532-1.928 3.959 1.45-.905-1.45.905-2.762v4.212l.905-1.45h3.055l-3.96 1.45 1.428.478.937 3.572-2.365-4.05v2.005zm13.797 7.554a14.22459 14.22459 0 0 1 -12.825-8.067l1.392-1.204 2.806 2.426-1.096-4.185 2.983-2.271h-3.609l-1.084-3.311-1.084 3.311h-1.675c-.019-.306-.031-.613-.031-.922a14.17036 14.17036 0 0 1 1.408-6.178l8.045 6.128-3.061 11.681 7.831-6.773 7.832 6.773-3.061-11.681 8.045-6.128a14.16994 14.16994 0 0 1 1.408 6.178c0 .309-.011.616-.031.922h-1.675l-1.084-3.311-1.085 3.311h-3.608l2.983 2.271-1.096 4.185 2.806-2.426 1.392 1.204a14.22615 14.22615 0 0 1 -12.826 8.067m13.798-7.554-2.364-4.05v2.005l-2.365 2.045 2.365-4.05-1.428.478-2.532-1.928 3.96 1.45-.905-1.45.905-2.762v4.212l.905-1.45h3.054l-3.959 1.45 1.428.478zm-.308-2.15-.347-1.326.854-.649a14.25583 14.25583 0 0 1 -.507 1.975" fill="#fff"/><g fill="#bec0c2"><path d="m23.797 4.18695h1.83099v.43298h-1.83099z"/><path d="m23.797 7.453h1.83099v.67297h-1.83099z"/><path d="m60.5593 5.3642v1.439h1.418a3.24133 3.24133 0 0 1 -1.418-1.439"/><path d="m33.35159 6.93738v-1.84198a1.737 1.737 0 0 1 -.57.927 1.7852 1.7852 0 0 1 .57.915"/><path d="m45.525 6.216h-3.952v.235h3.911z"/><path d="m67.6788 5.5437h.832v-1.425c0-2.335-1.46-3.519-4.339-3.519a5.22114 5.22114 0 0 0 -3.139.806v-.633h-15.045l-.307 1.767c-.495-.959-1.627-1.94-4.18-1.94a5.01606 5.01606 0 0 0 -3.517 1.077v-.904h-5.105v.812a4.28309 4.28309 0 0 0 -2.813-.812h-27.48801l-1.865 10.767h33.428l.155-.473h-28.45299l-.141-1.315-.141 1.315h-4.287l1.701-9.821h5.453l.908 5.24v-5.24h4.906l.262 1.373.262-1.373h15.3c2.429 0 3.112 1.156 3.286 2.006v-2.006h4.159v2.128c.249-.96 1.113-2.302 3.99-2.302 3.792 0 4.087 2.332 4.087 3.047v1.73l.798-4.603h5.453l.929 5.366v-5.366h3.455l.678 1.599v-1.599h3.659v1.453c.389-.882 1.344-1.627 3.612-1.627 3.466 0 3.867 1.739 3.867 3.047v.953h-1.822a3.31349 3.31349 0 0 1 2.031 3.123c0 1.506-.472 3.046-3.971 3.046-2.348 0-3.323-.914-3.717-1.802v1.628h-3.455l-.679-1.598v1.598h-7.174l-.14-1.316-.141 1.316h-4.287l.164-.946a4.3437 4.3437 0 0 1 -3.347 1.12c-2.877 0-3.741-1.342-3.99-2.302v2.128h-.945l.156.473h1.262v-.904a5.01606 5.01606 0 0 0 3.517 1.078 7.0577 7.0577 0 0 0 1.934-.241 4.54549 4.54549 0 0 0 .667-.243c.026-.011.055-.023.081-.035l-.015.08405-.045.261h16.91v-.745a5.0248 5.0248 0 0 0 3.244.919c3.983 0 4.443-2.009 4.443-3.519a3.57047 3.57047 0 0 0 -1.041-2.651"/><path d="m32.905 17.529 2.526 4.049v-11.758z"/><path d="m37.957 17.529-2.526 4.049 11.051-4.049z"/><path d="m35.431 21.578 6.599 11.304-2.614-9.971z"/><path d="m35.431 27.176v-5.597l-6.599 11.304z"/><path d="m31.446 22.911 3.985-1.333-11.05-4.049z"/><path d="m23.093 24.4.905 1.45v-4.212z"/><path d="m24.903 24.4-.905 1.45 3.959-1.45z"/><path d="m25.426 26.328-1.428-.478 2.364 4.051z"/><path d="m23.998 27.856v-2.006l-2.364 4.051z"/><path d="m22.57 26.328 1.428-.478-3.96-1.45z"/><path d="m45.96 24.4.905 1.45v-4.212z"/><path d="m47.769 24.4-.905 1.45 3.96-1.45z"/><path d="m48.293 26.328-1.428-.478 2.363 4.051z"/><path d="m46.864 27.856v-2.006l-2.364 4.051z"/><path d="m45.436 26.328 1.428-.478-3.959-1.45z"/></g><path d="m15.063 24.91516 3.299 4.123h.232a17.72315 17.72315 0 0 1 -.889-4.123z" fill="#c41230"/><path d="m8.55371 16.77826h10.277a17.712 17.712 0 0 1 1.157-2.417h-13.36802z" fill="#c41230"/><path d="m18.06519 19.28094h-7.509l2.505 3.132h4.583a17.71763 17.71763 0 0 1 .421-3.132" fill="#c41230"/><path d="m52.2681 29.03845h.232l3.299-4.123h-2.642a17.68334 17.68334 0 0 1 -.889 4.123" fill="#c41230"/><path d="m50.87421 14.36078a17.71315 17.71315 0 0 1 1.157 2.41705h10.278l1.933-2.41705z" fill="#c41230"/><path d="m53.21829 22.41266h4.583l2.506-3.132h-7.51a17.93153 17.93153 0 0 1 .421 3.132" fill="#c41230"/><path d="m48.0542 11.54h-3.54a14.78162 14.78162 0 0 1 5.722 11.692c0 .309-.011.616-.03.921h1.351l-1.461 1.112a14.67716 14.67716 0 0 1 -.918 3.469l.492 1.876-.959-.829a14.80941 14.80941 0 0 1 -26.56 0l-.959.829.491-1.876a14.62735 14.62735 0 0 1 -.917-3.469l-1.461-1.112h1.35q-.02847-.4575-.029-.921a14.77864 14.77864 0 0 1 5.722-11.692h-3.541a17.20749 17.20749 0 1 0 25.247 0" fill="#002d62"/><path d="m44.1824 11.1944c-.026.012-.054.024-.081.036.022.016.044.032.066.049z" fill="#002d62"/><path d="m49.42719 25.77484-.854.65.347 1.325a13.97941 13.97941 0 0 0 .507-1.975" fill="#002d62"/><path d="m38.45718 16.839h9.683a14.29816 14.29816 0 0 0 -4.705-5.366 7.10978 7.10978 0 0 1 -1.934.24 5.01946 5.01946 0 0 1 -3.518-1.077v.904h-1.262z" fill="#002d62"/><path d="m49.6546 23.23108a14.17335 14.17335 0 0 0 -1.408-6.178l-8.045 6.129 3.061 11.68-7.832-6.773-7.831 6.773 3.061-11.68-8.045-6.129a14.17335 14.17335 0 0 0 -1.408 6.178c0 .31006.012.617.031.92206h1.675l1.084-3.311 1.084 3.311h3.609l-2.983 2.272 1.096 4.185-2.806-2.427-1.392 1.204a14.22814 14.22814 0 0 0 25.651 0l-1.392-1.204-2.806 2.427 1.096-4.185-2.983-2.272h3.609l1.084-3.311 1.084 3.311h1.675c.02-.30506.031-.612.031-.92206" fill="#002d62"/><path d="m34.14111 11.54h-6.811a14.29645 14.29645 0 0 0 -4.608 5.299h9.683z" fill="#002d62"/><path d="m22.28879 26.42468-.854-.65a14.02689 14.02689 0 0 0 .507 1.976z" fill="#002d62"/><path d="m18.06461 29.65686-12.73102-15.91394h15.028q.4575-.72454.98-1.4h-19.34501l14.969 18.712h2.466q-.33448-.684-.611-1.398z" fill="#002d62"/><path d="m49.52109 12.34326q.522.675.98 1.4h15.027l-12.731 15.914h-.755q-.276.71245-.612 1.398h2.467l14.968-18.712z" fill="#002d62"/><path d="m25.37 8.725h-2.173v-1.872h1.857v-1.633h-1.857v-1.633h1.996v-1.742h-4.956v8.622h5.133z" fill="#002d62"/><path d="m35.431 7.601.939 2.866h.541v-8.622h-2.96v8.622h.541z" fill="#002d62"/><path d="m12.531 4.698 1.097 5.77h1.75l1.097-5.77v5.77h2.596v-8.623h-3.81l-.758 3.98-.758-3.98h-3.81v8.623h2.596z" fill="#002d62"/><path d="m5.18759 8.9184h1.028l.166 1.54895h3.035l-1.49301-8.62195h-4.444l-1.493 8.622h3.036zm.514-5.02906.579 3.526h-1.158z" fill="#002d62"/><path d="m48.59778 8.9184h1.028l.165 1.54895h3.036l-1.493-8.62195h-4.444l-1.493 8.622h3.035zm.514-5.02906.579 3.526h-1.158z" fill="#002d62"/><path d="m55.826 6.52 1.675 3.947h2.459v-8.622h-2.459v3.947l-1.675-3.947h-2.458v8.622h2.458z" fill="#002d62"/><path d="m29.18771 6.63593h.438a.43852.43852 0 0 1 .44.439v3.392h2.741v-3.071c0-1.248-1.561-1.417-1.561-1.417s1.561 0 1.561-1.36v-.824c0-1.682-1.615-1.95-2.741-1.95h-3.838v8.622h2.96zm0-3.267h.438a.43855.43855 0 0 1 .44.439v.973a.43913.43913 0 0 1 -.44.439h-.438z" fill="#002d62"/><path d="m41.50089 10.64087c2.593 0 3.487-1.154 3.487-2.446v-1.14397h-2.96v1.599a.5275.5275 0 0 1 -1.055 0v-4.987a.5275.5275 0 0 1 1.055 0v1.953h2.96v-1.498c0-1.291-.894-2.446-3.487-2.446s-3.488 1.155-3.488 2.446v4.077c0 1.292.895 2.446 3.488 2.446" fill="#002d62"/><path d="m64.2767 10.64087c3.162 0 3.371-1.25995 3.371-2.446 0-3.212-3.979-2.655-3.979-4.281v-.275a.5035.5035 0 0 1 1.007 0v.833h2.763v-.354c0-.982-.164-2.446-3.267-2.446-3.102 0-3.266 1.46405-3.266 2.446 0 2.864 3.979 2.403 3.979 4.077v.374a.608.608 0 0 1 -1.216 0v-1.166h-2.763v.792c0 .981.464 2.446 3.371 2.446" fill="#002d62"/></svg>