<svg enable-background="new 0 0 60.978 46.801" height="277.577341" viewBox="0 0 60.978 46.801" width="360.259953" xmlns="http://www.w3.org/2000/svg"><path d="m0 0v46.801h60.977v-46.801" fill="none"/><g fill="#fff"><path d="m58.148 5.937-3.835 7.48c-.209.4-.939 1.445-1.788 1.445h-.969l.155-.518-2.653-10.434s-6.651-3.91-19.362-3.91c-15.147 0-20.523 3.93-20.523 3.93l-2.648 10.417.156.514h-3.808v-.286h-2.873v3.02h2.873v-.285h4.614c6.699 18.713 22.219 29.49 22.219 29.49s14.466-10.775 21.05-29.49h3.632c1.101 0 1.752-1.003 1.78-1.045l4.721-7.405c.594-.932-1.948-4.472-2.741-2.923m2.354 2.677-4.721 7.404s-.531.834-1.394.834h-3.953c-6.376 18.568-20.738 29.382-20.738 29.382s-15.421-10.814-21.888-29.381h-5.392v.285h-1.958v-2.104h1.958v.285h4.882c-.101-.325-.201-.652-.297-.981l2.572-10.126s5.526-3.755 20.123-3.755c12.364 0 18.967 3.755 18.967 3.755l2.573 10.125c-.097.329-.196.656-.297.981h1.586c1.321 0 2.195-1.694 2.195-1.694l3.833-7.475c.397-.757 2.276 1.969 1.949 2.465z"/><path d="m17.758 13.371c.502.409.952 1.001 1.353 1.586.02-.004.041-.006.062-.007l-1.025-2.152s1.001-.498 3.262-.959c.084.281.28.369.28.369s-.065.072-.158.185c-.26.313-.753.951-.753 1.279 0 .199.485.382.485.382l-.353.496.21.109-.705.66h.388l.8-.755-.45-.051.413-.475s-.562-.117-.562-.44c0-.385.927-1.546.927-1.546s-.308-.124-.308-.674c0-.973.674-2.471 3.157-2.471 1.732 0 3.663 1.553 3.663 1.553s-2.452-2.651-4.862-1.622c0 0 .777-1.387 3.189-.535-.115-.664 1.013-1.695 2.537-.638-.301-.36-.764-.61-1.154-.674l-.547-3.383c-1.176.054-2.307.151-3.386.279l.704.697-1.243 3.765c-.367.269-.561.537-.561.537-.809.233-1.612 1.077-1.733 2.344-2.889.586-4.033 1.294-4.033 1.294zm7.539-8.876-.365-.362c.775-.08 1.576-.143 2.4-.186l.49 3.034c-.988.067-1.257.811-1.169 1.165-1.079-.513-1.94-.356-2.542-.058z"/><path d="m21.583 17.476c.156.004.333.1.532.267.573-1.45 2.423-3.378 8.206-3.378 6.729 0 15.258 2.121 17.75 2.781-3.529 9.618-9.882 18.518-18.421 25.805-9.161-7.278-16.022-16.443-19.583-26.099h-.645c5.426 14.985 16.945 24.3 20.241 26.88 3.13-2.633 13.892-11.978 19.2-26.992-1.443-.401-11.02-2.974-18.542-2.974-6.038 0-8.072 2.076-8.738 3.71"/><path d="m29.696 1.717c-11.423 0-17.088 2.363-18.74 3.202l-2.383 9.376c.104.344.212.685.322 1.024h.634c-.116-.348-.226-.696-.333-1.045.08-.314 2.145-8.441 2.272-8.939 1.758-.841 7.36-3.019 18.228-3.019 9.24 0 15.158 2.226 17.087 3.081.117.465 1.558 6.131 1.945 7.654-3.183-.858-10.57-2.586-18.408-2.586-.081 0-.159 0-.24 0 .109.178.208.378.287.598 8.867.008 17.285 2.289 19.195 2.841l-2.271-8.935c-1.853-.859-7.898-3.252-17.595-3.252"/><path d="m22.019 9.482.415-5.347c-1.005.158-1.956.342-2.848.539l.622.616-.359 4.612c.689-.151 1.412-.293 2.17-.42m-1.783-4.622c.589-.122 1.203-.237 1.841-.343l-.364 4.681c-.518.091-1.02.187-1.506.288l.336-4.321z"/><path d="m40.482 7.118-.192-2.335c-1.562-.362-3.322-.687-5.242-.91l.201 2.458.82-.634.655.097.299 3.629c.756.123 1.479.258 2.171.403l-.3-3.646.452.094zm-1.649 2.296c-.486-.098-.988-.19-1.506-.276l-.299-3.627c-.343-.055-.693-.107-1.05-.156l-.453.351-.121-1.466c1.664.207 3.198.487 4.58.799l.114 1.388-.616-.458c-.308-.066-.625-.131-.948-.193z"/><path d="m29.696 3.56c-.263 0-.524.003-.783.007l.767.762.03 4.502c.726.001 1.437.019 2.132.052l-.008-1.201.746 1.242c.652.041 1.289.096 1.91.162l-.224-5.297c-.694-.069-1.408-.125-2.14-.164l.068 1.604-.99-1.643c-.495-.017-.997-.026-1.508-.026m2.772.41c.504.03.999.068 1.485.113l.195 4.639c-.451-.044-.91-.082-1.377-.113l-1.271-2.114.014 2.047c-.486-.019-.979-.031-1.48-.035l-.029-4.314-.309-.307c.447 0 .887.007 1.322.02l1.557 2.585z"/><path d="m13.147 9.51c-.178 1.305.673 2.126 2.2 1.609 0 0 1.078-.364 2.512-.745l.309-3.097-2.65.748.623.586-.032.319c-.015.147-.165.33-.309.376l-.757.244.257-1.893c.02-.154.182-.349.326-.394l.857-.266c.857-.266 1.132.386 1.132.386l1.007-1.761s-.754-.6-2.197-.142c-1.819.575-3.139 1.056-3.139 1.056l.548.589c-.191.284-.472.807-.572 1.541zm.323.044.115-.844c.14-1.035.673-1.607.673-1.607l-.398-.428s1.662-.598 2.654-.881c1.128-.321 1.659-.04 1.659-.04l-.607 1.073s-.314-.389-1.174-.143l-.863.269c-.267.083-.515.384-.552.66l-.259 1.911c-.037.276.149.425.414.339l.768-.247c.265-.086.506-.376.533-.654l.048-.48-.32-.3 1.635-.462-.24 2.398c-.853.23-1.628.466-2.316.693-1.086.375-1.939-.011-1.77-1.257z"/><path d="m43.249 5.554c-1.26-.387-2.152-.059-2.152 1.13 0 .723.254 1.206.594 1.554l-.248 2.106 1.564.446c1.784.584 2.514-.204 2.363-1.338-.087-.651-.438-1.078-.835-1.389l.263-1.87c-.001 0-.704-.403-1.549-.639m1.797 3.941c.132.995-.514 1.444-1.95.982l-1.298-.37.125-1.067.254.423s.36.25.847.398c.485.149.768-.069.735-.333-.122-1.01-2.338-.836-2.338-2.844 0-1.16.979-1.03 1.74-.816.76.212 1.282.502 1.282.502l-.133.937-.144-.274s-.315-.228-.706-.347c-.406-.124-.659.049-.659.343.001.863 2.036.892 2.245 2.466zm-3.073-1.006c.676.521 1.344.636 1.461 1.072-.127.085-.568-.054-1.016-.33zm2.258-.64c-.769-.451-1.196-.671-1.094-.863 0 0 .149-.104.78.273z"/><path d="m26.094 5.068-.501 1.957c.278-.025.56-.047.845-.068zm-.041 1.153.093.512-.229.019z"/><path d="m25.183 18.704c.013.167-.115.472-.115.472s1.138-.259 1.69-.05c0 0 .074.206.052.556.491-.076.762-.448 1.244-.695l.406.523.986-.292-.766-.51c.716-.261 1.61-.396 2.745-.396.794 0 4.325.222 4.346.224l-2.728-.681c1.527.013 5.199.259 8.85.743-5.441-1.684-10.404-1.773-10.404-1.773.256-.017.541-.03.887-.03 3.83 0 14.031 1.775 14.031 1.775s-10.158-2.612-15.718-2.612c-2.337 0-2.649.864-2.649.864-.189-.395-.522-1.235-.522-1.235l-.438.386-.979-.626-.041 1.082-.595.024.83.945s-.383-.158-.984-.192c0 0 .076.232.076.278l-.931.277zm.303-1.084c.107-.035.044-.235.044-.235.64.058 1.084.345 1.267.345l-.994-1.133.41-.016.036-.952.847.542.358-.316s.526 1.333.627 1.333c0 0-.031-1.071 2.608-1.071 4.685 0 14.472 2.202 14.472 2.202s-8.58-1.682-12.785-1.682c-1.984 0-2.446.342-2.446.342 5.017-.152 10.987 1.42 10.987 1.42-6.447-.967-9.529-.661-9.529-.661 1.279.144 2.945.575 2.945.575s-2.099-.159-2.907-.159c-1.54 0-2.477.237-3.095.511l.746.497-.558.165-.425-.548c-.577.302-.833.616-1.124.696 0-.314-.089-.468-.089-.468-.419-.256-1.579-.036-1.579-.036s.087-.26.007-.364l-.586-.76z"/><path d="m27.893 21.403c0 .309.129.668.284.997.451-.34 1.174-.616 2.338-.616 3.547 0 6.552 2.398 7.758 3.512.541-.687 1.42-1.989 1.903-3.639-1.67-.424-6.125-1.464-9.573-1.464-2.71 0-2.71.818-2.71 1.21"/></g><path d="m48.663 4.212s-6.604-3.754-18.966-3.754c-14.598 0-20.123 3.754-20.123 3.754l-2.574 10.125c.096.329.196.656.298.981h1.003c-.107-.333-.212-.669-.313-1.008l2.465-9.698c1.4-.756 7.154-3.392 19.243-3.392 10.267 0 16.517 2.664 18.096 3.427l2.562 10.078c-.993-.305-10.217-3.061-19.839-3.098.076.455.065.98-.088 1.576 5.155.017 11.182 1.194 15.116 2.115h5.396c.103-.325.201-.652.298-.981z" fill="#b5b7b9"/><path d="m19.973 15.318h.443l.705-.659-.209-.109.352-.497s-.485-.182-.485-.382c0-.328.493-.965.753-1.279-1.268.259-2.125.528-2.616.705z" fill="#b5b7b9"/><path d="m29.675 44.77c-2.78-2.127-15.194-12.052-20.855-27.917h-1.012c6.468 18.567 21.889 29.381 21.889 29.381s14.36-10.814 20.737-29.381h-1.013c-5.559 15.833-17.108 25.751-19.746 27.917" fill="#b5b7b9"/><path d="m40.098 6.427-.114-1.388c-1.381-.312-2.916-.592-4.58-.799l.121 1.466.454-.351c.355.049.706.101 1.049.156l.298 3.627c.519.086 1.021.178 1.507.276l-.299-3.638c.323.062.641.127.949.193z" fill="#b5b7b9"/><path d="m26.653 8.146c-.088-.354.181-1.098 1.169-1.166l-.491-3.033c-.824.042-1.625.105-2.399.186l.365.362-1.186 3.593c.602-.299 1.464-.456 2.542.058m-.56-3.078.344 1.889c-.285.02-.566.043-.845.068z" fill="#b5b7b9"/><path d="m21.713 9.198.364-4.681c-.638.106-1.252.221-1.841.343l.307.305-.336 4.321c.486-.102.988-.198 1.506-.288" fill="#b5b7b9"/><path d="m29.696 3.886.309.307.029 4.314c.5.004.994.015 1.479.035l-.013-2.047 1.271 2.114c.467.031.926.069 1.377.112l-.195-4.638c-.486-.045-.981-.083-1.485-.113l.106 2.521-1.557-2.586c-.434-.012-.874-.019-1.321-.019" fill="#b5b7b9"/><path d="m13.47 9.554c-.169 1.246.684 1.632 1.77 1.257.688-.227 1.463-.463 2.316-.693l.24-2.398-1.635.462.32.3-.048.48c-.027.278-.267.568-.533.654l-.768.247c-.265.086-.451-.063-.414-.339l.259-1.911c.037-.276.285-.577.552-.66l.863-.269c.86-.246 1.174.143 1.174.143l.607-1.073s-.531-.281-1.659.04c-.992.283-2.654.881-2.654.881l.398.428s-.533.572-.673 1.607z" fill="#b5b7b9"/><path d="m43.461 6.686c.389.119.705.347.705.347l.145.274.133-.937s-.521-.29-1.283-.503c-.76-.213-1.738-.343-1.738.817 0 2.008 2.215 1.834 2.338 2.844.031.264-.25.482-.736.333-.486-.148-.846-.398-.846-.398l-.255-.423-.127 1.067 1.299.37c1.436.461 2.082.013 1.951-.982-.209-1.574-2.244-1.603-2.244-2.466 0-.294.252-.467.658-.343" fill="#b5b7b9"/><path d="m16.234 18.404s1.705-1.928 3.474-2.488l-.312-.27c-2.239.744-3.162 2.758-3.162 2.758" fill="#b5b7b9"/><path d="m16.898 19.163s1.656-1.907 3.465-2.493l-.313-.271c-2.138.705-3.152 2.764-3.152 2.764" fill="#b5b7b9"/><path d="m58.674 6.841-1.01 1.967 1.221 1.558 1.102-1.729c.383-.6-1.031-2.347-1.313-1.796" fill="#ceaa7a"/><path d="m55.096 13.819c-.041.079-1.012 1.922-2.571 1.922h-5.243c1.172.295 1.992.525 2.313.616-.008.024-.016.048-.025.073h4.819c.614 0 1.034-.634 1.037-.638l1.139-1.786-1.196-.718z" fill="#ceaa7a"/><path d="m13.201 16.146c0-.193.067-.32.164-.405h-10.949v.689h11.001c-.14-.072-.216-.141-.216-.284" fill="#ceaa7a"/><path d="m30.647 23.137c-2.804 0-1.627 2.335-1.627 2.335-.52-1.114-1.532-2.055-2.648-2.573-1.671-.777-1.593-1.566-2.54-1.566-1.434 0-1.999 3.339-1.999 3.339 2.839 4.446 7.546 6.264 7.546 6.264l.081 2.552c-6.32-4.744-7.708-8.272-7.708-8.272l-.284.883c3.014 5.756 8.358 8.822 8.358 8.822s4.72-3.642 6.969-7.115c.365-1.562-3.224-4.669-6.148-4.669" fill="#ceaa7a"/><path d="m21.431 13.46c.712 0 .928-.047.928-.318 0-.265-.21-.226-.313-.104l.398-.933-.142-.366s-1.02 1.447-1.02 1.703c0 .048.027.018.149.018" fill="#ceaa7a"/><path d="m22.557 11.469c.295 0 .71-.429.948-.429.401 0 .806.775.806.775s-1.587-.14-1.587.636c0 .6.692.354.692 1.108 0 .992.422.302.422-.452 0-.351-.276-.261-.276-.261s-.023-.111.244-.111c.209 0 .45.093.45.382 0 .163-.096.347.052.347.785 0 1.407-1.295 1.407-1.791 0-.309-.519.123-.519-.366 0-.555-.6-.663-1.022-.663-1.017 0-1.714.559-1.714.721 0 .084.041.104.097.104" fill="#ceaa7a"/><path d="m26.131 13.616c.322 0 .88-.833 1.177-.954.296-.12.408-.345.408-.644 0-.482-.272-.772-.629-.772-.312 0-.444.203-.444.469 0 .232.088.347.139.347.033 0 .074-.04.074-.119 0-.113-.106-.224-.106-.345 0-.116.177-.16.443-.16.113 0 .288.025.288.274 0 .47-.624 1.345-.888 1.345-.15 0-.214-.174-.522-.174-.138 0-.257.076-.257.34 0 .251.128.393.317.393" fill="#ceaa7a"/><path d="m20.402 15.741c.319.346.618.747.835 1.083.154-.301.401-.682.787-1.083z" fill="#ceaa7a"/><path d="m8.574 14.294 2.383-9.376c1.652-.839 7.317-3.202 18.74-3.202 9.696 0 15.74 2.394 17.597 3.252l2.27 8.935c-1.91-.552-10.328-2.833-19.195-2.841.063.175.113.362.147.565 9.623.036 18.846 2.792 19.838 3.097l-2.562-10.077c-1.578-.764-7.828-3.427-18.095-3.427-12.089 0-17.843 2.635-19.244 3.391l-2.464 9.699c.101.339.206.674.313 1.008h.594c-.11-.339-.218-.679-.322-1.024" fill="#97002e"/><path d="m26.879 19.008s.089.153.089.467c.291-.08.548-.393 1.125-.695l.425.548.558-.165-.747-.497c.619-.275 1.555-.512 3.095-.512.809 0 2.909.16 2.909.16s-1.667-.432-2.946-.575c0 0 3.082-.306 9.529.661 0 0-5.971-1.572-10.987-1.421 0 0 .461-.341 2.446-.341 4.205 0 12.786 1.682 12.786 1.682s-9.789-2.202-14.474-2.202c-2.638 0-2.606 1.071-2.606 1.071-.102 0-.627-1.333-.627-1.333l-.359.315-.847-.541-.035.952-.41.016.994 1.133c-.183 0-.628-.287-1.267-.345 0 0 .062.2-.045.235l-.763.227.586.759c.079.105-.007.365-.007.365s1.159-.221 1.578.036" fill="#97002e"/><path d="m27.189 21.403c0 1.056.942 2.304.942 2.304s.034-1.218 2.385-1.218c4.261 0 7.805 3.839 7.805 3.839s2.085-2.127 2.723-5.173c0 0-5.984-1.666-10.439-1.666-2.971 0-3.416.998-3.416 1.914m11.084 3.894c-1.205-1.114-4.211-3.513-7.757-3.513-1.165 0-1.887.276-2.339.617-.155-.33-.284-.689-.284-.998 0-.393 0-1.21 2.711-1.21 3.447 0 7.902 1.04 9.572 1.464-.483 1.651-1.362 2.953-1.903 3.64z" fill="#97002e"/><path d="m45.543 15.318c-3.935-.921-9.963-2.099-15.117-2.115-.035 0-.07 0-.105 0-4.241 0-6.571 1.055-7.843 2.115-.17.142-.321.284-.455.423-.386.401-.632.782-.787 1.083-.216-.336-.515-.737-.835-1.083-.139-.151-.281-.29-.423-.409l-.006-.014-1.057-2.221c.491-.177 1.348-.445 2.616-.704.094-.113.158-.185.158-.185s-.195-.088-.28-.37c-2.261.462-3.261.959-3.261.959l1.024 2.153c-.021.001-.041.003-.062.007-.401-.585-.851-1.177-1.353-1.587-.396-.324-.825-.534-1.288-.534-.55 0-.948.512-.948.771 0 .258.681.484.971.832-1.137-.376-1.571.315-1.571.315-.618-.074-1.151.259-1.151.498 0 .024.005.045.011.066.063.195.385.293.385.293s-.525-.108-.801.13c-.098.085-.165.211-.165.404 0 .143.076.213.216.284.176.09.455.182.816.423.333.223.735.573 1.19 1.167 0 .859 1.592 2.515 2.044 2.334-.547 1.497 1.774 5.838 2.275 5.838 1.541 0 2.045-7.47 5.422-4.801-1.384-1.599-2.355-3.063-3.049-3.647-.199-.168-.375-.263-.531-.267.665-1.634 2.698-3.71 8.738-3.71 7.521 0 17.099 2.573 18.541 2.974-5.308 15.015-16.069 24.359-19.2 26.992-3.295-2.58-14.814-11.896-20.24-26.88h-.601c5.66 15.865 18.074 25.791 20.855 27.917 2.637-2.166 14.186-12.084 19.747-27.917.049-.14.099-.281.146-.423.01-.024.018-.048.025-.073-.319-.091-1.141-.32-2.313-.615-.515-.13-1.099-.273-1.738-.423m-32.117.802c0-.228.299-.394.737-.394.82 0 1.398.796 1.398.796 0-.764-1.374-1.126-1.374-1.294 0-.165.434-.37.719-.37.48 0 1.039.47 1.039.47-.166-.574-.666-.425-.666-.519 0-.132.782-.523 1.755.039-.65-1.14-1.25-1.021-1.25-1.351 0-.198.372-.46.622-.46 1.147 0 2.426 1.954 2.426 1.954-1.708.235-3.291 2.719-3.291 2.719-1.065-1.272-2.115-1.152-2.115-1.59zm3.861 3.966c-.343 0-1.617-1.258-1.617-1.895 0-.635 2.249-3.048 3.484-3.048.402 0 1.54 1.165 1.862 1.752.134.245.061.48-.326.632-2.702 1.053-2.879 2.559-3.403 2.559zm6.299.19c-2.132.866-2.704 4.686-3.753 4.686-.572 0-2.236-2.54-2.236-3.954 0-1.462 2.907-3.224 3.821-3.224.734 0 2.438 2.382 2.168 2.492z" fill="#97002e"/><path d="m58.553 6.149-3.833 7.476s-.874 1.693-2.194 1.693h-1.587-5.396c.639.15 1.222.293 1.738.423h5.244c1.559 0 2.529-1.844 2.57-1.922l.271-.532 1.196.719-1.139 1.786c-.003.004-.423.637-1.037.637h-4.819c-.048.142-.098.283-.146.423h1.013 3.953c.862 0 1.394-.833 1.394-.833l4.722-7.405c.326-.495-1.553-3.222-1.95-2.465m1.434 2.488-1.102 1.729-1.221-1.558 1.01-1.967c.282-.551 1.696 1.196 1.313 1.796z" fill="#231f20"/><path d="m22.115 17.743c.693.583 1.664 2.047 3.049 3.647-3.377-2.67-3.882 4.801-5.423 4.801-.501 0-2.821-4.342-2.275-5.839-.451.182-2.043-1.474-2.043-2.333-.456-.595-.858-.944-1.191-1.167-.361-.241-.639-.333-.816-.423h-11v-.688h10.95c.277-.239.802-.13.802-.13s-.322-.098-.385-.293c-.007-.021-.011-.043-.011-.066 0-.239.533-.572 1.15-.499 0 0 .435-.69 1.571-.314-.289-.348-.97-.574-.97-.832 0-.259.398-.771.948-.771.462 0 .891.209 1.288.534l-.403-.847s1.144-.708 4.033-1.293c.121-1.268.924-2.112 1.733-2.344 0 0 .194-.269.56-.537l1.244-3.765-.704-.697c1.079-.128 2.21-.225 3.386-.279l.547 3.382c.39.064.853.315 1.154.674-1.524-1.057-2.652-.025-2.537.638-2.413-.852-3.19.536-3.19.536 2.41-1.03 4.863 1.621 4.863 1.621s-1.931-1.553-3.663-1.553c-2.483 0-3.157 1.499-3.157 2.471 0 .551.308.675.308.675s-.927 1.16-.927 1.545c0 .323.561.441.561.441l-.412.474.45.052-.8.754h-.388-.444l.007.014c.141.118.284.258.423.409h1.622c.134-.14.285-.281.455-.423 1.271-1.06 3.602-2.116 7.842-2.116.036 0 .071.001.106.001.153-.597.163-1.122.087-1.576-.033-.202-.083-.39-.146-.565-.079-.22-.178-.42-.287-.598h.24c7.837 0 15.225 1.728 18.408 2.586-.388-1.523-1.828-7.189-1.945-7.654-1.93-.855-7.848-3.081-17.087-3.081-10.868 0-16.47 2.178-18.228 3.019-.127.498-2.192 8.626-2.272 8.939.107.349.218.697.333 1.045h-.635-.595-1.003-4.882v-.285h-1.958v2.104h1.957v-.285h5.392 1.013.603.644c3.561 9.655 10.422 18.821 19.583 26.099 8.54-7.287 14.892-16.188 18.422-25.805-2.493-.661-11.021-2.781-17.751-2.781-5.781 0-7.632 1.928-8.206 3.378m-.685-4.284c-.122 0-.149.03-.149-.017 0-.257 1.021-1.703 1.021-1.703l.141.365-.397.933c.102-.121.313-.161.313.104 0 .272-.216.318-.929.318zm2.879.004c-.149 0-.053-.183-.053-.346 0-.289-.24-.382-.45-.382-.266 0-.243.11-.243.11s.276-.089.276.262c0 .753-.422 1.444-.422.451 0-.753-.693-.507-.693-1.108 0-.776 1.588-.635 1.588-.635s-.405-.775-.807-.775c-.237 0-.653.429-.947.429-.056 0-.098-.021-.098-.104 0-.162.698-.721 1.715-.721.422 0 1.022.108 1.022.663 0 .489.519.057.519.366-.001.495-.624 1.79-1.407 1.79zm2.999-.8c-.296.12-.854.953-1.176.953-.19 0-.318-.142-.318-.393 0-.264.119-.34.258-.34.308 0 .372.175.522.175.264 0 .888-.876.888-1.346 0-.248-.175-.274-.288-.274-.266 0-.443.044-.443.161 0 .12.106.231.106.344 0 .08-.042.119-.074.119-.051 0-.14-.115-.14-.347 0-.266.132-.468.445-.468.357 0 .629.289.629.772-.001.297-.113.523-.409.644zm15.941-7.11c.847.237 1.549.64 1.549.64l-.264 1.869c.398.312.748.739.836 1.389.15 1.135-.579 1.922-2.363 1.339l-1.564-.446.248-2.106c-.34-.349-.594-.831-.594-1.554-.001-1.189.892-1.517 2.152-1.131zm-2.959-.771.191 2.335-1.136-.844-.45-.094.299 3.647c-.69-.145-1.414-.281-2.172-.403l-.297-3.63-.656-.096-.819.635-.202-2.459c1.919.223 3.679.547 5.242.909zm-10.594-1.221c.51 0 1.014.009 1.51.025l.987 1.643-.066-1.603c.732.039 1.445.094 2.139.163l.225 5.297c-.621-.065-1.258-.12-1.909-.162l-.748-1.242.009 1.201c-.695-.033-1.406-.051-2.132-.051l-.031-4.502-.768-.762c.26-.005.522-.007.784-.007zm-7.262.573-.415 5.347c-.757.128-1.481.27-2.17.42l.359-4.612-.622-.616c.892-.195 1.842-.38 2.848-.539zm-9.287 5.376.115-.844c.1-.734.381-1.258.572-1.541l-.548-.59s1.32-.48 3.139-1.055c1.443-.458 2.197.141 2.197.141l-1.007 1.762s-.275-.652-1.132-.386l-.857.266c-.144.045-.306.24-.327.394l-.256 1.893.757-.243c.144-.047.294-.229.309-.376l.032-.32-.624-.585 2.651-.748-.31 3.096c-1.433.382-2.511.745-2.511.745-1.527.517-2.378-.304-2.2-1.609zm23.647 18.295c-2.249 3.474-6.969 7.115-6.969 7.115s-5.344-3.066-8.358-8.822l.284-.883s1.388 3.528 7.708 8.272l-.08-2.551s-4.708-1.818-7.547-6.267c0 0 .565-3.337 1.999-3.337.947 0 .87.79 2.54 1.567 1.116.519 2.129 1.459 2.649 2.574 0 0-1.177-2.336 1.626-2.336 2.925 0 6.513 3.107 6.148 4.668zm1.527-1.477s-3.545-3.839-7.805-3.839c-2.351 0-2.385 1.218-2.385 1.218s-.942-1.248-.942-2.304c0-.916.445-1.914 3.415-1.914 4.456 0 10.439 1.666 10.439 1.666-.638 3.046-2.722 5.173-2.722 5.173zm8.086-7.758s-10.2-1.775-14.031-1.775c-.346 0-.63.013-.887.03 0 0 4.963.089 10.404 1.772-3.65-.483-7.322-.729-8.85-.742l2.727.68c-.02-.001-3.552-.223-4.345-.223-1.135 0-2.029.135-2.746.396l.767.51-.987.292-.406-.523c-.482.247-.752.618-1.243.695.021-.35-.053-.556-.053-.556-.551-.209-1.69.05-1.69.05s.129-.305.116-.472l-.727-.943.931-.277c0-.046-.076-.279-.076-.279.6.035.983.192.983.192l-.829-.945.595-.023.041-1.082.979.625.438-.385s.333.84.521 1.235c0 0 .313-.864 2.65-.864 5.56 0 15.718 2.612 15.718 2.612z" fill="#231f20"/><path d="m44.231 7.849-.313-.59c-.631-.377-.78-.273-.78-.273-.103.192.324.412 1.093.863" fill="#231f20"/><path d="m43.434 9.561c-.117-.436-.786-.551-1.461-1.072l.445.742c.448.276.89.415 1.016.33" fill="#231f20"/><path d="m25.917 6.751.229-.018-.093-.512z" fill="#231f20"/><path d="m17.287 20.086c.524 0 .701-1.506 3.403-2.56.387-.151.461-.386.326-.631-.322-.587-1.46-1.753-1.862-1.753-1.235 0-3.484 2.413-3.484 3.049s1.274 1.895 1.617 1.895m3.076-3.417c-1.808.586-3.465 2.493-3.465 2.493s1.014-2.059 3.153-2.763zm-.967-1.023.312.27c-1.769.56-3.474 2.488-3.474 2.488s.923-2.013 3.162-2.758z" fill="#231f20"/><path d="m19.833 24.962c1.049 0 1.621-3.819 3.753-4.686.27-.109-1.434-2.492-2.169-2.492-.913 0-3.82 1.763-3.82 3.225 0 1.413 1.664 3.953 2.236 3.953" fill="#231f20"/><path d="m14.164 15.726c-.438 0-.737.166-.737.394 0 .438 1.05.318 2.114 1.59 0 0 1.583-2.484 3.291-2.719 0 0-1.279-1.954-2.425-1.954-.251 0-.623.262-.623.46 0 .33.601.211 1.251 1.351-.974-.562-1.755-.171-1.755-.039 0 .094.499-.055.665.519 0 0-.559-.47-1.039-.47-.284 0-.718.205-.718.37 0 .169 1.373.531 1.373 1.294 0 0-.579-.796-1.397-.796" fill="#231f20"/></svg>